/* XPM */
static char *result[] = {
/* columns rows colors chars-per-pixel */
"128 128 16 1 ",
"  c #202020",
". c #2C2C2C",
"X c gray22",
"o c #484848",
"O c gray33",
"+ c #646464",
"@ c gray44",
"# c #7C7C7C",
"$ c gray55",
"% c #989898",
"& c gray66",
"* c #B4B4B4",
"= c #C0C0C0",
"- c #D0D0D0",
"; c gainsboro",
": c #ECECEC",
/* pixels */
"................................................................................................................................",
"................................................................................................................................",
"OOOOOOOOOOOOOOOOOOOOoo;;;;;;;;;;;;;;;;;;;;;;;;;;;;;;;;  XX$$&&==------------====&&$$OO  ooooooooooooooooooooOOOOOOOOOOOOOOOOOOOO",
"OOOOOOOOOOOOOOOOOOOOoo;;;;;;;;;;;;;;;;;;;;;;;;;;;;;;;;  XX$$&&==------------====&&$$OO  ooooooooooooooooooooOOOOOOOOOOOOOOOOOOOO",
"OOOOOOOOOOOOOOOOOOOOoo;;------==------------==------$$  XX$$==**$$&&$$$$$$$$$$$$&&OOXX  XX@@$$$$$$$$$$$$##@@++oooooooooooooooooo",
"OOOOOOOOOOOOOOOOOOOOoo;;------==------------==------$$  XX$$==**$$&&$$$$$$$$$$$$&&OOXX  XX@@$$$$$$$$$$$$##@@++oooooooooooooooooo",
"$$$$$$$$$$$$$$$$  OOoo;;--==**--**--==**--====**--$$++  XX&&;;&&$$&&$$&&$$&&$$&&$$OOXX  XX$$;;;;;;;;;;;;==**&&$$$$$$$$$$$$$$$$$$",
"$$$$$$$$$$$$$$$$  OOoo;;--==**--**--==**--====**--$$++  XX&&;;&&$$&&$$&&$$&&$$&&$$OOXX  XX$$;;;;;;;;;;;;==**&&$$$$$$$$$$$$$$$$$$",
"--;;----**&&$$$$  OOoo;;--&&&&&&&&$$&&&&&&&&%%&&&&##OO  XX$$==$$$$$$&&&&&&&&$$$$@@OOXX  XX$$;;;;======--;;;;;;;;;;--------------",
"--;;----**&&$$$$  OOoo;;--&&&&&&&&$$&&&&&&&&%%&&&&##OO  XX$$==$$$$$$&&&&&&&&$$$$@@OOXX  XX$$;;;;======--;;;;;;;;;;--------------",
"&&&&&&&&&&&&##@@  OOoo::==%%&&&&&&&&&&&&%%&&$$&&&&@@OO  XXoo&&$$&&&&$$$$&&$$&&@@OOOOXX  XX$$;;**&&$$&&$$&&&&&&$$$$&&$$&&$$&&$$%%",
"&&&&&&&&&&&&##@@  OOoo::==%%&&&&&&&&&&&&%%&&$$&&&&@@OO  XXoo&&$$&&&&$$$$&&$$&&@@OOOOXX  XX$$;;**&&$$&&$$&&&&&&$$$$&&$$&&$$&&$$%%",
"**%%&&%%&&$$##@@  oooo::--&&$$&&%%&&$$%%%%%%$$%%&&$$OO  XXoo##$$$$&&$$&&&&$$&&@@XXXXXX  XX$$;;**$$&&$$%%$$$$$$&&$$$$%%%%&&%%$$&&",
"**%%&&%%&&$$##@@  oooo::--&&$$&&%%&&$$%%%%%%$$%%&&$$OO  XXoo##$$$$&&$$&&&&$$&&@@XXXXXX  XX$$;;**$$&&$$%%$$$$$$&&$$$$%%%%&&%%$$&&",
"****##**$$%%++OO  XXoo::--$$%%$$&&&&&&$$##$$%%&&$$++OO  XXoooo$$&&&&&&$$$$$$&&@@XXXXXX..XX$$;;**&&$$%%##&&%%##$$&&$$&&&&$$##&&%%",
"****##**$$%%++OO  XXoo::--$$%%$$&&&&&&$$##$$%%&&$$++OO  XXoooo$$&&&&&&$$$$$$&&@@XXXXXX..XX$$;;**&&$$%%##&&%%##$$&&$$&&&&$$##&&%%",
"%%&&&&%%%%@@oooo  ..oo====&&%%&&$$&&$$%%$$%%$$$$&&@@OO    ooOOoo##XXXXXXXXXXXXXXXXXX  ..XX##;;;;$$&&$$##%%##%%$$&&$$%%##&&&&##$$",
"%%&&&&%%%%@@oooo  ..oo====&&%%&&$$&&$$%%$$%%$$$$&&@@OO    ooOOoo##XXXXXXXXXXXXXXXXXX  ..XX##;;;;$$&&$$##%%##%%$$&&$$%%##&&&&##$$",
"$$$$$$$$@@OOoooo  ..oo&&::&&&&&&$$$$%%$$$$$$$$&&$$OO##..  XXooXXXXXXXXXXXXXXXXXX      oooooo==--$$$$$$%%%%%%%%$$$$&&$$&&&&$$&&$$",
"$$$$$$$$@@OOoooo  ..oo&&::&&&&&&$$$$%%$$$$$$$$&&$$OO##..  XXooXXXXXXXXXXXXXXXXXX      oooooo==--$$$$$$%%%%%%%%$$$$&&$$&&&&$$&&$$",
"@@@@@@@@OOooXXXX  ..oo$$;;$$&&$$%%##$$$$&&$$&&$$&&@@OO..  XXooXX....          ........ooOOoo==**$$&&$$&&$$$$$$@@@@++++++++++++++",
"@@@@@@@@OOooXXXX  ..oo$$;;$$&&$$%%##$$$$&&$$&&$$&&@@OO..  XXooXX....          ........ooOOoo==**$$&&$$&&$$$$$$@@@@++++++++++++++",
"OOOOoooooo        ..oo@@;;&&$$%%######&&%%$$$$##$$@@++XX  XXoooooooo@@##$$&&&&&&&&%%@@XXOOoo**$$@@@@++++++OOOOOOOOoooooooooooooo",
"OOOOoooooo        ..oo@@;;&&$$%%######&&%%$$$$##$$@@++XX  XXoooooooo@@##$$&&&&&&&&%%@@XXOOoo**$$@@@@++++++OOOOOOOOoooooooooooooo",
"          ........XXOOoo;;--$$$$$$%%%%$$$$&&##$$&&$$OOXX  XXoo@@&&&&;;;;::;;----%%@@OO  OOoo$$@@++++OOooooooXXXXXXXXXX..........",
"          ........XXOOoo;;--$$$$$$%%%%$$$$&&##$$&&$$OOXX  XXoo@@&&&&;;;;::;;----%%@@OO  OOoo$$@@++++OOooooooXXXXXXXXXX..........",
"..................XXOOoo&&--$$&&$$##$$&&$$$$%%$$$$@@OOXX  ..XX&&==;;--**$$&&$$&&$$@@XX  XXXXXXXXXXXXXXXXXXXXXX....              ",
"..................XXOOoo&&--$$&&$$##$$&&$$$$%%$$$$@@OOXX  ..XX&&==;;--**$$&&$$&&$$@@XX  XXXXXXXXXXXXXXXXXXXXXX....              ",
"XXXXXXXXXXXXXXXXXXXXOOoo$$--&&$$&&%%$$##$$##$$&&$$OOOOXX  ..oo&&;;==&&$$$$$$$$$$$$OOXX  XX....................XXXXXXXXXXXXXXXXXX",
"XXXXXXXXXXXXXXXXXXXXOOoo$$--&&$$&&%%$$##$$##$$&&$$OOOOXX  ..oo&&;;==&&$$$$$$$$$$$$OOXX  XX....................XXXXXXXXXXXXXXXXXX",
"OOooXXXXXXXXXXXXXXXXOOoo@@==$$&&%%$$&&%%&&$$&&$$&&OO@@oo  ..oo&&::&&$$$$&&$$&&$$&&OOXX  XXooOOOOOOOO  oooooooooooooooooooooooooo",
"OOooXXXXXXXXXXXXXXXXOOoo@@==$$&&%%$$&&%%&&$$&&$$&&OO@@oo  ..oo&&::&&$$$$&&$$&&$$&&OOXX  XXooOOOOOOOO  oooooooooooooooooooooooooo",
"%%%%%%%%%%%%%%%%%%..  OOoo====%%$$$$%%%%##$$$$$$$$@@OOOO    oo&&::$$$$&&&&$$&&$$$$OOXX  XX@@&&;;;;OOooOO##%%%%%%%%%%%%%%%%%%%%%%",
"%%%%%%%%%%%%%%%%%%..  OOoo====%%$$$$%%%%##$$$$$$$$@@OOOO    oo&&::$$$$&&&&$$&&$$$$OOXX  XX@@&&;;;;OOooOO##%%%%%%%%%%%%%%%%%%%%%%",
"------------****@@XX  OOoo$$==$$&&$$##$$$$$$&&$$@@$$@@oo    oo&&--&&&&$$$$&&$$&&$$OOXX  XX&&;;==&&  oo##==;;;;;;;;;;;;;;;;;;;;;;",
"------------****@@XX  OOoo$$==$$&&$$##$$$$$$&&$$@@$$@@oo    oo&&--&&&&$$$$&&$$&&$$OOXX  XX&&;;==&&  oo##==;;;;;;;;;;;;;;;;;;;;;;",
"&&%%$$&&$$&&&&@@@@XX  OOoo@@%%&&$$&&&&$$&&@@$$@@OO@@OOoo    oo&&--&&$$@@@@@@@@OOOOOOXX  XX;;==&&$$  oo%%;;--********************",
"&&%%$$&&$$&&&&@@@@XX  OOoo@@%%&&$$&&&&$$&&@@$$@@OO@@OOoo    oo&&--&&$$@@@@@@@@OOOOOOXX  XX;;==&&$$  oo%%;;--********************",
"&&$$&&$$&&$$$$@@@@XX  ooOOoo%%%%@@@@@@@@OOOO@@OO@@OOoo..    ..&&$$@@$$@@XXXXXXXXXXXXXX  ++;;**$$$$  oo%%;;**&&%%&&%%&&$$%%$$%%%%",
"&&$$&&$$&&$$$$@@@@XX  ooOOoo%%%%@@@@@@@@OOOO@@OO@@OOoo..    ..&&$$@@$$@@XXXXXXXXXXXXXX  ++;;**$$$$  oo%%;;**&&%%&&%%&&$$%%$$%%%%",
"&&%%$$&&$$&&&&@@OOXX  ooOOoo++OOOOOOOOooooooXX..            ..$$@@XXXXXX                ++;;&&&&$$  oo%%;;&&$$%%$$%%$$%%####$$$$",
"&&%%$$&&$$&&&&@@OOXX  ooOOoo++OOOOOOOOooooooXX..            ..$$@@XXXXXX                ++;;&&&&$$  oo%%;;&&$$%%$$%%$$%%####$$$$",
"&&$$&&$$&&$$$$@@OOXX  ooOOoo........                        ..XXOOXX        ............$$;;&&&&$$  oo$$==$$&&%%&&%%&&$$%%$$%%%%",
"&&$$&&$$&&$$$$@@OOXX  ooOOoo........                        ..XXOOXX        ............$$;;&&&&$$  oo$$==$$&&%%&&%%&&$$%%$$%%%%",
"$$&&####$$$$&&@@OOXX  XXOOOOooXX                oooooooooooooo$$$$%%&&&&%%$$$$##OO..XX++==;;&&$$##  oo$$==&&$$%%$$%%$$%%####$$$$",
"$$&&####$$$$&&@@OOXX  XXOOOOooXX                oooooooooooooo$$$$%%&&&&%%$$$$##OO..XX++==;;&&$$##  oo$$==&&$$%%$$%%$$%%####$$$$",
"$$$$####$$&&$$++ooXX  XX$$;;;;;;;;==**&&$$++XXoo++##&&&&====--;;;;;;;;;;;;;;--%%++  XX##;;==&&&&@@  oo##==&&%%$$&&$$&&$$####$$%%",
"$$$$####$$&&$$++ooXX  XX$$;;;;;;;;==**&&$$++XXoo++##&&&&====--;;;;;;;;;;;;;;--%%++  XX##;;==&&&&@@  oo##==&&%%$$&&$$&&$$####$$%%",
"$$$$&&&&$$$$$$++ooXX  XX;;==&&%%%%%%&&%%%%XXOOoo##--::::;;==**================@@OO  XX$$;;**%%$$@@  oo@@==$$&&%%$$%%$$$$&&$$&&$$",
"$$$$&&&&$$$$$$++ooXX  XX;;==&&%%%%%%&&%%%%XXOOoo##--::::;;==**================@@OO  XX$$;;**%%$$@@  oo@@==$$&&%%$$%%$$$$&&$$&&$$",
"%%&&$$$$&&$$@@OOXXXX  XX;;&&$$%%&&&&%%%%&&  OOoo%%::==$$&&$$&&%%$$&&%%&&%%$$$$++oo  XX$$::&&$$&&OO  oooo$$@@++OOOOOO++++@@##$$$$",
"%%&&$$$$&&$$@@OOXXXX  XX;;&&$$%%&&&&%%%%&&  OOoo%%::==$$&&$$&&%%$$&&%%&&%%$$$$++oo  XX$$::&&$$&&OO  oooo$$@@++OOOOOO++++@@##$$$$",
"++++++++++OOooXXXXXX  XX;;&&&&&&$$&&$$&&++  oooo%%::&&&&&&$$##&&&&$$$$$$&&$$&&OOoo  XX$$::&&&&%%OO  OO  XXXXooooooooooooooOOOOOO",
"++++++++++OOooXXXXXX  XX;;&&&&&&$$&&$$&&++  oooo%%::&&&&&&$$##&&&&$$$$$$&&$$&&OOoo  XX$$::&&&&%%OO  OO  XXXXooooooooooooooOOOOOO",
"OOooooXXXXXX        ..XX;;$$&&$$&&**$$##++  oooo%%::$$&&$$%%&&$$$$##$$&&%%$$$$OOoo  XX$$::$$&&$$OO  OOXX                  XXXXoo",
"OOooooXXXXXX        ..XX;;$$&&$$&&**$$##++  oooo%%::$$&&$$%%&&$$$$##$$&&%%$$$$OOoo  XX$$::$$&&$$OO  OOXX                  XXXXoo",
"            ......oooooo;;&&%%$$&&$$&&##++  XXoo%%::%%$$&&$$$$##$$##$$$$$$&&$$OOoo  XX$$::&&&&$$OO  OOXXXXXXXXXXXXXX......      ",
"            ......oooooo;;&&%%$$&&$$&&##++  XXoo%%::%%$$&&$$$$##$$##$$$$$$&&$$OOoo  XX$$::&&&&$$OO  OOXXXXXXXXXXXXXX......      ",
"oo++++@@$$%%$$$$$$$$oo  ;;&&##%%$$&&$$##++XX  oo%%::&&$$$$$$##$$##$$&&##$$$$&&OOoo  XX$$::%%&&&&OO  OOooooooOOOOOOOOOOOOOOXXXXXX",
"oo++++@@$$%%$$$$$$$$oo  ;;&&##%%$$&&$$##++XX  oo%%::&&$$$$$$##$$##$$&&##$$$$&&OOoo  XX$$::%%&&&&OO  OOooooooOOOOOOOOOOOOOOXXXXXX",
"++$$**;;;;;;------&&@@  ;;&&&&$$##$$&&$$++XX  oo$$;;==%%$$&&$$&&####$$##$$&&$$OOXX  XX$$;;$$$$&&OO  oo&&;;;;**$$++OOooooooooooOO",
"++$$**;;;;;;------&&@@  ;;&&&&$$##$$&&$$++XX  oo$$;;==%%$$&&$$&&####$$##$$&&$$OOXX  XX$$;;$$$$&&OO  oo&&;;;;**$$++OOooooooooooOO",
"++**----==**&&&&%%&&oo  ::%%%%&&##$$&&%%@@oo  oo##--==&&$$$$##$$####&&$$&&$$##OOXX..XX$$;;&&%%$$OO  oo;;$$$$**;;;;;;;;;;;;%%XXOO",
"++**----==**&&&&%%&&oo  ::%%%%&&##$$&&%%@@oo  oo##--==&&$$$$##$$####&&$$&&$$##OOXX..XX$$;;&&%%$$OO  oo;;$$$$**;;;;;;;;;;;;%%XXOO",
"++;;**&&&&$$&&%%&&$$@@  ::%%&&%%&&&&$$&&@@oo  XXOO==::&&&&%%$$&&$$&&####$$&&@@OOXX..XX$$;;$$&&$$OO  oo;;$$$$&&&&$$$$&&$$$$##XXOO",
"++;;**&&&&$$&&%%&&$$@@  ::%%&&%%&&&&$$&&@@oo  XXOO==::&&&&%%$$&&$$&&####$$&&@@OOXX..XX$$;;$$&&$$OO  oo;;$$$$&&&&$$$$&&$$$$##XXOO",
"++;;**%%$$&&$$&&$$&&@@  ::%%$$%%&&$$&&$$++OO  ..OO&&::&&&&&&$$$$##$$####&&$$@@oo....oo$$--&&&&$$OO  oo;;&&&&$$$$&&&&$$&&$$++XXoo",
"++;;**%%$$&&$$&&$$&&@@  ::%%$$%%&&$$&&$$++OO  ..OO&&::&&&&&&$$$$##$$####&&$$@@oo....oo$$--&&&&$$OO  oo;;&&&&$$$$&&&&$$&&$$++XXoo",
"++;;&&%%&&$$&&&&##&&OO  ;;&&&&&&%%$$%%&&++OO  ..OO$$::==&&$$&&$$$$%%$$&&$$&&++oo  ..oo$$--&&$$&&OO  oo--&&$$&&&&$$$$&&$$&&++XXoo",
"++;;&&%%&&$$&&&&##&&OO  ;;&&&&&&%%$$%%&&++OO  ..OO$$::==&&$$&&$$$$%%$$&&$$&&++oo  ..oo$$--&&$$&&OO  oo--&&$$&&&&$$$$&&$$&&++XXoo",
"++;;**&&$$$$&&%%&&$$OO  ;;==##%%##&&&&%%++OO    oo@@--==&&$$##%%$$$$%%$$%%$$++XX  ..oo$$--$$&&OOOO  oo==&&&&&&$$&&$$$$&&&&OOXXoo",
"++;;**&&$$$$&&%%&&$$OO  ;;==##%%##&&&&%%++OO    oo@@--==&&$$##%%$$$$%%$$%%$$++XX  ..oo$$--$$&&OOOO  oo==&&&&&&$$&&$$$$&&&&OOXXoo",
"++;;**$$&&&&$$&&$$&&OO  ==;;$$%%&&$$%%$$++OO    ooOO**;;&&$$&&$$&&$$&&$$$$++OOXX  XXoo##&&##OOXXXXXXoo&&&&$$&&&&$$&&$$$$&&OOXXXX",
"++;;**$$&&&&$$&&$$&&OO  ==;;$$%%&&$$%%$$++OO    ooOO**;;&&$$&&$$&&$$&&$$$$++OOXX  XXoo##&&##OOXXXXXXoo&&&&$$&&&&$$&&$$$$&&OOXXXX",
"++;;**&&&&$$&&%%&&$$OO  **;;##&&$$$$$$&&@@OO    XXOO$$==&&$$##++++OOooooXXXXXXXX  XXooOOXXXXXXXXoooo  @@OOooOOOOOOOOOOOOOOOOXXXX",
"++;;**&&&&$$&&%%&&$$OO  **;;##&&$$$$$$&&@@OO    XXOO$$==&&$$##++++OOooooXXXXXXXX  XXooOOXXXXXXXXoooo  @@OOooOOOOOOOOOOOOOOOOXXXX",
"++;;**$$&&&&$$&&##&&OO  %%;;%%##&&&&$$$$@@OO    XXOOoo$$$$++OOooXX                XXooOOooooOOOOOOOOOO                        XX",
"++;;**$$&&&&$$&&##&&OO  %%;;%%##&&&&$$$$@@OO    XXOOoo$$$$++OOooXX                XXooOOooooOOOOOOOOOO                        XX",
"++;;**$$$$%%&&$$&&$$OO  ##;;&&%%&&$$$$&&++OO    ..ooooXX......    ................XXooOOOOooooooooooooooooooXXXXXXXXXXXXXXXXXXXX",
"++;;**$$$$%%&&$$&&$$OO  ##;;&&%%&&$$$$&&++OO    ..ooooXX......    ................XXooOOOOooooooooooooooooooXXXXXXXXXXXXXXXXXXXX",
"++;;**&&&&$$%%&&%%&&OO  OO::$$&&$$$$&&$$++OO    ..ooooooXXXXXXXXXXooooooooooooooooooooOOOO##################################XXOO",
"++;;**&&&&$$%%&&%%&&OO  OO::$$&&$$$$&&$$++OO    ..ooooooXXXXXXXXXXooooooooooooooooooooOOOO##################################XXOO",
"++;;**$$$$&&$$&&$$@@OO  oo::&&$$$$##$$&&@@OO..  ..XX++##########################$$$$%%%%&&****============**==============##XXOO",
"++;;**$$$$&&$$&&$$@@OO  oo::&&$$$$##$$&&@@OO..  ..XX++##########################$$$$%%%%&&****============**==============##XXOO",
"++--**&&&&%%&&$$&&OO  ..oo::&&$$&&$$$$$$++OO..    XX##==============================--;;;;::::::::::::::::::::::;;;;----%%++..oo",
"++--**&&&&%%&&$$&&OO  ..oo::&&$$&&$$$$$$++OO..    XX##==============================--;;;;::::::::::::::::::::::;;;;----%%++..oo",
"++--**%%&&$$&&&&$$OO  ..oo::$$&&##%%$$&&++OOXX      ##==--::::::::::::;;::::;;::::::::::::;;;;--==**======&&====**====**##OO..oo",
"++--**%%&&$$&&&&$$OO  ..oo::$$&&##%%$$&&++OOXX      ##==--::::::::::::;;::::;;::::::::::::;;;;--==**======&&====**====**##OO..oo",
"++==**&&$$&&$$$$$$OO  XXoo;;&&&&$$&&$$$$++OOXX      ##==--**==========&&====&&======****&&%%%%$$$$&&$$&&$$$$$$&&$$&&$$&&@@OO..XX",
"++==**&&$$&&$$$$$$OO  XXoo;;&&&&$$&&$$$$++OOXX      ##==--**==========&&====&&======****&&%%%%$$$$&&$$&&$$$$$$&&$$&&$$&&@@OO..XX",
"oo==$$$$&&$$@@@@@@OO  XXoo--$$$$&&$$&&$$@@OOXX      ++==;;**$$$$$$$$$$$$&&$$&&&&%%$$%%&&&&&&%%##%%$$&&&&%%$$&&$$&&&&&&$$@@OO..XX",
"oo==$$$$&&$$@@@@@@OO  XXoo--$$$$&&$$&&$$@@OOXX      ++==;;**$$$$$$$$$$$$&&$$&&&&%%$$%%&&&&&&%%##%%$$&&&&%%$$&&$$&&&&&&$$@@OO..XX",
"oo**&&&&&&$$OOOOOO  ..XXoo**&&$$$$&&$$$$@@OOXX      oo==;;==$$%%$$&&$$&&$$%%&&$$$$%%&&&&$$%%$$%%$$$$##$$%%%%$$&&$$&&$$&&@@OO..XX",
"oo**&&&&&&$$OOOOOO  ..XXoo**&&$$$$&&$$$$@@OOXX      oo==;;==$$%%$$&&$$&&$$%%&&$$$$%%&&&&$$%%$$%%$$$$##$$%%%%$$&&$$&&$$&&@@OO..XX",
"oo######OOOOOOOOOO  ..XXoo%%%%&&$$$$$$@@++OOXX      ..**;;--&&&&$$$$$$$$##$$$$&&$$%%$$&&%%##$$$$&&$$$$&&$$####$$##%%$$%%@@OO  XX",
"oo######OOOOOOOOOO  ..XXoo%%%%&&$$$$$$@@++OOXX      ..**;;--&&&&$$$$$$$$##$$$$&&$$%%$$&&%%##$$$$&&$$$$&&$$####$$##%%$$%%@@OO  XX",
"ooXX      OOOOOOOO  XXoooo##++++++++++++OOOOXX      ..&&;;--$$$$&&$$&&$$$$&&$$####%%%%$$&&$$&&%%$$&&$$$$##$$$$$$&&$$####@@OO  XX",
"ooXX      OOOOOOOO  XXoooo##++++++++++++OOOOXX      ..&&;;--$$$$&&$$&&$$$$&&$$####%%%%$$&&$$&&%%$$&&$$$$##$$$$$$&&$$####@@OO  XX",
"OOOOOOooXX    ..  ..XXooXXXXXXXXXXXXXXXXXXXXXX      ..$$--****$$$$&&$$&&##$$$$%%##%%$$%%##&&$$$$##$$$$$$$$&&$$##$$%%####@@OO  XX",
"OOOOOOooXX    ..  ..XXooXXXXXXXXXXXXXXXXXXXXXX      ..$$--****$$$$&&$$&&##$$$$%%##%%$$%%##&&$$$$##$$$$$$$$&&$$##$$%%####@@OO  XX",
"oooooooooooooo......XXooXXXX                        ..$$%%@@@@@@@@@@@@@@&&$$&&&&$$$$##$$$$$$##$$$$&&$$&&$$$$&&$$$$$$$$%%@@OO  XX",
"oooooooooooooo......XXooXXXX                        ..$$%%@@@@@@@@@@@@@@&&$$&&&&$$$$##$$$$$$##$$$$&&$$&&$$$$&&$$$$$$$$%%@@OO  XX",
"oo##&&&&&&&&%%$$++ooooOOXXXX........................XXOOooXXXX..........OO@@@@##$$######################################++OO  XX",
"oo##&&&&&&&&%%$$++ooooOOXXXX........................XXOOooXXXX..........OO@@@@##$$######################################++OO  XX",
"oo&&==;;;;;;;;;;==&&&&$$@@++OOooXXXXXXXXXXXXXXXXXXXXooOOooooXXXXXXXXXXXX..ooOOOOOOOOOOOOOOOOOOOOOOOOOOOOOOOOOOOOOOOOOOOOOO  ..XX",
"oo&&==;;;;;;;;;;==&&&&$$@@++OOooXXXXXXXXXXXXXXXXXXXXooOOooooXXXXXXXXXXXX..ooOOOOOOOOOOOOOOOOOOOOOOOOOOOOOOOOOOOOOOOOOOOOOO  ..XX",
"oo&&;;&&&&$$==--;;;;;;==&&&&&&&&&&&&&&&&$$$$$$####@@++++OOOOooooooooooXXXX..........................                      ..XXoo",
"oo&&;;&&&&$$==--;;;;;;==&&&&&&&&&&&&&&&&$$$$$$####@@++++OOOOooooooooooXXXX..........................                      ..XXoo",
"oo&&;;&&&&&&****$$&&==;;;;;;;;;;;;;;;;;;;;;;;;----====&&&&&&&&&&$$ooOOooXXXXXXXXXXXXXXXXXX..............................XXXXoooo",
"oo&&;;&&&&&&****$$&&==;;;;;;;;;;;;;;;;;;;;;;;;----====&&&&&&&&&&$$ooOOooXXXXXXXXXXXXXXXXXX..............................XXXXoooo",
"oo&&;;&&$$&&####&&%%$$##&&$$&&$$&&$$&&&&$$&&$$&&&&**==;;;;;;--==##XXooOOooooooXXXXXXXXXXXXXXXXXXXXXXXXXXXXXXXXXXXXXXXXXXooooooOO",
"oo&&;;&&$$&&####&&%%$$##&&$$&&$$&&$$&&&&$$&&$$&&&&**==;;;;;;--==##XXooOOooooooXXXXXXXXXXXXXXXXXXXXXXXXXXXXXXXXXXXXXXXXXXooooooOO",
"oo&&--&&&&&&%%&&$$%%$$%%&&$$$$&&####$$&&##$$$$$$&&$$&&$$&&&&&&##++  XXOOoo&&;;;;&&##ooooooOOOOOOooooooooooooooooooooooooOOOOOOOO",
"oo&&--&&&&&&%%&&$$%%$$%%&&$$$$&&####$$&&##$$$$$$&&$$&&$$&&&&&&##++  XXOOoo&&;;;;&&##ooooooOOOOOOooooooooooooooooooooooooOOOOOOOO",
"oo&&==&&$$&&####%%&&$$&&&&%%$$##&&##$$##%%$$&&$$&&$$&&$$&&&&&&++OO  XXoooo;;&&&&;;;;;;;;**OOOOoo**;;;;;;;;;;;;;;--==**%%##ooooOO",
"oo&&==&&$$&&####%%&&$$&&&&%%$$##&&##$$##%%$$&&$$&&$$&&$$&&&&&&++OO  XXoooo;;&&&&;;;;;;;;**OOOOoo**;;;;;;;;;;;;;;--==**%%##ooooOO",
"oo&&$$++++++++++++++++++++++++++++++++++++++++++++++++++++++++OOOOXX  XXoo;;**************++OO##;;&&&&&&$$&&$$&&%%&&$$&&;;%%  OO",
"oo&&$$++++++++++++++++++++++++++++++++++++++++++++++++++++++++OOOOXX  XXoo;;**************++OO##;;&&&&&&$$&&$$&&%%&&$$&&;;%%  OO",
"oo$$++XXXXXXXXXXXXXXXXXXXXXXXXXXXXXXXXXXXXXXXXXXXXXXXXXXXXXXXXXXXXXX  ..oo**&&****%%++%%$$++oo**&&$$&&$$&&&&&&$$&&$$&&$$&&OO  OO",
"oo$$++XXXXXXXXXXXXXXXXXXXXXXXXXXXXXXXXXXXXXXXXXXXXXXXXXXXXXXXXXXXXXX  ..oo**&&****%%++%%$$++oo**&&$$&&$$&&&&&&$$&&$$&&$$&&OO  OO",
"ooXX                                                                  ..ooXXooXXOO++++++++++oo;;&&%%%%&&&&%%%%&&%%&&&&$$$$OO  OO",
"ooXX                                                                  ..ooXXooXXOO++++++++++oo;;&&%%%%&&&&%%%%&&%%&&&&$$$$OO  OO",
"OOooXXXXXX..............................................................XXOOOOXXXX          XXOOOOOOOOOOOOOOOOOOOOOOOOOOOOOO  OO",
"OOooXXXXXX..............................................................XXOOOOXXXX          XXOOOOOOOOOOOOOOOOOOOOOOOOOOOOOO  OO",
"OOOOOOOOooooooooooooooooXXXXXXXXXXXXXXXXXXXXXXXXXXXXXXXXXXXXXXXXXXXXXXXXXXOOOOOOOOXXXXXXXXXXXXOOOO                            OO",
"OOOOOOOOooooooooooooooooXXXXXXXXXXXXXXXXXXXXXXXXXXXXXXXXXXXXXXXXXXXXXXXXXXOOOOOOOOXXXXXXXXXXXXOOOO                            OO",
"XXXXXXXXXXXXXXXXXXXXXXXXXXXXXXXXXXXXXXXXXXXXXXXXXXXXXXXXXXXXXXXXXXXXXXXXXXXXXXXXXXXXXXXXXXXXXXXXXXXXXXXXXXXXXXXXXXXXXXXXXXXXXXXX",
"XXXXXXXXXXXXXXXXXXXXXXXXXXXXXXXXXXXXXXXXXXXXXXXXXXXXXXXXXXXXXXXXXXXXXXXXXXXXXXXXXXXXXXXXXXXXXXXXXXXXXXXXXXXXXXXXXXXXXXXXXXXXXXXX"
};
