/* XPM */
static char *ddcb31403ce34bd2de044ddc98c96b500FAQhBrni4urmmem[] = {
/* columns rows colors chars-per-pixel */
"128 128 5 1 ",
"  c #28200C",
". c #382C14",
"X c #403018",
"o c #483818",
"O c #5C4020",
/* pixels */
"                                                                                                                                ",
"                                                                                                                                ",
"XXXXXXXXXXXXXXXXXXXXXXXXXXXXXXXXXXXXXXXXXXXXXXXXXXXXXXXXXXXXXXXXXXXXXXXXXXXXXXXXXXXXXXXXXXXXXXXXXXXXXXXXXXXXXXXXXXXXXXXXXXXXXXXX",
"XXXXXXXXXXXXXXXXXXXXXXXXXXXXXXXXXXXXXXXXXXXXXXXXXXXXXXXXXXXXXXXXXXXXXXXXXXXXXXXXXXXXXXXXXXXXXXXXXXXXXXXXXXXXXXXXXXXXXXXXXXXXXXXX",
"OOOOOOOOOOOOOOOOOOOOOOOOOOOOOOOOOOOOOOOOOOOOOOOOOOOOOOOOOOOOOOOOOOOOOOOOOOOOOOOOOOOOOOOOOOOOOOOOOOOOOOOOOOOOOOOOOOOOOOOOOOOOOOOO",
"OOOOOOOOOOOOOOOOOOOOOOOOOOOOOOOOOOOOOOOOOOOOOOOOOOOOOOOOOOOOOOOOOOOOOOOOOOOOOOOOOOOOOOOOOOOOOOOOOOOOOOOOOOOOOOOOOOOOOOOOOOOOOOOO",
"                                                                                                                                ",
"                                                                                                                                ",
"    XXoooooooo  OO    OO..        oooo  XX  XX      OO    OOoo  oo  OO    OO..      ..  OO    OO  oo    oo  oo  oooo  OO    OOXX",
"    XXoooooooo  OO    OO..        oooo  XX  XX      OO    OOoo  oo  OO    OO..      ..  OO    OO  oo    oo  oo  oooo  OO    OOXX",
"    XXoooooo..  OO    OOXX        oooo  XX  XX      OO    OOoo  oo  OO    OOoo..  ..oo  OO    OO  oo    oo  oo  oooo  OO    OOXX",
"    XXoooooo..  OO    OOXX        oooo  XX  XX      OO    OOoo  oo  OO    OOoo..  ..oo  OO    OO  oo    oo  oo  oooo  OO    OOXX",
"    ..oooooo    OO    OOoo        oooo  XX  XX      OO    OOXX  oo  OO    OOoooo..oooo  OO    OO  oo    oo  oo  oooo  OO    OOXX",
"    ..oooooo    OO    OOoo        oooo  XX  XX      OO    OOXX  oo  OO    OOoooo..oooo  OO    OO  oo    oo  oo  oooo  OO    OOXX",
"      XXoooo    OO    OOoo      ..ooXX  XX  XX      OO    OOXX  oo  OO    OOoooooooooo  OO    OO  oo    oo  oo  oooo  OO    OOXX",
"      XXoooo    OO    OOoo      ..ooXX  XX  XX      OO    OOXX  oo  OO    OOoooooooooo  OO    OO  oo    oo  oo  oooo  OO    OOXX",
"XX    ..oo..    OO    OOoo..    XXooXX  XX  XX      OO    OOXX  oo  OO    OOoooooooooo  OO    OO  oo    oo  oo  XXoo  OO    OO  ",
"XX    ..oo..    OO    OOoo..    XXooXX  XX  XX      OO    OOXX  oo  OO    OOoooooooooo  OO    OO  oo    oo  oo  XXoo  OO    OO  ",
"XX      ..      OO    OOooXX  ..oooo..  XX  XX      OO    OO..  oo  OO    OOoooooooooo  OO    OO  oo    oo  oo  XXoo  OO    OO  ",
"XX      ..      OO    OOooXX  ..oooo..  XX  XX      OO    OO..  oo  OO    OOoooooooooo  OO    OO  oo    oo  oo  XXoo  OO    OO  ",
"oo              OO    OOoooo..XXoooo..  XX  XX      OO    OO..  oo  OO    OOoooooooooo  OO    OO  oo    oo  oo  ..oo  OO    OO  ",
"oo              OO    OOoooo..XXoooo..  XX  XX      OO    OO..  oo  OO    OOoooooooooo  OO    OO  oo    oo  oo  ..oo  OO    OO  ",
"oo              OO    OOooooXXoooooo    XX  XX      OO    OO    oo  OO    OOoooooooooo  OO    OO  oo    oo  oo  ..oo  OO    OO  ",
"oo              OO    OOooooXXoooooo    XX  XX      OO    OO    oo  OO    OOoooooooooo  OO    OO  oo    oo  oo  ..oo  OO    OO  ",
"XXoo        oo  OO    OOooooXXoooooo    XX  XX      OO    OO  ..oo  OO    OOXXoooooooo  OO    OO  oo    oo  oo    oo  OO    OO  ",
"XXoo        oo  OO    OOooooXXoooooo    XX  XX      OO    OO  ..oo  OO    OOXXoooooooo  OO    OO  oo    oo  oo    oo  OO    OO  ",
"XXoo        oo  OO    OOooooooooooXX    XX  XX      OO    OO  ..oo  OO    OOXXooooooXX  OO    OO  oo    oo  oo    oo  OO    OO  ",
"XXoo        oo  OO    OOooooooooooXX    XX  XX      OO    OO  ..oo  OO    OOXXooooooXX  OO    OO  oo    oo  oo    oo  OO    OO  ",
"..oooo    oooo  OO    OOooooooooooXX    XX  XX      OO    OO  oooo  OO    OO..ooooooXX  OO    OO  oo    oo  oo    oo  OO    OO  ",
"..oooo    oooo  OO    OOooooooooooXX    XX  XX      OO    OO  oooo  OO    OO..ooooooXX  OO    OO  oo    oo  oo    oo  OO    OO  ",
"  oooooo  oo..  OO    OOXXooooooooXX    XX  XX      OO    OO..oooo  OO    OO  XXooXX..  OO    OO  oo    oo  oo    oo  OO    OO  ",
"  oooooo  oo..  OO    OOXXooooooooXX    XX  XX      OO    OO..oooo  OO    OO  XXooXX..  OO    OO  oo    oo  oo    oo  OO    OO  ",
"  XXoooo..oo    OO    OOXXoooooooo..    XX  XX      OO    OO..ooXX  OO    OO  ..XX..    OO    OO  oo    oo  oo..  oo  OO    OO  ",
"  XXoooo..oo    OO    OOXXoooooooo..    XX  XX      OO    OO..ooXX  OO    OO  ..XX..    OO    OO  oo    oo  oo..  oo  OO    OO  ",
"  XXoooooooo    OO    OO..oooooooo..    XX  XX      OO    OOooooXX  OO    OO    ..      OO    OO  oo    oo  oo..  XX  OO    OO  ",
"  XXoooooooo    OO    OO..oooooooo..    XX  XX      OO    OOooooXX  OO    OO    ..      OO    OO  oo    oo  oo..  XX  OO    OO  ",
"  ..XXoooooo    OO    OO..oooooooo      XX  XX      OO    OOoooo..  OO    OO            OO    OO  oo    oo  ooXX  XX  OO    OOXX",
"  ..XXoooooo    OO    OO..oooooooo      XX  XX      OO    OOoooo..  OO    OO            OO    OO  oo    oo  ooXX  XX  OO    OOXX",
"    XXoooo..    OO    OO  XXoooooo      XX  XX      OO    OOooXX..  OO    OO            OO    OO  oo    oo  ooXX  XX  OO    OOXX",
"    XXoooo..    OO    OO  XXoooooo      XX  XX      OO    OOooXX..  OO    OO            OO    OO  oo    oo  ooXX  XX  OO    OOXX",
"    ..oooo      OO    OO  XXooooXX      XX  XX      OO    OOooXX    OO    OO            OO    OO  oo    oo  ooXX  ..  OO    OOXX",
"    ..oooo      OO    OO  XXooooXX      XX  XX      OO    OOooXX    OO    OO            OO    OO  oo    oo  ooXX  ..  OO    OOXX",
"      oooo      OO    OO  ..ooooXX      XX  XX      OO    OOoo..    OO    OO..      ..  OO    OO  oo    oo  oooo  ..  OO    OOXX",
"      oooo      OO    OO  ..ooooXX      XX  XX      OO    OOoo..    OO    OO..      ..  OO    OO  oo    oo  oooo  ..  OO    OOXX",
"      ..        OO    OO  ..oooo..    ..XX  XX      OO    OOXX      OO    OOXX..  ..XX  OO    OO  oo    oo  XXoo      OO    OOXX",
"      ..        OO    OO  ..oooo..    ..XX  XX      OO    OOXX      OO    OOXX..  ..XX  OO    OO  oo    oo  XXoo      OO    OOXX",
"                OO    OO    XXXX..    ..XX  XX      OO    OO..      OO    OOooXX..XXoo  OO    OO  oo    oo  XXoo      OO    OOXX",
"                OO    OO    XXXX..    ..XX  XX      OO    OO..      OO    OOooXX..XXoo  OO    OO  oo    oo  XXoo      OO    OOXX",
"                OO    OO    ....      ....  XX      OO    OO        OO    OOooooXXoooo  OO    OO  oo    oo  ..oo      OO    OO..",
"                OO    OO    ....      ....  XX      OO    OO        OO    OOooooXXoooo  OO    OO  oo    oo  ..oo      OO    OO..",
"XX          XX  OO    OO              XX    XX      OO    OO        OO    OOoooooooooo  OO    OO  oo    oo  ..oo..    OO    OO  ",
"XX          XX  OO    OO              XX    XX      OO    OO        OO    OOoooooooooo  OO    OO  oo    oo  ..oo..    OO    OO  ",
"XX          XX  OO    OO              XX    XX      OO    OO        OO    OOoooooooooo  OO    OO  oo    oo    oo..    OO    OO  ",
"XX          XX  OO    OO              XX    XX      OO    OO        OO    OOoooooooooo  OO    OO  oo    oo    oo..    OO    OO  ",
"XX          ..  OO    OO              oo    XX      OO    OO        OO    OOoooooooooo  OO    OO  oo    oo    ooXX    OO    OO  ",
"XX          ..  OO    OO              oo    XX      OO    OO        OO    OOoooooooooo  OO    OO  oo    oo    ooXX    OO    OO  ",
"..              OO    OO            ..oo    XX      OO    OO    ..  OO    OOXXoooooooo  OO    OO  oo    oo    ooXX    OO    OO  ",
"..              OO    OO            ..oo    XX      OO    OO    ..  OO    OOXXoooooooo  OO    OO  oo    oo    ooXX    OO    OO  ",
"  XX      XX    OO    OO            ..oo    XX      OO    OO    XX  OO    OOXXoooooooo  OO    OO  oo    oo    oooo..  OO    OO  ",
"  XX      XX    OO    OO            ..oo    XX      OO    OO    XX  OO    OOXXoooooooo  OO    OO  oo    oo    oooo..  OO    OO  ",
"  XX      XX    OO    OO            XXoo    XX      OO    OO    XX  OO    OO..ooooooXX  OO    OO  oo    oo    oooo..  OO    OO  ",
"  XX      XX    OO    OO            XXoo    XX      OO    OO    XX  OO    OO..ooooooXX  OO    OO  oo    oo    oooo..  OO    OO  ",
"  ..    XX..    OO    OO            XXoo    XX      OO    OO  ..oo  OO    OO..XXooooXX  OO    OO  oo    oo    XXooXX  OO    OO  ",
"  ..    XX..    OO    OO            XXoo    XX      OO    OO  ..oo  OO    OO..XXooooXX  OO    OO  oo    oo    XXooXX  OO    OO  ",
"    XX  XX      OO    OO..          ooXX    XX      OO    OO  XXoo  OO    OO  XXoooo..  OO    OO  oo    oo    XXooXX  OO    OO  ",
"    XX  XX      OO    OO..          ooXX    XX      OO    OO  XXoo  OO    OO  XXoooo..  OO    OO  oo    oo    XXooXX  OO    OO  ",
"    XX  XX      OO    OOXX        ..ooXX    XX      OO    OO..oooo  OO    OO  ..ooXX    OO    OO  oo    oo    ..oooo  OO    OO  ",
"    XX  XX      OO    OOXX        ..ooXX    XX      OO    OO..oooo  OO    OO  ..ooXX    OO    OO  oo    oo    ..oooo  OO    OO  ",
"    ..XX..      OO    OOoo..      ..oo..  ..XX      OO    OOXXoooo  OO    OO    XX..    OO    OO  oo    oo    ..oooo  OO    OO  ",
"    ..XX..      OO    OOoo..      ..oo..  ..XX      OO    OOXXoooo  OO    OO    XX..    OO    OO  oo    oo    ..oooo  OO    OO  ",
"      ..        OO    OOooXX      oooo    ..XX      OO    OOoooooo  OO    OO    ..      OO    OO  oo    oo      oooo  OO    OO  ",
"      ..        OO    OOooXX      oooo    ..XX      OO    OOoooooo  OO    OO    ..      OO    OO  oo    oo      oooo  OO    OO  ",
"                OO    OOoooo..  ..oooo    ..XX      OO    OOooooXX  OO    OO            OO    OO  oo    oo      oooo  OO    OO..",
"                OO    OOoooo..  ..oooo    ..XX      OO    OOooooXX  OO    OO            OO    OO  oo    oo      oooo  OO    OO..",
"                OO    OOoooooo..oooooo    XXXX      OO    OOooooXX  OO    OO            OO    OO  oo    oo..    oooo  OO    OOXX",
"                OO    OOoooooo..oooooo    XXXX      OO    OOooooXX  OO    OO            OO    OO  oo    oo..    oooo  OO    OOXX",
"                OO    OOooooooooooooXX    XXXX      OO    OOoooo..  OO    OO            OO    OO  oo    oo..    XXoo  OO    OOXX",
"                OO    OOooooooooooooXX    XXXX      OO    OOoooo..  OO    OO            OO    OO  oo    oo..    XXoo  OO    OOXX",
"                OO    OOXXooooooooooXX    ooXX      OO    OOooXX..  OO    OO..          OO    OO  oo    ooXX    XXoo  OO    OOXX",
"                OO    OOXXooooooooooXX    ooXX      OO    OOooXX..  OO    OO..          OO    OO  oo    ooXX    XXoo  OO    OOXX",
"            ..  OO    OOXXoooooooooo..    ooXX      OO    OOooXX    OO    OO..          OO    OO  oo    XXXX    ..oo  OO    OO  ",
"            ..  OO    OOXXoooooooooo..    ooXX      OO    OOooXX    OO    OO..          OO    OO  oo    XXXX    ..oo  OO    OO  ",
"XX          ..  OO    OO..oooooooooo      oo..      OO    OOoo..    OO    OOXX..    ..  OO    OO  oo    XXoo    ..oo  OO    OO  ",
"XX          ..  OO    OO..oooooooooo      oo..      OO    OOoo..    OO    OOXX..    ..  OO    OO  oo    XXoo    ..oo  OO    OO  ",
"XX          XX  OO    OO  oooooooooo      oo..      OO    OOXX..    OO    OOoo..  ....  OO    OO  oo    ..oo      XX  OO    OO  ",
"XX          XX  OO    OO  oooooooooo      oo..      OO    OOXX..    OO    OOoo..  ....  OO    OO  oo    ..oo      XX  OO    OO  ",
"XX..      ..XX  OO    OO  XXooooooXX      oo        OO    OOXX      OO    OOooXX....XX  OO    OO  oo    ..oo      XX  OO    OO  ",
"XX..      ..XX  OO    OO  XXooooooXX      oo        OO    OOXX      OO    OOooXX....XX  OO    OO  oo    ..oo      XX  OO    OO  ",
"XXXX      XX..  OO    OO  ..oooooo..    ..oo        OO    OO..      OO    OOoooo..XXoo  OO    OO  oo      oo      ..  OO    OO  ",
"XXXX      XX..  OO    OO  ..oooooo..    ..oo        OO    OO..      OO    OOoooo..XXoo  OO    OO  oo      oo      ..  OO    OO  ",
"..XX..  ..XX    OO    OO    XXooXX      XXoo        OO    OO        OO    OOooooXXoooo  OO    OO  oo      oo..    ..  OO    OO  ",
"..XX..  ..XX    OO    OO    XXooXX      XXoo        OO    OO        OO    OOooooXXoooo  OO    OO  oo      oo..    ..  OO    OO  ",
"  XXXX..XXXX    OO    OO      XX..      XXoo        OO    OO        OO    OOoooooooooo  OO    OO  oo      oo..        OO    OO  ",
"  XXXX..XXXX    OO    OO      XX..      XXoo        OO    OO        OO    OOoooooooooo  OO    OO  oo      oo..        OO    OO  ",
"  XXXX..XXXX    OO    OO                ooXX        OO    OO        OO    OOoooooooooo  OO    OO  oo      ooXX        OO    OO  ",
"  XXXX..XXXX    OO    OO                ooXX        OO    OO        OO    OOoooooooooo  OO    OO  oo      ooXX        OO    OO  ",
"  XXooooooXX    OO    OO                ooXX        OO    OO    ..  OO    OOooooooooXX  OO    OO  oo      ooXX        OO    OO  ",
"  XXooooooXX    OO    OO                ooXX        OO    OO    ..  OO    OOooooooooXX  OO    OO  oo      ooXX        OO    OO  ",
"  ..ooooooXX    OO    OO              ..oo..        OO    OO    XX  OO    OOXXooooooXX  OO    OO  oo      XXoo..      OO    OO  ",
"  ..ooooooXX    OO    OO              ..oo..        OO    OO    XX  OO    OOXXooooooXX  OO    OO  oo      XXoo..      OO    OO  ",
"    XXooooXX    OO    OO..            XXoo..        OO    OO  ..oo  OO    OOXXoooooo..  OO    OO  oo      XXoo..      OO    OO  ",
"    XXooooXX    OO    OO..            XXoo..        OO    OO  ..oo  OO    OOXXoooooo..  OO    OO  oo      XXoo..      OO    OO  ",
"    XXoooo..    OO    OOXX            XXoo          OO    OO  XXoo  OO    OO..oooooo..  OO    OO  oo      ..ooXX      OO    OO  ",
"    XXoooo..    OO    OOXX            XXoo          OO    OO  XXoo  OO    OO..oooooo..  OO    OO  oo      ..ooXX      OO    OO  ",
"    ..ooXX..    OO    OOoo            ooXX          OO    OOXXoooo  OO    OO..ooooXX    OO    OO  oo      ..ooXX..    OO    OO  ",
"    ..ooXX..    OO    OOoo            ooXX          OO    OOXXoooo  OO    OO..ooooXX    OO    OO  oo      ..ooXX..    OO    OO  ",
"      XXXX      OO    OOoo..        ..ooXX    ..    OO    OOoooooo  OO    OO  XXooXX    OO    OO  oo        XXoo..    OO    OO..",
"      XXXX      OO    OOoo..        ..ooXX    ..    OO    OOoooooo  OO    OO  XXooXX    OO    OO  oo        XXoo..    OO    OO..",
"      XX..      OO    OOXXXX        XXoo..    ..    OO    OOoooooo  OO    OO  XXoo..    OO    OO  oo        ..ooXX    OO    OO..",
"      XX..      OO    OOXXXX        XXoo..    ..    OO    OOoooooo  OO    OO  XXoo..    OO    OO  oo        ..ooXX    OO    OO..",
"      ....      OO    OOXXoo        XXoo      XX    OO    OOoooooo  OO    OO  ..XX      OO    OO  oo        ..ooXX    OO    OOXX",
"      ....      OO    OOXXoo        XXoo      XX    OO    OOoooooo  OO    OO  ..XX      OO    OO  oo        ..ooXX    OO    OOXX",
"                OO    OO..ooXX      oooo      XX    OO    OOoooooo  OO    OO    ..      OO    OO  oo          XXoo    OO    OOXX",
"                OO    OO..ooXX      oooo      XX    OO    OOoooooo  OO    OO    ..      OO    OO  oo          XXoo    OO    OOXX",
"                OO    OO  XXooXX  ooooXX      XX    OO    OOoooooo  OO    OO            OO    OO  XX..        ..ooXX  OO    OOoo",
"                OO    OO  XXooXX  ooooXX      XX    OO    OOoooooo  OO    OO            OO    OO  XX..        ..ooXX  OO    OOoo",
"                OO    OO  ..oooooooooo..      oo    OO    OOooooXX  OO    OO            OO    OO  XXXX        ..ooXX  OO    OOoo",
"                OO    OO  ..oooooooooo..      oo    OO    OOooooXX  OO    OO            OO    OO  XXXX        ..ooXX  OO    OOoo",
"..          XX  OO    OO    ooooooooXX      ..oo    OO    OOooooXX  OO    OO            OO    OO  ..XX          XXXX  OO    OOoo",
"..          XX  OO    OO    ooooooooXX      ..oo    OO    OOooooXX  OO    OO            OO    OO  ..XX          XXXX  OO    OOoo",
"..          XX  OO    OO    ..XXooXX..      XXoo    OO    OOooXX..  OO    OO            OO    OO  ..oo          ....  OO    OOoo",
"..          XX  OO    OO    ..XXooXX..      XXoo    OO    OOooXX..  OO    OO            OO    OO  ..oo          ....  OO    OOoo",
"XX          XX  OO    OO      ..XX..        XXoo    OO    OOooXX..  OO    OO            OO    OO    oo                OO    OOoo",
"XX          XX  OO    OO      ..XX..        XXoo    OO    OOooXX..  OO    OO            OO    OO    oo                OO    OOoo",
"XX..        XX  OO    OO        ..        XXoooo..  OO    OOXX..    OO    OO            OO    OO..  oo..              OO    OOoo",
"XX..        XX  OO    OO        ..        XXoooo..  OO    OOXX..    OO    OO            OO    OO..  oo..              OO    OOoo",
"..............  OO    OO..              ..........  OO    OO..      OO    OO..      ..  OO    OO..  ....              OO    OO..",
"..............  OO    OO..              ..........  OO    OO..      OO    OO..      ..  OO    OO..  ....              OO    OO.."
};
