/* XPM */
static char *ASHWALL6[] = {
/* columns rows colors chars-per-pixel */
"64 128 69 1 ",
"  c #474F33",
". c #2F371F",
"X c #232B0F",
"o c #171F07",
"O c #3F472B",
"+ c #53573B",
"@ c #373F27",
"# c #5B6347",
"$ c #332B13",
"% c gray42",
"& c gray39",
"* c #0F1700",
"= c #1F170B",
"- c #676B4F",
"; c #2F2F2F",
": c #434343",
"> c #939393",
", c #4B4B4B",
"< c gray34",
"1 c #574333",
"2 c gray50",
"3 c #533F2F",
"4 c #777777",
"5 c #5B5B5B",
"6 c #131313",
"7 c #67533F",
"8 c #373737",
"9 c #838383",
"0 c #1B1B1B",
"q c #232323",
"w c #6F7357",
"e c #7B7F63",
"r c #0B0B0B",
"t c #473323",
"y c #8B8B8B",
"u c #5F4B37",
"i c #6F5743",
"p c #979797",
"a c #7B634F",
"s c #A7A7A7",
"d c #775F4B",
"f c #272727",
"g c #2B230F",
"h c #836B57",
"j c #6F6F6F",
"k c #8B735B",
"l c #4F3B2B",
"z c #43331B",
"x c #4F3B23",
"c c #675333",
"v c #3F2B1B",
"b c #170F07",
"n c #070707",
"m c gray31",
"M c #775F3F",
"N c #432F1B",
"B c #937B63",
"V c gray70",
"C c #9F876F",
"Z c gray23",
"A c #A78F77",
"S c #372313",
"D c #BFA78F",
"F c #836B4B",
"G c #AF977F",
"H c #B7B7B7",
"J c #5B472B",
"K c gray28",
"L c #9B7F6B",
/* pixels */
"O@-8X+X,>0XO 1X:5 3oXo@.>X1O+;OO $-OX1=,y6=O1+o.55 =.o.:po +#@O:",
"0X.+&X.$f.. o&&.#X&&.@.o%%,.X0#o0X$<&X.XXX8 o4&.&t2&$OXo2#$.q0+o",
" .X OX&.9o=#$$*@<$$*$X.2=X,5qO$o $X ,;%.2oX5..*X%u@0$og>o.@ XX$*",
"   oo..X;>=..&%..X<&.,3o%o*,X4X,+  o=X3Xoy=.;#%o.$54=@.o%Xn#X%X ",
".wo .+4 .. +8eoww:#o#.-..pyX@  ;@<o X+& $. +$w;a+X-X-X-X.sy.O  X",
"0a.O.o9ow.X .oO.#mXO$> #..q.@&+ *#Xt8.y=#.X $=O,+X=@.p&#.O.X@e+1",
" ,-u.o; *&X+reoX 6>oo+..@o+0:6 y@ #O8X,+*&.+r4oo#02=o . @o#6X07>",
"o6-@ &o<=o-w,u%$# i9Xo0 >otX@%*=X=-3 &X4oo-w u&Xw&h&X** >=$O$ 6.",
". .X= o, .+::q. $$o$ OD.@-O %,X   XOX =<+. @3X$1.,;,MOs:O#.+2.o ",
"X#&#$X,O..Xe,.$ %$XX3ro+o20Xb>XX.#5<:X< .8o&8O8 %8..+0o5X>0o62XX",
",+X3&@ *%.==8O$ X.O$O1 OoX&%*&.%# o@&. 0%:;=X tOoXO$@ 1Oo.%26#.#",
"o O. #+o+=#OC6 + >0 -q.p o$+ . 2o ..@#+o+.e 4= 7O46 -o.V o$+&,&>",
" 4+1X +-X$   >. 3@p8 >6XX+3.=X@Xi%@ .O+#X.  @>.  ;9. 2*..+$$X,<8",
"..$ X#.X: .=*#8.o*<$O.% 7@>Ooo3*qXX ;+==;OOor<...6<X.O% #@&Xo* f",
"$.@.+X-2o#+XOX-@oOq-+&-o *7%+ - 3O $7:e4o+Oo@.-3; X7@  oO01a@ - ",
"O=3.%$ o&$++ oXX  =oX07%q 7o,e4 #.+3%S&.%.+u *o$&&o=.*O+o,uo:&% ",
"..-@.=-@o+ouo  X . 1X%2O% pX$X.=$$#@.o&<o+o< iOo @51o%>u2#sX=X.o",
"Xr,X#$.iX&;2X=+1%@.#<0=@o*X.=O. XrXo-$X ;&=h,X+O%OX+O*o@of,.*@. ",
"oOwXqoqXoX@0po 6*>o *X:. oX+O9 X. -XXoXoo.;*>oi**>; *=$X X:&Oe o",
"%$oO 7 i.*X.X=2XO= ,;>+y oXo.- #%.oOO   .o..Xoyo.o##@> 23o=.8# #",
"2+2%..5o#.+2 .X1%O Oo$oO.p*  . o% 4%O@5o .+e ..1+X +q8. .s6O1O7o",
".*&0%rdX,:.p.-XX  69%X++o4,q%X.O;=&*&09@OX.yo-,X O*4%X%,o9%X#X.O",
" o <.@ 7OOX,+r&X, X.qXo.9X3..:.. o+#X;7- XoO r>,  $$X.X@9o @.:::",
". 3o;=*#; 4o#X=7-.X&joOX=9r*<oh@.;x. **-  %o#og-w@X&-*O=*2*o%Xk+",
" -2%@. oXX X+5O . .&.+.&=->>4O d #%-, 1XOX&o; . $ O%.+X%o 224XOd",
".$.o ;#5,XX<.g.o4 .o O>   ;Oo a%XX.oat#&-:Z%.=$o% .. @>   oX=@##",
"&o#.n< o;&. *%X=o *&..+$,.X+.Xo#&o,X0% o@&. 0%@XX r>@X+.#.oO.$*#",
"  @s-o ..@#wq&X,@&<&%Ooo 2o:Oiaoi O>-.+t. ,+o+.- & w%@Xo yo..d#o",
" o.r +%  oO%h::+ $@X. ;>X#1+a9=3 oO*1-9+O. u-.X1 .Xo. ,sX#  %>ot",
"OX8o#:;$ * X=  <q&X$: rX+. ooX%o;XOo,$X. o .;;O.=4.$ O*X+@&oXX9;",
"+.o<@X.O3 $#2*+OqOXt@ +O q+<+X@O+Xo<$X.O.1X#4X+@o$;3O;+@Oo&4%3 O",
"&+d..Oo Oe$ q%o+ +9*- *osO6. 33 -+hX.Oo3.%= o%.% ;20- *op$*. #11",
"qX.e7..-@.=& ;+=;O,y %-*$@#. oo ;oXw ..7;Oq2#X+;,  >&%-o$$+X1Xo ",
"CX*:.g*1q-XX ;wX&o=#.X d375, .;.>X*O8f0:q-.. .<o%oo#@X<- a+@.oo.",
"@#@XXoO-X8=ooo.:ro8.# 55. * -1+7,%:$Xo aXo*Xoo.;*oX.#   .+6 #: #",
"=oXO X>yXO 3X.$>:1 6oX0&#o@XoX%%Xt,O =>>=XO1XX.>O  **X6 @o<@qX42",
" .O:9.o@ $., . $*-#+ =X.c:.$>63# Od@%.X;3X.# . @6,75 o@.t:+$>6 #",
" >+02o,1  XX&-*>z=+3X<X$1,<$.,0i@2 0%o#& uOo5a6>1X1tX&.$1O%t.;b&",
": O.X.* 9oX=XX X;*O+ 1X@o*  4. @. O:.O6 9.8;X;&. 6@+ 1XOo*++5.+.",
"1%O-.#<$ -$+5 @o.O X.X@1x#=@O@ 1O%.w.<<$ 78&< #..+1=$X. 1-o3O.  ",
"3X.+9O t $# .2<Xic  @5q% .o.X .O.o$ 4:O. X#O=2&: +& q o< ,o.. $X",
"Xe=01332O@*;@o &o.3.%-9.+..O #33X4o*@,+e.@*.@= %o:m1&+-$+.$@ k O",
"#=>:8+o4+O3+3%X1X%%Xo9vN@w+8o@1r&t>OX+;> 1  @%gto2>;X9oN<a .o:7*",
"XXo&X> $ .= >0X .XXXo.M7$@%4%..#o@X%Xe X+.o 4*XO$XX$o;  $ %5#.. ",
"&.e=X%@.r.o.BXO+ o.$o =8o*.o:5X:&.9oX#$X*.o.4o$:5o$$o =.=o.oX+X.",
"OXo2o.X&e. .o4X0#.9q $@ 3uol 4X .Xoyo38#%=@OX%X*#84o . 5u+od+%XO",
"&1;$ +$#=.7o@o< ..OX5.6X#.  *p0%e+$X1d:aX.7*OXO X@,o8oo.5$  0>r-",
"yoe:X .oOX &&e.OXX 14#.oX   -&XXpoj.X,.*<O3&%>.OX$&&%+X*=,3 %&Xo",
"  =>:7=9o-Xow*3$% .X3 *p #@.. 3-O+6%.702okX*#0u@%13Z,#fs a... 3#",
"o<Xf-# i%.@b<5 $+e  @+@*$ .@j.;;=<oo--5d%3:6@+53+%  .O+6$#O8w.XX",
"o@13 .Xo.%$-868oX8$X f.=.%2+%& 5.  . $Xo.%.2,*.Xo..X =.o.-y5e4+i",
"h.=Xo%...:;< + ui6 3#o<#+%.oooX-# gXo%XXX .5&+O+#*  -o#&%-Xo$.,C",
"#6&XXoXO$23X .  oi<oXX&o*., =  o 0%$*X.O.2@o:. OX  oXX&or.@.ou+;",
"+Xu.##9r =  A+=@-X:>-,:O4.#=&&8$+o+.#O>= o3@y@o@&X:9#@Ot%O<=<:XX",
"+-.3 &<pOX *.2&  Xo$+5X XX@%*<Xo+48.  :p:. *=2&1 :;o #o .qO40 oo",
".o@O.o0%::#o#.=$  @X+.+O=$Xi# 92$X++3X*%,:<o1toX +#: X .X@. -+22",
"w2o+Oo@O-F+.>,1.O XO9B65w+ o%t .w4o+Oo@X-j+=9<d.O 8 9k* &w5o%z O",
" X&o+  oo +;XO#+7#;oX 2*o ..$O u X&$+  oo 5@o %#1+@XX 2*o .,.@37",
"&1o:ou= < @X#iro5O;+Ow=#@#ow.r..&+.+o . Oi X+ *o+OO%O#=#;+oe:6qX",
".-.5X>OX51.o=+#.X. 5o2.tO oo%>$+. .&Xe.X+ @oo <XX.3<q4=.O oo->$ ",
"X$oX@6>o .7%..OO .$ .4-<<;p X X.ooo$@rpX .d4.OO. X=@Ow5<+=s+oOX:",
" X@.2.o& @X@,2.4+@.3og=o2,0eo2 .,X.Oy.=&5OX. y.&w@. o.o;>Or>.y1O",
"%+8>3.O+$$..=> o%93.#3 exX->X%X@# ;2:.;+t8.X*y@o>>$X#1 B X 2.%o3",
"q&-.O++&4&@o@..O-$@5.e26%.1e+.r.X#-XO5O<4&Oo@o.O-88+X2%*%. % @6.",
"OX#XX+X5>6X:,5X.++ =oo:+>o  5@O:O.-.X58i>=X<+ =X  1o.o$.>o  <@1.",
"0X$@ o@.O:@ *%%X $2%o@..2<$oX.#XfXX  o,O..85t2&o o%&;+$o4<X.X$#o",
"5.$ ;o&.2o=#X$*X,XO;X*X9X8@ q.$o5.X @o&@2oo<.@0.#@@rOq.2o$; oX.=",
"+5&@oX.Xo2=.$54gOX<e.;.o%.0#X4X 7  .6X Xoyo.X5%.O@&%.::X4Xr7X4X ",
";&X+.+%1X$ +.9X#+@#o#X#..>9OO  XX&o X+%5@. w.wo#+.w=5@-O3s>O u7.",
"*#X...Gtw.X+8X $3$oOXy #.X=$+%& *w$.@$9o-.X @q+X $= ;> ,.OXu+%#+",
"; 7O$o 56&$+f>;. *2;. ..@o *$0&p@ -O;X;3*-. *2o@ *eo. $.@o b:f5y",
"=rw@ &o%.o7d+a9,j 74OXrOpX1OX 6.q69< 4q#X$7# 7%Xa3u9Xor<>o$$$ =$",
" ,X8X o55. X$o. ..o. :s. ,$<2.o . q:X1=  O ..oX .Xo$ .s$+#X+2@X ",
".###@X,+;$o48.X %X.. =.&;>*o*>.o0#5#OX<Og.o%;.. 4$@O+*o+q9ror>8O",
"# ;,%.3*2.ooq+.OoX .O  OXm%&n<,-7 = %X 6&.XoX+$OoXOK<  @o.&&*<.%",
"o O.,#+*,.<O%*--O%* -XXs-X$+ X,>o .. #+o+o#O%0 #O4* -XXs o$+ .+2",
" 2+.X#+7$3  ;y.j&;yX 9*XX<$.XX@X %Z.o +-;X1&@y.  @9. 2*,8+$.X$@X",
"$@O 6&.*@, X*#.,tfkOX,4 #O%$$* 6O.. o oo O..6+.@Xri;..4 h@&8to1g",
".. O 8w2o+<. $#:XOOe@+iX<* #O - .3J.1.#%=+OoO$-+o @#@  oO*O<  w#",
"Oo O%;1.>.+++6oO  oo.rt+q,iX8w& OX1.4N o%o+  oo. 1Xo$*v+oOdoX#% ",
"..7@.o%O.+o,. Oo = OXk9@& HX.q.oO:-lOX% o+o o  o . O=%2O% s;.=.o",
"=6:o#.X .5X4.X+O&.X+@*o@**..X<X g0.ow:@i@4;2OX+ 48X+O6.;o6: q+X ",
"oO9XoooooX;*>o-6r>oi*o.$ *o+ >#Xo<-oXo==q3+6DX *6po *=.O X.& 2 X",
"%.X++   =oXtXoGX.o #@>O> XoXX#+#&.q@O   .X..o.>*O.7<+p@y1oXtX+ %",
"2 %%<:&o @+& .1&+. Oo.o+.>0@ O1=% 92O3#o Ow% $. +8- o.oO.>ri1.8o",
"$*<*%0aX.: >o#.;+ *9%X&:oe+o#o0OX*5r26FX..@po-.X  09%X+@=e#=5o0@",
" oO<$@#-O.;+7*-O  X=o$X,>o3;X:.. oO<$; #@.o@ 6%@1 .t.@X:2o ;.+..",
".ONo o6a;3&o5o=-9$X&#*@..9*o<.L3.@3;;o*-@ %o,oo7#X.%#o .69=o<Xh@",
":%-#:+ XX=+o  . X .%$+X%. 42%3O  #&#.. XXX o@1. X .%.:o-o 9y4@O ",
"...o-:###O=#.f8o& Xo+O>1 &XX=@w-3..X&0<w+XX- g.o% XoOOy   oX* w#",
"&*#$*i&o@%. *%8X.+r&.@+$+..uXX*d%X#X0d X %$ *%.o=<6&o.<$#,.O$$o-",
"+,O>7o :$@-ao+., 2O<&3oo32o<1,#* 7@>#o ..+#+o+.<O%,&%@Xo 2XO.7w=",
"5q *1 %: X ,#OO  @.qO1@sX# @#2o. X.r  % 3oO+7$$1+..X@ lsoa&O,9X.",
":XXo<XXX o1Xo@ 1o4.::u6X<. ooX4X.XXo%.X.-X7.=@O.o2O3+;6X o&X*X9X",
"%$o+38.OX .-4=+3oXX1@O5u .%4+.O +Xo @:O :&O-4o+O*$.O. +# o%4+X@ ",
"Biao.#f 32S o-o+ ;e*73*.s$*O- 17%#hXXOf .>= q%.+ @467 *XsO0O&M1 ",
".X.#3$:-@ o&@o&o@# > ,7ot$,X1X.#:X.w XX7@+o&@.4o O y <7o$X#.18. ",
"e$X+X=r$Xwq$ X4X&=X%.o@-&%<O o.O>8X+.g*XowO. 0w;eo;#ooOh +<: X..",
";+<.ooOwX8XXooO,0oX.# 3 . 6+-+ #+&<@XXO-XooXooX@*=.X<  &O *3#1 #",
"Xo@O o>>X@#5...>75 *o$* OoO@oX%%=X$O5.pp@$O X$.2O5&6o$*,<oOXoo%%",
" X .2Oo. ..<1. X*%%+ q:.z..=>* , .OX4.o. @.# X Xr#%4&.@.1m .>6 #",
"O2 *%o51+,.X<#*ytX5.o&,3c+#$XX* O2 *&o+   XX&-6ytX vo5.$1 %t$$0&",
"O  .$.* 4X;oXX $ rO+ 1q o6+O&8 :O1@...67>o=oXX+8,f + xXOo*  <X#,",
".-.jO,+$ -O+& Oo.  o=X; 1<o@O$ +,eOwO#,.a%.75 O.=O5X.XX 1<o3lo  ",
".oo 9OO. $7@X9&@ +5&. o7 OoO.+..$o. 4O@$ .#O.A<X @ +. o7 .oO.,X$",
";9or3O39@O6@@= %.X..w+#.+$X@ w+ Xeo6O:O%@ nX$.d&oXX$5+-.+$$O w+ ",
"&$>O@ X> .  :%*tX4%Xo9oz#e X=@1=%.>:$+8> ,  X%g1;2%XX9=v<e,.o;1r",
"X.=&X9 $<.o >0X@$.X.X3 1O52%#XX o$=-=9-O+.o 46XOt@X.o,73.+%w+XX ",
"&@>oX#;X6.o.9X,31o$.X.*XoX,.:+X8&o2oo,X.6@Xoeo.; q$$o ..*oOoX+X.",
".Xo>o..#%.@.oe80#X%X .@ .+X7+9o +Xo>*.X54.,3o%Xr+XeX . &O+Xc<9o@",
"% $X +.-o.7=@o<5X8.o+.oX#$11*>r<4+O@ +.#o$-o1o:1X..o1.o:%X  0V0#",
"p$#Xo :X X %&e.+O@  e7XoX  5%&$o>o-@X Xo X &-9.O..  %,XX$1  -&..",
"+50%$ 6>o-oo-*1:2  XO *s<%;.@1t+ +=%X *2;%.o#* :2  XOO*s+#..@ t#",
"o#o.-# u2..* + $+&  ; ;*.7O$#.XXo#Xo#w 793:0:: .&4 OXO@*:+O.e.XX",
"o; .-O.oO%.&.0$*o8.X,f.o.-y#22  o;+3 $$=X&.%,0Xo=O.X $$o.-y,44u&",
"% =Xoe@.. X< - O#;a7wX%e##oX.X@&-Og.o28.X X< 5 O7=+1-o%<,7o$XoX&",
"#f%XooXO=> *@@ Oo +o.=#o0@ .*  o+0%.ooXO.>+o@X-+o <oXXwX*.;.= 1o",
"+.5.+@2r q#;2@X:%X.27;Xt4+#g%+X$#X+X% %* q& 2;o -=O9+@.14O#o&5::",
"+-O8  :>X.-0.4-1+Xo$ #= X..e6 Xo+-$$17:yX.-0oe-  .XX +=+O:,9*@X$",
".o@< o*#.Xat&.*$   ,5. .=.. -14eoo@O.o;&$X#o7.o:1 O:M. $X;. # 42",
"#4=+OXO.##+.><xX  $7>A0+<+ o4z1X-2=iOoO3-w5X9, X  $usy63<+ o%t .",
" o-$+ +fX1+;X+<  #@6X 9*6 .XqO u#;&oi  =6 +@oO# 1#@*X<>**i.X.O u",
"%Oo+o;X-##@X7&0o+O ,.#o# -;9.68:% o:o . Oi@o7 *X&+O,.#.w;#;e.6;$",
". .&.2.=+ @Xo5-$X. #o%o$O .q72=&:&:&o%O;+ Xo= <$X:+&o&@.O .o7>8 ",
"qXoq@=sq Xu%.,+.O.=O.&  OoH&oOo.;X;:;r>Xd$d2.:,.l.X .&&<O$V oOX$",
"5;,82.o4+XX. >@&d:.1ofoo4X.>oyOX1XX.2.o5+:.8O2.4%@= oXXo2.6>oyO.",
"# 8>3oO#.X..o>:o9>8.-  9lo >.-oO- $4X.,+.:3u.2;o9>..a+-> X eo%o$",
"X<#@<&,44&O=;XX@-O:+.>>62.34+X*..%#.O1 &4&@o58XO%.$+.2264,7&3X6."
};
