/* XPM */
static char *ASHWALL7[] = {
/* columns rows colors chars-per-pixel */
"64 128 77 1 ",
"  c #170F07",
". c #332B13",
"X c black",
"o c #1F170B",
"O c #5F4323",
"+ c #3F2B1B",
"@ c #373737",
"# c #372313",
"$ c #1B1B1B",
"% c #4B371B",
"& c #533F1F",
"* c gray34",
"= c #2B230F",
"- c #2F2F2F",
"; c #774F2B",
": c gray31",
"> c gray39",
", c #574333",
"< c #533F2F",
"1 c #7F532F",
"2 c #6B4727",
"3 c gray23",
"4 c #232323",
"5 c #5F4B37",
"6 c #777777",
"7 c #675333",
"8 c #473323",
"9 c #5B472B",
"0 c #4F3B27",
"q c #775F3F",
"w c #775F4B",
"e c #8F5F37",
"r c #4F3B23",
"t c gray42",
"y c #432F1B",
"u c #3F2F17",
"i c #67533F",
"p c gray50",
"a c #9B633B",
"s c #875733",
"d c #434343",
"f c #979797",
"g c #2F371F",
"h c #43331B",
"j c #8B8B8B",
"k c #836B4B",
"l c #8F7753",
"z c #7B634F",
"x c #A36B3F",
"c c #9F8363",
"v c #5B5B5B",
"b c #4F3B2B",
"n c #838383",
"m c #B37347",
"M c #AB6F43",
"N c #836B57",
"B c #A7A7A7",
"V c #9F9F9F",
"C c #8B735B",
"Z c #BF7B4B",
"A c #6F5743",
"S c gray70",
"D c #CB7F4F",
"F c #D78B5B",
"G c #A78F77",
"H c LightGray",
"J c #AF977F",
"K c #B79F87",
"L c #C39B2F",
"P c #CBCBCB",
"I c #937B63",
"U c #CF8353",
"Y c gray75",
"T c #D7BB43",
"R c #EFA373",
"E c #9F876F",
"W c gray78",
/* pixels */
"&&.O;O. 46*@4@OaMuXoo:: O;*@$X=%%$<6O# X=%  .A+&me  ,-bw5$3v%++q",
".O%+f>*3$.%@ X@>66$$3$.==sxt%oo@-ggwxt:oo#2%.h#&ZDq.#o 87-.Ai  $",
"$:4 +<0+&:$4-.#O-@@$@7&=$@pa;q-o,g .1f61=oy2#+ o1l5i.==s4-oy9o$X",
"3ooX+,80l2$@O& #.4oX.j10-X X,5<.qr.X$X*O,- ##-- +@3:=#@*o...0 +.",
"*7=,--O+y>$@tp=%f; -ou7#.+# X@.:7..+@$X..b -g,e> X@p3-*- %@++% o",
";<O9+$ u&u--+,0&qDi=oO =.0i+   +$-#:t+   8i g#+m>$$$*6f*@1eX@1 #",
"&%&;O -$$+.6hXoo *x+ 9+ .0iqk9=X+ @:t;sO=X+5+ $$np4 X->:4.12oqO3",
"@>u#4$>3$@:&<- . .%6@.w5+<<XrZ# AO+**X:Z. .q%=XX*HaX X4>  o5o.&>",
"@:t4$-*p@+7kzw,g..@@*;78#7s+ lqX7r.tp3$BpX+<7O##3xYac;.x%=y%,..:",
"=&O@@@-:pO5ql<.%+ ooX3&.++7s+2sOO.++6p3t15- i1O##tO8qw.q2OirO.=.",
"X919@*3 .,=+xo <q7..4@*=#o %%;#sO=.o$:%;#wE,,2O#+O@$ 0.=+&;92O%o",
" rO1&&5.o -+c7oX>Zw&*6>$#. o=0,b5 ##$o=0&bN,81%=#,5=.oql0oo,amf2",
"+%%q;2r-.  ,y>*XX.qO@n*XX*f: ==.,XXOe8 ==-,8+&%%uo +*#Xr.oX &BBL",
"&.#%1q*;;>u.X@O*4X3#1O$oooaq  Xo$oooa;  Xo+ +=u:1*.$3iX+...X X>V",
"$@X%1 3&%*p;  9+ y v6x1%<.qsNo.up&%.;eso+3 @X::*mz  3+.=.7O;X$@@",
"  X$%3$$o@%&%o7+  o34OckiO#&JkryMjtO.<ms%u.7%Xo.aM%=+%&<&O.@6:==",
"h+,o4o- o#&5 XuO,9+*7%.... o#i< .... o#2* -CD<==#1O%#9:1s6@$$>9#",
"%8c%. 5O-8es#$.%.vt&1ky8 o=#  ;<y+ o=.  6<o%l1O=@1%#g $->al XX2y",
"o=7Ot&9i.oo77.%Oo @$ 21<.r.=.%&<z,.:@=#:*&XX #O%$*a.X$$XX,a;4Xo ",
"*@3 &O85OXX$+o iw$ X =2#%h% +5O<;u*%% 8O>*.$.o#*=X;vo@3 Xyd*O+Oo",
"Oq<b *u<w9.O&.X.s;.8   #o&r9+.%%$@4&%5+.&hO;*>:@$X.a;O1hXuO%#2; ",
",.9;=#o#kw%ej+o@O%isO8%OO X;e*:@:>& Xtj*0..g80M;$o##OOms<<n&&qq+",
" o*.3$= +sO7t@$4*+gO5 %Oe2X@>>6$:*j7X+OO7  og8JaOo =.dt%7&.%,il6",
"@*6:  .   7%*>  ., -;..#O13X$:*4@@Os+X &Oo#g--0*67. -X@4X*o-wOO>",
"O8e18+hX @%t*s;@.0. <<O=#6B*@6>p*-36x*.;7sl.Xo+@.-&;.=@%o -o+@46",
"8 8%&7>.o@@d@.&&,.go..o=d>fp@*>j4=u>fp.&7eDag @@==.ay.+9=4@o@$X%",
"#.#>@d>@$$**-o =+,0+80  X4>n@o@-  XoOn#o#=.9Nr&OA<+l;#.&-  o<#Xo",
":@$t*:*@*@<e;M@XX<ki<7** $:n>%**%&  r1>%%& .+*&9O%8zw7;v#8<%<i  ",
"#@++%2.=%<-czCet$$2;%:$=:-@n6%+e =%=#16:3s&&>@ #%#X00<O905,&11<i",
"2&O#<sh.yX .y8,etX-$>>==>#$--% <==O. =-:$**tfo# o2O.<=Xu,kc&;%wx",
":& k<=+.1OgX&X$#66-*28O-,;$X  .=&#*;$X$$@-X4dj2X oy<;  $..ia1e&d",
"X  ;O+,=%s8=w9  +6*%-5o 81>4=Xo.o$dp>4=Xo.  =5qwoX.6>#-$$  #d6@@",
".-#s;r+;+. -qcr  y*h ;yXg&O%0  %yX-*7%r  %wNC50lq**aT1. -@$=@@$o",
"2 X#Oo xq+  ylO.  ,+&2wgX=iOwk2u7=X-;Oqk2++80,o %v.&;>2+&;$$-  X",
"o.X4.  =sG.X-,57o@234:qe@=oO9O8 sa#=4&9&%$X% =+  $X%@$+o 5%#o#&.",
" +o3>=rXoz<X8<oi2%:**4pHM.X &+ $1Fx#X$&#$$4@*@*>>$$:XX&-X&;%;.#O",
" yrapX4*4+  o%   ;.r3 X>Sf$ 9&X=XOca $>*Xg =@d@*>X$6-$O+:ja#<Oo#",
"2571;@X@%#X-,=o=ooiwi=XX.q% &f>>XX.1h$%a557X#;%*p:@6>*,oo0a%y%0a",
"q.=< +: &O&0,wO g  8-wuXoo$&V+ O+ 4n*:O 3pSmylx+%*$X47g-- 5ly,5%",
"qO<-5,#$o>.O++o 5+ #b<*@ . #&;+#6& &8#.oX$7iXyx1*j. X3O5%5-,0#b=",
"10,zNk6;+-@:to =,z.+;sp6%=@@@.O;ib#oO2%. $@: +u631GoX8:h<N8 ,< #",
"5+oizi*pp#-*>@@#=8q&Opf*@:3$44X+,X.=3fa>u4 85+4:%eFmy8+##5. %z++",
"- X.2%XXq<Xvp>@*3 .&=3B4$*pt@@4.&7u$X*ej6eo-5i3.$&lq50oo5i .oO% ",
"Ao $>f. -8 8>p**O.4$.+B9oX>S6%*;>eO%=$ +,,0+$+r.o#...h&..byy### ",
"Od$=%j>+.&+r*p6ib..  ,85OXX@6>@1&&5#.=@ ou.: 8-9e+ X&:-+.g+#=.+#",
"@#o ,+ <<<O+@:ww,iw>u.X.O*4X3@1O &#..Ot@  -09..=Oky o*OeN0%k& ;3",
"=#+-y# Xyy #X%z +OO*p6 $>3$d v;x12# +166p* X0O- X,NyX  h2o Oa4+p",
" .CC#b& @# $X %8  o@:*:4t@$ o+oOM&2,-,0XtSX %O.oX-cK   Xh+X$dd-3",
"3@6a;77:@*d+<ooo+ o.*>$XdO&O+,90.2558wwb.c<X->6& #9Fxcc+k2@d:*>.",
".3:t*@@:@*:%c<. >5.%ee@$@%@O2&1sd808yrk7.z6*@ 91>@+O++m,-;>tt>*+",
"g4@5.< .O,4-OOi<92.ooO7.h*o .  ;1#< .  <hi&jBr<9&#&& X.r$.3>pv55",
"l@  --8-&O&@3$*>%9,XX 3o iw  X =;;& .+  =<&*f&r;8=@7.=oy1O@$@tZc",
"6v =5<.oX+Ow<0 &+O;7@>*.X#1;#+   f+ XO;8==#3*u#:>&3$ rr @:@$$=zc",
"3v*.&M6dX$,-iw=#o.ew%jeuo.O%2eO%:*o@o.c; oX @o+=h>;%@@O# :3@X X-",
">>*6:VZ;6@ o%.u = +1i92. o&#=7>$:Btdd.7k;##+ @$@*1l@$-@u+.5*19 $",
"&94$@@efjj@,w8  .   7:&O $.&$@;.@pme*9#qJqy##1:X-tSp$@:<y97d@;O#",
"O0 4d@Xp*:Oren:38X .ri<k;@@&#$***%#$.# o-w% yxZ<o->>*3%,5kf*$X@6",
"%; $@:$*@$: 00%OO.o--8##&%&#=o.+4O#@ ==# o;+ Oa;< .n@3=+ +;MdXX*",
"-,o +> +>+...>.%O#  ,<=o =+&%+h%$pn*#+#.+OyOXXo.r#=j%     osj%$ ",
"5w-.,C;O%&r# 2&%,.<.Oe7x+XX%jt*t*#O%hr+o#&&%= .oy&X.iy+r X v:v>.",
"9l-  <0&.u..u+8;.#O&#x1je2  i6::$ ..##%9..y+&;%&% $X>q7124@O+-%e",
"yq5- = O&22&9+&sy#%X$.uu*f7X= >O=8&1&= 71O&=#.d&x+==:v*fB6#wN8&s",
";55Cl8o @.:& q<=+.1*-X&X$@7;gO2r&oh%aiX#;2% X-=OD1# X@3%>**y92&e",
"Oh.0i2;:4XX $q<+<=%pu=;v$ @;,8@9o.#.Os#X#h@-$ ##5O2yXo@$-$$. %OO",
".=o =O1O**@-@j;%+2u. @6x% $d*d ;%:r3r1x&<OO;7. #+=-ii8-g,44-=o5+",
"+= X$-:d6e2$X+*4$V63$$ua9. $&u&twgo.&>fO.&7eDq X#-ggA58.&3 .++=$",
"f6@+ o0<.@$@Xo# $-pS@X.&>t4#;+40z0   4>;=  #%Os+,5i+56%+d- o=+3$",
"61Mw,X-8.#$3ouO=%Xow<Xh,o7ir0<<oz5%h$$>15-%y -89<t*3&;t>O&+h.y;.",
"3<Ow0-.<o@$d:f1X4&o-  o%   w+:u$X& %@-#l58,I,,,-+3*$X**t;&:9<7;O",
"Xo=+.3;T7ut>2ww#X.,.X.&=ogooiq7=X>#@v= +#0o,5we 4$v>3*@$@O1B6;OO",
"o= u.=:n> o:mwci=4.a%.%+o-- -Al9+8*@*1XX g. X.*6:X$#:*@$$ oyCMs@",
"43&#@X:Vf@$=9Nzlw.h*p%.005k5XO&&qhMV$>6&2q   .-4*XhsX @>hO - .O$",
">-@>:@-Yj.+. o-,Oo@>de97& .kO<+ X Of6@*@>* r.#=#d=@#+#.#mOXO,&O@",
"#&o4t-Xfp -<9<.#..8,o>eaxO  #a; oo.%p4@:#,+.y<#%O@O;5. o;%.o.7aM",
"r+xq*3Xow, oON&.h+y<@$4o2F1 X+M&%%o&*$.O +i..l.#9&3fO,+ .%. X.O;",
".r;;sOgX858   k14 X=>:4@s2o% .*pu  &*##.+ ,. O+ %o .&%.,0 o..#>=",
"+O%X%Z+ .q8gXX&HfX X4>$$o>4&O=#98 X.%;9O% ,CoX&+$oX+*+%M2 .O&$@.",
".21+ lpX.*;7.@+VLeB6@xr=u:O..X.&>.O.o. #, +s& :*2-&@@<+hOo.;1-:f",
"33;1u2p7#$>sO#+290A1.;;O2%&2r =.#O%.%ho.+Xo:@@*6&,O+$ +Oh==u*:*6",
".o :%t@pM*&7O#+9-  0.=+<q52t21$@d6-ouq#=% .r 0O&%O;O =  +.;dX4o ",
"## o-r,0s%+w%=.&ig#owf%oo<a@t6. 5e%%<q9&@O,- oO.O++o 93 #:**@$. ",
"X,l% gg#,+#&h:+o 8%.X:@oX *$;N<o0k&+;s%&pek;q+=#:2o g<p@3ik1;*=#",
"ooa;$ Xo+ +.u%1O. +2X+@.@X$dO1;5 5.X@O=$t1i,11.=*>...-:1,5sa*#%+",
"*@6sso#+ .X:%%m1 $33@-@2O;Xo#8O# 76  - X@t%XX1%XOpO@%3$.&=3Bo O1",
"29.,Zn%y.7%Xo.fc%g8%&*OO..;oor% o@jeswo  Ol+$@d$:>1<&O.o #+MOoX7",
"-. o.2& .xU&-=+zO,.9%1e;+ $Xou= =@..p>d$g0Ci--&+:O1;7%..  *u7<XX",
" o-.$$;Oo%a1>-.z%-g $=7ee$XX4t:o#*@+++.o <8 ,,O&#-%s;*t;7u.X-5<4",
"@:@-.%O&XX .*: &a-X $XX&lqo@ ex,,@aa =.u.h# X88$@X&1$3***p;  O+$",
"21=%a; +odO@@+. X-+:$#=%a5 X+s3-&-$:#3.% ob, -+$ X 08 $o.%,0ot@$",
"+&8O;Lt=o>$-@%;+   +7 =++ZO  $%6f&.pfX.1 .OO0+*d+<ooo# o.*> XdO%",
"uXo4$*V3$v3$@%2;k9-X+O+   s14 XgO8o#1to17+..0+&8yc,. OO.:se. #0.",
"*@$@$@:6@@q9+<*X%S@ -zy=XX<FkX XoO  oO4#%O& +>&o=O5i,92@oo5O.8<o",
"16%=...#%qib-i13$>.qq. ,0+$4:#&8.O.++X$3*%=X$$.%O##w,+&<XwcoXy5.",
"a&#8+ ooX+<.88w13**j>tO1j;*$4.r9uo %1#$:666:@.##Oi1;5 <28 c2X#w;",
"Bo <q2..o.&=.o$%:X46&+;zwsfn.8r&. @.*j**nV>:@@ 4  &r&r9f;.wa.= 6",
"B7oX9mwOO;5 -. o=$X= X#w, X6; +1%4*@$32=+c =7q<g+ o*$#$4t9;%fB::",
"u>&XX.;O.k,XX,lb c6Oo  8w.XX,o.7s>*>%ooo+Cr XlK5y3t%.#= @4*%:B6%",
"X#>&oX+#z5 oooa7 -ze&oX.es.o<<#&;Ot:+#XX<,w0XXis1:x&X$#,+ @**O&+",
"  >3 y 9;cw,,-qks$.:@$Xu38O%OO#+O21OdOr#=$%O+ X.#**o3$.Gz-=Xo%o.",
"0o2@$ o+o5cN75.<Ga@4@-$@.  rh..X#;#%2t2a6$$*:-*$:jV*4@ *;&o #X# ",
" XhO*>3*>r---# o-qq+@;;3@>X +  X y.o=@43<5o%-$$4346WVpO+pP1&<%5#",
"# .%.vt*1sy8 o=# +N+-<af&9&..@$3 ==o $ %i. *%%%$@3:**3-oo5a% #km",
"5.y<o @  21,.0-=.8#b-b26O&*u:2u1O.X@*@&1p$$+5r22Of644 gog o5# qm",
"+o iw  X -2+<hr 8&b  .d*#= #&#+OfO<&qOX<fny++ #&4$a1:- +h--,z  =",
"%-X-zw@+ $$@4%&O+kle+o$d#%@d>2+.o#Or%2 X+34$7q $X gi#,d% 855,. #",
"N+o-58tj>u:>*$X2e#+h1-X:v@-X@>29, %%:t%@O*#X.z6@+   #or8O.-r8,w,",
"i. o&.->9 :*jtX@>o .%dd-Vj3$$@37;&o-@vav6e+o.9:2jOhr9, XiN,r..=8",
",O $@* .w.-#>n3X h$:O&>Oemj6@ $%@. # @;qii. 4<.=OO 0Oe2X.55w  o=",
"&j6+.:@ <&<=36B,-r.+5oXg=Ofn6d*O& ## X$<&&O$ -, .q#+#>n+X 0,o.=#",
"@#,,&.=o++ogd>lz., :.uX.+$t63>%1eOoOXo$@&&jq+.b+ <,O=3;m,.A91k.X",
"go g#&%+yr  Xo5k.2.@>: X*$@3 :..&rOO%.@@*@.,<&@=o--o=h9aq.O7ePe-",
"wl-XX<e2*2%*  %k59.@*344:@$7&#-#O&#2+gouv-o =+&0+8b  Xo9s+o@-@>j",
"pjj2  26::$=rg.kqO17v*-@fsu%&0.X%;55-b%.I;c-XX*e2&7<O  %kO:**$@#",
"yd*ftX-$>>-=5. =-X+O27$$:O*.#+..d05.oO%.ezjjt  26:r =r=-k;:3j**9",
",X$.wq=&;0*@&7 X 2,%O2uoo-&95OOO&y9,+o  oyu*f7X= OO==O. -=:$**il",
"wv  -w,0#Oo$dp>4=UGs7Ojx+. #.,%#O%.+=7OhX<X$@;q=&2:&.<q X $@-Xo8",
"6V&  y,y quX=,O%r O&3-4%w1O#XX #Ot%+h#O0+q1$$o1>d.>- +q;@@X$@o-0",
"df>.  *3*twgXg2Oq=&y $ =.;OO;&=.>p%@;&=  wM%$X#&.$;&X$&s+:--OqNf",
"@*>t4@2#4:zI#=oOOo,1.=   r&O77@X4*--*xig #19o$-*:O56-$$OqNcpo=&@",
"%<4tt:%**4pRc#X %g&ck*&+o:&%@3#X$3oo4<Zi .#%w+@p:@@6B*- 09u34 +#",
"ob $$6@:3$X9Zf$$5X.;qck7=@@%#-@@dO#vo 0w-,2=Oq%+%:-nPS&X 7:$4@@:",
"O=o-4$t6t-XX.zh &o= b<O%o#7#g .r6a#X&yo  .y   O#.% XdVl=X5O 3  @",
",-o.+$.;VO+o e2+<#. o ..h1xx#%2et634=+&X io    Oe1#XX e0 %x1:O@.",
"-005CN..%=rO&aAo-;#o ##+o@t;$$@Vfaa% .zz+,. y+==Ox%O. e9=9&@$ffO",
"57, -5C2.o= uf2O#+.@#&.@  MJ+4$@nzle#+#2w.<9Oae+Ou4*>rk;=@6. o..",
"llc5 X.e2@.&9e2O92u*-u&&3$lc%r@o#.#&=#&+;72O-$3es-  4*p**d2w+8+h",
"oo7Rz .O3.&&y67hee73:u #3Xoa-=%7;%...0&=.jfBp$X#s;+&,>p;*6@ X%. ",
". X0Ka7f-.uu-+o qOe*uem** X8io$rw;#r&%%%#$X:Hao#q#=&,@t*@jp XX%&"
};
