/* XPM */
static char *BFALL3[] = {
/* columns rows colors chars-per-pixel */
"64 128 21 1 ",
"  c #4F0000",
". c #5B0000",
"X c #670000",
"o c #670B0B",
"O c #470000",
"+ c #731313",
"@ c #7F1B1B",
"# c #6B0F0F",
"$ c #771717",
"% c #8B2323",
"& c #730000",
"* c #831F1F",
"= c #5F0707",
"- c #7F0000",
"; c #8B0000",
": c #430000",
"> c #972F2F",
", c #8F2B2B",
"< c #5B0707",
"1 c #9B3333",
"2 c #9B0000",
/* pixels */
". X OO.  .. OX O. XXO:  X X  O.  ..XO  .  XXOO.. .X OX O.X.XO. .",
". XX O..X...   .X .XO. XX X.  . X. XO O.X  XO. X.. .O :XXX. O.OX",
". &. .O.X. & X ..      oX X. .O.XX &    .O  O. ..X X X .XX . X  ",
"& .X O ...O. X .-O . .o$$  Xo   &  XX. .-O XO.X .o   . .-O XXX  ",
"X .. . XX O.....;O..XXo$$ .o+o .-  X X .; .oX O o@o .  .;O X X .",
"& ..   .XXOXXX  -O XXX$*-  +@+  &O.X   .- o$o.O @@$XX.  - .o .  ",
"XOXX    . .X.X    ... @%* .@%@    .. $ o  $@$o. @%@. .O  .X+..  ",
"&O X    ..OX..   X X Xo@$  %>%  &....+.@& $@$oO %>%X .  XoXoX&X ",
"X &X.. oX  ...  .X X -  X.Xo#o. & .X @ @- @**#  o%oX -  -$o# X X",
".  XOXo$o..X...  o.X 2...  . ..   .X   %  o@o$X   .. 2  $$$$... ",
"   .  $$$. X.. .Oo#.O      X .X.O .X  .+O    o     X O  $@$$ .. ",
"X  . X$@$..XOX. O##.O.  X  XoX  O .X  .+O  X .OO  .XOX. #@# O X.",
"X ..X *%@  X   . $@.   .X .o+o .O. X  . O  o   . . X   .o@o.OX.O",
"X..X .o@o .X.    o$o   .X  +++..O. .  .+O =+=  . o X    $$$X .  ",
" X Xo    . . ..  $$$ o   X +@+X.O. X X.+O o+=  . ooX .. $*$X XX ",
"XX.o$o   . . .   $*$o$o.XX @%@  O   o   O o$o  . +oXOX  @%@ O : ",
"...$$$X. . . X.  @,@o$$XX. o@o. O  o$o +O #$#. X @+XO.X.o*o.OoO ",
"   $$$.  . X. X  o%oo$$.   X X.    $$$ OO =#=  . %+X  o   .  @OO",
"O X%%$X O  o X. Oo.X$%.XO ..  X    $*$ XO      XOo@. oo= O . @ X",
"O  o*o  O  + X  O@@.o$..O X...   # o>* .O ..O O.O %. +.. o   %O.",
"O .X .X O. o X  O%%.   .OOX  X. ###.*o .O X.   .O =. +ooo@o. .O.",
"O  ..XXXO. . .  Oo=. X .O  ....X#++.   XO  X XO O  .  o+o.@.  OX",
"O..X. .XO oo .o   <X X+. . X. .X+@+XO OXO .XO.. Oo   .++@o.X+  X",
"  +.    O: o+o.o .XX +++   .    @$$o   .O  . .. O+   X+@*#o+++ .",
" +++      =+++=o  .X +@+   +     =#+.  .   X .   @.. X@%*#o+@+ .",
" +*+.   . o*@@o$.oXX @%@  +++ O.. + o+    +X &. .%oX .%,% X@%@ X",
"X@%@   .X o@%%#.X@o  %,%X +@+ ....o.+++ .+++ ..X..o+  +%+ .%,% .",
"X%,%   +X  %,%o.+@@. +%+X.@%@ ..X.+o@@+ X+*+  .XX.@++   X X+%+X.",
".+%+ .+++..+%+  +%*X.X ..X%,%   +o o*%@ X@%*   +X +@+   -  X .X ",
".  X o+*+..X #  @%*XOX.X..+%+  +++. %,%  %1% .+++.@%@   .  XO   ",
"X. X #@%@.oo #O %,%X  o X.     +*+oX+%+ X+%+ X+@+ %,%  .X XX X. ",
"X  X #%1%.@@ .  +%+XO + &. XO. @%*oX  o  . XO.@%@ +%+X  & XX X. ",
"X .X #+%+.@@OX  X .XO @ Xo. O..%1%oX o$oX  XO %,%oo  . .;. XOX. ",
"X XX    X %% .  ;oo&OX%.o$o. . +%@oX $$$&  XOX+%+o@. X  -  XoX  ",
"X X.O.O.X ooO.  -++XOX>X$$$XO.O    &.$*$X.ooO.o o%@XOX  &  ooo O",
"  X.O.O..  X.X...@@XOX% $@$#OXO    X.*%@  @$O.$ @%$. X.    $$$. ",
".  X X .X  &.&  X==X X  *%@$OoO X  ..o*o. @$ X$ @**.OX  X  @@@. ",
"X  X X .X..X..  -...    o@o$O+. . ..oo .X %$ .@ o@o.  . X .*%*. ",
". O  o  X .X X OX .. .O    % @O    .+$+.X.oo .* X    X O . o@o  ",
" ...o+o ..oo.X. O##  .   ..  %O = O.$,$. .   .@  oX. X.  ..o$o .",
"  .X+@+ X.++ X  O++XO.   o   oO o O.@,@. . .    X+XX X.  ..$@$ X",
"   X@%@ ..@@ X.  ..X . .o$o.OX =o=..o*@.   .  O .=oX X.  .X@*$ .",
"   X%>%   %%OX. Ooo.O. o@$$XOX ooo.X...XO  X    .o+.O&X O X@%@ X",
" ..Xo#o.  ooO. .OooX ..o@%$XO..oooXX...XO o& .  .o=XOX.. .X$@o X",
" ..&. .   .X..  Ooo&.. o%,@X..Oo+o &....O @&..:O ooX .o O  Xo  .",
" ..X.. .  .X .: O$$X   #$%oX .=o#o ..o..O @$ .  .$o& .@.O .o$o .",
" .  .o  .X.X X .O$$XO .$o. X.oo$#+..o+o.O %$Oo.OX$oX X@  o. $$  ",
" . .o+o X.oo    O$$&O  $*$ X oo@@@O.+$+.O ooO+  X=$X .%.o@o=@$ X",
"  ..o++  <++<  . ==XO. $*$ . o$@@@ .$*$.   XO@O .#=XO.>.@@@o@# X",
"    +@+  =##.  .   .OX *>*   #$@$+ .*,*.O  =O%O  $=X .% @%@o@o X",
" .O.@%@ O====X.  #= .X *>* X.o#$@+..$,$.O..+ oO. ##.OX. %>%o.$ .",
"    .@o   << X . ## .X o*o  .X o#o  .... ..+ XO. @#..X ..%oo=$ X",
" X     O . < XO  =#O . .*o  O. ###O  +..O =+O.   #$ OX     =#= .",
"     ..  .  .. . $+  X . .  O..++#  ...    *O. .  $:.  +   ooo .",
" . ...O  . X  O.  =  X+  .   . =#o .o=o. X., .O   #  .+++.  +. .",
"  +X X   X X+    . X.+++.. X ..=+o .=o=.  o.   O.. .X.+@+X.+++. ",
".+++.o   . +++.      +@+   +     X .o#oo  oo .  .X X  @%*X +@+..",
"X+@+oo. .X +@+  .X  .*%@X.+++   .X. #@#  X+. .  .. .X %1%o.@%* .",
".@%*oo  .o.@%@   +  o%1%X.+@+ . X...+*+. +++    .  +  +%@oX%,% .",
".%,%o..+...%,%. +++.o+%+X.@%@ .  X o+@+o +@+o   ..+++  .o@ +%@  ",
"X+%+o.+++=.+%+. +@+X$o. -X%,%.  +. o%%@oX@%@o  +X +@+..%$%   oOO",
"-X . .+@+#X    .*%@X=$* -X+%+o +-+ o%1%.X%,%o +++.@%@  =+=  :.  ",
" XX. .@%@#.  . o%1%XX * .XX o$o+@+ o+%+  +%+#o+@+X%,%X X        ",
"XX. .X%,%#X .  o+%+X. % &&. $@o@%@ +o   XX o>o@%@X+%+  .#X   .O ",
"X.. O.+%+....X $o. X .  &X. $@o%,% o+o. X. @%o%,%.. .. #o# o  . ",
".X  ..X XX..X..**@ & .  XX  **o+%+ +@+  X. %>#+%+  ..X +o+o@o.  ",
".X   .X.XX  o  o*o .X.  .X  o*o    o@o  .  #%#  ..  X  o+o#@&   ",
".X....X... .+. . . X..  ..... X .  o+o  ..   .  ..  X  +@+#%@.O ",
"O  . o ..  .#o .   X#  .   ..X     +++    OO. O .   &. o@oo1%.  ",
". . .+..X   *=.X.O #+# .. . X.  .  +@+  .O O. O .o  & .#o==%oX .",
"X   .@..X   @=  X  +++  .    -  .O @%@  . O .-  o+o &. @oo .X-  ",
"   .X%X O. =*=     +@@    O &;X    o@o      .;   o$X . @##  &;  ",
"X . .1. X.O #&  -O.@%%X.X  O ;. X    .  - . #...o@@o.Oo++# OX;  ",
"X   X%X.X.  @=. . X#o# .X   X.. o   .... o   . .#@@$..# oo  .&. ",
"X .. ...X . *= ..    XO.X   ...o+o O .O .+. .X  o@%$ .@.o@o .& .",
"X ..   XX  =@  XX.   .XX    .. +++   .  .+ .o...X@%@..%X@@@. - .",
".X..X .X.XX=* O. X.  X.X .  .. +@+  .&OX @X oX...o*o. >.@%@..-O.",
"&&X.  O &X =@   XX  #X XXX. .o @%@.  -  X%  @X .XX    % %>%  ;  ",
"X&..X.. && =*=O Xo.#+#..XX  X@Xo@oX .o  X@ #+#. X+    O o%o  XO ",
"X& .o.  X$  #.  o.o+++ XXX..X@   X. o$o X  +@+ .++= O   X .  ;  ",
" X.o@o..o$o.%.O .o.+@+.X.XX X%   X  $@$  X.@%@XXo+o O  ..&   X  ",
"XX @@@ .$-$o*X .ooo@%@ XXX   oO.X X $@$.XX.%1%.X++o .X  X.X  X..",
"XX.@%@ .$@$.*   o@o#@#  XX. .X  XX..**@ XX #%#X.++#     XXX  XX ",
"&X %>% .@*@o = .o#o. X..&X  .  X.X Xo@oX&&.  .X.o+=  X.X.X   . X",
";X o%o o$*oo.=  =o=. .X.;X  .  .o. &. ..;X  # ..X    .. XXo... .",
"X X. X +X   o.  o+o. XX.X X. . ooo.&. X.X.  $   &XO   .+X +o X..",
"X...   +X.  o.  +.+   +  .     o@o &... X...%.. X.O ..+++..o+X  ",
" X+  X .-   +X  +oo. +++.....X @%@ &.. X;...%o  -.   X+@+Xo@++ X",
".+++....Xo +++  =o.. +*+X o+X .+.+ & o .&. .@#. &X   .@%@ o+@+..",
"X+@+XX X.o +*+ ooo.. @%@X.+++. +=+   +    + .#X X.   .%,%  @%@ X",
"X@%@XX .X& @%@ .o@o  %1%X.@*+X =#=X.+@+. +++.$  .  +  +%+Xo%,%XX",
"X%,%.  +X  %1%.=@@+. +%+X.*%@. oooXX+%+  +@+ o  X.+++.   Xo+%+..",
"X+%+..+++=.+%+ o**+.   .&.%1%. .+  X@,@. @%@   +X +@+. .  @o XXX",
"&    X+@+o o.o o*%@. .  &.+%+..+++ X%1%  %,%  +++ @%@. .O %%.X..",
"X.   X@%@  +%+  %,%. . .X.o  X.+@+ X+%+X +%+o +@+ %,%XX. .ooXX.X",
"X . OX%,%  o%o. +%+..  XX.*+ X @%@ &.  X . .o.@%@ +%+X....##X  X",
". .  X+%+.Xooo    .  . .X.oo X %,%   .      @.%,% X  & ...++ .  ",
"X  OO   X  o#o.  .     .& #o   +%+  .      #@o+%+   .   .X@@X   ",
"   O &XXX  #++X      Xo.  @+ XX. .  oX     +%+  X  O.-X .o$o.o  ",
" . O.;..X .=@=..     $$o .@+.X.    o$$.    @%@  X .O.;. o$o. +X ",
"   O & .X . o.X.  .  $$$ O%+ .     $$$    X%1%  X .   o $$@o @. ",
" OX .. .X   @X . O.  $*$ OooXX   O $%$    X#%#  XOO  .+ $@@o % .",
". . OX  .  .$X  .O.  %1%  ..OX   O %1%   OX. XX . O .X+ @%%o o  ",
"  O..X  .  .%.. ..OX o%#. <<.XO    o%o   .O.#X.      X@ o*@#..OO",
"   X   .. ..*.  .. . . o. oo   .     ..  .  .  .  .  X% . oo .  ",
" O. ..     .oX   X   . .  #o .    ..X.   . .+. .   & X@ ..o=X   ",
"X   oX  .  .#.  X..  X XX.## X. Xo. OX .X.Xo@X .X  &O&  ..ooOX .",
" O o$o . . .+X.  X.. . .. <<.. .o$o..X  o. o%.  .. &.&X ..oo XO ",
" ..$$@ .. ..#X.. .oo -XX. ooOX .$$$XOX o.o o>X....X&O&XX..#+OXO.",
"   $@@ .....Oo  .o@$ X...O<o . .$*$XO. +o+ o%X. X.X&O. .. =oO.: ",
" . @%% ...   o. .@@@XX..  ooO  .*%@... o+o.% XX X. & .... ..    ",
".. o*@  ..   o ..@%@......++..  o*o  . +@+ @..X... & X .. o= .O.",
"  .  $..   .#@   %>%.X..  << X    .X   o#o .XXX .. &XX  . oo  . ",
"    .%X .  .++   o%oXX   O...XX    X &.ooo XXX.    &X .   oo &  ",
"X.. . .    .*@. .  .X   . X . .    X & ooo..  ..   &.     #+ X .",
". .  .. .  .%% .o. XX o . X . X..X.X.&X++o.X. ... O&    .Xoo XX.",
"X .      ...## o$o..X.$.X X.    .X X...@@+ ..  .. .X     X.X  XX",
".         X..  $$$ OXX+ ..      ... X&.@@o. oo. . .&  O. .. XXX.",
" .. .X ...X..O $@$.OX.@...   X ..   X& +oo  +o    oX        .X .",
"    O    .X    *%*.O .% ..  O#  ... X& o#o.#@@. .o$o   . .. .X .",
"...   .. XX. .Xo@o.O  @  .X  +X... OXX.#+#.#%%  .$@$ XX. .. ....",
" .. .&X. .XX .X.  .      .X. +X.    X X=#=.+%@   $*$ XX.O   X ..",
"... X. ...X. XXX  .X .  ..X..%..   .X.X   .@%@  .@%@ XX.   X..X.",
" .. XXX. .X ....  OO X . .X X#X.  O X..  . #@# . o*oXX .O   . X.",
"... X .  X& X X   ..  . .XX..   . O X. O .X     ..  X.X     .  O",
"  XXXX.. .&.O      O X....XX.. .    O  O ..O X... X.       O:  O",
"  .X X.. ..    OOX     .  .. X  O  .O.O  X       .          O.  ",
"  & O ....  O. O .. OX ...X O... .  O . .X  OX.   . O.  .X  O . "
};
