/* XPM */
static char *BFALL2[] = {
/* columns rows colors chars-per-pixel */
"64 128 20 1 ",
"  c #4F0000",
". c #5B0000",
"X c #670000",
"o c #670B0B",
"O c #731313",
"+ c #470000",
"@ c #7F1B1B",
"# c #771717",
"$ c #6B0F0F",
"% c #5F0707",
"& c #730000",
"* c #8B2323",
"= c #831F1F",
"- c #7F0000",
"; c #8B0000",
": c #972F2F",
"> c #8F2B2B",
", c #430000",
"< c #9B3333",
"1 c #9B0000",
/* pixels */
" .X  X +.X.X+. ..   + .  .. +X +. XX+,  X X ++.  ..X+  .  XX++..",
".. .  ,XXX. +.+X. .X  ..X...   .X .X . XX X#  . X. X+ +.X  X+. X",
".X . . .XX . X  . X. . .X. & X ..    .+.X o#o.+.XX & X  .+  +. .",
".X+. . .-+ XXX  & .X   ...+. X .-+ . .X & #@# . &  XXX .-+ X+.X ",
".   o  .;+ X X . Xo  o  X +.....;+..XX+.& #=#. .-  X X .;+.XX.+ ",
".. o#o  - .o .  .o@o.#o.XX+XXX  -+ XoX .& @*@.  &+.X   .-+ XX.+ ",
".  ##. o  XO..   @@@o## . .X.X    .o#o. . o=o.    ...    oX .o.+",
".X ##oo##.X@X&X  @*@o=# ..+...  & X###  &+   .  &...X&.o##o..O+ ",
".  **###- .* X XX*<*$<= X. ...  - .#=#  X.X.  . & .X &%oX##X.@  ",
"+..o#o#@#..<... X@*oo1o..X Xo.     *:1...  X+..   .X ;o.$@#X *X ",
"   X  @*@ .* .. Xo .   ... oOo .+  o=o     o  X.+ooX %o.o@$  o  ",
"   X+Xo@o     X.. %.+X. ...O@O. + +. .  X %O%.. +OOX o%o.@o. .++",
" . X       X X.+X %XX ..   .*@ .+  .+  .X oOo  .+#OX Oo o#o    .",
" ...    + .. .  X%%X ..   .o:*     X+  .X  OoX..+##X  oOo.#.   .",
" . X  .%  .X XX    &  O  . ooo.  . X+  . X.O$ X.+*#  .OO@%..O  .",
"  OX .% %.  O    .oX OOO . . .   $. .  .X..%%.  +o*.+ O@@$%OOO .",
" OOO .O.o. OOO%o.o.X.O@O   O  .  ooo   XX.  .X. +.o   @**$$O@O X",
" O@O o.o...O@@o# ooX @*@ .OOO X .o# .O    OX X. + .X  *<*$o@*@ .",
" @*@ oooo  @*=$. @$  *>*  O=OX. o%#.OOO. OOO  .    O  O*O.o*>* X",
" *>* ..@.  *>*$oOOO..O*O  @*@X  oo@oO@O. O@O.. .  OOO  .$*oO*O .",
" O*O oO@O .O*O$oO@OX .  +.*<*X  Oo.o=*@. @*@  .O  O@O. o#.X.   .",
"+  . $O=O ..   X@*@X.XXX+.O*O. OOO.o*>*. *>*..OOO.@*@. X  XX X+ ",
"+    $@*@  &+++X*>*X. .o   o . O@OX.O*O. O*O. O@Oo*>* +X+ .X+.. ",
"+ ..  *>* +. ++.O*O.  %o% +* . @*@XX  ..+  .  @*@oO*O +.+ +X .. ",
" .XX+XO*O  &   .  oX+ ooo ..+. *>*.X .o.  oo+ *>*oo    .   & .  ",
"..XX+.  . X&X +X @@X. o$o  & . O*OXX o#o  OO. O*Oo@.X +..  X &. ",
"&..X    X .X   .&**X  $#O  & $   oX  ###X @@  o o@@X.   X.XX ..X",
"& .X +  X XX .X.Xo%X  o#O.+X O. $O$. #=@X.** .#.@*@X.X. X .X  .X",
";  X+   - oo .X .. X    XX.X+@  OOOX.@*=.Xoo+.#.*:*X XX &X X X .",
"&  X+   . @@+   .  X+. oX..X+*  O@OX o=o..  +.@.o*oX      .X+X.X",
"X XX   .X @@ X. X. X+..oXoX  $+ @*@X . XX. . .* X oX X. X  X X X",
"&  X X  & ** X. XooX+. o##o. .  $@$X... &. X+.@+XOOX X. X. X+.. ",
"X XX+. .;.oo+X. XOOX+..####.+X  X .X...X&.$$+...X@@X+.. ;  X+ XX",
"X X& X  - .X X. X**X   o@@#X .  X. ..o..& OO .  &**X+X. ;  X+XXX",
"X X.+X  &  X+X++Xo%.+.+.@*@X+.  X. .o$o.& @=+.+ -o%&+X +-. X+.+X",
"X X. X.    .+X.  ...+.+.o@oX.X.... .O@$.  **+X+ -  &+X     X+X  ",
". ..+X  X oo X. .  X+X+.X  &.&  X ..$O$.. $@+o+ X  X  . . XX X  ",
"X     . X OO... X  X+X .X..X..  . ..@O@.X  $+O.    &X o X  Xo   ",
"X .. X + .@@XX  .oo. X+ Xo.  Xo   +.OOO.  +* @+ Xoo.X.O X..o#o  ",
"   X X.  .**.X+. $$. X  o#o..ooo..+ ...  ..  *  .OO..X@X . ###  ",
"X  X X.  .ooXX X $$& .. ###X ###o%.X .   . X o.  oo XX*  o  @#  ",
".  . X.  .XX.. . $$X+.  #=#X @=@oo X o..  oo+X   ooX.X: o@oo*@  ",
".+ X .X + X&   X $$X+.  @*=X @**oo . o.o .@@+X + ooX .*.#@@o.o  ",
".  . ... .XX   X OOX X..o@oX o@ooo+..... X@@+... ooX   X%*@X..  ",
" . X .  + .X  ,. ##&...     .. o@o+.o.o% .**..   ##X.  .$:*.o. +",
"... %o  + o.  ,. $$..o    .. .+O@O .o  o   o.. . ##&   Oo.oooo  ",
"XX.o##%.  @o .    o. oO  X.X X @*@ o#. o   X..  +%%  .OOO  o@o +",
" .Oo.#o  ..oO  X . X.OOO.. X   @*@  .o.  . .+.+  ...  O@O  O@O  ",
".OOO%=o...o@OO X o..o@=O.  O   O.O %ooo.   .+..  ..X .@*@  O=@  ",
" O@@$*%. .oO@O X oo o=*@o.OOO  OoO  o@o   O.  .  $o. X*>*  =*=  ",
" @*=o#o  X.@*@   Oo .*<*.oO@OX..o. .@=@  OOO.X   .oO  O*O..*<* .",
" *>*   O   *>* .O@@  O*Ooo@*@X ooo.o=>=  O=O.X   .OOO.   ..@*@ .",
" O*$ .OOO% O*O .O=O +..ooo*>*X oOo .=*=. @*=   O  =@OX+.+ .o.o  ",
"    .XO@Oo   .+.@*@ +X#o$oO*O. OOO..*>*. *<* .OOO.=*@X+.  Xo . .",
" . . .@*@$  ..+.*>*...#o$o     O=O .O*O..O*O .O@Oo*>*X+.   @  + ",
".X XX.*>*$o% .. O*OX.X=$#@. .o @*@ .o.o...  o @*=oO*OX..  o@o  +",
".  X .O*O$oo o...  . X#$## .o#o*>* .o=o. & .#.*>*oo ...o  @@@.  ",
".. .X.  X $o O .XX ... %#o .##oO*O  ... XX X@ O*Oo# .X O.X@*@.  ",
"X.   o +..O$ @+... ... %#o..#@#  . ...  X. X* . oOo .X+O .*:*   ",
".X. .O.  X%%+*  .. ....  XX @*=  X oo. +X. .: .+ .   X+@ Xo*o  +",
"-.. .@. &.  +o++-.+..X. XX. o=o &  oOo +-X+.*..+&.   . .X.   . +",
"&X. .*..&X  ,.  -X . ..+&&X    .-X O@O +-&..   +-X   . .XX.    +",
" &  .<.X         XX. .+. ..  . .   @$@  .XX   +    .+   $.  .   ",
".XX .*...X  o + XX. ... ..X .  ..X $@o +&&. .X.  X     $.$ +.. +",
"X.....+ XX  #.. X..  ...X....X+ X. oOo  &X. +X.. .o  ..OoO + ...",
"XX ..X .X. oOX  .X  $. .XX..X...XX o$o   o  .X. .o#o  ooOo + .. ",
".X  X +.X  %O   .X $O$..XX .Xo  .  oOo  .#   .. X###. o o#  ..  ",
"..  X +.X +%@%+ .X.OOOX... .&O ... OOO  .#....X .#@#X  .$@o ..  ",
".   &. .. +%*%  +  O@O ..  .&@ .   O@O . @ ..X   @=@X $o@@@ . + ",
".   & .oX +%O% .. .@*@ .X   -*.X.  @*@ ..*.     .o@oX.@o@*@ . + ",
"X ++&. #X +o>X  X  $@$ .X   &-  o  o@o  .@  ..  X   X.Oo*<* .-  ",
"+  XX. # .  >X     . .X +. X&X oOo   X    + o.X    .&. o@*o .;  ",
"X.  oX .Xo  *&  X . .-. X.++X; O@o. .#X X   oX. &  +X. $o . .;..",
".. o@o .o@o $X. X   X X.X.  X..O@OX o#o.X   @   X , ... oo. X- .",
"X+.@@@ .@@@  & .X .. . .X . .. @*@  ##o.X  $@$. .  + . .Oo.  -  ",
"X  @*@ X@*@    .X  .$  XX  ..  o@o  #=@X   O@O XX    . o.O ..&..",
".&.*:* .*:*...+..X.$O....XX . +. X. @==X . @*@ . o  .& oo$X.....",
"&. .*o  o*o o.  &&XOOo  &X ..   XXX o.oXXX *<* .oOo    O. X .X .",
"&X    + X X o.+ X .O.oO  & .  + .&.    .XX $*$X.OoO . OOO.  O. .",
" XO     &&  @.  ...@o@OO.& o    X....o XX..  .  OOo  XO@OX OOO X",
".OOO   ..X O=O   X.$oO=O.  O  +  X.. o.X.XX oo  $o.  X@*@X.O@OXX",
"XO@O.X X o O*O  oo   @*@X.OOO. ..X  X@   XO  o+.ooo  X*>*X.@*@.X",
".@*@    .O.@>@. oO. .*<*.XO=Oo .o.  O=O .OOO%%  . .O. O*OX *>*X.",
"X*>*  .OX  *<* %O@O .O*OXX@*=o%ooo .O*O.XO@Oo  XX.OOO.  X&.O*OX.",
"XO*O .OOO% O*O o@=O    o&.*<*o .O. .@*@.X@*@$  OX O@OX..;X   ...",
"&X   XO@O$.   .o>*=  . .XXO*Oo.OOO..*>*.X*>*o.OOO.=*@XX.X.X ..  ",
"X.+ .X@*@o. o..o*<*.   oX.o o#oO=O .O*O.XO*Oo O@Oo*>*X. X... X. ",
"-. + X*>*   o  XO*O  Xoo  Oo%Oo=*= .o  .-.  =X@*;oO*O. X;X.. o  ",
"&X  +.O*O  .@. .o o .o#o.X@O  .*<*.ooo. &   ..*>*oo XX..&. . @.+",
"X.  +.  .  o*o .O@O X###X.*O . O*O.###..X. %..O*Oo%X   .. $$ @X ",
"&X   .   X.O@OX.o@o.X#=#XXoo . o.o.### .&. ...   XX&X...  O. *+ ",
"&.+  X . XX$@$..ooo .*:*XXoo ..o@o =*# .X.. o  X XX&X&   .@o o+ ",
"&    . .  X@*@XXO$o .o=oX Oo+  .   o#o .&. .O. .  oX &X  oo. . .",
"&    . .+  o@o .OOO  X  X.@O . .+ .. .  &..$O$.. ooO. o o#o.   .",
"X   + X. . %oo.XoO%  &X.X *O ..    . . .X. O*O.. ooO..@.##@o   .",
"X .  ..... ooo XX . +X .X.oo XX   ... +XX. @:@ . o$-. @X#=@$o. X",
"X X  X ... o$o  . .  X+XX.oo -    .  .+.X..*<* X ##$ .* @**$#. .",
"X   .   oX $@$  X  ++  XX Oo. .  .   ++.&  O*$ X o$%. : o@@##  .",
"X  + - %oo.%@o     + &XXX @OX&X      - .     XX. ..  X*   #>@  .",
"X   o& ooo  ooX  . +.;..X *O.&..     ; . .  OX.      ;    $*o   ",
"X .o#@.o$o .*o.    + & .X oo.&X  o.  & % + + .     . X    o.    ",
"X+ ##@.$#$  :o .  X .. .X $o.X .ooo  .+o +. XX   + . .    @@ .+ ",
".  #=:.%$%  *o  . . +X  . Oo.X  ###  &Xo  . o    +   .   +** XX ",
"   @**X  .   .++  o. X  . Oo... #=#X &X$. + O.+     .X   .oo X. ",
"  .o@o. ...  .   o@o   .. =O -  =*@. ....   O  .     ..  .oo . .",
"   X X  ..X X    #@@.&    oo.X  o@o  . .  . =     ..X.   Xo$.. .",
"X  &+&. ..X. X .X@*@ &  . oo+.  X .  X Xo.  >%. X ..+X .X.OO X .",
".. &.&X ..X. .+  *:*.X . .oo.X.  X.% . o.o  >% . .X..X   .O=..  ",
"...&+&XX.. .%o .oooo  o . o.+X.... o+-XOoO  .X ... X+X ...%o X..",
"X.XX+. ..  .O% o#o . .O...Oo+o  .. O ..oOo %%% ... X+  %. o$ X. ",
"X. X ....   Oo ##$    O. ... O. .X.OX..O@O  o  ...  ..%oo.oOoX. ",
" .%X X  . . @O #=O  .o@%.... @ ..X.o.. o$%   .  ...  .%$$X%@$o..",
".ooo.X  . .$O$.@#O.  $*$   oXO   ..X.X.ooo  $X    %X  $Oo.$OooX ",
" oooX .    ooo oOo  .$*o. %$o%   ...X$ ...%oo$.  oOo XOOO..OOo. ",
" oO-.      oOo   o. .OOO  o$o.. .  .$o%%o$oOoO.  $OO X%@% .OOO..",
".OOO   %...OOOX.ooo  oO%. oOo  ....Xo$o$OO$O@@X..O@@oXXo...$O%..",
".%O$  %o%. $O%XXoo$      .OOO  .oX .oO$oOOO==O %.O==$.XO X..   .",
".  X  %$o.. .XX.$Oo       $Oo  o$%  OOOoo@O@@O%oo%=@oXX@ +.+. . ",
". .&  oOo   .X .OOO .X ...X .+ oo$. %@%o$$O%o$o$$ OOOX $. .+. . ",
". X   OOO.. .X .%O% +    .X    $O$.+ O.$O$  oooO$.oO$X    .++ . ",
"..X  X$O%.. ..... .   .. XX. .XOOO.+ @ %$oX  oOOO.  XX.   .+  + ",
"  .. XX     X .. .. .&X. .XX .XoO%.  *   .X. $$O%   X X + .     ",
". .  XX.   X..X.... X. ...X. XXX  .X :  ..X..*.    .X.X   .X+.  ",
"  . XX .+   . X. .. XXX. .X ....  ++ * . .X X$X.  + X..  . + .+.",
"..X X.X     .  +... X .  X& X X   ..  . .XX..   . + X. + .X ++  ",
". X.       +,  +  XXXX.. .&.+      + X....XX.. .    +  + ..+ X..",
" .          +.    .X X.. ..    ++X     .  .. X  +  .+.+  X      ",
"  . +.  .X  + .   & + ....  +. + .. +X ...X +... .  + . .X  +X. "
};
