/* XPM */
static char *BLODRIP3[] = {
/* columns rows colors chars-per-pixel */
"32 128 82 1 ",
"  c #5F4B37",
". c #574333",
"X c #67533F",
"o c #6F5743",
"O c #775F4B",
"+ c #533F1F",
"@ c #836B57",
"# c #533F2F",
"$ c #8B735B",
"% c #7B634F",
"& c #937B63",
"* c #5B6347",
"= c #775F3F",
"- c #43331B",
"; c #5B472B",
": c #53573B",
"> c #4F3B23",
", c #836B4B",
"< c #8F2B2B",
"1 c #675333",
"2 c #4B371B",
"3 c #9B0000",
"4 c #831F1F",
"5 c #B30000",
"6 c #676B4F",
"7 c #6F7357",
"8 c #3F2F17",
"9 c #8F7753",
"0 c #A78F77",
"q c #A70000",
"w c #9F876F",
"e c #CB0000",
"r c #8B0000",
"t c #9B7F6B",
"y c #9B3333",
"u c #9F8363",
"i c #730000",
"p c #5F4323",
"a c #AF977F",
"s c #7F0000",
"d c #7F1B1B",
"f c #6F6F6F",
"g c #670000",
"h c #BF0000",
"j c #A73F3F",
"k c #474F33",
"l c #E30000",
"z c #B79F87",
"x c #373F27",
"c c #5B0000",
"v c #BFA78F",
"b c #3F472B",
"n c gray42",
"m c #4F0000",
"M c #EFA373",
"N c #B34F4F",
"B c #332B13",
"V c #434343",
"C c #6B4727",
"Z c #D70000",
"A c gray31",
"S c #838383",
"D c #731313",
"F c red",
"G c #6B0F0F",
"H c #FF1F1F",
"J c #FFB383",
"K c #EF0000",
"L c #774F2B",
"P c gray39",
"I c gray34",
"U c #8B8B8B",
"Y c #8F5F37",
"T c #7F532F",
"R c #2B230F",
"E c #373737",
"W c #D78B5B",
"Q c gray50",
"! c #A36B3F",
"~ c #7B7F63",
"^ c #875733",
"/ c #F7AB7B",
/* pixels */
" oO#*X*OOX*7O:#*O;>2V> ,uO.>.+#8",
" oo#*X*  X*7%:27O+-2.> ,uO.#:+#8",
" oo#*X @& X6%:;*O.--+> ,uO;>:+2+",
" oo#*X%tw%X:%: *O>2>++ $&% 2;+2+",
" oo>*X%$&%X:%: *O>> ++ %&@ 2#.2-",
" oo.*X @n X:%:.7O;>X.> $9% 2;+b8",
" oo *= @& X:%:#6O >X.+1,9O #k.2+",
" oo *= @& X*%6;*O >X.+ ,9% #:.k#",
" oo.*% @& X*O:.6O >% +X,u, #:x#+",
" oo.*O @& X*O7.*O.bOX+=,&@ .:-#8",
"  o.oO @& X7OpC*O.>=X+=,&,o.;+#+",
" Xo O% @& X7Op1XO.2%%>=,u, .;+.+",
" Xo.oO @& X7Op XO.2=X> ,u9  :+#+",
"  o o= @& X7Opp=O.#XO-X,u9  :+.+",
"  o.o= @& .%X. OO...O+X=u&  ;+#+",
" Xo.oO @& X%X+p%O..-O>19u&, ;..+",
" Xo.O% @& X%X++%@.>-=+1,u&= :.#;",
" #okO@ @n X@X.2@@+k-+>1,u@% :+2+",
" #Ok*7 @%  @X%;O@.>-++ $&% X;+ +",
":Xo.*7 @$ *@X% O@>>>++%$z@ X.. -",
":Xo.*% &$ .@X% O@>2>.>O&z$ o.+ 8",
". X.*% 0Q *@X%.%@;22.+Oa0$ o.. +",
". X.oO 0$ *@ %#O@ >2.+Oaz& o..o#",
". X.oO t~ =@X%;X@ #X.+Ovz& o.xo+",
". X oO $& X@X%.O@ #..+9v0$.o.-o8",
". X XO $& X$X%.O@ >..+9a0&.O.+o+",
"  o XO @& X$X%#O@ > .>9a0$.O.+o+",
"  O oO @& X$X%#O@;#A.>9a0$.O.+o.",
"::o *6 @& 6$X%#X@;#..-9a0@.%.+o ",
"::O *6 O& =$ %#.@;#..+900,.@.+o ",
": o O6 O&o=$X%;.@;>..>,wa,.@..o ",
": X oO O&o6$=%;.O >..+,a0,.o..o ",
"O=, @O Ono&tX%;XO >..B=00,.o.poX",
"O , @O O&O&tX%;XOX>..Ruuw,Bo.poX",
", $ @O O&O$t%%#XOX-.. 0vv0$o.poX",
", @ @O O&O&w$%#XXX-.  9vM&o..;o ",
", @ O@ O&O&w$$pp=X-.+ 9aMw%o.Xo ",
"% @ O@ @& &w$$. OX-.. 9aMWu$O0@ ",
"o @ O@ @& $w$$+p%X- + 9aJ/avOJv ",
"o % O@ @& &w$$++%X-X-=9aMau9 w@ ",
"o o O@ @& tw$&.2@X-X- 90M9==-=. ",
"o o @@ @&ot0$& ;nX-.-1,wM,1.-.  ",
"o oX@O %&o&a$&  nX- > ,aM9 .-b:b",
"o oX@$ %&otw$0  nX-..+=0w,pxx.:#",
"X X @$X%@X@t$w .%X-..8 =1>+..bo#",
"o.O.@$X%@;ow$& #@X-X.>o@$o-6X-%;",
"X O.@$o%$;owfwO;@X-o, %$z@1XX+o ",
"X O.@$X%$oou$S .@X-o,1O&z$1.X;O ",
"X O.O@o%$O&tX,,.@X-=$8Oa0$1+X o ",
"X O.OOo%$O&tX,pC@X-=,8@az& +X;O ",
"X O.@Oo%$O$t%$p1@X-1= =vv&1.#.X;",
"X O.O@oO$O&w$$p @X-.  =vv$1 >+..",
"X O.*7oo@O&w$$pp@X-.+ =zz&o #.X.",
"X O.*7oX@ &w@$. @X-.. =az$oX:+.1",
"X O.O@o@@ $w@$+p@X- + =a0$oX;+;1",
"X O.*7o@$ &w@$++@X-X-==a0@1 ;+#L",
"X o.*7o@$ tw@&.2@X-X- =00,1.X-#1",
"X o.*%o@&ott%t ;nX-.-1=wa,1.*+#X",
"X O.*%o@&o&t%&  nX- > =a0,1.X+# ",
"X O.o$o$&ott%&  nX-..+=0u,1+;+#1",
"X O.O$o$&X@t%& .$X;..8 uu$1+;+#L",
"X O.O*o$&;ot%& #$X X.>ou0$1+:+.+",
"X O.O*o&&;ot%&O;$X o. %u0$1x:+.8",
"X o.O6o&&oot%t .$X o.1O&0$1+;+.+",
"X o.*6o&$oot%@ .$X Ip1%u0$1+:+.+",
"  O.**o&$oX$%$ #%X I.1%9u$1+:+.8",
"  o.*Oo$&oX&%& #%O;O.1O99$1.:+#+",
"X o.6@o$&oOt$@ #@O;X.1O9u$1..+#+",
"X o.67o@&o%w9w=#$O;X 1O9u$1+:.#-",
"X o.67o@&oOUf0O;$O;X;1O9u, +:.28",
"  o.*7o@&XXSf0O;$O X.1Ouu, +:.k8",
"  o.*7o@& Xt,0f;$O o.1=9u,;-X-#8",
"  o.o7o@OXX&%wO;$O;o  =9u,;+X-#-",
"X o.O7o@>X%UfwX#@O;X ;=9N,;+:+.8",
"  o.O7o@.ota,wX#OX;o ;=99j;8:-X8",
"  o.@Oo@%OazfwO#...XO;oN9,1+:+.-",
"  o.@Oo@f%az9wO-9=>. ;19N,1-;+.8",
" Xo.OO=@nOt0SSB>=X2-O;1,9%<+#+#+",
" Xo.OoottOPf$%>>@y--y1<=NyX.#8#+",
" Xo.Y2p$@&&X $0u@y22X1oj9,<.;-2+",
" Xo!CpT^O1p11p1=@o>2<<=$0$<+#+2+",
" Xo2C2ppX#++.++1@y-2.1%&N&%.4+2+",
" Xo.8B>X #AVV.+2<<-dX<jOXO@+#+b+",
"  o.OXV-E>OXXX--4<2>4<O.i.O4#-#+",
"  o.O%P.. f%OO>-ir> . 5iciX+4d#+",
"  o.oOOXOX%w%%.i3qi<4< 535 44+4+",
":Xo o@OX@Xf$%%>DGGXX4; hlh +4+#8",
" Xo o$Oo@o%$%%X4DGX<.43qeq.d#+#4",
" Xo.@&@X@o$$=%O4D33%4;erqr 2;-#+",
"  o.$=$X@Xf$=fO43e3X 5l;3r 2#-48",
"  o.&B&X@Xf%=fj45F5l31l13s.#:+48",
" Xo @&@X@X$j=$O4rhr53re13s >#.4d",
" Xo.o@Xo@Off%fO4Feqr.+e=3s.2#.#8",
"  o X.O9w9%f%5erhKh35+eN3r 2#+#8",
"  o.o= ,$@.jfO5qlHK5+3X,3r+2:+#d",
" Xo.oO.o$@Xff5brhlei3.ej33.>.+#8",
" Xo.O%x#@%oXlX.iqlsirHFyq3 2;-#+",
" #okO@Xbo@&Xee5gqeqir.l=q3 2#-#8",
" #Ok*7O.xX .+xBgqesgr35Nqq.#:+#8",
":Xo.*7oX .x.X.-i3hsgr>5jqq >#.#8",
":Xo.*@oO=X....-r353g>+l,3q.2#.#8",
". X.*OoO=**X:.-gr5g2r> =3r 2#+#8",
". X.oOo@7=*Xe.xmi3m2r.*,3r+2:+#8",
". X.oOoO=7=Xle.ms3mX>. =3r.>.+#8",
". X oooo6*XXXX.ms3m.e+==3r 2;-#+",
". X XOo=7*X XX.msqm.V+==r3 2#-#8",
"  o XOo=7=XXXe.gsqi ..*=r3.#:+#8",
"  O oOo=6=X=XX;gs5iA.+X=q3 >#.#8",
"::o *6=,,*6XXXXi35g.V+ =qq.2#.#8",
"::O *6*6=,=* *.i35g..> ,5q 2#+#8",
": o O6*676=6X*.creg..> ,53+2:+#8",
": X oO*7=76==*.crhgA.> ,h3.>.+#8",
":.X oO7X6776*6 c35g..> ,e3.#:+#8",
"  O oO= 7==7*6.i55i .> ,er;>:+2+",
" .O *%=1,==$*6.iqeiX.+ jer 2;+2+",
"::OX*76*76*67y.iqliO.+ %h3 2#.2-",
"::OX*6*7**<=6*biqZi%+> $q3 2;+b8",
"::OX*6*7,*****.sqZg%4+5,5r #k.2+",
"::OX*6*7=116*73gqZg<445,5s #:.k#",
"*XOX:667*1156eksqZg=<+Xj5s #:x#+",
"*<OX:667**<<yy4cqhc<<d<,5r #:-#8",
"XXOX4y*y6**<*<ycqhc<4+<j53o4;+#+",
" XyX:6<76<<y<y4c5hc<5H=j5q<4;+.4",
"<kO <646y*<5y54s55cje+<,5q 4:44+",
"<4<k<k4<yyhyye4i5hi<5d<j5q<d4444",
"<4<<<<<<jy<h3yhs5es3yshy53<4dddd",
"<4<4yy<<yy3<y3si5ess5s3eq3<44ddd",
"4444<<<<ye<35seg5ei53g4<h3dddddd"
};
