/* XPM */
static char *BRICK8[] = {
/* columns rows colors chars-per-pixel */
"64 128 36 1 ",
"  c #5F4B37",
". c #533F2F",
"X c #4F3B2B",
"o c #574333",
"O c #5B472B",
"+ c #67533F",
"@ c #473323",
"# c #5F4323",
"$ c #6F5743",
"% c #6B4727",
"& c #533F1F",
"* c #4B371B",
"= c #4F3B23",
"- c #3F2B1B",
"; c #775F4B",
": c #43331B",
"> c #3F2F17",
", c #774F2B",
"< c #7F532F",
"1 c #4F3B27",
"2 c #2B230F",
"3 c #332B13",
"4 c #1F170B",
"5 c #675333",
"6 c #432F1B",
"7 c #372313",
"8 c #775F3F",
"9 c #2F1B0B",
"0 c #7B634F",
"q c #836B4B",
"w c #836B57",
"e c #3F472B",
"r c #2F371F",
"t c #2F2F2F",
"y c #875733",
"u c #4B4B4B",
/* pixels */
"@o++++$$OO  $$  OOO$$$$1OOO $$@2@+$$O+1* . O+ oO##$$$$     $$$oX",
"X   + $$$$  $     +$$$$&o+;$;+o-@ $$ $OO%&+O$. @oo;$ $ o+;;;0;$ ",
"o$  $$$$o o$$+. X.O$  O*o+ o;;o2Xo  +;e oXo&+<o . $ $O o+$+;;;8 ",
"&$$   $++ . O O.XO%$   .oO O$;o2@  O&$ X$X.X . #o $ O+ oOO%+$;<#",
"X.o$o  $$ O  +$$+%o$$ #*O%#o$;=4@ #%*oOOOo X$ ..O +   $Xo o+$,,&",
"&o o  %+.X .O$+ + .$$O##@o$o$;o4@o#%@oX@#. X+#  . %.#%%##%#+ +0&",
"*. O+$#+  X O$o X $$oo. oo$%$$&46oO @.O@O. X+..X..$ %#%##o#$$$0&",
"*# #O  oO $$O$ ..XOo% O+o$$ +<&4@o.%@.OXO.$o+.oX#.+ #+.#%,.$#$8&",
"=.   . $#O+$ $  XX.  ++ O$+$++o4@oOOX#X@X. .+#%#O.+%=@ %# % +$8#",
"=.+ ...o 1 O $O.#X $   @OOoO %=4@o.#&+XX*ooX$%o#$.+%X. O&oOoO 8&",
"&.o$..o   #O1$ $  o+ O+X&&$*O+&4@o.  &@X*XoX$o%#O.% .O.&&.&+X ,#",
"&. O..o     X O     .X X&O.*O o4@o.@@OX&#o o$###.O  &%XX&#&o#%<#",
"O#o.X.o$O*OX $ o  o .O.@X#%%o#*4Xo#.XO.*OX+o$##OX#o.o%X&O.oo#%8&",
"&#oO*.X.OX.X*   .o $ :.X@*%O$ @4XoO#X*XXXo .$. O.#o..XO@:#O+,<%*",
"-*X*@  @X**X**@@@@=====-===-@-346&&*-@-@ .   O%#Oo&#8X&XOOO5,%@>",
"-336666333---336663-23323---332442-22442223--333-333633633---33*",
"%%++$w;$-XXO+ $o .OoOO  OXO $+%&#%%, O32Xo$+,<,%%%,<;$$%%%,q;,,O",
"#o  O+$<-X.Xo $$$ O$1Xoo.Xo$o$ @&#,%%+@2 X$OO++ O#oo$  #o+$ o OO",
" oOOo $;-oXOoO $$1 $XX#.X@.+oo#@XO%oO#.2 .  O $ 1#o# #o#   o..#%",
"+#+.O$ $-@@1..o+$+  @..o#XO .O#X= O#Oo.2 +  +,++@..%$#.X.. ..#%+",
"%oO O+%$-@@ OOo+o.#.@X..XX.+$..*=O.*...2.O .  +oX..# .oXX#+... o",
".Oo#%+ +-o@XX .$o. oXO#oX*O .XO@#*.Ooo32+. o$.o.*X.: .oXXX$.# oO",
" o#o%++$-.=@..   . ,X.#.X@.+.OO@=O$X.332.X Xoo+oX. X+. XO +.o .o",
"%#&+# #%-oX@%..o#o  @.. OX#+.O#.oo$%,>32&X..o  oX@.O$..X.Oo;X#.X",
".&&o.+X$-oo ..X #X% &O $+X.o .o Xoo.O&32&1O.o   X$.1+O.%.#  .  o",
"O&O .+ ,-oo #.O.+=%$&@.  @.  .oXX%oOX:*2&X.&o   & .1  $O. $$#..#",
".&X.%oX$-ooX .&.o&%%.@..+@ + . XXO OX-:2&X%&.o O&% .oo$  oo X%.8",
"XOXOXoX<-#oXo o  o<%XX...@@  X.@@&.&O--3&X.. o .-#..$.. o+o.O.XO",
"X&&O%+X<-o.+ooo o&$%@X..+Xo  XOX=&O&.3:3&X#*oo..-.O: oo. oo.##XO",
"X*:O#+O%-@o   X# X%%.# $+.+$.*OX::OOO3:2XO.XoXO%:.#*$$ . Oo :. .",
"OOO&O%%O-..  ooX& XX @#o   X& OX=%&OX*:2=*# ooXX  XXXo  &X XXXX ",
"&&&&&O&*6-@@XXXXX-XX@@&oo*X====--==@=-72>@X=*=XXXXXXX=XXoX&X=X==",
"=---------@@=>=@@@@-@>>@@@>=>=>>>=@@>3>23333772499922997777---@-",
".X. ;$ oOXo&;;o=X+$$OO$ +. +$$%&.%$q%;%%<%<+;+@29X+@@OOO O$$%+ +",
".o ;+oo o...$$ =.   X ;+$. o$  @Oo  O+.=#   $$:2=  .X$O+  + OO.+",
"X..+o,  o..X+$$X@X  X $+  ..;..XX. oOO.X# o+$ O2@ .@X  . o <*X& ",
"X#O+o++ $X.o$$$&@X  . $ $. .+..X*.+o@O.& +X $ X2 O XX  ..  .X*&o",
"X.O $ + o@.o$$<&@X. .+$$XX.X$. @*% o@%X&o o $$X2O. @oO O   .##X.",
"<.#o oo +Xoo$$;&o . . $ +X.:+. X@O. *X@@o+o+$$X2 .O@. .. o$o#oO.",
"O.O$ o $oX.X$ ;&.X+%XX+o%$.-e. .X.  @O@X+ o+ $X2 + X@X. .o$o #o%",
"# o+ .+ XXX@$ ;X.XO#XX o+%;= .@X.X+.X#Xooo  o$X2OO X@  +. +. O %",
" .$ ;=X.X@@.++;&@X O&.  + .# ..@..o$X%X@Xo.o++X2  O.XX  %+ O.+o.",
". o   ..O@.@++;X@  <#.OOo .:+%o-@. .-O @o . . :2 O$+X O  ooX.&.X",
"XO + XO.o@.&++$&o++OXo .O  *o.%&XO+ -#XXoXX +$:7O O 1O.$. o*@O%#",
"O@.$$XXXoo@&+#$=oOOOXX+XX%o o..@X# .X+X@&XX + X7O O @+. %o &X*&O",
"X..  O+ oo@XO..XXX.O=* XXO o.==@@XX@@ XoX*XX +X3 $ X@O. O +&#O&O",
"*@X .@X=@@@-X-@6--@:@>.@>XooX.@3>@@@------>--@-76@@333-@@--3333:",
"*@@@*@@@X=-@@@@@@@=*===>@XX@==X--->@@@@-@-:-**@33@--3---*X>>>>>>",
"  . $     X $+$ X*O ;Oo*X ++;,+#.# , $O  &%#;+%&%# &O+@--&o .o*.",
"+$+ $$o . ..+o O@. #+O,Xo  o+# OO$  . @XO+ .$ o*X+$@=<#@-$ o#+$$",
"+$ + $$oO.@ o o.@@O& O$X&  . #+OO   @oXXX... $ X# +==++O-%. O;  ",
"$   +$  X.@+.o  @*.&  $=XO ..OoOXoo @+@ OXOO  +.%#.X= oO>+. O+o ",
"$+&+ $  . @+ oo#@*.&+.$=X.oO.OoOO#o.@oXXXX.O.. .o#O#X$.O-%.OO+  ",
"$+.+o$ $.oX+.oO#@@#o  $=&# ..O.XX.  X+X@XXX# OOXoo.*. @33+ .O+ $",
"$+o++w...oX$oO@.@* &+.$=X  . ## Xo..X+X X@.. *.&X+ Xo.-335..#$# ",
"O +++$O Xoo$  #%1X..+ %*XO .%#.1X #.X$@@ X#O.OOO%o$+X@--3+..    ",
"$+X  +$ XO@  .X @*+.$X%=X.o X.XX.O@.- X@ XO1  %&%%$Xr*@-3+O.%o..",
"O @ O$ $ %@o  oo@X  +@+*X.o. .#X@*.OXo@@X..1.X%=o#.XX%#@3+#.$#.$",
"  .. $$  .@+ . o-@.X+X+*&O .OO&X@*OO- OOOX.#o#O*OO%%o *@3%%.$%+ ",
"..oX $..X#@o ooXXX.O$O%XX. .. #XX*OOXoXXXX XoX@&&%%1o+&>3$O.oo*.",
".O.@Xo .OO@  oOO-*.X+#<XXO . O%&.*O @ @X @XO.#O*OX.X..X&>5.#o.  ",
"o*XXO O.#.X  :OOX-O $,<X& $O#O*&#@..X XXXXXX *X@:@.-X.@X-%.  .:.",
"=oO@XX=@*X@= XX=-==XX-#::XX&XO#*::X:@X@*O@@@**@@@@*-@X@@-%o  O O",
">>=@@@>@@@@@@@@=@->@>----=@=@>@3333333333t3333333333333@-@@@@@=*",
"@o++++$$OOX $$  @XO$$  oXXO $$o-- $$O O#+o%#<;,#%%+oo$++o++$+;+X",
"X   + $$$$. $   XO+$$+ %1o;$;+$@- $$  OO+#%O$o @. $oX$+.o+;;+;$ ",
"o$  $$$$o @$$+. @@O$  X#Xo o;;$@X.  +$. oO#&O;# .  ..  . +$++;; ",
"&$$   $++ @ O O.@X%$ .. XX O$;$-:.  &  .$..O#+o .  .@+..@O%%+;<#",
"X.o$+Xo+$.@..o .@@ $$.*#@&#o$;+@:Oo%##OO o . $..O O.X +XXo O+,,&",
"&o ooo.o X .*  .X..+$&*%@X$o$;$-:.o%O%O#o.++.$. X %-@%&==%#% %;&",
"*. Oo #o.XX O$o.@.X$oXX XX$%$$%-:.  #%o#.@. .+.@X. X@#&1=#oo+$;&",
"*# #.  o.+X O$o @..o.XX$X $ +<%-:.o%%%& .-:+X+#@#. =@#@1&%.$O ;&",
"=.  X  $%OX  $$ @XOo..o @ +$++$-:. O+<&O.X:.  %&OX XX#X&=#+#+ ;#",
"=.+ ..  +# .O  %:X.$ oX.X@oO %+-:.o#%$&X.@.++,#&+@.@.X.X*# .OO;&",
"&.o$O.$oo ..# . @. $.@XX*&$*O+%-:.o  %#+%.++oo%1O.%X.O@@*&.%X %#",
"&. O..ooo. .X ..XXo$ @XO*O.*O $@:#...OX&%. ++o#&XOOX@%@X*#.&O#<#",
"O#o.X.o$O*OX $ oX.o .@@X@#%%o##-X.o.OO.=OX+o&o#XX#.@ %@@@X &O%$&",
"&#oO*.X.OX.X*   @X $ -@O@*%O$ .-X# #OO:X . . O OX##@@-@X-*O#,,%*",
"*&O&o  XO&&O#&oo@@=========*X***=&&&&X*@     O%#Oo=--:--=OO5#%@>",
"=*@XXXXX@@X==@@X@X>=>@>>>===@>>>>=X*=@>>@@X@=@**=**-::@--*===@>*",
"o#   $$oX $++ $ . #o$OO OOO $$,,#%%,q$@>-o$+,<,%%%,%$$###+$q;,<%",
"%$+;+;0,X $ o +$O$Oo.O1o#o ++ oO=#oO+<O-@@$OO$++ #o1ooO* $+  +#%",
" oO o+;;=$  o  $O #$#X=.X..+oo#XXO<+;<+-@. $O+$ o#o=+#1*Xo o..#%",
" # OO$+;& oo.Xo+O$  ..@o#OO .O#X* Oo+$+-@+  +,  ...X$#@@@.  .#%+",
"OoO$O+ ;o%o OO +O  .XX@.XO.+$..#*O#%+$+--O%   +o#...+.O@X#+... o",
" +=#%+ ;o%oOX .$O  oOO*oX#O .XO.@##o$$+-.. +$.o.#..- .1XXX$.# oO",
" O#o%+ ;o o...  =  ,O.=.X..+.OO.#O$o$++--X ooo.o#X @+. XX +.o .o",
"o%#$% %yo$ . ..o*+  X.@ OO#+.#O.+o$%+O#3:X. o  oOOoo$.@@@Oo;X#.X",
"%OO+O+#;&;$ ..Xo*   *..%#O.  *X Xo+#+# 3:1O o   #%.-+O@#@#  .  o",
"O&O .+ ,&$$ #.O.# oooX=.@X.o.Xooo%+  # -:X.%o   #%.Xo%&*@ $$#..#",
".&X.%oX$&$$ +%#.o o$.#%$#.%+ . XOO O+#&--X%%.o O#% X$o&&.oo X%.8",
"XOXOXoX<*<$  $$.o#$.@X%. o@  X.XX&.%+O&-:X.+ o .*O..$oX.X+o.O.XO",
"X&&O%+X<=$ $+ ooo+X@@@o$ oo  XOX#&O&+*&-:X##oo..*.O: oXX.oo.##XO",
"X*:O#+O%=%$  $X#.X XX.O . +$.*OO&:OO+:&--O..oXO%*X#*$$ X.Oo :. .",
"OOO&O%%O@+$   o *  X @#o $O*& OO=%&OOO&-:*  ooXX  &oXo  *X XXXX ",
"&&&&&O&*@&XXXXXX@*XXX@&oo&X====**==@=*=33@ &*  o o%%%,###%&O&X&=",
"=****@=>>=X@=>=@@@X-=@@@-@>=>=>>>=@@>>>@>@XXXXX@@>>>X=@=@X==*XX*",
".X. ;$ oOO+%;;o=.$$ +O$.1@  $o.@@. +oo@XXX ;;;$X>.++$OO  O$$%+ +",
".o ;+oo o   $$ = $ X. ;O.@ oo  @Xo  ++.## O$$$0XO$$$$$O+  + OO.+",
"X..+o,  o  o+$$X$  .o $O. ..,..X@. o O.O  #$$ 8X5 ..$    o <*X& ",
"X#O+o++ $X +$$$&$     $OoX .+..X:.+o.O.% +X$$ $XoO  +   .  .X*&o",
"X.O $ + oO +$$<&$o.. +$ XX X+# @@.+o. X%o o$$$$X&. O$  O   .##X.",
"<.#o oo +o$+$$;&+ ..  $.@X.O+# X@%  &X@Xo+o$$ $X .OO$ X. o$o#oO.",
"O.O$ o $oo$o$ ;& o+&.X+X:X. +O .@O+oOO@o+ o$ $$XX+ ooXX .o$o #o%",
"# o+ .+ XO+.$ ;X  O*.X @:@ X+.o.o +.X#X+oo $o$$X&O .o .+. +. O %",
" .$ ;=X.XXo ++;&%o X% o @+%O .$X@Oo,*%@oXo.+++$XX O  X .%+ O $o.",
". o   ..Oo$.++;X%  %%  O@O.:O..@@.o.*O *o .$. 5o O$$O X. o X.X..",
"XO + XO.oo %++$&$$+XO+ X1.#* .o&:.+ *#oooXX$+$5&5 O  O. . +..OoO",
"OX.$$XXXooO%+#$=+ OXOO+X@%o o..@@#o.#+.o&XX$+ $&O O O+.X%o$o.o&O",
"XX. oO+ oo.o+++X  +X#O .XO + ##@@.o.*  +o=o+ $$oX$ OOO.OO $XOooO",
"XXX .@X=@@.X+X.X.oO*O: .:O++  .-@Oo.-XXXXX*+XOXXX....@X@.X.@=-XX",
"X@X@*>@@X==@@@@@XX=-===>@*X@==X-->>-@@@:@-:**=@X>X@X@@@=*X>>>>>@",
"    $      $$+$  #O ;+o*X ++++ .@XX ++o.X@.++O...=..++o-@ ++ X.+",
"+$$ $$o . $ +o OX  #++,Xo  o+# OX$    . O+ +$ o#X+$.+<< X$  $$ $",
"+$ $ $$oO.. o o.XXO& +$X&  . #+OX   .oO.X..  $ O# +# +; o%.O$$ $",
"$   +$  X.O+.o  ##.& $$=XO ..OoOXoo .+. OXO+  + %#.o  $ &+.O+ o+",
"$+%$ $  . .+ oo#X&.&+ $=X.oO.OoOX#+ Xo. XX.+..  o#O%+$$ X%.O+O $",
"$++$o$ $.o +.oO#XO#o  $=&# ..O.X@ +%#+X.XXX% OOOoo O+$o%&+ .+O $",
"$++$+w...o $oO@.X& &+ $=X  . ## @ O%%;O.X@.  *.%o+$o+.o%X ..  o$",
"O $;+$O Xo+$ ##$%o..+ %*XO .%#.1@ # #;%  X#+.OO O$$$$.+ X+.. O $",
"$+X  +$ XO.  .X.X%+.+X%=X.o X.XXXX@.O;   XOo  %%%%+  X$ X+O.+#  ",
"O . O$ $ %.o .o.>X+ +X+*X.o. .#X@*.OX+% XX.o.X%#o# o+%+ X+#.$1o$",
"     $$  .#o .oX=:.o+X+*&O .OO&X@*OOO , XX.%o#O#O% O++# X%%.$#$$",
"..+O $..X#O+ $+OX=.O+O%XX. .. #XX*OOO++$OXXooX@#O%OO+..&&$O.o..o",
".O .Xo .OO#  oO &&.o+#<XXO . O%&.*O X .%+.  .#O#OX.o$. ,& .#o. $",
"o*..O O.#.   :OOX:O $,<X& $O#O*&#@..X ..#.Xo *XX:@.*+.o$X%.  @.o",
"=oOXXX=@*XX= XX====XX=%*&OO#X5%O*&X@@X@&O@@@**@@@@**XXXXX%o  O O",
">>=X@@>X@@@XXX@=@*>@>=&**=X=@>X@@>>*>@>>@u>@>*>>>*@*@@@@XXXXoX=*"
};
