/* XPM */
static char *BRICK3[] = {
/* columns rows colors chars-per-pixel */
"64 128 46 1 ",
"  c #5F4B37",
". c #533F2F",
"X c #4F3B2B",
"o c #67533F",
"O c #6F5743",
"+ c #473323",
"@ c #3F2B1B",
"# c #533F1F",
"$ c #5B472B",
"% c #574333",
"& c black",
"* c #4B371B",
"= c gray31",
"- c #2F1B0B",
"; c #775F4B",
": c #372313",
"> c #432F1B",
", c #4F3B27",
"< c #4F3B23",
"1 c #332B13",
"2 c #5F4323",
"3 c #0F1700",
"4 c #675333",
"5 c #3F2F17",
"6 c #43331B",
"7 c #6B4727",
"8 c #170F07",
"9 c #171F07",
"0 c #2B230F",
"q c #232B0F",
"w c #775F3F",
"e c gray34",
"r c #676B4F",
"t c #1F170B",
"y c #7B634F",
"u c #0B0B0B",
"i c #13230B",
"p c #836B57",
"a c #1B1B1B",
"s c #131313",
"d c #4B4B4B",
"f c gray23",
"g c #2F371F",
"h c #2F2F2F",
"j c #070707",
"k c #836B4B",
/* pixels */
"      Ooooo o  o+%    ooo       ooo %%          X oO oo  o %   %",
"   o%   %%   %%+ %%  %   %   o% %%%.%%%  ooOo=o X  o      %%%oo ",
"=o=       . % o+  % %  %%   o.     %%    o=o   Xoo     %,,X%  o ",
" o % o   o .. o + o%%o %   ..oo%% % %X   ooo   OOo    %,>1>.% oo",
"      %%%..   . +%  o      %  %.%  %% .. oOoo oroo    %+0t0>X%oo",
" %     %.,,% o .+ooo  o ..X. %%.%%XX   OO.Ooo=Ooeeoo  %+181>X%o ",
" %%%   .+@@X   oo+O  o...  X%% % X   oOOoO.O XoOOOOO  %*+>>+X   ",
"%%% %o.+0t0+% oo o+...X%  %%XXX X      OOoO..XoOooOO= *%,++X%  %",
"      .@080+. = X%X     % %%%% X= %%%%  o oO..=   =  ...%XX%%o  ",
" o=%  .+151@@XX%oooroo  %%    OXo       o   ..o  ooo . oo o%    ",
"  =o  o.+@+..%Xoo Xo  o      o oX %%    o   . ooooo..           ",
"  =    %.,X.oo%% X oo  o o   %  X  %  % o %% .     %   o %%%% o ",
" o o o   o oo o%XXo   oo      o,    oo    o %.oooo%    %%   %%  ",
"%   o %  o oo  o%        % %% %@ %  %      %% .ooo   %  %%%%  % ",
"%%%        o    %.  %% %   %  @@    %%=  % %  o.  oo % % %  %   ",
"%o     %  %   o o.%.. % %%%% +&@ o %% %%% .%o  .. %o%   %%%%% %%",
"+++ %% %   %     o-@%X%%%% %@&&h     %  %%.   %%..%%       %%+XX",
"  %+   o          o&&@@%%%,+&&&&1 , .    X  %%o;  XXXo  %X%+++  ",
"    +% % %%% % %%%o&&&&t@@@&uu3&&1@@@@@@++X%%;o%%%%% >+XX%  %   ",
"o  o +         %   &8a&&&&&uq5a3&&&&&&@ o;OOX        >:-+%% o%o ",
"=  X,,++%   =   % ,&t3q&933q5<$59&93u&%oo%  %X     %++X@:>+X %==",
"oOX Oo,X,X %%  % ,&u55#-1q*.+X+@q9q1q@;      %%%%%%X %  X % X oo",
" oX Oo  oOO;..  ,&895#*-*#.7.+XXXg$$#%; %.%%   % %Xo    +oo=oX o",
"XXo % %%O %%O; +&t0q+@-3-:@@@@@100000;o%..% o     X%    o%o=ooXX",
" oo oo        O;;$#.$$7%%%  oo +5o$.%; X.X%   %o %%X % o +    o ",
"oOO%ooo  % %   o o*#$##*#+72#$<#@277,o=%+.X%%% o%%oX  oo +o OO r",
"oOO%   %%% %   %o .6..$#.#.#4..2@$4#@.= %X% %%%%%  X%  ==X% OooO",
"o oooo % %     o .,6#.$#4$42$42.1$7.@+fo %%   X  oX%  %% o%% ooo",
"o  o  %     o Oo.,+6.##*#2$<4$*.@$47+&@,Oo% o%%   X      oo%ooo ",
"   o       oo o ,@&6*#2<#<*.$<*.@$7*+33+. o%oX% oX  =      %    ",
" oo%%  %  = o  .@&3<<.6*2<,<*.*.:..77q3&+,ooX  %%X    oo   %    ",
"%%   %     Oo .@&33351:---:1*51:-:15@@8&&@,X      X%%o   oo%o  %",
"%%  %%% %  ==.@&39q.$4$+-<$..$$$4$....q9&&@f  %  %X       X %%  ",
"% %%% %    o @&3#OpO .#.:4wkw 4$*##*O;;;;oXX   % %%%%%% % X%%o o",
"    o  %  =%+&3O .. O $$+$$#2.$$$<**o      o+XX  %%%%% %%  o %oo",
"oo   o  %% X@Op ...%%O<$<6+#2$$$2.*> %%%%%   oXX  % %%   %    ro",
"o o Oo  % X@;  .... %y. ++4$###.$#*>%....%% o%OoXX%%%%       oOo",
"o o=o o XX;   %%%.. %y*$+22#.y;#2#; >..%%% X%  o %XX %% oO o ooo",
"  =   oX;; %% %%%%.% y*$1$<*;ooo#2O  >X% %XXo    %%%%XX  dd  ===",
"o o=oOX;  %    %%%.%%;#<0$..o %oo#O %%.X%XooX   %%%% %%X XX or o",
"  OoooX  %       %. %;10001p %X%o#Oo%%% X o     %%%  %     %  o ",
" oo%oXo % %% %%%%.   O$$#..O%.%. O#o  %% X    % XX %%%  %%%%%   ",
"  % oX           %%% o*.*#; %%%X  ;.oo%  X%o=     %% %% %    %  ",
"o    X%   %%%  %%%% o #5*.o.  o   o;..%  ooo ooooo  %o % % %%  o",
"  %%X%% %%%% = %%%  o%515o        = %%%. rOo=oooo o          o  ",
"  %XX%%%%   oo   =  o%00. %o oo%oOOo%%oo.o o  oo oo    %% oooo  ",
"% X  %%  o    %  oo%o.00o oo %% o o %% o.    %oo%    .  %  Ooo  ",
"++   %        %   o %X0.   %%    o o%%Oo. %  oo%%   .%    O oo o",
"oXO      %%% %  %%%%%X1o%%%%% % %    % =...% %%%%%%.%     o ooo ",
"oXe=ooo   %%%%   %%%%+. %%%%%%%%%  % %o % .%X%.%X%.%    o   oOo ",
" X==ooooo%   %   %  .+o%%%%%%%    o    o%%%.%X.%%X%%%% oooo     ",
"oX  oo  o  %%    %%%%+o%%   %%  % % %%%  ..X..X%X.X.%  oooo ooo ",
"o.  o OO   %%  %%%%  XO    %%%%%%%%%  % %%X,X+6+6+XX%o       ooO",
"  .  oeOOo   o %%%  %X     %  %%%   %  %%%.6+@+@>++.%%%%  %  oo ",
"   ...ooo  o  o%  %%OX X%   %%%%%%%    %XX++@::@@>6<% o o  % ooo",
"   %  %%% =%   % %%%oX o  % % %%% %%%% %%X+@a--:@++.X Oo     XXX",
"oo    o XX  % %%%%   X %%%% % %%% %%%  %XX@1ss-:>>6XXX  oooX%   ",
"oo        X%% % % o  >>%,%  % %% %% % % %+6@>,>11>++% X%%XX%ooOo",
"Oe=o  %    X %%%%%% > Oo  ,%  %%%%%%%%% X++6>>>>6>+<%% o    % oo",
"eo       o X  %%%%   ooo o,o     %    %%%XX+,+++X6+...  oo      ",
"o    %     X+%%.%  =  =    ,   % %%   %X%%X,+,,.+X<+..%%        ",
" o %%%   % %+@++X% o  o       %%%%%%   o % X.X.X.X%.X.%   o     ",
"    %      XX+ O            o o  %   o   %%%%%% ..%%....    % oO",
"%%  %  %%XX %XX  %% %        ,%  %  % % %.X% o % .%%%%..%o %    ",
" o    Ooooooo  Xo%   oooooo   ,  oo %%% %..%%%%%,. %%%%%   %   %",
" o=o%o  %%   %%+ %%  % % %    , %%%o%%% %%  %%   % %%%%%%%%%%   ",
" O=         % o%  % %  %%   o  ,%  %%    o=o= o,,X         %  ==",
" o % o %%o    o%+  %%o %    o o:,o%  oo  ooO = :OX    oo      oo",
" o         %% % +%  o      % %%&&11>%    oOooX>:X; o  o%%  %   o",
" %     %% %% o oXooo  o   %  %-&&&&->    oOX>-j+;eoo   %      o ",
" %%%    %%% o  ooXOo o  o   %-&&888&&->,o X>-&&;OOrO    o    o  ",
"%%%  o  %%%oo oooXOoo %   %%1&&&::::8&&1111-&&&;ooOO    %  % o %",
"      %%% %       X    %% %%-&-&***>>:8333889-8; ,        %%%   ",
" o=%   % o oooo oooXXX  % 1-&-:&*..2#.:------:8,,oo  o oooo     ",
"  =o%  oo  oo %%% %;;X+  1&&-:>-<22$<#*>:::>$7;ooooo    oo   o  ",
"  =      %    oo%%% o;&&&&--:>$:<..2$$**>>>#.;     %   oo%%%%oo ",
" o=ooo   o oo   %%%   ;&1:::>$73*#.#.$$2.*###;ooo %   o, %  %%%%",
"    o % oo O ooo% %% %%;::::::333>>:---333-::, oo    ,,%%%%  %%%",
"%%      o    o   %%%%  ;$.#$$$44ww44#44432$.#3-1  oo>% . %  %  %",
"%      %  %   o   %X% %;%$7$$##*#+72#$<$3277$-&&- %>> % %%%%%  %",
"%   %% %   %       %% %%;+#$*.$#.#.#$..$@$4#.:t&&3:-..     %%% o",
"  %%   o         =  %%%>%;<*#4$#2$#2$$2.1$7.$>:t&&&:o7    %     ",
"o %  % .%%%% %%%%%%%%%>@@@##$##*#2$<.$*.@$4. #>:t&@OO%% %%  %   ",
" o o           %%    @1333#$*#2<#<*.$<*.@$7**$*>:@Oo     %%  % o",
"=    == ..      %= %1-&3-*<<<.6*2<,<*.*.@..<2$$2<Oo%XX%   %% %==",
"oo  oo  %..  o   %%-&&->>>>::+------:**::::<<::::O%XX%        oo",
"  o oo o % .    % 1&&-:###.#.#*+5$$4w4ww4$......%: XX% o ooooo o",
" oo % %% %  .XX% 1&&3:>.###$$##.64<4< <<<<<*#****31%%   oOo=ooo ",
" o  oo  % X  .;XX1&3-:>#2###.$$$+$$#2.$$$<*$**.#<-&-   oooo=ooo ",
"ooO%ooo  % %.  o oo oo;;; 5*.#<$<6+#2$$$2.#*$<*#<:3&-%oooOo OOoO",
"ooO%   % % % . %o= XXX++X 5*#.. ++4$##4.$#<$2##$$>-&&1  =o  OoOO",
"o o    %%%    ..o o%%X+X%%1*$$*$+22#.$..<.2.#$*.$$$-&-%   %% ooo",
" % o  %  %%%o .Oo=o %XX% 1&*#.*$+$<*<$*$#$2$< yp;;o%-@@o oo  ooo",
"   o%      ooo. o  o %X% 0&*#.#<5$.$$2 #$$.*Oy ,, ,%%X+ o       ",
" o %   %    o..   Oo <% 1&333@@@@@55>::::--wo%%%  %%, ;+        ",
"%% o %     O.  o  ooO   33-#.#oo#.$ $#2#<#.;%%   X>%%X ;Xoo o  %",
"XXXX%%%XX  =. % %X% o o%3--2oO =o@$*#$#.**Oo  %%%XX%X   X+X %%XX",
"%  %XXX XX oX  oooXX   >-,oo%%%% o**.<$*##O%  %X%%%X%X%%%%%++X  ",
" oo      oXX+ooooo  ++- o  %XXXX%O$<*.#$* o,%% %XX %X%  ;% o   o",
"oOo  o  %  %+    % .o-    %%%XXXX%O<2.*+6; ,,XX % XX%%   %    oo",
"ooo Oo  % % X%%      @   ooo %%XX%%O####%o % %X   X%%%  X    oo ",
"ooo=o       %%% %    X  =Oooo %%%X%oO@#*O  %%  XX%X  % XoO   oo ",
" =o=  o  %  %X%  %= %+.  ooo o =%%  o.@%oooo%%   XX%%%%X===   ==",
"  oooO    %   X%.. % .@   OOo       %>-XX   o   %%%XX%%X%o % O o",
"  Oooo        X%.%%% %-o  oOooo oo O>--o XX   % %%% X  X      o ",
" oo%  o %  % %%X..  %+   ooo o   %o,  ,X  X   %  % %XXX% %%   o ",
"  % oX %     %  @ %%+;   oooo    %,oo =,X  X %%  % %X% o %     o",
"o    %X   %%X  %@%@.;o  %o  ooo   X o;o4-  Xo%  % %X   % %     o",
"  %%%%%%%%%%X X%&@;    o    %% %%=X % % > %%X%%%  % %% %    oo  ",
"   % %X%% %XXX@q&@ %     ooo    oO%O  %% >% XXX%%%X %% %  oOooo%",
"%      XXX X@@&&&&@% XX   oo    o%   %%% wX%X%.@  X  oo oooOoo  ",
" o   o   XX@&&3993&@XX      % o  %o  %    w+@.,@XX    o ooO=oooo",
"oeO X    @&&3955593&@% XX%%%    %    %%   4@@+@@@  %  o  oo ooo ",
"oOe=oXoX@&395ii33333&&@X.%%%%%%%%  % %%o  %.+0t0+% %  ooooo ooo ",
"  ==oXX@3&.$4ww4.3$#93&@@.%%   =% o       ..@080+.%% oOrOOO     ",
" .. XX333q4+$$$$$:$*#@9&&@X.%%  %  %%% o  o.+158,..%ooooooo oooo",
"oo;..339q#$.$$#$7:2#*55#   X.%%%%%%%   o  %o.+@@@.%      o   ooO",
" % ;;@395.*#$*#$7*$*##o  X %; %%%   %% %  o %.,X@o  %  Oo %  oO ",
"     ;@5*2$<$** 7*$##O %%%XX%% %%%%  % %OOo %..4@ o    Oo %  ooo",
"   %   *<#$*#$#$7+2.# XX %% %%%%% %% % =oo    % 4.            = ",
"   %  oO+<+6<+6++ii*o...X%%%%%%%% %%% %%       o 4. oo    Oooo  ",
"oo=     O#$$44#####O. ..    % %% %%       o       .oooooooOOooO ",
"Oe   %%  @#****#**.o  o.. %%  %%%%%%%%%  o   % %% +%   %%oo % oo",
"eo      @;OOOoO+o;.. ooO o O     %          % % o+X% o    oo    ",
"     % .;  %  %+  ;@           % %%    ooo   %  %+ 44    =      ",
" O %%..;   %% %XX  +;    o   %%%%%%% o=oOr oO%% %XX %4%%%%   %  ",
"   o%    %   % O+ +         oo       o=OOr      +      oo   %  o",
" %     %%%% %%% ++% % %      %%  %  %           +%% %   %  %  % "
};
