/* XPM */
static char *BRICK11[] = {
/* columns rows colors chars-per-pixel */
"64 128 22 1 ",
"  c #1F170B",
". c #670B0B",
"X c #5F0707",
"o c #5B0000",
"O c #332B13",
"+ c #530707",
"@ c #5B0707",
"# c #6B0F0F",
"$ c #2B230F",
"% c #4F0000",
"& c #3F2B1B",
"* c #731313",
"= c #670000",
"- c #430000",
"; c #771717",
": c #4B371B",
"> c #7F1B1B",
", c #470000",
"< c #2F1B0B",
"1 c #8B2323",
"2 c #831F1F",
"3 c #372313",
/* pixels */
"O O$$$$$O$$$$$$O$ $$$$$$$OOOOOO$$$$$$$$$$$$$$$$$$$$    $OO$$$$$ ",
"11>>>>1>>1>>>$$O.>;>>>>>1>>1>>>;**>#.$$$#1>>1>>>111>>1>>1>>>;**>",
"=====#==##==o $O+o=#=#=#==##=###=#=#+ $O#==##=##**;;*#=###;;;*#=",
"==###==##=..o $O+ooo=o#==##=..=..=..+ $O#=#=##=..=..==..=..;*#=.",
"==#..#.o#=o.o $&+oX.#..#.o#=o..X....+ $O=.o.o#=o..X....X..o=#o..",
"..o#=o..X...o $&+....X..o=#o.#..#.Xo+ $O=.oo=#o.#..#...X..o=#o..",
"@@@..@X@@XXo% $O+ooXX@@X@..@@@@XXX%%+ $&o@@..@X@@XX@@XX@@X@..@Xo",
"++++o@@@XXX%- $O+%%XXX@@@o+++%@oo%%%+ $&o+++o@@@Xoo@%+++o@@@XXX%",
"-------------  $--------------------- $&--------------------,,--",
"               $$$                    $:                        ",
"O$   $$$$     $$O::O$$$   $$$$   $$$$$&:O$$  $&&O$$$$$    $O$$OO",
">>>>1>>1>>;**>#.$&&.>;>>>>>1>>1>>111>>1>>>>1>>>;**>#.$$ #1>>1>>>",
"=#=#==#####=#=#+ O&+o=#=#=#==####**;;*==#=#==###=#=#+ $ #==##=##",
"=o#==##=.=..=..+ $&+ooo=o#==##=.=.**#===o#==##=..=..+ $ #=##=..=",
"=o#==##=.=..=..+ $&+..=..=##==#o===#**.=.=##==#o=ooo+ $ #=##=..=",
"#..#.o#=..X....+ $O+....X.#o.#..#.#..#X..=#o.#..#.Xo+  $=.o#=o..",
"XX@@@@..X@@XXoo+ $O+ooXX@@.@@@@XX@@@XX@@X..@@@@XXX%%+  Oo@@..@X@",
"oo@%+++o@@XXX%%+ $&+%%XXX@+++%@oo+%@ooX@@o+++%@oo%%%+ $&o+++o@@@",
"---------------- $O---------------------------------- $&--------",
"                 $&                        $          $&$       ",
"O$$  $$ $ $$    $O:$$$$ $ $ $&:&O$O$$   $$$$O$  $$$$O$&:&O$$O$$$",
"O.>;>>>>>1>>1>1>>1>>>>;**>#.$O&.>>>1>222222222>1>222222222;**>#.",
"O+o=#=#=#==###==##=####=#=#+ $O#==##=##**;;*=*;;;###==##=##=#=#+",
" +ooo=o#==##=.=##=..==..=..+ $&+=##=..=.**#==#*;..=..##=.=..=..+",
"$+oX.#..#.o#=..o#=o...X....+ $&+..=..=.=##..=..;*#==#**.=..=##=+",
"$+....X...o=#o..=#o.#..#.Xo+ $&+....X.o=#o.X..o=#o.#..#X..o=#o.+",
"O+ooXX@@@X@..@@X..@@@@XXX%%+ 3O+ooXX@@@..@X@@X@..@@@@XX@@X@..@@+",
"$+%%XXX@@@@o+++@o+++%@oo%%%+ $&+%%XXX@@o++XX@@@o+++%@ooX@@@o++++",
"$---------------------------  $-----------,,--------------------",
"$$                           $$                                 ",
"OOO$$$    $&::OO$$$$$&&$$$&&&&&$&&&$O$O$O::O$$OO$$$ $$$ O $$$$$O",
"222222>*>#.$&O.>;>>>>>1>>1>1>>1>>>;**>#.$O&.>>>1>22222221>222222",
"*;;*=*;#=#+ O$+X=#=#=#==###==##=###=#=#+ $O#==##=##**;;*;;###==#",
"**#==#*=..+ O$+X..###==##=.=##=..=..=..+ $O#==###;;*;;**##=##==#",
"..=*#==#**+ $$+X.#.#.#.X#=.Xo#=o..X....+ $O##..=..;=#**.=..=##=#",
"...#o.#..#+ $$+....X..o=#oX.=#X.#.#.#.X+ $O#o.X..o=#..#X..o=#o.=",
"ooX.@@@@XX+ $$+XoXXX@X@..@XX..XX...###X+ $O.@X@@X@.@@XX@@X@..@@o",
"%%X+++%@oo- $$+X%XXXXX@XX+XXo++@@@%@@@X+ $O++XX@@@o%@ooX@@@o+++o",
"----------- $$-------------------------- $O--,,-----------------",
"            $O                           $&                     ",
"O$O $  $$   O&$   $$$$$OO$$   $OO&:O$   $&:O$  $$&&O$$  $$$$    ",
"$.>;>>>>>1>>1>1;>>>>;>>>>>;**>#. &O.>;>>>>>1>>1>1>>;>>>>>;**>#. ",
"$+X=#=#=#==###==#=#==#=#=##=#=#+ $$+X=#=#=#==###=#==#=#=##=#=#+ ",
"$+X..###==##=.=..###..###=..=..+ $$+X..###==##=.=##..###=..=..+ ",
"$+..=..=###..###..=.=##==###..X+ $$+X.#.#.#.X#=.X#..#.#..X....+ ",
"$+....X..#.#..#.#.X.=#X.#.#.#.X+  $+....X..#.#..#X.=#X.#.#.#.X+ ",
" +....X@..###.X###XX..XX...###X+  $+....X@..###.XXX..XX...###X+ ",
"O+XoXXX...XXXX.XX#XXX.XXXXXXXXX+  $+XoXXX...XXXX.XXX.XXXXXXXXX+ ",
" +XXXXX@XX@@XX%@@@XXX+XX@@X@@@X+  $+XXXXX@XX@@XX%XXX+XX@@X@@@X+ ",
"$-------------------------------  $---------------------------- ",
"                                 $O                             ",
"$    $$$$$$$&&O$$ O&&$$   $$$$$ $&:O$$$$$$$$$$$$$  $$$      $$OO",
">;>>>>>1>>1>;**>#.$O$.>;>>>>>1>>1>1;>>>>>;**>#.O$$.>;>>>>>1>>1>1",
"X=#=#=#==####=#=#+ $$+X=#=#=#==###==#=#=##=#=#+ $$+X=#=#=#==###=",
"X..###==##==..=..+  $+X..###==##=.=..###=..=..+ $$+X..###==##=.=",
"X.#.#.#.X#=.X....+ $$+X.#.#.#.X#=.X.#.#..X....+ $$+X.#.#.#.X#=.X",
"....X.=#X.#.#.#.X+ $$+X.#.#.#.X#=.X.#.#..X....+  $+X###...XX..XX",
"....X@..XX...###X+ $$+X###...XX..XX###..@X....+  $+XX..XX...###X",
"XoXXX.X.XXXXXXXXX+ $$+XXXXXXXXX.XXX#XX...XXXoX+  $+XXX.XXXXXXXXX",
"XXXXX@X+XX@@X@@@X+ $O+X@@@X@@XX+XXX@@@XX@XXXXX+  $-XXX+XX@@X@@@X",
"-----------------% $$--------------------------  $--------------",
"                   $O                            $              ",
" $ $   $$$$$$$  $$$$OOO$$$$O$$$O$$  $$$     $$$ $O$$  $$$$$  $$$",
">;**>>>;**>#.$$O.>;>>>>>1>>>>>>;**>#.$$$.>;>>>>>1>>>>>>1>>>>>>;*",
"##=#==##=#=#+ $O+X=#=#=#==#=#=##=#=#+ $O+X=#=#=#==#=#=#==#=#=##=",
"=..=.#=..=..+ $O+X..###==#.###=..=..+ $O+X..###==#.###==#.###=..",
"=..=..=..=..+ $&+X..###==#=.=.=..=..+ $O+X..###==#=.=.==#=.=.=..",
".X.....X....+ $&+X.#.#.#.#=.X..X....+ $O+X.#.#.#.#=.X.#.#=.X..X.",
"@X...#@X....+ $&+X###...X..XX#@X....+ $O+X###...X..XX#.X..XX#@X.",
".XXXo#.XXXoX+ $&+XXXXXXXX.XXX#.XXXoX+ $O+XXXXXXXX.XXX#XX.XXX#.XX",
"@XXXX@@XXXXX+ $O+X@@@X@@X+XXX@@XXXXX+ $&+X@@@X@@X+XXX@@X+XXX@@XX",
"%%%%%%%%%%%%-  $%%%%%%%%%%%%%%%%%%%%% $&%%%%%%%%%%%%%%%%%%%%%%%%",
"               $$$                    $:                        ",
"O$   $$$$     $$O::O$$$   $$$$   $$$$$&:O$$  $&&O$$$      $O$$OO",
">>>>1>>1>>;**>#.$&&.>;>>>>>1>>1>>111>>1>>>>1>2>>**>#.   #1>>1>>>",
"=#=#==#####=#=#+ O&+o=#=#=#==####**;;*==#=#=@@@#=#=#+   #==##=##",
"=o#==##=.=..=..+ $&+ooo=o#==##=.=.**#===o#==#XX..=..+   #=##=..=",
"#..#.o#=..X....+ $&+..=..=##==#o===#**.=.=##==#o=ooo+ <<=..#=...",
"....X..=#o.#..#+ $&+....X.#o.#..#.#..#X..=#o.#..#.Xo+ <<=...=#o.",
"....X..=#o.#..#+ $O+....X.#o.#..#.#..#X..=#o.#..#.Xo+<<$o...=#o.",
"ooXX@@X..@@@@XX+ $O+ooXX@@.@@@@XX@@@XX@@X..@@@@XXX%%+ <Oo@X@..@@",
"%%XXX@@o+++%@oo- $&+%%XXX@+++%@oo+%@ooX@@o+++%,,,%%%+ $&-@@@o+++",
"---------------- $O---------------------------------- $&--------",
"                 $&                        $          $&$       ",
"O$$  $$ $ $$    $O:$$$$ $ $ $&:&O$O$$   $$$$O$  $$$$O$&:&O$$O$$$",
"O.>;>>>>>1>>1>1>>1>>>>;**>#.$O&.>>>1>222222222>1>222222222;**>#.",
"O+o=#=#=#==###==##=####=#=#+ $O+==##=##**;;*=*;;;###==##=##=#=#+",
" +ooo=o#==##=.=##=..==..=..+ $&+=##=..=.**#==#*;..=..##=.=..=..+",
"$+..=..==..=##=.=##==#o=ooo+ $&+..=..=.=##..=..;*#==#**.=..=##=+",
"$+....X...o=#o..=#o.#..#.Xo+ $&+....X.o=#o.X..o=#o.#..#X..o=#o.+",
"O+ooXX@@@X@..@@X..@@@@XXX%%+ 3O+ooXX@@@..@X@@X@..@@@@XX@@X@..@@+",
"$+%%XXX@@@@o+++@o+++%@oo%%%+ $&+%%XXX@@o++XX@@@o+++%@ooX@@@o++++",
"$---------------------------  $-----------,,--------------------",
"$$                           $$                                 ",
"OOO$$$    $&::OO$$$$$&&$$$&&&&&$&&&$O$O$O::O$$OO$$$ $$$ O $$$$$O",
"222222>*>#.$&O.>;>>>>>1>>1>1>>1>>>;**>#.$O&.>>>1>22222221>222222",
"*;;*=*;#=#+ O$+X=#=#=#==###==##=###=#=#+ $O#==##=##**;;*;;###==#",
"**##==##..+ O$+X..##==###=.=##=..=..=..+ $O#=##==##.**#=;..=..##",
"**##==##..+ $$+X.#..#.X##=.#==##..X....+ $O=##..=..;=#**.##==##=",
"#...#.X#..+ $$+....X..##==#.=##X.#..#.X+ $O=#o.X..o=#..#X#X.#.o.",
"#...#.X#..+ $$+....X..#X.#..=##X.#..#.X+ $Oo#o.X..o=#..#X#X.#.o.",
"XX@@@@.Xoo+ $$+XoXXX@X#X.#.X..XX...###X+ $Oo.@X@@X@.@@XX@@X@..@@",
"oo@%+++X%%+ $$+X%XXXXX@XX+XXo++@@@%@@@X+ $O-++XX@@@o%@ooX@@@o+++",
"----------- $$-------------------------- $O---,,----------------",
"            $O                           $&                     ",
"O$O $  $$   O&$   $$$$$OO$$   $OO&:O$   $&:O$  $$&&O$$  $$$$    ",
"$.>;>>>>>1>>1>1;>>>>;>>>>>;**>#. &O.>;>>>>>1>>1>1>>;>>>>>;**>#. ",
"$+X=#=#=#==###==#=#==#=#=##=#=#+ $$+X=#=#=#==###=#==#=#=##=#=#+ ",
"$+X..###==##=.=..###..###=..=..+ $$+X..###==##=.=##..###=..=..+ ",
"$+..=..=###..###..=.=##==###..X+ $$+X.#.#.#.X#=.X#..#.#..X....+ ",
"$+....X..#.#..#.#.X.=#X.#.#.#.X+  $+....X..#.#..#X.=#X.#.#.#.X+ ",
" +....X@..###.X###XX..XX...###X+  $+....X@..###.XXX..XX...###X+ ",
"O+XoXXX...XXXX.XX#XXX.XXXXXXXXX+  $+XoXXX...XXXX.XXX.XXXXXXXXX+ ",
" +XXXXX@XX@@XX%@@@XXX+XX@@X@@@X+  $+XXXXX@XX@@XX%XXX+XX@@X@@@X+ ",
"$-------------------------------  $---------------------------- ",
"                                 $O                             ",
"$    $$$$$$$&&O$$ O&&$$   $$$$$ $&:O$$$$$$$$$$$$$  $$$      $$OO",
">;>>>>>1>>1>;**>#.$O$.>;>>>>>1>>1>1;>>>>>;**>#.O$$.>;>>>>>1>>1>1",
"X=#=#=#==####=#=#+ $$+X=#=#=#==###==#=#=##=#=#+ $$+X=#=#=#==###=",
"X..###==##==..=..+  $+X..###==##=.=..###=..=..+ $$+X..###==##=.=",
"..=..==##==###..X+ $$+X.#.#.#.X#=.X.#.#..X....+ $$+X..###==##=.=",
"....X.=#X.#.#.#.X+ $$+....X..#.#.X.=#X.#.#.#.X+  $+X.#.#.#.X#=.X",
"....X@..XX...###X+ $$+....X@..###XX..XX...###X+  $+X###...XX..XX",
"XoXXX.X.XXXXXXXXX+ $$+XoXXX...XX#XXX.XXXXXXXXX+  $+XXXXXXXXX.XXX",
"XXXXX@X+XX@@X@@@X+ $O+XXXXX@XX@@@XXX+XX@@X@@@X+  $+X@@@X@@XX+XXX",
"-----------------+ $$--------------------------  $--------------",
"                   $O                            $              ",
" $ $   $$$$$$$  $$$$OOO$$$$O$$$O$$  $$$     $$$ $O$$  $$$$$  $$$"
};
