/* XPM */
static char *BRICK2[] = {
/* columns rows colors chars-per-pixel */
"64 128 20 1 ",
"  c #473323",
". c #4F3B2B",
"X c #3F2B1B",
"o c #533F2F",
"O c #4F3B27",
"+ c #574333",
"@ c #43331B",
"# c #4F3B23",
"$ c #4B371B",
"% c #332B13",
"& c #5F4B37",
"* c #5F4323",
"= c #5B472B",
"- c #533F1F",
"; c #2F371F",
": c #3F2F17",
"> c #2B230F",
", c #67533F",
"< c #432F1B",
"1 c #675333",
/* pixels */
"..    o.OO. O .O..   .+.O       .#o X@@     O     O+.o* @. @.@XX",
" oO. .oO X .      @.O   O  Oo+.  X O.OXO OO+.++   O..O OOO ##=o.",
"o+o. ..  .  X o .o:oO. O O  .o#< OO X  OOo...O  O.O   o O O  +&.",
" .O# .#  .   OO X +@ +O ....o+*:@ X X.  O..o . oo.  .Oo  O   o& ",
"   .#     .       ..oo.. . ..o.%   XX  X .++.o.&o. OO.o#  o  .o.",
" X  .X  X@XX o.+oOo...+    X # % XX@      +oo.+.+...  XX . . .+.",
" @X@ O#.@XXXoO .O.+. o  ....XX ;   X O+o. ++...++++o .XX.    o#X",
"XX  X..  XX O O. .o   XX  X%XX ;       o+o.   oo..++o   @XX o. %",
" .o..++OX @  .&O.++....    @  .+o.    . o .  .o..Oo.oo.o  X  $  ",
" oo.. o# *.o.o.oo..&...  X  X.+o.  ..-+ O   .oo. o+o.o.OO o@  ..",
"o.oo ..+O.#oo..oo.... . O.  #.O+..X  .. +.. @...Oooo  .  OO $-  ",
".oo..#.+ .O   &oO..oo O...   @. ...  .X o  @ o...O.    .O  X OO.",
" ... + .$oO..   ...   oo    @ OX    .+  . . X.Oo.oXO   #X   @@  ",
"    o.Xo.+.o.  ..O ... . @.XX XX  . @     . X  .oo   @  XX@@  XO",
" XX... O OOo   OXX. @X     X@ @@  . XXo  X #  .   o*XX X @$ @   ",
" #.....X ..OO...O     @  .X  ....+  @ .%  X@. . O. * . .  @XX X#",
"XX  XX XX  X        .X%X XX:%    o  X%XXXXX    X X%X    X%XXXX #",
" .X  . .... ... .O       X O....o. .   . o.  .= X.   o..XXX@@ @#",
"O   ..  + . .   .  @X  X.O XX  .. .o  #. +   .+X.@  #   XX   O .",
"+ ..    ......oX.    @X  @X  .oO . .@   .. . ..X.    # XX@@X#@..",
"o....o+ X.#.o++  . @   X#++ X   #      .oX  X@. ...@XXX @ XX#Xoo",
"o+ .++  .X.XX.oX.@X##@  .o  ++.    XX .  . . X X .## X@  XX   .o",
"ooo.+.  . @  #O      oo @  .OO  .   ..X     .  X   .O X....o.o..",
"...    X  XX   X   O.o.  @ O .X  .X @ XXXXX@..$ @ XX   X.o..oo  ",
".o.o+o.  .  .      ...  XX X.   X  X O. X     X.. XX X O . .  . ",
".++.++o..  XX  . o.  o. X   .         + O. @   o.@..  ++ +.o+&.&",
"+++.Ooo   O ..  ....  .X   $ $ ..X   .oOoO .X@+ @.. X..+o+ .+..+",
"oOo.++ X @..   . .o .+o  $.X  @  XX ..ooO.O  O ..+ .o  ; oXX.+..",
"+  .   .    . o.  ... ..    XXXX..   .. +....+....       oOXO...",
"O  .  .   Oo. o  OO.  .     XXX ..o ..+++ o+o.. . .O&. . .OX..o#",
" ..XX  @ .o .  O .o...+   @X.@.o o&oO.+++ .. ....X .  oo .  . ..",
"     X     ..     o.o    .@  .o..o# ...#o    X    X@X.   o. O $@",
"X  .   . .O+o.   .  oX X.   .O      .o..  Oo..   ..   ..#. .@@ X",
" .@   .   Ooo X. . o..  ....o+. . ..++ .  ...oO  o      ...#O*##",
"  O++ XX. o:.  ... OoO.   .O.++..Oo&.... . X.. .     @#X   ..O+.",
"o.o. +. O..@  . O  oOo..  .O.++.. o..&,.    X        @   X@ ..&o",
". oo+o....   OO$ @ .  o..oO.O+ooo ..&&+.    ...o.  .  @.    o++.",
"o .+o o X  .. X.   OX$  O.o  +o.o  ..++++.oo.....@.  XX O..o o+O",
"o.oO  ...@ X O    O$XXX  .oo O   Xo...+.oo++ooO   XX@ @ ..o .++ ",
". .o.+#   X .  XX X%XX    ...       o.o.....+...XXX@#XX     o&  ",
" .&+.o.$ X   .    X @@ O..oo.O  .OO... X  .O    XX@  X @@  @ OO ",
" .oOoo+O% X    @@@..XX.  . . .O  @*+O..XO O. o@  X@   @ XX@XX O.",
"..O... O .X.  $# @@XX    . .o     Oo..o ... .@X  XXX X.OX@  XXO ",
"o...   . .    . @@@  #o X  .$.    oOo#*#o  XOX X@X@X @ X @ XX X.",
"O  .X  O # . o. @     .o ..O.X   .+o o     .$ @ X#X $. o ... o  ",
"$ @X XX#X# .++  ..   ...o o. X.XO.o.O. X X..      @   o. ..+#o #",
" X ... # - ..@X O+.>XXX.  .o$@. . O  X %.X X  XXXX@XXO. O. =.O  ",
".o. Oo.       X@..O @X $.. XX..  . O @. .@ @$  XX XX  O.  +.O  .",
"oo+  . XXXX%X% XXXXXX%XXXX%X% XX%   X%%  XX   X%>%%%  o  .. .oo ",
".+o+&oo. .  X  #.@XXX@  .X    X .    . O. @@  =X@ .. oo+o+.oo+# ",
"..oooooo+Xo    X X  @   .X@XXX$.  . X  . o X @ XX@   .o&o+o . OO",
"+ .O.. Oo.. X #  @XX   X     .  XOX@XX$. .   X#@@X @.. . oO ... ",
"o   . ++ OoX@.#X X@  .@@O . XX   . X   =@X. X@oXX  .O  . O . o.+",
"    ...++..XXo#X @ o#..$@@   $ XX  XX XXX X XX X@ ++ @ o. X  .. ",
"   .o o.o  o .oX  @  @oXX   @@@X  X$  @XX@X@.@ X ...@. .o  X  .o",
".. X   .X oXX  X X@oo O*.  o  XXX X@ XXOXX    XXX              .",
"..O  .o ....@ @@@@  ..   X@   X@X X    XX XX  XX .  o   % #...  ",
".o..  .    XX XXX .  oo   .   @ .   @ .  .  .#. ..oooo++ o...o+O",
"&+oo.    .    XX  XO  +..    .X @..     .   X@. .O.o ..O + .  O.",
"+ooO##   o O  XXXX  Oo+... . ..   .#o..  . X  X.o..O   o o   .  ",
"+.   @.O   X XX%X...  o . $o.   .XXO.oo.... . .O.O O. .. oO   X ",
"..   X  .  @. X  X +  o ... o.  XX  ..&.++ o+ .  O.. ...X.+.. O ",
"    X@.X...  X.&.  .$.O     .o.O X   o.++. O .. @ X. @ =#. OXXo=",
"XX  X  XXXX.@X .    X    ..O .O. X      O X    XXXX X   X.  .@@#",
".o   .o..o+.o .oo.  .o+OO...     #o X@      ...  ..+.o*    @.@XX",
".+++#ooo. .o. ....#oo  XOXOO o.OX O+.. . o.+o.o . .+o. ..O  @ ..",
".&&. ..  +.   +   @o ..O. . .  -Xo+X ....o.++.oo++O ..  O.OX .oo",
" =.$ # @@o.  .OXX .X +. O. Oo.*.%o#..+. . o+.+ o+.  ..oo O.. O..",
" +..#  @...  .X...OOoO   $  ..X %.+ . . .o+o.. o.. ++oo        .",
" #O .X XX  X + .oo.o  .   X .XX %.#X .   o+. ..o&+ooO @@ OXX. O ",
" ##  .$ @X  . ..O.+o.+  +. .X X X   Oo++. oo  .o++&+  X .  XXO@ ",
"%X o . .XXX+o O.O++...    XXXX  ;X     o.. X   o .++    XXXX . X",
"  o. .   . . .+O.o+... XX .  .o++.  ....+..  .o.OO..O. ..=#  #.O",
".oo   .@.*.oooo....+o. . o+..o++  @X @   O  ..o. .o  ...+.o . ..",
"o.o.X. .O.#oo  .o .o..oo .. $.o+o X.  .O. XXX...OooO  . oo..#* .",
"oOo  $ .  O.  o+  ... .+.   O ..O.  o. O  X@.oO....  ...o....=o ",
" oo.... -O o+ o ..o  ..+ X+.@ + .  .OO .. O X.O.. X   oX.X  @@XX",
"o . ..X +o.+ .oooO. ..X.X$O@      O $. . ..   .OO. .  #X#X@  XXX",
" X .   .O .  .  XX       . X .X# .O. XO. X@$ ..   .*.X#%.@#.@  X",
".$ .   X..XO  ..     .@.X.  . +.o+. X .X .X@.Oo O.X* o..    X. $",
"XX  XXXX  XX%        XX XXX%  ..   X %X %X%    X  %X;  XXXXXXX #",
" .XX   OO o   .  =O . .   #oo OO..O.@  ..+. X .oX     ..@ X  #@$",
"o XX   X.  @. @O .   X+ .+.X . .   .  $. +   ...X  @# X#X ..X.  ",
" o..       ...  X  . @ .X$  ..o      %X. . .  .. O X ..  @XX@@ +",
"o..  oo   $ .o..Xo XO   #.o. ..o@XX%X#..o   X  OXo @XX X#.X@ Xoo",
"oo  oo .X@  Oo..  XX @.X o. oo      X .. ..Oo@X XO  @ X.   .  .o",
"... .o o X X@  .X.   .O $X..OO.O X    .       X X# .o Xo ..+.. .",
" ..    X XXX   X ..O..  XXXX    X X #.@XX@X@o @X  XX   X....oo..",
" .  .. XX X   @  X o X   X %   XX @X O. XX     .O   . .ooo.+.o+.",
".o+ o.o OO.@@....+o X.. X X   @@@@@  .o .OO@X X. X.  XOo.&o.++o+",
"ooo O oXo.o .. ..+..   XX$X@ @.  X   .. .o  X@ X@ .XX...o+o.&+++",
". o  .O%XX .. o......*. O@O X X   @@.o.  o. X XX    .     OO.+oo",
" X +   X XXX..&+oo+... O     X    XX    oo O   X    ..O.Oo.  Oo+",
"OO.oXOOX. O++.o .OO.o .O   XXXX  .O ..oo..ooO  X  XXo  .o.  .  $",
".. X  .@. ..+  ...+o. ..  @X @ .Ooo...o+o+o.          o. .  ..  ",
"   . X.    ..  .  o.. X. .XX   .Oo. ...#..   X    X$X.   .O ..@X",
"X  ... . .O+o. ... .o . ..   O       .    Oo..   O    ..#. .@@ X",
".Oo#. .# ..+.. ..o#o..  . O... . .++++o.    .    .   $ X...    @",
" o+oo.  .+o$o..o.O O.o.   .ooO.. .&+O.o.    O. .  XXXXX@XX +.  .",
"o&+.o+o..+.  .. OX .o.  .O. .... o&.o&& ... .     X  XX    X.  .",
"o++o++o..o.    $   .   O.++oO. . .+.+++...  .    O.. X@...  o.. ",
"o+oo+ O X ..X.X.   ..#.o+&o.O  O .+..+. .   o .  @X .X  Oo.O... ",
".+&o .O. @.   . . +#  X .o.. . OX ..+o........O  . @XXX ooo  OoO",
"  .&o+ .@ XO.  ..o    .O  ...       o o .   .   XXX@@XX X. X + .",
"..&+.+o$O  .#. .. X.   O  oo.O. .OO+o......O  @ XX@   XXX    .O ",
".+o  oo X   .    @..   O +o.ooo  @+oO  X    O.@  X@X X X##   .o.",
"..  Oo.X  X.OX$#  @  o.. oo.o.. .X.o.....O X.@X  X@X X.O.@    ..",
"+ .  X  ..X  . .XXXX =..X.O....   o o#**.  @oX  X@XX.$.Xo@.. . .",
"     X XOX ...& @ .$ ..o ++o. .  ooo . . .XO@ @$X XX$.+ +.oo+o .",
"- .X XX   @..+.... X.. . .oo  . O+.+ .XX... .  .XX . .+ o..&*o.X",
".X..     $  X@X  o.X.@X. ..o$ O... . XX .X >XXO X@@ .O+ +.o1.O  ",
" o  Oo X  XXXXX@ O. @    ..   o  .O  @.. @X @. @X XX .. .o&oO...",
"oo+  . XXXXXX%%XXXXXXX  XX%%   XXX  X%X X%%  XX%%%%XX o;;.. .oo ",
".+o+&oo ...    .O#        ... X   .  .X+..@XXX  XX.. .+oo+o++o# ",
". ooo o.o o  XX X  .@XO . @X  $+X O X  ....XX@X X .  .o&o++..Oo ",
"...O.o      X@X X   . .  .  .X-    XXX$.   @XX$$X#.@oo.+.o. ...+",
"o. .. +.o .XX @  .@  .X$. . X ..@.XX   =XX XX@  XO..O.O .o.o oo+",
" X   ..&+.  O+ @X   @ .$@@.  # XX XXXX X   O#X@ XO. X  +o.@. .+ ",
".    .ooo .O .. X.@. X.XXX .@@  XXX$ @ XX X@ @X X+o.   +o X....o",
".. X   .X .XX  X X@.o  *OXX  @ XX  @o. +X   . XXX   . . .  .  ..",
"  OX  O%    X XXXX     . XXXXXX@X  ... XX ..    .o..+.O  .&o.o..",
"o.o  X.Xoo. @.X@@ +   o     X @ .. .$.o  .o.   X  o++.Oo.o+.o.+ ",
"++...X. o+. .    OX O ..o  X.o .@ .X.   .o  X@ XO..o  .X.+o. .oo",
"+.o X . +oO ..  .X . ..+.. +....# .  ..  oo@X X .Oo.Oo    ++. O.",
" ...  . +.      ..ooO. ...=+.    XX . Oo.o  .@. X  O  .X.o.   .o",
"o&..X# X+o#@ . ... +O   .* .o.  XX   o+o.& ..XX @  .  X@ ..oO@  ",
".. O@@.X.  ..X &o.  $ X..   .O  .    .oo.&OO.     XXX@ -#   X@O#",
"   .   %X%X.XX .    X X  .   X .  . ..O  .X    XXXX.X   XX X @X@"
};
