/* XPM */
static char *BRICK9[] = {
/* columns rows colors chars-per-pixel */
"64 128 52 1 ",
"  c #5F4B37",
". c #533F2F",
"X c #5B472B",
"o c #4F3B2B",
"O c #67533F",
"+ c #473323",
"@ c #574333",
"# c #6F5743",
"$ c #3F2B1B",
"% c #533F1F",
"& c #6B4727",
"* c #5F4323",
"= c #4B371B",
"- c #332B13",
"; c #43331B",
": c #4F3B23",
"> c #775F4B",
", c #3F2F17",
"< c #372313",
"1 c #2B230F",
"2 c #1F170B",
"3 c #2F371F",
"4 c #2F2F2F",
"5 c #4F3B27",
"6 c #774F2B",
"7 c #7F532F",
"8 c #432F1B",
"9 c #1B1B1B",
"0 c gray23",
"q c #3F472B",
"w c #775F3F",
"e c #0B0B0B",
"r c #0B1707",
"t c #373F27",
"y c #170F07",
"u c #836B4B",
"i c #2F1B0B",
"p c #434343",
"a c #232B0F",
"s c #13230B",
"d c #7B634F",
"f c #675333",
"g c #232323",
"h c #272727",
"j c #474F33",
"k c #836B57",
"l c #171F07",
"z c #8F5F37",
"x c #4B4B4B",
"c c #53573B",
"v c gray28",
"b c #875733",
/* pixels */
"+@OOOO##XX  ##  XXX####5XXX ##+r$O##XO5= . XO @X**####     ###@o",
"+   #O>>##OO# O O #>>>#* O>#>Oo2+ ##@>  7*# #  X  >> #O Ou>uu># ",
"oO  ####@ @##O. o.X#  X=@O @>>or+@  O>q @o@%O7@ . # #X @O#O>>>w ",
"=O#   #OO . X X.oX&# . .@.@X#>or$  X%# o#o.o . *@ # XO @XX&O#>7*",
"+o@#@  ## X  O##O&@##.*=%%*@#>+e$ &&=@XXX@ o# ..X O   #o@ @O#66%",
"=. @  &O.o .X#O O .##X%:=%#@#>.ea@&&+@o+%. oO*  . &.*&&**&*O Od%",
";o XO#*O  o X#@ o ##@@oo%@#&##;e-@X +.X+.+@oO..o..# &*&**@*###d%",
";% *X  @X ##X# ..oX@& X+@## O7;ea@X&+.Xoo+O@O.@o*.O *O.*&6.#*#w%",
";o   . #*XO# #  oo.  OO+X#O#OO.ea@XXo*o$+$ .O*&*X.O&:+ &* & O#w*",
";oO ...@ 5 X #X.*o #   +XX@X &+ea@X*=Oo3,+@o#&@*#.O&o. X%@X@X w%",
";o@#..@   *X5# #  @O XOo%%#=XO;ea@X  =+:X$@o#@&*X.& .X.%%.%Oo 6*",
";o X..@     o X     .o $%X.=X oea@X +%:%*.X@#***.X  %&oo%*%@*&7*",
":%@.o.@#X=Xo # @  @ .X.$o*&&@*;ea@&.$%@=Xo  #**Xo*@.@&o%X.@@*&w%",
";%XX=.o.Xo.o=   .@ # ;o3+=&X# $ea@X=$,..o..+#.  X* X.. +=X #67&=",
"-;=;+oo$=;;==;+++$;;;;;-;;;,$,-e<==;--,+.oX+X%*%%o=%f+=+%%% &*;<",
"<11<<<i111-<<11<<<1<111219<<112eer2reeer221-<1--$---<11<11<<<11,",
":++..#c -33+.j .+3t.tttt;4+.  :--$$+442r+@#O676&&o67>##&&&6u>66X",
"*&OOO#> -$oX @#O# X +X  Xo O O :**X:$49roo#  >># &  #OO* #>#   &",
"  O &##O-+@  O#>#@ #.+%  . O O&.. :$4-91o.  X # 5*@% *@*   @..*&",
"   X@O O-+o .X@O#X Oo  X%+.O.X*+o o$4491oO  O6OO+..%#*.o.. ..*&O",
" X@@X#XO-$+ ..@O @* +o. +oX  ..+:  ;oh91oX .  O@o..+ .@oo*O... @",
"X X XO O-++@XX.O@.X +.%@ =.  %.:++.&.+21.. @#.@.=o.; .@ooo#.* @X",
" X@@&O  -o+.. . @.  oX*Xo..O.oX+*: X@--2oo o@@O@o. o . oX O.@ .@",
"X@* &O@ -+:.%.  *   o.X@.+%#O.*o5& %%<12:o .@  @o+.XO..o.X@>o*.o",
"X*% XO5O-oo X.o@*@  =.@O oX  oX..@  X$12=: .@   o#.5Oo.&.*  .  @",
".%%@.O. -o@ %...@o&O%: OOo.@  ..o@@.X;$2=:.%@   % .5 X .. ##*..*",
"X%XX%   -o@@X.X.O=& :$o. +XO . +o&@Xo;,1=o&;.@ X%& .@@.+.@@ o&.w",
"o%o.&@oX-=@. @% @:6&.+;o@+.  @ ++:XX.$-1=o + @ .$*..#.o+.O@.X.oX",
"oXoXoOo -:@ @    X#&+o.. +.  o.$:%.%X$-1=o&;@@..$.X; @.3.@@.**oX",
"o=;X*Oo*-+.@@ o @+ &+% OOo O :+3,;Xo.--1$XXoooXo$.*=## ++.@ ;. .",
"%X%*&&&%-$.. @@** &&@:X@O O@%X:;;%*Xo;-1;=*.@o++o @@@@ X,+ @@oo ",
"*%%%%**=<$o+ @@@X+@@o+*@@% XX;;;$;;o:811<$+;;;+++++++;+$;$;+;+;;",
";,,,,$,,<<$$;$;$$$$$$$,++$$;<;<<<;$$$-$1111111yy111111i-----$$+,",
".o. ># @Xo@%>>.;3oO#XX# O. O##&%.&#u&>&&7&7O> <y1oO++XXX X#O&O O",
"  #>>  O @@@>>X8$.  .O>##   #  .  O# #@**@OO>O<1;O @@> O O#    #",
"o..O@6  @..oO# +$o  o #O  ..>..oo. @XX.o* @O# ;y- X+o  . @ *+o% ",
"o*XO@OO #o.@##O;$o  . # #. .O..o=.O@+X.% Oo # =y$X oo  ..  .o+%@",
"o.X # O @+.@## ;$oX .O##o+.o#. +=& X+&o%@ @ ##=y$. +@X X   .**+.",
"7.*@ @@ Oo@@###;o X . # Oo+8O. o+X. =o++@O@O##=y$.X+. .. @#@*@+.",
"X.X# @ #@o.o# #;+oO&ooO@&#.-qo .o. O$X+oO @O #=y$O o+o. .@#@ *@%",
"+ @O .O ooo+# #++oX*oo @O&>: ++o.oOOo=o@@@  @#=2$.@o+  O. O. X &",
" +# >:o.o++.OO#;$o X%.  O .* .o+..@#@@$+o@.@OO=2$X.5oo  &O X.O@.",
". .   ..X+.+OO#+$  7*.XX@ .;O&@$+. .$O++@ . . $2$Xj.o X  @@o.%.o",
"oX.O oX.@+.%OOO;oOOXo@ .X  =@.&%oXO $*@$@oo O#$1$@X3+X.#. @=+X&*",
"X+. #ooo@@+%O*O;oXXXooOoo&@ @..+o* .oO@$ooo O =1$.o3$O. &@ %o=%X",
"oXX  @  @@+oX o8$$ .o+ Xo.  .oo++XX.+ o$o=oo. =a$qq3- .   #X* XX",
";++.o$++$$$-+-$i-$+$$-+$-+oo++$--$$$-$-----,-$-1i99s1-$$$$$----$",
",$-$,$$$+;<-$$$$9-;,;;,<-++-888-<<1$9----1--;--r21122111-+<<<<<<",
"  . # .   o #O# o=X >X.,++0.v% 83;@6@#X  %&*>O&%&*X*XO-11=@ .@=.",
"##O@#>    @ O   5@ *>X ++.+X %.++  O@ .. O@ #  *&X#@@z%<2   &>##",
"O# O ## ..+ @ @.++X% XO+;XXX &OX. @w+@ooo... # o*. ::#O82*X X>  ",
"#   O#  o.+O.@  +=.%  O;+o  X     .O+O+ XoX @ O.&=.o:@@=2 X XO@ ",
"#O%O #  . +O @@*+=.%O.O;+o  XX XX%. +@oooo.X ...@%X*o#@=2*XXXO  ",
"#O.O@# #.@oO.@X*++*@   ;;:@XX.Xo:.XOoOo+ooo* @ $o@.=. .-2  .XO #",
"#O@OOk...@. @X+.+= %O. ;+  . ** o.O oOo o+.. =.ooX@:@ $s2 X.*#* ",
"X OOO#X o@@   *&5o..O *,$X .&*.5+X@.o#++ o*X.XXX@@ o.+a22 X.    ",
"#Oo  O# oX+O..o +=O.#o*;$.  o.oo$O .$ o+ oX5  &%&&#$3-5-2 X.&@..",
"X + X# # &+O  @@+o  O+ ,8.X. .*++o.Xo@++o..5.o&:@* $3;*$2 &.#*.#",
"  .. ##  .+OO+ @$+.oOo ,=XX.X.=$.%XX$ XXXo.*@*X=XX&;3 ,-2*&.#&O ",
"..@o #..o*+@  @ooo.X#X%+$XOo. %3@=XXo@oooo o@o+%%&%-$O%12 X.@@=.",
".X.+o@ .XX+  @XX$=.oO* +$@  O.=$.=X + +o +oX.*X=Xooo.+o;2 X*@.  ",
".:oo. @X*Xo  =@@o;@.O&&+, OX* Xo+o  . .. .   % .;$ ;o+++2*X  @=X",
";o%$++;;;+$;X++;$;;++$=,,===;%=X$,;$$+$;%$;$;;;$-;;,$+$$2%oXX%X%",
"<-;------------;-----<<11-9-91922s111111141111112111111929--$-;=",
"+@OOOO##XXo ##  +o. #  @ooX #Oq1- ##O# *  &*w>7*&&O@:>OO@##>#># ",
"+@  #O>>##@O# O . #O>OO&. >#>OO1-@O#OO. OX*XO @.@ # +# . O##Od# ",
":O  ####@ +##O. ++XO@ o*o@ @>>O1$.  X# .O.%oX>@ .  .$O .X O@O>>X",
";O#   #OO + X X.+o&O .. oo X#>O1$X@ :XXX#@ .*#..X X.o.@oo  XO>6%",
"+o@#Oo@O#.+..@ .++ # +=*+%*@#> 1$.@&**XX@ O@@#. . X++.X:+&@& &O%",
";. @@@.@ o .=  .o..#O8:&+o#@#>O1$.  X&@*q3  .Oooo. ++*:::**@O >%",
";o X@ *@.oo X#@.+.o#O8$@oo#&##*1$.@ *&XX.$3@o X+5. :+*:5%&X@X#>%",
";% *.  @.Oo X#@ +..@ $3 o # O7*1$. X@&%O.$;@ O&:*. o+*oX:*X O >*",
";o  o  #&Xo  ## +oX@.@+.+ O#OOO1$.@X woO o:@.O*%O+@+.%.o:*#%XX>%",
";oO ..  O* .X  &;o.#  o+;+@X & 1$.@  O%@O @OO &: oXooXo+=%@X. >*",
";o@#X.#@@ ..* . +. #.+..;%#=XO%1$XXX.XoX&@ O@@*X.XXooX+o=*.%XX&*",
";o X..@@@. .o ..oo@# +.O::.=X O1$%X.XXX:X+OO @*ooX.+.&++=o %X*w%",
":%@.o.@#X=Xo # @o.@ .++ .X:&@*%1-o ...++.+  % @. * . @..o  X 6O=",
";%  : o  o  %   o. # ;o oo:X#oo1-+++tt-3+-+3.XX.++=$$$$$$=.%%%:;",
";=%=oXX+%==%%=oo+$;;;;;;;o;;+;;,-,,,,$-9$3+3+;=8;;,--,--,+:%;%$<",
";,$+++++$$+;;$$+-+<;<--<<;;;$<<<1,$-,-11--8-8---,---,,---,;;,$<,",
"@*   ##.+..0.0 +3+;@>X. X OOOO%%-$$+xp4124p4+:+$$$%oO#***O#u>67&",
"&#O>O>d ++ +XXO +.. O@  *@###O  *%X+p:422h..XOOOO& o@@X= #O  O*&",
" @X @O>#;.XX  O>X % 7o:Xo..#  *X+X6 >Xo2-.O#.OOO *@: *5=o@  ..*&",
" * XX#O#;.X  X # #  O.o@*XX .X*o%XXXO>.2-.   XO .oo$#*+++.  .*&O",
"X@X#XO #o:X  X OXX.. o+XoX.O#.X%= & O#.--.@ O@ @=. .O.X+o*O... @",
" O:*&O #o:..XX.OoX. @X= o*X . o.+*X@O#.-+@  # @.= .$ .5ooo#.* @X",
" X*@&O #o.  . X@oX.O Xo.o..O. +.*X &#O.<,X  O..o*o +O. oo O.@ .@",
"@&*#& &foq X@XX@= oOoXo@XX*O.*O+O@ @#Oo-<.@ @@ .XX@+#.+++X@>o*.o",
"&XXOXO*#;q   .o =o..:.oX*X.  =o +@#@#X.-<o.   @ *&.$OX+*+*  .  @",
"X%X .O  ;. X% .X;+O.oX:.+o.@.o@Oo&O  *.-2+.&  @ *&.o %%=+ ##*..*",
".%o.&@oO; OX@X%.+  #o%XO*.&O . .:o XO*=-l+%@O@ X*& o#@++.@@ o&.w",
"oXoXo@o ,:OOo  .3X X@o:. @+  o.X+:.&OX=-2go  oO =X..#@o.+O@.X.oX",
"o%%X&Oo ;q O Oo+3 oXo@O  @@  oX:@;.%O==-2g;;++O =.X; @oo+@@.**oX",
"o=;X*OX%;;# X#o@o+  .  O+ O#.=XX%%oXO;=-lg43+; @%o*=## o..@ ;. .",
"XXX%X&&%+X ooooo;XX+o$%oo# :*  X:&=%XX=-2-$+t+@   %@o@  =+ oooo ",
"=====%=;$,$$$$$$9-$++-;+o=+;;;;;;;;;;;;121$<,:XoXo***&%%%*=%=+=;",
";,,,,$;<<,$-,1,-9-$-;-$$<-<<18<--;$$<<1-2-++++<--111+;-;-+;;,++,",
".o. ># @oXO&>>.,4p0.# #.5+  0..++. O@X+33$ >>O <14. OXX+ X#O&O O",
"  #>>  O OOO>>X,404oO > @. @.@ .@ O## $:;5 >># <$. O>> . O# .  #",
"o..O@6  @  @O# $044.. #.. .. ..o+. @ X.%+ *## f8%..X# +  @ 7++% ",
"o*XO@OO #o O##O,044.@X#ooo .O..o;.O@.X.&oOo##  +oo O .+ .  .o=%@",
"o.X # O @X O## ,044o.X#o$o oO* ++.O@. o@o @### +=.O  o X   .*%o.",
"7.*@ @@ O@#O###,4X.3+3 3-o.XO* o+&  %o+@@.@##  +XO X0oo. @#@*@+.",
"X.X# @ #@@#@# #,4  :.3.3<o. OX .+XO@XX+@O+@# # ++O @0+o .@#@ *@%",
"+ @O .O oXO.# #$4@ %XXX+-3 oO.@.@ O.o*o @. #@# +=X .04+O. O. X &",
" +# >:o.oo@ OO#,$X@.XX@.$q:X .#o+X@6=&+@@@.OOO ++ X 04+.&O X #@.",
". .   ..X@#.OO#$$X X6  X+.o<X..++.@.=X =@O+#.  oXX#O++$+ @ o.o..",
"oX.O oX.@@ &OOO,0OO@X@ o5.%;+.@%;.O =*@@@@+#O# ;  Xq@X.Oo O..X@X",
"Xo.##ooo@@X&O*O,4 X:XXOo+&@.X+.++*@.*O.@%@o O  ;% .q O@o@o#@.@%X",
"..    O @@ @OO $4@ @    .  X@=:.o  @:  O@o@. # o+O+.  .  O   @@X",
"+++.o$++$$o$ $o$4.o=.;@o$.   X+,$..o,+++++; $.+++oooo$+$o+t$+,$$",
"+$+$,<$$+;;$$$$-$$,1,,,<$,+$;;+--<<<$$$,$-,,,;$8<+$+$$$;,+<<<<<$",
"    #      ##O#  *X >O.,+ OOOO .+oo OO@.o+.OOX...:..OO@,$.OO o.O",
"###O#>  . #OO   @O *>O +o   #&O @#O      O ##  *&O# >b7o+  O>#O>",
"O# # ##@X.. @ @.ooX% OO+=  . *OXo   .@X.o..  # X* O* O>Xo:.X## #",
"#   O#  o..O.@  **.% #O;+X ..X@Xo@@ .O. XoXO  O &*.@  #X;..XO @O",
"#O&# #  . .O @@*o%.%O O;+. X.X@Xo*O o@. oo.O..  @*X&O##X+:.XOX #",
"#OO#@# #.@  .@X*oX*@   ;=* ..X.o+ O&*Oo.ooo& XXX@@ XO#@*;. XOX #",
"#OO#Ok...@ # X+.o% %O  ;+  . ** + X&&>X.o+.  =.&@O#@O.@*+..X  @#",
"X #>O#X o@O# **#&@..O *,+X .&*.5+ * *>&  o*O.XX X####.OX+..X X #",
"#Oo  O# oX.  +o.o&O.Oo*;+.  o.oooo+.X>   oX@  &&&&O  o#X+.XXO*  ",
"X . X# # &.@ +@.,oO Oo ,+. . .*o+=.XoO& oo.@.o&*@* @O&OX+.*X#5@#",
"     ##  .*@ .@o:;.@Oo ,=X .XX%o+=XXX 6 oo.&@*X*X& XOO*X+%&X#*##",
"..OX #..o*XO #OXo:.XOX%++. .. *oo=XXXOO#Xoo@@o+*X&XXO..=; XX@..@",
".X .o@ .XX*  @X %%.@O* ++X . X&%.=X o .&O.  .*X*Xo.@#. &;..&@. #",
" %.     *    ;  o=  #6&+= # * =o*o  .   *    %  %o =O.@ +%X  +X ",
";o%+++;;;++;X++;;;;++;*,=%%%+ *%==+;;+;=%;;;;;;;;;;;+++++%oXX%X%",
",<;+$$<+$$$+++$;$,<$<;;--,$,-1$--<<,<$<<$0<$<,<<<,$,$$$$++++o+;,"
};
