/* XPM */
static char *BRNSMALR[] = {
/* columns rows colors chars-per-pixel */
"64 128 26 1 ",
"  c black",
". c #1F170B",
"X c #13230B",
"o c #2B230F",
"O c #332B13",
"+ c #3F2F17",
"@ c #232323",
"# c #272727",
"$ c #2F2F2F",
"% c #373737",
"& c gray23",
"* c #43331B",
"= c #4B371B",
"- c #533F1F",
"; c #4F3B23",
": c #533F2F",
"> c #5B472B",
", c #574333",
"< c #5F4B37",
"1 c #675333",
"2 c #67533F",
"3 c #775F3F",
"4 c #434343",
"5 c gray28",
"6 c gray31",
"7 c cyan",
/* pixels */
"XXXXooooooooooooooooooooooXXXXXXXXXXooooooooooooooooooooooXXXXXX",
"XXXXooooooooooooooooooooooXXXXXXXXXXooooooooooooooooooooooXXXXXX",
"$$**$$$$$$OOOO********++**++OOOO$$**$$$$$$OOOO********++**++OOOO",
"$$**$$$$$$OOOO********++**++OOOO$$**$$$$$$OOOO********++**++OOOO",
"****$$$$##OO##OOOOOOOOOOOO####OO****$$$$##OOOOOOOOOOOOOOOO####OO",
"****$$$$##OO##OOOOOOOOOOOO####OO****$$$$##OOOOOOOOOOOOOOOO####OO",
"ooXXooXXXXXXXXooooooooooooooXXXXXXXXooooooooXXXXXXXXooooooXXXXXX",
"ooXXooXXXXXXXXooooooooooooooXXXXXXXXooooooooXXXXXXXXooooooXXXXXX",
"##@@@@##oo##OOOO########OO@@##oo##OOOO########oo##OOOO##OO##**$$",
"##@@@@##oo##OOOO########OO@@##oo##OOOO########oo##OOOO##OO##**$$",
"55&&,,,,,,,,,,,,,,,,,,22,,33,,,,<<<<<<2222<<,,,,<<<<<<22,,&&&&<<",
"55&&,,,,,,,,,,,,,,,,,,22,,33,,,,<<<<<<2222<<,,,,<<<<<<22,,&&&&<<",
"**==--;;**++;;;;;;;;OO;;;;11;;**++;;;;;;;;OO;;**++;;;;;;;;******",
"**==--;;**++;;;;;;;;OO;;;;11;;**++;;;;;;;;OO;;**++;;;;;;;;******",
"**==--====++;;;;;;**++**;;11====++;;;;;;**++====++;;;;;;;;OO++**",
"**==--====++;;;;;;**++**;;11====++;;;;;;**++====++;;;;;;;;OO++**",
"**==--====**;;;;**++OO****>>====**;;;;**++OO====**;;;;****OO++**",
"**==--====**;;;;**++OO****>>====**;;;;**++OO====**;;;;****OO++**",
"++==--====++;;;;**OO++****;;====++;;;;**OO++====++;;;;****OO++**",
"++==--====++;;;;**OO++****;;====++;;;;**OO++====++;;;;****OO++**",
"++44      &&++OO++++OOOO==;;====********++**====********==OO**++",
"++44      &&++OO++++OOOO==;;====********++**====********==OO**++",
"44  ..@@@@  &&##++++OOOO==--;;==++****++**++;;==++****++==++**++",
"44  ..@@@@  &&##++++OOOO==--;;==++****++**++;;==++****++==++**++",
"  ##777777@@  ##++++OOOO##--====**++**OO**++====**++**OO==##**++",
"  ##777777@@  ##++++OOOO##--====**++**OO**++====**++**OO==##**++",
"##7777777777@@  %%++OOOO==--====******OO++OO====******OO==ooOO**",
"##7777777777@@  %%++OOOO==--====******OO++OO====******OO==ooOO**",
"77777777777777@@@@%%OOOO========****++OO**OO====****++OO==OO##**",
"77777777777777@@@@%%OOOO========****++OO**OO====****++OO==OO##**",
"7777777777777777$$@@&&OO========OO++****OOOO====OO++****==OO##**",
"7777777777777777$$@@&&OO========OO++****OOOO====OO++****==OO##**",
"777777777777777777$$##44==**--==****OO##**OO--==****OO##==####**",
"777777777777777777$$##44==**--==****OO##**OO--==****OO##==####**",
"77777777777777777777$$$$44**--==******++**OO--==******++==OO##++",
"77777777777777777777$$$$44**--==******++**OO--==******++==OO##++",
"77777777777777777777&&;;::**====****OO$$++OO====****OO$$==##OO++",
"77777777777777777777&&;;::**====****OO$$++OO====****OO$$==##OO++",
"7777777777777777777744,,OO**==++++****##OOOO==++++****##++oo##++",
"7777777777777777777744,,OO**==++++****##OOOO==++++****##++oo##++",
"77777777777777777766,,OOOO**++++******OO++OO++++******++OO##**OO",
"77777777777777777766,,OOOO**++++******OO++OO++++******++OO##**OO",
"777777777777777766,,++OOOO++==++**++OO++++OO==++**++OO++OO++**$$",
"777777777777777766,,++OOOO++==++**++OO++++OO==++**++OO++OO++**$$",
"7777777777777766,,OO$$OO++++**++++OO##++++OO**++++OO##++OO######",
"7777777777777766,,OO$$OO++++**++++OO##++++OO**++++OO##++OO######",
"7777777777776644$$##oo;;++++==++++OO##++++OO==++++OO##++OOOOOOoo",
"7777777777776644$$##oo;;++++==++++OO##++++OO==++++OO##++OOOOOOoo",
"777777777766::OO$$OO**;;****==****OO$$++++OOOOOOOOOOOOoo##OOOOOO",
"777777777766::OO$$OO**;;****==****OO$$++++OOOOOOOOOOOOoo##OOOOOO",
"777777776644ooOOOO++OO;;****==****OOOO++++OO==OO##OO##oooo##OO##",
"777777776644ooOOOO++OO;;****==****OOOO++++OO==OO##OO##oooo##OO##",
"77777766,,####OO==++++;;==**==****OOOO++++OO==OO######OO########",
"77777766,,####OO==++++;;==**==****OOOO++++OO==OO######OO########",
"777766,,OO##OO++==++**;;==$$++++%%++$$##OOOO++OOOOOOOOOOOOOOOOOO",
"777766,,OO##OO++==++**;;==$$++++%%++$$##OOOO++OOOOOOOOOOOOOOOOOO",
"7766,,**OOoo++++++++**==**OO++$$  ..@@@@$$**####OOOOooOO##OOOOoo",
"7766,,**OOoo++++++++**==**OO++$$  ..@@@@$$**####OOOOooOO##OOOOoo",
"66,,++**OO**OO++++++++==##OO++  ##7777@@@@$$**++;;**OOOOoo$$OOoo",
"66,,++**OO**OO++++++++==##OO++  ##7777@@@@$$**++;;**OOOOoo$$OOoo",
"44OO++**++++++++++++++==##OO  ##77777777@@@@$$******##OO##OOOOOO",
"44OO++**++++++++++++++==##OO  ##77777777@@@@$$******##OO##OOOOOO",
"oo++++**++++##++++####==$$  ##777777777777@@##$$****oo####OOoo##",
"oo++++**++++##++++####==$$  ##777777777777@@##$$****oo####OOoo##",
"##**++==++$$OO**++##OO++  ##7777777777777777##%%$$;;XXOO##OOooOO",
"##**++==++$$OO**++##OO++  ##7777777777777777##%%$$;;XXOO##OOooOO",
"OO++++==++**++oo++##OO  ##77777777777777777777%%%%&&;;####OOOOoo",
"OO++++==++**++oo++##OO  ##77777777777777777777%%%%&&;;####OOOOoo",
"**++**==++++++OO++##  ##777777777777777777777777%%&&44;;OOOOOO##",
"**++**==++++++OO++##  ##777777777777777777777777%%&&44;;OOOOOO##",
"##++**==++##++##OO  ##7777777777777777777777777777&&44::##OOoo##",
"##++**==++##++##OO  ##7777777777777777777777777777&&44::##OOoo##",
"OO++++**OO##++oo  ##77777777777777777777777777777744,,OOooOO@@oo",
"OO++++**OO##++oo  ##77777777777777777777777777777744,,OOooOO@@oo",
"**++++ooOO##++  ##77777777777777777777777777777766,,OOOO##OOOO##",
"**++++ooOO##++  ##77777777777777777777777777777766,,OOOO##OOOO##",
"**OO++OOOO##  ##77777777777777777777777777777766,,++OO$$##ooOO$$",
"**OO++OOOO##  ##77777777777777777777777777777766,,++OO$$##ooOO$$",
"**##++ooOO  ##77777777777777777777777777777766,,OO$$OO$$OOOO@@$$",
"**##++ooOO  ##77777777777777777777777777777766,,OO$$OO$$OOOO@@$$",
"OO##++oo  ##7777777777777777777777777777776644$$##$$**$$OO##oo##",
"OO##++oo  ##7777777777777777777777777777776644$$##$$**$$OO##oo##",
"######  ##77777777777777777777777777777766::OO$$OO$$**$$######oo",
"######  ##77777777777777777777777777777766::OO$$OO$$**$$######oo",
"####  ##7777777777777777777777777777776644ooOOOO++$$**$$##@@OO@@",
"####  ##7777777777777777777777777777776644ooOOOO++$$**$$##@@OO@@",
"##  ##77777777777777777777777777777766,,####OO$$++$$**$$OOXX$$oo",
"##  ##77777777777777777777777777777766,,####OO$$++$$**$$OOXX$$oo",
"  ##77777777777777777777777777777766,,OO##OOOO$$**$$**$$$$####OO",
"  ##77777777777777777777777777777766,,OO##OOOO$$**$$**$$$$####OO",
"##77777777777777777777777777777766,,**OOoo$$**$$**$$**$$OOooOO@@",
"##77777777777777777777777777777766,,**OOoo$$**$$**$$**$$OOooOO@@",
"77777777777777777777777777777766,,++**OO##**OO$$**$$oo$$OOooOO##",
"77777777777777777777777777777766,,++**OO##**OO$$**$$oo$$OOooOO##",
"77777777777777777777777777776644OO++**OO##OO**$$++$$XX$$OO##OOoo",
"77777777777777777777777777776644OO++**OO##OO**$$++$$XX$$OO##OOoo",
"@@77777777777777777777777766,,oo++++OOOOOOOO++$$####OO$$####OOoo",
"@@77777777777777777777777766,,oo++++OOOOOOOO++$$####OO$$####OOoo",
",,@@777777777777777777776644OO##**OO####OO##**$$##OOOOOO##OOOOOO",
",,@@777777777777777777776644OO##**OO####OO##**$$##OOOOOO##OOOOOO",
"##44$$77777777777777776644$$####@@ooOOooOO##OOOOOO$$####OOOOooOO",
"##44$$77777777777777776644$$####@@ooOOooOO##OOOOOO$$####OOOOooOO",
"####,,%%77777777777766::##oo@@####ooOO##OOoooooo##oo$$OOOOOO##OO",
"####,,%%77777777777766::##oo@@####ooOO##OOoooooo##oo$$OOOOOO##OO",
"####oo::&&7777777766,,ooOOooOOXXooXXooOOooXXooOO$$OOOO$$OO$$oo##",
"####oo::&&7777777766,,ooOOooOOXXooXXooOOooXXooOO$$OOOO$$OO$$oo##",
"##OOoooo,,4477776644######oooooooo**@@oo@@##oooo######$$##OOoo@@",
"##OOoooo,,4477776644######oooooooo**@@oo@@##oooo######$$##OOoo@@",
"OOOOOOOOOO,,44%%::##OOOO##@@oo##OO%%OOOOXX@@##ooooOOOO##OOoo####",
"OOOOOOOOOO,,44%%::##OOOO##@@oo##OO%%OOOOXX@@##ooooOOOO##OOoo####",
"oo########oo****oooooo$$ooOO####@@oo######@@##OO&&####OOOOOOoo@@",
"oo########oo****oooooo$$ooOO####@@oo######@@##OO&&####OOOOOOoo@@",
"OO**######ooooooooOOoo####@@OO##oooooo##OOOO$$XX##**####OOooooOO",
"OO**######ooooooooOOoo####@@OO##oooooo##OOOO$$XX##**####OOooooOO",
"ooooooooooXXXXXXXXXXoooooooooooo##OOOOOO######ooOO######OOoo####",
"ooooooooooXXXXXXXXXXoooooooooooo##OOOOOO######ooOO######OOoo####",
"########OO##**$$oo$$$$$$@@@@@@@@OOOOoooo####OOOOOOOOOOooooooOOOO",
"########OO##**$$oo$$$$$$@@@@@@@@OOOOoooo####OOOOOOOOOOooooooOOOO",
",,,,,,22,,&&&&**$$&&<<&&$$$$$$**55&&,,,,,,,,,,,,,,,,,,22,,&&&&**",
",,,,,,22,,&&&&**$$&&<<&&$$$$$$**55&&,,,,,,,,,,,,,,,,,,22,,&&&&**",
"oo######**####OOooOOOOOO**##XXOOooooOOOOXX##OOOOoo######**####OO",
"oo######**####OOooOOOOOO**##XXOOooooOOOOXX##OOOOoo######**####OO",
"ooOO##$$**oo####@@OOOOOO**OO####OOOO######$$####ooOO##$$**oo####",
"ooOO##$$**oo####@@OOOOOO**OO####OOOO######$$####ooOO##$$**oo####",
"######**OOooOO####OOOOOOOOooOO####oo##**OOoo##OO######**OOooOO##",
"######**OOooOO####OOOOOOOOooOO####oo##**OOoo##OO######**OOooOO##",
"OOOO$$##OOOOOO##OOOO$$OOOOOOOO##OOOOXX##OO##OO##OOOO$$##OOOOOO##",
"OOOO$$##OOOOOO##OOOO$$OOOOOOOO##OOOOXX##OO##OO##OOOO$$##OOOOOO##"
};
