/* XPM */
static char *BRNSMAL2[] = {
/* columns rows colors chars-per-pixel */
"128 128 29 1 ",
"  c black",
". c #070707",
"X c #170F07",
"o c #1F170B",
"O c #131313",
"+ c #1B1B1B",
"@ c #13230B",
"# c #2B230F",
"$ c #332B13",
"% c #3F2F17",
"& c #232323",
"* c #272727",
"= c #2F2F2F",
"- c #373F27",
"; c #373737",
": c gray23",
"> c #43331B",
", c #4B371B",
"< c #533F1F",
"1 c #4F3B23",
"2 c #533F2F",
"3 c #5B472B",
"4 c #474F33",
"5 c #574333",
"6 c #5F4B37",
"7 c #434343",
"8 c gray28",
"9 c gray31",
"0 c cyan",
/* pixels */
"==>>**$$********==##==>>**$$********$$$$**##**&&&&**##&&****##@@##&&&&&&&&&&======##==>>**$$********$$$$**##**&&&&******##@@##&&",
"==>>**$$********==##==>>**$$********$$$$**##**&&&&**##&&****##@@##&&&&&&&&&&======##==>>**$$********$$$$**##**&&&&******##@@##&&",
">>::551111,,11551111555555111155111155555555118833222222112211,,11,,,,,,11111111>>,,111111,,,,11,,,,221122,,11443322111111221111",
">>::551111,,11551111555555111155111155555555118833222222112211,,11,,,,,,11111111>>,,111111,,,,11,,,,221122,,11443322111111221111",
",,11,,,,11>>%%>>11%%,,11>>%%>>11%%%%,,,,,,,,%%>>,,>>>><<11,,%%1111>>,,,,$$11111111$$11>>>>,,<<11>>%%11>>1111%%,,11,,>>>>11,,,,,,",
",,11,,,,11>>%%>>11%%,,11>>%%>>11%%%%,,,,,,,,%%>>,,>>>><<11,,%%1111>>,,,,$$11111111$$11>>>>,,<<11>>%%11>>1111%%,,11,,>>>>11,,,,,,",
"$$,,,,,,11>>>>>>%%$$>>>>>>%%,,%%$$%%>>%%>>>>%%>>>>,,>>,,%%>>>>>>11%%>>,,%%%%>>>>$$>>>>>>,,>>>>>>>>>>>>>>,,>>%%>>>>>>%%%%>>>>,,>>",
"$$,,,,,,11>>>>>>%%$$>>>>>>%%,,%%$$%%>>%%>>>>%%>>>>,,>>,,%%>>>>>>11%%>>,,%%%%>>>>$$>>>>>>,,>>>>>>>>>>>>>>,,>>%%>>>>>>%%%%>>>>,,>>",
"%%>>,,,,11>>>>%%$$$$$$,,>>%%$$>>%%>>>>%%>>>>$$>>>>>>>>22%%>>>>>>>>>>>>,,$$>>%%>>$$>>>>>>>>>>>>>>%%>>>>>>$$%%$$>>>>%%$$%%%%>>>>%%",
"%%>>,,,,11>>>>%%$$$$$$,,>>%%$$>>%%>>>>%%>>>>$$>>>>>>>>22%%>>>>>>>>>>>>,,$$>>%%>>$$>>>>>>>>>>>>>>%%>>>>>>$$%%$$>>>>%%$$%%%%>>>>%%",
"$$%%>>,,>>>>$$>>%%%%>>%%%%%%%%>>%%$$>>%%>>%%$$%%%%>>,,>>>>>>%%22>>>>%%>>$$%%%%%%%%%%%%%%>>>>>>>>>>$$>>>>%%$$$$%%>>%%$$>>%%>>,,$$",
"$$%%>>,,>>>>$$>>%%%%>>%%%%%%%%>>%%$$>>%%>>%%$$%%%%>>,,>>>>>>%%22>>>>%%>>$$%%%%%%%%%%%%%%>>>>>>>>>>$$>>>>%%$$$$%%>>%%$$>>%%>>,,$$",
">>$$>>,,%%,,>>$$%%%%$$$$%%%%$$$$$$$$%%>>==$$$$>>%%$$>>%%$$>>%%%%>>$$%%%%$$%%%%$$%%$$$$$$%%$$%%%%%%$$%%>>**$$$$$$%%$$$$$$>>$$--%%",
">>$$>>,,%%,,>>$$%%%%$$$$%%%%$$$$$$$$%%>>==$$$$>>%%$$>>%%$$>>%%%%>>$$%%%%$$%%%%$$%%$$$$$$%%$$%%%%%%$$%%>>**$$$$$$%%$$$$$$>>$$--%%",
">>%%,,>>%%>>$$$$%%$$$$**$$%%##%%$$%%%%$$==%%%%$$%%%%$$%%%%$$%%>>%%>>>>%%$$%%%%$$%%$$$$$$%%%%>>%%>>%%%%$$==%%$$$$%%%%$$$$%%$$==>>",
">>%%,,>>%%>>$$$$%%$$$$**$$%%##%%$$%%%%$$==%%%%$$%%%%$$%%%%$$%%>>%%>>>>%%$$%%%%$$%%$$$$$$%%%%>>%%>>%%%%$$==%%$$$$%%%%$$$$%%$$==>>",
"%%>>==>>%%>>$$%%$$$$$$%%==$$$$%%>>>>>>$$%%$$$$$$%%$$%%%%$$&&>>>>>>>>%%%%%%%%%%%%%%$$%%%%==$$%%>>$$%%$$$$$$**$$$$$$$$$$$$%%>>,,>>",
"%%>>==>>%%>>$$%%$$$$$$%%==$$$$%%>>>>>>$$%%$$$$$$%%$$%%%%$$&&>>>>>>>>%%%%%%%%%%%%%%$$%%%%==$$%%>>$$%%$$$$$$**$$$$$$$$$$$$%%>>,,>>",
"%%$$==$$>>$$%%$$$$$$$$$$**$$%%$$%%%%>>%%%%$$$$$$%%$$%%>>$$%%>>>>>>%%$$**%%%%%%%%%%$$$$$$$$%%%%$$%%%%%%$$$$$$**$$%%>>$$>>>>$$%%>>",
"%%$$==$$>>$$%%$$$$$$$$$$**$$%%$$%%%%>>%%%%$$$$$$%%$$%%>>$$%%>>>>>>%%$$**%%%%%%%%%%$$$$$$$$%%%%$$%%%%%%$$$$$$**$$%%>>$$>>>>$$%%>>",
">>%%%%$$$$%%$$==%%$$$$$$$$%%%%%%==;;==$$%%$$%%$$**$$%%%%%%%%22==;;::::::;;;;;;;;%%%%%%%%$$%%%%$$%%>>>>%%$$%%$$$$$$==>>%%%%%%%%>>",
">>%%%%$$$$%%$$==%%$$$$$$$$%%%%%%==;;==$$%%$$%%$$**$$%%%%%%%%22==;;::::::;;;;;;;;%%%%%%%%$$%%%%$$%%>>>>%%$$%%$$$$$$==>>%%%%%%%%>>",
"%%>>%%%%%%$$**==%%$$$$%%%%%%%%::      77%%$$%%$$$$$$$$>>$$2266>>&&ooooXXooooooooooooooooooXXooooOOOOooOOXX$$**$$%%==%%%%>>,,%%,,",
"%%>>%%%%%%$$**==%%$$$$%%%%%%%%::      77%%$$%%$$$$$$$$>>$$2266>>&&ooooXXooooooooooooooooooXXooooOOOOooOOXX$$**$$%%==%%%%>>,,%%,,",
"%%==>>$$%%%%%%==**$$$$%%%%**::  &&&&oo  77$$%%****$$$$%%%%66oooooooooooooooooooooooooooooooooooooooooooooooo****$$$$>>>>%%%%%%,,",
"%%==>>$$%%%%%%==**$$$$%%%%**::  &&&&oo  77$$%%****$$$$%%%%66oooooooooooooooooooooooooooooooooooooooooooooooo****$$$$>>>>%%%%%%,,",
">>>>%%--%%%%$$**$$$$$$%%%%**  &&000000**  ;;%%$$%%%%>>%%%%88&&000000000000000000000000000000000000000000    oo$$$$<<$$%%>>%%$$,,",
">>>>%%--%%%%$$**$$$$$$%%%%**  &&000000**  ;;%%$$%%%%>>%%%%88&&000000000000000000000000000000000000000000    oo$$$$<<$$%%>>%%$$,,",
"<<$$%%==%%%%**##$$$$$$%%;;  &&0000000000**  ;;>>==$$>>$$%%>>88&&000000000000000000000000000000000000000000  oo>>%%>>,,%%>>%%$$>>",
"<<$$%%==%%%%**##$$$$$$%%;;  &&0000000000**  ;;>>==$$>>$$%%>>88&&000000000000000000000000000000000000000000  oo>>%%>>,,%%>>%%$$>>",
",,%%%%--%%%%**$$$$$$$$;;  &&00000000000000**  ;;**$$****%%>>>>88&&0000000000000000000000000000000000000000  ++**==$$%%%%%%$$>>,,",
",,%%%%--%%%%**$$$$$$$$;;  &&00000000000000**  ;;**$$****%%>>>>88&&0000000000000000000000000000000000000000  ++**==$$%%%%%%$$>>,,",
">>%%>>>>%%%%==$$$$$$::  ==000000000000000000**  ****==**$$>>>>%%88&&00000000000000000000000000000000000000  ##****==$$,,>>>>>>>>",
">>%%>>>>%%%%==$$$$$$::  ==000000000000000000**  ****==**$$>>>>%%88&&00000000000000000000000000000000000000  ##****==$$,,>>>>>>>>",
"$$%%>>$$%%>>******77  ==0000000000000000000000**  $$>>**$$>>>>>>>>88&&000000000000000000000000000000000000  ++**>>$$%%>>>>>>,,,,",
"$$%%>>$$%%>>******77  ==0000000000000000000000**  $$>>**$$>>>>>>>>88&&000000000000000000000000000000000000  ++**>>$$%%>>>>>>,,,,",
"$$$$>>%%$$>>**$$77  ==00000000000000000000000000**  ****%%%%>>>>>>$$88&&0000000000000000000000000000000000  oo**%%--%%>>>>%%>>>>",
"$$$$>>%%$$>>**$$77  ==00000000000000000000000000**  ****%%%%>>>>>>$$88&&0000000000000000000000000000000000  oo**%%--%%>>>>%%>>>>",
"==$$==$$**>>$$**2211==0000000000000000000000000000**  $$**%%>>$$>>>>$$88&&00000000000000000000000000000000  ++$$%%--%%>>%%%%%%>>",
"==$$==$$**>>$$**2211==0000000000000000000000000000**  $$**%%>>$$>>>>$$88&&00000000000000000000000000000000  ++$$%%--%%>>%%%%%%>>",
">>**%%$$%%%%**##$$5577000000000000000000000000000000**  **%%%%%%%%>>>>$$88&&000000000000000000000000000000  ++**$$$$$$>>>>$$%%>>",
">>**%%$$%%%%**##$$5577000000000000000000000000000000**  **%%%%%%%%>>>>$$88&&000000000000000000000000000000  ++**$$$$$$>>>>$$%%>>",
">>$$========##**$$$$5599000000000000000000000000000000**  %%$$%%%%>>%%$$$$88&&0000000000000000000000000000  oo$$$$,,$$%%>>%%>>>>",
">>$$========##**$$$$5599000000000000000000000000000000**  %%$$%%%%>>%%$$$$88&&0000000000000000000000000000  oo$$$$,,$$%%>>%%>>>>",
",,$$$$$$$$%%##$$$$$$%%5599000000000000000000000000000000**  >>%%$$%%>>**$$**88&&00000000000000000000000000  oo>>%%$$,,%%%%$$$$>>",
",,$$$$$$$$%%##$$$$$$%%5599000000000000000000000000000000**  >>%%$$%%>>**$$**88&&00000000000000000000000000  oo>>%%$$,,%%%%$$$$>>",
"==%%>>%%$$$$$$**==$$==$$5599000000000000000000000000000000**  %%$$%%%%$$$$**%%88&&000000000000000000000000  ++**==$$%%<<%%$$>>>>",
"==%%>>%%$$$$$$**==$$==$$5599000000000000000000000000000000**  %%$$%%%%$$$$**%%88&&000000000000000000000000  ++**==$$%%<<%%$$>>>>",
"$$==--==$$%%####==$$##**==7799000000000000000000000000000000**  $$%%**$$$$$$$$>>88&&0000000000000000000000  ##****==>>>>%%%%>>>>",
"$$==--==$$%%####==$$##**==7799000000000000000000000000000000**  $$%%**$$$$$$$$>>88&&0000000000000000000000  ##****==>>>>%%%%>>>>",
"$$==--==$$==**##==$$$$$$==$$2299000000000000000000000000000000**  %%$$$$$$******==88&&00000000000000000000  oo**>>>>%%>>%%%%>>,,",
"$$==--==$$==**##==$$$$$$==$$2299000000000000000000000000000000**  %%$$$$$$******==88&&00000000000000000000  oo**>>>>%%>>%%%%>>,,",
"$$==%%$$##--**&&==$$####$$$$##7799000000000000000000000000000000**  @@******>>>>**$$88&&000000000000000000  oo**%%**<<>>%%%%>>,,",
"$$==%%$$##--**&&==$$####$$$$##7799000000000000000000000000000000**  @@******>>>>**$$88&&000000000000000000  oo**%%**<<>>%%%%>>,,",
"$$>>==$$====****==$$##@@**$$****5599000000000000000000000000000000**  $$**$$**==**$$$$88&&0000000000000000  ++$$%%==>>%%%%>>,,>>",
"$$>>==$$====****==$$##@@**$$****5599000000000000000000000000000000**  $$**$$**==**$$$$88&&0000000000000000  ++$$%%==>>%%%%>>,,>>",
"$$==$$$$==--&&**>>$$##****##$$**$$5599000000000000000000000000000000**  ******==>>$$##**88&&00000000000000  ++**$$,,$$%%>>%%$$>>",
"$$==$$$$==--&&**>>$$##****##$$**$$5599000000000000000000000000000000**  ******==>>$$##**88&&00000000000000  ++**$$,,$$%%>>%%$$>>",
"--==$$$$====$$==>>$$####****####$$>>5599000000000000000000000000000000**  ****$$>>$$****$$88&&000000000000  oo$$%%>>$$$$%%%%$$>>",
"--==$$$$====$$==>>$$####****####$$>>5599000000000000000000000000000000**  ****$$>>$$****$$88&&000000000000  oo$$%%>>$$$$%%%%$$>>",
"====$$$$**==**====####******##$$$$>>%%5599000000000000000000000000000000**  **$$**##****$$##88&&0000000000  oo>>==>>%%$$,,%%$$>>",
"====$$$$**==**====####******##$$$$>>%%5599000000000000000000000000000000**  **$$**##****$$##88&&0000000000  oo>>==>>%%$$,,%%$$>>",
"====$$%%====$$****####******####$$>>%%$$7799000000000000000000000000000000**  $$**@@****$$##**88&&00000000  ++****>>%%%%,,$$>>>>",
"====$$%%====$$****####******####$$>>%%$$7799000000000000000000000000000000**  $$**@@****$$##**88&&00000000  ++****>>%%%%,,$$>>>>",
"--==$$%%====$$$$**;;==&&****##$$$$>>%%%%##5599000000000000000000000000000000**  ==$$****$$##****88&&000000  ##>>**==>>%%%%>>%%>>",
"--==$$%%====$$$$**;;==&&****##$$$$>>%%%%##5599000000000000000000000000000000**  ==$$****$$##****88&&000000  ##>>**==>>%%%%>>%%>>",
"$$--$$$$====$$**;;oooooo..**####$$>>$$>>**$$7799000000000000000000000000000000**  $$$$**$$##****$$88&&0000  $$>>##$$>>%%%%%%%%,,",
"$$--$$$$====$$**;;oooooo..**####$$>>$$>>**$$7799000000000000000000000000000000**  $$$$**$$##****$$88&&0000  $$>>##$$>>%%%%%%%%,,",
"$$--==##====$$**==&&0000&&OO**##$$>>$$%%$$$$**7799000000000000000000000000000000**  $$****##****$$**77&&&&  --**##==%%%%%%%%>>$$",
"$$--==##====$$**==&&0000&&OO**##$$>>$$%%$$$$**7799000000000000000000000000000000**  $$****##****$$**77&&&&  --**##==%%%%%%%%>>$$",
"$$==%%$$**--$$$$==&&000000&&XX##$$>>$$$$**$$$$**7799000000000000000000000000000000**  **$$$$****$$$$%%::::--$$$$##$$>>>>%%$$%%>>",
"$$==%%$$**--$$$$==&&000000&&XX##$$>>$$$$**$$$$**7799000000000000000000000000000000**  **$$$$****$$$$%%::::--$$$$##$$>>>>%%$$%%>>",
"**%%$$==##==$$##;;&&00000000&&XX$$>>$$$$**$$******7799000000000000000000000000000000**  $$**##**$$##$$**$$**$$##$$**$$%%%%%%%%>>",
"**%%$$==##==$$##;;&&00000000&&XX$$>>$$$$**$$******7799000000000000000000000000000000**  $$**##**$$##$$**$$**$$##$$**$$%%%%%%%%>>",
"$$%%$$##****$$##22&&0000000000&&XX>>$$$$**$$##****$$2299000000000000000000000000000000**  ##****$$##$$**====$$$$$$%%%%%%%%%%%%>>",
"$$%%$$##****$$##22&&0000000000&&XX>>$$$$**$$##****$$2299000000000000000000000000000000**  ##****$$##$$**====$$$$$$%%%%%%%%%%%%>>",
"**==%%$$====$$##77&&000000000000&&oo$$$$****##$$==****5599000000000000000000000000000000**  ****$$##****$$==**$$**>>$$,,%%%%$$%%",
"**==%%$$====$$##77&&000000000000&&oo$$$$****##$$==****5599000000000000000000000000000000**  ****$$##****$$==**$$**>>$$,,%%%%$$%%",
"--**%%$$====$$$$77&&00000000000000&&XX$$$$**==**$$****@@2299000000000000000000000000000000**  **$$$$**********##**$$$$%%%%>>%%%%",
"--**%%$$====$$$$77&&00000000000000&&XX$$$$**==**$$****@@2299000000000000000000000000000000**  **$$$$**********##**$$$$%%%%>>%%%%",
"##==$$**==$$$$##88&&0000000000000000&&XX**$$**$$$$**==$$$$5599000000000000000000000000000000**  $$##$$****##**$$##==>>>>%%>>%%>>",
"##==$$**==$$$$##88&&0000000000000000&&XX**$$**$$$$**==$$$$5599000000000000000000000000000000**  $$##$$****##**$$##==>>>>%%>>%%>>",
"$$%%%%$$====$$##88&&000000000000000000&&XX$$$$**$$$$>>**##**5599000000000000000000000000000000**  ##****$$##==**##$$$$>>%%$$<<%%",
"$$%%%%$$====$$##88&&000000000000000000&&XX$$$$**$$$$>>**##**5599000000000000000000000000000000**  ##****$$##==**##$$$$>>%%$$<<%%",
"$$$$%%$$**>>$$&&88&&00000000000000000000&&XX$$**$$$$>>$$$$$$%%5599000000000000000000000000000000**  ********$$**$$$$$$$$$$$$>>>>",
"$$$$%%$$**>>$$&&88&&00000000000000000000&&XX$$**$$$$>>$$$$$$%%5599000000000000000000000000000000**  ********$$**$$$$$$$$$$$$>>>>",
"$$$$##$$====$$**88&&0000000000000000000000&&XX**$$****$$$$**%%**7799000000000000000000000000000000**  ****$$$$**$$$$>>$$>>>>$$>>",
"$$$$##$$====$$**88&&0000000000000000000000&&XX**$$****$$$$**%%**7799000000000000000000000000000000**  ****$$$$**$$$$>>$$>>>>$$>>",
"$$$$$$$$%%**$$**33&&000000000000000000000000&&XX$$$$**@@$$**$$$$$$5599000000000000000000000000000000**  **##$$$$$$$$>>$$%%$$$$>>",
"$$$$$$$$%%**$$**33&&000000000000000000000000&&XX$$$$**@@$$**$$$$$$5599000000000000000000000000000000**  **##$$$$$$$$>>$$%%$$$$>>",
"##%%$$$$$$$$$$==33&&00000000000000000000000000&&OO$$****$$$$**>>$$%%7799000000000000000000000000000000**  ==####**$$>>$$%%$$$$%%",
"##%%$$$$$$$$$$==33&&00000000000000000000000000&&OO$$****$$$$**>>$$%%7799000000000000000000000000000000**  ==####**$$>>$$%%$$$$%%",
"oo%%==$$##$$**==88&&0000000000000000000000000000&&OO******$$$$**$$%%>>7799000000000000000000000000000000**  ;;##**====$$,,$$$$%%",
"oo%%==$$##$$**==88&&0000000000000000000000000000&&OO******$$$$**$$%%>>7799000000000000000000000000000000**  ;;##**====$$,,$$$$%%",
"##$$$$%%$$$$$$**77&&000000000000000000000000000000&&OO$$$$$$****$$%%**==5599000000000000000000000000000000**  ;;**$$$$>>,,$$$$>>",
"##$$$$%%$$$$$$**77&&000000000000000000000000000000&&OO$$$$$$****$$%%**==5599000000000000000000000000000000**  ;;**$$$$>>,,$$$$>>",
"$$$$##%%$$$$$$$$77&&00000000000000000000000000000000&&OO$$$$****$$%%**$$$$55990000000000000000000000000000&&;;****>>>>$$%%$$$$$$",
"$$$$##%%$$$$$$$$77&&00000000000000000000000000000000&&OO$$$$****$$%%**$$$$55990000000000000000000000000000&&;;****>>>>$$%%$$$$$$",
"##$$##$$$$$$##**88&&0000000000000000000000000000000000&&XX@@**%%**%%$$$$$$==5599000000000000000000000000&&11==**$$==$$$$$$$$$$$$",
"##$$##$$$$$$##**88&&0000000000000000000000000000000000&&XX@@**%%**%%$$$$$$==5599000000000000000000000000&&11==**$$==$$$$$$$$$$$$",
"$$$$$$$$==$$$$**22&&000000000000000000000000000000000000&&XX****##%%==$$$$$$$$779900000000000000000000&&55##******==$$$$$$$$$$%%",
"$$$$$$$$==$$$$**22&&000000000000000000000000000000000000&&XX****##%%==$$$$$$$$779900000000000000000000&&55##******==$$$$$$$$$$%%",
"====$$$$$$$$$$$$77&&00000000000000000000000000000000000000&&OO**$$$$$$$$******==77990000000000000000==77**$$$$****--$$$$>>>>$$$$",
"====$$$$$$$$$$$$77&&00000000000000000000000000000000000000&&OO**$$$$$$$$******==77990000000000000000==77**$$$$****--$$$$>>>>$$$$",
"==$$====$$$$$$##77&&0000000000000000000000000000000000000000&&XX$$$$$$****>>******2299000000000000;;55****$$******==##==>>$$$$%%",
"==$$====$$$$$$##77&&0000000000000000000000000000000000000000&&XX$$$$$$****>>******2299000000000000;;55****$$******==##==>>$$$$%%",
"$$$$==$$##$$####22&&000000000000000000000000000000000000000000&&OO%%****##>>==**$$##559900000000::22##****$$##****$$$$$$$$$$$$%%",
"$$$$==$$##$$####22&&000000000000000000000000000000000000000000&&OO%%****##>>==**$$##559900000000::22##****$$##****$$$$$$$$$$$$%%",
"==**$$$$$$==$$##77&&00000000000000000000000000000000000000000000&&OO**$$##$$>>********779900007755####$$****##$$======>>$$$$$$%%",
"==**$$$$$$==$$##77&&00000000000000000000000000000000000000000000&&OO**$$##$$>>********779900007755####$$****##$$======>>$$$$$$%%",
"====$$##$$$$$$$$,,22&&&&&&&&&&&&&&&&&&&&&&&&&&&&&&&&&&&&&&&&&&&&&&OO;;$$$$$$**==$$$$==**22;;7755$$$$$$$$$$**==**$$==$$$$$$$$$$%%",
"====$$##$$$$$$$$,,22&&&&&&&&&&&&&&&&&&&&&&&&&&&&&&&&&&&&&&&&&&&&&&OO;;$$$$$$**==$$$$==**22;;7755$$$$$$$$$$**==**$$==$$$$$$$$$$%%",
"====$$$$####****$$,,77772222222222552222227777777722222222222222::;;$$@@******$$##$$****##>>>>##********##********$$$$$$$$$$$$%%",
"====$$$$####****$$,,77772222222222552222227777777722222222222222::;;$$@@******$$##$$****##>>>>##********##********$$$$$$$$$$$$%%",
"******######******##******####$$$$$$$$$$$$$$**$$**==##$$##****##$$$$**$$##******$$##******######******>>$$$$**$$**==##**$$$$$$%%",
"******######******##******####$$$$$$$$$$$$$$**$$**==##$$##****##$$$$**$$##******$$##******######******>>$$$$**$$**==##**$$$$$$%%",
"====$$**$$##******$$====$$**##$$$$$$$$$$$$$$************##$$%%****%%**$$$$$$****##$$====$$**$$##********$$$$******==##$$$$$$**%%",
"====$$**$$##******$$====$$**##$$$$$$$$$$$$$$************##$$%%****%%**$$$$$$****##$$====$$**$$##********$$$$******==##$$$$$$**%%",
"**==$$****##**$$******==$$**##$$$$$$$$##$$****@@$$**$$$$$$****##$$%%**$$@@$$**==##****==$$****##**$$$$********@@$$==$$==$$$$$$%%",
"**==$$****##**$$******==$$**##$$$$$$$$##$$****@@$$**$$$$$$****##$$%%**$$@@$$**==##****==$$****##**$$$$********@@$$==$$==$$$$$$%%",
"$$****$$**$$**$$**##$$****##$$$$##$$##$$$$$$$$##$$**$$$$$$******$$%%******##$$==**##$$****$$**$$**$$$$$$$$$$$$##$$**,,==$$>>$$%%",
"$$****$$**$$**$$**##$$****##$$$$##$$##$$$$$$$$##$$**$$$$$$******$$%%******##$$==**##$$****$$**$$**$$$$$$$$$$$$##$$**,,==$$>>$$%%",
"$$********$$**$$**$$$$****##$$$$######$$@@$$$$$$$$$$**$$$$$$****##$$##$$$$**$$****$$$$********$$**$$**$$@@$$$$$$$$$$$$$$$$%%>>%%",
"$$********$$**$$**$$$$****##$$$$######$$@@$$$$$$$$$$**$$$$$$****##$$##$$$$**$$****$$$$********$$**$$**$$@@$$$$$$$$$$$$$$$$%%>>%%",
"$$******$$**==**$$$$$$$$**##$$############$$##$$$$****$$##$$**############**$$****$$$$******$$**==**&&##$$$$$$$$$$**##%%$$%%%%,,",
"$$******$$**==**$$$$$$$$**##$$############$$##$$$$****$$##$$**############**$$****$$$$******$$**==**&&##$$$$$$$$$$**##%%$$%%%%,,",
"OOOOOOXXXXXXOOOOXXXXXXXXXXXXXXXXXXXXXXXXXXXXXXXXXXXXXXXXXXXXXXXXXXXXXXXXXXXXXXXXXXXXOOOOOOXXXXXXOOOOXXXXXXXXOOOOOOOOXXoooooooooo",
"OOOOOOXXXXXXOOOOXXXXXXXXXXXXXXXXXXXXXXXXXXXXXXXXXXXXXXXXXXXXXXXXXXXXXXXXXXXXXXXXXXXXOOOOOOXXXXXXOOOOXXXXXXXXOOOOOOOOXXoooooooooo"
};
