/* XPM */
static char *BRONZE2[] = {
/* columns rows colors chars-per-pixel */
"64 128 31 1 ",
"  c #332B13",
". c #2B230F",
"X c #1F170B",
"o c #13230B",
"O c #131313",
"+ c #1B1B1B",
"@ c #170F07",
"# c #0B0B0B",
"$ c #232323",
"% c #3F2B1B",
"& c #070707",
"* c #53573B",
"= c #0B1707",
"- c #675333",
"; c #4F3B23",
": c #43331B",
"> c #4B371B",
", c #3F2F17",
"< c #574333",
"1 c #5F4B37",
"2 c #533F2F",
"3 c #67533F",
"4 c #2F2F2F",
"5 c gray28",
"6 c #272727",
"7 c gray23",
"8 c #533F1F",
"9 c #5B472B",
"0 c #5F4323",
"q c #6F5743",
"w c #373F27",
/* pixels */
"557<<77:47<7444:7:4:47::57<<<<<<<<11<77:47<7444:7:4:47::57<<<<<:",
"<;;<<<<;51<<<<<98<;;;;<9<;;<<<;;<;;<<<<;51<<<<<98<;;;;<9<;;<<<;:",
"::::;:;;;<;;2>,>::>:8:;2>>:;::;; ::;:;;;<;;;;;,;::;:::<:;;;;:,::",
"::::::;<<;222: ::::::;;;>>>;: ::::>::;<;<<;;<; ::::::;;:;;;<:,::",
"::::::;99<<<;:,: :>:;;;;2>2;  ;>:><::;9<<<;;;;,: :;:;;;:;;<<> ::",
"::::::;99;<<;::: ::,:;<;2>2>>,<;::>::;9;;<;<;::: ::::;;:<;<3>6::",
"::::::;99<<<<; ,:::::<<<2;2;,:>>:::,:;9<<<;<<; ,:::::<<;;;;;>,::",
"::::4,;991<<<:>,::<::<<<2;2;:>,:::,4:;911<;<<: ,::;::<<;;;;<>4::",
":::::,<<<1;2<;> ::::;<<1<<<;>:,:::,,:;511<;<<<  ::::;<1<22<<>:,:",
":::::>2<<<<<<;> :::,;<<1<<<;>>:::,4::;<1<<<<<<, :::><<1<22<1> ,:",
":::::,;<<1;2<;> ::::;<11<<<;>:,:::,,:;511<;<<<  ::::;<1<22<<>,::",
":::::>;<<<<<<;> :::,<311<<<;>>:::,4::;<1<<<1<<, :::><<1<2<<<>,,:",
":7:,,>;<<<11<;> : :,8111<<1<8>:::7,;:;;11111<5, : :>0<1<2<1<> 6:",
"::4,,>;<1<11<;,,:::,;111<11<>,::::4w:;531111<; ::::>5<1121<<>6 ,",
":::,,>;<1<11<;6, ::,21<1111<>,,>:::;:;1311112;,, ::><<1<<<<<>4:,",
":::,,,;<1<11<; ::::,21<1111<>,6;>::::;131111<; ::::><<1<<<1<>6,,",
"::74, ;<1<111; ,::,:21<<1112 ,,,::;::;<331111< ,:6,:<<<<<<1<>:,:",
":::::>;<1<<<1;> :::,<311113<>>:::,4::;<3311<1<, :::><11<<<<<> ,:",
":7:,,>;;11113;> : :,8311311<8>:::7,;:;;3311135, : :>011<<<<<>,::",
"::4,,>;513113;,,:::,5311331<>,::::4w:;5311113; ::::>5111<1<<>,,:",
":::,,>;113112;6, ::,2q11331<>,,>:::;:;1331112;,, ::><111<1<<> 6:",
":::,,,;11311<; ::::,2313333<8,6;>::::;133111<; ::::><11<<<1<>6 ,",
"::74, ;111111< ,::,:2<<<<<<2 ,,,::;::;<111111< ,:6,:<1<<221<>4:,",
":::4: :  :   :6:: :: :    :  ,6,:;7: : :     :6:6 :: :    :  6,,",
":::::: .. ... 4,  : ........ 4,;:;;:: . o.... 4,66: ........ 46:",
"::4:4:....ooo.6: ,66 .ooooo. 6::::44:....oooo.6:4666 .ooooo. 64:",
":4::4: ..... 6,4,6 6    66  4444::44:        64446 6   666  44:4",
":4:446       : 6, : ,,,,  ,,:64:::446,,,,,,,:: 666:66,,   ,,:64:",
":4:446       : 6 ,  ,,,,,,,,: 44:4444,,,,,,,:: 6666 6::,,,::: 44",
"4::446       : 64 ,6,,,,,,,,,,6 ::644,,,,,,,:: 64 666::,,,::,66 ",
"::646        66 66      ,,  6o6.::466 6      66 66     ,,,  6o .",
"oo...........ooo.o.oooo.......oooo...........ooo.o.oooo......ooo",
"#.X......X..+.+XX %%   %%%% %   %    %  . %  ,  @XX+.+..X......$",
"O> 6>:>;:,;: 66XX,;:, ::><<:;:;>>:>,::,,,,;:>8>,#X,66 :;,:;>:>6w",
"@; ,:,><:,:,666+X,;:  ::>;;;;:<>8:>,::,:,::,>8> #X6666,:,:<>,:,>",
"@:,,: >2:6:446 +X,;:  ::>;;;;:<>8:>,::,:,::,>8> #O6 644:6:2> :,2",
"@>,6:,>;: 6:6 6+X,:,, ,::;<:;;<>8:>,::,, ::,>8> #X66 6:6 :;>,:6>",
"O> 6:,>:: ,6,, XX,:,,64::;;,;,<>>;>,::   :::>8; #X  ,,6, ::>,:6>",
"#w :: ::,6 : 4:XX,: ,6,::<: ; ;>>;>,::  6:4:>8> #+ :4 : 6,:: ::w",
"O> ,:,::,666 66+X,: 6 ,::;>,;,:>>:>::: 6,:: :8> #X666 666,::,:,w",
"@> ,:,::, 6466 XX,, , ,:,:;,;,:>>:>, :  ,:,::>>,OX  6646 ,::,:,w",
"O>  ,:::,66: .6XX,:   ,:::>::,:;>;>,,: 6,:, :>>,@X 6. :66,:::, ;",
"@; : :::,,666.6+X,6,, ,:,:::: ;;>;:,:: :,:  ,:8,#.66.666,,::: :>",
"@:, ::,:,6 6 . XX,:,, ,4:;:, ,<>>;:,::,6,:,6>:8,O.  . 6 6,:,:: ;",
"@>,::,,:,6664 .XX6 4,,,::::,6:8:>;> :: : ,,,::>6O. . 4666,:,,::>",
"O> ,:,,:,,:6   XX :6 ,6:::::6,>:>;>,;, 6  ,6::> @X    6:,,:,,:,;",
"#w :, ,:, 66 6 +X : ,, :::>:,,:,><>,:  6  : ,:, #X6 6 66 ,:, ,:;",
"O> ,, ,:,    6.+X  ,,,:,,,;: ,: :2> :  6  , ,,> #X6.6    ,:, ,,;",
"@>    ,:,  46. +X 6,6,:  :>6,6:,,;>,,:  6 , >,: OX6 .64  ,:,   w",
"O> ,  ,:,.6: .6+X66,,>:,,:::66:,:8>,,6,,  ,::,>6@X46. :6.,:,  ,;",
"@; o 6,,,  : 46XX64,,>:: 6>4 :: :>:, : 4:  6::>6#. 64 :  ,,,6 o>",
"@:,666,,   6646+X  ,,>::6 8: ,:, ::,66 666 6>:> O.66466   ,,666;",
"@>,4. ,,  o6  6+X  ,,>::6:: ,,:,,:: 6466    >:> O.66  6o  ,, .4>",
"O> 6  ,,  66 66OX  ,, :,6,,66 ,:::: 6: .6   >:> @X.66 66  ,,  6;",
"#w :  ,  666666+X  ,  :,4>4 4: :::,,666.66 .>:: #X6666666  ,  :;",
"O> 6  ,,   4 66OX4 6 6::,:66: :: :,6 6 .    :,>4#X.66 4   ,,  6;",
"@> 66  ,  66 66+X46 6:4:,: 6 ::,,,,6664 .   :,>4XX666 66  ,  66;",
"@>,  ,     66 6+X4 6 :4,:    ,:,, ,,:6     4 ,:4XX66 66     ,  >",
"@>,4 .,  . 6666OX4 . :4::66 6:, ,:, 66       ,,4XX.6666 .  ,. 4;",
"@w,   ,    6666+X46  464:,6  ,, ,:,     .6 6 ,:4X+66666    ,    ",
"Ow, 6  , . 666.+X:646.64:    6, ,:,  46  6 6 ,>:++6.666 . ,  6 w",
"#>,6.6 ,   . 66+X: 46 44666   , ,:6.6:  6    ,::OX666 .   , 6.62",
"@>,66  , 6 664 OX4  6. 6::666o, ,,   :  6  6 ,:4XX. 466 6 ,  66w",
"@>,6     .o66 6+X6 66  646 6 6, ,,6  66 6  6 ,,6XX46 66o.     6;",
"@>,66  ,  66 66+X6. 6. :466664, , 6 o6     6 ,:6XX666 66  ,  66w",
"O>   ,     66 6+X4. 66 : 66666, ,6  66 6   4.,:4+X66 66     ,  w",
"@; 4 .,  . 6666OX . 66.6 6:66:, ,  66666.    ,: XX.6666 .  ,. 4>",
"@:,   ,    6666+X6. 66o6 46 46, ,6   4 64  6 ,:6XO66666    ,   2",
"@>, 6  , . 666.+X6. 66 4     6, ,6  66 666 .,,:6XX6.666 . ,  6 >",
"O> 6.6 ,   . 66+X . 6  4  4   , ,6o  66 64 6: : +X666 .   , 6.6>",
"#w 66  , 6 664 OX6.66 o      4, ,6.. 66666  , :6O+. 466 6 ,  66w",
"O> 6     .o66 6+X6  6 .6  66    ,6   6666  6  :6+X46 66o.     6w",
"@> 6   :   46. +X46 .6.6  :66   ,66. 66666 6  :4XX6 .64   :   6w",
"X;<<<99-92<9<2;,O4.   .   :.66, ,6   . 66. 6  :4X.;w299*2<9<<<<<",
"O9   ,:,,:,,:6      6666   . 6, ,6 6 664 .66  :    4 ,:, 4 6 , ;",
"O;6 6:, ,:, 66 6 6. 64  4    6  ,  .o66 646   :      ,,,   . , ;",
"O96  ,, ,:,    6.66 6.64:    6, ,:,  46  6 6 ,> .6 6 ,:,. 6  4 <",
"O9      ,:,  46. 6    446 6   ,  :6.6:  6    ,:  6 6 ,>, .646. <",
"O96  ,  ,:,.6: .64  .. 6: 666o,6 ,   :  6  6 ,: 6    ,:  . 4   <",
"O9666o 6,,,  : 46  .o  64  6 6,66,6  66 6  6 ,, 6  6 ,: 6.  .. <",
"O9 6 666,,   66466.... :4 6664,   6 o6     6 ,: 6  6 ,, 66 6o. <",
"O96664. ,,  o6  66...o :6 6666, :6  66 6   4.,:    6 ,: 6 .66. 9",
"O;6666  ,,  66 66..6 =.66 :66:, 6  66666.    ,:6   4.,: ..66.. 9",
"O;:66:  ,  6666666...oo64 6 46, 66   4 64  6 ,,6.    ,:  .666..<",
"O;6 46  ,,   4 66..o.. 44    6, 66  66 666 .,,,64  6 ,: ..666..;",
"O;   66  ,  66 666.o.o446 6   ,  :6.6:  6     ,666 .,,:  .66...;",
"O;4    ,     66 66.. . 6: 666o,6 ,   :  6     , 64 6: : ..6o6..<",
"O;   4 .,  . 6666.  66 64  6 6,66,6  66 6     ,666  , : .66.6..;",
"O;66    ,    666666. . :4 6664,   6 o6       .$66  6  : .  66..;",
"&.@O@@#@@#@#OO@#o66 6. :6 6666, :6  66 6     666o#O@OO#@#@@#@@O.",
"#.X+XXXOXO++++++X6 6  .66 :66:, 6  66666.     44XX++++++OXOXXX+.",
"@:,6...     6 o+X646 oo64 6 46, 66   4 64     46XO6o 6     ...62",
"@>,    6666  6 XX6  .6 44    6, 66  66 666 6 66 XX,    6.666666>",
"O> , . 66666 6 XX66    46 4   ,6,6o  66 64 4  , +X , . 6.6 6666>",
"#w ,   . 66. 6 XX   6  .. .. . 66  . ......6  , O+ ,   ..  66.6w",
"O> , 6 664 .66 XX6     .o66 646 6   6 . .       +X , 6 666 66. w",
"@>   .o66 646  XX   .  ..  6666. 6  6.. .  6 .  XX   .o6 6 6   w",
"O>.  ..  6666. XX6  .66. .46 6  46      .    .  +X.  ..  66666o>",
"@>.  . .46 6   XX6,66, .666666  66    . .     . XX.  . ..66 6. w",
"@> . .666666   XX6, .66   6 o66 6   6 . .  ...  XX . .66 6 6   w",
"#:.     6 o66 .XX6, 666   6 .   6 .   ....  .. .OO.     6646 o w",
"@:. . . 6 .    OX. .66   6     o     o ...  ....XO. . . .6  .66>",
"@:....       o OX....6 . 66  . .6  . ....... .. XO....   66    >",
"&:XXXXXXXXXXXXXXXXXXXXXXXXXXXXXXXXXXXXXXXXXXXXXXXXXXXXXXXXXXXXX,",
"6666 6:4.444$$$$$.o.66$.6$$6.6  6666 6:4.444$$$$$.o.66$.6$$6.6  ",
"557<<77:47<7444:7:4:47::57<<<<<<<<11<77:47<7444:7:4:47::57<<<<<<",
"<;;<<<<;51<<<<<98<;;;;<9<;;<<<;;<;;<<<<;51<<<<<98<;;;;<9<;;<<<;;",
";:,;;;; ;;;28;;,;;;;> ;9;; ;:>88;:,;;;; ;;:::;:,;;;;, ;9;;:;: ;;",
":,,;;;:,:;;;;:;::>;>>,:;:, ;:>88>>,;;;:,:; ,::,:>;;; ,:;:,:;: ::",
": :;;:, ::><<:;:;>>:>,::,,,;:>88>>:;;:, :: ,::::;>;:,,::,,,;: ,:",
": ,;;:  ::>;;;;:<>8:>,::,:,:,>88>>,;;: ,:: ,:;::;8;:,6::,:::, ,:",
": :: 4,,,::::,6:8:>;> :: : ,,::8>>:: 4,  ,  ,,6:>>>;: ::6:,6,  :",
": :: 4,,,::::,6:8:>;> :: : ,,::8>>:: 4,  ,  ,,6:>>>;: ::6:,6,  :",
",:,::6 ,6:::::6,>:>;>,;, 6 ,6::8>,,::6   ,  ,:66>:>;:,;: 6,66  ,",
"46,:: ,, :::>:,,:,><>,:  6 : ,:8,,::: ,  ,  ,:,,:,><:,:,666:6   ",
"46,, ,,,:,,,;: ,: :2> :  6 , ,,8>,:, ,,  ,  ,: ,: >2:6:44666.   ",
"4:,,6,6,:  :>6,6:,,;>,,:  6, >,8:,, 6,,  66 ,6,6:,>;: 6:6 66,   ",
"6 ,,6,,>:,,:::66:,:8>,,6,, ,::,8>,, 6,,     ,:66:,>:: ,6,, 6:,  ",
".6:,4,,>:: 6>4 :: :>:, : 4: 6::8>:: 4,,   66,4 :: ::,6 : 4  ,, .",
" 6:: ,,>::6 8: ,:, ::,66 66 6>:8>::  ,,   6 ,: ,:,::,666 66 6:  ",
" 6:, ,,>::6:: ,,:,,:: 6466   >::>::  ,,   6,: ,,:,::, 6466  4:  ",
"66:, ,, :,6,,66 ,:::: 6: .6  >::>::  ,4  66,666 ,:::,66: . 46, 6",
" 6,  ,  :,4>4 4: :::,,666.6 .>::::,  ,   64,4 4: :::,,666.64.6  ",
"6 ,6 6 6::,:66: :: :,6 6 .   :,,>,,6 6 6   ,66: ::,:,6 6 .  66 6",
".6:,6 6:4:,: 6 ::,,,,6664 .  :,,>,:,6 6,   , 6 ::,,:,6664  6 6 .",
"6.64 6 :4,:    ,:,, ,,:6    4 ,,:, 4 6 ,       ,:,,:,,:6   446 6",
" .   . :4::66 6:, ,:, 66      ,,,,   . ,   66 6:, ,:, 66 664 66 ",
"XXXXXXXXXXXXXXXXXXXXXXXXXXXXXXXXXXXXXXXXXXXXXXXXXXXXXXXXXXXXXXXX"
};
