/* XPM */
static char *BRONZE3[] = {
/* columns rows colors chars-per-pixel */
"64 128 29 1 ",
"  c #332B13",
". c #2B230F",
"X c #1F170B",
"o c #13230B",
"O c #170F07",
"+ c #131313",
"@ c #1B1B1B",
"# c #0B0B0B",
"$ c #232323",
"% c #53573B",
"& c #675333",
"* c #070707",
"= c #4F3B23",
"- c #5F4B37",
"; c #3F2F17",
": c #43331B",
"> c #574333",
", c #4B371B",
"< c #533F2F",
"1 c #67533F",
"2 c #2F2F2F",
"3 c gray28",
"4 c #272727",
"5 c gray23",
"6 c #533F1F",
"7 c #5B472B",
"8 c #6F5743",
"9 c #5F4323",
"0 c #373F27",
/* pixels */
"335>>55:25>5222:5:2:25::35>>>>>>>>-->55:25>5222:5:2:25::35>>>>>:",
">==>>>>=3->>>>>76>====>7>==>>>==>==>>>>=3->>>>>76>====>7>==>>>=:",
"::::=:===>==<,;,::,:6:=<,,:=::== ::=:===>=====;=::=:::>:====:;::",
"::::::=>>=<<<: ::::::===,,,=: ::::,::=>=>>==>= ::::::==:===>:;::",
"::::::=77>>>=:;: :,:====<,<=  =,:,>::=7>>>====;: :=:===:==>>, ::",
"::::::=77=>>=::: ::;:=>=<,<,,;>=::,::=7==>=>=::: ::::==:>=>1,4::",
"::::::=77>>>>= ;:::::>>><=<=;:,,:::;:=7>>>=>>= ;:::::>>=====,;::",
"::::2;=77->>>:,;::>::>>><=<=:,;:::;2:=7-->=>>: ;::=::>>====>,2::",
":::::;>>>-=<>=, ::::=>>->>>=,:;:::;;:=3-->=>>>  ::::=>-><<>>,:;:",
":::::,<>>>>>>=, :::;=>>->>>=,,:::;2::=>->>>>>>; :::,>>-><<>-, ;:",
":::::;=>>-=<>=, ::::=>-->>>=,:;:::;;:=3-->=>>>  ::::=>-><<>>,;::",
":::::,=>>>>>>=, :::;>1-->>>=,,:::;2::=>->>>->>; :::,>>-><>>>,;;:",
":5:;;,=>>>-->=, : :;6--->>->6,:::5;=:==----->3; : :,9>-><>->, 4:",
"::2;;,=>->-->=;;:::;=--->-->,;::::20:=31---->= ::::,3>--<->>,4 ;",
":::;;,=>->-->=4; ::;<->---->,;;,:::=:=-1----<=;; ::,>>->>>>>,2:;",
":::;;;=>->-->= ::::;<->---->,;4=,::::=-1---->= ::::,>>->>>->,4;;",
"::52; =>->---= ;::;:<->>---< ;;;::=::=>11----> ;:4;:>>>>>>->,:;:",
":::::,=>->>>-=, :::;>1----1>,,:::;2::=>11-->->; :::,>-->>>>>, ;:",
":5:;;,==----1=, : :;61--1-->6,:::5;=:==11---13; : :,9-->>>>>,;::",
"::2;;,=3-1--1=;;:::;31--11->,;::::20:=31----1= ::::,3--->->>,;;:",
":::;;,=--1--<=4; ::;<8--11->,;;,:::=:=-11---<=;; ::,>--->->>, 4:",
":::;;;=--1-->= ::::;<1-1111>6;4=,::::=-11--->= ::::,>-->>>->,4 ;",
"::52; =------> ;::;:<>>>>>>< ;;;::=::=>------> ;:4;:>->><<->,2:;",
":::2: :  :   :4:: :: :    :  ;4;:=5: : :     :4:4 :: :    :  4;;",
":::::: .. ... 2;  : ........ 2;=:==:: . o.... 2;44: ........ 24:",
"::2:2:....ooo.4: ;44 .ooooo. 4::::22:....oooo.4:2444 .ooooo. 42:",
":2::2: ..... 4;2;4 4    44  2222::22:        42224 4   444  22:2",
":2:224       : 4; : ;;;;  ;;:42:::224;;;;;;;:: 444:44;;   ;;:42:",
":2:224       : 4 ;  ;;;;;;;;: 22:2222;;;;;;;:: 4444 4::;;;::: 22",
"2::224       : 42 ;4;;;;;;;;;;4 ::422;;;;;;;:: 42 444::;;;::;44 ",
"::424        44 44      ;;  4o4.::244 4      44 44     ;;;  4o .",
"oo...........ooo.o.oooo.......oooo...........ooo.o.oooo......ooo",
"#.X......X..@.@X.X..@.@X.@..X.....X@.@...@..X.....X@.@..X......$",
"+, 4,:,=:;=: 44 :;=: 44:=:,6=:;==== ==:::=:;====; ;44 :=;:=,:,40",
"O= ;:;,>:;:;444 :;:;444:=:,6,,;===:;:= ;::;:,=== ;4444;:;:>,;:;,",
"O:;;: ,<:4:224 ;:4:224 ;=:,6,,:==:; :: ;::::=,=:;;4 422:4:<, :;<",
"O,;4:;,=: 4:4 4;: 4:4 4::;,6,,;==: ;:: ;:=::=6=:;444 4:4 :=,;:4,",
"+, 4:;,:: ;4;;  : ;4;; ::;,6,,::::;::: ;::::=6,:;4  ;;4; ::,;:4,",
"#0 :: ::;4 : 2: ;4 : 2::::,6=,;::;:;;: ;;;::=6,=;; :2 : 4;:: ::0",
"+, ;:;::;444 44 ;444 44:2:,6,,:;: :;;; ;; ::=,,= ;444 444;::;:;0",
"O, ;:;::; 4244  ; 4244 :: :6,,::: ;  ;  ;;:;,,,: :  4424 ;::;:;0",
"+,  ;:::;44: .4 ;44: .4:;::,,,::; :  ;  ;;;;,,,: ; 4. :44;:::; =",
"O= : :::;;444.4 ;;444.4:; :,,, ;::   ;  ;:;;,=,=:;44.444;;::: :,",
"O:; ::;:;4 4 . ;;4 4 . :  ;:6,:: 4:  ;  ;:: ,=,=:;  . 4 4;:;:: =",
"O,;::;;:;4442 .;;4442 .:;4,:6,:::;:  ;  ;; ;>,,=:; . 2444;:;;::,",
"+, ;:;;:;;:4    ;;:4   ;;;::,,:: 2;  ;  ;;4:,,,=:     4:;;:;;:;=",
"#0 :; ;:; 44 4  ; 44 4  ;4::,;;::4   ;  ;:44,:,=:;4 4 44 ;:; ;:=",
"+, ;; ;:;    4. ;    4. : ;:;;::: ;  ;  ;:;;:;,>:;4.4    ;:; ;;=",
"O,    ;:;  24.     ;:;  ; ;;,;:; ;;  ;  ;: ;: ,<:44 .42  ;:;   0",
"+, ;  ;:;.4: .4 ;  ;:;. ; ,;:;; 4;;  44 ;4;4:;,=: 24. :4.;:;  ;=",
"O= o 4;;;  : 24 o 4;;;  ;::;,;; 4;;     ;:44:;,::  42 :  ;;;4 o,",
"O:;444;;   4424;444;;    4::,:: 2;;   44;2 :: ::;444244   ;;444=",
"O,;2. ;;  o4  4;2. ;;  4 4,:,::  ;;   4 ;: ;:;::;444  4o  ;; .2,",
"+, 4  ;;  44 44 4  ;;     ,:,::  ;;   4;: ;;:;::; .44 44  ;;  4=",
"#0 :  ;  444444 :  ;  4   ,:,::  ;2  44;444 ;:::;44444444  ;  :=",
"+, 4  ;;   2 44 4  ;;  4 .,:::;  ;   42;2 2: :::;;.44 2   ;;  4=",
"O, 44  ;  44 44 44  ;     :;,;;4 4 4   ;44: ::;:;4444 44  ;  44=",
"O,;  ;     44 4;  ;       :;,;:;4 4;   ; 4 ::;;:;444 44     ;  ,",
"O,;2 .;  . 4444;2 .;  .  2 ;:; 2 4 ;       ;:;;:;;.4444 .  ;. 2=",
"O0;   ;    4444;   ;       ;;;   . ;   44 4:; ;:; 44444    ;    ",
"+0; 4  ; . 444.; 4  ; .4 4 ;:;. 4  2 2 ;4  ;; ;:; 4.444 . ;  4 0",
"#,;4.4 ;   . 44;4.4 ;  4 4 ;,; .424. 2        ;:; 444 .   ; 4.4<",
"O,;44  ; 4 442 ;44  ; 4    ;:  . 2   2424  ;  ;:;.. 244 4 ;  440",
"O,;4     .o44 4;4     .  4 ;: 4.  .. 2::444o 4;;; 24 44o.     4=",
"O,;44  ;  44 44;44  ;    4 ;; 44 4o. 222 4 444;;  444 44  ;  440",
"+,   ;     44 4   ;      4 ;: 4 .44. :424442. ;;  44 44     ;  0",
"O= 2 .;  . 4444 2 .;  .  2.;: ..44.. :444444  ;;  .4444 .  ;. 2,",
"O:;   ;    4444;   ;       ;:  .444..244:44:  ;  444444    ;   <",
"O,; 4  ; . 444.; 4  ; .  4 ;: ..444..4444 24  ;;  4.444 . ;  4 ,",
"+, 4.4 ;   . 44 4.4 ;  4 .;;:  .44...444   44  ;  444 .   ; 4.4,",
"#0 44  ; 4 442  44  ; 42 4: : ..4o4..2442    ;    . 244 4 ;  440",
"+, 4     .o44 4 4     .4  ; : .44.4.. 44   2 .;  .24 44o.     40",
"O, 4   :   24.  4   :    4  : .  44..44444    ;   4 .42   :   40",
"X=>>>77&7<>7><=>>>77&7<><77%<>7>>>=0<77%<77%<>7>>>=0<77%<>7>>>>>",
"+7   ;:;;:;;:4    ;:;;:; ;:; 2 4 ; 2 ;:; ;:; 2 4 ; 2 ;:; 2 4 ; =",
"+=4 4:; ;:; 44 4 4:; ;:; ;;;   . ;   ;;; ;;;   . ;   ;;;   . ; =",
"+74  ;; ;:;    4  ;; ;:; ;:;. 4  2 4 ;:; ;:;. 4  2 4 ;:;. 4  2 >",
"+7      ;:;  24      ;:; ;,; .424. 4 ;,; ;,; .424. 4 ;,; .424. >",
"+74  ;  ;:;.4: 4  ;  ;:; ;:  . 2     ;:  ;:  . 2     ;:  . 2   >",
"+7444o 4;;;  : 444o 4;;; ;: 4.  .. 4 ;:  ;: 4.  .. 4 ;: 4.  .. >",
"+7 4 444;;   44 4 444;;  ;; 44 4o. 4 ;;  ;; 44 4o. 4 ;; 44 4o. >",
"+74442. ;;  o4 4442. ;;  ;: 4 .44. 4 ;:  ;: 4 .44. 4 ;: 4 .44. 7",
"+=4444  ;;  44 4444  ;; .;: ..44.. 2.;: .;: ..44.. 2.;: ..44.. 7",
"+=:44:  ;  4444:44:  ;   ;:  .444.   ;:  ;:  .444.   ;:  .444..>",
"+=4 24  ;;   2 4 24  ;;  ;: ..444. 4 ;:  ;: ..444. 4 ;: ..444..=",
"+=   44  ;  44    44  ; ;;:  .44.. .;;: ;;:  .44.. .;;:  .44...=",
"+=2    ;     442    ;   : : ..4o4. 4: : : : ..4o4. 4: : ..4o4..>",
"+=   2 .;  . 44   2 .;  ; : .44.4.  ; : ; : .44.4.  ; : .44.4..=",
"+=44    ;    4444    ;    : .  44. 4  :   : .  44. 4  : .  44..=",
"*.O+OO#OO#O#++OO+OO#OO#O++#O#OO#OO+O++#O++#O#OO#OO+O++#O#OO#OO+.",
"#.X@XXX+X+@@@@@X@XXX+X+@@@@@+X+XXX@@@@@@@@@@+X+XXX@@@@@@+X+XXX@.",
"O:;4...     4 o;4...     4     ...4o 4   4     ...4o 4     ...4<",
"O,;    4444  4 ;    4444   4.44444;    4   4.44444;    4.444444,",
"+, ; . 44444 4  ; . 4444 . 4.4 444 ; . 4 . 4.4 444 ; . 4.4 4444,",
"#0 ;   . 44. 4  ;   . 44   ..  44. ;   .   ..  44. ;   ..  44.40",
"+, ; 4 442 .44  ; 4 442  4 444 44. ; 4 4 4 444 44. ; 4 444 44. 0",
"O,   .o44 424     .o44 4     .o4     .o4     .o4     .o4 4 4   0",
"+,.  ..  4444. .  ..  4444.  .. 44.  .. 44.  .. 44.  ..  44444o,",
"O,.  . .24 4   .  . .24 4..  . .4..  . .4..  . .4..  . ..44 4. 0",
"O, . .444444    . .44444   . .44   . .44   . .44   . .44 4 4   0",
"#:.     4 o44 ..     4 o o.      o.      o.      o.     4424 o 0",
"O:. . . 4 .    . . . 4 ..4. . . .4. . . .4. . . .4. . . .4  .44,",
"O:....       o ....       ....    ....    ....    ....   44    ,",
"*:XXXXXXXXXXXXXXXXXXXXXXXXXXXXXXXXXXXXXXXXXXXXXXXXXXXXXXXXXXXXX;",
"4444 4:2.222$$$$$.o.44$.4$$4.4  4444 4:2$.o.44$.$.o.44$.4$$4.4  ",
"335>>55:25>5222:5:2:25::35>>>>>>>>-->55:5:2:25::5:2:25::35>>>>>>",
">==>>>>=3->>>>>76>====>7>==>>>==>==>>>>=6>====>76>====>7>==>>>==",
"=:;==== ===<6==;====, =7== =:,66=:;==== ====; =7====; =7==:=: ==",
":;;===:;:====:=::,=,,;:=:; =:,66,,;===:;,=== ;:=,=== ;:=:;:=: ::",
": :==:; ::,>>:=:=,,:,;::;;;=:,66,,:==:; =,=:;;::=,=:;;::;;;=: ;:",
": ;==:  ::,====:>,6:,;::;:;:;,66,,;==: ;=6=:;4::=6=:;4::;:::; ;:",
": :: 2;;;::::;4:6:,=, :: : ;;::6,,:: 2; ,,,=: ::,,,=: ::4:;4;  :",
": :: 2;;;::::;4:6:,=, :: : ;;::6,,:: 2; ,,,=: ::,,,=: ::4:;4;  :",
";:;::4 ;4:::::4;,:,=,;=; 4 ;4::6,;;::4  ,:,=:;=:,:,=:;=: 4;44  ;",
"24;:: ;; :::,:;;:;,>,;:  4 : ;:6;;::: ; :;,>:;:;:;,>:;:;444:4   ",
"24;; ;;;:;;;=: ;: :<, :  4 ; ;;6,;:; ;; : ,<:4:2: ,<:4:22444.   ",
"2:;;4;4;:  :,4;4:;;=,;;:  4; ,;6:;; 4;; :;,=: 4::;,=: 4:4 44;   ",
"4 ;;4;;,:;;:::44:;:6,;;4;; ;::;6,;; 4;; :;,:: ;4:;,:: ;4;; 4:;  ",
".4:;2;;,:: 4,2 :: :,:; : 2: 4::6,:: 2;; : ::;4 :: ::;4 : 2  ;; .",
" 4:: ;;,::4 6: ;:; ::;44 44 4,:6,::  ;; :;::;444:;::;444 44 4:  ",
" 4:; ;;,::4:: ;;:;;:: 4244   ,::,::  ;;   4;: ;;:;::; 4244  2:  ",
"44:; ;; :;4;;44 ;:::: 4: .4  ,::,::  ;2  44;444 ;:::;44: . 24; 4",
" 4;  ;  :;2,2 2: :::;;444.4 .,::::;  ;   42;2 2: :::;;444.42.4  ",
"4 ;4 4 4::;:44: :: :;4 4 .   :;;,;;4 4 4   ;44: ::;:;4 4 .  44 4",
".4:;4 4:2:;: 4 ::;;;;4442 .  :;;,;:;4 4;   ; 4 ::;;:;4442  4 4 .",
"4.42 4 :2;:    ;:;; ;;:4    2 ;;:; 2 4 ;       ;:;;:;;:4   224 4",
" .   . :2::44 4:; ;:; 44      ;;;;   . ;   44 4:; ;:; 44 442 44 ",
"XXXXXXXXXXXXXXXXXXXXXXXXXXXXXXXXXXXXXXXXXXXXXXXXXXXXXXXXXXXXXXXX"
};
