/* XPM */
static char *BRONZE4[] = {
/* columns rows colors chars-per-pixel */
"64 128 42 1 ",
"  c #43331B",
". c #6B4727",
"X c #FFFFD7",
"o c #FFFFB3",
"O c #372313",
"+ c #FFFF47",
"@ c #FFFF6B",
"# c #3F2B1B",
"$ c #FFFF8F",
"% c #2F1B0B",
"& c #171F07",
"* c black",
"= c #232B0F",
"- c #332B13",
"; c #3F2F17",
": c #272727",
"> c #2F2F2F",
", c #4B371B",
"< c #4F3B23",
"1 c #5F4B37",
"2 c #2B230F",
"3 c #574333",
"4 c #533F2F",
"5 c #533F1F",
"6 c #373F27",
"7 c gray28",
"8 c #67533F",
"9 c gray23",
"0 c #1F170B",
"q c #4F3B2B",
"w c #2F371F",
"e c #1B1B1B",
"r c #232323",
"t c #13230B",
"y c #170F07",
"u c #5B472B",
"i c #131313",
"p c #3F472B",
"a c #373737",
"s c #0B0B0B",
"d c #5F4323",
"f c #6F5743",
/* pixels */
"7793399 >939>>> 9 > >9  793333333311399 >939>>> 9 > >9  7933333 ",
"3<<3333<7133333u53<<<<3u3<<333<<3<<3333<7133333u53<<<<3u3<<333< ",
"    < <<<3<<4,;,  , 5 <4,, <  <<-  < <<<3<<<<<;<  <   3 <<<< ;  ",
"      <33<444 -      <<<,,,< -    ,  <3<33<<3<-      << <<<3 ;  ",
"      <uu333< ; - , <<<<4,4<--<, ,3  <u333<<<<; - < <<< <<33,-  ",
"      <uu<33<   -  ; <3<4,4,,;3<  ,  <u<<3<3<   -    << 3<38,:  ",
"      <uu3333<-;     3334<4<; ,,   ; <u333<33<-;     33<<<<<,;  ",
"    >;<uu1333 ,;  3  3334<4< ,;   ;> <u113<33 -;  <  33<<<<3,>  ",
"     ;3331<43<,-    <331333<, ;   ;; <7113<333--    <3134433, ; ",
"     ,4333333<,-   ;<331333<,,   ;>  <31333333;-   ,33134431,-; ",
"     ;<331<43<,-    <311333<, ;   ;; <7113<333--    <3134433,;  ",
"     ,<333333<,-   ;3811333<,,   ;>  <31333133;-   ,33134333,;; ",
" 9 ;;,<333113<,- - ;511133135,   9;< <<1111137;- - ,d3134313,-: ",
"  >;;,<313113<;;   ;<1113113,;    >6 <7811113<-    ,73114133,:-;",
"   ;;,<313113<:;-  ;41311113,;;,   < <1811114<;;-  ,33133333,> ;",
"   ;;;<313113<-    ;41311113,;:<,    <1811113<-    ,33133313,:;;",
"  9>;-<313111<-;  ; 41331114-;;;  <  <38811113-; :; 33333313, ; ",
"     ,<313331<,-   ;38111183,,   ;>  <38811313;-   ,31133333,-; ",
" 9 ;;,<<11118<,- - ;581181135,   9;< <<8811187;- - ,d1133333,;  ",
"  >;;,<718118<;;   ;78118813,;    >6 <7811118<-    ,71113133,;; ",
"   ;;,<118114<:;-  ;4f118813,;;,   < <1881114<;;-  ,31113133,-: ",
"   ;;;<118113<-    ;481888835;:<,    <1881113<-    ,31133313,:-;",
"  9>;-<1111113-;  ; 43333334-;;;  <  <31111113-; :; 31334413,> ;",
"   > - -- --- :  -  - ---- --;:; <9 - - ----- : :-  - ---- --:;;",
"      -22-222->;-- -22222222->;< <<  -2-t2222->;:: -22222222->: ",
"  > > 2222ttt2: -;::-2ttttt2-:    >> 2222tttt2: >:::-2ttttt2-:> ",
" >  > -22222-:;>;:-:----::-->>>>  >> --------:>>>:-:---:::-->> >",
" > >>:------- -:;- -;;;;--;; :>   >>:;;;;;;;  -::: ::;;---;; :> ",
" > >>:------- -:-;--;;;;;;;; ->> >>>>;;;;;;;  -::::-:  ;;;   ->>",
">  >>:------- -:>-;:;;;;;;;;;;:-  :>>;;;;;;;  -:>-:::  ;;;  ;::-",
"  :>:--------::-::------;;--:t:2  >::-:------::-::-----;;;--:t-2",
"tt22222222222ttt2t2tttt2222222tttt22222222222ttt2t2tttt222222ttt",
"e:::-: >2>>>rrrrr2t2::r2:rr:2:--::::-: >2>>>rrrrr2t2::r22>>>rrrr",
"2311399 >939>>> 9 > >9  793333337793399 >939>>> 9 > >9  >939>>> ",
"2q<3333<7133333u53<<<<3u3<<333<<3<<3333<7133333u53<<<<3u71333331",
"06;<<<<-<<   < ;<<<<;-<u<< < -<<< ;<<<<-<<<45<<;<<<<,-<u<<<45<<q",
"0<;<<< ; <-;  ; ,<<<-; < ; < -   ;;<<< ; <<<< <  ,<,,; < <<<< <4",
"0< << ;-  -;    <,< ;;  ;;;< -;  - << ;-  ,33 < <,, ,;    ,33 <4",
"0<;<< -;  -; <  <5< ;:  ;   ;-;  -;<< --  ,<<<< 3,5 ,;    ,<<<<4",
"0<  ->;--;--;;: ,,,< -  : ;:;--  -  ->;;;    ;: 5 ,<,-  ;    ;:4",
"0<  ->;--;--;;: ,,,< -  : ;:;--  -  ->;;;    ;: 5 ,<,-  ;    ;:4",
"06;  :---;--; ::, ,< ;< -:;::--;; ;  :-;:     :;, ,<,;<;:     :q",
"06   -;--;--; ;; ;,3 ; ;::: :--->:;  -;;-   , ;; ;,3,; --   , ;q",
"06 ;-;;--;--; -; -,4 : >>:::2--->:;;-;;; ;;;< -; - 4,- - ;;;< -q",
"06;-:;;--::-;:;: ;,< -: :-::;---> ;;:;:; -- ,:;: ;;<,;;  -- ,:;9",
"06;-:;;-----; :: ;,  -;:;;-: ;--:-;;:;;, ;;   :: ; 5,;;: ;;   :9",
"06 ->;;---::;>-  -  ;:- ->--;;-22: ;>;;,  -:,>-  - , ;-   -:,>-4",
"06 --;;---:-; -; ;  ;:::-::-: ---:  -;;,  :-5 -; ;-  ;::  :-5 -q",
"06 --;;---:; -;; ;  ;-:>::--> ---: ;-;;,  :  -;; ;;  -:>::---, 3",
"06 --;>--::;:::-;   ;:: -2->:;-::: ;-;;- ;:;;::-;    -: -2:--, 3",
"06;--;---:>;>-> -   ;;:::2:>2:---:;--;-- ;>,>-> -   ;;:::2:-2, 3",
"06;:-:-:---;:: -  ; ;:-:-2--::-::-;:-:-:  ; :: -  - ;:-:-2--- ;3",
"06 ;:-:;---;-:-  ;; ;:::>--:-:-22: ;:-: > ; -:-  ;;;;:::>-2-- ;3",
"06->-:-;-------; ;; ;; :--->>:-::2:>-:- >; ----; ;;-;; :---->-;3",
"06---2-;---::-: ;-; ;-::-::>-::--2---2- >  ::-: ;-; ;-::------;3",
"s00000000000000000000000000000000000000000000000000000000000000y",
"i:::-: >2>>>rrrrr2t2::r2:rr:2:--::::-: >2>>>rrrrr2t2::r22>>>rrrr",
"e793399 >939>>> 9 > >9  9>>>>>>>>>>>>>9 >939>>> 9 > >9  >939>>> ",
"2q<3333<7133333u53<<<<3u3<<333<<3<<3333<7133333u53<<<<3u71333331",
"06;<<<<-<<<45<<;<<<<,-<u<<-< ,55< ;<<<<-<<   < ;<<<<;-<u<<<45<<q",
"06;<<< ; <<<< <  ,<,,; < ;-< ,55,,;<<< ; <-;  ; ,<<<-; < <<<< <4",
"0w << ;-  ,33 < <,, ,;  ;;;< ,55,, << ;-  -;    <,< ;;    ,33 <4",
"0w;<< --  ,<<<< 3,5 ,;  ; ; ;,55,,;<< -;  -; <  <5< ;:    ,<<<<4",
"0w  ->;;;    ;: 5 ,<,-  - -;;  5,,  ->;--;--;;: ,,,< -  ;    ;:4",
"0w  ->;;;    ;: 5 ,<,-  - -;;  5,,  ->;--;--;;: ,,,< -  ;    ;:4",
"06;  :-;:     :;, ,<,;<;-:-;:  5,;;  :---;--; ::, ,< ;< :     :q",
"i>;  -;;-   , ;; ;,3,; --:- -; 5;;   -;--;--; ;; ;,3 ; ;-   , ;q",
"i>;;-;;; ;;;< -; - 4,- --:-;-;;5,; ;-;;--;--; -; -,4 : > ;;;< -q",
"i6;;:;:; -- ,:;: ;;<,;; --:;-,;5 ;;-:;;--::-;:;: ;,< -:  -- ,:;9",
"iw;;:;;, ;;   :: ; 5,;;:;;-;  ;5,;;-:;;-----; :: ;,  -;: ;;   :9",
"y> ;>;;,  -:,>-  - , ;- -> -:  5,  ->;;---::;>-  -  ;:-   -:,>-4",
"y>  -;;,  :-5 -; ;-  ;::-::-:, 5,  --;;---:-; -; ;  ;:::  :-5 -q",
"y> ;-;;,  :  -;; ;;  -:>::---,  ,  --;;---:; -;; ;  ;-:>  :  -;q",
"e> ;-;;- ;:;;::-;    -: -2:--,  ,  --;>--::;:::-;   ;::  ;:;;::p",
"0>;--;-- ;>,>-> -   ;;:::2:-2,    ;--;---:>;>-> -   ;;:: ;>,>->4",
"ew;:-:-:  ; :: -  - ;:-:-2--- ;;,;;:-:-:---;:: -  ; ;:-:  ; :: p",
"0> ;:-: > ; -:-  ;;;;:::>-2-- ;;,; ;:-:;---;-:-  ;; ;:::> ; -:-4",
"ew:>-:- >; ----; ;;-;; :---->-;; ;->-:-;-------; ;; ;; :>; ----q",
"0w---2- >  ::-: ;-; ;-::------;;;;---2-;---::-: ;-; ;-::>  ::-:4",
"s000000000000000000000000000000000000000000000000000000000000000",
"y>>>rrrrr2t2::r22>>>rrrrrrrrar7>rrrrar7>>>>>rrrrr>r>rrr>:rr:2:--",
"i939>>> 9 > >9  >939>>> 3311399 7793399 >939>>> 9 > >9  79333333",
"e133333u53<<<<3u7133333u3<<3333<3<<3333<7133333u53<<<<3u3<<333<3",
"0q<45<<;<<<<,-<u<<   < ;< ;<<<<-< ;<<<<-<<<45<<;<<<<,-<u<< < -<3",
"0q<<< <  ,<,,; < <-;  ; ,,;<<< ; ;;<<< ; <<<< <  ,<,,; < ; < - 4",
"06,33 < <,, ,;    -;    ,, << ;- - << ;-  ,33 < <,, ,;  ;;;< -;4",
"06,<<<< 3,5 ,;    -; <  ,,;<< -; -;<< --  ,<<<< 3,5 ,;  ;   ;-;4",
"06   ;: 5 ,<,-  -;--;;: ,,  ->;- -  ->;;;    ;: 5 ,<,-  : ;:;--4",
"06   ;: 5 ,<,-  -;--;;: ,,  ->;- -  ->;;;    ;: 5 ,<,-  : ;:;--4",
"i6    :;, ,<,;<;-;--; ::,;;  :--; ;  :-;:     :;, ,<,;<;-:;::--q",
"y6  , ;; ;,3,; --;--; ;;;;   -;->:;  -;;-   , ;; ;,3,; -::: :--p",
"06;;< -; - 4,- --;--; -;,; ;-;;->:;;-;;; ;;;< -; - 4,- ->:::2--p",
"0w- ,:;: ;;<,;; -::-;:;: ;;-:;;-> ;;:;:; -- ,:;: ;;<,;; :-::;--p",
"06;   :: ; 5,;;:----; ::,;;-:;;-:-;;:;;, ;;   :: ; 5,;;:;;-: ;-p",
"06-:,>-  - , ;- --::;>- ,  ->;;-2: ;>;;,  -:,>-  - , ;- ->--;;-6",
"06:-5 -; ;-  ;::--:-; -;,  --;;--:  -;;,  :-5 -; ;-  ;::-::-: -p",
"06:  -;; ;;  -:>--:; -;;,  --;;--: ;-;;,  :  -;; ;;  -:>::--> -p",
"06:;;::-;    -: -::;:::-,  --;>-:: ;-;;- ;:;;::-;    -: -2->:;-9",
"06>,>-> -   ;;::-:>;>->   ;--;---:;--;-- ;>,>-> -   ;;:::2:>2:-p",
"06; :: -  - ;:-:---;:: -,;;:-:-::-;:-:-:  ; :: -  - ;:-:-2--::-9",
"i6; -:-  ;;;;:::---;-:- ,; ;:-:;2: ;:-: > ; -:-  ;;;;:::>--:-:-6",
"i6 ----; ;;-;; :-------; ;->-:-;:2:>-:- >; ----; ;;-;; :--->>:-9",
"i6 ::-: ;-; ;-::---::-: ;;---2-;-2---2- >  ::-: ;-; ;-::-::>-::p",
"s000000000000000000000000000000000000000000000000000000000000000",
"y>>>rrrrr2t2::r22>>>rrrrrrrrar7>rrrrar7>>>>>rrrrr>r>rrr>:rr:2:--",
"i939>>> 9 > >9  >939>>> 3311399 7793399 >939>>> 9 > >9  79333333",
"e133333u53<<<<3u7133333u3<<3333<3<<3333<7133333u53<<<<3u3<<333<3",
"0q<45<<;<<<<,-<u<<   < ;< ;<<<<-< ;<<<<-<<<45<<;<<<<,-<u<< < -<3",
"0q<<< <  ,<,,; < <-;  ; ,,;<<< ; ;;<<< ; <<<< <  ,<,,; < ; < - 4",
"06,33 < <,, ,;    -;    ,, << ;- - << ;-  ,33 < <,, ,;  ;;;< -;4",
"06,<<<< 3,5 ,;    -; <  ,,;<< -; -;<< --  ,<<<< 3,5 ,;  ;   ;-;4",
"06   ;: 5 ,<,-  -;--;;: ,,  ->;- -  ->;;;    ;: 5 ,<,-  : ;:;--4",
"06   ;: 5 ,<,-  -;--;;: ,,  ->;- -  ->;;;    ;: 5 ,<,-  : ;:;--4",
"i6; :: -  - ;:-:---;:: -,;;:-:-::-;:-:-:  ; :: -  - ;:-:-2--::-9",
"y6; -:-  ;;;;:::---;-:- ,; ;:-:;2: ;:-: > ; -:-  ;;;;:::>--:-:-6",
"06 ----; ;;-;; :-------; ;->-:-;:2:>-:- >; ----; ;;-;; :--->>:-9",
"06 ::-: ;-; ;-::---::-: ;;---2-;-2---2- >  ::-: ;-; ;-::-::>-::p",
"0000000000000000000000000000000000000000000000000000000000000000",
"OOOOOOOO--OOOw-OOOO#O;O-OOO#OO000#O-OOOwOOOOOw#O#OO220y02%#OOO-2",
"OO............................000O............................O2",
"OO.++$oooXXXoXXXXXXXoXXXo@@++.000O.++$oooXXXoXXXXXXXoXXXo@@++.#2",
"OO.++$oooXXXoXXXXXXXoXXXo@@++.000O.++$oooXXXoXXXXXXXoXXXo@@++.#2",
"OO.++$oooXXXoXXXXXXXoXXXo@@++.000#.++$oooXXXoXXXXXXXoXXXo@@++.O2",
"-O.++$ooooooooooooooooooo@@++.000O.++$ooooooooooooooooooo@@++.O2",
"OO............................0002............................O2",
"2%2222:222222220=%22222%22%%22000:222222-2%%22222=2200y00e2#O222",
"0000eee0000ee0000000e0000000000000e00e00ee00e000000000y*&&00e000",
"000000000000000yy0&&00000000000000y000000&0000000000yy**yyyyy000"
};
