/* XPM */
static char *BROVINE2[] = {
/* columns rows colors chars-per-pixel */
"128 64 151 2 ",
"   c #010101",
".  c #080603",
"X  c #0C0905",
"o  c #0A0C09",
"O  c #130F07",
"+  c #110E09",
"@  c #0F1504",
"#  c #0D1509",
"$  c #0F1C09",
"%  c #151505",
"&  c #1B1C07",
"*  c #15130B",
"=  c #1B150B",
"-  c #131D0E",
";  c #1B1B0C",
":  c #151515",
">  c #1A1712",
",  c #161D14",
"<  c #1D1C14",
"1  c #1A1B1A",
"2  c #241C0D",
"3  c #2D1C0C",
"4  c #311E0E",
"5  c #231D13",
"6  c #2A1E13",
"7  c #231E1A",
"8  c #13230B",
"9  c #1C230D",
"0  c #172311",
"q  c #1B2316",
"w  c #1D241A",
"e  c #1F2D1B",
"r  c #24240E",
"t  c #2B230F",
"y  c #21280F",
"u  c #242414",
"i  c #2C2513",
"p  c #242A14",
"a  c #2C2A15",
"s  c #23241B",
"d  c #2B261B",
"f  c #23291C",
"g  c #2C2A1C",
"h  c #322614",
"j  c #3A2716",
"k  c #342A15",
"l  c #3A2D16",
"z  c #32261A",
"x  c #342C1B",
"c  c #3C2D1B",
"v  c #23311F",
"b  c #3F3117",
"n  c #34321D",
"m  c #3D311D",
"M  c #252525",
"N  c #2A2721",
"B  c #252923",
"V  c #2D2A23",
"C  c #2C2C2C",
"Z  c #332C23",
"A  c #3A2E23",
"S  c #312E28",
"D  c #263422",
"F  c #2E3326",
"G  c #353122",
"H  c #3C3223",
"J  c #373F27",
"K  c #3F3C23",
"L  c #34322D",
"P  c #3B332A",
"I  c #373C2C",
"U  c #3D3B2A",
"Y  c #333332",
"T  c #3A3631",
"R  c #373932",
"E  c #3B3C33",
"W  c gray23",
"Q  c #412F1D",
"!  c #403017",
"~  c #43321E",
"^  c #49351E",
"/  c #40391F",
"(  c #4E3A1E",
")  c #563D1F",
"_  c #402F20",
"`  c #453322",
"'  c #4A3624",
"]  c #453925",
"[  c #4D3A25",
"{  c #43362B",
"}  c #453B2B",
"|  c #4E3B29",
" . c #513D25",
".. c #593F25",
"X. c #523E2B",
"o. c #443D34",
"O. c #4C3E31",
"+. c #3C432A",
"@. c #3D4133",
"#. c #3F413A",
"$. c #4F4027",
"%. c #46422B",
"&. c #4D422C",
"*. c #424A2F",
"=. c #554126",
"-. c #5B4125",
";. c #55412C",
":. c #5A452C",
">. c #5D492E",
",. c #424431",
"<. c #4E4232",
"1. c #444A35",
"2. c #424638",
"3. c #564231",
"4. c #5A4632",
"5. c #5E4933",
"6. c #564738",
"7. c #5F4A38",
"8. c #614425",
"9. c #6B4827",
"0. c #61452A",
"q. c #634B2D",
"w. c #6B4C2D",
"e. c #714F2E",
"r. c #6F512F",
"t. c #74512F",
"y. c #624D34",
"u. c #6C4E31",
"i. c #624E3A",
"p. c #6A4F38",
"a. c #655134",
"s. c #6C5235",
"d. c #66513B",
"f. c #6B543C",
"g. c #6F583D",
"h. c #735535",
"j. c #775837",
"k. c #725639",
"l. c #755C3E",
"z. c #7A5A38",
"x. c gray25",
"c. c #6C5642",
"v. c #6F5843",
"b. c #735B44",
"n. c #755E49",
"m. c #7A6242",
"M. c #766048",
"N. c #7A624D",
"B. c #7D6551",
"V. c #836B4A",
"C. c #816952",
/* pixels */
"q , , $ , s i ` i.a.s.s.] Q u w q g t t x u w q - , $ $ w w w w a ` 5.Q u - q , , q :.3.L w q w , 3.| z x i [ d.d.i k $ w w q w q , , $ , s i ` 7.a.k.s.' ~ p w , d i i x u w , , q $ $ w w w w k ' 5.Q u , , : - q :.3.H w w w , 3.[ h x i | d.d.h z - q s q w ",
"W #.x.x.R R { X.i. .=.a.d.X.m b H } E R O.| c &.X.[ c W W x.~ [ ;.' _ d T W } m k ~ q.X.o.| ] l ` ] X.T Z | c.i.;.~ ' ] W W ~ x W 2.x.W W R ] X.d.| =.a.d.| ` l ` o.E T 3.| n |  .[ c W W W ~ | X.' A a W T } m c ~ q. .o.O.] l H ] X.T x | v.i.;.m ` ] W W ~ b ",
"M M C C C C Y k m | d.0.p.s. .` C M C S Y O.X.3.i.y.~ c C Y a X.:.;.t C C C Y k t ~ l. .C C C D X.] X.A Y o.:.=.:.X.Q Q C Y M D M B C Y C B Y k c | i.0.a.s.[ H M M C C Y O.| 4.i.i.^ c C Y z X.:.&.t V C C Y i t m l.[ C C C D 4.i.6.] Y o.4. .:.X.~ ~ C S M v ",
"w C C Y C C Y g Z G ;.5.8.h.:.X.H M C C C Y Y C Z P c [ A Z h X.q.X.h L C C C x a '  .X.C C V A 3.c [ _ C T X.X. .4.:. .Z S M d w M Y C Y C C x Z G ;.y.0.t.>.=.` M C Y C Y Y C Z Z c | A G h | q.;.h Y C C F n x '  .X.C C V P 7.5   _ C T X.X. .4.:.[ Z C M v ",
"M w Y Y C C Y k C V l | i.:.l.;.Q x C C Y C Y Z L Y G Z | X.h Q 5.5.[ x C C Y k S P [ X.L C P Z ' c ~ Y O.C S X.X.;.y. .` Y B f M M Y Y C C C k C C l | d.:.g.X.! k C C Y C C n L Y G x | X.j Q >.5.| c C C C k Z P [ X.L C P P | < x Y } C L | X.3.q.=.' Y M e ",
"C w C I Y Y Y a C C G X.i.y.m.s.[ [ P Y D Y Y V C C P P ` A 7 c ! 5.c.;.m x <.G C P -.5.3.A } ] ~ P ] Y D d Y A ~ X.d.w.' C M v C w F F Y Y Y a C C G ;.i.i.m.s.[ [ U Y D Y Y C C C P P ` x u c m 5.v.X.m H <.H C P :.4.3.Z ' { _ A | Y D d Y Z ~ X.s.q.[ C M B ",
"M M L I R I C k G C T ] 4.X.q.s.:.;. .4.X.R Y V Z Y { R H ~ V d 7 j  .~ =.Q p.' Q c :.=.3._ ' ' c d ] T F C Y V c ~ p. .| Y M v M C Y I R I C k C V T ] 4.X.w.s.>.X.] 5.| T Y Z S Y ] Y ` ~ V B i h X.~  .Q i.] ~ m ;.;.3.~ ' ' A d ` R L S Y Z c ` y. .| Y M v ",
"w C R J I I Y x V C @.+.l ;.X.d. .;.c +.] { Y C V C @.E E x c ;.` c [ Q '  .a.[ [ X.:.[ ` Y V V w T m +.n T Y C ` c i.~ [ A M g w M L +.@.I Y g x C @.+.l ;.X.d.=.;.c +.} { Y C Z C @.W E g c X.` c ' Q [ ( p. .[  .:.[ ` Y Z v w { c +.n I Y { ` ~ d.~ ] A M g ",
"s M ,.+.+.*.R l H C E } k h k y.;. .' +.7.<.Y k A U } %.E R u z c h x j 2 i m ;.;.y. .w.4.O.Z F M A ' %.o.` <.| | [ 4.[ c ` l P s M ,.+.+.*.Y k Z C W ] k h k a.;.=.] @.5.<.Y x A U } ,.E Y 6 z c h z j 2 h  .;.4.y. .w.:.| C G w P [ %.} } ;.;.X.[ 4.[ A ` j ] ",
"_ P E 2.1.*.Y l P C @.| t C l =.:.[ | 6.%.<.R H X.] } X.E Y S } l C E 2.,.n 3 k ' ' :.l.w.y.' ^ g k [ ] ` | ;.3.4.] [ 3.y.d.[ 5.` P E 2.1.*.R b P C @.| t F k  .>.[ [ 3.$.*.Y c | } | X.o.Y S } c C @.2.@.n h ~ [ ' ;.j.w.d.' ^ g k ' [ ~ | X.4.;.[ [ 4.q.p.[ 6.",
"X.~ ] 1.,.*.R k P C @.;.Z Y 6 _ 7. .x &.| m P X._ P c X.X.Y Y A ~ C #.1.1.@.L r 2 c ;.5.:.q.:.X.4.c x ,.| | [ 4.X.3.[ ;.4.X.=.>.X.` ] +.1.,.Y k H F @.;.G L 3 ` 7.[ x &.;.n P X.6 V n X.&.Y Y Z ~ C #.1.1.*.G h ' | 3.i.3.q.;.X.4.c g @.&.| [ 4.X.4.' X.4.X.X.:.",
":.;.X.h F F Y k C F R :.n V h [ d.s.3.` x H X.| X.[ X.7.[ O.L _ l B L L F G Y a 2 3 m | |  .X.>.7.4.X.H X.u.u.i.X.' ' 7.| 4.X.[ :.X.&.k G F C k L C R ;.G V i | a.f.4.H x ` X.6 z [ X.5.[ <.T _ k B L L F D Y h i ` ' X.| =.;.0.i.5.;.H | u.s.y.X.' ' 5. .4.X. .",
":.5.' [ ' 9 C k 5.] d ) ~ 4.` [ >.d.G : 7 ' S C B u 1 7 Z ' ' c i d M : : , S t d 2 > < ' | m :.4.d.n.s. .-.p.X.| i u ' Q Q | X.:.5.X.[ ' 7 C k 5.] u ) ~ 5.' | :.d.H : 7 | C C M u 1 } ' ' ' k i d M : : , C t 6 2 > 5 ` X.Q :.4.d.v.f. .:.u.X.| i i ` Q Q | X.",
"~ [ y.y.X.X.Q c [ k j | | | [ ' y.a.' f ] [ A S f i 8 3.X.d N d w C q 8 0 0 C a g u 8 8 9 | i.' :.s.n.u.:. .X.' H a 8 p a d ` X.^ ;.v.v.5.X.| ' | k j | ] | | ' y.y.' H ` | A A f i 8 ;.X.d V d s M q 8 0 0 C a g u 8 8 9 | i.' ;.s.l.w.:.[ X.| H u 8 p a d ' X.",
"h } >.d.0.;.' ` [ h a. .f.v.-.y.g.y.k 5 4.| | 3.s B a | s h X.c f M w 0 0 q a k s B 8 w x X.:.] v.i.c.4.4.X.' ' d x ~ k q d M c z X.c.n.v.c.[ ` | h y. .g.c.:.4.g.y.d.X.3.| X.3.s B a [ s m 7.` f M w 0 0 q g k d B 8 q x X.:.] i.v.n.4.3.X.' H u a l x w d M Z ",
"d i X.;.;.| ` ! i.c k c 4.:.-.f.c.:.i g 8 w m 5.[ H ~ 8 u ` Z j m M q 0 8 w h k u V 8 p X. .[ ' v.;.:.[ c [ _ 4.=.X.] 4.x M M V d h | i.7.X.` c i.c c c :.0.=.s.v.:.X.n 8 w c 4.| ` A 9 a i.o.3.] M w 0 0 w a k u N 8 f X. .[ ' i.:.y.| c | Q 4.;.[ ] 3.x s C N ",
"~ ~ ~ c ` | Z g 5.H ; ; Z Z h ` :.k o 4.s - q { ' 3.] - ' Z q g ' ; , 8 , - q q - u H ' p.>.y.' >.;.3.[ ] k | 5.' A a ` | m s c ` ~ ~ l ' [ Z d 5.Z ; 9 Z g z ' :.;.a.;.m u q { ' 3.| - X.x q a 3.; - 8 , - q q - s m ] a.5.a.' 4.;.X.| ' c | 5.' k t k X.` h ` ",
"] b a m a t ! m ] ] k H Q [ j c ' * z i.s.X.' ~ ' ' :.' 5.] [ ~ X.m k k a a b m m i.v.5.:.s.y.:.g.:.:.d.X.X.a.=.c l k l X.` | 5.5.H h n i k m / ' | a ~ ! [ j c X. .y.b.;.[ ` Q ' ' 3.] v.n [ ` i.] l k a i m m m d.N.a.:.s.y.:.g.:.:.d.X.X.y.X.i t k t 3.` | ' ",
" .! [ a p 8 w h Q | A | k x l w V i | 8.y.u.;. .c.X.' =.d.:.5.[ X.[ [ 0 8 8 s ~ ] d.c.u.h.i.4.4.;. .>. .y.:.;.x w M w q s ' 4.6.* > [ a p 8 s i Q | P X.k x l w V l ;.w.y.q.;. .g.| ' ;.N.j 7.| ;.X.' 0 8 8 w ' ' s.c.s.h.5.4.4.>.[ :.X.y.:.X.` 0 M q w u ` 3.] ",
"] X.[ ^  .A V k H ` X.h 8 d l w s d Q [ :.i.;.q.u...;.:.>.b.b.-.y.:.[ j r s m ' X.q.s.q.y.:.k c ~ y. . .X.X.;.A M M q 8 8 Z X.l   * [ ^ X.' V k A 3.X.k 8 d l w s s _ [ 4.p.;.q.r...;.a.5.i b...a.:.' c r s m ` ;.0.s.0.p.:.h c ` 0.=. .X.;.;.[ M M q 8 8 Z X.c ",
"B u u ` [ [ [ k B [ m 9 0 z j 0 M w | [ 5.4.^ 5.q.[ [  .] ' ~ ~ [  . .[ h Q ` 4.p.j.l.:.[ ~ k r c X.i. .3.| [ ;.V f q 8 0 A | x M w u ' [ [ X.h d [ m k 0 g c 0 M w | [ 5.} j 5.q.[ [ d.x . ! ~ ]  . .' h Q ' 4.y.j.l.>.' ' k y c [ i. .X.4. .X.V f q 8 0 Z X.q ",
"C M s 8 i ` | ~ u a Q 8 8 A k w M M Q ' ' d M w ' H i X.n d p k ] X.[ ;.X.;.:.s.s.=.:.` | i i q s _  .X.] h ~  .~ V 8 8 8 l 4.V C M w 8 p ~ X.[ u u c | k u h q M M _ ' ; > B w ] H i X.d : < k | X.[ ;.X.;.:.s.d.;.:.` &.3 i q s `  .3.X.X.` X.~ V 8 8 8 l 4.w ",
"M , w q 8 q k X.] 3.' u H 4.X.8 M w c [ ' l [ Z w 0 0 8 0 M f q k y.X.4.X.4.:.^  .| Q a 0 s k 0 M ` y.-.' m c X.' c r y k [ c 0 M q w 0 8 r z i.c.[ 2 ^ X.` l 0 M , ' ' ; a Z s w q 0 8 0 M f 0 k i.:.;.;.4.:.^  .X.Q k u 5 k 0 M ` 5.-.| ' j X.` l r p k ' m 0 ",
"M w M 8 8 8 M ' X.| ! ( ;.i.X.h N 1 g ~ 4.c z [ ` u 0 8 0 M B 0 h i.^ 7.Q [ [ 4.X.| x 8 0 s k 9 Z Q X.[ 5.c i ~ x ] | ' x Z B 0 M w M 8 8 8 M [ 4.X.2 [ X.i.] i M w c ~ 4.;.4.y.d u 0 8 0 M B 0 t 5.^ i.Q ^ [ 4.X.] x 8 9 s j 0 A c X.X.4._ i ~ x | | ' ~ Z B 0 ",
"B w q 8 8 8 M k M k u p X.;.X.Q ` 3   c X.X.[ :.X.H Z k G [  .-.'  . . .' ' _ 2 5 w w 8 0 d a H 4.X.4.[ ~ X.' Q ` A u k ' ~ ` ` _ X.d i } k 7 t ' j k ' i.;.5.Q _ [ ` k n ;.[ d.a.n n x c X.X.4.'  .=. .' ' c 2 5 w q 8 0 d m %.d.X.:.[ | c k c C w q i | M e q ",
"C M M 8 8 q d h ~ w n ` | c d 5 P Z > q X.X. .y.X. .;.X.| ] Q X.;. .) ;.3.] > i u w 8 8 8 7 | b.4.y.8.4.X.~ ! 4.i u 8 u k i X.5.X.' ` ! ] c c c :.:.-.p.v.7. .` P Z d d ] 9 ] q.=.;.l.l.| y.q.| i.5. .;.c 5 > d u w 8 8 8 Z 7.b.5.y.-.>.4.k s k f w 8 p | c f w ",
"M w z Q X. .' 4. .[ | Q ` + o d Z q w s 8 x [ ~ Q ( :.;.3.i.| Q | i. .i.N.i.5 c 0 0 0 8 k ' d.b.X.y.=.[ ` u d z } q q | m ] >.g.0. .` ' k n q. .g.c. .y.v.b.p.3.Z q q s 8 k x r l '  .[ ' _ c d 7.c.d.' j 2 : j u q 0 8 k ' c.b.' y.;.[ ` i M < | q 0 3.' ' H 0 ",
"N { ` Q c c Q X.' ^ } 8 0 V c 7.i.X.Z Z u 8 M d h c [ 5.[ X.;.h ` X.;.c.b.;.c ' ' ^ 5.k ;.| g.B.b.i.;.5.' k 7 V X.k c 4.[ [ y.y.;.3.c c k H j X.' ' 7 c a.f.3.i.i.X.G Z u 8 d V h j ' X.X.i.X.; u 3.i.7.[ [ c c ` Q 5.k X. .f.C.n.;.;.4.i 8 M M x 3.n ` G d | 0 ",
"{ X.S x 8 r l ' ` u d 8 0 M k ] X.X.[ [ [ Q d C w i t ;.` [ [ c X.>.:.] 3.:.[ ] X.| 4.c 5.a.w.l.:.[ ' d.4.' c ~ | ' |  .=.5.' ` a s C 8 x n Z h ~ 5.X.< 5.d.4.3.;.X. .]  .Q N M w u i y h '  .[ l X.| X.[ | Q c | Q X.Q 5.a.r.c.i.=. .d.| 8 M C w 5 g X.c ` | 0 ",
"' G C ' 0 i Z ] ` ' k x 8 e h 0 & Q u i i ' X.M w 9 f ; k Q ' X. .d.5.| ;.=.-.a.;.0.^ 5.5.5.;.[ c i r n X.3.| X.3.;.4. . .X.' r M w Y 8 0 8 M ' i 9 ] ` p.d.| c 2 Z u u h ` X.M w r G ~ h % 2 i | d.:.X.j 4. .' [ ;.~ 4.5.4.;.' i h 9 | X.u M C w 9 f 9 y | ! u ",
"c u C c [ A M 7 5 u ~ [ Z s d q i f w M q c 4.` V u q 8 9 7 5 h c ( 3.Q >.-.y.d.~ :. .;.:.~ i u q s g r [ X.[ | 5.d.X.5.;.~ i w M w Y 0 w 8 M X.d s ' X.5.;.Q 5 w f w B q c 4.` d d q r m r & ' 4.:.d.;.X.X...0.y.:.[ ;.;.;.c w w s 0 ~ | i M M w u q 8 s X.2 A ",
"X.z Y 8 q 8 M Z x ; s 4.X.B d C u d Z p w 0 ;.c ' k Z 8 w C C M V d u t l ! ( ^ c l ~ ! k d g M q C w Z X.;. .3.[ :. .| [ h C M C C C 8 q 8 M | 3.p c.X.:.| ~ 7 w d x f q 9 ;.Q ' a G 8 u i ~ y.d.=.>.'  .:.y.f.:.[ ;.;.' Z d B w C w A X.h M B s 0 w 8 ' _ M o.",
"| V C q q 0 A H i.d w c ;.Z s V X.{ u c w 8 M S x ' ;.[ ' } K s C C C q w 9 s d r 6 i 9 w C s w w C w Z X.Q [ ;.Q ' [ i.;.' c s C M C q q 8 M P c.N.d.a.4.X.3.| | { u k q 8 M S x ` 5.c c ' 5.b.V.u.;.X.X.:.0.:.7.c m u s M s s q C w Z ;.[ M M q u w 8 ~ Z N ~ ",
"' ` k m | X.| 4.i.d 0 9 ] ' ' 3.3.' ] _ q 8 M C 8 d i ' X.;.:.5.y.{ C 8 q 8 M C u d 0 8 w C d d s M w Z ' c :.:.X.' ;.X.;. .X.k M M C 8 q 8 M C 5.B.7.d.5.5.| 3.4.' O.' q 8 M M 8 d H ' h X.y.i.c.4. .[ Q y.f.:.3.' k 0 w C d d w M w Z 4.7.s X.[ m i ; X.6 h 3.",
"Z P c Q ~ i.A u i d M 8 w V i m |  .5.=.` } M M w d M h | =.' X.:.k.;.a u 8 q M d a M 8 q C d s 0 M w h m ~ 4.s.X.` x d d ' ' l l x C 8 0 8 q G b.7.9.s.:.X.' c ' [ 5.y.X.} M M w a N ` [ O.5.| :.5.Q [ i.v.k.e.i.' : 8 w C d s 0 M s h ;.X.= 6 | A < = m d u A ",
"M q C c Q ] d d H a w 8 r M x s 8 r ` ' X.5.S M w d s 8 u ^ c ' ;.;.=.=.( :.G M s d w u t c X. .X.Q 2 c '  .;.d.' Z s 8 z d d |  .Q { 8 8 8 w ;.c.5.m.s.[ ' x s 9 r j c A 5.P C w d s _ _ y. .[ | 3.X.Q [ 0.u.8.' & , r i c X.[ X.c i i X.` C M n [ Q ~ ` N Z d ",
"C V | ' d 9 w c ' c | ' h C s w q C u c [ [ i.O.0 p w 8 w V j ` ;.y.y.9.9.g.k.] g u w u X.X.z 6 u d u x | 3.q.:.^ Z w 8 w C H z _ X.' i w 8 i | i.:.g.;.! d s w w C u k x A i.o.q u 6.c. .i.^ c [ X.:.'  ...X.[ c : w r X.X.c u d x u c 7.| { V 0 A a u s M s s ",
"C } X.' ' a w ` _ [ ` ;.' V ` A x M w A a b ;.y.l ] 0 8 q C A | | [ ^ >.0.=.c.;.H d 9 ;.i.z 5 s w M w V [ 4.y.[ [ r i 8 q C g x d j | k 5 a =.>.0.t.>.X.A M ] c g M q A ` 7 | 7.d.n.N.B.X.4.Q Q X.i.:.w.8.) 0.X.c : 9 X.i.z 5 s w M w V ' X.;.;.' Z 0 8 w C a s ",
"x ` ' Q ' c 4.[ ' ] s k | ' | 3.X.' a w 9 9 i ! ' ;.X.u w C ] =.d.=.[ y.:.8.g.c.;.3.;.n.z M d Z 0 C w w ' [ ;.k t * [ x w C d d M d h | ` } d.0.p.s. .` X h | 3.X.' a w 0 u z c | y.v.f.X.' c X.>.;.k.p.e...:.5.[ { X.n.z M g d q M M w d r Z x l  .X.` | Z d Z ",
"| u C u i u X.' [ Z w i ' [ Q ' ` X.` 4.X.[ [ ` ] Q 4.c n ;.X.5.0.a.;.5.>.:.a.>.| ' X.i.i.X.| A u w s w =.] i ' 2 2 ' X.n V V d s w 5 X.d.[ =.a.d.| m = 3 ~ d x d ` ` 4.X.| X.' ] m >.4.c [ ' ;.p. .:. .:...y.g. .i.B.c.i.X.| A u d w w 8 8 M C w h c h X.Z Z Q ",
"` 8 B x u 8 g ' X.X.x ' X._ x s 0 k [ X.| j v.g.5.[ 3.~ 3.n.b.0.d.d.4.:.| X.:.;.h.a.' ] 3._ ` X.5.X.{ s $.q.i 2 r V d k ~ c H d w u h ` i.a.s.s.[ Q u x X.z i s u u z _ [ 7 p.f.>.[ ;.| ` [ :.:.c.] ;.X.c ~ ;.y. .y.d.5.3.~ ` X.[ ' ' d 8 8 w C w t u ; p ' k | ",
"k q V Z M 8 w V h _ ] ;.A M B d 8 0 x H * 4.y.f.>.~ ~ ' X.y.:.t.u. .c i ; a Q X.y.[ ;.3.' ' d g a [ 7.] =.=.' ' 2 d w 8 u c k 2 - O.:.s.p.>.y.X.' O 6 [ z A B d 8 0 a d 7 } 4.f.y.Q ` d.' 0.8.w.y.:.' c i ~ X.y.:.s.4.4.' ' s x a k ' c t 8 C C 8 k w 8 w A M 3.",
"g 8 A 0 $ 8 w u u d Z u q C u u 0 8 w s i 5.r.d.[ 5.;.] 9.m.g.;.m r r X # - < | ~ X.p.h.u...' l s r | ^ :.5.4.;.' i f 8 w M u * | i.:.h.0.5.=.' = * ; i s C u u 0 8 w M i :.e.i.[ 5.' 4.s.l.a.>.5.' | ; r 9 ` Q d. .;.k.a...' l s 9 h t 9 8 C C 8 M q 8 q V k ' ",
"a 0 s M w 8 q M i P 3.n { P B d 0 0 w M c ;.q.y.y.>.q.5.h.y.) a r ; : M q 8 w x ' 4.4.5.f.>.;.;.X.A X.[ (  .(  .5.~ < 8 0 f M ' 7.4.k.:.b.;.Z 1 * s 5.[ z u s d 0 0 w s m ;.q.p.y.>.:.:.l.h.y.[ ~ Q ; 7 u o # _ [ ' X.y.g.:.;.;.;.H X.d 8 8 V B w C w 8 0 F d j ",
"V 8 d 8 w 8 q M a  .[ ! } y.5. .X.;.3.' ~ q.q.;.>.>.:.=.>.^ ~ x , 8 w 0 w 8 q 6 h | l Q y.c.y.>.>.i.4.[ ~ '  .;.4.4.] i a x z [ [ s.m.y.n.3.q N z h :.^ 4.4.=.X.X.X.4.] ~ u.y.X.:.>.>.;.y.X.| ` i u w q w 8 , + 3 ` ` c i.v.q.5.y.i.5.x 8 n g 0 q C q - g ' [ | ",
"f 8 s s u 8 q s A X.w 8 w P { ~ | | 3.:.s.:.y.;.;.;.=.:.[ k x d f 8 M w q 8 w 6 4 t i _ X.y.5.:.i.a.5. .[ l [ 3.' | ' ' ] ' [ X.>.h.0.X.4.i ] Q X.[ ' s.;.X.X.' X.X.X.:.s.:.y.:.4. .=.:.X.| c d f 8 M w w 8 q d 3 2   z  .y.5.:.i.q.4.] ' a.d 8 M C u i.;.] X.Z ",
"w 0 s r 8 8 w s A a.m d o.| ` | i.' >.>.q.s.;.5. .:.>. .h d M M w 0 M 8 8 8 w 6 3 M w h 4.y.[ ;.i.:.g.4.X.! ` 7. .=.^ [ ^ ! ~ ;. .d.X.;.+ j X.' [  .| 3.4.;.'  .i.[ >.>.5.:.X.4. .:.:. .m x M M w 0 B 8 8 8 w 7 3 M s i 5.i. .4.b.>.f.3.;.3.i q M M A | ] V M M ",
"q 8 w q 0 8 0 u | >.[ Q y.:. .5.l.s.:.5.( >.w.5.| ;.u.d.x w M C q 8 q w 0 8 w u u 0 w 9 | =.c ~ 3.[ 4.4.5.^  .:. . ...) l k  . .-.y.l H = _ | [ X.X.' | 5.f.X.5.b.p.-.4.'  .w.0.X.:.y.f.k w s C q 8 q q 0 8 0 u u 0 s 9 ' X.h k | r 5.4.;.3.h u C x [ 4.x s s C ",
"q 0 8 8 8 8 0 [ 5.:.:.=.i.>. . .n.n.-.i.(  .:.;.` y.b.:.z q 0 M w 0 8 8 8 8 q u t w w 8 ` ;.V M x k [ 4.i.[ 5. .` c ' c h t !  .:.:.=.p 8 9 i ] ;.4.;.l [ d.:. .n.n.8.i.' Q =.:.$.7.m.:.V w < M q 0 8 8 8 8 q u i s s 8 ` X.Z M g % * } s.^  .` Q ' | ` | | c Z ",
"&.0 0 8 8 p 4. .4.s.8.0.[ ;.~ X.:.-.^ [  .y.j.j.;. .s.Q s 0 q M 8 0 0 8 8 8 9 9 t ; M 0 d | Z M 8 q d X.' 8.d. .] 8 M q d k ~ [ 5.>.m.] 8 p 3. .4.f.q.0.[ :.~  .y.4. .| Q  .g.l.>.-.s.b w 0 0 M 8 0 0 8 8 8 9 r t 8 M 0 d X.Z M 8 0 u r [ :.d.| { 8 M q d x | 3.",
";.' ;.a [ [ ;.=.' i.4.k.0. .:.i.;.X.4.^ X.y.f.0.| >.[ 2 w 8 0 w 8 q 0 8 8 8 9 r u r q 8 9 Q X.Z 8 8 0 A X.:.>.~ M 8 w 8 w 8 c ` :.[ q.=.3 i ;.=.^ i. .f.:. .:.i.X.X.4.k j =.:.y.' >.[ r w 0 q w 8 q 0 8 8 8 8 r u r q 8 r c X.S 8 8 0 > X.:.q.~ B 8 q 8 f 8 g ' ",
"5.>.;.' =.;.:.;.X.a.:.4.~ i ' ` | X.5. .' ' 5.X.' :.;.i M 0 8 w w w 8 8 8 0 8 9 r i 0 8 s Q c ~ G 8 0 Z X.:.:.[ q w 0 q e 0 8 c >.>.;.[ Q i  .X. .:.l 4.~ 6 [ ` | X.4.[ ~ i b b a :. .d w 0 8 w w w 8 8 8 0 8 r r 6 0 - u Q c _ P 8 8 Z ;.;.:.[ q s 0 q M 8 8 u ",
"X.[ [ ;.' ' [ ` ~ ~ 6 2 z s a Q [ 3.X.=.-. .) ' j ;.;.' w w 8 s w 8 w 0 w 8 w w s 6 Q k ` 4 ~ [ Q | 4. .i.f.:.4.x x e 8 w w 8 h ;.' :.q.' 2 i j h i 2 2 k s i _ [ 3.X...( 9 r t t =.X.^ w w 8 u w 8 s 0 q 8 w s d d w 9 4.h Q [ Q [ 4.[ i.f.0.4.c g f 8 q w 8 a ",
"X.:.^ ] k k m h c 2 u 8 w M M u [ =.h.d.w...3 6 2 ~ ^  .] w 8 d 8 0 0 8 q 8 8 q d j 4 ' ` 3 h c [ -.0.X.]  .^  .[ | s - 0 w p 2 [ >.' >.k 2 = = = = u 8 s M M i ' =.s.d.>.9 @ 2 2 ! ^  .' q 8 V - 8 0 8 q 8 8 q d c 3.5._ 3 j j [ :.q.;.[ [ ~ X.' ] s 8 0 w p 3.",
" .a.` ~ ;.k c t t u w 8 w { O.c ' 4.>.4.4.` Z 0 9 i ~ =.[ ] 8 u 0 8 0 8 9 8 0 q X.c.c 4  .z s ~ i.4.i.' c | c 5.=.0.~ a 9 i ~ h [ d.] ~ ;.i = 5 t u w 8 q C u x | 3.y.>.' 9 < q 9 6 ^ :.X./ 8 u 0 8 0 8 8 8 q w | p.Q h [ Z i ` i.:.p.' Q | l 4.;.>.! i 9 p ' ;.",
" .4.m ' 7.[ l i r q q 8 0 { M j 4.c.y.i.' i w w 0 s X.^ [ ' [ x 0 0 0 8 r 0 0 s X.| 4 u _ 4.V j i.:.X.2 a h 2 [ k =.:. .[ [ ' h k 3.m ^ 5.' c w r q w 8 8 C M k 4.f.a.5.m t w w 0 s X.` [ '  .k 0 0 0 8 r 0 0 w 4.X.6 8 ` 4.V j i.q.X.= a z 2 [ k :.:. .[ [ :.y.",
"c k m  .>.:.k x k c ` ' X.X.` ' [ ;.p.i.k M s 0 8 M f c ~ ! ' X.~ 9 0 8 a c.n x X.Q 2 8 Q ;.A i [ i.` - 8 M < ; i [ i. .:.-.^ > = m m  .:.:.k A t i 0 8 w B V ' [ :.y.| k M s q 8 w d c ~ m ' X.` 9 0 8 a c.n x  .Q 2 8 x ;.Z i ' i.~ - 8 M 1 ; t ' y.;.;.-.-.y.",
"g k ~ :.=.f.' =.Q ;.X.' 0 Z { | i.i.X.X.p 8 w 8 8 w q 9 Q ~ [ :.i.[ k 8 x b.v.i.' h 2 8 c _ V c X.h.^ $ 8 8 q 9 2 ` 4.~ [ Q Q 5 < r ~ ;.=.d.' ;.h r 8 8 0 f H | i.d.| l p 8 q 8 8 M q 9 ! Q [ >.y.;.h 8 n b.v.d.' 4 2 8 n ~ N c ;.h.~ $ 8 8 w 9 2 ' 3.~  .Q ~ ' ",
"e 9 ! ;.;.g.;.=.m ` X.Q Z A X.f. .X.c i 8 8 8 Z k Z a p f i X.[ :.d.^ ~ X.| ! 4 4 3 2 i | k M Z ^ y.' - 8 8 8 k c  .;.| k i u M e 8 ~ ;.=.g.;. .c 9 8 0 q A X.c.;.| c p 8 8 8 Z a G a p g i X.>.>.f. .~ X.X.j h 3 4 2 u [ k C Z ^ >.' 8 8 8 8 x c  .;.| k t i M ",
"w 8 a X.;.0.z.;.c.] a x X.~ ' [ ;.3.a.9 - 8 Z H 8 u p m n = 5 h ' 4. . .Q 4 6 u t 3 r c [ s N o.4. .[ $ - 8 Z [ [ ( [ ' k 9 0 C q 8 a X.=.q.z.:.c.] 0 8 d ~ ' [ :.;.! ; $ 8 Z G 8 p u m n t ` ` ] 4.=. .Q 4 5 i t 3 u c [ M M { 5.X.[ $ 8 8 k ' [  .[ ^ k 9 0 C ",
"q 0 8 ` ' s.m.w.n.5.0 8 [ X.h. .| ` ~ l 9 8 G c | >.[ 4.c ` 2 . Q X.;.[ 4 9 w 9 t u 9 ' c M M M X. .~ - 8 r ' =.;.X.;.] 9 8 0 M q 0 8 _ ' s.l.y.n.4.u } 3.X.s. .] ~ ~ b 9 8 H Q | 4. .;.c [ c h Q X.;. .4 2 q 9 t u ; ^ G B N M X. .~ ; 8 i ' ;.;.;.;.| 9 8 0 B ",
"8 0 0 9 m ' d.8.d.;.` H 3.;.4.X.2 q 8 8 $ 8 d [ ] ;.a p r d u : 5 X.7.:.~ 8 9 r t t w X.] M C M H ~ Q u '  .] :.a.~ ~ r q 0 0 M 8 0 0 9 ~ ' s.q.p.;.H X.3.X.4.| 2 q 0 - $ 8 d | [ X.a a y d a { ' X.i.-.~ 8 9 r t t q X.U M C M A ~ c p [ | ] :.y./ m r 0 0 q M ",
"8 , 0 8 p ;.X.h.0.q.>.;.| [ X.n a 9 , $ 8 $ w m ^ 8 8 8 0 8 0 s a ' ;.^ ' 8 9 r t 3 k X.n M M 0 x ;.c k x a [ [ =.l r 8 q 8 0 s 8 w 0 8 p ;. .h.0.y.:.;.| [ X.x a u $ $ 8 $ w c ` 8 8 8 0 8 q w i ' :.' ' 8 9 r i t a | x w B q x X.Q k x i [ ' -.l r 8 0 8 0 w ",
"w w 8 8 8 i X.4.d.y.a.' ~ d u x 9 [ - @ $ 0 0 d k M 0 q w 0 0 w 5 ` f.' ` 8 8 9 r r n X.G w f 0 - [ ;.' @ 0 } l.p.i u q e 8 0 w s q 8 8 8 i X.5.d.q.a.' m k u G 9 ' - $ $ 0 0 d k w 0 w w 0 0 w < ` d.[ _ 0 8 9 r r H 3.G s f 0 $ X.;.~ $ 0 ] l.y.i u w w 0 q w "
};
