/* XPM */
static char *BROWN1[] = {
/* columns rows colors chars-per-pixel */
"128 128 32 1 ",
"  c #6F5743",
". c #775F3F",
"X c #774F2B",
"o c #5F4B37",
"O c #6B4727",
"+ c #7F532F",
"@ c #7B634F",
"# c #675333",
"$ c #5B6347",
"% c #67533F",
"& c #775F4B",
"* c #574333",
"= c #533F2F",
"- c #875733",
"; c #533F1F",
": c #836B4B",
"> c #5F4323",
", c #4B371B",
"< c #836B57",
"1 c #53573B",
"2 c #8F5F37",
"3 c #3F2F17",
"4 c #8B735B",
"5 c #676B4F",
"6 c #937B63",
"7 c #5B472B",
"8 c #9B633B",
"9 c #332B13",
"0 c gray31",
"q c #3F472B",
"w c #4F3B23",
"e c #474F33",
/* pixels */
" .  %% %   ..#......&...#%%.##%%  %%#**777***7o#o*;oooo77;;#;77 X+1---1Xo-Xooo>77;;#;;7 X+1---11+--+Xe1+++++++XXOOXX-XO-0+>>O>;>",
"  ..  &% ....%.. .@. .. #%%.##%%   . #%ooo#%%###%**%%oo# %% # # X+-1--+X%-X%%o># %% #;# X+-1--+1++-+Xe1+X+1+X-+X>OX++XO+++11XO+O",
"  . &.& &..& ...... #.. #%%.%#o# .   ##ooo#%%%%%%oo#%o*# . .#%%%XX-1+X+X%-X#%o># . .#O%%XX-1+X+-+--+Xe1++X+-X++->OX+XXOX++++OOOX",
" %.:..@&&:&...... .  && # % %###. . .#%oo*#%   ##oo##o*o% . ###%XX$-+X+O#-X##o>o% . #O#%XX$-+X+-+-+++O1++X+-X++1>OXXOXXX++XX+OOX",
" %.@ ..&&@.  ..& #% &&& #  . #% . ..%##oo*%%   .##oo%o=o% .#%#o%XX-$XX+O#-+o%oOo% .#%Oo%XX-$XX+--$+XXX1+XXO1++-+OOX+XXXX++++XOOO",
" %....@@&:.# .&..%. ..&%#% @ #%  .. o% *oo#    .#%oo#*=o%..#%o#oXO-++X+O#+-o#*Oo%..#%X#oXO-++X+@-5+XX11++X+$++-XOOX1XXXXX-.$XOX>",
" %.@...<.:@# ....%% &.&##%..%##  .. o%#*o=%%   @#%oo#==o&..#ooooXX-$+X+O#+Xo#=Oo&..#oXooXX-$+X+@2$-XX+1++XX$-2-XOO++XXXX$-.$XOO>",
" %@%...<&:@% @  @## &.&##%. %#%%&@# o%#ooo%% ##&##oo#o=o&..%o*%oXX$++X+O#+Xo#oOo&..%oX%oXX$++X+@2$-XX$XX$XX-22-XOO++XXXX----XOOO",
"o%.%.%.:&4&#%.#.&#%..&&#%%  ###%&@# o%#oo*%#.  .o%o*%*=o&@.%**%oXO+++XX>o+XO%*Oo&@.%*X%oXO+++XX$252XO+O++XX-22-XOOO+XOXX--8-OOOO",
"o%%%.#.:::&#.  ..#o%@:&%%%  ##o%&@. =o%ooo#o   @o%o*o==o&:.%*oooXXO++XO>o+XOo>Oo&:.%*oooXXO++XX$252O+XX++OO-$2-XOOX+XXXO-885OO+O",
"o%  @#.4@: #%. ..#o .@&oo%. ####&@. =o o=o#o...@o%o*===O&::%*oooXXOX#XO>o+-O=>>O&::%*oooXXOX#XX5255OO+X++OO$222XOO+1XOXO-88-OOX>",
"o#o%%o.:@: ##. ..#o .:&oo%  ##oo@@@%=ooo=o#o...@o#o*o==O&::%*o*oXXXO+X>>oOXOo>>O&::%*o*oXXXO+X>-25@OO+X++O;+282OO>+1XOXO2885>OOX",
"o%o #o :@: o## .@%> .:&oo%..o%oo@<<%=o*o*o#o@@@.o%o====O%..%**=oX>XX+X>>oOX>=O>O%..%*>=oX>XX+X>-85->OOX+$O;$88-OO>>1XOXO288-;OOO",
"ooo #oooooo*o% @@#>oooooo%$.##oooooo=o*o*o#o****o%o=*==O*****==oX>OX+XO>oOX>*O>O*****>=oX>OX+XOXXXX;OOX$$O;o+-%OO>01XOO>%o+O;OOX",
"ooo%#o=,33,*o% ..#=,,,,=o%.%#%oq,,,,=o***o#=,33,=;*=o==,3333,=,oXXXO+O>,=>X>oO>,3333,>,oXXXO+O>,,,,;OOX++O;,,,,;O>+1XOX*,,,,*OO>",
"oo%##o;,,,,**#  .#=,,,,=o%%.#%o==,,;;%***oo=;33;,===o=,,,393,qqo>>OO+O;;,>O>o>,,,393,;;o>>OO+O;;;;,>OOXX+O;,;;;;O++11OO;;,;,;;OO",
"oo%##o;,,,,**#;;.#=,,,,=o%%.#%o==,,;;%***oo=;33;,===o=,,,393,qqo;>OXXO;;,>O>o;,,,393,;;o;>OXXO;;;;;>OOOX$;;,;;;;OO+11OO;>,;,;;OO",
";;;,33333333,;;;,3333333,;;;;,3333333,,;;;,3333333333333333333,,;;;;;,,,33333333333333,,;;;;;,,,,,,,;;;;,,,,,,,,;;;;;;;;;,,,,;;;",
"#.##oo*=======#o#==3====;=oo=o%==,====ooo==3=q,,======o,========%w%%%XXO======o,========% %% XXOXOOX  %-- O>OXOO% -.--XXOOOOOX%+",
"@<@@<<&&&&&@44@::<<&&&&&&&&&&:%%%%oo%%@:@:: ooooo%@@@@<%%%%%%&&@2:::::2-o%--@-<%%XXOX&222:::::2--++2::2222++XX++2::::222-X---22:",
":.<<<& *%#%@<<# &# ooooo*%#&<@@oooo*o 4@&## ****o#####&;o;o*### 8.-..8--o#OO##&;o>o;### 8.-..8---+X-.@+--++XOOOX-..-@-.-+OX+----",
"..&@<  *o##@<<#  #<%*ooo*%#&4@&o;**#o%&@.## o***o*##&#&7o,**o## 2$+$$2+Xo*O+&#&7o;*;o## 2$+$$2+XXX>O@XXXXX>O>>OXX11+$X$XO>>OXX$-",
"#.&@@  *o*#@<@ ## <%**o*o%o&@@ o***#o%:@.  .o***o   & #*o;**o &#2$1$52+Oo O+& #*o;*;o &#2$1$52+OOX>O@+X>OX>X>>>OX111++$XO>OXXX$$",
"#.@@@  *o*#@<& ## @%*oo*o%*@&@ o***#o%@@.##.o**** o & #%o=*** &#2$+$52+O* O+& #%o=O;* &#2$+$52+OOX>O@$XOOXOO>>>>X1$1$$+XO>>OXX+$",
"#. @@. oo*#@@@### @&o***o%o@@&@o***#o%@@&##&o****#o.&. %o*o** @ 21+$-2XO*#O.&. %o*O;* @ 21+$-2XOO+>X$$OOOXOO>>>>X1$1$$+%X>>OXX+$",
"#.@@&. *o*o@@@###&<&ooo*o%*:@&@o7**%o%@@&##.o***o##.... o*o** @#-11$-2XOo##.... o*O;* @#-11$-2XOOXOO+$XOO+OO>>>OX1$11$$+O>>OXX++",
"o @@&. *oo#&&@ ##&< *o*oo%o@.@&o***oo%&@&##.%***# o&...%*=o*o &#21+$$2XO# o&...%*=O;o &#21+$$2XOOXXO$$XXO+>O>>O>X1$1$@++O;>OXX++",
"# &&&& **o#@@@ ##.@ #*oo*%o@&.. ;**#o &@.  & ***#&o#&..%**o*o @#21+$-2XO#&o#&..%**O;o @#21+$-2XOOXOO$$X>X$OXO>OOX1$11-++O>>OXX+$",
"# &:&. **o#&&@@##@@@%o*#* .@&.. ***oo @@@  . o**#&o#&..#o*o*o @#-1+$52XX#&o#&..#o*O;o @#-1+$52XXOXXX$$XXO+>OO>OOX1$1$$+%O>>OXXX+",
"# &:&& **o &&<@ #&&@#*o#o..@&.@ o*o%o .@.@.. o*=#@o ...%o7**o @#--$$@$XX#@o ...%o7O*o @#--$$@$XXOXXX$@XXX$XOXOOOX1$$$-$%XOOXXX++",
"# @:&@ oo @@@<@  @&&.oo *.&..@@ o*o%o%.@.@.. o*=% o% @@%o***. @#-1$$@$XX% o%+@@%o*O*.X@#-1$$@$XXOXXX$@XXX$XOXOOX+1$$1++%X>>OXXXX",
"# &&&& oo .@@4@  &@&@oo  ..@..&  *o%o% @ @..  *o# o% .  %=o*   #-@+$5+XX# o%+.  %=O*   #-@+$5+XXOXX+$@XXX+XOXXOX++$$1$++XOOXXXXX",
"#. @&& oo &@@4@  @<.@o# .@..&&: #7o%o%.@.@@@. *o# o  ..  **#. # --$$5+X+# o +..+ **#.X# --$$5+X+++X+$5OXX$+O+XO+ .$$1$+-X>OXXOX+",
"#& @&@ %o &@@4@ &@<&@o  @@&:.&:  *o%o%@@@@@@@ *o  o%...  **#.   -$+$-$X-  o%...- **#.X  -$+$-$X-O+X+$@+X+$-O-+X#$.$$1++-X>O+XOX$",
"#  @&:@%o @@@:& @::@<o #@@@.:@@  oo%o .@.@:@. *o  ## ..$.o*#.  .2+$$$-X2  ##+..-.o*#.X .2+$$$-X2O$X$$-+X$-+X+XX#$.$$1+$%XOX+XO++",
"X  @&4<&  @::<& &::&@%  4&&.4&&  oo%o  @#@:&&#*  o   ....oo#. ..2+-$$5-2 o  +.+2.oo#. ..2+-$$5-2O++$$$+X+-+O+XX .+$$$+++XOO++XXX",
"X &@&@<&% @:::@&&<4@@% &4:@@@&@@ oo%o  @ @:@: *# # #.. @.oo#&  @-XX$-$52 # #..22.oo#&  @-XX$-$52X-+$$-$+++XXX%+ .-$$$++%XOO#%OXX",
"# &@ @<&% @::4<&@<:::%#::@:.:.@@ oo%o  @.@:&: *#  #  ....%o#  ..2OX$-$52  # +.-..%o# X..2OX$-$52+$+$$5+++$XXXXX- .$$$$+%XOXXXXXX",
"$&&@ @<&% @::4<@@<4@:%..:&::@.@& oo%%&#@.@:<@.o#& ## @.:.%o#&  &2OX$-$52& ##+2-:.Xo#&+ &2OX$-$52+-+$$@+++$+X+++---$$$$+%XOO+X>1X",
"$ &@&@:&% :@<4<@&<4.4% @6@::@.@@ oo%%&#@.@@<@.o  &  .@.@@ o#  ..2OX$@$5- & +.222@Xo# +..2OX$@$5-X-+-$5+++++X+%#.&.$$$$+%XOO+XO1X",
"X &&&@:@  @@<4<&&<6.6%&&6&44@:@@ oo%#&#&.@<@&.o  &  @@... %#. ..XXX$5$5- & +@2+..+%#.-..XXX$5$5-X$+$$@$++++X+++..-$$$$-%XOX++X+X",
"# && :@@  &:<4<&&<4@:%&&4::6.&&: oo%#. &@@<@:.o  && .@....%#.&&.X+X$5$-$ &++.2-..+%#.-&.X+X$5$-$X-++$5++++XXX+X..-$$$-++XXO++X+-",
". && @::  <@<4<@&<4@@ @:4&:4...: oo%#&..@@<&@&o &  #:....@%# ...X+$$-$$-& +#:.+..-%# ...X+$$-$$-+-+5$5+++$XXX-X..-$$$-++XOO+XO+-",
"@ .  :::  <@<4<&.<6@: @::::4&@.: oo%#&#&@@<&:.o    #:. @@.%#    $++$-$+-  +#:.+@@+%#    $++$-$+-+$+-$5$++$XOX-X---$$$-$+XOO++X+X",
"% .  :&:  <@<6<@ &:&4 &::&@4@&.@ oo%o&#&@@<@@@o @   &..:@.%# ..#O1+$-$+-@ +X2..:@+%# ..#O1+$-$+-X$+$$@$+X+XXX.X-- $$$5++XOX#%X+X",
"# && :.@  <&<4<@ @4.:&&::.:6.... oo%o&#.&@<<.@  @ # .$:..&%# ..%O1+$$$+$@ #X-$2..+X# +.%O1+$$$+$X-++$@++X$-OX+X.---1$5++XOO#%XXX",
"o  & :.@& <@<4<@ @4.<@@::@<4. .  *ooo.#.:@<@&.  &     :@@.%# @@%>1-$-$+$&  X+ 2@@+X# +@%>1-$-$+$X++$$@$+X$.OX-X--.@11@X+XOO#%OXO",
"#    :..& ::@:<& @< <.&::<<:@ &  oooo@#.@@<@@.#&  @ ...@:%%# ..#O1$$-$++  @X-.2@:%X# +.#O1$$-$++O++-$-++X$.OO+X--.@-$1X+XXO#%OXX",
"X &&&@:@  @@<4<&&<6.6%&&6&44@:@@ oo%#&#&.@<@&.o  &  @@... %#. ..XXX$5$5- & X-@2.. X#.-..XXX$5$5-X$+$$@$++++X+++..-$$$$-%XOX++X+X",
"# && :@@  &:<4<&&<4@:%&&4::6.&&: oo%#. &@@<@:.o  && .@....%#.&&.X+X$5$-$ &&X.@....X#.-&.X+X$5$-$X-++$5++++XXX+X..-$$$-++XXO++X+-",
". && @::  <@<4<@&<4@@ @:4&:4...: oo%#&..@@<&@&o &  #:....@%# ...X+$$-$$-&  #:....-X# +..X+$$-$$-+-+5$5+++$XXX-X..-$$$-++XOO+XO+-",
"@ .  :::  <@<4<&.<6@: @::::4&@.: oo%#&#&@@<&:.o    #:. @@.%#    $++$-$+-   #:. @@.X#    $++$-$+-+$+-$5$++$XOX-X---$$$-$+XOO++X+X",
"% .  :&:  <@<6<@ &:&4 &::&@4@&.@ oo%o&#&@@<@@@o @   &..:@.%# ..#O1+$-$+-@   &.2:@.X# ..#O1+$-$+-X$+$$@$+X+XXX.X-- $$$5++XOX#%X+X",
"# && :.@  <&<4<@ @4.:&&::.:6.... oo%o&#.&@<<.@  @ # .$:..&%# ..%O1+$$$+$@ # .$2..&X# ..%O1+$$$+$X-++$@++X$-OX+X.---1$5++XOO#%XXX",
"o  & :.@& <@<4<@ @4.<@@::@<4. .  *ooo.#.:@<@&.  &     :@@.%# @@%>1-$-$+$&    X2@@.X# @@%>1-$-$+$X++$$@$+X$.OX-X--.@11@X+XOO#%OXO",
"#    :..& ::@:<& @< <.&::<<:@ &  oooo@#.@@<@@.#&  @ ...@:%%# ..#O1$$-$++  @X.X.@:%X# ..#O1$$-$++O++-$-++X$.OO+X--.@-$1X+XXO#%OXX",
"X  & ::.& &:::<@#@@ ::&4:<<:: .  oo%o@#.:&@&&.   # ##.....%# ..#;1$$-5-+ # X#X....X# ..#;1$$-5-+O+X--$++O$%OO-X.-.@-11X+XOO#%XXX",
"X  & ::@& .:&@<&# @#<&@::<<::#&. *o%*&# :&&&&.# @#  #...  %#&..#,1--$@@$@# X#X..  X#&..#,1--$@@$OXX-+$++OX%XO-O-- 5-11O++XO+X>+O",
"X  . ::&& @:.@.   .#<#@&:@<:@#.& *o%*@# @@@.@ #  #  #....%%# ..#;@+++-@+ # X#X2..%X# -.#;@+++-@+OXX-+$+XXXXXO-X--.@1$1O++XO+X>XO",
"# %  &:.& @@.:    @%@%@@:@<4.  @ *o%*@##@@@&. #    ##. ..#o# ..*O--X$+-+   ##X ..#o#++.*O--X$+-+OXX$+-XXXX%OO-O.+#51$1X#%OOXO>XO",
"; %#&.:.&  &.@%  #.#.o@...@:.# @ *o%*.##.@@#. %# %.%%  %.%o.#.%*O0-O$+-+ %.%XX %.%>.XX%*O0-O$+-+OXX++$OXXOXXO+O++ $1$1O#%OOX>>XO",
"=#o#.....  4 #  ##.o@*:..  :.# .%ooo*  %@...  #% # .   # .*%%%%#>O-O++++ # .XXO# X>%OO%#>O-O++++OXX2XOXXOOO7O+O++XX1$1O+XO>O>>XX",
"=#oo..%@. .@ ##%###o.o....#:.  .#ooo* %#.@@.* #% o%  % o% oo%*##>>w+X+O+ o% XXOo%O>oO*##>> +X+O+OOX2XOOOOO1>OXO++XO1$1X+XOOOO>XO",
"=;oo.. @.o ..###o#%o%o$#. #:& %.#*oo*% #...###oo#o##o ####o*#=#o>;++X+XX#o##XXO##O>*O=#o>;++X+XXOOX+XOOOOOO>>o>X+XO-11XXX>>O>>OX",
",=*o%.%.%* %.##%=%=ooo #. #.. #.o*oo*%#*   %%%*%oo#o*%o##o*=o===;;0+OXOXoo#o>XO##O>=O===;;0+OXOXOOXOXOOO;O>>>O>X+XO++1XXO>>O>>OO",
",;*o#%.%%o%%%%ooo%oo=*%%%%# .## *==o=%%*   #oo*o=o#oooo##oo=o**=;;OXOOXO=o#>;Oo##O>=o**=;;OXOOXOOOOOOO>>OO>O;O;OOOOX11OOO>;>>;>O",
",,*o#% o#*o%#%==o%%o==%%%#%%.###o==o=%%*o%%%oo=o==**ooo***o=====;OOXOOO>==*>;Oo***>=====;OOXOOO>OO>OOO;>>O>;;;;OOOOO+OOOO>;>>;>O",
",,*oo%o*o**o#o=*o%oo==o##*%%.##o*==o=%o*o%%%o*===;=o=oo*=o*==,=,;>OO>OO;=;=>;oo*=o;==,=,;>OO>OO;>O>OO>;>>O>>;>;>O>OO+OOO>;,;>;>O",
",9;*o%=*o*=oo==*%oo===o##=##@%%o====o%o*o%%%o*=====*=oo*=**==,=,;;OO;O>;===;;oo*,*;,=,=,;;OO;O>;>O;>>;;>>O>;,;,>O;OOOO>O>;;;;;>+",
",,;*=o**===*===*%**====#%=o%.%oo====ooo**o%oo*=,=,===*o*==*=,,=3;;>O;O;;=,=;,*o*==,,,,=3;;>O;O;;;>;>;;;>>>>;;,,>O;>OOO>O>;,;;;>O",
",,;;,*==*====*=*=======*oo## =oo====*oo**oooo*===,====*===*==,=9;;>>,>;;=,=,==*==,,,=,=9;;>>,>;;;>;;;;;>;;>;,,,>O>>OO>;O>;,,,;>>",
",,,;====*===**==*=======*oooooo*====**********=,,,,=========,=,3;;;;;;;;,,,=====,,;,,=,3;;;;;;;;;;;;;;;;>;;,,,,;>;>>>;;;;,,,,;,;",
"oo%##o;,,,,**#;;.#=,,,,=o%%.#%o==,,;;%***oo=;33;,===o=,,,393,qqo;>OXXO;;,>O>o;,,,393,;;o;>OXXO;;;;;>OOOX$;;,;;;;OO+11OO;>,;,;;OO",
";;;,33333333,;;;,3333333,;;;;,3333333,,;;;,3333333333333333333,,;;;;;,,,33333333333333,,;;;;;,,,,,,,;;;;,,,,,,,,;;;;;;;;;,,,,;;;",
"#.##oo*=======#o#==3====;=oo=o%==,====ooo==3=q,,======o,========%w%%%XXO======o,========% %% XXOXOOX  %-- O>OXOO% -.--XXOOOOOX%+",
"@<@@<<&&&&&@44@::<<&&&&&&&&&&:%%%%oo%%@:@:: ooooo%@@@@<%%%%%%&&@2:::::2-o%--@-<%%XXOX&222:::::2--++2::2222++XX++2::::222-X---22:",
":.<<<& *%#%@<<# &# ooooo*%#&<@@oooo*o 4@&## ****o#####&;o;o*### 8.-..8--o#OO##&;o>o;### 8.-..8---+X-.@+--++XOOOX-..-@-.-+OX+----",
"..&@<  *o##@<<#  #<%*ooo*%#&4@&o;**#o%&@.## o***o*##&#&7o,**o## 2$+$$2+Xo*O+&#&7o;*;o## 2$+$$2+XXX>O@XXXXX>O>>OXX11+$X$XO>>OXX$-",
"#.&@@  *o*#@<@ ## <%**o*o%o&@@ o***#o%:@.  .o***o   & #*o;**o &#2$1$52+Oo O+& #*o;*;o &#2$1$52+OOX>O@+X>OX>X>>>OX111++$XO>OXXX$$",
"#.@@@  *o*#@<& ## @%*oo*o%*@&@ o***#o%@@.##.o**** o & #%o=*** &#2$+$52+O* O+& #%o=O;* &#2$+$52+OOX>O@$XOOXOO>>>>X1$1$$+XO>>OXX+$",
"#. @@. oo*#@@@### @&o***o%o@@&@o***#o%@@&##&o****#o.&. %o*o** @ 21+$-2XO*#O.&. %o*O;* @ 21+$-2XOO+>X$$OOOXOO>>>>X1$1$$+%X>>OXX+$",
"#.@@&. *o*o@@@###&<&ooo*o%*:@&@o7**%o%@@&##.o***o##.... o*o** @#-11$-2XOo##.... o*O;* @#-11$-2XOOXOO+$XOO+OO>>>OX1$11$$+O>>OXX++",
"o @@&. *oo#&&@ ##&< *o*oo%o@.@&o***oo%&@&##.%***# o&...%*=o*o &#21+$$2XO# o&...%*=O;o &#21+$$2XOOXXO$$XXO+>O>>O>X1$1$@++O;>OXX++",
"# &&&& **o#@@@ ##.@ #*oo*%o@&.. ;**#o &@.  & ***#&o#&..%**o*o @#21+$-2XO#&o#&..%**O;o @#21+$-2XOOXOO$$X>X$OXO>OOX1$11-++O>>OXX+$",
"# &:&. **o#&&@@##@@@%o*#* .@&.. ***oo @@@  . o**#&o#&..#o*o*o @#-1+$52XX#&o#&..#o*O;o @#-1+$52XXOXXX$$XXO+>OO>OOX1$1$$+%O>>OXXX+",
"# &:&& **o &&<@ #&&@#*o#o..@&.@ o*o%o .@.@.. o*=#@o ...%o7**o @#--$$@$XX#@o ...%o7O*o @#--$$@$XXOXXX$@XXX$XOXOOOX1$$$-$%XOOXXX++",
"# @:&@ oo @@@<@  @&&.oo *.&..@@ o*o%o%.@.@.. o*=% o% @@%o***. @#-1$$@$XX% o%+@@%o*O*.X@#-1$$@$XXOXXX$@XXX$XOXOOX+1$$1++%X>>OXXXX",
"# &&&& oo .@@4@  &@&@oo  ..@..&  *o%o% @ @..  *o# o% .  %=o*   #-@+$5+XX# o%+.  %=O*   #-@+$5+XXOXX+$@XXX+XOXXOX++$$1$++XOOXXXXX",
"#. @&& oo &@@4@  @<.@o# .@..&&: #7o%o%.@.@@@. *o# o  ..  **#. # --$$5+X+# o +..+ **#.X# --$$5+X+++X+$5OXX$+O+XO+ .$$1$+-X>OXXOX+",
"#& @&@ %o &@@4@ &@<&@o  @@&:.&:  *o%o%@@@@@@@ *o  o%...  **#.   -$+$-$X-  o%...- **#.X  -$+$-$X-O+X+$@+X+$-O-+X#$.$$1++-X>O+XOX$",
"#  @&:@%o @@@:& @::@<o #@@@.:@@  oo%o .@.@:@. *o  ## ..$.o*#.  .2+$$$-X2  ##+..-.o*#.X .2+$$$-X2O$X$$-+X$-+X+XX#$.$$1+$%XOX+XO++",
"X  @&4<&  @::<& &::&@%  4&&.4&&  oo%o  @#@:&&#*  o   ....oo#. ..2+-$$5-2 o  +.+2.oo#. ..2+-$$5-2O++$$$+X+-+O+XX .+$$$+++XOO++XXX",
"X &@&@<&% @:::@&&<4@@% &4:@@@&@@ oo%o  @ @:@: *# # #.. @.oo#&  @-XX$-$52 # #..22.oo#&  @-XX$-$52X-+$$-$+++XXX%+ .-$$$++%XOO#%OXX",
"# &@ @<&% @::4<&@<:::%#::@:.:.@@ oo%o  @.@:&: *#  #  ....%o#  ..2OX$-$52  # +.-..%o# X..2OX$-$52+$+$$5+++$XXXXX- .$$$$+%XOXXXXXX",
"$&&@ @<&% @::4<@@<4@:%..:&::@.@& oo%%&#@.@:<@.o#& ## @.:.%o#&  &2OX$-$52& ##+2-:.Xo#&+ &2OX$-$52+-+$$@+++$+X+++---$$$$+%XOO+X>1X",
"$ &@&@:&% :@<4<@&<4.4% @6@::@.@@ oo%%&#@.@@<@.o  &  .@.@@ o#  ..2OX$@$5- & +.222@Xo# +..2OX$@$5-X-+-$5+++++X+%#.&.$$$$+%XOO+XO1X",
"X &&&@:@  @@<4<&&<6.6%&&6&44@:@@ oo%#&#&.@<@&.o  &  @@... %#. ..XXX$5$5- & +@2+..+%#.-..XXX$5$5-X$+$$@$++++X+++..-$$$$-%XOX++X+X",
"# && :@@  &:<4<&&<4@:%&&4::6.&&: oo%#. &@@<@:.o  && .@....%#.&&.X+X$5$-$ &++.2-..+%#.-&.X+X$5$-$X-++$5++++XXX+X..-$$$-++XXO++X+-",
". && @::  <@<4<@&<4@@ @:4&:4...: oo%#&..@@<&@&o &  #:....@%# ...X+$$-$$-& +#:.+..-%# ...X+$$-$$-+-+5$5+++$XXX-X..-$$$-++XOO+XO+-",
"@ .  :::  <@<4<&.<6@: @::::4&@.: oo%#&#&@@<&:.o    #:. @@.%#    $++$-$+-  +#:.+@@+%#    $++$-$+-+$+-$5$++$XOX-X---$$$-$+XOO++X+X",
"% .  :&:  <@<6<@ &:&4 &::&@4@&.@ oo%o&#&@@<@@@o @   &..:@.%# ..#O1+$-$+-@ +X2..:@+%# ..#O1+$-$+-X$+$$@$+X+XXX.X-- $$$5++XOX#%X+X",
"# && :.@  <&<4<@ @4.:&&::.:6.... oo%o&#.&@<<.@  @ # .$:..&%# ..%O1+$$$+$@ #X-$2..+X# +.%O1+$$$+$X-++$@++X$-OX+X.---1$5++XOO#%XXX",
"o  & :.@& <@<4<@ @4.<@@::@<4. .  *ooo.#.:@<@&.  &     :@@.%# @@%>1-$-$+$&  X+ 2@@+X# +@%>1-$-$+$X++$$@$+X$.OX-X--.@11@X+XOO#%OXO",
"#    :..& ::@:<& @< <.&::<<:@ &  oooo@#.@@<@@.#&  @ ...@:%%# ..#O1$$-$++  @X-.2@:%X# +.#O1$$-$++O++-$-++X$.OO+X--.@-$1X+XXO#%OXX",
"X &&&@:@  @@<4<&&<6.6%&&6&44@:@@ oo%#&#&.@<@&.o  &  @@... %#. ..XXX$5$5- & X-@2.. X#.-..XXX$5$5-X$+$$@$++++X+++..-$$$$-%XOX++X+X",
"# && :@@  &:<4<&&<4@:%&&4::6.&&: oo%#. &@@<@:.o  && .@....%#.&&.X+X$5$-$ &&X.@....X#.-&.X+X$5$-$X-++$5++++XXX+X..-$$$-++XXO++X+-",
". && @::  <@<4<@&<4@@ @:4&:4...: oo%#&..@@<&@&o &  #:....@%# ...X+$$-$$-&  #:....-X# +..X+$$-$$-+-+5$5+++$XXX-X..-$$$-++XOO+XO+-",
"@ .  :::  <@<4<&.<6@: @::::4&@.: oo%#&#&@@<&:.o    #:. @@.%#    $++$-$+-   #:. @@.X#    $++$-$+-+$+-$5$++$XOX-X---$$$-$+XOO++X+X",
"% .  :&:  <@<6<@ &:&4 &::&@4@&.@ oo%o&#&@@<@@@o @   &..:@.%# ..#O1+$-$+-@   &.2:@.X# ..#O1+$-$+-X$+$$@$+X+XXX.X-- $$$5++XOX#%X+X",
"# && :.@  <&<4<@ @4.:&&::.:6.... oo%o&#.&@<<.@  @ # .$:..&%# ..%O1+$$$+$@ # .$2..&X# ..%O1+$$$+$X-++$@++X$-OX+X.---1$5++XOO#%XXX",
"o  & :.@& <@<4<@ @4.<@@::@<4. .  *ooo.#.:@<@&.  &     :@@.%# @@%>1-$-$+$&    X2@@.X# @@%>1-$-$+$X++$$@$+X$.OX-X--.@11@X+XOO#%OXO",
"#    :..& ::@:<& @< <.&::<<:@ &  oooo@#.@@<@@.#&  @ ...@:%%# ..#O1$$-$++  @X.X.@:%X# ..#O1$$-$++O++-$-++X$.OO+X--.@-$1X+XXO#%OXX",
"X  & ::.& &:::<@#@@ ::&4:<<:: .  oo%o@#.:&@&&.   # ##.....%# ..#;1$$-5-+ # X#X....X# ..#;1$$-5-+O+X--$++O$%OO-X.-.@-11X+XOO#%XXX",
"X  & ::@& .:&@<&# @#<&@::<<::#&. *o%*&# :&&&&.# @#  #...  %#&..#,1--$@@$@# X#X..  X#&..#,1--$@@$OXX-+$++OX%XO-O-- 5-11O++XO+X>+O",
"X  . ::&& @:.@.   .#<#@&:@<:@#.& *o%*@# @@@.@ #  #  #....%%# ..#;@+++-@+ # X#X2..%X# -.#;@+++-@+OXX-+$+XXXXXO-X--.@1$1O++XO+X>XO",
"# %  &:.& @@.:    @%@%@@:@<4.  @ *o%*@##@@@&. #    ##. ..#o# ..*O--X$+-+   ##X ..#o#++.*O--X$+-+OXX$+-XXXX%OO-O.+#51$1X#%OOXO>XO",
"; %#&.:.&  &.@%  #.#.o@...@:.# @ *o%*.##.@@#. %# %.%%  %.%o.#.%*O0-O$+-+ %.%XX %.%>.XX%*O0-O$+-+OXX++$OXXOXXO+O++ $1$1O#%OOX>>XO",
"=#o#.....  4 #  ##.o@*:..  :.# .%ooo*  %@...  #% # .   # .*%%%%#>O-O++++ # .XXO# X>%OO%#>O-O++++OXX2XOXXOOO7O+O++XX1$1O+XO>O>>XX",
"=#oo..%@. .@ ##%###o.o....#:.  .#ooo* %#.@@.* #% o%  % o% oo%*##>>w+X+O+ o% XXOo%O>oO*##>> +X+O+OOX2XOOOOO1>OXO++XO1$1X+XOOOO>XO",
"=;oo.. @.o ..###o#%o%o$#. #:& %.#*oo*% #...###oo#o##o ####o*#=#o>;++X+XX#o##XXO##O>*O=#o>;++X+XXOOX+XOOOOOO>>o>X+XO-11XXX>>O>>OX",
",=*o%.%.%* %.##%=%=ooo #. #.. #.o*oo*%#*   %%%*%oo#o*%o##o*=o===;;0+OXOXoo#o>XO##O>=O===;;0+OXOXOOXOXOOO;O>>>O>X+XO++1XXO>>O>>OO",
",;*o#%.%%o%%%%ooo%oo=*%%%%# .## *==o=%%*   #oo*o=o#oooo##oo=o**=;;OXOOXO=o#>;Oo##O>=o**=;;OXOOXOOOOOOO>>OO>O;O;OOOOX11OOO>;>>;>O",
",,*o#% o#*o%#%==o%%o==%%%#%%.###o==o=%%*o%%%oo=o==**ooo***o=====;OOXOOO>==*>;Oo***>=====;OOXOOO>OO>OOO;>>O>;;;;OOOOO+OOOO>;>>;>O",
",,*oo%o*o**o#o=*o%oo==o##*%%.##o*==o=%o*o%%%o*===;=o=oo*=o*==,=,;>OO>OO;=;=>;oo*=o;==,=,;>OO>OO;>O>OO>;>>O>>;>;>O>OO+OOO>;,;>;>O",
",9;*o%=*o*=oo==*%oo===o##=##@%%o====o%o*o%%%o*=====*=oo*=**==,=,;;OO;O>;===;;oo*,*;,=,=,;;OO;O>;>O;>>;;>>O>;,;,>O;OOOO>O>;;;;;>+",
",,;*=o**===*===*%**====#%=o%.%oo====ooo**o%oo*=,=,===*o*==*=,,=3;;>O;O;;=,=;,*o*==,,,,=3;;>O;O;;;>;>;;;>>>>;;,,>O;>OOO>O>;,;;;>O",
",,;;,*==*====*=*=======*oo## =oo====*oo**oooo*===,====*===*==,=9;;>>,>;;=,=,==*==,,,=,=9;;>>,>;;;>;;;;;>;;>;,,,>O>>OO>;O>;,,,;>>",
",,,;====*===**==*=======*oooooo*====**********=,,,,=========,=,3;;;;;;;;,,,=====,,;,,=,3;;;;;;;;;;;;;;;;>;;,,,,;>;>>>;;;;,,,,;,;"
};
