/* XPM */
static char *BROWN144[] = {
/* columns rows colors chars-per-pixel */
"128 128 33 1 ",
"  c #272727",
". c #373F27",
"X c gray23",
"o c #3F472B",
"O c #53573B",
"+ c #434343",
"@ c #5B6347",
"# c gray28",
"$ c gray31",
"% c #474F33",
"& c #5B5B5B",
"* c #676B4F",
"= c gray34",
"- c #67533F",
"; c gray42",
": c #5F4B37",
"> c gray39",
", c #6F7357",
"< c #332B13",
"1 c #3F2F17",
"2 c #2F2F2F",
"3 c #2B230F",
"4 c #43331B",
"5 c #4B371B",
"6 c #4F3B23",
"7 c #232323",
"8 c #13230B",
"9 c #533F1F",
"0 c #574333",
"q c #0B1707",
"w c #5B472B",
"e c #373737",
"r c #533F2F",
/* pixels */
"<4<114491<  3<  4456w45609565<41 4 1 1<14<44<211 41 1<<4<144<2214456w45609565<414456w45609565<41<1  <  414144 <14141111451165<11",
"< <1 4491<  3< <2456w14509565141<1  <  414144 <1< 1  <<141144 <42456w145095651412456w14509565141 1 <4< 42 144<11 141141151465111",
"< <4<1491<  3  <44506<4504565141 1 <4< 42 144<11   4 <<<11444<<444506<450456514144506<45045651412<< <3242 11<111<14414111146411<",
"< <1<1195<  << <44566145w45654112<< <3242 11<1112   3<<<1141<1<444566145w456541144566145w4565411<<  << 12411 1 1414114<151441112",
"<< 1<5195< 3 <3 44596115w45651<1<<  << 12411 1 1 <  1<<<441< 1 244596115w45651<144596115w45651<111<<<4<1 <11 1154<<4111151161< 4",
"11<144195<  3<<<445954150616411111<<<4<1 <11 11511< 41<<111< 11444595415061641114459541506164111<24<<<213 412115411411 141441<1<",
"<24< 4491<  <<  0459544506144111<24<<<213 412115<2<<11<3114<214404595445061441110459544506144111<   < 41< 44<115411512<44<4441<4",
"<  < 5491<  3< 2424651<504<45141<   < 41< 44<115<  < 4<<1<41<144424651<504<45141424651<504<45141 4 1<1<1< 41<115411514<141<441  ",
"  <<<54413<3 2 34145411404165<41 4 1<1<1< 41<115  <<24<<1<41<1444145411404165<414145411404165<41<1  <  4  41<11<4145111454165<11",
"<3 <<544< 23<2 < 1454411r4465161<1  <  4  41<11<<3<2 1< 1<41<12< 1454411r4465161 1454411r4465161 1 <<< 4< 1<<1<< 145141154465111",
" 3 <3544<7 3<< 3<1444411r146414< 1 <<< 4< 1<<1<< 3 23 <<1<1 <1<<<1444411r146414<<1444411r146414<2<< <324 <1 < < <14414115146411<",
"<3<<<411<   <  <414154<1514611422<< <324 <1 < < <3<<  < 11< < <1414154<151461142414154<151461142<<  <3 13 41 < 4414114<155441112",
"2<3<<411<7  3< 34<<1411151161< 4<<  <3 13 41 < 42<< < <3 14  < 44<<1411151161< 44<<1411151161< 411<<<3<1 3 2< <44<<4411151161< 4",
"<<<<2<11<<  3<  411144 141461<1<11<<<3<1 3 2< <4<<<22 < 31< < <4411144 141461<1<411144 141461<1<<24<<321<3<<<3<4411444 141441<1<",
"<<<<<<11<   3<  411142<44<4641<4<24<<321<3<<<3<4<  2<  <31< <3<4411142<44<4641<4411142<44<4641<4<   <341 <3< <<2411142<44<4441<4",
"<<3< <11 <  3<  411114<141<641  <   <341 <3< <<2<       <13  <<1411114<141<641  411114<141<641   4 1<3<133<3 2 3411154<141<641  ",
" <<< <11<<  3<  4141111451165<11 4 1<3<133<3 2 3 3 3  <331<  2 <4141111451165<114141111451165<11<1 <<3 43 23<2 <4<111<11411441 2",
"<< <<<11 <  3< < 141141151465111<1 <<3 43 23<2 <<323<  3  2 <2<< 141141151465111 141141151465111 1 <43 477 3<< 34 151  <144441 4",
"<< < <11 <  3< <<14414111146411< 1 <43 477 3<< 3<2<    777  << <<14414111146411<<14414111146411<2<< <324    <  <4 111<24<44411  ",
" < < <11<<   <  414114<1514411122<< <324    <  < 2     7    <  <414114<151441112414114<151441112<<  << 1 7  3< 34<11  4<44141<< ",
"<<<<< <13< 3 <3 4<<4111151161< 4<<  << 1 7  3< 3<<     3 7  3   4<<4111151161< 44<<4111151161< 411<<<4<12<  3<  2111< <441141<  ",
"< <<<2313<  3<  411411 141441<1<11<<<4<12<  3<  <  3 23  <  3   411411 141441<1<411411 141441<1<<24<<<212   3<  211<<<<14114114 ",
"  3<<<<13<      411512<44<4441<4<24<<<212   3<       <<     3   411512<44<4441<4411512<44<4441<4<   < 41 <  3<  2411 < 411141<  ",
"< 2<< <1<<  3  3411514<141<441  <   < 41 <  3<  <  3  3  <  3   411514<141<441  411514<141<441    <<<<41<<  3<   211 <<111<41<<<",
"<   <3113<<     4145111454165<11  <<<<41<<  3<  <               4145111454165<114145111454165<11<3 <2 14 <  3< < 21<<<< 11<11<<2",
" < 2< 4<3<2    3 145141154465111<3 <2 14 <  3< < <  3 3      83  145141154465111 145141154465111 3  23<4 <  3  <22   <<<1<<1<3 4",
"    <<1<7<   33 <14414115146411< 3  23<4 <  3  <   3         3< <14414115146411<<14414115146411<<3<<< <1<<  << <  11   <1<<1<<<4",
"   << << < 3 383414114<155441112<3<<< <1<<  << <      3   3     414114<155441112414114<1554411122<3< < <3< 3 <3 < 2 < <<1<<1<<< ",
"    < << <   3384<<4411151161< 42<3< < <3< 3 <3   3       3   3 4<<4411151161< 44<<4411151161< 4<<<<22 <3<  3<<< 12 2  <1<<1<<8 ",
"<  3< <<2<3<3 3<411444 141441<1<<<<<22 <3<  3<<<<    3 3  3 3 <<411444 141441<1<411444 141441<1<< < 2<  3<  <<   1  22 <1<<1<<  ",
" 2<3  <<2 <33338411142<44<4441<4< < 2<  3<  <<   2<3   3 3  <<  411142<44<4441<4411142<44<4441<4< 3     <<  3< 2 2221  <1<<1<   ",
" < 2 <<< <333338411154<141<641  < 3     <<  3< 2 < 2 < <    33 2411154<141<641  411154<141<641   3< 3  <3<<  < 3 2e2 <2<<<<1<<<2",
" << < <1<<<333334<111<11411441 2 3< 3  <3<<  < 3 3<    < 3   2 <4<111<11411441 24<111<11411441 2<3 23<  3<2 <<<<  2 <<<<<<<1<<  ",
"<< <<<1 333133384 151  <144441 4<3 23<  3<2 <<<<<3 2 <    2 <2<<4 151  <144441 44 151  <144441 4<< <    7< 3<<33 2 22<<<<<<<3<< ",
"<< << <1 <33 3<34 111<24<44411  << <    7< 3<<33<2 <     7  << <4 111<24<44411  4 111<24<44411  << <<  7 <  <38< <22<<<<1<<<33< ",
" < << <1<<33    4<11  4<44141<< << <<  7 <  <38< 2     7    <  <4<11  4<44141<< 4<11  4<44141<< <<<<3  3 < <33333 2   <<1<<<<<< ",
"<<<<< <13<3   3 2111< <441141<  <<<<3  3 < <3333<<     3 7  3   2111< <441141<  2111< <441141<  < 33<23<2<3333383   1  <1<<< 3< ",
"< <<<23133<33 < 211<<<<14114114 < 33<23<2<333338<  3 23<2<  3   211<<<<14114114 211<<<<14114114   333<< 2 <33 <q3< 213 <1<<<<<<3",
"  3<<<<13<333   2411 < 411141<    333<< 2 <33 <q     << 2   3   2411 < 411141<  2411 < 411141<  < 233 << <313338   1<3<<11<<< < ",
"< 2<< <1<< 33    211 <<111<41<<<< 233 << <313338<  3  3< <  3    211 <<111<41<<< 211 <<111<41<<<<   <3  <<<33833<<2 <<<<51<<<38 ",
"<   <311  <<33   21<<<< 11<11<<2<   <3  <<<338331<  <<  <   <311 21<<<< 11<11<<2 21<<<< 11<11<<2 < 28 4  3333838<3<   8<51<<<33<",
" < 2< 4<  3< 3  22   <<<1<<1<3 4 < 28 4  33338381 1 8<<  < 2< 4<22   <<<1<<1<3 422   <<<1<<1<3 4    3<   <3 33<33<   3<<51<< 3<3",
"    <<1<  33 32   11   <1<<1<<<4    3<   <3 33<313  33<     <<1<  11   <1<<1<<<4  11   <1<<1<<<4   <<  <<<3<<<  <3  <<<<91<<<3  ",
"   << <<< 3<< 2 < 2 < <<1<<1<<<    <<  <<<3<<<  <<  <<<    << <<< 2 < <<1<<1<<< < 2 < <<1<<1<<<     <  <3<33  3  32 <1<<91<< <<<",
"    < <<< 3  < < 12 2  <1<<1<<8     <  <3<33  3 <<3  3<     < << 12 2  <1<<1<<8  12 2  <1<<1<<8 <  3<  333333 <<3 2<1  <511< <<<",
"<  3< <<< 3    < 1  22 <1<<1<<  <  3<  333333 <<1   <<<3<  3< << 1  22 <1<<1<<   1  22 <1<<1<<   2<3  <33< <<<  <  < << 511<<<< ",
" 2<3  << 2<<   < 2221  <1<<1<    2<3  <33< <<<  1<  < <  2<3  << 2221  <1<<1<    2221  <1<<1<    < 2 <<<<<<<33 2<  <  1 511<13< ",
" < 2 <<<  <<<    2e2 <2<<<<1<<<2 < 2 <<<<<<<33 2<<<<<38  < 2 <<< 2e2 <2<<<<1<<<2 2e2 <2<<<<1<<<2<    3    3333  <<<< <1 11111<< ",
"1<  <<  33 3 2 3  2 <<<<<<<1<<  <    3    3333  51<3 2 332<   <   2 <<<<<<<1<<    2 <<<<<<<1<<  2 < <<4   333   33<3 <1 1< <<1< ",
"1 1 8<< 3 <3<2 < 2 22<<<<<<<3<< 2 < <<4   333   4<<3<2<332    <  2 22<<<<<<<3<<  2 22<<<<<<<3<<     <<    3< <X23 23<1< 11   <<<",
"13  33< 77 3<< 3 <22<<<<1<<<33<     <<    3< <X24< 3<<3332       <22<<<<1<<<33<  <22<<<<1<<<33<  <8    << 3  <2 77 3<<1 1  1   8",
"<<  <<<     <  <3 2   <<1<<<<<<  <8    << 3  <2 1<  < 8332  < < 3 2   <<1<<<<<< 3 2   <<1<<<<<<  <3<<<<<< < <  <    <   1< 1< < ",
"<<3  3<  7  3< 33   1  <1<<< 3<  <3<<<<<< < <  <4< <3  334     23   1  <1<<< 3< 3   1  <1<<< 3< <<<<<8< < <    < 7  3<< 1<     2",
"1   <<<32<  3<  3< 213 <1<<<<<<3<<<<<8< < <    <4<33  3334      3< 213 <1<<<<<<33< 213 <1<<<<<<3 <<<<<37 2 <   <2<  3<  14      ",
"1<  < < 2   3<     1<3<<11<<< <  <<<<<37 2 <   <4<<3    32     4   1<3<<11<<< <    1<3<<11<<< < 2   333<  <<<   2   3<  3   4  4",
"<<<<<38  <  3<  <<2 <<<<51<<<38 2   333<  <<<   1<33   83    <  <<2 <<<<51<<<38 <<2 <<<<51<<<38 <2<<<<< <<  3<   <  3<  8  2 <2 ",
"<2<<<<< <<  3<  <3<   8<51<<<33<<2<<<<< <<  3<  1<<3  3 3    <  <3<   8<51<<<33<<3<   8<51<<<33<<2<<2<<< <  3< <<<  3<  <2 <<<< ",
"<2<<2<<< <  3< <3<   3<<51<< 3<3<2<<2<<< <  3< <1<33 8 832   < <3<   3<<51<< 3<33<   3<<51<< 3<38<<<<<<2 <  3  < <  3<  <2 <2<<<",
"8<<<<<<2 <  3  <<3  <<<<91<<<3  8<<<<<<2 <  3  <1<3  3 33<   < 2<3  <<<<91<<<3  <3  <<<<91<<<3  3 <<  <<<<  << < <  3  <8< <<<<2",
"3 <<  <<<<  <e < 32 <1<<91<< <<<3 <<  <<<<  << <1<3<<   3      < 32 <1<<91<< <<< 32 <1<<91<< <<<3 <<4  <3< 3 <3 <<  << <3 <<  <<",
"3 <<4  <3< 3 <3 3 2<1  <511< <<<3 <<4  <3< 3 <3 1<33  3 3 <    <3 2<1  <511< <<<3 2<1  <511< <<<3<<<43  3<  3<<<3< 3 <3 3 <<4  <",
"3<<<43  3<  3<<<<  < << 511<<<< 3<<<43  3<  3<<<1<33  <<3<<  3  <  < << 511<<<< <  < << 511<<<<   <<<3< 3<  <<  3<  3<<<3<<<43  ",
"  <<<3< 3<  <<  <  <  1 511<13<   <<<3< 3<  <<  1< 3      <  3< <  <  1 511<13< <  <  1 511<13< <<2<<<< <<  3< 23<  <<    <<<3< ",
"<<2<<<< <<  3e 2<<<< <1 11111<< <<2<<<< <<  3< 21<<3   2< < <<< <<<< <1 11111<< <<<< <1 11111<<  24<<<< 3<<    3<<  3< 2<<2<<<< ",
" 24<<<< 3<<  < 333<3 <1 1< <<1<  24<<<< 3<<    31<<333  <     8<33<3 <1 1< <<1< 33<3 <1 1< <<1< 22   <<<3<2 <<< 3<<  < 3 24<<<< ",
"22   <<<3<2 << <3 23<1< 11   <<<22   <<<3<2 <<< <<<33   3  < 3< 3 23<1< 11   <<<3 23<1< 11   <<<< 44   87< 3<<3 3<2 <<<<22 < <<<",
"< 44   87< 3<< 377 3<<1 1  1   8< 44   87< 3<<3 <<<3 <22< < <<< 77 3<<1 1  1   877 3<<1 1  1   8< 2 < <  < 3 1<<7< 3<<33< 4<   8",
"< 2 < <  <  <3 <    <   1< 1< < < 2 < <  < 3 1<<<<<3 <2   2 <8<     <   1< 1< <     <   1< 1< < <42    2 < <31<3 <  <38<< 2<< < ",
"<42    2 < <32   7  3<< 1<     2<42    2 < <31<3<3<<3  <3 <<3  < 7  3<< 1<     2 7  3<< 1<     2<4<     2<< 3 38 < <3373<42<   2",
"<4<     2<332  82<  3<  14      <4<     2<< 3 3833<<3  <<  <<<<<2<  3<  14      2<  3<  14      3 < 4  42 <1 3< 2<337337<4 <    ",
"3 < 4  42 <332  2   3<  3   4  43 < 4  42 <1 3< 333<3 <<<<<< <<32   3<  3   4  42   3<  3   4  48 <2 <2  < 1<33 2 <73 <q3  <4  4",
"8 <2 <2  <3133   <  3<  8  2 <2 8 <2 <2  < 1<33 33333<<<<<<<3333 <  3<  8  2 <2  <  3<  8  2 <2 <2<<<<< <<<3383  <3173388 2< <2 ",
"<2<<<<< <<<3e8 3<<  3<  <2 <<<< <2<<<<< <<<3383 <<  3<  <2<<<<< <<  3<  <2 <<<< <<  3<  <2 <<<< <2<<2<<< 3333838<<<37873<22<<<< ",
"<2<<2<<< 33338 8 <  3<  <2 <2<<<<2<<2<<< 3333838 <  3< <<2<<2<<< <  3<  <2 <2<<< <  3<  <2 <2<<<8<<<<<<2 <3 33<  3377878<2 <2<<<",
"8<<<<<<2 <3 33 3 <  3  <8< <<<<28<<<<<<2 <3 33<  <  3  <8<<<<<<2 <  3  <8< <<<<2 <  3  <8< <<<<23 <<  <<<<3<<<   <3 33<38<2<<<<2",
"3 <<  <<<<3<<<  <<  << <3 <<  <<3 <<  <<<<3<<<  <<  << <3 <<  <<<<  << <3 <<  <<<<  << <3 <<  <<3 <<4  <3<33  3 <<3<<<  3 2   <<",
"3 <<4  <3<33    3< 3 <3 3 <<4  <3 <<4  <3<33  3 3< 3 <3 3 <<4  <3< 3 <3 3 <<4  <3< 3 <3 3 <<4  <3<<<43  33333 <<3<33  3 3   4  <",
"3<<<43  33333  <3<  3<<<3<<<43  3<<<43  33333 <<3<  3<<<3<<<43  3<  3<<<3<<<43  3<  3<<<3<<<43    <<<3< 3< <<<  33333 <<3< 243  ",
"  <<<3< 3< <<<  3<  <<    <<<3<   <<<3< 3< <<<  3<  << 7  <<<3< 3<  <<    <<<3< 3<  <<    <<<3< <<2<<<< <<<<33 23< <<<     4<3< ",
"<<2<<<< <<<<33 2<<  3< 2<<2<<<< <<2<<<< <<<<33 2<<  3< 7<<2<<<< <<  3< 2<<2<<<< <<  3< 2<<2<<<<  24<<<<   3333  <<<<33 2<<2 <<< ",
" 24<<<<   3333  3<<  < 3 24<<<<  24<<<<   3333  3<<  < 7 21<<<< 3<<  < 3 24<<<< 3<<  < 3 24<<<< 22 < <<<  333     3333  <3<   8<",
"22 < <<<  333   3<2 <<<<22 < <<<22 < <<<  333   3<2 <<  222<2<<<3<2 <<<<22 < <<<3<2 <<<<22 < <<<< 4<   8  3< <22  333   3<   3< ",
"< 1<   8  3< <227< 3<<33< 4<   8< 4<   8  3< <227< 3<< 2< 152  87< 3<<33< 4<   87< 3<<33< 4<   8< 2<< < < 3  <2   3< <22<3  <<< ",
"< 2<< < < 3  <2  <  <38<< 2<< < < 2<< < < 3  <2  <  <32e< ..  <  <  <38<< 2<< <  <  <38<< 2<< < <42<   2< < <  << 3  <2  32 <8< ",
"<42<   2< < <  < < <3373<42<   2<42<   2< < <  < < <3377<4..2  2 < <3373<42<   2 < <3373<42<   2<4 <    < <    << < <  <3 2<3   ",
"<4 <    < <    <2<337337<4 <    <4 <    < <    <2<33X277<42.2   2<337337<4 <    2<337337<4 <    3  <4  4 2 <   << <    <<  < <<3",
"3  <4  4 2 <   <2 <73 <q3  <4  43  <4  4 2 <   <2 <22  73 2.   42 <73 <q3  <4  42 <73 <q3  <4  48 2< <2   <<<    2 <   <<  < 333",
"8 2< <2   <<<    <3173388 2< <2 8 2< <2   <<<    <2133788 2.2<2  <3173388 2< <2  <3173388 2< <2 <22<<<< 33<3 2 3  <<<   <3<33333",
"<22<<<< 33<3 2 3<<<37873<22<<<< <22<<<< 33<3 2 3<<<338 7<22. << <<<37873<22<<<< <<<37873<22<<<< <2 <2<<<3 23<2 <33<3 2 3 24<<<< ",
"<2 <2<<<3  3<2 < 3377878<2 <2<<<<2 <2<<<3 23<2 < 33338 8<22.2<<< 3377878<2 <2<<< 3377878<2 <2<<<8<2<<<<277 3<< 33 23<2 <22   <<<",
"8<2<<<<2 723<< 3 <3 33<38<2<<<<28<2<<<<277 3<< 3 <3 33778<2. <<2 <3 33<38<2<<<<2 <3 33<38<2<<<<23 2   <<    <  <77 3<< 3< 44   8",
"3 2   <1  2 <  <<<3<<<  3 2   <<3 2   <<    <  <<<3<<7 73 2X2 <<<<3<<<  3 2   <<<<3<<<  3 2   <<3   4  < 7  3< 3    <  << 2 < < ",
"3   4  < 72 3< 33<33  3 3   4  <3   4  < 7  3< 33<33   73 2X   <3<33  3 3   4  <3<33  3 3   4  <3< 243  2<  3<   7  3< 3<42    2",
"3< 243 7 <2 3<  33333 <<3< 243  3< 243  2<  3<  33333 <<3<4X 3  33333 <<3< 243  33333 <<3< 243     4<3< 2   3<  2<  3<  <4<     ",
"   4<3<7  2 3<  3< <<<     4<3<    4<3< 2   3<  3< <<<    40 3< 3< <<<     4<3< 3< <<<     4<3< <<2 <<<  <  3<  2   3<  3 < 4  4",
"<<2 <<<2 <  3<  <<<<33 2<<2 <<< <<2 <<<  <  3<  <<<<33 2<<4X << <<<<33 2<<2 <<< <<<<33 2<<2 <<< <       X 2 2    <  3<  8 <2 <2 ",
"<3<   8< <  3<    3333  <3<   8<<       X 2 2     3333  <3.X2 8<  3333  <3<   8<  3333  <3<   8< <  3 32e2   83 <<  3<  <2<<<<< ",
"3<   3<7 <  3< <  333   3<   3<  <  3 32e2   83   333   3<XX23<   333   3<   3<   333   3<   3<    32  e2    3<  <  3< <<2<<2<<<",
"<3  <<<3 4  3  <  3< <22<3  <<<    32  e2    3<   3< <22<3XX.<<   3< <22<3  <<<   3< <22<3  <<<       2 2 3      <  3  <8<<<<<<2",
" 32 <8<3<4  << << 3  <2  32 <8<       2 2 3     < 3  <2   XX.8< < 3  <2  32 <8< < 3  <2  32 <8<   32      3   3 <<  << <3 <<  <<",
"3  <3   <. 3 <3 < < <  <3 2<3     32      3   3 < < <  <32Xo4   < < <  <3 2<3   < < <  <3 2<3   <    3 3  3 3 <<3< 3 <3 3 <<4  <",
"<  < <<<4.4 3<<<< <    <<  < <<3<    3 3  3 3 <<< <    <<2Xo2<<3< <    <<  < <<3< <    <<  < <<3 2<3   3 3  <<  3<  3<<<3<<<43  ",
"<  < 3<<.o6 <<   2 <   <<  < 333 2<3   3 3  <<   2 <   <<eXo2333 2 <   <<  < 333 2 <   <<  < 333 < 2 < <    33 23<  <<    <<<3< ",
"<3 333<<.%. 3< 2  <<<   <3<33333 < 2 < <    33 2  <<<   <eo%4333  <<<   <3<33333  <<<   <3<33333 3<    < 3   2 <<<  3< 2<<2<<<< ",
" 2<<<<<2X%X<<<< 33<3 2 3 24<<<<  3<    < 3   2 <33<3 2 3 XoO.<< 33<3 2 3 24<<<< 33<3 2 3 24<<<< <3 2 <    2 <2<<         24<<<< ",
"22   <<2Xoe2<<<<3 23<2 <22   <<<<3 2 <    2 <2<<3 23<2 <2X.$.<<<3 23<2 <22   <<<3 23<2 <22   <<<<2 <        << <     83 22 < <<<",
"< 24   2o.e2<<<277 3<< 3< 44   8<2 <        << <77 3<< 3<X0-.  877 3<< 3< 44   877 3<< 3< 44   8 2     7    <  <     3< < 4<   8",
"< 2 <  2o+e2  <<    <  << 2 < <  2     7    <  <    <  <<X+$. <     <  << 2 < <     <  << 2 < < <<     3    3     3     < 2<< < ",
"<42   2eo+e24  < 7  3< 3<42    2<<     3    3    7  3< 3<.X$.  2 7  3< 3<42    2 7  3< 3<42    2<  3 23<2<  3     3   3 <42<   2",
"<42   2eo+X243  2<  3<  <4<     <  3 23<2<  3   2<  3<  <.o$.   2<  3<  <4<     2<  3<  <4<          << 2   3     3 3 <<<4 <    ",
"3   1 2.++X.<3< 2   3<  3 < 4  4     << 2   3   2   3<  3e:$o  42   3<  3 < 4  42   3<  3 < 4  4<  3  3< <  3    3  <<  3  <4  4",
"8  2 <<.o%X2<<<  <  3<  8 <2 <2 <  3  3< <  3    <  3<2 8e:$o<2  <  3<  8 <2 <2  <  3<  8 <2 <2 <2<<< < <<  3<      33 28 2< <2 ",
"<2<<<<<.o%. 3<  <<  3<  <2<<<<< <2<<< < <<  3<  <<  3<2 <X:Oo<< <<  3<  <2<<<<< <<  3<  <2<<<<< <2<<2 <<    3< < 3   2 <<22<<<< ",
"<2<<2<<.oOX 3< < <  3< <<2<<2<<<<2<<2 <<    3< < <  3<2<<+*Oo<<< <  3< <<2<<2<<< <  3< <<2<<2<<<8<<<< <2    3  <  2 <2<<<2 <2<<<",
"8<<<<<<X%@X 3  < <  3  <8<<<<<<28<<<< <2    3  < <  3 2<8r-Oo<<2 <  3  <8<<<<<<2 <  3  <8<<<<<<23 <<  <<<   << < 7  << <8<2<<<<2",
"3 <<  4oO@X2<< <<<  << <3 <<  <<3 <<  <<<   << <<<  <<2<3+-O. <<<<  << <3 <<  <<<<  << <3 <<  <<3 <<4  <3  3 <3     <  <3 2   <<",
"3 <<1 4%O@X  <3 3< 3 <3 3 <<4  <3 <<4  <3  3 <3 3< 3 <4 4+-O.  <3< 3 <3 3 <<4  <3< 3 <3 3 <<4  <3<<<4   3   3<<< 7  3   3   4  <",
"3<<<<3.O@@X 3<<<3<  3<<<3<<<43  3<<<4   3   3<<<3<  3<.<4r-O.3  3<  3<<<3<<<43  3<  3<<<3<<<43    <<< < 3   <<  2<  3   3< 243  ",
"  <<<3.O*@X2<<  3<  <<    <<<3<   <<< < 3   <<  3<  <<2 2+-Oo3< 3<  <<    <<<3< 3<  <<    <<<3< <<2<< < <   3< 22   3      4<3< ",
"<<2<<<.#*@X23< 2<<  3< 2<<2<<<< <<2<< < <   3< 2<<  3<22.r@Oo<< <<  3< 2<<2<<<< <<  3< 2<<2<<<<  24<< < <        <  3   <<2 <<< ",
" 2 <<<.#*&X2             24<<<<  24<< < <             2 2+@Oo<<          24<<<<          24<<<< 22 <  << <  3 3   3333  <3<   8<",
"22 < <X#;@+23 3      83 22 < <<<22 <  << <  3 3      84 X+;O.<<<     83 22 < <<<     83 22 < <<<< 4<   8   3      333   3<   3< ",
"<  <  X$*&+e         3< < 4<   8< 4<   8   3         3. .+@O.  8     3< < 4<   8     3< < 4<   8< 2<< <       3   3< <22<3  <<< ",
"< 2<  X=;&#e  3   3     < 2<< < < 2<< <       3   3   2 .+=O. <   3     < 2<< <   3     < 2<< < <42<   2  3     < 3  <2  32 <8< ",
"<42<  +=*>#e      3   3 <42<   2<42<   2  3       3   4 .0=OX  2  3   3 <42<   2  3   3 <42<   2<4 <    <    3 3< < <  <3 2<3   ",
"<42<2 O&,&#e 3 3  3 3 <<<4 <    <4 <    <    3 3  3 3 .<.0=Oo     3 3 <<<4 <      3 3 <<<4 <    3  <4  4 2<3   3< <    <<  < <<3",
"3  <2 O*;&#e   3 3  <<  3  <4  43  <4  4 2<3   3 3  <<2 4+=O0  4 3  <<  3  <4  4 3  <<  3  <4  48 2< <2  < 2 < < 2 <   <<  < 333",
"8  <2<O>;&#e2< <    33 28 2< <2 8 2< <2  < 2 < <    33224+=Oo<2     33 28 2< <2     33 28 2< <2 <22<<<<  3<    <  <<<   <3<33333"
};
