/* XPM */
static char *BROWNHUG[] = {
/* columns rows colors chars-per-pixel */
"64 128 17 1 ",
"  c #3F2F17",
". c #332B13",
"X c #4B371B",
"o c #533F1F",
"O c #2B230F",
"+ c #5F4323",
"@ c #373F27",
"# c #4F3B23",
"$ c #6B4727",
"% c #43331B",
"& c #3F472B",
"* c #272727",
"= c #1F170B",
"- c #533F2F",
"; c #232323",
": c #774F2B",
"> c #5B472B",
/* pixels */
"X. .    X  oX.   X     X  X.   ....+XX.o o.X .    OX   ..Oo .   ",
"X.X o XX+.oo +  XOoX XOO X . . . o  .o .X   . o.  .   . X.X.    ",
"XoXXX.oo X.oXXoXXOX.o        .  .X     O    .   X  .o.  oX  .XX ",
"++X+  o  +oX o XoX.X XoX   X XX X.o .Xo.X..X .  o        o  XoX ",
"oX.oX    X oXo o #+ XXXXX+X + o . oX.XXX   o .  X.X.X X XXO  o. ",
"XX.XXXXo.X@o .XX  O  X.XXoXXo o X oX X X.X oX .X o  X.X . O   oX",
"       .o #X o. ..  X + XX   o OX XoX .  X  oX X   + XX ..     X",
"  X X  oo  X . X .o X .X.oX     Xo. Xo. .X     X.X +o X  ..+    ",
" X  XXX+X.XX .X  XXX  X+Xo  X  Xo  X.X X.X .X.o X X   X. . X.X  ",
"o  XoX.X X   X    X  o XXX   X.. .X .Xo .   X X X..     .  X o  ",
"X    X   X X  .X o   X.X. X   X  .+ . XXX  XX   X X  X       X.X",
" XX   X oo X  X X   +      X X. X  oX      .XX. X.     X. XX .. ",
" X   oX XXXo X+XX  o . X X  +  X+  oX ..   XX  .o. X o     X X. ",
" oo XXX X .o.oo o  o X  XXX oo.XXX.X  o  X   .    X   +X o    X.",
".oX  X  .    o.XX  X   X  +X  o     X X  X .      +        o XXX",
"  X X   . X +X  .      X .+X  XX .  XX.    Xoo  . +o      .  X X",
"   o.  X X  o  XO . X..X X    X           XX.oX . XX. X.   XXXX ",
"  X  X.XXXo + X.   X    X  XX X         .       .X.o  XX      X ",
"XXoX   X+ o    Xo X       o$X.X   X o     +.+.  X   X      o  . ",
"X  XX  XX o ooXo  o  XX  XX     +   .X  oX   X      o oo . o..  ",
"X o+.o XX.$.$ .+. XX .o  o Xo  XX o.    X X. o .  .   $ ..   O  ",
"  X   .X XX.+ . . .   X  X X o+    .  o    ..  X .X X oX . #X.X ",
"X.oo . XX.o.+ . .XX..X        X        @..    .X. X X.:..  & .X.",
" .o+     X  XX . X X.X..X  X.XX           . .    .   XX % .# X  ",
"  X  -X o   XX.  oX   . OX XX X .      @O   ..  . XX.X     # O  ",
"  X o& O$o  +   .X .  @ ..  .+ .   . .o .   .O+.. .@  o   XXX ..",
"X X X# ++. XX   .  ...  O X  X  .       .. o . .      o  .o.    ",
"   X # X . X X         .   .+. X .  . XX  XXO X .     X   X.Oo. ",
"    X. o . XX    %  X   . . X   ..     . @.X XX.   X  Xo   . X..",
"     . X.X  oX..O   ..X  .X.X .o   X       X.   .    .    O X  X",
"     @ oOX  X .  X    X  .X.o  o        .X   .  .  X .X.. .  .. ",
".X   &        X  @ X  %   .  X  . . . %@O  .  @       X  X.X . .",
" XX .   .  XX   .XX  .  X    X .  .   .#. .   .X ..   X X. X  O.",
"   X.    X.  X . XX .    .X  .X  .    Oo .  X..oX   X . .O   . X",
"  XX oXX  X. X  Xo    . O  ..o. ..    . O .. .  .XX. .o.O. X .. ",
"OXo   .o @X          .. ..X..  .. ...  @O.  . .X   ..      . ...",
".  .  ..O X X   .  .X X .. .. o O .    ..     .... .X. .   .O  .",
" X .  ...         X  o  . X.X.X . . O.  O   ....     .X... ..  X",
"      .X   .   X X   +. .X  .@ .   .  .@.X      .O+O. X   .    .",
" .  . @  .      X. X .X . ...XX . .  XO O   .X.. O  .    .X.....",
"  . .  .  . X ..  o . X .X.   X.. .X....OX.XO. ...   +  .  . . .",
" XX.Oo   . . .Oo.X . .X . .X  .O ..    .    ..X..  O+$...  . ..#",
".XX.  XOX.XX    O    O.X. X  X X       .   X .o.X.O.#       .   ",
" X   X   .    ....     X. .X o   .    .@   .. . X...X.X O.X O . ",
" .X .  X. X#.  .   ... XO .X.o   .     X . X... O. .    O X . .o",
".#X .   .X        .. . X       o   .  .  X.O  ... .X .X.... .. .",
"    . . @     ..X .X X. . .o  Xo.    .. .   .. ..X XO.X  OX .X  ",
".   .# . o X . .#.X  X .X.X XX   ... .@  .O ..XX X. .X  . >. X  ",
" XX.   . o X.X. .$ X.  X X . .      . o X ..O X  ..     OO X XO.",
"   O   .. o X.   XX ..   X       X .  @. X  .X    O .X   O.X   .",
" XX * . .. o .  X.XX   O    X  X  .. .#.   O..X .X.  X . O  .  O",
"X ..     .XX ..   X . X.X... . X .    @O ... . OXX. ..  . . ..  ",
"O  .X    .     .. .. .  . .. O   O    .  . .  ..X  . .. O  . .  ",
"  ..%  o ..    .O  .X  ..  .  XO  ... .O   .. ..   .   X X.  .  ",
"X. O..   . . XO  .XO  ..  o.@   . ..    O  . X XO    .      .Oo ",
"O..  . .X   . O.  .... . OX..  .   .  ...  OXX. O.   X  O . . . ",
"   O  ..X    XO.       . . X...  . ..  O . O X ..O .X   ..     .",
"o. O.  Oo ..  O   ....   .  O O. . .   O   ..  ..O. o.  = X . ..",
"o. .. . .. X.  .X O... OX. .       .  X. .. .o  .O  .  . Oo. .O.",
" XX.. .X. X ...O. .  . OXX .+ .X .  .. .  . O. .O.X O  .=..  .. ",
"  . . . ..o   ..  . X. .. .X  ...X .    Oo O.. .O.  .   O OX .  ",
"   O .  =.  . XO.   X  . . X.X.X      % .......X..  O..       . ",
"   .X . . . .   O.   .  @..  ..   . %.  .  X.O .    .. .O .. .  ",
" ...XO.. ..  X......     .. *X.X    . X... .  XO    X..X..X. .X ",
" . .   .. O  ... ...      .  .. . @. ... XO@OX   .X. XX.* X  .  ",
" .. ...O     .;    O.  .X  .  ... .@   .   ;.  .XO X.X  *X. .  .",
".  O... . X   . . X.  ..# X..@  .  %.  .   . .   O XX . . O . OO",
"..  .. ....  ....  O. ...O X.   . .X.. . O.X. X.  .  .. ..  .  O",
". OO. ..  .X @ ... . . .@   .  O  @@  X.  @X.  ...     @XO.... .",
".OO.@O.. .    ;.X   OO  .  .X@  . O   .O .X..  OXO  ..  @.X . O.",
"XO..XX. X.. . . ...  .      X o  .@ ....X  . .O .   . .  . .. ..",
"  . .o. . - @.    .. O X# X    X&& @     #       O  . @.  . O ..",
"X. .    X  oX.   X     X  X.   ....+XX.o o.X .    OX   ..Oo .   ",
"X.X o XX+.oo +  XOoX XOO X . . . o  .o .X   . o.  .   . X.X.    ",
"XoXXX.oo X.oXXoXXOX.o        .  .X     O    .   X  .o.  oX  .XX ",
"++X+  o  +oX o XoX.X XoX   X XX X.o .Xo.X..X .  o        o  XoX ",
"oX.oX    X oXo o #+ XXXXX+X + o . oX.XXX   o .  X.X.X X XXO  o. ",
"XX.XXXXo.X@o .XX  O  X.XXoXXo o X oX X X.X oX .X o  X.X . O   oX",
"       .o #X o. ..  X + XX   o OX XoX .  X  oX X   + XX ..     X",
"  X X  oo  X . X .o X .X.oX     Xo. Xo. .X     X.X +o X  ..+    ",
" X  XXX+X.XX .X  XXX  X+Xo  X  Xo  X.X X.X .X.o X X   X. . X.X  ",
"o  XoX.X X   X    X  o XXX   X.. .X .Xo .   X X X..     .  X o  ",
"X    X   X X  .X o   X.X. X   X  .+ . XXX  XX   X X  X       X.X",
" XX   X oo X  X X   +      X X. X  oX      .XX. X.     X. XX .. ",
" X   oX XXXo X+XX  o . X X  +  X+  oX ..   XX  .o. X o     X X. ",
" oo XXX X .o.oo o  o X  XXX oo.XXX.X  o  X   .    X   +X o    X.",
".oX  X  .    o.XX  X   X  +X  o     X X  X .      +        o XXX",
"  X X   . X +X  .      X .+X  XX .  XX.    Xoo  . +o      .  X X",
"   o.  X X  o  XO . X..X X    X           XX.oX . XX. X.   XXXX ",
"  X  X.XXXo + X.   X    X  XX X         .       .X.o  XX      X ",
"XXoX   X+ o    Xo X       o$X.X   X o     +.+.  X   X      o  . ",
"X  XX  XX o ooXo  o  XX  XX     +   .X  oX   X      o oo . o..  ",
"X o+.o XX.$.$ .+. XX .o  o Xo  XX o.    X X. o .  .   $ ..   O  ",
"  X   .X XX.+ . . .   X  X X o+    .  o    ..  X .X X oX . #X.X ",
"X.oo . XX.o.+ . .XX..X        X        @..    .X. X X.:..  & .X.",
" .o+     X  XX . X X.X..X  X.XX           . .    .   XX % .# X  ",
"  X  -X o   XX.  oX   . OX XX X .      @O   ..  . XX.X     # O  ",
"  X o& O$o  +   .X .  @ ..  .+ .   . .o .   .O+.. .@  o   XXX ..",
"X X X# ++. XX   .  ...  O X  X  .       .. o . .      o  .o.    ",
"   X # X . X X         .   .+. X .  . XX  XXO X .     X   X.Oo. ",
"    X. o . XX    %  X   . . X   ..     . @.X XX.   X  Xo   . X..",
"     . X.X  oX..O   ..X  .X.X .o   X       X.   .    .    O X  X",
"     @ oOX  X .  X    X  .X.o  o        .X   .  .  X .X.. .  .. ",
".X   &        X  @ X  %   .  X  . . . %@O  .  @       X  X.X . .",
" XX .   .  XX   .XX  .  X    X .  .   .#. .   .X ..   X X. X  O.",
"   X.    X.  X . XX .    .X  .X  .    Oo .  X..oX   X . .O   . X",
"  XX oXX  X. X  Xo    . O  ..o. ..    . O .. .  .XX. .o.O. X .. ",
"OXo   .o @X          .. ..X..  .. ...  @O.  . .X   ..      . ...",
".  .  ..O X X   .  .X X .. .. o O .    ..     .... .X. .   .O  .",
" X .  ...         X  o  . X.X.X . . O.  O   ....     .X... ..  X",
"      .X   .   X X   +. .X  .@ .   .  .@.X      .O+O. X   .    .",
" .  . @  .      X. X .X . ...XX . .  XO O   .X.. O  .    .X.....",
"  . .  .  . X ..  o . X .X.   X.. .X....OX.XO. ...   +  .  . . .",
" XX.Oo   . . .Oo.X . .X . .X  .O ..    .    ..X..  O+$...  . ..#",
".XX.  XOX.XX    O    O.X. X  X X       .   X .o.X.O.#       .   ",
" X   X   .    ....     X. .X o   .    .@   .. . X...X.X O.X O . ",
" .X .  X. X#.  .   ... XO .X.o   .     X . X... O. .    O X . .o",
".#X .   .X        .. . X       o   .  .  X.O  ... .X .X.... .. .",
"    . . @     ..X .X X. . .o  Xo.    .. .   .. ..X XO.X  OX .X  ",
".   .# . o X . .#.X  X .X.X XX   ... .@  .O ..XX X. .X  . >. X  ",
" XX.   . o X.X. .$ X.  X X . .      . o X ..O X  ..     OO X XO.",
"   O   .. o X.   XX ..   X       X .  @. X  .X    O .X   O.X   .",
" XX * . .. o .  X.XX   O    X  X  .. .#.   O..X .X.  X . O  .  O",
"X ..     .XX ..   X . X.X... . X .    @O ... . OXX. ..  . . ..  ",
"O  .X    .     .. .. .  . .. O   O    .  . .  ..X  . .. O  . .  ",
"  ..%  o ..    .O  .X  ..  .  XO  ... .O   .. ..   .   X X.  .  ",
"X. O..   . . XO  .XO  ..  o.@   . ..    O  . X XO    .      .Oo ",
"O..  . .X   . O.  .... . OX..  .   .  ...  OXX. O.   X  O . . . "
};
