/* XPM */
static char *BSTONE2[] = {
/* columns rows colors chars-per-pixel */
"64 128 25 1 ",
"  c #4F3B23",
". c #473323",
"X c #43331B",
"o c #332B13",
"O c #5B472B",
"+ c #533F2F",
"@ c #3F2B1B",
"# c #4B371B",
"$ c #5F4323",
"% c #6B4727",
"& c #372313",
"* c #533F1F",
"= c #675333",
"- c #5F4B37",
"; c #3F2F17",
": c #2F371F",
"> c #2B230F",
", c #774F2B",
"< c #6F5743",
"1 c #775F3F",
"2 c #4F3B2B",
"3 c #1F170B",
"4 c #232B0F",
"5 c #4F3B27",
"6 c #432F1B",
/* pixels */
"o@ooo@XX.+-   # .#*#*.oo@@oo>>>&o&>>>33@o@oO+ O   +O+OO.oooooo@o",
"OOO   Xo@ +.## . *#.XXooooX .OOO$$ +#X>>>X:+OO+ + + ++..o&X  OOO",
"OO #$ Xooo@@ooooo@@@;oo>>oO%%$$O ++$%@&@o@@;.;@@@@@@@@@@.@.%%OOO",
" .###%ooX.X.XX.#  =%%,$.@o%$+  #  X $.oX. +++  ++ XX...X@@X%  + ",
".##XX%oX.   O +OO .. O%%Xo$X.O.##XXX @X. =1O++OO--+O OO#ooX  + +",
"##XXX Xo#***#.. +O . . %X@ .XX##*.XX.@.X%=-OO++OOOOOO+ #XoXO#X..",
".Xoo.X#o# # . X+O--O  +OX@XX.#.####X.@: OO +.O+OO$O++O$#.oX #X#X",
"XXXX:X @. $OOO +O++++ $*#@.X...X@@oooX X  +.+.OO-OO++O .o&X*XXXX",
"XoX   +@X $+ O=OOOO-+O #XoXoo&&&&>>XooX @XXX. +++O=+.   @&X*XXXo",
"oX;@@@@oX.O++++=   ++ XX@@@ooo&o>&ooo;.&&XooXX. #.++++#X.oX#XooX",
"X.O X#XXoX +    X..&&@o@.+O%%,O &#%%,,%%OXooo&@ooo@@XX@:.@oooXoo",
"@ +O  % oo@;..&   %%O.o O .  *%X&#%$OO O%$XXo  @Xo@oo>>o@XoooXoo",
"o. O O %XoX+-=%OOOOO= ; +OO $ $.&#$  O.  =.XX +==%%O#o>X. #XXXoo",
"X.+ O+$..@.+O+O++O OO=.X #. * *@&*$    + %.o.O%O+  O%Xo*%$ *  X&",
"X.O+O OO%..+O+OO*  ++%.X #.$*  @&. %$   #Xoo %  $#  OXo#$$** #o&",
"o#$   O*  @ +OO+  O  O;X*.X# $+.@.O $*.*%oo@+OO#O XO$Xo.*** ##X&",
"X*#. *$ O oX     X+  $@X.##*# +.@.+  *O.#$o@ +O   $O XoX *$$ #X>",
"X.#  $ X@X@Xo$  OOO.$ oX. #. ...@.  #  .  .@ OO.OXX  XoX%$*#$#o>",
"......#O%O@o.*# $  $* oX  .O.  .@.+X#$$ $XoX#$$O ##$#Xo##$$  Xo&",
"X =+ . #  oo.O.$$ # XXoX  O++ O.@.  **    X.#$*  $$**Xo# $*%$#@o",
" +OO= +  OXo. ..# @@oo>.#.+  =O.&; **$  +#Xo*  $ O$##X&X # #XX@&",
" +O+O- .# X>@@@@o@@X*#&o  #. +O.&@.*#X%..;oo **  ####X&X . ... o",
"X.+ -+O+.Xo&&ooX# O,= X>&@@@@..@>>&&&&oo&>>>oXXXXXXXXXoX@@X  Xo>",
"&;;;;;;XoXX#.## %=OO= @>>&&&&o@Xo&&&&&oo&>>>o;...;o@.#X@o&@@@&o&",
"OO++OOXoX $$$%$ . + + @XX ##.X+ **###OOO.X&oOO,<=% $O$O+@X+OO+O+",
"+OO.-= o#$  $   O++.  @.%$  O## *## .. % @@$=% + # #. . @ -1=O++",
"+OO#+= oX*##.. .+-OO= @.  X$##**$#...+O+O@.%% #.*# * .  @ =%+O-O",
"O+O#+OXoX$$   +++OO-+ @O.#  #***   # +   @.= .XX.   $ .X@ OOO+O+",
" O+ . XoX O +++++O+ + @O.   $$  .   .+O++. O  .X#.X#OX %@XO # +O",
"O    .XoXOOO+ ++   O+X@ O %*$ .X.X+ +=O-2@ -+ +..  #.%OOoo #   #",
".  ##..oXOOO+ . +  +.@&@O+ #... .X.+ OO-.@XO+ ... ##  O$oo.#.+  ",
"oo@XX@o&..O-O ++   .#&>>@@oo@@X@X@@@X..@XX ++ +  .. $  #&o@@@@@X",
"&ooooo>>X..25.. .+#o@>>>>>>>o@@@;;@@@@o@@+OO  O ++O $.@o>>>oo&oo",
"$$$** o>@&o@o&&&&o&&o>>>>>oX.+O--==++ X&o +......+...@&>>ooX. $$",
"++OO=Oo>>&&&o>&&oo@:X@o>>>@ O+O+O+O-  .&oo@@o&o@@@@o&&&&>&@.O + ",
"+++.+=X&o##XXXXX#  + .XXX&oX++O++ O+O .@X ..Xo@X +# ##X.@ooX  O+",
"++=X =XoX OO$  $     $%$@o@ ++++  =   .& +OO$  O++   $%OXXoX +++",
" +  .-XoXO O#O$ *  #$$.%+&X  +     +  @; O+O.OO+   .$$#%+ ;.XO+ ",
"     .XoX*# %## X$ $**#  @:X  . .X ++Xo; + O=.  X$*$ *#. X:@..  ",
"  X ++oo#*$ #.  $  *## X &@ .X.XX    Xo@ +O+    $** ## XXXoooX.X",
":@. +OXo #$ #O   **#Xooooo@...X@X    XoX  O+.$  ** #XooXoo&>&.::",
"@oX@  XooX#   ####ooXooX XX   .@@oX  Xoo:X   +...#ooo&ooooo@@.X@",
"@o.oooXX@@oXXooooooXoo@+===<==OXooX:::o@o@@X.oo@@ooo>&o %%%==%OX",
"@oo&>&ooo&&&o@ooooooo&.,%O+  O=.@@@oo@@@oo&oooo@oooooo#%%$   $%.",
"XXXXXX. .oXX+==%%O XXo.%+ +X $%.X  .X.#+#oXX*%%%%$*XXo#% .+. O%.",
"XXX   $%%@X.=OOO -, XoX    O* %..  O+ $%,;X.% $$#$% XoX . +-++%#",
"X@X O  $,oo.O #OX-+%X&XO  O $ O; X +O  $=@o#O #$X$*%XoXO++-+-+O.",
":...O+  %oo O*## X+%X&XoO. O   @@   O   %oo $*###X*%Xo.XO O-+OO ",
"X  ++O+OX&o $$*#   %XoX.  # O O@X. + $ OX&o*$$ #** %X@ +O+ +OO-.",
"   +OO+.Ooo#$$X    %XoX.##% ..#oXXX#$O .Ooo#$$X* **%.: +++=+  .X",
"   OXO++O@o# %#X #%%XoX O*  ## ooXX*X   $oo#*%#X #%=.  O-O+++ +X",
":XX =OO++@@#$% % X$%#o# OO  $*$o>oX#%$$  o@#$% % XO%&@+O--++OO-X",
"XXX  OO$.o@.  $  $$OX&o#  $ # .oooX##* #o>o#**$**$OO@X  ++O  -O ",
"XXX.++O$#o@; .  ** .X>o;@..@@@&&Xoo;....&>o.*#**  + oo.+O$X .O-o",
"4:X@  X@@&&o@@@ooo@o&>>>>&o&>>>>&>>>oo@&>&XX.XXXX.  oo@...Xo@.XX",
":@@@@..@&&&@..XXX.X.o@@o>oXooooooXooooXXoXooo;....&&:;@@ooo@@@@o",
"O+ . OOO.&@@$$===% OOOO.oo# * ****###$$$#o.o$$=,,=+OOOO oX ++   ",
"O+  .. %.@@$=%* #. ..+ #oXO=% *# ## ## % @@$=%  ..+  + .@ O1=+O+",
"%$+ . O .@.=% .# .  + O @ =%+ $ $#### O O@.=% ## .+++  #o ==  OO",
"OO+.. . .@.= .XX. +OOO+.@ $OO+ . * #.   +@X% .XX.  +O+#oo OOO   ",
"+++ .   .@.$ .#X.. +O +.oo$ .  O.   .++ O@XO+#.X#.X O .%oXO #  O",
" .   %*$.oX$ **#. ++.=O.o@ #+  .#X  +=+-.oXO+* .#    %$$o@ .   .",
"#X. #* OX&.  ##..+..  O.o;X# +  .X.  ++2;oX++ ..# #. *OOoXX.# + ",
"ooo@o@@@@@.    .... $  .ooo.;o;Xoo&ooo@ooX.+   .#.. O  .o@@X@oXX",
"ooo&o&@o>@ .  # .*#**+$.oooooo@@o@@oooo>o OO+ O.  OOO @o>>>&&o@.",
"OO.$ ..:o@@@@@@..*.....@ooX  OOO$$$+* ooo.........+..@&&>>oX# OO",
"O-O$%, @oo.o&@oooo@@o@@@@oX% #   +O$=Oooo;&@@@@@@@@@@oo&ooX#O+O+",
"+.. +%#oXO%,%,$ ##.X##..@&X$XX.## *. =;:X++  X@ ++ + .XXXXoX XO ",
"..X+. X&.,OO.##OO X   O @&X* XX##.%XX%;X.+--O++-OO++ O%$oXoX   +",
" X.#XXX&#$*# .O +O .  + @@ ##X###.X#XO@:XOOO OOOOO+ OO#%+.o.X  .",
".#X. XX&## #.  OOO++  ++@XOX#####X##.XoX + +%  O %OO++## oooXXX#",
"X##XX.@@o  O + OO+--=O*#&X.#..X.X.X#. @: +O  .+O-OOO . XXX>>ooXo",
"oo@Xo&o&o  O +++--=OOO .>>o@.. + .#X.@X   O .O++++O Xo@oo&>&Xo>>",
">..;.XXXoo.    +OOO+O+ @&ooo@@.. XXoooX @ #  +  #.XXX@oX.XXXXXoo",
"> -<%%$XX>&@..@... +..@@@XXX..o&o&&>>oXX@oo@X..@@@@ooo@+==%=%=$o",
">,O O # #&@+%%O.#..@6@o@.%O  * XooX>>ooo&&&&o&.;@@o&>&.=%O  *$=;",
">%+OO  O#o.==O.+O%%O.@oXOOO.#$#XoXoXXX. .XXX ====O .Xo % . X*$%.",
">O+ ++#..@.=O OO++O+ .oX% O * $XXoX   O==.o#%+OO O= XoX*###$  %o",
">O ++ ...@+-O  O$$ +#.@*.  $$$#XXoX $ +O,X&#$ .$X$ =XoX$ #$#$ $o",
">$*O.. #X@. +++O#  O @@O*  $$ + @&X.$* *%o& O+ # . =XoX@$#*$  *o",
">*$..## .@   +O+.++  oX O$##$ + X&X  $ OXo& OO+.++ %XoX. *# $*Oo",
"> # X  #.@ . #$,  OXXoXX@# .+O X& ..$$ .OXo.OOX   *%XoX###% ###o",
">   .O# .oX  $$O ..$Xo#%%$.... XoXX X*  $X&#*%#X #%%XoX $** ## o",
">++   .#.oX.XO.$  $ $o#.##  ++O &oX.%$$  o&.$%*% X$%#o# $$* $ O@",
">O+    ..&>&@XX *+##Xo# $. O% +X&oX##* .+o>#* $  O$$Xo##  $ #$ &",
">O-+O-+ .&>o@@@@@X#X@X# X  O +O oXX#*# .Xo&# #*   *#XoX# OX . -@",
">.+    &&o.$=%#.@@@@@@X###  ++  o>ooXX@o@&oXXXXXXXX.X&o@@  XXXX@",
"X .@@@@&&X.=O$%=$+.+ ...ooo@;@@@oo&&&@@oo&o......;.;oo@@@@&.&@.@",
"+O  ++ #X@.#*## . %=OO$*X&X*  + **###OOO.XooOO,<=% $O$O+@X+OO+O+",
"O++ ++O%$@.X#  +++OX.+.#oo$%.**#*## .. % @@$=% + # #. . @ -1=O++",
"-++# +O.%@.$X@  +OOO+  Ooo%$**$*$#...+O+O@.%% #.*# * .  ; =%+O-O",
"O+O# + # @XO.+ O-OOO+++ @o$ $**#   # +   @.= .XX.   $ .X; OOO+O+",
"  + . $ #@. + -O ++ O++ oo$ #  $.   .+O++@ O  .X#.X#OX %@XO # +O",
" X      O@. +++   ++OOOO@@ #*  ..X+ +=O-+@ -+ +..  #.%OOoo #   #",
".X  # O$ @.++..  O +O+OO;XX#.  +.X.+ OO- @XO+ ... ##  O$oX.#.+  ",
"oo@XX@@o@oXOO++   +O-+  X@oX@@XXXX@XXXX@XX ++ +  .. $  #oXXXX@XX",
"oooo@&>>>o@-O O+ ++++$O#o>>&o@;;;;@@@@o&o+O  +.+   # X@o>&o@@o@@",
"$$**#X>>>&4@@@  @@;@@@#o>>X  OO--OO+O+X&o +...+ ++.#XXo@>XX .$$$",
"++ O%Xo>>&@oo@o@@o&&oo&>>XX%%OOOO+++-O &oo@@oo@@;.;oooo&o@O%%OOO",
"O+  O :>XX##* +.#XXXX.#X&oX%+O+++ +++=X@ XX XXX.++%%%,$ XX%$++O+",
"++  OX@.#%= * O $O O $$#o@ ++O++  +  <X&++++$ +OO+.. $%=.@OX.-++",
"++ X X@.%=OO$   * $$$* .@. O         O @++++. .+ $..###%;X+XX++ ",
" + XX:@.$$# #$   #  *$$ &; O+  ..XXX+ +@ + O  . $$$$ # O;: XX + ",
"XXXX  &@X# # .O $  # $  o; O  ...X  @ +; +OOOO. *### *$ oX.X.+  ",
"Xoo&@@oo@oo.#.   $% #  .@: O  X@XX + X @ +O+.$%O** $#$ #oXXo@XXX",
">..X XXXX&>oXo@@....##;@ @...;;@@X.@@@o&  O  + %.#X###Xooooo;.@@",
">.=%,,%%OXo>&o&&&&&o@oo>>>>&&oo>&@&.. ..@X   ##.ooo;oo>&X*$%%%O@",
"@.%$$$.$%OXo@.Xoooooo>oXoX@o&@:>@++O+ =+Xooo@..X# %%$XXo$#.   %o",
":#$**O.  %Xo.+O%%%%$#ooX + .XXXoX++O.O#%X@&X$%%$$$$$= oo OO+O $o",
"o $   #**%Xo -=O++ $%X@ =O++* Xo.+O+O $#.@o.  $  $#$$=Xo  +O++ o",
"@. %O ###Xoo % +O++#OXo.OO++*#@o  O+O $$%Xo#  $$* **+%X@+++-O++@",
": O O+. %oo@ $$#O XO$oo#    #..oX O+  O  #o# $$ **$* O..+  ++-O&",
": O+++O..$oo *$ .#$$ X@X  $$ .Xo.+   *O O#oX ###*X   O& +  + OO@",
"X$$O ++.  .o*$$.OXX  XoX%$ #O.ooX..* O X@X&Xo$ *$$$.O+  +O    .o",
"@OO  -O+OX@o#$$$ ##$#Xo..$$  Xo&X.#####$%Ooo#*#*$  O +& OO O++ o",
".+++++++++.o#$   $$* Xo# O %$#o>o#%**# .  @o#$#$$ .   &+OOO+++-@",
":++++-OOO X@   $ $$.#X&X . #XXooX#$$%#   $X&#*##*#.XoX&   +. =-&",
"@.O   <OO oX    *#..#XoX #*###XoX#   $### X>o#XX@@..&o@+O##..OO@",
"X@@@@@&.@&>X@XXXXXXXXXXXoooXXo>&XX##$#$*.Xo>@.o@.+-<, &X  #XX +o",
"o.XX:@  @.>&o;...;@@;;@o>>&ooo&oXooooooXooooo.# %=--=+Xoo@oo@@@o",
"O+ . OOO @&@$$===% OOOO X&# * **$*** *o&X O$$%$ .++ ++.o@+   X  ",
"O+  .. %+@@$=%* #. ..+  X@O=% *##  #$%Xo.O  $  .O.  + @X%O+OO +O",
"%$+ . O O@.=% .# .  + O$X&=%+ $ #  # %XoX+. .###.O++% o# + O..+O",
"OO+.. . +@.= .XX. +OOO+#X $OO+ . * # O.o.OO  .##.  O+ o$. ++.  +",
"+++ .   +@.$ .#X.. +O +=Xo$ .  O.$  .+X@ OO++*.. O# + o$.++ $O +",
" .   %*$.&X$ **#. ++.=OO.@ #+  .$   +  & -OO+#  #..O+Xo#O % $ .X",
"#X. #* OX&.  ##..+..  OO@XX# +  . ..   @ -OO++.. .#. XoX$  .## .",
"ooo@o@ooo&.    .... $  .X@o.XoXXo@o@@X@@ OOO .  #..O Xo@@@@@@ooo"
};
