/* XPM */
static char *CEMENT8[] = {
/* columns rows colors chars-per-pixel */
"64 128 115 2 ",
"   c black",
".  c #BFA78F",
"X  c #7B7F63",
"o  c #AF977F",
"O  c #9F876F",
"+  c #474F33",
"@  c #6F7357",
"#  c #A78F77",
"$  c #070707",
"%  c #B7B7B7",
"&  c #5B6347",
"*  c #B79F87",
"=  c gray75",
"-  c #67533F",
";  c #836B57",
":  c #8B8B8B",
">  c #937B63",
",  c #9F8363",
"<  c #3F472B",
"1  c #775F4B",
"2  c #373F27",
"3  c #9B7F6B",
"4  c #836B4B",
"5  c #0B0B0B",
"6  c #2B230F",
"7  c #8F7753",
"8  c #1F170B",
"9  c gray78",
"0  c #170F07",
"q  c #53573B",
"w  c #332B13",
"e  c #979797",
"r  c #2F2F2F",
"t  c #676B4F",
"y  c #1B1B1B",
"u  c #775F3F",
"i  c #2F1B0B",
"p  c #574333",
"a  c #131313",
"s  c LightGray",
"d  c #6F6F6F",
"f  c #675333",
"g  c #533F2F",
"h  c #473323",
"j  c #4F3B2B",
"k  c #2F371F",
"l  c #7B634F",
"z  c #939393",
"x  c gray67",
"c  c gray86",
"v  c #CBCBCB",
"b  c #43331B",
"n  c #232323",
"m  c #838383",
"M  c #6F5743",
"N  c #3F2F17",
"B  c #E7E7E7",
"V  c #8F5F37",
"C  c #FFFF8F",
"Z  c #4B371B",
"A  c #533F1F",
"S  c #FFE3D3",
"D  c #232B0F",
"F  c #3F2B1B",
"G  c #FFFFB3",
"H  c #FFC79B",
"J  c gray42",
"K  c gray70",
"L  c #EBDB57",
"P  c #FFEBDB",
"I  c gray50",
"U  c #9F9F9F",
"Y  c gray28",
"T  c gray34",
"R  c #272727",
"E  c #373737",
"W  c #A7A7A7",
"Q  c #5F4B37",
"!  c #4F3B23",
"~  c #5B5B5B",
"^  c #8B735B",
"/  c #FFD7BB",
"(  c #777777",
")  c #5F4323",
"_  c #774F2B",
"`  c #FFBB93",
"'  c #171F07",
"]  c #372313",
"[  c #FFCFB3",
"{  c gray39",
"}  c #DFDFDF",
"|  c #AF7B1F",
" . c #4B4B4B",
".. c #D7BB43",
"X. c #6B4727",
"o. c #FFFF73",
"O. c #875733",
"+. c #4F3B27",
"@. c gray31",
"#. c #FFDBC7",
"$. c #13230B",
"%. c #E79B6B",
"&. c #A36B3F",
"*. c #C39B2F",
"=. c #CF8353",
"-. c #7F532F",
";. c #0B1707",
":. c #B37347",
">. c #EFA373",
",. c #DF9363",
"<. c #EFEFEF",
"1. c #17330F",
"2. c #434343",
"3. c #0F1700",
"4. c #9B633B",
/* pixels */
"! y & & @ I I X X X z . I @ O : I m q i ! C 8   $ 0   + H 2 $ $ $   O.S +   0 0   N o.;   a 0     L + + > z . . . * * * # O O . ",
"< a 6 w q & @ @ @ X o 7 N 2 @ X @ t < i 5 L *   $ a $   7 H   $ $ 0 0 . L   $ 0     | G N $ $ $   O.O g 1 X : # # O O O > 4 > % ",
"M 0 8 < q - @ @ @ X X & 2 + @ @ @ & 2 i $ Z P 2   a 0     L 3   0 0   N o.;   $   0 0 >.G   $ $ 0 0 , g @ ; 3 O # # # O > @ 4 % ",
"1 0 8 < q & @ @ @ X @ q + & @ @ @ @ + i 5   + H 2 $ $ $   O.S +   0 0   | G N     8   Z C 3   0 0   w g 1 X O O # # O o o 4 @ . ",
"1 y 1.< & @ X @ @ @ @ & & & X @ & X T i 5 $   7 H   $ $ 0 0 . L   $ 0 0 0 >.G w   a 0 $ O.S +   0 0 $ b & X # O # O O O O > > o ",
"; 8 w < 1 O X @ t & u 7 @ & & & @ O - i 5 0     L 3   0 0   N o.;   $ 8   Z C V   a 0     . L   $ 0 $ r f X o o o O O 3 O # O . ",
"( 8 w + 3 * O 4 - - 3 # @ & & & X O - i $ $ $   O.S +   0 0   | G N   a 0 $ O.C 6   $ 0   N o.;   $ $ b & ; ; # . . # O O O > . ",
"l y b - O o 3 @ q @ : O @ @ @ @ X O + i $ $ $ 0 0 . L   $ 0 0 0 >.G w a 0     ..o f   0 $   | G N   $ ! l u M # = . . o > @ X . ",
"; y w & O O @ t t 7 O X @ @ @ @ X X + 8 -   0 0   N o.;   $ 8   Z C V   $ 0   ) G 7 2 $ 0 0 0 >.G w $ ! l 3 # * . . . o > u 4 . ",
"l y + @ , 7 4 4 4 X X X @ @ & @ ; X + i # +   0 0   | G N   a 0 $ O.C f   0 $ $ =.H .   0 8   Z C V $ b 1 O . . o o o . # ; X . ",
"( 8 & @ @ @ 7 @ & @ O X @ & & 1 @ X - i ; L   $ 0 0 0 >.G w a 0     ..G 2 $ 0 $ 0 &.G f   a 0 $ O.C 8 6 & o . o . . . * O 4 ; . ",
"l 8 @ @ @ @ @ & & @ 7 X @ 1 1 1 @ ; p i 8 o.;   $ 8   Z C V   $ 0   ) H .   0 0   $ L .   a 0     ..1 5 f . . o . . % * 3 ; ; . ",
"l 6 X @ ; X @ & 1 @ @ @ @ & & & & & + i $ | G N   a 0 $ O.C f   0 $ $ &.G f   0     w H .   $ 0   ) O $ g . . o . % % o O X @ . ",
"; w & @ X X @ 1 @ 1 & & & q + + + - p 6 5 0 >.G w a 0     ..G 2 $ 0 $ $ L .   $ $ 0   &.G f   0 $ $ -.5 + . . * . . . . > 4 X . ",
"; 6 & & X @ & @ X @ & + g + + + + & + i 0   Z C V   $ 0   ) H .   0 0   w H . 0 $ 8   0 %.G 2 $ 0 $ 5 5 - . . * * . . . > 7 > . ",
"; y & @ @ & @ O X @ @ & g + q q & & + i 5 0 $ O.C f   0 $ $ &.G f   0 0   &.G 7   $.0   N H .   0 0 $ 0 1 % % o o . . . O 7 X . ",
"1 6 & & @ ; X X X X X @ & q q q q & + i 5 0     ..G 2 $ 0 $ $ L .   $ 8   0 %.C 0 0 0 $   &.G f   0 $ 6 X = . o o . . . O X X . ",
"( 8 g + @ X X X X X X @ & & & & + @ - i $ $ 0   ) H .   0 0   w H . 0 $.0   N o.7   0 0   $ L .   $ $ R ; . . . . . . o O > > % ",
"@.8 + + & X X X X X X & + & @ & q X ~ i b   0 $ $ &.G f   0 0   &.G 7 0 0 $   &.H )   a $   w H . 0 $ 0 - * . . . . % o O > > . ",
" .8 q + & @ , X 7 @ @ & & t @ & & 3 ~ 6 O 2 $ 0 $ $ L .   $ 8   0 %.C   0 0   0 ..L 6   0 0   &.G 7 $ 2 @ # * . . % . * O > > . ",
"< 8 < q @ X @ @ @ @ t t & @ X @ & X - i , .   0 0   w H . 0 $.0   N o.|   a $   8 L *   0 8   0 %.C 5 b 3 * * * . . . . # > > = ",
"+ 8 w - X @ & @ X X @ & & @ X @ & X + 8 X.G f   0 0   &.G 7 0 0 $   &.L 6   0 0   X.G +   $.0   N o.p 2 O . o o . . . . o 4 4 . ",
"+ 6 b & @ @ @ @ @ 1 & & & @ X @ & X - i $ L .   $ 8   0 %.C   0 0   0 L *   0 0   $ , . 0 0 0 $   &., 2 o % o O . . . . o 4 4 = ",
"T 6 w & & @ @ @ & q q - & O # @ & X - 6 $ w H . 0 $.0   N o.|   a $   X.G +   0   $ $ ...   0 0   0 O.+ . = * o o . . . o @ u = ",
"d w 2 & 4 @ & + - & + g @ o O 4 @ X - i 5   &.G 7 0 0 $   &.L 6   0 0 $ , . 0     0   _ C )   a $   0 g . = % . * o o . o 4 ; s ",
"( w b @ 3 & < + X : & < & O X ; X X - i 0   0 %.C   0 0   0 L *   0 0 $ $ ... 0   0 0 0 L L 6   0 0 $ g e = = % . o o o O > O s ",
"J w g @ @ - g - o . ; & @ @ 1 X # 3 p i ;.0   N o.)   a $   X.G +   0 0   _ C -   0 0   X.L *   0 0 $ + * = . . . . O O O , o s ",
"d r + 1 & - & 1 X X ; @ X @ & X o O + i 5 0 $   &.L 6   0 0 $ , . 0   0 0 0 L . r   $ $   X.G +   0 $ g o = . = 9 . o O , > * P ",
"( r q & @ @ @ & + - 1 @ 3 X @ O e O + i $ 0 0   0 L *   0 0 $ $ ... 0 0 0   X.B # r   0 $ $ , . 0   $ 2 o = . . 9 . o > > > . B ",
"; w < ; O X @ & + & @ & @ 3 O # o O - i w   a $   X.G +   0 0   _ C -   $ $   1 S 7 0 $ 0 $ $ ... 0 $ b # = . . 9 9 . > 4 4 o B ",
"2 r < @ ; @ X @ & & & @ X O O # # o T i V 6   0 0 $ , . 0   0 0 0 L . w   0 $   @ C 7   0 0   _ C - $ - * = = . = = . o > u 3 P ",
"; w q X X @ @ @ @ & & @ 3 X X o * o - 6 V *   0 0 $ $ ... 0 0 0   X.B H 0 $ 0     *.H a   0 0 0 L . $ g # = = . . . . o O 4 > S ",
"I r @ o X & u ; @ - & ; ; @ O . . z + i F G +   0 0   _ C -   $ $   1 C 7   0 0   0 ` o   0 0   X.B k p o = = . . . . . o 4 > s ",
"; r X O @ f t 4 @ & u @ X O o e : : T N $ , . 0   0 0 0 L . w   0 $   *.H a   0     A P >   $ $   1 # g o = = = . . . . O u X [ ",
"d w @ X @ t @ @ f f & 4 O o o O 3 o ~ 6 $ $ ... 0 0 0   X.B H 0 $ 0   0 ` o   0   0   # G w   0 $   < p . = . . . . % . o @ 4 . ",
"d w @ O O O X & + + + 1 o * o 3 X o ; N 5   _ C -   $ $   1 C 7   0 0   A P >   $ 0   w L H 0 $ 0   $ p * = . . . . . o O u l = ",
"d 6 X e # @ & 1 @ 1 - 1 X X X X X . J i 5 0 0 L . w   0 $   *.H a   0 0   # G 2   0 0   ) C 7   0 0 $ + * = . . 9 . * O 7 u > [ ",
"l y O * 3 - + & @ 1 & @ X ; @ @ : e ~ N 5 0   X.B H 0 $ 0   0 ` o   0 0   w L .     0 $   *.H a   0 $ p * = . . 9 9 . # O 7 > . ",
"- y X O @ f u O # @ ; : : X @ X O o T i $ $ $   1 C 7   0 0   A P >   0 0   ) C #   $ 0 0 0 ` o   0 $ - . = . = s . o % % > 1 O ",
"+ 8 X O X u ; * * ; @ O o O X X O o - i 8   0 $   *.H a   0 0   # G 2   0 $   7 / # $ $ 0   A P >   $ - . = . 9 9 . o . . ; & O ",
"p 6 : e @ + & e % O @ O . * ; 1 O . + i , 0 $ 0   0 ` o   0 0   w L .   $ 0 0 $ H P u   0 0   # G 2 $ - . 9 9 9 9 . o . . 4 & O ",
"+ 6 e . ; + @ . % : & X . e @ & X % J i , 7   0 0   A P >   0 0   ) C # $ $ 0   b H #.8 $ 0   w L . $ Q % s 9 9 = . o . . > 4 3 ",
"+ 6 o X f & O . . X & @ . . @ q X = I i _ H a   0 0   # G 2   0 $   7 P u   0 $   8 ` %   0 0   ) C k - . 9 . . . . . . . 4 u O ",
"+ y @ q 2 & O o o X X . = O & & 3 % ~ i 5 ` o   0 0   w L .   $ 0 0 $ H #.8 $ $     ) G o   0 $   7 O 1 % = % . = . * . . 3 4 > ",
"2 6 ; X @ 1 ; O O O . . . X @ @ O e + i $ A P >   0 0   ) C # $ $ 0   8 ` %   $   $ $ ,.C   $ 0 0 $ , 1 % = % = 9 . o o o 3 @ @ ",
"b 6 3 # ; g - 3 o o o . . o O X : e 2 i 5   # G 2   0 $   7 P u   0 $   ) G o $   0 $ Z L # $ $ 0   6 M % = . = 9 . o o o > u 4 ",
"T 6 : # ; f & 3 O 3 O . % * X @ e . r 8 5   w L .   $ 0 0 $ H #.8 $ $ $ $ ,.C _   0 0 $ | P u   0 $ $ M % = . = 9 = . # 3 ^ 4 > ",
"+ w O o # X ; ; 4 X . [ = o @ @ e % + i 5 0   ) C # $ $ 0   8 ` %   $ 0 $ Z L ^ 0   $ $ $ H #.8 $ $ $ l . = . = s = * o o X & 4 ",
"+ r O x x o 3 @ & X % = = . X ; e x T i $ 0 $   7 P u   0 $   ) G o $ 0 0 $ X., ; 8   0   8 ` %   $ $ M . [ . = v . . O > ; @ 3 ",
"< r X . e O O X @ 7 O . s o @ X e U + i $ $ 0 0 $ H #.8 $ $ $ $ V C _   $ $ $ :.B m   $ 0   ) G o $ $ 1 . = . v v . > O O 4 1 > ",
"2 r X 3 X X o O > X > . % O @ O . . + i j     5   0 ^ d     5   6 V ^ 0   5     ; m k   5     V , Z   - . . . v v . O > > 1 u O ",
"r 8 + + + Q 1 1 + j - ; { - - - 1 ; h 0 E ]         6 - j         F - r         ' j -         8 ! p 5 k 1 ; ; I m ; 1 1 - +.+.- ",
"y 0 k k h j j h h w F j p j h j j Y n   0 n 8         8 h ]         6 h y         3.] h         0 w 8 6 p p p  .T p p j h w w j ",
"J % S % s S <.* h * v v S S = # 5 # * . W W K * X 5 W U z m * m l s v v S S = l $ l m : : m m l 5 l U W = = s . j . K % = . = v ",
"+ I 9 9 c v B K y c . W . 9 % . h , o # , , t 4 o F 7 4 + < q n Y c . W . 9 % . $ q < q q < < q 5 & t X . % = % j c c 9 9 s 9 % ",
"< O 9 9 P c c K Y P . . * * = . - # # , > , u o o F & + w 2 + w Y P . . * * = . y w w q q < < < 5 & @ X . . . . l = = = = . o = ",
"2 z % . s s s x Y B % . % . . * g A # * @ w u > o 2 < + & & q w Y B % . % . . * y w < + + + q + n q @ t o . o O M . . = . . . = ",
"< z . o c = / . E c 9 % . o . * Q A f , t 6 O = o & < w & t & w E c 9 % . o * * y < 2 + < < q q 2 & t @ z o o O - . % % * * = % ",
"2 O 9 . . = 9 o j c 9 * . * o . + + # 7 t + f # o q + + q & & 2 j c 9 * . * * . y < w q < < q q 2 & @ @ X o o # g * = . * # . % ",
"r z . / 9 % = o j 9 9 . * * o = M 4 7 t f & @ 7 O & q 2 q & @ < j 9 9 . * * * = y q w < < + q q 2 t t t X O # o + = = * * * * % ",
"E z c c / . . @ k % . O o O # = j * , X X @ X > O & + + q q & < k % . O o O * * ' q w < < q q q r & & & O @ @ * - . = = . . . % ",
"2 ( = % % . o @ k % . o o # * * h # # O X 1 4 , & < < + + + q w k % . o o # * * ' < 2 2 2 + + < R & q & X X X , - * o * = . 9 s ",
"+ d O o . s / # h * % o * . * * h , # . o X X , & 8 < q q q q q h . % o * . * * ' + < < r < q < n @ & + X # O X + = . . . * . = ",
"+ ( . o . 9 / o h 9 = . . . * * h o * , , # > 7 : k + q & q q < h 9 = . . . * * ' + < w w < q < 8 @ t + X X , , - . . . . * * . ",
"+ m 9 % s % % o h = 9 = . o o o h # # , , 7 7 , o 2 q & & q q q h = 9 = . o o o ' q < w 2 < q < 8 @ @ & X @ X # - . . . . . . * ",
"2 d = % 9 % . o j % s 9 . . * . - , # # 7 7 4 , . 2 q & & q < Y j % s 9 . . * . ' q + < w < q < 8 @ @ @ & & > # + o * . . . # # ",
"2 1 U . % % % o 1 = % % % = . . - , . , 7 , , # . 2 & & q q q Y j = % % % = . . y q < < 2 + & < n & @ t t X o # g . . . % . * o ",
"2 { o . % % = e + % o . * . o . p , * * 4 4 3 X . @ q q & q q < k % o . . . o . y q < < 2 < & + 8 t t t & X # , 2 . . % = . * . ",
"r ; . o o % 9 O < K K . % * * . - X * , X X @ ; : t q q q q & < D K K . % . * . y q q < 2 < q + y & & & & X O O < o . 9 % = . = ",
"r d % X & . % + 2 c . o % . O . Q > . O @ & @ X : & q q q q & < D c . o % . O . y + q q < < q < 8 @ q < & @ O O r X . 9 c = . % ",
"2 d U q & z o & 2 % z X = . t . + , # 7 @ & t X o & q q q q @ 2.D % z X = . t . D & Y + < + & + n t & & @ X X X 2 X . 9 9 . o = ",
"2 ; X t t X o & R U z O X @ + . + + , @ @ 7 t t O & q q q q @ + y U z O X @ + . D & w 2 < q & < n @ t & t X X : + X . K % O X . ",
"2 d % e & O X q r O . . . & 8 X + t X X @ @ 7 X O 2 < < q q t + y O . . . & 8 X y q w < q q 1 + R @ t q & @ X X + O o K K X O o ",
"y  .I - - + ~ 2 5 + 1 l + + D ~ D k + + + + + + + D D D D k 2 D a + 1 l + + D E $ r k k D k 2 k $ + k k 2 + + + $ - 1 ; ; ; { 1 ",
"a 5 6 n 6 6 6 y 5 w 6 y y 6 6 n 5 r 6 5 r w F w w F r r r r F F 5 r y 5 F h w 6 $ w w w w w w w $ 6 5 8 F r r E 5 E r r F w 6 p ",
"1 8 . . W U U W . % % . . K . * . v l 0 $ $ $ $ $ $ $ $ $ $ $ $ $ $ $ $ $ $ $ $ $ $ $ $ $ $ $ $ $ $ $ # = s s s } } s v % . % } ",
"d b o O ; X 3 O O # O 3 O O X X o = d 0 0 6           5 6 5         0 ] 5           6 8           8 a ; = 9 9 9 9 s 9 9 o , o B ",
"J E * 3 @ X : O O O X X O : X X e v d 0 $ ! j           F -           p !           F - 0         w h ; 9 9 9 = = 9 9 9 o , * P ",
"J E : X X X X : o : X O : X @ X e v d i $ 6 z D   5 5     V -   5 5   6 , p       5 5 4.O       5 5 h ; . 9 s 9 9 . 9 9 o O o s ",
"J 6 O : : ; @ X X X : e X X X O o = ; i 5   + H 2 $ $ $   O.S +   0 0   | G N     8   Z C 3   0 0   8 1 . = 9 . o . 9 9 . O O . ",
"J 8 # 3 3 O 3 X ; : e : O : : : e % l i 5 $   7 H   $ $ 0 0 . L   $ 0 0 0 >.G w   a 0 $ O.S +   0 0 $ - o = 9 % o . 9 9 . , # . ",
"J a e O ; 3 : : O : : 3 : # : : e % J i 5 0     L 3   0 0   N o.;   $ 8   Z C V   a 0     . L   $ 0 $ - o = % . . . % % . O # . ",
"J y e m @ O o : O # O X 3 # : X : % J i $ $ $   O.S +   0 0   | G N   a 0 $ O.C 6   $ 0   N o.;   $ $ 1 . . % . . % % . . o o . ",
"d 5 . . X X O O O : O X O : X @ O % ; i $ $ $ 0 0 . L   $ 0 0 0 >.G w a 0     ..o f   0 $   | G N   $ - O . % % % % % % . o o . ",
"d 5 % e X X X : o o : X O O X X O . ; 8 -   0 0   N o.;   $ 8   Z C V   $ 0   ) G 7 D $ 0 0 0 >.G w $ 1 . . % % % % % % . # o . ",
"d R x * : : : : o o : o : X X # O : 1 i # +   0 0   | G N   a 0 $ O.C f   0 $ $ =.H .   0 8   Z C V $ ; % % . . % % % . . O o . ",
"d y * . o O X O : o e * # 3 X O O # - i ; L   $ 0 0 0 >.G w a 0     ..G 2 $ 0 $ 0 &.G f   a 0 $ O.C 8 - # . . = % % . . . . . . ",
"d y % . O O : O : : e . * : X X : e + i 8 o.;   $ 8   Z C V   $ 0   ) H .   0 0   $ L .   a 0     ..1 - o . . . % % . . . . . % ",
"d a v . # O 3 # # : e x # X X : e : + i $ | G N   a 0 $ O.C f   0 $ $ &.G f   0     w H .   $ 0   ) O 1 . . o . % % % . . * . % ",
"d y % % * O 3 O O # * . e 3 : e e : + 6 5 0 >.G w a 0     ..G 2 $ 0 $ $ L .   $ $ 0   &.G f   0 $ $ -.1 . % . . % % % % . o . % ",
"d a x . e : O : : # * . e : e e e e 1 i 0   Z C V   $ 0   ) H .   0 0   w H . 0 $ 8   0 %.G 2 $ 0 $ 5 ! > . . O O % s . * o * . ",
"d a e . : O # o O O * . * # : : * x M i 5 0 $ O.C f   0 $ $ &.G f   0 0   &.G 7   $.0   N H .   0 0 $ p . . o 4 > . % % . o , . ",
"d a x o o o o 3 X O x % . o : # x x T i 5 0     ..G 2 $ 0 $ $ L .   $ 8   0 %.C 0 0 0 $   &.G f   0 $ - . = O 4 > . % % % # O * ",
"d a % x o o O O O # . x . o X O % % - i $ $ 0   ) H .   0 0   w H . 0 $.0   N o.7   0 0   $ L .   $ $ - . . > u O . % . o o o . ",
"d y v x # : # o o # o . . : X 3 K % + i b   0 $ $ &.G f   0 0   &.G 7 0 0 $   &.H )   a $   w H . 0 $ - . . > 4 # . . . o # o . ",
"d y s * X X O o o o o . . O @ X . % - 6 O 2 $ 0 $ $ L .   $ 8   0 %.C   0 0   0 ..L 6   0 0   &.G 7 $ - . = O 7 , # . . o o o . ",
"J y % * X & & O o o e . . X & @ o . M i , .   0 0   w H . 0 $.0   N o.)   a $   8 L *   0 8   0 %.C 5 - . . # 7 f > . o > O o . ",
"~ a x . O @ X : # o x % o @ & @ O e 1 8 X.G f   0 0   &.G 7 0 0 $   &.L 6   0 0   X.G +   $.0   N o.p M . . # 4 f 7 o # O , # . ",
"1 a x e X @ X : : # x . O @ @ X X O 1 i $ L .   $ 8   0 %.C   0 0   0 L *   0 0   $ , . 0 0 0 $   &., Q . . o > _ u O o o , O . ",
"+ a e o X ; X 3 O : e o O X X @ X : ; 6 $ w H . 0 $.0   N o.)   a $   X.G +   0   $ $ ...   0 0   0 O.+ o . . O u Z Z 4 . o O . ",
"+ a o z O X X X X 3 # * e X @ @ @ o ; i 5   &.G 7 0 0 $   &.L 6   0 0 $ , . 0     0   _ C )   a $   0 - . . * , ^ Z 6 ; . O # . ",
"- a : O X X X X X : : o : X @ 1 ; # 1 i 0   0 %.C   0 0   0 L *   0 0 $ $ ... 0   0 0 0 L L 6   0 0 $ - = . > 4 > 1 @ O O , * . ",
"- a : X @ ; 3 3 X # . e O @ & 1 X : T i ;.0   N o.)   a $   X.G +   0 0   _ C -   0 0   X.L *   0 0 $ - = . ; X # , , , , , o . ",
"+ a X @ @ X X X : * e # 3 @ & 1 3 o 1 i 5 0 $   &.L 6   0 0 $ , . 0   0 0 0 L . r   $ $   X.G +   0 $ - = . O o . O 7 > , > X o ",
"+ a @ & @ X X 3 o . o : X @ @ @ 3 o 1 i $ 0 0   0 L *   0 0 $ $ ... 0 0 0   X.B # r   0 $ $ , . 0   $ Q . . . o o # , , # , t O ",
"2 a @ @ ; X @ X o . . O X @ @ @ O o 1 i w   a $   X.G +   0 0   _ C -   $ $   1 S 7 0 $ 0 $ $ ... 0 $ - % . % * * # , , , 7 4 O ",
"r a @ @ ; ; ; O . . o O ; @ @ X # * 1 i V 6   0 0 $ , . 0   0 0 0 L . w   0 $   @ C 7   0 0   _ C - $ + . . o O # # # # , 7 > # ",
"r y X @ @ @ X o * * o 3 ; @ & @ O # 1 6 V *   0 0 $ $ ... 0 0 0   X.B H 0 $ 0     *.H a   0 0 0 L . $ - . . o , > > , > 7 , > , ",
"r y 3 @ @ X # o * o O 3 @ & & @ X X + i F G +   0 0   _ C -   $ $   1 C 7   0 0   0 ` o   0 0   X.B k - = s . # O > 4 4 > 4 4 > ",
"r $ U X @ X O o : O # O X @ @ @ @ X + N $ , . 0   0 0 0 L . w   0 $   *.H a   0     A P >   $ $   1 # M = = . . . O 7 t f f u 4 ",
"r $ e O @ @ X X X X O O X @ @ t @ X + 6 $ $ ... 0 0 0   X.B H 0 $ 0   0 ` o   0   0   # G w   0 $   < - # o . . . . X A A + f N ",
"r 5 . : X X X X ; @ X 3 X @ & & ; X p N 5   _ C -   $ $   1 C 7   0 0   A P >   $ 0   w L H 0 $ 0   $ + O o . . . . . , 4 4 t A ",
"r 5 x o O O O X 4 ; O : X 1 & & @ X + i 5 0 0 L . w   0 $   *.H a   0 0   # G 2   0 0   ) C 7   0 0 $ - o . . . , # . o 4 > . O ",
"R 2 . o : : O X X O # # X 1 & & X ; + N 5 0   X.B H 0 $ 0   0 ` o   0 0   w L .     0 $   *.H a   0 $ - . . % . . . . # u 4 . . ",
"r 6 . e O O O X X X : O X @ & @ ; @ + i $ $ $   1 C 7   0 0   A P >   0 0   ) C #   $ 0 0 0 ` o   0 $ - . . . = . . . o > O o . ",
"2 5 . o X X X O O O O X @ @ @ t @ @ 2 i 8   0 $   *.H a   0 0   # G 2   0 $   7 / # $ $ 0   A P >   $ - . . . . . . . 7 , . . o ",
"< $ . o X X X X z z X @ @ X @ & & & g i , 0 $ 0   0 ` o   0 0   w L .   $ 0 0 $ H P u   0 0   # G 2 $ - . % . . . . . O # . * o ",
"+ 5 e e : O X X z z X X @ X X @ & q 2 i , 7   0 0   A P >   0 0   ) C # $ $ 0   b H #.8 $ 0   w L . $ - o o . . . . . > 4 o * 7 ",
"p $ e e : X X X O : O X X X X X t < r i _ H a   0 0   # G 2   0 $   7 P u   0 $   8 ` %   0 0   ) C k l . o . . . . # f f O . , ",
"+ $ o O X X X 3 3 O X X X X X X @ + R i 5 ` o   0 0   w L .   $ 0 0 $ H #.8 $ $     ) G o   0 $   7 O 1 # o o . o o O ^ u > * o ",
"- a O X @ X X 3 3 3 O X X X X X @ q R i $ A P >   0 0   ) C # $ $ 0   8 ` %   $   $ $ ,.C   $ 0 0 $ , Q 3 o . o O , O o > 4 > 7 ",
"l a @ & @ X X X X O X X X X X X @ q n i 5   # G 2   0 $   7 P u   0 $   ) G o $   0 $ Z L # $ $ 0   6 2 3 o o , 4 7 O O 7 > # > ",
"; a < q @ 3 3 X X X X X X X @ X @ g r 8 5   w L .   $ 0 0 $ H #.8 $ $ $ $ ,.C _   0 0 $ | P u   0 $ $ 8 3 4 o O O o o @ f > * o ",
"I a & & & X O 3 X X O O X X X X @ + b i 5 0   ) C # $ $ 0   8 ` %   $ 0 $ Z L ` 0   $ $ $ H #.8 $ $ $ 8 3 X # # o * . , 4 7 O o ",
"; a @ g + ; O 3 X X O O X X X X @ < R i $ 0 $   7 P u   0 $   ) G o $ 0 0 $ | H ; 8   0   8 ` %   $ $ r 3 X O o # o o , 7 > O , ",
"d y & < w 1 X X > 3 > > X X X X X + R i $ $ 0 0 $ H #.8 $ $ $ $ ,.C _   $ $ $ :.B m   $ 0   ) G o $ $ - 3 ; O o * o # , 7 > O ^ ",
"d r & q Y & @ X X X X X X X X @ @ - 2 i 1 $ $ 0   8 ` %   $ 0 $ Z L ` 8   0   $ . s +   0 $ $ ,.C _ $ 1 > u > . . . o 7 f 4 o # ",
"; 5 @ + + 2 2 2 + + + + + + + 2 8 n r 0 z u   0 $   ) G o $ 0 0 $ | H m   $ 0   < # H   0 0 $ Z L ` 5 g ; - g - 1 1 l M Q p - - "
};
