/* XPM */
static char *CEMENT7[] = {
/* columns rows colors chars-per-pixel */
"64 128 94 2 ",
"   c #BFA78F",
".  c #AF977F",
"X  c #9F876F",
"o  c #7B7F63",
"O  c #6F7357",
"+  c #A78F77",
"@  c #474F33",
"#  c #836B57",
"$  c #B79F87",
"%  c #B7B7B7",
"&  c gray75",
"*  c #5B6347",
"=  c #937B63",
"-  c #67533F",
";  c #836B4B",
":  c #8B8B8B",
">  c #9F8363",
",  c #775F4B",
"<  c #9B7F6B",
"1  c #2F2F2F",
"2  c #332B13",
"3  c #2B230F",
"4  c LightGray",
"5  c #CBCBCB",
"6  c gray78",
"7  c #3F472B",
"8  c #979797",
"9  c #43331B",
"0  c #373F27",
"q  c #53573B",
"w  c #8F7753",
"e  c #775F3F",
"r  c gray86",
"t  c #1B1B1B",
"y  c #676B4F",
"u  c #533F2F",
"i  c #1F170B",
"p  c #574333",
"a  c #675333",
"s  c #0B0B0B",
"d  c gray67",
"f  c #373737",
"g  c #232323",
"h  c #7B634F",
"j  c #FFEBDB",
"k  c #939393",
"l  c #6F6F6F",
"z  c #E7E7E7",
"x  c #131313",
"c  c gray70",
"v  c #777777",
"b  c #838383",
"n  c #4F3B2B",
"m  c #6F5743",
"M  c #FFCFB3",
"N  c gray50",
"B  c #533F1F",
"V  c #2F371F",
"C  c #473323",
"Z  c #070707",
"A  c #9F9F9F",
"S  c #FFE3D3",
"D  c #5F4B37",
"F  c #232B0F",
"G  c gray42",
"H  c #170F07",
"J  c #272727",
"K  c #DFDFDF",
"L  c #A7A7A7",
"P  c #3F2B1B",
"I  c gray28",
"U  c #FFDBC7",
"Y  c #8B735B",
"T  c #5B5B5B",
"R  c gray34",
"E  c #3F2F17",
"W  c #4B4B4B",
"Q  c #EFEFEF",
"!  c #FFD7BB",
"~  c #4F3B23",
"^  c #FFFFB3",
"/  c #171F07",
"(  c #774F2B",
")  c #4B371B",
"_  c gray39",
"`  c #4F3B27",
"'  c #8F5F37",
"]  c #434343",
"[  c #FFC79B",
"{  c gray31",
"}  c #FFC7A7",
"|  c #17330F",
" . c #F7ABAB",
".. c #5B472B",
/* pixels */
"~ t * * O N N o o o k   N O X : N b q 1 c $   & 6 & L $   &     r 5 @ J O + = Y Y < +   . o = $ + @ 3 @ = k       $ $ $ + X X   ",
"7 x 3 2 q * O O O o . w E 0 O o O y 7 1 4 . <   % %   8 % %   % Q K 0 2 3 , # e 9 B X   = - # < < m 2 u , o : + + X X X = ; = % ",
"m H i 7 q - O O O o o * 0 @ O O O * 0 g z d o . % % d A % 4 & 6 z z @ Z 3 o + - Z 3 = . w w ; ; = # 1 u O # < X + + + X = O ; % ",
", H i 7 q * O O O o O q @ * O O O O @ g z % X A & %   % 4 4 % % z z @ Z 0 : # 2 3 e X ; @ * ; o = # 1 u , o X X + + X . . ; O   ",
", t | 7 * O o O O O O * * * o O * o R 1 j &     & &   % 4 4 c c r j , x E = o 0 3 u e * ; X > > > - 3 9 * o + X + X X X X = = . ",
"# i 2 7 , X o O y * e w O * * * O X - g 4 & %   & & % % 4 4     4 z N x @ . = @ 9 9 B * X   . > w D i 1 a o . . . X X < X + X   ",
"v i 2 @ < $ X ; - - < + O * * * o X - g r &     M & % % 4 4 % % 4 z N x O . - 7 q @ @ w X . X ; , @ t 9 * # # +     + X X X =   ",
"h t 9 - X . < O q O : X O O O O o X @ g 4     % 4 4     4 4 % % 4 j v x * X O * * 2 9 O = = e ..e - 3 ~ h e m + &     . = O o   ",
"# t 2 * X X O y y w X o O O O O o o @ t ^ % .   4 4 % % 5 &   d 4 j l s a . X O - 2 2 @ - a e ; = m i ~ h < + $       . = e ;   ",
"h t @ O > w ; ; ; o o o O O * O # o @ g j % .   & & %   6 6   c r z l s @ X < * @ q - - , = o O O p i 9 , X     . . .   + # o   ",
"v i * O O O w O * O X o O * * , O o - 1 ^ &   % 4 4   $ & ! % % ^ j # H * . < * - u - , O # ; O ; - 3 3 * .   .       $ X ; #   ",
"h i O O O O O * * O w o O , , , O # p g j &   % 4 M   $ & &     j z # s * . X # - 3 9 , O a * ; o - t s a     .     % $ < # #   ",
"h 3 o O # o O * , O O O O * * * * * @ g j & .   U 4 & & & &   % 4 j l s @ X < o - 2 - + < a - ; o - 2 Z u     .   % % . X o O   ",
"# 2 * O o o O , O , * * * q @ @ @ - p 2 z & .   4 ! % % & & & & % 6 v s q o O O * u O . = - * O ; m g s @     $         = ; o   ",
"# 3 * * o O * O o O * @ u @ @ @ @ * @ 1 S &     & & %     % & & % 4 b x q O O O e a w > w a e > X D i s -     $ $       = w =   ",
"# t * O O * O X o O O * u @ q q * * @ g 4 & %     &   .   & %   % z b x @ o o w O ; w w = > X = ; u i H , % % . .       X w o   ",
", 3 * * O # o o o o o O * q q q q * @ g & & % % 5 4   X $   > X & z N x 0 O # = ; a @ ; . . . X = D i 3 o &   . .       X o o   ",
"v i u @ O o o o o o o O * * * * @ O - g & & % % r 4 . X $ X O . j r G s - o # # ; e a =   $ X X X - i J #             . X = = % ",
"{ i @ @ * o o o o o o * @ * O * q o T 1 5 & % % 4 &   $   + w $ 5 & , s * o ; ; e a ; .   . X = o g x H - $         % . X = =   ",
"W i q @ * O > o w O O * * y O * * < T 2 & %   % 4 5     & % X . & % - x O X ; e - - =       . < # 3 x 0 O + $     %   $ X = =   ",
"7 i 7 q O o O O O O y y * O o O * o - 1 % % % % & & %   & d X . % & v t X   o O e a e = .   . = = p H 9 < $ $ $         + = = & ",
"@ i 2 - o O * O o o O * * O o O * o @ t % &   & & % .   &   X X . 5 k t >   < , - u , < .   . X + - s 0 X   . .         . ; ;   ",
"@ 3 9 * O O O O O , * * * O o O * o - 3 % % & & %   .   % % . X X & 8 2 X & + O @ B e = > . . > = u H 0 . % . X         . ; ; & ",
"R 3 2 * * O O O * q q - * X + O * o - 2 & % & & % $     %   $ X X 5 8 g X & X , u 9 e = ; = X ; a 2 s @   & $ . .       . O e & ",
"l 2 0 * ; O * @ - * @ u O . X ; O o - 1 % % & 4   . $ %     % . X & b 2 o   + o u 2 a ; > > ; B 9 1 x u   & %   $ . .   . ; # 4 ",
"v 2 9 O < * 7 @ o : * 7 * X o # o o - 1 & & & &   .   % & & & . o . l J , . + < e B @ y ; e e a E i H u 8 & & %   . . . X = X 4 ",
"G 2 u O O - u - .   # * O O , o + < p 1   5 &   & & % % % % & % .   l 1 # . X o O O o e 9 0 = + ; 3 s @ $ &         X X X > . 4 ",
"l 1 @ , * - * , o o # O o O * o . X @ 1   5     5 5     % % % %     , 3 ; $ X , e X   X a u ; Y m i s u . &   & 6   . X > = $ j ",
"v 1 q * O O O * @ - , O < o O X 8 X @ 1 & &   $ & & $   & %   . . . - t # $ < O o X . . y O + < m 3 s 0 . &     6   . = = =   z ",
"# 2 7 # X o O * @ * O * O < X + . X - 1 5 & + +         %       $ . # 2 # + ; o = = . + ; <       - x 9 + &     6 6   = ; ; . z ",
"0 1 7 O # O o O * * * O o X X + + . R 1 5   . + $             & 5 & X 1 # + ; ; = < = + $ + + . . , t - $ & &   & &   . = e < j ",
"# 2 q o o O O O O * * O < o o . $ . - 2 5 % $ $   . X   5 &     % & b 1 ; . = = . X = .     + a B p 3 u + & &         . X ; = S ",
"N 1 O . o * e # O - * # # O X     k @ 1 5 % . $     $   % & &   $ & k 1 O . X e ; X $       + > > - t p . & &           . ; = 4 ",
"# 1 o X O a y ; O * e O o X . 8 : : R 9 &   + .       % % & 4 %   4 k 1 ; + < o ; = $       $ $ $ , i u . & & &         X e o M ",
"l 2 O o O y O O a a * ; X . . X < . T f   . .     . .   & 5 &   % r X 1 e X X X = = .     . X O e - i p   &         %   . O ;   ",
"l 2 O X X X o * @ @ @ , . $ . < o . # 9   . .   %     % & %     & 4 + 1 ; X O e ; X . .   = < # * @ H p $ &           . X e h & ",
"l 3 o 8 + O * , O , - , o o o o o   G 1 . .   %     $   &     % & r : g +   # a e . .     ; # ; $ v i @ $ &     6   $ X w e = M ",
"h t X $ < - @ * O , * O o # O O : 8 T 9 $ $       % % %       & & 5 X 2 X   o E 0 k . . . < < w $ v 3 p $ &     6 6   + X w =   ",
"- t o X O a e X + O # : : o O o X . R 1 $     & 5 5 & &   & & & & 4 X 2 o   X u 3 ,   . X < < # $ X 3 -   &   & 4   . % % = , X ",
"@ i o X o e # $ $ # O X . X o o X . - 1 $ $ $     5 5     5 5 5 5 5 v 3 .   X e @ ; . . O   O #   X 3 -   &   6 6   .     # * X ",
"p 3 : 8 O @ * 8 % X O X   $ # , X   @ g   $   %     & & & 5 & 5 5 & # 3 $ 4 + # , @ @ O >     B ; # 2 -   6 6 6 6   .     ; * X ",
"@ 3 8   # @ O   % : * o   8 O * o % G g & %       & &   & 6 & 5 5 & # 3   S . ; , B H E X   = ( ; , 3 D % 4 6 6 &   .     = ; < ",
"@ 3 . o a * X     o * O     O q o & N 1 &         & &   & 6 6 5 5 4 + 1   j . * * * 0 @ <   . X . h t -   6               ; e X ",
"@ t O q 0 * X . . o o   & X * * < % T g 5 5     $ % %   & & 6 6 6 5 k 2 & Q   * * O o X   %   $   # 3 , % & %   &   $     < ; = ",
"0 3 # o O , # X X X       o O O X 8 @ g 4 & %       & 5 & &   & 6 5 X 2   j   ; O w > > X X + $   > 2 , % & % & 6   . . . < O O ",
"9 3 < + # u - < . . .     . X o : 8 0 g r & % % % % & 5 & % $   6 5 X 2 % U . ; = > = X $ $ > >   X 2 m % &   & 6   . . . = e ; ",
"R 3 : + # a * < X < X   % $ o O 8   1 t 4 5 &   &   & & & &     6 5 k 1   M . X = > > $ [   > > $ # 2 m % &   & 6 &   + < Y ; = ",
"@ 2 X . + o # # ; o   M & . O O 8 % @ g 4 5 &     & & & & &   & 5 5 k 2   & < e = + $         + + # 2 h   &   & 4 & $ . . o * ; ",
"@ 1 X d d . < O * o % & &   o # 8 d R 1 4 & & & & & &             5 k 2   . ; w X $     $     X + # 2 m   M   & 5     X = # O < ",
"7 1 o   8 X X o O w X   4 . O o 8 A @ g & & 5 & & & %         $ +   k 2 . + = ; ( w   . .       + # 3 ,   &   5 5   = X X ; , = ",
"0 1 o < o o . X = o =   % X O X     @ g   & 5 5 & %   $ . .   $ +   N 3     < m , .   > .       . h 3 -       5 5   X = = , e X ",
"1 i @ @ @ D , , @ n - # _ - - - , # C x , v N # # v # , , , # # , , n i v b D V @ - , , h # # # - F H V , # # N b # , , - ` ` - ",
"t H V V C n n C C 2 P n p n C n n I g s p p W W W W p p n n n p p n 2 H W - C F t 3 P n n p p p n 3 s 3 p p p W R p p n C 2 2 n ",
"G % S % 4 S Q $ C $ 5 5 S S & + s + $   L L c $ o s L A k b $ b h 4 5 5 S S & h Z h b : : b b h s h A L & & 4   n   c % &   & 5 ",
"@ N 6 6 r 5 z c t r   L   6 %   C > . + > > y ; . P w ; @ 7 q g I r   L   6 %   Z q 7 q q 7 7 q s * y o   % & % n r r 6 6 4 6 % ",
"7 X 6 6 j r r c I j     $ $ &   - + + > = > e . . P * @ 2 0 @ 2 I j     $ $ &   t 2 2 q q 7 7 7 s * O o         h & & & &   . & ",
"0 k %   4 4 4 d I z %   %     $ u B + $ O 2 e = . 0 7 @ * * q 2 I z %   %     $ t 2 7 @ @ @ q @ g q O y .   . X m     &       & ",
"7 k   . r & !   f r 6 %   .   $ D B a > y 3 X & . * 7 2 * y * 2 f r 6 %   . $ $ t 7 0 @ 7 7 q q 0 * y O k . . X -   % % $ $ & % ",
"0 X 6     & 6 . n r 6 $   $ .   @ @ + w y @ a + . q @ @ q * * 0 n r 6 $   $ $   t 7 2 q 7 7 q q 0 * O O o . . + u $ &   $ +   % ",
"1 k   ! 6 % & . n 6 6   $ $ . & m ; w y a * O w X * q 0 q * O 7 n 6 6   $ $ $ & t q 2 7 7 @ q q 0 y y y o X + . @ & & $ $ $ $ % ",
"f k r r !     O V %   X . X + & n $ > o o O o = X * @ @ q q * 7 V %   X . X $ $ / q 2 7 7 q q q 1 * * * X O O $ -   & &       % ",
"0 v & % %   . O V %   . . + $ $ C + + X o , ; > * 7 7 @ @ @ q 2 V %   . . + $ $ / 7 0 0 0 @ @ 7 J * q * o o o > - $ . $ &   6 4 ",
"@ l X .   4 ! + C $ % . $   $ $ C > +   . o o > * i 7 q q q q q C   % . $   $ $ / @ 7 7 1 7 q 7 g O * @ o + X o @ &       $   & ",
"@ v   .   6 ! . C 6 &       $ $ C . $ > > + = w : V @ q * q q 7 C 6 &       $ $ / @ 7 2 2 7 q 7 i O y @ o o > > -         $ $   ",
"@ b 6 % 4 % % . C & 6 &   . . . C + + > > w w > . 0 q * * q q q C & 6 &   . . . / q 7 2 0 7 q 7 i O O * o O o + -             $ ",
"0 l & % 6 %   . n % 4 6     $   - > + + w w ; >   0 q * * q 7 I n % 4 6     $   / q @ 7 2 7 q 7 i O O O * * = + @ . $       + + ",
"0 , A   % % % . , & % % % &     - >   > w > > +   0 * * q q q I n & % % % &     t q 7 7 0 @ * 7 g * O y y o . + u       %   $ . ",
"0 _ .   % % & 8 @ % .   $   .   p > $ $ ; ; < o   O q q * q q 7 V % .       .   t q 7 7 0 7 * @ i y y y * o + > 0     % &   $   ",
"1 #   . . % 6 X 7 c c   % $ $   - o $ > o o O # : y q q q q * 7 F c c   %   $   t q q 7 0 7 q @ t * * * * o X X 7 .   6 % &   & ",
"1 l % o *   % @ 0 r   . %   X   D =   X O * O o : * q q q q * 7 F r   . %   X   t @ q q 7 7 q 7 i O q 7 * O X X 1 o   6 r &   % ",
"0 l A q * k . * 0 % k o &   y   @ > + w O * y o . * q q q q O ] F % k o &   y   F * I @ 7 @ * @ g y * * O o o o 0 o   6 6   . & ",
"0 # o y y o . * J A k X o O @   @ @ > O O w y y X * q q q q O @ t A k X o O @   F * 2 0 7 q * 7 g O y * y o o : @ o   c % X o   ",
"0 l % 8 * X o q 1 X       * i o @ y o o O O w o X 0 7 7 q q y @ t X       * i o t q 2 7 q q , @ J O y q * O o o @ X . c c o X . ",
"t W N - - @ T 0 s @ , h @ @ F T F V @ @ @ @ @ @ @ F F F F V 0 F x @ , h @ @ F f Z 1 V V F V 0 V Z @ V V 0 @ @ @ Z - , # # # _ , ",
"x s 3 g 3 3 3 t s 2 3 t t 3 3 g s 1 3 s 1 2 P 2 2 P 1 1 1 1 P P s 1 t s P C 2 3 Z 2 2 2 2 2 2 2 Z 3 s i P 1 1 f s f 1 1 P 2 3 p ",
", i     L A A L   % %     c   $   5 h i N & & % c % & & & & & & % % h i v 5 &     c % %     % % & l i + & 4 4 4 K K 4 5 %   % K ",
"l 9 . X # o < X X + X < X X o o . & l 1   .     . X + . $ % &   X * @ 1 X !   $ > . . = X X . .   m i # & 6 6 6 6 4 6 6 . > . z ",
"G f $ < O o : X X X o o X : o o 8 5 l 1   $   $ . .     $   & + a w # 9   j j   X X X = = X . .   m 3 # 6 6 6 & & 6 6 6 . > $ j ",
"G f : o o o o : . : o X : o O o 8 5 l 1 % % %   &   $       $ > ; > v 9 $ Q S + X X X o $ + . .   h 3 #   6 4 6 6   6 6 . X . 4 ",
"G 3 X : : # O o o o : 8 o o o X . & # 1 & %     & &   $   $ $ $ . + # f $ z j   O X Y . X X =     - i ,   & 6   .   6 6   X X   ",
"G i + < < X < o # : 8 : X : : : 8 % h 1   $   & & $ . $ $ $ $       b f   z 4 + ; ; . } + + +     # 2 - . & 6 % .   6 6   > +   ",
"G x 8 X # < : : X : : < : + : : 8 % G 1     % %   $ $ $ $ $ . . .   k f   r   = ; = $   +         X 9 - . & %       % %   X +   ",
"G t 8 b O X . : X + X o < + : o : % G 9 . +     $ . $             % X f   4 % + = w . + +         v u ,     %     % %     . .   ",
"l s     o o X X X : X o X : o O X % # 1 O o   $ . .                 v f . r     X X   .     $ > + # 9 - X   % % % % % %   . .   ",
"l s % 8 o o o : . . : o X X o o X   # 1 o , < . . . .     $ .       v f .     .   r   . X . + > + # 9 ,     % % % % % %   + .   ",
"l J d $ : : : : . . : . : o o + X : , 1 # , X . . . .   . X . $     # 9   r     r r   X $     $   # 9 # % %     % % %     X .   ",
"l t $   . X o X : . 8 $ + < o X X + - 2 , ; + X X +   . X X . . . . # 1 .   5 5 r r   $ % &   . . h 9 - +     & % %             ",
"l t %   X X : X : : 8   $ : o o : 8 @ 3 a e . . X . . . X . .   . X # f .     5 5 5 5 $     $ $   h 9 - .       % %           % ",
"l x 5   + X < + + : 8 d + o o : 8 : @ g B e     + . . . . . .     X # f     X .     . > + + + $   , 2 ,     .   % % %     $   % ",
"l t % % $ X < X X + $   8 < : 8 8 : @ 1 a e .   . . . . . . $     . l 9 . % & 5 5 %     r   . $ & b p ,   %     % % % %   .   % ",
"l x d   8 : X : : + $   8 : 8 8 8 8 , 1 @ * .   $ .       % %     . # 9 $   % 5 5 %   $   $ ; w   # 2 ~ =     X X % 4   $ . $   ",
"l x 8   : X + . X X $   $ + : : $ d m 1 e ,                     . . l 9     6 5 5 %   +     > > > , 9 p     . ; =   % %   . >   ",
"l x d . . . . < o X d %   . : + d d R 1 * = M &     % % . . % %   $ l f     6 6 c % c   . . . ; > m u -   & X ; =   % % % + X $ ",
"l x % d . . X X X +   d   . o X % % - 1 ; X   %         .   % %   . l f   6 6 6 c c c   . + . + X v p -     = e X   %   . . .   ",
"l t 5 d + : + . . + .     : o < c % @ 1 ; =   % &   + .     4 M %   X f & 6 6   $ $   c +     + & 8 p -     = ; +       . + .   ",
"l t 4 $ o o X . . . .     X O o   % - 1 o o   & &   . %   & S S & & X f 4 z 6 = > .   c . < . + & k u -   & X w > +     . . .   ",
"G t % $ o * * X . . 8     o * O .   m 9 o . %   $         & 4 4 4 & b f j 6 = > . X X . e < < <   X p -     + w a =   . = X .   ",
"T x d   X O o : + . d % . O * O X 8 , u o X   $       % % % & 4 M & b f & y ; r   > > $ w   < w   b p m     + ; a w . + X > +   ",
", x d 8 o O o : : + d   X O O o o X , ] X X .     $       % % % & & v f r &   $ .   c 6 M . w . & b p D     . = ( e X . . > X   ",
"@ x 8 . o # o < X : 8 . X o o O o : # p o X       $ .   & %       % b f 4 z &       c c 6 6     & > u @ .     X e ) ) ;   . X   ",
"@ x . k X o o o o < + $ 8 o O O O . # p + $ & %   : :   & & %     & b f 4 j   %     $   c 6     & # u -     $ > Y ) 3 #   X +   ",
"- x : X o o o o o : : . : o O , # + , f o . & % . X . % & & d   & & k f r z r       6 6     6 & & X p - &   = ; = , O X X > $   ",
"- x : o O # < < o +   8 X O * , o : R f X   %   . . . % & &     & 4 k f r Q r X +   4 4 6       & v u - &   # o + > > > > > .   ",
"@ x o O O o o o : $ 8 + < O * , < . , u +   % $ + : : % 5 & d % & 4 X f r Q r > X 6 6 6   X +   & # 9 - &   X .   X w = > = o . ",
"@ x O * O o o < .   . : o O O O < . , u $   d   8 X X % & %     & & b f r z r .   6 4 6   .   & & # 9 D       . . + > > + > y X ",
"0 x O O # o O o .     X o O O O X . , u   %     + > + %           & + f   j r $           . .   & h 9 - %   % $ $ + > > > w ; X ",
"1 x O O # # # X     . X # O O o + $ , u   % %     X X .   &   . . % b f & S r .   &   + $         # 9 @     . X + + + + > w = + ",
"1 t o O O O o . $ $ . < # O * O X + , f X . d % %   o X   % % . . % k f M j M   $ + + $     + X . # 9 -     . > = = > = w > = > ",
"1 t < O O o + . $ . X < O * * O o o @ f X + $ % & d : : $ % %   $ & k f 4 z 4 % X =     + . . $   m 2 - & 4   + X = ; ; = ; ; = ",
"1 Z A o O o X . : X + X o O O O O o @ f 8 8 .   &   X X + $   . X % k f M j r   X .   $ $       $ m 9 m & &       X w y a a e ; ",
"1 Z 8 X O O o o o o X X o O O y O o @ f 8 < < $ &   < < + $ $ X X % k f 4 j r     . X .         $ - 9 - + .         o B B @ a E ",
"1 s   : o o o o # O o < o O * * # o p 9 . o o . %   X X     . X = . N f U j r       .     & &   $ - 9 @ X .           > ; ; y B ",
"1 s d . X X X o ; # X : o , * * O o @ 1 $ O O X A . . . .   % . X . l 1 S j r             & &   $ - 9 - .       > +   . ; =   X ",
"J 0   . : : X o o X + + o , * * o # @ 9 . @ O .   8 . X o X       % l 1 z z 4 % .   r r   & &   . , 9 -     %         + e ;     ",
"1 3   8 X X X o o o : X o O * O # O @ 9 o @ o     . $ : o :   . + % v 1 j z 4       r r   & &   $ # 9 -       &       . = X .   ",
"0 s   . o o o X X X X o O O O y O O 0 1 X * o $ . 8 $ . : 8   . : $ l 1 4 z 4 &           & &   + h 9 -               w >     . ",
"7 Z   . o o o o k k o O O o O * * * u 1 o O + $ $   % % 8 : 8 8 :   l 1 M j 4 &             &     h 9 -   %           X +   $ . ",
"@ s 8 8 : X o o k k o o O o o O * q 0 1 # , .       % %   d d 8 : % v 1 4 z 4 &           $     $ D 9 - . .           = ; . $ w ",
"p Z 8 8 : o o o X : X o o o o o y 7 1 1 < O $ % %     d   % & 8 < . v 9 U z 4   %     . > .   $ X p 9 h   .         + a a X   > ",
"@ Z . X o o o < < X o o o o o o O @ J 2 $ X   % %   % % $   &   X   b 1 ^ j M   %     X + 8 5  .  , 9 , + . .   . . X Y e = $ . ",
"- x X o O o o < < < X o o o o o O q J 1 &   %   & 4 & % : : % %   % + f 4 S &         .   5 K &   l 9 D < .   . X > X . = ; = w ",
"h x O * O o o o o X o o o o o o O q g 2     S M & 4 & % d d 5 5 % % l 1 U U   $   $ .   L K K   5 X 9 0 < . . > ; w X X w = + = ",
"# x 7 q O < < o o o o o o o O o O u 1 f $ .   & M & & M 4 & d d   & b 1 U M   + + .   L 5 K K   5 X 9 i < ; . X X . . O a = $ . ",
"N x * * * o X < o o X X o o o o O @ 9 9 . * . % . .   4 4   X . % & b 1 U S & $ .   L L K K K   5 X 9 i < o + + . $   > ; w X . ",
"# x O u @ # X < o o X X o o o o O 7 J 9 . * X $ X = X .     8 . d & l 3 4 U &   $     5 5 K     5 k 9 1 < o X . + . . > w = X > ",
"l t * 7 2 , o o = < = = o o o o o @ J 1 % e O . $ o O o X A . .   % # t 4 & & % $     5 5 K   K 5 k 9 - < # X . $ . + > w = X Y ",
"l 1 * q I * O o o o o o o o o O O - 0 f   e * X . X o o X + < = X . - 3 z S &       & 5 K K K K 5 k 9 , = e =       . w a ; . + ",
"# s O @ @ 0 0 0 @ @ @ @ @ @ @ 0 i g 1 J h , - p p - @ @ - @ 9 9 ~ u 9 2 8 8 v # # # # h ' # ' # Y - - u # - u - , , h m D p - - "
};
