/* XPM */
static char *CRATINY[] = {
/* columns rows colors chars-per-pixel */
"128 32 8 1 ",
"  c #3F472B",
". c #474F33",
"X c #53573B",
"o c gray31",
"O c gray34",
"+ c #5B5B5B",
"@ c gray39",
"# c gray42",
/* pixels */
"++++++++++++++++++++++++++++++++++++++++++++++++++++++++++++++++++++++++++++++++++++++++++++++++++++++++++++++++++++++++++++++++",
"++++++++++++++++++++++++++++++++++++++++++++++++++++++++++++++++++++++++++++++++++++++++++++++++++++++++++++++++++++++++++++++++",
"++++@@OOOOOOOOOOOOOOOOOOOOOO@@OO++++@@OOOOOOOOOOOOOOOOOOOOOO@@OO++++@@OOOOOOOOOOOOOOOOOOOOOO@@OO++++@@OOOOOOOOOOOOOOOOOOOOOO@@OO",
"++++@@OOOOOOOOOOOOOOOOOOOOOO@@OO++++@@OOOOOOOOOOOOOOOOOOOOOO@@OO++++@@OOOOOOOOOOOOOOOOOOOOOO@@OO++++@@OOOOOOOOOOOOOOOOOOOOOO@@OO",
"++OOoooooooooooooooooooooooo++OO++OOoooooooooooooooooooooooo++OO++OOoooooooooooooooooooooooo++OO++OOoooooooooooooooooooooooo++OO",
"++OOoooooooooooooooooooooooo++OO++OOoooooooooooooooooooooooo++OO++OOoooooooooooooooooooooooo++OO++OOoooooooooooooooooooooooo++OO",
"++OOoo..  XX  ..++OOOO++OO++++OO++OOoo..  XX  ..++OOOO++OO++++OO++OOoo..  XX  ..++OOOO++OO++++OO++OOoo..  XX  ..++OOOO++OO++++OO",
"++OOoo..  XX  ..++OOOO++OO++++OO++OOoo..  XX  ..++OOOO++OO++++OO++OOoo..  XX  ..++OOOO++OO++++OO++OOoo..  XX  ..++OOOO++OO++++OO",
"++OOoo  ..OO..  OO++OO++OO++++OO++OOoo  ..OO..  OO++OO++OO++++OO++OOoo  ..OO..  OO++OO++OO++++OO++OOoo  ..OO..  OO++OO++OO++++OO",
"++OOoo  ..OO..  OO++OO++OO++++OO++OOoo  ..OO..  OO++OO++OO++++OO++OOoo  ..OO..  OO++OO++OO++++OO++OOoo  ..OO..  OO++OO++OO++++OO",
"++OOoo..  XX  ..++OO++OO++OO++OO++OOoo..  XX  ..++OO++OO++OO++OO++OOoo..  XX  ..++OO++OO++OO++OO++OOoo..  XX  ..++OO++OO++OO++OO",
"++OOoo..  XX  ..++OO++OO++OO++OO++OOoo..  XX  ..++OO++OO++OO++OO++OOoo..  XX  ..++OO++OO++OO++OO++OOoo..  XX  ..++OO++OO++OO++OO",
"++OOoo..........OOOO++OO++++++OO++OOoo..........OOOO++OO++++++OO++OOoo..........OOOO++OO++++++OO++OOoo..........OOOO++OO++++++OO",
"++OOoo..........OOOO++OO++++++OO++OOoo..........OOOO++OO++++++OO++OOoo..........OOOO++OO++++++OO++OOoo..........OOOO++OO++++++OO",
"++OOoo..........OO++OOOOOOOO++OO++OOoo..........OO++OOOOOOOO++OO++OOoo..........OO++OOOOOOOO++OO++OOoo..........OO++OOOOOOOO++OO",
"++OOoo..........OO++OOOOOOOO++OO++OOoo..........OO++OOOOOOOO++OO++OOoo..........OO++OOOOOOOO++OO++OOoo..........OO++OOOOOOOO++OO",
"++OOoo++OO++OOOO++OOOO++++OO++OO++OOoo++OO++OOOO++OOOO++++OO++OO++OOoo++OO++OOOO++OOOO++++OO++OO++OOoo++OO++OOOO++OOOO++++OO++OO",
"++OOoo++OO++OOOO++OOOO++++OO++OO++OOoo++OO++OOOO++OOOO++++OO++OO++OOoo++OO++OOOO++OOOO++++OO++OO++OOoo++OO++OOOO++OOOO++++OO++OO",
"++OOooOO++OO++OO++++OOOOOO..++OO++OOooOO++OO++OO++++OOOOOO..++OO++OOooOO++OO++OO++++OOOOOO..++OO++OOooOO++OO++OO++++OOOOOO..++OO",
"++OOooOO++OO++OO++++OOOOOO..++OO++OOooOO++OO++OO++++OOOOOO..++OO++OOooOO++OO++OO++++OOOOOO..++OO++OOooOO++OO++OO++++OOOOOO..++OO",
"++OOoo++OO++OO++OOOO++OO..  ++OO++OOoo++OO++OO++OOOO++OO..  ++OO++OOoo++OO++OO++OOOO++OO..  ++OO++OOoo++OO++OO++OOOO++OO..  ++OO",
"++OOoo++OO++OO++OOOO++OO..  ++OO++OOoo++OO++OO++OOOO++OO..  ++OO++OOoo++OO++OO++OOOO++OO..  ++OO++OOoo++OO++OO++OOOO++OO..  ++OO",
"++OOooOO++OO++OO++OOOO..    ++OO++OOooOO++OO++OO++OOOO..    ++OO++OOooOO++OO++OO++OOOO..    ++OO++OOooOO++OO++OO++OOOO..    ++OO",
"++OOooOO++OO++OO++OOOO..    ++OO++OOooOO++OO++OO++OOOO..    ++OO++OOooOO++OO++OO++OOOO..    ++OO++OOooOO++OO++OO++OOOO..    ++OO",
"++OOooOO++OO++OO++OO..      ++OO++OOooOO++OO++OO++OO..      ++OO++OOooOO++OO++OO++OO..      ++OO++OOooOO++OO++OO++OO..      ++OO",
"++OOooOO++OO++OO++OO..      ++OO++OOooOO++OO++OO++OO..      ++OO++OOooOO++OO++OO++OO..      ++OO++OOooOO++OO++OO++OO..      ++OO",
"++OOoo++OOOOOO++OO..        ++OO++OOoo++OOOOOO++OO..        ++OO++OOoo++OOOOOO++OO..        ++OO++OOoo++OOOOOO++OO..        ++OO",
"++OOoo++OOOOOO++OO..        ++OO++OOoo++OOOOOO++OO..        ++OO++OOoo++OOOOOO++OO..        ++OO++OOoo++OOOOOO++OO..        ++OO",
"++OO##@@@@@@@@@@@@@@@@@@@@@@##OO++OO##@@@@@@@@@@@@@@@@@@@@@@##OO++OO##@@@@@@@@@@@@@@@@@@@@@@##OO++OO##@@@@@@@@@@@@@@@@@@@@@@##OO",
"++OO##@@@@@@@@@@@@@@@@@@@@@@##OO++OO##@@@@@@@@@@@@@@@@@@@@@@##OO++OO##@@@@@@@@@@@@@@@@@@@@@@##OO++OO##@@@@@@@@@@@@@@@@@@@@@@##OO",
"OOOOOOOOOOOOOOOOOOOOOOOOOOOOOOOOOOOOOOOOOOOOOOOOOOOOOOOOOOOOOOOOOOOOOOOOOOOOOOOOOOOOOOOOOOOOOOOOOOOOOOOOOOOOOOOOOOOOOOOOOOOOOOOO",
"OOOOOOOOOOOOOOOOOOOOOOOOOOOOOOOOOOOOOOOOOOOOOOOOOOOOOOOOOOOOOOOOOOOOOOOOOOOOOOOOOOOOOOOOOOOOOOOOOOOOOOOOOOOOOOOOOOOOOOOOOOOOOOOO"
};
