/* XPM */
static char *CRATE2[] = {
/* columns rows colors chars-per-pixel */
"64 128 8 1 ",
"  c gray34",
". c #5B5B5B",
"X c #3F472B",
"o c gray31",
"O c #474F33",
"+ c #53573B",
"@ c gray39",
"# c gray42",
/* pixels */
"............................................................... ",
".                       .                   .          .       o",
".               .      .                  ..          .        o",
".   #@         .      .                  .       .   .     #@  o",
".   ..o       .      .                   .     .  ...      ..o o",
".   ooo      .       .                  .     .            ooo o",
".                  ..                 .      .           .     o",
".                 .                 ..      .           .      o",
".    .  ooooooooooooooooooooooooooooooooooooooooooooooooo   .  o",
".       o                         .      .            . .      o",
".       o   +OOXXXO    OXXOO+                        .  .      o",
".       o  +OXXXXXXO  OXXXXXO+                      .   .      o",
".    .  o +OXXXXXXXXO  OXXXXXO                     .    .      o",
".   .   o OXXXXXO  OOO  OXXXXX+       .           ..    .      o",
".  .    o OXXXXXO        OXXXXO                         .      o",
". .     o XXXXXXO          OXXO                 .       .      o",
".    .  o OXXXXXO        OXXXXO    .                    .   .  o",
".       o OXXXXXO  OOO  OXXXXX+               .         .      o",
".       o +OXXXXXXXXO  OXXXXXO                        . .      o",
".       o  +OXXXXXXO  OXXXXXO+      .       .           .      o",
".       o   +OOXXXO    OXXOO+      .       .            .      o",
".       o                         .      .           .  .      o",
".       o  OO  OO  OXOO   OOXO  .                    .  .      o",
".       o  XX  XX OXOOXO OXOOO  .      .           ..   .      o",
".    .  o  XX  XX XX  XX XX.       .  .                 .   .  o",
".     . o  XX  XX XXOOXX XX.                     .      .      o",
".  ..   o  OXOOXX XXOOXX OXOXO   .                      .      o",
". .     o   OOOO  OO  OO  OOOO                          .      o",
"..      o                                               .      o",
".       o                     .                         .      o",
".       o                                               .      o",
".       o             .      .                         o.      o",
".    .  o            .                    .           OX.   .  o",
".       o          ..     .        .    .            OXX.      o",
".       o         .      .              .  .        OXXX.      o",
".       o        .      .             .            OXXXX.      o",
".       o            ..         .    ..  .        OXXXXX.      o",
".       o       .   .                            OXXXXXX.      o",
".       o     .    .               .  ..        OXXXXXXX.      o",
".       o    .    .                            OXXXXXXXX.      o",
".    .  o                             .       OXXXXXXXXX.   .  o",
".       o   .   .                    .       OXXXXXXXXXX.      o",
".       o     ..       .           ..       OXXXXXXXXXXX.      o",
".       o     .      .      .     .        OXXXXXXXXXXXX.      o",
".       o    .             ..             OXXO        OX.      o",
".       o   .                            OXXX          X.      o",
".       o                        .      OXXXX  OXXXXO  X.      o",
".       o                      .       OXXXXXXXXXXXXO  X.      o",
".    .  o                .            OXXXXXXO         X.   .  o",
".       o         .                  OXXXXXXX         OX.      o",
".       o                           OXXXXXXXX  XXXXXXXXX.      o",
".       o             .            OXXXXXXXXX  XXXXXXXXX.      o",
".       o            .            OXXXXXXXXXX          X.      o",
".       o      .   ..            OXXXXXXXXXXX          X.      o",
".       o         ..            OXXXXXXXXXXXXXXXXXXXXXXX.      o",
".       o        .             oXXXXXXXXXXXXXXXXXXXXXXXX.      o",
".    .   ................................................   .  o",
".             .                                                o",
".            .                                  .              o",
".   #@      .                          .      .            #@  o",
".   ..o    .                          .    ...             ..o o",
".   ooo       .                      ..   ..               ooo o",
".            .                      .    .                     o",
".ooooooooooooooooooooooooooooooooooooooooooooooooooooooooooooooo",
"............................................................... ",
".                       .                   .          .       o",
".               .      .                  ..          .        o",
".   #@         .      .                  .       .   .     #@  o",
".   ..o       .      .                   .     .  ...      ..o o",
".   ooo      .       .                  .     .            ooo o",
".                  ..                 .      .           .     o",
".                 .                 ..      .           .      o",
".    .  ooooooooooooooooooooooooooooooooooooooooooooooooo   .  o",
".       o                         .      .            . .      o",
".       o   +OOXXXO    OXXOO+                        .  .      o",
".       o  +OXXXXXXO  OXXXXXO+                      .   .      o",
".    .  o +OXXXXXXXXO  OXXXXXO                     .    .      o",
".   .   o OXXXXXO  OOO  OXXXXX+       .           ..    .      o",
".  .    o OXXXXXO        OXXXXO                         .      o",
". .     o XXXXXXO          OXXO                 .       .      o",
".    .  o OXXXXXO        OXXXXO    .                    .   .  o",
".       o OXXXXXO  OOO  OXXXXX+               .         .      o",
".       o +OXXXXXXXXO  OXXXXXO                        . .      o",
".       o  +OXXXXXXO  OXXXXXO+      .       .           .      o",
".       o   +OOXXXO    OXXOO+      .       .            .      o",
".       o                         .      .           .  .      o",
".       o  OO  OO  OXOO   OOXO  .                    .  .      o",
".       o  XX  XX OXOOXO OXOOO  .      .           ..   .      o",
".    .  o  XX  XX XX  XX XX.       .  .                 .   .  o",
".     . o  XX  XX XXOOXX XX.                     .      .      o",
".  ..   o  OXOOXX XXOOXX OXOXO   .                      .      o",
". .     o   OOOO  OO  OO  OOOO                          .      o",
"..      o                                               .      o",
".       o                     .                         .      o",
".       o                                               .      o",
".       o             .      .                         o.      o",
".    .  o            .                    .           OX.   .  o",
".       o          ..     .        .    .            OXX.      o",
".       o         .      .              .  .        OXXX.      o",
".       o        .      .             .            OXXXX.      o",
".       o            ..         .    ..  .        OXXXXX.      o",
".       o       .   .                            OXXXXXX.      o",
".       o     .    .               .  ..        OXXXXXXX.      o",
".       o    .    .                            OXXXXXXXX.      o",
".    .  o                             .       OXXXXXXXXX.   .  o",
".       o   .   .                    .       OXXXXXXXXXX.      o",
".       o     ..       .           ..       OXXXXXXXXXXX.      o",
".       o     .      .      .     .        OXXXXXXXXXXXX.      o",
".       o    .             ..             OXXO        OX.      o",
".       o   .                            OXXX          X.      o",
".       o                        .      OXXXX  OXXXXO  X.      o",
".       o                      .       OXXXXXXXXXXXXO  X.      o",
".    .  o                .            OXXXXXXO         X.   .  o",
".       o         .                  OXXXXXXX         OX.      o",
".       o                           OXXXXXXXX  XXXXXXXXX.      o",
".       o             .            OXXXXXXXXX  XXXXXXXXX.      o",
".       o            .            OXXXXXXXXXX          X.      o",
".       o      .   ..            OXXXXXXXXXXX          X.      o",
".       o         ..            OXXXXXXXXXXXXXXXXXXXXXXX.      o",
".       o        .             oXXXXXXXXXXXXXXXXXXXXXXXX.      o",
".    .   ................................................   .  o",
".             .                                                o",
".            .                                  .              o",
".   #@      .                          .      .            #@  o",
".   ..o    .                          .    ...             ..o o",
".   ooo       .                      ..   ..               ooo o",
".            .                      .    .                     o",
".ooooooooooooooooooooooooooooooooooooooooooooooooooooooooooooooo"
};
