/* XPM */
static char *DBRAIN4[] = {
/* columns rows colors chars-per-pixel */
"128 64 33 1 ",
"  c #430000",
". c #470000",
"X c #530707",
"o c #5B0707",
"O c #5F0707",
"+ c #670B0B",
"@ c #6B0F0F",
"# c #771717",
"$ c #7F1B1B",
"% c #732B00",
"& c #7F532F",
"* c #831F1F",
"= c #8B2323",
"- c #8F2B2B",
"; c #972F2F",
": c #A33B3B",
"> c #A73F3F",
", c #874307",
"< c #9B5B13",
"1 c #AF7B1F",
"2 c #9B633B",
"3 c #A36B3F",
"4 c #AF4747",
"5 c #B34F4F",
"6 c #AB6F43",
"7 c #C39B2F",
"8 c yellow",
"9 c #FFFF23",
"0 c #D7BB43",
"q c #EBDB57",
"w c #FFFF47",
"e c #FFFF6B",
"r c #FFFF73",
/* pixels */
"####==%%,,::,,%%,,,,,,%%ooXX..%%,,4444::;;,,%%%%%%,,,,%%,,,,,,,,,,%%..      %%%%%%%%,,,,,,>>>>,,%%,,%%++oo....  %%,,44,,%%,,;;--",
"####==%%,,::,,%%,,,,,,%%ooXX..%%,,4444::;;,,%%%%%%,,,,%%,,,,,,,,,,%%..      %%%%%%%%,,,,,,>>>>,,%%,,%%++oo....  %%,,44,,%%,,;;--",
"$$**%%++%%%%,,%%++oooo,,%%oo....%%,,,,%%%%........%%%%,,,,<<<<,,,,%%..      ......++,,%%%%,,,,%%,,%%,,,,%%          %%%%oo%%,,,,",
"$$**%%++%%%%,,%%++oooo,,%%oo....%%,,,,%%%%........%%%%,,,,<<<<,,,,%%..      ......++,,%%%%,,,,%%,,%%,,,,%%          %%%%oo%%,,,,",
"**%%oo++,,,,,,%%++oo,,<<<<%%oo..              ....XX%%%%<<1111<<,,%%....  ........++,,%%%%%%,,++%%,,,,,,,,%%      ..  oooo%%%%,,",
"**%%oo++,,,,,,%%++oo,,<<<<%%oo..              ....XX%%%%<<1111<<,,%%....  ........++,,%%%%%%,,++%%,,,,,,,,%%      ..  oooo%%%%,,",
"%%XX++++,,,,%%%%%%%%,,,,,,%%ooXX..              ....%%%%,,1111<<,,%%oo..........++%%++,,<<,,%%++++%%,,,,,,,,%%oo..XXoooo%%%%%%,,",
"%%XX++++,,,,%%%%%%%%,,,,,,%%ooXX..              ....%%%%,,1111<<,,%%oo..........++%%++,,<<,,%%++++%%,,,,,,,,%%oo..XXoooo%%%%%%,,",
"XXoooo++%%%%++%%%%%%%%%%%%oo..XXXXXX....        ....%%%%,,<<<<,,%%XX++XXXX......++%%%%<<<<%%oo....++,,,,,,,,,,%%++XXXX++%%,,%%,,",
"XXoooo++%%%%++%%%%%%%%%%%%oo..XXXXXX....        ....%%%%,,<<<<,,%%XX++XXXX......++%%%%<<<<%%oo....++,,,,,,,,,,%%++XXXX++%%,,%%,,",
"XXoooo++++++++%%%%XXXX++%%....    XXXX          ....%%%%%%,,,,%%%%%%++XXXX....XX..%%%%%%,,%%++........%%,,,,,,,,XXooXXOO%%,,,,,,",
"XXoooo++++++++%%%%XXXX++%%....    XXXX          ....%%%%%%,,,,%%%%%%++XXXX....XX..%%%%%%,,%%++........%%,,,,,,,,XXooXXOO%%,,,,,,",
"%%XXoooooooo++OO++++@@OOOO....    ..XXXX        ....%%%%,,%%%%%%%%%%%%OOXXooXX..............oooo........%%,,,,,,%%XXXX++++%%,,,,",
"%%XXoooooooo++OO++++@@OOOO....    ..XXXX        ....%%%%,,%%%%%%%%%%%%OOXXooXX..............oooo........%%,,,,,,%%XXXX++++%%,,,,",
"%%ooXXXXooXXoooo++oooo++OO..........XX++oo........XX%%%%oo%%++......++++XXooXXXXXX............++++......++,,&&&&%%oo%%,,%%++@@%%",
"%%ooXXXXooXXoooo++oooo++OO..........XX++oo........XX%%%%oo%%++......++++XXooXXXXXX............++++......++,,&&&&%%oo%%,,%%++@@%%",
"%%..XX....oooo@@OOOO++++++............++++XXXXXX..XX++%%ooXXXXXXXXXXXXXXXX..XX..XX............++%%++..XX,,<<<<,,oooo%%,,%%oo..%%",
"%%..XX....oooo@@OOOO++++++............++++XXXXXX..XX++%%ooXXXXXXXXXXXXXXXX..XX..XX............++%%++..XX,,<<<<,,oooo%%,,%%oo..%%",
"  XX..XXOO++%%%%oo..XX%%%%++..XXXXXX++++++++oo++ooXXoo++++XX......ooOOOO....XX......XX........++%%++..,,<<1111<<,,%%oo%%++++..XX",
"  XX..XXOO++%%%%oo..XX%%%%++..XXXXXX++++++++oo++ooXXoo++++XX......ooOOOO....XX......XX........++%%++..,,<<1111<<,,%%oo%%++++..XX",
"  ....XXOO++XXOOoooooo%%%%++oo@@++%%%%%%,,%%++++XXXX....XXXX........OOOO........  XX..XXXX....++OO%%,,<<11777711,,,,%%%%++++..XX",
"  ....XXOO++XXOOoooooo%%%%++oo@@++%%%%%%,,%%++++XXXX....XXXX........OOOO........  XX..XXXX....++OO%%,,<<11777711,,,,%%%%++++..XX",
"..XXXX............XXoooo%%,,<<,,<<,,<<,,<<,,,,%%XXXXXX................XX......  ........ooXX++++++%%,,<<<<<<<<<<,,<<<<%%++++....",
"..XXXX............XXoooo%%,,<<,,<<,,<<,,<<,,,,%%XXXXXX................XX......  ........ooXX++++++%%,,<<<<<<<<<<,,<<<<%%++++....",
"..XX....XX............oooo,,<<,,<<111111<<<<,,,,ooXXooXX..    ..  ......XX....  ..XX......++OO++%%,,,,,,%%,,,,,,,,<<<<,,%%++XX%%",
"..XX....XX............oooo,,<<,,<<111111<<<<,,,,ooXXooXX..    ..  ......XX....  ..XX......++OO++%%,,,,,,%%,,,,,,,,<<<<,,%%++XX%%",
"XXXX................    oo++%%<<1177777711<<<<<<,,++ooooooXX..      ....oo++++ooooXX..    ..%%%%%%%%++++XXoo++%%%%,,,,,,%%++%%%%",
"XXXX................    oo++%%<<1177777711<<<<<<,,++ooooooXX..      ....oo++++ooooXX..    ..%%%%%%%%++++XXoo++%%%%,,,,,,%%++%%%%",
"%%++%%++..........        ++%%<<117700000000111111<<<<%%++oo..  ....XXoo%%,,%%++XXoo..  ....++OO++++........XXoo++,,<<%%%%%%%%%%",
"%%++%%++..........        ++%%<<117700000000111111<<<<%%++oo..  ....XXoo%%,,%%++XXoo..  ....++OO++++........XXoo++,,<<%%%%%%%%%%",
",,,,%%%%........          ..++%%<<1100qqrrwwqq00007711<<++oo..      ..++%%,,,,oo++++oo....XXXXXXXXXX..............@@,,,,%%%%@@%%",
",,,,%%%%........          ..++%%<<1100qqrrwwqq00007711<<++oo..      ..++%%,,,,oo++++oo....XXXXXXXXXX..............@@,,,,%%%%@@%%",
"<<<<<<,,%%....            ....%%,,<<00qq99rr9999990077<<,,oo..    ....XX++%%%%++%%++++..XX..XXXXXX....            ....%%%%%%@@%%",
"<<<<<<,,%%....            ....%%,,<<00qq99rr9999990077<<,,oo..    ....XX++%%%%++%%++++..XX..XXXXXX....            ....%%%%%%@@%%",
"<<1111<<%%%%....      ........++,,,,7700ee88qq0000qq0077<<%%..........XXOO..++oo++++++XX..XXXXXX....                ....++++oo++",
"<<1111<<%%%%....      ........++,,,,7700ee88qq0000qq0077<<%%..........XXOO..++oo++++++XX..XXXXXX....                ....++++oo++",
"<<<<1111<<,,%%..............oo%%,,<<117700qq000000777711,,,,++XX....++++++XXXXXX++%%%%%%++XX..XXXX                    ..oooooo++",
"<<<<1111<<,,%%..............oo%%,,<<117700qq000000777711,,,,++XX....++++++XXXXXX++%%%%%%++XX..XXXX                    ..oooooo++",
",,<<111111<<,,%%............%%%%,,<<1111771111111111<<<<<<%%++oooo++%%%%++XXXX..oo++++%%%%XXXX..XX..                  ..XXoooo%%",
",,<<111111<<,,%%............%%%%,,<<1111771111111111<<<<<<%%++oooo++%%%%++XXXX..oo++++%%%%XXXX..XX..                  ..XXoooo%%",
"%%,,,,111111<<,,%%%%oooooo@@,,<<<<<<111111<<%%%%%%%%%%,,,,%%++OO@@oo%%++XX........oooooo++oo..XX....                  ....oo%%,,",
"%%,,,,111111<<,,%%%%oooooo@@,,<<<<<<111111<<%%%%%%%%%%,,,,%%++OO@@oo%%++XX........oooooo++oo..XX....                  ....oo%%,,",
",,<<,,1177771111<<,,%%%%,,,,<<<<33<<<<<<<<%%%%++........,,%%XXXX++%%%%....    ......oo++++++......                    ....oo,,<<",
",,<<,,1177771111<<,,%%%%,,,,<<<<33<<<<<<<<%%%%++........,,%%XXXX++%%%%....    ......oo++++++......                    ....oo,,<<",
"<<<<<<<<1177777711<<,,,,,,,,<<33<<,,<<<<%%%%............++%%........ooooXX      ......%%%%++oo....  ..              ........<<<<",
"<<<<<<<<1177777711<<,,,,,,,,<<33<<,,<<<<%%%%............++%%........ooooXX      ......%%%%++oo....  ..              ........<<<<",
"111111,,<<1111111111<<,,,,,,,,,,%%%%,,<<++OOXX..    ......%%++......  XXoooo....  oo..,,,,oooooo....  ..        ..........%%<<,,",
"111111,,<<1111111111<<,,,,,,,,,,%%%%,,<<++OOXX..    ......%%++......  XXoooo....  oo..,,,,oooooo....  ..        ..........%%<<,,",
"111111<<%%,,11111111<<%%%%++@@,,,,oo,,,,ooXXXX..    ......%%@@......    ..ooXXoooo%%,,,,,,ooooXX++++..      ..  ..........,,<<,,",
"111111<<%%,,11111111<<%%%%++@@,,,,oo,,,,ooXXXX..    ......%%@@......    ..ooXXoooo%%,,,,,,ooooXX++++..      ..  ..........,,<<,,",
"<<<<1111,,%%,,<<11<<,,%%++OO%%%%,,%%%%%%++ooXXXX..  ....++%%##......      XX++++++++++++%%%%++++++++oooo++%%++ooooXXoooo%%,,<<,,",
"<<<<1111,,%%,,<<11<<,,%%++OO%%%%,,%%%%%%++ooXXXX..  ....++%%##......      XX++++++++++++%%%%++++++++oooo++%%++ooooXXoooo%%,,<<,,",
"%%<<,,,,,,%%,,%%<<<<%%%%..XXoooo++++++++ooXXXXXX..XX..XX%%%%%%......  ..    ++++%%......@@##@@oooo++++++++%%++%%oo%%oo%%%%,,,,%%",
"%%<<,,,,,,%%,,%%<<<<%%%%..XXoooo++++++++ooXXXXXX..XX..XX%%%%%%......  ..    ++++%%......@@##@@oooo++++++++%%++%%oo%%oo%%%%,,,,%%",
"%%%%XX%%%%..%%,,%%%%%%%%XXXXXX%%%%%%............XXXXXX++++%%%%++............++++%%%%++..%%%%OOOOXXXXXX++++++++oo%%,,<<<<<<%%%%%%",
"%%%%XX%%%%..%%,,%%%%%%%%XXXXXX%%%%%%............XXXXXX++++%%%%++............++++%%%%++..%%%%OOOOXXXXXX++++++++oo%%,,<<<<<<%%%%%%",
"%%%%OO++++XX++%%%%%%++%%%%++%%%%,,<<,,,,,,..........oo%%%%,,,,%%%%%%%%++....ooXX%%,,%%,,,,%%++OO........XX++%%%%,,111122<<,,%%%%",
"%%%%OO++++XX++%%%%%%++%%%%++%%%%,,<<,,,,,,..........oo%%%%,,,,%%%%%%%%++....ooXX%%,,%%,,,,%%++OO........XX++%%%%,,111122<<,,%%%%",
",,%%........XX++++++%%%%%%,,,,,,<<<<<<<<<<<<,,%%%%%%%%++,,,,<<11<<<<,,%%++%%%%%%%%%%<<,,%%%%OOOOXXXXXX..++%%%%%%%%%%6611,,,,%%,,",
",,%%........XX++++++%%%%%%,,,,,,<<<<<<<<<<<<,,%%%%%%%%++,,,,<<11<<<<,,%%++%%%%%%%%%%<<,,%%%%OOOOXXXXXX..++%%%%%%%%%%6611,,,,%%,,",
"::,,%%....  ....XX++%%%%,,<<<<<<<<1111<<11<<,,,,,,,,,,%%,,<<<<11777711<<%%,,,,,,,,%%,,,,%%%%OO..XXOOXX..++%%%%%%,,%%%%<<,,%%,,,,",
"::,,%%....  ....XX++%%%%,,<<<<<<<<1111<<11<<,,,,,,,,,,%%,,<<<<11777711<<%%,,,,,,,,%%,,,,%%%%OO..XXOOXX..++%%%%%%,,%%%%<<,,%%,,,,",
"::::,,%%%%++  ....XX++%%,,2211111111<<;;,,%%,,::5555::,,%%,,,,11777777<<,,::5555::,,%%%%,,%%..........XX%%%%%%,,<<,,,,%%%%,,,,::",
"::::,,%%%%++  ....XX++%%,,2211111111<<;;,,%%,,::5555::,,%%,,,,11777777<<,,::5555::,,%%%%,,%%..........XX%%%%%%,,<<,,,,%%%%,,,,::"
};
