/* XPM */
static char *DOORBLU[] = {
/* columns rows colors chars-per-pixel */
"8 128 16 1 ",
"  c gray39",
". c gray31",
"X c #00006B",
"o c #6F6F6F",
"O c #5B5B5B",
"+ c #000053",
"@ c #000083",
"# c #777777",
"$ c #4B4B4B",
"% c #000047",
"& c #0000B3",
"* c #8B8B8B",
"= c #000023",
"- c gray42",
"; c #00002F",
": c gray50",
/* pixels */
"$# o- o$",
".# o- o.",
". .... .",
". @+X+ .",
"O @+X% O",
"O X%X= O",
". X;X+ .",
". X+X% .",
". &@@& .",
". X%== .",
"O &;X& O",
"O X+XX O",
". @+XX .",
".o@XXXo.",
".o#***#.",
"$:o #o#$",
"$# o- o$",
".# o- o.",
". .... .",
". @+X+ .",
"O @+X% O",
"O X%X= O",
". X;X+ .",
". X+X% .",
". &@@& .",
". X%== .",
"O &;X& O",
"O X+XX O",
". @+XX .",
".o@XXXo.",
".o#***#.",
"$:o #o#$",
"$# o- o$",
".# o- o.",
". .... .",
". @+X+ .",
"O @+X% O",
"O X%X= O",
". X;X+ .",
". X+X% .",
". &@@& .",
". X%== .",
"O &;X& O",
"O X+XX O",
". @+XX .",
".o@XXXo.",
".o#***#.",
"$:o #o#$",
"$# o- o$",
".# o- o.",
". .... .",
". @+X+ .",
"O @+X% O",
"O X%X= O",
". X;X+ .",
". X+X% .",
". &@@& .",
". X%== .",
"O &;X& O",
"O X+XX O",
". @+XX .",
".o@XXXo.",
".o#***#.",
"$:o #o#$",
"$# o- o$",
".# o- o.",
". .... .",
". @+X+ .",
"O @+X% O",
"O X%X= O",
". X;X+ .",
". X+X% .",
". &@@& .",
". X%== .",
"O &;X& O",
"O X+XX O",
". @+XX .",
".o@XXXo.",
".o#***#.",
"$:o #o#$",
"$# o- o$",
".# o- o.",
". .... .",
". @+X+ .",
"O @+X% O",
"O X%X= O",
". X;X+ .",
". X+X% .",
". &@@& .",
". X%== .",
"O &;X& O",
"O X+XX O",
". @+XX .",
".o@XXXo.",
".o#***#.",
"$:o #o#$",
"$# o- o$",
".# o- o.",
". .... .",
". @+X+ .",
"O @+X% O",
"O X%X= O",
". X;X+ .",
". X+X% .",
". &@@& .",
". X%== .",
"O &;X& O",
"O X+XX O",
". @+XX .",
".o@XXXo.",
".o#***#.",
"$:o #o#$",
"$# o- o$",
".# o- o.",
". .... .",
". @+X+ .",
"O @+X% O",
"O X%X= O",
". X;X+ .",
". X+X% .",
". &@@& .",
". X%== .",
"O &;X& O",
"O X+XX O",
". @+XX .",
".o@XXXo.",
".o#***#.",
"$:o #o#$"
};
