/* XPM */
static char *DOORRED2[] = {
/* columns rows colors chars-per-pixel */
"16 128 44 1 ",
"  c #170F07",
". c #4F0000",
"X c #731313",
"o c #5F0707",
"O c #430000",
"+ c #470000",
"@ c #5B0707",
"# c #7F1B1B",
"$ c #670B0B",
"% c #831F1F",
"& c #675333",
"* c #6B0F0F",
"= c #9B3333",
"- c #8F2B2B",
"; c #432F1B",
": c #8B2323",
"> c #6F5743",
", c #A33B3B",
"< c #5F4B37",
"1 c #4B371B",
"2 c #533F1F",
"3 c #836B57",
"4 c #574333",
"5 c #775F4B",
"6 c #7B634F",
"7 c #5F4323",
"8 c #B34F4F",
"9 c #C76363",
"0 c #533F2F",
"q c #1F170B",
"w c #774F2B",
"e c #BB5757",
"r c #67533F",
"t c #3F2F17",
"y c #4F3B2B",
"u c #AF4747",
"i c #6B4727",
"p c #070707",
"a c #836B4B",
"s c #8B735B",
"d c black",
"f c #473323",
"g c #372313",
"h c #775F3F",
/* pixels */
"><>271777><>2717",
"yfyt;g;;;yfyt;g;",
"   q+@$XXX$@+q  ",
"  q@X:-===-:X@q ",
" O.%u8e999e8u%.O",
" .$=,u8eee8u,=$.",
" @X-,,u888u,,-X@",
" @#%%-=,,,=-%%#@",
" @oX###%%%###Xo@",
" ..*X##X#X##X*..",
" .O$@@@ooo@@@$O.",
" OOX$oo...oo$XOO",
"  OX#%:*@*:%#XO ",
" p+*...@.@...*+p",
"  o+ d O+O d +o ",
" +oO   .#.   Oo+",
" $X.O O. .O O.X$",
" $X:#$o   o$#:X$",
" O*o.O  +  O.o*O",
"  ++O +O.O+ O++ ",
"     .oXoXo.    ",
"     +.$o$.+    ",
"      +q q+     ",
"3w&iwiwwwww&iwiw",
"><>271777><>2717",
"yfyt;g;;;yfyt;g;",
"   q+@$XXX$@+q  ",
"  q@X:-===-:X@q ",
" O.%u8e999e8u%.O",
" .$=,u8eee8u,=$.",
" @X-,,u888u,,-X@",
" @#%%-=,,,=-%%#@",
" @oX###%%%###Xo@",
" ..*X##X#X##X*..",
" .O$@@@ooo@@@$O.",
" OOX$oo...oo$XOO",
"  OX#%:*@*:%#XO ",
" p+*...@.@...*+p",
"  o+ d O+O d +o ",
" +oO   .#.   Oo+",
" $X.O O. .O O.X$",
" $X:#$o   o$#:X$",
" O*o.O  +  O.o*O",
"  ++O +O.O+ O++ ",
"     .oXoXo.    ",
"     +.$o$.+    ",
"      +q q+     ",
"3w&iwiwwwww&iwiw",
"><>271777><>2717",
"yfyt;g;;;yfyt;g;",
"   q+@$XXX$@+q  ",
"  q@X:-===-:X@q ",
" O.%u8e999e8u%.O",
" .$=,u8eee8u,=$.",
" @X-,,u888u,,-X@",
" @#%%-=,,,=-%%#@",
" @oX###%%%###Xo@",
" ..*X##X#X##X*..",
" .O$@@@ooo@@@$O.",
" OOX$oo...oo$XOO",
"  OX#%:*@*:%#XO ",
" p+*...@.@...*+p",
"  o+ d O+O d +o ",
" +oO   .#.   Oo+",
" $X.O O. .O O.X$",
" $X:#$o   o$#:X$",
" O*o.O  +  O.o*O",
"  ++O +O.O+ O++ ",
"     .oXoXo.    ",
"     +.$o$.+    ",
"      +q q+     ",
"3w&iwiwwwww&iwiw",
"><>271777><>2717",
"yfyt;g;;;yfyt;g;",
"   q+@$XXX$@+q  ",
"  q@X:-===-:X@q ",
" O.%u8e999e8u%.O",
" .$=,u8eee8u,=$.",
" @X-,,u888u,,-X@",
" @#%%-=,,,=-%%#@",
" @oX###%%%###Xo@",
" ..*X##X#X##X*..",
" .O$@@@ooo@@@$O.",
" OOX$oo...oo$XOO",
"  OX#%:*@*:%#XO ",
" p+*...@.@...*+p",
"  o+ d O+O d +o ",
" +oO   .#.   Oo+",
" $X.O O. .O O.X$",
" $X:#$o   o$#:X$",
" O*o.O  +  O.o*O",
"  ++O +O.O+ O++ ",
"     .oXoXo.    ",
"     +.$o$.+    ",
"      +q q+     ",
"3w&iwiwwwww&iwiw",
"><>271777><>2717",
"yfyt;g;;;yfyt;g;",
"   q+@$XXX$@+q  ",
"  q@X:-===-:X@q ",
" O.%u8e999e8u%.O",
" .$=,u8eee8u,=$.",
" @X-,,u888u,,-X@",
" @#%%-=,,,=-%%#@",
" @oX###%%%###Xo@",
" ..*X##X#X##X*..",
" .O$@@@ooo@@@$O.",
" OOX$oo...oo$XOO",
"  OX#%:*@*:%#XO ",
" p+*...@.@...*+p",
"  o+ d O+O d +o ",
" +oO   .#.   Oo+",
" $X.O O. .O O.X$",
" $X:#$o   o$#:X$",
" O*o.O  +  O.o*O",
"  ++O +O.O+ O++ ",
"     .oXoXo.    ",
"     +.$o$.+    ",
"      +q q+     ",
"3w&iwiwwwww&iwiw",
"11144&22h&011110",
"tttt12221ttttttt",
"000000&<&0000000",
"5556ss6aa3355555",
"r&r633&>5&><<<<<",
"<&&633&>>&3r4<<<",
"<4&636>&&>3r44<4",
"<4&635>&&>6r4<<4"
};
