/* XPM */
static char *DOORBLU2[] = {
/* columns rows colors chars-per-pixel */
"16 128 37 1 ",
"  c #170F07",
". c #00002F",
"X c #00006B",
"o c #000083",
"O c #00009B",
"+ c #00003B",
"@ c #000053",
"# c #000047",
"$ c #675333",
"% c #6F5743",
"& c #000023",
"* c #5F4323",
"= c #432F1B",
"- c #0000E3",
"; c #0000CB",
": c #5F4B37",
"> c #4B371B",
", c #836B57",
"< c #533F1F",
"1 c #574333",
"2 c #775F4B",
"3 c #7B634F",
"4 c #533F2F",
"5 c blue",
"6 c #3F2F17",
"7 c #6B4727",
"8 c #00000B",
"9 c #774F2B",
"0 c #0000B3",
"q c #67533F",
"w c #8B735B",
"e c #836B4B",
"r c #473323",
"t c black",
"y c #372313",
"u c #4F3B2B",
"i c #775F3F",
/* pixels */
"%:%<*>***%:%<*>*",
"uru6=y===uru6=y=",
"   &.@XoooX@.&  ",
"  &@oO0;;;0Oo@& ",
" .#O---555---O#.",
" +X;;-------;;X+",
" @o0;;-----;;0o@",
" @OOO0;;;;;0OOO@",
" @XoOOOOOOOOOoX@",
" #+ooOOoOoOOoo+#",
" +.X@@@XXX@@@X.+",
" ..oXXX#+#XXXo..",
"  .oOOOo@oOOOo. ",
" 8.o+++@#@+++o.8",
"  X. t ... t .X ",
" .X.   #O#   .X.",
" Xo+.&.# #.&.+oX",
" XoOOXX   XXOOoX",
" .oX#.& . &.#Xo.",
"  ...&..#..&... ",
"    &+XoXoX+&   ",
"     .+XXX+.    ",
"      .& &.     ",
",9$79799999$7979",
"%:%<*>***%:%<*>*",
"uru6=y===uru6=y=",
"   &.@XoooX@.&  ",
"  &@oO0;;;0Oo@& ",
" .#O---555---O#.",
" +X;;-------;;X+",
" @o0;;-----;;0o@",
" @OOO0;;;;;0OOO@",
" @XoOOOOOOOOOoX@",
" #+ooOOoOoOOoo+#",
" +.X@@@XXX@@@X.+",
" ..oXXX#+#XXXo..",
"  .oOOOo@oOOOo. ",
" 8.o+++@#@+++o.8",
"  X. t ... t .X ",
" .X.   #O#   .X.",
" Xo+.&.# #.&.+oX",
" XoOOXX   XXOOoX",
" .oX#.& . &.#Xo.",
"  ...&..#..&... ",
"    &+XoXoX+&   ",
"     .+XXX+.    ",
"      .& &.     ",
",9$79799999$7979",
"%:%<*>***%:%<*>*",
"uru6=y===uru6=y=",
"   &.@XoooX@.&  ",
"  &@oO0;;;0Oo@& ",
" .#O---555---O#.",
" +X;;-------;;X+",
" @o0;;-----;;0o@",
" @OOO0;;;;;0OOO@",
" @XoOOOOOOOOOoX@",
" #+ooOOoOoOOoo+#",
" +.X@@@XXX@@@X.+",
" ..oXXX#+#XXXo..",
"  .oOOOo@oOOOo. ",
" 8.o+++@#@+++o.8",
"  X. t ... t .X ",
" .X.   #O#   .X.",
" Xo+.&.# #.&.+oX",
" XoOOXX   XXOOoX",
" .oX#.& . &.#Xo.",
"  ...&..#..&... ",
"    &+XoXoX+&   ",
"     .+XXX+.    ",
"      .& &.     ",
",9$79799999$7979",
"%:%<*>***%:%<*>*",
"uru6=y===uru6=y=",
"   &.@XoooX@.&  ",
"  &@oO0;;;0Oo@& ",
" .#O---555---O#.",
" +X;;-------;;X+",
" @o0;;-----;;0o@",
" @OOO0;;;;;0OOO@",
" @XoOOOOOOOOOoX@",
" #+ooOOoOoOOoo+#",
" +.X@@@XXX@@@X.+",
" ..oXXX#+#XXXo..",
"  .oOOOo@oOOOo. ",
" 8.o+++@#@+++o.8",
"  X. t ... t .X ",
" .X.   #O#   .X.",
" Xo+.&.# #.&.+oX",
" XoOOXX   XXOOoX",
" .oX#.& . &.#Xo.",
"  ...&..#..&... ",
"    &+XoXoX+&   ",
"     .+XXX+.    ",
"      .& &.     ",
",9$79799999$7979",
"%:%<*>***%:%<*>*",
"uru6=y===uru6=y=",
"   &.@XoooX@.&  ",
"  &@oO0;;;0Oo@& ",
" .#O---555---O#.",
" +X;;-------;;X+",
" @o0;;-----;;0o@",
" @OOO0;;;;;0OOO@",
" @XoOOOOOOOOOoX@",
" #+ooOOoOoOOoo+#",
" +.X@@@XXX@@@X.+",
" ..oXXX#+#XXXo..",
"  .oOOOo@oOOOo. ",
" 8.o+++@#@+++o.8",
"  X. t ... t .X ",
" .X.   #O#   .X.",
" Xo+.&.# #.&.+oX",
" XoOOXX   XXOOoX",
" .oX#.& . &.#Xo.",
"  ...&..#..&... ",
"    &+XoXoX+&   ",
"     .+XXX+.    ",
"      .& &.     ",
",9$79799999$7979",
">>>11$<<i$4>>>>4",
"6666><<<>6666666",
"444444$:$4444444",
"2223ww3ee,,22222",
"q$q3,,$%2$%:::::",
":$$3,,$%%$,q1:::",
":1$3,3%$$%,q11:1",
":1$3,2%$$%3q1::1"
};
