/* XPM */
static char *FIREBLU2[] = {
/* columns rows colors chars-per-pixel */
"128 128 37 1 ",
"  c #00006B",
". c #000083",
"X c #000053",
"o c #A70000",
"O c #7F0000",
"+ c #9B0000",
"@ c #00009B",
"# c #000047",
"$ c #B30000",
"% c #670000",
"& c #8B0000",
"* c #0000B3",
"= c #730000",
"- c #5B0000",
"; c #BF0000",
": c #CB0000",
"> c #470000",
", c #4F0000",
"< c #000017",
"1 c #D70000",
"2 c #430000",
"3 c #0000CB",
"4 c #E30000",
"5 c black",
"6 c red",
"7 c #6F006B",
"8 c #EF0000",
"9 c #170F07",
"0 c #00003B",
"q c #530707",
"w c #373737",
"e c #670B0B",
"r c #771717",
"t c #731313",
"y c #5B0707",
"u c #5F0707",
"i c #00002F",
/* pixels */
"X O+;:o>#XX# ..X..&.#o@++O    .@+X&1X#.@ OO.+&OX.+-XO.< +XXXXXX*.%OX X#:$## . .@ XX#..#XX .O= @@X  .@=-..ooO.  .$o+& @ X>%+.=+&#",
" .O;:+<# %#X@@@.*oo X@ %+O  .  .oOO$XX@@OO .OooX  #X* #o%X##O@X..%%2@@#$&#  @@*   XX XXX.@ O++*3  .@ X.@ +:.%@@ &+&@.@%- +O  OO.",
" X@o$O5X@ # @.. +& *.X#X@  .+O  ooo8 #&OXo.XX$++oOX. X.3 #XX  #.#+.2*3@,-XX@*@. =X   X  @ o$@o$7&&0XX @  $$..@@.+$O @ XO;* - $& ",
"X .&:O5 @X## ..%@.#o #X   XX++. *444  $X $+ #:$&++O X *@#%%@+#-O#* <@*X%%X. @*.X@O*@#X   XO+  @++1+i#X XO$+..O@..  @@X.&$@XX+$XX",
" @&&$O##*@<#.@*.@@=$ X   @##o&++.=;$+&O @O #-$O%$+$o% @ # -@@#%%@. < @XX,@@ .@ @3O. X #XXX+o...%OooOX#XX+:++$o..o.X @@  &O @o.#-",
"Xoo#&$#<@@## @. +oo%O.  @  X O++ .+OOOoO%+ 2>.+O> O&XX.. X+$O>O-XX X<# =.@@*@X#@@X . XX. 2;X.. XX++ ##X=@o&+o+=+1.#X@.@@Ooo@.X%+",
".&O=+$>,+.>% @@  .#>O  .@.X,.:$+.@ X.o*=&1@#X +o ,OO #@.<2@o%< +,#XX#@XXoX *3 #+;  . XX@ y$X OO   =*@# .%O%@;O++$$.#X@$**+    $$",
" O+O&+--o$%=+;;@@@##@*O+@  2 o+oo+ =@o@O+:o = +1@XOO O.#X%*$<9&&X X#*@<#@ ..@%#@&   . X@ @@ $+& # X*$X =%OXXOO+o$oo - *ooO   &;.",
" X+Oo$,-o@#X +..  #>..+$o.XX.+o.O @ +$$o++o X .OO  X&$%#@*:=5<&@ #O@.@@##*.#X+* >oo@X .@.@X#+$.#  X*@##+$O %>#$1$OOoo.O$:... $o ",
".%++o+%X@X# .@O.  ## *+:oX@$. + OX.o$;$$o+  #   +@#X.OO  $1@<#+O##..@.XO  ..o+.#+:$@#X .@@X o+X . o@ 2#14+@ >#;1+++1$X%@;*  +oO>",
" #+O @   X  X   X##X@* +% *:. O.% O$$*@++X,X#  @ <X@ %o&o66.5#+O##@@ #.  *@O  @ ++ @X#  :%X@&O%o+O+@@2#o+OOO .$+@.o: 2# o+ #O++.",
"X.+%+@ #X@.X .XX ##    XX@34. O$  o$o O++%X @  X##.  O+;$;*OX#  # O* # X@*o+. *@#  o >O.+$+ .++OOo .@>%+$&+: XOO>,@+. X %O #O+$o",
",O=# .#<#.  .X# *X## .X  @3;-# @  @O..=   XX@ ##@@@X =.@++##=% XX@.@ # # +..@@@ X@*&X  -+$XX..++o* ..X*++,&1.%+ # *X  .@%O@#O++.",
" O.X@@##X  @@#>.@ #X @.  @.O.X @ &+@O  X#@ #.##. O@2%=@*.##.O          X@  @@.@.X.3.XXXO.= .OX$:.. ..2X @#,,Xo.X  @.O   .*.#=&=&",
". ..@ X->XX**##  . #.@  @..@@X   = @+..X .  X#   ; XO-@.##Xoo.   . X :oXX  .*. ..    # *@X@. >O$.#*@XX .@.###.  @..  X  #.#,+#%+",
" .  . XX#  @. ##.@X#@@..@ ... OOOo3 X @ .+-X X##.O>oO#. >#@;@  X@3@.@+>X.  @@  @@ .o+  @@@@  .O* #+* @  .@XX X.X @X *#@@XX<O:X%O",
"OoO@@X### .  @## * #@.X ..  O=+4:o..+OX.@,%@ @ #X -X%*.###@ ..OO%X@ XXX @  X.@   @.*+% .3@  @..@ #*.X*  .@.# .@## #@.X..@.<O+ X#",
"+;.@+ X#XX#  .X#X .X .XX ..X 2&$$&O  = .+-X*...##X%@%oX## o**  O& X   X .  #.*. .@O@+&X.*  @  .@ # oO@  X.*X#@.#- . -X*@X ,X*@.,",
"oo  O ##X XX..-XX @X . #.. $ #q$+ O&o+ oo##3@ #X X@*@##XX@*@@ XX=     X ..@X @   .,%++ @@XX@ ..O.X#Oo3@@@@. .   >Ooo-.*.>=X .=O ",
"+O    ##X X @#X X  .@     X* 2 o+X*;oo.  X#@* #@.#@*XXX-  @3@ + @oX      .@ #   ..,$++o@. X.OO&O.X##.**:O# . o.X#O:$o77O-o. @@O+",
"   @ XO## %+.##X  @@X  #Xw$1+X.O;O oo -  @ ##.@..# @ ##@@ @@ @1+ .  X @.X @ #o$O .o  @;X *XXo& @ .==..o4@##@. @@X,$8$o+O%= .+ %+",
"  .o X.,#+O XX##X  *@X##OO+47.. @O&;..@ #  X>-@@.X<#.  @o*@ #$o= .  X @= # .X +;o$;X#..  @  *X oX*O %@$@#X@@  @.,,&$$o$+##@@$O%$",
"    X +%XOO.X##X X#@3X<X@  .+*@.=#O$. X# *.X++-%$##@ #.XO+* #.o.%..  @@X#X @@#q+$+@ #X@.#%O @   @.-..+++;$ .& .@># # 4:O>#O*+ O$",
"    %&&=-OO XXXX  #.* <X@  .+$*@.##@* #X.@. %+&=##@@##. &+.%#. &+.@X=$ ##O.@.  $.>#@  .- o+  .X@@.##o$o+:+X =  +X#*223:OO#,@ #%o",
"OO %+= O-    X X -#@*.#O*.@..+$o   .@#X... X%&@,<#*@X# @@$O%O.@  . XO+XX# .  ...##X... 2.oO X oo   .+O.*:+#X@@  @XX ..O&=X,X   o",
"%  O$+O+ X .XX. %O X@ >%.@@.@$oO.  %# @ * #.+O>#<@* XX .$$+ = @ . .   $ # .   @@XX . . #X+O X o X$&..   @XXX& X@3 X..*$X * # o  ",
"#&%+$&o:%#.o #OOO% +X.++O=@*@$&.@. .   @+..+1.<#.@    -@;>X.+o@.@@*.@@X&=  .  @XX .O..X#X.    @@ $o@..$@ .@O##@@++XX.*+O &O  ++X",
"X O$+O:o,X.$O%  O%  XX.$+ @@. X.3@ + X%o;7*.6X#. @.#X@.<OO,.o @.@@ OoX +=#  @ #.@ X ..O. X.$o  @.%&@ o$*   %@ @X+%XO OOo   &$. X",
" >.o&=+$OX o%XX#XO. X#X++.@@.@X=$.   @.+$;7. >X  * #.@##$O  .@  ..;$+>0=OO   X.@@. X .. XX.+&O   o+ * .*.X=+.X  & #X@+O..@XO+ @X",
" .%O&#.;& @o,XO%#X.O@ , @o$&.@ OO..XXo+,@$+:t<X***.X.@#-* , @@o*.X$;++%%    . .@@ XOO  X@  @+=  &:;   .@ .$O...#X@ #.+O- .X+$.@>",
"   $+XXOO  =-. >X   O%X .+&+ ..OOo@.    OX-8:# .@@. @ < +OO*$;$.= Xo;X<  X..  @@#X@@ # &O ..oO;oO$:.X @+ X+O  XX=+  @;@%   o$*oO",
". #-.@X#O@ #O$X# X  @X#X.OOO@.  ,@@@.X  ,#.:%# . @.  ##.X+8 O+XX.X XO- .X#X..oo# . ..  OO ..OOo++@&=@** #,$@ X# &O. +o. .@%&:$@*",
"& X#@o>>@*#<X$+# @=#  ,=.#Xo@   ..+@ eeX-. ## @@@X# o+#X .. X#o*@  .OOo;.# =@;Oo*.++ o.#@*@ X. &$%%@.# .#%:.###*+   o%X o X +. @",
"O   @ # . #XX.=%%  X.O+&X< @OO .. .X#$; # @## ;o XOo&+X *@X.  o** X . $;##*.o$%+*.%..O.#@*@# @# &Oo@ #@@#%1@## @+ #+$O @@  %. @*",
"  @O XXX.OX X  =O=O X.O%#< O%.o.O @ Xo$uO@ X#X+$o%**-X@..  ..X.@@XX@##;$#<o =$O+O%- &  ..*@   O +ooq%  @.X%4.#..  &+O$@ @oO#O@@.",
" 3++@X-  OOX#  X %&O.OOX##@+ .% $o...+$o;+ .#2#$+#%:1 .@.@    X   . ##OO#.@X2 $+= > +.@@ X.o- *OO+7$+# .##$oO@@..*. .oOOo$&#.@.+",
"&6$o1+%O  X#X..%  OO @XXXX@**># $;.%.+O$$X. #X *3%X$7.@  @.X    % @X##  Oo.XX-++O  $$O  X# =#*;O+X 7+# XX@$OX@oO@#<.@@+-O:oO.;:+",
"O+$$$$O%  -%X OXX .    ## @@&>X &o X.>%o@..#X@.@**...  X..   X   OO  # O .o@<,O;  o++++@...XX++&X  ....X@.+=5 *O.@#X**OX.::$$:;$",
"#O;$;o #%%= XOO  .   .@## @.%%  = @@...@..  . ..$:@.XX@@X @. X  X    #@@##oX<%+@# $ 2-+;@@&X.:&0@. . #X .Xo@X   .@ #*+OO+$+o*. .",
"#+o$o XX.X=&X +O O X   X %-  %.  @@  .@ X  # @=X+$=XX.. .@...  ##@@@.X@@ ##X +oX..%#>X%&.  .*+>#.*.XXX @..o@X#.@#XX.@O++@# 3.  2",
"#,o$  X.@>%O%OO OOO%X.XX  ,#X=O . .  @@X @.@ @.#O;#X . .@ X OOX# @O..+*@@#< + .o.  . #O+ .@..;-<..@ XO+ .*    @@## @ %O..X @@@* ",
"%>O@ .XO*#Xo=O%%+%OO-o@ O ##%O=oX#@ . X @.@@.. 2O+#X .@@. # $O # .O  O+@OoX%&2@oX @@X + X.@..+%<X..  ;oX@@  . #@@  # o. X# .@  %",
"-X&+     X .=o ,o,X.=O*&O##-%OOO#X. . &+@.oO  #2 +OXX@*@%X-  &.#=o #.oo#&8%%o=<+o.   .@     .$OX...#X%O  @OO@XX$ X  .@o.#X @.@ =",
"X%+=@@  ##@*@OX#$&# X $+ 2#%&%@ X##.@o&&.@+%#####+$ X@. X  X.@## *X< $.5Xo+O X<+o7* X .  .  >$;   .X ...o ++XX$$ X@..@. ..#X@@. ",
"%OO @@  >-..Oo #ooX  &$oX#X+o#..XX#.o, o..OX# . # *  ##.  X *@XX .%# ++##+o. #XOO;:X . @@  0o;o @@.    OO ;$> :$XX   &O** # o. @",
"O%O  ..=>>  O+@ X%=%  o$###o*#O X X-  O - + #X@*##. XX @ >,@ @.XX &o +OX.OO.X#++ &o+  .@*..&+oO .@*   ...@o 2#;$7@O# +o.@     @.",
"=+%&.@;%#X.*@%O X% OX#@O###O#X   #=%..@  @$*X *.#X.  o X&&        % @  @O@  O O.X ++0X.@@@.2+Oo.X@@ X.*@.@.XXXOo16 >O& @o    @@o",
"XX%&;$$ #X  @=O$+X%+## XO.XX##X @  X#@*@  ++ X   XX.   #%  &   XX % . @.   ooO> @. +O @  @@%$$o@#Xo@X oo@   X2 ;$o.@O @.**..X ..",
" #X;$$$ #-..@ O$$ OO#XX *X# ##X .@@##** @@ ++XX  $+X #.@X> +.   XX @ ..X# @o;.>.;@ +;7;OX...oo;X  ....o$. @... ++$$o+.  @*.@X # ",
"% X$oO$ # O XOo++.  -O%X@X, XXXX @@<Xo.=o*  ;.>XOoO#*X#@*>,+..  O  O... X# O$@X@@ . ;6:++7+.@7o+ @  @ O$  o;@..&o++$;X @*@ @   .",
"o. *+:$#X- ..++++X.o%&=,*.>%% X#  XX .@=+* X&@%#O:@ ....X@$O... OX $ X@ X#@*oo  @+o>O;*$$$& *@++      o:. :: X+OX O$$X +$ # .@X ",
".. Xo$%X%%@.O+O=OO$:+O%>**##O # @#< @...**. %.O%+O%@O .. $$+o. @ X+$&  #X .;oO+@oo X =.$;$O @ .*.X . .O:*#+&#-ooX o1:O $1 # @..3",
"=.. @o% %.@.%OOX=+o$oO%-O*##X # .##.3@  @.X  @*.-X .+$@.X +o&   . +oo X# XOo Xoo@@... O+$@o.  X & @* .@1%5..Xo4$&$$$$+ o$@..@  @",
"oOO . O&# $ ==. XX&$oO%OO@X<X # @%> $oX# . >+:+-#%O o; % , &OX  ..$$$.X..XOO=.@o.#X@+..@o@.@ XXo*..O@..:. 3X#:1$o:$$$O.O%.@@ 0q$",
"oOO  OO+O.* O%&&# ;++oO#&$.%O=,&$%,O@%X#   .;$.%#o:o$O# @OXO    O@$$o..@@.%=.@@@. .OO.@.o X*$&o**  .. @o+**X%:o+&+$$$o@ #O&o+Oo:",
"o&& OO-oOX .=X.+%X. +$O#O++=OOOo. -% ## ...+;@%..XO+:%# @.X# @. =o$*.@@@.X -@..@..   .$o&O  O..@$o . X@@@@*+O$o.o+&o&,.XX++ooooo",
"O&+$&X    @@ #O+O%#X O.XXO+%OO%%@o%-O <X@@@;O# .@. O;.X- .X#*$@=.+   .@@.XX#..@@...#-3oO:&X. @  ;$  . #&o.@$++; +$+OO&. XO$$o$:+",
"+&+o XXXXO*.#X&=OO#X   %&%@ =$=O+. XO+,#.O $O#@*@%OOO X>O@  @$o   @.  .@@ X#.@$@.@ X.@OoOX@. @X @O %&XX$$..*  @$1$.>%o7.%o:$++::",
"11+ X X   ..X=. ..,#X  =OO$&#=%Oo&#>X:;>O Xo;&$$  $++@2>$. . Oo.  .   @@ .##.. +@   *.X&O @@X .@@ XO$X,+$*..  .@;*=#Xo$+o77++++$",
"6:&X .    O.X=.   X#X O=#@$&-XXO$$## o+<@@X $1O&..&o$.9     X     . @@@#X@##.XX.@O X@3.- .@. @@@. .Xo+%$:$  OO@3o.@##Oo+X  =;$O+",
":$+%.O  X&+O   @ *&#XXX#9#++X #%:@9<#+X5 @X@;@.+@%X $=-  @O% @. @ ..@ #X*@#XX #X$$o  @ X...... ...X<Ooo$4:q O#@4O * ##OX  X.XOO+",
"$$:o O% o+&O  &. ;O@@XX###OoO=O-O@X#,+.# @-.o+$$ =.  ..o*@OO .@&+@X O%...@O#X@ #+o$.X@ Oo..  @. .@.#Xo@@$4:w# +$O.@ X# @   @ ,++",
"o+:1O%##o$%%  $ +$O$$@#<%O%;+O+X-oo=%+ # @. .o;$X>.   .  .oo  @@.. XO:@-  @@ . +O% .@@.&o. . @ #X@ X#@.%@:$-X#.+$o@ #X@@     too",
"++:6oo##+$O#2 +Oo #o$o#5O+# :OOX-::O> . XX .=.$$X9X.X .  .@&%  ;7X#.;;$><%@O .$:.XX ..@;O> @@.X#X @.X= X o:># X:o *.# .oo @ Xr$$",
"++$+** #O+ ## +o.>X=+o##%OX%o+=X,+$ #O$&  @  .++*#< .X.. X@$OX :o#X;o1$>XO> @Oo& o&   @+O        X..X  @@.12#0q$O%@  ..:o@+@ r++",
"o %+:* 5O: ##X++X O@*o##O&&%.$=>X%+ #==+@@ . @ X$o #X.  ...&&.X@>-&$o;$=@##X=-.%%.$@#   ++.@.X  X*@ X#XX .oOXOOoo@.O @*@O@  @e+ ",
"+XO:$OXXO;.X# @..-  oOX#-O%X.OO #%+ XX@;..@@@OXX%o*##. @@ X.*@. -O+O2O;o#2X. #X . o@XX  ;;@@.X .X *@ .X#@@X%o=O$$;+O@;@.= .  7@%",
"o.oo+O O&   X.  @    &%#- %-X =&#%+% X @.@* X+ X# o,X@oo.XX @@@XO-;o>  . <#*@< @  .@@O X+$@@.@@    @.@X#@ #$$%@$+++.*$@@@ # @7. ",
"$&+=  &$.   #%@   . .O%%%=##XX%.#>+O X o..&O.@@ X O>o$;@=   %@o$;-+o% @* <X*@#  X  @ @X o$      .  .. X @X $;@@&+$  ;oo*@ #-3@  ",
"@ X  +&OX. #XO&      .O%O&X--%X #>++++.@@..+.@..  O-ooO  .X@ X.o@#+o.@@. >-*@#X&  X@o  ;o$.X+oX.. X@* X  %.+:$$oo:  ooo:$ X.@   ",
"    :@XX XXO+O     .OO@ %& Ow   X%OOOo1 @@ .X. ..>,+1O#. ... #X@.# ;o .. o+&@  +. X$+%+;+oX-++X@ X $;. X@ +1$o+$:o.O O*o&O.=&+. ",
" X ++   X###&& X%..O+O X% =%X&OX OO=-+:*.   @$O.X9%$o -.X .  #.@-#X$$..#-+++.. .   OO+. &oX++,. #  ++@XX,#18OO$o$@ %X.o+O&@@+$@O",
" XO.%.@.X##    %OoO=OO%O.XOO OOX   %-,o3%#=Oo$o.X#o1O2 @XX. #X..&#.$o@.##.O;$*.X#o6oO*= . . ++   @.OO .X2X+$oOX $@ #X@$O @@&o:.O",
"X%& +.. .X#  X +&..X%O+++OO%XO%#0+,.-<.o##$+ ..o:Oo1 9X@.X..#X@.@..oO @<X.X *;.##o:$&#X   ..@7. X.@ X@; #X&:; X=;@XX@oO  $;+$+&%",
"=% X=..%.X#X  Xoo+o%%=%o:o #X$->&+:$-<XoX#$$   *1+$1 5 .# *. @.# @@*XXX @ ...+=# @;1o>#  .@@@ . X   X@@+$+++.O@O@ X*@@OO+$$@.O+ ",
"+* #  . %X#X$o .=+. O.#O+O #O@-+&o$+.<>o.> @@  .$$$* < .XX...@ #.... X  X@.@.##&;%@+$@#X  .@. O@@    @ O$:$O2.* X @*. O$o$$ 2#o$",
".+.    @ ##O:o+& o O++X  XX#% X-+$++.<#+@X @@ ..o$+..# $  . @@ @.X. <#   # 3.2X$ X.=%.XX    .o$@..@ % ,+o$$O>.@ #o*# OO$$$@%XX@o",
"oO OXOo+X##-+.O= oo#%$ X  X#  X,Oo%&+##oO @@@+..$o..=X.o+%##@@X..X@.#..<X# @@.,O @.#X.X#X ..@:$  .*  X :o++&OX. +8 X. X.$$., =.o",
"=O = .+OX##X.+=# OO&++X-..%#X.@%Oo-&:=#X O   .@.oo@.X .-.*= $@ @@#.oo$+X< *@*$O<  @ #..# @@.o:o     % %$+o&O.  Xo$o$X = ;$ # O@:",
"+% o&@*>X&#X*&XX&. +:o%#X.&=#2@O%$OO$O-X .# @@@+@.@ X* #O.O$oX+$@ +++$+ >.o+*o%#<#**.@.#X*.%#O$@  @.  .o%X @.#X  XO #&@@$o   .o$",
":&%+o$$#X=> &- .O  ;:O+XX %+=#X#O$%%++OO@ #X@@@;.X$o   .;-O1X2o1;o;$:+XXO*++.o$X5#@o*o*## &o=.  +& @XX+$.  ..#X@ X  =+$$$o  =.:+",
"4=X.O1:##%XXOX-O.X=+6$ X @# $X#X o=X++O=O.##@.@6.XO+@ .@+O;;XX. +;;$$.%.Xo:o@;+#X .;$$@ #@o..X@%O+o ##+$..%  . @+XX++;::++$@ ;oO",
"oX.+%:+X#  #@ XO+  %+o #  #%OXX%+@2#&++#, #X...+ .Ooo @@,=1+%;@-X=;:o#.o+%&.@o+++## o$+ #@* . . O+@.     @##o.XOO##&$;$$++:o+1$&",
"O#X-%+  #@*<Xo OO . #   * XO+X=%O$ X%=+##@.# @.X%:;o.@.@ X+% @++ X+:$ O: 5#. .OOO  X 1:% @+ .@@ @. @O  XX*=# @X.O#X.@*.@OO.:4$+o",
"+X%-# .-#@@## O&= . ##X =O@=&.=XXo$ XX=%-@%#%.@> $oX.*. #.@#  @o#9 :OO:. X< .O. .XX @oooO +.@@.@@  @. @* @+XX  .. XO@o*.@@.X O;$",
"O++X#  #X. ## +oO# @.X## ..=% %%X =OOX ,#@@X# *OO+O2@+@.#@* X @+O# O#;O#X@ <X@@@.X#.+;+$+2.@*@.@..@  ..@ X+%X..#  &+@O @$@O >X@@",
"-&3##@.XX%%##+$$+OX    ##.%%=.@OXX+%. O##@*% O$+=$o<Xo  X .@X@@o%#@ #$+# @@ <+;o.X# $;,+$  @@ @@.*.X.X @. +%-+.XXO++.  @*@O..  @",
"# @#>*3X# #<Xo$$+;%# O@O<.&>O&+OXO&%@=&X>o$+% oO#&$#<Oo #X.. @@@O<..#*X @ .X5.:1&XO +O  +++& X.@.@@@=  O#2+o%&O ++++O;$@oOOO+  .",
" X@X#@*># X># o$+o$ X++O<.@-&o:oXX%X#%&,>++$@,  ..ooX#O;##XX@ X.o#X@#..X@@XX5X$O%@O ++>#$;OOoo$+ @o&+o*o#X;;O-.+oo@&+$$@#X++@O .",
"   ##*o>#X -, .$+o1O-+:+>XoOO+142#% %==,,o:+O@+ X#$3* <@@.@ ..X@$##@# .X..  #@. X.O ;o9<@*O+$;$+o;$++.@=#- &=-$$$$o@O+$@X @. ++ ",
"OO <X4o>#  ># . O+:o>%11>#.X =&.XX-&O-=.>%:o+o$+O . @o-@@&+ X  .@>.@#X@ # .X ..# X9+:*2<@%.+ &+o+OO  +  *##=O#O8o+O@o$$  o*  Oo&",
"@ X5-8+>-= X>X@ &O;: ,$12<XXXX-%  >O@%-@##++$$$&%O # +%.@++ # .@&=oo#<.. @.# .#< #>%;$X<  X. X *oX o o+Oo##+ #-+oO=o@8@2 *o  .&+",
"$o#X =%&+OoX#X.@=O:@ %#2  #X@ XOO@X-o= O# %>X$$&-,.. & #Oo++XO+$+%@@## .@@ X.*X##.>#1+< . ...X @ # &O@ +oX @##&&%Oo#2o@#X.+O  .+",
"++X  X#=+Oo-<X  Oo+@*O# o+##.  :O.*=- &X<O:O 3$o%#-@ % .4o#  +o$@2 *X#.X @ #.*### O.o% @. .@   .O=  + .@   XXX $OOXX...@X.@o.  +",
"+++ # #XOO$%-XXX+++O.O%% &-X  .+O$oO=. #<o61*O$1+#O&@X#;$ XX#%+O #X@X#..X# XX . < oo%#..@..@X @Oo+ %+O..  .& X $++##@X @@ @@@@@O",
"++o <%+++O&O, X o$+OO@%% X>%.X &;$O  o,>Oo++*$66+ O-@X%:: ##O OO   ..*+ @+XX@# @. -+%# @...@+Oo+&O@+O;@ .  O=X $$o ##X@@*  *   &",
":+O.#%+>+$& <X*O;:O%+ %& ## . ..+o X.@#>$$O@.$6$.@O>.$;64*.>#.%# @#.@@  @;.@3#O:$6@%o#<.   .o;*.O&.X#@@@   O@ #o4+ X#X .   @.@.+",
":&#.O  5.oO%XXOoo*=%.oO%  X#  +O&oXX@ ##+@O+@$:$@$o>#O+66$ %#+ # .# .X @@.o6o>+oo;;#-#.*XXX%o$@>.o..X,;;    @@.o$o  %,  .O  .$o+",
"*O%oo, @=o%% XO+=*oOO@. =%%##X&1; X%@@##@o%>=;+:@O++5#O$1;@.O% XX   @.< .X*oOo;+..@O%O..  X oo X.+..X2$1.#  @*;$oo  + # .@ X.*o.",
"o:oO$%=$$O>X X%O&oo+++O++OXXX5.1%X =.@>-** %++o$* %:%5#+:$.XOOOX# @  @#   .Oo..*##@ --  .. .+... %.@X>+o % ..*:$+$  +=## O   . @",
"=Oo&+OOO%O>XO X&++O ++o+& X%O>.*##+&#o+O.XX3oo::@>+1:>5 ;$.#,O+,>..#X## #  #O.@@X  .--X.@X#&OX    @@@X#+.X##  ++o$ X @X#X ..X.*@",
" .@OO&O%&+O  . O+O X&+o X-O$+%,o$.%%+4o#X#X@O+1$@ .36+# OO@X2X+%= .. X#  ## %X.@@.  &+X .# ;.X X# o*. .o X# @X&o++&X + -X . X@*@",
" =&o+oX#+O&% X  O  X++ @.#o1o%>$4O-=&$OX@.X.oo+Oo@ o;O%%   %<>O-X##..X @*#>.%.+.@.X.o+X . @.   X#Xo*.@@. #X..XO+X $   X#   &- @.",
"=#Xoo#<#  %O+  + .OO= O+@X,+O-%OooO+.++o$@X++oo%% O:3.Oo XOO< .#  <#   *.#X = ..  ##O%X@## . X. #X. X+  X#X  #&=2+:.  #X& X  X  ",
". %$+#>X. -O++++  OO  OX&$-,-O+=OO$o#oo$:&O+OO&+&->.+$$:+X O> .O ##....@3.   XX.@ #..=.O #X.#X. #X.# +@X##X XX ##+oX#  #     X o",
"O+++O%-#XO%#O+$$=X.OO+.XO@=--%O++o;oOO+$:OO+ @1oO&%>>>.o@.OOO&oOXX.@@ #@$. ...XX   . O  +% @.   ##  #O&   =X##X#%+O< . X. X  # $",
"+oOO  %>O+&%%+:$#<O++++ O O%%#X+;+++-%o+$+ +%OoOO&OO,-=%#X%%O4;##@@.@.X.oX  o+##X .  +  $+ oO .. # XX = ..O@.#  X-%X O.      XO:",
"o%# XOOO%O+%=+O+O==%oo&   o$%<XO++::O,&++. +O+$+=X%OO+oO#<#--+o##. @@##@.#<#oo###<#X O%=o+ OOX   X#X X ...+o @@@ .%> O X    OO=O",
"O# .>Xo$,OOO X o:O++O+++  o+%X#%O&o$+ O+O. O+@o:oXXO:o&%###%-%oX#. ..XX#X 2#o+X X#X##<- X .OX##..X##O@X . Oo ...@.%#O    X    OO",
"&-.,# 4*XOOO ,#%o=&&XO+oOX..% #-  %O+O&o+O.%oo$$O =O;$o  -#,%-=X.@XX.XX .+XX&o$.XO  #<#XX X  #   OX#O%#  +@.  ..3 #%O .   O XO@@",
"X O-#>.@O+O%% X-OO. X OO&O+@O.<X$&.,++%O+. OOooo% &OO++@oO#>%%,, XX    X o- .%;@.#X@  ##X>X$o.X#@o #O6O%o* XXX .$@<=@ .   %.@ @+",
" X, X   +O .=%+%> @.   X&o+ *=<X1$+%%+X & O. ooOO$$$$oo.;; >%--#X X    ..O%22X6*X .##@ #  o;+OOX +.#< *..  @ #.@O&X#@. X.##*@ *@",
".X#.  XX .o  =+%>O;+ X%%o$OOO&##;:o=-X#&OOO=O@.XO1oO&O&o:o@O%%,<#X ###X..O#2X##X . XX X#  &$;o+ .+@X#X.@.    . .;$X# @X#.. *+&@ ",
"@@#XOoXX. O X.o=>,% O& -+O++# #o8 ..#%+O.&OO   #=++o++$;+.O++%### %###X.@+XX. ## @#X +. .#=+:;O..++X X  X   @@ $$O   @X#.  @o$  ",
"* > +$% .%O.  X&O>#=+oX>+O+:X#-:*2  #%++.+%-$1 #Oo&ooooo;.Xo+O###  .#<  ..#XX  ## XX=O.XX%O%$++.%@o. . ## X  Xo;O$+ O XXX .@. # ",
"#+O# +&X   @@ #++<#-%1o,O%O+O>o@##o.##O+%=O+$$ %$++OO4:O%  O+oo##X  ### * X ..X##X% O%>#X+OOo+OX#@@ O&#<#X###Xo+ +$ X==    .X #X",
"%$ #%O++-#.@*&.+@ -,#$;O%X++%X+X +o.2OOOoo++% %.$;+%+1:%- O++&4+<#o #XX#X#%&@ #X,-+$+X>.+OO%O+$X#@** # ##X ##X $%O:oXX#  X*o@.X>",
"OO@ %Oo+O#X .  +$$O>5Xo& 2%+OO+X +$  OOX%o:+XXX&$oO-%o;O#@$&-%:$=    XX# #X$+#XX, %o@9#ooO%%&O, $@*:$#. #  X##%o+>O$ X#XX+*3**o#",
"oO$o%  =  X X X==oo>5#XO&  %#O+ X+ O&X#.O%@*   @$$+OO+&%#X;+%@o&$ #  X##XXXO#<*X##Oo  - &O&+o%>O*X.$&#*.X%   #X=  %%. ## @$*@*@-",
"++O#X +% @%*OO X2+o,5##OO=O+%=+oo.#O:OX.X# o.#X.O+&OO+oX#.$oXX%Oo=# X#X  %  #X.X  += @.O& +o+:-#=.=OO  X&+XX-#. 2 XX.X#%O.@33*o%",
"+& ## $  OO , o.X$1X##X%%% &O%$$$* #$83.   @+  XO+O%O&+-X o+OX +++  ## o-#.** ## $O%O. o O$+ o-<.o%#    +$ 2#X. #XXX X##@*@@.3oO",
"+OX ,    O= =%. +:*###>%OOX=&O+;ooOX@4$@ OXX>- 2O+=XO+ X.oO%O  +$+.#<#++XX .@*-#X.%,+...&o+.oo-#XO%XXX %%+.2X #####>O##@ #@:.@$+",
"+OX %   OO @oo@+o$.XX##-+O#>%O%O@o=-Oo*3o .+-X ++% XX%X# 4o%%=  o$ #X$oO X.*3;,#XOXX+@X#+O  @@%#.oOXOOO+O++>X@@##X -= #X##;4@144",
"oO  XX O  ..@o+.&+   X+&+=X%-#.OX@+==#X   +o XO4+#> X#X  ;+%%O  o+-%+o+  ..@8oX5&+#  * ,o  #  -O. X +&+$+++-X@@XX= --@.##X::$$$4",
"++OX#%+   %#+++X%.  +$o&+OX% #  # .;+>=-#-:$o%=o ##OO#>O-++.O=.&%%$.@+O  @  ####O&X. @ % .@X.*=%.  .=-&o+OX..  X =,%>X@ #%@11++o",
"+o #>OOX  #X+:. . .+o$+OO #    =  XO  +.#,o:3o> *XX  #%%#O& O----:o,@%%%.* <#&X>O+    O X.oo..  X + %#+$OO    . ###oO#X##=.&oOO&",
"=+,X%+#X=#,%o$ ...=$$  ..X O  X %   +*@ #O+$*&Oo@ X %%+%#%%O  %  o+.  %-@@##X@.  %   %O3#Xo$+ #..%$.XXOO%+o>XX.  %-+o%#X####%%%%",
"% >O+++&XX   $X   +&@     .. .X O  %+@@.#Oo@&oO **XXXO&X#%  XX& XOo  .%=o <#@@.  %@*@@@ <Xo&&O<>.O=%+O=  :oXX##X&&%-%@ %###XO+O#"
};
