/* XPM */
static char *FIRELAVA[] = {
/* columns rows colors chars-per-pixel */
"128 128 20 1 ",
"  c #8B0000",
". c #9B0000",
"X c #670000",
"o c #730000",
"O c #7F0000",
"+ c #B30000",
"@ c #5B0707",
"# c #A70000",
"$ c #4F0000",
"% c #BF0000",
"& c #470000",
"* c #CB0000",
"= c #E30000",
"- c #430000",
"; c #D70000",
": c #EF0000",
"> c #530707",
", c #5F0707",
"< c #170F07",
"1 c #670B0B",
/* pixels */
"-@ @.XOX$o@o--&$-$oO$@.&Oo@@-&$$XXX@-&o-$o.$o XX$@Xo@X@-@o$-X$@@$ X $$$- o&$@@X-@o-$oo-@$@@$@X$&@$X$XXXX$XOo&&@@XXO X&-$@OXO@@ .",
"XX@@OO@-X$Xo&--@$@Xo&&o@O@@@&@$@.@X@--X$X $<O@ o-&@oO@X-X$$-X@@@XXXOX&$-.O&XX&o-XX$&-@XX&oX@@@@oX@--@oX@&X .&--XoXXX@&$o&o@ @@ o",
"@&&&oO&&&$$X&@&$OX@$$$&-@&o@@@@$.@XX@@ X@&X$X&OO X&$X-o@&&oX$@X@-$$o$$@-oO$X@@o$@X&@&X-@$&oo$$@ .OX&@o$&-$oo--&&XX@@&@&$X+-&-@@X",
"$X-XOo-X$&@$$X$-O@&@@o&$$&&-ooX@OXX+@@OOX-X@X<Oo Oo@X@o@-&o.@@Xo$&-&&@X-@X@X$-o&@@&X-Xoo&-@X$@-X +OX-X@&oX  &$&&@@--X$X- #--X@-$",
"XX@XOo&-@&oX$@$-XXoo@.-$X-X-XXoo@ O# X@Xo@X$$<XXooXoX. $&&XX@@ O--oX&X&-@X$$$$XO$-@ &$o@&&@@$&&XX OX-&@$X.#oO.$$XX-&@@o- X-$X@@@",
"-$XXXXX@&-X@@@&-$XXXX -$@---$&OX-XOO X@XXX$-@&OO$@ o$@X@--Oo@X  @$&X&$&&$X$--$..O$&$&&-$&&ooX&-$-XOo-X@&$X+O O@@OO-<@@ &X XX@@X@",
"$XoXX@@ X& X@@$-&X&- X$@&$-$$@  -@&@Xo@$oo @--OoX$oX$o&&$-X@oo@ o@-$&&--@o@-&&oo X@$-Xo@$&oo$&@X&&@o-X&$@XoOo@ o O@$$@ XX .X$oo.",
"-X  O oooX+OXXoX&$$o@oXXX$$&-$O @X&o@XoX oO$@X  @@XX-o$@X&o$$$ X&&&oXX--&$X$@&X@ .X@-XX@$@ @ooXX&-&o$ o& .o&@$O#OO.X..$X XXX&$XX",
"&o +oX.X oo-@o@&$&@@@XoOX@-&-&  &--X@O+ +XO@&&$@XX@$@O@oX$Xo$@OO--@@@$@&-X@$@&&&  $ -@OX@-&-o &$&&  $@-&  X&$&OOO  XOo--.Ooo@-oO",
"@O  o X@X@X-@ @@&$X&&oooXo$X-ooO&&&. ++  OX&$&--@X@@$ O X-oo-&+X--@&$&.$$&&$@$@XO#XO&&X@&o$-XO$&-&#O&-&-O+o&X$oO +# XX@@#. XXXO ",
"XoO @XXX@&o$X@$X&XX@@.X$@X-@$-O X X O  @ Oo$@@&$&O$@&@..OXXo$@+o-&@@&&X@X@@X@$X&X+&$o@@& O&-oXXXX o#X&o$ +OX&X  @OX @@X&O X- o .",
"@oXo X@$X$o& $$X&X@@X$X&&X&$-& o@& O. X&oO@-$&@@$&X@&@ +OO&&&@XX-$$@&&@&o@  -@O$@X&$XoXXOX@@$&XXX.&@&&X@  oo&&+O$X$O-X$&O oXXX .",
"XX@o$@&&&&@$$-$@&@$$&$@$&@&X@&@&@-@O$X&&XXo$&&&&$&@&@@$@$$$$@@X&-&@$&-@$@$XX$@o&&@&X@o--X@$o&&XXXo-&@@@@O oX-- X$&-@&X-&# @-X@  ",
"X@@$OX@X$$&$X@@X$&@$XX&$$$@-X@-&&@@@@O&@$$X$@&&@$&X$OX@X$&&@OXXo-&X&@X&@@&O&X&o&&&&$Xo-$$$&$$$Xo@X&o$$-&&XO-&O@X&&&@@ -$@oX$o@. ",
"X$$@@$X@XX@@$$X@&$@@X@&&&$@&X&@$XX-&XX-$&$OX$$@@o@&$  -@@X&&OoXo&$o$&&X.&&o@&&&&X&&&XO-&@&&@&&Xo$-@X&&-X&&&&&X@&@@&&$o&O&&$OXX  ",
"XX@XX$X$o$XX$@X&$&@X@@O&$X&X$&OoX.$@X@X$&&  &&X&Xo&$X &$@o$$o@XX&XX$&$XO$&X@&$&&$X&&  $&$@&X&&XX$&oX@$&X@@@&&$&&@&&X&XX$@@&&OXXO",
"XoXXX@$$$$ XX@o&$@@$$X$&@X$@X$  . X@XX&@@$OO&$&&$$$@o+$X@O@$o&OOXX@&$$&O&&$@$&&&o&&&OX@$@$@@$&@&X$XX&&&o$@X$@O@&@$&&$X$$@$&@XX&$",
"OoX@XX X@XXoX&@$&&$X@@&$@X$$X&OO oXO$$&XXO@X$&&&$X&Xo $@X@@Xo@@$+o&o&$&oX$ooX&@$o&$$O &&$&X@$$X$O@&XX$&o@@OO$&@&oX&&X.&X@@XO@$X@",
"+ XXXoXX@$XOo&@X$&X@@&&@@@$&.@@XOXO.OOX. o&oX@&$XX$$@XXoX&$XXX$@OX&O$$$.$X$Xo@XXX@&X  XXX$X$XX@$.o&XX$&XXX&@O@o@XXOX O$XoX&@o&XX",
" O$$@XXX@@&XX&@$$$@X$X@@&$@$X@$& oXoOOXX $@X@$$&$X&&&&XXX@$X$@XX@@@@&$$.&$XX&&@@@O&X  OO$@$$XXoXOX&$$&@$XOX&XX$&$$.  .@@. && $Xo",
"@&X@@@XX$oX+X&$$X$XXooXX&&OOXO&@   $  X&o&oX$X@&@X&-$@Xo@@@XoXX.$Xo@&XXX&$@X&Xo.&Ooo@X.O&@&@XoO@ o&X&&o &&o$Xo$&&&.O   OO $&ooXo",
"&@XO$@XXO.o $$&XX@XoXoXXX&. $$$- X.O@@@X@&@$XOO$XX$X$@X@X@@@XX..XX@@$XO@&$@o$O.X.o. @$&$&OXXXXO$XXXX@$o $&XX@@@@X XXo  OXO@X..Xo",
"X$XX$X.X@@oX$@&o@XXX@X&$@@$X@X$$X   X$$@@$X$ . Xoo@@@@o$XX@$$XXXoX@$X@$$$$@OXX&X+oX@XX@$$@XO@$XX@ooXoXXX OX OX&@ @$$$$+ oX$OO.X ",
"X@XXXOXoX@OX@@$X$$@O@@@XXX$$XXo@O$XoX$$$o@@@   o$@@@@@$oOX@-X@$@ O@@O@$$XO@XXO$@X$X@X@@@Xo.O@o$X@@@XOo@X. $XoX@@@$@@$$oO.oXX$OXX",
".OXOXoX@oXo&$&@X$@@XXO@XXX$&@X.o@$@@O@$$@$$X .@$$@$XXX-$X@XXoXXXX@$$XXX@@o@@OXX@$$X@@$@@oX O$&XO$@@@oX$XooXXX@XX@@$@$$  Oo$&$X$$",
"XXoX +oX@X @$&@ X@&O@@XX$$$@@$. $oX$X&$$@@&@..@$X$$$@.@$oOOOX$XXXXO$O&oo$XXX$X@o@@X$$&$o$$OO@@XX$@XOX$@$X@XXX.XO@@$@$& X$@X@$X@@",
"$@ O+.O.oXo@X$X.OX$X @o oX$@@OoO$@ooX@$$Xo@$%.$oO$OXXX$@ o$$ @@OX@X@X$oXXX@X$O@XX$X@@@@ $$@O .@X$@Xoo$@X.@@XXo$@Xo@$@$. XXoO@O  ",
"OX  . . oX$@ O@ooO$OXXXX  X@$@$@XXo$XX$$O $X  $oOX$X$$$$+ @$X@$XX@@XOO$$XO$O@Oo@o$X@X$  O$Xooo@$XXX+X@XOo$XXoX$@o @$@@. $XX X.@X",
"X@X..  O+ o$  $$@$@O@@.. o@o@@XXo @@@@$$XX$XXX@ @X$o$O-$+X@oO$@X$oX  O$@Xo@@XX@$ $o$O@XoO$$$XX@$X$O+@XXX.@oX @@@oX$$@@+ $@@@O.$X",
"X$$X. Xoo+$XO.OO@@XXXX..@@  X$@@ .o@$$oX$$O  O@o@XX$O$@-$XXoX@.O$X O  XoX$@oXXO@XX@$oX-X.@$$OoX@ X+ X@XX@  o X@$XX$@@X o@@$$. @O",
"o@@@.O@OX $   @X @X O $ X@  @$$$%% $@$@@$$OX  @oXX $@$O$XXO.O   -@$XO $$o$ O@ OXoXX@oO$@OX$@.X. .O##O@@XoO.oO$X$XX@XXO XXX$X  X.",
"XX@ .XO@X#$  OXOXXX@O@XXXo O@@@@. XXO$X X@@$ O$oXXX@X$@$$$  O  O$$$oXoXXo$O @@+OO$XXoX$X.X$@XO. . O X@XX$X  Xoo$Xo$X .X@X $X. X ",
"o.XXXX @OXX$XX  @$@X@OOoXXXoXXXXOXX@$@X $$OXXXoX$X@O  X$$$@@O$ooX@@@X  XX$@O@@. X$o X@oXXX@$$X$XO.OX@@Xo@X .XX@@o $X  @$@O$@ X$O",
".OXXXXX@XXX $XX$o#X@@@  @XX$XXXX.O$$O$ %$O@o$@#OXX o oX@$$O$OXXXoXX$ o# XX$  O%.XXXoXXX$XXXX$O$$.  X$XoX$$  XXO oO@@  o@XO@X XXX",
"@XX@@@OXXXO.@ $$.OXX$$XXX.o@OO O.o$O$$%.O $$$$oO++XX  $$X$@ oX@XXXX@X.. OX@. X% X#X$oX@@@@$XXX$$% .OXOX@$$  XoooXo. OXX XOXo ooX",
"Xo# XXOX oO#$.@@ $O#$@X $oOXXX  %O@$@$.   $@$XX$.   ..@$X@$  @XXXX@$$ .O$@$ .X..Ooo OXXXXXXXX.X@%..O  $ @XO oOoXXoXX$$O%O O XoO@",
". .   . oXX @OXXX$ .@X X XOO#XXX. X$@X .O OOXX$$ X@ XXX$$@@XX@XXOO@o$X  XX  X@. #oOX .Oo$$@$$X  % O@XX$@O@. XXOX O@@ Oo.X .+X...",
"  . XO OoXX#$oXXXXoX$O.XX .@+.@$XXoX$X# XXoXXoX@XXoXo@X$$$@o@@X$X.oo$  O@X+X$X% $X.+ . .$$oX$X..oOo$XXo@OX  $o.X@  $X.X XO.  .  ",
"@OO+ %@X o .@XO o$ooX@XXX  @o+ Xoo @@@XXX @@X@@@O  Xoo@@@$@oX@@@oXXX@oX@@OOOoX% @$  @@#. $  @ O. XoXX@XXX@o.-XXX@O.XX  #oO O@XOX",
"o .. +XXo ooXX O. XoXXoXoXOoX.XoXXo@XXXX@@@X@@$@..XooX@XX@@OXX@X@oXoXoX@@$XXo . @ .o@X .X$.XoooXX$o@X@ oX@XoX@XX@X @oo..@XX@@.XX",
"XO .oOOXXo  XX  .XXoX@ $ oXoX.o.$@O$@@o@@o$$@Xo$  $$XXX@$@$OXXoXXOO.O@oX@o@$ .@X$XXX$$.o OOXX@oXO@@@$$O oo$$XX@ XX $@$oX$@@$$Xo@",
"..O o oo.ooXooO OoO .XooOo@Xo.oOX@ @oXXXXXXoXXo O.@ooo@XoX$@. @OooO OX#OoOXXO%XoXo@X@$.OXOOOOXoOX@@XX$ OX@$Xo X ooO@oOXXX $X@XXX",
"o o  o@o XoXOOXo +@XO oX..XX#.OoXXXXXoo oooOXX@o @O.XXXooo@@@XXoOoo XX  O   Xoo@oXoXXoOXXXo ooo.X@X@@@.Xo@oo@o ooooXooXXXoXXXoXX",
"@O .oXXXooooo o@..XXXoO X.Xo..oooXXX@o OX .oX@X@o-% .@@X@o@@@ooX Xoo@@oooo% @Xo@ooooooOXXXX.XO.%XXo@@@ Xoo  @@%OXXOoXOXXo#o@ooXo",
"..o. ooXoOXXOoX@ #XXXX%.@oX.o X XoXoo.OXX@o o@XoO .oO@@@@X @oXoX@ oo@@.o@@+ @@oX #..X@oooX@oO.O#XoX@@XoXOooooo% oOoXoo oo.o@oOXX",
" ..+ @ooo oXo oXXXoooo.O@ooo@XX.@Xooo  X@XoO@Xo oooXXo@@@XOoXXo@@  OXXOXX@.o@X..o ..X@O@Oo@X.# O@@oXooXXX.XoXo+ oOoO OOOo.oXXOXo",
" .#.XoO#XXoXXoOoXXXoXXOo@@X@oo@oXX.o@Xo X@O @XoXXXXXXXX@XoooO-X@XX  XX X ooXO oXO@ .XX XooX . o @XoXXoXOooXXX@o  %XX  XXooX OXXo",
"-X.O .. ooOOXoO ..o @@OXo XXX@XoXoo -@o XXoX +oX oo Xo@@oOXX@@X@@XXo @Xoo@ X #OX.oooO oooOX o  oX@OoXXoOoO@@@@o .+XO .oooo@ OXXX",
"X@o@+# o ooXXXO%O%ooXXO@X oO oXo@@ X@@. X@@X.%oXooo.@@@@@@XX@@oXO @@Oo@ X@.X %X@%%@@. o.o oooo  @@X@ @. XooX@@Oo%O+..%O@oX@o X@X",
" ooX.%o.OOOo@@ .%.Xooo  XX@o .OOX@oXXX   o@X#+ o% .oOX@@X@o. XOX#o@XO@XoXXOX .o@  XO.O + ...O +#X@@X X  XOO+XXo   %..%XXoOX OX@X",
" ooX ##.Oo o@X .*.XX O..o o  O#XXooXXo . o@X.  X*%ooooX@X@.* @ @# XX oXOoOoX  #oXOoOo X %%.%oo  XXXXoXo @o.%OX .X@ . .oXo.o@#XX@",
"X@Xo.O.  oX@  o % ... #.o   OXoXXXXXX  .#X@@OOX ++ oOo@XXX.%  OX@o..+.@  XXO O. o X#XX@X% O.ooXXXXoXXXoOo Oo @.%o@o...XX.%o@#XXX",
" OoX  .. X @  Xo+o  %.%+o XXXXoXX@ooX   .oX@XoX ..XX##XoX@.%%.o @O .o @@XXO.X ooo o o X      O@XoOXoXXX X X@ @#.O ....oo. oX oXX",
"  O  X.% Xoo. XO@X  %...O%@@XX@XXXo X.  oXXXo  .@o..  XX@@o@ oX @.    @@@@.. @oX  XX  XX  X@. XXXOoXoXooXooX @% OO....Xo o   XOo",
".  #   ....O.OX.X .....+ .Oo..o%. ..  OOXo X .X XX++.* OX@XX+O@O + .  @Xo@..oX@O. XX.#XX+ OX+.O OOXX X .OXXO# #.. ##*.o X@.*. ..",
"  .#.O   . XooX o OX ..Oo .  . #O@. .   @O X..o oX+.++oXXXX@ oXo .. Xo Xo@X XoX   XX ...+ Xo      X  .O.oXoo.# OoO*%  XX@X#.# +*",
"..O...o o +o oo oO@OooOoXO O@% .#OOO...XX  o..XXoXXX%*XXoX@- @oXXX @XXX- XX X O+X.XXoo##%.@XOo O .XO XX OOoo  . oO%#oooXXX....*%",
"#+. X  X   .XX .O.X.X  o..#X@ ..+.X   Oo .. .. XX. .%#XX  XX @O XX oX X@ X@o @.+ XoOoO  .. XXoOO OXX..oo* oXXXoX..X.ooO .O.+..++",
"*+##XXOo+   o X X.O.XOO +.  oX.  O..OX+...   ..#X .*++oo O.XOX.OXXO.XXOXooX   XX..O O. X .oooX oOo X++..*#o>  XX..X Xo .*.o.+#%+",
"*# .oOo.X.O#X.XOo oOX OoXX.#OOXo#.o oo..oX  . #.oo# %.XXoo.OOX oXXOXXXOooXXX XXX. . O. XO XoOO+o.XoX+* .*%XXO.XX..Xoo..+ Xo ++.+",
"#+..oO oO.#*XXX XX  XXO .o.*XooX.#++X  OXXOX  #OoOXO#.XX X OOX XOOo.Xo.XO  XO.XX%.#.X .Oo ooXX+o.XX.  .+#*XoO OX..XoX.O.+XO . ..",
"****O #O.+**O O.XX.#XXO O O.O O .+o O.  OoOO.++.X  X #XXOX.OXX XO .oOo XoXOOX  X*#++X .O+. oXO   X  o Xo#%..XX+O..o.XX.X..O ...#",
"++.*+. O**%.  O  O ...Xo.+ *......O...ooOO.. o*%O >.  o  o.Ooo OXX o OOOO oOoX X*.oOo. O*#O OX . o oo.XXO. .Xooo* o+XXooO.o+XX%.",
"*+ *o oo#. #oX.O .o *.oO.  X... ++##OO.OOo..oX% .oX..oOoXX.o  X... o.#O oXo OO*#+ o X. O#+ . oX.  OXX XXOX..O  X..o.ooXX #o.oX*.",
"**#*O.OO*+  X. OOooO OO....XO  .   .Xo# O...X    .OOO oX  Oo. o + .X.*+OXX  oX+ XX .X..O#.OXOOo .  OoOXXXX#*OOOoO+O.OoXX.+  XX*#",
"*. .## .%* XXO Ooo O X+ . ..ooO  O. oO  OO.# oXo.# +O OXXoXOO oOO..   *.Oo   O+Oo ..  oO.. oOO.OoOOoOXoXXX .o O o#o O   o.  oo#.",
"*#o...Xo.+ooXoOOOoOO O.XOoOooX..oX.+  +ooo.#.o XO OOXOOXXoXoo XoO.*.XX. OXooooX O O o o ..Oo o ooOoXoXOo.XXoO#oO . *OOoX OO oOoO",
"**+##.o..+..O OXoO oo # Oo.oXX.+Xo.%.O o oO.Ooo .X+ o+%.XoXXO Xo+*  X XoOXXX.XX  .oOoo  *.o  .Ooo+OOXoOooX O. oo.# *.OOO.oX.OOXo",
"*#..OO    O oo.ooo .O...O ooXX .oo.#.O.  XO%oOoo.o++  *.X XX .O ++#.  oo.XOoooo..o OoXoo#.oOO Ooo.oooooo.X  +#o .#X..+   Oo...XX",
".o.oO .+ Xo  O  o  ooo O #oo Oo.OO##**o. XOOO ooXo+##.%.XXXXO OOXo oXXXo X  ooo..XoO Ooo .oX. o O oX o .XX o##*.. X.+O. O  O.OXo",
".o  ..O. o O+#oooOXOO oO.. o .. X>*.*; +.X  OOO.X ..%+ OXoXX >o>.XoXO X  O..O ...XX *#.##. O#.X X.oX .o.oo..#++.#.+.+oo  % ...o.",
"OO o. O.OO.o.#ooo  o..Xo+% O X %OO.#*+#.oo O  O Xo  .; .XXXX  oo+oo.  XO. ## o  .O o*+XO..Xo++XXoO.X #o.XO#*#.*. .X +o  .# .#+O.",
"O +  OO O. o. OoO XOOOO o. + OO#OoXX+ O . . .+ . o..+#XOooOooXXX.OXX.OOOXX..+OOO+o.#+..OXXXo..OOoX  ..  OO..# oo.+OX oO+o.X.##O.",
" ...O.   +.  X#o#+OOOO..OO. OX.+ X.O. .oXO++XX O+.+*O o X.X.oXXX o.X O.OXXXXo . oo.#.. ooX... .O  XXXo.OXo ##+Xo ;XOOXoOX.O#....",
"..O   +.. +O   X#+.     %..  o.....+O   ..+.XXX +;+%X .  oX XXXOXXo.X  OXXooXo.o  .* %Xo oX  O  O.  Xo.>..#.XoOX  XooX. ####oO+.",
"..  +  ..O ..+oX##  ..XX..XO#   #..% o  .. .XXX.+.++oO.XooX XOO oXXXXXX oX ooX.O......O Oo. .X #+. oOO X*+.+X  O .XXo  .%=..O+# ",
".   .+.+O O.++..+ o +.X.OOo  OXX##.;   ...... X ++O   ...O>.OoX.OXXoooXOoo.X X#.OOo  .o oo.  X.%.   OOOO*#++.X O XO X...;;  O .o",
".    ..+  O##O..+O +. XXO .o oXX+# #+#oo .     X#.XX. . ..X.OXXXX.OXO.X XX.X.X;+ .oo      . .X+.. X OoXX;++# O  ..XXO.o #+ .Oo  ",
".. .  ++   ++  O.O .+#O   .  XX +#O.+# O O  O  O.%o   o+  XO..> oX  #. .o>. .o.  o..o oO  o * +.. o   XX*.     O .  OOo.+#o o oo",
";#  .. # .+%..o ..O.;+** O. XOo #..+#++.. ... . .O+ O . ..oo.+O+ .++#+#..X+. O .XO .X o. .o . +%+..X  XX#Ooo%+ OXX .X O + OoXo..",
"%+%.+. #   ..+  .+o.#;*#o+*  ..X%.*.#.+++...  .. X..oO  ##..XX#.+*+#.;oO #*;X ##Xo...%..  .##.. .#%   + ..... .XOO    . ##   ..+",
"=.. +.+;    .+  . .%...  +.o. OX. . ...++. . .   . ..  .. +* O.o++.+ #oo.O#;X.;# o...* .  ...o. ..++o .+.. ..o.o  XO....+;.+ ..+",
"=+O .. %O   .%  ++oO..+.    +%.   Xo+..; O.+ O o.O. . o o.#*+ % O +; . . .  Oo+*+   +#.. . . Oo .o#OoX .o.  %. o%  o..+..+.+;+++",
"++O ..Oo. ...   .+  o. +    ++.   OO  .+ o. . Oo+.+* . .oo.+ o. oO+. ..+oooo.o% .    .+;   %oOO. o o  . o %   oo+  OOOoO +  %.++",
"+.  O.    . O   .+ OO     o  +.  O+.Xo O%   ..OX...+. .O o  OO    .O O. OOooo OXOo  O.*#. ..ooo. +    . oo+.  o. O. XoO  .oOX ..",
"++ .O     +OOo..+#.   X    O +   X+. O.O .o    O+.....+  O .O O +   o +. OoooO.OO.  . ;+..     .o.  O . oo.+  Ooo ++OOo  +O.O.  ",
"+. . .     .OO%++=. Oooooo+ .+O   +.+ +O . #OO+++.+#Oo. O .Oo OO+ O@> o. ooOoo+;O.O...  %% . .   .   +. oo.= +o>Oo+%ooO O...oO o",
".O . #  O.. ..;.++% O O oo;.* .. O++.O*+  #.. %. o.  #++  .oO.OO.Oooo#O.. o oO;+++. ;+oo++%+O    .   %  oo%*.#oo+%.;  .. + ++.O.",
" O    +.  .  .+ ++++ O.+O . %%++    .o++ .++O   ..+. .%. .ooo oO. ooO o  .  %O+++%+ ;+  +++;.+.+ .%+.+Oo O.+++oO;+ .+++;O. +.+  ",
"O  .  +.%#.O... +;++..++#.  +.%+o ..+++.##;# . ..#++ .  ##. Oo.o% Oo o@.   O..O...%o+; ... ++;++ %;%+% O  o.%.#.#+.#+.%+oO++o.+.",
"%   # ++. .O . ##.++ .++. oO# #.+O. ..%. %;+++.+##.  .%#  +#O .O OoOOOO#O O.  OO#..o+=. OO # .#..++#+.  O#o## .#+%+   #+OO.+O ;#",
". #...%# #.  . #;.%+O ++o@.O o. Oo+. %+ . #.+%.+=%.O #+.OO==o #o+#  oOo  O.OO.oo##O..%oO.O. o  o.#oO.%.. +O.oO .++.#o.O   %+oo# ",
";.   O*.;+.+.  O+ += .  . Oo.o o   ..++   .+ .+.+=oOO O .+++ O+ ;.o.oO . oOo Ooo.. O++oO. oOoooo Ooo #  %% . o  ..+#>oo .O#+o   ",
"=+.#OO. %.+=.. O+o#= + O   O#O O+. ..o.# O#=  + +%o   . ++O. O++  ..oO .  o .O O. #.++.O..O Oooo=% O +oO%o.OO  o#.  OOo.. o#..O ",
"%=#;.o#O.% +##. +;#=O+##   .#OOo=# ..     +%  ..+=##Oo O+=  oo+.oo OO O+OOo#..  . OO++ o..O O. O%; O++.O# +O #.o%#O  OO+. O+ .  ",
"=%%= O++;+.+### ==#= # .. . . O.=;#%. ..+%+=O#;;=+++. +.==.#o #.  ..#  + O .  ..+  .+#.o#.O..# .=+.+%++ %O# .%OO+.  .. ... +..  ",
"==+%O ++.#+= O .+=++ + .O ...  .+# ..O.O++.+O.%+%.+#. ++=% OO   #O.oO.O OO  O  .+%..#..O..o ++  ;%o O.# %O#  .oo=+OO. OO. o# .  ",
"..  ...  #=+  =##%++# .. #%%Oo#+#.#  O   .#+. %+. ;%.#;#==.o +O.oOoO #.OoO.###++%#%. # #O   .% O .O o#%#+  o  . =%oO#    .o# #++",
".%%+*+%.##%%.#;; #+=+. ......o#+*#...# ...##*.*= %##  ##;=. #; #OO.O#OO# @O.+%..#OO ++..O.OO##OO..  ##=## OO  #+#+@ +   ..### %#",
"%+%=++;==%.#..#;#% %=%..+#O .oO.#... #.%...#%%%+..+=.. O%%.O%..%O@OO#OO#OOOO+% O#OoO++..# O ;+.@##.O#.%##O#OO.#%##o #.  ..#+.O  ",
"..+++#+=%..  % .++ ++=++#.. +.O oO #O.++O  .%%=%. +++..O+++o% #+oo#O. #  O o .Oo# .O.#  ..O ++O o.#### .+ #OO #;++ . ..  O#+ . O",
" O#%+..+#+##*.o.++  %+.*  .#++ ##+.#.=++ O..=;%%# *.=+ %..# ###%OoOO#O  OOO..#OO#... . ## O..#.#  #.## ## .O  .%##..  # ..*%..O ",
" ##%%#.*##;%#%O.### #;..   .##%..=+#.%+.#.  %+=%#.#.%%##..#...#.O@OO#OO.#.O@.% OO.O#####.# ..O.#. %#...# .#OO.## O##O .OO..O....",
"#. O=%  OO+++=.+%#%.....   .+#%###+% .%+#% #*+==*#%..#=+%.%# #.O  OO#O # .O .#  O.@ .# #@... .OO.######. .OOO .*OO++OOOO.. O.   ",
"##;#+%%#.O%%+=%%# ##%..#....####*#%+  =#+%##%%=%+;##%%+#++######OO OOO .   . ... #OO..+# #.OO. ..#...##..O.   ..  +%OO O ...O . ",
"*=%#+;+%O .%+%%%=+..=+ O# O.#..#++=#..%##*+;.#=%%+#####.*#+%=%==O,O.OO  %.O O#+.O.OO# + .+. ...O.###O.%%O+#.  O#. += O#O % .O ..",
":%%+##==++#%+;%+++#.*=. .....% *++%%##+.+=%+#%%%+%#+++%#+.++%==*O,O .O O%.@..# OO.O  #+.%%# =#  #+#+ #*# .%. O .O,+=%O  .+    ##",
"=+.. #%=%=%%+#+%.#+#*=++.O ..* %++%#+%++*###+=%+##%#=%**+ +.:*+%OOO #O O# O #%OOO O. ...;%. %* .++.#+%.+  % +OO.O %*% O    O##++",
";.. .+++.%%=##.#%%=.%=##.O#. #. ##++#+##%.%*+%+.;++.%%=* O. ==%+OO  #.OO .OO=+..OOO.O... ..##. O.#.##%##@#%   O.OO+.#. ...OO...#",
"=%#   %#. %+## .+=+##%%%#.%...O   +*+##+%++*#+%+%*%#++=%+ ..:*#%O.O.#%OO.   =+%+  O.O..  # % %O  .#%%%#+. #O.OO.   .+. #.. .  . ",
"##+=O+  %%+%+###++%%..#+%%=... ##.*#%#+++=. ..%%++%%+*#+=*.#:=#=   . % O  .% ++% O  # #O##.# *. ...+##%=%#.  #. ..  % ..+  .  #.",
"O #+.#  %= .++%++*.+#%...*=#....++.#%+. ...  .++=++%++%%%%.#==+=   O #    *.OO+#.+     O .=%.+%#.  . .%%+ +.  .O..  ++. + O.# ..",
"  #...# ++.%..++##+=..+.#+#%..+.#+....  .#+..++.#%#%=+%+=% .%+.+#.  O  .,.# O OO+.  .     %##+==.  +  .+% .    O*+. .+... O%.#+.",
"+.+.+%.+*+#% #%.+##++#. +#+%  ..+=    ++..+%#+#+.+.%+%##+= O%% + .#.OO . .#O   #. OO+ ..O+%+%#:+.O%. #.#+O O  OO++. .#+.   +##O.",
" ##++%.%+%++ %+++=.+*+  %++++ %++.O  .=%  +#%+.++.+%;%++%=O ;%.% . +  .+ +..  +  #..#...+.%%=#=;  %.+ +#+ .  O...+..++....+...  ",
"+.%+.++%+*+  %#*=*+%%*. ;%+++.**  ..  *##+..+=  =++%%==+++ +%:+%# ..  ++#++ . +  .*+%% #..%==+%%1++.% +#.+++O ;+.*#%+.+%..#. .. ",
"=#*.##%+%%*O+;+%#**+.+*..*#%++=:O#%%..=#++%=%% +%*%%%==**%%+%*%+ ...O +...%# .O .*%+#; +=++++==+O.+.%.++ .+ O # +%%*....  .+ ...",
"%%+.+.=###+ ....%=*%#.+..+.%#.%*. %% #%.++++#+.#%=%%=*%+*+#+%%+%.+  + #.+.+.%#  .*+++ #.%*+%%%+%.+ +#.++ #+ ..#;%++=++.++ ++  ..",
";*+%+.%.+.;.+.  ++*%+# .++...#;* +..;+. ++.%. .++=%*%=+%. %=%+++=+. . #..+. ++..  .+..+.+++%;%++ . .*++% +.+#.   +*%++.+...#....",
"=*=%  =.#.=%%....%;%  # %%....%**% .=%  +..+ ++.#%#%%=.= .%*#+%.*% .  + *+.#   #  ++... +%++.**++ ..####+=.......* +++. %. .. #.",
"*%+ ..%+# =%++.###%%##..%+#.=%=+#+#+++... ++.;+..%+%%%.+..%=++%%=%.+..###%   #.....+.*  .*++..#%  +#...#%*.+.  . .  ..+ #...  #.",
":%++#+.+%.%#.+ +==..+.+.%++ %%*=.%+=  ++ .#++*..=++%%%+.# %=+#%+=%+.+#+++.    %+ ....% .*%*=;%.% .%;# ..%*+; + .  .+%+. + ... ++",
":++#+#+#:++##%.#:%..#.#++*.+*++#.*+:#+.+.++%+#%+:*.%;+##+.%:+++.:%+ ##+=+#..#+=#..  #% .:*.%. #* #;*+.++%:+:.+##...;++#.##+#+ :%",
";+ ##+.#;#..+ *++#+ ..*=*% +%+. . %%** ..+**..+++#%*+.#+#+%%###.**%++.+;#...%%# ++  ++..*++# #+%.# .%*+%*%.+#+.#+..+.+ +..*+=+*;",
":=+.++%*+ .#%+%+..# %;*%++ +##  +.++#..+.#::+++%..**+..*.%%++*+.%%:+..+*+   #*  ++. **#...#.+*.+..#.++#+==+..* .+.#+.+... ..%*%=",
"*%#.+++:+ ..%%%#%%++*:=#++ .##...;#+##++  :;##++..++##+++%%;+*;+%==+# ++  . +#  .+. **#+#.++;* #  %;.+#+%=++.#..#+#.++++.   %*+:",
":%.%=+#+++#*%%%#..%;+:+##...####.;####+#  ::+#+*.##.+#+%.+*##++###++..++ #   #. #+..#+#+#.*+%+... +#.#++*+;+..  ##%%*#+.##  +++*",
"*#..%*%++..+%.## #%*++++#.#.##.#+##.%+++  **=%+++###..+*.#+.##+*#*+*..+### ##.+.++..#+ + .+++#. #.#.+*+++.++..  +#**%#++.+ #+#%:"
};
