/* XPM */
static char *FIREMAG3[] = {
/* columns rows colors chars-per-pixel */
"128 128 35 1 ",
"  c #8B0000",
". c #E30000",
"X c #D70000",
"o c #EF0000",
"O c #5F0707",
"+ c #7F0000",
"@ c #530707",
"# c #9B0000",
"$ c #43331B",
"% c #670B0B",
"& c #6B0F0F",
"* c #332B13",
"= c #272727",
"- c #3F2F17",
"; c #A70000",
": c #731313",
"> c #B30000",
", c #2B230F",
"< c #2F2F2F",
"1 c #5B0707",
"2 c #BF0000",
"3 c #4F3B23",
"4 c #4B371B",
"5 c #13230B",
"6 c #232323",
"7 c #730000",
"8 c #771717",
"9 c #670000",
"0 c #533F1F",
"q c #574333",
"w c #373737",
"e c #533F2F",
"r c #CB0000",
"t c #5B472B",
"y c #430000",
/* pixels */
"*$*--$$0-+==,*==$$43t$43q0434*$+& =-=-*-$*$+ <--=$-=-+*$+-$$+ #-**= ,##% +**<333e03$433334*3+33*$#$*+3$-3333*333e033- 3334*3t@ #",
"*=*-=$$0-*==#*=*<$43t-$4q0434-$ #-==*==$-$-$$=*-*=-==**- --$+ 8$=*==, +++<**<$3333$-404334+$3$-*$3$*+$--333$-$33#3 3$;4344-$3 %*",
"*=*$*-$0-*==,= *#+8q3*$4q$434-$&&-=*$*=$<=-$$*--===$&>**--$$ **$=*==,@%+ ***<$$4qq$-4344+4-$$*-*-3$*-$*$33$-*$$4#q$@:>44$ -$$---",
"*=*-*--04*==**=: >++3-$4t$434$+  **=*,<$<=--*---<=== ;**--$- -*$**==*++8,=**<$$43+3-$q04+4*$-+$*$$-*-$*-33$**$$4+%3%>;40$++$$-+-",
"**=-*4-04*=,=*,;: :+3--4t$434# ;:&+# *=-<$--=-=-=*== : *$$-*=-= ,*=,=++=,=**<$$43 $43q0434*$-;-#$$-*-$-$$$--*-$+3 $+;  0$4-$$--*",
"--*-$$-04*==,***$$4+4$-4q3-3$& >+% + $*-++--=--4- *=@ >:---*=--+,*==,***+***<<$433-$4q0434-$- : $$$*-3*-4$--=+&+33-++# %+4-$$***",
"*<$*=$$0-*==**==q$404$$4q3-$$& &+<$*+ :: +%-<--4* **@ >#--$*<-# ,*==**== = *w$$ %4*$43$434-$-@ *$<$*-$$$0$*-+  +q$*3*34&+4-$$@+ ",
"*==*=4$ -*==+*=+$<$34-* q$*% #&@*=== +;;+++#*-##*==* &**-*$-*-$$**=   + 1@<*<$$>+4-$ 0$ 34$--*=*$$==---$4$*=*+ #34+3-$4& :$$ &++",
"=+***4$$-,*  <=+$-$  --$q$-+   -=$=-*++++ + :++4==**#+**-*$->&+$,,@ >&=1+#$+ $$403-@+0$434-*-***$-+=---$$-*-*  -$3-3-$4+>> :>+++",
"*,=**4$$*=<++<=*=-&;+$--e$$ +>:@*-==*&++ >:; +%**,*<;#* -*$- + *,+@  8= @<==w$$404$ 403-3$---#-*$==+-$-=->***:+$$4$$#: > > : ++%",
"=,=* +$$*6=,**=>:  :;$--e-$  >++%+=**  &*+-%  **=,=<+ **-* &  #866=+  =,*=$$<q$404$$433-$$---#$#$**=-*=$$#--*+ -$ $% #+ 3 -1 ++-",
"*,**+$--*===*== :# -4$*-4-$    %@ *=*>+$=*-=+%*=*,**+ *=--*@  #+====@  **=<==$<$34 *4q$*$4-$---*$==--=$$$$--* &#3$- +># @$-$%+=-",
"<*,**$--*6==,*= 1**-$---4--++ %@**==* 8-,=$-=*=$<**=; *,=-$=   &=6==,*=,*$<=<$-$4$--$4$-34*$-=$=-=-*-$*$$*<---$$$$-=+%$@34*$$*$*",
"****<*--**==,*= $---$$=-$-$3-*-+--*+*,*-=,=<*=* ***<<=*=,-*=&#  <*+=,*+=*$*=<=-$4$$--4$$34-3-*-==*==$-$-$$=*-=$+$$#=-4$+34-3-*=*",
"******--*===,*=+$---$<*$$*$3$-*$*<$**,<+*,***,*$*=+<*==*+-*=*  #<===,*==,=*==*-$$$$--4-$3$-$*=-=*$*=$<=-$$*--*$$$4$--$-4q4-$**@+",
"**,*=*--=*==,*=+$----+*-$-*3$-==*===*,$-=*,*=**<*=======* +==*++=,==,*==+=*<<$-$-4$*-4-$3-+$<<**=+,<$<=--*---+%@%#$*-$*$e4*$**  ",
"=***=*--**==,*= %-$----$4--34*--=+=+*,*-,,+,=<=,=,=,==*,,+@==<=***==,*==*<**<$* -$---4--3-+=$**==**=-<$--=-=:   # =-=$--34--$* +",
"+*=***--=*==,*=%+-$--$--4-$34--++-=**,=$,=%,*<%#*,<,*==,+=<=*<**+%+=,*=** **w$---$$=-$-$3-+-*--*+*$*-=*--=--+++  %@%+@-$#4--@+@*",
">:=*=*--=*==,*=*#-$$-$----$3$--*=-+*$,=$66>+&  +@<*====66,==**=*>  =,,=*5***<$--+$<*$$*$3$-*$*<$***<-,=$-+#-4$%++@@+#&++#&#% @<$",
"#++*=*--**===*==+-$--$*-4-$ %+-<<**=*,<$==>#   #%<= #  6== =+=== ++==*=*,=**<$--%@$*-$-*3$-==*===*=$-*=$$*--4$$  %$&%+++%$-= *==",
"&#+**=*-,*=,=+,= **$----4-  -*=$**==**=-=,+#+   + +>+ @==+1@=== =*=,=*,=,=**<$-$>+--$4--34*--=$=-*-+-*=++8-+4$$%  % -&  $$*=<==*",
"*=***+,-,*==,+==$--$--=-$- $-*-*--*==$*-= @@%+&   +#%+*,=&##*=1 ,*<=+ **,***+#-$ %$--4-$34--- -==*==$==# >--*$-= 77#+#$$$$*+$*+=",
"==,****-+*======$--4-<*$+*%+ ++$ <+****- ==6==,=+>  1=*=+=+#,* >,*===*,==#**<*-$$-$----$3$--*=-=***=$*=-**-**$-<% &  +$$$--===+=",
"*=<**=*#+*==,==,$--4-$+-$-@+# @=*=====$-====,=*==&+ #=+,=*,+==& *-==,*=+**<*w$++--$*-4-$$---+<**=*,<$=*-=*=*+$$-+==$*$$*$-=+=*,*",
"*===*,- +**===+ $-$4---$4$-34*--===***$-**,==,=*=   +====+6====+#+==+*=1@<$*<$**$----4--3-*=$**++*,=-,=$-=*=:#%-$*=*$$+---===<*,",
"=*=<*=$++*<===@+=-$4+$--4$$34---*,=#<*+$<*==,===, &1==,==*=<=,===@+@@@ >>1=*<$- $--=-$ $$-*-+--***, -=,=<*=*+# $****-$--*--$=***",
"== +**-*+* #=,,=*- %&$--4-$3#--*=,==<,*$**=***===#  =*==+==+   ==*# + >#2+#>w$--4-<*$@#$+% *$* $**  &*,***,+&%+$==*=$-*-$-*==***",
"=  &+=**= &@=,5,$-+7>$*-44+$---<*+%**=*-* =-*,=*%# >=<*< =@#&*=<+*+   # >#  &$--4+ + $-*@++=+*===*:   *,*=**<=<$-=**-+*-$-*++ +,",
"==@%+=**=+%@+,,5$* +>:--4--3#*=$%> *=*=*=**,=,,* > &===6=@+#==,=**=@#+# + + > -$4&  &4$-34*-+=$=-##  ,,*,=<=,=<$% **=-*-+-* @& *",
"+==@#=**<*+@,=,* & > +@-$-$$- - :> *<<=**=+=,==%  & *,,*= # ,=+,*===*&# =@%>&>-$@ +#-++$34-@&#%=*##&$,=  +<=*<<+ #%**-*-+=,=$* +",
"=<*,+% *<=#%1# :#+ ;;:+$$*$$$+:#:&+*<**=,*+=*=@+2 @ ,====#  @@#**,$==@#+,*+ % -$ +  &4@@ $ @ ++ *$ =$66   *=,*= 22& 5+*-@***$*@+",
"=*=<#***=*%+%#  # ++ &*-$-*3$%   =======**==,* #21*=* =*<@# +@ *==,= @#@5+<+%;-$ & ++&+$$---<#+*=*,<$== + ==**=&# =*@#+-+& *==*=",
"#**=*=*-*+*@@,%#+#++&*--$--$$@  #,*=,==*= *=**  >,==,+===, @*=+,@#**<,=== ,@+$**$$-@%  -3- =$*$+@+%=-=6=% *=,*$<+&==<%*- + 5=* +",
"#*=***-=,,,+,,,5#   &==*-$$$$-   %*<,+ *=+=*=;  2@=*<+==== **=<,#+=== ==*== w$-@ $$=-$- :;+@*--**   -<*== &: %$*#+@== +-  2==+=*",
"**=**=*-= %@=,*&2 +#+*%++$$$--%   @*+&&;===# #+:2& *=+@=@# *=*55=$,==@-,*+@+<=++#$< $$* #+ &@*<$*@&+%#=== ++& +*#+ =+#*-+2#:+ +,",
"=*=**=*-* %#&==+2# #+=  ;$ $-*@+  &+@@% &@==8&*,#+2&+  + @=@++* =,-; #1,1+%  $ +;4$#-$-* $>+;%===@ +-<*+& ::=  *2+#<=-*-;# +   <",
";+%**=*-, ,&    2 :+*=*@@--$+*=# >%**+7  + ,=  +&%#+@  #>1@#+##;# ##     #  @$*& @*+-$--$$% # =** %* @%++7;:=*% # #@= *-> ##+ %+",
"2 #+*<,-,,*%###::+-**-*-$--=+-$  ;,=,#7>=   ,&7#%1 &@++#   ##  2   #  &+  + =$ &;%==*-$$$$-=@*,+*#=<% *#= >#8*< &%+&@-*-%; +%&@=",
":;#+ **  *, >+#: $--=*=$---$-,,%#&=*=*%#*+=#&#& + ; @++ ++=&&+1==+#+>  2%*@  @+ #&*<$+ @$--===,=<<,<= % =+ >: ***@  < *-=,1%@ ==",
"* #+&=%#%*=%#&===--==**-# @$-***@+*-,=****= =,,@%###==,==*=#*==*= ###  >@,<=@ @@7+=$* +&# +*=*,****=,%%+% &#&,***= &*+*-=**#====",
"*#+& +++1@** &=-+<*****=>+ <-=*,*==,=, ==*, ,<=**6@@=*=*===*,===@+& ##&+&+*=<<-  *=*$  -#++1&+@-* $@ & %@@&#&@#%*$=+***- =,*====",
" #+<@+ ++@+&>:+@<<==<*5=  +=*,+==*- =% ===<+=-=+*=* *  <**,***=+##@+ && +**+#<--****-+ &+79+ &#%@<1 +7 ==*:#&&+ *$, =-*-=***,*==",
"&+%=*%#: =@&# #@*<*-*==*%#%-***=====@ + @=,$==-,==*=<@*,,==*=$*,y @& @ % ,=@ @$--=++@-@% >%==@+  &&###*=- ;#7++#@*,*=-*-=@ #@=<%",
"&+@**=**#1%+##2=-<<-<=*=@ @=**=  +=<%2+#%==+==*+@,===;=,*=-=,===*++ #@*@ ,<+@@;--=% %--*##+***=%&+ #:#=*& ## &&;@***= *-@ + % %#",
" &==*=***%+# +;*==<=<==*-**-+*=*%;,=%2  9+==,*@%+ @==#,==*,+5=,*##2:#& @+=<+@+#-**+:+--* ;;*<=,@+2##<**,#>: %%  @***=@%#&+:+@=@&",
"%+=,+=**@+#;  +*=*==*<=****-*#==@+==,> #++==+= +#++=*#=*@#@+@**= ###>  **=@ @ @=-=* %@**-%%=$;,=%#+#=5,=% ,***#+,=***#& 7 &=$**&",
"@ @,@=** :# #+ *-<=** =*-@+-*===,<=<=& # 2#%@,  +@@+=**= =+@+*,  # ;#;&@@+; <==-*==*@+%@*& @%+*=@+:+$==*=#*,**=$*==#1&*% : *$**+",
"@@% &+** %% # &@=<w+**<**%+%@+*,=*===&  #>;++: #&=*=**== %+@+**,<@ #+  #2# %<*=++*=*@+ +##%@ #*=*+1@% #1%+%<*=*$**=&  == + *==*=",
"&&##+ %%%@1&#  %==,=,* **#  &@=**===*++ 2+2>###2=+=#,=<<=  @*<=,=*@@=#>;; &+ @*@@<==%+2#+2&@& %@&+, &  &+, %=@% ==, %%**## 5=***",
"# >2 #+##:+ +>;+<<=<<= &    &+%+> *==& +  ;2#;#2%<**,+=*  +=+,== @ 6=##2r:##++@+5**=  ##2#+@& &&#  &%: =&& #&++#====@ *$   : *=*",
" : #22 #2 99    ===<***% +  ,@%#2#+=@ # %=  #2 #**= %#=== ;,=<=* @ ==  ;r;#++&  <5*&# ##r#+&72 +2## &  &   + ;%@,,+=$ *=& #  ==,",
"@*& 2 ;+#+999%@=,=<===** &+#& :+:# =%#2#&=&+#### ,, #2***%;& =,=@*====#+;#   @ @<=  #+  2  ##>#  ;# 7    &+& %,=*=*<=-* = #+;*=<",
"** +       + ,==,+@=-==*-@ #9 >&=  * ;##+ 7######*= # **@  1 @== +@==@   ##  @< *%  #9%:> 2  ;2# 2> + ,=*=*,,5<==5+@=-@ :  &#*=,",
"@=@&   &6 # :1*@%+%<-,=*-@&+%@*,%  * 2 #++###### ,=@ @@  ; %%+&#   + + &&#2# %@@%+#  9+%-:+  #2# ## +2,,=***,*@@@& : 1%##  %====",
":1% >  +@+>##+  +++@*@ %@ # +=*=+ ; #;# # #;; r#>@ *5=>#r## +##r# + ;+  + #### #+&#++9#%@ ### ##>#>+ ##+& ###:2 # >##&  ;++@=,+ ",
" ###> #%@&  +     +% & #4+#+%@5=%##;  ++++#r2    @==*=#;#2; #>r>  ##;7#+   ; #+ &%&%@& #& #+:: #>#++7  #   #; ;++*:# +#    *=+  ",
" ;;22# =@&+&7 ++ ##9++ &4% +++,*@#   # +++ 2;:%:#%=**@###r###r22###+####+% @& ;>:& @@& +++#*+11&++79+++ ++=2> # ;++++ ## #&@%   ",
"   ###7 %+1%#+++ + 99 ##&%&+r @,*+79&%%2## +#&@&;+ =#+##>####>>r;> # ;& & **    #-*%+ # +##:#@= 7 + ##+;+&, >###>#>  +  >+&& ###",
"  +  # @@+9%  :++91 &#>>+## r;&=5@  &**:##&%  @&  #>r#+%#>>;>2>rr> ;;+@@++@@>    &, #+  +##+#%%+++ >>#+  #&7##   +###&++>># ##+ ",
"# + + &==&+++>::#%<@%7>r# ##r2+@,=+#+@@:##%=<1&###># &@% :>>>#>>r;# #+@++&# &# +;%@#+++#7  +++% +++ +97#;#++997#;#># &%:r## %&  ",
"##++  &@@+99 >:+#1<%#&  ##>#;r#:,=+  +:###,,@+&#++##>&++ &#  ##>;>###;&++ %%+#>;r:%& + +99    %@%+ +#99#r2+++97>#; >>&& ; +&@@&+",
"##+>>#& & 7++  # :1  %%  &&:;2###@*@%>+ ##&@#&@@%#& ##&+ &## #;rrr#rr#+ #;++#>>rr++ ++# 99##; :&@+ ++ ++#;+ #+ +#>+   +#r  9+% +",
"# + r;++ #+7  ## :  &@&#:@-@+## #%@*@&+#r +&>&5=,*=&+#@@> @1 2#>>>>#r;>## +%rr>2##  7+   +# #;##&%7 #># r ##>##+##>+#r##r 99++7#",
"# + ;>: #  + +#+  ++&+& +---+:;##++ % +>##99#&@@+=*+ ;*@#+=@;r#>r>; r;+ ;%@&;#r ; +99#+# #&9 #r#+7+ # #  +##;# :>>#;;r++##+++77#",
"##+ ;# +++++ +  # + +1%++@=**& ;r+++9+ r+>7+#++%&@@##>&   =@>r;rrr#;r#+#O++ r>;  +&#7 +#+&@%+# +>+#>##+# >+ # #+  # ##++ ;  +#+#",
"#+++##> 7#++ #+#++&+&%+&+%@+%@+ #;+ 7+ ; ;++ ++ +  @&#+  +*@#;##r#  #;;;% #&2r2 &&&+9 +#&@& +  + >  # ###2::#+   +;# #++>   ++7#",
"#+ +###+7+ ++ ++++%&%+%% +%+#1&7+#+;+&+# #  r+++ %@@ + + #&+ &+#r; +####+&@%#> &:+&&7++%+%+++& +##  ++#++ :& ##+&: #>   #>++799#",
";  +r#;+ 7 #++9;7>&+++==%+9 :1+ +r# &%&;#;# r #+ ++%#&+&# ++ @=6rr >;#;#>&#;#>&###+ ++1@@+9 &%: ;; ++++#& <@+#> %%>#2+#+# ++ %++",
"#99 ;##7+&+  +%%&#:@,**=@&+##1&  >>;+7 ##;; # #>   + +#&#&##+=*=r;### ++   2  &+ #+++#&-=&7 #&+#####+  &@-@%# # &&+#;##+ # > &%+",
"+9+> ##&%:# ;+ &+  @,* %@ ##&@   >;; r### # # >++#  + # +%#+#@,*#&&#&&+  #>> & & # +   =*   ++7++ +# ;#&@6 +; #+++ ;;;rr# #+ %9+",
"##;;;## + ;#>: +7# %1  #%&#+&%:###;>;>#;;##># >+ : > 2; #:##r&#@#%+  +## +#  @@ +>>; %@*&+#++++ #++ ##  &+ ### :&-#r#rrX2 > #7> ",
"# + ## 77;>>#++ 7++#7# ;&9# 7+7;r#;#2r#  #>  +>99   #;2 ##;>;+##++  : # ++#+++&#+ #;7%@+: # + ##>+7+>2+ +   ; 2+++##;rr>r;# ++; ",
" #+ &&#77+## ++ 7+#  >##+  7+++##;; +&&7#>>+7+ 91+>+&##:# ;;;+##+  > + + +  +#  ++#  +& + #+++++#+   #  ># +#+;+++ + #> 2+ +#  #",
"  + %%&##+#  #+#  #++#+7##+997+ ;;;>&@%+ X 7+ +& &+ :##+;>##;##  # ## +#   # >+#   ++;+#;>+++ ++###;+++# >+++#>  +##+;# +#+ +++>",
" ++  &#  # +#  #+#    97##=+##;;#>+99+:#  +&@,*%%#  ;;;;; :+;>#>###+     >###  >+>  # 7 ;> #       #2### + + ## ####>;+ +  ### >",
" +  +7##  #+  ;#>#  +9++# :#r>>#> + 9 ++ # &@*= + ##2.2##&+>#; >##   7>   # #+# ###> +++;;#   ###++ ## ++ ; +  r;#>#2X 77  2##  ",
" +  +7 #   + #2+#    7++#++#r;;>>##79 ++  #+ 1&# ###XX>   + +#+># #   #> #>++ #+#;>>### > #   >##7#++++7 + +%%:>;;>#X.  + #### #",
"   +  +#  # ;># # >+ +++#&&#X>;>;> +9   ##;+7++#:% :;>2 #%+&   ># #  # # #>    +;2;+ ###>+# > # #++ + +#79 %@@&>>;> ;X>;#++  #  ",
" +++  ++ #r >>#+# #+ #   %% r##  >  + ++ #>  #+++%#&>;>: @@ #&:>### ##   >>     >#> # + #+  # >;#+ #  +# 7 &@% >>;>+##>;> ++ +  ",
"2 #  #++  # +>2 >###    &&: ;+;+ 22>  + +++ #++  + :> r+% 1%&##>X;;  2### ;2 # >2 ###+  ##++##X>>rr# + #  ++#7 >;#;#> ;>;># #  #",
";###   #;+;# #  #;>2 +  +> ###+##;# +#+>+++     ;# 2;;;  + #>#>X2>>2#2>## ;#  # ###>    #>  #>;XXr;+ > r # #+#+#2##r# ;#>>>#># #",
"X ##  ### #+ # +##X>>+9  #>###+ ###  #+#  #++###>##2>X;#>  #X#>>.#;# #>#>>X   #   #>    #  #2X##X# + > # +#  +++#  #  ##X#>X>#+ ",
"X##  #  #  +++ +# >;+ 7+  #++#   >2#  7;2   +####>###>r#> X>>>>>.> + 2##X 2++    +#2+  #>>  +r## >#+  +   >2+#     ++#>#X#X# + #",
"2>X#  + 2 ++ +##  # +    # +& +2    &%& >   + ++ :+& >    2#r>>2>> + ###>+7## ### #     #>     #+ >   +   >> # #  >++#  ##>  + #",
"Xr;># +###++  ## >+  +   #  %1 >#   9&#= + # #++ + & #+:+&: ###X>#:  #+##     ## >+    ##>+ +++        + # > #   +#># ++  +#2   ",
">X>>##+     # ## #    + ##  @*&#>    +&%7  >> ++#7 + >++##+#   #>># # + #     #>+>++###>>;+#    #+    + +  >     + >#2 +##+# ## ",
".  >22+ #  #;    #     > #  &*&#.# >#&= + >>2#++ + ++#####:+  &&>#  #  #;     # # ++#2>.>. # +++;++ &%:> +#>#+ #  +>#>>  >+  #+ ",
"# +#>>#2>#+    ; #   # 2   2:@&2r>#;#&&#>2X#X>  >### >> >>># +#+#+# #  ;>   +# # ###>X#.>>>2 ++ #+  %%:X# r >### +#>>X#+>r>;  >;",
"#   >>#>X>#> #>> # 2>>#>#+ > +7#>#>>#++>X>> #>>>>>X:+#> >##>   # +      >>#>  ## # # > >>>>>>  +r#> + +#  22>>>#  2  >##>>>> #>>",
"  # ##  >.>X.>>> 2rX22>2  +    +# 2##;##;>2#;#>#>2> %+2>>;:##>#>+   #+  #>#>2; #+2#### >>X>>>2##X>>>;##   >#>2>>  >## >>>>#>;;>X",
"## #++; ;2 #2;###>;>;;>##   +;::; ;  #;>>22>    2;>:++##>#+  X;r2 ;  +; >>>># +#+# #  ; ;##>>. #2>>># &+++;  ;# >+## ;##>2## 2 X",
"#++##++#  + + 7##;+++;#2>##; >++##+++ #>>>2#; :#>+    +2>2&@+; >#  ;#:##.2;> ; #   #  ;;X#;2>.+ X>> 75&#++ ++# #++ >#  2>>  #  ;",
"> + # +++#77#&%+ + ++# ;>   22+ #+ ++  >##>>;:=: & +#+:;>>& &  ;X#   # + r#>X>>#> #   +;> #>.> #.  +# 7++ #++  ;    # #>>>     #",
"X#+ ##++ #++#9%+.2; +# >> ++2 +#+++ + +#;#2  +++#&#+#  :; ## + ;.>>#;>+++#  2#;>.###  + >;>;.  ># +     + ;+  +;>#2 ### ##;> +;;",
"# +####+ ;+#  + 2X# +.>>>#++; +>+  ;*#+>2;>+   +;+> #  +>  #   #2.#;X>#:#;+ #2  >2;; #  >X>;. +> ;;2    #+;+ + #.;. ### ;     >>",
"2#+;;# +###;  ##.>##>.2>>> #2++;  #2+++;>#2  +### #;### > ###  #.2#2.# +X>>2X>2#>;;;2; ;..;;.  ;# #2# ## +# #+##.X2;2## >###>2>>",
";#+;##++  >>>  +X2#  ++# ; 22++;   #+7 2.>>+++# #++ #  :;# #   ;..;>2 + .>>2#;>>.# +2 #>>.>>>  >  #>+  ## # + # >;> #+#+;#+#>>;#",
"  ;;+ +  ##2> +2 #;+ # ;#2;.>   +   +# ..2>+++; #  # ##:;+ ;;>>.##>  ;##;# # ;;.>r   .;.;2 >>#;  ##  ;#22#++ ;>#;# ; # +#  # # ;",
";## +# ++#;;;++ ##;  #;;+.;.; ;++    ;>;;>2* +> #  ;###;;+; #2;2#2r2>>r>;2# ;;#22;#;;XX. ; >.#>#  # ##>##+#+ ;>#r;+####;# # ###;",
"r## ;  + ;X>;#=*;;##+ ;#+2;#;+2;+ +##;2;;;2  +;##  ### ;>+#+   #2>22.2>>;X.>.2>#;### ;Xr;22 2#.2####>;2+ +#  +##;# ### ;;#2;####",
"2  ###++ #>> + ++# ;;+;;  ##> #;+++ +;X2>>2 #+ # #   ++;>  #+ + ##>>>>>;2>.>2#X# # 2  #.>>> > >.;>>r;###  >##+ ; ++ ;#+#>>>2+ + ",
"> ;#; ++###;+#;#  ;;# ;;+ ;r; ##+   +#2>;;;##+   ; ###+r2 ## + ; +2;2#>#>#>2;>.;;#r## #2>>;  +2>;#r#  ;#;#>>> ;;;> #;##..>># + #",
"2;; #;+ ###++#; # #2; ####;# # ;+++#+;;# +#;; +  #+#+# #+;##;### ;>;222;>#r#;;2X2>;2 +#>;;;;  ;X;###  ; ##;;#2#>#.#>;>#2;>##;## ",
"2 ;#=#;##  #+++##;#;;+;;>;#; # ++;+ +#r#++>>>#++ ++ ### +;#    #;## +X.2#  #++ >>.>.2#>.2;#2#2#####;  ; ##>;#2;;;;;>22 #;2>#;2# ",
";>;r ;;#+ +#+ #2#;+####;>;# #+;#    +##+  2>2 ++  +# ####>+ +# ;;;#X;.>2 2;;#+;22>>.222.; #;;22# #;#######;;;;;;r;>2>;  >.;>>2#;",
"2> ##>>#  ## #+ #; ;;#+#222;+>>;##  #+; # >>.+ +#;+# 2# #>+ ###;r.22;2>X;>2#+ ;#2>>2.22r.>;##..># +#;  +##;#2#;;>>;.;.##>2;2;r;>",
".>##22>; >.;    ;>;;>  ;#r;# #;2## +# #++,#>. 2+#   #>   #   ;;Xo2>2>>;;#..;>>2;22>Xo2>r>> ;#.r.## +##;##>#2> r;>>222.;;#>#>>.;2",
"2##>X2## ;2r  # >>>#; >2 #>#  #2 ;>+>+#*+  2r#2 #+      + ;;;>>..>###> ;>2..2..22>>;.>2.#;2>;>r.>>>+#+; #;#r# 2;>>>2;2>2 >>;r;#;",
";##; #+#;;;#+ + #;;#;#;2#;;>$;#2 #   +# ++ >##;## # ## ++#####;2X# # >#>r>>2#2;2..;; #;222..#r2.;;;##+;;## ;+# #;;2>>>;>#;;>2##2",
"># # ;  2; 2 +   #>;2+22>;>;# >;+;#+;+#>    #;>#  ;###  ##  ># #.2#; >  >2;># >2>.;;r #>>..>;#;2#22;;##2#####+ #  >>r2>;;;>>2>;>",
" ;+ ;;;#;; r;#  ##2#>;;;>2.22;2#   ;## >##+  ;2 ;##r>   ##   ;#;;;+>.>+>>  #22>>2;>;>;;>>>222+###;>#22>.##### ;+;#;r;#2;2>>>>.##",
"+ +  ##.2;#>r2;+# > ## #222r> #>#    #+####  #>> #  >  +#;; >###+  ;>##;>  #2.# #>>>22>2>r>#> ;2 ## #r>.; ######>>;#;22>.#  ## #",
"   #   2;.;>... # ; >#   #>;2 ## >    + r>## >#> ####  +2##;>>#    ;#### ; #>>>#2###2>>>;;>>.### >#;;>;;2>## >##;>;#####;  >#;;>",
"### +> 2>.2;.o>##+#2#; ; #;>>+> +#   ++#>>;# ##; >##  # > ;;;+#+>##>#>>2>#>#r> ;2  ; 2#>>;>;>+>;## ;>;;>2;   ##2>.      >>>;##2>",
">## >#>22#.;>.X;   2#>> #>;#> ># # +;##>#>2###>>### ## >#>###    ;#;>#>2r#2 >2>>># 2#>> >.2#> r>>  #2>>>>2>  2>>># + > #>.2#  2>",
"# ;###22.2.>2222*>+>#>2 2>;>#>>>> + >X>>#r2;2>>##>2### ;#> ### #>#>2> #>o>2 >rr> > 2#;r .r#>222rr# #X2>>>.>#>rr;  ;##   #r;.;>##",
"> >>.>>>>2>...>>+##>#22#>>>; #>> #+ +; >>2>2r2## ###   #>2 # ##>.;.r#+;;>2>222#r+r>X2>2#;r;r>2#>;r#>#r ;2.>>>.o>+;222 ##;.;>>>#2",
">;#22rr>2.222>2>#># >>;##>>> ;>> ### ;X>2>#>.>>>##>#> >>>2   ###22.>##>#>.;2;;>> ;##>##>2.Xr2>;# >#>#>##2>;#22r;# r22# ;>2# >>2>",
"#>##>>2>2.X22>>2 ## #2r>#>2# >>#> ;#   # >#r2>>> #>;##>#;>#####>Xr2>2>>#;2#2>##X##>##  #>>.r2>>;> #>>>###2#;>Xr> >2##>X>## #>>;#",
"># X>2#>>.#r2r>#> >##;;;#;;#>.2##>##### #r  >>>> # #2## ### #;#2.r2.2>  #.#r;#;.2#2####>#22X22  #; #22###.##X2r2r2  #;.2#   ># #",
";  X#r2>>2##2;2>  >>; ##>#;#2r.#>## 2 ## #;  >## > #;# ###  >;#.r2>> >## 2>#; 2.2#>>;#;#;;2222;;X##;2>;;#2.2>.>2;> ;> >>2## #  >",
"r ##r22r.#X2.#2> ##2X ; >##r2r.>X> ># #>   #>>2> #  > ###;# >>>.o2>>>>;>>#>;2#.2;;#>> >#..2##>>#r>#X2>>> ;22.r.2#2>>.   >>>  #;;",
"r #;or>#2## r;r> ;>Xr#>#.>>22or>o##>#;;###;#XX>> ;##;; >;r> >o2Xo>2>;2>;r>;#o>r>;;;2r#;>o22##>;#>;>2>r>#>;r>o>;>#r;>or;>;#> #>#>",
">##>r>#>;  ;2>2##;> #;2rr>22r22#>#;>;#; >#>#>>#># >>## r>2.>>rXXX>2 ;;;>;#;rX;>##;> rr>;>;>> >##;r.2r22 >;2>># ># 222rrr# ###>>r",
"X;#2###;##>r2#>###;;#>>>#;>...2>###r  # >#;;>##>>##># ###22r>2..o..>##>>;2r2> ;#;#2>22>####; r2Xrr2o>>> >#;;>  #>#;>>>;# #>;#;2o",
">;>>;#;>>>Xr> ;#  ;2X>#>>;>X2.2>>>#; ###;>>;#>>> >>;# #  r2r#>oor2r;# >>2>o>> ;##;22.2;;22;>>2ro..;.>>; ##;; ##;#X>;>>;;#>>   oo",
"r;>#;#>r>22>;#### >>;>#;;>>>r>>X>>###   ;;;22rr;;>#;;;   >>>2>rro22#2#.>r;>;>>#;r;2222;;##;2Xr>o;>;>;# ##;;;;;;##X#;;>;;;>;#  >o",
"> >; ##>>r>;>#  ;#o;#;>r#>>>>#X>>;##;  #>;2rr22;;>>r#>  ;>>;22o>r;r##r2rr2>>># #>;2#;;;; ;;2r>>> >>;;##;#;;;;#; >;;;#r2>>>>   rr"
};
