/* XPM */
static char *GRAY7[] = {
/* columns rows colors chars-per-pixel */
"128 64 61 1 ",
"  c #464646",
". c #4B4B4B",
"X c #4C4C4C",
"o c gray30",
"O c gray31",
"+ c #515151",
"@ c gray32",
"# c #535353",
"$ c gray33",
"% c #555555",
"& c #565656",
"* c gray34",
"= c #585858",
"- c gray35",
"; c #5A5A5A",
": c #5B5B5B",
"> c gray36",
", c #5D5D5D",
"< c gray37",
"1 c #5F5F5F",
"2 c #606060",
"3 c gray38",
"4 c #626262",
"5 c gray39",
"6 c #646464",
"7 c #656565",
"8 c gray40",
"9 c #676767",
"0 c #686868",
"q c DimGray",
"w c #6A6A6A",
"e c gray42",
"r c #6C6C6C",
"t c #6D6D6D",
"y c gray43",
"u c #6F6F6F",
"i c gray44",
"p c #717171",
"a c #727272",
"s c gray45",
"d c #747474",
"f c gray46",
"g c #767676",
"h c #777777",
"j c gray47",
"k c #797979",
"l c gray48",
"z c #7B7B7B",
"x c #7C7C7C",
"c c gray49",
"v c #7E7E7E",
"b c gray50",
"n c #808080",
"m c #818181",
"M c gray51",
"N c #838383",
"B c gray52",
"V c #868686",
"C c #898989",
"Z c #8D8D8D",
"A c gray56",
/* pixels */
"aaafusfsaphiaydadiassswdsafdpfsfapsdsaapsrsdgsaaaissasysdafsifafaaafusfsaphiaydadiassswdsafdpfsfaaafusfsaphiaydadiassswdsafdpfsf",
"pppkprhfszsrhuspz6sfpp8kshzfhfycfkkpuhlpfphegssppffuhpqfcjspehfzpppkprhfszsrhuspz6sfpp8kshzfhfycpppkprhfszsrhuspz6sfpp8kshzfhfyc",
"srhkqispkzhskuhffqsfu0qchfhiszpdffszyhbkkshyspfpaskshsehhjksyhkzsrhkqispkzhskuhffqsfu0qchfhiszpdsrhkqispkzhskuhffqsfu0qchfhiszpd",
"hpphrilsfhshkhhhsqusqqrzsfkqizshhsszihnkbshusufshqshhsyhfuzvrfhshpphrilsfhshkhhhsqusqqrzsfkqizshhpphrilsfhshkhhhsqusqqrzsfkqizsh",
"hppf8pkusfshkfksfwppqrpkufzurhkkpsszeskhssbyayhpgypksk8hkszgdlfkhppf8pkusfshkfksfwppqrpkufzurhkkhppf8pkusfshkfksfwppqrpkufzurhkk",
"sukfegzppfuhkfzhuqhsursjshkreffzpppkprhfszsrhuspz6sfpp8kshzfhfycsukfegzppfuhkfzhuqhsursjshkreffzsukfegzppfuhkfzhuqhsursjshkreffz",
"huksugzsusshphcspyhusqskfzppqfsxsrhkqispkzhskuhffqsfu0qchfhiszpdhuksugzsusshphcspyhusqskfzppqfsxhuksugzsusshphcspyhusqskfzppqfsx",
"supsephhkfusjuhfpesysqslksruqsphhpphrilsfhshkhhhsqusqqrzsfkqizshsupsephhkfusjuhfpesysqslksruqsphsupsephhkfusjuhfpesysqslksruqsph",
"huuf5pkffkskcupsftuyrapkzfystefshppf8pkusfshkfksfwppqrpkufzurhkkhuuf5pkffkskcupsftuyrapkzfystefshuuf5pkffkskcupsftuyrapkzfystefs",
"fuuhuyyhfkhkcqhfkuuui7yckhfhegkxsukfegzppfuhkfzhuqhsursjshkreffzfuuhuyyhfkhkcqhfkuuui7yckhfhegkxfuuhuyyhfkhkcqhfkuuui7yckhfhegkx",
"fssksqfhushzc8hhfspstqscszshqqxxhuksugzsusshphcspyhusqskfzppqfsxfssksqfhushzc8hhfspstqscszshqqxxfssksqfhushzc8hhfspstqscszshqqxx",
"uhjhypupppufcrzfhspsprukpkhhtszssupsephhkfusjuhfpesysqslksruqsphuhjhypupppufcrzfhspsprukpkhhtszsuhjhypupppufcrzfhspsprukpkhhtszs",
"o%>;:>*13#&=;$#$@=&>1;$=:>*13#&=.%;&+rkffkskcupsftuyrapkzfy3&:*Xo%>;:>*13#&=;$#$@=&>1;$=:>*13#&=o%>;:>*13#&=;$#$@=&>1;$=:>*13#&=",
":;;53757q%537:::>+;q75353757q%53:;;53-ehfkhkcqhfkuuui7yckh1>77$=:;;53757q%537:::>+;q75353757q%53:;;53757q%537:::>+;q75353757q%53",
"1%35:159q@5531,1-%1q1915:159q@551%35:1-aushzc8hhfspstqscs5<:35:%1%35:159q@5531,1-%1q1915:159q@551%35:159q@5531,1-%1q1915:159q@55",
";,:,,,:3q=9351,1,=:7,755,,:3q=93;,:,,,:%rpufcrzfhspspruk1=,:1:,=;,:,,,:3q=9351,1,=:7,755,,:3q=93;,:,,,:3q=9351,1,=:7,755,,:3q=93",
"-1=11>95t:9553974:,735w51>95t:95-1=11>953#:-:$%#>:;--:&>27<5,;1%-1=11>95t:9553974:,735w51>95t:95-1=11>95t:9553974:,735w51>95t:95",
"1>:11%758,93>15e4111110:1%758,931>:11%758,935:5:r71>573635:1:-7@1>:11%758,93>15e4111110:1%758,931>:11%758,93>15e4111110:1%758,93",
"#@251*7,89731335=-q5%,911*7,8973#@251*7,8973597@1331577831:,5>5 #@251*7,89731335=-q5%,911*7,8973#@251*7,89731335=-q5%,911*7,8973",
"&=-61-8713771:55>%714,w51-871377&=-61-871377351->51:791330-31>1O&=-61-8713771:55>%714,w51-871377&=-61-8713771:55>%714,w51-871377",
"&1-q:*0711e57115>%31:305:*0711e5&1-q:*0711e515,->117595330:,111&&1-q:*0711e57115>%31:305:*0711e5&1-q:*0711e57115>%31:305:*0711e5",
"*3,1:*1;:19901531;64:69::*1;:199*3,1:*1;:199q61;15150e11,>%,:-q%*3,1:*1;:19901531;64:69::*1;:199*3,1:*1;:19901531;64:69::*1;:199",
"-3,11%5%115563e3:17,349,1%5%1155-3,11%5%1155473:,74889:3,--:1-q%-3,11%5%115563e3:17,349,1%5%1155-3,11%5%115563e3:17,349,1%5%1155",
",:-96;12:>716587110,5>336;12:>71,:-96;12:>716651354767;12,;18,1:,:-96;12:>716587110,5>336;12:>71,:-96;12:>716587110,5>336;12:>71",
"chhxykvxzvzbMhhlxfhhfzjvbxhlfsxlxcxxaxjbMlMbzkxkclllclxjxjlchkblchhxykvxzvzbMhhlxfhhfzjvbxhlfsxlchhxykvxzvzbMhhlxfhhfzjvbxhlfsxl",
"fuuhuyyhfkhkcqhfkuuui7yckhfhegkxfuhfqifzxinkhuhulslpkyhrhshhaphpfuuhuyyhfkhkcqhfkuuui7yckhfhegkxfuuhuyyhfkhkcqhfkuuui7yckhfhegkx",
"fssksqfhushzc8hhfspstqscszshqqxxsfsptihzbekhhdlyzsfsfeMpkuzhaufsfssksqfhushzc8hhfspstqscszshqqxxfssksqfhushzc8hhfspstqscszshqqxx",
"uhjhypupppufcrzfhspsprukpkhhtszsshlukeznztjjuehsssjfstNyz6nktrhsuhjhypupppufcrzfhspsprukpkhhtszsuhjhypupppufcrzfhspsprukpkhhtszs",
"aaafusfsaphiaydadiassswdsafdpfsfaaafusfsaphiaydadiassswdsafdpfsfapsdsaapsrsdgsaaaissasysdafsifafaaafusfsaphiaydadiassswdsafdpfsf",
"pppkprhfszsrhuspz6sfpp8kshzfhfycpppkprhfszsrhuspz6sfpp8kshzfhfycfkkpuhlpfphegssppffuhpqfcjspehfzpppkprhfszsrhuspz6sfpp8kshzfhfyc",
"srhkqispkzhskuhffqsfu0qchfhiszpdsrhkqispkzhskuhffqsfu0qchfhiszpdffszyhbkkshyspfpaskshsehhjksyhkzsrhkqispkzhskuhffqsfu0qchfhiszpd",
"hpphrilsfhshkhhhsqusqqrzsfkqizshhpphrilsfhshkhhhsqusqqrzsfkqizshhsszihnkbshusufshqshhsyhfuzvrfhshpphrilsfhshkhhhsqusqqrzsfkqizsh",
"hppf8pkusfshkfksfwppqrpkufzurhkkhppf8pkusfshkfksfwppqrpkufzurhkkpsszeskhssbyayhpgypksk8hkszgdlfkhppf8pkusfshkfksfwppqrpkufzurhkk",
"sukfegzppfuhkfzhuqhsursjshkreffzsukfegzppfuhkfzhuqhsursjshkreffzpppkprhfszsrhuspz6sfpp8kshzfhfycsukfegzppfuhkfzhuqhsursjshkreffz",
"huksugzsusshphcspyhusqskfzppqfsxhuksugzsusshphcspyhusqskfzppqfsxsrhkqispkzhskuhffqsfu0qchfhiszpdhuksugzsusshphcspyhusqskfzppqfsx",
"supsephhkfusjuhfpesysqslksruqsphsupsephhkfusjuhfpesysqslksruqsphhpphrilsfhshkhhhsqusqqrzsfkqizshsupsephhkfusjuhfpesysqslksruqsph",
"huuf5pkffkskcupsftuyrapkzfystefshuuf5pkffkskcupsftuyrapkzfystefshppf8pkusfshkfksfwppqrpkufzurhkkhuuf5pkffkskcupsftuyrapkzfystefs",
"fuuhuyyhfkhkcqhfkuuui7yckhfhegkxfuuhuyyhfkhkcqhfkuuui7yckhfhegkxsukfegzppfuhkfzhuqhsursjshkreffzfuuhuyyhfkhkcqhfkuuui7yckhfhegkx",
"fssksqfhushzc8hhfspstqscszshqqxxfssksqfhushzc8hhfspstqscszshqqxxhuksugzsusshphcspyhusqskfzppqfsxfssksqfhushzc8hhfspstqscszshqqxx",
"uhjhypupppufcrzfhspsprukpkhhtszsuhjhypupppufcrzfhspsprukpkhhtszssupsephhkfusjuhfpesysqslksruqsphuhjhypupppufcrzfhspsprukpkhhtszs",
"o%>;:>*13#&=;$#$@=&>1;$=:>*13#&=o%>;:>*13#&=;$#$@=&>1;$=:>*13#&=.%;&+rkffkskcupsftuyrapkzfy3&:*Xo%>;:>*13#&=;$#$@=&>1;$=:>*13#&=",
":;;53757q%537:::>+;q75353757q%53:;;53757q%537:::>+;q75353757q%53:;;53-ehfkhkcqhfkuuui7yckh1>77$=:;;53757q%537:::>+;q75353757q%53",
"1%35:159q@5531,1-%1q1915:159q@551%35:159q@5531,1-%1q1915:159q@551%35:1-aushzc8hhfspstqscs5<:35:%1%35:159q@5531,1-%1q1915:159q@55",
";,:,,,:3q=9351,1,=:7,755,,:3q=93;,:,,,:3q=9351,1,=:7,755,,:3q=93;,:,,,:%rpufcrzfhspspruk1=,:1:,=;,:,,,:3q=9351,1,=:7,755,,:3q=93",
"-1=11>95t:9553974:,735w51>95t:95-1=11>95t:9553974:,735w51>95t:95-1=11>953#:-:$%#>:;--:&>27<5,;1%-1=11>95t:9553974:,735w51>95t:95",
"1>:11%758,93>15e4111110:1%758,931>:11%758,93>15e4111110:1%758,931>:11%758,935:5:r71>573635:1:-7@1>:11%758,93>15e4111110:1%758,93",
"#@251*7,89731335=-q5%,911*7,8973#@251*7,89731335=-q5%,911*7,8973#@251*7,8973597@1331577831:,5>5 #@251*7,89731335=-q5%,911*7,8973",
"&=-61-8713771:55>%714,w51-871377&=-61-8713771:55>%714,w51-871377&=-61-871377351->51:791330-31>1O&=-61-8713771:55>%714,w51-871377",
"&1-q:*0711e57115>%31:305:*0711e5&1-q:*0711e57115>%31:305:*0711e5&1-q:*0711e515,->117595330:,111&&1-q:*0711e57115>%31:305:*0711e5",
"*3,1:*1;:19901531;64:69::*1;:199*3,1:*1;:19901531;64:69::*1;:199*3,1:*1;:199q61;15150e11,>%,:-q%*3,1:*1;:19901531;64:69::*1;:199",
"-3,11%5%115563e3:17,349,1%5%1155-3,11%5%115563e3:17,349,1%5%1155-3,11%5%1155473:,74889:3,--:1-q%-3,11%5%115563e3:17,349,1%5%1155",
",:-96;12:>716587110,5>336;12:>71,:-96;12:>716587110,5>336;12:>71,:-96;12:>716651354767;12,;18,1:,:-96;12:>716587110,5>336;12:>71",
"chhxykvxzvzbMhhlxfhhfzjvbxhlfsxlchhxykvxzvzbMhhlxfhhfzjvbxhlfsxlxcxxaxjbMlMbzkxkclllclxjxjlchkblchhxykvxzvzbMhhlxfhhfzjvbxhlfsxl",
"fuuhuyyhfkhkcqhfkuuui7yckhfhegkxfuuhuyyhfkhkcqhfkuuui7yckhfhegkxfuhfqifzxinkhuhulslpkyhrhshhaphpfuuhuyyhfkhkcqhfkuuui7yckhfhegkx",
"fssksqfhushzc8hhfspstqscszshqqxxfssksqfhushzc8hhfspstqscszshqqxxsfsptihzbekhhdlyzsfsfeMpkuzhaufsfssksqfhushzc8hhfspstqscszshqqxx",
"uhjhypupppufcrzfhspsprukpkhhtszsuhjhypupppufcrzfhspsprukpkhhtszsshlukeznztjjuehsssjfstNyz6nktrhsuhjhypupppufcrzfhspsprukpkhhtszs",
"fhcztsrssizhmuzhhfzkgupkfhvhtskkfhcztsrssizhmuzhhfzkgupkfhvhtskksukhz5dkzqyhethhsuhzt9bqzekpquhsfhcztsrssizhmuzhhfzkgupkfhvhtskk",
"hhxzsiussqkhlpzfishbgsssssxutyjfhhxzsiussqkhlpzfishbgsssssxutyjffpskf8hhzqshethsfufkr8ntzpcuiuhshhxzsiussqkhlpzfishbgsssssxutyjf",
"zhlz98dhsekplzkfsffhrtchqpzsqrxszhlz98dhsekplzkfsffhrtchqpzsqrxsksslguipsqtl9tkphuglu5kqhqlehygfzhlz98dhsekplzkfsffhrtchqpzsqrxs",
"e5qe122w82rq70qq85qq3,e9q6yq2,e2e5qe122w82rq70qq85qq3,e9q6yq2,e2q08q0>8492,q>2e,q78q7&e;t,8105eqe5qe122w82rq70qq85qq3,e9q6yq2,e2",
"AZBbgkxzhssflClfbvgjVANCxtimhsblAZBbgkxzhssflClfbvgjVANCxtimhsblAZBbgkxzhssflClfbvgjVANCxtimhsblAZBbgkxzhssflClfbvgjVANCxtimhsbl",
"jhVlpfkkfq5ssfhss7wfhmssh7uxfursjhVlpfkkfq5ssfhss7wfhmssh7uxfursjhVlpfkkfq5ssfhss7wfhmssh7uxfursjhVlpfkkfq5ssfhss7wfhmssh7uxfurs",
"ssxpuszff85sisfsp77fsbssg7qfftesssxpuszff85sisfsp77fsbssg7qfftesssxpuszff85sisfsp77fsbssg7qfftesssxpuszff85sisfsp77fsbssg7qfftes",
"gscsushfpq,rttssq97yhcsgzqqfpteygscsushfpq,rttssq97yhcsgzqqfpteygscsushfpq,rttssq97yhcsgzqqfpteygscsushfpq,rttssq97yhcsgzqqfptey"
};
