/* XPM */
static char *GRAYVINE[] = {
/* columns rows colors chars-per-pixel */
"128 64 161 2 ",
"   c #010101",
".  c #080603",
"X  c #0C0905",
"o  c gray4",
"O  c #130F07",
"+  c #110E09",
"@  c #0F1504",
"#  c #151505",
"$  c #1B1C07",
"%  c #15120A",
"&  c #1B150B",
"*  c #1D1C0C",
"=  c #1C1811",
"-  c #241C0D",
";  c #2D1C0C",
":  c #311E0E",
">  c #241C13",
",  c #2A1E11",
"<  c #241F1B",
"1  c #1D240B",
"2  c #24230D",
"3  c #2B220F",
"4  c #252314",
"5  c #2D2511",
"6  c #272810",
"7  c #2C2C12",
"8  c #24231E",
"9  c #2D241C",
"0  c #332614",
"q  c #3A2716",
"w  c #352915",
"e  c #3A2C16",
"r  c #33261A",
"t  c #352A1B",
"y  c #3C2C1B",
"u  c #3F3117",
"i  c #353219",
"p  c #3E311C",
"a  c #242423",
"s  c #292420",
"d  c #2D2A25",
"f  c #322D24",
"g  c #3D2E22",
"h  c #2E3020",
"j  c #353425",
"k  c #3B3526",
"l  c #3B3529",
"z  c #3E382A",
"x  c #353535",
"c  c #393D32",
"v  c #3C3C3C",
"b  c #412F1D",
"n  c #403017",
"m  c #43321E",
"M  c #49351E",
"N  c #4E3A1E",
"B  c #563D1F",
"V  c #402F20",
"C  c #453321",
"Z  c #4A3624",
"A  c #463823",
"S  c #4D3A25",
"D  c #433529",
"F  c #443B2C",
"G  c #4E3A29",
"H  c #513D25",
"J  c #593F25",
"K  c #523E2B",
"L  c #463B31",
"P  c #4B3E31",
"I  c #403E3C",
"U  c #3F413B",
"Y  c #4F4027",
"T  c #4B402E",
"R  c #554126",
"E  c #5B4125",
"W  c #55412C",
"Q  c #5A452C",
"!  c #5D492E",
"~  c #4C4133",
"^  c #47433C",
"/  c #4C453D",
"(  c #4D493F",
")  c #554232",
"_  c #5A4632",
"`  c #5E4933",
"'  c #53463A",
"]  c #57483A",
"[  c #5B4B3B",
"{  c #5F503D",
"}  c #614425",
"|  c #6B4827",
" . c #61452A",
".. c #634B2D",
"X. c #6B4C2D",
"o. c #714F2E",
"O. c #6F512F",
"+. c #74512F",
"@. c #624D34",
"#. c #6C4E31",
"$. c #624E3A",
"%. c #6A4F38",
"&. c #655134",
"*. c #6C5235",
"=. c #66513B",
"-. c #6B543C",
";. c #6F583D",
":. c #735535",
">. c #775837",
",. c #725639",
"<. c #755C3E",
"1. c #7A5A38",
"2. c #464543",
"3. c #4A4641",
"4. c #4E4B41",
"5. c #534D44",
"6. c #5B4E44",
"7. c #544F4B",
"8. c #555146",
"9. c #5A5146",
"0. c #56524B",
"q. c #5C534B",
"w. c #5E584D",
"e. c #555554",
"r. c #595652",
"t. c #575953",
"y. c #5D5A56",
"u. c #5E5C5A",
"i. c #625344",
"p. c #6C5642",
"a. c #675845",
"s. c #6F5843",
"d. c #61574E",
"f. c #63594F",
"g. c #6E5E4F",
"h. c #735B44",
"j. c #755E49",
"k. c #645A52",
"l. c #685E55",
"z. c #615E59",
"x. c #7A6242",
"c. c #766048",
"v. c #7A624D",
"b. c #6B6056",
"n. c #65625D",
"m. c #6A635D",
"M. c #7D6551",
"N. c #716659",
"B. c #656565",
"V. c #6A6661",
"C. c #6D6964",
"Z. c #6D6D6D",
"A. c #706B67",
"S. c #726D69",
"D. c #77726D",
"F. c #747474",
"G. c #7C7772",
"H. c gray48",
"J. c #836B4A",
"K. c #816952",
"L. c #808080",
/* pixels */
"F.Z.H.F.H.z.0 m @.&.-.*.S b m.F.F.5.3 3 ~ z.F.Z.F.F.Z.F.Z.F.F.F.F Z ` m 7.B.F.Z.F.F.Q ) q.F.F.F.F._ Z r P 5.G -.-.5 w F.Z.Z.F.F.F.Z.H.F.F.V.0 C [ &.*.*.S m m.F.F.0.5 3 ~ C.Z.F.H.F.H.F.F.H.F.H.P C ` b 5.F.F.F.H.B._ W n.H.F.Z.F.W Z r ~ d.G -.-.3 w F.F.H.F.H.",
"F.F.F.F.F.B.y.K $.G R &.=.G b n.F.F.F.n.6.G F w.d.q.5.Z.Z.Z.F.6.W C y z F.B.y.4.4.T | K Z.F.F.Z.F.Z G V.F G p.$.W m C ~ F.Z.F.F.F.H.H.F.F.F.C.K =.H H &.=.G m z.S.F.F.u.9.K F d.l.r.5.F.B.H.F.6.K Z b j F.F.n.( 4.T | W F.F.F.F.F.S G u.L G p.$.W p C ~ B.H.F.H.",
"H.F.F.H.F.Z.B.B.) G $...&.*.H [ F.Z.H.H.Z.[ K _ $.$.b F H.Z.D K Q W 3 n.F.Z.B.r.3 m <.G Z.Z.Z.F.K S K ' Z.d.Q R Q K b V n.Z.Z.F.F.F.F.H.Z.H.L.H.~ G $...&.*.G ] F.F.H.F.H.[ K ) $.$.m G Z.F.F K Q W 3 B.Z.H.H.n.3 m <.G F.Z.F.F.' ` ` ] F.k.Q K Q K m b z.H.H.H.",
"F.F.F.H.H.B.Z.Z.Z.q.W ` } :.Q K [ F.F.H.F.B.B.Z.F.q.G G ~ 5.0 G ..W 0 H.H.B.B.Z.t.Z G K Z.F.F.5.) y Z ' F.y.G K H _ Q H 5.F.B.H.F.F.F.H.Z.F.L.H.L.q.W @.} +.! H 6.B.F.F.F.F.S.H.F.q.~ S P 8.q G ..W 0 H.F.F.L.H.C.Z H K F.Z.F.d.@.> . ~ H.C.K K H _ Q G 5.F.F.F.",
"F.F.F.H.F.Z.Z.Z.B.B.5.K %.Q s.K p P F.H.Z.B.Z.Z.B.B.S.F G K e y ! ` G ~ F.Z.B.Z.C.9.S K m.F.H.9.Z ~ Z H.6.C.z.G K W ..H C H.F.F.F.F.F.H.Z.F.H.F.F.F.d.G =.Q ,._ y G F.H.F.H.C.F.H.F.H.P G K t b ! Q G P B.F.H.H.F.d.S G C.Z.F.w.G f t H.6.H.y.G H ) ..H C H.F.H.",
"H.H.F.H.Z.B.Z.F.F.F.F.K $.@.x.:.G S q.F.F.F.F.F.H.F.Z.5.C D ^ y y @.p.K u F b.Z.F.k.Q _ i.9.l.] C k.G F.F.4.F.V.C K -...Z F.B.F.F.Z.F.F.F.B.F.F.F.H.F.K 6.@.x.#.H G w.F.F.F.B.H.F.F.H.0.C L ^ y u @.s.K p F N.C.F.k.E ` i.q.k.] C 9.G F.Z.( B.C.m K -.#.Z F.F.H.",
"F.F.H.F.Z.F.Z.F.F.F.F.9.) K ..*.! H G ` K m.Z.H.H.F.H.F.L C m.n.l q K m W b $.S p p R R ) b m Z ~ 5.A F.V.u.Z.F.y C @.H G Z.D.F.F.B.H.H.B.Z.F.F.F.H.F.f._ K ..:.! H G _ Z y.B.L.F.F.H.F.~ b z.V.l q K m H m @.S m y Q K _ b m A P 4.C F.y.t.Z.H.y C @.H K H.Z.F.",
"F.F.F.H.F.Z.Z.F.F.Z.Z.F.e Q K -.H W e H.k.k.Z.H.F.F.H.F.F.F y K Z F S b Z H &.S S K ! G Z H.Z.F.F.w.y F.4.F.Z.H.C y =.C Z P F.H.F.F.F.F.Z.F.H.F.F.F.F.F.e Q K $.H W y F.d.7.Z.H.F.F.H.C.F.F y K A P S b Z S &.G G H Q S Z F.H.F.F.d.y F.^ B.Z.) V m $.m Z P F.H.",
"z.Z.F.H.H.F.F.F.F.B.H.9.w 7 e @.E H Z F.a.l.Z.F.V.d.k.C.F.H.^ L y 0 t q - 5 p Q Q @.H X.` [ F.F.F.q.Z k.q.~ k.N.K G _ Z y C y b.F.F.F.F.B.F.H.Z.F.F.F.r.e 0 e @.R H S F.=.w.F.F.Z.k.k.Z.Z.H.4.L y r t q - 0 G W _ @.H X.Q 6.H.F.F.q.A d.5.q.K ) K G ) S b C q [ ",
"C z.F.F.Z.F.H.Z.F.F.F.G 3 y.w H Q G G $.] k.C.V.G 6.] K V.F.F.k.y H.H.F.y.4.- w C Z W <.X.$.Z ' 7.e S Z C G K _ Q Z S _ @.=.G _ C q.H.F.B.F.H.F.F.F.Z.G 5 z.w H Q H G [ ] d.F.V.K [ ] K V.F.F.k.y Z.H.F.u.5.w m Z Z Q >.X.$.S ) 5.q Z Z b K K _ Q Z G _ @.%.Z ` ",
"K C ] H.Z.H.H.H.F.F.H.W 0.F.- V [ H F ] K L 5.K V q.P K K F.H.k.m F.F.H.Z.F.C.5 - y W ` _ ..R K ) y 5.F.[ G H _ K ) Z W Q K R ! K V ] z.F.F.H.F.F.F.F.W 8.H.- C [ H F ] K D 8.K , 7.P K G F.F.k.C Z.H.F.F.F.B.5 C G W ` _ ..Q K ) y 3.F.[ K H W H K G K _ K K Q ",
"Q K K 0 z.H.L.H.L.F.H.W 0.D.0 S @.-.i.' P ' K K K K K _ G 6.C.g e u.F.H.F.F.L.4.5 - p S G H W ..$._ K P G #.#.@.K Z Z ` G ) W S ! K K 0 y.F.F.H.H.F.Z.W 9.Z.0 G $.-.i.) F ] K 5 r G K _ G 6.n.g e y.Z.F.B.F.F.5.r C A W G H K ..$._ K G K @.*.@.K S G _ K _ K H ",
"Q ` S Z Z n.H.F.l.[ f.S m ` C G ! -.k.H.m.S r.F.F.F.H.A.) Z Z t 5 l F.H.B.F.F.4.l ( 4.^ C K p Q _ =.h.*.H Q %.K K F F C p y G G Q _ K G Z 5.F.F.g.[ 9.N m ] A G Q p.d.Z.z.G l.H.H.F.F.6.C S A e 5 l F.F.B.Z.H.4.l 3.3.5.C K m Q _ =.s.-.S Q #.K Z F z C b b G K ",
"m Z @.@.H K y b G w q S G G G Z @.@.C 0.[ G 5.A.F.H.H.) K 5.F.H.F.Z.F.F.F.Z.H.z.F.H.F.Z.n.Z [ Z Q *.j.#.Q H K Z ) F.H.C.w.5.C ) m Q s.s.` G G A G w w G S G G Z @.@.Z k.[ S 5.A.H.F.F.) W 5.H.H.F.Z.Z.F.Z.Z.Z.n.F.H.F.H.B.Z [ Z Q #.<.#.Q H K G / H.F.C.5.5.C W ",
"0 S ! -...W Z m H r @.H -.s.Q ` p.&.w > [ K K W B.F.~ Z n.F G F F.Z.F.H.B.F.F.F.H.H.F.F.) K _ A s.%.p._ _ G Z G L F C ~ F.H.F.~ 0 K p.j.j.p.G m G q &.H p.s.E ` p...-.K ) K K ) n.H.F G y.P [ ' F.F.F.H.F.B.F.F.Z.F.F.H.' K Q Z $.s.j._ ) K A [ 5.8.~ ~ Z.B.H.~ ",
"n.D Y T K K C b @.t e b Q  .E *.p.Q 0 V.B.B.P _ G ' p r.( m 7.e ] Z.F.F.Z.F.H.F.F.F.F.V.K H Z S s.W W G y G b ) W G S ) T H.F.F.( r K $._ K C b $.t e y Q  .E *.p.Q K P F.Z.P _ G ' y n.5.$.b.) [ H.F.H.Z.F.F.F.F.Z.F.V.K H S Z $. ._ G y G g _ R G S ) T F.H.F.",
"C m m y C G w.5._ L 2.4.q.5.r C Q e o _ z.B.F.[ Z ) S Z.A w.H.w.C z.D.F.B.F.H.Z.F.V.] S &.` &.C _ W ) S S w G ! Z P d.V K ] C.] C n m y C Z 5.5._ L 5.3.d.5.q C ! W &.W ] l.F.] Z ) S F.K 9.H.9.) n.H.H.B.F.Z.D.F.V.[ Z &.` &.Z ` W ) G Z w K ` Z w 5 t G C 0 C ",
"] 9.5.k.5.u.H.F.Z k.F.C.~ S q r.' % r @.*.K Z V Z Z Q ' [ ) q.' W m B.F.Z.F.H.F.T =.s.` Q *.@.Q ;.! R -.Z W @.K P F.H.z.K V G _ ` / 5.k.6.F.F.F.Z d.H.C.) G r 9.G H @.<.W S C g Z Z _ ' s.L w.) [ S n.H.F.F.Z.F.D =.v.@.Q &.@._ -.Q Q =.G K @.K 6 y.H.t.W C G Z ",
"G m S q.m.F.H.F.b i.d.K ~ 9.H.F.V.5 G Q @.#.K K s.K Z Q =.Q _ G G Z C n.Z.F.H.k.Z =.p.#.:.@.] _ Q G Q H ` ! W ' H.H.F.F.k.V _ _ + = S f.y.B.F.F.V 6.k.K P 9.H.F.V.e K X.@...W K h.G Z Q v.t _ G W K Z B.B.B.F.l.A -.<.%.:.` _ ) Q G Q H @.Q W C c F.H.F.r.C ' Z ",
"Z G Z M K ) C.F.' C K P F.F.H.F.F.l.b S _ @.Q @.#.J K Q Q h.h.E &.Q Z e j 4.p C W ..*...@.Q q t m ! R G W W W l.H.F.Z.Z.Z.d.K y   % Z M K ] z.H.P _ K P F.F.H.H.F.n.V S _ @.Q ..o.H W @._ r h.E &.Q G e j ^ p C W ..*...@.! q e m ! R H W W K G F.F.H.F.S.5.K e ",
"F.u.4.M Z G Z n.V.G y V.K.H.Z.F.F.Z.G S ` _ D [ ..S G K G S C m G H G Z 0 y Z ) @.>.h.Q S m ~ 5.y G @.H ) G G W C.F.Z.F.Z.q.H q.F.u.q.A Z G K m.l.G e ~ F.F.L.F.H.F.G S ` G t ` ..S S =.t . k k G G S Z 0 y Z _ @.>.<.Q S m ~ 8.y H @.K ) ) H K n.F.H.H.Z.9.G F.",
"F.D.Z.H.0.C G M z.d.b H.H.P e.F.H.Z.b Z Z r.H.K.[ k.9.K ~ 4.8.7 G K N W K Q Q *.&.W Q C a.r.F.F.V.C H W Z 0 C H V C.F.F.Z.i _ V.H.F.F.H.6.m K S z.5.t K L F.H.H.H.F.b S * e.H.F.] k.q.K L x ( 9 S W N R K ) Q -.-.R Q C T > H.H.V.V H Q K K C K m V.H.Z.Z.e ) F.",
"F.F.F.H.F.B.F W Z Q M q.] ) i.F.F.F.P S Z P G k.F.H.F.F.B.B.H.V.w @.K _ K _ Q M H K b ~ H.B.H.H.F.Z ` Q S p e K Z y q.7.w Z ] H.H.H.F.H.Z.F.P $.s.G - C K C 6.H.F.F.Z Z * 0.w.F.F.F.H.F.B.F.L.Z.w @.W _ W Q Q M H K b 0 g y.F.H.H.C ` E Z Z e K Z e 8.5.0 G [ H.",
"Z.F.H.F.Z.F.Z.] G S m Z W $.Q 0 V.F.d.V K b D K ' H.F.H.F.F.H.F.5 $.M @.V S S _ W Z 9.F.H.Z.H.F.q.y K G _ y 5 C 9.Z S Z ~ 9.H.F.H.F.F.H.F.S.Z.9.` K - S J [ S 6.H.H.y b _ K W @.V.F.F.F.B.H.K.F.7 $.M ` b M S _ K G q.F.Z.F.H.F.k.y K G _ b 0 b k.Z G Z m q.H.F.",
"F.H.H.H.F.F.Z.F.F.~ 8.0.K Q H b b ,   y G K G Q H ] k.f.q.Z H Q Z H H G Z M b - 3.F.H.H.L.F.B.' _ K ! S m G C C C ' 5.P A m m Z C G q.q.G ~ ^ 5.C e q C $.Q ` b b G C w i W G =.&.9.f.f.q.H H _ Z H H H Z C g - 5.F.H.H.F.F.V.i.%.K ! Z Z u t e F.F.F.9.G F.H.F.",
"H.F.H.H.F.Z.Z.F.' B.l.[ K t 9 > d.q.2.7.K K H @.J H R K K Z b K Q H B W Q D s F.F.B.H.F.H.t.Z j._ @.E ! K m n _ F F.H.5.~ D K ] ) Z m y A t t y ! Q E =.s.$.H V k.q.5.5.Z 1 A ` Q R <.<.G @...G $._ H Q y > d H.H.Z.L.H.F.V.[ h._ @.E _ _ F n.r C.F.F.6.K L F.F.",
"H.H.F y K K Z _ H Z G y ] a o 9 q.F.F.F.Z.G G m b S Q Q ) @.G b G [ K $.M.[ l q.F.B.H.Z.P A =.s.H @.E G C n.8.L [ Z.B.S p S ! ;...H C Z i t &.K p.s.H @.s.h.@._ w.F.F.F.F.F i 2 e Z G S Z C y 9 [ p.$.Z q - a k.L.Z.H.F.P Z p.h.G ..Q S Z u.L.f 9.F.H._ C Z ] F.",
"C.] C m y e b W Z M i.n.F.F.L [ @.K k.d.3.Z.n.( 0 e G _ G H K 0 m W W a.s.Q e Z Z C ` w K K ;.M.j.@.) _ Z L u.9.K w y _ G Z @.@.K ) y y r p w Z G Z > e @.p._ $.$.K k.q.5.F.9.4.0 e C R ) ` K * 6 ) $.$.S G q y C b @.w K K -.K.j.W W ) q.Z.L.Z./ K l.C k.l G F.",
"d.K C.q B.8.e Z C 4.C.H.F.F.H.9.) K Z Z G b n.F.Z.4.5 W C S S y H ! R Z W _ N Z K G Q y ! &.O.<.W Z C -._ C u C K Z G H R ` Z C F y.H.F.l.) d.q m ` ~ > ! i.) ) W K G Z G b V.B.H.3.7 3 0 M H Z e K G K S G b y G b H y ` &.X.h.` K H -.K B.L.Z.H.e.q.K b C G F.",
"C d.F.C Z.F 4.] C Z P y.D.F.H.H.$ b 6.5.F Z H F.Z.H.H.f e y Z K G =.` K W H E &.W ! Z ` ` _ W S e 0 1 y W ) G G ) W _ S H W M k F.F.F.F.F.B.F.A 4.B.A C @.-.G q k 5.5.5.Z m G Z.H.F.A.m 0 # > 5 G -.Q K q _ H Z K K C _ ` _ W G r 7 1 G K ' L.Z.H.F.H.z.5.Z m z ",
"b 5.F.' G ] F.3.> f m G 9.F.H.F.D F.H.F.Z.y Q ' V.F.H.F.0.3.f 0 u N W b ! Q @.-.m Q H W W Z 7 l n.F.D.2 G W Z G ` &.G ` W C P H.H.F.F.H.F.Z.F.K 4.B.Z G ` W m l F.Z.F.H.F.t _ ] C.B.H.n.u 2 $ Z _ W -.K K Q H ..@.Q Z Q W W y 2.F.Z.z.y G 4.H.B.H.C.H.B.V.K > t ",
"K 9.F.H.F.Z.Z.w.t ^ 4._ Z F.H.F.n.8.k.C.F.n.W y Z P l.F.B.H.H.F.n.5.l 3 e n A N e q M e w 4.H.F.F.H.H.8.K R H ' G Q R G G 5 H.F.F.F.F.H.H.B.F.G ) n.p.W Q G m ^ V.5.w.C.F.0.W y Z D k.Z.n.5 C @.=.E ! Z G Q  .-.Q S W W Z 5.L.B.F.F.F.w.P 5 H.B.H.Z.F.Z.C ] H.m.",
"G 0.F.F.B.V.q.' $.5.H.b W q.F.V.K ' ( e H.F.F.m.k.C _ S Z { b.F.H.H.F.F.B.5.4.8.0.4.9.C.F.F.F.F.H.F.F.5.K V G Q y Z H %.W m ] F.F.F.F.H.F.Z.F.9.s.v.-.&.Q W W K K ) 3.e F.B.L.z.q.Z ` t e G _ h.J.%.Q K H Q Q Q $.b y 9 e.Z.L.Z.H.F.F.w.W Z L.B.F.B.F.Z.C 9.C.m ",
"Z C w C S K Z ) $.Z.L.z.A Z Z ) _ C [ C H.Z.F.Z.F.F.D Z K K Q ! &.f.H.F.B.F.F.H.H.F.L.H.H.Z.F.Z.H.F.H.5.Z y W Q K Z W K Q W K w n.H.F.H.Z.B.F.H.] v.[ =.` [ Z ) _ Z 6.C F.F.H.S.L.B.' S r K $.$.p.Q K S b $.,.E ) D q u.B.F.H.F.H.F.F.5._ $.5.K G t 5 & G 9 0 ) ",
"m.z.y b m $.~ z 7 Z.H.F.F.4.5.y G H ` W C 6.L.F.H.D.H.F G E Z W ! *.E w.y.Z.H.H.H.Z.H.F.H.F.H.Z.H.F.n.w n m _ #.K C q.L 9 C C p t L H.F.Z.F.D.9.h.@.| *.Q K Z y D H @.@.K 6.H.F.L.Z.C.A Z K _ H _ Q b Z $.s.,.:.$.A d Z.F.B.H.Z.H.H.n.r Q K & , G ~ 4.d C l 4.w.",
"F.F.H.) b Z C.0.k Z.F.H.z Z.F.F.u.z C M G ` G.Z.H.B.L.H.y.Z y C G W R R N Q l.L.H.Z.H.k 5 y G G K b - t Z K K ;.Z 4.L.F.6.9 9 Z H m ' H.F.Z.F.K i...x.*.S Z n.F.n.l y t g ` D.Z.F.Z.H.C b ` H G G ) K m Z } #.Q A $ u.l 5 e G G K y , 5 K 6.H.Z.~ G C m C z.H.H.",
"F.n.G Z F e.F.K Z P G C r Z.F.H.F.F.n.' N H =.b.H.Z.H.F.B.z.q C Q @...| | ;.*.C A.B.Z.4.W K t l 5.5.4.~ G ) ..E Z 5.H.F.B.Z.d.r C G Z F F.H.q.G $.Q ,.K y 5.H.F.F.H.5.G ^ y $.l.F.Z.l.p.G @.M y G K Q Z J J K Z C 8 F.4.K K t l 7.9.4.P [ H d.z.F.q.7.5.y.H.H.H.",
"F.[ K Z V 5.H.V V K C K Z z.k.w.9.Z.F.~ F e R @.e k.H.Z.S.F.d.H G G Z ` ..R h.W g y.n.K [ r u.F.F.Z.F.8.S _ &.G G - ~ Z.Z.F.H.C.9 r S 0 f f.R !  .:.@.K g z.l.q.9.H.F.P [ < K [ =.j.v.M.W _ b b G @.} #.} B  .K t x n.W $.r u.Z.F.H.F.5.Z K K Q S l.F.F.Z.F.H.H.",
"q.C G V Z b K G C ] e.t H Z G Q K Z 9.H.D.^ 3 n Z W a.y.F.Z.] H =.R G ..R } ;.p.) ) K v.r e.H.Z.H.Z.F.H.Z G W w 3 # G 6.F.Z.F.F.u.L 0 Z C G $...@.*.H V + 0 G Q K Z 0.F.H.5.r g K ` h.*.W Z y G ` Q <.@.o.E Q _ Z D K v.r e.H.F.F.F.H.F.q.5.q.D q K K C H V.L.C.",
"Z 4.F.9.q./ K S S z.C.F Z G b Z m W C _ G G G C S y _ y w._ ) @...&.W Q ! Q &.` K S K $.$.K 6.q.8.Z.F.H.R A 5 Z - I S K k.F.H.F.F.F.j ) =.G H *.-.G b f - m 9 9 9 D A _ G K G C Z b ` Q e G Z Q %.S Q H W E #.-.K $.M.p.$.K i.q.5.5.F.F.F.F.H.F.F.k y P K q.H.z.",
"A z.F.r.u.Z.C.A K K L Z K ' C.F.V.P G K S t s.p.! G _ p ) j.h. .%.-._ ) S K _ K O.@.Z S ) C C K _ K [ C.G ..7 - 2 r.5.t C u k.m.F.V.5 C $.&.*.-.S b A.d.K 9 8.F.m.l 9 V K < $.-.! G R G C G Q E p.G W G e M ) @.H ` -.` ) C C K G Z A V.F.H.F.F.H.( z F.Z.Z q.Z ",
"P H.m.d.Z.B.F.n.0 m K K L F.H.S.H.F.9.C % _ @.-.@.m p A K ..Q +.#.H y 5 * w b K @.H K ) Z C V.z.q.G [ A R R Z C - ( F.Z.( ~ 0 - f 6.! *.@...@.R Z + , G t P F.F.H.B.q.9 4 Z ` -.` m C -.Z !  .X.@.) Z u 7 C W ` Q *._ ) Z C n.n.q.e Z e 3 y.Z.F.F.( H.F.H.) F.K ",
"q.F.d.F.Z.F.Z.5.5.5.q.z.Z.Z.H.Z.H.H.F.F.5 _ *.&.G ` W S ..x.;.Q i 6 1 + v U - G b K %.,.#.J Z e V.V.S Z ! ` _ ) Z D H.F.Z.Z.u.% G %._ +.} ` W C * % & A V.Z.H.F.F.F.F.F.5 Q #.&.G ! Z ) *.,.&.! ` Z G * 2 1 V V -.H Q ,.*.J A e V.l.w 5 y.B.F.F.F.F.F.Z.F.A.q.C ",
"q.F.5.F.F.Z.F.F.F.w.a.l.6.k.F.F.F.F.F.n.y Q ..@...! ..@.*.X.R 7 1 f I H.F.Z.F.L Z _ ` ` p.Q Q K K ' K N N H S N ` m n.F.F.F.H.Z [ _ ;.Q h.W f.e.% 8 _ G r l n.F.F.Z.Z.n.y Q @.@.` ! ! W <.:...G m p h ( ^ a + V S C W ` -.Q Q W K / K 8.B.Z.y.F.F.F.H.C.H.C.n.e ",
"V.S.5.F.F.H.F.F.d.H G y G $._ K H W ) Z m X...W Q ! ! R ! M n L e.F.F.F.F.F.F.4.0 Z e y @.p...` ` @._ H M Z H W ` _ S F 9.9.t G S *.h.@.v._ H.z.r 0 Q M _ ) R K G ) W Z m X.@.K _ ! Q Q ` W S C 6.n.F.F.B.F.y.s - Z C y $.p...` ..$.[ 6.B.~ 4.H.Z.F.H.Z.5.V G K ",
"F.H.4.V.y.H.H.F.k.Q F.Z.Z.q.l.) G G ) Q %.Q @.W ) R E W G t ~ H.F.H.H.F.F.H.H.4.; 5 5 m K @.` Q @.&.] H Z y Z ) A G C C Z Z Z K ! :.| K ) z 6.b G G Z *.Q K K Z K G ) _ *._ ..Q Q H E Q K S ~ V.F.Z.F.F.B.F.H.4.; -   t K @.` W @.@._ A Z *.( H.F.F.n.$.K G K S.",
"F.F.F.5.Z.H.L.F.k.@.` 5.l.6.C K { Z ! ! ..*.K ` H Q Q G r B.K.H.F.F.F.H.Z.H.L.5.V.C.n.0 _ @.G R $.Q -.` G m C ` S R Z S N e M W H -.K W + q K Z H H G _ Q _ Z H $.S Q ....W K _ H Q Q G u ~ F.H.F.Z.H.F.F.F.H.5.k.F.u.0 _ $.G Q j.Q p._ K ) l H.F.F.b G ] V.F.H.",
"F.F.F.H.F.H.L.H.a...Z b @.Q H ` <.*.! _ N ! X.` H Q @.-.U L.L.F.F.F.F.H.Z.H.L.F.L.F.H.y.G W e m ) S ` ! ` m H Q R R E B e w S R R @.t ] 9 V K S K K C G _ -.H ] <.*.Q _ Z H X.@.H Q &.=.t F.F.F.F.F.F.F.Z.Z.H.F.H.F.Z.z.G R 0 e Z 2 _ Q Q K r A.V.P Z @.5.F.F.F.",
"F.F.F.H.B.F.n.A _ Q R E ` ..H H v.c.E %.N H Q W C @.j.Q 5.H.H.H.F.F.F.H.Z.F.H.F.H.F.K.Z.x ) q.F.9.e Z ) %.S @.H C p Z y 0 3 n H Q Q R 8.V.z.F Z ) _ W e Z -.E S v.j.E $.Z b R Q R ` c.E 5.Z.F.F.H.Z.F.F.B.F.H.F.F.H.F.H.C K 5.F.k.% # G -.M H C V S K V G K ) V.",
"i.F.D.H.F.n.) G _ -...Q S ) m G Q R M H H ` <.>.K J #.b F.F.F.H.Z.F.Z.H.F.B.H.F.F.H.L.Z.7.K q.F.H.C.q.G Z Q *.G ] F.H.F.C.~ m S _ ..<.{ Z.n.) H _ *...Q N _ m W .._ H G b H ;.<.! Q -.n F.F.Z.H.F.Z.Z.F.Z.Z.Z.H.F.H.F.H.q.K q.F.H.F.4.* S Q @.K ' F.F.H.z.P G _ ",
"Q Z K w.S S W R M %._ ;.Q H Q %.Q ) ) M K @.-...K Q H ^ F.H.F.F.F.Z.F.H.C.Z.F.F.H.H.F.F.3.b K V.F.Z.F.] K ! ! m F.F.F.F.F.H.) m Q G &.R , 0 W R M $.K ;...H Q $.) K _ e e H ! O.Z ! G ] F.B.F.H.F.F.F.H.F.Z.F.F.F.F.F.H.5.g K A.F.F.F.d K Q ..m F.H.F.F.F.B.q.Z ",
"_ ! W Z R W Q W K =.Q _ M - S C Z G _ H Z Z _ H C Q K ' H.H.F.F.F.F.F.F.Z.F.F.F.H.F.F.H.4.b y C z.Z.Z.q.K W Q S n.F.H.B.H.H.F.t ! ! R G m , H K H Q e _ M - Z C Z G _ S m 6 e e 5 ! K 9.F.F.H.F.F.F.H.F.Z.Z.Z.F.F.Z.Z.F.5.V y V k.H.F.0.H Q Q S z.F.F.F.F.F.H.5.",
"K Z G W Z Z G m C m 5 - P 3.5.V S ) K K } B S Z e W W Z F.H.H.F.H.Z.F.F.B.F.F.F.H.l.b L ] : b Z b S W S @.-.Q _ F F.H.Z.F.F.H.w.W Z ! ..C - 5 e 0 - - - L ^ 4.p S ) K J Y 1 2 5 2 R Q m F.F.F.H.F.F.H.H.Z.F.Z.Z.F.F.L.n.K q V Z y G _ G @.-.Q _ G F.H.H.F.F.F.9.",
"K Q M Z w w m 0 y - ( F.F.F.H.z.S H :.%.X.J ; , - m M H ] F.F.H.F.F.F.F.Z.F.H.Z.F.P : Z m ; q b S Q .._ S G m W S S n.Z.F.F.V.- R Q Z ! w - & & - f 8.F.F.F.F.n.Z R *.=.! 1 @ - - m M K [ S.D.F.F.H.H.H.F.F.F.Z.z.P K $.C ; q b G Q ..Q S G M K Z Z B.Z.F.Z.V.) ",
"H *.A C T w e 5 l z.F.F.B.6.i.P Z _ @._ Q Z 9.H.z.3 M K H [ F.H.F.Z.H.F.y.F.H.F.i.i.b : S 6.A.V $.Q @.S b G e ! R ! m F 5.z m 5 S %.C m W 5 % f z.D.H.F.H.H.F.n.Z _ @.Q Z $ ^ F.^ 2 m H K ] F.F.H.F.H.H.y.B.F.F.6.p.V q G d.n.C @...@.Z y G e _ R ` m 6.z.z.C _ ",
"H ) y A @.S e k H.F.Z.F.F.k.F.e ) p.@.@.Z 3.F.H.H.z.G C B S G w.F.F.Z.F.( B.H.F.K G V 5.Z _ z.P $.Q K & 6.L - G w E Q H S S C q 7 _ t Z [ S u F.F.F.H.F.F.F.F.F _ p.&.` b 5.F.F.H.n.H Z S Z H 9.H.F.H.H.5.z.D.F.K G D F.Z K m.P $.@.K & q.L - G e R Q H M H Q ` ",
"u 7 y H ! Q 0 d.C.' m C K K C C G Q @.$.P F.F.H.H.F.l.e C u C K V z.F.F.5.p.k.d.S C ' H.b K d.3.S $.V y.Z.F.e.f 5 Z [ R Q E M & % p u H ! Q w f.Z.F.H.H.F.F.V.C S Q ` G L F.F.F.F.F.V.y C u C K V V.L.L.r.p.d.d.K b 6.F.P K d.5.Z %.C u.F.Z.t.j 5 Z ` W R E E @.",
"5.e C Q R -.C W b R W Z H.' ' G @.%.K K n.B.Z.H.H.F.F.V.b m S Q @.S L F.k.h.s.%.Z : 4.H.V V z.d.K :.b F.F.B.Z.C.- Z _ m G m b > 4.z C R R -.C W n.F.F.Z.Z.F.] G %.=.G e B.F.F.F.Z.H.F.z.b m S ! %.K 3.K.k.j.s.$.Z : 5.S.k.Z z.k.W *.Z F.F.F.F.n.- C ) m G m b S ",
"F.n.m W Q -.W H y m K b w.5.K -.H G g 9.B.F.F.k.q.d.q.Z.m.7 G Z Q -.M b K G q : ; ; 5.6.G L F.q.Z  .Z F.Z.Z.F.~ y H Q G e 2 5.H.H.F.m W R ;.W H ~ F.F.C.F.q.K p.R G p 8.Z.H.D.w.q.f.q.V.z.5 W ! Q -.H b K K q 0 : ; 4.y.G P Z.q.M ! Z F.Z.F.Z.~ y H Q S e 3 F H.",
"Z.H.k.G H @.1.Q s.i.V.P K m Z H _ ) *.4.F.F.5.b.F.V.9.y k.d > q Z _ H H b : 4.S.F.D P b G e.F.k._ K S F.Z.F.F Z G N G C w u.H.F.H.H.q.K W ..>.Q s.9.F.F.m.m Z S W ) u 5.F.F.9.k.F.V.5.p d.3 m m Z _ K H V : ' F.F.V 5.y G Z.F.k._ W G F.F.H.P Z G S S N w B.F.F.",
"F.H.H.m Z *.<.&.j._ C.F.G K *.H G p M e u.F.k.y G Q H _ y V - . b K Q S : z.Z.F.F.F.Z.L V F.H.F.K K V H.F.Z A R W K W Y n.F.F.H.F.F.F.C S *.<.@.j._ C.[ K K :.H G p M e z.F.z.y K _ H Q b Z y q V K K H : 5.F.F.L.H.V.C d.S.F.F.K K m F.F.F Z W W Y R S m.F.F.F.",
"H.F.H.C.m Z *. .%.Q ' [ ) K _ G k C.H.H.F.H.9.G G K r.5.5.6.5.v l K _ Q b F.F.Z.F.Z.K.K l.F.F.F.) m y w.Z G S ! @.M u 8.F.Z.Z.F.F.F.F.n.p Z -. .%.W [ T ) K ) G D B.H.F.H.F.q.Z Z K q.9.8.7.q.f.Z K @.Q V F.F.F.H.H.L.K m.Z.F.Z.' n b 5.Z K S _ @.A p 8.H.F.F.Z.",
"H.H.H.H.n.W K :.....Q W G G K ~ 9.Z.F.H.Z.F.H.) m S.F.F.Z.Z.F.F.q.S Q M Z B.F.F.F.Z.q.P k.H.F.F.k.K y e ~ 9.G G R e z Z.Z.Z.F.F.F.F.F.F.m.W K :.@...! W G G K ~ d.C.F.F.F.F.F.) C F.F.H.F.Z.Z.F.q.Z _ M S F.H.F.H.F.C.K k.F.F.Z.k.K b w P 8.G G R e z H.H.Z.F.F.",
"H.Z.F.H.B.F K ` $.@.=.Z p F 6.k.5.Z n.F.Z.Z.F.5.P F.H.H.F.B.F.F.3.C p.Z V Z.F.F.F.F.k.K d.F.F.H.F.K W C F.Z.Z p.@.0 5.H.F.Z.F.F.F.F.H.Z.H.D K ` @.@.=.Z p Z 5.k.5.Z z.F.F.F.H.6./ C.F.H.H.Z.F.F.5.V %.Z C F.H.F.F.F.d.K d.Z.F.F.F.K W C F.F.Z ,.@.7 ( H.F.Z.F.F."
};
