/* XPM */
static char *ICKWALL3[] = {
/* columns rows colors chars-per-pixel */
"64 128 35 1 ",
"  c #777777",
". c #676B4F",
"X c #6F6F6F",
"o c #6F7357",
"O c gray39",
"+ c #5B6347",
"@ c #53573B",
"# c #5B5B5B",
"$ c gray50",
"% c gray31",
"& c #474F33",
"* c #7B7F63",
"= c gray34",
"- c gray42",
"; c #838383",
": c #4B4B4B",
"> c #2F6323",
", c #3F472B",
"< c gray28",
"1 c gray23",
"2 c #8B8B8B",
"3 c #373F27",
"4 c #434343",
"5 c #373737",
"6 c #37732B",
"7 c #27531B",
"8 c #1B1B1B",
"9 c #939393",
"0 c black",
"q c #3F832F",
"w c #836B57",
"e c #2F2F2F",
"r c #A7A7A7",
"t c #9F876F",
"y c #439337",
/* pixels */
"%%%%#%%%#%::%%:%%%%%:%%%%:%%%%%%%%%%%%%#%::%%:%%%%%:%%%%:%%%%%%%",
"*2********$**.+q+..***;**$y*..*****.++++**.q.*************+++*2*",
". ..o.*oo.++.+&>@++o.o...+>.&@.o*...@&,+..@6@..*o.o.*...+o@3@. .",
"o o.o.oo*..+++&>@++..o....>.&@.o*o..@&,+..@>@..*o...*....o@,@. .",
"o ..o.*o*...++&>@++.+oo.+o>.&@.oo...@&,+..@7@+.o....*o.+oo@,@. o",
"* *.o.ooo...+.&>@++.+o.o+o>+@@..oo..@&,+..@,@+.*....*.o+oo@,@.Xo",
"o ooo.oooo.++.&>@++.+..o+o>+@@+.*oo.@&,+o.@,@+.*oo..o.o+oo@,@+ o",
"o o.o.o**..@+.&>@+o.+...+o>.@@+.*o..@&,+..+.++.o.o..o..+.o@,@+ o",
"o o.ooo**..+++&>@+.++...+o>o@@..oo..@&,+..@3@..o..+....+..@&@. .",
".$.oo.o*o....+&>@+++.....o>o@@..*oo.@&,+..383..*.++.o.....@&@. .",
"o o*o.o*.++++.@>@+.oo.oo.o>.@@.o*o*.@&,+o.,3,..*.oo.o.....@&@+ .",
"* .*o*o.o+++..@>@+.o*.oo.*>.@@.+oo*.@&,+o.&@&..o.oo.o.....+@++ o",
"oX.ooo*.o+o..o@>++..o...o*>.@@.+ooo.+&,+o.@&@.o*.ooo*o..+o+@+. o",
"*X.oo**.o+...o&>@+..o...o*>.&+o.*oo..&&+o.@,@..o.ooo*o.o+o+@+o$.",
"o .*.o*.oo...o&>@+.oo..oo*>o&+o.ooo.+&&+o.@,@..o.X.o*o..+*.@.o$o",
".Xo.oo*.oo....&>@++Xoo.*o*6o&+ooo...+@&+o.@,@..o.X.o*oo..*.@.o$o",
"oX..oo*.ooo.o+&>@++Xoo.o.*6o@+o.*...+@&+ .@,@.oooX.o*o*o.o.+.o$o",
"oX..oo*.ooo.o++.+++.ooX*.*6o@+..*o*.+&&+ o@,@...* oo*o..+oo+.o$o",
"o ooo**+..oooo@3@+..ooO.+*6o&+..o.*.+&&+ o@,@.o.o;oo*...+oo+.o$o",
". *o.**+..oooo383+.oooOo.*..@+.o..o.+@&. o+,@.oo* .*..o.O.o+oo$o",
". o..o*...ooo*303+.ooo+o+;..&+.oo+o.+@&. o+,@.o.o$oo*.o.X.o+oo$o",
"o *..o**+oooo*&6&..ooo..+;o.@+..ooo.+@&. o+,@.o*oX.**oo.Ooo.*o$o",
"o ...o*o+oooo*,>@..ooo..+;..@+.ooo.++@@o o+,@..*oX..*o*oO.o.oo .",
"o oo.o*o.oooo*:@++.ooo..+;..@+.ooo.++@@o o+,@..*o ..*o**X.o.oo .",
". o.o.*o.oooo*:@+@..**.o. +.&..o*.o.+@+o o.,@+.*o$.o* o. +oooo o",
".X.oo.*o.....*:@++oo**.++$o.@... ..+.&+oXo.,@+.*o .o* ;. *o*.o$o",
".X.oo.*o. +..*:@++o*oo.+.$..@+..;o.+.@+oXo.,@..*. oo* $. ooo.o$o",
". ....oo.X..oo:@+@o*.....$..@+o.;.+@.@+-Xo.&@.o*. oo*  . oo.+.$*",
"oX..oooo+Xo.o.:@++o*ooo..;..+Oo.$..+o&+-Xo.,@.**o o.*X .Xoo*..$+",
"oX.+ooo*+Xo+.o:+++o* oo..;..#Ooo ..+o&+-Xo.&@.o*o  o*X + .o*o.$.",
"o .oo.oo+Xo.o*:++@ooX.oo.;oo#Ooo .o+.&+-X..&@.o*o  o* X+Ooo*o.$.",
"o ....oo.X +.*:@+.oo ooo.;oo#Ooo ..@.&+-X..&@.o*.XXo*XX+Xoo*o.$.",
"o .o..oo..X..$:@+.oo  oo.;oo#Ooo$.X@.@+-Oo.&@.o*.XX** X.O.oooo$.",
"o ..o.o..O Xo$:@+ooXXXoo.;.oO-.XXoX..&+-X-.&@.oo.XXo* X.X.ooo*$o",
". ..o*o.oO Xo$#@+.oXXXoo.;.oO-o X.X+*&+-X-.&@..*oXXo* X+O.oooo$o",
". ...*oo.O;Xo$#@+.o XXoo.;ooOXo X.X+*@+-X-.@@..*oX *o X.Ooo..o$o",
"o ...*o..X;Xo$#@+.oX  oo+$ooO o  . +*@+- -.@@..*oX *oXX.O.o..o$o",
"o ..o*oX.X Xo$#@+.oXXXoo+$ooO$.XX.X.*++- X.@@.o*o  *.XXoO.oo.o;o",
"oX...ooXoX X.$O+.o*XXXo.O;..O$o X.X+o++-  .@@. *o$Xo.XX.O.o... o",
"oX....oX+OXX.$#@.ooXXXo. ;..O$X Xo +.++OXX.%@.X*o Xo.OX.O.o..o o",
"o X... X+=XXX$#@.o*XXX o ;..O$X  . +.++OOX.=@.X*o$Xo.O .Ooo+.o .",
"o X...  .OX  $#+.o*   $o ;..O$X $. +.+.XXXo#@. *o$ o.  .Oo.+.* .",
"o X.X.  .XX =$O#.o*    o ;+.O$X ;.$+.+.X Xo#@+ *o$ o.$ oOo.*.*;o",
". XXXX  .XOXO$OOO.o   $o ;+.O$ ;9; +.+.X O+#@o$*.$ o.  oO.o.o* *",
".  X X  oXOXX$O#O..   $o ;O+O$ 2t2 ..+o  O+#@o *X  *.$ oO.+.o*;o",
"o  X X$ oXOXX OOO..   $o ;X+O$ w1w ..+o  OO#@.$*X  *.X oO.+.o* *",
".X   X  oOXXXX-#O.. XX o ;XOO$ ;=; X.+o XXO#@XX*X  *.  oOo.oo* .",
".X  ;   .XX XX-#O..XXXXo ;XXO$X2r2 Xo.oX XXO@X *XXX*o$ oOo.o.* .",
"oX  $$$ oOX XX-#OooX   o$;XXO$  2  X*.*  XXO@X * XX*o; oOoo..* o",
"o    $$ oOX XO-#OooO$$ o$;XX-$      $o* ;XXO@XX*  X**$ oOoo..* *",
"o   ; $ *OX  O-#Oo.O   o ;XX-$   O X o*;;XXO+XX* XXoo;X.Oo+..; o",
"o   $ $ *OO $O-#O XO$  oX$X -$X  X X o*; XXO+XX. X oo$X.Oo.o.$Xo",
" $    $  ==X$X-#OXXO$ Xo ; $-$X  X   o* XOOO+$  X 9 o$Xo#o..o$Xo",
" $  ; $  =OX$O-#OX O  X.   $-$   X X o* XXO#O$  XX# o$Xo#o+.o;Xo",
" $XX  $  OOX O-#OX O ; oXX  -$   XXX o* XXO#O$  XX=X*$ oOo+.o$X.",
" $XX  $  =XX OXOO  O  $o   X-$ $ XXX o* O$O#O XX XOXo$  O*+.o$Xo",
"X$X $ $  =$X OXO-XXO$; o   X-$     X o* O O#O  XX X *$  O .o. X ",
"X$X ; $  OXX OX--X O  $oXX X-$   $ X .* X O#O  XX$;$    O .o. XX",
" $    $$XOX $OX--X OX X XX X-$$ $  X .o   OO-  XXX X$ XXO Xo.; X",
" $  XX$  OX$$OX-XXXOX OXXX XX$$ ;  X *oXXXX-X;X;XX;  $XX#XO..; X",
" $   X$  OX $O - XXO  OX   XX$    $X;*oXXXX-X$ X X X $XX#XXoX;  ",
" $   X$X OX$$O X XXO  OXXX XX$  ;X;O; o XXX-X$XX  ;X $ XOX  X; $",
" $    $  XXX O$  XXO XXXXX OX$  ;X$X;  $X XO-$XX X X   XOX   ;  ",
"%#%%%%#%%%%%%:#%#%%%%%%#%%%%%#%%%%#%%%%%%%%%%#%%%#%:%%%%:%%%##%%",
"e=:::<:<:<<<:::::<::<<:::<<:===:====:====#====:=====:=======:===",
"12;;*.Xo*-o ;* ooooo$.#o o;o+o**=992222****2*6qoo22*222o.X22222O",
"5XOO@&:&+&@#O@@&6@&&:&&6@&O&+.+@=XX XX=..o. .>6+.$X.  X.@OX OXXO",
"1X##+&:@@&@#O+@&>@@&:&&>@@#@@3@@=XX XOO....$.7>+. X. OX.@OX O  #",
"5X##@&:@+&@#O.@&>@@&:&&>@@O&383@=    OX..+.$.77++ X. OX.@OX OO O",
"5XO#+&:&+@@#O+@&7@@&:&&>@&#@303@=  $ OX..+.$.@7+. X. O .@OX OO #",
"5X##+&:@+@&@#++&7@&&%&&>@&#&&6&+=    XX..+. .@&+. X.XOX.@OX OX #",
"5X##+&:@+@&@#++&7@&@:&&>@@#&,>,.= ; XXX..+.X.@&+.  . XX.@#  OXX#",
"1O%#@&:@.&@@#+++.+@@%&&>@@#&,7&@= $$ XX.... o@&+. $. XX.@#  O X#",
"5-O#@&:&+&&@#@+@3@@@:&&@@@#&&&.@=  $ XX...o o@&+. $o;X .@#$ O X#",
"1-##@@:&.@&@#++383@&:&<@&@O@&&+@= ;$;X ..+. .+.+.  o;X .@# XOOX#",
"1-##@@%&.&&%#++303&&:&:@&@O@&&+@= $$;O$..+o .@3@.  . X .+# XOXX=",
"1X##@@%&+&&@O@+&6&&3:&:@@@O&&&+@=  $ =$..+oX.383.  .XO$.+# X#X =",
"1X##@@%@+&&@O@+,>,@&:&:@%@O@&&+&= ;$ O$....X.303.  .XO .+# X#O =",
"1XOO@@%@+&@@#@+,7&&&:&:@%@O@&&@&=X $ O .... .&q&.X  XO .+#; OO =",
"1XOO@@%++&&%#@+&%&&&%&:@%&#@&&@&=X $ X *...$.@6@.X  OO .+O  OO =",
"1XOO@@%++&&@#++&<&&&%&:@%&#+&&@@=X$$ $ *.+o .@>+.   OO .+O; OXX=",
"1X#O+@:@@@&@#@@&%@&&=&:@%&#@&&@@=X;$ X *...$.@>+    XOX.+O  OXX=",
"1X#O+@%+@%&@-@@&%@&#=&<@%&#@&&@&=  $XX$....X.@@+$    OX.+O$XOXX#",
"1XOO+@%+@%&=-@+&%@&%=&<@%&O+&&@@= X$ X$..+.O.@@+;   XX .+- X#OX#",
"5-OO+@%++%@#-@@&%@&%=&<@%&O+&&@@=  $ X$..+.O.@@+ $; XXX.+O X#XX#",
"5-OO+@:@@%&#-@@&%@&%=&:@%@O+:&@+=  $ X$..+.O.@@+;;; XX .+-  O X#",
"5X##@@%+@%&@O+@&O@&%=&:@%@#@:&@@=  $ X o.+.X.@@+;$; XX .+O  O  #",
"4X##@@:+@%@@#@@&#@&%=&<@%@#@:&@@= X$XX o*..X.@@+ $  XX .+OX O $=",
"4X##&@:++%@@#@@&%@&%=%<@%@#@:&+@= X$XX oo..X.@@+ $ X XX..OX O  =",
"4X##&@:++%@@#@+&#@@-%%:@%@O@:&+@=  $XX o*.oX.@@+   $ XX..OX OX =",
"4X%#@@:+.%@@#@@&O@@4%::@%=O@:&++=X  XX o*.*X.@@.  $;$X ..OX XX =",
"4X%#@@%+.%@@#@@&O&&%%=:@%=O@:&++=X  XO$oo.*X.@@.  ;2;O +.OX O  =",
"4X%%@@%++%@##@@@O&&#%===%%O+:&++=XX  X$o*+oX.@@+$ ;9;O;..#  OXX=",
"4X#%@@%++O@##+@@O&&#=%#=%%O+:&++=  X  $oo..X.@@.  2t2O$..#   X #",
"4X#%+@%++O@##@@@##&#%%%=%%O+:=O+= XX  ;oo+.X.@@.X w1wO;.o=  OO =",
"4X##+@:++O@#O@+&O#&#%%==%%#+%=O+= $X$X;o$o.X.@+.X ;=;O;+.O; OX #",
"<X##+@%++O@#-++@O#&#%%==%%#+%#O+=X$ $O$. ++X.@+. X2r2#$+.OXX#X #",
"<X##+@%++O+O-++@X#&#=%%O%%#+%#O+=X  $O$. +.X.@+. X.2.O;+.OXX#X #",
"4X##+@%++%+#O++@X#&O=%%O%%#@%##@=X $ O$.$+.X.@+. XO*OO;+.O XOX #",
"1-#O+@:++#+#O++@O#&O=%%O%##@=##@=   $X .$+.X.@+. X-*-O$+.# XXX #",
"4XO-+@:++#+OO++%#%&O##=O%%#@=##+=X ;;X + X+ +@+. XX*XO$+.X X XX#",
"4OO-@@%++#+#O@+%##&O=#=O%%#&=##+#$   X + X+X+@+. XX*XO +XX   OX=",
"1#OO@@%++#@#O++%##@#=#=O%X#&#OO+=    X +  +X+@++  X  O$+ XX  OX#",
"4OO#+@%.+#@#O+#%%-@#==%O%#O&=OO+=   $X +X +X+@++ XX$X=$+XXXXXXX#",
"4OO#+@%+OO+#O@#%%O@#===###O@#OO+=   $X . XOX+@+. X $XO$+OOXXX  #",
"1#O#+@%+O-+#O@#%#O@#%==###O&=OO+=X   X;. OXX.@+.$ X$XX$+OOXXX X#",
"1#O#+@%+-O+#O@#%OO+#%==###O&#O#@=   XOX.;X  ..+.$$XX   + OXXX  #",
"1#O#O@%+XO+#O.#%##+O=#%X##X@=O#@#X   O . X$ .*+. $XX X +$OXXX X#",
"4OO##@%+OO+#X.####+O%#=#O#O&=O#@=X $   . X X.++X   X X + O$XO X#",
"1#O##@%+X#.%X+OO##+O=#%#OOX&=OO@#X $ X .;X X.+. $ $  X +$O$XO XO",
"1#O%#@%+X#+#X+O-#O+O=#%#O#O&=OO@=XX$ X X X=X.o.       $+XO$XO XO",
"1#O#O@:@OO-#O+#O#O+O=#%OO-O&%OO+=  $ X X O X.o.  X    $+XO$ X XO",
"1#O##@:@OO-#O@#OOO+O%#%O#-O&%OO+=X $   X$O X...  X    X+ O$$X XO",
"4O-%#@%@OOO#O@OOOO+O%=%##-O@%OO+=X $    $O X...X $ X  X+;O$XO XO",
"4OO%#@:@OOO#-OOO-O+O==%##-O@%OO+=  $X  X$X O+..X $ X XX+ O$XO XO",
"4O-%#@:@OXO#X#O#OO&#==:##-O@%-O+=$X$X ;X X O...XX  X  X+;OX O  O",
"4O-#O+<@-OO#X#OOOO&###%O#-#@=-O+= X$X $ $X O+..X   X  XO O$ X  O",
"4O-%##:+O-O#-%OOO#&O##%#O-#@=-O+=$X$O   $X X+..X   X  XO O$ O $O",
"1#O%##:@#OO#-#OOO#&O##%#--%<=XO.=XX$O ; ;X X+..X XX  X O -$;O  #",
"1##%##%+#OO#X##-O#&O##:OOOO<#XOO= X$X $ ;X X+..X XX  XX- -$$X  #",
"4%O%##%+O###OOO-O%,##=:#O-O<%X#O=  $X   $X$X.+.X; X$   - -$    #",
"1%O%##=+O###OOO-O%&###:#O-O%%X##=X $XXX   $XO..X XX X X- -$;  XO",
"1%O%##%+O####-OO#%&###%OO-O#=X##=X $XOX    XX..X;XX X X-X-$$  XO",
"1=O%#-%+OO###OO-##&%##%OO-##=X##=XX XX X$ XXX.. ;OX XXX-X-$   OO",
"5=O%#-%+O####XOX##%%#=%##-#%=X#%=X  O  X$   X.. $X  XXX-  $ X XO",
"5=O%O-%#O-###OOO##%%==%##-#%=OO%=X  O XX$   X..  X $X O-  $    O",
"5=O%O-%#OOO##OOOO#%%#O%#OX#%%OO%=X  O  X$ X X X   X XXO-  $X   O",
"e<:<==<<::<<<:==<<5<=:<<<=<<<:<<:==#=#=#O###=#=##==#======O=O##O"
};
