/* XPM */
static char *MARBLE3[] = {
/* columns rows colors chars-per-pixel */
"128 128 60 1 ",
"  c #53573B",
". c #1B1B1B",
"X c #67533F",
"o c #836B57",
"O c #533F2F",
"+ c #3F2F17",
"@ c gray39",
"# c #473323",
"$ c #574333",
"% c #9F876F",
"& c gray23",
"* c #A78F77",
"= c #7B634F",
"- c #4B371B",
"; c #4B4B4B",
": c #4F3B2B",
"> c #9B7F6B",
", c #0B0B0B",
"< c #17330F",
"1 c #B79F87",
"2 c #4F3B23",
"3 c #6F5743",
"4 c #8B8B8B",
"5 c #5B5B5B",
"6 c #372313",
"7 c #070707",
"8 c #836B4B",
"9 c #4F3B27",
"0 c #3F2B1B",
"q c #533F1F",
"w c #6F6F6F",
"e c #5B6347",
"r c #373F27",
"t c #474F33",
"y c #3F472B",
"u c #2F371F",
"i c #232B0F",
"p c #332B13",
"a c #171F07",
"s c #676B4F",
"d c #6F7357",
"f c #0F1700",
"g c #7B7F63",
"h c #43331B",
"j c #1F170B",
"k c gray31",
"l c #2F2F2F",
"z c black",
"x c #272727",
"c c #131313",
"v c #170F07",
"b c #775F4B",
"n c #434343",
"m c #2B230F",
"M c #373737",
"N c gray28",
"B c gray34",
"V c #13230B",
"C c #232323",
"Z c #5F4B37",
/* pixels */
"dddsspaaaaapahhjpde tpaaaaapagbbeeyyepaaaaapaedBee e paaaaapaj  pjcjvpaaaaaparytygelnpaaaaapapteenpCypaaaaapa  tyrrmmpaaaaapa ee",
"ddduprt   trpahxxeduprt   trpagdbd uprt   trpaseeetuprt   trpankxccuprt   trparee puprt   trpape ppuprt   trpae tyruprt   trpa  ",
"seiuy eesee yuahjyiuy eesee yuadddiuy eesee yua dtiuy eesee yuallpiuy eesee yuayrpiuy eesee yuaNtyiuy eesee yuatyriuy eesee yua ",
"euuyy eesee yyuihuuyy eesee yyuieuuyy eesee yyui uuyy eesee yyuipuuyy eesee yyuipuuyy eesee yyui uuyy eesee yyuiyuuyy eesee yyui",
"eiuyyt eee tyyuiyiuyyt eee tyyuitiuyyt eee tyyuiMiuyyt eee tyyuiliuyyt eee tyyuieiuyyt eee tyyuijiuyyt eee tyyuiyiuyyt eee tyyui",
" uuryyt   tyyruu uuryyt   tyyruutuuryyt   tyyruueuuryyt   tyyruuyuuryyt   tyyruukuuryyt   tyyruuMuuryyt   tyyruueuuryyt   tyyruu",
" rurryyytyyyrrur rurryyytyyyrrur rurryyytyyyrrur rurryyytyyyrrurerurryyytyyyrrurkrurryyytyyyrrur rurryyytyyyrrur rurryyytyyyrrur",
"triyruuuuuuuryiryriyruuuuuuuryirdriyruuuuuuuryir riyruuuuuuuryireriyruuuuuuuryireriyruuuuuuuryir riyruuuuuuuryirpriyruuuuuuuryir",
" uiyrriuuuirryiuyuiyrriuuuirryiuguiyrriuuuirryiuruiyrriuuuirryiuyuiyrriuuuirryiu uiyrriuuuirryiuyuiyrriuuuirryiucuiyrriuuuirryiu",
" ia truiiiurt aieia truiiiurt aieia truiiiurt aiyia truiiiurt ai ia truiiiurt aipia truiiiurt aihia truiiiurt aiVia truiiiurt ai",
" iuee trirt eeuieiuee trirt eeuieiuee trirt eeuieiuee trirt eeui iuee trirt eeuiviuee trirt eeuipiuee trirt eeuijiuee trirt eeui",
" ituafytytyfauti ituafytytyfautidituafytytyfautitituafytytyfautieituafytytyfautipituafytytyfautihituafytytyfautilituafytytyfauti",
" iyfzzau uazzfyitiyfzzau uazzfyieiyfzzau uazzfyiriyfzzau uazzfyikiyfzzau uazzfyiyiyfzzau uazzfyixiyfzzau uazzfyiNiyfzzau uazzfyi",
"Mrtfzzfyiyfzzftrtrtfzzfyiyfzzftr rtfzzfyiyfzzftrurtfzzfyiyfzzftr rtfzzfyiyfzzftryrtfzzfyiyfzzftryrtfzzfyiyfzzftr rtfzzfyiyfzzftr",
"eteuaariziraauetyteuaariziraaueteteuaariziraauetiteuaariziraauet teuaariziraauetpteuaariziraauet teuaariziraauet teuaariziraauet",
"etee tiaafit eetttee tiaafit eetetee tiaafit eetrtee tiaafit eetZtee tiaafit eetytee tiaafit eet tee tiaafit eet tee tiaafit eet",
"sryuafufrfufauyreryuafufrfufauyrdryuafufrfufauyryryuafufrfufauyrvryuafufrfufauyreryuafufrfufauyr ryuafufrfufauyryryuafufrfufauyr",
"sgrfzfirtrifzfrgsgrfzfirtrifzfrgsgrfzfirtrifzfrstsrfzfirtrifzfrsysrfzfirtrifzfrsesrfzfirtrifzfrs srfzfirtrifzfrstsrfzfirtrifzfrg",
"ssgdfaauiuaafdgdssgdfaauiuaafdgesegdfaauiuaafd teegdfaauiuaafdg e gdfaauiuaafdgeeegdfaauiuaafdgsBygdfaauiuaafdgtttgdfaauiuaafdge",
"sddsffaiaiaffesdsdesffaiaiaffe esdesffaiaiaffemy eesffaiaiaffe     sffaiaiaffe  e y ffaiaiaffe e   sffaiaiaffe  tttsffaiaiaffe  ",
"sddsyaiyyyiau sdsds yaiyyyiau eeddbsyaiyyyiau rr eesyaiyyyiau  ytttsyaiyyyiau y kyltuaiyyyiau  ee esyaiyyyiau  y  tsyaiyyyiau   ",
" sde edddgde ydsssst  dddgde y ddddssd*dd    yryt essdg***de ye  ssssddddgde yv enresddddgde y   eess*111*de ye  y ssddddgde yt ",
"r eyr sedb  Zbsssstp#9Xsssee tteeeedeede uiiyt ttte  dddgggddssssoddgbodge  eyp eB ee  Beee@@e   t dsg%%%gggogoetyyttttttyuppurr",
"u#rrrytytyrr:OO:r#+ppptyyyyyyyyytyyt&yyrriiiryyyrryyyyttttyttttyttttttttyyrx#tyyyryyyMrrypllyMMryr#yy&tttttttyyyrrrryyyyyrpppppp",
",cc..iii6.muiii..vvvvvm....uiuui..iii..affffaiii....i.iuuuiuiiii.iuuuuuu..a7vcu.aaa.iava.cca...a,aaa.a.i..ic...a.i.......avvff,,",
"tesss==ssssssssse   ZXeesesssssssssedsettt esssssssssssdddssssssssssdggsssee  sssssssss=ssssseeeeeeeeeeesssssseesesssssskeZZZZZZ",
"utssyges yjydet#ppj-yyplN ye eBpy eg yrjCcjCe dsek yn esdgssssse  sssddde     tt eosdee edeyyylyrylluuyse   yuury   tttyrpppypCl",
"r dsddeeppnyNtrppjj+-ypypce@ey y  deylCcCpjnly s y yt  e dsseedee  desddse sddetteedde e y yyppt pyyput   yrmuuyyyO  yyyyppy lpp",
" edgogd N eypjCjnCpljCjNpcejyllpy e jvVccydtrprt ttyrt  essseegeeyyeesddde sdeettry ge   ttprrryypyypyyttyrrryruryOO puyypyyppCj",
"p dee   Beey xCC@nypynpcyjyCCCyyye y Cccped ummut;y yy   essetdd ytessddee  ee tetry   ee ypyyyypyyn nuuurrtyO rryyyyjp yMyypCCj",
"Bjseeyy e eBklVyN yCNny ddBMxmm ee pylpprydtummut ye y   essy  ee  eeesse  tt  ee uyyyte ypplyyyynNN nruuuy  eyyuyr pVlylpyMplpp",
"x    Nk eeee yjye  yyyyeddB&urnede yrumrtt t umuyyyt yt e ess   e  se ee   tyt ddetyuiry tCpyyyy  yO Nyppr   ttrunnyppyyppyyNppy",
"j e    ddeeeepcCey  n edde ty e eeetrrryge ttyuuuuyetyt e  sss   O dee ee tyt teos tyuuy  Cppynyyyy  tyyuryt ttryNyN yyyyyyyyppy",
"l y ee eg yB jcCee   eddd t  ee eeetrutdee y  tytyytytt    esse ttedeeee e t ey dse trr  yCpyy  nNN  tytrtttyttytttyty e pppMpy ",
"pn e eeddnllpVjp   ddedde  e eeeee yyr e ye y e$yt yyte y  ess t eeeee eedstte  ee  try  lpy    B      tt   ttee e tttttryppjpyy",
"n et eed  yyy pl yedd t ee   eeeek ttt      y  e tyrrt  ytt ee    eee  eddettteee y ttye ypyyed    eeettt dettseese e  rytyCcjpy",
"     edee Nyeenne ddd t ed  eeeee  tttt    ttyee tyyyy  ty ee ee  dee  sdee   ee yOB  yt  yyyee  eeee tt   eyt sssseXeet  ypCjpy",
"   e  d edd ee eeddgdseese essede tttyt   e t eeet yrryetteeyeeeeeedde edeeetet eO e trte  nyeet     tt    tttt sdsseee    ljxll",
"  e ee elyd  p seddggdsgse eeeeeeetyyyyt  e   dse etyrrrttde  e tesddseed  tt e  y getrt     e eetyyyrryttt   tteddsss e  eypppy",
"ye   @deex nMt eedgddg tee dess s  e ttyt ee tXt ee ttuuurttt       sdeeeetuytt yytee rrtyt eeetyrryttttt  esstt sdsseee   yyypy",
"NNyyrdess Bly @  dddgde    eeeeeeeee  yty  B yy eed tyuupuuryyytyry t    tummrtttt se rurttttyyruuuydsseeeessde tedssese   yyypy",
"yyy  ddde  y e t dgddgde t e e eeed  e tryeyyy dsedettuuuuppppuuurt tttyyruurt de  ee riuuuuuuuuuuutdgsseeessds t ss  se  ye py ",
"lyn dgdeeeB  eettedddgdde ttytet  eXeed yyyyttesees ettupuuummmuut eettyumuuteese     ruiappuyttttyyegdsssbesds tdes sssty e yyt",
"y eeddeeedek  eey sggddde etytttt sdedgXyyrrt es s eetymmmyyuuuryeessesyryyyttedde t yiaaaiuy  eeett dddbddesds trt ese t    y  ",
" eeedseeeee  eddt egdgdse etttt  eddddX tyry eeseee ttyummrstrryytsese tttttttsgse tyyrfaiurt edds ty sdessssbetrurt eetttX  tt ",
"  eeedeeseeeeddd teddgde ettte   edesetytyyy deese yyttrmmpye tttt e     eeee ee  tyy yfauteeeeseeetmydddssssetyumuteetyrt t  y ",
" eeeeeeseeeeeegd t gggde tteeeee   e ytttyryedN  yytteetupmr eds tt  yr  ee ee e tyryytryt eeeee Xetyy eeeee tmrrumyerrmr yyypy ",
"jdX    e eyeeBdeet ddbdb tt ebbge e  t yt rrt es  e  de ruuuy e sedee tyttsddset yhry        t     tye etttttyuytrmuyylyrByp pye",
"pl   yte rteeeses t dedgtt ebdgdssse tt t rruresegeeyee tyyyytt ey e  tyytsgdggse ruy ge yytyt      teebb ttyyyytyuuyppt   terp ",
" ptjey eyjetd ededtttd  t eddddgdssgge ttrupurte  es eetttttttty   eee ty sddseee uytttyrry yt   tXX eedde  ebbeetuprrryypypruxy",
"pppy  ye yd   dde ett ty deoeddggdbgddgtrummuryyty e s t      ttt  e y  tyese  ess eeth+py    e  t teeeeeXee eddstypyyyypyyxxC.c",
"jjCC y     eMbdddeedtyrrtt eedddddddgdt rpmpryrryt   d  ee e  tyyt   y    e  ty sdss th+uyt     ty t eeeeeet edgstpplyyyynruxCCx",
"vjyvpyyp e yeyedddeetrurtk teedsdgd  dyyrupr yeet t ee eeeds ettyt       e t  y egdseth+uryXet   yyyee eeeettesoeyCpyyyy NyruCC.",
"ccjVxclrtt e yee tytyrurt t sededgdt eytyrrt Nett   ee  eddeet ttt   e    y yyyr ssss yh++    ee ppyeeeeeeee edselCppynyy yyru..",
"pccCccyc ype h   ryyytyrmy gdyddddgelyett y y  ttee deeesdee  e tttt   ryttrrrry ssdge ttt e  ee hhrtebeeebee edeyCpyy  ntyrrrx.",
"jcVccccvrrye Bee  tt e yy ydgysddbg pytryry y e$;e tsdds    e s yttt etyt y+Curr sddseeeeeseeeeeeyy  ebdeeeee  esypy    Byttyyru",
"ujjjccjcpe eyytet   sdgtyseteedgdddt<yruruy ee e    sssd ttt ee yyyy e yy t+pury ess   eeess t Xe    eebeeeXee  typyyed  ed  tyr",
"rr pjCpCnpeeepyt  yeesdtttt       trrruruyeee ee   edse ttt tttt ytt yy t +pxirt  eeetMt  eeet      eeebbde ebs tyyyyee  dd  yy ",
"ryetypy pcxy   k e  edetruy dtyrrruuuuurryte tee t eseeeeess ttrtt  e typppCpur$s t  tppyy eeeX XNO  Xeddde eeddtr nyeet eee yyy",
"yy  ppe yCpjyn ettyyyd rupuyyuyrrrryrrurtyttryd   ee d eeedds tury  e  yjpyjplqZs yytytyyy  eeey Ot eeeeeeXeeeddtyy  e eeX ee yy",
"ryteCpd tplCy   yypB  ympmmurryryttttttt  ttt es eee  ttdeeedetuuy  e  rpjCCpy$eg rrut  e t   thyOt  edeeeXeeeoeyyy eeedde  eety",
"y  yy ee yMl   tyy yetrmmmurtttteeeed   ee  t es eessstt ed  d ruute t pxjxypy 3eyppuy    e  yhpyy   eeeee eeedeyyyt sdeesd pxyy",
"     yeee yr e tyteyyruuurrt$ edsssse   se  t tyt eees rtde  s tyuye t pjj<tyy seypjuy  eeXe yylllyty eeeeeeeeeeyyytXddesssd pxy",
" e eeeee  y ee tuttyupmrrteeedssssdse  ese ee tmrt  eetyyde    dyyyt  tpja<yyyyseylxuy  eeee yyCpypxryee eeesdeyy  t sesdeeeeypy",
"y  eeeeeetyyt tteyrupmurteeessseesddeessse esstrmt    trr eet eeeytt ttpCphyyy$se pC-y  eddoen pppVjyp e ee ed t Xpuysssoeet ety",
"yt   eede ttt  etrupmp+rry e  eessseeesdssessde ttttyttytt   deeeett   rxure k s tpmrt  eddge yypCppCpyy ee edety  ymsdddbb  eey",
"ttee eeeeeeedeee yumurrrury   ddssss sddssedsdeesetttttrtt eddeXe tte trury   eerymmrt  edddd yyppplxCyyyt edd tr b esdsdddkn Ny",
"eeteeeeebeeeedee tuuytyrrurt d eeX   sdsesddsdN  eeee   tteeseeee  tytymmte   e ytmur  eeedbe yyppplxCyyyt edd tute esdsdgg y ky",
"ddesygessseeseee tyt  trryytt eeddsssdddseyCyt pedddedZXy dedd de tyurmme yp ee ytmuyteg   ees kummmmpyeodsdeestuy edeedddddse e",
"dedsddeeess eyy tttedd ttttt eeddedeedddd lydes desdeddX  dddgeddetrpumyy  y  eey uyt et t eestyrummmmrteeeede tyye eese sdde  e",
" sdgogd kede yyyy  eese   eeddee ed tdde yOedddteeddddd  egdeooddetrumyyyyye  tt    gde tytttttttyyrruurteeege trte  ede sdee ee",
" edee   sdgepmyyeeeeddgsssegggeedsddeee y   dddyetdddde t    ddsetryrypyyN t ytruuegddetyytttyy;y    rpmuyytddtttes   tttt  tte ",
"  seeyy sgoyjm yeddddedggstggd egddogge ty edeyNdsddddddd t ge  tty yM ey y  etyy sggs tyyyetyrtye O rpmpuyy   y ee tttt  edeee ",
" e   Nk sg jy pydddddddgggeee t ggodo>d OyOddyeesddddddddetyyyytrytp y eee t  tr egeee ttpy etrryt  trummuyt     t tt      eesde",
"e e    ddd py y dddeeddgggggeruteeddggOh yreer  deddddddddtyyt syyyllyeeyeey  yyeessee t yy etyyurt ruuuumye t Otttttte e   teos",
"e y ee egd pry   ggeddddggogo ytt  edey ypyyy y dddddddddsOttt gttMpNtttte e  tttessesey yyt ttyyyruuuurrmttyyyt  ee   ee  ey ds",
"   e eeddgyprrye ededdddggodde dee   ttttp pyBeeddddddddd  de    t n tyy  eettt  sgggs  yynOettt trumuy yy tyr eeeee  eds  e  ee",
"  et eedegepphhyyteedesdgggdeeegddgdty ttye   esddsddsddddee  de    y t  t eyyteesodds t t e rrtetuuurytt detytt  e   dde tt ee ",
"     edesgexyyyhr  edeeddgddeeddeeede  yttytt sddsddddddddds  d tee  e setttrr sdssdge tt ee ryt tuyeyty ee t  tt    t e tttte y",
"   e  d sdtjyeyppy eeddddsdsedd   edtyyyyyyty ssdsdssds8ddde e teeeeee e trymr sesssdde t es ttt yyy ttteey te     t tytttttyttt",
"  e ee e&epjy  pppteedgge e eee teeeyMeByyytt sssdsdsddded eddeedddede dtrummy tsd  edsettse  t tyytett de  t tesse tyyrytttty y",
"ye   @deesyyrBepyeyd egdeed tedsyp e y e tyytNsseseddedetyyedddeeodedet t+pmuyeetstt se tr   yyytr ttt edet t  esss tytttt ee yy",
"NNyyrdesd4dNpy  eggyttessdsttesdeypye yt  ttt ssdessssd rum sdddddddeeee +mmrtsdet ttt ttrr   tyte etytteeety esds y tt  deeee  ",
"yyy  dddd>gyy ey d%dpy sddeyy dd yyNeeyy  tyy sssssese rmmuteseeddedde  t+mrt soddtyur tte tedee  e e yt etyy ee  tttytt ds ede ",
" yn dgdesgdyt d  edd y  ee ry sdyjxy e    yyt eeedsdde yumutesededededttrppy sddssdtrrttte   sees  e ettt ttt e t  e ty esseese ",
"y eeddeesgds  tde  es ttttryy edpjyy    tt yte  eessseetrprt sddedsyd rruprtedssddd rtyyys   s sd  eee t  tt ett eeeett esdeedde",
" eeedseesddsetege  ese yuuuurtespld y t yy tttt eeeeedety+rt eee   d trurrr deeded yyhryree   eeeeeeeee teytsetyt   tt  ee   ese",
"  eeedeesdse eedt es edymmupurtdyr      y   tt eedeeee p2yyy     thpryurrrtXeddeddeddetttese tteeeeeeeeetryttt eeeeee   eeseeee ",
" ee  eessse  y  r  esssymmmmpu#de    eeN  e tt         lrryt     tppyyruurteddsygesdgs tt se t eeeeeeeee yurrteeee ee    eee e  ",
"        eebbe tee dds yyruppuu+tyt e   y yyyyO  ttttttyruuurt   tyrry tx.jp edsddeetss tyye  ttddeessssssyyy  eedddd  ede tytty ",
"  t tXXeeedde  ebt eetpryruurrryyO      yNypyOO ppyypyyppCjuttttyrrry lxCjpyedgogd kes tyyn  tt sssdddddetuted tdde yOeddByttttt",
" t  t  eeeeeXtteet dtypyyyyrrtntnyNy ee O yyyyyyjp yMyypCCjpy pyrhryyypppjvrteee   sdgeppyyeeettsgoggdddettdsddeee y   dd  yyyyt",
"t  ty   eeeeety et dtpplyyyyrNN nyyyt e e   yr pVlylpyMplpppeCrjhhry ppppCjMt eeyy sgoyjp yedd tsdggggdd  egddogge ty edepyyttyt",
"t   yy    tttyyt t eyCpyyyyyryO Nyp  ee eeNNnnyppyyppyyNppyO pyCyryy yyCcClxt   Nk sg jy pyddde sdgggggs  eggodo>d OyOddyyyyeeyy",
" ee yytt  tyyryettytlCppynytty  tyy see e   NyN yyyyyyyyppyy yj e yM  ljjllj e    ddd py y dddsesdggggs t d%gddggOh yreernl eyyB",
"eeetrrryXbeeebeeytttuupyy   eN  ty  eeyee  eyr ty e pppMpy yyyp pjyestjp-yrl y ee egd pry   ggeddddggo tr dggdddey ypyyy Ny  t e",
"eeetmy Xebdeeeeettgtrry    Bss     eeeeebeese     X yppjpyyy eyypjyee pp-yypn e eeddgyprrye ededdddggeryrddedgey  eyp pyB yy   t",
"  Xe y  eebeee tt gZmpyyed esseeeeeeedeseseese ee   tyCcjpy   yytpy  nypppyn et eedegepphhyyteedesdgstur dgddgdttt pye    yy   y",
"       eeebbdety esXyyyyee  ssssss eX sssssesseXeee typCjpyyNyyyyy  yMyeyCy     edesgexyyyhr  edeedetyurtddssed ttyyeeyyptyyy   ",
"XX XNO  Xeddd reeed y nyeet essddsee esssdssdsseeee yuljxllly  yyy  yy  ypy   e  d sdtjyeyppy eeddstuumrt   ee tyyyyeeyyyed  tt ",
" yy Ot eeeeeeyyy edyp   e eeebdddsseeesesdssddsssee yrypppypyy tnyyyppylyl   e ee e&epjy  ppptseds ymrtte t eeeyMeByye lndd  yy ",
"yyhyOt  ede tumrteeyyt eeeddseggdsseessssdesddssdse ttyyypyO  t ypyyyplpl eye   @deesyyrBepyeyd setyytdsdss p e y e t  yNssd pxy",
"yhpyy   e   rmmpy eyyO  sdeebsggddeeedssd sdddssds tt yyypy  ttyyppyNNlp deNNyyrdesd4dNpy  eggyyttt ddsdgdd ypye yt   yy eeeeypy",
"yylllyty my etyyrtyyye Xddessdggggssssssd eddssdse t yetyy t t eeyppyynn   yyy  dddd>gyj ey d%dpuydsddddgds yyNeeyy   yy eet ety",
"yyCpypxryyt e tt tty  Nesesddddgggsddsesdeeddssse s   etyyt  t es pMyyy   ylyn dgdesgdyyed  eddymr dodedddstjxy e    yyytbb  eey",
"n pppVjyy e e t   t Xpyesssodddggdgdddesdeesssse   e   ty  t   edeyyyyyp eyy eeddeesgds ptdey trmuysgdddgdsyjyy    tt  deddkn Ny",
"yyyuuppCpyy ee  truy$  esddddddgggddssssbsessse t eee  ttt   eeee yyt yprty eeedseesddset ge  tmpuy sedogdstld y t yy  ddgg y ky",
"pyyrrruxCyyyt  tmruy b esdsddddddddssssseee ee teeeeee    eeeeee     yppyyy  eeedeesdse e dtpeyuu yteessdds  ede X ededeeeee sse",
"ettyyyytttt    trttseseedeedddgdssseosdde e e e  esssssse sssss de  p ejye  eeeesessse  yp rp hhumut  essssssee      edde eeeess",
"e tttttt     e tyte  de  essddgdse eeddeee y ee esssdsdsessdddseddeCeM yyy  y yesssddds t y edh2rmCCytX ssssse       e t e Xeebd",
" ehttyry e teeeeyrtyyeee essdddse eey ge   tt   eessddde  essssoddellpyyyyyyeyy esdgggde  e e 2rrCjllte ssssss   tXXetttte eebbe",
"e t;y       eeytyryytesey esdddee e    eeee tt   essdddtt  e  ddseydpNypyyN tey  sdggddd  eystjyrpN&y  eessssse  t   tyttXeeeedd",
"de  ye O    eeyyryy  eee  esgdddeee   yeee ytt y esdddd ddse gese r  yM ey y yeNydgdggsd y yegytylpy sseeeXsss  ty ttytytee  edg",
"yyr#rryyryyyryyyrrryytyyyyyttttyyttyyyyyyryrrryyyttttttyttttyyyyyyprpyryyyyyryyrpttttttyrypryyMrprrrrttty:tttyyyyrrrryyyyyyyyyt$",
"i...vii...i...ii...j.uiiiuuuuuu..i0u.....a......iuuuuuuuuuuu.uuiu.iaccaiiaiia...aiuuuuuia.aai.vavv.aauuuu.iiui...ac..iiiiiiiiiuu",
"ssssessssssssssssssssdssssdggdssesdssssssssesssssddddddssss3sssdge@B 5esssssssdssssgwgdseseess5  ese sssdsssssseeeXsss=sss=sssdd",
"de;t   ee y   de t eeeesddgdgdse  ee  t    lyt  esdddddey   d eed e n t r  eedtjeesgggde yynOe purtyrtseedtttyme yrtXebdeeeeeedg",
"de te y e ytt de    eessdddddssteee y    e yyt essdsddsst deeesds s  y d  e eddsgesoddse  t e  yuuyyytteee ttteXett  eebeeeXeedg",
"tttytrrrttyrtttttttt      e  tt tttr:Ntttttttyt    eeeeett e teeeeettttt ttttte  e  eetttyttttttuurryyrytttrrtttyyyttttZZetttZee",
"iiiuiiiiiiiuiiiiiiiuiiiiiiiuiiiiiiiuiiiiiiiuiiiiiiiuiiiiiiiuiiiiiiiuiiiiiiiuiiiiiiiuiiiiiiiuiiiiiiiuiiiiiiiuiiiiiiiuiiiiiiiuiiii",
"uy e yufuy e yufuy e yufuy e yufuy e yufuy e yufuy e yufuy e yufuy e yufuy e yufuy e yufuy e yufuy e yufuy e yufuy e yufuy e trf",
"y  e  yuy  e  yuy  e  yuy  e  yuy  e  yuy  e  yuy  e  yuy  e  yuy  e  yuy  e  yuy  e  yuy  e  yuy  e  yuy  e  yuy  e  yuy  e  tu",
"tetttetytetttetytetttetytetttetytetttetytetttetytetttetytetttetytetttetytetttetytetttetytetttetytetttetytetttetytetttetytetttety",
"ye y eyuye y eyuye y eyuye y eyuye y eyuye y eyuye y eyuye y eyuye y eyuye y eyuye y eyuye y eyuye y eyuye y eyuye y eyuye y eyu",
"tiueui utiueui utiueui utiueui utiueui utiueui utiueui utiueui utiueui utiueui utiueui utiueui utiueui utiueui utiueui utiueui u",
"e eue eye eue eye eue eye eue eye eue eye eue eye eue eye eue eye eue eye eue eye eue eye eue eye eue eye eue eye eue eye eue ey",
"uit tiuiuit tiuiuit tiuiuit tiuiuit tiuiuit tiuiuit tiuiuit tiuiuit tiuiuit tiuiuit tiuiuit tiuiuit tiuiuit tiuiuit tiuiuit tiui",
"airrriffairrriffairrriffairrriffairrriffairrriffairrriffairrriffairrriffairrriffairrriffairrriffairrriffairrriffairrriffairrrifj"
};
