/* XPM */
static char *METAL5[] = {
/* columns rows colors chars-per-pixel */
"64 128 19 1 ",
"  c #232323",
". c #2B230F",
"X c #272727",
"o c #1F170B",
"O c #332B13",
"+ c #1B1B1B",
"@ c #2F371F",
"# c #2F2F2F",
"$ c #170F07",
"% c #232B0F",
"& c #373737",
"* c #131313",
"= c #3F2F17",
"- c #373F27",
"; c #171F07",
": c #372313",
"> c gray23",
", c #474F33",
"< c #43331B",
/* pixels */
"o@@@@&&&@#@@&&#@@###+#%%XXXXXXXXo%@@@@%%X%%%%%X %X %%%%OXXXX..@@",
"o@XX   .          ... X.    .. XoXXX   .          ... X.    .. X",
"o@X.o#o.  . . ...    X    o#o .XoXX.o#o.  . . ...    X    o#o .X",
"o%X.o$o   ... ...     . ..o$o  %o%XXo$o   ... ...     . ..o$o  X",
"o%XX...XX.XXXX...X.X.XX.XX...XX%o%XXX.XXXXXXXXXXX...XXXXXX.O=OXX",
"o%XX...XX.XXXX....X..XX.XX...XXXo%XXXXXXXXX..XXXXX..XXXXXX..O.XX",
"o@XXXXXXXXXXXXXX.XX...X.XX.XXXXXoXXXXX.XXXXX.XXX.XX..XXXXXX.XXXX",
"o@XXXXXXXX.XXXXXXXX...XXXXXXXXXXoXXX.X.XXXX...XX.XXX.XXXXXXXXXXX",
"o@XXXXXXXXXXXXXXXXX.XXXXXXXXX.XXoXXXXX.XX..XXXXXXXXXXX.XXXXXXXXX",
"o%XXXX.XXXXXXXXXXX.XXXXXXXXXX..%o%XXXX.XX.XXXXXXXXXXX.....XXXXXX",
"o%XXXXXXXO&O&&&&&&&&&&OX.XXX.X..o%XXXXXXXO&&&&OO&&&&&&O.XXX..XXX",
"o%XXXXX+***$******$***$*o..XXX..o%XXXX.o*$$****$********+XX...XX",
"o%XXXXXXX&&O&&&&&&&&&O&XXX.XXX..o%XXXXXXXO&&&&&&&&O&&O&..X.XX.XX",
"o@XXXXX+***$*$*******$**+X.XXX..oXXXXXX+*******$$*$**$$$+X.XXXXX",
"o@XX. ...OOO&&&O&&&OO&OXXX.X....oXXX.X..XO&&&&&&&&&&OO&.XX.X.XXX",
"o%X....+$**$********$$$*+X......o%XX...+***$********$$*$+X...XXX",
"o%X....XX&&&&O&O&&&O&&&.X.XXX.X%o%%X.XXXX&&&OOOO&&&&&&&.X....XXX",
"o%X....+*****$$********$+.XX.XX%o%%X.XX+****$$$$*******$+X....XX",
"o%XX.XXXX&&&&&&&&&&&&O&XXX.XX...o%.XX.X.X&OOO&OO&&&&&&O.X.XXXXXX",
"o@XX.XX+***********$$$**+X.XXX..oX.XXX.o**$$$*$$******$$+XXXXXXX",
"o@XX.XXXX&&&&&&O&&&&OO&XXXXXXX..oX..XXXX.O&O&&&&&&&&&OO.XXXXXXXX",
"o@XX.XX+************$***+XXXXX..oX..XXX+*$*****$******$$+XXXXXXX",
"o-XXXXXXX&>>>>>>>>>>>=>XXXXXX.X%oX..X.XXXO=>>>>=>>>>>>>XXXXXXXXX",
"o@XXXXX+*oo+++o++o++o+o*+XXXX.X%oX..X.X+*+o  o ooo Xoo**+XXXXXXX",
"o%XXXXXXXOO=@=.@=.@@.=...XXXX.X%o%..XXX.XXO@@O@...@=.O..XXXXXXXX",
"oOX.. ...O.O=O.OO.==XO..XX.X..X%o.... ..XXO@OO=. .@=.O.XXX.X.XXX",
"oOX.....XXXOOX....OOX....X....X%o.......XX OO =. .%....XXX..XXXX",
"oXX.....XXXX.XXX.XXXXX...XXXXXX%o.......XX XO O. ......XXXXXXX.X",
"o%XX   .          ... X.    .. .o.XX   .          ... X.    .. X",
"o%XXo#o.  . . ...    X    o#o ..o.XXo#o.  . . ...    X    o#o .X",
"o..Xo$o   ... ...     . ..o$o  %o..Xo$o   ... ...     . ..o$o  X",
"o..XXXXX..XXX....XXXXX.X.X.XXXX%o..XXXXXXXX.XX.....XX.XXXXXXXXXX",
"o++o++++o++o+++++o+++++ooo+++++;o;++++++++o+o+ooooo++++++++++o++",
"o@@@@@@@@&&&@#@@&&#@@###OX %%@@.o@#@@@XXXX.X.X.X...XXXXXXXXX..@X",
"oXX   .          ... X.    ..  .o-XX   .          ... X.    .. .",
"oXXo#o.  . . ...    X    o#o ..Xo-XXo#o.  . . ...    X    o#o ..",
"oX.o$o   ... ...     . ..o$o   Xo@.Xo$o   ... ...     . ..o$o  X",
"oXXX.X.X.XXXXXXXXXXX..X.... .XXXo@.X.X..XXXXX..XX.XXXXXXXX.X..XX",
"oXXX.......XXX..XXXX.XXXXX....X.o@.....X..XXXX.XX.X.XXXXXX...XXX",
"oX..XXXX...XXX..XXXX.XXXX.XXXXX.o@X....X..XXXX..X.X.XXX.XXXXXXXX",
"o....XXX.XXXXX........XXXXX...X.o@XX.....XXXXX......XXXXX.XXXXX.",
"o..X.XXX.&&&&&OO&OO&O&&.X.X..XXOo@..X....##...@OO@OO@@OXX.XXXXX.",
"oXXX...o*****$**$$$$$$$*oXX.XXXOo<...XXo$*oooooooooooo+$+XX.XXXX",
"oXXX....X&&&&&&&OOOOOO&X.XX.XXXOo=.X.X.X.####O#&OO&###&..XXXXXXX",
"o..XXX.o$$**********$$**+X......o=.XXXX+*+oooo+ooooo++**oXXXXX.X",
"o..XXX..XO&&&&&&&O&O&O&X.XX.....o=.XX....##..O@OO@O.@@&X.XXXXX.X",
"oXX.XXX+******$**$***$**+XXXX...oO....X+*+oooooooooooo**+XXX..XX",
"oXXXXXXXX&&&&&&&&O&&&O&XXXXX....oO...XXXX&&&&&&&OO&&&&&XXXXX.XXX",
"oXX..X.+*****$*******$*$+X.X.XX.oX.X. .+*++ooo++o++o++$$+.. ..XX",
"oXX....XX&&&&O&&&&&&&O&.XX...X..oX.X....X#O#O#&#OO#O&OO.X.....XX",
"oXXX...+*****$**$****$**+X.XXXX%oXXXXXXo*o+ooo++o+oo++$*+.....XX",
"oXXX....X&O&&O&&&&&&&&&XX..X.XX%oXXXX..XX####O&O##OO&&OXXX....XX",
"oXXXXXXo$***************+XX.XXXXoXXX..Xo*$********$*$$$*+XX.XXX.",
"oXX.XXXX.&>>>>>>>>>>>>=XXXX.XXXXoXXX..X.XO>>>>>>>>=>===XXXX.XXX.",
"oXXXX..++o++o+ooo++ooo$*+.XXXXXXoXXX..X+*oooX .+ .+ .o.o+...XXXX",
"oXXXX..XXO@@O@...@=.O..XXXX.XX.XoXXX..XXXXOO=@=.@=.@@.=.XX.XXXXX",
"oXXXX.XXXO@OO=. .@=.O.XXXXXX.XXXoOXXXXX.X.O.O=O.OO.==XO.XXXXXXXX",
"oXX.XXX.X OO =. .%....X.XXXXXXX%oOXXXXX..XXXOOX....OOX..XXXXXXXX",
"oXX.XXXXX XO O. ......X.XXXXXX..o.XXX..XX.XXXX.XX..XXXX.X..XXXXX",
"oXX   .          ... X.    .. ..o%XX   .          ... X.    .. X",
"oXXo#o.  . . ...    X    o#o .X.oXXXo#o.  . . ...    X    o#o .X",
"o.Xo$o   ... ...     . ..o$o  X.oX.Xo$o   ... ...     . ..o$o  X",
"o%%%%%%%%%%%%%%..%......%%%%%%%%o.%%%..%%%%%%.%%%%%%%.%%%%%%%.%%",
"oooooooooooooooooooooooooooooooooooooooooooooooooooooooooooooooo",
"o@@@@@&&&@#@@&&#@@###+#%X ++ @@@o@@@@@%%%%%%%%+.X@%+++@@.@@.@@@@",
"oX        .  .        ..       @o@      .      .           ..  @",
"oX .o-o   .  . o-o   . .  o#o  @o@ .o#o  .     o,o.   .. .o#o  X",
"oX .o$o   .    o$o   . .  o$o  %o%  o$o  ..    o$o   ..   o$o  X",
"oX  O=O  .    O=O . .  .  O=O  %o%   .           ...       .   X",
"oX  .O.  .    .O.. ..  .  .O.  Xo%         ..     ..   XX ..   X",
"oX              .  ... .  .    Xo@    .     .   .  ..   X  .   X",
"oX    X   . X      ...         Xo@  . .    ...  .   .   XX  XX X",
"oX  XXX     XXX    .         .  o@    .  ..       X   .        X",
"oX  XX.      XX   .          ..%o%    .  .   X   XXX .....     X",
"oX   XX  . .  XX      . .   . ..o%       .  X ..  X   ..   ..  X",
"oX   XXXX  .  XX  .   . ...   ..o%    .. .. XX .           ... X",
"oX         .  XXX    .    .   ..o%       .   X    .  . .. .  . X",
"oX         . .       .    .   ..o@             .. .  ...  .    X",
"oX  o-o.....   .   .. .   o#o...o@  o#o. .          .. .  o#o  X",
"oX .o$o .  .        ...   o$o...o%  o$o    .        .. .  o$o  X",
"oX .O=O      . .   .   . .   . %o%% .       ....       . .O=O  X",
"oX ..O.      ..        . .  .  %o%% .       ....  X    .  .O.. X",
"oX  .                .    .  ...o%O  . .  ... ..  XX  .. .     X",
"oX  .   XX         ...    .   ..o@O   ..  ... ..  X   .. X  X  X",
"oX  .          .    ..        ..o@O.    .. .       X ... XXXX  X",
"oX  .        X      .    XXX  ..o@=O     .     .      .. X XX  X",
"o            XX X    .   X   . %o-=O .   ..    .         XXXX  X",
"o        .    XXX .      XX  . %o@=O .   ..    .          XX   X",
"oX       ..         . ...    . %o%OO   .        ....   XXX     X",
"oX .o-o.... .  .      ..  o#o. %oOOOo-o.  X     ....   XX oXo  X",
"oX =o$oO        . X  .... o$o. %oO.=o$oO   XX     .   .X  o$+  X",
"o  OO=OO    .   .XXX  ...      %oO.OO=OOX   X  .  . . .X  ##X .X",
"o%  OOO..      XXXXX  .    .  ..o.  OOO. ..    ...  .     X&   X",
"o%     ..      XX XX  .   ..  ..o.  .  X . .  ..:.  .      #   X",
"oO.   . ..   . .  XXX . . .    %o..   X    .  ...... .   X X   X",
"oO.     ..   ....     . . .    %o..        .  :....  .   X X   X",
"oX .    .  .     .     ...     %o%        . . .....  XXXX  X . X",
"o  .    .       .. .   ...     %o%        . . . ... XXXXX    . X",
"o  .       .XX  .  .. . .      Xo%    .      .......XXXX   .   .",
"oX .   .      XX   ..   .      Xo%    .      ... ...XXXXX      O",
"oX.         XXXX.   ... ....   XoO.   ...     .. . . XXXX      X",
"oX  o#o .   X       .. ...o-o  XoO. oXo.     ..  .    X   oXo. X",
"oX  o$o....   ..    .     o$o.  oX..o$o ..  X .  . . XX   o$o  X",
"oX..    ...   ..    .    .+++  %oX .O=O ..  X .. . .   . X     X",
"o....   .     ........     ... %o   .O...     ......     .     .",
"o.. .   .     .. .. .  . . ..  %o%.. ....      .... X .  .     O",
"oX  ....     .  ....... .  .   %o....  .. .    ...  X  .   .   X",
"oX  ....        ......  .  .   %o.. . . .    .  ..  XX ..      X",
"o..   ....          ..    ......o..            ...      .     .X",
"o..   .. .       . . .  .  .....o..  ....      ...      .     .X",
"oX .          .  .   .       ...oO....       .  ..          .. X",
"oX               .   .      ....o....           ..          .  X",
"oX .oXo      .       . .  oXo  .o.. o-o     ..  .  . ... .o-o. X",
"oX .o$o      .       . .  o$o ..oO. o$o.  . .   .. . ... =o$oO X",
"oX  O=O      .  .    .    .    %oX  +++. .   .    ..  .  OO=OO X",
"oX  .O..  .  .           .. .  %oX   ..      . .  ..  .   OOO. X",
"oX     ..                  .   Xo   .. . .        . ...    .   .",
"oX .    .             .    .   Xo   .. . .        . ...    .   O",
"oX   ..              ..  .     XoX  ..   ...      .  .   ...   X",
"oX   ..   X          ..    .  .XoX  ..   . .      . ..    .    X",
"oX   .    .                 .   oX     .  . ....   .. .        X",
"oX .   .        .  .   .       %oX     .. .   ..    . .        X",
"oX .     ..  .       ...      ..o#   ..  .    .  ..    . ..    X",
"oX .oXo  .. .. o-o . ...  oXo ..o#  o-o ....  .o#o     . .oXo  X",
"o  .o$o        o$o. ....  o$o. .o#  o$o   .    o$o.      .o$o  X",
"o.  .      .     ..  ...       .oX.  .    .       .          . X",
"o%%%%%%%%%%%%%%..%......%%%%%%%%o.%%%..%%%%%%.%%%%%%%.%%%%%%%.%%",
"oooooooooooooooooooooooooooooooooooooooooooooooooooooooooooooooo"
};
