/* XPM */
static char *METAL3[] = {
/* columns rows colors chars-per-pixel */
"64 128 34 1 ",
"  c #232323",
". c #2B230F",
"X c #272727",
"o c #332B13",
"O c #1B1B1B",
"+ c #232B0F",
"@ c #1F170B",
"# c #2F2F2F",
"$ c #2F371F",
"% c #9B5B13",
"& c #3F2F17",
"* c black",
"= c #170F07",
"- c #373F27",
"; c #AF7B1F",
": c #874307",
"> c #373737",
", c #43331B",
"< c #4F0000",
"1 c #4B371B",
"2 c #C39B2F",
"3 c #670000",
"4 c #4F3B23",
"5 c #171F07",
"6 c #D7BB43",
"7 c #0B0B0B",
"8 c #131313",
"9 c #732B00",
"0 c #430000",
"q c #434343",
"w c gray23",
"e c #474F33",
"r c #3F472B",
"t c #9B0000",
/* pixels */
"@$$$$$>>>$#$$>>#$$###O#+X OO $$$@$$$$$++++++++O.X$+OOO$$.$$.$$$$",
"@X        .  .        ..       $@$      .      .           ..  $",
"@X .@-@   .  . @-@   . .  @#@  $@$ .@#@  .     @e@.   .. .@#@  X",
"@X .@=@   .    @=@   . .  @=@  +@+  @=@  ..    @=@   ..   @=@  X",
"@X  o&o  .    o&o . .  .  o&o  +@+   .           ...       .   X",
"@X  .o.  .    .o.. ..  .  .o.  X@+         ..     ..   XX ..   X",
"@X              .  ... .  .    X@$    .     .   .  ..   X  .   X",
"@X    X   . X      ...         X@$  . .    ...  .   .   XX  XX X",
"@X  XXX     XXX    .         .  @$    .  ..       X   .        X",
"@X  XX.      XX   .          ..+@+    .  .   X   XXX .....     X",
"@X   XX  . .  XX      . .   . ..@+       .  X ..  X   ..   ..  X",
"@X   XXXX  .  XX  .   . ...   ..@+    .. .. XX .           ... X",
"@X         .  XXX    .    .   ..@+       .   X    .  . .. .  . X",
"@X         . .       .    .   ..@$             .. .  ...  .    X",
"@X  @-@.....   .   .. .   @#@...@$  @#@. .          .. .  @#@  X",
"@X .@=@ .  .        ...   @=@...@+  @=@    .        .. .  @=@  X",
"@X .o&o      . .   .   . .   . +@++ .       ....       . .o&o  X",
"@X ..o.      ..        . .  .  +@++ .       ....  X    .  .o.. X",
"@X  .                .    .  ...@+o  . .  ... ..  XX  .. .     X",
"@X  .   XX         ...    .   ..@$o   ..  ... ..  X   .. X  X  X",
"@X  .          .    ..        ..@$o.    .. .       X ... XXXX  X",
"@X  .        X      .    XXX  ..@$&o     .     .      .. X XX  X",
"@            XX X    .   X   . +@-&o .   ..    .         XXXX  X",
"@        .    XXX .      XX  . +@$&o .   ..    .          XX   X",
"@X       ..         . ...    . +@+oo   .        ....   XXX     X",
"@X .@-@.... .  .      ..  @#@. +@#  @-@ ....  .@#@     . .@X@  X",
"@X &@=@o        . X  .... @=@. +@#  @=@   .    @=@.      .@=@  X",
"@  oo&oo    .   .XXX  ...      +@X.  .    .       .          . X",
"@+  ooo..      XXXXX  .    .  ..@.+++..++++++.+++++++.+++++++.++",
"@+     ..      XX XX  .   ..  ..@@@@@@@@@@@@@@@@@@@@@@@@@@@@@@@@",
"@o.   . ..   . .  XXX . . .    +@--$$$++X+++++X +X ++++oXXXX..$$",
"@o.     ..   ....     . . .    +@-    ..      .ooo. . ..   . . $",
"@X .    .  .     .     ...     +@$  @-@. .   .o@#@o..     @#@  X",
"@  .    .       .. .   ...     +@$  @=@. . . ..5=5&       @=@  X",
"@  .       .XX  .  .. . .      X@$ . ..  ..   .o&oo      .o& . X",
"@X .   .      XX   ..   .      X@+    .      ... ...X XXX      o",
"@X.         XXXX.   ... ....   X@o.   ...     .. . . XXXX      X",
"@X  @#@ .   X       .. ...@-@  X@o.    .   OOOOOOOOOOOO      . X",
"@X  @=@....   ..    .     @=@.  @X..    .. O9:%%%%%%:9O        X",
"@X..    ...   ..    .    .OOO  +@X .    .. O%;2;;;62;:O. X     X",
"@....   .     ........     ... +@     ...  O%;2;;%O&O%O  .     .",
"@.. .   .     .. .. .  . . ..  +@+.. ....  O%;2;%1O&%%O  .     o",
"@X  ....     .  ....... .  .   +@....  .. .X%;2%O1O%;%X.   .   X",
"@X  ....        ......  .  .   +@.. . . .  X%;%OO1%2;%X .     .X",
"@..   ....          ..    ......@.....     X%%&OO%62;%X     .. X",
"@..   .. .       . . .  .  .....@....      X%;&OO1O&%%X     .  X",
"@X .          .  .   .       ...@o. @-@    X%;2%O&O%;%X. .@-@. X",
"@X               .   .      ....@.. @=@.   X%;%OO&%2;%X. &@=@o X",
"@X .@X@      .       . .  @X@  .@.. OOO. . #%%&OO%62;%#+ oo&oo X",
"@X .@=@      .       . .  @=@ ..@o.  ..   .#%O&OO&O&;%#$  ooo. X",
"@X  o&o      .  .    .    .    +@X  .. . . #%;;22%O;;%--+  .   X",
"@X  .o..  .  .           .. .  +@X  .. . . #%;%2%&2;;%$-+  .   X",
"@X     ..                  .   X@   ..   . #%;%%O;;%;%-$ ...   .",
"@X .    .             .    .   X@   ..   . #%;:O;%;%%:-+   .   o",
"@X   ..              ..  .     X@X  ..   ..#:::::%%:::#+ ...   X",
"@X   ..   X          ..    .  .X@X  ..   . X##########X   .    X",
"@X   .    .                 .   @X     .  . .XXXXXXXX .        X",
"@X .   .        .  .   .       +@X     .. .   ..    . .        X",
"@X .     ..  .       ...      ..@#   ..  .    .  ..    . ..    X",
"@X .@X@  .. .. @-@ . ...  @X@ ..@#  @-@ ....  .@#@     . .@X@  X",
"@  .@=@        @=@. ....  @=@. .@#  @=@   .    @=@.      .@=@  X",
"@.  .      .     ..  ...       .@X.  .    .       .          . X",
"@++++++++++++++..+......++++++++@.+++..++++++.+++++++.+++++++.++",
"@@@@@@@@@@@@@@@@@@@@@@@@@@@@@@@@@@@@@@@@@@@@@@@@@@@@@@@@@@@@@@@@",
"@$$###++XX&-r-& +X ++++oX ++$$o.@--$$$++X+++++X +X ++++oXXXX..$$",
"@$    ..  .o&o. .   . ..  . ooo.@-    ..      .ooo. . ..   . . $",
"@#  @-@. .  .. @#@ ..     @#@. X@$  @-@. .   .o@#@o..     @#@  X",
"@#  @=@. . . ..@=@        @=@. X@$  @=@. . . ..5=5&       @=@  X",
"@# . ..  ..          ...   . ..X@$ . ..  ..   .o&oo  .....o&o. X",
"@X . .         .. .  ...      ..@$ . .         .oo.  ... ..o.. X",
"@X  .  . ...  .     ...   .  ...@$  .  . ...  . .   ... ..     X",
"@X     .  .. .      ...      ...@$     .  .. .      ... ..  .  X",
"@X  XXX   . .  . .   . ...     o@,        . .  . .   . . . ... X",
"@+  XXXX  . .   ... .  ... XX .o@&     X  .OOOOOOOOOOO . .  .  .",
"@..   XX  ...    ..  XX .. XX .o@&.    XX .O**.&.*.**O       ...",
"@..  . XX ...X   ..   XX.    ...@&.  .  X .O**4%4.4.*O  X    . o",
"@X  .         X ..... XX     . +@o  .   X  O**.1.*.**O.XX   . .X",
"@X .   .          ... X.    .. +@o .   .   O*********O .X  .  .X",
"@X  @#@.  . . ...    X    @#@ .+@X  @X@.  .O>#XX>>#>wO   .@-@. X",
"@X  @=@   ... ...     . ..@=@  X@X  @=@   .O****87***O.  &@=@o.X",
"@X     .   . ...    .  ....    X@X     .   O***.*.&.*O . oo&oo X",
"@X   .. .    ...   .. ..  .    X@X   .. .  O**.4.4%,*O..  ooo..X",
"@X      ..    ..   .  .. ...   X@X      .. O***.*.1.*O..  .  . X",
"@X  .   .   . .. ...  .. ...   X@X  .   .  ##########X..  .   ..",
"@X .      . .  .........  ..    @X .      . .  ......... ..... .",
"@X..    . .. . .... .. .   ....+@X..    . .. . ....... .  ..   o",
"@o.    X..   X  ... . ...    . +@o.     .. OOOOOOOOOO .. ..   .o",
"@o..   XX.  XX  ... . ...     .o@o..     . O@== X = O .. .     o",
"@.. .     .  .  ...   ..  .    .@.. .     .O=******=O ..       X",
"@+ .@-@.  .  . . .. . .   @-@  +@+  @-@   .X@=*****=O .  .@X@  X",
"@X &@=@o   ..        ..  .@=@  X@X  @=@    X@@@@@@@@O..  .@=@ .X",
"@X oo&oo ...    XX  ...  .  .  X@X       ..X@@@@@@@. ..    . ..X",
"@.. ooo. .. .  XX   .   . .   .X@.. ..   ..X@=,,*,:.#    .. .  X",
"@.   .. ...    XXX     ..  X ..X@.   .. ...X@@*****@>  .  .... X",
"@o.     ....    XXXXX.    XX . X@o.     ...# @@@@@@@q.    .    X",
"@..     ....         .       . X@..     ...##########.  .      X",
"@.. ....   ....     .   . .. . X@.. ....   ....     .          X",
"@.. ...    .  .. ....   .  ..  X@.. ...    .  .. ....     ...  X",
"@+   .. .     .....    ...     X@+   .. .  OOOOOOOOOOO .. ..   X",
"@+  .. ....    ... .  ....      @+  .. ....O*780<087*O.....  . X",
"@+  ..  ...  . .. . .  ...  ...+@+  ..  ...O*80<3<08*O .  . .. X",
"@+. @-@    . . ..  ..   ..@-@..+@+. @X@    O*8<3t3<8*O    @X@..X",
"@o. @=@  ..    ...   ..  &@=@o X@o. @=@  ..O*80<<<08*O.   @=@  X",
"@..  .   .  .  ... .. .  oo&oo X@.. o&o  . O>#XXXX#>wO.   ..   .",
"@+ . . ..  . ...  ..  .   ooo. X@+ ..o...  . ...  ..  .  . . . .",
"@+   . . .  ....  .   .  . .   X@+   . . .  ....  .   .   ......",
"@X .  ..  .... .  .      ....  X@X .  ..  .... .  .     .... ...",
"@X .       .     ..   .. .. .   @X .       .     ..   .....   ..",
"@  .          .  ... . .  ...   @  .          .  ... . ..     .o",
"@+ .        ...  ..  ..   .    X@+ .        ...  ..  .. .  .  .o",
"@o.  .   .   ..        .  . ....@o.  .   .   ..        .     ..o",
"@o       ..          . .    .. .@o  .&o. ..          . .       o",
"@o..@-@       .        .  @-@...@o...X@&      .        .  @X@  X",
"@o..@=@ .    .. .     ....@=@...@o.o@=@&.    .. .     ... @=@  X",
"@o..  .. .    ..    .  . . . . +@o..o&&o .    ..    .  .  .    .",
"@..   .. .    .      . .   ... X@..  oo. .    .      . .  ..   .",
"@+    ....    .    .     .   . X@+    ...     .    .    .   .  .",
"@+   .. .  .. .    .      . ..  @+    ...  .  .    .    .     .o",
"@+ ......   ....   .    .   .. +@+ ...      . ..   .    ..    .X",
"@+ ... .     ...   .   ... ....+@X ......    . .   .   ...     X",
"@$..    .          ......   .  +@X.   . .    ..  ...  ..   .. .X",
"@... .   .           ...    .  +@X.   ...     .  . ..  .   .   .",
"@.   ..  .   .. .         . .  X@X    .  .   ..... . . . .  .  .",
"@.  @-@  ..   .@-@ .   .. @-@  X@$  @-@ .    ..@X@ . . . .@X@  o",
"@.  @=@   ..   @=@  .. . .@=@. X@$  @=@ .  .   @=@.. .. ..@=@  $",
"@. . .  .. .          ..       $@.  . .    .   o&o.. .. .     .$",
"++++++++++++.+++++++++..+++.+...@$$$...++++.+++.o..++++.++.+++++",
"@@@@@@@@@@@@@@@@@@@@@@@@@@@@@@@@@@@@@@@@@@@@@@@@@@@@@@@@@@@@@@@@"
};
