/* XPM */
static char *METAL2[] = {
/* columns rows colors chars-per-pixel */
"64 128 18 1 ",
"  c #232323",
". c #2B230F",
"X c #272727",
"o c #332B13",
"O c #232B0F",
"+ c #1F170B",
"@ c #2F371F",
"# c #3F2F17",
"$ c #2F2F2F",
"% c #1B1B1B",
"& c #373F27",
"* c #373737",
"= c #170F07",
"- c #372313",
"; c #171F07",
": c #3F472B",
"> c #474F33",
", c #43331B",
/* pixels */
"+@@@@@***@$@@**$@@$$$%$OX %% @@@+@@@@@OOOOOOOO%.X@O%%%@@.@@.@@@@",
"+X        .  .        ..       @+@      .      .           ..  @",
"+X .+&+   .  . +&+   . .  +$+  @+@ .+$+  .     +>+.   .. .+$+  X",
"+X .+=+   .    +=+   . .  +=+  O+O  +=+  ..    +=+   ..   +=+  X",
"+X  o#o  .    o#o . .  .  o#o  O+O   .           ...       .   X",
"+X  .o.  .    .o.. ..  .  .o.  X+O         ..     ..   XX ..   X",
"+X              .  ... .  .    X+@    .     .   .  ..   X  .   X",
"+X    X   . X      ...         X+@  . .    ...  .   .   XX  XX X",
"+X  XXX     XXX    .         .  +@    .  ..       X   .        X",
"+X  XX.      XX   .          ..O+O    .  .   X   XXX .....     X",
"+X   XX  . .  XX      . .   . ..+O       .  X ..  X   ..   ..  X",
"+X   XXXX  .  XX  .   . ...   ..+O    .. .. XX .           ... X",
"+X         .  XXX    .    .   ..+O       .   X    .  . .. .  . X",
"+X         . .       .    .   ..+@             .. .  ...  .    X",
"+X  +&+.....   .   .. .   +$+...+@  +$+. .          .. .  +$+  X",
"+X .+=+ .  .        ...   +=+...+O  +=+    .        .. .  +=+  X",
"+X .o#o      . .   .   . .   . O+OO .       ....       . .o#o  X",
"+X ..o.      ..        . .  .  O+OO .       ....  X    .  .o.. X",
"+X  .                .    .  ...+Oo  . .  ... ..  XX  .. .     X",
"+X  .   XX         ...    .   ..+@o   ..  ... ..  X   .. X  X  X",
"+X  .          .    ..        ..+@o.    .. .       X ... XXXX  X",
"+X  .        X      .    XXX  ..+@#o     .     .      .. X XX  X",
"+            XX X    .   X   . O+&#o .   ..    .         XXXX  X",
"+        .    XXX .      XX  . O+@#o .   ..    .          XX   X",
"+X       ..         . ...    . O+Ooo   .        ....   XXX     X",
"+X .+&+.... .  .      ..  +$+. O+ooo+&+.  X     ....   XX +X+  X",
"+X #+=+o        . X  .... +=+. O+o.#+=+o   XX     .   .X  +=%  X",
"+  oo#oo    .   .XXX  ...      O+o.oo#ooX   X  .  . . .X  $$X .X",
"+O  ooo..      XXXXX  .    .  ..+.  ooo. ..    ...  .     X*   X",
"+O     ..      XX XX  .   ..  ..+.  .  X . .  ..-.  .      $   X",
"+o.   . ..   . .  XXX . . .    O+..   X    .  ...... .   X X   X",
"+o.     ..   ....     . . .    O+..        .  -....  .   X X   X",
"+X .    .  .     .     ...     O+O        . . .....  XX X  X . X",
"+  .    .       .. .   ...     O+O        . . . ...  XXXX    . X",
"+  .       .XX  .  .. . .      X+O    .      .......  XX   .   .",
"+X .   .      XX   ..   .      X+O    .      ... ...X XXX      o",
"+X.         XXXX.   ... ....   X+o.   ...     .. . . XXXX      X",
"+X  +$+ .   X       .. ...+&+  X+o. +X+.     ..  .    X   +X+. X",
"+X  +=+....   ..    .     +=+.  +X..+=+ ..  X .  . . XX   +=+  X",
"+X..    ...   ..    .    .%%%  O+X .o#o ..  X .. . .   . X     X",
"+....   .     ........     ... O+   .o...     ......     .     .",
"+.. .   .     .. .. .  . . ..  O+O.. ....      .... X .  .     o",
"+X  ....     .  ....... .  .   O+....  .. .    ...  X  .   .   X",
"+X  ....        ......  .  .   O+.. . . .    .  ..  XX ..      X",
"+..   ....          ..    ......+..            ...      .     .X",
"+..   .. .       . . .  .  .....+..  ....      ...      .     .X",
"+X .          .  .   .       ...+o....       .  ..          .. X",
"+X               .   .      ....+....           ..          .  X",
"+X .+X+      .       . .  +X+  .+.. +&+     ..  .  . ... .+&+. X",
"+X .+=+      .       . .  +=+ ..+o. +=+.  . .   .. . ... #+=+o X",
"+X  o#o      .  .    .    .    O+X  %%%. .   .    ..  .  oo#oo X",
"+X  .o..  .  .           .. .  O+X   ..      . .  ..  .   ooo. X",
"+X     ..                  .   X+   .. . .        . ...    .   .",
"+X .    .             .    .   X+   .. . .        . ...    .   o",
"+X   ..              ..  .     X+X  ..   ...      .  .   ...   X",
"+X   ..   X          ..    .  .X+X  ..   . .      . ..    .    X",
"+X   .    .                 .   +X     .  . ....   .. .        X",
"+X .   .        .  .   .       O+X     .. .   ..    . .        X",
"+X .     ..  .       ...      ..+$   ..  .    .  ..    . ..    X",
"+X .+X+  .. .. +&+ . ...  +X+ ..+$  +&+ ....  .+$+     . .+X+  X",
"+  .+=+        +=+. ....  +=+. .+$  +=+   .    +=+.      .+=+  X",
"+.  .      .     ..  ...       .+X.  .    .       .          . X",
"+OOOOOOOOOOOOOO..O......OOOOOOOO+.OOO..OOOOOO.OOOOOOO.OOOOOOO.OO",
"++++++++++++++++++++++++++++++++++++++++++++++++++++++++++++++++",
"+@@$$$OOXX#&:&# OX OOOOoX OO@@o.+&&@@@OOXOOOOOX OX OOOOoXXXX..@@",
"+@    ..  .o#o. .   . ..  . ooo.+&    ..      .ooo. . ..   . . @",
"+$  +&+. .  .. +$+ ..     +$+. X+@  +&+. .   .o+$+o..     +$+  X",
"+$  +=+. . . ..+=+        +=+. X+@  +=+. . . ..;=;#       +=+  X",
"+$ . ..  ..          ...   . ..X+@ . ..  ..   .o#oo  .....o#o. X",
"+X . .         .. .  ...      ..+@ . .         .oo.  ... ..o.. X",
"+X  .  . ...  .     ...   .  ...+@  .  . ...  . .   ... ..     X",
"+X     .  .. .      ...      ...+@     .  .. .      ... ..  .  X",
"+X  XXX   . .  . .   . ...     o+,        . .  . .   . . . ... X",
"+O  XXXX  . .   ... .  ... XX .o+#     X  . .   ... .  . .  .  .",
"+..   XX  ...    ..  XX .. XX .o+#.    XX ...    ..  .       ...",
"+..  . XX ...X   ..   XX.    ...+#.  .  X ... XX ..     X    . o",
"+X  .         X ..... XX     . O+o  .   X  XXXX ..... .XX   . .X",
"+X .   .          ... X.    .. O+o .   .    X     ...  .X  .  .X",
"+X  +$+.  . . ...    X    +$+ .O+X  +X+.  . . ... X      .+&+. X",
"+X  +=+   ... ...     . ..+=+  X+X  +=+   ... ... XX  .  #+=+o.X",
"+X     .   . ...    .  ....    X+X     .   . ...  X .  . oo#oo X",
"+X   .. .    ...   .. ..  .    X+X   .. .    ...   .. ..  ooo..X",
"+X      ..    ..   .  .. ...   X+X      ..    ..   .  ..  .  . X",
"+X  .   .   . .. ...  .. ...   X+X  .   .   . .. ...  ..  .   ..",
"+X .      . .  .........  ..    +X .      . .  ......... ..... .",
"+X..    . .. . .... .. .   ....O+X..    . .. . ....... .  ..   o",
"+o.    X..   X  ... . ...    . O+o.     ..      ... . .. ..   .o",
"+o..   XX.  XX  ... . ...     .o+o..     .      ... . .. .     o",
"+.. .     .  .  ...   ..  .    .+.. .     .  .  ...   ..       X",
"+O .+&+.  .  . . .. . .   +&+  O+O  +&+   .  . . .. . .  .+X+  X",
"+X #+=+o   ..        ..  .+=+  X+X  +=+    ..        ..  .+=+ .X",
"+X oo#oo ...    XX  ...  .  .  X+X       ...        ...    . ..X",
"+.. ooo. .. .  XX   .   . .   .X+.. ..   .. . XX    .    .. .  X",
"+.   .. ...    XXX     ..  X ..X+.   .. ...   XX       .  .... X",
"+o.     ....    XXXXX.    XX . X+o.     ....  XXX    .    .    X",
"+..     ....         .       . X+..     ....   XX    .  .      X",
"+.. ....   ....     .   . .. . X+.. ....   ....     .          X",
"+.. ...    .  .. ....   .  ..  X+.. ...    .  .. ....     ...  X",
"+O   .. .     .....    ...     X+O   .. .     .....    .. ..   X",
"+O  .. ....    ... .  ....      +O  .. ....    ... .  .....  . X",
"+O  ..  ...  . .. . .  ...  ...O+O  ..  ...  . .. . .  .  . .. X",
"+O. +&+    . . ..  ..   ..+&+..O+O. +X+    . . ..  ..     +X+..X",
"+o. +=+  ..    ...   ..  #+=+o X+o. +=+  ..    ...   ..   +=+  X",
"+..  .   .  .  ... .. .  oo#oo X+.. o#o  .  .  ... .. .   ..   .",
"+O . . ..  . ...  ..  .   ooo. X+O ..o...  . ...  ..  .  . . . .",
"+O   . . .  ....  .   .  . .   X+O   . . .  ....  .   .   ......",
"+X .  ..  .... .  .      ....  X+X .  ..  .... .  .     .... ...",
"+X .       .     ..   .. .. .   +X .       .     ..   .....   ..",
"+  .          .  ... . .  ...   +  .          .  ... . ..     .o",
"+O .        ...  ..  ..   .    X+O .        ...  ..  .. .  .  .o",
"+o.  .   .   ..        .  . ....+o.  .   .   ..        .     ..o",
"+o       ..          . .    .. .+o  .#o. ..          . .       o",
"+o..+&+       .        .  +&+...+o...X+#      .        .  +X+  X",
"+o..+=+ .    .. .     ....+=+...+o.o+=+#.    .. .     ... +=+  X",
"+o..  .. .    ..    .  . . . . O+o..o##o .    ..    .  .  .    .",
"+..   .. .    .      . .   ... X+..  oo. .    .      . .  ..   .",
"+O    ....    .    .     .   . X+O    ...     .    .    .   .  .",
"+O   .. .  .. .    .      . ..  +O    ...  .  .    .    .     .o",
"+O ......   ....   .    .   .. O+O ...      . ..   .    ..    .X",
"+O ... .     ...   .   ... ....O+X ......    . .   .   ...     X",
"+@..    .          ......   .  O+X.   . .    ..  ...  ..   .. .X",
"+... .   .           ...    .  O+X.   ...     .  . ..  .   .   .",
"+.   ..  .   .. .         . .  X+X    .  .   ..... . . . .  .  .",
"+.  +&+  ..   .+&+ .   .. +&+  X+@  +&+ .    ..+X+ . . . .+X+  o",
"+.  +=+   ..   +=+  .. . .+=+. X+@  +=+ .  .   +=+.. .. ..+=+  @",
"+. . .  .. .          ..       @+.  . .    .   o#o.. .. .     .@",
"OOOOOOOOOOOO.OOOOOOOOO..OOO.O...+@@@...OOOO.OOO.o..OOOO.OO.OOOOO",
"++++++++++++++++++++++++++++++++++++++++++++++++++++++++++++++++"
};
