/* XPM */
static char *MIDGRATE[] = {
/* columns rows colors chars-per-pixel */
"128 128 37 1 ",
"  c cyan",
". c #434343",
"X c #533F2F",
"o c #373F27",
"O c gray28",
"+ c #4F3B23",
"@ c #474F33",
"# c gray39",
"$ c #4B4B4B",
"% c #775F4B",
"& c gray31",
"* c #7B634F",
"= c #5F4B37",
"- c #53573B",
"; c #5B472B",
": c #6F6F6F",
"> c #0B1707",
", c gray34",
"< c #574333",
"1 c #332B13",
"2 c #272727",
"3 c #2B230F",
"4 c #1B1B1B",
"5 c #2F2F2F",
"6 c #1F170B",
"7 c #232323",
"8 c #0B0B0B",
"9 c gray23",
"0 c #3F2F17",
"q c black",
"w c #373737",
"e c #070707",
"r c #13230B",
"t c #43331B",
"y c #170F07",
"u c #131313",
"i c #5B5B5B",
/* pixels */
"88888888888888888888888888888888888888888888888888888888888888888888888888888888888888888888888888888888888888888888888888888888",
"6u446444464644466666466646464446666646664646444666664666464644466666466646464446666646664646444666664666464644466666466646464446",
"44476674446747446776667444674744677666744467474467766674446747446776667444674744677666744467474467766674446747446776667444674744",
"777733733337ww77377377733337ww77377377733337ww77377377733337ww77377377733337ww77377377733337ww77377377733337ww77377377733337ww77",
"00273122313w37w731110143313w37w731110143313w37w731110143313w37w731110143313w37w731110143313w37w731110143313w37w731110143313w37w7",
"21273127339333253211002733933325321100273393332532110027339333253211002733933325321100273393332532110027339333253211002733933325",
"22323211193195219110252119319521911025211931952191102521193195219110252119319521911025211931952191102521193195219110252119319521",
"7525512191t4i9422920211391t4i9422920211391t4i9422920211391t4i9422920211391t4i9422920211391t4i9422920211391t4i9422920211391t4i942",
"222013324r1q24q1141111314r1q24q1141111314r1q24q1141111314r1q24q1141111314r1q24q1141111314r1q24q1141111314r1q24q1141111314r1q24q1",
"132333131814qq42622013111814qq42622013111814qq42622013111814qq42622013111814qq42622013111814qq42622013111814qq42622013111814qq42",
"21211131r182215812221313r182215812221313r182215812221313r182215812221313r182215812221313r182215812221313r182215812221313r1822158",
"23211232t318128111321127t318128111321127t318128111321127t318128111321127t318128111321127t318128111321127t318128111321127t3181281",
"21311331103388212332121210338821233212121033882123321212103388212332121210338821233212121033882123321212103388212332121210338821",
"52123233r312122321213131r312122321213131r312122321213131r312122321213131r312122321213131r312122321213131r312122321213131r3121223",
"55202112523333135171211352333313517121135233331351712113523333135171211352333313517121135233331351712113523333135171211352333313",
"46666663666666664666666466666666466666646666666646666664666666664666666466666666466666646666666646666664666666664666666466666666",
"eye794e888e8888888e794e888e8888888e794e888e8888888e794e888e8888888e794e888e8888888e794e888e8888888e794e888e8888888e794e888e88888",
"  4..46           4..46           4..46           4..46           4..46           4..46           4..46           4..46         ",
"  5570o           5570o           5570o           5570o           5570o           5570o           5570o           5570o         ",
"  1u$O6           1u$O6           1u$O6           1u$O6           1u$O6           1u$O6           1u$O6           1u$O6         ",
"  85#5e           85#5e           85#5e           85#5e           85#5e           85#5e           85#5e           85#5e         ",
"  7996u           7996u           7996u           7996u           7996u           7996u           7996u           7996u         ",
"  55u7w           55u7w           55u7w           55u7w           55u7w           55u7w           55u7w           55u7w         ",
"  14$-3           14$-3           14$-3           14$-3           14$-3           14$-3           14$-3           14$-3         ",
"  ywi58           ywi58           ywi58           ywi58           ywi58           ywi58           ywi58           ywi58         ",
"  7.946           7.946           7.946           7.946           7.946           7.946           7.946           7.946         ",
"  1065w           1065w           1065w           1065w           1065w           1065w           1065w           1065w         ",
"  1u@@0           1u@@0           1u@@0           1u@@0           1u@@0           1u@@0           1u@@0           1u@@0         ",
"  8w#58           8w#58           8w#58           8w#58           8w#58           8w#58           8w#58           8w#58         ",
"  79944           79944           79944           79944           79944           79944           79944           79944         ",
"  55455           55455           55455           55455           55455           55455           55455           55455         ",
"  1u.@u           1u.@u           1u.@u           1u.@u           1u.@u           1u.@u           1u.@u           1u.@u         ",
"  y1%58           y1%58           y1%58           y1%58           y1%58           y1%58           y1%58           y1%58         ",
"  49+uu           49+uu           49+uu           49+uu           49+uu           49+uu           49+uu           49+uu         ",
"  5540w           5540w           5540w           5540w           5540w           5540w           5540w           5540w         ",
"  1u&O4           1u&O4           1u&O4           1u&O4           1u&O4           1u&O4           1u&O4           1u&O4         ",
"  y1*58           y1*58           y1*58           y1*58           y1*58           y1*58           y1*58           y1*58         ",
"  6w963           6w963           6w963           6w963           6w963           6w963           6w963           6w963         ",
"  1545w           1545w           1545w           1545w           1545w           1545w           1545w           1545w         ",
"  7u=O7           7u=O7           7u=O7           7u=O7           7u=O7           7u=O7           7u=O7           7u=O7         ",
"  y1%58           y1%58           y1%58           y1%58           y1%58           y1%58           y1%58           y1%58         ",
"  49+uu           49+uu           49+uu           49+uu           49+uu           49+uu           49+uu           49+uu         ",
"  5540w           5540w           5540w           5540w           5540w           5540w           5540w           5540w         ",
"  1u&O4           1u&O4           1u&O4           1u&O4           1u&O4           1u&O4           1u&O4           1u&O4         ",
"  y1*58           y1*58           y1*58           y1*58           y1*58           y1*58           y1*58           y1*58         ",
"  6w963           6w963           6w963           6w963           6w963           6w963           6w963           6w963         ",
"  1545w           1545w           1545w           1545w           1545w           1545w           1545w           1545w         ",
"  7u=O7           7u=O7           7u=O7           7u=O7           7u=O7           7u=O7           7u=O7           7u=O7         ",
"  e5:5e           e5:5e           e5:5e           e5:5e           e5:5e           e5:5e           e5:5e           e5:5e         ",
"  3++63           3++63           3++63           3++63           3++63           3++63           3++63           3++63         ",
"  716t7           716t7           716t7           716t7           716t7           716t7           716t7           716t7         ",
"  16;X3           16;X3           16;X3           16;X3           16;X3           16;X3           16;X3           16;X3         ",
"  y1%58           y1%58           y1%58           y1%58           y1%58           y1%58           y1%58           y1%58         ",
"  49+uu           49+uu           49+uu           49+uu           49+uu           49+uu           49+uu           49+uu         ",
"  5540w           5540w           5540w           5540w           5540w           5540w           5540w           5540w         ",
"  1u&O4           1u&O4           1u&O4           1u&O4           1u&O4           1u&O4           1u&O4           1u&O4         ",
"  y1*58           y1*58           y1*58           y1*58           y1*58           y1*58           y1*58           y1*58         ",
"  6w963           6w963           6w963           6w963           6w963           6w963           6w963           6w963         ",
"  1545w           1545w           1545w           1545w           1545w           1545w           1545w           1545w         ",
"  7u=O7           7u=O7           7u=O7           7u=O7           7u=O7           7u=O7           7u=O7           7u=O7         ",
"  e5:5e           e5:5e           e5:5e           e5:5e           e5:5e           e5:5e           e5:5e           e5:5e         ",
"  3++63           3++63           3++63           3++63           3++63           3++63           3++63           3++63         ",
"  716t7           716t7           716t7           716t7           716t7           716t7           716t7           716t7         ",
"  16;X3           16;X3           16;X3           16;X3           16;X3           16;X3           16;X3           16;X3         ",
"...<XXX..tXXXXXoX.XXXXXX.tXXXXXoX.XXXXXX.tXXXXXoX.XXXXXX.tXXXXXoX.XXXXXX.tXXXXXoX.XXXXXX.tXXXXXoX.XXXXXX.tXXXXXoX.XXXXXX.tXXXXXo",
"13233313213112221220131121311222122013112131122212201311213112221220131121311222122013112131122212201311213112221220131121311222",
"22323211133195211110252113319521111025211331952111102521133195211110252113319521111025211331952111102521133195211110252113319521",
"75255121r1t4i94222202113r1t4i94222202113r1t4i94222202113r1t4i94222202113r1t4i94222202113r1t4i94222202113r1t4i94222202113r1t4i942",
"222013322r1q24q1121111312r1q24q1121111312r1q24q1121111312r1q24q1121111312r1q24q1121111312r1q24q1121111312r1q24q1121111312r1q24q1",
"132333135214qq42122013115214qq42122013115214qq42122013115214qq42122013115214qq42122013115214qq42122013115214qq42122013115214qq42",
"55202112523333135171211352333313517121135233331351712113523333135171211352333313517121135233331351712113523333135171211352333313",
"46636663666666664644666466666666464466646666666646446664666666664644666466666666464466646666666646446664666666664644666466666666",
"e4y3u476u6y3u47yuyy3u47yu6y3u47yuyy3u47yu6y3u47yuyy3u47yu6y3u47yuyy3u47yu6y3u47yuyy3u47yu6y3u47yuyy3u47yu6y3u47yuyy3u47yu6y3u47y",
"  64O-1           64O-1           64O-1           64O-1           64O-1           64O-1           64O-1           64O-1         ",
"  8w#58           8w#58           8w#58           8w#58           8w#58           8w#58           8w#58           8w#58         ",
"  4..46           4..46           4..46           4..46           4..46           4..46           4..46           4..46         ",
"  5570o           5570o           5570o           5570o           5570o           5570o           5570o           5570o         ",
"  1u$O6           1u$O6           1u$O6           1u$O6           1u$O6           1u$O6           1u$O6           1u$O6         ",
"  85#5e           85#5e           85#5e           85#5e           85#5e           85#5e           85#5e           85#5e         ",
"  7996u           7996u           7996u           7996u           7996u           7996u           7996u           7996u         ",
"  55u7w           55u7w           55u7w           55u7w           55u7w           55u7w           55u7w           55u7w         ",
"  14$-3           14$-3           14$-3           14$-3           14$-3           14$-3           14$-3           14$-3         ",
"  ywi58           ywi58           ywi58           ywi58           ywi58           ywi58           ywi58           ywi58         ",
"  7.946           7.946           7.946           7.946           7.946           7.946           7.946           7.946         ",
"  1065w           1065w           1065w           1065w           1065w           1065w           1065w           1065w         ",
"  1u@@0           1u@@0           1u@@0           1u@@0           1u@@0           1u@@0           1u@@0           1u@@0         ",
"  8w#58           8w#58           8w#58           8w#58           8w#58           8w#58           8w#58           8w#58         ",
"  79944           79944           79944           79944           79944           79944           79944           79944         ",
"  55u7w           55u7w           55u7w           55u7w           55u7w           55u7w           55u7w           55u7w         ",
"  14$-3           14$-3           14$-3           14$-3           14$-3           14$-3           14$-3           14$-3         ",
"  ywi58           ywi58           ywi58           ywi58           ywi58           ywi58           ywi58           ywi58         ",
"  7.946           7.946           7.946           7.946           7.946           7.946           7.946           7.946         ",
"  1065w           1065w           1065w           1065w           1065w           1065w           1065w           1065w         ",
"  1u@@0           1u@@0           1u@@0           1u@@0           1u@@0           1u@@0           1u@@0           1u@@0         ",
"  8w#58           8w#58           8w#58           8w#58           8w#58           8w#58           8w#58           8w#58         ",
"  79944           79944           79944           79944           79944           79944           79944           79944         ",
"  55455           55455           55455           55455           55455           55455           55455           55455         ",
"  1u.@u           1u.@u           1u.@u           1u.@u           1u.@u           1u.@u           1u.@u           1u.@u         ",
"  y1%58           y1%58           y1%58           y1%58           y1%58           y1%58           y1%58           y1%58         ",
"  49+uu           49+uu           49+uu           49+uu           49+uu           49+uu           49+uu           49+uu         ",
"  5540w           5540w           5540w           5540w           5540w           5540w           5540w           5540w         ",
"  1u&O4           1u&O4           1u&O4           1u&O4           1u&O4           1u&O4           1u&O4           1u&O4         ",
"  y1*58           y1*58           y1*58           y1*58           y1*58           y1*58           y1*58           y1*58         ",
"  6w963           6w963           6w963           6w963           6w963           6w963           6w963           6w963         ",
"  1545w           1545w           1545w           1545w           1545w           1545w           1545w           1545w         ",
"  7u=O7           7u=O7           7u=O7           7u=O7           7u=O7           7u=O7           7u=O7           7u=O7         ",
"  e5:5e           e5:5e           e5:5e           e5:5e           e5:5e           e5:5e           e5:5e           e5:5e         ",
"  3++63           3++63           3++63           3++63           3++63           3++63           3++63           3++63         ",
"  716t7           716t7           716t7           716t7           716t7           716t7           716t7           716t7         ",
"  16;X3           16;X3           16;X3           16;X3           16;X3           16;X3           16;X3           16;X3         ",
"  87.54           87.54           87.54           87.54           87.54           87.54           87.54           87.54         ",
"y2ww.94555ww.9955yww.94255ww.9955yww.94255ww.9955yww.94255ww.9955yww.94255ww.9955yww.94255ww.9955yww.94255ww.9955yww.94255ww.995",
"owwowww9555oooooowoowoow555oooooowoowoow555oooooowoowoow555oooooowoowoow555oooooowoowoow555oooooowoowoow555oooooowoowoow555ooooo",
"14521522532122213331511153212221333151115321222133315111532122213331511153212221333151115321222133315111532122213331511153212221",
"73531122211253211511112521125321151111252112532115111125211253211511112521125321151111252112532115111125211253211511112521125321",
"222213211137.,27322322211137.,27322322211137.,27322322211137.,27322322211137.,27322322211137.,27322322211137.,27322322211137.,27",
"t1223121313.22i73111t2r1313.22i73111t2r1313.22i73111t2r1313.22i73111t2r1313.22i73111t2r1313.22i73111t2r1313.22i73111t2r1313.22i7",
"51223122339332197111t122339332197111t122339332197111t122339332197111t122339332197111t122339332197111t122339332197111t12233933219",
"22323211153195215110252115319521511025211531952151102521153195215110252115319521511025211531952151102521153195215110252115319521",
"7525512171t4i9422720211371t4i9422720211371t4i9422720211371t4i9422720211371t4i9422720211371t4i9422720211371t4i9422720211371t4i942",
"222013324r1q24q1541111314r1q24q1541111314r1q24q1541111314r1q24q1541111314r1q24q1541111314r1q24q1541111314r1q24q1541111314r1q24q1",
"13233313q454qq454u201311q454qq454u201311q454qq454u201311q454qq454u201311q454qq454u201311q454qq454u201311q454qq454u201311q454qq45",
"21211131>q45t154q3221313>q45t154q3221313>q45t154q3221313>q45t154q3221313>q45t154q3221313>q45t154q3221313>q45t154q3221313>q45t154",
"232112323>q2t2wq>13211273>q2t2wq>13211273>q2t2wq>13211273>q2t2wq>13211273>q2t2wq>13211273>q2t2wq>13211273>q2t2wq>13211273>q2t2wq",
"2131133113q511wq3332121213q511wq3332121213q511wq3332121213q511wq3332121213q511wq3332121213q511wq3332121213q511wq3332121213q511wq",
"52123233r34512w431213131r34512w431213131r34512w431213131r34512w431213131r34512w431213131r34512w431213131r34512w431213131r34512w4",
"55202112534533543171211353453354317121135345335431712113534533543171211353453354317121135345335431712113534533543171211353453354",
"4663666366q444464644666466q444464644666466q444464644666466q444464644666466q444464644666466q444464644666466q444464644666466q44446"
};
