/* XPM */
static char *MODWALL4[] = {
/* columns rows colors chars-per-pixel */
"64 128 13 1 ",
"  c black",
". c #777777",
"X c #6F6F6F",
"o c gray34",
"O c gray50",
"+ c #5B5B5B",
"@ c #939393",
"# c #838383",
"$ c gray39",
"% c #4B4B4B",
"& c gray31",
"* c gray42",
"= c #434343",
/* pixels */
"oooooooo%=ooo+oooo+ooooo%oo%oooooooooooo%oo%ooo+o+ooo%oo%oo%oooo",
"o@@@@@@@@@@@@@@@@@@@@@@@@@@@@@@+o@@@@@@@@@@@@@@@@@@@@@@@@@@@@@@+",
"oOXXXX..XXX.oOX...O.....$.X#XO#+oOXXXX...X.oX$.O.O..XO..$.X#XO#+",
"oOXXXX..XX$X$O.O.X....O.$X.X.O.$oOXXXX...$$$X.OOXO..X...$X.X.O.$",
"oO.X.X...X$XXO..XXX...O.$X$X.##+oO.X.X...$$XX..OX..OXO..$X$X.##+",
"oO.X.XO..X$XX.XOXXX...O.$X$X.O.$oO.X.XO..$$X.XOOX..OXX..$X$X.O.$",
"o....X...$XXXXXXXXX.XX..$.X..#.oo....X..XX$XXXXOX..OX...$.X..#.o",
"o...#..ooooooooooooooooo&oX.X#.oo...#..oooooooo+ooo+o+oo&oX.X#.o",
"o...OOOo                 o.XX#.+o...OOOo                 o.XX#.+",
"oO...OOo                 o.XX#.$oO...OOo                 o.XX#.$",
"oO..#.Oo                 o$XX#.+oO..#.Oo                 o$XX#.+",
"oO..O.Oo                 oX.XOX+oO..O.Oo                 oX.XOX+",
"oO....Oo                 oXX.OX+oO....Oo                 oXX.OX+",
"oO..#.Oo                 o$X.#X+oO..#.Oo                 o$X.#X+",
"oOXX..Oo                 o$X.OXooOXX..Oo                 o$X.OXo",
"oOXX..Oo                 +$X.OX+oOXX..Oo                 +$X.OX+",
"oOX.O.Oo                 oX.X.X+oOX.O.Oo                 oX.X.X+",
"oOX.#.Oo                 oX.X.XooOX.#.Oo                 oX.X.Xo",
"oO....O+                 oX.X#.ooO....O+                 oX.X#.o",
"oO..XXOo                 o$XX#.ooO..XXOo                 o$XX#.o",
"oO...XOo                 oX.X#.+oO...XOo                 oX.X#.+",
"oO...XOo                 o..X#.$oO...XOo                 o..X#.$",
"oO....Oo                 o...#.+oO....Oo                 o...#.+",
"oO..X.Oo                 o..OOX+oO..X.Oo                 o..OOX+",
"oO..X.Oo                 o...#X+oO..X.Oo                 o...#X+",
"oO....Oo                 +XX..X+oO....Oo                 +XX..X+",
"oOXX...o                 +XX..XooOXX...o                 +XX..Xo",
"oOXX...o                 o.X..X+oOXX...o                 o.X..X+",
"o.X.X..o                 oXXX.X+o.X.X..o                 oXXX.X+",
"oO...XXo                 oXX...ooO...XXo                 oXX...o",
"o...X.Xo                 o$X..Xoo...X.Xo                 o$X..Xo",
"o...O#Xo                 oXX...+o...O#Xo                 oXX...+",
"oOXXO..o                 oXX...ooOXXO..o                 oXX...o",
"oOXX...o                 oXX...ooOXX...o                 oXX...o",
"oOXX.XOo                 oXX...ooOXX.XOo                 oXX...o",
"oO.X.X.o                 oXX...ooO.X.X.o                 oXX...o",
"oOXX.X#o                 oXXX..+oOXX.X#o                 oXXX..+",
"+OOX.X.o                 o$.X#X++OOX.X.o                 o$.X#X+",
"oO...X.o                 o$.X#.+oO...X.o                 o$.X#.+",
"oO.X.X.+                 oXOX#.+oO.X.X.+                 oXOX#.+",
"oO.X...+                 o.O.#.ooO.X...+                 o.O.#.o",
"oOX..X.+                 o.OX#.ooOX..X.+                 o.OX#.o",
"oO.O.X.+                 o.X.#.ooO.O.X.+                 o.X.#.o",
"+OXO.O.o                 o.$X..++OXO.O.o                 o.$X..+",
"o.X...Oo                 o.$XO.+o.X...Oo                 o.$XO.+",
"+.X..OOo                 o.$X#Oo+.X..OOo                 o.$X#Oo",
"oOX#X.Oo                 +.XX#O+oOX#X.Oo                 +.XX#O+",
"o..X..Oo                 +.XX#O+o..X..Oo                 +.XX#O+",
"o.XX..Oo                 o..X#O+o.XX..Oo                 o..X#O+",
"o.XX..Oo                 o.OX#O+o.XX..Oo                 o.OX#O+",
"oO...OO&                 o..X#O+oO...OO&                 o..X#O+",
"oOO.XOO&                 o...#O+oOO.XOO&                 o...#O+",
"oO.XX.Oo                 o...#O+oO.XX.Oo                 o...#O+",
"oOOXX.O+                 o..O#O+oOOXX.O+                 o..O#O+",
"oOXXX.Oo                 o.X.#.ooOXXX.Oo                 o.X.#.o",
"oO..X.Oo                 o...#.ooO..X.Oo                 o...#.o",
"oO.X.XOo                 &...#.+oO.X.XOo                 &...#.+",
"o.X..XO@@O@@@@@@@@@@@@@#@@.#X#O+o.X..XO@@@@@@@#@@@#@@@@@@@.#X#O+",
"o.X..XO.X.$XXO.....O..X$....X#O+o.X..XO.XX.XX.*OX.*.O.OX....X#O+",
"oOXXXX..XXXX..X.OX.OXXXX...X$OO$oOXXXX..X.XXXX*OX.*.O..X...X$OO$",
"o.XX....$X.X.XXXO..O...XX..OXXO%o.XX....XXXoX.*O...XOX.XX..OXXO%",
"o.X$...O$X.$X.X.O..O...X.X.O.XOoo.X$...OXX.$$.*O....OX.$.X.O.XOo",
"oOX..X..$X.X.#X.OX..XX.....O.XOooOX..X..X$X$$.*O....O.X$...O.XOo",
"o$oooo++oo+%o$+o$o++++++$++$+o$oo$oooo++o%o%o+o$ooo+$oo%$++$+o$o",
"oooooooo%=ooo+oooo+ooooo%oo%oooooooooooo%oo%ooo+o+ooo%oo%oo%oooo",
"o@@@@@@@@@@@@@@@@@@@@@@@@@@@@@@+o@@@@@@@@@@@@@@@@@@@@@@@@@@@@@@+",
"oOXXXX..XXX.oOX...O.....$.X#XO#+oOXXXX...X.oX$.O.O..XO..$.X#XO#+",
"oOXXXX..XX$X$O.O.X....O.$X.X.O.$oOXXXX...$$$X.OOXO..X...$X.X.O.$",
"oO.X.X...X$XXO..XXX...O.$X$X.##+oO.X.X...$$XX..OX..OXO..$X$X.##+",
"oO.X.XO..X$XX.XOXXX...O.$X$X.O.$oO.X.XO..$$X.XOOX..OXX..$X$X.O.$",
"o....X...$XXXXXXXXX.XX..$.X..#.oo....X..XX$XXXXOX..OX...$.X..#.o",
"o...#..ooooooooooooooooo&oX.X#.oo...#..oooooooo+ooo+o+oo&oX.X#.o",
"o...OOOo                 o.XX#.+o...OOOo                 o.XX#.+",
"oO...OOo                 o.XX#.$oO...OOo                 o.XX#.$",
"oO..#.Oo                 o$XX#.+oO..#.Oo                 o$XX#.+",
"oO..O.Oo                 oX.XOX+oO..O.Oo                 oX.XOX+",
"oO....Oo                 oXX.OX+oO....Oo                 oXX.OX+",
"oO..#.Oo                 o$X.#X+oO..#.Oo                 o$X.#X+",
"oOXX..Oo                 o$X.OXooOXX..Oo                 o$X.OXo",
"oOXX..Oo                 +$X.OX+oOXX..Oo                 +$X.OX+",
"oOX.O.Oo                 oX.X.X+oOX.O.Oo                 oX.X.X+",
"oOX.#.Oo                 oX.X.XooOX.#.Oo                 oX.X.Xo",
"oO....O+                 oX.X#.ooO....O+                 oX.X#.o",
"oO..XXOo                 o$XX#.ooO..XXOo                 o$XX#.o",
"oO...XOo                 oX.X#.+oO...XOo                 oX.X#.+",
"oO...XOo                 o..X#.$oO...XOo                 o..X#.$",
"oO....Oo                 o...#.+oO....Oo                 o...#.+",
"oO..X.Oo                 o..OOX+oO..X.Oo                 o..OOX+",
"oO..X.Oo                 o...#X+oO..X.Oo                 o...#X+",
"oO....Oo                 +XX..X+oO....Oo                 +XX..X+",
"oOXX...o                 +XX..XooOXX...o                 +XX..Xo",
"oOXX...o                 o.X..X+oOXX...o                 o.X..X+",
"o.X.X..o                 oXXX.X+o.X.X..o                 oXXX.X+",
"oO...XXo                 oXX...ooO...XXo                 oXX...o",
"o...X.Xo                 o$X..Xoo...X.Xo                 o$X..Xo",
"o...O#Xo                 oXX...+o...O#Xo                 oXX...+",
"oOXXO..o                 oXX...ooOXXO..o                 oXX...o",
"oOXX...o                 oXX...ooOXX...o                 oXX...o",
"oOXX.XOo                 oXX...ooOXX.XOo                 oXX...o",
"oO.X.X.o                 oXX...ooO.X.X.o                 oXX...o",
"oOXX.X#o                 oXXX..+oOXX.X#o                 oXXX..+",
"+OOX.X.o                 o$.X#X++OOX.X.o                 o$.X#X+",
"oO...X.o                 o$.X#.+oO...X.o                 o$.X#.+",
"oO.X.X.+                 oXOX#.+oO.X.X.+                 oXOX#.+",
"oO.X...+                 o.O.#.ooO.X...+                 o.O.#.o",
"oOX..X.+                 o.OX#.ooOX..X.+                 o.OX#.o",
"oO.O.X.+                 o.X.#.ooO.O.X.+                 o.X.#.o",
"+OXO.O.o                 o.$X..++OXO.O.o                 o.$X..+",
"o.X...Oo                 o.$XO.+o.X...Oo                 o.$XO.+",
"+.X..OOo                 o.$X#Oo+.X..OOo                 o.$X#Oo",
"oOX#X.Oo                 +.XX#O+oOX#X.Oo                 +.XX#O+",
"o..X..Oo                 +.XX#O+o..X..Oo                 +.XX#O+",
"o.XX..Oo                 o..X#O+o.XX..Oo                 o..X#O+",
"o.XX..Oo                 o.OX#O+o.XX..Oo                 o.OX#O+",
"oO...OO&                 o..X#O+oO...OO&                 o..X#O+",
"oOO.XOO&                 o...#O+oOO.XOO&                 o...#O+",
"oO.XX.Oo                 o...#O+oO.XX.Oo                 o...#O+",
"oOOXX.O+                 o..O#O+oOOXX.O+                 o..O#O+",
"oOXXX.Oo                 o.X.#.ooOXXX.Oo                 o.X.#.o",
"oO..X.Oo                 o...#.ooO..X.Oo                 o...#.o",
"oO.X.XOo                 &...#.+oO.X.XOo                 &...#.+",
"o.X..XO@@O@@@@@@@@@@@@@#@@.#X#O+o.X..XO@@@@@@@#@@@#@@@@@@@.#X#O+",
"o.X..XO.X.$XXO.....O..X$....X#O+o.X..XO.XX.XX.*OX.*.O.OX....X#O+",
"oOXXXX..XXXX..X.OX.OXXXX...X$OO$oOXXXX..X.XXXX*OX.*.O..X...X$OO$",
"o.XX....$X.X.XXXO..O...XX..OXXO%o.XX....XXXoX.*O...XOX.XX..OXXO%",
"o.X$...O$X.$X.X.O..O...X.X.O.XOoo.X$...OXX.$$.*O....OX.$.X.O.XOo",
"oOX..X..$X.X.#X.OX..XX.....O.XOooOX..X..X$X$$.*O....O.X$...O.XOo",
"o$oooo++oo+%o$+o$o++++++$++$+o$oo$oooo++o%o%o+o$ooo+$oo%$++$+o$o"
};
