/* XPM */
static char *NUKEPOIS[] = {
/* columns rows colors chars-per-pixel */
"128 128 51 1 ",
"  c #3F2F17",
". c #1B1B1B",
"X c #2F6323",
"o c #27531B",
"O c #D7BB43",
"+ c #37732B",
"@ c #1F4317",
"# c #C39B2F",
"$ c #3F832F",
"% c #874307",
"& c #AF7B1F",
"* c #17330F",
"= c #9B5B13",
"- c #439337",
"; c #4B9F3F",
": c #732B00",
"> c #53AF47",
", c #2F2F2F",
"< c #5BBF4F",
"1 c #5FCF57",
"2 c #332B13",
"3 c #4B371B",
"4 c #533F1F",
"5 c #43331B",
"6 c #2B230F",
"7 c #4F3B23",
"8 c #5B472B",
"9 c #373F27",
"0 c #5F4323",
"q c #533F2F",
"w c #5F4B37",
"e c #474F33",
"r c #574333",
"t c #67533F",
"y c #6F6F6F",
"u c #6F5743",
"i c #676B4F",
"p c #5B6347",
"a c #53573B",
"s c #6B4727",
"d c #775F4B",
"f c #3F472B",
"g c #6F7357",
"h c #7B634F",
"j c #836B57",
"k c #675333",
"l c #777777",
"z c #272727",
"x c #1F170B",
"c c #232323",
"v c #774F2B",
/* pixels */
" 3     3  32   222203324 423 2    63   2264 2   32 2    3  432  32 2    3  432   3     3  32   222203q58iewawe3 22203324 423 2  ",
"3643 366 3 2 2 2 4  24 23   2 42  2   2 3232    323 4 330244 0  323 4 330244 0  3643 366 3 2 2 2 4  77t8dypphr32 4  24 23   2 42",
"36324        2  23     6    2   3  242  43  233 34333244 324334334333244 324334336324        2  23  qwaqiydkhr5 23     6    2   ",
"4323 343   3 33 324 23423223 2  4        4  343 0030  4  043 4 30030  4  043 4 34323 343   3 33 324 rap8iyttte5 324 23423223 2  ",
" 70 3333303 0 4 2 432333   4 2  32323 3 336  42 43243    3 434 443243    3 434 4 70 3333303 0 4 2 438uk7jyitde5 2 432333   4 2  ",
"  6  32334334 4 3 43 3 323 43 23 4  323 2 6   43332333342394 233332333342394 233  6  32334334 4 3 433eewjlu5uq533 43 3 323 43 23",
"22  3 0 33   4 63 343 2  3  43 3   0 33 22     3       24 73 42        24 73 42 22  3 0 33   4 63 343weegld2e3533 343 2  3  43 3",
" 24 3 23243     342 342 23     323 04 3  220      3 3  44  3 2 3  3 3  44  3 2 3 24 3 23243     342 3wtwjyw5p753342 342 23     3",
" 333  3034  3  34  323 323 2324 3 3   32 2 323   3  33303233 23  3  33303233 23  333  3034  3  34  358t8gytq875 4  323 323 2324 ",
"  3  4 333   322 23 234 2   3 3 322     2  3 4  4  34323 3   3  4  34323 3   3    3  4 333   322 23 55w8hyu88 5  23 234 2   3 3 ",
" 4   3232 3   3  20 2 333  33   3 3  3       3233    3   3 3  233    3   3 3  23 4   3232 3   3  20 558tgypw8    20 2 333  33   ",
"3   0      3 32 3  43      2332 32     32 33 22  33   3 44 3     33   3 44 3    3   0      3 32 3  43588it7u83  3  43      2332 ",
"3  4 2 3 3  0  30  43 22   33  242 3 4     3 32  3   43 3334 3 3 3   43 3334 3 33  4 2 3 3  0  30  438q8iu8eq  20  43 22   33  2",
"4  4 3  333 44233323  4  3   2    3   03 4    32 44 333 3 2423   44 333 3 2423  4  4 3  333 44233323 237dwqar2  3323  4  3   2  ",
"3  3   3  03  4     3 3  3 2      0        4 333243  3  2    323243  3  2    3233  3   3  03  4     3q5qip88q       3 3  3 2    ",
"2      3 203  33 2  332    344  2 04      2  3 3  3 3   2 3 03    3 3   2 3 03  2      3 203  33 2  3555up85q45  2  332    344  ",
"6 2 3223 3    3           33243 2 332 32   3333    42  3 3  4  3   42  3 3  4  36 2 3223 3    3      r32uiaeq45           33243 ",
"   3    3  33 3         2       2324  33      3   3  323334 0 32  3  323334 0 32   3    3  33 3      7758t7wq           2       ",
"4 3       4s323   3 4     0202  3   3      4  2 3343   30 4    33343   30 4    34 3       4s323   3 45788taaq2    3 4     0202  ",
"  4  33  33     0   23  43   3      4 44 2 422  3  33  33 4 4 343  33  33 4 4 34  4  33  33     0   2535wu7743  0   23  43   3  ",
"2 33 24  4 34  33 42    3 32 4 2  2   s 22   6  3 4024 332s2s 203 4024 332s2s 202 33 24  4 34  33 42 553rr2844 23 42    3 32 4 2",
"2 2   3  3 3 40    2  4    22  3 23 3 43 2 7323   3   23 3320 2   3   23 3320 2 2 2   3  3 3 40    2 553rr287  3   2  4    22  3",
"233223        3        922    232 3 32v22  f 2323244 2 332420 2 3244 2 332420 2 233223        3      2555r583 23       922    23",
" 3 323223  3233           2 2    2   33 5 27 3   240     3  33 2 240     3  33 2 3 323223  3233      553qfq35             2 2   ",
" 43   2 63 33 3 2      96   22  2 3323     7 6    3  q3 4   332   3  q3 4   332  43   2 63 33 3 2    2332r7752  2      96   22  ",
"23 2  9 22  20 2   2 24 2   26022 29  4   333 22  3 4f 6s4  0     3 4f 6s4  0   23 2  9 22  20 2   2 2338wrq5602   2 24 2   2602",
"2  222  6 3  3  2       22 4 2 2      4  242    3 3 37 002 33   3 3 37 002 33   2  222  6 3  3  2    5535wrq52 22       22 4 2 2",
"       2   202 3 2  2 33  336 3 2     3   32642    3 7 3 2 3 3     3 7 3 2 3 3         2   202 3 2  25535wrq5 3  2  2 33  336 3 ",
" 5  3   2 2 3   22     2 923 332   3  34   2 322    32 4 2 33       32 4 2 33    5  3   2 2 3   22     5 r73533222     2 923 332",
"6   223  2323 24   3       32   2    2    6 3  3     2 323  4322     2 323  43226   223  2323 24   3     q35       3       32   ",
" 3    3  2324  4        23   2  2  3 2322 2  22      9 463  3 2      9 463  3 2  3    3  2324  4        2r55            23   2  ",
" 9 3  5   2  3  2 2 2 596  2  9       3  323 2 223   f        3 23   f        3  9 3  5   2  3  2 2 2 556r55  9 2 2 2 596  2  9 ",
"233  2  3    3 2  2   272 2   23 22   3 32 3  62 33 2   2  33    33 2   2  33   233  2  3    3 2  2   272r55  23  2   272 2   23",
" 3     3  32   222203324 423 2    63   2264 2   32 2    3  432     32    32  3 2 33 2    23  23  2    64 f5 3224 2    64 2  3224",
"3643 366 3 2 2 2 4  24 23   2 42  2   2 3232    323 4 330244 0    33 433  32 3  34    2 6  2242 22    2 6552 2  22    2 6 22 2  ",
"36324        2  23     6    2   3  242  43  233 34333244 3243343634   24 93          22 22322  22 222  9695 2 232 222  962  2 23",
"4323 343   3 33 324 23423223 2  4        4  343 0030  4  043 4 32  2  226 3 3   2  23 3 22 22 4 6 2    2255   226 2    22     22",
" 70 3333303 0 4 2 432333   4 2  32323 3 336  42 43243    3 434 4 3 2  222         3  4  2 32323 2 2 62  655 22222 2 62  6   2222",
"  6  32334334 4 3 43 3 323 43 23 4  323 2 6   43332333342394 233      23   2   3 3   02 23  29 2   2  292q         2  2923      ",
"22  3 0 33   4 63 343 2  3  43 3   0 33 22     3       24 73 42  2  2 9  2      32 3 23 2 22233 2 2  36 65  23222 2  36 6   2322",
" 24 3 23243     342 342 23     323 04 3  220      3 3  44  3 2 3  2 2  2  2 3 22  4 2 3 232   322 2322226q2362 22 232222632362 2",
" 333  3034  3  34  323 323 2324 3 3   32 2 323   3  33303233 23  33264   2 2 26423 2 23 2 23  26 22    2 5  2232 22    2    2232",
"  3  4 333   322 23 234 2   3 3 322     2  3 4  4  34323 3   3  2332  363233    6    6232 3  3 3       2 5 3 242       2   3 242",
" 4   3232 3   3  20 2 333  33   3 3  3       3233    3   3 3  23 3   3   2    2222     32 23 4   2    29 5 22 2  2    29   22 2 ",
"3   0      3 32 3  43      2332 32     32 33 22  33   3 44 3     23 2  32 372  2   222 36 2324   2     3 2 3222  2     3 2 3222 ",
"3  4 2 3 3  0  30  43 22   33  242 3 4     3 32  3   43 3334 3 3273 2   23        22 2 3       4   2  2  326  22   2  2  326  22",
"4  4 3  333 44233323  4  3   2    3   03 4    32 44 333 3 2423      2 2 9     223 23 32 2 24  342    22 2   22 22    22 2   22 2",
"3  3   3  03  4     3 3  3 2      0        4 333243  3  2    3232   27 2 4 3 2 2723  3 2323 33   222 29  26 2233 222 29  26 2233",
"2      3 203  33 2  332    344  2 04      2  3 3  3 3   2 3 03   332   2 4 3232 2s 32  3 3 2 2      2 4 3 226 3     2 4 3 226 3 ",
"6 2 3223 3    3           33243 2 332 32   3333    42  3 3  4  3   6   22 4 32   33 22   3       3 2  92 3  23   3 2  92 3  23  ",
"   3    3  33 3         2       2324  33      3   3  323334 0 32 33 z 2 22 4 2  3233   6    3  3  22 272   6223   22 272   6223 ",
"4 3       4s323   3 4     0202  3   3      4  2 3343   30 4    33 22     233 22   3 2 323222 2 3 2    96 222 2 6 2    96 222 2 6",
"  4  33  33     0   23  43   3      4 44 2 422  3  33  33 4 4 346  23    2     22 22 2  2 22 6   6    2  2 2  22 6    2  2 2  22",
"2 33 24  4 34  33 42    3 32 4 2  2   s 22   6  3 4024 332s2s 20  225  4 22    26  23  22  2  36  222 26   22 22  222 26   22 22",
"2 2   3  3 3 40    2  4    22  3 23 3 43 2 7323   3   23 3320 2 32 622   2 2 36  236  22  429   2 22    6  2 3 32 22    6  2 3 3",
"233223        3        922    232 3 32v22  f 2323244 2 332420 2 622  2 23   2 62  2222 2 6322  2   2  222  6332    2  222  6332 ",
" 3 323223  3233           2 2    2   33 5 27 3   240     3  33 2   6  223    362       2 2 3222  2 22  6 2 6 3 2 2 22  6 2 6 3 2",
" 43   2 63 33 3 2      96   22  2 3323     7 6    3  q3 4   332 42 62  64 22  6   2222   2  6 62 2 2   6   22  2 2 2   6   22  2",
"23 2  9 22  20 2   2 24 2   26022 29  4   333 22  3 4f 6s4  0   42 22 2 22 32  23 6222 632 2       2  32 22 24     2  32 22 24  ",
"2  222  6 3  3  2       22 4 2 2      4  242    3 3 37 002 33    3322 232 3 22262 2  2 633 20 23 2  22 2  2 62 2 2  22 2  2 62 2",
"       2   202 3 2  2 33  336 3 2     3   32642    3 7 3 2 3 3    2 2 2 224   22  2 32 22 23  2223 2    64 622 223 2    64 622 2",
" 5  3   2 2 3   22     2 923 332   3  34   2 322    32 4 2 33      6 2  x2  2 362   3  2 2 32323      5 22222223      5 22222223",
"6   223  2323 24   3       32   2    2    6 3  3     2 323  4322   23 2 2 2 2   62   2  922  22   2 52  2  326 2  2 52  2  326 2",
" 3    3  2324  4        23   2  2  3 2322 2  22      9 463  3 2  2223622 22  3222222     22 z323    2 3222 2  36    2 3222 2  36",
" 9 3  5   2  3  2 2 2 596  2  9       3  323 2 223   f        3   63   2264 2    222      2  22 2 92 222 36963  2 92 222 36963  ",
"233  2  3    3 2  2   272 2   23 22   3 32 3  62 33 2   2  33     2   2 3232       62  23  2  222 29   2   c2  22 29   2   c2  2",
" 33 2    23  23  2    64 2  32243   3 2 26   2 3   32    32  3 23  242  43  233 2 32  227 3229  2  52  2   2 2  2  52  2   2 2  ",
"34    2 6  2242 22    2 6 22 2  2332 24262 3 22   33 433  32 3  4        4  343 2  62 2226 32   2 2322 2 6232 322 2322 2 6232 32",
"     22 22322  22 222  962  2 23   22      2 222634   24 93     32323 3 336  42 22 2 2 29   2  6  99  32  932  2  99  32  932  2",
"2............................................................    4  323 2 6   433   66  2  239  2 6   26 2322  62 6   26 2322  6",
"..............................................................     0 33 22     3222  2      3 4  29 22223  2 26  29 22223  2 26 ",
".............................................................. 323 04 3  220      22 6 37 3    3ff 9     7      ff 9     7      ",
"....::%%%%%%%%%%%%%%%%%%%%%%%%%%%%%%%%%%%%%%%%%%%%%%%%%%::....  3 3   32 2 323  22203324 423 2   3     3  32   232 2    3  432  ",
"....:===========....:=:...:=..=:...=:...:=....:==========:....22322     2  3 4   4  24 23   2 423643 366 3 2 2 2323 4 330244 0  ",
"....:==&&&&&&&&&..&..&..&..&..&..&&&..&..=..&..&&&&&&&&=%:....643 3  3       32323     6    2   36324        2  34333244 3243343",
"6....%=&########....=#..#..#..#=..=#..#..=..#..########&%....   32     32 33 22 324 23423223 2  4323 343   3 33 0030  4  043 4 3",
"2.....=&#OOOOO#O..OO##..O..O..#OO..O..O..=..O..#OOOOO#&&..... 2242 3 4     3 32 2 432333   4 2   70 3333303 0 4 43243    3 434 4",
"  .....&#OOOOO#O..OO##=...=O..#...=O=...==..O..#OOOOO#&.....2  2  3   03 4    323 43 3 323 43 23  6  32334334 4 332333342394 233",
"  2.....#OOOOO#O#OOO##O#OOOOOO#OOOOOOOOOO=#OOOO#OOOOO#.....       0        4 3333 343 2  3  43 322  3 0 33   4 6       24 73 42 ",
"3 23.....#OOOO#O#OOO##O#OOOOOO#OOOOOOOOOO=#OOOO#OOOO#.....    222 04      2  3 3342 342 23     3 24 3 23243       3 3  44  3 2 3",
"723  .....#OOO#O#OOO##O#OOO&......&OOOOOO=#OOOO#OOO#.....4 3 2 22 332 32   3333 4  323 323 2324  333  3034  3  3 3  33303233 23 ",
"2s 32 .....#OO#O#OOO##O#OO&.:=&&=:.&OOOOO=#OOOO#OO#..... 4 3232 2324  33      3  23 234 2   3 3   3  4 333   3224  34323 3   3  ",
" 33 22 .....#O#O#OOO##O#OO.:&#OO#&:.OOOOO=#OOOO#O#.....22 4 32  3   3      4  2  20 2 333  33    4   3232 3   3 3    3   3 3  23",
"3233   6.....##O#OOO##O%.%.%##OO##%.%.%OO&#OOOO##.....2 22 4 2      4 44 2 422  3  43      2332 3   0      3 32  33   3 44 3    ",
"  3 2 323.....#O#OOO##O....=:....:=....OO&#OOOO#.....    233 22   2   s 22   6  0  43 22   33  23  4 2 3 3  0  3 3   43 3334 3 3",
"2 22 2  2 .....##OOO##O&.%.=..%%..=.%.&OO&#OOO#.....3    2     2 23 3 43 2 7323 3323  4  3   2  4  4 3  333 4423 44 333 3 2423  ",
"6  23  22  .....#OOO##OO#.%.%&OO&%.%.#OOO&#OO#.....25  4 22    22 3 32v22  f 232    3 3  3 2    3  3   3  03  4 243  3  2    323",
" 236  22  42.....#OO##OOO#...%&&%...#OOOO##O#..... 622   2 2 36  2   33 5 27 3   2  332    344  2      3 203  33  3 3   2 3 03  ",
"  2222 2 6322.....#O##OOO#=........=#OOOO###.....22  2 23   2 622 3323     7 6            33243 6 2 3223 3    3    42  3 3  4  3",
"       2 2 322.....###OO#=.:.%&&%.:.=#O#O##.....   6  223    3622 29  4   333 22        2          3    3  33 3   3  323334 0 32",
"  2222   2  6 6.....##O#..............##O#.....242 62  64 22  6       4  242      3 4     0202  4 3       4s323 3343   30 4    3",
"3 6222 632 2    .....###...#&%..%&##..#O#.....6242 22 2 22 32  22     3   32642 0   23  43   3    4  33  33     3  33  33 4 4 34",
"2 2  2 633 20 23 .....##################.....22  3322 232 3 2226   3  34   2 3223 42    3 32 4 22 33 24  4 34  33 4024 332s2s 20",
"  2 32 22 23  2223.....#&#&#&&#&###&###..... 2    2 2 2 224   222    2    6 3  3   2  4    22  32 2   3  3 3 40   3   23 3320 2 ",
"2   3  2 2 32323   .....##&&&&&&&&&&&&.....   2    6 2  x2  2 362  3 2322 2  22        922    23233223        3 3244 2 332420 2 ",
"62   2  922  22   2 .....=&=&=&&=&=&%.....22 2     23 2 2 2 2         3  323 2 2          2 2    3 323223  3233  240     3  33 2",
"2222     22 z323    2.....========&%.....232 23  2223622 22  322 22   3 32 3  622      96   22   43   2 63 33 3   3  q3 4   332 ",
" 222      2  22 2 92 2.....%%%%%%%%.....z 3  2   2 2   22 6  2223   3 2 26   2 3   2 24 2   260223 2  9 22  20 2  3 4f 6s4  0   ",
"   62  23  2  222 29   .....%%%%::..... z32 2  2 22 2226     2c 2332 24262 3 22 2       22 4 2 22  222  6 3  3  3 3 37 002 33   ",
"2 32  227 3229  2  52  2.....::::.....2 2 6 2 662  6222 2 3   2    22      2 222 2  2 33  336 3        2   202 3   3 7 3 2 3 3  ",
"2  62 2226 32   2 2322 2 .....::.....22 22  2  622  22 2222  22222 232 2   26  222     2 923 332 5  3   2 2 3       32 4 2 33   ",
"22 2 2 29   2  6  99  32  ..........   9362222 22 662 22  23 9 2     23222 22  3   3       32   6   223  2323 24     2 323  4322",
"3   66  2  239  2 6   26 23........ 22  923 2 6226629622 2    c226062 3   2    2        23   2   3    3  2324  4     9 463  3 2 ",
"222  2      3 4  29 22223  2......  2 2  2 22 223622332 322 2 2  6  2    23222222 2 2 596  2  9  9 3  5   2  3  23   f        3 ",
"  22 6 37 3    3ff 9     7   ....6  2 92  2 6 22  2 242 2 q 92  22      2  2 2 2  2   272 2   23233  2  3    3 2 33 2   2  33   ",
"   6   22 4 32   33 22   3       3 2  92 3  23    6 23   623   2 332   2 4 3232 2s 32  3 3 2 2      2 4 3 226 3  22     66 3 362",
" 55 c52 z25732555277553234354354535535q5535z2245232  3 2 6  2  6   6   22 4 32   33 22   3       3 2  92 3  23    6 23   623   2",
"35222 22525735233555239233523533355355fz322232564355223555235533 55 c52 z25732555277553234354354535535q5535z2245232  3 2 6  2  6",
"655255255**5377553523573532235345633332332225723453545536332525535222 22525735233555239233523533355355fz322232564355223555235533",
" 552 253522**735535275352344334 5355355z7735*7353f35333433233*35655255255**53775535235735322353456333323322257234535455363325255",
"25522z25555*5@277*52***53332553523223333z*3*37345553553553355*93 552 253522**735535275352344334 5355355z7735*7353f35333433233*35",
"6299,2252f55*5z25722557**275235533*27555**35555355525522652553*325522z25555*5@277*52***53332553523223333z*3*37345553553553355*93",
"22555595955595*55959552*595529 53992979*7979555952522*5z5*5 2,*56299,2252f55*5z25722557**275235533*27555**35555355525522652553*3",
"255559277922593335555595555f 5f9f*332*f9ff77993*29755z555r2,272622555595955595*55959552*595529 53992979*7979555952522*5z5*5 2,*5",
"@59299@7ff7f*33333735f5333 7f5229fo***9*f57779f3935*275559r6926z255559277922593335555595555f 5f9f*332*f9ff77993*29755z555r2,2726",
"@e99*@7ef99@@f433334744@44f@9793fe@oo**f@f@@99999ff@7575r399799,@59299@7ff7f*33333735f5333 7f5229fo***9*f57779f3935*275559r6926z",
"@efe9f@@effffef44eff@@e44f999f9effe99e9@9ee@99fe@@@@9@7feff99ef9@e99*@7ef99@@f433334744@44f@9793fe@oo**f@f@@99999ff@7575r399799,",
"eeff@@f@ff@ffe@9fe@ff@@f@fffffefaffe9@@e@@@@@aefe9@@ef@e@@ff@eee@efe9f@@effffef44eff@@e44f999f9effe99e9@9ee@99fe@@@@9@7feff99ef9",
"@oafofo@f@@ofe@@e@oof@@o@@@ooffffooo@ffo@@oooXaeooaeee@eoo@@@oe@eeff@@f@ff@ffe@9fe@ff@@f@fffffefaffe9@@e@@@@@aefe9@@ef@e@@ff@eee",
"@@ooo@ff@ooo@@oaooooff@oo@XooXfoooefefeoo@@oXoXooXoXoaoaoeo@Xoaa@oafofo@f@@ofe@@e@oof@@o@@@ooffffooo@ffo@@oooXaeooaeee@eoo@@@oe@",
"@@XoaXo@oooooooXooooo@@ooXoXoXXooo@offeo@XoXXo+oaXXXooX@oo@@Xoa@@@ooo@ff@ooo@@oaooooff@oo@XooXfoooefefeoo@@oXoXooXoXoaoaoeo@Xoaa",
"oo+XXXo@oaXpaooX+aXoo@ooXXoXX+oXo+oXoXXooXoXXop+XXoo+XXoXoXoXXXo@@XoaXo@oooooooXooooo@@ooXoXoXXooo@offeo@XoXXo+oaXXXooX@oo@@Xoa@",
"+p+XoXXoXXX+ooX+XpXXo@oXX+Xa+$+XXppXoX+XXXXpX+XX++XoXX+X++oopXXooo+XXXo@oaXpaooX+aXoo@ooXXoXX+oXo+oXoXXooXoXXop+XXoo+XXoXoXoXXXo",
"+X+XXp+oXpX+XX+$+o+XXoXp++XXX+$+XX$XXX+X+X+X$$$X$X$XoXXp++XXXXXa+p+XoXXoXXX+ooX+XpXXo@oXX+Xa+$+XXppXoX+XXXXpX+XX++XoXX+X++oopXXo",
"+X+oX++++X$$+++-+X++X+XX++$+X$+XX+;++++++++$$+X+$X+$Xo+X$X+X+X+X+X+XXp+oXpX+XX+$+o+XXoXp++XXX+$+XX$XXX+X+X+X$$$X$X$XoXXp++XXXXXa",
"+X+X+++X+$$-$$$-+X+;+$$+$$;$+$++X->$$$$$+X$+X$++$$+-+X+$++$X$X+X+X+oX++++X$$+++-+X++X+XX++$+X$+XX+;++++++++$$+X+$X+$Xo+X$X+X+X+X",
"$+-X+$$$-$+----;-+-;-+$$-;>$+;$+-><;-;$++$-$+$+$>-->-++$--$;$+$++X+X+++X+$$-$$$-+X+;+$$+$$;$+$++X->$$$$$+X$+X$++$$+-+X+$++$X$X+X",
"$$---$------$;;;;>>;;---;>>;;;;;>1<<;<>;;-;<$;;>>$>>>-----;;;$$$$+-X+$$$-$+----;-+-;-+$$-;>$+;$+-><;-;$++$-$+$+$>-->-++$--$;$+$+"
};
