/* XPM */
static char *PANBLUE[] = {
/* columns rows colors chars-per-pixel */
"64 128 57 1 ",
"  c #000047",
". c #533F1F",
"X c #5F4B37",
"o c #5B472B",
"O c #5F4323",
"+ c #6B4727",
"@ c #4B371B",
"# c #533F2F",
"$ c #675333",
"% c #574333",
"& c #774F2B",
"* c #9B5B13",
"= c #43331B",
"- c #67533F",
"; c #4F3B23",
": c #473323",
"> c #4F3B27",
", c #3F2F17",
"< c #AF7B1F",
"1 c #874307",
"2 c #3F2B1B",
"3 c #2B230F",
"4 c #6F5743",
"5 c #4F3B2B",
"6 c #7F532F",
"7 c #00003B",
"8 c #332B13",
"9 c #000053",
"0 c #C39B2F",
"q c #1F170B",
"w c #875733",
"e c #00006B",
"r c #732B00",
"t c #00002F",
"y c #D7BB43",
"u c #131313",
"i c #000023",
"p c #372313",
"a c #775F3F",
"s c #170F07",
"d c #000083",
"f c #775F4B",
"g c #00000B",
"h c #7B634F",
"j c #0B0B0B",
"k c #8F5F37",
"l c #00009B",
"z c #836B57",
"x c #000017",
"c c #3F472B",
"v c #1B1B1B",
"b c #0000B3",
"n c #373F27",
"m c gray23",
"M c #432F1B",
"N c #2F371F",
"B c #836B4B",
/* pixels */
"...:u8OkO33=.O@X.XO%X.%o%%...%#.+Xo.oXOoXoo%++.+...O:u8OkO33=,.;",
"...=uq8O&@u@.O.X#X.#X.O+o%.%X##..#o.>X>#+%.%o%#+...o@uq8O&@u@@.,",
"o...8=32O+3@.+ooX#..o+.+..%-%o#X@%oO@o.@o+XX..#.#++%@8=32O+3@@.,",
"#...pO#q2@q@...XXX.#X6.+...XXoo+.Xo%.o#.$++o....#+o%@pO#q2@q:>;,",
"O..=u.&@32u@..O%$XO%O$.+o.Xo+oo+.oX..+%oo..X#....O+O=u.&@32u:.X.",
"O#;=u2Owouj@...%%O.OO$.+o%X#oo%X.oX>..#X.%.+O.....+O=u2Owouj=.X,",
"@..=uu2O6Oj=..#o+Xo++&o+o%&X#-o%.oo...+X.o.oO.;,O#.O=uu2O6Oj=.oo",
"@.@=8=32O+3=..#o.X.++&oo%XoooXX>Ooo.O.+%.o.OOO>@O..-=8=32O+3,.o#",
"...=pO#q2@q;X.%..%.+oX$%XXooX+X..o..X>+X.OOoX.X.#.#$,pO#q2@q=..o",
"..X=8.&Oq83;X;...%OX,1e,XXX#X++o.o..X>+o.,e1,,o.#%.-:8.&Oq83=..o",
".#X:u8OkO3q;X5.o.#y**0*771*<00000000<<*1db*y1*y+.%oX;u8OkO3q....",
"..#=uq8O&@u;X>.o##1ry*7dle97r1111111rdlbldey*r1+.o.-:uq8O&@u.O.#",
"...:8=32O+3;o..%X#,3017eeddee979999eedde9 9013,%ooOo:8=32O+3=+.#",
"..o:pO#q2@q;oO.oX.o,**7eeeeeddeeeeddee99 97**,>++oOX;pO#32@q@.%.",
".@X=u.&@32u;X%.+X%$+<1x9e9t  edddde   7997t<1%#X%-XX;u.&@32u=..>",
".5X@u8OkO3q;X..--;oo**x 999 tt7   77t7997it**.oX%%%.;u8OkO3q:;.>",
";=;.uq8O&@u;o+.+#.#+<1x7 9ee9 iiiit79977itt<1OOO.o..;uq8O&@u:..;",
":==.8=32O+3;oOO$##.X**x77  9ee99ee99977ittt**OOO.o.5;8=32O+3=O.;",
"=;=,pO#q2@q;o;:%#...<1x777777   99  7ittt77<1@OO.o:o;pO#q2@q=#==",
":;:,u.&@32u;o.;##..O**x77ttttit7  7tiittt7 **;OO;X=o;u.&@32u=#@@",
";#==u2Owouj:-#;Ooo#.<1x77tttttiiiiiitt7777 <1.;o;X.-;u2Owo3jNc8=",
";#.=uu2O6Oj:X...o.#;**x  7tt    999   7777 **.#O=##->uu2O6Oj,c==",
".5X=8=32O+3:%XX.-X#.<1x 7 7tttttttt777 7   <1Xo+..Xh:8=32O+3,;=8",
".mX=pO#q2@q:XXX;-XO.**x   7      9       7 **-.+.#Xz:pO#q2@q,;==",
"O.#=8.&Oq83;o-#o$-%o<1x       777777       01X..OO&6;8.&Oq832===",
"O.#=u8OkO3q=O-#O$-XX**x                    **-.oOO&6:u8OkO3q,=@=",
".X;=uq8O&@u:XoX.+%-.<1x                    <1Xooho&X@uq8O&@u8.o;",
".X@=8=32O+3@+o..&XX.**x                    **XoOho&X;8=32O+3,.O@",
".O@=pO#q2@q@o-#:$#--<1x   *           *    <1#o&w+-%@pO#32@q,X#:",
"@O@=u.&@32u,.-.:-#--**x  *0*         *y*   **.&&w&-#;u.&@32u,X#:",
"..O:u8OkO3q=o+.+o%#-<1x *y00*       *y00*  <1.6k&6+O@u8OkO3q=X.@",
".;O=uq8O&@u=o+OO+##-**x*y000<*     *0000<* **.wk&&+.;uq8O&@u=X.=",
";.#@8=32O+3:#X;#oO.X01x *00<*       *00<*  01#&w+++.@8=32O+3,O#;",
"....pO#q2@q=;X@;OO.+**x  *<*    *    *<*   **#&$+O+.:pO#q2@q,O..",
"OO#.u.&@32u=.o..+:#O<1x   *    *y*    *    <1O&+O++O=u.&@32u=%=+",
"Oo#.u2Owouj:#..#$:#O**x       *y00*        **O&+oOOO,u2Owouj:%=O",
"o.O=uu2O6Oj:#o.oO##-<1x      *0000<*       <1.&+oOoO:uu2O6Oj@#2o",
"oo.=8=32O+3:#o.oo##X**x       *00<*        **O6ooOo$:8=32O+3@O=o",
"o.#@pO#q2@q=..O+o;##<1x   *    *<*    *    <1X6XoO#O:pO#q2@q>#X.",
"ooO.8.&Oq83=:.O+o.#.**x  *y*    *    *y*   **-++.O#O:8.&Oq83>#X;",
"oXO@u8OkO3q2:#OOOOOO01x *y00*       *y00*  01-+O&O+O2u8OkO3q=.XO",
".+O:uq8O&@u2@%OO$OOX**x*0000<*     *0000<* **-#+wO&.=uq8O&@u=;XO",
"&XX,8=32O+3:#O;owOO&<1x *00<*       *00<*  <1$.+&O-#28=32O+3,o-5",
"+-X,pO#q2@q;oo.owOO+**x  *<*         *<*   **+.X&O-#:pO#q2@q=o-.",
"oX+=u.&@32u;%.;.ho.o<1x   *           *    <1X.O+OX%=u.&@32u>o+8",
"O++,u8OkO3q:%#o.f+.+**x                    **XoO+OX#:u8OkO3q@.+=",
"#X%@uq8O&@u:XoO.$+oo<1x                9   <1O.#+OX#;uq8O&@uO&.=",
"###>8=32O+3;X#o#X&.o**x              99    **-.#OOX#:8=32O+3O$5@",
"O@..pO#q2@q@.OX#X4X#01x            99      01+..O..O:pO#q2@qOO..",
"#...u.&@32u=.Oo#--XX**x          999       **o.@OO#O=u.&@32u.+#.",
"..o#u8OkO3q=;&;;+o-%<1x        9999        <1&..ooOO@u8OkO3q=Xo.",
"#.o%uq8O&@u=.+.@$o-#**x      *0yy00*       **6.OooOO2uq8O&@u=X5.",
"...@8=32O+3=;o$.X%#-<1x    *y0*r r*<0*     <1X##;oO;,8=32O+3,..O",
"...@pO#q2@q=;o-oX%#-**x   *y*       *<*    **-#.@oO.=pO#q2@q,..O",
";@.=u.&@32u=.#%X;o@o<1x  ry*         *0r   <1o-#;o&@=u.&@32u==X%",
";;;=u2Owouj=@#oX;o.o**x  *0           <*   **#X%;o&@=u2Owouj:nX%",
"@#.:uu2O6Oj=#o.-.X.X<1x r0*           *0r  01+O6.o.O=uu2O6Oj,=o;",
"@.@@8332O+3:#..-O$.O**x 1yr           r01  **XO&.o.o:q332O+3,=o;",
"+#@.u28q2@==.+#X$o..<1x 10             01  <1#O;X++X==Mpq2@=:.o;",
"o#@2X$X-44-@OO#--%.O**x 10r           r<1  **#O@X+$X=f$X-44-2#X@",
"..@2o..X--%=.o#%wXOX<1x r<*           *<r  <1;@@.O+.@-.#+#X.2o-o",
".O;,.#oo-%X=.o#XXOOo**x  *0           0*   **.@..o+.=6#@O+O+,O4.",
"=@#,oO+o-%-=@oo++4O+01x  r<*         *<r   <1O;,.Xoo=wO@OOOO,O$-",
"=@@pXzh-f@-,@oo+O4O+**x   *<*       *<*    **+;=.oOX=wzh-f@OpO$X",
"..%8+4%-.2X:$#X>O%o&<1x    *<0*r r*0<*     <1#X>O%o&=64%-.2+8O#$",
"O.%,X-.%.3%>$>#oOX.$**x      *<000<*       **>#oOX.$:X-.%.3#,Oo$",
"Oo%8-@8233O>-5.+OXo+<1x                    <15.+OXo+:-@8233#8ooo",
"oO>8X+....&;$5O+oX54**x                    **5O+oX54>++o%X5O8$oX",
"Ooo,++@...+:X5oX$XoX<1x               9    <15oX$XoX>++@...+,&oX",
"o.X,5>@@::::Xo.++oO$**x                  77**o.++oO$>5>@@:::,OXo",
"O.-:qqqqjsq:oXO$oX-$01x             9   77 <1XO$oX-$;qsss3qs2.o%",
"o5$@s28pqqq;oOo4X5Xo**x         9 9    7   **Oo4X5Xo;qv3q2vs@5o%",
"@Oo@u8@@3qu@+o.&oOo5<1x        9     t77   01o.&oOo5;u3.@32u@O4o",
"=Oo,upOkO3q@+X.$+OO%**x             t7  7  **X.$+OO%.u3OkO3q..X+",
".O+=uq8O&@u@+-.$%OOo<1x          77t7 7    <1-.$%OOo.uq8O&@u@O++",
".OO=8=32O+3@+-oX$OO$**x    7   77tt7 7     **-oX$OO$.8332O+3@O$+",
"Oo.=pO#q2@q;-$X.&6++<1x      77ttt77777    <1$X.&6++.pO#32@q.$+o",
"Xo.=u.&@32u>4XXo$a+O**x      ttt77 7       **XXo$a+O;u.&@32u@-OX",
"O%>=u2Owouj@O$OO&4$.01x      7  7 7 7      <1$OO&4$.>u3Owo3j.4o5",
"OX.=uu2O6Oj@+$O++44.**x        7           **$O++44.>uu2O6Oj.4O5",
"..o@8=32O+3;XO++.X$.<1x                    0<O++.X$.58=32O+3;&oo",
"5oX=pO#q2@q;oO&+oo4O**x                    <*O&+oo4O;pO#q2@q%6O$",
"O.o=8.&Oq83>$.++X$$+<1x 9     9          77*1.++X$$+;8.&Oq83;6XX",
"5.X=u8OkO3q>&#+&X+&+**x   9 9    9     77ti**#+&X+&+%u3OkO3q;$+O",
"5.X:uq8O&@uO&.o&&+&O*17999    99     77tttt<1.o&&+&OOuq8O&@u.OXO",
"..O=8=32O+3o4Oo+&O&o<*79999999     77tttt7 **Oo+&O&oO8=32O+3>$$O",
"O.O=pO#q2@q%4oXoOO&o<<7ee999     77tttt77  <1oXoOO&o%pO#32@q;X+o",
"$.O@u.&@32uXfo$oOO&o<<7e99     77tttt77 7  **o$oOO&o%u.&@32u%$oO",
"X>O@u8OkO3qX4+.%OO&o<*79     77tttt7777    01+.%OO&oXu8OkO3q;$o-",
"OOo@uq8O&@u#X&5+.O+-**79   77tttt77  7     **&5+.O+-%uq8O&@u;Xo4",
"XoX.8=32O+3>O4...5oo<17  77tttt77 77   7   <14...5oo%8=32O+3@o+$",
"XoX@pO#q2@q;%-o#55$o**i77tttt77  7  7      **-o#55$o>pO#32@q:OO4",
"o-O=u.&@32u>+$.X5.o$<1itttt77  7           <1$.X5.o$>u.&@32u@%o%",
"+Oo@u2Owouj;X$.%%5o$**itt777 7   7         **$.%%5o$.u3Owouj.+o%",
"O.+=uu2O6Oj>-X.ooXXo<1g7777 7 7            <1X.ooXXo>uu2O6Oj@$o-",
"O.&>8=32O+3>X$...#X4**g77 7             7  **$...#X4#8=32O+3@XoX",
"XO+;pO#q2@q.+6Ooo$$a<1g77          9  77   016Ooo$$a;pO#32@q@$oX",
"X.O@8.&Oq83>$aO+.&&&**g 7       999 777    **aO+.&&&>8.&O383.$X+",
"oOo=u8OkO3q;X$O+O++$01g       999 777 7 99 <1$O+O++$>u3OkO3q@XX$",
"o+#=uq8O&@u#4$$+O+X&**g   999999 7777  999 **$$+O+X&;uq8O&@u@+oX",
".+.=8=32O+3%a+.++o+o<1g 999ee  7777  99999 <1+.++o+o>8=32O+3@O$o",
"O+O:pO#q2@qXB6.&+oX&**g99eeee 777 7 9999e9 **6.&+oX&>pO#q2@q@+&$",
"Xo+=u.&@32u%4a%OOO$a<1g9eeee9 7  7 9999ee9 <1a%OOO$aXu.&@32u.X$$",
"ooO=u8OkO3q%waoO++-6**g9ddde       999eee9 **aoO++-6#u8OkO3q%$o+",
"oOX=uq8O&@u.$&6&.X&&<1g9dde9  1<<<1 9eeee9 <1&6&.X&&%uq8O&@uo&$&",
"$OX=8=32O+3.+&6&%o64**g9de9  1<*1*<* 9eee9 **&6&%o64>8=32O+3O&++",
"o%#=pO#q2@q@O&$6X-Oo01g9e9  1<*,3,*<* 9ee9 <1&$6X-Oo.pO#q2@q@+&+",
"o%%@u.&@32u=5$$X%+OX**g99  1<*,,@:,*** 9e9 **$$X%+OX@u.&@32u:-&&",
"O%o=u2Owouj=.$+o>&OO<1g9  *<1=@OO%@,*<* 99 <1$+o>&OO:u2Owouj:$++",
"oOo@uu2O6Oj2OO&-=+Oo**g9 *<*,@#ooOo@,*<*   <*O&-=+Oo=uu2O6Oj=X&4",
"%oO@8=32O+3:XOO$>$.%<<g <<*,@OO-%oOX>,*<0  0*OO$>$.%@8=32O+3@+&$",
"5o.@pO#q2@q:Xo#4>-o.*<00<1,@OOX&5o.XX@,1<00<1o#4>-o.;pO#q2@q=X$O",
"o-O@8.&Oq83:X4O4>XXo<*<<*,@ooO&oo-OO$O@,1<<*14O4>XXo;8.&Oq83:Xo$",
"5-O>u8OkO3q;X&OaOoXo>1*1=@oo.O+O5-O+X$O@,1*1>&OaOoXo;u8OkO3q=$oX",
"O4O>uq8O&@u:X4O&-.Xow=,,>OXO.+XOO4OOooOO@,,=>4O&-.Xo:uq8O&@u=$$O",
"O-O@8=32O+3:X$OXoo4-$.=@-.oOOOXXO-O.XoOO:@=@%$OX$o4-:8=32O+3>o$O",
"@&-.pO#q2@q:#-&X#X$+XXX.oOo%oOoX@&-oXXO&OXooX-&Xo4$+;pO#q2@q@$X&",
">+X@u.&@32u=O.O$:4$OoX%.ooO%OOoX>+XXXXOOOo.O#oO$#4$O:u.&@32u=%&+",
".O5=u8OkO3q2OOO&.4XOo$o%OoXoOOo&.+5OO+#ooXo.O.O&:fXO@u8OkO3q=5O4",
".+5@uq8O&@u:-OO&.fXO.-oOOOXO+++&.o5&&+OOO%X5-Oo&.XoO@uq8O&@u@5o$",
"o.O>8=32O+3=>#o%%X$OO+O6O%X>+.oO%oOXXoOXOoo.X+Oo.+OO;8=32O+3.oOo",
".OO@pO#q2@q:#.o%X$-o%+O6%XX>O.XO.XOXoXO+OXo.o#O#.+%O=pO#q2@q;ooO",
"OO>.u.&@32u:5+O#+o-oXoXX>o+%OoXX.oo.XoOo.+o>>+OOO+XO:u.&@32u@ooO",
"oO>.u2Owouj=.oO.X+$O%o$OO#+#o%oXOX%.X+oXOoo>%&OOOXX+:u2Owouj=%.O",
"OO..uu2O6Oj=.>XO%Xo$OOoOXOooXO.X+X..6&+oO$XOX%.o.o+O=uu2O6Oj=..o",
"+O.>8=32O+3=>>X>oooXXo&OX>oooo.X.+>.6o+o%XoOXX...%++=8=32O+3=.Oo",
"O..>pO#q2@q@O>.%.%.oXo&OXooO.OOOXoX>+++X#ooOX>X..o+.2pO#q2@q=@o.",
"+>O=8.&Oq83@..>%.oO.%+&OX@.o%OOOXoo#o++oX+OoX>%...+.28.&Oq83=5o."
};
