/* XPM */
static char *PANBLACK[] = {
/* columns rows colors chars-per-pixel */
"64 128 48 1 ",
"  c #0B0B0B",
". c #5B472B",
"X c #533F1F",
"o c #5F4323",
"O c #5F4B37",
"+ c #6B4727",
"@ c #4B371B",
"# c #533F2F",
"$ c #675333",
"% c #574333",
"& c #4F3B23",
"* c #67533F",
"= c #774F2B",
"- c #43331B",
"; c #9B5B13",
": c #473323",
"> c #4F3B27",
", c #3F2F17",
"< c #874307",
"1 c #3F2B1B",
"2 c #131313",
"3 c #2B230F",
"4 c #AF7B1F",
"5 c #6F5743",
"6 c #4F3B2B",
"7 c #7F532F",
"8 c #332B13",
"9 c #C39B2F",
"0 c #1F170B",
"q c #875733",
"w c #732B00",
"e c #D7BB43",
"r c #1B1B1B",
"t c #170F07",
"y c #775F3F",
"u c #372313",
"i c #775F4B",
"p c #070707",
"a c #8F5F37",
"s c #7B634F",
"d c #836B57",
"f c #272727",
"g c #3F472B",
"h c #2F371F",
"j c #373F27",
"k c #432F1B",
"l c gray23",
"z c #836B4B",
/* pixels */
"XXX:28oao33-Xo@OXOo%OX%.%%XXX%#X+O.X.Oo.O..%++X+XXXo:28oao33-,X&",
"XXX-208o=@2@XoXO#OX#OXo+.%X%O##XX#.X>O>#+%X%.%#+XXX.@208o=@2@@X,",
".XXX8-31o+3@X+..O#XX.+X+XX%*%.#O@%.o@.X@.+OOXX#X#++%@8-31o+3@@X,",
"#XXXuo#01@0@XXXOOOX#O7X+XXXOO..+XO.%X.#X$++.XXXX#+.%@uo#01@0:>&,",
"oXX-2X=@312@XXo%$Oo%o$X+.XO.+..+X.OXX+%..XXO#XXXXo+o-2X=@312:XOX",
"o#&-21oq.2 @XXX%%oXoo$X+.%O#..%OX.O>XX#OX%X+oXXXXX+o-21oq.2 -XO,",
"@XX-221o7o -XX#.+O.++=.+.%=O#*.%X..XXX+OX.X.oX&,o#Xo-221o7o -X..",
"@X@-8-31o+3-XX#.XOX++=..%O...OO>o..XoX+%X.Xooo>@oXX*-8-31o+3,X.#",
"XXX-uo#01@0&OX%XX%X+.O$%OO..O+OXX.XXO>+OXoo.OXOX#X#$,uo#01@0-XX.",
"XXO-8X=o083&O&XXX%oO,<2,OOO#O++.X.XXO>+.X,2<,,.X#%X*:8X=o083-XX.",
"X#O:28oao30&O6X.X#e;;9;r2<;49999999944;<2r;e<;e+X%.O&28oao30XXXX",
"XX#-208o=@2&O>X.##<we;2rr222w<<<<<<<w22rfr2e;w<+X.X*:208o=@2XoX#",
"XXX:8-31o+3&.XX%O#,39<2rffr222     22222t  9<3,%..o.:8-31o+3-+X#",
"XX.:uo#01@0&.oX.OX.,;; 2222rrr22222222t    ;;,>++.oO&uo#31@0@X%X",
"X@O-2X=@312&O%X+O%$+4<  2 p  2rrr22t      p4<%#O%*OO&2X=@312-XX>",
"X6O@28oao30&OXX**&..;;      pp      p    pp;;X.O%%%X&28oao30:&X>",
"&-&X208o=@2&.+X+#X#+4<   2222 ppppp     ppp4<oooX.XX&208o=@2:XX&",
":--X8-31o+3&.oo$##XO;;     2222222     pppp;;oooX.X6&8-31o+3-oX&",
"-&-,uo#01@0&.&:%#XXX4<               pppp  4<@ooX.:.&uo#01@0-#--",
":&:,2X=@312&.X&##XXo;;   pppppp    pppppp  ;;&oo&O-.&2X=@312-#@@",
"&#--21oq.2 :*#&o..#X4<   ppppppppppppp     4<X&.&OX*&21oq.3 hg8-",
"&#X-221o7o :OXXX.X#&;;    pp               ;;X#o-##*>221o7o ,g--",
"X6O-8-31o+3:%OOX*O#X4<     pppppppp        4<O.+XXOs:8-31o+3,&-8",
"XlO-uo#01@0:OOO&*OoX;;                     ;;*X+X#Od:uo#01@0,&--",
"oX#-8X=o083&.*#.$*%.4<                     9<OXXoo=7&8X=o0831---",
"oX#-28oao30-o*#o$*OO;;                     ;;*X.oo=7:28oao30,-@-",
"XO&-208o=@2:O.OX+%*X4<                     4<O..s.=O@208o=@28X.&",
"XO@-8-31o+3@+.XX=OOX;;                     ;;O.os.=O&8-31o+3,Xo@",
"Xo@-uo#01@0@.*#:$#**4<    ;           ;    4<#.=q+*%@uo#31@0,O#:",
"@o@-2X=@312,X*X:*#**;;   ;9;         ;e;   ;;X==q=*#&2X=@312,O#:",
"XXo:28oao30-.+X+.%#*4<  ;e99;       ;e99;  4<X7a=7+o@28oao30-OX@",
"X&o-208o=@2-.+oo+##*;; ;e9994;     ;99994; ;;Xqa==+X&208o=@2-OX-",
"&X#@8-31o+3:#O&#.oXO9<  ;994;       ;994;  9<#=q+++X@8-31o+3,o#&",
"XXXXuo#01@0-&O@&ooX+;;   ;4;    ;    ;4;   ;;#=$+o+X:uo#01@0,oXX",
"oo#X2X=@312-X.XX+:#o4<    ;    ;e;    ;    4<o=+o++o-2X=@312-%-+",
"o.#X21oq.2 :#XX#$:#o;;        ;e99;        ;;o=+.ooo,21oq.2 :%-o",
".Xo-221o7o :#.X.o##*4<       ;99994;       4<X=+.o.o:221o7o @#1.",
"..X-8-31o+3:#.X..##O;;        ;994;        ;;o7..o.$:8-31o+3@o-.",
".X#@uo#01@0-XXo+.&##4<    ;    ;4;    ;    4<O7O.o#o:uo#01@0>#OX",
"..oX8X=o083-:Xo+.X#X;;   ;e;    ;    ;e;   ;;*++Xo#o:8X=o083>#O&",
".Oo@28oao301:#oooooo9<  ;e99;       ;e99;  9<*+o=o+o128oao30-XOo",
"X+o:208o=@21@%oo$ooO;; ;99994;     ;99994; ;;*#+qo=X-208o=@2-&Oo",
"=OO,8-31o+3:#o&.qoo=4<  ;994;       ;994;  4<$X+=o*#18-31o+3,.*6",
"+*O,uo#01@0&..X.qoo+;;   ;4;         ;4;   ;;+XO=o*#:uo#01@0-.*X",
".O+-2X=@312&%X&Xs.X.4<    ;           ;    4<OXo+oO%-2X=@312>.+8",
"o++,28oao30:%#.Xi+X+;;                     ;;O.o+oO#:28oao30@X+-",
"#O%@208o=@2:O.oX$+..4<                     4<oX#+oO#&208o=@2o=X-",
"###>8-31o+3&O#.#O=X.;;                     ;;*X#ooO#:8-31o+3o$6@",
"o@XXuo#01@0@XoO#O5O#9<                     9<+XXoXXo:uo#01@0ooXX",
"#XXX2X=@312-Xo.#**OO;;                     ;;.X@oo#o-2X=@312X+#X",
"XX.#28oao30-&=&&+.*%4<                     4<=XX..oo@28oao30-O.X",
"#X.%208o=@2-X+X@$.*#;;       ;9ee99;       ;;7Xo..oo1208o=@2-O6X",
"XXX@8-31o+3-&.$XO%#*4<     ;e9;w w;49;     4<O##&.o&,8-31o+3,XXo",
"XXX@uo#01@0-&.*.O%#*;;    ;e;       ;4;    ;;*#X@.oX-uo#01@0,XXo",
"&@X-2X=@312-X#%O&.@.4<   we;         ;9w   4<.*#&.=@-2X=@312--O%",
"&&&-21oq.2 -@#.O&.X.;;   ;9           4;   ;;#O%&.=@-21oq.2 :jO%",
"@#X:221o7o -#.X*XOXO4<  w9;           ;9w  9<+o7X.Xo-221o7o ,-.&",
"@X@@8331o+3:#XX*o$Xo;;  <ew           w9<  ;;Oo=X.X.:0331o+3,-.&",
"+#@X21801@--X+#O$.XX4<  <9             9<  4<#o&O++O--ku01@-:X.&",
".#@1O$O*55*@oo#**%Xo;;  <9w           w4<  ;;#o@O+$O-i$O*55*1#O@",
"XX@1.XXO**%-X.#%qOoO4<  w4;           ;4w  4<&@@Xo+X@*X#+#OX1.*.",
"Xo&,X#..*%O-X.#OOoo.;;   ;9           9;   ;;X@XX.+X-7#@o+o+,o5X",
"-@#,.o+.*%*-@..++5o+9<   w4;         ;4w   4<o&,XO..-qo@oooo,o$*",
"-@@uOds*i@*,@..+o5o+;;    ;4;       ;4;    ;;+&-X.oO-qds*i@ouo$O",
"XX%8+5%*X1O:$#O>o%.=4<     ;49;w w;94;     4<#O>o%.=-75%*X1+8o#$",
"oX%,O*X%X3%>$>#.oOX$;;       ;49994;       ;;>#.oOX$:O*X%X3#,o.$",
"o.%8*@8133o>*6X+oO.+4<                     4<6X+oO.+:*@8133#8...",
".o>8O+XXXX=&$6o+.O65;;                     ;;6o+.O65>++.%O6o8$.O",
"o..,++@XXX+:O6.O$O.O4<                     4<6.O$O.O>++@XXX+,=.O",
".XO,6>@@::::O.X++.o$;;                     ;;.X++.o$>6>@@:::,oO.",
"oX*:0000 t0:.Oo$.O*$9<                     4<Oo$.O*$&0ttt30t1X.%",
".6$@t18u000&.o.5O6O.;;                     ;;o.5O6O.&0r301rt@6.%",
"@o.@28@@302@+.X=.o.64<               p     9<.X=.o.6&23X@312@o5.",
"-o.,2uoao30@+OX$+oo%;;              p      ;;OX$+oo%X23oao30XXO+",
"Xo+-208o=@2@+*X$%oo.4<             p       4<*X$%oo.X208o=@2@o++",
"Xoo-8-31o+3@+*.O$oo$;;           pp        ;;*.O$oo$X8331o+3@o$+",
"o.X-uo#01@0&*$OX=7++4<         ppp         4<$OX=7++Xuo#31@0X$+.",
"O.X-2X=@312>5OO.$y+o;;       ppp           ;;OO.$y+o&2X=@312@*oO",
"o%>-21oq.2 @o$oo=5$X9<                     4<$oo=5$X>23oq.3 X5.6",
"oOX-221o7o @+$o++55X;;                     ;;$o++55X>221o7o X5o6",
"XX.@8-31o+3&Oo++XO$X4<                     94o++XO$X68-31o+3&=..",
"6.O-uo#01@0&.o=+..5o;;                     4;o=+..5o&uo#01@0%7o$",
"oX.-8X=o083>$X++O$$+4<                     ;<X++O$$+&8X=o083&7OO",
"6XO-28oao30>=#+=O+=+;;                   pp;;#+=O+=+%23oao30&$+o",
"6XO:208o=@2o=X.==+=o;<                 pppp4<X.==+=oo208o=@2XoOo",
"XXo-8-31o+3.5o.+=o=.4;2              pppp  ;;o.+=o=.o8-31o+3>$$o",
"oXo-uo#01@0%5.O.oo=.44222          pppp    4<.O.oo=.%uo#31@0&O+.",
"$Xo@2X=@312Oi.$.oo=.4422         pppp      ;;.$.oo=.%2X=@312%$.o",
"O>o@28oao30O5+X%oo=.4;2        pppp        9<+X%oo=.O28oao30&$.*",
"oo.@208o=@2#O=6+Xo+*;;       pppp          ;;=6+Xo+*%208o=@2&O.5",
"O.OX8-31o+3>o5XXX6..4<     pppp            4<5XXX6..%8-31o+3@.+$",
"O.O@uo#01@0&%*.#66$.;;   pppp              ;;*.#66$.>uo#31@0:oo5",
".*o-2X=@312>+$XO6X.$4<ppppp                4<$XO6X.$>2X=@312@%.%",
"+o.@21oq.2 &O$X%%6.$;;ppp                  ;;$X%%6.$X23oq.2 X+.%",
"oX+-221o7o >*OX..OO.4<p                    4<OX..OO.>221o7o @$.*",
"oX=>8-31o+3>O$XXX#O5;;                     ;;$XXX#O5#8-31o+3@O.O",
"Oo+&uo#01@0X+7o..$$y4<                     9<7o..$$y&uo#31@0@$.O",
"OXo@8X=o083>$yo+X===;;                     ;;yo+X===>8X=o383X$O+",
".o.-28oao30&O$o+o++$9<                     4<$o+o++$>23oao30@OO$",
".+#-208o=@2#5$$+o+O=;;                     ;;$$+o+O=&208o=@2@+.O",
"X+X-8-31o+3%y+X++.+.4<     22              4<+X++.+.>8-31o+3@o$.",
"o+o:uo#01@0Oz7X=+.O=;;   2222           2  ;;7X=+.O=>uo#01@0@+=$",
"O.+-2X=@312%5y%ooo$y4<  2222           22  4<y%ooo$yO2X=@312XO$$",
"..o-28oao30%qy.o++*7;;  2222          222  ;;y.o++*7#28oao30%$.+",
".oO-208o=@2X$=7=XO==4<  222   <444<  2222  4<=7=XO==%208o=@2.=$=",
"$oO-8-31o+3X+=7=%.75;;  22   <4;<;4;  222  ;;=7=%.75>8-31o+3o=++",
".%#-uo#01@0@o=$7O*o.9<  2   <4;,3,;4;  22  4<=$7O*o.Xuo#01@0@+=+",
".%%@2X=@312-6$$O%+oO;;     <4;,,@:,;;;  2  ;;$$O%+oO@2X=@312:*==",
"o%.-21oq.2 -X$+.>=oo4<    ;4<-@oo%@,;4;    4<$+.>=oo:21oq.2 :$++",
".o.@221o7o 1oo=*-+o.;;   ;4;,@#..o.@,;4;   4;o=*-+o.-221o7o -O=5",
"%.o@8-31o+3:Ooo$>$X%44  44;,@oo*%.oO>,;49  9;oo$>$X%@8-31o+3@+=$",
"6.X@uo#01@0:O.#5>*.X;4994<,@ooO=6.XOO@,<4994<.#5>*.X&uo#01@0-O$o",
".*o@8X=o083:O5o5>OO.4;44;,@..o=..*oo$o@,<44;<5o5>OO.&8X=o083:O.$",
"6*o>28oao30&O=oyo.O.><;<-@..Xo+o6*o+O$o@,<;<>=oyo.O.&28oao30-$.O",
"o5o>208o=@2:O5o=*XO.q-,,>oOoX+Ooo5oo..oo@,,->5o=*XO.:208o=@2-$$o",
"o*o@8-31o+3:O$oO..5*$X-@*X.oooOOo*oXO.oo:@-@%$oO$.5*:8-31o+3>.$o",
"@=*Xuo#01@0:#*=O#O$+OOOX.o.%.o.O@=*.OOo=oO..O*=O.5$+&uo#01@0@$O=",
">+O@2X=@312-oXo$:5$o.O%X..o%oo.O>+OOOOooo.Xo#.o$#5$o:2X=@312-%=+",
"Xo6-28oao301ooo=X5Oo.$.%o.O.oo.=X+6oo+#..O.XoXo=:iOo@28oao30-6o5",
"X+6@208o=@2:*oo=XiOoX*.oooOo+++=X.6==+ooo%O6*o.=XO.o@208o=@2@6.$",
".Xo>8-31o+3->#.%%O$oo+o7o%O>+X.o%.oOO.oOo..XO+o.X+oo&8-31o+3X.o.",
"Xoo@uo#01@0:#X.%O$*.%+o7%OO>oXOoXOoO.Oo+oO.X.#o#X+%o-uo#01@0&..o",
"oo>X2X=@312:6+o#+.*.O.OO>.+%o.OOX..XO.o.X+.>>+ooo+Oo:2X=@312@..o",
".o>X21oq.2 -X.oXO+$o%.$oo#+#.%.OoO%XO+.Oo..>%=oooOO+:21oq.2 -%Xo",
"ooXX221o7o -X>Oo%O.$oo.oOo..OoXO+OXX7=+.o$OoO%X.X.+o-221o7o -XX.",
"+oX>8-31o+3->>O>...OO.=oO>....XOX+>X7.+.%O.oOOXXX%++-8-31o+3-Xo.",
"oXX>uo#01@0@o>X%X%X.O.=oO..oXoooO.O>+++O#..oO>OXX.+X1uo#01@0-@.X",
"+>o-8X=o083@XX>%X.oX%+=oO@X.%oooO..#.++.O+o.O>%XXX+X18X=o083-6.X"
};
