/* XPM */
static char *PANCASE1[] = {
/* columns rows colors chars-per-pixel */
"64 128 42 1 ",
"  c #5F4323",
". c #533F1F",
"X c #5B472B",
"o c #5F4B37",
"O c #6B4727",
"+ c #533F2F",
"@ c #675333",
"# c #774F2B",
"$ c #4B371B",
"% c #574333",
"& c #67533F",
"* c #4F3B23",
"= c #43331B",
"- c #4F3B27",
"; c #4F3B2B",
": c #6F5743",
"> c #473323",
", c #332B13",
"< c #3F2B1B",
"1 c #3F2F17",
"2 c #7F532F",
"3 c #2B230F",
"4 c #875733",
"5 c #131313",
"6 c #775F4B",
"7 c #775F3F",
"8 c #170F07",
"9 c #1F170B",
"0 c #372313",
"q c #836B57",
"w c #7B634F",
"e c #0B0B0B",
"r c #1B1B1B",
"t c #432F1B",
"y c #8F5F37",
"u c #8B735B",
"i c #3F472B",
"p c #4B4B4B",
"a c #2F371F",
"s c #836B4B",
"d c gray23",
"f c #373F27",
/* pixels */
".o %o.%X%%...%+.OoX.Xo XoXX%OO.O.o %o.%X%%...%+.OoX.Xo XoXX%OO.O",
",<,,<,1t<,,,<,,,,,<,,<,,t,,,<,,t,<,,<,1t<,,,<,,,,,<,,<,,t,,,<,,t",
"5888598988898585885885885955888858885989888985858858858859558888",
"rr99r3939333333,33333333333r9999rr99r3939333333,33333333333r9999",
"=<1,1=,t<1oo@oo@XooXX@o$<,,<,,,,=<1,1=,t<1oo@oo@XooXX@o$<,,<,,,,",
"% .  @.O<>o+XXqw&6$-..+>,%.O ...% .  @.O<>o+XXqw&6$-..+>,%.O ...",
"OoXOO#XO<>#o+&:%&.<...O>,X.X .*1OoXOO#XO<>#o+&:%&.<...O>,X.X .*1",
".o.OO#XX<>XXXo&.%.3. .O>,X.   -$.o.OO#XX<>XXXo&.%.3. .O>,X.   -$",
".%.OXo@%<>XXoO$,<33.o-O>,  Xo.o..%.OXo@%<>XXoO$,<33.o-O>,  Xo.o.",
".% oXo@+<>o+oOOX.X..o-O$, .Xo1X..% oXo@+<>o+oOOX.X..o-O$, .Xo1X.",
".+XX+XO+1>$<$*$>1$>>1<$$<O%.o; O.+XX+XO+1>$<$*$>1$>>1<$$<O%.o; O",
"$+ o+XO%311,<$<,,<,,<,<<3O .o..O$+ o+XO%311,<$<,,<,,<,<<3O .o..O",
"$$X%o X..X .XX#X.X+..X..&O..o%$O$$X%o X..X .XX#X.X+..X..&O..o%$O",
"3933333933399333933993993339399339333339333993339339939933393993",
"<<$<<$1<,<,1,1<1,1<,,13<<<<,<<,<<<$<<$1<,<,1,1<1,1<,,13<<<<,<<,<",
"&*XXOO X.ooo.OO .%o$-.-.o@@Oo.Xo&*XXOO X.ooo.OO .%o$-.-.o@@Oo.Xo",
"9998e89<$3e999898889998989999999989899889889999989888e89<$3e9999",
"3330,=3< O30<<<=,,0<<<0<0<<<<0<<<0<0<<0,<<<,<<<<0<0,0,=3< O33<00",
"=*=10 +9<$9*X*>%+...@ .&.o @X OO..OX. . XXOO $  .X>X*0 +9<$9=+==",
">*>15.#$3<5*X.*++..   .&.@ &%XO +Xo+.+  X.O# *  *o=X*5.#$3<5=+$$",
"*+==5< 4X5e>&+* XX+.OOo+oXo%o& 2..  $++X  @OX.*X*o.&*5< 4X3eai,=",
"*+.=55< 2 e>o...X.+*#@X+oXo+@o #..o $.X.o @@..+ =++&-55< 2 e1i==",
".;o=,=3< O3>%oo.&o+.o ooooo+XO*#++ +o XX*O *XoXO..ow>,=3< O31*=,",
".do=0 +9<$9>ooo*&o .&&oo%oo+.O*#%.X%o XX$ O.X&.O.+oq>0 +9<$91*==",
" .+=,.# 9,3*X&+X@&%XO@   Xo+$O*OO.+ # . $Xo.oo..  #2*,.# 9,3<===",
" .+=5, y 39= &+ @&ooX@#OXX&..O.OO.+%#..O$oo*o&.X  #2>5, y 391=$=",
".o*=59, #$5>oXo.O%&.XOO  oo$X X &X+o&X.+.X.oooXXwX#o$59, #$5,.X*",
".o$=,=3< O3$OX..#oo.XoO  X@.X%X &X+o@ .+.X.%&oX wX#o*,=3< O31. $",
". $=0 +9<$9$X&+>@+&&.o#Xo.o .. #O .OXo*++  Xo+X#4O&%$0 +3<$91o+>",
"$ $=5.#$3<51.&.>&+&&+%2X@.O *+ OO .oO@*.o . X.##4#&+*5.#$3<51o+>",
".. >5, y 39=XO.OX%+&o+#.#@ XXo$o#O Xo&.X.&. X.2y#2O $5, y 39=o.$",
".* =59, #$5=XO  O++&%+O.#@ o.o*o#O Xo&.XXo+ X.4y##O.*59, #$5=o.=",
"*.+$,=3< O3>+o*+X .oX+%###XXXo+XXo+oo&&X@& X +#4OOO.$,=3< O31 +*",
"....0 +9<$9=*o$*  .O.%o###XoX@+XXo+&%&&.@& + +#@O O.>0 +9<$91 ..",
"  +.5.#$3<5=.X..O>+ OXOoO:@+o&*.X&.X@X2.@&o+* #O OO =5.#$3<5=%=O",
" X+.5< 4X5e>+..+@>+ OoXo 6o.oo*.o&X@oX4*@&o+. #OX   15< 4X5e>%= ",
"X. =55< 2 e>+X.X ++&#OOX 44 $&X.X&O%oX4 O+++o.#OX X >55< 2 e$+<X",
"XX.=,=3< O3>+X.XX++oO oO 24 .&X..&#+OX4 @++%X 2XX X@>,=3< O3$ =X",
"X.+$0 +9<$9=.. OX*++O..XXXy2$ oX*o# O.@.O X%po2oX + >0 +9<$9-+o.",
"XX .,.# 9,3=>. OX.+.O.+XX y2$Xo+>&@   o.OO+op&OO. + >,.# 9,3-+o*",
"Xo $5, y 39<>+        XXXo@2 O&.+X@X%XX y&o%%&O # O <5, y 39=.o ",
".O >59, #$5<$%  @  oO..O.O@4 X&.%.# X   y&o%+&+O4 #.=59, #$5=*o ",
"#oo1,=3< O3>+ *X4  #OOOo &.#6+o  .2OOoX 4@O+.@.O# &+<,=3< O31X&;",
"O&o10 +9<$9*XX.X4  OOOoo :X#7+o  X#@OXOX#:&oXO.o# &+>0 +9<$9=X&.",
"XoO=5.#$3<5*%.*.wX.XOO&+X:   4O##O#:.+o@XXw:oo. O o%=5.#$3<5-XO,",
" OO15, y 39>%+X.6O.OoO&+O&X  4O##O#@.    Xw6ooX O o+>5, y 39$.O=",
"+o%$59, #$5>oX .@OXX@O&&+o@%%#O  % # OXX.+:7@ .+O o+*59, #$5 #.=",
"+++-,=3< O3*o+X+o#.X@O&&%o@+ O   XO#OXX@$+&7&&.+  o+>,=3< O3 @;$",
" $..0 +9<$9$. o+o:o+XO.4.o&+ $o X  &@XX@.o@+#O.. .. >0 +9<$9  ..",
"+...5.#$3<5=. X+&&oooO.2+&&++$O.Xo &@oXO.@O+#X.$  + =5.#$3<5.O+.",
"..X+5, y 39=*#**OX&%& &o%oOXX+XO.+o.& .O.OX+%#..XX  $5, y 39=oX.",
"+.X%59, #$5=.O.$@X&+&%oX+ OX +XO*%o*&  @.Xo+o2. XX  <59, #$5=o;.",
"...$,=3< O3=*X@.o%+&@XX.&.XOo.$@.X+*2O.OX#@*&o++*X *1,=3< O31.. ",
"...$0 +9<$9=*X&Xo%+&&oO.@*o oX$@$ +.2 .OX#o*&&+.$X .=0 +9<$91.. ",
"*$.=5.#$3<5=.+%o*X$X:OO.: X.X...o+&*OO.XXO  &X&+*X#$=5.#$3<5==o%",
"***=5< 4X5e=$+Xo*X.X&OO.&.. o. .&+o*  .XXO. &+o%*X#$=5< 4X5e>fo%",
"$+.>55< 2 e=+X.&.o.o:Xooo&+. +X. oX++&.Ooo +OO 2.X. =55< 2 e1=X*",
"$.$$,33< O3>+..& @. :XXOo&X+XXX XXX+*:+ Oo +@o #.X.X>933< O31=X*",
"O+$.5<,9<$==.O+o@X..@# OXXo&+o #.oX@=O .@#@oX+ *oOOo==t09<$=>.X*",
"X+$<o@o&::&$  +&&%. @2 OXX%@ooO# @X&$@ X##O X+ $oO@o=6@o&::&<+o$",
"..$<X..o&&%=.X+%4o o # OoX&  OX#. @++OoooX @o*$$. O.$&.+O+o.<X&X",
". *1.+XX&%o=.X+oo  XX2 OXo@X+oX#. O++ ooXo @X.$..XO.=2+$ O O1 :.",
"=$+1X OX&%&=$XXOO: OO# O o2&$ooo$ @.$ #&XoXo. *1.oXX=4 $    1 @&",
"=$$0oqw&6$&1$XXO : OO@OOX@OO.&o%* @+..4oXXXX.O*=.X o=4qw&6$ 0 @o",
"..%,O:%&.<o>@+o- %X# o#oXXO @.X ..%.o+2#X.;X@+o- %X#=2:%&.<O, +@",
" .%1o&.%.3%-@-+X o.@ @# XXOX@.   .%.@+2OX..X@-+X o.@>o&.%.3+1 X@",
" X%,&$,<33 -&;.O oXO X.X.XO  #.X X%o; OO@ %X&;.O oXO>&$,<33+,XXX",
"X -,oO....#*@; OXo;:XX.o... o#-;X -+% OO@ X @; OXo;:-OOX%o; ,@Xo",
" XX1OO$...O>o;Xo@oXoX   %;X % #X XX %  X7  Xo;Xo@oXo-OO$...O1#Xo",
"X.o1;-$$>>>>oX.OOX @o   oX.;-o#XX.o . XX7oX.oX.OOX @-;-$$>>>1 oX",
" .&>9999e89>Xo @Xo&@ # XX. .%    .&$ X-O@#O Xo @Xo&@*9888398<.X%",
"X;@$8<,0999*X X:o;oX O X%XXX;   X;@.%X+ @7#OX X:o;oX*9r39<r8$;X%",
"$ X$5,$$395$OX.#X X;: o O X%.++o$ X.&%X.o62@OX.#X X;*53.$3<5$ :X",
"= X150 y 39$Oo.@O  %#Xo   .X.% X= X.%+X$o:2oOo.@O  %.53 y 39..oO",
". O=59, #$5$O&.@%  XoO&o  X;;X o. O;.Xo+&@#OO&.@%  X.59, #$5$ OO",
".  =,=3< O3$O&Xo@  @oo@o .o;-  X.  ;. X+X:#OO&Xo@  @.,33< O3$ @O",
" X.=0 +9<$9*&@o.#2OO#%O#-.X>; ;  X.. ...-o@%&@o.#2OO.0 +3<$9.@OX",
"oX.=5.#$3<5-:ooX@7O Oo@#..&.  . oX. .X. .X@X:ooX@7O *5.#$3<5$& o",
" %-=5< 4X5e$ @  #:@.o@@X..X.>$   %-. X; X% X @  #:@.-53 4X3e.:X;",
" o.=55< 2 e$O@ OO::.ooOo  ..--;X o.-X.;.XX OO@ OO::.-55< 2 e.: ;",
"..X$,=3< O3*o OO.o@. @@O   .X;;X..X.+X. @o.Oo OO.o@.;,=3< O3*#XX",
";Xo=0 +9<$9*X #OXX:  @OO.o .o;-X;Xo%%  . :;@X #OXX: *0 +9<$9%2 @",
" .X=,.# 9,3-@.OOo@@O&&OO.   .o-. .X-X;&- O.&@.OOo@@O*,.# 9,3*2oo",
";.o=5, y 39-#+O#oO#O@o# + ##.X..;.o. $+; X.@#+O#oO#O%53 y 39*@O ",
";.o>59, #$5 #.X##O#   O %X O@.oX;.o X-%Xoo &#.X##O#  59, #$5. o ",
".. =,=3< O3X: XO# #X  @ %%.#O   ..  X;%; o O: XO# #X ,=3< O3-@@ ",
" . =0 +9<$9%:XoX  #X o   X%o@#X  . X..Xo  @@:XoX  #X%0 +3<$9*oOX",
"@. $5.#$3<5o6X@X  #X X O +%+@@ .@. OX.Xo; X@6X@X  #X%5.#$3<5%@X ",
"o- $5, y 39o:O.%  #X.X#O-.O;@oo.o- X %%+X%#X:O.%  #Xo5, y 39*@X&",
"  X$59, #$5+o#;O. O& XOXX; .@@o   X..%;;X%OXo#;O. O&%59, #$5*oX:",
"oXo.,=3< O3- :...;XX+O XX XXO&XooXoX ..;@XXO :...;XX%,=3< O3$XO@",
"oXo$0 +9<$9*%&X+;;@X O +X X+O&+XoXo.X$..o  #%&X+;;@X-0 +3<$9>  :",
"X& =5.#$3<5-O@.o;.X@ oo@ .O+Xo :X& o OX.;# @O@.o;.X@-5.#$3<5$%X%",
"O X$5< 4X5e*o@.%%;X@XXo# ;ooXOO:O X@.O . 2 oo@.%%;X@.53 4X5e.OX%",
" .O=55< 2 e-&o.XXooXX o@%.XX+Ooo .OXXXX.  # &o.XXooX-55< 2 e$@X&",
" .#-,=3< O3-o@...+o:.OooXX&X.#@o .#.+o%.  O o@...+o:+,=3< O3$oXo",
"o O*0 +9<$9.O2 XX@@7 X@.O.OOo Xoo O;O   XXX O2 XX@@7*0 +3<$9$@Xo",
"o. $,.# 9,3-@7 O.### X%; .XOO&%@o. .   X%XX @7 O.###-,.# 3,3.@oO",
"X X=5, y 39*o@ O OO@;o@O  Xo.%X%X X+%  .OX%oo@ O OO@-53 y 39$oo@",
"XO+=59, #$5+:@@O Oo#.o# O XX.;%%XO+.  .    @:@@O Oo#*59, #$5$OXo",
".O.=,=3< O3%7O.OOXOX#&X O %@ O  .O..  .- O o7O.OOXOX-,=3< O3$ @X",
" O >0 +9<$9os2.#OXo##:XX   @ @O  O ..  ..:@ s2.#OXo#-0 +9<$9$O#@",
"oXO=5.#$3<5%:7%   @77  X-.-   XooXO...X.$ #.:7%   @7o5.#$3<5.o@@",
"XX =5, y 39%47X OO&22. X..-%.+X%XX -X +%;OX.47X OO&2+5, y 39%@XO",
"X o=59, #$5.@#2#.o##@o o.  O%.X%X o % =  @o @#2#.o##%59, #$5X#@#",
"@ o=,=3< O3.O#2#%X2::X o. .#oXX%@ o-+ . X XXO#2#%X2:-,=3< O3 #OO",
"X%+=0 +9<$9$ #@2o& X@..XX  ##%XXX%+ .X  XX # #@2o& X.0 +9<$9$O#O",
"X%%$5.#$3<5=;@@o%O o:X  X  @2XXXX%% XoX+XX-2;@@o%O o$5.#$3<5>&##",
" %X=5< 4X5e=.@OX-#  o o .% # oX  %X ++X.:;+:.@OX-#  >5< 4X5e>@OO",
"X X$55< 2 e<  #&=O XX  X.@ XXX+XX X ;-XX@;;@  #&=O X=55< 2 e=o#:",
"%X $,=3< O3>o  @-@.%%XoO.; X   &%X oo %.. X+o  @-@.%$,=3< O3$O#@",
";X.$0 +9<$9>oX+:-&X.% oO;XXX  o#;X.ooX+XX  .oX+:-&X.*0 +9<$9=o@ ",
"X& $,.# 9,3>o: :-ooX&%; oXXXX #XX&  @  .;-%.o: :-ooX*,.# 9,3>oX@",
";& -5, y 39*o# 7 XoXo@ ## XX. O ;& Oo@ X -;+o# 7 XoX*5, y 39=@Xo",
" : -59, #$5>o: #&.oX4@. o o .Oo  :  XX  X .oo: #&.oX>59, #$5=@@ ",
" & $,=3< O3>o@ oXX:&@O. &.X   oo & .oX  + .X%@ o@X:&>,=3< O3-X@ ",
"$#&.0 +9<$9>+&#o+o@Oooo.X X%X Xo$#&Xoo # oXXo&#oX:@O*0 +9<$9$@o#",
"-Oo$5.#$3<5= . @>:@ Xo%.XX %  Xo-Ooooo   X. +X @+:@ >5.#$3<5=%#O",
". ;=5, y 39<   #.:o X@X% XoX  X#.O;  O+XXoX. . #>6o $5, y 39=; :",
".O;$59, #$5>&  #.6o .&X   o OOO#.X;##O   %o;& X#.oX $59, #$5$;X@",
"X. -,=3< O3=-+X%%o@  O 2 %o-O.X %X ooX o XX.oO X.O  *,=3< O3.X X",
".  $0 +9<$9>+.X%o@&X%O 2%oo- .o .o oXo O oX.X+ +.O% =0 +9<$9*XX ",
"  -.5.#$3<5>;O +OX&XoXoo-XO% Xoo.XX.oX X.OX--O   Oo >5.#$3<5$XX ",
"X -.5< 4X5e=.X .oO@ %X@  +O+X%Xo o%.oOXo XX-%#   ooO>5< 4X5e=%. ",
"  ..55< 2 e=.-o %oX@  X o XXo .oOo..2#OX @o o%.X.XO =55< 2 e=..X",
"O6qq%&6q6&%qq666q666666q6qquu6qqq676qqqqqq6quqqqwu6qq%&6q6&%qqq6",
" XX .   oXo-O.%.Xo.%.%.XoX# oXX .   oXo-OOOo+XX ooXX .   oXo-OOO",
"O$.X%   oXX+X.X .%.X.X .%O# o$.X%   oXX+XOOXoO Xoo$.X%   oXX+XOO"
};
