/* XPM */
static char *PANEL5[] = {
/* columns rows colors chars-per-pixel */
"64 128 69 1 ",
"  c #5F4323",
". c #5B472B",
"X c #533F1F",
"o c #5F4B37",
"O c #6B4727",
"+ c #574333",
"@ c #675333",
"# c #533F2F",
"$ c #4B371B",
"% c #774F2B",
"& c #43331B",
"* c #4F3B27",
"= c #4F3B2B",
"- c #67533F",
"; c #4F3B23",
": c #6F5743",
"> c #473323",
", c #1B1B1B",
"< c #332B13",
"1 c #131313",
"2 c #3F2B1B",
"3 c #7F532F",
"4 c #2B230F",
"5 c #373737",
"6 c #3F2F17",
"7 c gray23",
"8 c #272727",
"9 c #2F2F2F",
"0 c #232323",
"q c #373F27",
"w c #070707",
"e c #1F170B",
"r c #434343",
"t c #2F371F",
"y c gray31",
"u c black",
"i c #474F33",
"p c #3F472B",
"a c #232B0F",
"s c gray28",
"d c #372313",
"f c #775F3F",
"g c #875733",
"h c gray34",
"j c #4B4B4B",
"k c #8F5F37",
"l c #775F4B",
"z c #0B0B0B",
"x c #0B1707",
"c c #53573B",
"v c #5B6347",
"b c #170F07",
"n c #5B5B5B",
"m c #000023",
"M c #6F6F6F",
"N c gray39",
"B c #171F07",
"V c #13230B",
"C c #0F1700",
"Z c #676B4F",
"A c gray42",
"S c #836B4B",
"D c #7B634F",
"F c #836B57",
"G c #939393",
"H c #A36B3F",
"J c #17330F",
"K c #432F1B",
"L c #777777",
/* pixels */
"XXX>1< k 44&X $oXo +oX+.++XXX+#XOo.X.o .o..+OOXOXXX >1< k 44&6X;",
"XXX&1e< %$1$X Xo#oX#oX O.+X+o##XX#.X*o*#O+X+.+#OXXX.$1e< %$1$$X6",
".XXX<&42 O4$XO..o#XX.OXOXX+-+.#o$+. $.X$.OooXX#X#OO+$<&42 O4$$X6",
"#XXXd #e2$e$XXXoooX#o3XOXXXoo..OXo.+X.#X@OO.XXXX#O.+$d #e2$e>*;6",
" XX&1X%$421$XX +@o + @XO.Xo.O..OX.oXXO+..XXo#XXXX O &1X%$421>XoX",
" #;&12 g.1z$XXX++ X  @XO.+o#..+oX.o*XX#oX+XO XXXXXO &12 g.1z&Xo6",
"$XX&112 3 z&XX#.Oo.OO%.O.+%o#-.+X..XXXOoX.X. X;6 #X &112 3 z&X..",
"$X$&<&42 O4&XX#.XoXOO%..+o...oo* ..X XO+X.X   *$ XX-&<&42 O46X.#",
"XXX&d #e2$e;oX+XX+XO.o@+oo..oOoXX.XXo*OoX  .oXoX#X#@6d #e2$e&XX.",
"XXo&<X% e<4;o;XXX+ o.o@#ooo#oOO.X.XXo*O.X X.o6.X#+X-><X% e<4&XX.",
"X#o>1< k 4e;o=X.X#..#.O# o.# @OoX.++X#..oO+Xo= OX+.o;1< k 4eXXXX",
"XX#&1e< %$1;o*X.## o#.O+   X.@O*X.;X+#OOoO XoXXOX.X->1e< %$1X X#",
"XXX><&42 O4;.XX+o#.+o .XX. X..%.X.#XX.XX-OXXo+.+.. .><&42 O4&OX#",
"XX.>d #e2$e;. X.oX.o+ .#+o =*.O X +XX.XX-o.$o#*OO. o;d #42$e$X+X",
"X$o&1X%$421;o+XOo+@OO@ .X.# X O X o;X 6OoO.Xo+#o+-oo;1X%$421&XX*",
"X=o$1< k 4e;oXX--;..OO .XoooXOO X+o$*X*Xo@@OoX.o+++X;1< k 4e>;X*",
";&;X1e< %$1;.OXO#X#O@@X XO-.. -. X X .$Xo##.    X.XX;1e< %$1>XX;",
">&&X<&42 O4;.  @##XoooXO;Ooo Xo. X X oX#oo+#    X.X=;<&42 O4& X;",
"&;&6d #e2$e;.;>+#XXX@ X-Xo @. OOXXO.X X ..OO $  X.>.;d #e2$e&#&&",
">;>61X%$4214Hkkkkgg33%kkk333%OO      OO3k3          41X%$421&#$$",
";#&&12 g.1z4k$$222<22&<2222<2222<22d<<<2<2<22<<<<6$ 412 g.4ztp<&",
";#X&112 3 z4k$xxxCCCCCCCCCCCCCCCCCCCCCCCCCCCCCCCCB6 4112 3 z6p&&",
"X=o&<&42 O44k<xVVVVVVVVVVVVVVVVVVVVVVVVVVVVVVVVVVV< 4<&42 O46;&<",
"X7o&d #e2$e4k<x8tqqqqqttaaBBBBBBBBBBBBBBBBBBBBBaVV< ed #e2$e6;&&",
" X#&<X% e<443dx8qryhysr7759955599r99r9r99r9r99raVV< e<X% e<42&&&",
" X#&1< k 4e43dx8qsLGAnsr7rrrrrrrynhry5ys7h5y555aVV< 41< k 4e6&$&",
"Xo;&1e< %$14kdx8t7MMMvZZZZZZZvvvhr5555yr7h7s55saVV< e1e< %$1<X.;",
"Xo$&<&42 O44k<x8t7vMZnyyjj7cNvZZ5575s9s5yy5r755aVV< e<&42 O46X $",
"X $&d #e2$e432xa89vhy79777rhii799rr7s9s7rs5r797aVV< 4d #42$e6o#>",
"$ $&1X%$4214O2xaa9ilc79iANj99997779779s9555r797aVV< 41X%$4216o#>",
"XX >1< k 4e4O<xaa87lcrjrn8jj59995595y5998555595aVV<X41< k 4e&oX$",
"X; &1e< %$14O2xa,85vhp8Nyv5j5808855855850p5i885aVV<X41e< %$1&oX&",
";X#$<&42 O44 2xV,,pis:9nnr999988889888890p95988aVV<;4<&42 O46 #;",
"XXXXd #e2$e4 dxVB,97ioi799r079900000,0909595909aVV< 4d #e2$e6 XX",
"  #X1X%$4214 <xVB,09qq:9q9qrocq90000999p9909900aVV< 41X%$421&+&O",
" .#X12 g.1z432xVB,009o:ri7coo::oc8000pi08009800aVV< 412 g.1z>+& ",
".X &112 3 z4O2xVB,,89o::c::ipcppoc,1,,5rj,,98,,aVV< 4112 3 z$#2.",
"..X&<&42 O44O<xVB,,88p:oNo:ip5tjoo7,11,88rh8,,,aVV<X4<&42 O4$ &.",
".X#$d #e2$e4O2xVB1,80pii5pii5805s+:p,100,087i,,aVV<X4d #e2$e*#oX",
".. X<X% e<44 2xVB1u0z0qq7555590,zt:yqt,,,11,01,aVV<;4<X% e<4*#o;",
".o $1< k 4e4 dxVB1u,zz,77555980,z1tr,rt1,,z111,aVV< 41< k 4e&Xo ",
"XO >1e< %$14 <xVB1uzzzz09590000,,zz0,t,0,,u,uzzaVV< 41e< %$1&;o ",
"%oo6<&42 O4eO<xVB1uwq,z,a0011,9a1wwu111tqq,,uwwaVV<%4<&42 O46.-=",
"O-o6d #e2$ee <xVB1uw,q,t11109;qt11wuw111,,0q1m1aVV<g4d #e2$e&.-X",
".oO&1X%$421e 2xVBuuwaqt1u1;;rqtq8J,wuuuww01q1mwaVV<341X%$421*.O<",
" OO61< k 4ee 2xVBuuww,1uu0&9;t;89sa11ummmuuu1m1aVV<341< k 4e$XO&",
"#o+$1e< %$14 >xVBuwwwwww,,t&&;585+qt,,ummwww1mwaVV<%41e< %$1 %X&",
"###*<&42 O4e >xVBuww,wwC9985&&09q+oq5,,wuwwu1mwaVV<%4<&42 O4 @=$",
" $XXd #e2$ee 2xVBuw,www9+5a018107q++qtt,wu111w1aVV< 4d #e2$e  XX",
"#XXX1X%$421e%2xVBuw,,w1q+9801uuw0+q5+i79,w11wmwaVV< 41X%$421XO#X",
"XX.#1< k 4ee >xVBuwwww0+598,1uw1w1aat7qrt1w1ww1aVV< 41< k 4e&o.X",
"#X.+1e< %$1eX>xVBuwww1559801uw1901ww1a55qqa1wwwaVV<X41e< %$1&o=X",
"XXX$<&42 O4e 2xVBuwww1qt98,111,001wuuw1ttqqa1w1aVV< e<&42 O46XX ",
"XXX$d #e2$ee 2xVaaaaaaaaaaaaaaaaaaaaaaaaaaaaaaaaVV<Xed #e2$e6XX ",
";$X&1X%$4214X2xVVVVVVVVVVVVVVVVVVVVVVVVVVVVVVVVVVV<X41X%$421&&o+",
";;;&12 g.1z4;2xVVVVVVVVVVVVVVVVVVVVVVVVVVVVVVVVVVV<X112 g.1z>qo+",
"$#X>112 3 z4X>===####+++ooo+++###===>>>>>>>>>>>>>>> 4112 3 z6&.;",
"$X$$<442 O44O%%Ok O33O3O333OOO%%O33kO3k%k3OO%3g33   4e442 O46&.;",
"O#$X12<e2$&442<244<>$2222XX24>2<2>24<2X22<442<$24424$&Kde2$&>X.;",
".#$2o@o-::-d$$X X$$$ $$$$$%O$$$$$$$$$$$$O$$$$$ $$$$$6l@o-::-2#o$",
"XX$2.XXo--+&X.#+go o % Oo.-  O.%X @##Oooo. @o;$$X OX$-X#O#oX2.-.",
"X ;6X#..-+o&X.#oo  ..3 O.o@.#o.%X O## oo.o @.X$XX.OX&3#$ O O6 :X",
"&$#6. O.-+-&$..OO: OO% O o3-$ooo$ @X$ %-.o.oX ;6Xo..&g $    6 @-",
"&$$doFD-l$-6$..O : OO@OO.@OOX-o+; @#XXgo....XO;&X. o&gFD-l$ d @o",
"XX+<O:+-X2o>@#o* +.% o%o..O @X. XX+Xo#3%.X=.@#o* +.%&3:+-X2O< #@",
" X+6o-X+X4+*@*#. oX@ @% ..O.@X   X+X@#3O.XX.@*#. oX@>o-X+X4#6 .@",
" .+<-$<244 *-=XO o.O .X.X.O  %X. .+o= OO@ +.-=XO o.O>-$<244#<...",
". *<oOXXXX%;@= O.o=:..XoXXX o%*=. *#+ OO@ . @= O.o=:*OO.+o= <@.o",
" ..6OO$XXXO>o=.o@o.o.   +=. + %. .. +  .f  .o=.o@o.o*OO$XXXO6%.o",
".Xo6=*$$>>>>o.XOO. @o   o.X=*o%..Xo X ..fo.Xo.XOO. @*=*$$>>>6 o.",
" X->eeeezbe>.o @.o-@ % ..X X+    X-$ .*O@%O .o @.o-@;ebbb4eb2X.+",
".=@$b2<deee;. .:o=o. O .+...=   .=@X+.# @f%O. .:o=o.;e,4e2,b$=.+",
"$ .$1<$$4e1$O.X%. .=: o O .+X##o$ .X-+.Xol3@O.X%. .=;14X$421$ :.",
"& .61d k 4e$OoX@O  +%.o   X.X+ .& .X+#.$o:3oOoX@O  +X14 k 4eXXoO",
"X O&1e< %$1$O-X@+  .oO-o  .==. oX O=X.o#-@%OO-X@+  .X1e< %$1$ OO",
"X  &<&42 O4$O-.o@  @oo@o Xo=*  .X  =X .#.:%OO-.o@  @X<442 O4$ @O",
" .X&d #e2$e;-@oX%3OO%+O%*X.>= =  .XX XXX*o@+-@oX%3OOXd #42$eX@O.",
"o.X&1X%$421*:oo.@fO Oo@%XX-X  X o.X X.X X.@.:oo.@fO ;1X%$421$- o",
" +*&12 g.1z$ @  %:@Xo@@.XX.X>$   +*X .= .+ . @  %:@X*14 g.4zX:.=",
" oX&112 3 z$O@ OO::XooOo  XX**=. oX*.X=X.. OO@ OO::X*112 3 zX: =",
"XX.$<&42 O4;o OOXo@X @@O   X.==.XX.X#.X @oXOo OOXo@X=<&42 O4;%..",
"=.o&d #e2$e;. %O..:  @OOXo Xo=*.=.o++  X :=@. %O..: ;d #e2$e+3 @",
" X.&<X% e<4*@XOOo@@O--OOX   Xo*X X.*.=-* OX-@XOOo@@O;<X% e<4;3oo",
"=Xo&1< k 4e*%#O%oO%O@o% # %%X.XX=XoX $#= .X@%#O%oO%O+14 k 4e;@O ",
"=Xo>1e< %$1 %X.%%O%   O +. O@Xo.=Xo .*+.oo -%X.%%O%  1e< %$1X o ",
"XX &<&42 O4.: .O% %.  @ ++X%O   XX  .=+= o O: .O% %. <&42 O4*@@ ",
" X &d #e2$e+:.o.  %. o   .+o@%.  X .XX.o  @@:.o.  %.+d #42$e;oO.",
"@X $1X%$421ol.@.  %. . O #+#@@ X@X O.X.o= .@l.@.  %.+1X%$421+@. ",
"o* $1< k 4eo:OX+  %.X.%O*XO=@ooXo* . ++#.+%.:OX+  %.o1< k 4e;@.-",
"  .$1e< %$1#o%=OX O- .O..= X@@o   .XX+==.+O.o%=OX O-+1e< %$1;o.:",
"o.oX<&42 O4* :XXX=..#O .. ..O-.oo.o. XX=@..O :XXX=..+<&42 O4$.O@",
"o.o$d #e2$e;+-.#==@. O #. .#O-#.o.oX.$XXo  %+-.#==@.*d #42$e>  :",
".- &1X%$421*O@Xo=X.@ oo@ XO#.o :.- o O.X=% @O@Xo=X.@*1X%$421$+.+",
"O .$12 g.1z;o@X++=.@..o% =oo.OO:O .@XO X 3 oo@X++=.@X14 g.1zXO.+",
" XO&112 3 z*-oX..oo.. o@+X..#Ooo XO....X  % -oX..oo.*112 3 z$@.-",
" X%*<&42 O4*o@XXX#o:XOoo..-.X%@o X%X#o+X  O o@XXX#o:#<&42 O4$o.o",
"o O;d #e2$eXO3 ..@@f .@XOXOOo .oo O=O   ... O3 ..@@f;d #42$e$@.o",
"oX $<X% e<4*@f OX%%% .+= X.OO-+@oX X   .+.. @f OX%%%*<X% 4<4X@oO",
". .&1< k 4e;o@ O OO@=o@O  .oX+.+. .#+  XO.+oo@ O OO@*14 k 4e$oo@",
".O#&1e< %$1#:@@O Oo%Xo% O ..X=++.O#X  X    @:@@O Oo%;1e< %$1$O.o",
"XOX&<&42 O4+fOXOO.O.%-. O +@ O  XOXX  X* O ofOXOO.O.*<&42 O4$ @.",
" O >d #e2$eoS3X%O.o%%:..   @ @O  O XX  XX:@ S3X%O.o%*d #e2$e$O%@",
"o.O&1X%$421+:f+   @ff  .*X*   .oo.OXXX.X$ %X:f+   @fo1X%$421Xo@@",
".. &1< k 4e+gf. OO-33X .XX*+X#.+.. *. #+=O.Xgf. OO-3#1< k 4e+@.O",
". o&1e< %$1X@%3%Xo%%@o oX  O+X.+. o + &  @o @%3%Xo%%+1e< %$1.%@%",
"@ o&<&42 O4XO%3%+.3::. oX X%o..+@ o*# X . ..O%3%+.3:*<&42 O4 %OO",
".+#&d #e2$e$ %@3o- .@XX..  %%+...+# X.  .. % %@3o- .Xd #e2$e$O%O",
".++$1X%$421&=@@o+O o:.  .  @3....++ .o.#..*3=@@o+O o$1X%$421>-%%",
" +.&12 g.1z&X@O.*%  o o X+ % o.  +. ##.X:=#:X@O.*%  >12 g.1z>@OO",
". .$112 3 z2  %-&O ..  .X@ ...#.. . =*..@==@  %-&O .&112 3 z&o%:",
"+. $<&42 O4>o  @*@X++.oOX= .   -+. oo +XX .#o  @*@X+$<&42 O4$O%@",
"=.X$d #e2$e>o.#:*-.X+ oO=...  o%=.Xoo.#..  Xo.#:*-.X;d #e2$e&o@ ",
".- $<X% e<4>o: :*oo.-+= o.... %..-  @  X=*+Xo: :*oo.;<X% e<4>o.@",
"=- *1< k 4e;o% f .o.o@ %% ..X O =- Oo@ . *=#o% f .o.;1< k 4e&@.o",
" : *1e< %$1>o: %-Xo.g@X o o XOo  :  ..  . Xoo: %-Xo.>1e< %$1&@@ ",
" - $<&42 O4>o@ o..:-@OX -X.   oo - Xo.  # X.+@ o@.:-><&42 O4*.@ ",
"$%-Xd #e2$e>#-%o#o@OoooX. .+. .o$%-.oo % o..o-%o.:@O;d #e2$e$@o%",
"*Oo$1X%$421& X @>:@ .o+X.. +  .o*Ooooo   .X #. @#:@ >1X%$421&+%O",
"X =&1< k 4e2   %X:o .@.+ .o.  .%XO=  O#..o.X X %>lo $1< k 4e&= :",
"XO=$1e< %$1>-  %Xlo X-.   o OOO%X.=%%O   +o=- .%Xo. $1e< %$1$=.@",
".X *<&42 O4&*#.++o@  O 3 +o*OX. +. oo. o ..XoO .XO  ;<&42 O4X. .",
"X  $d #e2$e>#X.+o@-.+O 3+oo* Xo Xo o.o O o.X.# #XO+ &d #e2$e;.. ",
"  *X1X%$421>=O #O.-.o.oo*.O+ .ooX..Xo. .XO.**O   Oo >1X%$421$.. ",
". *X12 g.1z&X. XoO@ +.@  #O#.+.o o+XoO.o ..*+%   ooO>12 g.1z&+X ",
"  XX112 3 z&X*o +o.@  . o ..o XoOoXX3%O. @o o+X.X.O &112 3 z&XX.",
"O X*<&42 O4&**o*...oo.% o*....XoXO*X3.O.+o. ooXXX+OO&<&42 O4&X .",
" XX*d #e2$e$ *X+X+X.o.% o.. X   o.o*OOOo#.. o*oXX.OX2d #e2$e&$.X",
"O* &<X% e<4$XX*+X. X+O% o$X.+   o..#.OO.oO .o*+XXXOX2<X% e<4&=.X"
};
