/* XPM */
static char *PANEL7[] = {
/* columns rows colors chars-per-pixel */
"64 128 40 1 ",
"  c #67533F",
". c #3F2B1B",
"X c #5B472B",
"o c #332B13",
"O c #5F4323",
"+ c #4F3B23",
"@ c #372313",
"# c #3F2F17",
"$ c #2B230F",
"% c #8F5F37",
"& c #2F1B0B",
"* c #432F1B",
"= c #9B633B",
"- c #1F170B",
"; c #373F27",
": c gray23",
"> c #A36B3F",
", c #775F4B",
"< c #6F5743",
"1 c #7B634F",
"2 c #5F4B37",
"3 c #836B57",
"4 c #574333",
"5 c #4F3B2B",
"6 c #774F2B",
"7 c #675333",
"8 c #473323",
"9 c #4B371B",
"0 c #533F2F",
"q c #43331B",
"w c #875733",
"e c #6B4727",
"r c black",
"t c #533F1F",
"y c #937B63",
"u c #4F3B27",
"i c #8B735B",
"p c #7F532F",
"a c #775F3F",
"s c #9B7F6B",
/* pixels */
"    77a777a7767766667e6ee77a7767766667e6e   77a777a7767766667e6e",
"0qq89quqttt998uu99q99qqqqttt998uu99q99qqqqq89quqttt998uu99q99qqq",
"4    1   242<  2445242244 2 2  22  2<2244 44  < 2   222224444424",
"  <3,1<,24 22  2 252  2 22<<< < << 3<2552< 222<<         42  222",
" ,,31,<   < 242222222 2225<2 222  3<22222 3  2   2 <<    2 22 22",
"4 <3<  <    <222<  2   2 2 222  23< <2522<3<2222 2   22, 2  2222",
"<2<3<  <<<   22 2  2  2,11 2222 3< 2 22   1<22222  <25  22 22222",
"2< <   <<   <22 < <  2 311 22 23< < 222    3 2224   22  222 222 ",
"2 <   <,<<<,<222< <  <311     <,,<, 2   ,< 12222 222<   2    42 ",
"2,< <<< << <<222,<   <11<   <, , <,  2 1,<<<1 2      2<<<22222  ",
"2<1< <<11 222222   1, 11< <,<<<3<<<2  <,< < <<2 <<<     2 222   ",
"  ,, <<1<  < <42  <11  <<,<<<31<<     <<<< < , <<<<<<< 22  2424 ",
" <   <1<< 2 << 2<<3<1<  <<2 3,,<,<<    <<<<   3<<<< ,<< <  4224 ",
" <<<  <<,1,<<<  <<1<1, <<31,<<<,<<   2  < <<   3<,<,,<< <  22222",
"<<< << <22< <4 <,,11<1<<31< <,< <, 2 2    << <13,<,,,<    < 222 ",
"  << 33332  2  <<11,,<<1<< <,,< <<<      <<<< ,,13<<<< <      2 ",
" 22 ,3,<< 122   <,,3331 << <<<,<<<< <<  2<<  <2  <3<,,,,< <   2 ",
" 22,,1<<< < ,<  13331,<   <,< <<<<,  <<  21122 1 <<<2<,,<< <   <",
"2<<,11<,<<<< <<< <<,,11<<<<<2 <<< <,<<1< <00< << 1<<2 <<  <<  2 ",
" <,<,,<,<,<  8 32<<,11,1,,       ,1<<,1< 0rr0 <    <<,<  < <<  1",
" << 1,,<<,, 8r83 <<,<1<<,<<      <,,<,<< yrr0,<  2  <,<   < < , ",
"  <<<1,<,,,< 8 3  <11,1, <   < < <1<,< 2 1s11y < 22 3<<2        ",
"  <<<,,<<<< <<<1< <<11<<   <,,<,<<   2   < 2<1 <222<3   2    22 ",
"2,<<<< < <2 <<, , <1,1,,    ,3<1< < <    <   <<< 22<  2 <<22<2 ,",
"22<< 2 <  13333<,<  ,,1<  <,1111<<<<   <    2 << <<  22 <11  22 ",
" 2 2<2 <  , ,  3<,   1 <  <<<1<,<<<11,<   < 2  <<< 2 2   2<  22 ",
"2242 ,<31<1 <<1<,<<  <   ,<1<11,3<,3311    22  21<222 222  22 22",
"  < 1  <<< <41<13 ,,      <,,<< 8 3331 << 22   23<222  22  222  ",
"52 22  2 < 2< ,1<1,< 22   < < y8r83 <1<<<22 < < 3222 22     2 22",
"2222522   <,< , <<2 2 2     <3i 8 i  <    2 <2  32222 2  < 2 252",
"222252 2<   <2<< 2<     2 <111,1<1, 22<      <<,, 52 2<<2   2 22",
"22222222   <<<<< <, << 2 < <1 <1,,1 2         <1, 2   <<<2  2 22",
"2222222 2<<<   <   1,,,  ,, ,,,11,< 4 22 42<<<1<  2 2,,  <,     ",
" 2<42 2222<<,22  < 33<<        <<    2 22 <<<<<,     ,<  1<  2  ",
"2 , 24 <224      << 3,< 22 << 2 2  2222  2 <1 ,<      < << <    ",
"  <<42,< 422  <<     1<2242  2 2   2   2 <<<2 1  2   <  <  << 2 ",
"   ,221< 2222, <  2< 12222242 2     2 <<1<   <,<2  <, <31< <<<  ",
"  <  <,<< 221<  22<2< <2222      <  <,  <,<< ,,,22  <<<<<<, 22  ",
"< <<< <,<< 2<<    ,   242    <<1<< <<   ,,  <<    2 <1,<<<<, 22 ",
" < <<,,, <2<<<  4   222242 ,,1<<<1333<<,,<<<<< 2     <<<1<<< 22 ",
" <<,,<<<< 22    < 22   <,<   <<<33,,<<<11<<<<<   <22 <<<, <    2",
"  <<<, ,<    < < 2  22  <<   <3<<<,,<<<,<< <<,< 2   2<,1,1,   , ",
"  <<<<<,,,< ,<<<<  22   2< 2<1,<<<,,<,<<,<<,<<<,  < <<3, 8      ",
"<< ,<<< 1,<<< <<44422 2222< 1,<,<<   <1,<<,,,< <2 < <,<<8r8 2<  ",
",1,< , <<<< 21<44    <      < <<1,<,<,11<<222 <222< ,,<, 8 <,,< ",
"1<<<,<<<<< 1<<<     ,<<     1 ,1< ,<,1<<, 2 ,,<<  ,<<,<<131,<<<<",
"<<11,<,   3<<   2< <<<,<< <,1,,<<<<<,11<  <<,<<   << <<<<,1<<<<<",
" ,3<     31<22  <<<<,,1,<<3<,1<<<<,,<<,<    <<1 <<,       <   < ",
"< <,<2 13<, 22< <11<<<11<, ,<,<<,,<1<1<<  <,1,2<< <<      <<,<  ",
"<<< <2<<<<<22 4 ,111,1,,3, <<   1<11,3,< 2<1123<  <    << <  <,<",
", <<< ,<1,<4  2 ,,,<<,<<111,< 2 <<11,< 2<  << <       ,<<<<  <3,",
"< 2< 3 <11<2   < ,<<< <<<,<<, 2  <<<1<   22  <  <<<   <<<  < <1<",
"    1 <,1, 2  2< <<<< ,1<33333,11,  <    4 4 <<<<<<<<<<<1< < <<,",
"   ,<<<1,1<22 <   ,<<3,,,11<<, <1111,<   2<<<<<<      11< <  <<<",
"  ,< <,,,< 2 2      13<<111,<<,,,<00< ,  22   <, <<   <,   <<<< ",
"21 <<<< <1 52< 222 <3,<,1<<<<<1 <0rr02    2 2 <<<<           <  ",
", < <<< 2<24 <<222 , <<3<  <<<<< 0rr0 ,<2   22<<<<<<          <2",
" <    ,<<<    <2 <23 <,,<<,  <,< 2 << <,< < ,13331<<      <,,<  ",
"  22 , ,11<24 < ,1<    <<,<  <<,< 2 <<2 <    ,,,1,1 <  <<<<< <1,",
" 2 < <<<<31  << <,<3   <<,    ,1 222 <   < 2 <<,11,   < <<<2<33<",
"  2 11< <3,  <, <<<3,2 <<<< 2<<1 25  < <<< 2 <<   <<  213,  <3< ",
"  <<11 <1,,,<  ,<  3,       2<,,42     <  <2 ,  <,< <  <<< <31,<",
"<, <1<<<3,<,< <1< <,<<  22242< <22,    <  <      <     << <3,<<,",
"<  <<,<3,,<, <<1  3,<<<2222222<1  <            ,,<<<< <   33,<<<",
" <<< <31<<   2 < 23,<<, 222222<33,<   <2<<<<  <<,, <,<<  <3 <<<<",
" <<<<<<<<<,1<   < 33<    22422 ,<,,,  <<        1111<<,1 1<2  2<",
"<<,< <<<,,,<< <,< 1,<    22   2  <  <<<<   <  <,,3<  <<<3<2     ",
"27pp66<www66,<  224422776w62<2<6w62<77777<<<<<11<  224422776w62<",
"oo.o..qo....o....o..@ooo.o.oooo.o.ooo.o..qo....o....o..@ooo.o.oo",
"    77a777a7767766667e6ee77a7767766667e6e   77a777a7767766667e6e",
"0qq89quqttt998uu99q99qqqqttt998uu99q99qqqqq89quqttt998uu99q99qqq",
"oo@@.@oo@@@@o&&@@@o@@$o##@@@@o&&@@@o@@$o#o@@.@oo@@@@o&&@@@o@@$o#",
".....o8o9ooo$o............q9..8oo.q.....+8...8..9...oooo..oooo..",
"teO0e02tettt94OO7OO2ettete7wOX t4t6OXOOO% 240 0ewO6t9XOXXO9Xt+2O",
"6229OeeeX+020O+XwOO6eee2O t6,02OOtpee2XOw7e0t7te6O 00XXOX29O9X 5",
"e 29OO6OX+0 XXtXwOOeee22O<X6a02OOX67eXeX6< 2Xet26O 00XXee2+XtX t",
"X2ette6eeet04t+t1XtXee 0X<OOOwe66e6<t027XX1<22tOeO244Xt0eX042Xeo",
"Oee9t>%%wp666www66,<  2244227pp66<www66,<  224422776w62<<<66tteq",
"024Otwoo.o..qo....o....o..@oo.o..qo....o....o..@ooo.o.oooo.tt6tq",
"0002qwo66666667766ppp676<<<        77a777a7767766667e6eO67otq759",
"O9te9wo6tt0qq89quqttt998uu99qut0qq89quqttt998uu99q99qqqqqeot9Ott",
"0tte9wo6&@o$o@@oo.@@oooq@@.oo$ooo@@.@oo@@@@o&&@@@o@@$o#@qeot9e0t",
"ttX 9a@6@.8o##.888888q#9.88..oq#.8#8.8.q#.q.q.#o##.###5.q7ot92Xt",
"0tX<9a@688588588q5585u5585q5885q.5885u8q8u885u8.58u8..8.q7ot925t",
"tttXq7@7.88.8qu.585858585uu885XX85885uu+u885558885u8.85.u6otqttO",
"tttO#7oX#8.558+88585488u5u8u5..4.558+X.X85+5508588858X5#96ot#ttO",
"+9tt#7.Xq8888848858555u.+88u85.+885.X8.u8585555.88u88u.#96ot#q24",
"+++t#7.Xo555.85858.X4quu585.88u88845qX.5Xq+8485585u8+8..t7ot#;24",
"90t4.XoXo5:8.5X888885Xq.5..u888.5585u8885q.u5585885.u88.e6ot.qX+",
"9t9O.X.X#5q585.5.0.045088558+58uu08585.X80u8uqu+.X.88.5.t6o5.qX+",
"e09e.X.Xo8588.85u+.u55Xu85855X8u58X8855+X885+5uX.585u.qo96oX.tX+",
"X09e#X@0o8qX8q58558.458q858488uu85X+.u88+55858885qu88.8#t7oX#029",
"tt9O#2o4ouu588555888+58X855+55q5u+85.5+85uqu85+.0q58585ou7o #X X",
"tO+Xo7.X8.8+8558X080858q0558+uXu8++58q5055+588...uu8588ot7ot#O<t",
"q900.XoX8.55.85588u885+u505X85Xuu8u55u05508+58..85q.585#e6ot8O7 ",
"q990.X.X.58u.88uq4uuq58u88558855.84..uu48585u8888055.u8ot6o58O72",
"tt4t.X.X88u5.58u858qu+uq5+uq85858++5..X585X5.X5.85858u8o96oX8O07",
"Ot4t8X@0.8885588u58585X588u+5u888.5.08+u888X5558+88580u#t7oX8OX7",
"OX42#2o4.8.8+858u8.+8+5855u858+u+888+55q5..8+85885.+858.u7o qXXX",
"XOu0#+o4.885588u888u88.888qu8X.8885888qu+u55558uu5Xqu88.u7o q7X2",
"OXXO@2oX.u88+58q858558808.8885558+8558uq+8X8588X88848Xu*ueo1#6X2",
"Xt2O#+.288u5885555588u8858885858+58+5888488588555585888*u7o3#O2X",
"Ot 9@+.2858.858qq585888u888888u588888u85285.588qq5845u5*u6op#tX4",
"X57t@+84.5q8588+585+8588888.58+8u8488X8u+5u8X885X555u58*uOop#5X4",
"9OXt@O80.45q58548858uq8588558u8u88+8855u+4uu88545508uXu.uXo2#O<X",
"qOXt#2.284X+q5.X8uX55u08qu888858.88845X884+5q5858855588*uXo2#t2e",
"tOe5#e.t85+8X0.5qu85X88u8888.585.85.855.54+8u8.4u8u5555*eXo2oOee",
"tOO5$X808+Xqu58+58+55u58uu5585u88+q5.855555qu5855u858u8.6eo4oO7e",
"OXtt$t8t.5uqX558+Xu+8555u.058u858885.u85X5uuu558+u8558X.w6o0o7eX",
"2XtO$X.to858558855qu58uu8.588u5uu88888u88855550.5Xuqu5u.wpoOo O2",
"O4ut$X.O#548485855q8q5+u885.uu.u55u8u588885X585545quq58.w6ot$<X5",
"O2tu$0.+  a%==%waaaa=%waaaaaa13=%waaaaaa131aaaaaa11wawwaweot$<O5",
"ttXt$+.99tt9O950OOOt950OOOt0tXu950OOOt0tXutt0u45449X4tutOtot$6XX",
"5X24$t.ooooooooooooooooooooooooooooooooooooooooooooooooooooO-pO7",
"OtXu$7ee7wO7667676a767676a7e77e67676a7e77ee7a6w76wewa77e6OOO-p22",
"5t2t$$.o.$$o89....tt9....tt.$8.9....tt.$8.o.8.$o.t..o$$.$$.$$7eO",
"5t2OX5o0q8...q#qq..89q89qOOq#5q##5t.9qOq+..8qqOqqqq+q.#88...qO2O",
"ttOOX545O2Oe<OXe6O6XOO7O44t6eOOOttOOX545O2Oe<OXe6O6XOO7OX2Oe277O",
"OtOXttX2OO77<X2XOO6XO2OOOX4276XOOtOXttX2OO77<X2XOO6XO2OOXeOX72eX",
"7tOeXtX25OX7,X7XOO6XOXOeO04077Ot7tOeXtX25OX7,X7XOO6XOXOeXOXt<7XO",
"2uOXO440X46X<et4OO6XtX6eute5722t2uOXO440X46X<et4OO6XtX6eX0X277X ",
"OOXtt455X4eX265etOe OXeXX5Ot772OOOXtt455X4eX265etOe OXeXXO0O72X<",
"2X2XOtt57XXeO<ttt5XX0eOXXOXXe X22X2XOtt57XXeO<ttt5XX0eOXXOtOXXe7",
"2X2tX9tt2OO64 X0557XOeO0XOX0e 0X2X2tX9tt2OO64 X0557XOeO022te4OO<",
"X O2OeXt56O7e7t25tX7O227Ote0X2O<X O2OeXt56O7e7t25tX7O227<eO7O4X4",
"p66<www66,<  2244227pp66<ww27pp66<wwwp66<www66,<  2244227pp66<ww",
"o..qo....o....o..@oo.o..qo.oo.o..qo..o..qo....o....o..@oo.o..qo.",
"ppp6677a777a77677666p%%pe6766p%%pe677ppp6677a777a77677666p%%pe67"
};
