/* XPM */
static char *PANEL6[] = {
/* columns rows colors chars-per-pixel */
"64 128 36 1 ",
"  c #67533F",
". c #3F2B1B",
"X c #5B472B",
"o c #332B13",
"O c #5F4323",
"+ c #4F3B23",
"@ c #372313",
"# c #3F2F17",
"$ c #2B230F",
"% c #8F5F37",
"& c #2F1B0B",
"* c #432F1B",
"= c #9B633B",
"- c #1F170B",
"; c gray23",
": c #A36B3F",
"> c #373F27",
", c #775F4B",
"< c #6F5743",
"1 c #7B634F",
"2 c #836B57",
"3 c #5F4B37",
"4 c #574333",
"5 c #4F3B2B",
"6 c #675333",
"7 c #774F2B",
"8 c #4B371B",
"9 c #43331B",
"0 c #875733",
"q c #6B4727",
"w c #533F1F",
"e c #4F3B27",
"r c #7F532F",
"t c #473323",
"y c #775F3F",
"u c #533F2F",
/* pixels */
"    66y666y6676677776q7qq66y6676677776q7q   66y666y6676677776q7q",
"u99t89e9www88tee889889999www88tee8898899999t89e9www88tee88988999",
"4    1   343<  3445343344 3 3  33  3<3344 44  < 3   333334444434",
"  <2,1<,34 33  3 353  3 33<<< < << 2<3553< 333<<         43  333",
" ,,21,<   < 343333333 3335<3 333  2<33333 2  3   3 <<    3 33 33",
"4 <2<  <    <333<  3   3 3 333  32< <3533<2<3333 3   33, 3  3333",
"<3<2<  <<<   33 3  3  3,11 3333 2< 3 33   1<33333  <35  33 33333",
"3< <   <<   <33 < <  3 211 33 32< < 333    2 3334   33  333 333 ",
"3 <   <,<<<,<333< <  <211     <,,<, 3   ,< 13333 333<   3    43 ",
"3,< <<< << <<333,<   <11<   <, , <,  3 1,<<<1 3      3<<<33333  ",
"3<1< <<11 333333   1, 11< <,<<<2<<<3  <,< < <<3 <<<     3 333   ",
"  ,, <<1<  < <43  <11  <<,<<<21<<     <<<< < , <<<<<<< 33  3434 ",
" <   <1<< 3 << 3<<2<1<  <<3 2,,<,<<    <<<<   2<<<< ,<< <  4334 ",
" <<<  <<,1,<<<  <<1<1, <<21,<<<,<<   3  < <<   2<,<,,<< <  33333",
"<<< << <33< <4 <,,11<1<<21< <,< <, 3 3    << <12,<,,,<    < 333 ",
"  << 22223  3  <<11,,<<1<< <,,< <<<      <<<< ,,12<<<< <      3 ",
" 33 ,2,<< 133   <,,2221 << <<<,<<<< <<  3<<  <3  <2<,,,,< <   3 ",
" 33,,1<<< < ,<  12221,<   <,< <<<<,  <<   ,  3 1 <<<3<,,<< <   <",
"3<<,11<,<<<< <<< <<,,11<<<<<3 <<< <,<<1<      << 1<<3 <<  <<  3 ",
" <,<,,<,<,< << 23<<,11,1,,       ,1<<,1<   3 <<    <<,<  < <<  1",
" << 1,,<<,, <,<2 <<,<1<<,<<      <,,<,<<    <,<  3  <,<   < < , ",
"  <<<1,<,,,< 1<2  <11,1, <   < < <1<,< 3  3  < < 33 2<<3        ",
"  <<<,,<<<< <<<1< <<11<<   <,,<,<<   3   < 3<1 <333<2   3    33 ",
"3,<<<< < <3 <<, , <1,1,,    ,2<1< < <    <   <<< 33<  3 <<33<3 ,",
"33<< 3 <  12222<,<  ,,1<  <,1111<<<<   <    3 << <<  33 <11  33 ",
" 3 3<3 <  , ,  2<,   1 <  <<<1<,<<<11,<   < 3  <<< 3 3   3<  33 ",
"3343 ,<21<1 <<1<,<<  <   ,<1<11,2<,2211    33  31<333 333  33 33",
"  < 1  <<< <41<12 ,,      <,,<12,1,221 << 33   32<333  33  333  ",
"53 33  3 < 3< ,1<1,< 33   < < <,1,< <1<<<33 < < 2333 33     3 33",
"3333533   <,< , <<3 3 3     <21<111  <    3 <3  23333 3  < 3 353",
"333353 3<   <3<< 3<     3 <111,1<1, 33<      <<,, 53 3<<3   3 33",
"33333333   <<<<< <, << 3 < <1 <1,,1 3         <1, 3   <<<3  3 33",
"3333333 3<<<   <   1,,,  ,, ,,,11,< 4 33 43<<<1<  3 3,,  <,     ",
" 3<43 3333<<,33  < 22<<        <<    3 33 <<<<<,     ,<  1<  3  ",
"3 , 34 <334      << 2,< 33 << 3 3  3333  3 <1 ,<      < << <    ",
"  <<43,< 433  <<     1<3343  3 3   3   3 <<<3 1  3   <  <  << 3 ",
"   ,331< 3333, <  3< 13333343 3     3 <<1<   <,<3  <, <21< <<<  ",
"  <  <,<< 331<  33<3< <3333      <  <,  <,<< ,,,33  <<<<<<, 33  ",
"< <<< <,<< 3<<    ,   343    <<1<< <<   ,,  <<    3 <1,<<<<, 33 ",
" < <<,,, <3<<<  4   333343 ,,1<<<1222<<,,<<<<< 3     <<<1<<< 33 ",
" <<,,<<<< 33    < 33   <,<   <<<22,,<<<11<<<<<   <33 <<<, <    3",
"  <<<, ,<    < < 3  33  <<   <2<<<,,<<<,<< <<,< 3   3<,1,1,   , ",
"  <<<<<,,,< ,<<<<  33   3< 3<1,<<<,,<,<<,<<,<<<,  < <<2,,1<     ",
"<< ,<<< 1,<<< <<44433 3333< 1,<,<<   <1,<<,,,< <3 < <,<<,11 3<  ",
",1,< , <<<< 31<44    <      < <<1,<,<,11<<333 <333< ,,<,<21<,,< ",
"1<<<,<<<<< 1<<<     ,<<     1 ,1< ,<,1<<, 3 ,,<<  ,<<,<<121,<<<<",
"<<11,<,   2<<   3< <<<,<< <,1,,<<<<<,11<  <<,<<   << <<<<,1<<<<<",
" ,2<     21<33  <<<<,,1,<<2<,1<<<<,,<<,<    <<1 <<,       <   < ",
"< <,<3 12<, 33< <11<<<11<, ,<,<<,,<1<1<<  <,1,3<< <<      <<,<  ",
"<<< <3<<<<<33 4 ,111,1,,2, <<   1<11,2,< 3<1132<  <    << <  <,<",
", <<< ,<1,<4  3 ,,,<<,<<111,< 3 <<11,< 3<  << <       ,<<<<  <2,",
"< 3< 2 <11<3   < ,<<< <<<,<<, 3  <<<1<   33  <  <<<   <<<  < <1<",
"    1 <,1, 3  3< <<<< ,1<22222,11,  <    4 4 <<<<<<<<<<<1< < <<,",
"   ,<<<1,1<33 <   ,<<2,,,11<<, <1111,<   3<<<<<<      11< <  <<<",
"  ,< <,,,< 3 3      12<<111,<<,,,<,1< ,  33   <, <<   <,   <<<< ",
"31 <<<< <1 53< 333 <2,<,1<<<<<1 <<,< 3    3 3 <<<<           <  ",
", < <<< 3<34 <<333 , <<2<  <<<<< < <3 ,<3   33<<<<<<          <3",
" <    ,<<<    <3 <32 <,,<<,  <,< 3 << <,< < ,12221<<      <,,<  ",
"  33 , ,11<34 < ,1<    <<,<  <<,< 3 <<3 <    ,,,1,1 <  <<<<< <1,",
" 3 < <<<<21  << <,<2   <<,    ,1 333 <   < 3 <<,11,   < <<<3<22<",
"  3 11< <2,  <, <<<2,3 <<<< 3<<1 35  < <<< 3 <<   <<  312,  <2< ",
"  <<11 <1,,,<  ,<  2,       3<,,43     <  <3 ,  <,< <  <<< <21,<",
"<, <1<<<2,<,< <1< <,<<  33343< <33,    <  <      <     << <2,<<,",
"<  <<,<2,,<, <<1  2,<<<3333333<1  <            ,,<<<< <   22,<<<",
" <<< <21<<   3 < 32,<<, 333333<22,<   <3<<<<  <<,, <,<<  <2 <<<<",
" <<<<<<<<<,1<   < 22<    33433 ,<,,,  <<        1111<<,1 1<3  3<",
"<<,< <<<,,,<< <,< 1,<    33   3  <  <<<<   <  <,,2<  <<<2<3     ",
"36rr77<00077,<  334433667073<3<7073<66666<<<<<11<  334433667073<",
"oo.o..9o....o....o..@ooo.o.oooo.o.ooo.o..9o....o....o..@ooo.o.oo",
"    66y666y6676677776q7qq66y6676677776q7q   66y666y6676677776q7q",
"u99t89e9www88tee889889999www88tee8898899999t89e9www88tee88988999",
"oo@@.@oo@@@@o&&@@@o@@$o##@@@@o&&@@@o@@$o#o@@.@oo@@@@o&&@@@o@@$o#",
".....oto8ooo$o............98..too.9.....+t...t..8...oooo..oooo..",
"wqOuqu3wqwww84OO6OO3qwwqwq60OX w4w7OXOOO% 34u uq0O7w8XOXXO8Xw+3O",
"7338OqqqX+u3uO+X0OO7qqq3O w7,u3OOwrqq3XO06quw6wq7O uuXXOX38O8X 5",
"q 38OO7OX+u XXwX0OOqqq33O<X7yu3OOX76qXqX7< 3Xqw37O uuXXqq3+XwX w",
"X3qwwq7qqqwu4w+w1XwXqq uX<OOO0q77q7<wu36XX1<33wOqO344XwuqXu43Xqo",
"Oqq8w:%%0r77700077,<  3344336rr77<00077,<  334433667073<<<77wwq9",
"u34Ow0oo.o..9o....o....o..@oo.o..9o....o....o..@ooo.o.oooo.ww7w9",
"uuu390o77777776677rrr767<<<        66y666y6676677776q7qO76ow9658",
"O8wq80o7wwu99t89e9www88tee889ewu99t89e9www88tee8898899999qow8Oww",
"uwwq80o7&@o$o@@oo.@@ooo9@@.oo$ooo@@.@oo@@@@o&&@@@o@@$o#@9qow8quw",
"wwX 8y@7@.to##.tttttt9#8.tt..o9#.t#t.t.9#.9.9.#o##.###5.96ow83Xw",
"uwX<8y@7tt5tt5tt955t5e55t595tt59.5tt5et9tett5et.5tet..t.96ow835w",
"wwwX96@6.tt.t9e.5t5t5t5t5eett5XXt5tt5ee+ett555ttt5et.t5.e7ow9wwO",
"wwwO#6oX#t.55t+tt5t54tte5ete5..4.55t+X.Xt5+55ut5ttt5tX5#87ow#wwO",
"+8ww#6.X9ttttt4tt5t555e.+ttet5.+tt5.Xt.et5t5555.ttette.#87ow#934",
"+++w#6.Xo555.t5t5t.X49ee5t5.ttettt459X.5X9+t4t55t5et+t..w6ow#>34",
"8uw4.XoXo5;t.5Xttttt5X9.5..ettt.55t5ettt59.e55t5tt5.ett.q7ow.9X+",
"8w8O.X.X#595t5.5.u.u45utt55t+5teeut5t5.Xtuete9e+.X.tt.5.w7o5.9X+",
"qu8q.X.Xot5tt.t5e+.e55Xet5t55Xte5tXtt55+Xtt5+5eX.5t5e.9o87oX.wX+",
"Xu8q#X@uot9Xt95t55t.45t9t5t4tteet5X+.ett+55t5ttt59ett.t#w6oX#u38",
"ww8O#3o4oee5tt555ttt+5tXt55+5595e+t5.5+t5e9et5+.u95t5t5oe6o #X X",
"wO+Xo6.Xt.t+t55tXutut5t9u55t+eXet++5t95u55+5tt...eet5ttow6ow#O<w",
"98uu.XoXt.55.t55ttett5+e5u5Xt5Xeete55eu55ut+5t..t59.5t5#q7owtO6 ",
"988u.X.X.5te.tte94ee95tett55tt55.t4..ee4t5t5ettttu55.etow7o5tO63",
"ww4w.X.Xtte5.5tet5t9e+e95+e9t5t5t++5..X5t5X5.X5.t5t5teto87oXtOu6",
"Ow4wtX@u.ttt55tte5t5t5X5tte+5ettt.5.ut+etttX555t+tt5tue#w6oXtOX6",
"OX43#3o4.t.t+t5tet.+t+5t55et5t+e+ttt+5595..t+t5tt5.+t5t.e6o 9XXX",
"XOeu#+o4.tt55ttetttett.ttt9etX.ttt5ttt9e+e5555tee5X9ett.e6o 96X3",
"OXXO@3oX.ett+5t9t5t55ttut.ttt555t+t55te9+tXt5ttXttt4tXe*eqo1#7X3",
"Xw3O#+.3tte5tt55555ttett5ttt5t5t+5t+5ttt4tt5tt5555t5ttt*e6o2#O3X",
"Ow 8@+.3t5t.t5t995t5tttetttttte5tttttet53t5.5tt995t45e5*e7or#wX4",
"X56w@+t4.59t5tt+5t5+t5ttttt.5t+tet4ttXte+5etXtt5X555e5t*eOor#5X4",
"8OXw@Otu.4595t54tt5te9t5tt55tetett+tt55e+4eett5455uteXe.eXo3#O<X",
"9OXw#3.3t4X+95.XteX55eut9etttt5t.ttt45Xtt4+595t5tt555tt*eXo3#w3q",
"wOq5#q.wt5+tXu.59et5Xttetttt.5t5.t5.t55.54+tet.4ete5555*qXo3oOqq",
"wOO5$Xtut+X9e5t+5t+55e5tee55t5ett+95.t555559e5t55et5tet.7qo4oO6q",
"OXww$wtw.5e9X55t+Xe+t555e.u5tet5ttt5.et5X5eee55t+et55tX.07ouo6qX",
"3XwO$X.wot5t55tt559e5teet.5tte5eetttttettt5555u.5Xe9e5e.0roOo O3",
"O4ew$X.O#54t4t5t559t95+ett5.ee.e55ete5tttt5X5t55459e95t.07ow$<X5",
"O3we$u.+  y%==%0yyyy=%0yyyyyy12=%0yyyyyy121yyyyyy110y00y0qow$<O5",
"wwXw$+.88ww8O85uOOOw85uOOOwuwXe85uOOOwuwXewwue45448X4wewOwow$7XX",
"5X34$w.ooooooooooooooooooooooooooooooooooooooooooooooooooooO-rO6",
"OwXe$6qq60O6776767y676767y6q66q76767y6q66qq6y70670q0y66q7OOO-r33",
"5w3w$$.o.$$ot8....ww8....ww.$t.8....ww.$t.o.t.$o.w..o$$.$$.$$6qO",
"5w3OX5ou9t...9#99..t89t89OO9#59##5w.89O9+..t99O9999+9.#tt...9O3O",
"wwOOX545O3Oq<OXq7O7XOO6O44w7qOOOwwOOX545O3Oq<OXq7O7XOO6OX3Oq366O",
"OwOXwwX3OO66<X3XOO7XO3OOOX4367XOOwOXwwX3OO66<X3XOO7XO3OOXqOX63qX",
"6wOqXwX35OX6,X6XOO7XOXOqOu4u66Ow6wOqXwX35OX6,X6XOO7XOXOqXOXw<6XO",
"3eOXO44uX47X<qw4OO7XwX7qewq5633w3eOXO44uX47X<qw4OO7XwX7qXuX366X ",
"OOXww455X4qX375qwOq OXqXX5Ow663OOOXww455X4qX375qwOq OXqXXOuO63X<",
"3X3XOww56XXqO<www5XXuqOXXOXXq X33X3XOww56XXqO<www5XXuqOXXOwOXXq6",
"3X3wX8ww3OO74 Xu556XOqOuXOXuq uX3X3wX8ww3OO74 Xu556XOqOu33wq4OO<",
"X O3OqXw57O6q6w35wX6O336OwquX3O<X O3OqXw57O6q6w35wX6O336<qO6O4X4",
"r77<00077,<  3344336rr77<0036rr77<000r77<00077,<  3344336rr77<00",
"o..9o....o....o..@oo.o..9o.oo.o..9o..o..9o....o....o..@oo.o..9o.",
"rrr7766y666y66766777r%%rq7677r%%rq766rrr7766y666y66766777r%%rq76"
};
