/* XPM */
static char *PANRED[] = {
/* columns rows colors chars-per-pixel */
"64 128 57 1 ",
"  c #470000",
". c #533F1F",
"X c #5F4B37",
"o c #5B472B",
"O c #5F4323",
"+ c #6B4727",
"@ c #4B371B",
"# c #533F2F",
"$ c #675333",
"% c #574333",
"& c #4F3B23",
"* c #774F2B",
"= c #43331B",
"- c #67533F",
"; c #9B5B13",
": c #473323",
"> c #4F3B27",
", c #3F2F17",
"< c #874307",
"1 c #6F5743",
"2 c #AF7B1F",
"3 c #3F2B1B",
"4 c #4F0000",
"5 c #4F3B2B",
"6 c #7F532F",
"7 c #2B230F",
"8 c #C39B2F",
"9 c #332B13",
"0 c #5B0000",
"q c #670000",
"w c #430000",
"e c #1F170B",
"r c #875733",
"t c #732B00",
"y c #D7BB43",
"u c #131313",
"i c #372313",
"p c #7F0000",
"a c #730000",
"s c #775F3F",
"d c #170F07",
"f c #775F4B",
"g c #8B0000",
"h c #7B634F",
"j c #0B0B0B",
"k c #8F5F37",
"l c #9B0000",
"z c #530707",
"x c #836B57",
"c c #3F472B",
"v c #1B1B1B",
"b c #B30000",
"n c #373F27",
"m c #2F371F",
"M c gray23",
"N c #432F1B",
"B c #836B4B",
/* pixels */
"...:u9OkO77=.O@X.XO%X.%o%%...%#.+Xo.oXOoXoo%++.+...O:u9OkO77=,.&",
"...=ue9O*@u@.O.X#X.#X.O+o%.%X##..#o.>X>#+%.%o%#+...o@ue9O*@u@@.,",
"o...9=73O+7@.+ooX#..o+.+..%-%o#X@%oO@o.@o+XX..#.#++%@9=73O+7@@.,",
"#...iO#e3@e@...XXX.#X6.+...XXoo+.Xo%.o#.$++o....#+o%@iO#e3@e:>&,",
"O..=u.*@73u@..O%$XO%O$.+o.Xo+oo+.oX..+%oo..X#....O+O=u.*@73u:.X.",
"O#&=u3Orouj@...%%O.OO$.+o%X#oo%X.oX>..#X.%.+O.....+O=u3Orouj=.X,",
"@..=uu3O6Oj=..#o+Xo++*o+o%*X#-o%.oo...+X.o.oO.&,O#.O=uu3O6Oj=.oo",
"@.@=9=73O+7=..#o.X.++*oo%XoooXX>Ooo.O.+%.o.OOO>@O..-=9=73O+7,.o#",
"...=iO#e3@e&X.%..%.+oX$%XXooX+X..o..X>+X.OOoX.X.#.#$,iO#e3@e=..o",
"..X=9.*Oe97&X&...%OX,<q,XXX#X++o.o..X>+o.,q<,,o.#%.-:9.*Oe97=..o",
".#X:u9OkO7e&X5.o.#y;;8;pg<;28888888822;<gb;y<;y+.%oX&u9OkO7e....",
"..#=ue9O*@u&X>.o##<ty;qapllgt<<<<<<<tplblpqy;t<+.o.-:ue9O*@u.O.#",
"...:9=73O+7&o..%X#,78<0qapggaq44444qpgga0 48<7,%ooOo:9=73O+7=+.#",
"..o:iO#e3@e&oO.oX.o,;;40qqqapppqqapgppq4 4w;;,>++oOX&iO#73@e@.%.",
".@X=u.*@73u&X%.+X%$+2< 400440qapppaaq0w44ww2<%#X%-XX&u.*@73u=..>",
".5X@u9OkO7e&X..--&oo;;w 4004ww400000ww44www;;.oX%%%.&u9OkO7e:&.>",
"&=&.ue9O*@u&o+.+#.#+2<ww 40q04wwwwww44wwwww2<OOO.o..&ue9O*@u:..&",
":==.9=73O+7&oOO$##.X;;www 400qqqq00z4wwwwww;;OOO.o.5&9=73O+7=O.&",
"=&=,iO#e3@e&o&:%#...2<wwwww 4z00004 wwwwwww2<@OO.o:o&iO#e3@e=#==",
":&:,u.*@73u&o.&##..O;; wwwwwwwww  wwwwwwww ;;&OO&X=o&u.*@73u=#@@",
"&#==u3Orouj:-#&Ooo#.2< wwwwwwwwwwwwwwwwwww 2<.&o&X.-&u3Oro7jmc9=",
"&#.=uu3O6Oj:X...o.#&;;   www    zz4   wwww ;;.#O=##->uu3O6Oj,c==",
".5X=9=73O+7:%XX.-X#.2<  w wwwwwwwwwwww w   2<Xo+..Xh:9=73O+7,&=9",
".MX=iO#e3@e:XXX&-XO.;;    w     44       w ;;-.+.#Xx:iO#e3@e,&==",
"O.#=9.*Oe97&o-#o$-%o2<        wwwwww       8<X..OO*6&9.*Oe973===",
"O.#=u9OkO7e=O-#O$-XX;;                     ;;-.oOO*6:u9OkO7e,=@=",
".X&=ue9O*@u:XoX.+%-.2<                     2<Xooho*X@ue9O*@u9.o&",
".X@=9=73O+7@+o..*XX.;;                     ;;XoOho*X&9=73O+7,.O@",
".O@=iO#e3@e@o-#:$#--2<    ;           ;    2<#o*r+-%@iO#73@e,X#:",
"@O@=u.*@73u,.-.:-#--;;   ;8;         ;y;   ;;.**r*-#&u.*@73u,X#:",
"..O:u9OkO7e=o+.+o%#-2<  ;y88;       ;y88;  2<.6k*6+O@u9OkO7e=X.@",
".&O=ue9O*@u=o+OO+##-;; ;y8882;     ;88882; ;;.rk**+.&ue9O*@u=X.=",
"&.#@9=73O+7:#X&#oO.X8<  ;882;       ;882;  8<#*r+++.@9=73O+7,O#&",
"....iO#e3@e=&X@&OO.+;;   ;2;    ;    ;2;   ;;#*$+O+.:iO#e3@e,O..",
"OO#.u.*@73u=.o..+:#O2<    ;    ;y;    ;    2<O*+O++O=u.*@73u=%=+",
"Oo#.u3Orouj:#..#$:#O;;        ;y88;        ;;O*+oOOO,u3Orouj:%=O",
"o.O=uu3O6Oj:#o.oO##-2<       ;88882;       2<.*+oOoO:uu3O6Oj@#3o",
"oo.=9=73O+7:#o.oo##X;;        ;882;        ;;O6ooOo$:9=73O+7@O=o",
"o.#@iO#e3@e=..O+o&##2<    ;    ;2;    ;    2<X6XoO#O:iO#e3@e>#X.",
"ooO.9.*Oe97=:.O+o.#.;;   ;y;    ;    ;y;   ;;-++.O#O:9.*Oe97>#X&",
"oXO@u9OkO7e3:#OOOOOO8<  ;y88;       ;y88;  8<-+O*O+O3u9OkO7e=.XO",
".+O:ue9O*@u3@%OO$OOX;; ;88882;     ;88882; ;;-#+rO*.=ue9O*@u=&XO",
"*XX,9=73O+7:#O&orOO*2<  ;882;       ;882;  2<$.+*O-#39=73O+7,o-5",
"+-X,iO#e3@e&oo.orOO+;;   ;2;         ;2;   ;;+.X*O-#:iO#e3@e=o-.",
"oX+=u.*@73u&%.&.ho.o2<    ;           ;    2<X.O+OX%=u.*@73u>o+9",
"O++,u9OkO7e:%#o.f+.+;;                     ;;XoO+OX#:u9OkO7e@.+=",
"#X%@ue9O*@u:XoO.$+oo2<                 4   2<O.#+OX#&ue9O*@uO*.=",
"###>9=73O+7&X#o#X*.o;;               44    ;;-.#OOX#:9=73O+7O$5@",
"O@..iO#e3@e@.OX#X1X#8<             44      8<+..O..O:iO#e3@eOO..",
"#...u.*@73u=.Oo#--XX;;           444       ;;o.@OO#O=u.*@73u.+#.",
"..o#u9OkO7e=&*&&+o-%2<         4444        2<*..ooOO@u9OkO7e=Xo.",
"#.o%ue9O*@u=.+.@$o-#;;       ;8yy88;       ;;6.OooOO3ue9O*@u=X5.",
"...@9=73O+7=&o$.X%#-2<     ;y8;t t;28;     2<X##&oO&,9=73O+7,..O",
"...@iO#e3@e=&o-oX%#-;;    ;y;       ;2;    ;;-#.@oO.=iO#e3@e,..O",
"&@.=u.*@73u=.#%X&o@o2<   ty;         ;8t   2<o-#&o*@=u.*@73u==X%",
"&&&=u3Orouj=@#oX&o.o;;   ;8           2;   ;;#X%&o*@=u3Orouj:nX%",
"@#.:uu3O6Oj=#o.-.X.X2<  t8;           ;8t  8<+O6.o.O=uu3O6Oj,=o&",
"@.@@9773O+7:#..-O$.O;;  <yt           t8<  ;;XO*.o.o:e773O+7,=o&",
"+#@.u39e3@==.+#X$o..2<  <8             8<  2<#O&X++X==Nie3@=:.o&",
"o#@3X$X-11-@OO#--%.O;;  <8t           t2<  ;;#O@X+$X=f$X-11-3#X@",
"..@3o..X--%=.o#%rXOX2<  t2;           ;2t  2<&@@.O+.@-.#+#X.3o-o",
".O&,.#oo-%X=.o#XXOOo;;   ;8           8;   ;;.@..o+.=6#@O+O+,O1.",
"=@#,oO+o-%-=@oo++1O+8<   t2;         ;2t   2<O&,.Xoo=rO@OOOO,O$-",
"=@@iXxh-f@-,@oo+O1O+;;    ;2;       ;2;    ;;+&=.oOX=rxh-f@OiO$X",
"..%9+1%-.3X:$#X>O%o*2<     ;28;t t;82;     2<#X>O%o*=61%-.3+9O#$",
"O.%,X-.%.7%>$>#oOX.$;;       ;28882;       ;;>#oOX.$:X-.%.7#,Oo$",
"Oo%9-@9377O>-5.+OXo+2<                     2<5.+OXo+:-@9377#9ooo",
"oO>9X+....*&$5O+oX51;;                     ;;5O+oX51>++o%X5O9$oX",
"Ooo,++@...+:X5oX$XoX2<                4    2<5oX$XoX>++@...+,*oX",
"o.X,5>@@::::Xo.++oO$;;                   ww;;o.++oO$>5>@@:::,OXo",
"O.-:eeeejde:oXO$oX-$8<              4   ww 2<XO$oX-$&eddd7ed3.o%",
"o5$@d39ieee&oOo1X5Xo;;          4 4    w   ;;Oo1X5Xo&ev7e3vd@5o%",
"@Oo@u9@@7eu@+o.*oOo52<         4     www   8<o.*oOo5&u7.@73u@O1o",
"=Oo,uiOkO7e@+X.$+OO%;;              ww  w  ;;X.$+OO%.u7OkO7e..X+",
".O+=ue9O*@u@+-.$%OOo2<           wwww w    2<-.$%OOo.ue9O*@u@O++",
".OO=9=73O+7@+-oX$OO$;;     w   wwwww w     ;;-oX$OO$.9773O+7@O$+",
"Oo.=iO#e3@e&-$X.*6++2<       wwwwwwwwww    2<$X.*6++.iO#73@e.$+o",
"Xo.=u.*@73u>1XXo$s+O;;       wwwww w       ;;XXo$s+O&u.*@73u@-OX",
"O%>=u3Orouj@O$OO*1$.8<       w  w w w      2<$OO*1$.>u7Oro7j.1o5",
"OX.=uu3O6Oj@+$O++11.;;         w           ;;$O++11.>uu3O6Oj.1O5",
"..o@9=73O+7&XO++.X$.2<                     82O++.X$.59=73O+7&*oo",
"5oX=iO#e3@e&oO*+oo1O;;                     2;O*+oo1O&iO#e3@e%6O$",
"O.o=9.*Oe97>$.++X$$+2<  4     4          ww;<.++X$$+&9.*Oe97&6XX",
"5.X=u9OkO7e>*#+*X+*+;;4   4 4    4     wwww;;#+*X+*+%u7OkO7e&$+O",
"5.X:ue9O*@uO*.o**+*O;<0444    44     wwwwww2<.o**+*OOue9O*@u.OXO",
"..O=9=73O+7o1Oo+*O*o2;q0044444     wwwwwww ;;Oo+*O*oO9=73O+7>$$O",
"O.O=iO#e3@e%1oXoOO*o22qqq044     wwwwwwww  2<oXoOO*o%iO#73@e&X+o",
"$.O@u.*@73uXfo$oOO*o22q044     wwwwwwww w  ;;o$oOO*o%u.*@73u%$oO",
"X>O@u9OkO7eX1+.%OO*o2;04    wwwwwwwwwww    8<+.%OO*oXu9OkO7e&$o-",
"OOo@ue9O*@u#X*5+.O+-;;44   wwwwwwww  w     ;;*5+.O+-%ue9O*@u&Xo1",
"XoX.9=73O+7>O1...5oo2<   wwwwwwww ww   w   2<1...5oo%9=73O+7@o+$",
"XoX@iO#e3@e&%-o#55$o;; wwwwwwww  w  w      ;;-o#55$o>iO#73@e:OO1",
"o-O=u.*@73u>+$.X5.o$2<wwwwwww  w           2<$.X5.o$>u.*@73u@%o%",
"+Oo@u3Orouj&X$.%%5o$;;wwwwww w   w         ;;$.%%5o$.u7Orouj.+o%",
"O.+=uu3O6Oj>-X.ooXXo2<wwwww w w            2<X.ooXXo>uu3O6Oj@$o-",
"O.*>9=73O+7>X$...#X1;;www w             w  ;;$...#X1#9=73O+7@XoX",
"XO+&iO#e3@e.+6Ooo$$s2<www          4  ww   8<6Ooo$$s&iO#73@e@$oX",
"X.O@9.*Oe97>$sO+.***;;  w       444 www    ;;sO+.***>9.*O797.$X+",
"oOo=u9OkO7e&X$O+O++$8<        444 www w 44 2<$O+O++$>u7OkO7e@XX$",
"o+#=ue9O*@u#1$$+O+X*;;    444404 wwww  444 ;;$$+O+X*&ue9O*@u@+oX",
".+.=9=73O+7%s+.++o+o2<  4440004wwww  44444 2<+.++o+o>9=73O+7@O$o",
"O+O:iO#e3@eXB6.*+oX*;; 440qq04www w 444400 ;;6.*+oX*>iO#e3@e@+*$",
"Xo+=u.*@73u%1s%OOO$s2< 4qaaa4 w  w 44440q0 2<s%OOO$sXu.*@73u.X$$",
"ooO=u9OkO7e%rsoO++-6;; 4ppaq       4440qq0 ;;soO++-6#u9OkO7e%$o+",
"oOX=ue9O*@u.$*6*.X**2< 4paq4  <222< 40qqq0 2<*6*.X**%ue9O*@uo*$*",
"$OX=9=73O+7.+*6*%o61;; 4aq4  <2;<;2; 40qq0 ;;*6*%o61>9=73O+7O*++",
"o%#=iO#e3@e@O*$6X-Oo8< 4q4  <2;,7,;2; 40q0 2<*$6X-Oo.iO#e3@e@+*+",
"o%%@u.*@73u=5$$X%+OX;; 44  <2;,,@:,;;; 400 ;;$$X%+OX@u.*@73u:-**",
"O%o=u3Orouj=.$+o>*OO2< 4  ;2<=@OO%@,;2; 44 2<$+o>*OO:u3Orouj:$++",
"oOo@uu3O6Oj3OO*-=+Oo;; 4 ;2;,@#ooOo@,;2;   2;O*-=+Oo=uu3O6Oj=X*1",
"%oO@9=73O+7:XOO$>$.%22  22;,@OO-%oOX>,;28  8;OO$>$.%@9=73O+7@+*$",
"5o.@iO#e3@e:Xo#1>-o.;2882<,@OOX*5o.XX@,<2882<o#1>-o.&iO#e3@e=X$O",
"o-O@9.*Oe97:X1O1>XXo2;22;,@ooO*oo-OO$O@,<22;<1O1>XXo&9.*Oe97:Xo$",
"5-O>u9OkO7e&X*OsOoXo><;<=@oo.O+O5-O+X$O@,<;<>*OsOoXo&u9OkO7e=$oX",
"O1O>ue9O*@u:X1O*-.Xor=,,>OXO.+XOO1OOooOO@,,=>1O*-.Xo:ue9O*@u=$$O",
"O-O@9=73O+7:X$OXoo1-$.=@-.oOOOXXO-O.XoOO:@=@%$OX$o1-:9=73O+7>o$O",
"@*-.iO#e3@e:#-*X#X$+XXX.oOo%oOoX@*-oXXO*OXooX-*Xo1$+&iO#e3@e@$X*",
">+X@u.*@73u=O.O$:1$OoX%.ooO%OOoX>+XXXXOOOo.O#oO$#1$O:u.*@73u=%*+",
".O5=u9OkO7e3OOO*.1XOo$o%OoXoOOo*.+5OO+#ooXo.O.O*:fXO@u9OkO7e=5O1",
".+5@ue9O*@u:-OO*.fXO.-oOOOXO+++*.o5**+OOO%X5-Oo*.XoO@ue9O*@u@5o$",
"o.O>9=73O+7=>#o%%X$OO+O6O%X>+.oO%oOXXoOXOoo.X+Oo.+OO&9=73O+7.oOo",
".OO@iO#e3@e:#.o%X$-o%+O6%XX>O.XO.XOXoXO+OXo.o#O#.+%O=iO#e3@e&ooO",
"OO>.u.*@73u:5+O#+o-oXoXX>o+%OoXX.oo.XoOo.+o>>+OOO+XO:u.*@73u@ooO",
"oO>.u3Orouj=.oO.X+$O%o$OO#+#o%oXOX%.X+oXOoo>%*OOOXX+:u3Orouj=%.O",
"OO..uu3O6Oj=.>XO%Xo$OOoOXOooXO.X+X..6*+oO$XOX%.o.o+O=uu3O6Oj=..o",
"+O.>9=73O+7=>>X>oooXXo*OX>oooo.X.+>.6o+o%XoOXX...%++=9=73O+7=.Oo",
"O..>iO#e3@e@O>.%.%.oXo*OXooO.OOOXoX>+++X#ooOX>X..o+.3iO#e3@e=@o.",
"+>O=9.*Oe97@..>%.oO.%+*OX@.o%OOOXoo#o++oX+OoX>%...+.39.*Oe97=5o."
};
