/* XPM */
static char *PIPEWAL2[] = {
/* columns rows colors chars-per-pixel */
"64 128 51 1 ",
"  c #070707",
". c #1F170B",
"X c #170F07",
"o c #2B230F",
"O c #0B0B0B",
"+ c #43331B",
"@ c #332B13",
"# c #131313",
"$ c #1B1B1B",
"% c #574333",
"& c #2F2F2F",
"* c #232323",
"= c #533F2F",
"- c #67533F",
"; c #3F2F17",
": c #5F4B37",
"> c #4B371B",
", c #5B472B",
"< c #53573B",
"1 c #6F5743",
"2 c #675333",
"3 c gray28",
"4 c #0B1707",
"5 c #430000",
"6 c #4F3B23",
"7 c #775F4B",
"8 c #4F3B27",
"9 c gray23",
"0 c #473323",
"q c #3F2B1B",
"w c #4B4B4B",
"e c gray31",
"r c #533F1F",
"t c #000017",
"y c #3F472B",
"u c #474F33",
"i c #5B5B5B",
"p c #00000B",
"a c #836B57",
"s c #7B634F",
"d c black",
"f c #5B6347",
"g c #232B0F",
"h c #8B735B",
"j c #2F371F",
"k c #373737",
"l c #676B4F",
"z c #373F27",
"x c #171F07",
"c c #000023",
"v c #13230B",
/* pixels */
" X$#. OX#.#$#X4   Xoo O  #%X  -. .. .-. O- .%# .e#  *&   # o%XX ",
".#o.  OX..oo$..X  X.*  O .+X X-. .. Oe. O% .:. .=. $*X   4 o+X. ",
"O.X   ........ooO O.@  $ O+X X%. .. #-o O% .:. .+XX*.   X....#XO",
" XX  Oo. O    .oX  v&  @O @. X%# .o#@=@o@+ .-# ..X$.    O.XXXO O",
"OX.O X@. O#XX  o.  X.  @  +$  + X+@O.@ooo@ .-. .#$X      XXXXO O",
" OX  X@# 4$#$  oo  .&  $ X-.    @@Oo@oooo@ .-. $&X      O4OX.XO ",
" X$O X@# XX O  $oOX.@O   X%# X .X @@...... .:..@#    4  OOX4X.O ",
"  O  X@X 4  O  .oO Xo .. X=X oXX o%O     5O.-#.XO       4XX4XX4 ",
" O$4 X@#       $&  Xo #.  +. XX  +;O      &.oo@&#      OX4XXXX.4",
"  X  X@.   c   .@  O. .oO &$  .  %@O      o...o@$   X&XO.......o",
"  $X X@$  $&$  o@   . .o  +o  .  %@O     X... X@.   $+..XOOOXXXX",
"  X  O@$  &3&  $@   # $# O=o  .  %+  ##  #o@@  +$   .&Xo. XXX.X.",
"  X   o$  $&$p $&OOX& ..  +o $.  w3  &$O##o@o  +*   o. .oOO.X#.$",
"  O   OX Otpt  #oOX.@    O+. oX  $&     #  .O O+$   &&  &#   O.X",
"  *o   XOOOO$O #o  .@  o O+.     O.XXO O*O    O+*   @;  @$  4X+*",
"  &&   # OXO$O #@  Xo  oO ;$   O  XXO  O*O    O+*   &;  +& OXX&*",
" O@@  $* O O$  .@  Xo  @. @@  OXO..ooX O*X    #+o   &+  @o .XX@o",
"  @@  **    O  #@  X.  o  ;@   X...@@.  $#X*$ O=o   &+  @. o.O@&",
" O&&O O$O      .@   .O X  +&   .   Xo.  ..o&& O+*   @+  @o o@Xo*",
"  @@4  O  $&$  #&  Oo  O  &$  OX #O .@  ..o@o  +o   &+  o. oooo.",
"  o@X    #&3&  .@OX.@ $$ X+$  OXOoX .@  .X XX O+o   @&  @. .oo@.",
"  @@O  # O$&$  .oOXo; oo .=.   OO.X #@  $O O  O+*   @+  &. o.X@&",
"uuuuuuuuuuuuuuuuuuuuuuuuuuuuuuuuuuuuuuuuuuuuuuuuuuuuuuuyyuuuuuyy",
"ffffffffffffffffffffffffffffffffffffffffffffffffffffffffffffffff",
"llllllllllllllllllllllllllllllllllllllllllllllllllllllllllllllll",
"ffffffffffffffffffffffffffffffffffffffffffffffffffffffffffffffff",
"uuuuuuuuuuuuuuuuuuuuuuuuuuuuuuuuuuuuuuuuuuuuuuuuuuuuuuuuuuuuuuuu",
"zzzzzzzzzzzzzzzzzzzzzzzzzzzzzzzzzzzzzzzzzzzzzzzzzzzzzzzzzzzzzzzz",
"jjjjjjjjjjjjjjjjjjjjjjjjjjjjjjjjjjjjjjjjjjjjjjjjjjjjjjjjjjjjjjjj",
"gggggggggggggggggggggggggggggggggggggggggggggggggggggggggggggggg",
"xxxxxxxxxxxxxxxxxxxxxxxxxxxxxxxxxxxxxxxxxxxxxxxxxxxxxxxxxxxxxxxx",
"dddddddddddddddddddddddddddddddddddddddddddddddddddddddddddddddd",
" X      #   #X  X.o  OO   X   .      .   X  o  XX    X.     X   ",
"+>>>>>>>++++++>+>>>>>>>>++++++>+>>>>>>>>>>>>>>>>++;;++>>>>>>>>+>",
"%%:%:%:%%%%%%%%%%%%%:%:%%%%%%%%%%%%%%%%::%%%%%%%====6===%:::%:%%",
"1---:---1---:---------111---:3::<------1--1711-11111111-------17",
"7777177777777777777717777777777777777777777777777777s17777777177",
"-------------1----::-::%%:-:-1---------------<-<<-1111--1-1111--",
",,,,:,,,,,,,,,,%%,,%:,,,,%==%%%2-:2,:2,2222222,222---:---,,,2:,2",
"%%%%%%%%%%%%%%,%%%%%======6=66,%%%,,%,,,,,,,,,,,,,,,,%%%%,,%%%%,",
"=========%=========66666666666666==,==,===%%%%%%%%%%%=======6==%",
">>>>>>>>>99>>k>>>>>>>>>>>>>>>k>>>>66>666666>>>>+>>+>+;;;&k>>>>>>",
" ddddddddddddddddddddddddddddddddddddddddddddddddddddddddddddddd",
"..     O$X  $.  .@qOX##   .   oO    Xo  O. X0X ..    .oXXX X.X X",
"+>>>>>>>++++++>+>>>>>>>>++++++>+>>>>>>>>>>>>>>>>++;;+>+;+;;;+++>",
"%%:%:%:%%%%%%%%%%%%%:%:%%%%%%%%%%%%%%%%::%%%%%%%====6>>666>=6=%%",
"1---:::-1---:3::<<----111---:3::<------1--1711-111111-----<-1117",
"7777177777777777777717777777777777777777777777777777s77aaaah7777",
"-----:::::%:<1-<<<::-::%%:-:-1---------------<-<<-111-11111-----",
",,,,:,,,%%=%%%,2-,,%%,,,,%,,,,,2-:2,:2,222,2:::2--------------,2",
"%%%%%%%%%%%%%%%%%%%%==66666666,%%%,,%,,,,,,,,,,:::::::::::::::%,",
"=========%=========66666666666666==,==,===%%%%%%%%%%%:::,,=,6==%",
">>>>>>>>>99>>k>>>>>>>>>>>>>>>k>>>>66>666666>>>>+>>+>+>>++>>66=>>",
"dddddddddddddddddddddddddddddddddddddddddddddddddddddddd dddddd ",
"#O XO O O.XX   X...        X  ..  X   X@O XXX...  .0  O$*O X  ..",
"+>>>>>>>++++++>>>>>>>>>>++;;+>+;+;;;;;;++++>>>>>++;;+>+;+;;;+++>",
"%%:%:%:%%%%%%%%::%%%%%%%====6>>666>=6>=6=66%%%%%====6>>666>=6=%%",
"1---:::-1---:3:1--1711-111111-----<--<-1111711-111111-----<-1117",
"7777177777777777777777777777s77aaaahaah77aa77777aa77aaaaaaaaaa77",
"-----:::::-:<--------<-<<-111-11111-11-------<-<<-111-11111-----",
",,,,:,,,%%=%%%:222:,,,:2------:::::-::----222222222222-----:::,2",
"%%%%%%%%%%6=66,,,,,,,,,,,::::::,,,,,,,,,,,,,,,,,,,,,,,,,,,,,,,%,",
"=========%========%%%%%%%%%%%66666=,6=,6===%%%%%%%%%%:::,,=,6=88",
">>>>>>>>>99>>k>6666>>>>+>>+>+>>++>>6>>66===>>>>+>>+>+>>++>>66=>>",
"                                       X           .   OO       ",
"#O XO O O.XX   X...        X  ..  X   X@O XXX...  .0  O$$O X  ..",
"$# .O O O@..X  .ooo      XX.X o@  .   .=O ...oo@  @-X O&&O . Xqo",
"&$ $X O  .o+oX   o*      . $; X. O$   .%O ...o@+  @-O @+.  . Xqo",
"&$O&X $X .o+@X   &@ O  O  X@. @@ O$  Oo=O @. .++  @%#o+.. O+ X%+",
"# #;X @X .o+@   X@o   $*$#@.  X...O  Oo+  @  X+%  @+..OO. X@ X%;",
"#O.@. @X o@+o  XOo@ O &;@.+O   .@@    o+X .   @%  @%#  ## O@ .%+",
"  .+.O@. @.X@X .o@o   @@5 +X X @+@O   o=X X X o-O @-.     X@ .%&",
"  .+. @.X+  @ O@@@o   9. O%O X @%+X   .+. X . .-# @1.   #*oo .%o",
"&$ +oXo..@OOO  oooo  #9 O@+ O. o++X   .=. O . .1# @1$  #3&O. .%o",
"3&O@oXo.X@.o.  O .o  #& @+@ OX o++X   .+. X . .1# @i$ $+o  @ .%o",
"&$ &oXoXX@oooXX   $  #* o@@ O. o++X   .+X .OX @-X @w##+.  X@ .%o",
"* #&.Xo.X@o@@    X&   &OOo@  X o+=.   .=X oo  +-X o%..#   #+ .%o",
"$O#@oXo..@@+.  OX@@   *@.O@O X o++.   .%O #@..+%  @-.   O .o .%o",
"uuuuuuuuuyyuuuuuuuuuuuuuuuuuuuuuuuuuuuuuuuuuuuuuuuuuuuuyyuuuuuuu",
"ffffffffffffffffffffffffffffffffffffffffffffffffffffffffffffffff",
"llllllllllllllllllllllllllllllllllllllllllllllllllllllllllllllll",
"ffffffffffffffffffffffffffffffffffffffffffffffffffffffffffffffff",
"uuuuuuuuuuuuuuuuuuuuuuuuuuuuuuuuuuuuuuuuuuuuuuuuuuuuuuuuuuuuuuuu",
"zzzzzzzzzzzzzzzzzzzzzzzzzzzzzzzzzzzzzzzzzzzzzzzzzzzzzzzzzzzzzzzz",
"jjjjjjjjjjjjjjjjjjjjjjjjjjjjjjjjjjjjjjjjjjjjjjjjjjjjjjjjjjjjjjjj",
"gggggggggggggggggggggggggggggggggggggggggggggggggggggggggggggggg",
"xxxxxxxxxxxxxxxxxxxxxxxxxxxxxxxxxxxxxxxxxxxxxxxxxxxxxxxxxxxxxxxx",
"dddddddddddddddddddddddddddddddddddddddddddddddddddddddddddddddd",
" X      #   #X  X.o  OO   X   .      .   X  o  XX    X.     X   ",
"+>>>>>>>>++++++>>>>>>>>>++++++>+>>>>>>>>>>>>>++;;+>>>>>+>>>>>>+>",
"%%%%%:%:%%%%%%%%%%%%:%:%%%%%%%%%%%%%::%%%%%%%====6%:%:%%%%:%:%%%",
"1-<--:---1---:--------111---:3::<---1--1711-111111-:---17-:---17",
"7777717777777777777717777777777777777777777777777s71777777177777",
"--<::---------1---::-::%%:-:-1------------<-<<-111-------:------",
",,,,%:,,,,,,,,,,%,,%:,,,,%==%%%2-:2,2222222,222---%:,,,,2%:,,,,2",
"%%,%%%%%%%%%%%%,%%%%======6=66,%%%,,,,,,,,,,,,,,,,%%%%%%,%%%%%%,",
"====6=====%========66666666666666==,===%%%%%%%%%%%6=====%6=====%",
">>>>>>>>>>99>>k>>>>>>>>>>>>>>k>>>>666666>>>>+>>+>+>>>>>>>>>>>>>>",
"dddddddddddddddddddddddddddddddddddddddddddddddddddddddddddddddd",
".o     O*.  *.  .+0O.#$   .   @O    .@  O. .=. ..    .@... ... .",
"+>>>>>>>>++++++>>>>>>>>>++++++>+>>>>>>>>>>>>>++;;+>>>>>+>>>>>>+>",
"%%%%%:%:%%%%%%%%%%%%:%:%%%%%%%%%%%%%::%%%%%%%====6%:%:%%%%:%:%%%",
"1-1--:::-1---:3:<<----111---:3::<---1--1711-111111-:---17-:---17",
"7777717777777777777717777777777777777777777777777s71777777177777",
"--<::-:::::%:<1-<<::-::%%:-:-1------------<-<<-111:------:------",
",,,,%:,,,%%=%%%,-,,%%,,,,%,,,,,2-:2,222,2:::2-----%:,,,,2%:,,,,2",
"%%,%%%%%%%%%%%%%%%%%==66666666,%%%,,,,,,,,,,::::::%%%%%%,%%%%%%,",
"==%=6=====%========66666666666666==,===%%%%%%%%%%%6=====%6=====%",
">>>>>>>>>>99>>k>>>>>>>>>>>>>>k>>>>666666>>>>+>>+>+>>>>>>>>>>>>>>",
"dddddddddd ddddddddddddddddddddddddddddddddddddddddddddd ddddddd",
" X      # O #X  X.o  OO   X   .      .   X  o  XX    X. #   X   ",
"+>>>>>>>>++++++>>>>>>>>>++;;+>+;+;;;++++>>>>>++;;+>>>>>+>>>>>>+>",
"%%%%%:%:%%%%%%%%:%%%%%%%====6>>666>=6=66%%%%%====6%:%:%%%%:%:%%%",
"1-<--:::-1---:3:--1711-111111-----<-1111711-111111-:---17-:---17",
"7777717777777777777777777777s77aaaah77aa77777aa77a71777777177777",
"--<::-:::::-:<-------<-<<-111-11111-------<-<<-111-------:------",
",,,,%:,,,%%=%%%:22:,,,:2------:::::----22222222222::,,,,2%:,,,,2",
"%%,%%%%%%%%6=66,,,,,,,,,,::::::,,,,,,,,,,,,,,,,,,,%%%%%%,%%%%%%,",
"====6=====%=======%%%%%%%%%%%66666=,6===%%%%%%%%%%88888886=====%",
">>>>>>>>>>99>>k>666>>>>+>>+>+>>++>>66===>>>>+>>+>+>>>>>>>>>>>>>>",
" X      #   #X  X.o  OO   X   .      .   X  o  XX    X.     X   ",
"X.     O$X  $.  .@qOX##   .   oO    Xo  O. X0X ..    .oXXX X.X X",
".qX   XO&.  &o  @=%O.$*   oX  +O X  .+X O@ .-. o@    @+...X.o. .",
".0X   XOo&@&@.  @++ o#*   o.  =  #. .%. #+ .-. ..#$  @+oX....5X.",
"@%o#O XX#ooo@.  o;o ;##  Oo.  %O .. #%. #+ .-.  #e3  o@5o>o.oor>",
"@+o+o OX#...o. Xo@O5%     @.  %O .. #w. #% #-.  *i3  .@@@rOO;5;%",
"...@. XX#..o@. .oX.;o  O  o.  %X .. .:. .% #-.  $3*  or@@. .% .%",
"  O@. XX#..o.X XX.;o. $O  o.  %X .. #-. .% .wO #&   O@;.5o o% Oo"
};
