/* XPM */
static char *ROCKRED3[] = {
/* columns rows colors chars-per-pixel */
"128 128 18 1 ",
"  c #170F07",
". c #670000",
"X c #730000",
"o c #430000",
"O c #8B0000",
"+ c #9B0000",
"@ c #530707",
"# c #A70000",
"$ c #5B0707",
"% c black",
"& c #B30000",
"* c #7F0000",
"= c #BF0000",
"- c #CB0000",
"; c #E30000",
": c #D70000",
"> c #EF0000",
", c #5B0000",
/* pixels */
"..$.oo#+%  ooo@..@..X.XX  o*$X*.O+. o.XOO+&&@     ooO&*X.OOO.X.X.XO+O@XoO o +X.X$X..Xo*.*OXXXX.*X....oX.                 o  $@.@",
".X@o  ++$ ooo.o@..$XXXO$%  @...@o    o*XO++=@     o.$$...XO+O+*.,XO*+..@. .@+..$*$.X....$.X@XXX.XX$X.$Oo  o             % $.@o@ ",
".o oo &##% ooo o....XXO      %     o o$.OO+=@     X@$..O$O++X.OO*.*X+..XO% *O*O@O*OOX*..X..@..@Xo..o.oo$% oo             OX@o o ",
"ooo@.X&+=o ooooXX$.X***%        oo oooXo.*+-@    X@$@...O++O+O#XO*O.OXoO#%%.O*X$XO@O**O+.XX.XX.Xo*.ooo$o  oX.          %oX.oo $ ",
"oo.OO+##-O oo$ oX..X.O           ooO.X.O$oXO@  @ OO*O*o.O++.+#+XX+$ O  O+%  +OOX.+.X*X.OXOO.XO@@.oooXoo@  XX.X         %.$.o    ",
"..+O*X=+#=  .o...XXXO.%        oooo..X.++ @.@%o&X .+*.+.+O+X+++OXXo o  O.  %&**.X*.X*X.O*+OOOoo.@oo@Oo o  ..XXO         .oo     ",
"*++#oX=+#=+%@@@+XXX*+       ooo ooX.X.@OO+  oo.X.@ o $.O*+O+*##&+++OO$o .   +OXXO**.O.*OO+OO*  oo . * o   .XX..o        ooo    .",
"O+++% -#+#-o   %o@.X        @@.o XX.X..@@. oO $ XoX %X*X+#O+X*+#++++#&=&+X@ +.*.*X+@*.X+O+XOOo @oo@o*o@   .X..X*o       @     .+",
"O+=$ %+##&=+%     %       ooXXO@oo.oo@oo oo$ @$ .ooo.*O+&##+&$*#++O+#+##+&##OXO.O*O.O*.**OXOO ooooooX@o   .XX..XX%           .++",
"+#O  %*&++=+%             @o@+X.%% $$ @ oo .o ..XOO.&OX##&:#:#$X+OO+++++++O#+*.OO*OOX*OO.*XO# @ o$o$@@ o  $*..X.X%o         .+++",
"+#o o$ ++==*%              ooX$# % &X oo.o$*o.+O+@O.:+X+O&+#:&#$+++++++++#+++X*OOXX**X+OO*XO#ooo @ooo @.  @..XX*X%         .**OO",
"+. ooo%o#+&.               oo@O#o%%+...OX.O*+++&Xo*@-&+##+&+##&o.#+++OOO++O#O.*X.$+++X*.*..O+ oo o@o@ o$  o....OO%         .X+OO",
"* @o    ++&o .               %O&o%%+..++#*O*.+.X  @X#+O++O&++#=#o.O+O*.OOO+#O.X*.X.**.O.O.XO#oo$o@@oo  @   oo.oXOo         .*O*O",
"XX*.o o@#+= oO$    oo       %%X=.%oXXXOO+OX**O.+O% ++OO#O+=++++=.$++O+.*O++++.+X*XX..XOXOX+O+  ooo.oo     o.X.X .@%        .....",
"O+..oo.OO#+%X#*    oo       % OO.@XXXO@+O*XO.O.O+@.++OO+#O++++#+#o.+#+$$#+#+#XOOX**..+X..X++#o o oX *..*X*#X*+O%@o%             ",
"+O.$oXOO*++$OO+o    o       % #+X+*++# XO*.O*+.#X++++#+#++&+####&+o+++..+&+O&..+@*OX.OXXoXXO#@   $$XO..*+O+O*O.%o               ",
"+*X$ +OXO..O.++Xo   @       %%OO**OOO#* XOO+O++=##O++O++++++=&####.X&++O&OO++..#X.O.O+*X@XO*OX o $@O..OO**+O*+  o               ",
"+..o@+OOOOX.O+*O    $%o      %@X+OO*#+#Xo+#+&++:++#++#O+&+++#&##++&.O++*OO+X.O*O.@O.*XXXXXOO*X   @$**OOO**+O+.% o               ",
"+.ooX+XOXOOoXOOO$   o%+@     %%oO*OOXXO#@o####+-#OX+#+#+&+&+:#=&#++O+O.OoOX$oXXO$.+.*XXXOXXOO. o%oO.*O***O#OO   o       o       ",
".@.O**O*XXX.XO+OXo.  %+       %%**+#$ XO+XO++O++.X.ooo.+++++#+#+OOOO+....*O  ...X.XXXX**O**XOX oo$O.O+*.OO##.%          o       ",
"o.O+XXO*X..X.*O+#*=  ooo       %$+###X%o#+O+XOooO .Oo.$Xo.XO#++++.*+OXXXOOO@OX..*$O.O.XXXX.XOX o +OX**OOO++=%   o        ooo    ",
" .OO.OOX..*X*++*O+@%   oo      % ##OO#O %.$ .OOooo ooo.oOOX#X*#oO.O*#**OXXo.O+$X..+.#XXXX*X*O.o%*+OOO*OOX++.%   o       oo.     ",
" .*OX+*.$+XXO*O.+*%     oo     %.#+OOO+*$ooo#*X*Oo     o .XX..+ oX+++OX+@*.Xo.$OX.XOOOOO.O.OOXoo&OOOO*OOO++%            o.Xo  o@",
"o.OXOX*X*O*+X+X+X       oO     %##+OXX*X.X$#*OX*+o    o. o@$oX.o o@XX.$$$@X.%%X.X.+XOO*X.XXX+. X:#*OOO+OX*$%           oo.@o%.O ",
".*X.*XXoX$OO+X.#%        @@ @.oX=#+*..*.o@o+o..o...@@XoXo@.ooX@ .%@@.oo. o$.o% o$.XOXXOO*XO.O. .+Oo@oo         o       o$..$%.Xo",
"XX*XXXO&+*X...+       o  o@ +O.###=&..+. .oXo#X $*@o@.ooX$o@Xo.o+ oo. .oo @@.  %.+.***.++X*X#@o $  o  o       .X       $.X*$  *o",
"+XX#*OXO&X#&O.%     % Xo   *XX@&#&&=&O*ooXooX*.o..@.@o@$.$ XX@o O  .o $oo ooX$ % O*.OO+X*OO.+X               oXXooo    .$.X@ o. ",
"##$ ##O+#+##@       %@& %o+..@o&###&:#Oo.oX@X$O $@ X@ $$.@o*.X$@X.%oo       $X %  ..$.+*OOXO+XO@.            %. ..     .....X o$",
"   o#+o++O+@      o % &o%oO.o %#===&:+* oo.Xoo@@ooX.o@$oXooX *o@o.%         oXo%%o .+.X+#*oO.*.X@.@@           o.@o    XO..o.o @",
" %oO++%o oo       O %%&o%OX@oo +&--&#OO @oO.ooOoo @@@ooXoooX@Oo+.@           *+$%   .XX+O o.oO*O@.XX.            @o   %..X.X o @",
" %Xo=+            +  %#X@+oo@  &#&-##+X X.Xo@X@ Xo@.oo@@o.o..X *oXo         ooXO     X%$.@*o@OXOoXX@.             o    .$o.X @oo",
"oo*.=O            OX %+.#X%Xo o&#&&##+Xo+$o.@ .o..o.$o.. X X@X X.+o%         $XO+%   %X.@.X.X *XoX.@ o                %.$oXX%ooo",
"$XX+#*            OO %X++o   .X&#==&++O@#$o*oo@ @ooX$ X@.@ ..oX+oO.%        o.O##X%   X@@.$..@XOXXo  ooo              %@o%O$ X@*",
"o*.+++o         @%@X.%*&+$o O#O#&--&+OOX*oX.o XoX@ooX X.@+  ...*.*o%        o.OO#X %@X$@X+ OXX.**o     o               @ $+$oX.X",
"o*o+X.+         O% oOoO&X$OO#*.+=&&&##OXX.X.@ +..@oo*o.@@&  *oXX.*.%        o.$@    +.o$OX@..X.XX     ooo               oOX@X..X",
"o#%#@ +O@       @% %+.++..&+&O.=&&-&++Oo.OO OoOoX.@@.oo$@+  .OO.o+.%               +.Xo.Xo+..X$X  o   o o               .XX$.@*X",
"XX++@%.OO.       %o .O+X@O+%X+X##-&#&OO@o*o.XX.oXo. XoXo.O @oO.*XX.%            %o...XX.X.Xo*Xo. o      o               .*$Xo@+.",
"O@#@@oo O#$o     %oX%XXO+O.%oO.-#-&&#++OoOX@.X. o.*....oX$o@X*X..+ %           %oX*o.X.X@.X.XX. oo     o o   o        o .Oo..oX.",
"O$#o+.O oXOO       X$%O+#+o% *X##&&##++.$*XoXo@X@*...@. .oo*..XXX#o%           %O@o$XoX@X..X.@.oo o o   o   %XO        o$*@XOoXo",
"O+o$+$.=o$.ooo      X @#=Xo% .O##=&##O+X.O$@.o*O..O@X$o  .@X$.*@XXX%          %O*.@X* @XX@XO$oo o  o   oo   oXXX      %.XX +XoX.",
"X* @+O+#=+oo%o$     o  +&$+ %.*##&&#&#+O**.@*oo..ooXoX %oo*ooXOoOo*%          %++X.X*$@.*X$O .o    o  ooo   +.XX.%    %X* .O@O.*",
"OOoo+*+#-* o  o       XO#oXoooO+&&&&#O+X.*oo+oO O@ XoO@% %   XX$OO*%          %@++XOO$*XO*.o . o   o       .XXX$.     o$*%.Xo.  ",
"O.o@O+##:$ $o       % .OO+$@@X@+#-#==++....$X@*oX.$.@.X%      ooo+.%           %$+*+O*O.XO.  o  .oo     o%@O@. ...o   o       . ",
"X.@Oo++=#oo$@o       %o+$&o. .oo$#:==&Oo*..$o@XX...XX.X         $.o%            %**+OO#*X.o .  o. o     o%.XX.oXO.@%         %**",
" ..*@+#-Ooo$@$     o % +.OoX@... o#&#+.o@X.X@...XX..$+. %        . %            %o+*OOO++X  X  @.    o   X@$$.oo...           o+",
"@XO@+##=oX$oo.o      %oOoXoXOoo*.% ++#.*oOo.O*XX*....O.            %             %@OXOO+O+o .  $o       @@X.ooo.o$.@%          X",
"#..X+#=+$*X@o.oo    o$+X.X+@**@XO...+#X@o.$.XO*XXX..X.Xo           %               XOO+OO+O oooX o     oX$o.o .oo.*.            ",
"OX.++#:+.$ooo@o$   %OO.+&+#XO=+++##++&Xo@@.XXXOXX.@O@ @.@                           #*O*O++.o@o$%X    oo..$O@ @.$o..o           ",
"+O*X+&;.$oooooo$   %XO@X+#+##&+##&#:O&.. X.*X$X$$$o Xoo.. oo                      @ XX+XO+++$@@$%+   o@Xo$.X@o .XoOoo           ",
"+#+O+&#X.o oooo$$  %.#.OX.+X-:##&##=O+Ooo.X o @oX ooo Xo. Oo         @     %.$%   @o@o++++#O+* o.    X@oX o@.@oX*o$           oX",
"#&+++:+.o ooooo@@o %o&O@&o+$=&##&&&&##Oo%O$@ooX . @o.%@oo @$@     ooo..%    &O%    o o++#O+OO&o .  o Oo .o@ .XoX@            o*O",
"++++-=OOoo oooo@@oo%o#O..O+$#=X###&#-#.o@.+.ooo@  Xo   X   @ooo .XXXo@$  %o+OO@%     O#X#O#+O+Oo$ @X Xooooo@oXo             o.X.",
"++##=+.Ooooooooooo$ %OO +X&.+#@O#&&++&o XXX@oooo ooo o X*o   O  X+**.X   %o+XX#  .  +++##$XOX++X. .+oX.@@ooXoo             .@@XX",
" +##:+..oooooo   @$o%O*$XX*X#@+++##O+&X$.XoX@  o    o %++%  %+X$o ..o  @o.#&O.+X%   #++O+O.*@$OO$$$....@.oo                 @.X.",
"%O#&&*.X@oooo oooooo @+$X+.@#.+O#&#+#O#X## o  oXX###+.O@o    ++OX*o   $XX$=#.+.&o  %+++O+&..Xo.$@+.@O@.oo                    oX ",
" +&&&XX.$oooooooo@ooo X.*+..X.OO+&++++#O#&O % ;&&+O&#+.    % oOXXOO#@o  oX+..X$++  %X++OO++XX.Xo@$O.o.                     o %.@",
"X&##+.O.ooo@ o ooooooo+O.*O.X$**.++*++O+#+#X%%O+#+#&-.%    %o +OOXO++Oo%%+#$.$oX#.%%o#OOOO#O$OXooXOo                        % + ",
"O&#;..*ooo @ o oo ooo OOXo+ XoX+X#*#O&+X+++#@%%#-#&=.        % ++#+OX#X %=O.@Xo.#+o% +#OOO+#+OX.@.o                       @ %o.%",
"&&:&$XOooo oo ooo oo o +X@& +XO+*++&+#*O+#O*.@%%+&;X%   X    %+OO+O+X+##o&O@@+o.##+%%*##++++#+*.                          o     ",
"&&;O@$.ooo ooo o oo oo%.OO+o+XX++@+OXOO+.&+++@ %o&+%   %:    %+&.+XOO+X+++.@o.o.#O#@%.#++++++&+                        o%o      ",
"#;;O@.@ooo  oo ooo o   @O.+.+O.+.+O++$OX#+X+@  %+#%   o%=o   % #o+O+X& O-+..o$oX+*++% ##++++#&o                 o o oooo O      ",
"=>&$@.$oooooooo  oooo  %OXOO++.OO.O+*OO*#OX@   @=@     %-oO o %* @+++& O#X$.oo@.XOO#%%O##+OO+#%                 o oo @*+       #",
";;#$@+oooo ooooo  o o  %X+.O+O.+OX*+#++.$@o   o+O.o    %&oO oooo%.X*#- #+X.$o..o.O#+%%o#++++&$%               oo  oo @X+# ..o@.&",
"=&..$O@oo oooo           +X*O.++O@++O+#X@     %*X$&    %#o@ o. O %*X.& &&OO$o$$@X++o %oO*+#+#           o     @oo @o ..O+OOOOXO&",
"-&o...ooooo oo          %o#O$O+.#.X.OO@        o..#$o   &oo$$$ .o oOO#oo##X$$$oo+++%   o.+##O%        o   oo ooo @o$o$o+OOXOOO+&",
">+@.oooo   ooo    ooo     *O$+OO#.OX          .O +XX+   =.o@$ oo@  X.O*%$&O.X@ooO#.%  o   +&O%       oo.  oo ooo$oo.$o*O*+*O.+##",
"=@X.oooo      oo oooo      O*OOX#o o%   %ooo$X@OoO@X+.oo#o.o * Xo  O.+ %%+&X.Xo.++    oo %@#X%       oo*o o  o@ @o@@@.+O+XO*.+##",
"&oX$oo ooooo oo  oooo     %o+.Oo        %.@X.O. oO%#&+o O X@ @ @@ %OO.  % &#XX.X+&%    @  %o         o$O    oo.oo...oXO*OOXX*O#-",
"=@$.oo oo oo  oo ooo        +.o%        % $oOX#    ##O+oX$.  o@.o.%o+    %X&#X.+#o   ooooo         %o$$+   o.$o@oooX..XX#*O+XO##",
";+$.o  o  ooo    o         %oo %@.$ oo% % o.+*#  %oO.@&@+oO $$o.oO%oO%   %%&&XX+#%   o o             X.X   oo..$@@.+.$o+..+.*+&#",
"&-+$o      o                   % X#$X.   % @$X#% % #o#X o@.oO o@@X        %o&##&. $X@o.oooo         o *X   %O.o$@*++oX.XO.+*++&&",
"##:@oo  ooo        o           %% OO+&o% %@XOO.%   +++& @@o.oo@ .X%       %%+=+= @Oo o....         o.o+.    =.X.O+OXoO.OO*OO*O&&",
"##:&oo  @oo      o              %%O+o.%  %.oX.o%o..XXO#+&$ oo.@o.+      oo %o#&. XX  oo*@@o     o@.$$ o@ oo$#o#++++@o*X*+.+#.+##",
"+&#;XooooXoo    o#              %%o %    % oX $.#+O+*OX++ % ..@o$X  @  %&O% %@+ #XOX$o%.o.o .@o...$ooo   %XoO$XXXXX.oXO.+*X+.&++",
".=&#:$ooo$oo   $&#+%         o   %          . $+&&OO+#++Oo%%X#X.    O% .&#o   o.O#O$     ooo#+#X..oooo@  %*o.X.+OO*@@.*O+OO++&+o",
"o+##:#ooo  X% o&#+#                         o  &.##O&@.+.  %$X.OO  %ooo$#X %   $OO$       %*:#:$$o$oooo %%OOo.XO.X+$X++.oo.O.oo%",
"oo&##:#oo    %#O+.+#                          o%$.$+.o      %$X++O.  o@.@.$@   o .         .:=&$$o$ooo.  %*O+$OOOX+.#Ooo    oo  ",
".o+##&:. o   O+X+$O+O                       o o   %Ooooo    % $$++#. %X##+-&O% %.o         X=#+ooo$@$ .   ++O.O+XO.OOoooo      o",
".o.#&&&&ooo +#OO+X+O#.%           o           oo  ooo.  oO    %$X*+& %X###&+#%  ;X.       %#&#+ooo@$ooX   ++O.oOOOXO#%ooooo$.ooX",
"@.$+#&&;O  +++.++.+++Oo        o   @              X  X  .ooo    $#+O %#+#++#+% o&OO+Oo    %&#&&@o@@$oo.  %X+O@O$O+O+.%  OX$O$$o.",
".$.+OX$OO$.&O+XO+.O+OO#$%      o   @            ooo  @. .oo@oo  o#O.%###+O++$% %..$#+##+@o =&=X$o$$o@@.%  O+X$o##OOOo%@$OXXX.o.$",
"@.$@OX+o%.=O.+OO++O+.+++o%         oo$         o  oo  oo$..ooo@%oO o &+++OX&@   %o#+.X##.Oo-#&*oo$$@..o%%oOXo $##OOO @+OO*O++@Xo",
".@O$Oo+X o&*.+OXOO+X.OO+#            o$        o      %O#.  oo @X+.%%OOX+*+&%    o&+#&Xoo.o:&;o@ooo$@o   o. .+#O$$#.o+$.XO+O.o.O",
"+...O..Xo%o++#.O+O.+OXXO#&+%        o%X       % oo    %o %%o@..#O$+ % *++X#&% o  X#X#+@% o@-#;$ooo$o     o$O+#*X.*X*o..O.. oo %.",
".X.X...O. % .+.OOXO+XO.++;&%         o@          .@        oo+.OO.X+%% X+X+.% o.@X+$#o% .++### ooo     o XXo.*@. .Xooo .o    o  ",
"o+OoX.X...%%oO.#*#**+@O#&;+%                % o %.+.      o%oOX*+X.#   %+O+@ o @o$.#  *+&o*#&+ o+o   . ..@@oO.$..oXo. % %       ",
"oXO..XXOO.% %o..+X+*OoX&&>X%                 %. %o       oo% $.@O.*O@%.  @@     %   .$+@* o#+@ +;o   @%o.*.oO X ...             ",
"o*X@..O.##o% %@@X.OO.#O==;@%                 @O         o %.% $oOoO+@%O  o      @  %o++@o%o+ o+#&*     o@o$*X.@Xo               ",
"..X...O.+&.% %% X.@#@+O-=; %                @#X         o %&  oo.o*O@oO             oX@oo%o+ o*##$%   %+Xoooo$$                o",
".o.O@.+@O&.%  %%$.$+$O+=;&%                @.&.%        o%%+ o$%O++XX o     %.       Xo% %..%o.+&+o%    .% @ @o               o.",
"XO$.$.XO###o%   %@...+&#;@%                XO#$%       o % $ooX  #@.= o%    %o.$$%@      %$o%Xo+#+.oo    % o .o               o#",
"X...@*XX&++o%  % %O...&&> %                **+X%      o  %@oo.$ @ .&#+o         $ oo@     o.*O%*#OX$O        @o      oo      oo.",
"#$OO$$+.O&&@%    %o.X@+&=o%         %      *.+*%      o   @. XO ..+&.#          ooo  .%   %o#X%#&X$.@O               *        o.",
"#.X.O+X.O##@%      o+.+#&o%         % %oo o.O#X%          + oXoo.+##+X%         ooooo.%    o=@%++..@$@o@     oXO$%  oOo      ooX",
"+$X@#XXX++#+%  %%   $.+O. %        o  %oo o.X+.%         o+ .o .#=#&$        &o% oo. .     *&o% X$o@Oo$@@.   %.+O%   .        o+",
"#++.X+O*X&&+%   % O oo++%             %  %o.O++%         @# .o +&#+&@       .# %oo .o@   % X&% %Xo..@$@o.o$o % +#%   oo       oo",
"##+X+O.+.#$o%  %%%+.o $o%  %        o % o%o.*+O%         X@ .o.#&#+&$%     %#$   X .o@o   $#$%  @oX@ .*o$o@@$ %+O o   o        +",
".+.OXO+. @oo%   %%$+O%     %         @ %+ o.O+&%         O@o@.+#&+#&@% +%  %&o% %#o@@Xo  o..%   @o* @+@ @o@*O       oo  o    oo.",
".+++#.@% @o %    % +@%         o   @ @@%. o.X#&%         O.O.+##+#&= % +    +    . @  .       %X.oX.@.  $$#OX$%   o o o o     o.",
".+X#.   oo $%   %%%      o   %  @ oo o@ .oo.O+&%         $ .X+##+&#: % Oo%%o=%  %@$oo o % o   %.@ .+ XO@@$+O..     @  o o o   oo",
".O$@o   o o+%            @  %%  o  oo o  $.+O##%        o %oO++++&#-   oO%% &     %.#+X@%     %.oo*+o.O$.X#X@X  .  oo  $oO     o",
".@ o  o o .o%   %         $ %   @o @o @  O.+#O&           %@O+++++&=% % Oo%%@.   %X++X#@.@    %o.XO$o.+o.O+o%.*o$  o   .+$o. ooo",
"  o  o  o o %             o %  %o .$ o.%@OOX++&        o   #X#++++&@% %@$@  %+.%%O@&.+.X@.@@  %o*X.@%X+....%%o+o    @oo.@.o  ..o",
"ooo     o .o%             o %   oo o @.%XX..O.=        o %.#.##++#X%   oXo@%% X%+@@.oOO#@.XX. %.+X@ %o#.*O%  $*X$  o*.oXo@ .@ o ",
"o o o     @ %%%           o % % @o o o% +O+O#O.%         oo$+&#+#&%   +oo@X% %%$.@Oo@+X+oXX@.  X+o% o .o+@  oo.+. oXX@@o@$.oo   ",
"   @oo    oo%  %         %@ %  oo oo %%..+@   %  o       % @X&+#&%  $o& oo @%%%.@.X.+@OXoX.@ o #*   o % o  o.oo+O.o.*o@oo.oo    ",
"      o   $%% % %       %   %%       % oX+  %    .@      % +#-+& %oX.@Xo.  +  +@@+$#.@X+XX.  ooo    o      @&+ooX..oX.$o@       ",
"           %% %          %   %  o    %o@#@  %Xoo %#+     % X&##o%%oXX$ +$%+%@X$@X# #XX.+O.     o o o o   @*@OO+ooX..@@oo        ",
"      o     %          @o          o %oo&%  %+.%% &#o     %@&#.%  %$O o# $  #.o$#X@..*.OO     ooo oo   %@o+...X+oo..oo      o  o",
"o    o    %     o o   ooXXo%      o& %o+&%  %* % O&&        -X%     .oo.   &.Oo+Xo&..X$O  o   o o      %..@*oOo$+o@.           o",
"                $ oo @...+ %     $-+#%X&#   %$ %+&##X     %X#%     .+.@o%oO.+#X.X.+o#+o. o      o       oooXOO..#.            o ",
"  oo  @   o     @o@ooX@.o %     o=#O#  ##   %  o&&#$o     %$$    o%X&@o%o++o.X+X@.X.+X. oo     o o  . $o o$..X.$O#.             ",
"   $  o  oo o  o@ o@@@. % %    %#++.O#  #%    %O&+$o o      +O  @@%+&X %+@o$+o#@X+.X.@ oo o o   o  $o..  oX..oX.O*+            o",
"  o   @  oo o    $X$o. %    %  +#XO$++O  %    %+&$o% o      .@ o  %+O %#+.@O+ @+X@X&$   o  o   oo .@.* @  o@@@o.*.O+           o",
"oooo  o    ..@o  oO.o %    %o #&+OOX++#.%     %+&o  o o       X@ %o+  .#&O.X#$@++X$& .o    o  oooo@$&@  .oo@$@@$.OX+#%          ",
".o oo     o@o$ X  . %%       +##.+O.##+#@    % #X  o o  o     .o %o  .O@=&###$+X##.o . o   o      o.O$ oooo.$@o.XO.X.o       o  ",
".Xo $o   ooo.@oXX  %       $.=O#X++.O+O+&@%  %o+$ $% o  $%     @ %  oX& $&+&+##.X#.  o  .oo        oOo ooooo$@XXO.X$X+o       o ",
".o oo     o@o$ XXo. %%    %.&+.#O++#O+O+##o% % #X$ o o  o     .o %o.  O %#+&##:#+.o .  o. o        oO$oooooo@...O+.X.oo      o  ",
"oooo  o    ..@o.oo+.o %    o&+.#+XO##+O+O##@  %+#X  o o       X@ %oO.    o=+###&&X  O  @.    oo%    o@oo.oo.$.$X.OX.+o          ",
"  o   #  oo oo$$ $X$o. %   %o#+#.O++.#OOO###@ %+&+o% o      .@ @@ %+O+o   @#+##&##o .  $o            oo@ooo@.$..O.O+o          o",
"   $  &+ oo o$.#+$o@@@. % % % .+.O+X+#XOO#&;@ %+&+Xo o      +O  @@%##X.Oo% X######+ oooX o  o        o.oooX....OOO+o           o",
"  oo  +&# o o.#++++ooX@.o %  %o+.#O&++++O+&;@  o&&#oo     %$$    o%X#@oO&.o &O&+###.o@o$%+ o       o  $o o$..XXOO#o             ",
"      &&##  $..X.++# @     %  %o..+X#++O##=;@$ %+=##o     %X#%     .#.@o=## $O#+#+&#$@@$%#$o     oo$o   oooX++OO&.            o ",
".+&+++;&&;  .@.X..X.&.%        %@@X.++.O##=;@ o-X +&+     &&#&&&X++ o@@&+  %@$##++&+#+ X.$o    ooo.@#o  = #.XO+O   o            ",
"oo.##+=&;& o.@.o$..#+&          % X.X&XO#=;;@  @ @#++    &&O#&&-X-$#+ @&#%  $o$+++###-o$Xo   oo@.$+X+@o  oXX.XO                 ",
"ooo@.X-&;o oo@. .O++X#+         o%$.X+XO#&;;@     .#   .+####+:##++.+Xo+#% .#$o$++&##&&o$  ooX.X+&.$.$$o  o+.O         %        ",
".o oo ;&=% o@@@..oX.+X#      %    %@..X+&&;;@     oXOo.#$+&&OO#&&O++=..oO% +#+$ooo+++##o oo@O.@XX..+..O$% ooO                 o ",
".X@o  &&$ ooX.@...$.O+#$%  @...@o  %+..+&&;;@     ooX&++++&#+++++O#+#..@o O@#O.$$$$ ooo$$+O@X+X.X#$+.$+O         oo     %    o@ "
};
