/* XPM */
static char *ROCK5[] = {
/* columns rows colors chars-per-pixel */
"128 128 31 1 ",
"  c #775F3F",
". c #675333",
"X c #5F4B37",
"o c #533F2F",
"O c #5F4323",
"+ c #5B472B",
"@ c #473323",
"# c #6F5743",
"$ c #6B4727",
"% c #4F3B23",
"& c #774F2B",
"* c #4F3B2B",
"= c #4F3B27",
"- c #574333",
"; c #8F5F37",
": c #7F532F",
"> c #836B4B",
", c #3F2B1B",
"< c #67533F",
"1 c #7B634F",
"2 c #8F7753",
"3 c #2B230F",
"4 c #332B13",
"5 c #775F4B",
"6 c #2F371F",
"7 c #373F27",
"8 c #A36B3F",
"9 c #875733",
"0 c #9F8363",
"q c #836B57",
"w c #232323",
/* pixels */
"XXooO+$.:$++$&.$$$$$+$..Oo*ooo*@@,,4,o##>  #.. #  #.oooo%%o+O+,,,,3333,,@@@@@@,%OOo%==..&.  >    $O=O+..XXo.$.&.  ###   &. .$.OO",
">#XX%%+.#.  &&$+$$+$$.+XXo--**@*o@,,@@*X# .#& #; #.-@*-o+%%%o@@7@774,3,==@@@@o%4%%%=o+.#   ##    X+%o..#.Xo++..   # .# # .$:..XX",
" >#.++oo.#####.+&.$$&..<oXX--o**@*=@@*--@o<:&  .  o*oO..-..XX*@@**,@,@o&**oo*O=@,@OO+OX#.  #>#    ..oX##ooo%%X..  .. #   .##.XXX",
"  &&&&X.XX< ##......$#.--X.XX-o@*@,@*@***@,%  ###Xo-o#.OX*.oO7@777,3==#   o*oooo.o..+X..# > >  ;  &&#.X.O-=%ooo..## #  . # #.XX.",
" #:&  # ..XX<#&   :&..o-X-oo-%%=%,%@,*@*o@,@#.+X..XXX--O.OXO@77@,333o  ;>  X**@**o$X++## #   9; ::.#$...XO%o-Ooo-..      #  .-. ",
"&.$.  >  <.XXO.& &:&.oo-XOoOo%o%%%%==@@,,,@*##.X..#.-XO-XXOO@7@,,43%  11     O*@@=$O++###   &:# $..#&..%oo@XXXXXXXX.# #   ##+o##",
"&..:  >  # #X.OoX+++==oX*O.oOo%,%%%oOo=@=@*-#<#X.#XXO-OXOoo*%3,634@:.#1  # >  #oo%==X.#   1   &&::.& ...Ooo#...#...-o.. ### O=&#",
":: ##    >   <.Oo@@%%==@.-OOo.%%%%o=%oo%*o@o<#  XX.X-XX-XOo@43344. XOX## >   ;>#*o+.+#&& 8 &  :::   ...+.OO# <##<#XXX--..#. O+$:",
"& # #>>>  >;  #Xo=%@@=%%oX+%%O=%%o=ooOOoOXoo# # >-.X#X.oO.+@,4,,.;.XOXX-# >; ;   o+$& :  ## & $.:#&& &$$ .  #####<#..X-=oX.&+: &",
"&       ;  ; ..o=o=@%O=O%%%%%OOO%+OOOo+oXXX..<## .-XX#.XOO@@434.&.X-X-X-- 1; ##.oXX+&&#::: :&:&&&; # .... # #   #.#1 ##...+=&&::",
"   >   ;    # @==@O*@%%oo%o%o%O+X..<-OOOoXXX. <..X.XXXOXo%=o3+& .X.XXXXX-o# # .@OX.#. :  &:.::::  >; ....   .> #      #  $#.++& ",
"##  >> > #   o-==%%%%o%o+oOoO.O-..##.X-+o-.#.#.# .#<-OoO$O@O$:$XOo.XXXXX-OoX# -.&$.&&#&.  &#### > >;>#.+#  >    >    ##  #.$$..&",
"& #  > > # Xo*-oo=@%oO.oX.X.<..#  ###XOXOXXX#..##..X.O.O.o+.&$%+oXO--XXXX-o@*X##.&:   & #    ; >>>>1 .@#     ##>  #    #  .:&.. ",
"&   # > ##.oooo-Oo%%%=o.X#XX. #.#1 ###..OOO...##...X+OoXo$+$$$%ooXXXO-XXXX-oO.## #& &#   >>>  > >>> .@X .#& &#   ###:&.#&:$..&.&",
": #    # .**=ooXoo%%o+..X<5## # # ## ##..OX=.......$OO+%O+&.oO%+o+oXOO-oXXoX... &#&::    11> > >   #@o#.#&#&.##&.. .&::&.$&&.&$:",
"& #& &...*ooOoOOo=o+XOX###.# ## #  # ##.XO+X#X$..#..++X&.$$OOOO.oOOoOO%oOo<.& # &&  &#  >> # 1 >>  7*o..&$#  ..#& &::&&9:.$$&:: ",
" ::&..$O@==OoOooOOXOX#X##           #  .%oX..&$$$.#$O&.$++=O%O=O+Oo+oOo+%Oo#.&; &   #   1 #     ##**@*<.$.##. .:$. ..#&.+$$.$:&&",
"...&$.%%%Ooo%O%%%o..<#  > > ## ##.#> .@@%+.XX+$..+.=O+:$$=O=o%OoOOoO%+%%oOo &:&&&..## 111     1  OO-o@oO+...X$$&.+:$+$:&&$&$..:&",
".#.X#ooo%O%%OoOOo..   >   1    >>  +o*X.O..+$+&&$+O&&.$+Oo+$oOXXXXXXXo+O%%&:  &.:.  ##>   > ##  #..OXo@Oo..$$+&&$$$&$.:.&..&&:  ",
"#.##.O=%O%oO+o=O$ ..# >1#      >;X=o.+$.$+.$$++$+O$.$+$OoO+o++..XX.X#O+%%%:: .+$.#..# #1 ##1;  .#.XXXo%@o=..$++$$&$$$+&&.:&$#   ",
"###oo*Xoo+oOo+$+&.# #>1 > ; #.#X*oo..X..$$$&.&.+.&:$++++$+.+OXXX###XXX.O=%o&:$$+&#.### #######X<#..Xo=o=,%oX$&$+.$:&$&::&& &&#. ",
".XXooooX+X+$++$&#&#    > ## #.*oO-<X..X&$.$#&$$$:&+$=%oOoO++OXX...#X.+OXo+o+$$$&.&# #### # #>.#..X-oOooo@@%..++&&.$.$$.&$. &# # ",
"O-.XXOo..$&. & &.  >  >  ##.oXX-$..X.X++$+.$ .:.+:+OooOOO++.X#.OXX .XOooo+.o&& .$.######.#.## ##++Xooo%@%,@%.O+O+ $..$$$:&& #  X",
"OXX...# ..&# # & &   >>;#O**-.X...+...$.+$&&.& ..+++=.O$XOOXX#.....#.XoOX+XOoX#.&...#  #..#<# #&.O%ooo%%%@@@oo.OXO..O&.& #... ..",
"## # .&+ .: >       ###X*O*XX<.+..&&.$&$ &   #...++XOOOOO#X.#.#X####Xo+%.X+.Xo.# #&..# . .<####$.+Ooo%%%o=o*oOX..X..+$$.$ .##..o",
"XX#X .&$.#&> ; #  .&.*@@*-Xo<...+$&+&+&&#..;  #XXXX.+++OO.####.#.X#OX@=%$X+ X-*+  .#..&.. .. ..&O%O%=@OoO=***.XOX.X.&&&.. ##XX-X",
"XX   #$&.  >># .#+@,,@@@@oOOX....+$&+. &.# > ##.XX.XX+oo.X.#.####..Xo==&+....--@.&$.O.X.#.#..#.#O%==%%+oOo*@*o.XXX...X.$#XXXoX.X",
"XX# ##.#+ #<#.-oo@,@=@@@@O=%X+#$$+&. &.X >8 #X.<#..<.OOoO.XX.. ##XX-@oX#O..X.X*@oO=O+O+X.#.$&. &O%=oOoo+X--6@*-X.X.<.XXOoX@*XX .",
"XX.# &&+%oo@**o%oo%=oOO..XOO$X$&$&: &.X#>>>#.......XX.XXo+.##XX#XO-ooO&.O.X+<.O,,@%=+..&.# :&#&:+=O+++.-.-X77**oXoX+X.oO,@X  ...",
"ooOOXXOOo@@@@@=O$OOO++&#&#o=o$#&+$&..O >81 #.X..#.XX+X.+++OXXX.Xo=@@XX& .XX.Xoo,%oOO+.&#&#.&&: :O+ooXOX.#X-**o---oOoooO@@OX.#. .",
"+oXo=o%%o+*@,%=o$$+&$$&&:$+O%%O$$$&.O >>> ##.##..XX.XXXX++OXX.OX%@*oO.&&.&.$o+o@@==XO+...$$:.$& &$.oo<.XXX--X #X6@oX*@@*OX...## ",
":$=$O%Oooo+o,@%%X&&&&$.& .+$%%%%$...  >21 ##X#.#.<X#.Xoo=$O+X.+%%,,$$+ ;...$%=%,o..X+++.&&.&& ;$: &#<X#.XX-X#> #*@7*@@@*=&...  &",
":.+++X+OooO+=%@O+X.$.&& &....O,%oOX#;>02 ..#...<X.XO+++.=OO+X.oO%,%%$ ; ..X.+%%=o.XO+..:.    ;:::&######Xoo-. #<@*@,@@=.O$.&#;# ",
"#&&&#.XoOooooO=ooX...##  .$XXX+,@o.  820 # .XX.#X.OOXXooO=+Ooo+o@=X+###& .$XO+O==.XX.... &:& # &.#  ##XXX*o*OX.-@@,,*oo+$+...# &",
"> # #&##$OoO+ooooX.<<  ; ....+%@%. >8;>>2> ##...X+O+X+X=O%OXXXX-oX.&#&#  :X$.OO*o.X<##       && :##>#.#XX---o****@,%ooXO$+.#    ",
">>> ### .&$+oXo--. .#;>> #<.$$o@+&> #     > XX..+..OX=%%$=%OX.X-X  #### :;..O.X-X# #>  1;;  :::   >#.#<.XX-o*=*@@*=*O=%+&+$. >>>",
"     #& &.& #-XXX<. ;2> > ##.Xo@X#   # ;   > ...+++.+++%O%OOXX*-. #  #& &&#&.<.-X<. ;22>1 ;  && #&# &.. #-oX--@*@@=+O+$+$+. >  >",
">    && & .& #X<5.. 11 # > .#.o@# ###&#     >..O.OO+=O++=OOOX*-X  #  && #;&###X<###  >>>>>    #&;###.$..-OOXXO@@o*=O%O.&$&&     ",
" >  &## &&&###.### #  # #  #.#XX   #&.       ..X%o+OO===%Ooo-oX## # &## &&&#XX-#5   >>>>1           ..#.o-X.Xo@*,%ooO+$$+&# >   ",
"  #  $  .#  #X-     ##.##X  #.X..&&##&   #  #   OX+o%OoO%o=@*X#  #.  $  .# #XXX   >1>> >;   ##  &   #+XOoOX.oo@O%O+oO$$..&     1",
"># # &.# &# .-#  >; ##### .#;###&$&##&.# &   # &.+X+=%o%o=@@X-.  . # &.# &.-X##  >>>; > >1       &&&.O@oX+X.+o%oo+X$++$+#  & #>>",
" ; # #: : .--##>>#  ####<..-.#&#X$..#+:    &  #;&.X+OO%%@@==%+X#   # #: :&O-###;>>>> >   >>## & #&.XX,%++XXO+o=+++..$.$&:  &..# ",
"&&#$$..  .Oo<#> ###  ###.XX.   OX..#$.+& .##&# & +.XOOo,,,=oOO..&& .$.. #oX###>   ;  ; 1 .     #&#.O,@@%XX++oo+oO=X..&. &.  &$..",
"$#& &: &&.o#    ## ## ##X.o#  +XO#. ##.+.&$: ::&&:&$oo@7@o*OX+$.$## &: .o..   >1  >   1># ##    &.O@oOo%O$OOO%==O+.+..#   # #...",
"#$$& & $+o###   1     # XX. #&OO=o.#1 #+$$:&$9 && &&=*,*---XX.X.#$.  .&,o. # ;>1>>>   #1 #.#.&$.Oo@@.XO%=O+O%=O=+$.&.##>>> #. &#",
".#.$::&+=X.#.. ; # .   .#.  &.++=.O###.&$&+$&$&:&#&oo7**--XX.....#&..+@%O.#    ; # .   . .. & ..%=o*XOO+$$=O%@=OoX..# > ;      #",
" .;#&&ooOX<.    .<X.. ###  #X++%++.o.$$ &$.&&&. &#X@****o-XXX.#. .;&O@4+.#;    ># #.. ##. #..#.%%o+@X.$#$$$+%%%+O...#>   > ##  .",
"##  ..=oOOO. #...XXX#.  # ; .=OOo++O%&$..+$&&.##.o@*------.#### ###.@*,+..   ## #...#.  #.   &+@o++o$::  &++O%o++XX#5>2>5 1>1   ",
"&. #X-oo=O#  ..#XOOo####  #.=OO=+O$oo=.XO... #&.X@*--<-***XXX##.&.#-#<ooO..# ## #...######..$+%@:.$@. &#.#&.X=O+.X. >21 ##    #.",
"..#.*OOX &&XX..X<O+@ .# ; #$+$O+X+XX%=@&$O    $oo-X-<<<X--X#.#..Ooo#.Xoo++&.. ## .#.#..#  .:.O%=#&Xo$ #  . .OOOO..  2qq>>  1  ..",
"# -oOOX ..XoXX#XOo%@+O.# ..Oo.O....XXO@@+ >#.Oo-OXX-.<<#.X<<X#XXo*<  Xoo@o.$..#...$+$$..#.&$@+o.X**@* # & > XO+.X#  >>1>15>5  # ",
" XXOo##.+++X+.XXo=@@.#.&&&+O++++#X#.X-*,@@XOX#OXX<.X<.#<<#.X##Xo-.; #Xo*@@OX.#.#..$.#&$$$&.@OOXX.o-*-X.&  > ..+X.1>>21>55>1 1  #",
"#-.  ;X&O.+O+oXoO@,o& #;.XOOO+.XX<.#XX@@@. # ...###X<#<5##.-XX#X > ;;.*O@o@o+$&..$$X.&.#$+,%O.#.XXX-X#o##> #.oX. >2 1>125 # # 15",
"*.  >>..X+XOXO=%@%=.#  $+O+O++XXX#.X.O@@X#>   &########..#.#--*.# ;;2#oOoo*,O+$$+.+..&.O%@oO$...-.X-#.XO  >#Xo+##>>>11>5###    X",
".   > #X+.+X+%o@,%$$&&$$=+.++XX##...Xoo@#;   ;##.<#####.###.**- # >88 .*=oo=3%X%+O+O+=+%@O.$&&X#...X.#.%o # X=*X### 155  # #  #X",
">    > .+==++O==O%&&:&$+++OoooX.#.XOoo%O& .#  >>#X#  #  ##X-***>>>;  > +=@%o@,+XX%+++==@o++O$OX.#..o. $++O$&+oX-.X        ###.X ",
">  ### #.+OO=o%%O#:.:..oOOOOO=+OXOXOo=$&& &$&#  . #X####.<X*,**.>  ###  +%@%%@4OOX+o=%O%O+...++oXo+@X.$$$@@%Oo# +.#X#####1 #X-##",
">  #   . $OOOo%O&&:;;&X+.++OXX==XO+O%o&  ...: . ;#. #.#.#X*@*=X ># #   . o%%OO3,++O.XOO+..&&&.%%+o=,&.&.&,%O+##. -. #.##1 #X-. >",
"> #     #.+%o=O.&&& > .##<+.XX+OX$o%@+  &.&$.  #   ###X.X*-XXOX > #     #.+@o=46@=%XX..  ## X.+OXO,,$$# .@Oo. ###XXX#..###### >1",
"    ### #.o%oo..:::  ###.#XX.+..+++=O.&####.&#.. #   ..X7@-.#<.1    ..# &&&o=o4,,@@%.#    .#....+=@,&..##X.. .....O...##.XX >;;>",
">>## &  #&%%++&.>    #X# .XO+X+XX+o=.&#. 1 .#&#.# .  #o@@o-. #X#  ###.####.+Xo,*-O%O# #>8 #++X+X+%4@ &#. # ##&..X.ooX<O#.X# >   ",
">  .  :.X+%%%X  >>;.XX#XXX+OO++XX%%%&#&.# 1&$.#### .XO*,@o.#...X## .&&...&.%%@oo#.XO.#>  #.+O++Xo,@,  &.X >.$$.XXX-o*O.OO##     ",
"  .#.:.&XO%%+## >;.++.X.+XO.+OOoOo%$.#.:& &...$$&&&.o@,@@X. ..X-o...$.$&#&o,@ooX .$$# # &&+.+O+%%,@%,*%O. &.$$%%+OO+O@o=X# ; ###",
". .#& .++o%=$    &.O%.++++XOX.OXO%%:# ...&&$$..$...O@@*oX&.$ &++%O..X.$+.+,,@+X..$.&$;##.&XOX.+X@@%%o.O$:&XOOOO%oO+OoX*-&  .  .&",
"....&$&o%%O&.#  :$+O=+XXXX ..XOOo@+$&.>  # #$.&. <-@*o...$::O+XX.O=++O$o%%%%+X.$...:&9;&&. ..XO@4,%%OX   #..OO+O.--OX..+.$ :.## ",
" ##.:$O+oo.# ; &$$++o+OX#.X#X#XXoo.& # >>#..& . .-***X..#.$&..#.##Oo$O%=@@o+.#$&&&&: ;#. #X#X#O**o%O# >> ..++.X<.X-Xo--O#.$ # > ",
"1 . &.+oO.#  ; .#&.$$++#X###X.--o.&    > . .$  X.*@O..#   #&X#.## .X@,,=oO... &.   ;8;  .###.X**OO+# >2>..<+o.XO..ooooX  .##.   ",
"# #+.XO<#    ##  ..&$&.X##  .Xo=- &#   >  #.&..X*oX.<  . ...X...X..+O,*o.#<X..# ; ;2;; <##  #-@@-.&. ;>>  XO+XOX-oo-*XX. .###  #",
"#.&+X.X# # >  &#  ...X<#.X.X.%o=$& #& #  &.& .o*oX#.###  ..XX.##X+++o*oX#X##  &  ;;;## #.X.X.,,OO$& & # ;&$&<O@*oo-***-O .##& > ",
".$+$.X.#  >    & &:&.$###..Xo%=%&&&  . :... #.**XX  ##   ...+X#XOO=+o*XX..#.#   ;;; &: ##XXOo@=O+$&  . &.&&#X-o*o--o*oO- #....>#",
"&.$.XX#    ># ## .&$... .X.XOo%= && #& # ###X**X## ##   X.X.O=+OOOOO**XX.X.#.    &&&#& #XX.XooO+.&. #& # #.Xo****--*@*oXO..#$$..",
"::&XOX.# >    ># &::....#<X+oo%.   #.#:&# XO*oXX##   >><..X.++=O+++o@-XXX#.##;>  #: &##.<.Ooo.$. : &.&:.# o***o***-X-X-*oO.#$&+.",
"& ..X.#>> >;     #:.&&&$.&&Oo=+$&;  # :: .X**XX# # 18>;..#&X.$.++Xoo@X...#   >   # .:# $+++%O&$&. & & ::.X*o**7*o-X- ..=oOX.&&#.",
"& .XX#  >  ; # # #&&.  &+$O%@O$..;     &.-**O-## . >18>#..X+$+$$O.-*oX.X#  ;      &&&; &=%%%O&::. ## # &.-**@6***o*.##XXo*=O.&&.",
"##<X# >>   >  && & #.:.&&$o,%%$: ;>>  #.oo*oO #.&      ;.=.+O=+&XXX*XX##.  > ;## &  &:..O%oo$$:   >> ##&oo*@4o*@=*X...XXo,@o++& ",
"..<X 11> # >     ::&&&$. o==oXX# >8>; .+@*O#.   >    ..& .XO+$OXXo*oX#. #. > ;;  ::::#$$XoX+.##   >;;  .o*@@@oooXo. -Oo++o@%$.$&",
"&#.# > >>  ##   #&..:# .O*oX... 1>>> X@*@oX.#.#>  ###. .  $$$++.+*@oX##  #       #.&:# XXO.# # > > 1  .X@*6@*@*-oOO.XO.O.+@O&.$ ",
".##   >>    ## > &..&..X-X-XX ## 2>>Xoo*=X. . ;     ...&X&+$o$++o**XX<  #   #  > &.&&..#X..# >   2>>> .-@,,o@@ooOO.XOoo+o=,%+&$#",
"O+#  #     #& # &&&..&--*X##<##1>> X#XO@X$..    #  &...++++&$+O+%@*O.. #   #&   &#&&&...X#55 >>>>> >>#O@@,@@*oo=oo.oOOO%%%@O$$+&",
"o+ & ::#     #  &&&&#O*-XXX.###> >X..XXo&$#  &:   &:&..&$+$+$$O=@@=O.$..#    #  :&& #.-#.<.#> >> >   Xo@@,@*o@%+O.OO+oo+O%@%+$..",
"Oo:&&:: $   . &::& .O**-XXX.### #X#.OX-.$.# #;$.$##..#.$+++$+$,@@%%OX$.#+   . & :# #.#XX.<.#  1  >  .**@,@ooo+oO=XXoOXoO%@,%O$Oo",
"==. . .$&  #.:$&&. O**--XX#..X .X...-Xo=.&#..$$#.+&+$+&$&+++$@,3,@=O+.$+.   . &&&# #<.#X.<####>  ###o*,@%=ooo=oOX%+%%%+=+@@%+O$o",
"o-o. & :.:&$ &&&$.O@**--XX..X.#X#.#OXooO$&&$.+&&$$$&+..$$+$.O,@*@*-X.X#&$:&$ &&&&   .#-X.X### >>   Oo@=o%OO%o%+X$=o=%OO%o@@%O$.X",
"-oo* # . .:& &$..-,,***XoX.XX.O# ..XXO%=$+..$O+$$$$$$+.$+$&o@=ooo***#O.$:.:&&&+&: #..X-X-<###  > ..oO=%o+%XO=%%$+=%%o%o=%@%%+X.-",
"XXX*@< #&:.&.&+%=47@*-Xo--#X-o.# ...OoOo%+O.$$.+.+.+$&&$$$&@=*o-XXX@@oXOX.$$$$$+&# .--XXXX ##.#  .XoooX+O+$&+$.+$%O%%+Oo%,Oo+OX-",
"-XX*o@. & &&$++o@36****-*oOXX###.<Xo+ooO%++&.$$.&$+.++$+$O==oOXX-XXo*,@OO..&++$# #<X**7X-OX##   .o*oXO+.$&$#&&&:$o%O%%o%,,@ooXX-",
"OX#-o@,.&...#+.X,@6****ooooO#   $.Xoo=%@%@+$#X.$+&$.$$$$OooXO.XOOX#X-*,,=OX. . &++*-***7XoO.   #%o+O.+++$& .;; .=.%O%%o%,@@oX#-o",
"XXXXXo*@X&.X.X#+.@,@*o*-ooo<#   #.%OOo%%%%@X+$#..$&.$#$.OooXO.XXXXX.XOo*,@o..# $+.+XoX**7oO<< #+oOo...$.$.&   ;..++O=XoO,,@OO#-O",
"..XXXo=,.&$.##<...@,@**ooX< #  . ++Oo%=%ooooX.....#&.$O+oXo##XXX#....O+%@@,*o-.   &.O-*o@@X..<X%..&&.$&. #;;    #XX+oo%%,*@-XXXo",
"XXXO.=%+$X+ X#.+.X.=@@@** #. #&#OoO@=%O%ooOO*#<.##. &X.$o..X#XXXXXXO.oO%,@@XX#..  ##.O+o*ooO#ooOO$.+&+:.&# ; > ##.X.+o%@4@*-XXoX",
".X..Xo+&+X<##<#X.++X@@@*XX#.# ..O%%=%%o%oOo-o*<<###..#XO+OXXX#XX.X..Xo=O,*-.##> > &&..OOO*o=@OO..+$$+. :   >>   ##<Xoo=,@,*X-XXX",
"XX.XXX..O...#.X..OO+.@@+X&.$ & $o%%%oo=O-XXo-**< ### ..+o.OXXX#.XX.XXOo+,OX<   ;; $:#.XOoOo%=.&.$$$$.&&  >> >    ###Xo=,4**-o-.X",
"XX#..&.+=X.+##X=XOOOX.@..&#:: &O==O+ooX-XXX---**. # ..OX%+X.#XX.X.#.O++%%o..   9 :&:#&.#OOoOo&+.$&& &&  >>>  > >  #.XX*@,=XX#Oo-",
"ooXX X$$.XX.XOXO$OOO.X..& .&&&#O=%OoooX..XX.-o***# ..X.+++oOXX.+ooXO.O+O+..    # :&& # #.Xo==$#&$$.& # >>1 >>   > .X+X*@=o*@XXO=",
"=o..+$O=+X.$O+XXOO%XOOX..$.:$&=+O%+ooXXX<#X.---*. #..X.XO+OOXXO.=o.+O+=@O#.:. ##&&$ $. ..$oO%++&&$ ##;>1;> > >   #X.OX**%@@**-o.",
"O$$.$=..XX.$=+O=.&+X+O..&:.:&.=%o+oX.-.XXXX.oX*>>;##.X+O=++OX.XoOO=$+%Xo+&#:&:&&  # :.&&&&OO=.&+.## ; >1 >>> > >  .#.o@@,@@@oOX%",
"$$+=+.XX$X.++OO.+XXOX.&:&  # $%oooO-XX..XOXXo* 8 #.X+++&%OOOO.oOO%=%=XXo$.& :&&  #&.# # ##&.O&$$.&&# >>>># >    ##XX+=@o4@@@o.X.",
"&XX+.XXO.++X+X+X+...X .# &:#.oXo%oOX.XXXX-Xo@ >>##$+.XO+=%OoooXoOooo+oo%..: ##  & #   ## &..o.#.$## ;     > #   # O+O*@@,,%ooX#.",
"##X..X..+$++.X.#X<.#<#      .oo+OOo#XXXXXXX*  >>#.OOX+XOO%+.XOX.#XO+X+OO$.   &    #      #  .$.&:##>   > >1>    #.ooo@@,@,oX..# ",
"  #...X.$$+.X.X### X>;  ; #.+OO+++.ooO-XX#*. ;8 &#.OX=%=$=o+.#####.XXXoX.:& #  >>#  ;;      $..#  > &    > >  ##&<Xo@,,,%%%X    ",
"####..+XO$+... .##. ;22 >.#-+oo+OoXXOooXX*-  ;; &X..O++%O=OX##.#.X.<.XoX.:&   >    > >2 1# <O.&  #   &#  >     #&+OO,%%,%%$.  # ",
" ###<+O+X.oX## #1#-  >1>> XX.Ooo+oo+o%oO*X.#> ;; .X$%oO$=O+X##.X#..<.O=X. &#  >>2    11>>>.O#.&&;&# &.##   #># ..Oo%,,@O==&# ###",
"# .#+XX.XXXXX.#1##  >>>> #XX..X+O+OoooXo*< > ## &..++==O=+X#####X#XXooo######  2>   >>>> .*X       #&#       ...%%@@@%%=%&#> # #",
"#....=.&++X..##  #>   1>#XXXOOX+oooooOo=O.  #&& . &$=+oO+OX.X.##XXXX+%O#&#     >1;>    ;.*X#.#  &&.  .   #  &..#Oo=@@%%O.& #.## ",
"#.#. .+..X.<##### ;;;>>>X.X-.XX+O%%o+@,*.    &:&.# &$O+=X+X.#X.#.X.+.O%X .# > ;  >;;; >#X.##     $$&#&.. ## &..+==oo%%++  ## .##",
"< .X.X$.$..<##.  #>  >>>#..XOOoOo=%o=4,o&  # :& #&&#$.++++X..XX..#XO+oO.: # >> >> >  >#X<     &&#&:# $.&  #&#&+X@=oo%$$.:  ##.X.",
"X..$++O+....<#  >#>; ;1> X.XXXOO=oo*,,,O  &&&& .:$ &:&.++o+++O#+++XO%%%.#.##    >#>  #X# .     &##..$.$& &&...X%@,OO$&&:&.  .+#.",
"O....$.X...#.#    >  1 >#>.XOooo=O@***O+  &&::&$$& .&#.#..X.XOOX=X+.O%+X&     1   >##X# #>   #  & #   :+::.&.$%,,%+%X.#   #  .$.",
".+O.&$X+..#.# >1>>>>  #1  .<OO%%@@**-*.$:&:&$::$&&  & #  #..X.+XXo%++@OO&.    >1 >1 X.#1> # .&$$+.. > #+&$&$O$%,@%O+.##>> # # ..",
"X&+o$$.....<#. ;1  #>  . ..#+.Oo,=@**O&9::+.$$&&.&&#  >   ##...++.o%o@O+..   . ;  <@## #>#  & ..+ .#  &&&:+$O%@@%ooO  > ;   >  &",
"#. X..X&..#&   >  #.# #   #.oXO,%@@@o$&;&&:&$&. &  # >     #..#X.X.O=@oX..    #   @=X     #..#.$:.  #:. $$.$=%@=oX.. >  >;>    .",
" #.#.#.X...      ...#  #   .X=%,,@,%%&  :$$&&.&## # 1222>  > ##...X.oooOX..     #@oO<#       $$$...&$&:#.+++O,=OOX.#12225>>2>   ",
"   .##.X+..#  >>#...#.####.O%%@,%,@=X  #.#&& &&& #  >2>    #  #XXX.X-ooooX.# #> @*X.### ###.$$$$&.&..&&&$.XO+@=oXX# >2>   1  >#.",
"&###....X.&#     .#. .####.+Oo,@o@@..&#::.  # ..  > 2>2>>;11# .X+XXX@*oXXOX.. #*oo.. .####.&&&$&#&# $.&&&$XO@o%=.# 12>2>>  >>>.&",
"  #<.X.<.. & .  ..$$.$.. ..O%%@o*@-#> # . > >## # 1 >>>2>12>  # ..-o@=o.oOXO..*XXX$$.$..#.&.$:.    #  .#$<#*-OO..#  >>1>>12> ># ",
">  XOXX.&&  &#.##&.&&#$$$&.O%%@@*@# 1>#& #>   &  >>>>>>>>2>>> ## X-o,*oo+o+X$=OX...&##$$$&&&&&.. .  #... XXoO.oX#1>>>>>1121>>> #",
">><.XX- &;&.&$&##...&&. .#+o%=*@@-#  ># #> # #  >22 >>>2>;  >>15 .**@**+o.oo%%+.&.$..&. .#$$$&#&# #XX#X#.#o*.O+#122 >>>21>   >>>",
"##X.<.# ;&..&$$$$&$&.&.$+&O%%@*@*# #>      #    ;>>1>>>1>>  >1>.Oo***-oXXOO@OO+$$.+&..XO+&&$.... #XXXOo.XXo*XO.#>>>11>>5>>    5.",
"##.X.#  # .#.$.+$+$+$++$+&X%o=@*X#>>> .$# # #.#    1>>1  ;>;>> X@@*@oooOOX=+o%X=$+$O+O+$+&#.&## ####XXo%OooXX+.#  # 1>1  ;>;>>> ",
">.OOo> &.$+.&#..#+$&$+&&..%%@@@o##    $$. .      # >> >>>>   #X-*@,@*-*oo,%%+..+.=$+$+&$$$$$$$X.###.XO%@@@%+.##  .  1 1>>1     >",
"#XXO#  &.&$$$&$$.&.$+$.$X+O%@,@o.. &..$$$  .##  &  #  ;1 >1 ..o,@6@7@@*@@%=%OXOOO.$++++OX$$+&+o+..XXoo%%%O+O..  .  ###>  1 #.  #",
" Xo. ##.&+&$&&$$&.$##...#.O@=@%+#.&&&.&. &:.: # ;  >>  ;>>>..=*X*,,4@@@w@@O%++O+$X+&.X+X.&.&..=+..Oo%o%oo@O$&###  # >  ;11 # #11",
"#..&&&& ..#$.&&..++.# # ##oo@@+. :$$$&  .. .&  # #1 > #>>  #*4XX**63,,4@3@.o++$.X=OX.#. ##&.X.#&.+O+%%oo==@$.  # .  >#.   >> #  ",
".X ##.. ..#.#.....+.    ##X@*o. &.&&&&&#.# # ##    1 #  #..-*-O-@@667,4633o+XX..$$=.<##  ..... #&.OoooOOOO*. ..# ##1 #  #. >>  1",
". #.....&&.$ &&.##$&  #  #-@,Oo.#&.#&. #>1>. &    . ;># .X*---o*@*67,364,,,%&X+X.X$.# . .# X.#.#.$++OOoO-XX &&&.# .   .       ##",
"##..&&$X.&.++&.   .... ###@@,,,o.$&.## .#  #$&  #  ##  XOX*ooo*7@6@,,,434,%4@...#<.+XX.X#.&..#..#+%OoX=XX.X...#&#  ..# .. ...# .",
"o&##+++...$O&&.< ..$...#.+@@@@,,,%+.$ $.& #&&:.&# # ..OO@ooooo*6,4,6333,6=@,4=XX#XO=+OOX+#.&..&$.O%OOO%OOX=...$$#&&&.#.#. . ..#-",
"%oX ..$&.&+O$&#..$.$O...O=*=@@@@*,,%.#.$.&&.$: ..& &+O**ooo%o=3,3,3,3,33=@,,,,oXXOOOO+O.X. ..&.  O%OOO%%OO=$...$.&&#.   &&.$  .o"
};
