/* XPM */
static char *ROCKRED2[] = {
/* columns rows colors chars-per-pixel */
"128 128 17 1 ",
"  c #170F07",
". c #430000",
"X c #8B0000",
"o c #670000",
"O c #730000",
"+ c #530707",
"@ c #5B0707",
"# c #9B0000",
"$ c black",
"% c #B30000",
"& c #A70000",
"* c #7F0000",
"= c #BF0000",
"- c #D70000",
"; c #CB0000",
": c #E30000",
"> c #EF0000",
/* pixels */
"oo@o..X#$  ...+oo+oo*O*O  .O@O*o**O .oO*XX==+     ..*&XXO*XXOOoOO**XX+O.X . XOoO@OooO.XoX#OOOOoOOoooo.OO                 .  @+o+",
"oO+.  #X@ ...o.+oo@OO*X@$  +ooo+.    .OOXX#=+     .o@@OOOOXX*X*OOO**&oo+o O+XOo@O@OOoooo@*O+OOOoOO@Oo@X.  .             $ @O+.+ ",
"o. .. %X#$ ... .ooOoOOX      $     . .@oX*#=+     O+@ooX@O#XOOXXXOOOXooOX$ XX*X+XO*XO*ooOOO+Oo+O.oo.o..@$ ..             *O+. . ",
"...+oO%X=. ....OO@OOXXX$        .. ...*.OXX=+    O+@+ooo*XXXXXXOXO*oOO.X&$$oX*O@OX+*XXX#oOOo*OoO.Xo...@.  .Oo          $.Oo.. @ ",
"..oXXX&%=# ..@ .OooOO&           ..*oOO*@.O*+  + OXOXO.o*&XOX#XOO#@ *  &X$  XX*OoXoOXXX#*XXoOO++o...O..+  OOoO         $o@o.    ",
"oOX#X*=##=  o.oooOOOXo$        ....ooOO&X +O+$.%O OXOo*oX*XOXXX#O*. .  XO  $%O*oO*oO**o#*XXX&..o+..+O. .  OoOX&         o..     ",
"XXX&.O=##=X$+++XOO*XX       ... ..Oo**+XX&  ..oOX+ . @o*O#XXOX%%&#&XX@. o   #XOO***OXOXX#*XXX  .. o * .   OOOoo.        ...    o",
"XXXX$ =&XX=.   $.+oO        ++o. OOoOoo++O .X @ X.O $OOO*#X#OOX%#X&&%&%%XO+ &O*oOOX+XXXXX**XX. +..+.O.+   oOXoO*.       +     o%",
"XX=@ $X%##;#$     $       ..OOX+..o..+.. ..@ +@ o...o**XX####@OXXX#%%X#%X%%=&**o*O*oXXX*OXOXX ......O+.   oOOoo*X$           o&X",
"##*  $O%#&-%$             +.+*Oo$$ @@ + .. o. ooO%&O%*OXX#=#=%@OXXX&&XX#XXX=#*OOXOOX*&XXo*OX# + .@.@++ .  @OooOX*$.         o&&%",
"X&. .@ X&--X$              ..O@X $ %O ..o.@*.o*X#+#o=*OXX&X#-%#@#X&#&##%#%%%%OXXXOOXXOXXXXOX#... +... +o  +ooXO*O$         oXXXX",
"Xo ...$.&%:o               ..+*&.$$#*oo#XoXXX#X#O.*+=%*&X#=X%&=.O%XX#XX##%&&XO*Oo@*XXOX*XXOXX .. .+.+ .@  .oooo**$         oXXX*",
"O +.    XX=. O               $X%.$$Xoo&#&O*X*#oO  +O&XX&XX=X#&=X.OXX*XO#X#X#XOO*OOoXXXXoX*O*&..@.++..  +   ..o.O*.         oX*O*",
"OOOo. .+%#= .X@    ..       $$O=o$.OOOXXXXOOOXOXX$ XXXX&XX=XXXX=o@X#X#oXX#XX%O*OOOOOO*XO*OXX#  ...o..     .oO*O O+$        ooooo",
"X#*o..o#X#X$O%X    ..       $ **O+OOOX+&XXOXO*OXX+o&XXX##XXX&##X%.OX#X@@XXX#%OOOO**OoXOOOO*X#. . .O *oOXOO#O*XX$+.$             ",
"XXo@.OX#OXX@XXX.    .       $ #XXXXX## OXXOXO*o&OXXXXX&%&X=#&%#X&X.###ooX&##=ooX+*XOoXOO.OO*#+   @@OXoOXXXXXXXo$.               ",
"XOO@ XXOXOOXO&#O.   +       $$X*O*#X*&* OX*#X**%XXXXXX####X#==#&#%OO=#X&=XX#X*o*OOXo*X*O+**XXO . @+XOOXXX**XXX  .               ",
"Xoo.+XX#XOOoXX*X    @$.      $+O*XX*&X%X.X&X%XX=XX#XXX#%&XXX#&#&X#=OX&X*#X#OoXOOo+Xo*OO**OO*XO   +@*OXX&X*XXXo$ .               ",
"Oo..OXOX*XX.OXX*@   .$X+     $$.X*&XOOX&+.X&%%#=#XOXXX%&=###=#==XX#XXXOX.XO@.*O*@oXo*OOOXOOXXo .$.&*O#XXXXXX#   .       .       ",
"o+oX*O*OOOOoOXXXO.o  $#       $$XO%%@ OX#O*X#X#XoOo...oX&&&#X#&X*XXX#*OO**#  oOOOoOOOO*X**XOXO ..@&o#&XXXXX%X$          .       ",
".oXXOO***ooOoOXXXO;  ...       $@#&&&O$.#X*XOX..O o*.o@O.oOXX#XXXOX&X**O#XX+XOooO@Xo*oO*O*o*XO . X#OXX#X#&&:$   .        ...    ",
" oXXoXXOOo*OOXXOOX+$   ..      $ %&XX&X $o@ o%X... ...o.*XO#OXX.XOXO#**XOO.OX*@Ooo&O&OOOOXO*Oo.$*&XXXXXXX#&o$   .       ..o     ",
" oOXOXXo@XOOX*#oXO$     ..     $o&X#**XX@...&**X&.     . oOOoOX .OX*XOOX+*oO.O@X*oOX##*XXX*XXO..=X**XXXXX=%$            .oO.  .+",
".oXOXO*OOX*X*XOXO       .#     $%&XXO*XOoO@%OOOXX.    .o .+@.*o. .+OOo@@@+Oo$$*oOoX*X#*OOO*OXo O=XOXXXX*OX@$           ..o+.$oX ",
"oOOoOOO.O@*XXOo#$        ++ +o.O=%X*ooXo.+.X.oo.oOo++O.O.+O..O+ o$++o..X .@O.$ .@o*X*OXX*OXoXo o#X.+..         .       .@*O@$oO.",
"OOOOOOO%OOOooo%       .  .+ XXo&%%;&ooXO *.O.XO @O+.+o..O@.+O.o.# ..o o.. ++*  $oXO*OOoXXO*OX+. @  .  .       oO       @oOX@  X.",
"&OO&OOOOXOXXXo$     $ O.   XOO+%%%%%%X*..*..OOo.oo+o+.+@o@ OO+. #  o. @.. ..*@ $ X*OXXOOXXOoXO               .OO...    o@OX+ .o ",
"&&@ XXOXX*XX+       $+% $.XOo+.=&&&==#X.o.O+O@X @+ O+ @@o+.*oO@+*o$..       @O $  *O@oX*X#OX*OX+o            $o oo     ooOooX .@",
"   .#X.#XOX+      . $ =.$.#o. $%=&%%=#X ..oO..++..Oo.+@.O..O O.+.*$         .O.$$. OXoO##X.Xo*oO+o++           .o+.    OOOo.o. +",
" $.XX&$. ..       * $$%.$XX+.. &-==%%XX +.Xo..X.. +++..O...O+X.*o+           *X@$   OXO&X .o.OOX+oOOo            +.   $ooOoO . +",
" $O.=#            #  $%O+X..+  %%%%%%XO OoO.+O+ O.+o..++.o.oo* O.O.         ..*X     *$@o+*.+*OX.OO+o             .    *@.oO +..",
"..*o%X            XO $XO#O$O. .=%==%%XO.#@.o+ o.oo.o@.oo O O+O OoX.$         @OXX$   $Oo+oOoO OO.Oo+ .                $o@.OO$...",
"@OOX%O            #X $O&X.   oO=%;=%#XX+&@.*..+ +..O@ *+o+ oo.OX.Xo$        .oOX%O$   X++O@Oo+O*OO.  ...              $+.$X@ O+*",
".OO%&X.         +$+OO$X%X@. X&#%%-;=#XXOX.Xo. X.O+..O Oo+X  ooo*oO.$        .oOXXO $+O@+OX XOOo**.     .               + @*@.OoO",
".#.#Oo&         X$ .X.X%O@OX&Xo%=;;=%XXOOoOo+ #oo+..O.o++#  O.OOOXo$        .O@+    Xo.@XO+oo*oXO     ...               .OO+*ooO",
".%$&+ %#+       +$ $Xo#&oOXXXXo-&;=%XXX.oO& X.X.Oo++X..@+X  oOOo.#o$               XoO.*O.XooO@X  .   . .               oOO@o+OO",
"OO*X+$oOXo       $. oXX*+##$OXO%%;;%&X#+.O.oOOo.O.o O.O.o* +.OoOOOo$            $.Oo*OOoOoO.**.o .      .               oX@O.+Xo",
"O+#++.. XX@.     $.O$OOX##o$.XO-&;=%&X#X.OO+oOo .oOoooo.X@.+OOOooX $           $.*X.oOOO+oOoOOo ..     . .   .        . XX.oo.Oo",
"#@#.OoX .OXO       O@$*X&&.$ *O%%=%=%#Xo@OO.O.+O+Oooo+o o..*ooOXO&.$           $X+.@O.O+OOoOo+o.. . .   .   $OX        .@X+OX.X.",
"#&.@X@o&.@o...      O +%%O.$ OX%%=%%&XXOoO@+o.X*oo*+O@.  o+O@o*+OOO$          $XXo+O* +OO+OX@.. .  .   ..   .OOO      $o*O XO.Oo",
"OX +**X#=X..$.@     .  X&@X $oX%%%==&&XXOOo+*..oO..O.X $..X..O#.X.*$          $X%*oOX@+OOO@X o.    .  ...   XoOOo$    $OX oX+XoX",
"*X..XOX&=O .  .       OX&.O...*#==%%%X#OoX..X.X X+ O.X+$ $   OX@X*X$          $+&%**X@XOX*o. o .   .       oOOO@o     .@X$oO.o  ",
"Xo.+XXX#=@ @.       $ oXX*@++O+X&-==%X%oooo@O+O.Oo@o+oO$      ...Xo$           $@%OXXOXoOXo  .  o..     .$+*+o ooo.   .       o ",
"Oo+X.#&=#..@+.       $.#@#.o o..@&;%;&&.Xoo@.+OOoooOOoO         @o.$            $X*#XX&XXo. o  .o .     .$o*Oo.O*o+$         $*O",
" ooX+#&=*..@+@     . $ XoX.*+ooo .#&&XX.+OoO+oooOOoo@Xo $        o $            $.XXXXXX&O  O  +o    .   O+@@o..ooo           .#",
"+O*+O%#;.O@..o.      $.X.O.OX..Oo$ X##oX.O.oXXOOXoooo*o            $             $+XO#XXX#. o  @.       ++Oo...o.@o+$          O",
"XooOX#=X@OO+.o..    .@XOoOX+XO+OXooo&%*+.o@oOXOX*OooOoO.           $               OXXXXX#* ...O .     .O@.o. o..o*o            ",
"&*oX#&=Xo@...+.@   $X*oX#X#O*%&XX#%##&O.++oXX*XOXo+X+ +o+                           &*X*XXXo.+.@$X    ..oo@X+ +o@.oo.           ",
"#XXO%#=o@......@   $OX+O#XX#&=&%%%==X%oo XoXO@O@@@. O..oo ..                      + O***X*#X@++@$X   .+O.@oX+. oO.X..           ",
"%%%##%#Oo. ....@@  $o#oOOoXO=;&&##&-X#X..oO . +.O ... X.o X.         +     $o@$   +.+.X#&XXXX* .o    O+.O .+o+.OX.@           .O",
"=;&X&=Xo. .....++. $.=O+&.#@=%&%##&%%#O.$*@+..O o +.o$+.. +@+     ...oo$    %X$    . .X#%XXXX=. o  . X. o.+ oO.O+            .XX",
"%%&&;=*X.. ....++..$.&Ooo*X@%=O%#X%#-#o.+oXo...+  O.   O   +... o*OO.+@  $.XXX+$     #XOXX&XX%%.@ +O O.....+.O.             .oOo",
"&&%#=#oX..........@ $XX OO#o&%+X###XX&. OOO+.... ... . OO.   X  X&X*oO   $.XOOX  o  X&%XX@OOO&&Xo o#.Oo++..O..             o++OO",
" X%%-Xoo......   +@.$XX@OXXO&+XXXXXOXXO@oX.O+  .    . $XX$  $&X@. oo.  +.oX&OoXO$   &#XX#XoO+@X#@@@oooo+o..                 +oOo",
"$O%==XoO+.... ...... +X@O&o+&oXXX#X#&O#O%% .  .OO&#X*oX+.    #X*OX.   @O*@%Xo*oX.  $#XXX##ooX.o@+Xo+X+o..                    .O ",
" X&=%OOo@........+... OoX#ooOo**O%X#XXXO&%O $ -==%X&#&o    $ .XO**X&+.  .X#ooO@XX  $*XXXX&#OXoO.+@Xo.o                     . $o+",
"O#&#XoXo...+ . .......XXoOXoO@OOoXXX%XXX%#&O$$X&X%#%=o$    $. XO*O*XX#.$$%%@o@.O%o$$.%XX##&#@#O..OX.                        $ & ",
"O%#-oo#... + . .. ... X*O.X O.OXOXO#X#XO&&&X+$$X=X#;o        $ XX#X*X&O $%#o+O.o##.$ #XXXXX&*XOo+o.                       + $.o$",
"X&=%@O&... .. ... .. . XO+% #XXX*#XX*#OOXXXXo+$$&==O$   O    $&**X**OXX#.%X++X.oX%%$$XXXXX&&XXOo                          .     ",
"#&-X+@o... ... . .. ..$oXOX.XOOXX+XO*XXXo#XX#+ $.%*$   $=    $X&oXOXO#OX%Xo+.o.o&#=+$o&XXX#%#&X                        .$.      ",
"#;=O+o+...  .. ... .   +#oXo#Oo&o#OXX@XOX**%+  $%%$   .$=.   $ &.XOXX= *-Xoo.@.O#X%%$ %XXX#%%%.                 . . .... X      ",
"#-#@+o@........  ....  $#X*XXXoX&o*X*OX*#XO+   +-+     $=.* . $X +X*X% X%O@o..+oOXX#$$X%%XXX#%$                 . .. +X=       %",
";-X@+X.... .....  . .  $OXoXXOoX&**X#XXo@+.   .##o.    $&.X ....$oOOX% %&Oo@.oo.oXXX$$.&&XX#%@$               ..  .. +X&& oo.+o%",
"%&oo@O+.. ....           #*X*oX#X+XX*X#O+     $XO@&    $%.+ .o X $XOo# &%X*@.@@+OXX. $.XX###&           .     +.. +. ooX#XXX#OX%",
"%&.ooo..... ..          $.%#@X#o&oOoOO+        .oo#@.   =..@@@ o. .*X#..%#O@@@..XXX$   .oX##X$        .   .. ... +.@.@.%%%OX#X&%",
"-#+o....   ...    ...     XX@XXX%oXO          oO #OO&   =o.+@ ..+  Oo#*$@%XoO+..X&o$  .   #%X$       ..o  .. ...@..o@.X&##XXo#%%",
"&+Oo....      .. ....      &XXOO#. .$   $...@O+#.#+OXo..%.o. X O.  XoX $$#&OoO.o##    .. $+%O$       ..X. .  .+ +.+++o#X%OX*o&%%",
"&.O@.. ..... ..  ....     $.#oX.        $o+OoOo .#$X#X. X O+ + ++ $#*o  $ %XOOoOX#$    +  $.         .@X    ..o..ooo.O*O##XOX&%-",
"%+@o.. .. ..  .. ...        #o.$        $ @.*O%    &#OX.O@o  .+o.o$.X    $O#XOoX&.   .....         $.@@&   .o@.+...OooOO%XX#O#%%",
"=#@o.  .  ...    .         $.. $+o@ ..$ $ .o#*%  $.*o+#+X.* @@.o.O$.#$   $$&#OOX#$   . .             OoO   ..oo@++o#o@.XooXo*X%%",
"#-#@.      .                   $ O%@Oo   $ +@O%$ $ X.XO .+o.X .++O        $.##X%o @O+.o....         . XO   $Xo.@+O##.OoOXoXXX#%%",
"#%-+..  ...        .           $$ XXX&.$ $+O*Xo$   XXX% ++.o..+ oX$       $$X%X% +X. .oooo         .o.&o    =oOoXXXO.*oX**XX*X&%",
"%&;%..  +..      .              $$*X.o$  $o.Oo.$.ooXXX%&&@ ..o+.o#      .. $.%%o XO  ..X++.     .+o@@ .+ ..@%.#X#XX+.*OX*oX%oX##",
"%%%:O....O..    .%              $$. $    $ .O @o&#XXXXO&X $ oo+.@O  +  $&X$ $+X &O**@.$o.o. o+.ooo@...   $O.X@O*OXOo.OXo#XO#o&X#",
"o-%=:@...@..   @=#X$         .   $          o @X%%XX#%&%X.$$O#Xo    X$ o#X.   .o#%O@     ...%&#Ooo....+  $X.oOo&#XX++oX&#XXXX%X.",
".#;=:&...  O$ .%&XX                         .  &o%#X%+o&o  $@OoXX  $...@&O $   @XX@       $X=%;@@.@.... $$X#.oOXoO#@O#&o..oXo..$",
"..;&%;#..    $XO#o*X                          .$@o@Xo.      $@O#XXo  .+o+o@+   . o         o=-&@@.@...o  $X&=@&X#OXoXX..    ..  ",
"o.%##&-o .   X#OX@*XX                       . .   $*....    $ @@X#%o $O#&X=%X$ $o.         *%=&...@+@ o   X#&o%XXXoXX....      .",
"o.o#%%%%... X&***OXX#o$           .           ..  ...o  .*    $@OX%% $O#&X&#&$  -Oo       $&%=#...+@..O   #X&X.*X*OX#$.....@o..O",
"+o@&&%&-X  X##oXXoX&XX.        .   +              O  O  o...    @%XX $%X%###X$ .%OOXX.    $=%=#+.++@..o  $OXX+%@*XOXo$  %O@X@@.o",
"o@oXXO@*X@o=X#OX#oOOXX%@$      .   +            ...  +o o..+..  .&Xo$&#X##&%@$ $oo@%#&XX+. -&=O@.@@.++o$  X%O@.XX*XX.$+@%OOOo.o@",
"+o@+XOX.$o%Xo#XX%#X*o&XX.$         ..@         .  ..  ..@oo...+$.X . =XX#XO;+   $.%XoOXXoX.;%=*..@@+oo.$$.#O. @%XX#X +&X%XX#X+O.",
"o+X@X.#O .#Xo&XO#&&Oo#XX#            .@        .      $X&o  .. +OXo$$*XO#*&=$    .=X&%O..o.-%-.+...@+.   .o o&=X@@;o.#@oO#X*o.oX",
"Xooo#ooO.$.XX#oX&#oX*OO###X$        .$O       $ ..    $. $$.+oo&X@X $ X&XO#&$ .  O&O%&+$ .+-&;@...@.     .@*&=XOoXOX.ooXoo .. $o",
"oOoOoooXo $ oXoXXOXXOXo#X-%$         .+          o+        ..XoXXoOX$$ OXOXo$ .o+O&@#.$ oX#%%& ...     . OO.oX+o oO... o.    .  ",
".XX.OoOooo$$.XoXX#*XX+XX%-#$                $ . $oXo      .$.XOXXOo&   $*XX+ . +.@o%  *&=.X&%X .*.   o oo++.Xo@oo.O.o $ $       ",
".OXooOO*Xo$ $.ooXOXXX.O#=-O$                 $o $.       ..$ @o+XoXX+$o  ++     $   o@X+& .%#+ #;.   +$.o*o.* O ooo             ",
".*O+ooXo#=.$ $++Oo*Xo**&=;+$                 +X         . $o$ @.X.*X+$X  .      +  $.X#+.$.# .X%=X     .+.@XOo+O.               ",
"ooOoooXoX%o$ $$ Oo+&+**%=- $                +%O         . $&  ..o.XX+.X             .O+..$.& .*==@$   $%O....@@                .",
"o.oX+oX+*&o$  $$@o@X@XX%:#$                +o#o$        .$$X .@$X&%OO .     $o       O.$ $oo$.o%%&.$    o$ + +.               .o",
"OX@o@oOXX%&.$   $+ooo#%&-+$                O*#@$       . $ @..O  %+o= .$    $.o@@$+      $@.$O.&%%o..    $ . o.               .X",
"Oooo+XOO#X#.$  $ $Xooo&&: $                X*XO$      .  $+..o@ + o&*X.         @ ..+     .o*X$X%XO@X        +.      ..      ..o",
"X@X*@@Xo##%+$    $.oO+#%;.$         $      *oX*$      .   +o O* ooX%oX          ...  o$   $.XO$%#O@o+X               X        .o",
"XoOoXXOo#%&+$      .%o&%%.$         $ $.. .oX&O$          X .O..o##&#O$         .....o$    .#+$X#oo+@+.+     .OX@$  .*.      ..O",
"X@O+XOOO#X%&$  $$   @o#Xo $        .  $.. .oOXo$         .X o. oX%&=@        =.$ ..o o     XX.$ O@.+X.@++o   $o#X$   o        .X",
"&X#oO#XXO%%X$   $ * ..##$             $  $.oX##$         +X o. X#&#=+       o% $.. o.+   $ O#$ $O.oo+@+.o.@. $ X%$   ..       ..",
"XXXOXXoXo&@.$  $$$Xo. @.$  $        . $ .$.oXXX$         O+ o.oX%#%=@$     $#@   O o.+.   @%@$  +.O+ oX.@.++@ $XX .   .        X",
"oXo&OX#o +..$   $$@%&$     $         + $X .oX#%$         X+.+oX&&#&;+$ X$  $%.$ $X.++O.  .oo$   +.X +X+ +.+XX       ..  .    ..o",
"o#XX#o+$ +. $    $ %+$         .   + ++$o .oO%%$         XoXo###X#%= $ X    X    o +  o       $Oo.Oo+o  @@#XO@$   . . . .     .o",
"oXO&o   .. @$   $$$      .   $  + .. .+ o..oXX&$         @ oOX##X&%- $ O.$$.#$  $+@.. . $ .   $o+ oX OX++@X#oo     +  . . .   ..",
"oX@+.   . .X$            +  $$  .  .. .  @oXX&&$        . $.X#X#X%&;   .*$$ %     $o&XO+$     $o..XX.oX@oO%O+O  o  ..  @.X     .",
"o+ .  . . o.$   $         @ $   +. +. +  XoX#X&           $+X#XX##&%$ $ X.$$+o   $O%XO#+o+    $.oOX@.oX.oXX.$o*.@  .   oX@.o ...",
"  .  .  . . $             . $  $. o@ .o$+XXOXX%        .   &O&XX##%+$ $+@+  $Xo$$X+&oXoO+o++  $.X*o+$OXoooo$$.X.    +..o+o.  oo.",
"...     . o.$             . $   .. . +o$OOoo*o=        . $o%o#&###O$   .O.+$$ O$&++o.XXX+oOOo $o#O+ $.#oX*$  @XO@  .Xo.O.+ o+ . ",
". . .     + $$$           . $ $ +. . .$ XXXX#Xo$         ..@X&&##X$   X..+O$ $$@o+X.+XO#.OO+o  O#.$ . o.X+  ..o&o .OO++.+@o..   ",
"   +..    ..$  $         $+ $  .. .. $$ooX+   $  .       $ +O%&#X$  @.# .. +$$$o+oOo*+XO.Oo+ . &X   . $ .  .o..XXo.oX.+..o..    ",
"      .   @$$ $ $       $   $$       $ .OX  $    o+      $ X%=&& $.Oo+O.o  #  X++#@Xo+OXOOo  ...    .      +&&..Ooo.Oo@.+       ",
"           $$ $          $   $  .    $.+#+  $O.. $#*     $ O=%&.$$.OO@ X@$#$+O@+O# #OOoXXo     . . . .   +X+XXX..Ooo++..        ",
"      .     $          +.          . $..&$  $#o$$ %#.     $+&%o$  $@* .X @  %o.@XO+ooXoXX     ... ..   $+.#oooOX..oo..      .  .",
".    .    $     . .   ..OO.$      .& $.X%$  $X $ X%&        =O$     o..o   &o*.XO.%ooO@X  .   . .      $oo+X.X.@#.+o           .",
"                @ .. +oooX $     @%XX$O#%   $@ $X&&XO     $O&$     oXo+.$.XoXXOoOo&.XX.o .      .       ...OXXoo#o            . ",
"  ..  +   .     +.+..O+o. $     .=&X&  &%   $  .%%#@.     $@@    .$O=+.$.X&.oOXO+oOoXOo ..     . .  o @. .@ooOo@X%o             ",
"   @  .  .. .  .+ .+++o $ $    $%X#oO&  X$    $*=X@. .      XX  ++$X;O $#+.@X.X+OXoOo+ .. . .   .  @.oo  .Ooo.OoXX#            .",
"  .   +  .. .    @O@.o $    $  X#OX@X#X  $    $*%@.$ .      o+ .  $X& $#Xo+XX +XO+O%@   .  .   .. o+oX +  .+++.oXoX#           .",
"....  .    oo+.  .&o. $    $. X&XXXOXX&o$     $X&.  . .       O+ $.X  o%&XoO#@+XXO@# o.    .  ....+@%+  o..+@++@oXO##$          ",
"o. ..     .+.@ O  o $$       XXXo##oX&#&+    $ %O  . .  .     o. $.  oX+X=*&#@#O%Xo. o .   .      .oX@ ....o@+.oOXoOo.       .  ",
"oO. @.   ...o+.OO  $       @o=*XOX#oXXX%%+$  $.X@ @$ .  @$     + $  .O= @%X%XX%oO#o  .  o..        .#. .....@+OOXoO@X#.       . ",
"o. ..     .+.@ OO.o $$    $o&Xo#XX#XXXX&#%.$ $ %O@ . .  .     o. $.o  X $#X&&&=XXo. o  .o .        .&@......+oooXXoOo..      .  ",
"....  .    oo+.o..Xo. $    .#Xo#XOX##XXXX#%+  $X&O  . .       O+ $.Xo    .%X#%%&%O  X  +o    ..$    .+..o..o@o@OoXOo#.          ",
"  .   =  .. ..@@ @O@.o $   $.#X&oXXXo&XXXX#&+ $X&X.$ .      o+ ++ $&X#.   +&X##&#%. o  @.            ..+...+o@ooXoXX.          .",
"   @  =% .. .@oX%@.+++o $ $ $ o#oXXOX%OXXXX-+ $X%XO. .      ##  ++$X=OoX.$ O#X##&%X ...O .  .        .o...OooooXXXX.           .",
"  ..  %=% . .o&#%%&..O+o. $  $.Xo&X&XXXXX#&-+  .%%%..     $@@    .$O=+.X#o. ;X&X&#%o.+.@$X .       .  @. .@ooOOXX%.             ",
"      ;=&#  @ooOo#&& +     $  $.oo%O&XXX#%%:+@ $#%=X.     $O=$     o#o+.##% @X#X=#=%@++@$#@.     ..@.   ...OXXXX=o            . ",
"oX&%&X:%%-  o+oOooOo%o$        $++OoXXoX#%=:+ .=O &#X     %===%%OXX .++&X  $+@%%%&%%=X Oo@.    ...o+&.  & XoOXX#   .            ",
"..o%%#=%-& .o+o.@oo%X%          $ OoO&OXX=->+  + +%XX    %%X%=%%O%@%# +&%$  @.@&#X&%=-.@O.   ..+o@XOX+.  .OOoOX                 ",
"...+oO=%-. ..+o oXX&O%&         .$@oOXOX#=:-+     o%   o&&%%%&%XXX%oXO.X&$ o=@.@#X%%%=%.@  ..OoOX&o@o@@.  .XoX         $        ",
"o. .. ;%;$ .+++oo.OoXO%      $    $+ooOX%=--+     .OX.o%@X=%XX%%&X##%oo.X$ &%&@...##&%%. ..+Xo+OOoo#oo#@$ ..X                 . ",
"oO+.  %%@ ..Oo+ooo@oX#%@$  +ooo+.  $XooX%%--+     ..O&XXXX%%X#XXX##X%oo+. %+&Xo@@@@ ...@@XX+OXOoOX@#o@%X         ..     $    .+ "
};
