/* XPM */
static char *ROCK4[] = {
/* columns rows colors chars-per-pixel */
"128 128 25 1 ",
"  c #8F5F37",
". c #7F532F",
"X c #875733",
"o c #A36B3F",
"O c #774F2B",
"+ c #5F4323",
"@ c #533F1F",
"# c #6B4727",
"$ c #4B371B",
"% c #9B633B",
"& c #B37347",
"* c #AB6F43",
"= c #43331B",
"- c #3F2B1B",
"; c #BF7B4B",
": c #2B230F",
"> c #3F2F17",
", c #332B13",
"< c #372313",
"1 c #CB7F4F",
"2 c #CF8353",
"3 c #D78B5B",
"4 c #DF9363",
"5 c #E79B6B",
"6 c #1F170B",
/* pixels */
"..##X %%*    %       %  O+@+@+@$$$=>>#X *%&o%%*o%o  +++###OX..::::::<:$$@@++@@>+..O+..  % o**oo** ......#O+  %% *% % o**o%&%  ##",
"*X..##X o *&%%  %  %  .OO@++@$$$+@$$$>>#Xo o%&%&o .#$@#+.###+><:,:,:-:$++@@@@#+>#+O.O. %%%% %%**&XX##XO...+..  o*o %  %%*% *  ##",
"%*%X..##X%%%%% X%%  o% X++#+++$@=@+=$$$=>#X*o*o o%+@+#XX#XXX.-::,,:=,$#%@@++@O+@>@..X.X  %  *%%o&o  ##X.##+#+.. o*  o%o*% %oXO+#",
"%*%*%%..##X*%%X      oX#++####+@$$$$@$$$@>>#*o%  #@++XX#O@X##::::,,<++%%%%+@++++X#  XXX. %o%oo&1%**%%XO.O#+##++..  % oo o%oo #+.",
"oo****X%..##X%%o***%  ++O++###+++$+@$@=@+=$@  .O..O####OX#OO@::::::,#*o*;%%#@@@@@# X..  * ***;1***%o  XX.O+####++..%%%%o&%** +. ",
"%%%%*%*%*X..##X%*%*o O+@##+########++@$$$$@@X  O.O..#O##..##$,,:,,,#&oooooo*%#@@@+ ..X X *%*%*o&%%%o%% #OO@OOOOOO++. o%%**%%.+ %",
"*%%*o%*%*%%X..##XX  +++O@#O+#++@####O#+@+=@+ X #..#####.###@+,,,,,@*XXo &%%&oo%##+..X %*o*o&&*oo**%%*   O#+X...X.OO++. &%%o*..%%",
"***%%%%%%&%%%X.##@@++++@.##O#X#+###+##O#@+$+X o%##..####.#+@,,,,,%*.#OX o;%oo&&%@#X%Xo%%o1&%o****&**% %X ##%%XXXOXOOO++. % *. %*",
"%*%*%***%%**%oX.+++@++#+#X.##O.###+##O.OOO++ %Xo*#.#.#.##X.@,,,, ;X.##O+  **o&%oo#X o**;*oo&o*%%*o%%*%  oX**     XXOOO#++. %.**%",
"%*%o%%*%*%%*%  ++++++O+.#####...#.####.#.O.. X  % ###X..#O@+,,,%% O##+.++ o*o%% #.X o%o*&*&&**ooo;o%o    o%*%%o*   o      ..o***",
"****%%%*%*%%Xo@++@O@@+####O#O#.X...O##OO#.O.X%XX O ##O#O#O+#, o& ..##+##++X% o @OX %%&*&&o*%******&*o    &%* *%%*%*%%*%*o%o   *&",
"%%*o**%*%%oo%+#+++#O+##O.#O#OX##.OXX..#.##XX   X%  X###O O$X * X#+.#####+#+O o# % %*ooo%&&%o%%%**%**o%..o%*****%****%%%*&% % %%%",
"%*%%%*%*% %.+@++++@+OO #OXO.X...  XXX.#OOO.. X    X. OXO.#X%o #.#O##+#+###+>@OX  %*&&*%o%*o%%&%****o% $%*%*o*%%*%*%**o*%o*%**%%*",
"%***%%*%  .+++++####O+#.#X##O ..X   XX .OOOX       .XO#X#%   %###...######++#   *oo&*o*%%*** %*%*o*%.,.* %%*%o%**%%%*% o%&%%%*%%",
"**%**o% o.@@+++O##O#O..O##XX. X   .X% %  ..+X   XX  ..XO. o%OXOXO.#.###+.#+.   *%oo****%o  *%*%*o%%X,@% oo%% %%%  o%o**o%%oo%*%*",
"%*o%*o% X@++O#OOO.#.X#OX.O.X X % %   %% X...%X   % %X.Xo%  XX.. #OO#O.#+#+X %o%*oo**%%%o*%o %oo**% :<# X% o*o %o%o%**%%;*% %***&",
"***% % O+++OO.#O.OXO. OXX %   % oo%%%o*X##.  %  % o .%    ..#..O..O.#.O.#O#o%o;&o***%%o o%    % %X@@=@X   %% &%*% *%%o%% %%%%**%",
"   %  ##+O###.OO##XXXX  o *%  %   %*%X$$#. XX     %.X *% .X.O#.#OO#O#.##OO#*o*o**  % ooo %  %%o%%##++$+OX   X% %  *% %**o%*%%%*%",
"  .. ##O#.O#O#X.OX o%%o % oo%%o****.+@X .  X  o%  .oo% X.OX O.X.OOOOO#..##*&***%* oo  o   &%  o%X .OO+@OO     o% % o%%*%o%%oo***",
"X.XXO#+#.#OX.#.. %    oo %o **&*&.++X.      %    X %   XO.XO..X.O#.O.#.###*&*   %      oo  o&oo.  XOO#+=O. %%   %o    o*%*o o**%",
"..X++@.##XOXO % % %% oo%o*&%  %O@++.XX   % %%o% %o*%XX X X .O..#..XOOOXO+#Oo*%% %%X   % X    %.X XX##+#+-#OX o  %%** o&*oo&%%%  ",
".#+++##..X.%  %%o% o%%%o%%%% .@+##X.  X% % o% % *o  .OO.OO..O.O..O..X.OO#.# %%%% % o   X%%o *.  XO##O###@@+  X oo%%%%%%o  *%%o %",
"#+O####X  % &%*%%&%*%%o%*%%X@OO#   XXX      & *% *X.OO.....X.X.#OO .#####X #%%*     X    % % o% X.X####++@=+ OX. & %%   *%%o%o%O",
"#++O. %o  %oo%&o*%**%&*&%O@@#X.   X  %%%  %% o&  XXX. . XOO.O..XXOO...#OX.XO+Oo%%    o%   %X o%% O###OO##@@=#O OX.%%X%%o*%   %.X",
"X.%   % o *&*oo*&***%  .@#@O.X X  oo%%o *%*o*%  X..XO....%O.X.XO . X##.# XX O@.%*%% X % o X % %  ..OO##+#++@+#.X X  .  % *  X.O@",
"## .o o %o%;o&oo** % @$$-#O#XX    o o ooo  ;%o ...O X.X.OXX.X...O#X#O$.# X.%O#@.** o  % .%  o  %X#.#.+.OO+@@@.O#.XO o%o% oX.##+#",
"##%%%o%o%o%** o  .@>-=->@+OO.X  % %o %*o %o*%X .......#O O.......OO#@+.oXX...++@.%  O . o %  % %.#..##.OO+$<$@.OOO. XX  oOO#@#O#",
"#O.%%% o *%XX.#++@@++$@@$O+#X.o   *%*% X**1% O.X ..XXOO#O OOX. X.O+$=+XoX  O.#@$+..X.O.X o  % *o.#.OO##.O++:,-+O.#.X .XO#.$$.#%O",
"O..Xo%%X###$$$+O#O#.#OO  XO. X%o%***% O *;*X.......X.X.XO.  X.. O#+@#O%%XX..X.O=-@+..  % o**oo** ......#O++::>=@#+O..X#O=@.% X .",
"####.X..#$=$>=+O ..O..%%%%#+# oo  %  Oo&;o X.O.OX..... ...O.#OXX#+=$.Xo& X.X.##-+O.O. %%%% %%**&XX##XO...+@-=@+@++#####==O.X  * ",
" #.#+OO##.@@=++# % %  %%* X.+#X % % Oo**o%..OX....O ....X.O...#.#$@#O%** %X OX#$@..X.X  %  *%%o&o  ##X.##+@=+o.#:$+.@=$@.X    %&",
"* . .#O###.O@++OX%%%o  %*%X O+#O    oo&1o%.XOX.X.X. X.##. O.. .##$@   &;    O.#@#  XXX. %o%oo&1%**%%XO.O#+@+ *oX$,,$==@@.o   **o",
"*%   ..OO#O..#+O.X   %%;%   %X=+OOX &;43o .XX..X...O... .X..XX#O+-OO%*;&% X  OO+# X..  * ***;1***%o  XX.O+@+X%XX$-=-$@+ X%%%o;%o",
"o%%%o XOO#O##O+##.XX %%&*  XXX.-@# o&132* %.....O ....##X.XO##.#@+X.oooo*  XO.O++ ..X X *%*%*o&%%%o%% #OO@@$#..$<$=$@+#.% %  o*%",
"*%%*o%%% .#..#+++OXXX**&*X   X#=+Xo&1;&;2* X .X.O..X..X..O.XXOO+@# %o%%*;*X  OO@+..X %*o*o&&*oo**%%*   O#+@++$@--=$++#XX  %o&&*o",
"***%%o%*%o .#.@++.%. ***& X   O=.%;&o*o&o;%%OX.X.. OX.OO%.#OO.+$+ o %o%**1% OX#+#X%Xo%%o1&%o****&**% %X ##$@$+-$$$+@O.O o   *&**",
"%%%**%%*o%%*%#+##X o*;o &o   X#=Xo&**oo&o**o%.X.... XXXO.O.#O+-@O  **%%*ooo% XO$#X o**;*oo&o*%%*o%%*%  oX++.##>=@@+..X    %o&%%*",
"&%%o%%%*%*%%* ##XO.*o   %&*   #@o&%ooo%*o&o&* XOXOOX..XX.XO#+-$#o  o%%%*o;oo X+#.X o%o*&*&&**ooo;o%o    ###.O#$=+@+.O.%o%o%*%%%%",
"o*o%%%o*%%%%% OOOX  % X .%%%  OX*&o%% %*oooo*  .OO..X...OO++@@#X %%%%%o*%%%%.#@OX %%&*&&o*%******&*o   X+#O.#+$@@+#OX %% %%&*o%o",
"%%%o*%&&%o** O+% %%%XXOX O%o%X.  %%%%%*&o%*&o&%o...OO.O.##+$$# %   o*%&&%o*%###% %*ooo%&&%o%%%**%**o%.XO+#.X##@O#O.OX  %%%&*%%oo",
"*%oo*%%o*%%%.+   **% XXXX . ; %o%%ooo% %*%o&*o&% .XX.OO##+@@O#.%% %o*%%o*% #OX  %*&&*%o%*o%%&%****o% O$#...X.#+##.X     o&&%* **",
"*&*%*%**** #+  &o %%X XXX..# %%oX%% o *****%&;o1% X...##@=++#.O%%o*%*%***%##   *oo&*o*%%*** %*%*o*%.X=+..X.O.O+...   % o***o  %*",
"%%% %%%** #@X *    %% X.OOO.oo*OX  % % ** oo%o&o&  X.O#$-$+#..  %%o%%%%*o+.   *%oo****%o  *%*%*o%%XO>@+OXX..##.O..X %% &%%**o % ",
"%o%o%**%%X+ *%    %   XX..+%*o.XOo o %% %o &&*&oo&% ##$,$+@#O. %%oo*%** #X %o%*oo**%%%o*%o %oo**% O-@#O#. .X.#..X  X  %***%*% %%",
"%  %*o* .+ % o% oo%% %  O# o%%...#  o%% %%*o%;&**&%%+@:>@@+#O.X % %**%%$# o%o;&o***%%o o%    % %X#>,OOOO.XX.#...   % %%***%  %%%",
" o  **%X+..   %*%X% ooo   o*% XX. #  %%o o  o%*&oo%#+,==@@##.    o%%%X@+O  o*o**  % ooo %  %%o%%#++-#O.   ..O+.XOX  %*;o*% %%**o",
"o &o%%##OOX %*%%.XX  o  %&&%..XOX. #   **%%*o*%*%o.$=-<$@+###.  o &%O@<. %&&**%* oo  o   &%  o%###.$.% o%%  OO#.O  X &%o%o%  %o ",
"  %* X+#O##.& ......  oo *;* ..XO...#o  % %**%oo #====>$$@O...X%   .=@>.  o*&  %      oo  o&ooX+O..O **&&o  X+#....  o*% %o%o  %",
"% o ####+O%%o..X.OO# %  %o% .X..X. ##+ X.   *o% .=$$=@=-=$###XX % X+XX+#O   *  %%X   % X    % ++*% @ *%o%o% X+O.XO. %*       %  ",
"   X@##.*%%.O .OXO.$% %*&&% . ....O.++=o .o*o* #++#@+++@@++..XX O#@% .++..%  o  % o   X%%o * .#+%%O+ *o&&%* #O.OX.o%*%%oo% o%o  ",
"%%#+OOO%X XO.OX.O#+@X. o&  .O%OX X.###@@X%* .######+#++##@#O# OO+@Xo*X++=#   X     X    % % @X# O@=,$oo&oo;%O#....%%o%  % %  oXo",
"o#OO#%%X...XX ..#+@@ o%oo%..XX..%OXO#+@-,$##. OO####O##+#O##XX#@+.&&o.+@@=OX%o %    o%   % @..XXX++-$# %****X.... o&&% XX%% o%  ",
".+.oo;O%OX.O OX#O@$#%*o;%X....XX.XOX##$@-.%%%  .X.O#O.#X. .@##O@ **1;X@O@+=#  %    X % o .$#. % OO++#.+o%;o%.+X. %*%%o * %      ",
"@ %%;; XX..OXX.#++. o&*  ...X...OXO#O#@$O%*o&*%  X..OO.#.X..+@:X%*&&4X+###@-O %  %   % .O@#.   X#.#+.XXOo**%O#.X o**  %     % X.",
" o*&*% O.X.X.##+$# %*o% .X XXX.X...O#+++%;o&&1% .XXX.O.O.X .--$o%o;31o.@+##+:#XOXXXX . #+.  o%.XO..#.  O#o%*.+@#    %X    % %%X.",
"*%*o%*% ...X.O++OO**&*% XX.OOO.XX.##+##X%*%o*&2*%.   .  XX#+>-$*&&;o%*o.++#O@,.XXO   ..+OXX. ..X...+.o  .O %.#O+ .%%  %%  XX .Oo",
"**&%%%%o  X..#+#Oo*%&%%OO...O..O.OXO#+ oo*% %%&& % .XX .O##$<@@ &**%%%%*.O+#O$,.OXXO.#.#OX%%  .#.#.@X  % $=#O#%o.. .XX XX   O# %",
"&o*%*** * ..X#+.o%*1;%X. .XOXX..XO.O+Ooo* %%*% o&  % XX.X#$-@+# &%*%*** *O++XO:=X.. XOO.  o%% OO.#+>o%* %-+.X % %#X%    o  O# %&",
"**%****&o .+#.. %oo&*%.....XOX.OX O#+ *&% %  oo%%o . %O.#-$+#O+%**%****&o .@#.,,$.#OO..   oo. .OX.=-%%%* @OO *%% .##  X  X..X**o",
"%%oo%%%*o #+##X **&;%XX.O..XX.  ...+O %o%%% %%  %%& % .#,=$OXX o%%oo  %*%%%O+#:-$@+#..   % o    .+$>%  o%.X *  X.X#O.X  X.# *&;*",
"** %o%ooo%##..% **;*o OX X.OX...XX#+ %% oo% o%o %% *o #>$+#.o . oo %% %%oo%XX#>@+##O % *;%%.X....+<$*%% oX%%o% XO.#+OXO X. %;**o",
"*%o *** ..###Xo*&;; .. OO......X.#+#%%%  %o% %oo%%% .O@-=+X%  .O  o %%%  %%##$++X...X%*o%% X...X#=@=**% O%*    X..##@OXO# %&oo**",
"** %%*%%.O## o%%&;% . OX.XO .OOO.O+ %%%*%o% %%  %%% #$-@@. o XO##    % %%%O@+#+O%  %o*%&%%. .O.#+>@+=@#. *%   ##.OO.O@#+X%*;o%  ",
"%* o%&%X.##. *&o&o%XO ....OOX O.O+#*%*%%%%%  %%    O=$-+X%  *%..#O  X% X .@$@.X   %o%;oo %.OX .O=@+## . *%X....##O.O#.@#%*o%*& %",
"    o%oO##Xo%o*&* X.. XXX.%...#O#@X%o &%% oo %% %X#=$+. % **....X#+. X%O++#OXX  %%%*o;;%%X%...#@<$+#.Xoo%X  ...O.###O...% &*%o%o",
"% % * ..## o*;&*%   O.OO .O O .O+#%o&%%**%  %* o #=$@O. o% oX X. X#+ .++@@#. o o*oo&;2o o O O #=@##.oo**%XX.. .XXO#O+###o% &%&*o",
"o% *% .#O %oo1*%oo%  X. ..X #X##+ %**o%*o %% *%..@$#X %o%o%%.XOXX  .$->++#XX o%%*;;352*o .X ..@-#O.o*&1&  XXO O#..++++Oo% %o o %",
" oo  X#X ooo&%%o*  % % OX.X .O++#&*o*&o*o*o%% XO@@#.Xoo &   ..O.OX  O>@+.XX.  %o;&252;oXX.X X#-$#Xo &;*&*%X..O###@@+=O. o %o%%  ",
"% o XX#X% o***%%**%  XXX O...OO+ o&oo&%**%%%% #=@OX.   o*X .X.X...X #@@#XOXX%o%o&231oooX O...@$O. o&o&%&;% %X#@@@@+-=@#Oo %%%%*%",
"     OOX%o**%**%*%*o   X X.O##+#ooo**%**%% oX.@$O# % %o%o XX..XOO..X+-+#..X  o*&121;%*%.X.O##@+.  o**%*o%o%%#++$@=$+$+##o%    *%",
"*% %.#. oo%*%%%%*%o%   %X.O.##+.&oo*o%&o*%% #=$#XX X%o&o.XX ...OX...@=## O.  %o&&o*oo%o .OOO++. %o%*o%*o*%X#@@=$$=$>==+O#  % %  ",
"**%.##. %;%%%**%o%**%    XO.###%&&&o%o*o%&.#=+OOX %oo&*X XO X ..XX.#-+##O .  &;o*o*&ooo X.##+  %&**%%%*%%o+@@@@-=$+O#O+@##Xo * %",
"%* XO. *o%**%*%**o*%*%o  %%.O+  o;**o&**oXO@@OO % oo;&&  %%X   ..X#+$#....%%o;o&*o&%&o& ...#.%%o%*%*%*** .@+$$:$@##@ ..++OX %oo ",
"%o.OOX&o;%%*%%*%*%%o%&*o  .#+. %%;&&*o*% #@@##  % %*o1;%XXX     OX#=@#XO   *oo*o*o%*o;*o.###Xo**%*%%o%*% #@@-:$$@+@OXXOO+@+X%oo%",
"%%XOX *&%*%*%&%%*%*%%*%%% O$+# *o&;&oo% #+@#O%  %%*%%%o; . .X. %..O$#+.X.%%&o;oo*%&oo*% O#OO  *&o**o%%%%#+$>:@=$+@O...OO#@@#  o&",
" XXO%oo*%%**********o% %*#++#.. o*;&**..$@#X oo%;***%  %; XXX .XO+@@#.O   *;*&&****&*o  X#X. %%%%%****% #@=,=++@#+.%###.X#@O % %",
"%%  %*%**%*%%%%*%%%%*o* #@@#...%o&**%.$@@+.   %&oo%%% * %&  %XX .@$+#.. % *oo%%*oo%o*o*.O#. o %*%*%o%* O@$,>$=@++##X.O O..@.o% *",
" %%**%**%%%*%%%**%%%*  #$#@## X %&&*#@+@+. o &&*&ooo%  %Xo  O%X.#@@.OX % %%&%oo*&%%o*  X#.O. *%%%***o% #@--+$@++##X..##.#.$#Xo o",
"..%**%*%*%%%%*%o%%*%%%#$$@O.OX o&*%#X##$X   o&o*%ooo%%% X  o  XX+@@O  % o%%%%*o*%o*oo .O#OX X%****%** #$@>$=@+++##XO...O##+. % o",
"#.*%***%*%*o*%**o*%%o#=++@#... *%*#.O..+% o**%*&*&%*o  * X  % .+=@+O  % %%***%&***%*oX#XO#. % *&%*%%%.+=$=@@#@#.O O.X## .+@#  % ",
"OO*%%***%***%&%**%* #@-=@+#O..X %O .#O#X  %*o; %%oo%%o        @=@++OX %o ***%&%&*o&o  #+#O.X  o%**%%X@@$$$++#.O..XXO.X#.O+@#X X#",
"++ *%*%%o**%%*%*o o#==@@++.O.O .#  .#O++%%%  % o  o % o%o    @>:>@+OX   %**o%&o*oo&%X..+#OXX  *%o%% +@-=++###.OOXOX#OOX.X++#X. #",
"++@ *%**%**%*%*o  #$=$@$++O.O.X#   OO##O %% % o% % o %%  X %.$@@->+O.Xoo **%*%*ooo*o.X++##.  %**%*oO+>+#+OO#OOXX .O.O..#O@@#.  .",
"+@@$ %*%&%***%%%%#:<>-$+@#.#OX# %X O.O#+   %%X  %%    %%X oO$++@@-=$.#  *%**%% o**%X.+@++OXX o**o  +#+##X#X..OO  .##O#O.+@++.XX+",
"#+#@=X*o%*%*%* #+:,>=@+@+# ##+  % X.O#O## .  %% % %  oo   %@+@+@++#=>+OOX% % %% %%*.+@+##O%X  %%o O@##X..  %X%%  O.O#XXO#$O#.OO@",
"+++@+=X*%*%*%  #@::>=-=@@+###  % XO#.##O#XX%  %%o  %   X O+++###++#+@>$#O  o  %o*oXO--:###.X %%* +@+XO.  o o%o** O#.O#O#$-@##.#+",
"##.+@$-X%%  o. X$=:=--$@++## *o%  X##+#+++. oX%  o %    .##.O.O##O.#+@--+.X * *%X.$+-->:O#O %** ##.OX.   **%1;&%.%#.##O#$=@#.X++",
".##+#+@$X% XX.oX $,==@$#+#+X o**oX#OOO####@X. o   o%%o %O##O#OO..##O#O+@-@#  %& . ..+#$@,#OXXo%.#OO  %%%%%%&&;1  XX..XO.>-=##.+#",
".OOO#++@ %   XXXX @>-==++.X%%%*%o.X.O#.+###+.X    o%  .XO.+X.###XO..OO.#>=$@@+.o*o% ##@+$=O. X.+X oo%%o%*o;;&&o*%XX.#O#+-@-+##+@",
"##O#.+#X X.%O X.X.X+$=@@@%% o%%oXO.+.#.#####=XXX%% ooX% # .#.#####O#.#X#-$@O#   &&%o #.+@++O +#OX % o *%%o&1o;%%% .XX##@<$=$#+@+",
"O#OO## oX.X  O X..XX$=$@X.% %o  .#O.######++@-XX%%  XoX..#O##X##O#OOO#..>@#.  &*&&o% X#OO@#+$OOX% %% %***&***%*o%%X.##+$$<$#++++",
"#OO#..  XX . .OX .X  $$.X%  *%& O#O###+O##O++$-X%   *  .#X##O#XO#OO#.##.@O.Xo%%;1&%&o XO#O##+ %% %%  %%**&;o*%%*o X .#+-<@@+++O+",
"O.X.X% X..X.  .....XX @  %o****.....##O####+++==.%X*  OX#....OO.OXX.O..###  **&;o*o&o% oOO#.O% %%oo*%%*o&o*%o*%*%%X .O@=-+OO.#++",
"##O.oX   X.X.OXO ..O X X%o %%ooX.#O###O.O##O+@=-$ o  . ...###.X.##O#XOX..  *oo&%&*o%*o*% .#++ oo%  %*%&;&o%**%%%*%X...@@+#@$#O#+",
".#  . X..XX .XXX.XOX..X % %* o.XX#.##OO#O.#O@+=-.&% X.X...OOOO#X.#X.OX.+Oo *%;ooo*%* %* % O.#  oo *%%&*o**%*%*%%%%. OO@@+@=@@++X",
". %% . XXX  . .. %.XX.  %*%**%.#O.#..#O####O@+>*&&% X..O.X.OOXXO... XO.#.%o**&o**&o**%%%%o...%o %oo&&o*o%***%*%*%o  X#@$@@$$+#X#",
"   .  XX X . XX .XX.X %*%**o&%#OO#O#OO.OO#O#+$%2*  ....%OX.OOX#O.#.#..X#  %&&****o%%o*o&oo% .o  %%% **&**%o**%%*% ...+@#-+@@#X. ",
"%XX. XX. .XX.X.X. XXOo %*%*o #X#####X###.#O+=o&& % XX.O..O.###X#O###.###  *&oo**%*%oo*%%*%% # o  %%%;o%%*%*%%oo% o.XO@==@=+##Xo ",
" X.  XXXX .X XX OXX X%***o&o OO..##.#OOOO#+$**2*  ....XX.OX X#O.XO#.X.## %&;&%**%%%*oo***%*o  %%*%%*ooo*o*o**%*%  OO+$$@@$OX  %%",
"%  .X .   X .X#X X%#o*%%;o XX......##O#O#.-.o12&%  OX.O.%.O.X X.XX.#.X+.%*o*%&%** *%**%%&%%o %%o*&&o%o%*%&%*%* %%XX#@$$@O#+Xoo% ",
"XXX  X.X. . X. OX  %***%*  #.##.O#O.O##O#$#**&1o%X  .XXO...OX.O.O#.XX.#X%*%&o%*%o**&%%*%o%%XO %**oo**%%*o*%*o%o %.OO$++$##  % X ",
"%XX X.O.X OX X . .#o%%o*&o.O.##O.##.##+#$O %&o;;* X OO. .X.O..OOXO.X.O+X &oo*%*%*%%*  o***X#  %o;%%*%%%%%*o%*%o  O#+$$@...%%%XXX",
"X   ..X XXX...X ..%%****  #.X...O.O###O+=X%&%%ooo% X ..X..OXXX.X#..O###oooo%%%%*%  %****%.$.o%*&***%%%o*%%%%%   O#@@+##.O%%*    ",
"X.XX .%%X.XX.XX%  *%%%o& #OO##..#####O#+# *&o%%*%&% .XO.XO..OOXX##OO.#.ooo**%%%&o**%%%%*.$O  %&&%% o* &&o%o*%  %.#+@+##.%%* ..  ",
" X  % X  XXX X X.o***o&&OOO#X#O.O###.@-@ *&&*%*% o*o%XX.X... O.X.....O#X* %%*%*% ****%oX#O  &%***%%%o%  *o%*% %.++#O#OX **%X%.  ",
"X% . .    XX  .%% *%o&&& ..O###O#.#++-$#%&oo**%&o%%o %XXX.X...OX. .O.+. **%%**%&o%*%%* OX%o%oo%%o**%*%%%**%%oo.X@+###  %*** XX. ",
"X    X.. XX.XX  * o&**o*%..O.#OO++#@==$X&*%%%%*%*%*%*% X.O..X.X.....#+# o % %%%%* o*% #.  *o&o*%o%   %%*&%%   X#@@OO %%*%%**%X  ",
"X      X  X   % %**%%o%*%*.OO###+O@@$@. ;;o***o%%o*%%o %  OX.O...X.XO+.X%oo*o*o%%** X+.%%*%o*%**%*oo%** **%o% O@@#.#X %***%**   ",
" X. % XX   XXo*o*&&*%* o%% XOO##+$@$$@ %&o*o%&*%*o**%*%o%X.......O#..@O.% oo%**o%*o +. o*o%* %     **%% *%o X%#@+#O. %%&*% %%* X",
"X%.O   %  .X% **o%%%*%o %   . .O@+$-$Oo;** %%%**%%%%***%% XX. X.. ##O@OX  %%o **%%X$XXo%*%o%%o%% *  ooooo*  XO+++##Oo*&o*% %***%",
"%X%X  X% X %o*%*%*o %o %oo%X#X.@+@@=# o1****%*%*%**%%*%o%%% ..XOX..O+@#X  %*%* o%%@+O%%o*&%  o%%* &o%*%&%%%%.O@+#X X%&%o***%%%% ",
"% . X% X X %&%oo%    *%%%oo ..+@$@-+#o;**%%**%%ooo%%%***o% o%X....#.++#OX  *&%%o =+OX%****oo*% %%  o o*o%   X$+OO.X %*** ****% %",
"*oo.X XX.X  *o**%X         OOO@@+-@+X*&o%o%%*%%%*%%%%*%%%% . %X.X..#+++##.  * *%$@.X % %  % %% %o%o  %%%  XO.$+#.. %%*%%%%o %*  ",
"%% %X X X %%o*%%o o % %% %XXOO$@+=$X%%o**%**%*% *%*%*%**o*oo o X..#.$@+.XOX  o -+# X% %% % o%o %%%%o  %oo .#$##+XXoo*%**o% *** %",
"** X X.X  *oo %o    %   o  .+#$+@$#X*&o*%%*%*%o*%%o%*%%**%** o oX.#+$++.#OX.  $..X  %   % %% * *o*% %* o XX$+#O.XX%%*% o*%**%; o",
"&%%.O.. %%**oo %%%%%%o   % .#+@$@$X o*%%*%****%o%%****%%%***&%X oO#+-@+#.#.X +#.X %%oo   %%ooo  & o%..  %.#+#.#.X ****%  *%***  ",
"**XX..#*%;% o %%o%% %% *%oXO++@$=#Xoo*%*%*%%*%*o***%oo%&**%%o*  %.@@=@@.#X####.X%%   % *%o   %%%%%X##X.oXX@@.#.Xo**%o%%*%o%%%*%o",
"%%O.X.%*;%  %%% %o%% %   oO#+@@=$   &*****%%oo*%*;*o%oo%o*o%*oo #+-=@++.XOO@OX  %% %  X. o% %   %X##+##XOO@@OO  o&*o %% o*o%o%  ",
"%X.O. %ooo o        %    oX#O+$$+X***% %%o%*% %%%o%o*%%%%*;*&*%.$,$=@@+#O.+.##X.   X X   oo%oo%%.X .OO+#O++...  %*  %%% %*******",
"*.##+**% % %%o  o %o% oo%%#+@@=#X oo%* % *%****o&%***%****%o% #+-,<=-+@##@##.  . .% % o%      .X.  XOO#+$$#. %%%& %%o%o**o%%%%%*",
" O.#%o%% *% %%   %%   % XX.+$@@#  *%   % &*%o%o*%**%%%*o%%o% .+:,:-,--=$=O.#XX..O  X XX.X  X% #.X XX##+#+O..  o* %%%  o   %  %*%",
" O# &oo %Xo o%  o  oo   o .@+$# o %%o%* *%*%*o%*&%o***%**** .+<#,:,:>=@6@@.# ..X XX% X.X %%%  .  XO##O###@. o %%o%%o*o%*ooo%oooo",
"X. %%%%*  o  oo   X  % %XX#+$$. **  %*o*  *%%**%%%o%**%**o X$<##,-<:,><=:@ O.   X.... . XX% . o% X.X####++@  &o%%   *% %%%**%o%%",
"O#o%%  o  o%o   %% %% % XX+@@# o% %%%%%o %&%&%%o**oo*%*o%XO@=##@::<,,::,::#XX.X   . X.. %OO X o%% O###OO##@ &  %%%%o*%%%% %****o",
".o      %%% *%%  % o*o % .+$>## oo o% o%*o* &%*o** &;;%% .@###+>,-:,<:<:,,>+%X....   %. O.%X % %  ..OO##+#+&%%% %% o&* %**%%o%% ",
"    %% X %%  % %%o  X o X.@@>>>#X o%o%*  %%o o**%*%%%**.#O@###@,,:-:,,,::,+>+ X..X X...OXO%  o  %X#.#.+.OO+ %%o%%o%  %*  o   %%X",
"#%%%XXX    Xo%XX% %%   % .@$@=>>>#X% * %%oo%o*%oo*o*  OO@#+###>:-<:,:::-,+@@>+OOX....O#O.o %  % %.#..##.OO+ %%  o%%% o o * o  X#",
"##X* % o % X %o X %%X   O+@+@$@=@>>#Xo% %%%% *&% %*%.#@@##+#++:,:,:,:-::+@@@=>#....XX.O X o  % *o.#.OO##.O+ %%%  %%o o%%%%  o* #"
};
