/* XPM */
static char *SFALL4[] = {
/* columns rows colors chars-per-pixel */
"64 128 8 1 ",
"  c #232B0F",
". c #1F4317",
"X c #17330F",
"o c #2F6323",
"O c #27531B",
"+ c #171F07",
"@ c #37732B",
"# c #3F832F",
/* pixels */
"X ..++  . . ++X  XX.+  X  ..++XX X. +. +X.X.+X XX . ++X  XX +. +",
". X.+  .. .. X. XX .+ +X.  .+X .XX X+ +...X +X+.X .. +XX.XXX   X",
"X    X.O. .XX...X. . .  X+   X XX  .   X.. X .  X .X X+X.X . . X",
"O+ X XOOO X..OO..  ... XO+ X X. XX.O.X XO+ ...  . X. +  X.   . X",
"o+XX..OoO XX.oo..  . . Xo+X..X+ X .OO  Xo+ . . X..XX X X.O.XXXXX",
"O+ ...ooo  X.oo..+X.   XO+ ..X  XX.ooX  O X. X  .. X   XOo....  ",
"  XXX .o. XXXOO   XXX  .  X.O.X+X oooX+   .OX   +...    OoO.X.  ",
". .. .  .++X    .XXX..Xo. XOoO  X..o.X  .X.o.X.  o..    ooo.XX  ",
"O X. O  .X.X  X . X. O oO  ooo  X    O  O OoO. ..oO.XO  .o. XX  ",
"   . oXXX  .+XX   X. . o   o@o. +XXX o   XO#OXX .oO.+o X.O.XXXX ",
"+  .+  .   .+X.X+...  .o.  ..      .  .   o#oXX .o. ++XXOOO.XX X",
"+ +X+X.O. +.+.X +OO.+ OO.  X X +  X. .O.  .o. .X.ooX+.X OoO.+.X ",
"+  X+ OOO X.X  X+OO.+.OoO  .   X X . OOO     .X oooX. X OoOX   X",
"+  .+ Ooo  . .XX+oo.  ooo  X.X   XX. OoO  X. X  ooo. XX .o.XX   ",
"+X .+ ooO. .+ .X+. . ..o.  .O.XX X . ooo  X. X. o#o.+ X ...X XX ",
"+ X.X .O.. X X  +X  +      OoO.X   . .o. X .  + .o.. .  .O.X X  ",
"+ X. X  .X XX.X +  .+   +  Ooo.. X .+X X X.. .+ X X.XX.X.O.X .X ",
"+ X +  X   .+.X +   +  ++  o@o.X   X . .+X...O++ O .+.X  O .X . ",
"+  .+  .+ XX  . +  X+  .+  .oOX.+  X O O+ .O.O .+o..  .    . .X ",
"+  X+ +X+ .XXX X+..X+ +X+ XX   X+  X o o+  O o+X+oO.X.  +  OX.  ",
"+ XX X X++.. .X  .OX   X+ .X   X   X o.o+ X  .+X+.o. X. +X o+.  ",
"+XXX . X+  .XXX. Oo. X .+ .. .+    X @..+ XX+ +.+ o.X...+X o X  ",
"+X.X XXX X .X X. oo.   .+ X.+XX  .   o  +  .+++.+  .X X.+  # X  ",
"+X.X XXX+  X     OO.   X+ +. XX .O.X  X + +X ++X+  .    +++o X  ",
"  ..XX X+ ..+    OO. .     . X  OOO. . +   .   X+X X      XX+X +",
"X  ... X  OOX +X..O..O.XX  . .X OoO..X +X ... +. . .X . X  . X  ",
"..X.O.X.. oo  XX.XX.OOX .X.. XX.ooo...  . X.   X.... .. ..   .  ",
".  OOOX..Xoo  XX....Oo  . X.  X.......  . .. X.X.OO. . X.O.X OX ",
".. Ooo XX...  XXOOO.O.. ..   . X.  .O.  O .. X. .oo. ....ooX    ",
"    @oX.XX    .X oo....   XX+.X.X  oo   X Xo+   .oo.  .O.Xo. .  ",
".  .O.X..X X .O.XXo.  O    . . X. ..OX X.  o .X X.  +XOOO.X.O.  ",
"  O.  X .X .O.X..X . OOOXX . XX ..   X  . .. .X XX X+XOoO.XOOO  ",
"XOOO  XX.XXOOO OX  . OoO.  O  .X ..X X XoX..+.X .  . Xooo XOoO  ",
".OoO .X.X .Ooo.o.  . ooo. OOOX..X..  .    O. .X .X .  o#o  ooo  ",
".ooo   .. .ooo. .O   o@o..OoOX+X. . .O. XOOO .  X .O  OoO  o#o  ",
"Xo@o   O  .o@o  OOOX OoO..ooo.+ ..oXOoO  OoO .X .XOOOX  X  OoOXX",
".OoO XOOO .ooO  OoO.    O.o@o. XO. Xooo .ooo  XO.XooO.+X.  .X.  ",
"O  X  OoO  . .X oooX. . O.ooO  OOOX o@o .o#oXXOOO ooo. X.XXooO  ",
". XX .ooo +o o+ o#oX.XO oo.    Ooo.XOoO  Ooo..OoOXo@o.+ . Xooo +",
"+XX  .o@oXX  o  OoO X.oX.o.    oooXXX .  XX.X.ooo.OoO.  XX .o.X ",
"+ X  .OoOX . .X   ....oX   X   o#o X.OO. X....o@o..  XX .X ...  ",
"   X.o.   ..+.   OO.X.@X   X   OoO X.oo. X..XXOoO.O.+.  XX .O.X ",
"+  XO@O. Xoo+. + OO. XoX   X   .X. X.@oO  ..    .oO.+. +  XOOOX ",
"+  .ooo. .oo+XXX   .   X.. . X OoO XOoo. X..   .o@o.+..X   OoO X",
"+  .ooo. XooXX  +XX.X  XO...XX .O. Xoo.X+ X.  +X.o..XXX    ooo  ",
"+XX.OoO.  ..XX X XX.   .oo.  X+.o.X.XXXX+ ..  +X X..XX X   .o.  ",
"+XX.  X.   .XX   ... X .oo.X+. .o. .XXXX  oo X   O..XX  X.X.O. X",
"+  .     X .+X+  OO.   .Oo .+O OoO XX.X  Xoo   . O..+X+ .X OOO  ",
"   X .     X+XX+ OOX+X O.. .+o+ooo X.O.XXXoo+X+. .O.+XX+   ooO X",
"   X .        X  oo. . OoO .+o ooo.XOOOX X.. .+. X.X  X    .o. X",
" .  .O.   ..X.   ..X X OoOXo . OoO XOoOX .XX X X O   .  +. .o.X ",
" XX OO.   ..X.+     X. o@oXo . OoO Xo#oX .   X . O.X  .    OOO X",
"  X  O   ...+X +     . o@oXo+X ...+XOoOX O   .+X oO +Xo  X Ooo  ",
" X.  . X X  +XXX    X. OoO.@ X ... +XXXX O   X+X .O +.o  . Xoo X",
" .+ X.+ XX   X+  X  .. .o. o . ..O XX.XX o  XX+X  o XXo .o.Xo. X",
" X .X. +XX  . X ..XXX.XX     ..... X.. X.@.  XX  X.XX.@ ooo.    ",
"   X .   . XOX  ..X XXX.   X ....   ...XXo.. .XXX  . .o ooo.  X ",
"X.   X  .. .o  +..X X..OX.   OO. X X.O.X. .. O X.. XXX  o@oXX   ",
" X . X  .X .o X+..X X. . X    . XX XOOO XXO. o+XX. XXX  .o.X    ",
" . .X  +.X X. X+ .+    . .  X   X.X .O.  .  +o  XX XXXX.X X   X+",
".  .XX +O.+X.XX+.X     ..X   X +OXX .o. .X  +.++OX XX.X..OX  XX ",
"OX X X +O.XX   +O.     XO.X    +..X OoOX..   X  O. XX Xo.X.    X",
"  ..X   X..   +    X  .. X  X    .  ooo.         ..  XOoO.  .X X",
" .OX    ..  O.       ...X. .XX +X.  OOOXXX  . + ..X X.OoOXX.O. X",
"XOO. X+ ..X.O.XXXX   OoO.  O  XX XX.... ..  .XX .XX XXoooXXOoO  ",
".OoOXX   . OoOX .X   ooo.X.O.XX X.  .O   XO. .  X.  XXo@o. oooXX",
"Xooo..  XO oooX ..   o#oX OoOX  XX XOOOXXOOOX.  X  O. OoO. o@o  ",
"Xo@o.  .XXXo@o  OO. XOoO XoooX  XX .ooOX.OoO..  X .O.X. .. OoO X",
" OoO.X.O.  OoO .ooO ..X.  o@o.  O  .oooXXooo.X .  OoO. .O. X . X",
"X  .O.OoO.X    .ooo .O@.X OoO.X.O. .o#o..o@o..O.. Ooo  OoO  OoX.",
".   O.ooo.  OX .o#o ....X   .O.OoO .ooO..OoO..Oo. O@oX .o.  .O  ",
"     .o@o + o...ooO.OO.O    Oo.ooO o.X O X  ..ooO.OoOX.... X..  ",
"O+X X.OoO   o.X..  .OO...+X o@.o@O OoO oO   o.o@o.. XOX.O.  Xo  ",
"X . .X  .   o .    OoO XX X .o.OoO   X ..X  ...oO.O . .OOO  .XX ",
"X     +X.   o . .  ooo  . X XX    X  X X.  + .  .oOX XX.O X.X  X",
".X   X..    O +..  ...  XX XX.XX.   XX .X   .  XoooX   .X .o.  .",
" .X  .X. X  o  . X   .+. ..XXO X.. XX  X   XOX+X...X. X.X..oo +X",
"... X. ...X o.+XX.X  .  ... X. .O.      ..X O   .X.X  + ..ooo   ",
"..X  . X..  o..X.X. X + ..  .X..o.    + .X.   +  ..X XX ..o@o + ",
"..XXXO ...X O   ..   .  ..  .o OoO  +   ..X .   X.O.X . .....   ",
" .XX oX.X.. ..  .X  ..   .X  X.OoO  +  XX.  .X   ooO.XoX.O.   + ",
"... .o ...  X.+XX.X...XX..X ..X...  X. . .  ..XX.ooO .oXOOO... X",
"..  X@X ..X .X  ....O.. ..  X .X X      XO  o.  .o@oX.oXOoO.XX  ",
".. X o.X..  .   .o..Oo ...X X..X..   .X..O .o. ..Oo.XX@XoooOX. .",
"o.+X  .Xo.  o   O...OOXXo.  XX X.X   .X .o OoO XO.X   o.Oo..XX  ",
"..X. .. ..X O.   . . ..X.X. XX .O.   O. .oXoooXX...X . O.    X  ",
".. X.. XOO. oO  .O..X.X .XXX .XOOO  .O. .oXo#oX . XX   O.X..XX  ",
"o.X.oO XOOO.oo  OoO XX .o.XX . OoO  .O. o  .o. .O.X X. oO OO .X ",
".XXoooX OoOOOoX .o.X..XX.X X oXooo  .OO .  XXXXX.X  .XX...oo XX ",
".XXoooXXoooXO. .OOO.   XX .. o..o.   O  X   @  ...  ..  .Xoo X X",
" .Xo@o XOoO. . XOoO..X X  O. o+ X.       .X @ .... ... X.... X X",
"XX .o. X.O     .ooo...   XoO .+ .X+  . X .. o.XX.X  XX XX... XXX",
"   X   X.XX X  X.o.. X.X Xo +X X.    X X  . o....   XX X. OX   X",
"+ XX X  .XXX.X.X   .. ..  .X   X.      X+    .XX. X   .O. o. X X",
"  .X X X.X ... X   . XOX  X. X X.     .X X  ..X..X   XOOO X.OX  ",
" .O.  + .X .o. X.X .X.o. X..XX .. X  XXXXX  .  .. X +.OoOXXOOOX ",
" OOO X+X.XXOoO . .   OoO  .O   X  .  .XXXX   X  X X  .oooX.OoO  ",
" OoO + XX  OoO O..  Xo@o  .O.  XX   .O.  ..     .     o@o .oooX ",
" ooo O X   ooo.X.O.  o#o  OoO  X.   .O. XOO. X    .O  OoO .o@o. ",
" o@o X O   o#oX OoO  OoO  ooo   . X OoO  OoOX..  XOOOXX . .ooOXX",
" OoO XOOO  OoO .OoOX .    o#o   ..  ooo  ooo. XO XooO. X. .. ..X",
"     XOoO X  .  oooX X    ooOX OOO  o#o  o@o.XOOO oooX X. ..X. X",
"X+X  .ooo X .   o@o  X   +.  ..OoO  OoO  OoO..OoO.o#o.  X OOX.  ",
"XX+. .o#o + OX+ OoO X.   X.. .Xooo   X.  X .O.ooo.ooO.  X OOXXX ",
"XX X XOoO   O  X     X   X.. X o@oX   X  XXOo.o@o      XX oo O  ",
" .   X    X o     XX.X   ...XX OoO . .  XX.oo.OoO X X.    .XX.  ",
"..X  . ..X  @ X . XX+X X.XOO . X   X XX XX.o@o  . +  .X ... +X  ",
" .X  X XX + @  X X.XX.   XOoXX  XX .X.. XX..o.   +  X. X..O.X.X ",
"XX .+O..X   .. XXX . ..X X .+OXXXX ... ..X X .+X XX + . ..O.+.XX",
"XX O .XXX++ O  XXX . .O.XX.O .X .XX... .X. .O.+    X XOXOOo.+.  ",
"X.XO..XX    .  XXX XXOOOX..oX.. .X OOOXO.O  O.   X    OX.O.X OX ",
"X.X.XXXXXX   X  XXX  OoOX..oXX.XXX OOO .O.. oO+XXX  XXo X XX o X",
" XX.X.XX     .    X. o@o XOO... XX o@o OoOX.. X   X  XoX   X.o  ",
" X ...   +  X..   .. .o. X ...X  .  o. .o. . .      XXo X  X..  ",
"X  .O.  X . X X  .O. . .    . XX.O.X   ... . . X.XX X      X.XX ",
"XXXOoOX X . ...XXOoOX..OXXX.. XXOO..   O.OX. ..XX X  XX X  X   X",
"X.XOoOXX. .XOO  XoooXX.O .XXX  XOoO.   .O. .  ... X      XXX   X",
"X  ooo. XX  oo  Xo@o...o +X+X X ooo.   OoOX ...XX         .XX++X",
" XXOoO XXX  oo XX.o... .X X+X X .o..   .o.  X. X XX X. XXX.XX+  ",
" XX  .X XX  ..  XX  ..    X++ X X .    ...X X. X    +    X.    X",
"  X+ o   X.  ..XXX +..X   X+  + XX.  .....X XXXXXXX   XX ..X X.X",
"  X  o   X.X O.X    . . + X       XX .....  . XX XX X..X X.. X.X",
"  X. @  XX.XXo X   X.X.   X.+X  X X  ..OO. .XX.XXXX .X XXX.X ...",
"  ++ o X X. ..X..   .XX  X + X+X  X .. ..   X .X XX ...X X. XXXX",
"  XX  X X..XX  ...  .X + X. ++  XX. .X.     X  +XXX . X  .. . . ",
"   + .XXXX..XX ...  +  + XX+ .XXX .X       ++  +  ....XX X.X+   ",
"+.     X  XX . ... X+X+  .       X          +X    X. .XX XX    +",
" XX +. XXX. +XX...  + X X.  +.X   X +X  X.  + X   . + XXXX  +X +"
};
