/* XPM */
static char *SFALL2[] = {
/* columns rows colors chars-per-pixel */
"64 128 9 1 ",
"  c #232B0F",
". c #1F4317",
"X c #17330F",
"o c #27531B",
"O c #2F6323",
"+ c #171F07",
"@ c #37732B",
"# c #3F832F",
"$ c #13230B",
/* pixels */
" X.  . +X.X.+X XX   + X  XX +. +X ..++  . . ++X  XX.+  X  ..++XX",
"XX X  +...X +X+.X X.  XX.XXX   X. X. X .. .o  X .X .+ +X.  .+X .",
"X. X X X.. X .  X .X X X.X . . XX    X+X. .o.X+X.. . .  X+  +X X",
"X.+X X Xo+ ...  . X.   XXX+X . Xo+ X X. . oOo X .  ... Xo+ .+X. ",
"X   .  XO+ . . X ..  .  . +XXXXXO+XX..+X. oOoX Xo  . . XO+X..X+ ",
"XX .o.  o X. X  X.O.Xo.X..+...  o+ ... X. OOOX  .+X.   Xo+ ..X+ ",
"X  ooX .  .oXX   OOO.oo X X.X.    X.o.X X .O.X    XXX    .. X.X+",
"X. oo..ooX.O...  OOO.Oo XX+XXX  . .ooo  .+   X  .XXX..X.oo.XXo+ ",
"X  OOoooo XO . ..O#O.#O .X XXX  o XoOo  .X.X  X . X. . ..oo.XO  ",
"+XX.o.oOoXX#XXX .OO..O.XX. ..X     O@OXXX  .+XX   X. O.X.Oo. O. ",
"   .  OOO XO XX .. X   XXX .o. X+  .O.     .  .X+...  .X.O.  .  ",
"   .+..O.     .XX  X+.X XXXoOoX + +X X  .  o XX +oo. . .XO.X X++",
" X .       . .X+.  .. XX   XOO X+  X+  X. .o.  X+oo. o. .o.    X",
" XXX    + XX X  .  . XX   X.@O     .+  X.  o..XX+oo.  .o.XoX   X",
" X .  X   XX ..    .  o  X ...X  X .+  X .Xo. .X+Oo  XooO XX.  X",
"  o. X   X .o.   X.. ooo X X X   .X X  X.XX  X  +.OX+ oOO. oo. X",
" ooo XoXXX .o. .X.X.XoOo   o  X  ...   ..X  X.X +X.   OOO..oOo .",
" oOo .XXXXX.Oo.o ... OOO Xooo . X.o X.    o. .X + X.  O#O..OOO X",
" OOO .XXX  OOO.X O.  O@O  oOo.X . oXoo.X .oo  X    o  oOoX.O@O .",
" O@O XX..  O@O..oooXXoOo  OOO.  ..O.oOoX oOoXX X  .o.  X.O.oOo X",
" oOo ..o. XoOo..oOo. X  +XO#O.  o.X.OOOX OOO  X.  oOoX .oX.X   X",
"+  X .oOo XX   .OOO.X...+XoOoX oooX.O@OX O@OXX.o.XOOOX .  .. .+ ",
"+    .OOO  .+++.O@O.X X.   . X oOo.XoOoX oOoX oOo.O@O +.+ X.+XX ",
"+ XX  O@O +X ++XoOoX   .  +O X OOO..  XX+  X  OOO.oOo +X+ +. XX ",
" X..+.oOo  .   X  ..+ ... XX+X O@OX. X.X  ..+ O@O..    X   . X  ",
"XX..+X  X ... +. OO.X ...  . X oOo.. .o.  ooX oOo.OX. +XX  . .X ",
".XX.    . X.   X.OO.  .oo  . .   ..  ooo. OO  . .OO.X   .X.. XX.",
". X. +  . .. X.X.. .  .ooX+. oX .o.X oOO.XOO XoXOOO.X.X . X.  X.",
"O  .+   o .. X. XX .    ..X.+O  ooo.XOOOX...+XoXO@O. .. .. . . X",
".  .+   X OO+   X  .+X ..XX.+O  oOo. .O.XX  +XOX.O..      X.+.X.",
". ..   X. OO .X .X .+XX....  .+ OOO. X ..X X XO . .. .X .  . . .",
".  . .  . OO .X ....+X .oo.X X  .O..XXX .X .+XO+.oo. .X .X .+XX ",
". ..+X XOX..+.X .oo.+XXooooX+.  . X.XXX..X..+XXX.OO.+XX O  .+ ..",
". .. .  o X. .X .OO.   .OOo. X  .X XX.XX. oo X  .OO.+.X O  .+...",
". .X+.  .  .+.++.. X+X+XOOO.+X  .X X...X. OO+X+ o. .+. +oX .+X+.",
". .X .X    X+.X  XXX+X+X.O..X.XXXX XoO.X  OO+.+ o  .+.     .+.  ",
"X XX+.  . .. .X X  .+.+X.  .X.  . XX.o.XX .O+.+ .  .  X X .. .  ",
".     X . ooXXX .  .+. X.XX.XX  X XXOoOX.  .+oX    .. . .  ..   ",
". XX . + XOO..  X..X .+ ..X  ..   +XoooX  XO O+ ...X.Xo .XX.o.  ",
"   . .X  XOOX.+X ..X .  .o.XX...XX+ XXX  XX  O  XooXX.O. X ooo  ",
".  . .X  X.... . ... XX ooo. ooo. X. X   XX. .X  .. ..O  . oOo  ",
"X  X .X  X..XX X ...+X  oOo. OOO.. . .XX  ..+.   ...X.@ .O.oOo  ",
"X+ . X. + ..   . ...+X  OOO. OOO.. X .X. .OO+. + ... XOXoOO.o.  ",
"X  X XXX X..   . oo. .XX.O.. .O...+XXXXX .OO+XXX ...   . OO.XX  ",
" X . X  + X.  +X oo.XXX     XX .O.+X.XX  .OOXX   oo.X  X.@OX.X +",
"XXX  .  + .X  +X ..XX.    XX X+oOo XX X.   .XX X oo.   o.X..o.  ",
"..X.Xo X  X..X    .X .o  .X. . OOO .XXX.   XXX  +    Xooo  .Oo +",
" Xo.Xo.  XX.o  . X .XoooXX .   OOO  XXX     +X+  XXXX oOo  oOo  ",
"Xooo OXXXX.oo. . .XX.OOoX  o   ooo  ..XX    +X   XXXXXOOO  oOO  ",
" oOO.OXX X.oOo . .. .OOO.Xooo  ...  .o.   .X     .XX .O@O  OOO  ",
" OOO.oX  .XOOO   o. XO#OX.oOo.XX.X XoOo  ...X.   X... oOoXXO#O X",
" O@O . o   O@O XoOO  oOo..OOO. ...X.O@O  oO.X.   X.o.X   XXoOo X",
" oO. Xooo  oOo XoOo +XX...O@O. .o. XOOOX OOo   .  OOo.+X+ X...  ",
"    X.oOo.   X+XOOO +.o...oOoX oooXXO@OX O#O X...XOOO.+X  .o.X X",
" X X XOOO.  XX+XO@OXXXo...     oOo XoOoXXoOo X.Oo.O@O.+X  .O. + ",
"X. ..XO@O..  XX oOo.X.O.oOX X. OOO X.X.XXX  . oOO.oOo.XX  oOo  +",
"X  . XoOo... .XXX  X .o.oo X.o.O@O X..XX . XoXO@O.. XXX.  OOOX  ",
"XX X.X o. .. o X.. XXX  o. Xoo.oOo  XXX .. .O oOo.o X. oX.OOOX  ",
".X   . +XXo. O+XXX XXX  o.XXoOo  X XXX  .X .O X .o. X.+o XO@O   ",
"X.X XoX  .  +O  XX XXXX  .. OOO  . ..X +.X X@ X+ X   .+O ..O.  +",
"oXX XOX .X  +.++oX+XX.X ..X .O. .  ... +o.+XOXX+.X   X X.X   X +",
"..X XOXX..  +X  o. X XX+...    Xo. ooo +o.XX   +o.   X X..X    +",
" .  X#X.         ..X X+X XX  X X   OoO  X..   +    X+   .X  X   ",
"X.. XOXXX.  . + ..X XXX XX. X  XX. .o. +..X X.X  .     .X.  XX +",
".XXXXX+ ..  oXX .XX  XXX.XXXX.+ .X .o.  ..X +.XX X.  XXo.o $ XXX",
".. XX. X.X .o.  X.  .X X..XX.XXX.. ...   .  X.X X.o.  ..o. + XX ",
"X.  . +X.   o   X. .o.XX.. X..  X  .o.  Xo   XX .oooX . .o  XX  ",
"XX  . +X. + O + X.Xooo.XXX X.o XXX ooo  XoXXXX. XoOo.  X.O. XX  ",
"X   .X XX + O   +  oOo XX  X.O X   oOo X O XX.   OOO. ..OOo X + ",
"X   . X.. + o  XX XOOO X.   oOX.X  OOO XXOX X   X.O..XO.OOo X + ",
". ++.X o. +.@.  .  .O. X.   .o  .  .O.  XO  XX  .   .Xo.O#O Xo  ",
"+  ..X o X  @.     X X. .X ... .o.   .    + XX.    X.X .OO. XO  ",
".X  .. X..  O.  . X XoX .X++.O oO.X Xo. .   ..X .  +.X .. X XOXX",
"XX .O. X.O. ..X .   . XX.X  .oXoOo. .o.X.  ..   . + XXX ..X .o X",
".+XOOO XOOO  . X. XX XXX. X X. OOO  oo.X.  .o.X X  + X Xo.X  o  ",
".  OOO .OOO    X.  XX  X.  XX. .O.  oOO.   .Oo ..    X .Xo XX.XX",
"X.XO@O XO@OXXX+XX.X..XXXX.XXX +X .X OOO. X oOO X .  X. ....XXXXX",
".X XO.  .O. .X  ...o..XX..XXX   ... .X.... o#O X.o.    .X . X. X",
"..    + . . .X+ . Xo.... .    + X.X   XX.. .O..Xo.o X .o.X  .X X",
" .o     ..  OX  XXXO.Oo.X.      .XXXX.X..XX .X  oo.  .oOo. .o. .",
"Xooo   XX. .O.   .X..oO.X  .. +  .XX .X.X..  .  ..X  .OOO.XoOo..",
".oOoX. . . oOo  ..   OOo.X.o.X XX.  .O.  .o  .+X..X  .O@O.XOOOX.",
"XOOO    XoXO@OX .oX XO#OX.oOo. X.X  oO. Xoo.    X XoX oOo. O@O.X",
".O@O  Xo.  O#O  oOo XoOo..oOO. ... XoO.X.oOo.  ..X.ooX  ..XoOo.X",
".oOo Xooo  oOo .OOo    ..XO#O. XoX XOOoX.OOO.  o. .Oo.XXO.   XXX",
"..   .oOo.X . X.@OO  X X..oOo.XoooXXO@oX.O@O.XoooXOOO..X.X. XX  ",
".X+ X.OOO.X XXX.O#OX   ..X. .o.oOo XoO.X.oOo. oOo.O@O.X .XXX .X ",
"oX + .O@O   X  .oOo  ...  o. o.OOO X.  XoX  O.OOO.oOoX .O.XX .  ",
"..  +XoOo  ..X X... X.o.X.Oo  XO#OX...X .   XXO@O.. ..XX.X X OX+",
".X  +X  X  .o. XoOo .ooo.XOo X oOoXoooXX.X  XXoOo. .   XX .. O. ",
"..   X   .X.O..X.O.X.oOo.... X .X.Xooo X.X XXX   ....XXX  oX O+ ",
".X+  . X ...O.XX... XO@O.... XX.O. OOo X.XX .  . .....   XO. .+ ",
".    X X  .oOo..o.. X.O.. o.+  X   .o. X.X XoX X  .. ..  ..X X X",
".    X X+  .O. Xooo  .  .XOo X X+ XX X  .XX.o.XX ..oX . .o.X   X",
".   + .X X  ..X..o   ..X. Oo XX    X X X.X oOoXX ..oXXOXooO.   X",
". X  XXXXX ... .. X +. X.X.. ..   XXX +..X O@O X ..oX O.oOO..X .",
". .  . XXX ...  X X  .+..X.. o    X  X+X.XXO#O . oo. XO OOO.oX X",
".   X   .. .O.  .  ++  .. o.X X  X   ++X.  oO. . .. X @ .OOoo  X",
".  + o  ..X O.     + .... Oo...      o X     ..X XX  .O   o@O  X",
".   .. ...  ...  X +XOXX. OoX.XX     O X X  o.X      O    .O.   ",
". X.oOX... XO.X    + . X. ..X..  .X  .   + + X     X .    .X    ",
".+ ooOX.o.  @. X  . XX X. ..X. X...  X+. +X ..   + X X    OO X+ ",
"X  oO@X .   O.  X X +.  X o.X.  ooo  ...  X .    +   X   +OO .. ",
"   oOo.  X   X++  oX .  X o.XXX oOo. ...X + oX+     X.   X.. .X ",
"  X.o.X XXX  X   .O.   XX Oo o  OOOX XXXX   o  X     XX  X.. X X",
"   . .  XX. .    oOoX.    ..X.  .O.  X X  X O     XX.X   ...XX X",
".  .+.X XX.X . X.OOO .  X ..+X  . X  . ..X  @ X . XX+. X.Xoo . X",
"XX .X.. XX.X X+  O@OX. X X..X.X  .X  X .X.  @  X X.XX.   XoOXX  ",
"XXX.+...XX X . X....  . X .X+.XXXX .+o.o.o  X. XXX .+. XXX . .XX",
".X..+X XX  Xo  .o. X XoXXXo.+.  XX o XX.o.     XXX .+   X .. .X ",
".X . XXXX   o. oo.    oX XXX oX X.Xo.XXoOo  .  XXX  XX ..X.o..X ",
" X . .  X X Oo oOo  X.O XXXX O XX.X.XX ..    X  XXX  X ... O..XX",
"X...X.  X X.o.XOooX  .O.   ..o   XX.X.X...  ..     .  .o.X.o... ",
" .... X    ... .o.  X.O.X  ..    XXX.. XXX ...X  .o. .oooXXoo.X ",
" .ooX      .o.   .X Xooo  ...XX X  X..  ...o.oX  .oo .oOo XoooXX",
"Xooo    XXXooo.X...  .o X .o.  XXXX.....oo.oOO.XXoOO....XXX.o XX",
"X o.   . X .o .....      Xooo  X.. X.o..oooOOo  XoOO.X.o .XX   X",
"X  .   ..XX X..X.o.       .o.  ..   ooo..OoOOo .. OO...O +X+X X ",
"X X.  .o.   X. Xooo X. XXX. X+ ...X  O ...o ..... ooo. .X X+X X ",
"X .   oooXX X. X o  +    X.    .o.X+ oX.o.  ...o.X.o..    X++ X ",
"XX.  ..o XX XXXXX X   XX ..X X.oooX+ O  ...  .oooX  ..X   X+  + ",
"  XX ..     . XX XX X..X X.. X..o X  O   X.X ..o    . . + X     ",
"X X  ..X   .XX.XXXX .X XXX.X ...  X. @  XX.XXOX    X.X.   X.+X  ",
"  X .. X+   X .X XX ...X X. XXXX  ++ O X X. ...X  + .XX  X + X+X",
"XX. .X.     X  +XXX . X  .. . .   XX  X X..XX   X + .X + X. ++  ",
"X .X       ++  +  ....XX X.X+      + .XXXX..XX X    +  + XX+ .XX",
" X          +X    X. .XX XX    ++.     X  XX .  +  X+X+  .      ",
"  X +X  X.  + X   . + XXXX  +X + XX +. XXX. +XXX X  + X X.  +.X "
};
