/* XPM */
static char *SHAWN1[] = {
/* columns rows colors chars-per-pixel */
"128 128 22 1 ",
"  c #8B8B8B",
". c #6F6F6F",
"X c gray70",
"o c gray67",
"O c gray75",
"+ c #A7A7A7",
"@ c #838383",
"# c gray39",
"$ c gray34",
"% c #979797",
"& c #5B5B5B",
"* c #939393",
"= c #434343",
"- c gray28",
"; c #4B4B4B",
": c gray31",
"> c gray23",
", c gray50",
"< c gray42",
"1 c #777777",
"2 c #373737",
"3 c #9F9F9F",
/* pixels */
">=>>2>=>>=>->2>>=>>=>->>>=>->->=>=>>2>=>>=>->2>>=>>=>->>>=>->->=>>=>->2>>=>>=>->>>=>->->=>>=>>2>=>>=>->>>=>>=>->>=>->2->=>>=>>22",
">=>>2>=>>=>=>2>>=>>=>=>>>=>->=>=>=>>2>=>>=>=>2>>=>>=>=>>>=>->=>=>>=>=>2>>=>>=>=>>>=>->=>=>>=>>2>=>>=>=>>>=>>=>=>>=>=>2=>=>>=>>22",
">-=>2=->=-=-=2>=->=-=-=>=-=;=-=->-=>2=->=-=-=2>=->=-=-=>=-=;=-=->=-=-=2>=->=-=-=>=-=;=-=-=>-=>2=->=-=-=>=->=-=-==-=-=2-=-=>-=>22",
"=-==>=-==-=-=>==-==-=-===-=;=-=-=-==>=-==-=-=>==-==-=-===-=;=-=-==-=-=>==-==-=-===-=;=-=-==-==>=-==-=-===-==-=-==-=-=>-=-==-==>>",
"=;-=>-;=-;-;->=-;=-;-;-=-;-:-;-;=;-=>-;=-;-;->=-;=-;-;-=-;-:-;-;=-;-;->=-;=-;-;-=-;-:-;-;-=;-=>-;=-;-;-=-;=-;-;--;-;->;-;-=;-=>>",
"-;--=-;--;-;-=--;--;-;---;-:-;-;-;--=-;--;-;-=--;--;-;---;-:-;-;--;-;-=--;--;-;---;-:-;-;--;--=-;--;-;---;--;-;--;-;-=;-;--;--==",
"-:;-=;:-;:;:;=-;:-;:;:;-;:;$;:;#1*    *  * *1&-;:-;:;:;-;:;$;:;:-;:;:;=-;#@ * *   * * @#:;-:;-=;:-;:;:;-;:-;:;:;;:;:;=:;:;-:;-==",
";:;;-;:;;:;:;-;;:;;:;:;;;:<@ * * *    *  * *    @1;:;:;;;:;$;:;:;;:;#    *  * *   * * * *  ,#;-;:;;:;:;;;:;;:;:;;:;:;-:;:;;:;;--",
";$:;-:$;:$:$:-;:$;:$:$:#@**%**** **  ** *****  ** **@$:;:$:&:$:$;#****  ** ***** ***%***** ** ,#$;:$:$:;:$;:$:$::$:$:-$:$:;$:;--",
":$::;:$::$:$:;::$::$#@*****%******** ******** ********@,:$:&:$#,****** *************%********* **,:$:$:::$::$:$::$:$:;$:$::$::;;",
":$$:;$$:$$$$$;:$$:$<*******%******** ******** ***********<$&$$,******* *************%********* ****<$$$:$$:$$$$$$$$$$;$$$$:$$:;;",
"$&$$:$&$$&$&$:$$&<*%*%***%*%*%*%*%****%**%*%****%**%*%***%@#$@*%**%*%****%**%*%***%*%*%*%**%****%**%*1$$$&$$&$&$$&$&$:&$&$$&$$::",
"$&&$:&&$&&&&&:$&@*%%%%%*%%%%%%%%*%%**%%*%%%%%**%%*%%%%%*%%%%@&@%*%%%%%**%%*%%%%%*%%%%%%%%%*%%**%%*%%%%,$&&$&&&&&&&&&&:&&&&$&&$::",
"$#&$$&#$&#&#&$$@%*%%%%%*%%%%%%%%*%%**%%*%%%%%**%%*%%%%%*%%%%%@&@*%%%%%**%%*%%%%%*%%%%%%%%%*%%**%%*%%%%%,&#$&#&#&&#&#&$#&#&$#&$$$",
"&#&&$&#&&#&#&$@%%%%%%%%%%%%3%%%%%%%%*%%%%%%%%*%%%%%%%%%%%%%3%%@#@%%%%%*%%%%%%%%%%%%%3%%%%%%%%%*%%%%%%%%%,#&&#&#&&#&#&$#&#&&#&&$$",
"&##&&##&#####@%%%%%%%%%%%%%3%%%%%%%%%%%%%%%%%%%%%%%%%%%%%%%3%%%@&@%%%%%%%%%%%%%%%%%%3%%%%%%%%%%%%%%%%%%%%,&##########&####&##&&&",
"#<##&#<##<#<@%%%3%%3%3%%%3%3%3%3%3%%%%3%%3%3%%%%3%%3%3%%%3%3%3%3@#3%3%%%%3%%3%3%%%3%3%3%3%%3%%%%3%%3%3%%%3@#<#<##<#<#&<#<##<##&&",
"#<##&#<##<#@%%%%3%%3%3%%%3%3%3%3%3%%%%3%%3%3%%%%<##<@ 3%%3%3%3%3%#@%3%%%%3%%3%3%%%3%3%3%3%%3%%%%3%%3%3%%%3%#<#<##<#<#&<#<##<##&&",
"#.<##<.#<.<33%%33%33333%33333333%33%%33%33333%%3.#<.<.<#<@ %3333%@.333%%33%33333%333333333%33%%33%33333%33%@.<.<<.<.<#.<.<#.<###",
"<.<<#<.<<.<33%3333333333333o33333333%33333333%33.<<.<.<<<.<1<.< %3.@33%3333333333333o333333333%3333333333333.<.<<.<.<#.<.<<.<<##",
"<..<#..<.. 33%3333333333333o33333333%33333333%33.<.....<...1....<... %%3333333333333o333333333%3333333333333@........#....<..<##",
".1..<.1..13o3333o33o3o333o3o3o3o3o3333o33o3o33331..1.1...1.1.1.1..1.1.<..1 %o3o333o3o3o3o33o3333o33o3o333o33o.1..1.1.<1.1..1..<<",
".1..<.1..13o3333o33o3o333o3o3o3o3o3333o33o3o33331..1.1...1.,.1.1..1.1.<..1..1.1333o3o3o3o33o3333o33o3o333o33o.1..1.1.<1.1..1..<<",
".11..11.11ooo33oo3ooooo3oooooooo3oo33oo3ooooo33o1.11111.111,1111.11111..11.1111o3ooooooooo3oo33oo3ooooo3oo3oo11111111.1111.11...",
"1,11.1,11,ooo3oooooooooooooXoooooooo3oooooooo3oo,11,1,111,1@1,1,11,1,1.11, %ooooooooXooooooooo3oooooooooooooo1,11,1,1.,1,11,11..",
"1,11.1,11,ooo3oooooooooooooXoooooooo3oooooooo3oo,11,1,111,1@1,1,11,1 %3oooooooooooooXooooooooo3ooooooooooooo*1,11,1,1.,1,11,11..",
"1@,11,@1,@%XooooXooXoXoooXoXoXoXoXooooXooXoXoooo@1,@,@,1,@,@,@, %o%,XooooXooXoXoooXoXoXoXooXooooXooXoXoooXoo ,@,,@,@,1@,@,1@,111",
",@,,1,@,,@,XooooXooXoXoooXoXoXoXoXooooXooXoXoooo@,,@,@,,, %XoXoXoo@oXooooXooXoXoooXoXoXoXooXooooXooXoXoooXoo@,@,,@,@,1@,@,,@,,11",
",@,,1,@,,@,XooooXooXoXoooXoXoXoXoXooooXooXoXoooo@,,@ %%3oXoXoXoXo%@oXooooXooXoXoooXoXoXoXooXooooXooXoXoooXoo@,@,,@,@,1@,@,,@,,11",
"@ @@,@ @@ @%XoXXXXXXXXXXXXXXXXXXXXXXoXXXXXXXXoXXXXXXXXXXXXXXXXXXX@XXXXoXXXXXXXXXXXXXXXXXXXXXXXoXXXXXXXXXXXX  @ @@ @ @, @ @@ @@,,",
"@ @@,@ @@ @ +oXXXXXXXXXXXXXOXXXXXXXXoXXXXXXXXoXXXXXXXXXXXXXOXXXX%@XXXXoXXXXXXXXXXXXXOXXXXXXXXXoXXXXXXXXXXX3@ @ @@ @ @, @ @@ @@,,",
"@  @,  @     +XXXXXXXXXXXXXOXXXXXXXXoXXXXXXXXoXXXXXXXXXXXXXOXXX+@XXXXXoXXXXXXXXXXXXXOXXXXXXXXXoXXXXXXXXXXX*          ,    @  @,,",
" *  @ *  * * @+XOXXOXOXXXOXOXOXOXOXXXXOXXOXOXXXXOXXOXOXXXOXOXO+*XXOXOXXXXOXXOXOXXXOXOXOXOXXOXXXXOXXOXOXXX*  * *  * * @* *  *  @@",
" *  @ *  * * @ +OXXOXOXXXOXOXOXOXOXXXXOXXOXOXXXXOXXOXOXXXOXOX+ OXXOXOXXXXOXXOXOXXXOXOXOXOXXOXXXXOXXOXOXX *  * *  * * @* *  *  @@",
" **  ** *****  *3XOOOOOXOOOOOOOOXOOXXOOXOOOOOXXOOXOOOOOXOOOO+*OOXOOOOOXXOOXOOOOOXOOOOOOOOOXOOXXOOXOOOOO ** ********** **** **   ",
"*%** *%**%*%* **%3OOOOOOOOOOOOOOOOOOXOOOOOOOOXOOOOOOOOOOOOO3*oOOOOOOOOXOOOOOOOOOOOOOOOOOOOOOOOXOOOOOO+***%**%*%**%*%* %*%**%**  ",
"*%** *%**%*%* **%**3OOOOOOOOOOOOOOOOXOOOOOOOOXOOOOOOOOOOO3*3*%oOOOOOOOXOOOOOOOOOOOOOOOOOOOOOOOXOOOO+*%***%**%*%**%*%* %*%**%**  ",
" **  ** *****  ** ***oOXOOOOOOOOXOOXXOOXOOOOOXXOOXOOOOOX***%***oXOOOOOXXOOXOOOOOXOOOOOOOOOXOOXXOOX***** ** ********** **** **   ",
" *  @ *  * * @  *  * * %XOXOXOXOXOXXXXOXXOXOXXXXOXXO+*   * % * *  oXOXXXXOXXOXOXXXOXOXOXOXXOXXo *  * *   *  * *  * * @* *  *  @@",
" *  @ *  * * @  *  * *   *3OXOXOXOXXXXOXXOXOXXXXO+%* *   * % * *  *%%ooXXOXXOXOXXXOXOXOXOXXo% @ *  * *   *  * *  * * @* *  *  @@",
"@  @,  @     ,@  @     @   *   %+XXXoXXXXXXX+%@  @     @   *    @     ,@ %XXXXXXXXXXOXX%% @  @,  @     @  @          ,    @  @,,",
"@ @@,@ @@ @ @,@@ @@ @ @@@ @*@ @ @ @@,@ @@ @ @,@@ @@ @ @@@ @*@ @ @@ @ @,@@ @@ @ @@@ @*@ @ @@ @@,@ @@ @ @@@ @@ @ @@ @ @, @ @@ @@,,",
"@ @@,@ @@ @ @,@@ @@ @ @@@ @ @ @ @ @@,@ @@ @ @,@@ @@ @ @@@ @ @ @ @@ @ @,@@ @@ @ @@@ @ @ @ @@ @@,@ @@ @ @@@ @@ @ @@ @ @, @ @@ @@,,",
",@,,1,@,,@,@,1,,@,,@,@,,,@, ,@,@,@,,1,@,,@,@,1,,@,,@,@,,,@, ,@,@,,@,@,1,,@,,@,@,,,@, ,@,@,,@,,1,@,,@,@,,,@,,@,@,,@,@,1@,@,,@,,11",
",@,,1,@,,@,@,1,,@,,@,@,,,@, ,@,@,@,,1,@,,@,@,1,,,@, ,@,@,@,,1,@,,@,@,1,,@@,,@,@,,,@, ,@,@,,@,,1,@,,@,@,,,@,,@,@,,@,@,1@,@,,@,,11",
"1@,11,@1,@oXooooXo,@,@,1,@oXoXoXoX,11,@1,@,@,11,,@,@,@,@1*XXXXX3*@,@,11,@@1,@,@,1,@,@,@,@,1*ooooXooXoX*1,@1,@,@,,@,@,1@,@,1@,111",
"1,11.1,11,ooo3oooo1,1,111,oXoooooo11.1,11,1,1.111,1@1,1*XXXX+XXXX31,1.11,,11,1,111,1@1,1*3oooo3oooooooooo*11,1,11,1,1.,1,11,11..",
"1,11.1,11,ooo3oooo1,1,111,oXoooooo11.1,11,1,1.111,1@1,*XXXXX+XXXXX*,1.11,,11,1,111,1@1, oooooo3ooooooooooo%1,1,11,1,1.,1,11,11..",
".11..11.11ooo33oo311111.11oooooo3o1..11.11111..1111,1*XX+XX++XX+XX3,1..111.11111.111,1*ooo3oo33oo3ooooo3oo3 111111111.1111.11...",
".1..<.1..13o3333o3.1.1...13o3o3o3o..<.1..1.1.<...1.,.X+X+X+.<*X++X+*.<..11..1.1...1.,.33o33o33@.1.. 3o333o331.1..1.1.<1.1..1..<<",
".1..<.1..13o3333o3.1.1...13o3o3o3o..<.1..1.1.<...1.1*X+X+X@.<*X++X+3.<..11..1.1...1.1 o3o33o3@<.1..1.@333o331.1..1.1.<1.1..1..<<",
"<..<#..<..333%3333.....<..3o333333.<#..<.....#<....1++++++.<#*+++++3.#<...<.....<...133333333<#..<.....<..<..........#....<..<##",
"<.<<#<.<<.333%3333<.<.<<<.3o333333<<#<.<<.<.<#<<<.<@+++++@<<#*+++++3<#<<..<<.<.<<<.<133333333<#<.<<.<.<<<.<<.<.<<.<.<#.<.<<.<<##",
"#.<##<.#<. 33%%33%<.<.<#<.333333% <##<.#<.<.<##<<.<+++++3.<##*+3+++3<##<..#<.<.<#<.<.33333%33##<.#<.<.<#<.#<.<.<<.<.<#.<.<#.<###",
"#<##&#<##< 3%%%%3%#<#<###.%3%3%3%@##&#<##<#<#&###<@+3+3+@<##&*+33+33#&##<<##<#<###<#.%3%3%%3%#&#<##<#<###<##<#<##<#<#&<#<##<##&&",
"#<##&#<##<@3%%%%3%@<#<###,%3%3%3%@##&#<##<#<#&###<3+3+3+3+3333+33+33#&##<<##<#<###<#<@3%3%%3%@&#<##<#@%%%3%%<#<##<#<#&<#<##<##&&",
"&##&&##&### %%%%%% ,<##<, %3%%%% ##&&##&#####&&##@3+3333333333333333#&&###&#####&###<#%%%%%%%%,##&#,%%%%%%%%#########&####&##&&&",
"&#&&$&#&&#&,%*%%%%%%%%%%%%%3%%%%,#&&$&#&&#&#&$&&&33+333#&#&&$*333333&$&&##&&#&#&&&#&<&,%%%%%%%*%%%%%%%%%%%%,#&#&&#&#&$#&#&&#&&$$",
"$#&$$&#$&#&#,**%%*%%%%%*%%%%%%%,$#&$$&#$&#&#&$$&@33333*#$#&$$*3%3333&$$&##$&#&#&$&#&#&# %%*%%**%%*%%%%%*%% &#&#&&#&#&$#&#&$#&$$$",
"$&&$:&&$&&&&&1,%%*%%%%%*%%%%%@,&$&&$:&&$&&&&&:$&333333.&$&&$:*3%3333&:$&&&$&&&&&$&&&#&&&, *%%**%%*%%%%%* 1$&&&&&&&&&&:&&&&$&&$::",
"$&$$:$&$$&$&$:$1, *%*%***% ,,&$&$&$$:$&$$&$&$:$$%3%3%3$&$&$$:*3%%3%3$:$$&&$$&$&$$$&$#$&$&$$1****%**%*%1$$&$$&$&$$&$&$:&$&$$&$$::",
":$$:;$$:$$$$$;:$$:$$$$$:$$$&$$$$:$$:;$$:$$$$$;:$$$$&$$$$:$$:;$$:$$$$$;:$$$:$$$$$:$$$&$$$$$:$$:;$$:$$$$$:$$:$$$$$$$$$$;$$$$:$$:;;",
":$::;:$::$:$:;::$::$:$:::$:&:$:$:$::;:$::$:$:;:::$:&:$:$:$::;:$::$:$:;::$$::$:$:::$:&:$:$::$::;:$::$:$:::$::$:$::$:$:;$:$::$::;;",
";$:;-:$;:$:$:-;:$;:$:$:;:$:$:$:$;$:;-:$;:$:$:-;::$:$:$:$;$:;-:$;:$:$:-;:$$;:$:$:;:$:$:$:$:;$:;-:$;:$:$:;:$;:$:$::$:$:-$:$:;$:;--",
";$:;-:$;:$:$:-;:$;:$:$:;:$:$:$:$;$:;-:$;:$:$:-;::$:$:$:$;$:;-:$;:$:$:-;:$$;:$:$:;:$:$:$:$:;$:;-:$;:$:$:;:$;:$:$::$:$:-:;:;;:;;--",
":$::;:$::$:$:;::$::$:$:::$:&:$:$:$::;:$::$:$:;:::$:&:$:$:$::;:$::$:$:;::$$::$:$:::$:&:$:$::$::;:$::$:$:::$::$:$::$:$:;:;:;-:;-==",
":$$:;$$:$$$$$;:$$:$$$$$:$$$&$$$$:$$:;$$:$$$$$;:$$$$&$$$$:$$:;$$:$$$$$;:$$$:$$$$$:$$$&$$$$$:$$:;$$:$$$$$:$$:$$$$$$$$$$;;-;--;--==",
"$&$$:$&$$&$&$:$$&$$&$&$$$&$#$&$&$&$$:$&$$&$&$:$$$&$#$&$&$&$$:$&$$&$&$:$$&&$$&$&$$$&$#$&$&$$&$$:$&$$&$&$$$&$$&$&$$&$&$:;-;-=;-=>>",
"$&&$:&&$&&&&&:$&&$&&&&&$&&&#&&&&$&&$:&&$&&&&&:$&&&&#&&&&$&&$:&&$&&&&&:$&&&$&&&&&$&&&#&&&&&$&&$:&&$&&&&&$&&$&&&&&&&&&&:-=-==-==>>",
"$#&$$&#$&#&#&$$&#$&#&#&$&#&#&#&#$#&$$&#$&#&#&$$&#$&#&#&$&#&#&#&#$&#&#&$$&#$&#&#&$&#&#&#&#&$#&$$&#$&#&#&$&#$&#&#&&#&#&$-=-=>-=>22",
"&#&&$&#&&#&#&$&&#&&#&#&&&#&<&#&#&#&&$&#&&#&#&$&&#&&#&#&&&#&<&#&#&&#&#&$&&#&&#&#&&&#&<&#&#&&#&&$&#&&#&#&&&#&&#&#&&#&#&$=>=>>=>>22",
"&##&&##&#####&&##&#####&###<####&##&&##&#####&&##&#####&###<####&#####&&##&#####&###<#####&##&&##&#####&##&##########&=>=>>=>>22",
"#<##&#<##<#<#&##<##<#<###<#<#<#<##<#<#&##<##<#<###<#<#<#<##<##&&#<##&#<##<#<#&##<##<#<###<#<#<#<##<#<#&##<##<#<###<#<#<#<##<##&&",
"#<##&#<##<#<#&##<##<#<###<#.#<#<##<#<#&##<##<#<###<#.#<#<##<##&&#<##&#<##<#<#&##<##<#<###<#.#<#<##<#<#&##<##<#<###<#.#<#<##<##&&",
"#.<##<.#<.<.<##<.#<.<.<#<.<.<.<.#<.<.<##<.#<.<.<#<.<.<.<.<#.<####.<##<.#<.<.<##<.#<.<.<#<.<.<.<.#<.<.<##<.#<.<.<#<.<.<.<.<#.<###",
"<.<<#<.<<.<.<#<<.<<.<.<<<.<1<.<.<<.<.<#<<.<<.<.<<<.<1<.<.<<.<<##<.<<#<.<<.<.<#<<.<<.<.<<<.<1<.<.<<.<.<#<<.<<.<.<<<.<1<.<.<<.<<##",
"<..<#..<.....#<..<.....<...1....<.....#<..<.....<...1.....<..<##<..<#..<.....#<..<.....<...1....<.....#<..<.....<...1.....<..<##",
".1..<.1..1.1.<..1..1.1...1.1.1.1..1.1.<..1..1.1...1.1.1.1..1..<<.1..<.1..1.1.<..1..1.1...1.1.1.1..1.1.<..1..1.1...1.1.1.1..1..<<",
".1..<.1..1.1.<..1..1.1...1.,.1.1..1.1.<..1..1.1...1.,.1.1..1..<<.1..<.1..1.1.<..1..1.1...1.,.1.1..1.1.<..1..1.1...1.,.1.1..1..<<",
".11..11.11111..11.11111.111,1111.11111..11.11111.111,11111.11....11..11.11111..11.11111.111,1111.11111..11.11111.111,11111.11...",
"1,11.1,11,1,1.11,11,1,111,1@1,1,11,1,1.11,11,1,111,1@1,1,11,11..1,11.1,11,1,1.11,11,1,111,1@1,1,11,1,1.11,11,1,111,1@1,1,11,11..",
"1,11.1,11,1,1.11,11,1,111,1@1,1,11,1,1.11,11,1,111,1@1,1,11,11..1,11.1,11,1,1.11,11,1,111,1@1,1,11,1,1.11,11,1,111,1@1,1,11,11..",
"1@,11,@1,@,@,11,@1,@,@,1,@,@,@,@1,@,@,11,@1,@,@,1,@,@,@,@,1@,1111@,11,@1,@,@,11,@1,@,@,1,@,@,@,@1,@,@,11,@1,@,@,1,@,@,@,@,1@,111",
",@,,1,@,,@,@,1,,@,,@,@,,,@, ,@,@,,@,@,1,,@,,@,@,,,@, ,@,@,,@,,11,@,,1,@,,@,@,1,,@,,@,@,,,@, ,@,@,,@,@,1,,@,,@,@,,,@, ,@,@,,@,,11",
",@,,1,@,,@,@,1,,@,,@,@,,,@, ,@,@,,@,@,1,,@,,@,@,,,@, ,@,@,,@,,11,@,,1,@,,@,@,1,,@,,@,@,,,@, ,@,@,,@,@,1,,@,,@,@,,,@, ,@,@,,@,,11",
"@ @@,@ @@ @ @,@@ @@ @ @@@ @ @ @ @@ @ @,@@ @@ @ @@@ @ @ @ @@ @@,,@ @@,@ @@ @ @,@@ @@ @ @@@ @ @ @ @@ @ @,@@ @@ @ @@@ @ @ @ @@ @@,,",
"@ @@,@ @@ @ @,@@ @@ @ @@@ @*@ @ @@ @ @,@@ @@ @ @@@ @*@ @ @@ @@,,@ @@,@ @@ @ @,@@ @@ @ @@@ @*@ @ @@ @ @,@@ @@ @ @@@ @*@ @ @@ @@,,",
"@  @,  @     ,@  @     @   *    @     ,@  @     @   *     @  @,,@  @,  @     ,@  @     @   *    @     ,@  @     @   *     @  @,,",
" *  @ *  * * @  *  * *   * % * *  * * @  *  * *   * % * *  *  @@ *  @ *  * * @  *  * *   * % * *  * * @  *  * *   * % * *  *  @@",
" *  @ *  * * @  *  * *   * % * *  * * @  *  * *   * % * *  *  @@ *  @ *  * * @  *  * *   * % * *  * * @  *  * *   * % * *  *  @@",
" **  ** *****  ** ***** ***%**** *****  ** ***** ***%***** **    **  ** *****  ** ***** ***%**** *****  ** ***** ***%***** **   ",
"*%** *%**%*%* **%**%*%***%*3*%*%**%*%* **%**%*%***%*3*%*%**%**  *%** *%**%*%* **%**%*%***%*3*%*%**%*%* **%**%*%***%*3*%*%**%**  ",
"*%** *%**%*%* **%**%*%***%*3*%*%**%*%* **%**%*%***%*3*%*%**%**  *%** *%**%*%* **%**%*%***%*3*%*%**%*%* **%**%*%***%*3*%*%**%**  ",
" **  ** *****  ** ***** ***%**** *****  ** ***** ***%***** **    **  ** *****  ** ***** ***%**** *****  ** ***** ***%***** **   ",
" *  @ *  * * @  *  * *   * % * *  * * @  *  * *   * % * *  *  @@ *  @ *  * * @  *  * *   * % * *  * * @  *  * *   * % * *  *  @@",
" *  @ *  * * @  *  * *   * % * *  * * @  *  * *   * % * *  *  @@ *  @ *  * * @  *  * *   * % * *  * * @  *  * *   * % * *  *  @@",
"@  @,  @     ,@  @     @   *    @     ,@  @     @   *     @  @,,@  @,  @     ,@  @     @   *    @     ,@  @     @   *     @  @,,",
"@ @@,@ @@ @ @,@@ @@ @ @@@ @*@ @ @@ @ @,@@ @@ @ @@@ @*@ @ @@ @@,,@ @@,@ @@ @ @,@@ @@ @ @@@ @*@ @ @@ @ @,@@ @@ @ @@@ @*@ @ @@ @@,,",
"@ @@,@ @@ @ @,@@ @@ @ @@@ @ @ @ @@ @ @,@@ @@ @ @@@ @ @ @ @@ @@,,@ @@,@ @@ @ @,@@ @@ @ @@@ @ @ @ @@ @ @,@@ @@ @ @@@ @ @ @ @@ @@,,",
",@,,1,@,,@,@,1,,@,,@,@,,,@, ,@,@,,@,@,1,,@,,@,@,,,@, ,@,@,,@,,11,@,,1,@,,@,@,1,,@,,@,@,,,@, ,@,@,,@,@,1,,@,,@,@,,,@, ,@,@,,@,,11",
",@,,1,@,,@,@,1,,@,,@,@,,,@, ,@,@,,@,@,1,,@,,@,@,,,@, ,@,@,,@,,11,@,,1,@,,@,@,1,,@,,@,@,,,@, ,@,@,,@,@,1,,@,,@,@,,,@, ,@,@,,@,,11",
"1@,11,@1,@,@,11,@1,@,@,1,@,@,@,@1,@,@,11,@1,@,@,1,@,@,@,@,1@,1111@,11,@1,@,@,11,@1,@,@,1,@,@,@,@1,@,@,11,@1,@,@,1,@,@,@,@,1@,111",
"1,11.1,11,1,1.11,11,1,111,1@1,1,11,1,1.11,11,1,111,1@1,1,11,11..1,11.1,11,1,1.11,11,1,111,1@1,1,11,1,1.11,11,1,111,1@1,1,11,11..",
"1,11.1,11,1,1.11,11,1,111,1@1,1,11,1,1.11,11,1,111,1@1,1,11,11..1,11.1,11,1,1.11,11,1,111,1@1,1,11,1,1.11,11,1,111,1@1,1,11,11..",
".11..11.11111..11.11111.111,1111.11111..11.11111.111,11111.11....11..11.11111..11.11111.111,1111.11111..11.11111.111,11111.11...",
".1..<.1..1.1.<..1..1.1...1.,.1.1..1.1.<..1..1.1...1.,.1.1..1..<<.1..<.1..1.1.<..1..1.1...1.,.1.1..1.1.<..1..1.1...1.,.1.1..1..<<",
".1..<.1..1.1.<..1..1.1...1.1.1.1..1.1.<..1..1.1...1.1.1.1..1..<<.1..<.1..1.1.<..1..1.1...1.1.1.1..1.1.<..1..1.1...1.1.1.1..1..<<",
"<..<#..<.....#<..<.....<...1....<.....#<..<.....<...1.....<..<##<..<#..<.....#<..<.....<...1....<.....#<..<.....<...1.....<..<##",
"<.<<#<.<<.<.<#<<.<<.<.<<<.<1<.<.<<.<.<#<<.<<.<.<<<.<1<.<.<<.<<##<.<<#<.<<.<.<#<<.<<.<.<<<.<1<.<.<<.<.<#<<.<<.<.<<<.<1<.<.<<.<<##",
"#.<##<.#<.<.<##<.#<.<.<#<.<.<.<.#<.<.<##<.#<.<.<#<.<.<.<.<#.<####.<##<.#<.<.<##<.#<.<.<#<.<.<.<.#<.<.<##<.#<.<.<#<.<.<.<.<#.<###",
"#<##&#<##<#<#&##<##<#<###<#.#<#<##<#<#&##<##<#<###<#.#<#<##<##&&#<##&#<##<#<#&##<##<#<###<#.#<#<##<#<#&##<##<#<###<#.#<#<##<##&&",
"#<##&#<##<#<#&##<##<#<###<#<#<#<##<#<#&##<##<#<###<#<#<#<##<##&&#<##&#<##<#<#&##<##<#<###<#<#<#<##<#<#&##<##<#<###<#<#<#<##<##&&",
"&##&&##&#####&&##&#####&###<####&#####&&##&#####&###<#####&##&&&&##&&##&#####&&##&#####&###<####&#####&&##&#####&###<#####&##&&&",
"&#&&$&#&&#&#&$&&#&&#&#&&&#&<&#&#&&#&#&$&&#&&#&#&&&#&<&#&#&&#&&$$&#&&$&#&&#&#&$&&#&&#&#&&&#&<&#&#&&#&#&$&&#&&#&#&&&#&<&#&#&&#&&$$",
"$#&$$&#$&#&#&$$&#$&#&#&$&#&#&#&#$&#&#&$$&#$&#&#&$&#&#&#&#&$#&$$$$#&$$&#$&#&#&$$&#$&#&#&$&#&#&#&#$&#&#&$$&#$&#&#&$&#&#&#&#&$#&$$$",
"$&&$:&&$&&&&&:$&&$&&&&&$&&&#&&&&$&&&&&:$&&$&&&&&$&&&#&&&&&$&&$::$&&$:&&$&&&&&:$&&$&&&&&$&&&#&&&&$&&&&&:$&&$&&&&&$&&&#&&&&&$&&$::",
"$&$$:$&$$&$&$:$$&$$&$&$$$&$#$&$&$$&$&$:$$&$$&$&$$$&$#$&$&$$&$$::$&$$:$&$$&$&$:$$&$$&$&$$$&$#$&$&$$&$&$:$$&$$&$&$$$&$#$&$&$$&$$::",
":$$:;$$:$$$$$;:$$:$$$$$:$$$&$$$$:$$$$$;:$$:$$$$$:$$$&$$$$$:$$:;;:$$:;$$:$$$$$;:$$:$$$$$:$$$&$$$$:$$$$$;:$$:$$$$$:$$$&$$$$$:$$:;;",
":$::;:$::$:$:;::$::$:$:::$:&:$:$::$:$:;::$::$:$:::$:&:$:$::$::;;:$::;:$::$:$:;::$::$:$:::$:&:$:$::$:$:;::$::$:$:::$:&:$:$::$::;;",
";$:;-:$;:$:$:-;:$;:$:$:;:$:&:$:$;:$:$:-;:$;:$:$:;:$:&:$:$:;$:;--;$:;-:$;:$:$:-;:$;:$:$:;:$:&:$:$;:$:$:-;:$;:$:$:;:$:&:$:$:;$:;--",
";:;;-;:;;:;:;-;;:;;:;:;;;:;$;:;:;;:;:;-;;:;;:;:;;;:;$;:;:;;:;;--;:;;-;:;;:;:;-;;:;;:;:;;;:;$;:;:;;:;:;-;;:;;:;:;;;:;$;:;:;;:;;--",
"-:;-=;:-;:;:;=-;:-;:;:;-;:;$;:;:-;:;:;=-;:-;:;:;-;:;$;:;:;-:;-==-:;-=;:-;:;:;=-;:-;:;:;-;:;$;:;:-;:;:;=-;:-;:;:;-;:;$;:;:;-:;-==",
"-;--=-;--;-;-=--;--;-;---;-:-;-;--;-;-=--;--;-;---;-:-;-;--;--==-;--=-;--;-;-=--;--;-;---;-:-;-;--;-;-=--;--;-;---;-:-;-;--;--==",
"=;-=>-;=-;-;->=-;=-;-;-=-;-:-;-;=-;-;->=-;=-;-;-=-;-:-;-;-=;-=>>=;-=>-;=-;-;->=-;=-;-;-=-;-:-;-;=-;-;->=-;=-;-;-=-;-:-;-;-=;-=>>",
"=-==>=-==-=-=>==-==-=-===-=;=-=-==-=-=>==-==-=-===-=;=-=-==-==>>=-==>=-==-=-=>==-==-=-===-=;=-=-==-=-=>==-==-=-===-=;=-=-==-==>>",
">-=>2=->=-=-=2>=->=-=-=>=-=;=-=->=-=-=2>=->=-=-=>=-=;=-=-=>-=>22>-=>2=->=-=-=2>=->=-=-=>=-=;=-=->=-=-=2>=->=-=-=>=-=;=-=-=>-=>22",
">=>>2>=>>=>=>2>>=>>=>=>>>=>->=>=>>=>=>2>>=>>=>=>>>=>->=>=>>=>>22>=>>2>=>>=>=>2>>=>>=>=>>>=>->=>=>>=>=>2>>=>>=>=>>>=>->=>=>>=>>22",
">=>>2>=>>=>=>2>>=>>=>=>>>=>->=>=>>=>=>2>>=>>=>=>>>=>->=>=>>=>>22>=>>2>=>>=>=>2>>=>>=>=>>>=>->=>=>>=>=>2>>=>>=>=>>>=>->=>=>>=>>22"
};
