/* XPM */
static char *SILVER1[] = {
/* columns rows colors chars-per-pixel */
"64 128 15 1 ",
"  c #777777",
". c #6F6F6F",
"X c gray39",
"o c #8B8B8B",
"O c gray50",
"+ c #838383",
"@ c #5B5B5B",
"# c gray42",
"$ c gray34",
"% c #939393",
"& c gray31",
"* c #979797",
"= c #4B4B4B",
"- c gray28",
"; c #9F9F9F",
/* pixels */
"##XXX##.  O  O O  . ++ .  O  O O  O O  .#X##.  O  O + O O  O  ..",
"##XXX##.  O  O O  . ++ .  O  O O  O O  .#X##.  O  O + O O  O  ..",
"..#X#..  O+ O+O+O  O++O  O+ O+O+ O+O+O  .#..  O+ O+O+O+O+O +O   ",
"..###.. OO+OO+O+OO OooO OO+OO+O+OO+O+OO .#.. OO+OO+OoO+O+OO+OO  ",
" .###.  OO+OO+O+OO OooO OO+OO+O+OO+O+OO  #.  OO+OO+OoO+O+OO+OO  ",
"  ...  O++o++o+o++O+oo+O++o++o+o++o+o++O .  O++o++o+o+o+o++o++OO",
"  ...  O++o++o+o++O+%%+O++o++o+o++o+o++O .  O++o++o+%+o+o++o++OO",
".#####...  .     ..    ..  .    .     ...##...  .         .  ...",
"=$&=-&$=&$&$&-=&$=&$&$&=&$&@&$&$=&$&$&-=&$=&$&$&=&$&@&$&$&=$&=--",
"&$&&=&$&&$&$&=&&$&&$&$&&&$&@&$&$&&$&$&=&&$&&$&$&&&$&@&$&$&&$&&==",
"&$$&=$$&$$$$$=&$$&$$$$$&$$$@$$$$&$$$$$=&$$&$$$$$&$$$@$$$$$&$$&==",
"$@$$&$@$$@$@$&$$@$$@$@$$$@$X$@$@$$@$@$&$$@$$@$@$$$@$X$@$@$$@$$&&",
"$@@$&@@$@@@@@&$@@$@@@@@$@@@X@@@@$@@@@@&$@@$@@@@@$@@@X@@@@@$@@$&&",
"$X@$$@X$@X@X@$$@X$@X@X@$@X@X@X@X$@X@X@$$@X$@X@X@$@X@X@X@X@$X@$$$",
"@X@@$@X@@X@X@$@@X@@X@X@@@X@#@X@X@@X@X@$@@X@@X@X@@@X@#@X@X@@X@@$$",
"@XX@@XX@XXXXX@@XX@XXXXX@XXX#XXXX@XXXXX@@XX@XXXXX@XXX#XXXXX@XX@@@",
"X#XX@X#XX#X#X@XX#XX#X#XXX#X#X#X#XX#X#X@XX#XX#X#XXX#X#X#X#XX#XX@@",
"X#XX@X#XX#X#X@XX#XX#X#XXX#X.X#X#XX#X#X@XX#XX#X#XXX#X.X#X#XX#XX@@",
"X.#XX#.X#.#.#XX#.X#.#.#X#.#.#.#.X#.#.#XX#.X#.#.#X#.#.#.#.#X.#XXX",
"#.##X#.##.#.#X##.##.#.###.# #.#.##.#.#X##.##.#.###.# #.#.##.##XX",
"#..#X..#.....X#..#.....#... ....#.....X#..#.....#... .....#..#XX",
". ..#. .. . .#.. .. . ... . . . .. . .#.. .. . ... . . . .. ..##",
". ..#. .. . .#.. .. . ... .O. . .. . .#.. .. . ... .O. . .. ..##",
".  ..  .     ..  .     .   O    .     ..  .     .   O     .  ...",
" O  . O  O O .  O  O O   O + O O  O O .  O  O O   O + O O  O  ..",
" O  . O  O O .  O  O O   O + O O  O O .  O  O O   O + O O  O  ..",
" +O  O+ O+O+O  O+ O+O+O O+O+O+O+ O+O+O  O+ O+O+O O+O+O+O+O +O   ",
"O+OO O+OO+O+O OO+OO+O+OOO+OoO+O+OO+O+O OO+OO+O+OOO+OoO+O+OO+OO  ",
"O+OO O+OO+O+O OO+OO+O+OOO+OoO+O+OO+O+O OO+OO+O+OOO+OoO+O+OO+OO  ",
"+o++O+o++o+o+O++o++o+o+++o+o+o+o++o+o+O++o++o+o+++o+o+o+o++o++OO",
"+o++O+o++o+o+O++o++o+o+++o+%+o+o++o+o+O++o++o+o+++o+%+o+o++o++OO",
"+oo+Ooo+oooooO+oo+ooooo+ooo%oooo+oooooO+oo+ooooo+ooo%ooooo+oo+OO",
"o%oo+o%oo%o%o+oo%oo%o%ooo%o*o%o%oo%o%o+oo%oo%o%ooo%o*o%o%oo%oo++",
"o%oo+o%oo%o%o+oo%oo%o%ooo%o*o%o%oo%o%o+oo%oo%o%ooo%o*o%o%oo%oo++",
"o%%oo%%o%%%%%oo%%o%%%%%o%%%*%%%%o%%%%%oo%%o%%%%%o%%%*%%%%%o%%ooo",
"%*%%o%*%%*%*%o%%*%%*%*%%%*%;%*%*%%*%*%o%%*%%*%*%%%*%;%*%*%%*%%oo",
"%*%%o%*%%*%*%o%%*%%*%*%%%*%;%*%*%%*%*%o%%*%%*%*%%%*%;%*%*%%*%%oo",
"o%%oo%%o%%%%%oo%%o%%%%%o%%%*%%%%o%%%%%oo%%o%%%%%o%%%*%%%%%o%%ooo",
"o%oo+o%oo%o%o+oo%oo%o%ooo%o*o%o%oo%o%o+oo%oo%o%ooo%o*o%o%oo%oo++",
"o%oo+o%oo%o%o+oo%oo%o%ooo%o*o%o%oo%o%o+oo%oo%o%ooo%o*o%o%oo%oo++",
"+oo+Ooo+oooooO+oo+ooooo+ooo%oooo+oooooO+oo+ooooo+ooo%ooooo+oo+OO",
"+o++O+o++o+o+O++o++o+o+++o+%+o+o++o+o+O++o++o+o+++o+%+o+o++o++OO",
"+o++O+o++o+o+O++o++o+o+++o+o+o+o++o+o+O++o++o+o+++o+o+o+o++o++OO",
"O+OO O+OO+O+O OO+OO+O+OOO+OoO+O+OO+O+O OO+OO+O+OOO+OoO+O+OO+OO  ",
"O+OO O+OO+O+O OO+OO+O+OOO+OoO+O+OO+O+O OO+OO+O+OOO+OoO+O+OO+OO  ",
" +O  O+ O+O+O  O+ O+O+O O+O+O+O+ O+O+O  O+ O+O+O O+O+O+O+O +O   ",
" O  . O  O O .  O  O O   O + O O  O O .  O  O O   O + O O  O  ..",
" O  . O  O O .  O  O O   O + O O  O O .  O  O O   O + O O  O  ..",
".  ..  .     ..  .     .   O    .     ..  .     .   O     .  ...",
". ..#. .. . .#.. .. . ... .O. . .. . .#.. .. . ... .O. . .. ..##",
". ..#. .. . .#.. .. . ... . . . .. . .#.. .. . ... . . . .. ..##",
"#..#X..#.....X#..#.....#... ....#.....X#..#.....#... .....#..#XX",
"#.##X#.##.#.#X##.##.#.###.# #.#.##.#.#X##.##.#.###.# #.#.##.##XX",
"X.#XX#.X#.#.#XX#.X#.#.#X#.#.#.#.X#.#.#XX#.X#.#.#X#.#.#.#.#X.#XXX",
"X#XX@X#XX#X#X@XX#XX#X#XXX#X.X#X#XX#X#X@XX#XX#X#XXX#X.X#X#XX#XX@@",
"X#XX@X#XX#X#X@XX#XX#X#XXX#X#X#X#XX#X#X@XX#XX#X#XXX#X#X#X#XX#XX@@",
"@XX@@XX@XXXXX@@XX@XXXXX@XXX#XXXX@XXXXX@@XX@XXXXX@XXX#XXXXX@XX@@@",
"@X@@$@X@@X@X@$@@X@@X@X@@@X@#@X@X@@X@X@$@@X@@X@X@@@X@#@X@X@@X@@$$",
"$X@$$@X$@X@X@$$@X$@X@X@$@X@X@X@X$@X@X@$$@X$@X@X@$@X@X@X@X@$X@$$$",
"$@@$&@@$@@@@@&$@@$@@@@@$@@@X@@@@$@@@@@&$@@$@@@@@$@@@X@@@@@$@@$&&",
"$@$$&$@$$@$@$&$$@$$@$@$$$@$X$@$@$$@$@$&$$@$$@$@$$$@$X$@$@$$@$$&&",
"&$$&=$$&$$$$$=&$$&$$$$$&$$$@$$$$&$$$$$=&$$&$$$$$&$$$@$$$$$&$$&==",
"&$&&=&$&&$&$&=&&$&&$&$&&&$&@&$&$&&$&$&=&&$&&$&$&&&$&@&$&$&&$&&==",
"=$&=-&$=&$&$&-=&$=&$&$&=&$&$&$&$=&$&$&-=&$=&$&$&=&$&$&$&$&=$&=--",
"=$&=-&$=&$&$&-=&$=&$&$&=&$&$&$&$=&$&$&-=&$=&$&$&=&$&$&$&$&=$&=--",
"&$&&=&$&&$&$&=&&$&&$&$&&&$&@&$&$&&$&$&=&&$&&$&$&&&$&@&$&$&&$&&==",
"&$$&=$$&$$$$$=&$$&$$$$$&$$$@$$$$&$$$$$=&$$&$$$$$&$$$@$$$$$&$$&==",
"$@$$&$@$$@$@$&$$@$$@$@$$$@$X$@$@$$@$@$&$$@$$@$@$$$@$X$@$@$$@$$&&",
"$@@$&@@$@@@@@&$@@$@@@@@$@@@X@@@@$@@@@@&$@@$@@@@@$@@@X@@@@@$@@$&&",
"$X@$$@X$@X@X@$$@X$@X@X@$@X@X@X@X$@X@X@$$@X$@X@X@$@X@X@X@X@$X@$$$",
"@X@@$@X@@X@X@$@@X@@X@X@@@X@#@X@X@@X@X@$@@X@@X@X@@@X@#@X@X@@X@@$$",
"@XX@@XX@XXXXX@@XX@XXXXX@XXX#XXXX@XXXXX@@XX@XXXXX@XXX#XXXXX@XX@@@",
"X#XX@X#XX#X#X@XX#XX#X#XXX#X#X#X#XX#X#X@XX#XX#X#XXX#X#X#X#XX#XX@@",
"X#XX@X#XX#X#X@XX#XX#X#XXX#X.X#X#XX#X#X@XX#XX#X#XXX#X.X#X#XX#XX@@",
"X.#XX#.X#.#.#XX#.X#.#.#X#.#.#.#.X#.#.#XX#.X#.#.#X#.#.#.#.#X.#XXX",
"#.##X#.##.#.#X##.##.#.###.# #.#.##.#.#X##.##.#.###.# #.#.##.##XX",
"#..#X..#.....X#..#.....#... ....#.....X#..#.....#... .....#..#XX",
". ..#. .. . .#.. .. . ... . . . .. . .#.. .. . ... . . . .. ..##",
". ..#. .. . .#.. .. . ... .O. . .. . .#.. .. . ... .O. . .. ..##",
".  ..  .     ..  .     .   O    .     ..  .     .   O     .  ...",
" O  . O  O O .  O  O O   O + O O  O O .  O  O O   O + O O  O  ..",
" O  . O  O O .  O  O O   O + O O  O O .  O  O O   O + O O  O  ..",
" +O  O+ O+O+O  O+ O+O+O O+O+O+O+ O+O+O  O+ O+O+O O+O+O+O+O +O   ",
"O+OO O+OO+O+O OO+OO+O+OOO+OoO+O+OO+O+O OO+OO+O+OOO+OoO+O+OO+OO  ",
"O+OO O+OO+O+O OO+OO+O+OOO+OoO+O+OO+O+O OO+OO+O+OOO+OoO+O+OO+OO  ",
"+o++O+o++o+o+O++o++o+o+++o+o+o+o++o+o+O++o++o+o+++o+o+o+o++o++OO",
"+o++O+o++o+o+O++o++o+o+++o+%+o+o++o+o+O++o++o+o+++o+%+o+o++o++OO",
"+oo+Ooo+oooooO+oo+ooooo+ooo%oooo+oooooO+oo+ooooo+ooo%ooooo+oo+OO",
"o%oo+o%oo%o%o+oo%oo%o%ooo%o*o%o%oo%o%o+oo%oo%o%ooo%o*o%o%oo%oo++",
"o%oo+o%oo%o%o+oo%oo%o%ooo%o*o%o%oo%o%o+oo%oo%o%ooo%o*o%o%oo%oo++",
"o%%oo%%o%%%%%oo%%o%%%%%o%%%*%%%%o%%%%%oo%%o%%%%%o%%%*%%%%%o%%ooo",
"%*%%o%*%%*%*%o%%*%%*%*%%%*%;%*%*%%*%*%o%%*%%*%*%%%*%;%*%*%%*%%oo",
"%*%%o%*%%*%*%o%%*%%*%*%%%*%;%*%*%%*%*%o%%*%%*%*%%%*%;%*%*%%*%%oo",
"o%%oo%%o%%%%%oo%%o%%%%%o%%%*%%%%o%%%%%oo%%o%%%%%o%%%*%%%%%o%%ooo",
"o%oo+o%oo%o%o+oo%oo%o%ooo%o*o%o%oo%o%o+oo%oo%o%ooo%o*o%o%oo%oo++",
"o%oo+o%oo%o%o+oo%oo%o%ooo%o*o%o%oo%o%o+oo%oo%o%ooo%o*o%o%oo%oo++",
"+oo+Ooo+oooooO+oo+ooooo+ooo%oooo+oooooO+oo+ooooo+ooo%ooooo+oo+OO",
"+o++O+o++o+o+O++o++o+o+++o+%+o+o++o+o+O++o++o+o+++o+%+o+o++o++OO",
"+o++O+o++o+o+O++o++o+o+++o+o+o+o++o+o+O++o++o+o+++o+o+o+o++o++OO",
"O+OO O+OO+O+O OO+OO+O+OOO+OoO+O+OO+O+O OO+OO+O+OOO+OoO+O+OO+OO  ",
"O+OO O+OO+O+O OO+OO+O+OOO+OoO+O+OO+O+O OO+OO+O+OOO+OoO+O+OO+OO  ",
" +O  O+ O+O+O  O+ O+O+O O+O+O+O+ O+O+O  O+ O+O+O O+O+O+O+O +O   ",
" O  . O  O O .  O  O O   O + O O  O O .  O  O O   O + O O  O  ..",
" O  . O  O O .  O  O O   O + O O  O O .  O  O O   O + O O  O  ..",
".  ..  .     ..  .     .   O    .     ..  .     .   O     .  ...",
". ..#. .. . .#.. .. . ... .O. . .. . .#.. .. . ... .O. . .. ..##",
". ..#. .. . .#.. .. . ... . . . .. . .#.. .. . ... . . . .. ..##",
"#..#X..#.....X#..#.....#... ....#.....X#..#.....#... .....#..#XX",
"#.##X#.##.#.#X##.##.#.###.# #.#.##.#.#X##.##.#.###.# #.#.##.##XX",
"X.#XX#.X#.#.#XX#.X#.#.#X#.#.#.#.X#.#.#XX#.X#.#.#X#.#.#.#.#X.#XXX",
"X#XX@X#XX#X#X@XX#XX#X#XXX#X.X#X#XX#X#X@XX#XX#X#XXX#X.X#X#XX#XX@@",
"X#XX@X#XX#X#X@XX#XX#X#XXX#X#X#X#XX#X#X@XX#XX#X#XXX#X#X#X#XX#XX@@",
"@XX@@XX@XXXXX@@XX@XXXXX@XXX#XXXX@XXXXX@@XX@XXXXX@XXX#XXXXX@XX@@@",
"@X@@$@X@@X@X@$@@X@@X@X@@@X@#@X@X@@X@X@$@@X@@X@X@@@X@#@X@X@@X@@$$",
"$X@$$@X$@X@X@$$@X$@X@X@$@X@X@X@X$@X@X@$$@X$@X@X@$@X@X@X@X@$X@$$$",
"$@@$&@@$@@@@@&$@@$@@@@@$@@@X@@@@$@@@@@&$@@$@@@@@$@@@X@@@@@$@@$&&",
"$@$$&$@$$@$@$&$$@$$@$@$$$@$X$@$@$$@$@$&$$@$$@$@$$$@$X$@$@$$@$$&&",
"&$$&=$$&$$$$$=&$$&$$$$$&$$$@$$$$&$$$$$=&$$&$$$$$&$$$@$$$$$&$$&==",
"&$&&=&$&&$&$&=&&$&&$&$&&&$&@&$&$&&$&$&=&&$&&$&$&&&$&@&$&$&&$&&==",
"=$&=-&$=&$&$&-=&$=&$&$&=&$&@&$&$=&$&$&-=&$=&$&$&=&$&@&$&$&=$&=--",
"..###...          .    .               ..#...                 ..",
"@$&&&$@@XX#XX#X#XX@X..X@XX#XX#X#XX#X#XX@@&$@@XX#XX#X.X#X#XX#XX@@",
"@@$&$@@XX#.X#.#.#XX#..#XX#.X#.#.X#.#.#XX@$@@XX#.X#.#.#.#.#X.#XXX",
"@@$$$@@X##.##.#.##X#  #X##.##.#.##.#.##X@$@@X##.##.# #.#.##.##XX",
"X@@$@@XX#..#.....#X.  .X#..#....#.....#XX@@XX#..#... .....#..#XX",
"XX@@@XX#.. .. . ..#.  .#.. .. . .. . ..#X@XX#.. .. . . . .. ..##",
"XX@@@XX#.. .. . ..#.OO.#.. .. . .. . ..#X@XX#.. .. .O. . .. ..##",
"#XX@XX#..  .     .. OO ..  .    .     ..#XX#..  .   O     .  ..."
};
