/* XPM */
static char *SILVER3[] = {
/* columns rows colors chars-per-pixel */
"64 128 56 1 ",
"  c #777777",
". c gray23",
"X c #232323",
"o c #272727",
"O c #170F07",
"+ c #2F2F2F",
"@ c #3F2F17",
"# c #6F6F6F",
"$ c black",
"% c #5B5B5B",
"& c #1F170B",
"* c gray42",
"= c #373737",
"- c gray39",
"; c gray28",
": c #2B230F",
"> c gray34",
", c #434343",
"< c gray31",
"1 c #0B1707",
"2 c #43331B",
"3 c gray50",
"4 c #373F27",
"5 c #4B371B",
"6 c #4B4B4B",
"7 c #533F1F",
"8 c #8B8B8B",
"9 c #1F4317",
"0 c #939393",
"q c #6B4727",
"w c #17330F",
"e c #838383",
"r c #3F472B",
"t c #9B633B",
"y c #37732B",
"u c #732B00",
"i c #2F6323",
"p c #670000",
"a c #533F2F",
"s c #4F3B23",
"d c #B37347",
"f c #A36B3F",
"g c #774F2B",
"h c #332B13",
"j c #979797",
"k c #9B5B13",
"l c #27531B",
"z c #874307",
"x c #574333",
"c c #AF7B1F",
"v c #875733",
"b c #AB6F43",
"n c #D70000",
"m c #5F4323",
"M c #13230B",
"N c #67DF5F",
/* pixels */
"**---**#  3  3 3  # ee #  3  3 3  3 3  #*-**#  3  3 e 3 3  3  ##",
"**---**#  3  3 3  # ee #  3  3 3  3 3  #*-**#  3  3 e 3 3  3  ##",
"##*-*##  3e 3e3e3  3ee3  3e 3e3e 3e3e3  #*##  3e 3e3e3e3e3 e3   ",
"##***## 33e33e3e33 3883 33e33e3e33e3e33 #*## 33e33e383e3e33e33  ",
" #***#  33e33e3e33 3883 33e33e3e33e3e33  *#  33e33e383e3e33e33  ",
"  ###  3ee8ee8e8ee3e88e3ee8ee8e8ee8e8ee3 #  3ee8ee8e8e8e8ee8ee33",
"  ###  3ee8ee8e8ee3e00e3ee8ee8e8ee8e8ee3 #  3ee8ee8e0e8e8ee8ee33",
"#*****###  #     ##    ##  #    #     ###**###  #         #  ###",
",,.=.,,;6<>6<><><6;<%%<;6<>6<><>6<><><6;,.,,;6<>6<><%<><><6><6;;",
";,...,;6<<><<><><<6<%%<6<<><<><><<><><<6;.,;6<<><<><%<><><<><<66",
";,,.,,;6<>><>>>>><6>%%>6<>><>>>><>>>>><6;,,;6<>><>>>%>>>>><>><66",
"6;,,,;6<>>%>>%>%>><>--><>>%>>%>%>>%>%>><6,;6<>>%>>%>->%>%>>%>><<",
"66;,;66<>%%>%%%%%><%--%<>%%>%%%%>%%%%%><6;66<>%%>%%%-%%%%%>%%><<",
"<6;,;6<>>%->%-%-%>>%--%>>%->%-%->%-%-%>><;6<>>%->%-%-%-%-%>-%>>>",
"<<6;6<<>%%-%%-%-%%>%**%>%%-%%-%-%%-%-%%><6<<>%%-%%-%*%-%-%%-%%>>",
"><666<>%%--%-----%%-**-%%--%----%-----%%>6<>%%--%---*-----%--%%%",
">><6<>>%--*--*-*--%-**-%--*--*-*--*-*--%><>>%--*--*-*-*-*--*--%%",
"%><<<>%%--*--*-*--%-##-%--*--*-*--*-*--%%<>%%--*--*-#-*-*--*--%%",
"%%><>%%--*#-*#*#*--*##*--*#-*#*#-*#*#*--%>%%--*#-*#*#*#*#*-#*---",
"%%>>>%%-**#**#*#**-*  *-**#**#*#**#*#**-%>%%-**#**#* *#*#**#**--",
"-%%>%%--*##*#####*-#  #-*##*####*#####*--%%--*##*### #####*##*--",
"--%%%--*## ## # ##*#  #*## ## # ## # ##*-%--*## ## # # # ## ##**",
"--%%%--*## ## # ##*#33#*## ## # ## # ##*-%--*## ## #3# # ## ##**",
"*--%--*##  #     ## 33 ##  #    #     ##*--*##  #   3     #  ###",
"**---**#  3  3 3  # ee #  3  3 3  3 3  #*-**#  3  3 e 3 3  3  ##",
"**---**#  3  3 3  # ee #  3  3 3  3 3  #*-**#  3  3 e 3 3  3  ##",
"##*-*##  3e 3e3e3  3ee3  3e 3e3e 3e3e3  #*##  3e 3e3e3e3e3 e3   ",
"##***## 33e33e3e33 3883 33e33e3e33e3e33 #*## 33e33e383e3e33e33  ",
" #***#  33e33e3e33 3883 33e33e3e33e3e33  *#  33e33e383e3e33e33  ",
"  ###  3ee8ee8e8ee3e88e3ee8ee8e8ee8e8ee3 #  3ee8ee8e8e8e8ee8ee33",
"  ###  3ee8ee8e8ee3e00e3ee8ee8e8ee8e8ee3 #  3ee8ee8e0e8e8ee8ee33",
"3  #  33e88<,........44..=r44+++++4rr44r444rr444444.<88888e88e33",
"33   33e880.+OOOOO1O:=+oo&XO$o$$$$O+&o&+OoO+&OOXoXOX.808088088ee",
"33   33e880.XO1;==o@oO$&XO&OO:O$$$&oO:OX:@:oO$$$$$$O4808088088ee",
"e33 33e8800.XO$-=7o2@O$&XO&&:5:OOO:@:5:@5c5o&O$$$$$O400000800888",
"ee333ee800j.X1$*77@@;::&XO&&O:O::::@O:O@:5:o&&&&&&&&40j0j00j0088",
"ee333ee800j.XXO<<<27m@O&XOXX&:&&&&h4h:oo&:&o&&&&&&&:r0j0j00j0088",
"e33 33e8800.XXO><-=>g@XXXOXXooooooXoo;ooX;oo&O2u$2u:r00000800888",
"33   33e880.X@&<7g@77X1&XOXO$$$$$$&XX&XoXXoo&&$$$$$&4808088088ee",
"33   33e880.X111@2:=o1$&XOX&2uukuu&+X+X+X+X+X&&&&&&&4808088088ee",
"3  #  33e88;+1:1@::2:1$XoXXoo2222@o=ooo=ooo=ooooooo+,88888e88e33",
"  ###  3ee8;.44+4r4+++4=.=...............=..........<e8e8ee8ee33",
"  ###  3ee8ee8e8ee3e88e3ee8ee8e8ee8e8ee3 #  3ee8ee8e8e8e8ee8ee33",
" #***#  33e33e3e33 3883 33e33e3e33e3e33  *#  33e33e383e3e33e33  ",
"##***## 33e33e3e33 3883 33e33e3e33e3e33 #*## 33e33e383e3e33e33  ",
"##*-*##  3e<,........===.===========================<3e3e3 e3   ",
"**---**#  3.XXXXXXXXXXXXXXXXXXXXXXX+&o&+OoO+&OOXoXOX. 3 3  3  ##",
"**---**#  3.=b@d@b@d@b@b@d@b@t@tXXXo&:&X:@:oO$$$$$$O4 3 3  3  ##",
"*--%--*##  .=5757575757575757575XXX@:5:@5c5o&O$$$$$O4     #  ###",
"--%%%--*## .=dqbqfqbqfqdqbqfqtqtXXX@&:&@:5:o&&&&&&&&4# # ## ##**",
"--%%%--*## .=5757575757575757575XXX4h:oo&:&o&&&&&&&:r# # ## ##**",
"-%%>%%--*##.=bqfqtqfqtqbqfqtqtqgXXXoo;ooX;oo&O25$25:r#####*##*--",
"%%>>>%%-**#.=5757575757575757575XXXXX&XoXXoo&&$$$$$&4*#*#**#**--",
"%%><>%%--*#.XfqvqtqvqtqfqvqtqtfdXXX+X+X+X+X+X&&&&&&&4*#*#*-#*---",
"%><<<>%%--*;XXXXXXXXXXXXXXXXXXXXXXX=ooo=ooo=ooooooo+,-*-*--*--%%",
">><6<>>%--*;.4444444444=.=...............=..........<-*-*--*--%%",
"><666<>%%--%-----%%-**-%%--%----%-----%%>6<>%%--%---*-----%--%%%",
"<<6;6<<>%%-%%-%-%%>-**->%%-%%-%-%%-%-%%><6<<>%%-%%-%*%-%-%%-%%>>",
"<6;,;6<>>%->%-%-%>>%**%>>%->%-%->%-%-%>><;6<>>%->%-%-%-%-%>-%>>>",
"66;,;66<>%%<,........*%<>%%;&&&&$$$$$$$$$$$1w1$$$$$$,%%%%%>%%><<",
"6;,,,;6<>>%.+OX=+oM&O*%<>>%.:aa2+.;;>;.$$$$sc2$,;;.$+>%>%>>%>><<",
";,,.,,;6<>>.XO.#%<o@O*>6<>>.:sa:1$$$$$$$$$$:5:$$$$$$+>>>>><>><66",
";,...,;6<<>.XO+-<;o2O*>6<<>.X27:$$$$11:1$$$1w1$1:1$o.<><><<><<66",
",,.=.,,;6<>.X1+;;7@@O*>66<>.X2+O+<$$$:5:$$$sc2$:5:$=,<><><6><6;;",
",,.=.,,;6<>.XX+<<<27O->66<>.X=@Oo$$$$1:1$X$:5:$1:1$+,<><><6><6;;",
";,...,;6<<>.XX+><-=>1*>6<<>.X;XO=$$$$;$1O&$$$$$o$@$:,<><><<><<66",
";,,.,,;6<>>.X@@<7g@7X*>6<>>.o>O1-O$+++$$>@=$$$$+X=X>,>>>>><>><66",
"6;,,,;6<>>%.X1:7@2:=X-><>>%.:2O1:$$$$$$$$$$$$$$X$$$=,>%>%>>%>><<",
"66;,;66<>%%;+1:1:111:-><>%%,&;X1=$$$$xzukuzx$$$@$$$:,%%%%%>%%><<",
"<6;,;6<>>%-;.44+4r4+1-%>>%-<..............=..........%-%-%>-%>>>",
"<<6;6<<>%%-%%-%-%%>%--%>%%-%%-%-%%-%-%%><6<<>%%-%%-%*%-%-%%-%%>>",
"><666<>%%--%-----%%%**%%%--%----%-----%%>6<>%%--%---*-----%--%%%",
">><6<>>%--*--*-*--%-**-%--*--*-*--*-*--%><>>%--*--*-*-*-*--*--%%",
"%><<<>%%--*<,........===.===========================<-*-*--*--%%",
"%%><>%%--*#.+++++++++++oww99llwwllwwwwllww+$$:@:$:$$.*#*#*-#*---",
"%%>>>%%-**#.=b@d@b@t@t+Xwwllii99yyww99yl99o$$sks:5:$4*#*#**#**--",
"-%%>%%--*##.=575757575+Xyy99wwllwwiillwwll+$$:5:$:$$4#####*##*--",
"--%%%--*## .=dqbqfqtqt+Xyy99wwllwwiillwwll=$$$$$$$$$4# # ## ##**",
"--%%%--*## .=575757575+XXXXXXXXXXXXXXXXX+===+oooo+=.r# # ## ##**",
"*--%--*##  .=bqfqtqtqg+Xww99llwwllwwwwllww=$$$$$$$$$r     #  ###",
"**---**#  3.=575757575+Xwwllii99yyww99yl99+$$$:$$:$$4 3 3  3  ##",
"**---**#  3.+fqvqtqtfd+Xyy99wwllwwiillwwll+$$:5::5:$4 3 3  3  ##",
"##*-*##  3e;+++++++++++oyy99wwllwwiillwwll=$$$:$$:$$,3e3e3 e3   ",
"##***## 33e;.44+4r4+++4=.=...............=..........<3e3e33e33  ",
" #***#  33e33e3e33 3883 33e33e3e33e3e33  *#  33e33e383e3e33e33  ",
"  ###  3ee8ee8e8ee3e88e3ee8ee8e8ee8e8ee3 #  3ee8ee8e8e8e8ee8ee33",
"  ###  3ee8ee8e8ee3e00e3ee8ee8e8ee8e8ee3 #  3ee8ee8e0e8e8ee8ee33",
"3  #  33e88<,........44..=r44+++++4rr44r444rr444444.<88888e88e33",
"33   33e880.+OOOOO1O:=+oo&XO$o$$$$O+&o&+OoO+&OOXoXOX.808088088ee",
"33   33e880.XO1;==o@oO$&XO&O&:&$$$&o:@:X&:&oO$p$$p$O4808088088ee",
"e33 33e8800.XO$-=7o2@O9&XO&&:2:&&&:@5k5@:2:o&pnppnpO400000800888",
"ee333ee800j.X1$*77@@;9N9XO&&&:&&&&:@:5:@&:&o&&p&&p&&40j0j00j0088",
"ee333ee800j.XXO<<<27m@9&XOXX&:&&&&h4h:oo&:&o&&&&&&&:r0j0j00j0088",
"e33 33e8800.XXO><-=>g@XXXOXXooooooXoo;ooX;oo&O22$22:r00000800888",
"33   33e880.X@&<7g@77X1&XOXO$$$$$$&XX&XoXXoo&&$$$$$&4808088088ee",
"33   33e880.X111@2:=o1$&XOX&2uuauu&+X+X+X+X+X&&&&&&&4808088088ee",
"3  #  33e88;+1:1@::2:1$XoXXoo2222@o=ooo=ooo=ooooooo+,88888e88e33",
"  ###  3ee8;.44+4r4+++4=.=...............=..........<e8e8ee8ee33",
"  ###  3ee8ee8e8ee3e88e3ee8ee8e8ee8e8ee3 #  3ee8ee8e8e8e8ee8ee33",
" #***#  33e33e3e33 3883 33e33e3e33e3e33  *#  33e33e383e3e33e33  ",
"##***## 33e33e3e33 3883 33e33e3e33e3e33 #*## 33e33e383e3e33e33  ",
"##*-*##  3e 3e3e3  3ee3  3e 3e3e 3e3e3  #*##  3e 3e3e3e3e3 e3   ",
"**---**#  3  3 3  # ee #  3  3 3  3 3  #*-**#  3  3 e 3 3  3  ##",
"**---**#  3  3 3  # ee #  3  3 3  3 3  #*-**#  3  3 e 3 3  3  ##",
"*--%--*##  #     ## 33 ##  #    #     ##*--*##  #   3     #  ###",
"--%%%--*## ## # ##*#33#*## ## # ## # ##*-%--*## ## #3# # ## ##**",
"--%%%--*## ## # ##*#  #*## ## # ## # ##*-%--*## ## # # # ## ##**",
"-%%>%%--*##*#####*-#  #-*##*####*#####*--%%--*##*### #####*##*--",
"%%>>>%%-**#**#*#**-*  *-**#**#*#**#*#**-%>%%-**#**#* *#*#**#**--",
"%%><>%%--*#-*#*#*--*##*--*#-*#*#-*#*#*--%>%%--*#-*#*#*#*#*-#*---",
"%><<<>%%--*--*-*--%-##-%--*--*-*--*-*--%%<>%%--*--*-#-*-*--*--%%",
">><6<>>%--*--*-*--%-**-%--*--*-*--*-*--%><>>%--*--*-*-*-*--*--%%",
"><666<>%%--%-----%%-**-%%--%----%-----%%>6<>%%--%---*-----%--%%%",
"<<6;6<<>%%-%%-%-%%>%**%>%%-%%-%-%%-%-%%><6<<>%%-%%-%*%-%-%%-%%>>",
"<6;,;6<>>%->%-%-%>>%--%>>%->%-%->%-%-%>><;6<>>%->%-%-%-%-%>-%>>>",
"66;,;66<>%%>%%%%%><%--%<>%%>%%%%>%%%%%><6;66<>%%>%%%-%%%%%>%%><<",
"6;,,,;6<>>%>>%>%>><>--><>>%>>%>%>>%>%>><6,;6<>>%>>%>->%>%>>%>><<",
";,,.,,;6<>><>>>>><6>%%>6<>><>>>><>>>>><6;,,;6<>><>>>%>>>>><>><66",
";,...,;6<<><<><><<6<%%<6<<><<><><<><><<6;.,;6<<><<><%<><><<><<66",
",,.=.,,;6<>6<><><6;<%%<;6<>6<><>6<><><6;,.,,;6<>6<><%<><><6><6;;",
"##***###          #    #               ##*###                 ##",
"%><<<>%%--*--*-*--%-##-%--*--*-*--*-*--%%<>%%--*--*-#-*-*--*--%%",
"%%><>%%--*#-*#*#*--*##*--*#-*#*#-*#*#*--%>%%--*#-*#*#*#*#*-#*---",
"%%>>>%%-**#**#*#**-*  *-**#**#*#**#*#**-%>%%-**#**#* *#*#**#**--",
"-%%>%%--*##*#####*-#  #-*##*####*#####*--%%--*##*### #####*##*--",
"--%%%--*## ## # ##*#  #*## ## # ## # ##*-%--*## ## # # # ## ##**",
"--%%%--*## ## # ##*#33#*## ## # ## # ##*-%--*## ## #3# # ## ##**",
"*--%--*##  #     ## 33 ##  #    #     ##*--*##  #   3     #  ###"
};
