/* XPM */
static char *SKINEDGE[] = {
/* columns rows colors chars-per-pixel */
"128 128 32 1 ",
"  c #9B3333",
". c #8B2323",
"X c #B34F4F",
"o c #A73F3F",
"O c #BF5B5B",
"+ c #7F1B1B",
"@ c #AF4747",
"# c #731313",
"$ c #A33B3B",
"% c #8F2B2B",
"& c #CB6B6B",
"* c #831F1F",
"= c #972F2F",
"- c #6B0F0F",
"; c #BB5757",
": c #670B0B",
"> c #D37373",
", c #C76363",
"< c #DB7B7B",
"1 c #771717",
"2 c #5F0707",
"3 c #5B0707",
"4 c #530707",
"5 c #E78F8F",
"6 c #DF8787",
"7 c #4F0000",
"8 c #EB9797",
"9 c #F3A3A3",
"0 c #F7ABAB",
"q c #430000",
"w c #5F4323",
"e c cyan",
/* pixels */
". ooo  oX .oOoo OoX oOooooo ..o+ooo .oooOOXXoooooXXXXXXXXOOOOOOO@@@;;;;;XX;Xoo;$ooo .ooo oXooXoo .ooo oXooXo ooo. ooo  oooXoo  o",
"XX oooXoo. oOOOOXoXXXX.ooo oO.O o  XX ooXOOX@@o@XXXXO&OOXOOOOOOO@@;O;XXOXXX;,@&Xo  XX ooo OooX  XX ooo OooX ooo XX oooXoooX ooXo",
". XoXoooo&XooO<&Xo XoX  ooo  OoOXXX .XOoXXXXX@X@@@XOO&&&XXOOOOOX@@;;O;;;X;;@X&X,XXX .XOooXo ooXX .XOooXo ooXXXOX. XoXooo ooXXooo",
"oXoo&XXOoXoXooo&oXo XXooooXoooo&XooXooOOXOXXXXO@@o@OOO&&XXXOOOOO@;OOOO;OX;O;;;;>XooXooOOXOoX oOoXooOOXOoX oOXOOooXoo&XXOX oooXXO",
"Xo X&OoXOooXXXOO OOXoO  XoXXXX<5 o oXO&ooXXOOOOX@@@@o@XOXXXOOX,OXO&&&X;;O;,,O,<6 o oXO&ooXoXXXX oXO&ooXoXXXXoo&OXo X&OoXXXXooooX",
"XoooX&XoXOXoXo  ooOXoO XX XOOOOOXoooXOOXOXXXOOOOXX@o@o@@XXOOXXXO;&OOXO;XOXO&&&&&XoooXOOXoXo XoXooXOOXoXo XoXoXOOXoooX&Xo XoXXoXo",
"XooooX&OXoooXoOoo<&&oXX<XXXXXX<XXoXooXXoX&O@XOOOOOO@ooo$oXOOXXOO;&&&XXO<,,OO,,<OXoXooXXoXoXo XXooXOOXoXo XoXoXOOXooooX&O XoXoXoO",
" oo   oXOO&X<OXX<X&<oOOOOXXoX XX &&<<OXXoO>&XXOOOXOXooo$%@OOXXOO&O&&$X<<,O,;OX,, &&<<OXXo OOXoOOOXOXXOOXXXoo o   oo   oXXXoo  oX",
"  o   oXXoXoXXX<<O< oO&&&X<X5<<5&&<&X&OO$X>>O@XXOOO@ooooo.@XOOOO&O&;XO>6>O<&5&X@&&<&X&OOOXOXX<&XOOOXXOOXooX oXo   o   oXooX o oX",
" .    ooXXo OOO&XO&o&XOX&&o<XO5&X<&<<<&Xo@&>>OoXOO@XX@@oo%*oXOOOOO&;@$>>>&&;.%@;X<&<<<&XOOOXXXOO&OOXXOOoXXXoXXo  .    ooXXXooX&X",
".......  XXXXX&<XO<X<X&X&XX<&o&O&<O&&XOO@@O&&6o@<X@OX@@@oo%+@OOOOO&&=$6>6<%=oo&>&<O&&XOO&OOXXoOOooOOXXXXXoX X  ........ XoX OX&X",
"   .  ..ooo oXX&XXOX XOXoX&XX&O<X&O<XoO&@XOO>>oX5X@@@XX@ooo.+XOOOOOX-@>O&>%o,>>5X&O<XoO&&OOOXooooXooOOOXooXoo  .   .  ..ooXoXooX",
"oooo  oOXX<XXX<9<X5<oXoX5X<5&&<&X&OOOX&oXOXo@$o&>&X@@@@@ooo$-XOO&X>@* %O95<&O&OoX&OOOX&oXO&<&X<&XOXXOXOOo&oo&XXooooo  oOo&oo ooo",
"$XXoo oXo &X X&X5X<<o&oXXX5<X<&<<<&XOOoXO&O*21@&OOX@ooooo$$$.oOO&O&@*.@O><5&X %;<<&XOOoX&5&XOOX&XOXXOOOX X&X&XXXXXXoo oX X&Xoo X",
"XXo  XooOoo .oXXXo&<oXX<&oXXX<O&&XOO&OX&8&@:1oO>o1X<Oooo$$$$$$OOXX,@#+@,<&<&+=@X&XOO&OX&5&XO&<OXoOXXOO&O&&ooXXOOXXo  Xoooooo o o",
"XO.ooooo<OoOoO<XXoXXXXXXXoX<X&O<XoOOoo&50&=-.$@<o2*>5oo$$$$$$@XXXX$.++@,@@&&*o>&XoOOoo&5&&&&&&&<XXXOOooO&XoX&XoXXO.ooooooXoXoooo",
"oXo  o  XXO5&oXXOX XXoXX XOXXXX<OooooX&&O<.:o$o<O+*$>5X$$$%$$OOXOX...#$. &5<OXX,Oo%oXO&>&O&>OXOXXOOooXoooXX&XXOooXo  o  oXX& o  ",
"X &o.   oXoO<5oXXOO5O O5OOXXXoXXXXoXOo&&$0%2%%o&8Oo$oO8O$$$$X>XXX@%$.-*$OO>>&@Xo+ooXOO>>>OO;;OoooXoXXoOXXoX&XoXXX &o.   XoX&.   ",
"oXoO;O@XXo6,OO;>,>OO6;=$o@oXX;XX;oXOXoO&>8o:*$o@XXoXXXX&@$+@>OXX %.%%++.oX,<>&.+o%XOOXO&>>XOOXOOXoXXoXOO&XooXo oXXoo o o&Xoo o o",
"$oo;;;;@o,>;;>&&;;;O> . $$$oXX@@  XXXo&&>61:**#*.--$$@OX&&>>XXOO.%.%.++-.X&;,O *XOOXOO&>,@OOOOXO&X&&X&OXXoooooo X&o  oo Xooo oo ",
"$oOOO;XXOOo$O&>XO&Oo=.*=o$$@ooo@=oo$;o&Xo@1:*%#+.#::o$ooX&&OXXOo..%*#.*# @*X,>O@oXOOXX@ooX,OOO;,X&&XXOXoooo X  oXXOo +. ooo  oo ",
"oX<;;oX&;=-.@>Xo<&%**%=o;;=oO@oX o= XXXO.O.1+1o5O-::*oooXXXXXXo#..%*%%**@+%,&>,OoXXXo.ooo;&OXO&OXO&&XXX  Xo ooXooX<o + X Xo  o X",
"oXX@XX&X-1:- ;*;O.=*.X$$o; o6,XO o==;Ooo5$o$1@>>&+22-#.$XXXXXX-#** $$$.#++%@<5<OXoX=+=ooX@@&&O>&OXXXooXooXXoo . XXX  oo oXXo oo ",
"=oX;XO>-:--*.*+=-+-.. o;$o;XOXXo=X*=,oXX$#Xo-o&@@O+22#..O@XO;$-#% X$%%=.#+ XO<>&&O1-.%oooXX&>><oXXXXoooXX XOOo oX&XXX X X XOX X ",
"oXXoO6.-::-o>;-+---.== oo&;=,&;oo=*X&o&5o@$@+-oo@@$#::2+>X@Xo:*$@X $ *-++=% &<>>9X:+.= @oOX&&,@XX&5XXXXXXoooXXOOOXXXXoooXoooXooo",
" XXO,+----@ 1,-*--1.=..@,O@;@X<X=oo&O$XX1.#Oo::#&XX$#22OOOXX22$OX .% *3.%%+ OO559<--.===;O;;>OooXXXXXXXXXOXXXOXXOXX  XooXOXX Xoo",
" XO6.-+-*>o+ @+-:-1=== $;;@,$;< =$X>X*XX0$1<,#2:>>>O.2#6XOO#2$&O$ **$.-#+++=@X<>696o++.oOOO&XX@@XO&XooXXXXOXXooOXXOXXoXo@XOXXoXo",
"$ X;.. ,6<--6$::-*==. o$@O&oO>O== X,o=O&&#8X8.::.86&.2@<o>#2$XX; %.% %..#%=+@&>XoOOO++oOOOO XOOXoXXOXXXXOXXOX oOX XXX  o@XXOX  o",
"$oX,6<;X6$3+8$433. $=$$o;;;XX;Xo=o,&o &52.O.0o:::>X6*2O&@@2#<&Xo%.%@.**.*+++ &*%X>6Oo=o@XO@@@@O@XXXXXXXXOXooXoXOXoX XO $oXooXO o",
"oXX;X$$.5#3=9&--2=====$@XX;oX6,=*o&, %&52.&+5>22:OX8::<X@@*>XO&o @$%%.%%*+%#%$=@O&9>Xo XXo@XX@o@&OXXXX&XOXXoXOo XXXoXXo.$XXoXXo.",
"o o%$O$>$34$59.w2.  = $$ ooX=XX =O>,Xo&&:.5#=0.:2>X>2oX@XXXXXXX&O  $ @ %++++:#+@oO6<&oo o@X;XXX,O&XXooXXXXXXXXo o ooXooo@XXXXooo",
"o  =$880747X>86-#=  =.= X$ @oOo *XX,X@O&#%8+:O&226@X&O@oX@X;XXXX $  $  %+++##+% oO>6<& #o@XoXXO&XoXXXXXoXooOX ooo  oooXoXooOooXo",
"     88&7<3X,<8##=  *1 = .;ooO =*XX&o &&#o0#2*8#XXoXXXoo@o;XXXOX@ .-*3*. ...@=*.X@o&&6 +$oooo;<@XooXXXooXoOoooOo    Xoo XoOoXoo ",
"@XX oO5Xo07&OX8X#.  .1*1 XXooX=**;oXX;OO+O8-22OX@o@oooooo@XX;XOo-31*....#:# X.#.o@ ;&5,+ @$ ;O =XoOooXXooXXoOoOoXXXXoooooXXooooo",
"O&&$* 8X<<-OX 8>#1.  1:*@@XooX **ooo;&OO+X&.#2+,@@oo@@@@@@X;XX22##. %   -4:%@XXX=@OX,66%o ;;;==oXO5OXXXOOXOOOXoXO&&Xo o OXOOo o ",
"X&< *XOX<O+&$.6<.1  X*-=;X =X,#1-X =OOXo$XX$o$*X@ooooo@oo@@XX;o@%**#.* o=-#XX@@ +%X>o 6X=O>@== o<X&&XXX oXXXXOXX&&<OX &.oXXXX   ",
"oXo$$:-8,o$>.*&> -..o*.=o=% XX:::X *OOo*OO12:.oo@oooooo@oooooo$**-:#*.% @eO@ ==*#*> +X<>&Oo== ==X X<oXXXo  XooXOoXooXo  o  XXo  ",
"o  o=$=Xo =X+- &X1*.  .$*:- ,o3:-o=*Oo* ,=##..%%@ooooo$oooo$o$+*-#-::*%%$$X....=+*O. &&>5O%.o@=.X&ooooOXoXoooo Xo  XXo ooXooXo o",
"Xo -477-+=7=33.X> 1=o  1-*= $ ::* .*X %@o-#+.+.$o$o$$$oooo$..+-:7473#..% =.. .==++**oO<<< *o,o@@oooXXooXXXoooo .Xo  o.oXXXooo% X",
" X X ..-1*3.*.* X@= @o.--=% X=331o* o**O-:*+++#*$$$$.$$oo:2222424777#:.%  .# $==+++.$XO&&. ;$=@;oooo.ooooXXoXo.  X o .X oXXo =  ",
"o  **=1+11:--**%X@ oo -11 %=; :3=.1,o:*@2:.+#.#.$$$$$$$$o%2224447q77#+#*$ *#.%.%##*.%@o,;=%@* ;oooooooX    oo . o    o+X   o o= ",
".  111::-13:-*.-=X @;--..=*=oo:-o=*6o#% 4#+-#++..$.$$$$$$oXo$-42qq77*##.. =#*.=.%%**%XX$= = $oo .o.ooXXo o oo .o.     ++ o o  %+",
"   -::---.-1:1*1=X ,*-$ .=*=o=--X*oOX;o%2:--::-+%$$$$$%...++.#22q77:*.#*.%=.#..=o%*#%,$%.o o$= o ooOOo oXo   .oo    ..o+Xo  ..o+",
"..#-:::1:1.%*1+.#X@O-:  ==.= =#*o=,@,6 *224#222+$$$$*####-#--224qq73*.-+=....* $%.*+%%.X@ooo= o@oXXOOX.oooXo oo ..#o... ooXo=%. ",
"o..:::-1*1**.1+**XX;+-  ====o -*==oo@  .222:242.$$$o.222422242#24q34*.1-..% %*  %#.#:+*<O@ == ooXoXXooXo.ooo oXoo.....  .oooo=  ",
"  ..*--*-1=*..##-&@X##$=. $= =-%.-**#-o%$.#-22#$$.+.o$#-244222-24:-:*..*..=.%=%=**+:#*.O>@ ==o @oXOOXoooo  oXo o  .X   oo  o   o",
"XX .##**  *  *--.>o@-*$o=oo%==-==*$.-*@%2.$oo$*$$$:2####+-2222-2:*##*.**==. ==  %#::#%%@<@o ;oo;oo&OXo oXo  ooo XX  ++.  o  oo. ",
". ooo  . .ooo *+;@o$*==ooo . o#ooo;X$% *2222##.$$$+2222224-#22-2-.#.*.%.*#% =.@X%#*%X%+o5;o@o=@OXOOooXooX  o ooo. ooo  .   oo  .",
"o   o    ooo  *o$=X +$   ooo  *ooX,>, %*222242-*o$%$#22::2###-2-**%.*..*... =%o@*= =.=X&&  @+=@@XXOX. XXX  o  ooo   o      oo   ",
"oo..oXo.ooo    X==$$=@ .ooo   * o@XX>;**2242222#oo-2#:2424#+--4#**......=... ==@= .* @o@@o=@= ;ooo  XX  o  .   ooo..oXo..  .oXo.",
"o.o   ++oooo .o .o===ooooooo .*  @@@,X %22-#--#-+o.4442222+.+-4#*%..*.%% %.% ..@  %.. =  ooo% @@ o  . ooo+ ..  oo.o   ++*+ .o   ",
" .oo +    ..oo;+%;$o=o*o  ..oo  %o oXX@ 2-244222#+o.##-4-++$+#2#.  %*.%=%.#1@o=@.=.*.=.X@oo =o;;   +o   o+ oooo  .oo +  *+ oo  .",
"  .+o  + .+.   =$X$oX*#    .   XXo.oXo*%*#$$.#-2+#..+-22#++..#2#* $%*..%=.*#@o.O$=*.**=,oo@o o@ooX.  ooXo +: oo+  .+o  +. +:+ . ",
"#. .. . +#.X  +*,o=X-#    oX    o  oXXoO06O.%$-.$%-..2::#...o+4-% % **.%=..= @=X .*...* O; o @o X  .+ oXo .. o  #. .. . . ..   +",
":###.+:## X oo#$@oX.3.o+. X oo..o ooo oX>66%.ooo..2-%.-2+..$o.#2* $%-.%... * X*@$*..*..=O@ooooo@+X  .  oX . #+ +:###.+:#% . ++ .",
"+##++++#.Xo   *@ooX+%= X Xo   ..  .o%%oO>6&%%ooo#%--+%#2#.$.oo+2. $%..% % %* @.@=**  *.=>; ooooo++  +. +o o#+o ++##++++#. o# +. ",
" .+:+. .. o X +@;oX=*.X   o X  o$ %%1+XXOO$%.X%+$.-*-..:-.%.oX.#*%$$*+$%.##%XX%&===  .. o@oooo= o+ X  .oo  ..X    +:+. .%  .+. .",
"   +   + X    ==OX *.XX+ X    X $%%.2 oX@.+#:5o%.$+-#*24-+%$@O$#*%$$+1%.*++*$X%, ===...$ooo=.@  . + oO  oX  XOo    +   +oX     +",
" X .ooo. Xo X +@XO**O$= X   X   *%%*:o%*$#.7+<XX@oo+2+#4--$o@Xo.-%$$+1.*.%.#oO%,=  **.=@@@@== ==  X.+ o  oooOo X X .ooo. oooo   ",
"o      o X  o =@ X $@==  X X    1..11%123#7:.OXoXX.--2+---$ooXX%-$$%#2*%$.#+$,+O=o%#.. oo,o .o   o   ..o +    X X      o +  o..o",
" X  + X    X  ;$=  =$+* X   X   ...**1223:#:$<o%@o4%:#:+-+oo@X@$-%$.::$$.#+#oX+O @%*.=ooooo===       . o .   X   X  + X  .    oo",
"o +o X   X    &$$ =.*+%+ $%***&@%*#1 ...2---@8oX@o@.$#.-:.o@o@oo*==*2$@*#$.+$$%Xo$.. $@$ o ==   .   oo  .  X    X +o X  .  X oo ",
"      X X      X  .  o   ***$o  .%*1.. .2#-+o<O+@.%o+%#+.%@oo@o$*$$%%=11%%%$o%+Xo@**=$X @@.+++.=o ooo  .. o  X o      X . o  .  ",
". X  X   X    .  . o . X =*.X.#.%..*1*..+#-.oX>X-2+.#*$-%$o@oo%$.$$=$:1=%$o$$*:XoX*.. ;o,o+.++=. o o..o.  ..   oX X  X    ....  ",
"..+ + X    X o.  + o.. +.*@X *#.%-**#*#1%-+%o245O:+X%o.$$oX@oo%$.=$=::%..Xoo%*1X@X . X$     oo   oo   oo o..oo X .+ + X  o.. .  ",
"=  .   o X  o    . o ..  @@@ ** *:#%**1..:+o+:-+&6.2>O$#ooXXo%$+72;$2+.$o%.+$.%O@X=%$&o@ o  oo o o. ooo  o    Xo   .   o o   oo ",
".  .  ++. XX   X #    .  o%* **X*## ##% %$XX--%#$6O#*O>.o@X@%+24%1X%3$$X.##1X%$XXX.%XO$@ o o    o XX  o.oXX   .    .  ++. X   + ",
"  oo +    .. oXo o  + oo %##@*%o###1#**%@@+-o@$%+@O<.+X8XXXo.#4-$*$.3$X*#+:+X%o$ X .o;$X  o  XXo  ooo   o+ ooo..  oo +...% o +  ",
"ooo   ++ ooooo oXo +   oo**%$#%@1####:*%@@@%+XX$**@X@-*oXO@o.22.=1==$X.1%+#%$.oo @$ o$ %o oXooXo ooo. ooo+ .. ooooo   ++.% .  + ",
"oo..oXo.o o Xo oo  oXo..o**%   O**#:*+*ooooOo+XX%:ooX.2.OO@o@44.+*$$;$1.%*+$%ooo@@ =;@*$oo OooX ooo XX  o  .   ooo..oXo.   .oXo ",
"o   o    o o   .oXo  X   **@**O@**###:. ooXOOoo>O4%X+X+*OX@X@#-$..$$$=%%%.%o%*OXO@@@o. $ooXo ooXXXOX. XXX  o  ooo   o   X  oo   ",
". ooo  . .oooXo .XOXOXoo #@$*%&o1 *#*#* o@OO&>Xo<XXO:#XOXXXXo#.$.=$@==%$.+oo%*OXOX@$$ % OXOoX oOXOOooXooX  o ooo. ooo  .   oo  o",
"XX  + . XX ooooo. X&&O  XX@** ,@# =**+* o@OOO&&OoO5&#@Oo@XXo.2:+  XX$@%%o@oo  oo$@X .$$oooXoXXXXoo&O&o o>X  ooo XX  + . =o  % oo",
" oo+   +o o oXo < &OOoooo@%*$$,O#.**#** @XOOOO&>&X&<$oXXo&X.222#@@;@@%.%o@@  $oX=OX$.=@$XoXo XoXoXOO,oo$<  oXo o oo+   +=  o   o",
" o +++ .oXXoXXX oo<&&OOoo%*$$ ,>.**###*%oOOXOOO>>>X&oo@@OOo#42+$$X,X@%. X@@@  %&  ;@..==oXoXo XXXoXX<oX>.ooo oX, o +++ ..oo%o+ .",
" oX  +.  XOOoo  O<X&<OOXX$@$# , #% *%%**$XOOOOOO&>>OO@@o&X@#2#.%X,X$@@@$@X;o=@@= X&O@@ =Xo OOXoOoXXO<XXOooXo X;X oX  +. ooX %+. ",
"o o +oXoo OOXXO<OOX<X &&&X %#%&$#*%.***%.@OOOOOO&>>>OoXoXXo#-..oOO@XX@ $o@@o= .oX &Xo =ooXooOXoO oXOo;,oXo XXoX%o o +oXoXo  +oXo",
"O X  XOOXo &&&&OXOO&Xoo&&=#=*;<@1.**%$%*-$XOOOXOO&>6>@@XoOXo+.%oXXO,@==%@ooo $%$@=<$ O@= XXoXXX .ooo,OXo XOXX%.oO X  XOOXo o XOX",
"XO   oOOo&oo&&XO<OXXXOXXX===%<<O* *#@**.2$oOO&OOO&>&6>@XXOXXooXX&OXX%.+% Xo oo=..=>X#%=$.XOOoo  $X$,;o.XOOX%. o XO   oOOX  o oOo",
"Xoo .oXXo&OXXXXOXXX<5oX O=#=X,&X%%.1@  %2#$oXOOOOO&>,&O@o@OOOOOOXX$%$-%$o;X@ =**.oX$%=o$o OOXXOXo$&O.%,O;o.%XXo XXO .oXXoXXo.o&X",
"o   o. XXooX OXXOOOOOoo o$$*%XX$==@%oo%%#-.$oX&OOOO>>XXX%oOOOOXXX$%%..@%;X@@o$**Xooo&X  &o &&&&$X,O  OXX$$XOO$ ...  o. XXXo o ;&",
"OOXXo .o Xoo oXOXXX<XXX   $* &;$*$o   . =#+$$o@XO&XO>&O@+oXOOXXo%+* ==X%@XX@ %==.#.O<o.o5&oo&&%$<&%$OXoX&;O&X$ XOOXXo .oo  oo @&",
"&<OooX&o oOo  oXoX XX XO *@%%OX@$@$1*XOO$+:.o$o@XOX@O>O$$@XOXXX*#.* $%X$@XO@ .=Xq3#o&<<<<&OXXX$<,%$&X X,OO,X@$.O&<OooX&oo   oX&@",
"&oXoooXOo.X& X X X $OX;;@#$X ;$@;$%# ooX$.-#$X$.oXXXoX>X..oXX@.2-.% @%O$@@;,== X#q+&<&&OoooX O9@1 >X=OO ,OXX$*o>&oXoooXOo   ooXO",
"o&XXXXooooo&Xooo.$@;X@O;@*@OX&$@ %*1 ==*o$.-+oX$.$o@o%o5X-#oo@$:*.$XX%, @;;,o.%$<9<OXXX oXoo>5$1 >X%> .O@X;@.oO<o&XXXXoo oo XXoo",
"OoXXXXOOXoo. o + XX$%$X,&o; o$*.**.##::#:$$ ## X$+.$$o++<o#+%@o:.$ @X%,%X;;o%. $OOO   oXoo$6&-.,5%:13# $ XX. X& OoXXXXOO@oooXXOX",
"oOX  oXO oX .oX@= X$@;@ ;X$+.%.=#.$%:1+#74=$$.#.Xo++.+.#$%4$>Xo..  @;$,%oXO@*.%oo . ooXXoX>;%X<&5*:;;-**>@-#;<  oOX  oXOX@ o oXo",
"Xo X oXX  oXo oX@;$;,;@@;O$*%#.+#.%@++.+47:$$$ *+Xo##+#%$2428X@o%$o O ,%o@;;.* XXX .OXXX%oX%$%:-&6.++-#O;#-@<o  Xo X oXX@@   oXX",
". X  ooXX  .oX.;@X;XXX;@,@$$%+:#+%..X+.%#47:XX@$+#oX%oo@24:oXXXo%O$%O O%@@Xo. . @$*...$o$131:: <<::%3-. --$>Xo  . X  ooXooo  ooX",
"......   Xo ooo@@;X@XX;@O@X,%.#+#$=:@$.%..:4-$@XX.:oo+%::#-o#X,o$, .;@O  XX@%  @=$$.*=;@#:11 >5$+*%;3* ** OXX ........  Xo o..  ",
"  .  ..o  oooXo@;;;@;;OXO$XX%.###%$##X%+...:7:$@XX$-#444oo45>X,X$> .XoOo @@@ $o .=o=*o=*-.$;5,::;115=X -.X@@@ .   .  ..ooo   ..o",
"  +.. ..    oo @@X;@@XOXX%$%++#+#+$%#%O$#...#4:@XXo*.%-#X#:XX,,X@, .$@OX  @   =@$==$@=.=o$X6,$1 *3=8 .--XX$@  +.  +.. ..o   . ..",
" .   +.     oo.$ @;%@O;&$#+#.+:#++*X##$O%...##3:$Xo$++.@X2-$X,>X@>.*$@;X     o= @=@O%*%$%XXX&%1*316.:3-$XX   .   .   +. XX   +. ",
". .   ...   ooo$$$@$>XX,%##.X%#.*+#$%.*$XX ..##32oo$.+-.XO@XO,>O@& #$$@O=  oo@@X;o$*%$o$.1+$%*1:-O$33-%@     . +. .   ..      ..",
"  .++.+#..  oo     O<>&X%.%$%$++%+#%$%%*%XX$$$.:2:o%%>:2XO,OO,>OoXX- $@O . @@;XOO$*$@@o$o13*1:3:*;:3:.  . . ....  .++.+#% . +.+%",
"...+++++...oooo .  X,>,@@$.OXX$+%:#*,%$%%%$X $&$#%@X-XO2XO>O,>>,$ ,#.$@X . X;O,;.*o@<o@=%::--3::X+4-* #+.  ........+++++.% .+++%",
"..#++#+..+   o  ..o$O,X%$$+@$$O#$%##$%$$$$. $.@O$+XO-2<OXO,,&>>>$%O$*$@;o=@XX,X%=@@;@o=.*3:333++371*.*+++... . ...#++#+.....+#. ",
"+##.####++.oXo. +  %$@@+##%@#+X:.$##%%+$@$$..%#$X--$47X<XX>,,>>, .XX.%o@$ @;,X. ;;Ooo=*.#:::+11+==**% . ...#+...+##.####...###.%",
"##3#... . ++    +.o.%..###X%*+X.+X+#*.1%O$ %$*33o-:o-4OXXOO,>&,, .@O@%$O@Xo@@oX;;O@$=*#**1*.*.$   %## .#.+##.++###3#... .+##...%",
"#+:+#+#.:#+ + o Xoo#.+###+@%%.@X.X.:.%.+$+ ..X*744.-$X+2.@O>>&,,o $OXo$@$@XX$X;;@o=.===**.% $oo$X$#+###+###3# ++#+:+#+#*. +.++.*",
"#++:++##+:*%%%3:1%:4:#::#*Xo  oo#,X2#..$XX@@:.&$44@@4OX.oX,>>&&,@  ;;X;X$@XXXX@@@$=.=..oO.@>$$X,X#+##  ++#+:+ ++#++:++##* +..+*.",
"+###+#+#3+%13:3:%#::$#:#::.*#*##:X,##..%$@$%** Xo.o+#%ooXO,>&&,&@%%oXX@;X@@X$@@@==$o==oo .<;$@>X.++#+  #+#++:++ +###+#+#+...+++*",
"++#:#+##+*%%-::#%::O%*:...o*%@%..;X:1*.+-$X.#  -.o:2o%##$@,>&&&,o%%@@@XOoXo@=o@ ==@=oo=@,%XOXO$ X +:#+++ +###+++++#:#+##. ..+. .",
"+##+.+++#++%*::@#3@&####.%X@oo @%%o##*#+##X@:.=.::77%X.7.oO,>>>,$.%@@@@XX;XoX@@;oX@o$$ooO$@&X$. .+#3+#+#+++#:#+ +##+.+++%  .   +",
"+##:+ #++#.%#3% :#6$#.#::####2:##%o.*.#+#:.O.- %#:-2.7,%.@&>><&X@%.o@X@;XOO;X@X@  o X  o X  . o #.#+#3#+ +##+:+++##:+ #+. X .o+ ",
"..#+++#+##=%3:@:#X&%1.*:#.**.oo.:####..##::@O*#%*:+#X7*9X,>><&OX$% o@@@X$XO;@;;o X    X  ++++ X +++#3#:+++##:3+ ..#+++#++   .. +",
"o +#+ +++. %:;%:%5@%*o#:#.*%oo% .#::o*%+-43*&&#3+:##X.7&>6<>>,Xo % o@@@X$@X@XXXXX   X    +  +  ++#+#.:#++..#+3+ o +#+ ++:+  . %.",
"  .++  +.%X# @#:O6  % .##*..o=%oo*:.X#.*3::7*<$:-22#%&2#$&&&,X@$*.$Xooo$  @X@o@@ X X    +++ +. + ++##+:#.. +#3++  .++  ++##+  %.",
" oo    ++% 1X%:#6O  %%ooooo*.o.Xo##:% 1$::#37=<%2722%;.2*O&OXo$o*.$Xo $%% @@@Xo@X X oOoo   + ++  +#+#3+:#.o.+#++ oo    +###:.  %",
".  o o  +#+XX#3@6@$@$*:#.@@oXo@Xo#::#X..%-:333OO#777.X,-X>,OX$$.. o$ %%..% XX@ @   oOX   ++  + . #+##+:+ #.. ###.  o o  . .#..  ",
" . oX    + O%##&6;$@$...#::##*O X.2###;...32:#*&o.27:X,6&>,Oo$..% o%..*%o=@XX@ X<o.XX.. .+   +++ .+++#++++ .#.##+. oX   + ++ o  ",
" .oX oo +##%##%6&@$XX%##.##o=*O 5X:::2*X*O3%&X#%6.227.X<,,;Xo...   .*.. %% @ @$<55# o+#o=.+ + + ++ #+++++#+  +++..oX oo .+:#.oo ",
"...X  Xo ##1:# 5,@$$XX%#*#*.=o@#O>*::4:$$$.3X-3#>X+27:XX,,XX@ooXXX.**.%$o@XO@,@X;@%@.$;$.+++ ++ +++#+#+#++#++:+....X  Xo=%+#+.o=",
"  .oXOoO # :## &&X $@X&=.#% .;=1=,@**#2:X.O-.>-3@&o+77XXOOXXXXX,X14***$$@X&X&;o, .*o$;@$++++  ++++ +++#++++#++#.  .oXOoOoo .+.  ",
"+ . XXO&+ +1#:X&&;@$@@XXo@oo@O*@#O;...:4#X$.7XX7+>o.+:.XXXOXO&,@*7-**.$$XOX&O@X,.*% @X .#:++++++.++++#++#:+:##+++ . XXO&X +:.  +",
".. ooooX ###:1>6XX X@=@@@ %*oX o:*oo=o*:7X%%-.,%-XX..27%,,O,&&o#72+**$$XOO,&,,O@.%%@;; +###++#+ ++++##++++##+#+... ooooX +##%.# ",
" + .+:+oXo #*%&<OX@X;@@ @o==@@XX*.@o.= +7.<%.X@o+.,..+4o>&,&<o#44-+.$$XOO&&&>&,@oo ;$ @ +   +++  ++3#+ ..#:+##++ + .+:+o.%+:##+%",
".+  +#3+.#3##%&&X@XXXo@oo =oXX@O== ;@ o +-XX+%.o$-XX%#oO,&><%.721-**$XO,O>&&&,@XXo@O; @@++  + . o +3+#..++#:.#+#++  +#3++%.+##.%",
"+ X ++:333:#1%&>XXXO;X@ooo =X@X  =@XOo@ o.%O%+%%.#.Xo$X,&<<X.22#11*%XX,>O&>&,$XO@XO;O@@$= + ++  . +3:##+++:#3#+++ X ++:3+  %+   ",
"# o .++:::.#1 &>,XXX; oo@@o@@= oo  @@oo+o,>..@o+++-.OX,><>X.2:#+*.%$X,<<,&&& @,,,;X@$$$%++ +. + +++:+##+ +#3#+#.# o .++:%       ",
". .   ++. X%1 &<&;XXXXXoo==oo=XXXo=@oo@ .@oo<<X++-2o;O,,O@.-#+.%=$$;><<<&>X XO&&,; @$  $+  +  +++ +#:#+++#+#+3#+. .   ++.%   X X",
"X   o+    .#*@&>>OX,XXXoooo ==@@=@   ;@ X.2.>><>&++@OXO@-2--.ooo$X,&<<>>OX XOO&,$@$$$X$o++++ X +++++###+ +++#:+ X   o+  ..%   X ",
". X X ++ oo%%@&<&OXO,X@ @X =..o;=@@@ooX O@%.$X><,&OOXXOO@Xoo@@XX>>O,>,;O$$&O@XXO @@X@@@oX  . o  + ++:++#+#  +#++. X X ++...o X  ",
"  o  Xo.o o%%O&X&>XX&XoX@X@*=Oo&@X@oo oXO@oX%+XO@.@OXXXO,,,O,&&<>>OXO&X$O&&X$O,Oo@@@@  ;  X  . . ++ +:+#++  ##+#  o  Xo..+   Xo.",
" +       o %%X;$X&>O>O;o@@o.=XO;&;;Xo OO&O*.@oo$Xo.XOXXX&>><<<>>&>O;$O%$&&OOo O&OOO;@ ;OooXo ooX ++ #3###+###+#. +      ++.o    ",
"   X   . .o%1@%% ;O>>,XX@= oo@O@,;XX;@@O>&o&>>>*+XoXXXO&><&><<>,XO>6O=+;OXXXX  X&OXXO@X&OXOoX oO+#++.##+.#. ##+#   X   .. ++   .",
"XX  X . XX $%11#%%$;,>O@ $= @@X@@OX@X;O&&&&OOOO&$.XXXO,>><<>><>&;X>>>O$;OXXX$X*+;OX@;;O&ooXoXXXX ...+#... .  ##.XX  X . .X  X . ",
".oX    +o o%@O;%$#** @o@ .  @XXO ,;;;O,O&&&&OOOOXo@OOO&>>><<>>>OO$<>>O;;XXOX%$X%X&XX;OOOXoXo XoXo. . .  +.   o.:.oX    ++ o    +"
};
