/* XPM */
static char *SKIN2[] = {
/* columns rows colors chars-per-pixel */
"128 128 24 1 ",
"  c #9B3333",
". c #8B2323",
"X c #B34F4F",
"o c #7F1B1B",
"O c #A73F3F",
"+ c #BF5B5B",
"@ c #CB6B6B",
"# c #731313",
"$ c #DB7B7B",
"% c #8F2B2B",
"& c #670B0B",
"* c #E78F8F",
"= c #972F2F",
"- c #831F1F",
"; c #5B0707",
": c #A33B3B",
"> c #771717",
", c #F3A3A3",
"< c #AF4747",
"1 c #BB5757",
"2 c #4F0000",
"3 c #6B0F0F",
"4 c #C76363",
"5 c #430000",
/* pixels */
" OXOOXOO .OOO OXOOXO OOO. OOO  OX .O+OO +OX O+OOX@+++X+XX+XXXOO X .O+OO +OX O+OOOOO ..OoOOO .OOO OXOOXOO .OOO OXOOXO OOO. OOO  O",
"O +OOX  XX OOO +OOX OOO XX OOOXOO. O++++XOXXXX.O$$@X+++XX+XOOX OO. O++++XOXXXX.OOO O+.+ O  XX OOO +OOX  XX OOO +OOX OOO XX OOOXO",
"OXO OOXX .X+OOXO OOXXX+X. XOXOOOO@XOO+$@XO XOX  @X++@++XX+OXXXOXO@XOO+$@XO XOX  OOO  +O+XXX .X+OOXO OOXX .X+OOXO OOXXX+X. XOXOOO",
"  OOOOOXX@OO@O++X O+X++OOXOO@XX+OXOXOOO@OXO XXOOXO+@@+++XXXXOX XOXOXOOO@OXO XXOOOOXOOOO@XOOXOO++X+OX O+OXOO++X+OX O+X++OOXOO@XX+",
" OOXXXXXX@X@X X+XXXXOO@+XO X@+OX+OOXXX++ ++XO+  +OO@$@++++XOOXXO+OOXXX++ ++XO+  XOXXXX$* O OX+@OOXOXXXX OX+@OOXOXXXXOO@+XO X@+OX",
"X  OXX++XXOO@@+@ XOXOX++XOOOX@XOX+XOXO  OO+XO+ XXXO@$@+X+XOOOX$+X+XOXO  OO+XO+ XX X+++++XOOOX++XOXO XOXOOX++XOXO XOXOXXO OOXX@XO",
"OOO.+XXOX@XOX@+O XOXOX++XOOOOX@+XOOOXO+OO$@@OXX$XO+$@@++X+XOX$,@XOOOXO+OO$@@OXX$XXXXXX$XXOXOOXXOXOXO XXOOX++XOXO XOXOX+OX O+OX@+",
"O  OXOO+XX@XXOOOXXOO O   OO   OX++@X$+XX$X@$O+++OXX@@@+@+++ O@@X +@X$+XX$X@$O++++XXOX XX @@$$+XXO ++XO+++X+XX++XXXOO OXOXXXX  OX",
" .O@ XXXOX@XOXX+OOX OXO   O   OXXOXOXXX$$+$ O+@@O+X@@$@++@O. OX %OXOXXX$$+$ O+@@@X$X*$$*@@$@X@+++X+XX$@X+++XX++XOOX OXXO XOXO OX",
"O OOXXO OXOOX@++XXXOXXO  .    OOXXO +++@X+@O@X+X O+@@@@+@+O . Oo%XO +++@X+@O@X+X@@O$X+*@X$@$$$@X+++XXX++@++XX++OXXXOXXOXO XXOX@X",
"O  O@X OOOOOOXX+XOX X  ........  XXXXX@$X+$X$X@X X+@@$@@++O .Oo& XXXXX@$X+$X$X@X@XX$@O@+@$+@@X++@++XXO++OO++XXXXXOX X  ++XO++X@X",
"o O+XXO  X OOOOXOOXOO  .   .  ..OOO OXX@XX+X X+X.O+$@@$@@@X .o&.OOO OXX@XX+X X+XOX@XX@+$X@+$XO+@@+++XOOOOXOO+++XOOXOO X+XX$@XOOX",
"o O$XOOXOO OX  XO@OO@XXOOOOO  O+XX$XXX$,$X*$OXOX.X++$$@$@@O o&. XX$XXX$,$X*$OXOX*X$*@@$@X@+++X@OX+@$@X$@X+XX+X++O@OO@XXOOOOO OOO",
"O  XXX . OOXXOOX X@X@XXXXXXOO OXO @X X@X*X$$O@OXX++$@@$@@++O.   O @X X@X*X$$O@OXXX*$X$@$$$@X++OX@*@X++X@X+XX+++X X@X@XXXXXXOOO X",
"XOXX@XO O++X XXO@@OOXX++XXO  XOO+OO .OXXXO@$OXX$OX++*$@++@++ OOO=OO .OXXXO@$OXX$@OXXX$+@@X++@+X@*@X+@$+XO+XX++@+@@OOXX++XXO  O O",
"XOXXX+++XXOOOXXX@XOX@XOXX+.OOOOO$+O+O+$XXOXXXXXXXO@+@**@+++OXXO =:O+O+$XXOXXXXXXXOX$X@+$XO++OO@*@@@@@@@$XXX++OO+@XOX@XOXX+.OOOOO",
"XXXXX+XX+XXX+XXXOXX@XX+OOXO  O  XX+*@OXX+X XXOXXXOX@$,*$++XXXO O::+*@OXX+X XXOXX X+XXXX$+OOOOX@@+X@@XX+@X++OOXOOOXX@XX+OOXO  O  ",
"O+X+XX+OOXX+XXXXXOX@XOXXX @O.   OXO+$*OXX++*+ +*+X+$$*$@X++XO O OXO+$*OXX++*+ +*++XXXOXXXXOX+O@@@XXXX+XXOXOXXO+XXOX@XOXXX @O.   ",
" XXX X+O X+XX+XX@XOOXO OXXOO O OOOX  XX*O+XX$XXXOXO@$$$@@+XO    OOX  XX*O+XX$XXXX+OXXXXXXO+++X+@@@X++X++XOXXOX++@XOOXO OXXOO O O",
"XOXXOX+XOXOOX+XXXOOOOOO X@O  OO .OX.o@$@OXO @XX +@@$@$$$++O    O.OX.o@$@OXO @XX OXO XOXO O@XX+@@@X++++X+@X@@X@+XXOOOOOO X@O  OO ",
"XXXXXX O+XOXX+X@OOO X  OXX+O o.  OXO OXXXXXOOXOOO+*@$@@+@O..     OXO+O+OXXXOOXOO+OOX  OO X@+OX@XOX@+++X+X@@XX+XOOOO X  OXX+O o. ",
"O+XO O OXXXXXXXX XO OOXOOX$O o XXO.X@O @+@@+O+O++@@@$+++X    .  XO.X+XOX+@@+O+O+$XOXOOOXX+X+OOX+O+@+X++XX+@@XXX  XO OOXOOX$O o X",
"OOO  OOO X+OOXOXOXXOO . XXX  OO   . OXXX@@$X+*@O+@@+@+OOXO   -==  . X+XX@@$X+*@OXX O$$++X+XXXXOOXXO@@X@++XXXOOXOOXXOO . XXX  OO ",
"OX    O+OOO+OXOOX X++O OX@XXX X .  XO+XXOXOXO+$@+@+@+@XOO OXX=.=.  XOOX+OXOXO+$@OX$+++XXX$OXOOXXXXX@@@@XXXXXOOOXX X++O OX@XXX X ",
"OOXXXXO+O+OXXOOXXOOOXX+++XXXXOOO..OX O XO  OX  X+XXX@+OXOO   =.=..OXOO XO  OX  XX$@X$$XX@XOXXX@*X@X@+XX@X@*XXXXXXOOOXX+++XXXXOOO",
" OX@@+XOX+++X++XX+XXX+XX+XX  XOOOO    O+O .OX.o@XXOO+@X.O..o ...OO    O+O .OX.o@$@+$$X$$X+XXOXXX@+XX@@XXXXXXXXXXX+XXX+XX+XX  XOO",
" X+$@@XX+XXXXO XXX+XXOO+XX+XXOXO OOX  XO.  OXO OOO  X O o.o..--. OOX  XO.  OXO OXX+$+X$XX+XXOOXX+++@@@XXX+@XOOXXXX+XXOO+XX+XXOXO",
"XOOOXO+XOOX  OXX+XX+X O+X XXX  OOOOOXX.. XXO.X@O+XOO + OOo.o.-==OOOOXX.. XXO.X@O @*+$$+XX+  OX+@@++X@@@XOXX+XXXX+XX+X O+X XXX  O",
"  X  OX OOOOXOX++XOOXOX+XOX X+ O+O OX@o OOX@O@XXXO O   XO.&.o-.=+O OX@o OOX@O@XXXX++@XX@XXOOXX@*+@@@XX@XXXXXXXXX+XOOXOX+XOX X+ O",
"    OX. OOOOXXXO+XXOX+O XXXOXXO.X@ X+$X+ OO +OX+XO  OX  XX.##=:=X@ X+$X+ OO +OX+XX@O+*$XOOXXOO@*+@+@+XXX@+XXXX@X+XXOX+O XXXOXXO.",
"  O X  .OXOXXOOOXXXXXXO O OOXOOOO@XOO+$,O   O+XO      X   #o#o:=O@XOO+$,O   O+XO XXX.OX+X+@O@@@@@@@@@@+@+@XXOOXXXXXXXXO O OOXOOO",
" X.  O . OO    XXOO+X OOO  OOOXOO. OXX++OO  XO    .X    o .#oo.=O. OXX++OO  XO  XX OOO +OOXX@@+@@+@+@+++XOXXXXXOXOO+X OOO  OOOXO",
" .   .O. OO O OXXO+OOO+O    XOO  XX OOO OO  . XO    X  O  #o#o:: XX OOO OO  . XO .OOO OXOOX+XO@@+++X+X@+XOOXXXOOXO+OOO+O    XOO ",
" o    OO.   OXO OXXO+O+OXXXXOOOOO .OOO OO .....  X   X X .oo#-::O .OOO OO .....  OOO  O  XXX+++++@XOX++XXO+OOXXOOXXO+O+OXXXXOOOO",
" . OO. OO OXOOO.+X+++XOX+@@XO O   OOO  O  .   .OO ..XO   X o&o.=  OOO  O  .   .O  XX. XO  O++@++@X@XXXX@X+*+XXX++X+++XOX+@@XO O ",
"  .. OOXO OOO.OXOXXXX+XX@@$+X @.O  XX. X    O  O X  X  . .o#;-=.O  XX. X    O  OOO .OX X O ++X@@X$@+XX+@$X@@XXX OXXXX+XX@@$+X @.",
"O .  XXXX X$OXXXO  XOOX+OXOOXO  OOO .OX OO..O OO. X  . O #.#ooo=OOO .OX OO..O OO      O    +XX$X$@+XXXXXX X$OXXXO  XOOX+OXOOXO  ",
"X%o  @X.X@OOOO+XOXOOOO XO  XXO OO      O  ..  .O  oooo X ooo##%:O      O  ..  .O..O X .   O@OOX@*@OO@@X.X@OOOO+XOXOOOO XO  XXO O",
" o  O@@OOOOXXOOXXXOOOO .XO  O.OX.  OOOXXX  O ..   o  o  oo#o#.-=.  OOOXXX  O ..  OO o.    .XXX@*@O @@@@OOOOXXOOXXXOOOO .XO  O.OX",
"    OXOXXXX+.OOOOXXOXO.  X O .X  .o +XXX  X  .   ooo o. o ooo..= .o +XXX  X  .  OO   ...#OOXOOX@O ++XX+XOOOO.OOOOXXOXO.  X O .X ",
"o.  OXO XOXOOOX    OO . O    OoX  . OOOOX   . O o   o oo  o#-...  . OOOOX   . O .   X O...O@OO. .X++OO  OOOOOOX    OO . O    OoX",
". . XOXO XXXOXXO O OO .O.     oo  o. OXO    o O.& oo  o . #oo...  o. OXO    o O..    X  .X XXX . XXOXXX .O.OOXXO O OO .O.     oo",
"... O ++XO+++O OXO   .OO    ..Oo X  .   X   . O ooo   ooo .o-.-= X  .   X   . O .    .      X$+OOXOO+XO+ OO++O OXO   .OO    ..Oo",
"... XOO+XO+$+X.OOOXO OO ..#O... o O+O OX  X  .  oooo o o oo o=..o O+O OX  X  .  OO  ..OOOOO.X++XXO ++XO+OXX++X.OOOXO OO ..#O... ",
".o# XXOXXX +OOXO.OOO OXOO.....  X.o O OOX  O .. #oooo oo oooo%-= .o O OOX  O ..  OO  O ....XOOXXOXOXO XXXOXXOOXO.OOO OXOO.....  ",
"##oOXOO OOX$XOOOO  OXO O  .X   O   .OXO   OXoo.#;oooo  oooo -%=.   .OXO   ..  .O..O O   .. OOX++XOXO XOXOX++XOOOO  OXO O  .X   O",
"o## OO OOO@XXO OXO  OOO XX  oo. XX O .  O   o #;##&oooooo.oo-%==   OOO  OO..O OO        OO  OX+@OOXOXXXXOO@+XO OXO  OOO XX  oo. ",
"o#o   OO  X+OXOOX  O OOO. OOO  . .OO o OXXXOo o&o###oo#o ooo-.== .OOO O     O  OOO . O  OO OXOO++X+OX O+X++OOXOOX  O OOO. OOO  .",
" o   OO  OX+. XXX  O  OOO   O    OOO.o.     oo&oo####o##oooo%.=  OOO  O .o   O   OOO  O  XXX .X+OOXO OOXXX+X. XXX  O  OOO   O   ",
"oo.  OO O X+XX  O  .   OOO..OXO.OOO o#o.. Xooo###&;##;##oooo%=: OOO   . oo.OXO..OOO   .  O  XX OOO +OOX OO  XX  O  .   OOO..OXO.",
" o... OO  XX. OOOo ..  OO.O   ooOOOOo #o.   o#&####;####o#oo%==:OOOO .. . oo   OOOOO .. oOOO .OOO OXOOXO O  . OOOo ..  OO   O   ",
" % %.     OOO   Oo OOOO  .OO o    ..ooooo.Ooo&o##&##&oo&&o#o.% :  ..OOO O O o OO  ..OOO oO   OOO  O  XXO   oO   Oo OOOO   OOO  .",
" .% o      + OOXO o& OOo  .oO  o .o.  . ..  o;&#o##;#oo###&o-% : .o.   X.OO   .    .   XXO.O  XX. XO  O.OX.  OOXO o& OOo X  o . ",
".% % .   XO$O OXO .. O  #. .. . o#.X    O O o;o###o###&##ooo%o  o#.X    O . o..   OX    O  OOO .OX X O .X  .o OXO .. O  #OOo   o",
"==%- XXOXX O.  OX . #o o&###.o&## X OO...  oo;#oooooo o#ooo#.o=.. X OO... O.&. o. X OO..O OO      O    OoX  .  OX . #o o&O ooo .",
"OO  O OO o  o. oO O#oO oo##oooo#.XO   ..  X  o . oooo  o&#o##-.%.OO   ..  OoO  X XO   ..  .O..O X .     oo  o. oO O#oO ooOX  o. ",
".O O  O Oo X  .OO  ..X    o&o. .. O X  OO OOo   o oo o  oo#o#.-=% O X  OO  O .    O X  O ..  OO o.    ..Oo X  .OO  ..X    o&o. .",
"       OO o O+  OX  X+O    o   o X    X   O ooo . oooo X ooo##-= O    X    O.OOo X    X  .  OO   ...#O... o O+  OX  X+O    o   o",
"O . O OO  X.o O  OOO+O X X .OOO. XO X    OOX  o.  X  . O #.#ooo=  O X    O  OO  X   X   . O .   X O.....  X.o O  OOO+O X X .O   ",
" XX O OO O   ..O o    X .   X O.....    .O O oOXOX  X  . .o#;--. O  O  ..O OO    X X    o O..    X  .X   O   ..O o    X X   O..O",
"OOO  O OO    . O .   X  .    X  .X   O  .  X  X++ ..XO   X o&o..   X   ..  .O.  X   X   . O .    .           . O .   X   X    OO",
"O..OXO      OO  .  X    .    .        X O +   O++X   X X .oo#-   X    X O ..  Oo X    X  .  OO  ..OOOOO o . XX  .  X    X oO OO ",
"o . .o    OOO  .. O  X OOO  ..OOOOOO.  O  .  O      X  O   o#o  X      X  .  O    O X  O ..  OO  O ....o   oO O.. O  X O     .  ",
"O   ..   O O..O.  ..   O OO  O .... O .. . O . X  .X    o . oo## X    .  . O . X XO   ..  .O..O O   .. ooo .OXX.  ..   OX X ..  ",
"    OO   OO   OO O..OO X..O O   ..   O.. o O.. o      X    o o .   X O.  o O.. o. X OO..O OO        OO   o.  X+O O..OO X .o  .  ",
" O  OO O O. OOO  O    XO        OO   O   . O .. XO  OX   X.    . X  O    . O ..   OX    O  OOO . O  OO  oOXOO +  O    XO   . OO ",
" O O    O XX  O.OXX   . OO . O  OO O O X #    . XO O   X .&.Oooo. XX   X #    .    .   XXO.O  XX O O     X++XO .OXX   .    .  o ",
"  O  XXO  OOO   Oo OOO..  XX O O    O O  O  o OO+XOO +  Oo.O.     .. OXO O  o OO  ..OOO oO   OOO  O  XX  O++O@O Oo OOO..  OO o  ",
"O OXOOXO OOO. OOOo .. OO OOO  O  XXO  .OXO o   OOO  X O  .O. o   OOOOO OXO o   OOOOO ..OoOOO .OOO OXOOXOXXXXO@+OOo .. OOOOO   o ",
"OO +OOX OOO XX  O  .   OOO..OXO.O O OO.OO  OXO..XXOO+@X O XOo o O O XO OO  OXO..OOO O+.+ O  XX OOO +OOXO XOXXOO O  .   OOO..OXO ",
"OOXO OOXXX+X. XXX  O  OOO   O    O O  OOOXO  X X+XXX@+ XO+ oOo O O O   .OXO  X   OOO  +O+XXX .X+OOXO OOXO XX XOXX  O  OOO   O   ",
"+X+OX O+X++OOXOOX  O OOO. OOO  . .OOOOO .X+X+XO+$@X++++ XOXXOOXO .OOOXO .X+X+XOO .OOOO+ +XOOXOO++X+OX O++XO+OXOOX  O OOO. OOO  O",
"OOXOXXXXOO@+XO OXO  OOO XX  o . XX OOOO . X@@+ X+OX@+++OOXOXXX+XXX OOOOO. X@@+  XX OOOO OXO OX+@OOXOXXXXOO@+XO OXO  OOO XX  o OO",
"XOXO XOXOX++XOOOO  OXO O OOo   oO O OXO $ @++OOOXO+@+X XOOX@@XXXO O OXO $ @++OOOO O OXO+ @OOOX++XOXO XOXOX++XOOOO  OXO O OOo   O",
"OXOXO XXXOXXOOXO.OOO OXO O ooo .O OXO O OO$@@++OXXXO@OOXX+  XOOXOXXOXXX OO$@@++OO  OO O@O.OXOOXXOXOXO XXXOXXOOXO.OOO OXO O ooo .",
"XO ++XO+OXX++X.OOOXO OO  OX  o.  XXO.X  +$X@$++X@XXOO@X@XXXXXOOO X++OO  +$X@$++XX+XO.X@O @@@$$+XXO ++XO+OXX++X.OOOXO OO  OX  o. ",
"OXOO+XO+ OO++O OXO   .OOO O oOXOO+XX$XXX++X$X @@+XOXXXXX@X@*XXXXO ++XX+$++X$X @@@@OO. OXXX++@XX@OXOO+XO+ OO++O OXO   .OOO O oOXO",
":XXOXXX .O.OOXXO O OO .O+ X  X++XXO @X XX++@XOO@@@XXX@@XXXXXXXXXXO @@@@+X++@XOO@@X.X X+++++@X*$X XXOXXX .O.OOXXO O OO .O+ X  X+X",
"<X++OO  OOOOOOX    OO . X+   O++OO+OO .O$+XXX+XX@+++@@@XXX+@XOOX1+OO@@X+$+XXX+XXXXXXO++@++@X@OX+.X++OO  OOOOOOX    OO . X+   O+O",
"O ++XX+XOOOO. O OXXOXO. XX+ .OXXOO$+O+O+XXX$*OX @@++X@@@XOXX+XXX1@+XXXX+XXX$*OX +X.  ++X@@X$@X@+O ++XX+XOOOO. O OXXOXO. XX+ .O@X",
"@O @@@@OOOOX   XXXO OO ...  O. XX XX+*@O+++++OO X+@@@XX@XXXXXXX1XOOX +XX+++++OO OXO.O+XX$X$@+X  @O @@@@OOOOX   XXXO OO ...  O 1@",
"*@OO@@X.X@OOO +XO  O O X++XXO .O  OXO+$*XXX$XXX X+@+@+XXX@+XXX1@1XOO OX+XXX$XXX  OOOO@OOX@*@OO.O*@OO@@X.X@OOO +XO  O O X++XXO <@",
"$@+XXXXXX X$O   O    OX+@$+OOX@O OOOX  XOXXXXOO@+@@@@@@+@+@XXO1X<O+O  OXOX XX X+ O+O XXX@*@O $$$$@+XXXXXX X$O   O    OX+@$+OOX@<",
"OOOX +X. OXXXO  O    OOO@OXOOOX+O.X@ X  O XOXOX++@+@+@+++XOXXXXXO.X@ X X O  XOXXO.X@ XOOX@O +@@+OOOX +X. OXXXO  O    OOO@OXOOOX+",
"OXOO OXO.  XO OO OO OOX@O@XXXXOOOOO@XOOoXO XXXOXX+++X+X@+XOOXXXOOOO@XOOO. OOOOXOOOO@X@OO. .X+XX OXOO OXO.  XO OO OO OOX@O@XXXXOO",
"OO XO  OO OO O   OOO OO +OXXXX++XOO. O o++XO+OXX++@XOX++XXO+OOXXXOO. O o O   OOOXOO. XXX . XX OXOO XO  OO OO O   OOO OO +OXXXX+X",
"OO. O OXO O    OO  OO   O+X  OX+ OX .OX O+XO+ OO+@X@XXXX@X+*+XXX OX .OX .. OOOO  OX . X$+OOXOOXXOO. O OXO O    OO  OO   O+X  OXO",
"OOOOO O OXO  ...OO  OO  XO X OXX  OXO O OXXX .O.OX$@+XX+@$X@@XXX  OXO OXOX .OOOO  OXO.X++XXO XXXOOOOO O OXO   OXOO  OO  XO X OXX",
"+++XO XO.&.OO.ooo... . ...OO  O  XXX .  ..OOOO+OXX+XOOXOXXOXXOOXX  .OX.O OXO.O+XX  .OX. +X .OOOOOO  XX OOO        O OO  . X  OOX",
"XXX+X  XX.##  . ...#o..OO  OO .  O  XX..o   OXXX@X+XXOX+OOX++XOO XO OOOO  .OX. +XXO OOOX +X. OXOOOOO .OO$ O .  OX  OO ........  ",
"OO OXX   #o## .#.o##.ooXOO  O.. oOOO . Oo.OXOOXOXXXXXXXXOOO@+XO   OOOXO XO OOOX + OOOXOO OXO.    O   OOO  O o         .   .  ..O",
" OXO   o .#o###o###;# o   O OOO oO   OOOXOO +XXOXOXOO+X OX++OOXO    OO X OOOXOO O   OO XO  OO OXXO..OOO   .X .  O     o.  o.. ..",
"  OOO O  #o##  oo#o&o oOX  OO  XXO.O  . O O  O+XOOXO+OOO+XX+X.      OO.O   OO XO    OO. O OXO OO   OOOO  ..  o OXX   .   .   o. ",
" O OO X .oo#o  #o#oo&oo      O  O  OOO. O  OXOXXXOOXXO+O+OOO XX..   OOO    OO. O    OOOOO O OXO o OO  OO OO .o.      . o. .   ..",
" O  O   X o&#ooo o###oooXOO  O..O OO   o     X OX++X+++XO OOO..%..  OO     OOOOO .  OO  XX OOO  O  X O OO      O  . ....  .oo.o%",
" .    . .o#;o#o#ooo#&#o    O O..  .O.. X .X  XO X OXXXX+X  OOO.>...OOOO .  OO  XX..OOOOO .OO$ O XOO + OOO      O   ........oooo%",
"%X  . O #.#o#;#o o##o&ooOX  OOO  OO  .     X  O XXO  XOOXO XX .>.o   O  ..OOOOO  O    O  OOO  O O O   XOO..O X . ... . ...#oo#. ",
".oooo X ooo#;#&ooo##&;o        O OO .OOoX   X X +XOXOOO .  ..O3>.%.OXO. o   O  OO OO OO.OOO   . O  OX  X  OO o.  ..#o...o##.##.%",
"-o  o  oo#o#.&#oo..#o;o O o##o  OO .OO   ..XO   OXXXOXO. #%>..>>% .o    o.OXO.O   OOO OOOOOO ..      X   OO   ...o##.oo###;#...%",
"ooo o. o oo##o&#.. o#;oo  .oo      . o  X  X  . OOOXOO . .>>. >>%.o o O XOO +   OO  OO O  ..OOO  .X    o .   X O. o..ooo#o&ooo.-",
"-% o oo  o#o#;o&#.O.o#oo OO        o.    X  . O  ...OO->%. -  o3-&-   . O O    OXOO  OO    .   X   X  O ..    X   o..ooo#o##.o-.",
".oo  o . #o##o&o #.. ###.  O OX   .   .  .OX   o  .   >%% -#o.>3.o% o.. O  OX      O OO   OX    X   X X  .    .  ...ooo o##oooo-",
"oo   ooo .ooo#oooo .#.##o. OX     .      OO+OO    . O %%- O. .##o-% &. o     X  OX  OO o. X OO.. ..XO    OO  ..OO ..#oooooo&o. .",
"oo% o o oo #ooooo#o  ooo..OX OO +XXXOOO   O   oo    . -% OO   .o#oo O  X .X    o O oO  X XO   ..X  X  . .o#;o#o#   ...  O  o   o",
"ooo% oo ooo#o#o#oo#oo&o....X  XOOOOOOO .O.O    o XO   O%OXO.  %.o#.O .     X  O  XXO .    O X  O X  . O #.#o#;#o. X X X .  ..Oo ",
"oooo. oooo ooo#oooo#oo#.  .OX+O+ OXOOOO#O   X  o OOXOOXXO+  $O%-##=X.OOoX   X X oOXO.OOo X    X  oooo X ooo#;#&oo    Oo.  O... o",
"#&oooooo.oooo#oo#&o&##ooo . XX+@.    O oOOO  O XOO . XXOX +XX  -o. XOO   ..XO   o O OO  X   X    o  o  oo#o#.&#o&o     ...... %.",
"###oo#o oooo##oooo##o#o... OOOOXO OXXO. O   ..XO++O OX@@X@XXO  ..%XO o  X  X  . oo O o   X X    ooo o. o oo##o&#o##oo X O.X   %.",
".%%.ooo  oo;#o ..#&o##oo o .OXOO....   O  . OOO OX$+++XO  XOOO Oo%  .    X  . O oo  . . X X O+OO   o oo  o#o#;o&###&o  X       %",
"%. %o . O o;o#..oo#&.#o#oo  O O  .X   .. oO   OOXX+$X+XO..XO. OOo#o   .  .OX   o##o   o    O+X   oo  o . #o##o&o. .#   .  OOO.  ",
"  o oo  . o;&##ooo&#;#ooo X OO XX  oOO...  OOXO XXOO+XXO OXO  .o o    .O OO+OO   o    .O<O.XX.. oo   ooo .ooo#ooo ooo ..OO.. O  ",
"=. o. o ooo&o##o o#;#o#.# O OOO. OOO    O O O.  +$ O+X OXX.OXX oo##oo  O  O   ooo##oo #<4<# Oo#Oooo o o oo #oo##.o&##ooo..O..OO ",
". %o  ooo o#&#ooo#o#o;#o. .  OOO   O   X   O XX OXOX+XOO  .   OO -#&o XXO.O    o ##&o 2.X.;%o# .oooo oo ooo#o##oooo#.&o...  O.O=",
"ooo% X ooooo###o ooo#&o X     OOO..OOOO XXO  OO OX+O XX+OX  . X  %  o  oO   X  o #  o ;2&22%O ..oooo  oooo oooo&o. ..o#.   OO.  ",
".#%O O  o oo&oo#o#  o#oo. X X oo OOO ..OOXO OOO.XXXO O O XO..OOOo oOo.OoOOO  O Xo;oOoo;;25;.O &&#&oooooo.oooo#oo#&o&##ooo Oo.  o",
".. . . . oo o&o#oo  ##o#  O  XO.O O OO.OOX OOO X+X OOO  O  OOOOX ## O + O   ..XO  O    o;;oO Oo&###oo#o oooo##oooo##o#o..... .# ",
"OX   OOO%oo #;###o###o#. o       O O  OOOOXXX+X.OOO+O    XOO OXOOO .X  O  . OOO OO OO OOoo. .. oo   ooo  oo;#o .. o&###.oo.###o%",
" . X  O%o#oo.##o.#. ##o#   X   . .OOOOO  O+X++OOO+O+OXXXXOOOOO  =.;.  .. oO   OO   OOO O  .OX   oo  o . O o;o#..o oo##oooooo##.%",
"O  O XXX%%..o#... .  ##.XX  X . XX OOOO XXXOO@+X++XOX+@@XO O+O o->&.OO...  OOXO  OO  OO O OO+OO   o oo  . o;&##oo    o&o. o&o   ",
"XOXO XOXO. . .  o.   O.&.OX    oO O OXO $ @++OOOXX+XX@@$+X @X.%o>&.     O O O.  OXOO  OOO  O   ooo o. o ooo&o##     OO.O   o    ",
"OXOXO XXXOXXOOXO OOO OXO O ooo .O OXO O OO$@@O. XOOX+,$+OOX@OO%%. XX   X   O XX     O OOXO.O    o  o  ooo o#&#o..   OOO   O. X X",
"XO ++XO+OXX++X.OOOXO OO  OX  o.  +XX$XXX+$X@$O oOOO X++XXO .OOXO  ..OOO XXO  OO  OX  OO oO   X  oooo X ooooo####..  OO    +   X ",
"OXOO+XO+ OO++O OXO   .OOO O oOXOOXO @X X++X$X  OOOO . OOOO. XX   OOO ..OOXO OOO.OOOO ..OoOOO  O X  . O  o oo&ooo...OOOO .    X  ",
" XXOXXX .O.OOXXO O OO .O+ X  X++XO+OO .OX++@XX$ OXO. XX+O.OXXO  O O OO.OOX OOO XOOO O+.+ O   ..X  X  . . oo o&o..o   O  . O  XO.",
".X++OO  OOOOOOX    OO . X+   O++OO$+O+O+$+XXXXXOOO . X+   O++    O O  OOOOXXX+X. OOO  +O+XXX .X+OOXO OOX oo #;##oo.OXO. oo      ",
"O ++XX+XOOOO. O OXXOXO. XX+ .OXXO XX+*@OXXX$*  XOO .O+ Xo X++O   .OOOOO  O+X++OO .OOOO+ +XOOXOO++X+OX O+o#oo.## . oo    o  X   .",
" O @@@@OOOOX   XXXO OO ...  O. XX OXO+$*+++++XXO  .OOO O&oOXO...== OOOO XXXOO@+XXX OOOO OXO OX+@OOXOXXXX ...o#...X  .  OOX  X . ",
". OO@@X.X@OOO +XO  O O X++XXO .O OOOX  XXXX$XXX O OO  OX#;o.#&#.. O OXO $ @++OOOO O OXO+ @OOOX++XOXO XOXO. . .  o O ..  OOX    o"
};
