/* XPM */
static char *SKINSYMB[] = {
/* columns rows colors chars-per-pixel */
"128 64 109 2 ",
"   c #0C0A05",
".  c #131408",
"X  c #1D170D",
"o  c #131A09",
"O  c #1D1A0F",
"+  c #191510",
"@  c #1E1A14",
"#  c gray10",
"$  c #251D0D",
"%  c #221D11",
"&  c #221F1A",
"*  c #1D211C",
"=  c #26210F",
"-  c #29210F",
";  c #262315",
":  c #2C2513",
">  c #262810",
",  c #2D2816",
"<  c #25231B",
"1  c #2A261C",
"2  c #27291D",
"3  c #2D291D",
"4  c #302612",
"5  c #332A13",
"6  c #3C2E16",
"7  c #31251A",
"8  c #322B1A",
"9  c #392E1C",
"0  c #34321D",
"q  c #3E311A",
"w  c #252525",
"e  c #282621",
"r  c #242822",
"t  c #2C2923",
"y  c #2A2A2A",
"u  c #332D22",
"i  c #3A2E22",
"p  c #302E28",
"a  c #2F3327",
"s  c #2F312B",
"d  c #323224",
"f  c #3C3122",
"g  c #3E3A24",
"h  c #33342A",
"j  c #3C322A",
"k  c gray19",
"l  c #403017",
"z  c #43331C",
"x  c #49371F",
"c  c #4C391F",
"v  c #443622",
"b  c #483722",
"n  c #453924",
"m  c #4B3A25",
"M  c #463E28",
"N  c #4D3D29",
"B  c #513E26",
"V  c #513E2A",
"C  c #47412D",
"Z  c #4E402A",
"A  c #54422D",
"S  c #59452E",
"D  c #564331",
"F  c #5A4633",
"G  c #554834",
"H  c #5D4935",
"J  c #574839",
"K  c #5F4B38",
"L  c #5F503C",
"P  c #614C36",
"I  c #624E3A",
"U  c #66513D",
"Y  c #69533F",
"T  c #6F5939",
"R  c #715B3E",
"E  c #584C41",
"W  c #6B5542",
"Q  c #6F5844",
"!  c #605448",
"~  c #6F5D4D",
"^  c #715A46",
"/  c #755D49",
"(  c #77604C",
")  c #7A624D",
"_  c #766555",
"`  c #7D6651",
"'  c #7F6852",
"]  c #806E4F",
"[  c #806753",
"{  c #826A55",
"}  c #866E59",
"|  c #886F59",
" . c #887057",
".. c #87705A",
"X. c #8C745D",
"o. c #91795F",
"O. c #8F7660",
"+. c #8D7B69",
"@. c #907762",
"#. c #947B64",
"$. c #977F68",
"%. c #997F69",
"&. c #9C836C",
"*. c #9F8771",
"=. c #A08770",
"-. c #A38B73",
";. c #A88F78",
":. c #AC947C",
">. c #B29A82",
/* pixels */
"e y : t 5 4 3 t , t 8 w , y u t 9 w : t : - t , , 5 q 2 ; w 2 1 : y 3 3 u t , e 5 : e 4 : 3 r 3 e y 4 t 5 4 3 t 8 3 8 w : y d t 9 w : e : - t , , 5 9 < : w 2 e : y 3 3 3 t 1 e 4 - e 5 : 3 r 1 e y 4 t 6 : 3 a , 3 , w , y d t 9 w : t : - t , , 5 9 2 ; w , e ",
"w y 4 p , 5 , t < t 4 u 1 t : u < w 4 y ; 8 4 y < 8 4 t e w 4 y w t 4 8 r u : w 1 3 , y < t , u w y : p , 5 ; t < t 4 u : y 4 8 < y : y < 5 4 y 2 8 5 8 w w 4 y e t 4 0 w u : y 1 3 , y < 3 , u w y 4 t 1 4 ; t w t 4 u < t 4 u < w : y ; 8 4 y < 8 4 u e w : y ",
"@ , 3 # @ 1 8 % @ e 8 $ @ 8 , % @ t 8 @ @ 3 3 X @ t 2 @ @ , 3 # @ 3 q X @ t 8 @ @ 8 3 $ @ , 3 # @ 8 3 # @ 1 9 % @ w 8 $ @ u , @ @ t 5 @ @ 3 3 X @ t 1 @ @ 3 3 # @ t q O @ t 9 @ @ 8 3 $ @ 8 3 # @ 8 3 # @ 3 5 % @ e 8 $ @ 8 , X % t 5 @ @ 3 3 X @ t 1 @ @ 3 3 # ",
", e , e t e 8 t 9 8 t < 3 u 3 t 3 3 , , : 1 1 3 8 t 4 1 4 2 3 3 2 < 5 : : t 3 2 w u t ; , e , t , < , e t t , t 9 8 e < 3 u 3 t 3 t , : : 1 3 t , t : 2 : , 3 3 ; 2 5 ; > t 1 , 3 h t ; , e , e , < , e t e 8 t 9 8 t 1 3 f t t 3 t , : : 1 1 u 8 e 4 2 : , 3 3 ",
", y 1 e 3 8 4 , 3 e 3 3 w 8 t < y t < < t t 5 1 8 u y u , : w e u 3 3 4 3 : 3 e 1 y t t 3 8 u < , 7 < e 3 8 : , 3 t 3 3 w , t ; y t 3 < t w 4 : , 8 y t , : w t u 3 3 4 3 : 3 e , y t t 8 8 y 1 : 3 1 e 3 8 4 , 3 e 3 t w 8 t < w y < 2 t w 5 , , 3 y 7 , 5 w e ",
"< * & < , 1 : ; < : : < < ; & 1 < ; w & < < < & % % % : < w ; w ; @ < - : : : 3 3 < & ; : ; < & ; w & < , 1 : : < : : < < ; < , w ; & & < < w & % % : : < w % w @ @ < - : : , 3 & & & < : < < & ; & w : , < : : 1 , & $ < ; < < 1 , 1 1 , : < ; 4 : : < < < , 1 ",
"% $ $ X z 6 6 6 9 6 l z b v v b m m b m z v l q v v b N N m m v N m m 9 + @ @ $ % $ $ $ i v v v z i i z i f v v m N b v n v q x l m m m n v z v n z z v v b m 9 X X @ $ % $ $ $ 9 b n b n v v v q v v v v n b N b m x x l q b v m N N m N v m m v m n z X X % $ ",
"5 6 6 6 ( &.-.$.#.#.%.&.;.-.%.%.&.&.$.{ / ) { ` { o.O.{ @.=.&.@./ Q W I $ 3 5 8 5 6 9 6 Q ^ ) { -.>.-.-.:.*.$.&.&.@.} { Q ( U L ) ` ..&.&.&.%.&.-.-.&.#.$.#.&...: 3 4 u 5 6 6 6 ` -.&.#.#.@.#.#.*.;.-.=.%.$.&.&.&.| ` ( I Y ( Q { } O.&.$.-.>.-.#.$.;.[ $ t 5 3 ",
"l l l 9 { -._ *.$.$.$.&.=.&.#.X.X...$.&.( ( ` &.=.=.-.>.>.X.[ ) { #.' I , 8 9 u l l l 9 { ! &.X.} @.=.;.*.:.&.:.-.;.&.&.' )  ...#.%.-.=.X.X.@.$.*.-.&.#.$.=.X./ : 7 9 u l 6 6 9 ` +.O.&.&.#.$.o.*.=.&.&.$.X.X.X.%.-.%.@.X...) { $.&.:.-.>.=.X.{ $.=._ X.: t 9 u ",
"7 z q q Q %.J W =.#.#.%.$.%.o.#.#.#.$.} #. .o.&.&.=.:.&.@.#.&.$.;.E ! W $ t 9 u 7 z 9 9 | N } -.&.&.=.;.-.-.&.-.&.&.X.&. .&.&.o.%.=.%.&.o.#.o.#.$.*.$.X.&.X.j ( : t 9 p 7 z f q W O.v o.&.X.#.&.$.$.%.#.X.$.#.%.$.X.o.X.X.X.&.&.&.&.=.&.;.-.&.&.=.^ J ` : 1 9 u ",
"@ x 6 z U ` #./ ) &.#.#.X.o...%.$.&.*.o.#.&.;.-.:.=.-.:.:.=.=.:.$./ #.Q : , 7 @ @ x l z O.&...$.:.=.-.=.*.*.-.&.&.&.&.&.&._ o. .X.&.=.%.%.X.o.X.#.&.$.$.#.Q ..^ $ , 7 @ % x l l F } ..^ #.&.&.&.#.o.O.X.| %.$.%.-.@.X.|  .X.&.&.=.:.:.;.-.-.:.-.{ ^ @.I ; : 8 @ ",
"6 z l 6 ) X.` X.}  .#.#.o.X.X.@.$.&.&.o.&.o.&.&.:.:.;.-.-.-.:.&.@.&.$.{ ; 8 8 4 6 l l 6 ;.$.&.&.=.:.-.-.*.&.*.&.&.&.o.&.o.&.o.&.#.=.=.%.%.#.X.X.X.#.#.o.[ X.{ W : 8 8 4 6 l l l ^ / ' X.' $.*.$.X.X.X.X.$.%.%.=.-.%.#.| &. .&.&.&.-.-.=.=.#.&.o.` | ` / : 5 9 4 ",
"l 6 l 9 } $.X.} X.#.#.#.} } o.#.#.%.&.&.&.&.*.X.;.-.-.:.:.$.-.-.=.&.;.O.: : 5 3 q l z 9 -.-.;.=.&.&.&.&.&.&.o.#.&.&.&.&.o.&.&.&.&.=.=.%.$.#.o.| { X.#.#.#.} } ^ : : 5 3 6 q l 9 ' ' / } &.&.#.#.{ X.o.X.$.%.%.=.-.%.=.@.=.&.&.#.#.*.*.&.%.#.X.#.X.| @.{ : , 5 t ",
"7 l v 9 { $.$.$.$.#.o.} } } X.#.#.&.&.&.&.&.*.X.:.-.:.' #.=.&.:.>.;.:.| : 3 u y 8 6 v 6 =.-.=.=.&.&.&.&.&.&.&.o.&.&.X.&.&.*.&.*.=.&.=.%.%.$.X.X.} { X.#.$.#.%.} : 1 u y 8 6 v 9 { *.$.:.$.&.$.[ } X.o.X.$.%.%.%.%.=.=.=.=.=.&.=.&.&.&.&.%.%.@.%.%.#.%.| : < 8 y ",
"@ l 9 9 ' &.=.&.#.X...) }  ...$.#.$.%.=.=.*.&.&.-.-.:.A X.-.=.:.-.;.*.} % 9 u @ @ l 8 9 &.=.&.%.O.$.#.#.#.o.&.&.o.&. .&.&.&.&.&.=.=.%.$.#.$.......) ..X.#.*.=.} : 8 u @ @ l 9 9 | &.-.-.-.$.X.) } | ..X.#.#.%.$.=.=.%.-.&.;.=.=.=.=.&.&.%.%.#.=.#.&.%.[ : 8 i @ ",
"9 q 8 6 { &.=.&.X.X.X...[ #.X.o.#.#.&.&.:.*.&.-...-.&.) $.-.-.;.=.-.%.` : u i w 9 l 8 6 =.&.=.&.&...&.#.&.X.&.&.o.&.&.&.&.&.*.-.%.%.%.#.#.o.X.#.{ ..X.X.&.-.;.| : u u e 9 l 3 q ..:.:.>.&...X.X.{ #.X.X.X.#.$.$.%.%.-.=.&.=.&.&.&.&.%.$.#.%.%.-.-.=.=.[ % u i w ",
"d q 8 6 ' &.&.&.#...%.X.{ ..X.X.#.#.@.o.$.#.#.&.) X.:.&.&.&.&.&.-.&.&...- 3 8 , h 6 7 5 &.&.&.=.&.#.&...#.#.%.o.o.o.#.] Y D H H I / X.#.#.X.o.| ' O.O.%.$.%.&.} : 3 8 3 u 6 5 5 ..:.>.:.*.@.X.X.$.{ ..X.o.#.$.#.X.#.@.&.$.&.X.-.&.%.%.$.#.#.&.-.=.=.$.{ - 3 9 2 ",
"1 9 , 0 ' -.=.&. .[ #.[ | ..#.o.o.@.X.$.#.#.&...#.( X.&.&.} &.=.&.$.&.) 1 3 3 3 3 9 3 9 &.#.$.$.&.#.$.o.#.#.X.X.) H Z S U B 4 l P ^ U / [ o.@.X.| } #.#.O.$.X.` < 3 1 8 t 9 u 9 X.:.>.-.*. .X.X.X...X.@.o.X.o.@.#.$.@.$.o.o.&.=.o.X.X.$.&.X.o.&.&.&.#.) < 3 , 8 ",
"@ 3 8 3 / ;.&.&.` ../ ` | @.@.X.o.o.#.@.X.#.&.@.&.&...$.} o.&.&.&.&.&.' ; p ; $ @ 3 9 2 #.&.%.$.&.&.&.o.X.X.^ A S { #.' R Y V V { T  .{ Q H / o.} ' X...} O.O.Q % u ; % @ 3 8 3 ) *.>.-.&.' o.X.#.} o.o.X.o.X...) ' ^ / ^ / X.X.| #.@.| #.X.%.#.&.&.$.( : p ; % ",
"u 9 t t { =.&.#.Q ) ) X.....} | o.@.#.@.X.$.X...$.o...#.#.#.#.#.o.&.%.[ e , t 3 u 9 t 3 #.%.%.$.#.&.o.X.} S Z [ &.X.{ X.( A / V ) / [  .%.| I P { X.{ | ' $.@.I w 8 t 3 u 9 t t { #.:.;.#.{ } X.X..... .[ ~ S Z 6 A M C C g V D ^ %.X.$.$.$.&.=.=.&.$.^ w , t 3 ",
"e y t 3 { &.:.O./ ) { ..X.X.| ..X.X.X.#.@.@.@.{ } X.X.&.$.&.=.#.&.X.X.' 1 t < , t y y 8 &.&.&.&.$.#.o.X.N P o.o.&.o.` ( I H I I H { [ { X.X.#.^ H } | } W { ~ F < t 2 , t y p , ( &.:.-.#...@.#.X...X.Q Z b W Z n } %.#.{ ) / P B H | &.%.$.&.=.;.*.#.^ < e 3 : ",
"t p 8 8 ) -.O.X.} { { ..| | { W F B S S S D F W [ } X...&.&.&.=.$.#.X.) : - t t t t , 8 %.$.&.#.#.#. .m W #.#.&.#.{ X.} B T I Q V } X.{ O.| | O.^ I ` O.Q I Y W : - t t 1 y , u ^ &.-.$... .X.X.o.( D x U ' X.U I / #.o.} { { #.{ Q F Q $.%.=.%.&.&.#.^ ; : t t ",
"@ t t 4 ` %.X.{ [ [ ..| ( D V V ` #.&.;.&.#.' W N U ) #.#.&.=.&.$.} #.{ - < 8 % @ t 3 5 &.&.&.$.#.X.A P $.X.#.$.O.X.{ T P / ^ / W P O.X.X.X.X.| X.^ H X.[ ) ` Q $ < 8 $ @ r 3 4 ) &.;.....X.X.../ x M { X. .X.U Q ^ { =.} { X.[ @.o.} I S { $.=.X. ...) - < 8 $ ",
"e y 3 5 ) X.#.} ` | [ I m ^ } $.| @.&.=.&.&.$.@.} H b I X.#.#.&.o.#.#.} < 1 t 7 e y 3 5 &.*.&.$.&.U I o.&.@.#...X.X.X.n ) [ ] { { S @.#.X.| } | ..| I U ....@.` < , t 3 e y 3 6 ( :.-.o.o.X.{ / v P  . ...{ ) Q } { Q %.%.X.{ { X.@.} V 4 z X.&.X.X.#.) < 3 e 3 ",
", y 6 3 Q X.X.} [ [ N F | @.{ { { X.#.X.$.&.%.) ( U U N b  .&.X.&.#.$.{ < t : < , t 9 3 &.&.%.&.' N [ X.o.#...o.} { Q U X.} X.| | Q K X.{ { } | } | ' J Q { O./ 1 e , : : w 9 3 X.:.:.X.{ { [ z K ..X.{ { } | U / O.W ' O.O.| [ Q D D b Q P M } ..X.X.` < t : : ",
"w t 4 5 ~ o.X.{ [ m F | } } ` ' ` ` X.X.@.| X.` Q F U g - m &.#.&.%.%.[ - 8 , 8 w t : 5 &.o.#.&.S ^ #.#.#.#.#.@.%.$.P ....X.X.#.#.} N / ` [ ` } } { } Q W } X.` : , , 3 w t : 5 ..*.*.' [ { D m ..} { ` ' ' ` F / O.X.W ../ H H ^ ' ` I $.$.z F } ..#.{ - 5 , 3 ",
"@ e e : Q #.&.X.H V | O.[ [ [ { ` ` ' } { } | X.( ( Y 0 S c m o.X.#.$.{ < 8 e # @ t 1 : =.%.o.{ B o.o.o...o.@.#.;.{ / %. .#.X. .{ } ^ A ` [ ' [ } | } { F | @.` < 7 e # @ t t : ` &.#.) } ) 5 ` X.{ ' ' } ' { D W { { A m H _ $.@.&.Y ^ o...{ x ( #.X.) < , e # ",
": y 5 5 (  .{ ..m W ` [ [ ` ` [ ` ` ) / [ } | { [ Y S }  .N m Q $.&.X.{ < 3 < 8 : w 5 5 &.o.=.H P X.X.#.@.X.X.} o.A { } X...X.} { ) ` m / [ ` ` [ [ ` ^ F W { W 1 3 < 3 : y 5 5 / O...' ` N N ` { { ' ..` { } D F H D U F ( ..[ X...D ..` X.$.I N ` [ ( e 3 1 3 ",
", t 3 8 ~ X.X.S V ` / ` ` ` [ ` ` Q ^ / ` ` [ } P S {  .S Q Y c X.#...^ w , 4 8 , 3 8 8 | %.@.B ^ X. .X.X.X.X.[ ( I ..%.{ } ` [ ( / ) U V ) ` ` ` ` ) | Q W X./ w 3 4 9 , 3 8 8 Q ..| O.W 8 / / ` ` ` ` ' ^ K q q U ` { ' H { X. .Q ^ | o.X.X.X.9 / X._ w 3 4 8 ",
"1 5 t i W o.' 6 m V W ) / ` / ^ I W I / } W / P H  .] A Q ) U Z ) X.&.^ e 9 8 p < 8 t h X.X.%.c ) X.@.X.X.{ {  .A /  .#.{ ` [ / / / / ^ v W / ` ` / ) / Q V } / e 8 8 u < , t u W } O.| K q [ / ) ^ / Q F V A v Q / / O.{ W Q | { D #.{ X.....{ N I } ^ e 8 8 u ",
"@ 1 8 u W O./ S ^ P N V H ^ / ^ W W F V H P H V [ ] A U ` T Q H P ..O.` 4 1 < % @ 3 8 u o.X.@.z o.#.o... .X.| / H ` Y W Q ) ^ ^ / W Q ^ I N / } ^ / / Q ^ b [ ^ 4 3 < % @ 3 8 u W O.' ' n Z / _ Q H B N Y / / D V ^ W Q / { F { I ^ { X. .X.} / A M | Q 5 3 < % ",
"t e 8 t ~ } K W / I P ^ W H N V H I H D V N m ^ / [ U  .] ) ) Y S ..O.' < 8 y , e e 8 u X.o.o.N X.&.o...X.} X.V ` { ^ ^ ` / W Q Q Y Q Q ^ b ^ / ^ ) [ W ^ x [ Q & 8 y 1 t e 5 p W | O.} 6 H W I m F ^ ) / Q ^ M F W ^ ^ ^ { / I S o.......} ` [ ^ 5 } ^ % 8 y 2 ",
"< w : t ~ [ V ~ W F F V / / ) ^ I B b F m v Q W ^ ` ....{ } { } F O.} ` % 3 8 t w w : p @.o.| b #.#...o.X.| ^ P {  . .{ ) ^ Q ^ W I W W W W S I Y ( { Y Q x [ W : 3 , t e t 4 p / | [ [ $ 5 l ! ` ^ / ) ^ Q Q N V W Q Q Q ` } m Q { } X.| { @.} / 5 ` Q % 3 , t ",
"w y 4 y W } I ) Q W I V V ) } / ^ / Q v : J F W Q { ..{ } } $.[ q | X.Q < , t p w w 4 y ..@.X.z ........} [ Z ` X.[ X.) ) Q I Q W W ^ ^ ^ ` b I ^ / ( Q ^ v ` W * 1 t h w w 4 y W ` [ } : n z V Y ^ Y [ { ^ ^ m P Q Q W Q ^ / m F [ { } ` [ ....` 5 ` W < t t p ",
"@ y 4 y W [ K [ / Q W W W Q ( Q ` [ P B ^ I S m H H Q } | } X.) , { } / < t 0 @ % y : y }  .| q ) o.} }  .Q H { { } { { / ^ Y Q W ^ / [ ` ) W v ^ Y { ^ Y q ` W < 3 9 @ @ w : y W ) / [ 5 ^ W I D V V W #.' { D F ^ ^ Q Q ^ H W I Q [ [ | ..} } X.5 ' W < 3 9 # ",
", y , 3 W [ J ` / ) / Q ( ^ Q ) ` Q V ) Y W W U U I V V H ` | ^ > ..| W : 5 8 t 3 y , , } { X.N Y [ } ..} m [ X.{ ` / ` / W Y Y W / / } ' ` ^ b I D D I A f ` I : 8 8 u t w , 3 W ` ` ` 5 Q ^ ^ ` ) U m H ^ } K W Q Q W I Y V / / D { X.{ [ } | ^ 8 ) W : 8 8 8 ",
", 1 4 8 W ' V ( ) ( / / ( ( ( [ I ! { { W W I Q ..| { / W V z 8 : [ { ^ ; t 6 3 5 < 4 8 } { ) Y A ..[ [ U H ..} } } { } ..Q I Q Q { ' O.O.{ / I B x m V - S ) W : e 5 3 8 < 4 8 I ) ` ` v K / / / ( ( ) ) W I N D ` W Q Q V ^ [ { ^ W | [ { ` ) U q ) Q : w 6 3 ",
"< 3 8 y H ' F Q ) ) / Q Q ^ ^ W F | X./ ^ W P ^ ` X.} W H q q v 9 } { Q : 3 8 y < 1 9 y ) ..| { V ) } } N ` } { X.{  .X.[ ^ H I ^ ` $.%.| ' ` ^ x B b $ 4 Q / Q % u 9 y & 3 9 y H / ` / V N / / ^ ^ / / ' X.o.P n m V F H v O.} X.[ K ) ..[ } [ A D / I % u 8 y ",
"@ e 8 u D ^ P I ) / / ) ^ ) I V ` / } [ W W J P P H V I / X.X.S K [ ` Q ; 8 5 @ @ t 8 y X.{ { [ W Z ` ^ 6 ^ x : q ! [ ..^ I H Q Q O.$.X.} } ` ` I q v 6 A ^ / H : 8 5 @ % w 7 p V Q ~ / H z ^ ^ ^ ^ / ( ` ....U ^ ` I z : b ( } ' } ' W O.} X.` q F Q H ; 9 5 @ ",
"5 w t 8 D Q I B ^ Q [ ( ) V b ^ I ^ ) ` W V z z H ^ { [ X...O.m ) { ..W : 8 : 3 5 e 3 8 ` [ [ ) ( b A 6 g Y Q v ( q ( / Y Y W Q / [ } [ X.) ( / N q K 6 Y ^ ^ N : 8 : 1 5 e 8 7 F W U ^ / l P / / ^ ^ ) ^ ^ ' F I { / Q 7 I V I W ` ) W W ..} W 5 ( Y F : 8 : 3 ",
"3 t 1 5 S / Q m K ^ ^ ^ F l P V I H H V B I Q / ^ Q ) Q [ / T V $.X.` W < 5 t w 3 w 1 , | } { } | } 9 N } Q z ' ^ V I / ^ / ) ^ W / ' { W } ^ D z Y , S ( Y W U e 5 t w t t , 8 V W / Q Q V l ^ / / /  ./ / / A W / U n H ^ ` W H V D W D } #.q K Q ^ H < 5 t w ",
"w 3 1 t S Q Q W m P ^ P b P P N z H U ^ Q H H Q Y { ) F B ^ m U ` / ) I r , 0 r w 3 1 u } X.} { %.[ I b Q H x Q W z U [ W Q K P Q / W W ^ I W I K 0 0 Q ^ ( Q K * 1 , r r 2 , t P Q / ^ / Q 4 V / / Q Q Q } Q A F / H : ` } ^ ' ` ` Q A m F H l ' / ^ H < , 8 r ",
"@ 1 , u V / ^ ) K V U 7 6 b V I I Q / [ W W I Q ^ ^ ) / Q B P / I Q ^ W ; , t O @ 3 , t / } ^ { W Q { H v Y I x 6 P ^ ^ / [ E W Q Q / ` ) I ^ Y 5 0 Y { Q / ( W : 5 t O @ 3 , u V I [ / / ^ F 4 S I I W / Q Q D U / q F Q ^ Q ` Q { ` { ' v , Q / ^ [ H ; 8 t O ",
"8 t , 8 m W / ^ W b l m F F V I W Y Q ~ I I W ^ ) | [ [ H I { [ ) { ` W - 3 ; 8 8 t 8 5 ` ` ` ) ) [ } ^ m m Q W Q ^ W ^ Q W W V W I / Q Q Q D 4 8 U Y U T ( ( K ; 1 , 8 8 t 8 , V P U ^ ^ W P z 7 V Y H W U I A F F : W / ^ ` { ` [ ) ` Q 9 D { ^ / ( H - 3 > 8 ",
"5 4 3 p v F U ^ ^ I b z F x m P ^ } / ^ H I W Q [ ^ ^ A V / / / ^ ^ / I - 3 e 3 5 : 3 p ` ) ) { ) ) W ^ W B b V F U Q [ ( ^ W W F W ` I ^ V $ m Q ^ U W ^ ^ Y m ; 3 r , 5 4 3 p V W E Y ^ ^ F P S 4 v I P ^ } N U 9 D W W ` ` / ) ) Q D 5 V / ^ Q Q I m - 3 r 3 ",
"3 5 : t m F I U ^ Y Q I x V V P W ^ I Q [ Q I ^ ^ I B I [ / [ / ) ^ ^ I ; 2 , u , 6 ; t Q ^ ^ ^ ^ ^ } / / [ I b 9 V Q [ Q W V W D F I D : 4 S [ W I Y W ^ W U N ; 3 , t 7 5 ; t m V Q W W ^ P V V 5 $ z F I Q V 5 - / Q { / ^ / ^ W b 9 V ) ) ^ Q Q D v : 2 , u ",
"@ 1 8 u n I U U Q I I ^ U b l b V W ^ W ^ W V B z B Q ) ^ [ [ / ^ Q / I 5 1 < % @ 1 8 u ^ I W I Q ^ / ^ ^ W Q [ Q V $ l i z i u 9 : 4 i N Q I Q U U I I Y Y U V 4 , < ; @ 3 9 u b V F W W W ^ Y V I H 5 : z A V . D I Q Q I Q U N l v ^ { ^ Q Q Y Y I v 5 1 < % ",
"t e 8 p m H I W Q W F R [ W F V N l 6 6 5 5 v N W / ` ) / Q [ [ ^ W ` I < 8 y 1 t e 5 p ^ I Y I ^ ^ ` W Q ` [ / [ / [ P z 7 & v M S W H / W W W Q ^ D I ^ I H m < 3 y 1 t t 5 y P W W / [ Q W / H I / I V 4 :     M x v M x z q n W ( / ) / ^ Q Y I F m < 8 y 2 ",
"< y 4 t n H U U Y U F P P V F P ^ I I W I Q ~ P ^ Q / / / ) / Q / ^ Q H $ 3 , t < y : t Y I U U Q W Q Q ) { / Q W W Q I W I W P D H Q I Q I I } Q I H I W U U m ; 3 , t w w 4 t Z / ' ' U W ^ ) I U / Q Q W V b : $ $ 4 5 6 H P ) / ) ^ / ^ Q W U U I v $ 3 , t ",
"w w 4 y z D F W W W P V B U P W ^ I { Q K [ Q W Y Q ^ ) Y / Y / Q Q Q V < 3 t p w y - y I ) Q W W W ^ ^ Q ^ W ^ ^ / ^ Q W W F J V Q { I Q I Q I I I I W W Y F b < 1 t p w w 4 y z K ^ W I U W U W W / / P ) Q ^ H P Q Q / I / / ^ ( ^ / W / Y W W I F v < 3 t p ",
"% t u t v S D I W ^ Q U V W W I Q W W W U W [ W Y / / / / / Y / W I D n < 3 9 # ; t 4 y Y ^ / Q Q ^ ) ^ ) ^ ^ ) ^ / / ^ W Q I H H F Y / [ I W W I I W ^ W I F v < 3 9 & $ y 4 y x V D U W W W U W Q Q ) / W ^ ^ I { W F | ^ ^ Y / ^ ^ ( ^ ` ^ Q U P V x w 3 9 # ",
"6 < 3 7 b A F U W Q / U I ^ W U W Q F I F Q W W ^ / [ / ^ / / Q W H I v : 8 8 8 3 y , 3 W ^ ) / / ^ ^ ) Q ^ ^ ^ ^ / / ) ^ I I V F U ^ ^ I I W Q I U / W W H I v : 8 , 8 u w , 3 v V S D I W W W W W Q Q W / W ^ W ^ Q I I Q / / / ) Q ^ ) ^ ^ Q W P V b - 5 8 u ",
"3 e : 5 v S D K I Q W ^ I W / Y ^ Y E V W W Q Q ^ ) [ ) ( / Y Q U H D b : w 6 3 8 < 4 8 Q ^ ) ) [ / / Q ^ [ Q / / ) ` ) Q Q W H H I W W ^ W ` W I Q W Q I H F b : e 5 t 8 1 4 8 z V S V H W W W Q I W / W Q ^ / Q H H I W W / ` / [ ` Q Q / ^ Q H H A m : e 6 3 ",
"1 < < < z A I H I Q Y Y Q Q / Q ^ U U E V W W / / / / ) / / U ^ I H F v % u 8 y < 1 4 y ( / ) [ [ / / Q W / W / ) / / / ^ / I H F I W Q Q I ^ Q Q W U Q I H F v ; 3 8 y < 3 4 y v V S D J I Q W W W Q / W Q / ^ W F V W Q / / / / ) / Q ^ / / W J F S c % u 8 w ",
"; 8 5 @ z W H m H I I Q W Q ^ Q W P K V V W ^ W / ^ ^ / ^ ^ U H H m H m : 8 5 @ % t 8 t ^ { { U ` Q ^ Q / ^ / ^ ^ / / / / W I H D H Q Q ^ W ^ Q W W I I H N H b : 8 6 @ % t u t z m H H b H H I W W Q ^ W ^ Q ^ E I H J U Q ) Q / ^ ^ / Q ^ ^ Y S m I v : 8 6 # ",
", 8 : 1 v J @ A D H I I W Q ^ Q W P K V I W ^ W / / Y ^ ^ ^ I K F V @ n ; 8 : 3 6 1 t 8 `  .I ..[ / / ^ ^ ^ Q ^ / / / ` / W I F D H W W I W ^ ^ W I I H F V # n ; 8 : 1 6 < 3 8 q N J @ V H I I I W ^ ^ W P W W P I V I Y ^ ) Q Q ^ / ^ Q / ) Y D i t N ; 5 4 2 ",
"< 6 t w 8 m D B F U I W I Y I Y W W I V F W / W / Q H Y Q Q U U F B D 8 w 4 t w 3 t : , ( j ..( Q / / W Q W W Q Q / ) { ( Q H V D J W W W U U U U U U U D B D 8 e 5 t y 3 w : , : 9 M D B F U U W I I I W W Q W P F D F U ^ / I I W Q Q Y ( Q W V H j v < 4 t t ",
"# : : * o 6 z F U I I H I J F H I I W I H I W Q ` I F I ^ ^ I I W D x 4 * : , * 1 < ; < F ( Y K I W ^ ^ / W Q Q Q ) { } ( ^ I F D K W I U H S F I P I I Y S x 4 * ; : * 1 < < ; . o 5 z D U I I P P F F H I U U U K D H U / / F F Q W / / ^ W U P B 6 = < ; : * ",
"d d a y d s d h 3 d s y 0 d h a u p j k d a a d u 0 h d d y h d p h d d d h s d s d 3 h u d h d d p u p d s d h u d a y d d h a d h h h t a a a u 9 h d d y h u h d d a 0 y h d s d 3 d u d d d p u u p d d d h t d h y d d h h a h h k y d a d 8 0 h d d y h a ",
"w t 3 3 9 3 8 , , 3 e u r r 3 y e t 7 w 5 1 2 e 3 , 8 t t < t : < y , 9 t t w t t , 5 t : 3 : 8 w u 3 t 9 3 8 5 , 3 r u < r t y e w 4 t , 1 3 t 3 , 3 t t 1 t 4 < s , 9 t t y e t 3 6 t : , , 8 w p t 3 u t 5 , : 3 t 3 < r t y e e 4 t , 1 3 e t 5 3 t t e t 4 ",
"t y 4 t 6 : 3 t , 3 8 w , y u t 9 y 4 e - 4 3 3 , 4 q < ; w , 3 : t 8 3 8 y , e 5 : e 5 : 3 r 3 t y 4 t 5 4 3 t , , 8 w , y 0 t 9 w : e : - t , , 5 9 < : w : e : y 3 3 8 t < e 4 : e 4 : 3 r 2 t y : t 6 : , p , t 8 t , y u t 9 w : e : : < 3 , 6 9 < : w , e ",
"w y : t 1 5 , t < t 4 u 1 t 4 u & w : y < 5 : y < 8 4 u w w , y r p 4 d e u : y < 3 : y < 3 , u w y 4 y , 5 ; t w t : u < t : u < y : y ; 8 4 y 2 8 : u w y , y r t 4 8 w u : y 1 3 , y < 1 , u w y 4 t 1 4 ; t < t 4 u < t 4 8 < y : w : 8 4 y < 8 : u w w : y ",
"@ , 3 # @ 1 8 % @ w 8 % @ 8 , % @ y 8 # @ 3 3 @ @ t 1 @ @ 3 3 # @ t 6 O @ t 8 @ % 8 3 @ @ , t # @ 8 3 # @ 1 8 % @ e 8 $ @ 8 , @ % t 5 @ @ 3 , @ @ t 3 @ % , 3 # @ t 6 @ @ t 8 @ @ 8 3 % @ 8 3 # @ , 3 # @ 1 8 ; @ r 8 $ @ 8 , @ % t 8 @ @ 3 3 @ @ r , @ @ 3 3 # ",
", e , t t 1 , t 9 8 t < , h 3 e 3 3 5 : : , 3 3 8 e 4 2 : , 3 3 < < 4 ; ; t 2 , w u t : , e , e , < , e t t , t 9 8 t < 3 f 3 t 1 3 , 1 : 1 3 3 , e 4 1 : 2 1 3 < 1 5 : > t 3 , 3 u t , , e , t , e , e t e 5 t 9 8 t < 7 h 3 t t 3 , , > 1 3 8 , e 5 2 : , 3 3 "
};
