/* XPM */
static char *SKINMET2[] = {
/* columns rows colors chars-per-pixel */
"128 64 82 1 ",
"  c #0B1208",
". c #0D1A08",
"X c #1D170D",
"o c #1D1A0F",
"O c #151515",
"+ c #191510",
"@ c #1E1A14",
"# c #1B1B1B",
"$ c #241C0D",
"% c #231D11",
"& c #221F1A",
"* c #1D211C",
"= c #26200E",
"- c #29210F",
"; c #262315",
": c #2C2513",
"> c #2D2816",
", c #25231B",
"< c #2A261C",
"1 c #27291D",
"2 c #2D291D",
"3 c #322613",
"4 c #332A13",
"5 c #3B2D16",
"6 c #322B1A",
"7 c #3A2E1B",
"8 c #2F3116",
"9 c #34321E",
"0 c #3E301A",
"q c #252525",
"w c #282621",
"e c #242822",
"r c #2C2923",
"t c #2A2A2A",
"y c #332D22",
"u c #302E28",
"i c #2F3327",
"p c #2F312B",
"a c #323224",
"s c #3D3121",
"d c #33342A",
"f c gray19",
"g c #43331B",
"h c #48361F",
"j c #443522",
"k c #443D25",
"l c #4C3A25",
"z c #4D3C29",
"x c #513D25",
"c c #513E2B",
"v c #4F402A",
"b c #534025",
"n c #5C4222",
"m c #54412C",
"M c #5A462E",
"N c #564232",
"B c #5A4634",
"V c #5D4936",
"C c #5F4B38",
"Z c #614323",
"A c #614C35",
"S c #624E3A",
"D c #6A5036",
"F c #66513D",
"G c #6A543E",
"H c #6F583E",
"J c #70563C",
"K c #725A3F",
"L c #574C42",
"P c #5F4F41",
"I c #635242",
"U c #6C5642",
"Y c #6F5844",
"T c #725A45",
"R c #755D49",
"E c #796147",
"W c #77604C",
"Q c #79624C",
"! c #7D6651",
"~ c #816954",
"^ c #876F5A",
"/ c #8B735D",
/* pixels */
"wt:w5:>t326q>q6r6t:w:-r>>47,;q>w:t226t>q4-w4:2e2wt4w5:2t>26q>t6r6t:w:-w>>39,:r>q-r62yt2e4:w4:2e2qt325->t3r6q>q6r6t:q:-w>>47,:q>e",
"qt3u>4:t,t3y<t4y,t:t;63t,64req4t,u42qy:t<2>t,2>rqt4t>:;2,t3y;t4y,t-t;64t,64rqq:tet3rq9:q><>t,2>yqr:t<4;r,t46<t4y,t:r;64t,64rqq:t",
"@>2#@24;@w6$@66%@t3@@2<%@w2@@22#@e5$@r6@%y<$@62#@>2#@29$@r6%@y3@%t3@@2<%%w2@@2>#@25o@r9@@62o@6>#@6>#@>7;@w6%@7>@%t3@@2<$@w2@@22#",
">w>wre4w5yw,2a2w>2>>:<<r6w4<:><2,<4;-r2>qaw;>w3w>2>www4r76w<>y2r>22>:<<r2w4<:>22,,5;-r<32yw>>w>w>q>rrq>25yw,2a2r>2><:<<26e4<:>22",
">q<,r63>6w2rq7y&ttw,yq4>6yty>>rr6y242:2w<tt227t;:y<wr64>yr26r7t,qte,yq4>6yty>>rr7r232:2w2trw26t<:y,wr64>2r26t4t;tt1,2q5:>7t6>>ww",
",q&,><:;,::;&&&<,:&&,,*&$%%:,*,*;#&-:::rr;*::&q::*&,><:;,%%,&%&<,>&&;,*,%%%:,*&q%#;::::y&&&::,,&;&,>>;;:,:&%&&,,;><<>;,&>%:,<;><",
"$$$$3--54555555474444555jg5g747gg7g4+X@$%$$$3$-547555554545454444555j75g555g7g73%X+$%$$$3:$545555554735454555557j75g040g7g53+X@$",
"5555lBTGSFBSSGUUUUUUFUUTQRRRUUUUFRRS%2465554lVTGSSBSSGGYUUUUUUUUIUUTR!RRUUUUFRQA%2425574lVTGSFBSUSUUUUUUUUGUSGUUQ!RRGUUUSRQS:r36",
"55g77>cQTURTTUUUUUUFUSUUTRRTTTTYY~/N>67ygg5766xQTTRTTUUUTSUUTSUUUSTUTRWTTTTUU~/M:y5yg7g563xRTURTTUUUTFUUYFUIUSYUYRRTTYTTT~/M:66y",
"6g05535MQRR!TUFGUSSUUUTUTTRTYTGYYKS5%r7y>g75535MRRR!TUUFUSSUUSSUUUTGTTRRUYUUTYS7%y7y3g7573gMWRR!TUSFUSSUUSFGUUTUTRRRUTUUYTI4%27y",
"@gggUGxxSTRUIUUUcUFUUUUTTTTTFUGRDx$$::6++hggUUxlSTRUFUUUSUIUSUGUUFUYYTTTFGUTAx%$%46@%gggUUxxUTTUIUUUcGFUMGFUUGUUTTTTGGUTAx=$%>7@",
"5gg5BQHGcURUUUSUBFSFBIUSFTTTTTTJxZDB:67:5gg5B!HGcURUUUSISFSSFSSSAFYFFTTTTTRJnZDB%6637gg5B!UFzURUTUSUBFSIVFSFVGYFDTYYTTRJZZDM:67:",
"g5g7lVTTGUTSTUUSSASASFSUUTTRURRJTR!z::42ggg5cVRTGURSTUUASSSSSSSSFSSIUTTTTRRJTQQc::4y5ggylSTTUUTSTUUSSSSVSSSVFFFFTYTTURRURW!l:,52",
">gj5lSYUUTIRUSSUASVVFUUUTRRRTTRR~!Ag%<yt65s5lSUUUUURUSUUSSVBVSSBUUUUTRRTTRRR~QAg:,yt25g5lFTFUUURUSSUVSVVVSVVFUHUTRRRTRRR~WVg:<7t",
"@g77zGSRUTRTFUUUcUUIUUUUTTTRR~~!QFSS:7y@+g77lGSRTTRUIUUUSUUUSUFUUUUUTTRRR~^RRSSS37y@%g57lGSRTTRTSUUUVUSUBUFUUIYUUTTRQ~~!QSSS%7y+",
"7525zFSYSURUTUSUNUSSGUYTFTTRRRRRST^~%yyr5g25lGSUSUTUUUSUASSSAISSFUUTSRTRRRRRST^~%yyw57y5lSSTSFRUTUSUVUSFFFSFFUYTFTTRRRRRST^!:yyr",
"7g64zFRUPUTSYUUSSSSAUYTUUTRRRERKY!^U:26>a574kP!UGURSTUUSSSSASSSAUUUUTTTRR~TJY~^U$y62yg34zSRUUURSTUUSSSSVSSSAUUTUYTTTR~TJY~^U$y62",
"w727jUUSYUURYSSUASVVFKYTTRRTTRRR!!Qz,226r727lFUSUUGRUAFUASABAAAAGYTTTTRTTR~T~~Rl&6<6r727lFUSUUSRUVFUVSSBVSSAGYYRTRRRTR~K~~~c&6:6",
"+26rS~YUUUUYUYAUSAUISYKTYGTTTRR~RRWN;u;%@662F!YGUUIYUTAIScGUPYURYTFJUUTRTRRRYR~c&y,$@27qS~UGUUFTUTVUSVFUSUUTYTFJYUTRTRTRYRRc:u,%",
"y7rr66TUGSUIUUFSSISUHTRTYRYRYRRRYY!gq3w2y9wr66TUISUIUUFSIUFUUTTTRUGYTRURYTJ~GY~gr4r2y7r226RUISUUUUSSFFGIUTTTRUGUTRUTYTY~UY~gq3r2",
"wtr2cczUUUGBUSUcUSSUUUTEKTRTTRRTRQzO,r<:wtt2mMlGUUGAFFIcUISIUYTKRJGYTR~KT~YTRQlO<w1>wrt2cVhHUUUAIFFMUSSUUYRRRJUYTRTTTRKYRQzO&w<>",
"ru6yzYScSSASPABVSVSUTHTRET~TTRETYDb5:-t2ru4rlUVbSSASFSAASBSUTJK~~TRKRRRYKTRRUTx7::r2ru66lUAcSSVSFCBVSSSUTUKR~RTKRR~TKT~RUTx5::rr",
"%r<3jcScSUSSSUVSSVISURQRR~~TEYEEGMSl$,6%@r240VCBSUASSIBSIVUGURR~RRJTTR~KRY~RTAAc$,7@@w247BSBVUSSSIVSIBFGJT~TRRGTTT~T~K~RTVSc-,6$",
"wt24lAcSISUcSBCSPPUUGUTRRKRTRRRRFGGx,2q2<t23lNNFISIcSBASPVFUDUYTYYJTRRRKRRTRSIUc;2w2wt24jVNSIVSBSVVSPCGGGYKRUYJT~KTKTTKRFGIc;2w2",
">t7<0FCFUSUSBBCBABUGGGTYKTYRYYKRTUUc&r::3q76gSCUUSUVBcPVPVUPUGTTKGFUTTYTJYJTYYUc,w>:>t6>0FSFUSUSVBVVVVUIUUTYTGGUTTTRUTURTUUc,w>:",
"qw445VUYUUUSPSBScSAISUYUYKTRRYTYUUTz$6>7qr343VUUUUUFIAVScSSUSUYUTYYYYYT~RYTYUUTz:>>6ew347VUUUUUSPSVVBSSFSUUUYUUYKTTRRTTTUGTl:6>>",
"+ww:lSUIUUYUUSSSIScIFUSUYGFYRTRRUTRl,6w#@qw%zSUSUUYUUSSSAScUSUSIUUYYUUDYRURQYTTz,6q#@w1:lCUFUUTUUSSSSScISIAUYUUTHGDYTURRUTRl,6r#",
">t44lGRUUYYUUUUUSSAASSAURJTTRRRTRURlw2,2:t53lU~UUUYUUUUUSSSBSSAUUFUJRUYTRRQTTURz,2,2>t45lURUUUUUUUUGSSSASSSUJFUURUTRRRRTRURl,2,w",
">266lSUUYUUUUUUISSSSAUUPYRTR~~YKUTYl*2:76227lSUUUUUUUUUUASSSAUUUGUGTYTTR~~TTUTUc&y36>y66lSUUTUUUUTUFSSVSAUUFUUUTUTRTR!RYTTUc&r37",
"<6wylUVUUUUUUUSUUUSUAUSUGYYYYYRRTRRMr73y&6ryzUVUUUUYUISYUUSUAPSUUUYYGTYTYGRRTRTcq7>y;6rylUVUUUTUUISYUUSGSFSUUUUUFTTTTTRRURRcr76r",
"@<7ylURRRTRTFYFSUUSUUGTYTUUYUTYJIUTU3w;&%,7yjURTRTRYSUUCUUSUYUTYUTYGTUUTUYYUGUR~32,%@26yjURTRTRTSTUSUUSUUGYUUTTURUUTUTYUUUR!3>,%",
"ww3t5UQITRRRTUUUYSIUUSTUYURRTUTUFRV*;6twrw>y3U~UTRRWYUUUYFPUUSYUFUURYYTRTYTUSRA&&6t<ww6u5I!GTRRRTUUIUSUUGFTUFUUTTUTTTYTUITV*;2t<",
",q4t%<TTRGTRYGUUUUUSFIUTRRTRTTTUTMlF;2>t,r:t%>TRTUTTYUUUUUUSUSUYKTTKRRTRUTTUTMlS:23tqq4t%:RTTURTUUUTUUUSGFUUUTTTRRKRUTRUUAlF%23r",
"qt4t4lATUUYUUIFTUGUMAFUTRRURUTUUMcUA,>ruqt3t5hATUUYUUPUUUUYcASYYGKTERRKRUTTUMcUS,2rtqr-t5hARTUUGUFGUUSUBSSTTGYK~RRKRUTYUMcUI&2ru",
"@t-tgVVSRGFFUGUUTGUSSGUT~RTRTYUFABAB,r6#+t:tgBVSYUUIYUUUYGYSSGUTTKJR~RTRTTUSABSB,27@@r4tgVBSTUUIUIUUTUUSFGUTTKYR~RYRTUUFSBAc&27&",
"2q32hSFFUGRRUGUUUGUUGUUTRQRRGUUAISzV:>762t>>lSFGUUTRUUFUUUUUUUYYGR~RT~RRFUUSSSlB-26y2q>2jSGSUIRTUUGUUGUUSUUUUTQRT~RRGUFSSSlA3>6y",
"6>:3jFTUTURRTUUUTFUIUSTUYRERTRTGUASB&y6<3,32gSTUTURYYUUUYGUUISYUDUTRURRRTTYGUSSN>2426,36lVTUTURTYUUUTFUUUSTUGUTRYRRRTTUFUSSN&r3r",
",27tgSHYURRQUUFUGSSUUUUUTTTTYKTTYIUc%27t,26tgSUUURR~YUFFUSSUUUYUUGTYRTRRUYTTUISM;26t&26tgSUUURR!TUFFGSSUUUTUGGTTKTRTYKTTUIFM:67t",
"@wrulGSRURRYSYUUcUUUUUUYTTTTGGGTRRTc%54@@r2ylGSRYTRYGUUUcUGUUUUUTRJUUTTTFFGTUUUN:64@@wrylUSRURRUFYGUcUFUUGUUURUUTTTTDUFTGUUc:64@",
"3e26lFSYSURUTUSIBFSSVSYGGTTYYTTRURYc66324q26lGSTSURUYUSUcUAIASYGUUTUFTTTTTRRUTYl>6:25&26lFSTSURUYUSUBFCFBGYGYYTUDRTTTRRRUTTz>6:<",
"2r23lFQUSUTSTUUSSSFFUSFSUTTRTRRTTTTM<8rq2w>6lS!UGUTSYUUSSSPASUSFUUUTUTTTYQRUTTTM,3rq2q<3lFQUFURSTUUCSSFVFFFFUUTTUTTRTRRUTTTM,6tr",
"*2<rlFUSUTGRUSITGUUUUUFITRRTTRRRTRRle>2eq2<rlSUSUUURUSIUASBSVSSSAFUUTRRTTTRRTRRle>2ee22rlFUSUUFRYCFYVSVVVCCFVFFUTRRTTRRRTTRz*>6e",
"#2>yBQTGUUITURBUFFYUFUMAYRRRTRRQRRQj;>2o@2>yN!TUIUFYUTAUSBPBBVSIBASSYRQRTRRQRRTj;>2o@2>aB!TIUYFTUTVICBCVBBCFBSSSTRRTYRR!RRTj>>2o",
"6y6666RISSYGUUSSUUGTUUSSKUTTTTREUU~j$2>66y>627TIUSUIUUIcBAVccccSSFcUYUYRYTRQYU!j:<>6y62366TUISUGUGFVVVBzNNNVVSMFYUTRYTRQUU!j=2;6",
"4:2uzBlHUUUVSSUSUIUUUUUSTTTTTTTTR!l*$6q25:2ucBhHUIGASIGzIScclNxcAScSYYTTRQTTR!zO;2e>4:2dvBlGUUFVFFGlFCBmlNlNVSNFUTTTTETTR!zO-<e2",
"24:tlUVbSSVSFSBIUUUTSUUFYTUTTRQRUTx7;1>y>4:tlUAcFSASIAASBBSBNccccUUUURYTTRQRWYMj:2>r>4;tlUVbFFVSFCVVVVVNcNzcBUUUURYTRRWRWTmj;2>y",
"@23ygVVBVISSVUASUFFUSSUUGUTTETQRYVSc4<,&@<6yjBVBSUSIAUcISAScNBMNcIFUYUYTQUQQRV!c3<,;@24y0VCVVFCSCGVSVVVNNNNNNSFFTUYREYEQRS!c3>,%",
"r<6ujBBFFVSBSBSVVGUzUUUURTSRRRRRSIUc;6t>wq>yjVBSUcUcFcSAccSIVNNNcASFUUIRREETFQTc;2t2rw3ujBNSGBFBCVVVmmCFVBBNNVSFUUITREETFQRz,rt>",
",t3tgFVFUVUSBNSBBCUcSFUBUUUTUTUTTTUc%2>tqq4tgFVFFCGFVmCVCNVSBSVBPSUSUUYYUYJYTYUc%2>r<q:tgFVFFVISVNSBVBVVVSVBVVFSUTUTUTGTTUUc%2>r",
"qt:t5VFFSSUVVNVCBCSIBSIAGGTUUTTTGGTl;rruqq:t0BSGFSICVNVVBCSIBSFSUBBUGGYUYTUUUUYz,2tuqr3t0VSFFFGSBNVCBVSIBSFCUVVUSGUUTTTTUUTl,2tu",
"%wrysSCSSSNSBzBzCBSSSASSUUTTRUTRYUTc,27@;r:tsFVSSSNSVzBzVBSVSSSSAUUPYUYYRUY~YUYc,27&&t:tsSSSCFmCBzBcVBCCSSFSCUFFUUTURUTRUUTc,25#",
"5,26jVVVSSBBVzBjPcBVSUUUUUUYGGUYUUYc:6662r22jVVCSVVBVzBjSNBVSUUIPSVUUUYUUGUYUYYc:>6y>t>>jVVVSVVVCzBjSNBVSUFIFSVUUUTUGGUTUUUc:666",
"rr:6jWFBBSczcNBBBcBBSSCIUUFYUTURUYRL:w4r6<:30EFVBCNcmNBBBcCNSSSFGGGGUUIUYTUTUYRL;w426,3>sWFBBFmmcNBBBcCBCCCFFIGFIUSTUTUTUYEL,r3r",
",;;;v#BFNBSBBBBBCVzCBSUSFSISSUUSFYC$&67t,24tv#BGNNVBBBBBVVzVVSSIGSUIPAUSPUUASYS$:26t,23tv#BGNmVNBBBBBVzBVFFFFFUFFSUSSUUSFYC$%77t",
":64*vM5VSlNVNNNNcBBAlSVScSSFYSUSVShg:64@;w6tvm5VClNCNNNNBNBVlSVSBSAIcASIYDUSAShg;64@;w2yvm5AClNVcccCBBBVhFVCVSVFcSSFTSTSVSh0:64@",
">6:>0AMlBBBBBBcNzccScBBSSSGSGGFUCFIg;6:25,260FMhVVNBBBlNlcNVNBVVSScUSGUASUGUSSIj;7:>5q260FMhVVNVLCcczzNBMVVSSSBSSSUSSUGUCFIg;6:2",
",4rq9BSBNVVlNVzccccLBmVBBSFGSFSUBFV4q5wq2w>>4BFVNBBzNVzcNcNNBMVBSVSFBVFUUSSUVSS4,4trrw>>4BVBmBBccPccBccSBMVBSVFFVSFUFFSGVCC4q4wr",
"#>>*.>kbBmBlNmcNzczSNBNBSSGGUUUSmh8 *;>*<;;;.>kbBBBlBNNNhMlBNNNNVBVVFFFUUUGSch4 *;>#<<;,.>kmBVMzcccclczVNBNNVBVCSSFUUGGSml8 *:>*",
"aatuadaa2apu9adpyuffpiia69aaadaidada9paapiraaadaayauadaayafu9idptdddriiay6dyaudidaaa9faapa9iyadiduuuuuuyr9dtaadpyddfuaia99aaatdi",
"qt2>y664>2w2ee2twr3r>>>q2>6twww4,t>9rrtwr>5t:2;6rt2r6r4>>2qyee2t<t4w><2w23yrwqw41t66wwtrr24r:>;6ty227y66>2q2q12tqr3w><2e2>2rw<q4",
"wt-r53>t>2>r>qyw7q3w:-22>49,:q>w:r226t2q3:,342e2wt-r532t>>6q>t6r6t:w-31>>471:t>q4r2>6t>q3:w4:>e2rt4r4>2t>26t>ryw7t:q-4,2>471>t>q",
"qt4t>4;t;t4r<t4y&t:t<3:t,64rqq:tqu42e9:q<>>t,2>yqt4t>4>w,t:y>t4y,t:r>2:t,6:2qq-t,t3iqy:q>w>t,2>yeq3t>3:r,t46;t4y,q:r,>4t16:rqq-t",
"@62#@>6%@w7$@y3%@r6@@22@@w2@@22#@w5o@t4@@62o@>2#@62#@>6%@r6%@y>%%t6@@22o@w<@@r2#@e0o@r6@@62%@62#@>2@@26$@r6$@6>%%t>@@2>o@w2@@26#",
"><>wwe6r7yq,>a2wr26::>226w4<4>>w,,5;:w22qyr<>q>w>,>wwe6r76w,>y2w<2>>:2>26w4<3>>2,>4;:r262ar;>w>w>w2www3t76w1ry2w<2>>:22r4w3>:><2"
};
