/* XPM */
static char *SKINFACE[] = {
/* columns rows colors chars-per-pixel */
"128 64 77 1 ",
"  c #440000",
". c #4C0202",
"X c #530404",
"o c #5A0606",
"O c #550808",
"+ c #5C0A0A",
"@ c #5E1010",
"# c #630C0C",
"$ c #6A0F0F",
"% c #651212",
"& c #6C1212",
"* c #651818",
"= c #6D1919",
"- c #731515",
"; c #781717",
": c #741B1B",
"> c #7C1B1B",
", c #762222",
"< c #7C2323",
"1 c #7E2A2A",
"2 c #7C3232",
"3 c #821E1E",
"4 c #842323",
"5 c #8B2525",
"6 c #852B2B",
"7 c #8C2A2A",
"8 c #932C2C",
"9 c #843131",
"0 c #8B3333",
"q c #8C3B3B",
"w c #943232",
"e c #9B3434",
"r c #953A3A",
"t c #9D3A3A",
"y c #A33C3C",
"u c #944343",
"i c #9D4242",
"p c #9D4A4A",
"a c #9D5050",
"s c #A54242",
"d c #AB4444",
"f c #A44B4B",
"g c #AD4949",
"h c #B24C4C",
"j c #A45252",
"k c #AC5353",
"l c #AD5B5B",
"z c #B55252",
"x c #BA5555",
"c c #B55C5C",
"v c #BD5A5A",
"b c #B46363",
"n c #BD6363",
"m c #BD6969",
"M c #C15D5D",
"N c #C56262",
"B c #C96666",
"V c #C56969",
"C c #CC6B6B",
"Z c #D06F6F",
"A c #C47171",
"S c #CE7272",
"D c #CC7878",
"F c #D47474",
"G c #D57979",
"H c #DA7C7C",
"J c #D68484",
"K c #DD8383",
"L c #DE8989",
"P c #E18585",
"I c #E38B8B",
"U c #E69090",
"Y c #E99494",
"T c #EE9C9C",
"R c #F09E9E",
"E c #F3A4A4",
"W c #F5A8A8",
/* pixels */
"NNNBZHZFCMZHHHHFFZZBNMNCFGKKKPPKHHFFFZMBGGMMNBzhZZFBNZBZCFGZNZMvNMyyhMMMyyMZhMdtzgMZCZMMBZMMyMMMMMBNNNNBCHZGPPPHNZMMMMyygMMMMBNB",
"NBBCFFHHZZFZZZMMh47ZzgzhhMNBCZFGHHFHFNBBzdgxxdhMZMMZNZBBCFZyNwxzxxxhyMMBMdyyB3gv3hMMCBMMMMMhMMMMMMMMNBBBFGHFZZZZNwzzvxxgyzMZMMMM",
"NBNNHPHPHHHHFZZMt3O&xY=<HBCCFHHFCHFCxChzw#xygdGhhBNBBBCNNK*b>+thxMMMhyyxMMe8Nw7v3zMMZMhhMMMMMMMMMMMMNMNNHPHPFHHF3oygxMNMhyyhMNMM",
"NNhHHHHPCMNBZHZBeVKCyW@ VFvFHHHHZGScOZ*c=Mhw8MxxNMFZZBMxL==IO&:>xBxBMh85yhd87dgN3MhMNMzMMMMMMMMMMMMMNMMHHHKGZHHhO%;3xBxNMhe8yNMN",
"NNdIFFiwMHFHHHCMx5fHt6awxBMZHHHHHFI+pj=049C+egMMBBZZMxdMztgB7s-5yFNgxhyy87x838ve8yyhMMhzhMNNMNMMMMMNNNdPZFi8ZHHM6y&5yGNgMhye5yMN",
"BB>HI&zHZNNHIHHZM5Ny54& gPMBFHHFGMrmBHHV lOtxvMCZZZMzgxN +7<7yh4dNHyFhgy4-4h$tv$5yyMBMzMMMBZMMMMMMhBNB5HI&zFZHHF7hz5dNHyZhyye3dN",
"Md#hTZg7MBFPPHFZhztysR+*CgzCFHHFgNdHHHFGC@fxvvBFBBMhyzM-  7  ziyMe>hBgyyw3O:5xN;hehyMMzMMNNBhyMMMy3NMh$MRFg5NHFx.ziyMt;hCdeye85M",
"v7 zBG#xBBMZHPHMh8#MMzsedBHHFFZHgyGHHHHM,fvzvMFMZMgddMg#:7b Xr+=P-4N>cx885$#eCd-$yehMzMMNZZNMyyMh38MMdXyHF#MFFFgXr+=P-4N3MM8558M",
"h$X#MTNhtyvGHFMy8yx0+kyMFHFZMBZMhgKHFHZwyhhyMNvZMdyyxyM80 n>g> OC+5zv4BM53eyyt4+-3dyyhMMNZBNhgzM55MMNC7MGFFZMBCMh> OC+5zM3CN44xM",
">>..tKG&dxMZMMMMBd$.iShZHFZyMMMh8MFFHBByyyhgBMZMM88xtg9& X0hxe$&I$;4r7dxN5;#xr$>shw8yhMNMMNMddhg$yMMNShFHFZyvMNhxw$&I$>4w8yvzxNM",
"-+#.4tYCghdegMMFg;>>HHVCBG5eyxMh5xMZFzhw-NehFhGh88M8-r&.X% Beze6t$-r< 555yeeGh;v534eyyMzdMMx5hM&&ZMMKHBBBG5eyxxzexe4t$-r< 5evMxe",
"4e>. eKHx>>yyMFZ5w5B0tGNx>$eexheyzxMzygy7BtChFge5;M3tt& # >G&qCste<Bg.o3>&;gg7%#33535yZyygM54xz.hZBBrrHNz>$eezhe%rCsre<Bd.#3xxg#",
"g8> .#NYY.35yBFwyeN* %%0 #5yyMg<8yydOyGsSNzF4I833;yx48&XXw>I+uxC4r%>-so#-5>Z#8X$>>5>t0Gezx83:M0%ZxG* #@0 #5yyMd4+uxC5r#>x7.=Nz+w",
"w&5X. sGFN#txz5dgC* *iq .;8yh-N#>33#.VM%Xo+zdS--3-z806;#x>u0:J5#kvs .#7e4-cH7w;#-#et: 56Zg$>8G.cxN2 *sq .-8yh;N##K4#kns SG%zM&4M",
"yd4$X 6&BIye7;yyNf&jbq, #38hz3Co>#+7iL+O  1,OG#>3c854y3M:OL&6L,&@tH Oo+;twNy;$-#&+0K6n* 0<--eN&BHs=jbq, #38hz3No0L,&+tH 0SOCy1Ch",
"Mxg5.  &hIM>o58MhDxV+m,.335ggex.#X>zIfBbLcXw ,g#7w44hdghg+N=INi+%fj,.#-+yyC-$oo#o+60n*# u<-:dkqheZxV+m1 >35ggyM.Nni##jj,uxtghxxN",
"7;-$X  .8NE,$3x97=Fl CJ.754yygB. &Sl+:Otc7fg  :4y;wxvxh7ii#ZBxk.4lXc.#3egwL>4XXoX.&tN>%+x+%<hryy<7Gc CJ.554yygB Ncz.6l.cgyyyyhMh",
"5e8> $. +vVV#g*.+4UsaBY:88&4zyk XC9  +zgtkv01X+wy3dxMhsO:j0xzggOes-f<X8>#Cx%>$....3>44-4e##rgeyyytUiaCY:5w&4zyk zgdOey-wyeyyyhg;",
"&$&>O4o  riUv+#+w>VSsnGb>dOehhs 0u  @f6   @qms+;egyxgg>$1ieMdes$g+$-s#oowNy&.X..ofCh$3ed;$$dyeewy4NSivSg3dOthhp dts$g+-8yew8y883",
"..o--##   yLc%:yFd>ShzrD%e38%n0.k. XfO     .6%&8>dewdye+0twNyr7w%&-.+voovz3X..orxyxx;4yg3##y8558yy>Cts0N$e38#M0.tw77&$--58585##X",
" ..Oo.XX#X<Nx8&xSNk0n77x8yt >x<+w  7O     ..X >4>738dgh+ceyv7e&w.$$# :zwMw-4;4w-#ozM3wyy>53355558<+##$oz8ye.>x<+7e$w.&$-5555e<+.",
" .#.oXX>8.<4hy3NvGM&z61>hv+-3d;6& *#.. .    O.&$7+-7xve$Fwes>N;<.O.X..4gy4ooX..## NN5eyy385$55>;-$#.X.#4hv+-4s;6>N;<.O.#55>-&$# ",
"o##oO#X>>. 0FydMMZey:r 1zp;83y<8#.3>. . O X  ooX=-#7BV57z0-#snz-#X   #yye-  +%8ygyBM8yz8533Xy3>X   o#o#$hp:83y48sMz-%X &33>X   o",
"--#-.-$h&#:*Yzxxxv8y0+ *ve4588-7-.e--.. .. X.o%.OX+77N&g7yO8>:&+O&>&.4ey8. .. .X>dhMyyM8y8$.eXOoXoXX--#-vw4588-5<-=+O&>45XOoXoXX",
">3$3o#3g8w#>Gxzhxyh4&=.+F978x>&w&+y#8.+ $.ooXo-.#OXm6k+g&-#&zk5.     >85- ..X#&6+xhxxgMgy53X8-o .$#X&-.OS977x>-yzk5.   #8-O..$#o",
"35;5$Xyyg#$dChyyysy58#.jN:8hy>$8&&d#e.,O#o#.4#4+#XXE=N4u.5&yxSe-XXX. #&$XX  +.#hgedhxvMhzz5;4>O.o>$o8#.kN,8hy>&yxCe-.XX.3>O.O;$O",
"58;5- hgvO4xC5355xet5.rgv0x<#8$3>:y3e+1#>$O&8$3&OX<W+x>p.dXhhNxtcy3&-X..o$.XOwO1-538hhhBCgdx;;$.-33X5 rgv7x<#w#ggNvtcy3&>;$.;33X",
"5y35-.gzCoyMFo$3wx&d+<v=Nv=w&t$w>&y6g-<#>>.55;53 +uT&e4f.7#yhxwxKz8y4$X$#XO#+#i:4435yhMFxe8KG#5o-5e#+<v=Nv=e$t#hzx8xPz8y3#5o;5eo",
"3y-5+&zkB&Vxj o+Fw.4#v+bz<wyh<&y4+y>e44>47.7538-.&kY,58G.X#yg3-xz3sw7>+.O w%>+4hey85gdMGh-;gR>$;$5g;#v+bz<ryh<&yh3-xh3sw5$$#$5g>",
">e+34XMfM3Hyp .OI7O&sOOCB$sx4+68zXyt>#e>w<o584y&&#hI9&gy-$>&-.>&$+ghh3##$.6;e#7$gdx8hh7Fgy5yRy3--wget+.SB&yx4+68- >&$Oggg3###8h8",
"48#e+#gtMwx-g16zJ.Oh+#.Vz9g;#Ot7B.xd:&h>t=+478s%1+tK0.C#-e4&>O-.OoByd<&$&.$y-7>y>NNyhs$xzdyyPy835yge++.Ch6g>#Ot8>O&Xo#Nyy4$$$ygy",
"we4#4e70hy8o-4$xw.n4;+1Ndy;.+q<5N$Nes6y$t8X3>4d+7&&By n4&ey>4#O##-vz>5---#$3&>6g8FMzzhohMMzzZdge5dy8>+1Ndy;.+q<74$O##-vx35;;5dy5",
"-do5y>4segX#+-#58fg+3+Nee+oXXV+&d7xywstOf:&4&>s+eq74z#1j$3h+<#o$-3=6c4h3;;o$o+wxMZNMhN;wxMMMZzyyyzw33oNew#o.OB+&<#+&-3&6v<h>yx84",
"4e>yooydex. X$&77s5;>vg8%X-O9n+#8ggh4Mz w,&>7#y-4b6gdc&D##Mo;#o>ew<4gk7V>-$- +8xxZFFhvt&hHFNZyhggh>.3Mg8%X&+9N+#>#o>ye33fz7Vhh>X",
"3ys>;-5g4N...#e#e+x5tv8;*;.64>e+3dxgdPYw#h7;%8y3>Bdf&SgG+Xx$-#.3ddwg-yw:x4o&+O3xxCFCdhs.XYNBB5dxMy;#ev8-&;.61>e+&#.>dy8g-yw:Mg-#",
"8d55>w>x+V.+#>4&-6M#xw8#-#tg.<#s&4xzFGHB-7re->e->nzS gG6> h-#o.;yMNhkg;e44>.#X4NyMCxxgw-oIyMy8yxMM53h88$&#ig.>+s##.>yMBzkg:tMx4>",
"yy83yy3e5.3&$7X5Oth%V3#$tx64+6.vX>zBFBBH8r#>x&w>+g<v,h;+y+y3$oX#dMBFMH8xe&+&  7zyxxzz4zews#4xNyhzyO-d3#$ix44+6.v$yX#gMBFMH8xxyO#",
"hyedMhe<bO#O %++-hjc3&7vs+ 5,rOXX;MGZMMFy8&3<y74 dtO:4 %z104-#XodMNBFZgyg>3#+Ok5ygdhe4y85O>$eF>dB4X4>&5Ms+ 7,wOX#-XodMNBGBdyN4X3",
"xgy5dx8+.>X5&5&.wxvt7xh7+X+1r63 #3xBMxxNw5535ee5&wtO.>4rT7,e;>oO4MMNFHxg548-+>g#3ex5#s$>O;tdhF8sxt-;7xh7+.@1r7< X>#X4MMNFHxgxe-e",
"Me#>zM8+#t*+++.-dC7xB7tho*g+n0< 33yxzhgM7>g548d3.&=C<CCCHt4y>o5$$yNNBFHx858yO<z+8dx;>&5=ygeeezN8hvzMN7yh+%g+n0< $o4$$yMNBHGzhMhM",
">#&eNN>.>83 o #7FyNhzGz5:z;7kw4.5w$Mhdyx44:xg8ve$.50Ntg38hg83>34$3exNBZzg88wC-:+::t-6-;;3;38yx>w7MNxgGx4>h>7kw4.#>33$38xNBZx5MNx",
"o48dNv&+o>#...4FwxdVGZy9s>&.G&;X>i#Mdyyx=4X ,svz4#>44#Md5gM836.>3#e8xzxM8yeh7w#%  4#Ooo#$>38yhr$wMMBGSe>f>&.G-;X>6.>3#y8xzvx8xx>",
"3gyzBC##4X. #rA0V,9shg=cO#.0Yw4 :z#dd85zX0# .:iGe5.535hMydZd34..33-y3w8yf>eg>vO&7>&-oXo+&>5eyg588MMNxs:cX#.0Yw4 ;>..33;y3w8yf>y&",
"ydzhxFo3eO oeveuG6=,k&D+-w8$M:>O h.y53;gXt#& i=6Mg&Xh4gBNzGh38#+.88>y>-;>Ozit78>4 X&4eC5y55ygy8dyNNx7*Do-w8&v:>O#e##.58>y3;;>+Ge",
"BeNzdN#e>;.z@+9V17.4+Bty0+%7Mz- &p e$&+wX8+=%;r=yg8.hNyNFFZz3-t-&Xeg4w87X>=>xe>478&X#5tzeggnr88yxMhe#Byy7+#7Mx- $;t-&Xeg3r77X>sx",
"IeMCyg3575t%4CD%<ms+gxw%$X7zds& e,-7.#.4&<<.e:#q9zyowNZZFFNN><>w>-XeM3-Otqs.;MMgs8zd55+eGvKeM>tdMvxxgxw$&X0zgy& +4,w>;Xex4:XeqNN",
"K8vZyyyzxi+w7ye#=i.0d>>5>XNS:+4.u+w +o+.i+:=055$V4x-4gMZMMxM$6#yy3&o7t>5,%#y75ZxxhgvzggSVgw3B4yyMMNCs>35;ONS:+4.o6+ty3&o7y>5seNC",
"NggCyhFI0rBg;O. t.38%e7NFxYC8sd-0h+   . O4+g#xw36Cey35dhzzyG##e3wgew&yt=&&.;yyxBMBMvFvwet4y3nwgdMCZx#e5NDxYC8yd-##e4wgew#yi=MCCG",
"gHeZMZPdMFx$...#-;>&hwxNx7Nt:w<9edX  X. #=1qp-Ny5H5z4#x8de3V8 5yy55y6t.F+>- &ghdgxNvY-8hx5yftghgMZFZh8xBx7Nt:w<98 8ey85e7t.FvGGF",
"gFMNGHBGFg-o&37hh-#hz8xg#X-X.y&s+4- XX. #Xe#N7Mhszz8h#qt4-&&r#>-y58o%;<0>84>.+gx888yNC78e88F5hzhMHHCh8xs#X-..y&dw#;-y48O%-<0hCHF",
"zvGZPHGZh83yeHgFw#yxy5$.-.&XOw><+h& $-O.r.ks4gxNzgH8c@,V0&; 09-3he-g=t<t7ytzs%.fN>>$-eNNxxwTtxgxMHHMy7& -.-XOw>300-3ht-g=t<yzFHF",
"hzFFFFZMzggFvBM8-yhzy8+%+s$#3sye:x;.>5#Xt #zht>NBhCy8rrO+<&tw4&-;g-4;.s&w<txvIwsGN6#.+>eFHxg>zhMMHGZd8+%+s$#3syww4&--d;4;.s&wZHF",
"dzHFHHHFZxNGgP5$yvhzyw.5&v>X++;>:M3 4x&$e6XNNs.7MNMhx4z-7g:8#>&##w73$#:n-yfyxUMgVyv;$X-8hNzythxZMHHMywX7=x>X+#-;#3&##w73&#:vhHHM",
"yMZNMNZZMMGNNMoydMhzd3s+Dy7&;3e8-Ce.yh0&e8.vzF.$yCNxzx4X:sx:;X7-oon:#-h,H87FgIszKL&73;;3egshsexBHHByd>e+Dy7&;3y8-X7;ooN-#&z<FHBy",
"8MzyhBFMBHMHy$8hhxxx87i*Ky54deyh5GyOgxc:zw+xtHuX4MxMMNe-# 6g4.7>$o#v..d6zD4gGzzggPHZy835dgKM88zBHZd887e*Ky54deyh4.7>$o+v..d6xZdw",
"hg88hFNBFFhxyyyMNvvy8N#zSse-->>hcFeXxzz<getNewHr-hMMMNe84O <v..se+r8d.<H4KCcNthyePhdzz8dvFKFyygMHMy5wx%kCde--->zx..se+rws.4FHMy5",
"g;5yMZHZFxghzgMMNxgyC4$BByxe>5y8GZe4xghph$zCg38FtMGvCBhyy5XoC4#+s4y+B>.xMxDi;MNNZHMh5x8yNyCFyzdxBMhxx-$BByxy>5d8S4+%y<yoB>.xBxzz",
"#38dFHZFxMMxCMMMNMyNheoKBggxh>ZgPZ>yxdgdz5tChw$-MFvzCMzMyy-otx5#0e<tit&7Ni<NwwyyyFzx53hMyyNdxMxvNNFy$#+KNggzg>Bgtz5+we4tit=7BBGs",
"$3gBHHHMFBMZZNBNMMe<MZ3PNMxhg5MFyh&yvydNhygNhh.$>MgyBggMyCe$5B8y$x8e>x3O7x>wyhgdyNBZd8wP8&PeMMBBFPgX#$>KNMxhg3MZ4B8y%xwe>x4wGKgX",
">yMHHFzHFBZNNNZNMg84Fg3PNNxxyexyy>3yMyezhgtsyd#-&zgegyNMePzw5hhxdhw5-8y3&4y85yzxMBZMMhyNB>ZyhMHFHM##;&3PBMxxyyxy8hhzdhw5;8hCKxo&",
"yMPHZzMZNZHZNFMNxyeyF55PZBMxyy4NvB-8heN-Nyh4dN$-;yy8yyZM5KNvhyxBy7In7rGCM535y3ewBMMMMxgMHvBhzxFH7$>ey58PZBMMse5MgyxCy8Pn75MB7$>w",
"HMZzxNzNMHHIBHZNMgdzB3yHFNZMM>5GNz$8hgsuNgs0>gh&>5yy5yZygNBCMhhBxe8ZydxMFH83555ehzMMNNMxFIKhMvZGGhMBx4yFFBZxM>8FMhhBxewCxMMMMzMC",
"ZZg8BMyMBBHHPIHBMMdMN5eeMZZMx4dBNN74hh5xrxv8;>h535y5eMZyHgFMCMxBFwMtygMMxHN3;35w5yhxMNMBNGIFGCCKKKKGM5eexZFMx4gBZMxZZwvtsdvNKKKG",
"zHZzMMy5zxdZPIIFZMhhBgy4>7xg-5xNKNs-yx5e8FyC4e8e358wdBZMGgFMMZFZFCNByxMM5xM3;#3y8yygMMBBGCKKHKFKKKPFBgt437xg;4xNxZZZGBBByxNGKKPF"
};
