/* XPM */
static char *SKSPINE1[] = {
/* columns rows colors chars-per-pixel */
"128 128 62 1 ",
"  c #BF7B4B",
". c #A36B3F",
"X c #6B0F0F",
"o c #9B633B",
"O c #B37347",
"+ c #8F5F37",
"@ c #D78B5B",
"# c #A73F3F",
"$ c #EFA373",
"% c #9B3333",
"& c #8B2323",
"* c #7F1B1B",
"= c #875733",
"- c #774F2B",
"; c #5F0707",
": c #4F0000",
"> c #7F532F",
", c #5F4323",
"< c #972F2F",
"1 c #831F1F",
"2 c #670B0B",
"3 c #6B4727",
"4 c #AB6F43",
"5 c #8F2B2B",
"6 c #B34F4F",
"7 c #BB5757",
"8 c #DF9363",
"9 c #430000",
"0 c #731313",
"q c #530707",
"w c #533F1F",
"e c #771717",
"r c #3F2F17",
"t c #4B371B",
"y c #CF8353",
"u c #F7AB7B",
"i c #C76363",
"p c #D37373",
"a c #AF4747",
"s c #732B00",
"d c #E79B6B",
"f c #AF4300",
"g c #A33B3B",
"h c #332B13",
"j c #CB7F4F",
"k c #FFB383",
"l c #874307",
"z c #43331B",
"x c #DB7B7B",
"c c #5B0707",
"v c #DF8787",
"b c #BF5B5B",
"n c #E78F8F",
"m c #CB5707",
"M c #CB6B6B",
"N c #470000",
"B c #B74700",
"V c #DF670F",
"C c #C34F00",
"Z c #EB9797",
"A c #EB6F0F",
"S c #2B230F",
/* pixels */
"8yOOO  y8@yOO      o,222XX0eXcX0%g1X1&&&%g%gg%%%5*2>-   olsssss:XXe1Xe11110<#,.@88888888@888@y@y@888@y@yyyyyy   O444o++oo444o++o",
"8888@@Oy8888@@OO@8O&2*<<15g<00*%%a<15%%gga6666agg*e0--lsss.@$ >=::2eNcXXe<<eNNNe1<%<1NNN1%%%1X&%+4 @88@@@ 8888 @ OO  OOO OO  OOO",
"8888yyO 8888yyO 88&9X*1&&5g515%aa6gg%%<ga6aaaaa6%g5eXsssO @$$@.o=NcX2;eee<%&*&&&#7776#%#a7777aa#a7777aa#%+4j@@88.=..OO @.=..OO @",
"@8@yy O @8@yy O k.9:eX**1&515<aaag<ggggaaaaaaa#agg51XX:=O=3O$$ 4=Ncc2*10&#&&#o 88$$$$$$uuu$u$$$$uu$u$$$$$$$88888@O44O @ @O44O @ ",
" @   O 8 @   O 8$&:cXX;e&*0&&5#ag5<ggaaaaaaaaagag<1e;2,o,,=O8u$ .,9:&,.8$$$$$88888888@8@@@@@    @@@@    @@@ @ @@.OO   @ o4.+  @ ",
"88@OO y$88@OOOy$O9X;;X:X*20&&5555<ggaaaaaaaaaagg<&&X;qr=o,,=O8u$ O $$@@O.O.oo+====+=+=oo...o=-,=...o=-,=oo=-=-==-oO $88  Oo+Oy88",
"88@j  y8d8@O4.@$oX#&;;;*0X5<g#a%5<gaaaaaaaaaaag#55&#iO  o-,=4 $$@O+=-,t2;;;::0e&%#66biMMMMMb7<#7MMMb7<#7bM6%&1&<2:=u88$8 .o+Oy$8",
"uud@yy@@ddd@O..O @8$@8$$$8$88@88@d$$$$$$$$$$$$8@@8@@@@@O..,>.  $u or;99Xe&g%11%667bMMxMMMMii6#7MMMii6#7MbMM61&77*X$k$uu8yOOjjyd8",
"$$$d88dd$$$$@   .=o.=+O.O        @  O OO @  O OO.+=,,-wz,,o-=  .ku.r;;;&&%##6%#777biiMiiii766777ii7667777MM7#ivxp8k$$$ud@ j@@@du",
"u$udd$uukk$$888OO=oo-=+..OOOO OO.+o+==++.+o+==++*X2&i%&;X+8>t.$=Ooo-:;X&&5%%iiii@88uuuuuuuuukuuuuuuukuuuuuukkukkkuu$$uud@@@@@du$",
"$8$$$kkkkk$u88yO.+o=o.oo=o=,--==##67ip77##67ip77%. @@$u$ .Oo-O@llAAfr;*&*56i8$$8$$u$uuu$8888 @  8888 @       @88 @@uukk$88d$ukku",
"u$8d$ukkk$dd88OO.+3t0cX*9XeX&#iipii@@ @$$$$$$$@$$$$$@ O+=-oo,-sfmV $ +,O8$$8888jOoi76a666%#%<ipi6%#%<ipi7#&<67p60X.@ukkkdd$uukkk",
"u$8d$$$kk$8888@OO===-oO@O@@8  @     OO..    OO..oo=>>,zw-www,sl.@$kk@@@8@@.>#%<5&&6O @88$$@$$$$u$$@$$$$uukuukukku$kkuuukuukkuuuk",
"u$88ddd$$d88@ O.o=,3.+=++oo..+o.+====%##+====%##7##%%*2X*X2z9oO  @$u   .>&*X&%1o @8$$uuuuuuuuu$uuuuuuu$uud8$8du$8$u$$uuu$$u$$uuu",
"$88@@@@8888@ OO4.o===.+++-wth9q2*&6777agga6777ipiii6#&XXXX2:=.o->O k8 -qq5&-=.8$$u$$$$$$8$$8$$$$8$$8$$$$d8d$88d888d$$d8d$8$$$$8$",
"88@@y @@88@@@ @  .o=--,h:99:92e1%%#ii6ia%%aii6iii6i6i6p8 O@O o-w-. uu8 + $$$ @88 8@88888@88@ 888@88@ 888@ 8@888888@@888@88@@888@",
"$888@@8d$dd8@  @-h::q211:;X:X&-=.O  @O@8dddddd@88@@$$$$$@ OOO.+-=+ uk8OOO  4+   .=%6%%%%%6766ii7%6766ii7i7i66<<&66. $88888888888",
"u$8$d$$ukud$8@  O+>.O...o.oO O.. O   O @ O   O @@@ 8@ o#<&****===.O$uu OO=30X&2X**&#67ippppxxnvvpppxxnvvvvvvp6<i7%X+k$d8888dd$88",
"d$$ukkkkkk$ud8 O..o.+==--=======o+OO   .o+OO   .o-&&55%<*;X%<0#.=O 8$uu =tc2&&X%#6ixxxpnvxnvnnZvvxnvnnZvxvvvi6ipi#5Ok$$u88$8ddd8",
"duu$kkkkku$$d8@.oo==o=---==>--3,t**&<<<<t**&<<<<<%##77xp6=O8Oo.+-O$uuu8@t:X&#&&6iippx7invZnvZnnvvZnvZnnvvvvp6in6#%%@kuudy@y@@8@@",
"@888$$uk$d88$y O+=-oo=+--,22e***X*%667g5X*%667.@@@8@$@8@ O@OO+.+=O88OfBf;;*%#&#6iiipi7ixvvnnnnnvvvnnnnnvvxp66pp6%%Oku$d8y yyy@yy",
"  jy@@d8@@j  OO.+oooooo+o..O@@@@@  @@OOO@  @@OOO...o..+==-=>>,,-=,sfffmmf*X<%%##6ii667 @@@@88dd$$$$$u$$$888$8u8$uuuu8@yy 4      ",
"OO4OOO   O4444....oooO...o..O...o++o=-,>o++o=-,>--oo==%<%1%%%&X*sssf kkk$o= @@@88@$$$$$$uu$uuuuuuu$uuuuuuuu$8$88@   y    .O   OO",
"44..................==+===>===-,,trr;;;2,trr;;;216pii66%#%&15%Xeq= 8$ukuo.@$@888@88888@88888$uuu8888$uuu8$888$8@@Oo88y   O4 y O4",
" OO4..44OOO444.. O3r:9q2;eee1%*5#iibag55#ii%X*:X6pi666%%6#*%%3ooO=oO  uuoo @O@@   .OOoo.o.OO  @@j OO  @@@88uuu88@@$u88@yy  yyy  ",
"yy  OOO  j  OOO 8>r:X21%&##%##5%#6pbba%O#6p%eg-O@ @@@8@8u$8$$d@.=>==  u$O .=0*;15%%#6#1*577iiiiMi77iiiiMi66#%%i6<,-Odd$d@@@@@@yy",
"@88@@@@@@@@j OOO.o--..O8 @@8@@@ $@@@O8@@$@@@O8@@8@@      OOO.O Ooo== 8u8O$=56%#ppiippp66xxvnnnnnxxvnnnnnnnnxiiip7%2-yd$d8dd88d@@",
"8dud$$ddd88@jO.=oooO...OOOO    O@   ..=-=======-<551&&<&<<<#5*<1q=.= 8u8O @@$@@@@888$uu$u88$$$$$u88$$$$$$uuuuu$kuuuuuuuu$$$ddd88",
"dd$ukuuu$d88yO=++==ooo. OOO   OO o-2qqqqqqqqq&ee53oOO@@@@  @@OOO$@==O$u8 o=o..O   8@     8 @8888yy y88888888888888uu8uuuuu$$dd88",
"88duu$$uddd8@ .oo==+.OOO.+oOOOO   jjjj@@@88dd$$$dd@@@888 @  @@OO .>+ uu8 .oO+,&1*X11q2055%###66#5%###66#6##<w-+oO@8@@$$8uuu$$d88",
"y@8888d8@@$8@ 4.ooooo>>=oO OOOOo=+o+++>3=+o+++>3>--=>=1*;q*X;X**1;> 8$u$8O=r;X%%<Xi#X<##7ipppvpi7ipppxpii6#%&***,OOOO @@d$uu$d@y",
"  yyy OOOOyy@OOOO.ooooOOOO.o>t9:X00;X2%XX00;X2%X:X%66i%%*:&&*X;c;;= +w=..-r*X%i#&5#55#77ipppxxxpppppxxxpiii#&1%1;=O.oO @d$uu$d@j",
"     O .OO.o>,X;;;;X*&X%6%#*X#&c6%#*X#&c6%#*X#&cX%6pii##&;&6&*X22;-ffffffse&*###%5<%##67ippxpxvppppxpxvpiii#*<#*o.   jy@d$uuud@j",
"      OO @O.... @@O@@8O@@ yyyyyO@ 8@$$dddddd$$@O@@OO77#%*X0**X;;2slfCmVCsq21%6###1###66iippxpxpppppxpxppii6<#i&&O@@@@88d$uuuu$8y",
"@y     O  OO=+o.  OO @    @888@8  @888@8  @888@8$8@8$8$$@O4=&*2Xo@@$kk>O@-X*####&<##<6i7iippxippppppxippi7%%p%*%%$dddd$$uuuuu$d@",
"8@y   O OO.=-3>>>>>=+====>==>==+=>==>==+=>==>==++=oo+o.O  @$8@O@.=.O k+.8.O=%##%%%#%#666iiiiiiiiiiiiiiii6#<6#1&#;8$$$$ukkuuuu$d8",
"d8y OO..>wXX;eX&*X*&&*&*1&<%#%%#1&<%#%%#1&<%#%%#6a##%<&***;:==. .-.O $.OO3@$@@@@ Oo%#6767767i76#7767i76###6%%&3o u$$$$ukuuuuu$$d",
"d8y O..++..OO@ 8. $@@@@$@@@@@   @@@@@   @@@@@   @@ @  OO iX&#q9X.+OO@$O8.zO    @8$$$$$8888@@@ o##########66 8$$u$$$$$$$u$$$$$$dd",
"88y OO++->o==...oOOOOOO. O             yyyyyyyy8 @@@@88@@i#i7X;Xoo  $8 @+3*X5%#%=4   @@88888$$u$8888$$u$$$8u88@ 88888ddddddd$$dd",
"8@y 4.+=--=>=oo=.O..o.==oo..oooooo..oooooo..oooo=o..O.O  8$$$@@.-. 8$$@ -O .7%;X1&%<<-+4     @@@     @@@@  8 @@ @@@@@888@@@8ddd8",
"@@yO..=-,-=--,--=>=>3t;99q;qq2e*<<<<<<e*9q;qq2e*&&&&*1::2-=++=O-r@@8$u@ -=O@$$$$@6ii6###6##-+.O 444444O     @@@ 8 yyy@@yyyy@888@",
"yy 4o=>3t99:q:9;;;X;X*;:;;;11%5###aaaa#5e2;11%#666ii66X;;&#&::o== @$$u8 ==.+O  @88$888pxp6#&%%<5&&&&%%<5%11++      yyyyy   yy@@y",
"  4.+=->th;XX;*11*&%#X;:;;0&%%####aaa#gg550&%%#iiixpvi&:*7n6;:;ss->oo..$...+..     88$$$ O<#ipii6#<#ipii#&7i<*<&,+   j  O44O    ",
"...++=-=oo.o.oO@ O8@$$y8@O.oo...OO.oo...OO.oo...  O @O=;%7v%Xq;sslfffls=t::;q;Xw-+OO@ @8$$uuuuuu$$uuuuuuuuuk$uu8 @4.4O4.ooo.444.",
"++++=--===.+==o.OOOO OOOO  O   yyy888y8yy  O   888@8@8OoOOOo,,+o>O$@ofltX&*#;e<%<&&<+. @@ @8@88@@ @8@88@@  8    OOo++oo+++++ooo+",
"++++=-->=+o=39;5<<&10q220X0011&50X0011&50X0011&5<<<3+. @8@ @.@o,=.$k@$ >2*%ge<#6#7ii6%1w>. @@88    @@88 @ .O.O..+>=>=+++++++++++",
"+++++=----o.=,X***Xq:;e*<5###77a<5###7ppbb###7ppii6<<*:X&<#+=@,woO8u O..o*#&1%##6iippi%*;X&%;X&%>oO     OO..oooo=->>>=++++++++++",
"+oo++o--=>,=o.OO@ @@@O+#6#7##iip6#7##iipMM7b#iipii#ip#*X15X91@,=. uu >-$$@8+%#6666ipii#*X&%%#%<#X&%%#%<#%%3>o.==+==>=+++++++++++",
"o..oo==+,=>--=oO..OOOO    888888  888888  8888888@O @ o<#6*:&O-.O8u8.3.oo 888$8  iii6#<*5%#6ppi6#%#6ppii7#e1%*,-oo+++o..o++++oo+",
".....=.-9::cc::;;Xt,3-==>>==+o+.>>==+o+.>>==+o+.. Oo@ $@8 OO=== 8$$8o.=wX*&=o 88$8$8 OOiiiiiipi7iiiiipi765**&*e.Oooo.444..oo...o",
".444.=OOh:XX::;;**&&;21<*:;05&&&*:;05&&&*:;05&&&10qt,3+o.O=w==.8$$$@+O$ +%*1100%=. 8@@8$88$8888@88$8888@i7p6%1-@ ...4O4444..44.o",
".4444+. -h:::;XX*&#&0##aa&;%##6aaaa%##6p7<&%##6ppi7#%&;9X*99=38$$$88..8@8$ +776#%&15=. @@@888u$$@@888u$$$$uu$ @@O O4OO444OOOO4.o",
".4OO4.ooOO===-=-,%%*<#6i#%16iiiiiiiiiiii#X16iiiiixv##%X:<X:;:ql.8  $ OO  @@@$$@@ +<222*%+O@88$88+O@88$8888$8@@@@@@    OOO    O.o",
".4OOO4.o....OO O @OOO.OO.o..OOO              OOO666%%&X;X;;ssllfBf+O+---=.O @8@@8@8$4+6#%###6%%%%###6+4 @888@8@  @yyyj O     O.o",
"o.4OO4.++.--=o++.+=..O4..o@@      ooooooooooo   OO..o==,--,o@@u@VffBow*:9;X0w=.O@  @@8$u@@@i7##&%%%i7##&5**-+O @@@@yj OO     4o+",
"+o.4O4.++=hee1e*X;X*1010**&%###=**&%###=**&%###=+oO @@ 4O  ,=Ou$k$ols&%;Xe&%%51&&-oO @88 @8 8@@  @8 8@O=3%#i#&w-@$@y O44O   O4o+",
"++o4OO4o+=-==3--oo.o.  @8....o.o>3%###%%>3%###%%5&1&1&&;:;-=+O88@ 8.l&*X&&%##%%%&*&5w-Oy@88+O@u8$@  @$@OOjjOO OOOO  O4..4OOO4.++",
"++o.OO4.++=>-,,3>===+o=+O.OOOOO @    @@@@    @@@O>512X;:;;-=. $8 =33@ =**&%####6#66667##-=o=. 8 OO OOO.O.oOOO    OOOO4...4444.++",
"++o4OOOOo+=-3,,z,o======o===o+o....o.......oO@8$$$kkuk$$Ow4OO@$@O=w>@@$$@.###i666iiippi667#*3+4      O O.+..O  yy OOO4...4444.o+",
"o.4O   O.+=-,,,wth:;*XX:;;;X;;XX**1*******1***-==o.  8$$O,.O 8$@.>,3OO @888 .7iiiiiipi76666#*2;3=o.   yyO ..O y@y OOOO444444O4o+",
".4O yyy O.+>3,,ww,-.=3&X&#%;;&%%%66#%%<<%66#%%<<*2;q,+O@.>. @88 +>3t;23=+O@8888ppppipi66666#&X*#&*5w- @@OO.OO y@y  O  OOOOOO O.o",
"4O yy@yy Oo+>3,w,,=OO.@8 =%e*5#<#######%#######%%&*e99t..O 8888 o-.O-tXX*&&=oO 8$$$888 766#<&0&&57#&wo8@OOOO@  y              4.",
"4O yy@@yj 4o==>-3,--+oo=oOO8O.=%%%5&%<<<%%5&%<<<<1&*;;:w,,.$@88 .--+8@.OO#7776#OO   8$$$8@O+#a#iv6#i $@    @@yy@yyyyyyyyyyyyy O4",
"OO  yyyy  O4oo.o----===oo+...OOOjj@@@88$$$@Oo=&&1eX;;0:sssl3,.8  -3>+o. 8@@ i7ipppii#<.@8@$u$88$$$@8@@8@ @y@@@@8888888888@@@@y  ",
" OOO     O44.44O O4.444O.-wh9q2;99:w>=.OO    @  @o,X;;t.>sffffsz-,w,,--=..O @@@@ pppi652;3+   @88@@@ 888@88888ddddddd$$dd888@@y ",
" OO44444OO44....OO444..oOO O..-w;::;XXX001w-=4O@$$@@@oo@Ou8Vmfl9rh:XX&1151w-..  @@8@Oi#*0%%%<%X3.  @ @@888888ddddddddddddd88@@y ",
" O44.ooo.44..oo.4OO..++=.+... @$@8@O-w51**0X*101w+.O@o3=. $u  fqX;X&%###%##%<&w-.OOO $@@@@@ +31X&<%&3+ 888@@@8dddd8888dddd88@y  ",
"O4..o+++o...o+oo.OO.o=-=w,,,,>==+OO@88u$O-w2e&1qqX9h=.-+O@$Oo.+=,;*%###%#67i6#%&X*w=.OOOO 88$@ 8$uu$@.=88@yy@8dd88888ddudd8@y  O",
"....o++++oo++++++o.++,=r9:q2q99;:9r,>+O$$$$$ @ -0XX93.=. 88O=33o=,&%######766#<&**0*&&=o..O  O.O OOOOy@@@@yyy@@@@@@@88ddd8@y O4.",
"....o+++++++====++==>-r:;2ee::XX:9qqX22t-.O     88 .=+,O$$ .>w-oOOo.+####6i#%%<###%66#6###>o....O..O.OOOO       jy@@88888@y O.oo",
"oo..oo++++==->==>>>=-oh:XXX;;**X::2e**&1*02h>OO.++=zo.> $8O+,3o=..oO   O 446##66i7iMpMpi7p7%&*,>+..o.O  4OOOO4OO y@8dd88d8y 4o+o",
"++oooo++++==-->=>->=-.h:2;2X*%%;:*&<#%%%5%%*;:hw>>z-..o@$ .=3=,:q;e,=OO @8@@@ 4ii###iipxii76%&XX,=>==oO O4444.4O y8ddd88@y O.+++",
"+++oo+++++==>>-=-->=-o,;;;X**1X;X*&%#######&%;:::z.O..O88O.-=.t;*X1X;;X1>.O @@@888y4iiipi77#%&X<&<%*;,. .OO4.oOO y@88888y  O.+++",
"++++++++====>>-=---=>+O,h;XeX*X:qe55%#######%*;;q9,==o8$8Oo->o.O .o=5%%#<<<<%oO  88888888y4#%**&&#&XXX,  OOO4.4O  yy@8d8@j O.+++",
"++++++++==>==->>---===o =+>>3*X::X&&%%%#%##%&*;:qqrs,,+ @@o=-===..O@ .+#%767#6<*X=.Oy@888@$$@ -#<%%%6<,O OOOO..O  O y@@@yy  4o++",
"++++++++=>>>>>>=-->>>+>>oooO  OO.o.+3<5%%#<&X*;X:rslfBfo=w.3rrr,=++oO @ .+766ii#&205%%=.  @@@@ @ y@@@ ..OOO O...OO    yyy   O.++",
"++++++++==>=>>==->>=>O,902t3-=..OO @@   o-%<q**;r-,fCVVBfsw;;::XX1;X,oOOO @@  .6%&#67i66<*1,>+O @OOOO..o.OO  4oo.OO      O   4o+",
"++++++++====-===>>==-.=t;XXX99:2X0r3>oO   @@@Oo .-=  $$8Vs:X&2<5#&;:;*X,=o.OO @  .+#6####5*%%X2,=OOOO.....4  4o=..4  O4444O  4o+",
"++++++++++=====+======oo-+o3t0*&#%<%&*1&,-=oO.o@+w>.O@O .o&11*&%7&2;0*&&<<<3-=oo      OOO.+3#&%;:;,=OO....4OOO.o..4OOO....4OO4.+",
"++++++++++=+=>>====+=>>=o4o.. OOOOO o-<&&X9:;2-.+,+. @.+--o.=%15#&*X&&%%#%#####%%>.     8  @@O+%&&<X;,=O.+.444.ooo++o4.oo+.444.o",
"ooooooo++oO.=-->===oo...O  O  @@O  O  @@ Oo3X::@=w.O@ .=,t4@   O .=%&5%%###6iipii##5<>o..O OO @ yy@@O.O.++o...ooo++>+4o+++o...oo",
"o......oo..o-r;Xtw3>>=++oo-=o.OOoo-=o.OO  O.$OO@,-O 8 .=,--==.OO@@@@@O6#####6ippi6a<<&XX1=.Oo.OOOO.OOO.+++++oo++++++++o+=++oo+++",
"o.4OOO4.ooOor9::;::qq;;X0&&*1X;t0&&*1X;t3===OO@-w.O @ o->+;:;:;X-o4 @@@8@ 777ipi667%%&*%&1X0X,+..O.o.====>=======>>==+++++++++++",
".4O    4+.O-9c;XX9;0X*&%#a6ii7%2#a6ii7%220;:t> r,8O@8 o--o  .-19;2X&-+ @@@@@@@@ i77a%<#7#**;9::,o.+o==--33333---->>====oo+++++++",
".O yyyy O. r9;X%;9%&X&#7666iii#X666iii#XX#&X:t,rz--.8 .=>-oOO @Oo-&&<&15-+4    @88@8 Oi6#&*2:Xe,o=+o=>--333333333-->====oo+++++o",
".O y@@@y OOr:q2&9X<*e&#%%#66#6&2%#66#6&2&#<X;:9rlfls3o.t:9;t,-=. @   .=%*2&<--o.    @8@8@ @O@ .OOooo==-=--3->-3333->==o++++++++o",
".O y@@@yy  or:X;;;**e&&5<<5&&&X*<<5&&&X*&X*X::rrsfmfsss:;9:Xq9::t>.O @@@88@ =%%%#6oO  @   @@@@ @ O...++++===>>---3-=ooo++++++++o",
"4OO y@@y  O -r:;X;22e1**&&*&&XqX&&*&&XqXXX;hw-O= $$uu8>w1:2%;:;X&e*&-oO   8$$88@  #105%<oO@   O   OO..Oo.o=++==>>>=+..o++++++==o",
"4OO.44OO4OO.O3w,----o+=+..oo.OO...oo.OO...OO.o==. .8 .===;X*:;*&%&%#<&*&-.  @@@@8$$$8=#X*;,=o O OOOOO44.o==++oo+=++.O.ooo++++=oo",
"...+..o....+..=o...O OO@    @@@y    @@@y@y @Ow-oO O@ owO@.+,***&&5<<<%%##%5&1-o4  @  @8$@       OOOOOOO...ooo.444  4.oo...ooooo4",
".o..o+++.o..oo->-->>>>====+=++o+==+=++o++.O $>-.  O@ o,.OOOO @@@ O+#%<##6###**5&22&-+O.O OOOOOOOOO OOOOOOO4.o.4  O4.ooooO4....oo",
"=oo+=+++=oo+=t9:Xq:9:;X*15&5<**015&5<**0;9q9Xo-.O  @ o-w92*-+OO  8$$$888@OOo-&%g**%%*q0500+ O..O..O @ OO44.o++.OO4.o++oo.4.oo++=",
"============,:e2*X9;*&&%##%6%#6X##%6%#6X;*X;>o3oO  8 ==X9;:9:q200,=.O y@@88$$$$ku8$$@@@@.=88 OO..Oo  @O4O.+++++o..o+==++o.o++++o",
"===========-,w*;:::;XXt3>o..OO yyyyyyyyy@O@8+,-oO @8 >.@-X;X***&%*;2*&5<<##,=. @8@888$$$$$@  O.o....4O.+o++++++ooo+=-3-+++++=++=",
"===========,,3,=ooo.O.  O O@  @@O O+=====+OO .wo @@8 o+O   O    @@ @ O..667#%51&**&*2&&&%#5*&&*;22w+oo++++==+======>>->=+++ooo++",
"o=++=======w,=o+===-=+o=.o=+,r2222222222;;;:X,-> @@@ ..w,,-3-3>=o.OOO @@888$u$$$$uk$$u@88@ O  ..8@O+++>===+=+==----3333=+++o...o",
"44.oooooo++,3,-,-=-,=--,rq;;;2XX2q;;;2XXX*;9:X99slfflsq9:;XX;2X**1***001&3+OO  @OOOOO  @8@@@@@@@@@@@@@@@O.++=>>>-333333>+++...44",
"   O4OO4..o,,w,trS;:::::;;*&&#%%;;*&&#%%&%&:::hslBBmmBl9:X&;;&%###%#<##6#%<<<&1******&1*51150&&&3+oOO.OO..++>-->=>-3,,,-=++.4.4O",
"   O yy 4..,h:::99:::;X*&%%#%%%*&%%#%%%*X#&;:hh,+OO @ =w;X;:0%%%1*&1<<%####6666####6666#6#%5110e%<0X&e*3+.o+->-====-,,,3>++..4OO",
"Ojj@yyyy .+-9::99:;;X**&%##%%51;%##%%51;X&X:9h-=8$.o .,= o=.O.OO.O O@@88@@8$8888@@8$8888$$$$$$$@.O.==oO @OO.++++o=+>3,,->++o4OO4",
" @@@y@@y .+,S::9;X*X*%*#<<%**e;;<<%**e;;**X;,ozzO oo@oz=oo+O OOOOOO       888888  8888888@88888$$$$$$8@@@  OO...4.==-3->=++.O OO",
" y@@@88@ ++-,rr,o=oo.o.4 jj@@88dd$$$dd8@@ .+=,zwO@.o@ozoo=-,rXXqqqq22X00155%#%51155%#%5151&&#<<w-+4  OO  @ OOO 4.o++=>>=++.4    ",
"  j @88@ 4o+oo.o.o......OOO  @@ OOO  @@ @   @.,w.@O.@ow.,h9;XX9:;2**<%g#####7i#<####7i#<5%1*&X1*1%#%50qX0= OOOO4oo+++=++.4O     ",
"    y@@@ 4o++wh;;9::q;;;20eX0;:220eX0;:22;2XXr-,> @O@.-===o.....OOOO  @ @ @@@88$@ @@@88$$$$u$$$$$u$8@888@ 44O444oooo+++.O  y    ",
"OO44 jj 4.oow9;2:9:2X*&%###6%211<##6%2q%19**;9*3-o @$O=--,--+o.4O.OOOOOOOO..O.OOOO..O.OOOOOOOOOO     @  @ OOOO4OO.....4O        ",
"4.o+o...+=o,h9;;9:&*&%%#66##&X111<##&X%<&-=o=o.3zt 88 .o=,+ O=,*;qq;;22000*00X0000*00X00222q99:2;X002;2t-+.  .4OOO4OOOO      OO4",
"o+=+++oo+===wh:99X&*,-o.  O @@O@  O @@O@@ ..o.o=-> 88 @Oo,h9:q:99:;XXe1555#i6%%%55#i6%%%51XX;;X1&##1*;:cXX9:,=.+            O4.o",
">=>=++=+=>>+o-3ooo..OO O  OO  OO  OO  OOO.o=====33OO=>=3sq;9;*q9q2X*&&5<%%###6##%%###6###%**XX*11%<*;;;X&e92,=.+y@@@@@y     O4o+",
">>>-====-->--=-ooo.....OOO.+o+=-OO.+o+=-,r;::99:2qqsslfmmfsq:;::;**&&&<%<<#%####<<#%######6%%#%=4 @@@8$@$ =o O..@@8d8@@yy   O.+=",
">>=>==-=>>--==-o=o.+=>-,wr;2XXX1wr;2XXX1eXX;c:;;99sll==.o.3:::;;X*&&&&%###66.O          @@@@$@ @   O4OO.O...OOo4@888@@@y  OO4o+=",
"======>-----=>--,r;:;XX&%#####%5%#####%5<*Xc;;;;;w+O$8O$.-o==--==o.O.O    @       @       O O+3%&**2**&&w-..OOOO@88@@y  OO4O4o++",
"==+======>--3r999:;*&#6ipii##%%6bii##%%&*X;:;qr==3.oO=.@ow= O@. OOO.+3%%5<%&11**5<%&11**02q21&*X;%&c*&X:9:w-+OOO@8@@y 44OO  O.++",
"++++====-->>-3:::;X*%%%66aa%%%&%%##<<5&&*X*3-+o.,w>.O+.@+w=.o=w02000;XX*&5<<&&**&5<<&&***1w=o  O.@@O8 o.o-O  OO @@yy O4O     Oo+",
"o+++++=+o+++=3:9:e00&55<e00&55<%3+O.O   OOO....o,w-o .O@+w.,h9;:9;**1%%#6OO @  8888888888$@@  @  @   OOO.-O=...jyy   OOO     O.+",
".ooo..o...o++3:9:e00&55<&&>.OOO @ @    O........=,,+ OO@ozo$OO.+o.OO  O @@    OO@@    OO OOO..o=-00*****:9:ro..O      OO   O  OO",
"O.4O     O.o++r:*&&>.OOOO......OOO O...=,**0*2;:q3,=OO @.w= O OO. .+3&1****X00*1***X00*10q22**1*XX2q;:;&X9r3o++. OOOOO   OOOOO O",
"OO yyy@@  4.+=+.OO......o=+o+=-,1*01*eX:9;X<X;;9,o,-.   O==..+-wq:99::X***&&5<%#%%&&5<%##**&%#%g<1X:q;0&X:3o==+.OOO.4O  yy@ OOOO",
" OO jyyy O.o++====.oooo=th;q;;XX&66##%*::X&*,=..o-==O @ @.o-r99;e;::X*1&55<5&####5<5&#####<<#%#<&X;:e*;q:q>===.ooo44O yy@@@ O4OO",
" O444444.o+++++++=o=o.t99:;;*&5%6n6%&**,o@ @ OO.=-.+. Oo=3sq:9X*&q:2X*11155<5%%#%55<5%%####%%%%%*;:X##;9X&r-.=oo..O  y@@8@y  OO ",
" O4.o+++++=++=+++===.t9;:XXX*%%<##=.O@O@O 4OO=,hXh,zrslslfs9::X**;2*XX***&&&5&%#%&&&5&%###%##<&*2:;&#&;;*&9-@+o..O yyy@88@y     ",
" O.o++++=+========+o+:9X;X*X*<,+.OO@@ .@OO,rqq2X;:hsslffmmfsX;X**Xe*XXXX**&*&&51**&*&&#%#%%%%<5*X&######%&3O$O.OO y@yy@88@yyy O ",
"O4.++++++++=======o.-t;0**,=+.OO  . 8 -w9q2&#%&1;qhsl-oOO   .=.o=o.o=ooo.o...  @.o...  @  @$@$88@$@$@8@@@@ @@@O   yyyy@@@@yyy 4O",
"O4.o+ooo..++++++=+=++.   OOOOOOOO=3tXq99X%i6#<&Xt,=O -.o= Oo,w..o+O....oo==o>>=>o==o>>=>=>==>====++=-=-+>+.o.OOO   yyyy@yyyy O4O",
"O ......O .ooo++++.......OOOO.+,t;2X*X:1<%#<o..o.ow,.-.==@ =,,,--,r;;c;2:::;;2X1:::;;2X11*1ee*1*0*XX;;eXXt-....O  O    O    OOOO",
"OO.....=OO..oooo.......=,0XX::X&&%%6i*w=.   OO.=--,,.o.==@ =,-,r::XX;:q22Xe*&&1&2Xe*&&1&&%&<5&%1eXX2:;121;:r-+o.OOOO4O OOOO4.4OO",
"O...+ooOOO..+oo.4...++oO.=..O O  OOO ..+++>>,-,,-,,-o.O.+@ o-=,r;X%%X:X**&&&%###%&&&%#########%#&#&*%#1*#*;r-o....+o...O44.o...O",
"@8 Oooo.4O 4oooo..OOooo=o.o=---=-==>===o=====>,,>,r.=.OO.  o,o$@O   .ooo.O.O.O  .O.O.O     @  88$$$$$$$$$8O8 OOOO+.+====o..+====",
"8yOO..OOy OO.4OOO4oO.==33,,tttr*00X2Xee*******eXX;ro>.  O  .-+..oOOO    @@ @@8@ @@ @@8@ @       @   y  @      OO..+==--=+o+==--="
};
