/* XPM */
static char *SKY1[] = {
/* columns rows colors chars-per-pixel */
"128 64 83 1 ",
"  c #0C0C0C",
". c #120D09",
"X c #16110A",
"o c #1D160C",
"O c #1E180F",
"+ c #131313",
"@ c #1A1712",
"# c #1C1A15",
"$ c #1C1B1A",
"% c #230E08",
"& c #23160A",
"* c #241B0C",
"= c #2E1C0C",
"- c #231E14",
"; c #2A1F10",
": c #231E1A",
"> c #2A220F",
", c #31230F",
"< c #272112",
"1 c #2D2511",
"2 c #292219",
"3 c #332613",
"4 c #392716",
"5 c #352A14",
"6 c #3A2C17",
"7 c #332519",
"8 c #35291B",
"9 c #3E2B1A",
"0 c #3F3117",
"q c #402F17",
"w c #422E1C",
"e c #403017",
"r c #45321B",
"t c #4A361C",
"y c #46381F",
"u c #4E3A1D",
"i c #533D1E",
"p c #463222",
"a c #4A3624",
"s c #4E3A23",
"d c #4E3A2A",
"f c #533E23",
"g c #5A3F21",
"h c #523E2B",
"j c #564021",
"k c #5C4223",
"l c #56412C",
"z c #5C452C",
"x c #5C482E",
"c c #574333",
"v c #5A4633",
"b c #5F4B36",
"n c #5F4B38",
"m c #634425",
"M c #6A4727",
"N c #6B4827",
"B c #63462B",
"V c #64492E",
"C c #6D4A2A",
"Z c #734D2A",
"A c #784F2C",
"S c #7C522D",
"D c #634B33",
"F c #6A4D32",
"G c #624E3A",
"H c #675137",
"J c #66523E",
"K c #6A523C",
"L c #735235",
"P c #7B5434",
"I c #735439",
"U c #6C5642",
"Y c #6F5945",
"T c #725A46",
"R c #765E4A",
"E c #79614D",
"W c #7E6652",
"Q c #825531",
"! c #875933",
"~ c #8B5B35",
"^ c #905F37",
"/ c #826A56",
"( c #876F59",
/* pixels */
"%%X. .+++++$oo+@+++++++  ++ ++++++++++  +  ++++++ +++        X                                +++#oXo>oO*>113>>>199w431>>o@+oooo",
"&o=&. +++++++@oo@@$@@@+++++++++++++@+++++++++++++++++++@++@@+++++                           +++++o*<111>>11>>>119999661<>OXoOooo",
"oo*&.    ++++++$$$#-1><*@o++++++ooooooooX@+++++@@oooooo->1><Oo@+++                          ++++@o*3><059w99q414w994663*<oooooo*",
"=oo&&.   ++++$$$$$$-13443>o@@@@oO&**Ooo&**OXo@Xoooo*<5>8611<>>>o++X@@+X                     ++@Xoo*,,399qrrrq9rtutrw5><#Oooo&*>>",
">>=>=o. ++ ++++$-#$<11999>>*=*<O&11;13111<11**&Oo*135,65655533*o+++O*O+++                  +++oo**<5169q9rrwq9qujkir4>##ooooo<>>",
">>>%&o    ++++++#-$:$>1>>>33313>,;;33555364711>>>355559660363*+++++XX>*+++           +    +++++O*<>166w999qw99tikkMr4>##oo&&o&o>",
">===&&.     +++++@$$$#-1349www33=,=47499949999999q996,1>1616>o++++o++Ooo++++++  ++ + ++++++++++@O>139999w9w9qqtkmMm93$*Oooooooo>",
">>===&o       + ++++$$@@-34wwww444w44w99rrprtrappwwr51OoOoOOX++++O@++@oo++X++++ +++++++++++++++o&<119w99999q9qptkku3<<#Oo&o*oo&>",
">>>,==&&.         +++ + +@24999rrr999pauaappatarpraw7;1o++++++++ooo+++oo+++Xo+@oo@++++@oooo@oOo&*>11>34949w99wwpse6<1>-&>>>>&o<>",
">>>===&&.               +++#1134ttdddddlhhpaapppaapww81*o+++++++ooo++o+@+@@o@XOOoooooo*13**-*****1519;111133wppp0355>>>>>>1>>*o>",
">>===ooo                 +++@$<<6tadhdcccchdhaddpppww947;oX+++@Xoooooooooo&O*o<>11***>55554511>111>59w4311139pp993315>>,1>1>1>*>",
"=&&&ooXX      +            ++ $$#29pdhddchhhhdhdhaapppwp31=@+@oo**>*o*o<<135>>>566533169wwww9933569e99pw433wwp9p6696994w6955,>>>",
"5=ooo.      ++++           + +++++$2wdddddddddhchhhdaappw411**@&*>>>11513655555644q9w9999atttq999r9rqrrppp99ppwppp9ttrtqqre9e9q5",
",=oo.       + +++        ++++++++++$<4wwpwwpdhhccchhdapppw4411>>>>11555686990666qqqww99wptifur9w9ritttrwpadappaw99uujikjiiuutrw9",
"=&o.       + ++++       ++ +++++++++$$$:249wrddlcccchdaap9w999971111161599999q99tttwwwrrutiiut999rtrrtwpppdddadpe90ruiikmu66553,",
"&.X. . X  X++            +++++++++++$$$$13wpattpadddhpppp4999999115565639qw4w9erttwtiwtiijkils964999wpwppw9wddppr0eru56003>>*X&o",
"oXoX.   ++              ++++@@+++++$#$<<$1655663wwwp8w9ww99999990064666659r9r9rtt09rutrfkMMmlcarrt99w99w9999rpr0uuuiiurr65>5>*&o",
">>&oX+++     +          +++XooX+++++##<<<15>11>4494w92<<999999w9tyw869969eiit99r099rwwqtfmflblvcldljpr9rttuterriujjjmmmgjuee5>>>",
"5,50>oO. ++ ++++      +++++++@++++++o##$$$#$$2>1<-3:;4111999999wpdsp9u09rulur565534499tfufdhvcccccncllllsfuuuukkjmjjmMZMmmmkMjt5",
"Nmuiet51# + ++      + + ++++++++X+++++#@$$$$$<$$<<-=37151999999wpdrw9re9rljr3><>>>>>34ikhhhvvvcvbvvcvvvvcbcculjikkNNVNAZVFFHFUFC",
"HIkkkki01<<@X++++ ++ ++++++++++++oX+O&o-<<<<<$$$:<$1=143499www9999999666wst3**&-O#-1119mgfcDGbGDnJnGnnnnbGncvbxVFDGGJGFYUTTRRRYT",
"Nmue0055<ooo@X+++++@+++@+@X++++++ooO*>-;15632<<<-<53174479999999999351<<1531=@@#@$$$114ffrflfhlDnGnHnHGUJJGJJJHJJUYJJYTTYTRTTTMm",
"jy111-+Xoooooooo+&ooooo&Ooo@+++XoO1>131369r9998885159899999994w413111<##-&--@+++++++$:<133q59rticGnnnnnbHJGJJJUUUJUYJJYKUJUUUYTV",
"vap5OO<<>>>o*ooo@&o&o&*>><*@++XO>15515990tttrr99w9949999994w9w44944661*O&##@@++++++++$$:11135tjkkxnbnbbnnbnGGJJJUUYYYYTYYYUJJJUU",
"Unncr6>55511>o>>1111<>55653oo**>3306999wettuurrrtrrwwwq9qw9w9qqqtt951$$$+$$$$+$+++++++$$:<199ukMZmvGGGbDnnGbbGGJUUUUUYYETTTYYYJJ",
"EEGlt<<o><<>115555565499995>>>5>9498999wriikkiujfifuiigtttiiiittt4r63<#$$+$$$$++++++++$$--13tiMZQZcnGbnGGGbbbGGGGUGGUUUUTRTETRRR",
"Jnar,1115344565669949699q9911>><314w99r9uukmiijihcchgggkigMhmmmmkikkie3*-#-1:$$+++++++$$$$-35tkBAZcGGnnnGGGGGGJJGGnUJJJUUUYTETRY",
"dppp05569w49506699qtrttrt99965,<13399rtuttuujjilhhhhhvvvghmNMNMNmMmZMjt439prw2$+++++++++$$->>9skxxDnUJGGJJJJJJJJJUJJUJUJJGGGGbch",
"hcdap696wrw999499wtruiuq99999w9449ww90r8qq9wiifihcccccnccvBDDZVZCZZDBglstrtfr4$$++++++$++$#119svvnbnJJJJJJGJJJJJJJJUJnJnnvvccccc",
"adpw088rwwww99w9999rjiuqw9wweq94--1352#$<<14tiifccccvccvvDvDDnDVcMVDvzlbhfcs9-$++$+$$+$++$$116hvJnJUJJJGJGGnnJGGnnnbnvncvvvvvcha",
"aaap96699999w9w99wwwriiuww9rww1$+@$+$+++@$$>4wughccccccvccvDVDbvMkDvBbbccchf91-$$$$::$$+$$#119svnGGGHnJJGGGGGGJGJJJJUUUGGGDnllta",
"spaww9r999w9w9999999riiigtw91-#++++++++++#>379wwruBvvnncVDmBmVbvfuulbDvDDcccha9:$$1797#@$$$>4phGbUGUUUUJJUJJJJJJJJGGGJUUUFDxBBii",
"666pww946999wrq9rrtttfiurq94*+@++++++++++@#11869rqkmBllzmmmmmkutptttfbDviillljdsrrasdt6545119sbUUJJUUYUUUYUUJJUJGUnJGHnJJJvbjjut",
"uer9paatapatutttuttrttwtq9w5-#X+++++@@+oo#-5559e9qkkmmuiqrggfsfuptuuujkjkkxxlsjllfchlhaaha9ralnYUUUUUUUUUYURRYTTTUUUJUUYYYYJbuuu",
"rr99pparaaattpuurtrwttrtw9943-*OooO<***1=394949ttikMZmf93rfmMmkmzxzzzmSCxxGnGbbvGGcbcccllsddbnUYYRTYTYYYRTTTREREYYUTYTEYRTYJHuue",
"99rappdddpsdhhfsfsssstiutirww431>>199wrrrrrrrr4uiikZZZu=>9uikMmNnbDDVbVVnHJGJGGJGnGGnGbnvncbnJUUYTEYGUTERREWW/Evrrdczlslbbbvsuur",
"49wpadddappachcdd9qaasfchhlfsiw4444999usfsfsftwwwrfDCkw14ruijZkmmDDZSCHJJUGJDbJHGGGUJUJHJGnnxJHUUUYGpfYWJTWHJTlr11=49999rtrtuu09",
"4539pwadap::pddp1>-11wricccchhswww994rlcffhlt5944wrBkxitryijmAMmBMASSSPJJHGl09alhrpGnHdbGGfqeerpcUDp5589afzsre431339999rrwrrrw94",
"u5314w9p8<$$:273$$$-39rttgkccchfitrq6rsccclcq3735quhhlDxBzkMZNNNkDSQIIJJJnnlyeyyr31sle6ukl43>>>>wf91<:$14pat935,139wtflzlfzhfikk",
"49w11-3:-:-1<-#:$@@*9wimigmvcchgllhsuuttfdss95pwrucbbbbDZFCNZZZZFS~IJJJUJUJnxxzjurrtt0rru06#*<<>541>$$-$144w53511>4wtallJJHlw59q",
"333115<<31<-$#$++++-49gZCfkkirqwuihfffsfchstrtutusbbbnJUGDFNZMSSA~~!JJJJJJJJJGbvVmkkimkjt931<><>>>1$-#-$$<31>>1>136463,34tt93<<<",
"<-1111<--$$+@++++@oo25wglcchttwwwwrtsssudlhhhttuuicbvbHbsfpmmMCCS!^LJJUKJUJJJJJJJGVBSSZMmit61><o1>1><-####<>5>>>111>>11<-<112<<<",
"#-#<111-#>-o$@@++++o#15wuthhstrqwwwwiirwqsfflttrrujclbltw4qtmCAZQSHUJUUJJJJJJJJJJUJDFFFLFBlr511<-->1355=<<<1311>1535>1>>11599555",
"q-o-*1143>>><<11*o&-*,5q9uthifuttwwiurww9rrftiiiuikzluut9wttmNSQPnJJJJJJJUJJUJJJJJJJUJUHGkt9651>1<-59r9w43355960669956555699tuif",
"r3>*1->5999994994455394w9ttttifiturw4ww99999qwwikmkkluuurqqiagmZVUJJGbbbGGUJGUJJJUGUUJJJbjuwr665334w9rtqwrtttuiuuuyrutrrrttetuut",
"*@+#$#><222#*13599w9w9wwruiuuittwwwwwq99w9w9qwwtjjjjutuuuutrrriBbbbHGbbbbbbbGJGGGGnHbbHnbvkkiuuiiitftfkiiuijkkkMjuriiiutue51655>",
"$$$$$$##@@@$O*1134wwwwtuiiuifkiiitrrttttrtruuiimkBxxkjtijzkkkiujjkxbGGnbnbnnGnGGnnbnbnnnbnbGGbGbDDnVBBzmkzkzkiljuitrre01<>1<>O@+",
"+++$++o++@++@--<=w4wtwttiifwqimitrqrtkikkijiuifBbnDbbbDxBkmlxllxjllvbbnbbbnbGnnnnnbnbbnnbbnGbGGxxxxvlxzjfkmkimBxmkgikmjiyu0655>#",
"@@@oooo++@Xo+@O><>99ut99qtitugmjtqqrimDDmmmZmittkBDbbbbbnbnbbbnnbbcbnnbbHnnnGbbGnbbbnbbbGbbbnnxjkjijjjr0wraw9wrq0er93wtqqq99q999",
"4333553<*-OoooO*,>69ur9qtiiiuiiuuqqqwuigimMCFViuknDbbnbJGnbGGGnbbbbbnnbnnnbbGbnvbbnbnbnbGJJJGnnGvxkjae994444311>>>>>>>1>499w9w9w",
"tr99w9999443&o*-5150tuiiiuiwqwtrqqqqtmmgmZZmvVmizDbxbnJJUUGGnGUUJGJJJGJHnbnGGnGnJJnnbbnJJUJJJJJUHJGbbbayr9w4343331>1>44w9wwqrrww",
"jer9999w9999355511159qrttttrwwwtqwwimNAZZZkNmkkikkxmlzzzbDbDbHGnnnHJnJUJUJJJUUGUGGUnbbnnJGUJJJUGJJJJJJGGblgrww999q969wwutrfikigg",
"iur99ww999999999wwrq9999ikjutuusrtfmMmMmsurqrtttiirtrqwrttrrulzlcbbbbGnnGGGGGGGUHUUUJGJGnGnGGGJUUUYYUUUUJJnHcximfkfittikkkjjkmji",
"juttwwwww9w999ttwfikgktfimkjikkmiimNmtrtrr56499rwwwrrr99erqrttt9ryhcbbnbbnnnnnbbGGnUJUUJUJUGJJGGHGGGGUGGHJJUUGJGGGGGGGbvzzxzxlzl",
"kkiuuuituuuuuuuuttimgkgglzlvzvlcgBmlcvGvbslssuuywrtrrqrttttttufsssufccvbvvvGGGGGGbnbbJUUTTTYUUUJJJGGGGGnnvnnnnDGDnnbGUUUJJJUJJHD",
"BxiittifslflfssliiffffccvzvcvbbbnbvvDDDDnHbHbbbczlsiiuiuuuuutujssccbccccvcccvcnvcbGJGbGGUYTEEEETTTYTTTUUUUGUnUUIUJJJGGvnHJnnnHbn",
"DbkjuusflhshcccccccccccccccvbbbbnnbbGGGGbGbbbbbbvbbbxvvjjljjfuuufihllcclccvnnnnGbbDnbHnGJJJUTEEEERTRRRETTYYYYYRYKYTTYJUJJJUnGnnJ",
"YYHxllllcbvbcncccccvcvnbnvnnbDbbbbbnbbbbbbbbbbGlDnvcljivbzfkjfluirrpqrerpjdjvccccvcnvvzcJGYUYTREEWWEERRERRRRRRRREEEEETEETTTTTYUT",
"YUHDxxlbbbvvvvcvccvvccccccccbcccvcbbbbbbbbbbbGnzfhlzvjscllzlfflfstur99465556656834335683qhzbblDJEEWWWWWW/WWE//RREEEEEEEEEERRRREY",
"GzkjifillccccccccccccbccvcccxccxcvcllxxbbbGbGGbbbGHcbbbbbvbvzvDvnGvnzfrq65860435>>>><111>>134549hUYTWWWW///(/////WWEETJbnDUnnJGJ",
"a3rikkkfhlcccczcccccvcvccvcccczccxzccxxxxxbbbbGbbbbnnbnbbzcljcvxnzcllkkttrttuffit4133>3>>>>,>>>>3>8rwaadhlvDHHJUTKHYxxkkjjkutflh",
"56<o1uruuuflllllfhlfvccccnvccxccccxxbvbGGbGbbbbbbbbbbnbbbnbbbvvxvDzlsikBBxBxxnlzlsirq33343413>>3>>>><1>>>>333,344549yteye0055q5r",
"1<*&**1;>5665649rrtutssfffffkglfmklbbnnGbbbbxbbbbbDbbbnnbnbnbbbbbbbbnbbnnnbbGnDnnnnnvzhiittr09009535331>>>>>1>>>>>>>>33,>66aaay6",
"u0>>o&ooooooo&&o**->46665qfsffffiffsjzlljxlvxbbbbnnnnbbbbvnnbbcbbnbvbbbbbGGGbGGGGGGGDDbbDxvcVxbDvllijur0941>>1>>>>>>>>>>>340yuzl"
};
