/* XPM */
static char *SLADPOIS[] = {
/* columns rows colors chars-per-pixel */
"64 128 27 1 ",
"  c #2F2F2F",
". c #232323",
"X c #272727",
"o c #373F27",
"O c #373737",
"+ c gray23",
"@ c #13230B",
"# c #3F472B",
"$ c #1B1B1B",
"% c #332B13",
"& c #AF7B1F",
"* c #9B5B13",
"= c #43331B",
"- c #732B00",
"; c #3F2F17",
": c #4B371B",
"> c #4F3B23",
", c #874307",
"< c #434343",
"1 c #533F2F",
"2 c #C39B2F",
"3 c #474F33",
"4 c #17330F",
"5 c #0B1707",
"6 c gray28",
"7 c #D7BB43",
"8 c #1F4317",
/* pixels */
" .X@           % ;X %  =  X .XX4 ..@X OOO  X  O% 1O % O     XXX4",
"X.X. O         %X X %  =  X .XX4X.X.X OOO OX   %    %       XXX4",
"X.X@  o  O O   X. X % =   X  . 4X.X@X OOO4OXO  X.   ; O     X. 4",
" .X.  oo OO    %X X ;O =  X .; 4 .X.X OoO4O O  %    : O     X. 4",
"XXX  Ooo OoO   %.+X ;+O=O    . 4XXXXX OoO8O O  %.+  :OO   O  . 4",
"X.X. ooo oOo   %% X ++O=OO  .;O4X. .X ooo8O O  %% O :+OOOOO  . 4",
"X@X. OooOoOo  O.% X #++==+O .; :X@ . ooooooO  O.%   #+O+++O  . :",
"X@X  oooOooo   .% . +##=>oO ...4X@   oo#oooOO  .% . +##+++O X..4",
" .X@ ooOOoo+O  %X;X O o==oO .XX4 ..@ 1oOooo+O O% 1O O ooooOOXXX4",
"X.X. oooooo+   %X X >O>==>O .XX4X.X. oooooo+O  %    >Oo>#>O XXX4",
"X.X@ oo++o#o   X. X >o>::>O  . 4X.X@ oo++##o1  X.   >oo>#>OOX. 4",
" .X. oo##o#oO  %X X +>o=o#o .; 4 .X. oo#o##oO  %    +>oo#oo X; 4",
"XXX  oo##o#oO  %.+X 1+o>ooo  . 4XXX  oo#o<#oO  %.+  1+o##oo  . 4",
"X.X. oo##o6o   %% X ++o##+O .;O4X. . oo###<oOO %% O ++o##+O  ;O4",
"X@X. oo##o6#O O.% X o+o#ooO .; :X@ . oo##<<#O O.%   o+o##+O  ; :",
"X@X  oo##o3#O  .% . +#o#ooO ...4X@   oo##<3#O  .% . o#o###O X..4",
"X@X.+#o##o3#O ;.X:X o+o#ooo .; 4X@ .+#o##<3#O ;.X:  o+o##+# X; 4",
"X.X.1#o##o3#O ;%X:X ++o##oO .; :X. .1####<3#O ;%X:  o+o##+O X; :",
"X.XX+#o##o3#+ ;. 1X +#+##oO X;1:X. X+#<3#<3#+ ;. 1  o#o##+O X;1:",
"XXX +#o##o3#+ ;. :  o+###oO    ;XX  +#<3#<3#+ ;. :  o+o##+O X  ;",
" XX +#o##o3#+ ;. :  o#+##+O    ; X  +#<3#33#+ ;. :  o#o##+O X  ;",
"O X +6o##o3o+ ;X ;  +++##oOX   ; .  +633o#3o+ ;X ;  o+o#++O X X;",
" .X +ooooooo+  X ;  o+###oOX   %O@X +ooooooo+  X ;  ooo###O @  ;",
"O@X. XXXX.XX .  .O 4      =@O  % XX. XXXX.XX .  .O 4      =@.  %",
" XX  @@@@@@@    X %@@@@@@@@@;  %X..  @@@@@@@    X %@@@@@@@@@%  %",
"X.XX @@@@.@@O. X@ %@@@@@@@.%;XX%X..X @@@@.@@O. X@ %@@@@@@@.%%X %",
"X.. @@@@@@@. . X@ %.@@@@@@.....%X@  @@@@@@@. . X@ %.@@@@@@....X%",
"X@. @@@@@@@. . X@ %.@@@@@@.....%X@  @@@@@@@. . X@ %.@@@@@@.....%",
" @. ..@@@@@.O@ @@.O@@@@@@.%.X..% @X ..@@@@@.O@ @@.O@@@@...%....%",
" @.......@@.%@..@. .@@@@@.%....% @ ......@@.%@..@. .@@@...%.X..%",
" @. ..@@@@@X%@.X@@%.@@@@@@.X   . @. ..@@@@@X%@.X@@%.@@@@@@.X   .",
"@55@55555555@@@555@555555@@@@@@5@5@@55555555@@@555@55555555@@@@5",
" .X@           % ;X %  =  X .XX4 ..@X OOO  X  O% 1O % O     XXX4",
"X.X. O         %X X %  =  X .XX4X.X.X OOO OX   %    %       XXX4",
"X.X@  o  O O   X. X % =   X  . 4X.X@X OOO4OXO  X.   ; O     X. 4",
" .X.  oo OO    %X X ;O =  X .; 4 .X.X OoO4O O  %    : O     X. 4",
"XXX  Ooo OoO   %.+X ;+O=O    . 4XXXXX OoO8O O  %.+  :OO   O  . 4",
"X.X. ooo oOo   %% X ++O=OO  .;O4X. .X ooo8O O  %% O :+OOOOO  . 4",
"X@X. OooOoOo  O.% X #++==+O .; :X@ . ooooooO  O.%   #+O+++O  . :",
"X@X  oooOooo   .% . +##=>oO ...4X@   oo#oooOO  .% . +##+++O X..4",
" .X@ ooOOoo+O  %X;X O o==oO .XX4 ..@ 1oOooo+O O% 1O O ooooOOXXX4",
"X.X. oooooo+   %X X >O>==>O .XX4X.X. oooooo+O  %    >Oo>#>O XXX4",
"X.X@ oo++o#o   X. X >o>::>O  . 4X.X@ oo++##o1  X.   >oo>#>OOX. 4",
" .X. oo##o#oO  %X X +>o=o#o .; 4 .X. oo#o##oO  %    +>oo#oo X; 4",
"XXX  oo##o#oO  %.+X 1+o>ooo  . 4XXX  oo#o<#oO  %.+  1+o##oo  . 4",
"X.X. oo##o6o   %% X ++o##+O .;O4X. . oo###<oOO %% O ++o##+O  ;O4",
"X@X. oo##o6#O O.% X o+o#ooO .; :X@ . oo##<<#O O.%   o+o##+O  ; :",
"X@X  oo##o3#O  .% . +#o#ooO ...4X@   oo##<3#O  .% . o#o###O X..4",
"X@X.+#o##o3#O ;.X:X o+o#ooo .; 4X@ .+#o##<3#O ;.X:  o+o##+# X; 4",
"X.$$$$$$$$$$$$$$$$$$$$$$$$$$$$$$$$$$$$$$$$$$$$$$$$$$$$$$$$$$$$ :",
"X$$$$$$$$$$$$$$$$$$$$$$$$$$$$$$$$$$$$$$$$$$$$$$$$$$$$$$$$$$$$$$:",
"X$$$$$$$$$$$$$$$$$$$$$$$$$$$$$$$$$$$$$$$$$$$$$$$$$$$$$$$$$$$$$$;",
" $$$$--,,,,,,,,,,,,,,,,,,,,,,,,,,,,,,,,,,,,,,,,,,,,,,,,,,--$$$$;",
"O$$$$-***********$$$$-*-$$$-*$$*-$$$*-$$$-*$$$$-**********-$$$$;",
" $$$$-**&&&&&&&&&$$&$$&$$&$$&$$&$$&&&$$&$$*$$&$$&&&&&&&&*,-$$$$;",
"O@$$$$,*&22222222$$$$*2$$2$$2$$2*$$*2$$2$$*$$2$$22222222&,$$$$ %",
" X$$$$$*&27777727$$7722$$7$$7$$277$$7$$7$$*$$7$$2777772&&$$$$$ %",
"X.X$$$$$&27777727$$7722*$$$*7$$2$$$*7*$$$**$$7$$2777772&$$$$$X %",
"X.. $$$$$277777272777227277777727777777777*277772777772$$$$$..X%",
"X@. @$$$$$27777272777227277777727777777777*27777277772$$$$$....%",
" @. ..$$$$$27772727772272777&$$$$$$&777777*2777727772$$$$$%....%",
" @.....$$$$$277272777227277&$-*&&*-$&77777*277772772$$$$$.%.X..%",
" @. ..@@$$$$$27272777227277$-&2772&-$77777*27777272$$$$$@@.X   .",
"@55@55555$$$$$2272777227,$,$,227722,$,$,77&2777722$$$$$5555@@@@5",
" .X@      $$$$$272777227$$$$*-$$$$-*$$$$77&277772$$$$$O     XXX4",
"X.X. O     $$$$$22777227&$,$*$$,,$$*$,$&77&27772$$$$$       XXX4",
"X.X@  o  O O$$$$$277722772$,$,&77&,$,$2777&2772$$$$$; O     X. 4",
" .X.  oo OO  $$$$$277227772$$$,&&,$$$277772272$$$$$ : O     X. 4",
"XXX  Ooo OoO  $$$$$27227772*$$$$$$$$*27777222$$$$$  :OO   O  . 4",
"X.X. ooo oOo   $$$$$222772*$-$,&&,$-$*272722$$$$$ O :+OOOOO  . 4",
"X@X. OooOoOo  O.$$$$$2272$$$$$$$$$$$$$$2272$$$$$%   #+O+++O  . :",
"X@X  oooOooo   .%$$$$$222$$$2&,$$,&22$$272$$$$$.% . +##+++O X..4",
" .X@ ooOOoo+O  %X;$$$$$222222222222222222$$$$$O% 1O O ooooOOXXX4",
"X.X. oooooo+   %X X$$$$$2&2&2&&2&222&222$$$$$  %    >Oo>#>O XXX4",
"X.X@ oo++o#o   X. X $$$$$22&&&&&&&&&&&&$$$$$1  X.   >oo>#>OOX. 4",
" .X. oo##o#oO  %X X +$$$$$*&*&*&&*&*&,$$$$$oO  %    +>oo#oo X; 4",
"XXX  oo##o#oO  %.+X 1+$$$$$********&,$$$$$#oO  %.+  1+o##oo  . 4",
"X.X. oo##o6o   %% X ++o$$$$$,,,,,,,,$$$$$#<oOO %% O ++o##+O  ;O4",
"X@X. oo##o6#O O.% X o+o#$$$$$,,,,--$$$$$#<<#O O.%   o+o##+O  ; :",
"X@X  oo##o3#O  .% . +#o#o$$$$$----$$$$$##<3#O  .% . o#o###O X..4",
"X@X.+#o##o3#O ;.X:X o+o#oo$$$$$--$$$$$o##<3#O ;.X:  o+o##+# X; 4",
"X.X.1#o##o3#O ;%X:X ++o##oO$$$$$$$$$$####<3#O ;%X:  o+o##+O X; :",
"X.XX+#o##o3#+ ;. 1X +#+##oO $$$$$$$$+#<3#<3#+ ;. 1  o#o##+O X;1:",
"XXX +#o##o3#+ ;. :  o+###oO  $$$$$$ +#<3#<3#+ ;. :  o+o##+O X  ;",
" XX +#o##o3#+ ;. :  o#+##+O   $$$$  +#<3#33#+ ;. :  o#o##+O X  ;",
"O X +6o##o3o+ ;X ;  +++##oOX   ; .  +633o#3o+ ;X ;  o+o#++O X X;",
" .X +ooooooo+  X ;  o+###oOX   %O@X +ooooooo+  X ;  ooo###O @  ;",
"O@X. XXXX.XX .  .O 4      =@O  % XX. XXXX.XX .  .O 4      =@.  %",
" XX  @@@@@@@    X %@@@@@@@@@;  %X..  @@@@@@@    X %@@@@@@@@@%  %",
"X.XX @@@@.@@O. X@ %@@@@@@@.%;XX%X..X @@@@.@@O. X@ %@@@@@@@.%%X %",
"X.. @@@@@@@. . X@ %.@@@@@@.....%X@  @@@@@@@. . X@ %.@@@@@@....X%",
"X@. @@@@@@@. . X@ %.@@@@@@.....%X@  @@@@@@@. . X@ %.@@@@@@.....%",
" @. ..@@@@@.O@ @@.O@@@@@@.%.X..% @X ..@@@@@.O@ @@.O@@@@...%....%",
" @.......@@.%@..@. .@@@@@.%....% @ ......@@.%@..@. .@@@...%.X..%",
" @. ..@@@@@X%@.X@@%.@@@@@@.X   . @. ..@@@@@X%@.X@@%.@@@@@@.X   .",
"@55@55555555@@@555@555555@@@@@@5@5@@55555555@@@555@55555555@@@@5",
" .X@           % ;X %  =  X .XX4 ..@X OOO  X  O% 1O % O     XXX4",
"X.X. O         %X X %  =  X .XX4X.X.X OOO OX   %    %       XXX4",
"X.X@  o  O O   X. X % =   X  . 4X.X@X OOO4OXO  X.   ; O     X. 4",
" .X.  oo OO    %X X ;O =  X .; 4 .X.X OoO4O O  %    : O     X. 4",
"XXX  Ooo OoO   %.+X ;+O=O    . 4XXXXX OoO8O O  %.+  :OO   O  . 4",
"X.X. ooo oOo   %% X ++O=OO  .;O4X. .X ooo8O O  %% O :+OOOOO  . 4",
"X@X. OooOoOo  O.% X #++==+O .; :X@ . ooooooO  O.%   #+O+++O  . :",
"X@X  oooOooo   .% . +##=>oO ...4X@   oo#oooOO  .% . +##+++O X..4",
" .X@ ooOOoo+O  %X;X O o==oO .XX4 ..@ 1oOooo+O O% 1O O ooooOOXXX4",
"X.X. oooooo+   %X X >O>==>O .XX4X.X. oooooo+O  %    >Oo>#>O XXX4",
"X.X@ oo++o#o   X. X >o>::>O  . 4X.X@ oo++##o1  X.   >oo>#>OOX. 4",
" .X. oo##o#oO  %X X +>o=o#o .; 4 .X. oo#o##oO  %    +>oo#oo X; 4",
"XXX  oo##o#oO  %.+X 1+o>ooo  . 4XXX  oo#o<#oO  %.+  1+o##oo  . 4",
"X.X. oo##o6o   %% X ++o##+O .;O4X. . oo###<oOO %% O ++o##+O  ;O4",
"X@X. oo##o6#O O.% X o+o#ooO .; :X@ . oo##<<#O O.%   o+o##+O  ; :",
"X@X  oo##o3#O  .% . +#o#ooO ...4X@   oo##<3#O  .% . o#o###O X..4",
"X@X.+#o##o3#O ;.X:X o+o#ooo .; 4X@ .+#o##<3#O ;.X:  o+o##+# X; 4",
"X.X.1#o##o3#O ;%X:X ++o##oO .; :X. .1####<3#O ;%X:  o+o##+O X; :",
"X.XX+#o##o3#+ ;. 1X +#+##oO X;1:X. X+#<3#<3#+ ;. 1  o#o##+O X;1:",
"XXX +#o##o3#+ ;. :  o+###oO    ;XX  +#<3#<3#+ ;. :  o+o##+O X  ;",
" XX +#o##o3#+ ;. :  o#+##+O    ; X  +#<3#33#+ ;. :  o#o##+O X  ;",
"O X +6o##o3o+ ;X ;  +++##oOX   ; .  +633o#3o+ ;X ;  o+o#++O X X;",
" .X +ooooooo+  X ;  o+###oOX   %O@X +ooooooo+  X ;  ooo###O @  ;",
"O@X. XXXX.XX .  .O 4      =@O  % XX. XXXX.XX .  .O 4      =@.  %",
" XX  @@@@@@@    X %@@@@@@@@@;  %X..  @@@@@@@    X %@@@@@@@@@%  %",
"X.XX @@@@.@@O. X@ %@@@@@@@.%;XX%X..X @@@@.@@O. X@ %@@@@@@@.%%X %",
"X.. @@@@@@@. . X@ %.@@@@@@.....%X@  @@@@@@@. . X@ %.@@@@@@....X%",
"X@. @@@@@@@. . X@ %.@@@@@@.....%X@  @@@@@@@. . X@ %.@@@@@@.....%",
" @. ..@@@@@.O@ @@.O@@@@@@.%.X..% @X ..@@@@@.O@ @@.O@@@@...%....%",
" @.......@@.%@..@. .@@@@@.%....% @ ......@@.%@..@. .@@@...%.X..%",
" @. ..@@@@@X%@.X@@%.@@@@@@.X   . @. ..@@@@@X%@.X@@%.@@@@@@.X   .",
"@55@55555555@@@555@555555@@@@@@5@5@@55555555@@@555@55555555@@@@5"
};
