/* XPM */
static char *SLOPPY2[] = {
/* columns rows colors chars-per-pixel */
"64 128 100 2 ",
"   c #3F2B1B",
".  c #6B4727",
"X  c #774F2B",
"o  c #4B371B",
"O  c #533F1F",
"+  c #5F4323",
"@  c #2B230F",
"#  c #372313",
"$  c #473323",
"%  c #430000",
"&  c #9B633B",
"*  c #4F0000",
"=  c #5F0707",
"-  c #875733",
";  c #3F2F17",
":  c #831F1F",
">  c #A36B3F",
",  c #6B0F0F",
"<  c #7F532F",
"1  c #8F5F37",
"2  c #332B13",
"3  c #670B0B",
"4  c #7F1B1B",
"5  c #972F2F",
"6  c #771717",
"7  c #9B0000",
"8  c #8B2323",
"9  c #7F0000",
"0  c #4F3B2B",
"q  c #2F1B0B",
"w  c #BF7B4B",
"e  c #731313",
"r  c #432F1B",
"t  c #1F170B",
"y  c #43331B",
"u  c #530707",
"i  c #B37347",
"p  c #D78B5B",
"a  c #AB6F43",
"s  c #A73F3F",
"d  c #5B0707",
"f  c #8B0000",
"g  c #AF4747",
"h  c #A33B3B",
"j  c #670000",
"k  c #8F2B2B",
"l  c #9B3333",
"z  c #B34F4F",
"x  c #170F07",
"c  c #B30000",
"v  c #730000",
"b  c #5B0000",
"n  c #574333",
"m  c black",
"M  c #533F2F",
"N  c #4F3B23",
"B  c #5F4B37",
"V  c #070707",
"C  c #DF9363",
"Z  c #A70000",
"A  c #470000",
"S  c #CB7F4F",
"D  c #BF0000",
"F  c #CB0000",
"G  c #BB5757",
"H  c #4F3B27",
"J  c #CF8353",
"K  c #1B1B1B",
"L  c #272727",
"P  c #5B472B",
"I  c #E30000",
"U  c #CB6B6B",
"Y  c #BF5B5B",
"T  c #E79B6B",
"R  c #874307",
"E  c #C76363",
"W  c #732B00",
"Q  c #D70000",
"!  c #AF4300",
"~  c #675333",
"^  c #67533F",
"/  c #EF0000",
"(  c #C34F00",
")  c #2F2F2F",
"_  c red",
"`  c #FFA35B",
"'  c #9B5B13",
"]  c #CB5707",
"[  c #A73F00",
"{  c #EB6F0F",
"}  c #872300",
"|  c #F37317",
" . c #FF8F3B",
".. c #836B57",
"X. c #775F4B",
"o. c #6F5743",
"O. c #131313",
"+. c #232323",
"@. c #FF3F3F",
"#. c #DB7B7B",
/* pixels */
"> 1 S & . + & 1 1 z 5 l 5 5 z g h l < a w - h g s q   # 0 N # # # $   2 1 1 a & & & > 1 < 8 a a & X X X F & i i w w i ; V . . & ",
"> S a - o o - w w 1 l 8 8 6 X & h 5 & a w + l g g q   # N N # # # $   @ X X s & a & s X X 3 < & > X O X & a J C C C J a ; i a < ",
"J w & X ; ; X & S w 1 8 8 6 + k 5 a p p w O + k 5 #   # 0 N # # # $   ; + z 6 : X 8 6 z + o 1 1 1 . + X < i p C ` C p i < w < > ",
"S a X !  .( ! - i p S > 6 J & 5 & p > - o J & & & #   # $ 0 2 # # $   @ o & s 5 s 5 s & o o g 5 g s k r k i J p p p J i < < > J ",
"w - . ! w v * X & w p S > < & 5 S & < & : , , 5 5 #   #   n $ 2 # $   @ 6 = e 4 5 4 e 3 * O E s E z s k : i w w w w w i & > J p ",
"a X I | ` ( ! . - i S p p > < < . & > : 5 : , e d q   # # $ n 2 # $   2           4 3 * . : G h z U z Z , 1 > & & & a 1 < J p p ",
"- . + ] { ] b b X & i p T J < d O 5 s l 5 : = d d q     #   n $ # $   2 & o x t m t a c 5 Y h k Y z s Z w & s & a & s X > p p w ",
"X : + + + b b f . - & w w w 1 + 5 g Y z 5 = @ + + q     q # $ n # $   ; . o x V m m N D 7 5 g 7 g 5 7 D 4 a 6 8 X : 6 < i i i a ",
"+ l + . & w b b 6 . & > a a & o g w U Y 8 = @ @ @ q     q #   n # $   @ X o m V V @ + Z D I I I F F D v 8 < s 5 s 5 s & i w a < ",
"+ 5 . O O k + b 3 . - & a i > + i p U g 4 @ o @ X q   $ q q # n $ $   @ < o m m x @ O 7 c F F 7 v 7 9 b 3 . e 4 5 4 e > w w a . ",
"5 e O . : 6 : O + . X & i w w < S p z 5 3 @ < @ X q   $ q @ # $ n     @ + o % % m t   9 7 D c d u 9 e % d O 3 4 X > < > w w a + ",
"& O < h h h h l O + . 1 i J w & & i s : @ i & O X q $ $ @ 2 @ # n $   L o # * * m m t % 9 7 f e , e j % d X *   + + < > i a 1 O ",
"i . h k : c Z l . 1 . X > w a & & G 8 , 4 i - O 4 # n $ @ 2 2 # $ n   2 # @ * 9 * m m 6 j f v 3 d u % % e < X a S l - > a 1 . O ",
", 5 4 6 7 h j 4 5 8 . O & i > 1 w l , o l 4 + 4 l # n $ @ ; ; #   n $ @ @ @ = 7 7 j * 8 % v u u u A % , : - X i p U - & 1 . O o ",
", 6 4 f b = 9 c : 3 . ; . > & - i : , O g 4 4 l U   n $ @ y y 2 # n M @ 6 7 c c c 7 9 s e , A * A , , 8 h O X > z U < 1 < ; O ; ",
"6 3 7 v b j f F e ; + ; o & < X & : = + h s l G U M B $ @ y N 2 # $ n   L u u = 9 7 7 G : 4 , * , 4 8 g z X X 1 z w X - X ; O ; ",
"5 6 Z c 9 s Z Q 4 o . o ; < X . < = ; . 8 h z U w M B $ 2 y N y q # 0 $ ; O d u = 9 9 f f f : e f f f f f 5 + . X 1 + X . o . o ",
"h l F Z F I D D l O X o O X . O + = ; + 3 8 k & 1 M B $ ; N N ; q #   0   1 2 3 * 9 k h h @.8 e 8 f F F t , o o < X O . + O < - ",
"h g I c Z D Z _ g h 1 o . . O o ; = . . O 3 6 + + M B $ y N y ; q $ # $   o . O d 9 = = k f Z d 8 8 , * f d   O 3 d 3 O O + - & ",
"s X D 7 f 7 7 F & h 1 O . O o . = = . 1 - O = 3 ; B M $ y N y 2 # $ #   M   o . = 9 % % 9 F 7 d e : : : # d # o : 3 O ; O + - > ",
"G X Z 7 f f 7 c G z - + . o ; + = = O . 1 - O ; M B M $ y N y 2 # $   # M   @ t = = % % % 9 9 % } h g g f + @ u , , 4 ; O + X i ",
"z s Z 7 9 f 7 Z s s X . - o ; + o = . e . . ; M B M   2 y N y @ # $   #   M   # # j j % % = % : g g E Y h t o @ b 9 9 ; o < + s ",
"c F Z : e v 8 c 7 f . h + o ; O + = & 4 d ; M ~ M   % @ y N y @ # $   t #   M M M M 9 j % e % 5 g Y Y g g 5 t o b 2 H b ; X c 9 ",
"f f 6 % * d 6 : e e 8 4 e ; % O + c G X O M ~ M M % u @ y N y @ # $   * t # #       = 3 6 k % h Y z g l g 5 e x q 2 H $ ; . + 7 ",
"I : % % % % = 3 7 I D Z : O % o + 7 I G M ~ M $ P o % @ y N y @ # $   # o ; @ t x = 3 6 o o # w J p 5 g g 5 + l q   $ $ . : Z D ",
": % % % % % b b b 7 e = = 9 9 ; < 9 c M B M   d $ P o # y N y @ # $   o 6 = e 4 5 4 e 3 * O X p p p w 5 5 < . 5 q   $ r . = = e ",
"% % % % % % = M $ b D :   7 7 ; X c M B M   7 9 d $ P   y N y @ # $   O > w a > X 4 3 * . : 1 a w a & X + o e e q   $ r . . : D ",
"% % % % % u r H n   f = u 7 9 V O M B M   6 d * * d $ 0 $   y @ # 0   X T J 1 + +   * X & h 1 a X + + o o e : & q   H r o - 7 e ",
"% % V % % % = r B M   q u j * @ M B M   = = 6 6 6 v q $ n $ 2 @ # 0   X > T C > O   O < w z - . g z g s z U 1 > q   $ r . & 9 % ",
"O x x V * * * # n ^ M   , m m   M B # # # # 6 7 6 v t q $ B $ @ @   0   X > w + O   @ o a & . & & E s z U U > w q   H r . i > & ",
"X O W W t * * * r n B M   m   M B M r H H H , 7 v 9 t t q $ n   # #   $   X a O 2 @ @ o & < i S S i z < & & & > q   $ r @ @   o ",
"1 1 ' t q * * * y r n B M   M B M   + O , 9 , u b 9 t @ @ q   0   @ # $ $ 2   2 @ V x o . - J p C C w . X X + + q   $ r ; O O @ ",
"1 & R t q * * * y     M B   M B M   + , 9 , = % % b @   y @ #   0   #   0   y # V V m o X a a p T C C i - X . o q   H r ; X O < ",
"< X O t q y y N n n 5   M   B M   + < - 6 = % % % b     N 2 q # $ $ @ # 0 $   y x m m o < & w w p C p p i i i > q $ H r . > X & ",
"O X 1 . q q q t x o X 5   M B M   + 1 > > b b b % %   y N y t q   0   @   0     m 4 h o + X & w w a - > w w i > q $ H r . w > w ",
"1 S p -   t t x m 1 > i M B M   0 & 1 a 7 D 7 b % $ # y N y q q # $ $ # # 0   m m z h # o + < & & R # - > > & - @ H $ r . w > w ",
"p S S i O t x m < i C M B B   3 + > 1 6 c Q 7 b % 2 # N N $ $ $ $ N $   # $   L @ = z F 7 o o + R Q * O w w a - 2 H $ r . w > 1 ",
"X w S S X   m < 1 .   M B M   3 8 - 6 l 7 7 5 v % % # y n N y y y B B y y B B y y 7 = Q _ D f @ 9 c 9 # X - - X 2 H $ r . > > < ",
"> . 1 X X O # - .   M B M   * 3 4 k h l e b 9 v v % # y n y @ q #   0   # $   2 @ c f D / s z 5 j 7 j # O   + +   H r r . 1 > < ",
"> . r O # t t - r n B M   3 , k s g h 8 , 9 4 6 b   r y N y q q # $ $ # # 0   m m = v Z D s z s : v * + X +       H r r . i w 1 ",
"+ + + O O r r r n B M   3 c X & G g l 6 u 8 6 B 0 # # # N y t q   0   @   0   t m u d 9 4 5 s s 8 v * + X + +     H r r . p S 1 ",
"5 s l 5 : = # n ^ M   . & g < & z h 8 = 8 8 0 M M 0 #   N 2 q # $ $ @ # 0 $ @ m x 3 v v , 4 l 5 l : + < < O +     H r r . C S . ",
"g Y z 5 = @ r B M   . p S & - - s l 4 = 6 8 d 0 n n $   y @ #   0   #   0   y m V v 7 7 d , k 5 8 g : 1 + 8       H r r . C & 5 ",
"i 1 + 8 = r H n   q & w p - & & g 4 # : = 3 t   0 n $ # @ q   0   @ # $ $ 2   m m * * 7 f d : g 5 5 g X z . + o   H r r ; 1 i w ",
"C w 1 + @ $ M $ q 3 l X - & & a 8 = # # 3 * m   n ^ n @ q $ n   # #   $     $ t m * * k   t d 5 g z z & - G s     H r r ; w C C ",
"C p i < r H $ q . i - s l g a 5 =     # 3 * * > N n N q $ B $ @ @   0 $   $ o * m * * O # t x d 5 s z a a - . o   H r r . p C T ",
"p J > 1 $ H   @ a - a G 5 - - = x     # * = - w $ N $ q $ $ 2 @ # 0 $   $ + . * * * *       @ x 6 5 s g & g -     H r r . J p p ",
"w a 1 X & $ @ q - a & - 4 X , x @     # 3 : a E $ $ r q q   y @ $ 0       - 1 . * * * *     @ x = 5 l 8 l k & X   H r r ; a w w ",
"- < . O 8 . O X & - < X X + d @ @     # f . i s $ $   q q N y @ $ $ @ + + w a > . * j * j   3 * x 6 l 8 O 6 . k 2 H r r ; < - - ",
"+ e   ; 3 . O < X O O - . , x @   $ $   h & i z $ M   K 2 H $ # $ $ @ o 6 i i i & * % * * v , , x = k < . o ; 4 2 H r r   e + + ",
"3 d d ; ; + + X ; o . X O d x @ $ 0 $ # k > w Y $ M   K 2 H $ # $   @ u 8 g a i > . % j * 9 : l @ x 6 . < O ; 3   H r r d d 3   ",
", e o ; o + < + ; O X . , x     0 M   # . > w Y   0 $     $ $ # $   @ u , h i w w . * V * * : * 6 x = O . X o 3   H r r = e , e ",
"d d # ; O X 1 o o X . O x @   $ n n $ # X > i g M M 0     $ r # $   @   , 5 i J w X t t * * : * x @ x 3 O . . o   H r r * d d , ",
"u * q . : 1 1 o O . O = x ; #   $ 0 $ # - > a 5 n n n $   $ r # $   @ l u : > w a - * e j * k 6 t   @ x 3 O . O   H r r * * u u ",
"u 2 O & h > 1 o . O = x ; ; @ K $ $   q - & 1 4   0 $     H r # $   @ 8 u : & i > 1 e : e e k : 6 2 O @ x 3 o +   H r r O 2 u u ",
", : . w z > - O . o x @ ; o @ @ $ $   q X 1 < ;   $ $ K   H r # $   @ 3 u ; . > & - 4 4 5 : : 5 : 6 r O @ x o +   H r r . : , , ",
", : . w s 1 + + - o x ; ; o @ @ $ $   q + - X ;   $ $ L   H r # $   @ * u ; O & < X 4 6 6 4 8 8 k 6 4 r O @ x o   H r r . : , , ",
"= 4 + X : . . - + * @ ; O o # @ $ 0   q O X O *   $ $ 2   H r # $   @ * u o O < X . 3 6 : 4 4 u 4 4 6 r O = x o   H r @ + 4 = = ",
"u , : e e + + , * @ @ O . O @   0 M   # ; O o *   $ $     $ r # $   @ = , o O X . O m m e 4 4 r   # f   o = @ x   H r @ . , u % ",
"9 * A l g g h : * ; O . - +   $ n n $ # w ; ; *   0 $     H r # $   @ : : o . . O o - > - o = 4 o t f f , = = @   H r @ 3 Z o % ",
"9 9 * A 8 e = = * ; . s X o #   $ 0   # G . * *   M 0 $   H r # $   @ h 5 O . O o o + & J 1   = = b f 4 4 , = @   H r @ 7 Z o % ",
"= 9 * * A D : = * = 7 f . # @ $ $   @ K + * * A $ n n $   H r # $   @ z 8 + . o o 2 o + & > . : = : c / / 4 :   $ 0 r @ o D o v ",
"9 = = j * 3 = A A = e e 8 2 @ $ $   K 3 * 7 * A   0 $     H r # $   @ s : . - o 2 2 o o & 1 + k : c Z F F Z c @ $ 0 @ @ 9 v % j ",
"f b % v v v j % A A = : : Z @ $ $     * 3 7 * A # $ $ $   H r # $   @ f : h + o 2 2 9 9 + o + , h g Q 7 7 Q g   0 $ @ 9 e % = v ",
"% % % % v v j % A = , = e = @ $ 0   q * , , u A q   $ $   H r # $   @ e 8 4 e L 2 9 5 k o r < g G G O . + - O r 0 # o m m % = 9 ",
"% % % % % v @   $ = , b = u q 0 M   # * * u @ A q   $ $   0 r # $   @ k k : : 9 9 5 k : 8 O - w i s 1 S & . r M $ # . m m * = j ",
"j 9 +   O @ @ # $   = b u u # $ n $ # * * u % = q   $ $   n r # $   @ % e = = 9 5 : : : O - w S G > S a - N 0 B   o X     * * % ",
"+ X - - X ; @ # $ $   A u A q   $   q 3 * u % % q # $ 0 0 n r # $   @ b % : 9 5 : 9 $ P ~ ~ P < > J w & X y 0 n # . - 1 n 0   ; ",
"X - a w w + ; #   0 $   A A 2     # K @ 6 u u % # #   $ n n # # $   @ # % = k 5 9 $ $ $ $ $ < > J S a X   ) 0 $ o . > S > < ; O ",
"X - & > > - + ; #   0 $       0 M   # w # + u % # # $ n B $ q # $   @ $   = D I 9 v v j j j > J p w - o t   n $ O X w p S > < X ",
"X > i w w > + . t #   0 $   $ n n $ # < # + u % % # n B $ q q #   $ @ @ $   c c v v O > s < J p p a X 3 t r n   O - i S p p > O ",
"X > i i i p p . V V @ #   #   $ 0 $ #       $   % M B 0 q # q # 0 0   # $   + - g E < i z > p p w - o 3 $ 0 B   6 O & i p T J < ",
"@ o . X - i C . x x x # # @ K $ $   q $ $ N N y r B H 2 q   # # $   @ # $   + ..5 z 1 w < i i i a X ; %     H r u O - & w w w 1 ",
"+ + + X X . O X > & < . u @ @ $ $   q # # # N r n B 2 q   $   # $   @ # $   + X.S O > w & i w a < + 9 d     H r u , . & > a a & ",
"> > & . . 1 w C C C w 1 . $ @ $ $   q * # # 0 n ^ $ q # $ n $ # $   @ # 0 $ @ 1 > > R i > w w a . o = % O   H r u , O - & a i > ",
"< w > O X i p C C C p i < O @ $ 0   q % % # n B M   q q 0 M   # $   @ #   0   # #     9 W w w a + ; % O .   H r O u O X & i w w ",
"& > 1 O < i J p p p J i 1 O   0 M   # % % 0 n n   q q @ $ 0   # $   @ + #   $ $ $ 0 P 0 9 i a 1 O = O < h   H r l O : . 1 i J w ",
"& & : & - i w w w w w i &   $ n n $ # %   0 $   q 2 K @ $ $   # $   @ 1 + # #         9 W a 1 . O , . h k   H r l . ; . X > w a ",
"1 e e - X X 1 & & & 1 X < #   $ 0   # % $ 0   q @ ; K @ $ $   # $   @ X X ; O O ; ; O R & 1 . O o , 5 4 6   H r 4 5 8 . O & i > ",
"- 5 . O +   e + + + e   + ; $ $   @ K   0 $ # @ 2 $ @ @ $ $   # $   @ + + o X 1 + O X < 1 < ; O ; , 6 4 j   H r f : 3 . ; . > & ",
"X l + o   d d 3   3 d d o o $ $   K K $ 0 2 # q $ 0   #   $ 0 # $   @ @ + 2 X X + + X X - X ; O ; 6 3 7 v   H r f e ; + ; o & < ",
". : +     = e , e , e #   o $ $   K   0 $ 2 # q $ M     $ n n #   $   # # # # # #   , W X . o . o 5 6 Z c 9 v f Q 4 o . o ; < X ",
"O : o   6 * d d , d d #   ; $ 0     B 0 2 @ # q $ 0   @   0 M @ #   $ $ $ $ $ $ $ 0 0 9 . + O < - h l F Z F I D D l O X o O X . ",
"o @ o & 8 A * u u u A q . q 0 M n B 0 $ 2 2 + q y $ y # @ $ 0 @ V # # #             , u O O + - & h g I c Z D Z _ g h 1 o . . O ",
"@ o X > 5 = A A A A u = & # $ n B $ $   y + < y y N y @ @ $ $ @ * 3 o o o o o ; o 2 2 * ; O + - > s X D 7 f 7 7 F & h 1 O . O o ",
"@ i X i s , u u u u , 4 . q n B $   $ N + < - N n B y @ @ $ $ @ 3 o + - & < o X X E s 2 ; O + X i G X Z 7 f f 7 c G z - + . o ; ",
"@ > X - - 6 , u u u , 4 ; ; B $ # K @ N - - & ; 0 $ # # y $ $   3 o - p p > i S S i z 2 ; o < + s z s s 7 7 7 7 s s s X . - o ; ",
"@ 1 X - - , , % % A , #   M $ @ @ q u + a p &   M 0     y 0 0 $ 3 4 & p T J X p C C w 2 6 ; X c 9 c F 8 j j j j c 7 f . h + o ; ",
"o . + - - , , A A #     $ $ @ @ # @ % . > i & $ o.B M   y 0 $   3 4 & w & a 1 - - - - 2 5 ; . + 7 f f j % * d j j e e 8 4 e ; @ ",
"# # # # #   $ $ $ $ $     @   $   @ % < > w &   0 $   # y $ $   1 4 : > & a & # #     , , , : Z D I e @ # # #   3 : k k : : , # ",
"$ $ $ $ $ $ n M $   # # @ @   $   @ j 1 w w >   $ ; @ @ 2 y   2 a - 3 & & i > 0 0 0 0 0 e e = = e : @ @ $ $ $ $ , : 4 e = = $ 0 ",
"# # # # #   $ $   @ * * * 2 $ 0 $ @ . > w E z   $ ; @ 4 @ y   L i - : z i w w X         d d d : D % # # # # #   , f : : : d d d ",
", u @ + d d d d d * * l 4 $ 0 n 0   X 1 > z h   $ $ @ s @ y N y > < : s i J w - % % * * * * % 7 e % % % % % u V 2 f f f = V @   ",
"u @ o t d e e e e * - g 4 @ #   # @ - 1 > s 8   $ $ 2 h @ y N y 1 X - 5 > w a & b b * # 2 * b 9 % % % V % % % = 3 f f 9 3 V @ @ ",
"u o t q 6 8 5 8 * q < h s @   $   @ - 1 - 8 4 # $ $   = @ y N y . + 5 4 & i > 1 j j ; ; O ; b 7 % % % V V = = V 3 f f 9 f W V + ",
"  x e t 8 l 8 q #   . I 7 @   $   L X - . 3 , = $ $   = @ y N y o o , d . > & - A j ; + X + 2 7 % % % V = % % = , f 7 9 c d , , ",
"x x t 8 5 8 t q # q Z Z Z @   $   y . X + 3 , = $ $   K @ y N y O ; d d o & < X b # K O.t ; 2 % % = % H H = = H , f Z 7 c 6 R % ",
". O   4 , 8 q q . 9 j 9 c 2   0   L + . O d 6 #   0 $   # y $   o ; d d ; < X . b 2 @ #   # ; j v , % # = % % = 3 7 c c c 6 ' % ",
"X . O 5 5 , t . < 9 9 % 7 $ 0 0   L O + u e k #   M 0       0 $ u ; , , O X . O @ @ q # $     v 9 % % = # u u H = Z D f 9 = R . ",
"X . . o 4 s t > . 9 * % % @   0   2 5 ; ; 8 h $ $ n n $     0 $ ; O : 4 . . O o + @ q # $   + o f % . , = u u = , c D 8 5 + . - ",
". O . o k l t . 1 9 * j j   $ 0 $   s ; u 8 h #   0 $   # y $   O X g : . O o @ . @ q # $   s   = v . 1 , = = , % D f s + > < < ",
". o O o e e e 1 > O * f f $ 0 n 0 $ g ; u 6 k K   $ $ K @ y N y X w G + . o ;   E @ q # $   . o % f 8 1 6 , , 6 7 f s + 1 > - < ",
"o   # o o @ % + o O * 9 7 r $ 0 $ r k ; 3 u 6 =   $ $ L = 2 N y s s X . - o ;   X < o # $   :   % % k g g . . @ @ 8 8 o + < < < ",
"o # V O X +   X + , * % j @ #   # @ : 7 ; 3 c 6   $ $ 2 K 2 N y 7 f . h + o b   s < o # $ $ : @ % % k : : @ #   $ @ 8 : 6 o . . ",
"# V O + + - o j A % % % % @   $   @ : , , u 3 6   $ $   @ @ N y e e 8 4 e $   : X O 2 # $ 0 $ @ % % 3 @ #   $ 0   @ 3 6 3 3 + o ",
"V t . X - o   A j j c F c @   $   L f   , : Z =   0 $   # @ 2 2 e : D Z : 0 $   o 2 2 q         # # #     $ 0   @ @ 3 3 d ; o # ",
"# O X - o o + j % c F Z f @   $   y 8 O   = = #   M 0 $     y N $ e e = =   0 $       # # #   $ $ $ $ $     @ @ 3 d d d ; + # # ",
". + - o X < - 8 j j 9 9 , 2   0   L 8 O     : # $ n n $     y P $ 3 : : 3 #   $ $ $         $ n M $   # # @ , , : 3 @ ; o o # # ",
"+ . * 6 6 6 6 * % % b b u $ 0 0   L 6   # * e #   0 $   # @ y P r d : 3 d t # # #     # # #   $ $   @ = = , , , , , 4 ,   # e - ",
"+ * 6 : : : : : % % R * * @   0   2 6 j 9 * * q # $ $ $ @ +.y N r # 3 d t t t @ @ @ @ @ @ @ #     @ o o + . + y u 3 3 3 @ # 4 - ",
"; = 3 %   O . . + o A R *   $ 0 $   * 9 * * * @ q   $ $ 2 K 2 N r # d q t t q r o # O + < < @   0   o . X + r ; @ u u u = 8 - . ",
"* = % # o . - 1 < . R W W $ 0 n 0 $ * % * b * 4 l 7 2 )   q q r 0 r   L t o # t # # r O + + @ # 0 r O . X O + N 2   * x . X . ; ",
"t o # L t o # t # # # t # r $ 0 $ r j % % 4 l 8 7 y y 2 $ # q r n $ $ N y y y y y y y y y   # # $ M r y   # y N N v v 7 . A A L ",
"y y y N y y y y y y y y y y y y k k s [ G l 8 7 N N N y 0 # q r B 0 0 P P N N N N N P N N y   #   B 0 N $ r N N N O O o v : $ N ",
"P N N P P N N N N N N N N N P N N k k - U s , = y y y 2 $ # q r n $ $ N y y y y y y y y y   # # # n 0 y   # y y y X X X v : 0 P ",
"y y $ N y y y y y y y y y y y y y k : - #.U s , = = = @ # q q   M r $   2 L L y L t @   @ c 5 @ q $ 0 ) s 4 4 o < 1 1 < . 8 A y ",
"x x $   2 L L y L t @   @ = V @ d 6 : - w p C s ,     # $ q q r n $ 0 $             # 0 $     # q $ n   2 @ @ 4 4 X 1 1 8 k * A ",
"$     $             # 0 $ 4 =   # d 6 X p C p p s $     $ # q r B 0 n 0 0 0 0 $ $ $   n 0 $ $   #   n r           4 X > k * O 0 ",
"0 0 0 0 0 0 0 + $ $   n 0 $ 4 3 . V 6 X T i p i C     # $ # q r n $ 0 $   0         # 0 $     # #   B 0 $ $ $ $ $ 4 f > k f c n ",
"$   0 $   0   +     O O k + 4 3 . V o X C p C p X q   $ q @ # $ n     @ @ $ t , , e 6 $ 2 @ @ @ q   n 0           3 f 1 . f f 0 ",
"  @ $   @ $ t , , O . : 6 : O d . < < r < a & X X q   $ q q # n $ $   @ x $ m t + e 4 $ 4 e t t t # $ 0   @ @ @ 3 j j X - X y f ",
"< X O t q q q t O < h h h h . O X . < k s z E s @ q     q #   n # $   @ t $ m m o 3 4   4 3 t t t @   0   [ l t V j j . X . a w ",
"O X 1 . q q q t . h 8 4 4 8 g . X + O Z z U z h + q     q # $ n # $   ; m $ m m t . u   u t t t 2 @ # 0 r > ! 1 . # V x V V O X ",
"1 S p -   t t , 5 4 6 8 8 6 4 5 8 + O Z s z Y k d q     #   n $ # $   2 m $ m k w i i + o o t 2 2 g #   0   ( + . > p T T T C X ",
"p S S i O t x , 6 3 : 5 5 : 3 6 3 O r D 7 5 g 7 e q   # # $ n 2 # $   2 : e : z C C J a + o o 2 g & @ #   0   V + X i C C p & p ",
"X w S S X   m 6 3 8 : l h : 8 3 ;     v o o F I 5 #   #   n $ # # $   @ k : z C ` C p i < + 2 2 1 p & @ # $   V V O - w w a < w ",
"> . 1 X X O # 5 6 l k g z k l 4 o   % b 9 7 v 7 & #   # $ 0 2 # # $   @ < i J p p p J i 1 o @ 2 X 1 p & #   V V V V V V     + a ",
"> . r O O O O h l s l s s l s l O % % % e 9 u d 5 #   # 0 $ # # # $   ; & i w w w w w i & a . . . X 1 p & O V V V V V V V @ O a "
};
