/* XPM */
static char *SP_DUDE4[] = {
/* columns rows colors chars-per-pixel */
"64 128 116 2 ",
"   c #5B6347",
".  c #53573B",
"X  c #3F472B",
"o  c #6F7357",
"O  c #373F27",
"+  c #474F33",
"@  c #232323",
"#  c #332B13",
"$  c #1F170B",
"%  c #131313",
"&  c #676B4F",
"*  c #1B1B1B",
"=  c black",
"-  c #2B230F",
";  c #2F2F2F",
":  c #272727",
">  c #170F07",
",  c gray28",
"<  c #43331B",
"1  c #0B0B0B",
"2  c #373737",
"3  c #3F2F17",
"4  c #7B7F63",
"5  c #13230B",
"6  c #533F2F",
"7  c #434343",
"8  c gray31",
"9  c gray23",
"0  c #4B4B4B",
"q  c #836B57",
"w  c #4F3B23",
"e  c gray39",
"r  c #070707",
"t  c #430000",
"y  c gray34",
"u  c #A78F77",
"i  c #574333",
"p  c #5F4323",
"a  c #533F1F",
"s  c #4B371B",
"d  c #6F5743",
"f  c gray42",
"g  c #775F3F",
"h  c #7B634F",
"j  c #775F4B",
"k  c #5B5B5B",
"l  c #937B63",
"z  c #BFA78F",
"x  c #732B00",
"c  c #AF977F",
"v  c #17330F",
"b  c #5F4B37",
"n  c #9F8363",
"m  c #470000",
"M  c #675333",
"N  c #836B4B",
"B  c #9B3333",
"V  c #8B735B",
"C  c #9B7F6B",
"Z  c #B79F87",
"A  c #DF9363",
"S  c #5B472B",
"D  c #8B8B8B",
"F  c #D78B5B",
"G  c #AB6F43",
"H  c #9B633B",
"J  c #BF7B4B",
"K  c #939393",
"L  c #EFA373",
"P  c #BB5757",
"I  c #9B0000",
"U  c #8F5F37",
"Y  c #8F7753",
"T  c #972F2F",
"R  c #6F6F6F",
"E  c #CF8353",
"W  c #A73F3F",
"Q  c #A36B3F",
"!  c #771717",
"~  c #838383",
"^  c #FF8F3B",
"/  c #F7AB7B",
"(  c #BF5B5B",
")  c #8F2B2B",
"_  c #BF0000",
"`  c #B74700",
"'  c #FFBB93",
"]  c #6B0F0F",
"[  c #B34F4F",
"{  c #874307",
"}  c #9F876F",
"|  c #777777",
" . c #B30000",
".. c #FFBF9B",
"X. c #4F0000",
"o. c #530707",
"O. c #FFC79B",
"+. c #774F2B",
"@. c #FFB383",
"#. c #FF5F5F",
"$. c #9B5B13",
"%. c #AF4747",
"&. c #CB7F4F",
"*. c #7F532F",
"=. c #831F1F",
"-. c #7F1B1B",
";. c #DF670F",
":. c #F37317",
">. c #CB5707",
",. c #AF4300",
"<. c #67533F",
"1. c #6B4727",
"2. c #EB6F0F",
"3. c #D70000",
"4. c #FFD3BB",
"5. c #E79B6B",
/* pixels */
"* * * * * * * * * * * * * * * * * * * * * * * * * * * * * * * * * * * * * * * * * * * * * * * * * * * * * * * * * * * * * * * * ",
"= $ * ; 2 ; $ # + - % $ @ * * @ - X ; # ; + . + 7 0 0 + & o q & i q &   & 4 4 4 l o 4 o o o o o o o o D ~ o ~ o y   o   ; O * = ",
"= * X ; $ * $ @ . $ > * 9 - $ $ - # # @ ; 2 2 + & & +   .   & &   . . b   e e & 4 . q & & & + 0 e & 8 & &   .   X q o o # $ 9 = ",
"= X 7 2 - - $ $ $ $ $ - & | O * - @ @ * 9 . 8       8   . +   & & X i b . + 8 . & & & e o & d e & . 8 o   O ,   q D . o X % * % ",
"= X - $ $ - - - * - 0 i # + + @ * # . + + . . # $ i . .   + 8 . i .   d d h .   o o o & & o o o & & & e & & .   . o &   . 8 $ 1 ",
"= * $ - - # @ @ - X . . # + X - @ 9 X X - - # . X $ #   8 . + . 6   d h o q . i & o o o o & o & & o q & 4   . . &     &   & ; = ",
"= $ $ $ - i   @ $ $ X + - - # # 9 + 2 # . X $ #   8 . + . 6   d h o q . i & o o o o & o & o o & & o o 4 & & . . 0     X 0 X $ % ",
"1 * % $ 2 o o ; $ * $ 9 # - # @ # X - $ ; 8 O $ $ O O ; ; # O 6 6 + + O # O + o o o o o & o o & & & & & o & . . .   & 9 4 . > 1 ",
"% @ # $ * @ . # $ - @ # @ @ @ 2 X X - : 0 b b b b b b b b b 8 8 b b b 0 0 i + o o R o o & o & & & & . o o   & . . . e 7 k 8 % 1 ",
"> - $ $ * $ 2 # - # # O # @ # 2 # X O * : : # # 3 < 3 3 < < : # < : # : : - 6 o o o o & & o & & & &   & .     . 0   y ,   X @ = ",
"> * @ - $ $ @ - $ # 0 . + @ @ @ - + . O < : < # , - # < 3 # 3 < , - # : : - + & h o o & & 4 &   . & . . + . . .   8 & . . O $ 1 ",
"% * 9 @ $ @ ; - - # + . + - - 7 2 $ @ ; : - < # r $ - < 3 2 3 < > $ - : : # ; e & o 4 &   & o     &   . 0 + + +       . O 9 % 1 ",
"@ $ O < * * @ ; ; @ - - @ $ $ # # @ - $ : 3 3 # 5 5 # < 2 , 2 ; 5 5 : : - : + e e o & o   & & o & . . . 7 O O X   . X X # $ * = ",
"% X # @ @ - $ # 7 @ - $ * 2 $ O O X X $ : < 3 # # 3 3 2 , , , 2 < - # : : - 9 o e   & & o   o o & .   6 O O O 7 8 # , y % $ > = ",
"1 7 2 - $ @ @ - @ @ - - - $ - @ X . + $ # 3 3 # - 3 9 , , f , , 9 - # : : # + o 8 +   o o 8 & R & + & & . X O X 8 @ # : @ # > = ",
"= - : $ $ @ @ @ $ $ $ * @ 2 # @ ; X + % # : < # 9 - # 9 f # = 2 9 - # : : - + & & 8 8 & R   e & . X . o o . + . # ; @ ; % X * 1 ",
"1 # : @ @ - $ - @ * $ @ + + 2 @ * $ @ @ # ; < # r $ - < 3 K 3 < > $ - # - : + d & &   e & & e & X ; & 4 &   X # ; # $ ; ; X O 1 ",
"> 2 @ - * @ @ * - @ # - $ - @ - - $ @ ; ; : 3 # 5 5 # < f * = ; 5 5 : ; - # + & & & & e & & . .     & & . + + X 8 ; 7 , 7 X O 1 ",
"@ @ - $ * * $ @ # # @ * $ @ - * - - - 8 ; - : # # 3 # 3 : f 3 # # @ @ : - # + . & o & . . o &   . .     7 . e . y O # .   O O 1 ",
"@ $ # @ $ $ @ 2 @ * - @ - $ @ - @ # @ ; $ * * $ * - - $ K * = $ - * * * * $ 9 & & o o &   o & & . b     i . o   o   . . .   O % ",
"% - - 2 $ * @ X - - * @ - $ : O @ @ $ - $ > - - # - - - + f : O + @ @ + + + + & k & o & & o & &   +     O 0 & . o       ,   9 1 ",
"* * @ # - $ * @ @ $ @ @ @ @ - @ # # - - - - # X # - @ # K @ = < 0 +   +   & & & & & &   & & o &   & &   O X i   &     .     O % ",
": @ @ # @ . - @ $ @ ; @ * - - - @ @ - @ # ; @ # - * - @ 9 * @ ;   & & o &   & &   O X & o o & o & & & . + + .   .     .   . O % ",
"@ # O @ - $ $ $ - $ * * * - @ @ @ @ 2 + 2 2 + 2 $ - 2 # @ f 2 # & o o & o & & & . + + o o & & o & & o . 9 0   .   o   .     O % ",
"@ 2 2 - $ * @ @ $ * $ - - $ $ @ # #     X O + 2 # + + # f # = @ o o & & o & & o . 9 0 o & & & & & . 8 . + .   X   .   . .   O % ",
"= 5 5 5 = 5 - - ; - - - X $ @ % # 2 o 8 X X X .   X # X 9 = = X o & & & & & . 8 . + . v . .   ; . . 7 X     . . . . y . . X O % ",
"O O O ; $ $ @ O @ * $ > $ ; @ * @ 1 O O ; O * @ @ ; $ * = 9 = * v . .   ; . . 7 X     # O O ; O * @ ; @ O ; O O O O @ @ O $ O % ",
"* @ : * > 1 % @ % 1 > % % % > > * @ : * > 1 % @ % 1 > * f = = * # O O ; O * @ ; @ O ; % 1 % 1 @ * > * > % > @ % * @ * @ @ @ % 1 ",
". 4 & & o & o       & & k & @ * O & & & V & o V & & V % d 9   u z c u j @ @ X & . & & . . o . & l o 4 & & 4 4 4 o o o . o X 4 o ",
"      o o &     &     &     @ % 9 . . . o   .   o o & q , J ' L E U p p O 0   o     & & & &     o & o q   8     . 7 X . 8 < &   ",
"o   o o o   &           . . > % 9     . X .       o o q 9 5./ ' L A Q a < 6   . .   o . .     o         . . . . . + X . X < &   ",
"    o o o   & &   &         1 1 ; + + + + . . .   4 .   A J U s ] J p a 3 -   .       X X     4         + .   . X O X + + <   . ",
"o &         &   & &     & . > 1 ; X . X .         . . X F $.F H <.c 5 = 5 > . X   &   + X . o o + X     . . . . . . . X 0 + . + ",
"      .     & & &     .   . 1 % O . . # X .       X . . U { B ( G 3 = = r % . .       . .     . X X     . . . . 6 .   X . . d   ",
"  .   .   .   &   & . . . . > 1 - X . , + . X .   . . . l ] =.W G # r r = . . . .   & . .   . X . . . + .   . + . . + X 6 +     ",
"X . . . . .   & & . . .   . @ > O X + X . . X . . . . . 3 x ! -.E 3 > = = .   .     o . 6 . . .     . + .   . . .     # . + +   ",
"  . . .   k &         & &   O > @ X . X X . . . . + . + = : w g w 5 = = .           o   + + .         . . . . .     . X . + + . ",
". . .         &     & &   . O 1 @ + . X ; . . . . + . + < = = 5 5 = = .   .   .           . + .   o . . . X .     . . . + 0 i   ",
". . . &       .   &     & . @ > O . . X X .   . . . . < T < = = = = = < o   . .       . . . .   o . + + + X .   . X .   + .   . ",
". . . o     . . . & & . &   O 1 O . X o o Z q q C h O.2.3.T < = = = = = = 3 # O O   o . .     .     . . X +     X X X . + .     ",
". .     o   & . .         & < % 9 6 $ z Y N u M h @...`  .I _ p 3 = = = 3 - 6 Y c O             X       + .   . X X . . +       ",
".   & o .   o   k     &   & O % 6 . # Z p +.n $ F L ` / ^ B P T P p s - p 5 5 u u $ &   + .   . .   o o . +     , 6     .   & o ",
"  .     & . & &   & & &     O % 6 O # u s u u - %.#.^ A 4._ G [ &.( P H *.< 5 } q S O   . . . . +   o o   X +   . .         &   ",
"& .     &   &       &       O % O . < n h j M u # { ;.:.I A B W [ F H >.B < # j N N X &   . . .         o   . .   .   o   & &   ",
"o   o       o       o       O % O O a l M l - c r # x x I Q ! x ,.G B ) x w # 1.c u r O . . & .         . .     .     o   & o   ",
"&       o   o           o   O 1 O . g a j & Y z 2 r > r o.t t x ) o.t t > > r d z Z S = + & + .         . .   .       &     &   ",
"          o         . o   . O > O . < p p g M   j = = = = = = * * = = = r = = # c z o = O . .     &                   o & . &   ",
"X                           O 1 O O = h S - g u l = = = % r > > $ $ = = = = = $ u z D $ = + &     &     &                   &   ",
"  .             .           < 1 O # = Z N g u n , = r > = = r = % = = = = = = = a z   S = O . o     & &                   &     ",
". . .     .     .           O 1 # = = n p a u j = = = = = $ $ = = = = = = = = = # a j . = = X X . . . . . . . . . . . . . . . , ",
"O O O O 9 O O O 2 O O O < O @ = = = = g 3 M N # = = = = r r = = = = = = = = = : = # g + % = @ 6 O O 6 6 O O ; O 2 O O O O O O O ",
"O @ @ % @ @ * @ - @ @ @ : @ $ = = = = q g $ 6 # = = = % = = = = = = = = = = = e , = a + 3 $ % $ $ @ @ @ @ @ @ @ @ @ $ @ @ $ % 1 ",
"  X $ @ @ @ X X O + o &   . . & = = = C < O $ : = = : 0 = = = = = = = = = = = . n # % 6 X = = # X + . . X   & & + + & & f o O * ",
". # $ * : + . X O O X +   . 4 o = % r   O - : = = = < : - 1 1 $ * % = = = = = ; % X = # . = = # X 4 o o 4 o &   4 X & o o o O * ",
". % % @ : ; . X O O O X +   o . % o % C . > $ % = = = = w w 3 # # % $ % * = = = = > % = a @ > X < . . . & +     o o & o   o O % ",
". > $ # # # X X X O < O X # .   o o % g < - # = = = = = 1 < % = % % % % * = = = = @ > = > a # # O   o o   8 . o 4 q 4 o & . O % ",
"X $ @ # # # # . X O < < $ O @   o   6 # r : > = = = = % % = = = = = = * = = = = = = = = = $ @ = X   4 4 o & . . .     o   # 2 % ",
"# ; @ % @ X X . X X O X @ X # .   X O > % > = = = = % # * = = % = = = = = = = = = = = = = = @ = > X q q 4 & . X X     & $ y @ 1 ",
"# ; ; $ $ ; . . 2 X .   . $ X . X O # $ = = = = = = % < * = = $ = = = = = = = = = = = = = = = , = $ . . 4 & . 8 , . . . . : * 1 ",
"# O X s # $ + &   X $ # . # X X O . > = > = = = = = % < 8 % = = = = = = = = = = = = = = = = = % = # . . o o o . . . .   . $ $ % ",
". X X s # # .     X $ # X X   . . > = > = = = = = = = = = = = = = = = = 1 = = = = = = = = = = $ ; # . . o 4   .     . X . ; @ % ",
"o X # # # X 7 . . X # + X X . . y X # % = = = = = = = = = = = = = = = = = = = 5 5 5 5 5 = * @ @ O # X X 4 o o     .   . 7 # O % ",
"  X @ X   X 2 X . . X X X X X , . X X v % = = = = = = = = = = = = = = = = = = 5 O O O O O @ - < # #     4   o     . +   . 7 O % ",
"o X # X . . X X . . X X X . . X # X X X v % % = = = = = = = = = = = = = = = = 5 O O O , O , O X X :     4 &   o   . . . . . O % ",
"  . ; X ; X # # X X X 7 X . X X X X X + X v O = = = = = = = % = = = = = = = = 5 O O + O O , X   X $ + + o & . o . .   . . . O * ",
"X   . ; # ; # X X X # X . . . . 7 ; .   X O O = = = = = = = @ = = = = = = = = 5 O + . X X O . . X $ # #   9   .     .   . . ; % ",
"X   o . # ; , , X # # X X X X . , , X . . O 5 = = = = = = = ; = = = = = = = = 5 X       X X   y O X X X &     o e . . .   X ; % ",
"X . . . 7 7 X X # # X     . X . . . X X . O 5 = = = = = = = = = = = = = = = = X X   4 4   . . X # , o o D o &   o O X X , , @ 1 ",
"O X . . . X X X 2 # . &   X X . . . X X . O 5 = = = = = = = = = = = = = = = = X + o } o . X   . $ X 4 4 C o o o o . . X X X O % ",
": X   . # X X X X X   o   6     + + X X X O 5 = = = = = = = = = = = = = = = = + . o o   . . o   X X o o 4 &   o 4 o . 7 X ; @ 1 ",
"# X + O # X . + X X .         .     o . . O = > = = = = = = = = = = = = = = = . &   . X   o + # . & o o 4 &     o o     . X @ 1 ",
"+ X X X # # X . . . . .     . . o o o . . X = = = = = = = = = = = = = = = = =   &   . .   4 . +   & o o o &     & o       . ; 1 ",
"  X X , ; # ; O X .   .     X .         . X = > = = = = = = = = = = = = = = = + . &   # + o .   .   & & o &     o       . . O % ",
", X X X ; # X O X . . + . . X .     .     . = > = = = = = = = = = = = = = = = 5 &   . # O . # X . .     & & &             . O % ",
"8 X 2 X # # , X X X + + + . +       . .     = = = = = = = = = = = = = = = = = @ & o   X X + X . . < . . .             .     O % ",
".   . 2 $ $ 6 X X X X X X X .       . +   4 @ = = = = = = = = = = = = = = = = #   4   X .   . . . # 7 7 + .         . y o   O % ",
"    . . 7 X . X + . . . O < . . . .         : = = = = = = = = = = = = = = = = +     . X     . X . 7 X X 6 b +   .     . 2   O % ",
"@ X .   . . X X X X # ; X 7 X 7 # #   o   . ; = = = = = = = = = = = = = = = =   .   .     o         X X X + + . + + . : .   @ % ",
"@ # #     . 7 7 X @ % @ X . X X : : ,   o . ; = = = = = = = = = = = = = = = = = . X X   +   o X .     X +     . . . 8 X . o O % ",
"% : $ O O 2 O : $ * % % : $ : > % % $ : 9 + @ = = = = = = = = = = = = = = = = - : : $ : : : O O O O O O O O O : O O : O : O @ 1 ",
"1 % @ @ @ * @ * % @ > % > * > * @ @ 1 % 1 % % = = = = = = = = = = = = = = = > % @ % 1 > * : @ * > > % % % > 1 % @ % 1 > * : @ * ",
"o 4 X o . o o o 4 4 4 & & 4 o l & & . o . . & @ = = = = = = = = = = = = = = - & V o & V & & & O * @ &   & & + & + o & o & & 4 . ",
"o &   8 . X 7 .     8   q o & o       & & & & ; = = = = = = = = = = = = = = 5 o   .   o . . . 9 % @     &     &     & o o       ",
"o & . X . X + . . . . .         o o     . . o X = = = = = = = = = = = = = 5 v       . X .     9 % > . .               o o o   o ",
". . . + + X O + .   . +         4 4     X X   X = = = = = % - = = = = = = v O   . . . + + + + ; 1 1     .   & . & &   o o o     ",
"+ . + 0 X . X X . . . .     X + o o o . X +   - = = = = = @ - = = = = = = X .         . X . X ; 1 > . & . & & &   &   .     & o ",
"4 d . . X   . X . . . .     X X . .     . .   - = m = = = 7 - = = = = = = % .       . X # . . O % 1 .   .   . & & &   . .       ",
"4   + 6 X + . X + .   . + . . . X X .   . . & $ r m = = = = > = = = = = = = ;   . X . + , . X - 1 >     . . &   &   .   .   . . ",
"4 + + . #   + X + .   . + .     . . . . 6 . o % % = m = = > % = m = = = = % ; . . X . . X + X O > @ .   . . . & &   . .   . . . ",
". + + . X + X + + . . . .           . + +   o > % = = = = > > = = = = m = = . . . . . X X . X @ > O   & & .   &   &     2 . .   ",
"  i 0 + . X X +   . X . . . o   . . + .       > $ m = = = % > = = = = m = = . . . . . ; X . + @ 1 O .   & & & & &     o 6 X X , ",
".   . +   X X +   . X + + . o   . . . . .     ; = m = = = X $ = = X.= = = ; . . .   . X X . . O > @ . &     & & .     + & .   . ",
"    . + . X X X     + X .     .       . . o     = t = m = = = = m = = m = , . .     . . . , , O 1 O   & . & & . . .     o     . ",
"      + . . X X .   . +     X               o o = m m = = = = = = = X.= = + . . X .   . + X X 9 % < &         . . &   o     . . ",
"o &   .   . X X     + . o   . .     . +   & o o = $ m t m = = t t t m = 5 . . . X +   . + . . 6 % O &   &   .     o   . o &   . ",
"  &       . X X   + X   o   + . . . . .   & & & 5 = m m t = = t m t = 5 < .   . X X . X X X . 6 % O     & & &   & & . &     .   ",
"  & &   o   .   . .   o       . . .   & o &     < 5 = = = t t X.= = 5 t O . . . . X X + . + . O % O       &       &   &     . & ",
"  o &   o     .     . .       . X .       o     O t 5 $ 5 - t 5 5 5 < - X . + . . . X X . X X O % O       o       o       o   o ",
"  &     &       .   . .       . + .             X w 3 w 5 3 - m 3 5 O 3 . . . . . . + X X # # O 1 O   o           o   o       & ",
"  & . & o                 &     .               & w w w 3 w 3 5 w - . 6 . .   . + . . + X $ # O > O .   o .         o           ",
"  &                   &   &     &   & & &   &   & b   i 3 s s 5 6 5 & 6   . . & . . X + . . + O 1 O                           X ",
"    &                   &     o o   &             6   6 6 6 s 5 6 5   6 &     &     . . . + + O 1 <           .             .   ",
", . . . . . . . . . . . . . . . . . . . . . . . . w . w w 6 s 3 w 6   6           . . + + + + O 1 O           .     .     . . . ",
"O O O O O O O 2 O ; O O 6 O O O O O O O O O O O O 3 O 3 O - 3 t 3 3 O 3 O O O O O O O O O O O O = @ O < O O O 2 O O O 9 O O O O ",
"= $ @ : @ @ @ - @ * @ @ % @ @ O 1 % $ @ @ $ @ @ @ $ % $ % $ > % $ $ > $ % % % @ @ % : @ @ @ @ # $ - @ : @ @ @ - @ * @ @ % @ @ O ",
"& . .   & o + O X X @ @ @ $ X   * O o f & & + + + 3 O 3 O 3 3 + 3 : - O @ ; ; & , & , , . + 0 & . X + . & o & k k O 9 0 & +     ",
"o 4 .   + X O O X . + : * $ # . * O o o o & X 4 + 3 ; - % - 3 ; # O # ; ; ; X   . .   &   . & o o   . .     o o       . X .     ",
". o   + X O O O X . ; : @ % % . % O o   o & o o   < - > @ - - ; # O # ; O O O     .   o   . & o &   .     X . 4   . . . + + .   ",
"  . # X O < O X X X # # # $ > . % O . & o 4 q 4 o . 2 O O # $ ; # X 3 O ; ;   &   X . o   . .   & & .   . . . .         . X .   ",
"  @ O $ < < O X . # # # # @ $ X % 2 #   o     . . . y   + 3 3 X 3 . < + X X       . . . o . +   o &     . . . X       . X # .   ",
". # X @ X O X X . X X @ % @ ; # 1 @ y $ &     X X .   .   6 8 . w X w   . . &   . . . & o . . . .   o & & . . .   . X . + , .   ",
". X $ .   . X 2 . . ; $ $ ; ; # 1 * : . . . . , 8 .       6 .   6 . w . 6 . o     .   & 4   . . . +   o & + . . . . X . . X .   ",
"X X # . # $ X   & + $ # s X O # % $ $ .   . . . . o o           6   . + +   o         o 4 o . .   X . o &   . + . . . . X X   . ",
".   X X # $ X     . # # s X X . % @ ; . X .     .   4 . X y . o 6 . + .           .   4 4 o . .   . .     . . + . . . . ; X   + ",
". . X X + # X . . 7 X # # # X o % O # 7 .   .     o o 7 ; ; # o   . . . .       . .   4 4 & &   +       . X . . . .   . X   . . ",
", X X X X X . . X 2 X   X @ X   % O 7 .   + .     o . . X X X   .     . . o     . . & 4 o & . . .     . X 6 y . .     .   . , , ",
"X . . X X X . . X X . . X # X o % O . . . . .   o     . , X   X             o o   .   4 o         + .   6 .   . . X .   . + X X ",
"X X . X 7 X X X # # X ; X ; .   * O . . .   . . o .   o o .   . .   . +   & o o &     o o .     .   . . X +   . . X +   . + . . ",
". . . . X # X X X # ; # ; .   X % ; . .   .     .   ; X o . . + . . . .   & & & o     & 4 &   .     . X X X .   . X X . X X O O ",
". X X X X # # X , , ; # . o   X % ; X   . . . e o     : . 7 2   . . .   & o &         & 4 o o         . . . . . . . X X + . O O ",
". X .     X # # X X 7 7 . . . X 1 @ , , X X O o   & & . y ; X   . X .       o           & 4 o & .   o   . . . + . . . X X . X s ",
". X X   & . # 2 X X X . . . X O % O X X X . . o o o   . . X .   . + .                   & 4 & &     &   . . . . . . . + X X # # ",
"    6   o   X X X X X # .   X : 1 @ ; X 7 . o 4 o       y . .     .               &     o & 4 o     o o   . . . . + . . + O $ # ",
".         . X X + . X # O + X # 1 @ X .     o o       o   8 .           &   &     & o     & 4 o &   o     . . . . + . . O O # $ ",
". .     . . . . . X # # X X X + 1 ; .       o &           . .   .     o o         o o     o 4 o   & o     . . . + . . + X X # $ ",
". X     .   . X O ; # ; , X X   % O . .       o     &                 o o & &     o     o 4 o   o     & . . .   . + + . X # : $ ",
". X . . + . . X O X # ; X X X , % O .             &           . o o     o   &       o o o & o & & o       . . + X . X . O # $ $ ",
"> : $ : % % * $ : O 2 O O $ : % 1 @ O : O : O O : O O O O O O O O O : : : $ : : - - - - - - - - - : * : O O O : $ @ $ $ $ - $ % "
};
