/* XPM */
static char *SP_HOT1[] = {
/* columns rows colors chars-per-pixel */
"128 64 102 2 ",
"   c black",
".  c #060402",
"X  c #0C0804",
"o  c #110000",
"O  c #170402",
"+  c #1D0402",
"@  c #110B05",
"#  c #170F07",
"$  c #1C0804",
"%  c #220000",
"&  c #250000",
"*  c #270402",
"=  c #280000",
"-  c #2B0000",
";  c #2E0000",
":  c #2D0402",
">  c #220804",
",  c #220B05",
"<  c #250B05",
"1  c #280B05",
"2  c #2D0804",
"3  c #2E0B05",
"4  c #310000",
"5  c #320000",
"6  c #340000",
"7  c #350000",
"8  c #370000",
"9  c #300402",
"0  c #360402",
"q  c #380000",
"w  c #3A0000",
"e  c #3B0000",
"r  c #3D0000",
"t  c #3E0000",
"y  c #380402",
"u  c #390402",
"i  c #3B0402",
"p  c #3C0402",
"a  c #3E0402",
"s  c #3F0402",
"d  c #300804",
"f  c #330804",
"g  c #360804",
"h  c #390804",
"j  c #3C0804",
"k  c #3F0804",
"l  c #400000",
"z  c #410000",
"x  c #430000",
"c  c #440000",
"v  c #460000",
"b  c #470000",
"n  c #410402",
"m  c #440402",
"M  c #470402",
"N  c #490000",
"B  c #4A0000",
"V  c #4C0000",
"C  c #4F0000",
"Z  c #490402",
"A  c #4A0402",
"S  c #4D0402",
"D  c #420804",
"F  c #450804",
"G  c #480804",
"H  c #4B0804",
"J  c #4E0804",
"K  c #4F0804",
"L  c #500000",
"P  c #520000",
"I  c #550000",
"U  c #570000",
"Y  c #500402",
"T  c #530402",
"R  c #560402",
"E  c #580000",
"W  c #5B0000",
"Q  c #5E0000",
"!  c #610000",
"~  c #640000",
"^  c #650000",
"/  c #670000",
"(  c #6A0000",
")  c #6B0000",
"_  c #6D0000",
"`  c #6E0000",
"'  c #700000",
"]  c #710000",
"[  c #730000",
"{  c #740000",
"}  c #760000",
"|  c #770000",
" . c #790000",
".. c #7A0000",
"X. c #7C0000",
"o. c #7D0000",
"O. c #7F0000",
"+. c #800000",
"@. c #830000",
"#. c #860000",
"$. c #8D0000",
"%. c #940000",
/* pixels */
"@ h , @ X , h 2 2 2 j g g g g k 2 h g 2 2 g # j F G H k j D 2 @ X > j D d @ 2 2 # 3 d D d 2 H G H k F H K G F F F H G G j D 2 @ @ , 2 , d @ , , 2 2 d g d f D F D k F H K G F F F H G G j D 2 @ $ k F F F F F D D F F k D k J F G H D G D F D D h G k D F F k $ ",
"O v 5 5 %   A V f P P y 2 Q C S * V V N x Q x ! ! E / } [ _ * O   = ~ ! 9 $ x N x y q W ~ V _  ._ _ P P Q _ ( W ~ Q Q W [ _ * O O x 2 , 1 $ E , x y N P / W W / W W Q Q ( _ ( W ~ Q Q W [ _ * O O W ' / '  .X. .} ( ( V N ' _ _ ' ( ! W [ ( ~ _ ~ I W ! Q Q E % ",
"x y x x * % 5 O   x C y N 5 t C C y S E x E P / W N ~ W ! ~ P O   & ' I 5 , v V v x O C ( P W / ~ ( ( W ( ' _ ' ( _ _ Q / / Q O O 2 y x y E N v y V V C f E E I Q _ } Q ' ' _ ' ( _ _ Q / / Q O O ~  .[ Q O.O.O.' [ [ Q m S X.[ ~ W X.~ ( _ ~ E W C n ( I C S o ",
"5 E W P v x N o % / W { I N 5 q ( x N x x N e n P y E X I W N .   - _ E x y y W V P 5 v I I C ! / / } I / [ ' _ ( ' ( W Q W P . X @ I E # i x x v x 2 V ' x W I / [ } I / [ ' _ ( ' ( W Q I W . X E  .[ [  .O. .[ _ } Q P N O./ ' ( / _ [ ' I e / Q W ! W P C . ",
"x y I C V 2 * * 5 x E ~ ( W N E W W N q 5 * x x x $ * $ V P x o % E E ~ C v v P C N V I C V x E ~ ' ( W ( [ [ / / / / ! W I I o % , , N y x x x x x v P P C W N E ( / / _ [ [ / / / / ! W P I o % W ' [ / ' X.} / _ W N N I _ Q ( / ~ X.} ( ! ! Q Q / I V C *   ",
"x E I 5 e Q V o . * * E _ N N a x V x % y 5 $ * y * y x E P x . % I ( ! I y W N C C C C P P N W W ( ~ ! / / [ ( ~ Q P I ~ ! N . X x , x y I N x i V i I n n W E I ( ~ ( P / [ ( ~ Q P I ! ! N . X E E W [  ._ ' } / Q V P i ~ I ( _ ' _ ( E I Q P E I x x * $   ",
"N C I 5 2 ~ ! *   o N x I ~ x N 2 * x 5 a . a C x x P m P x $ . q I / Q C v v x x N I I N I N C C _ I _ / ' ( ' ! Q x x I x $ . * x 2 y x y 2 2 x x N x C I Q v C _ I I ~ / ! ' ! Q x x I N $ . * x x (  .[ [ ' Q E @.! a Q [ / / ( _ Q I W C W ( y E & *   o   ",
"W I V I y I I C y N x x I ' Q P C x P _ | I x P x C I I x x 5 . O V W P C ! x V x C E E E W V v E E N X.[ / [ _ I / W V v x 5 . % y 2 x 2 2 y x N N x x N W I I W E N / [ / W / I / W V v x 5 . % x 2 W X.'  .[ / ( Q ! P / O.} ' W ( I P A N Q ! E M o o . .   ",
"C / . W A * ! [ ! Q I P ! ( ( I I N ! ( ' / x x C Q I Q x y x % + W ~ V x E N N v ~ Q Q E I / P Q x P _ _ ~ ( / I _ Q v v y x % % x y 2 y y a x , x n W N I E E E x P / _ ~ ( ! I _ Q v v y x % % C I ~ ' [ _ } ' _ P V / ' } } n P / I a C E I ( i * y P x C % ",
"! ! P Q C v ( [ ( ~ / E ~ / ! I / Q P E #.' ( ! I P ! / E I W % v I I P N v x C C W ! / ( ! I P ~ W x ' ' ~ ' / W / I / Q I W % y y # y y y 2 y x x x v y C V V V E x ' ' ~ ' / W / I / Q I W % y P ~ ( [ ' X.} } } I C W N I ! v E E P C I E Q y $ y I I x C % ",
"/ I Q Q V W P Q ~ I I x ! / ! ~ ~ ! Q ( } O.@._ _ I Q C ( ~ Q % * A E C V x x v W W E C ! ! C W ! ! E ( / ~ ( ( ! / v ! ( ~ Q % $ x , y y y y x x y x y x x x x C Q E ( / ~ ( ( ! / v ! ( ~ Q % $ n ' ( (  .} [ [ / W ! E C ~ ! E N N I ~ Q N C y x I Q / a N % ",
"! Q Q C N Q W W M t W P Q W ~ / ~ W W ( O.%.$. .O.( N P / ! ~ % V W / P V v y V V I V W I W P ( ~ Q ! ~ ( ( ' _ / ~ V ! / ! ~ % x x a 2 2 2 2 x x v x v 2 x x x P Q ! ~ ( ( ' _ / ~ V ! / ! ~ % x W } } _ [ ' [ _ ( ( / ~ ! ( / / N ( W [ Q Q N x C ! W ~ I C % ",
"Q I P I x 1 a 5 I ! N E P x N x C v V P W / _ / ! N ! E Q Q E % Q ! W E N m i 7 P ! v E I C V Q t i I I ~ E ! Q Q V Q E Q Q E % 5 x $ x 2 y 2 * x ~ x V C v x x q i I I ~ E ! Q Q V Q E Q Q E % 5 I / ! ! ! ! Q ! ! Q W ~ ! W Q E v E Q Q E Q N x N I W I W E & ",
"y y X 5 O . O O * y % * % X . O % y y 5 * % % 5 $ * % 5 y y y o y y X 5 O . O O * y % * % X . O % y y 5 * % % 5 $ * % 5 y y y o y y X 5 O . O O * y % * % X . O % y y 5 * % % 5 $ * % 5 y y y o y y X 5 O . O O * y % * % X . O % y y 5 * % % 5 $ * % 5 y y y o ",
"( ( _ ! ~ / ~ * P Q } } _ X. ._ ( [ I P Y W W E ..} [ $.[ ( Q _ ( ( _ ~ ! / / * P ! [ ' _ X.' ( ' } Q ! ~ ~ / ~ ..} / [ ! W W [ ( ( _ ( / / ~ * P ! [ ' _ X.' ( ' } Q ! ~ ~ / ~ ..} / [ ! W P ' ( ( _ ( / / ~ * a I C v n x V N I I / ! / [ ' ( [ ( / ~ [ _ Q ' ",
"( [ ( / / / ~   E ! ( ' [ / [ '  .[ I V N x C P W ( ' X.( E E / ( [ _ / ~ ~ !   C E P ! ' Q ~ ! ' ! ( ! ~ Q W ' / / E Q C V P ~ ( [ _ / / / !   C E P ! ' Q ~ ! ' ! ( ! ~ Q W ' / / E Q V V v ~ ( [ _ / / / !   x N x x y 2 x x x C I P ! ! E ~ _ Q ~ / W / E ~ ",
"( / / / / / E   C E / [ ' | [ b _ ~ I N N V C I I E  .X.' I P / ( ~ ! / ~ ! !   N C E / W W ! ~ ( E ! I / Q E ( v / W W N P I ~ ( ~ / / / ~ !   N C E / W W ! ~ ( E ! I / Q E ( v / W W W P I Q ( ~ / / / ~ !   C W x x * y x N N N V C C Q Q ~ W Q ! ~ ~ Q P Q ",
"Q ~ / / / ~ E o P / ' [ [ [ } ! ( ~ C N P Q ~ P I A [ X./ C x ~ W ! Q / ~ W ~ o x V E C Q E ' ~ W Q Q Q ~ ~ Q I ! I ! I V C I _ E Q Q / ~ W Q o x V E C Q E ' ~ W Q Q Q ~ ~ Q I ! I ! E Q C I ! E Q Q / ~ W Q o P E x x x y x x E C E C Q W E ! Q _ ( ~ / E I ! ",
"E Q ! / ~ ! W % V ( [ [ [ [ Q / ( ~ I N C C ! / Y / [ O._ C x W P C ( / / ~ ~ % v C C W I Q ( I ! ! / ~ / ( E W ( Q I W N V P W Q Q ~ / / / ~ % v C C W I Q ( I ! ! / ~ / ( E W ( Q I Q ~ I P W Q Q ~ / / / ~ % C Q v x N x x y x x C W E Q V ~ Q ! _ / _ W W W ",
"W / ~ Q Q ! W % E ' _ [ ' [ ' ~ [ ( / I / ! ~ ( _ ' _ } ~ W W ~ ! / ! Q ~ ~ ~ % N C I ~ W I E / W ~ ' ! ! ( W ! / W N ~ v P I ~ W ~ / Q ~ ~ ~ % N C I ~ W I E / W ~ ' ! ! ( W ! / W N ~ N E I ~ W ~ / Q ~ ~ ~ % N C N x x x x x y v P C N W C ~ ~ _ / ( ( Q W ~ ",
"Q / / ( E ~ ~ % ! ( _ ( ' [ [ [ [ [ _ ( _ ' ' ' ( ! ( / _ E ! _ Q ( / / ! / / % C C ! V W Q E W ~ ~ ( ~ _ _ ! ~ E ( I ~ x Q Q ( Q ( / / ! / / % C C ! V W Q E W ~ ~ ( ~ _ _ ! ~ E ( I ~ N ! Q ( Q ( / / ! / / % x N x x x x x V x y y V E W Q ( / _ / / ' ~ Q ( ",
"! / ~ _ / ( / % W ( / _ _ ( ' [ [ _ } _ _ [ [ _ [ ~ W P ~ I / _ ! / ~ / / / / % I V V N Q I C ~ ~ _ ( / ( ( ~ W W ( ! W v / / / ! / ~ / / / / % I V V N Q I C ~ ~ _ ( / ( ( ~ W W ( ! W Q ( / / ! / ~ / / / / % V W Q P 5 y C W x x 2 C E Q Q ( _ _ ( / ( / / / ",
"( ( ( _ / ( ( % I / ( _ ( ' ( ' ( _ _ ' [ ' ' ' ' [ / v P Q ( _ ( ( ( _ / ( ( % x N v W E W ! ( ~ _ / / / ( / P ! / W ! I / / ( ( ( ( _ / ( ( % x N v W E W ! ( ~ _ / / / ( / P ! / W ~ ~ ( / ( ( ( ( _ / ( ( % W / / W y y v I x v # V E Q Q ' / / [ / / / _ ( ",
"Q / ( / / / ~ % V Q / / ( ( _ / ( ( / ~ ( ' ' ' ( _ _ N V ~ ~ ( Q / ( / / / ~ % v m C E ! Q ( ( ( _ ( ( / / / ~ / / / I Q ! ~ / Q / ( / / / ~ % v m C E ! Q ( ( ( _ ( ( / / / ~ / / / / / ( ~ / Q / ( / / / ~ % W  ._ W v x N E V V x V E W / / _ _ _ ( ~ ~ ~ / ",
"Q ~ ~ / ! / / % N P E ~ / / / ~ / ~ ! W / / / _ ( / C Q C I ! W Q ~ ~ / ! / / % N P E ~ / / / ~ / ~ ! W / / / _ ( / C Q C N W W Q ~ ~ / ! / / % N P E ~ / / / ~ / ~ ! ! ! ! ! ~ ~ ! ! ! ! ! ! W Q ~ ~ / ! / / % E [ ( Q Q N v C W E v N P I ! / _ ( ( _ / / ~ W ",
"x 5 x y x x x O x 5 x y x x x y x x x 5 x x 5 x y N x x x y y % x 5 x y x x x O x 5 x y x x x y x x x 5 x x 5 x y N x x x y y % x 5 x y x x x O x 5 x y x x x y x x x 5 x x 5 x y N x x x y y % x 5 x y x x x O x 5 x y x x x y x x x O 2 x 5 x y x x x x y y % ",
"% % % % % % a Q ! m 7 a E ' P C Q I N V P M V I [ S W / E ( ' 2 * y x v x x P / / I I W ( ( E Q ~ W I E / W Q ! [ S W / E ( ' 2 P , v N v W ! _ m V  . .+.' } _ _ [ [ ' _ ] / Q ` / / / E ( ' 2 ( [ _ / W e P I A ( ! ( ' _ [ } ' ( ~ +.X...~ [ _ ! _ ' ( / A 2 ",
"  o   5 5 * y I * S 5 % * / I N V T % y i y y y a V N /  .[ / % X < x x v C I / ! C ! ~ ~ E ! / / ! ( W / v / ( V V N /  .[ / % ; * x N x x C ~ ' P W ' / ( / _ ' [ } ~ ' ' E V P ~ W /  .[ / % ( ( / ! N y x N y ~ C ( } _ (  .[ ( n } / ~ _ ( / W a Q P M N % ",
"  O   y x x C I 2 ! V % N C Q C x N Y q x x P x V W ! I W ( M % O , d x N x W ~ ! v E ~ I Q ( / W / Q Q / W ~ C P W ! I W ( M % y 5 x C x x y P ' Q V ! [ } [ ~ X.O.O.X.' _ ( N y ( ' I W ( M % / / / ~ E x x i N V x W } } } } _ ( P ] ' ( / [ W ~ I E I x 2 X ",
"    5 a v C Q M Q m ' Q W E ( W P I ' ! N I W * P / ( Q I Q m X . y 2 N N C N I ! N I W E ! ( I W } ( ~ _ W E ~ ~ / ( Q I Q m X x i 2 W V M m N E Q C W #.} #.E [ O.O. .' ' [ N C m [ Q I Q m X W ( ( ( Q V x x C N E N ~ ~  ._ / v n ~ ~ / [ ( P E E x 5 * . . ",
"O % x x V C ~ ! I E W ! W I / ~ ~ W ' [ ( ! ! * a N ~ / ~ E N % % v 2 x v C W V W V Q W E E ~ Q ! } [ Q / ~ E ! ! N ~ / ~ E N % I v x E P i x Q C N x E Q [ } [ [ X.O.[ [ ' / E x N  ./ ~ E N % ~ M _ / E I x N C C W ! x ' [ ' Q ~ N X.' / / ! I I N o   % O   ",
"% % N I N N Q Q V W W A W W Q / ~ W ' [ } ' E x W x Q _ ! W I % % v x v x v N C x W ! E Q I ! Q ! _ [ Q _ / ~ ~ I x Q _ ! W I % E x E x W x N N C W V I I [ _ } ~ } X._ _ ~ V x x I [ _ ! W I % / ~ ( / E x N I ~ ! C E V ! ' } ~ E / } ( E ! A V ~ V * O f $   ",
"O y x I v ! E W E ! W E W W / ( / ! _  .}  ._ ! W / E ~ ! ! W * % x y x i y v v C V I C ! v I ~ ~ _ ( ( _ / E Q W / E ~ ! ! W * W N x x x x I C x W V P v ( W ~ ' } /  ._ Q x N P d ! ~ ! ! W * C / ~ ' ~ P x P V ! Q Y ! _ } } _ P N ! ~ C P W C y 5 E x W x X ",
"% q C C N Q Q W W ! W W ( ~ ~ ~ / ~ /  . .} _ W C C W ( Q C V % % x y x x x x v v P N W E W / ~ _ } / / ( ( ! I I C W ( Q C V % P ! x x x V P C N I E I E P V '  .' ( } W Q ~ E N C [ ( Q C V % P ! / _ / ~ P ! E W ! Y ` ( ' ( ~ ~ Q ~ ~ C W W I x V / N P N % ",
"* N N N x I I Q N Q ~ [ / } / ~ ( ~ ! }  .} / ( ~ I ~ ' ' C x % * x x N x x y x y v E E W Q _ / ' ' / / / / ~ W ! I ~ ' ' C x % x Q N x x / W W V N W C ~ x a [  .' } ( N o.~ Q M Q o.' ' C x % ! / / _ / ( Q / / ! / Q ! ( / _ _ ( _ _ / W _ ~ ~ N Q / W Q Q % ",
"q N x N x N W Q W C ! ~ ' } / Q / ~ ! '  .X.[ _ Q Q ( / ' / E % 5 y x x x x x x 2 x E I W ! _ /  .( _ ( / ( ( ~ ! Q ( / ' / E % v v x P C Q / Q ' W N E I I y } X.' X.! ~ ! W / I _ ' / ' / E % Q ( ( / ( ' / / ( ~ / ( / _ _ / / / ' [ / ~ / ~ ( ! / ( ~ Q ~ % ",
"6 W N N x N P W ( ! W P W ( Q / / / W _ X.}  .} ( / / / ( / Q % % $ x x x N x y , x P P W Q / _ _ [ _ ( / _ ( _ ~ / / / ( / Q % V x x x C W ! C ~ ~ N E Q W P [ ' _ } ( ~ ~ v W E ~ ( / ( / Q % Q [ ( / ' _ _ ( _ ' / ' / / ( ' _ ' ' [ ( ~ / / _ / ( / ~ / ~ % ",
"k ! N x W x C E ! [ ~ N P I W I I W W ! } } }  ./ ~ ~ / / Q ( % 2 y x x x x x 2 2 x V V E Q ( _ ( ' ' / Q / / ( W ~ ~ / / Q ( % I N 2 N x N V Q ! Q Q / ~ ~ ~ ' ' } X.' ( ' N I W N W / / Q ( % ! _ ' / ( _ _ ' / / ( ' / / ( ( _ _ _ ' _ ( / / ( ( ( _ / / ~ % ",
"q ! I x x x x C I ' Q N Q C x C x W E P ! / ' [ ( ~ ! ~ E E W % 5 P C N N x x x x v N N E / ! E ! P C I Q ~ ~ ( ~ ~ ! ~ E E W % I Q C N V C x C W ( Q P E M ~ ! ' X./ / ~ ! Q / W V P E E E W % Q _ _ / ( ~ _ _ ' ' ( / ( _ / _ _ ( / ~ ( E _ / ( / / / ~ / ~ % ",
"x n P x 2 o a 5 * E P a V P y N x V N x x n C C P P C P C v I % 5 n P x 2 o a 5 * y d y V P y v x x x x x n C C P P C P C v I % 5 n P x 2 o a 5 * E P a V P a C E E C N N n C C P V C P C v I % V W I W I I P I I Q W ! W Q I I I I C I I C I I I P I I I P P % ",
"r P Y R c 6 s s B r r u c I C 6 = - % - 7 ; m f O 4 6 6 b 8 A S r C A Y L w s Z z 6 4 0 e N Q 8 8 l x 6 L r A n O 4 6 6 b 8 A S r C A Y L w s Z z 6 4 0 e N Q 8 8 l x 6 L r A n O 6 6 ; z 8 A S 8 C A T Q w s Z z 6 4 0 e N Q 8 8 l x 6 L r A n O 4 6 4 c 8 A S ",
"/ Q / Q ~ ( ! ' ! Q / ! E W V x x x x 2 x x N x o ! / / / _ ' ( / v C P ! W ' ( ( ~ / ~ / ( ( [ ~ ! ' ' ~ Q Q P o ! / / / _ ' ( _ I C P ! W ' ( ( ~ / ~ / ( ( [ ~ ! ' ' ~ Q Q P o ! / / / _ ' ( _ E ! ( X._  .~ C I V M P E ' _ ' [ [ [ _ _ Q P o ~ / / ! _ ' ( ",
"W V ~ ! ~ W W ~ ( Q ! W C I P x x x 2 y x x I N   ~ / / / ( _ ( W V V C Q E / E [ P E / E ( Q ( ! ~ I ( ! W C v   ~ / / / ( _ ( E P V v Q E / E [ P E / E ( Q ( ! ~ I ( ! W C v   ~ ! ~ / / _ ( Q W W ' X. .E E E N x x x E _  .Q [ ) ' [ / E W   ! / / / / _ ( ",
"/ E E / / / / Q W Q W I C C N I N x 2 5 x x E P   Q Q / / ~ ! ~ / E C W E Q Q C E ! ! ~ W W E ~ ( / W W W P C N   Q Q / / ~ ! ~ [ E C C E Q Q C E ! ! ~ W W E ~ ( / W W W P C N   ~ Q ~ / ! ! ! _ N C ( O.} S P P E Q C C V ~ / L } [ [ [ ' ! V   I / / / / / / ",
"E E Q ( ! _ ( W / C W ~ I C N V x x x x x v Q C % ~ ! ~ / Q W E E I P ~ W Q W / Q I ( / ~ ! ! Q I ' W E I I V x % ~ ! ~ / Q W E Q I C N I Q W / Q I ( / ~ ! ! Q I ' W E I I V x % ~ Q ~ / ! E Q W x C ( X.[ Q ~ E ~ P C x C ! _ ~ ( [ [ [ ' / N % Q ! / / ! Q Q ",
"! W E ( _ ( ! ! ! v Q v I I v y y x x N x x W C % ! / / ~ / ! W ! P Q E ! V E _ E Q / ~ ! ' ~ Q ! ~ I E Q C C V % ! / / ~ / ! W ! P P N ! V E _ E Q / ~ ! ' ~ Q ! ~ I E Q C C V % ! / / ~ ~ E P ! V I (  .[ _ Y _ ! I Q C ! ~ ( / ~ [ ' [ ' _ I % I ! Q ~ ~ ~ C ",
"/ W ! _ / / _ / / W W I V V x x x x x x x N x x % / ~ ! Q ( / W / E I x ~ C ~ W / ! _ / ! _ ~ ! Q E Q W W Q V x % / ~ ! Q ( / W / E I x ~ C ~ W / ! _ / ! _ ~ ! Q E Q W W Q V x % / ~ ! Q ( ( Q / ! E / [ / ( ( ( ( ( ( ! ( } } ( [ } ' _ _ ' W % ! ! W ! ( / Q ",
"( ~ / ' / ( _ ( _ ! W E C 2 y x E v x x N P P x % / / ~ ( ! ( ! ( ~ / I ! I _ E Q Q ( _ / / ~ ! ! N I Q v E V W % / / ~ ( ! ( ! ( ~ ! x ! I _ E Q Q ( _ / / ~ ! ! N I Q v E V W % / / ~ ( ! ( ! ' ~ E ( W / W ' ' [ [ _ _ } ( [ [ [ _ ' ' ( / ~ % / ( ! _ ! / ! ",
"( ( / / / _ _ ( ( Q ! I C , v x W V 2 5 E ! ~ E % / ( / ( / ( / ( / _ ! ! ~ / ! I / _ / / ( [ ~ ( Q W E I v P N % / ( / ( / ( / ( / _ N ! ~ / ! I / _ / / ( [ ~ ( Q W E I v P N % / ( / ( / ( / _ ( E E N W [ ' _ ' ' ' ' ' ' ' [ ( _ _ / / ( I % / ( / _ / ( / ",
"/ / ~ ~ / ' ( / _ ! W E N 2 x x I N x i W ( ' W % / / / ( _ / / / ~ ( / ~ ! / ~ W / / / / ( _ ( ( / W Q E C y x % / / / ( _ / / / ~ ! ~ W ! / ~ W / / / / ( _ ( ( / W Q E C y x % / / / ( _ / / _ ~ ! I V ' _ ' [ ' [ ' ~ _ _ ( ( _ _ / _ ( ~ P % / / / ( _ / / ",
"/ / / / ' _ _ [ / ~ I Q C x P E P v v P W _ } W % / / ~ / / / W / / / / / / / ( ( / / / ( / / / / / ~ ~ ! P E N % / / ~ / / / W / / E C P ! / ( ( / / / / ~ / / / / ~ ~ ! P E N % / / ~ / / / W / / / v V ! ( ( _ _ ( / / ! / / / ( / ( / ! E N % / / ~ / / / W ",
"N P I I I I I I I P C 2 * v P C N v v C P I W V % I I P I P P C N C C C C C I C C C C C C C P I P I I I P V N v % I I P I P P C N N x V I x W I E I I I V P P I P I I I P V N v % I I P I P P C N C x V I x W I E I I I V P P I P I I I P V N v % I I P I P P C ",
"u N x x y x 5 x O a S Q ! Q E T Q c ^ ~ U W ! W Y W E W Y E c I u P V W Y W B W O S A N I V V a x q V C z I I P A Q E ^ T W e n 0 P E v y x * V O S A N I I E T V e C P e x V C a V E P a v t I u N x x i x 5 x O S A N I I E T V e C P e x V C a V E P a v t I ",
"P y . o o       * m Q I Q E E ~ ( / / ' } V Q '  ._ ( ' ~ P _ y v x 5 v Q / [ ~ * ' _ ( / ( ( ] / ' o. ._  . .[ [ ' ' [ } [ x W ' Q v x C v $ t * ' _ ( / N y ! ' / C ( Q ( ! _ ( Q Q ' ~ Q C ~ / I N x x x d X * ' _ ( / N y Q V y d v x q Q W C I ' N * 5 2 C ",
"W y x x x   O   O N i E W a ! ! ' / / / _ S ' '  .[ } } / N I y i x y V ! / ! ( % W [ ' ! ~ ' N x W _ ' } X. . ./ / _ ~ / C Q [ W y x x N x y : % W [ ' ! E I N E / P / W ! ~ Q ( ~ W I / ~ N ! / W N N x y # O % W [ ' ! E I a y V x y * * n x x P E : o e ( $ ",
"m W N x 2 o o   X @ 5 N C Q E E ' ' ( _ { a P ( ' } _ ' V P v C v x x ~ / / [ ! O m ! P P [ S a N ' [ '  .O.O.} W X. .#.~ V ~ ~ C a P x I y * x O m ! P P ~ ~ W E Q W ( Q ~ _ W W _ Q W Q C V ! W V C N N d 2 . O m ! P P ~ ~ V y E N x P [ C x E ( C N C E A M ",
"W ! C v N x   .   o * o 5 C W C ! _ / ~ ( N W ! ' } ( P E I C C x x E I ( _ A ! O m E ! ~ } C N I ' ' ' } O.O.[ / #.[ } C N V P P N 2 I Q y N N O m E ! ~ _ W / ~ I ! ( ~ '  .W W ~ ~ I W W x Q C I V N x 2 v O O m E ! ~ _ W M % Q W E ' _ E ~ ! / W / / _ C W ",
"Q ! C V N N 5 %   X $   . V W C T ~ ! [ X.W W ~ [ [ / x Q I I W C N N E / ( Q ~ % N Q ! _ } V x V I ( ' ' O. ./ } ' } V Q x E I C x v I N V x E % N Q ! _ W x E ! Q ~ / W [ ' ! Q ~ C W Q ! W C C C N x x y x % % N Q ! _ W x N y I ( } [ ' Q ! / ! P I M I Q C ",
"Q W C V W x * O . y I y N 5 I E I W E ( ' W P ( } ' / Q W I ~ W P x x Q ( ( ! W * W Q Q ( ' m V x N ! _ ' [ } ' _ ! _ I N I I x N C x C x C x Q * W Q Q ( / I W ~ Q / [ ~ ' ( / Q Q P ! C Q I C N N x i v x v % * W Q Q ( / I / P / } [ } ' Q / ( ~ ! W E W Q C ",
"W W ~ N C N 5 % O x E x ~ v y N Q C N Q W C W ~ ' } _ ^ D Q Q N W x ! / ' ~ ~ V % E Q ~ / Q y C P V W ( X.~ [ [ / C ~ N ! V Q x I C x x x x W I % E Q ~ / V W I W Q ( / ( / } / / E C Q I N V x N v y x x 2 x % % E Q ~ / V W N ! _  . . ._ ~ / ~ ~ Q ! I W ~ W ",
"W Q W x C C C % % I I C / E x Q Q ( P / / ~ ( / _ ( / / W / Q ~ ~ Q / / _ / / Q % x N ! _ @.Q a E _ { N ' ' '  .[ P x ~ v W C C C W W x x N W N % x N ! _ ! C W P ! / ( / / [ ( ~ ( W E W P N v x x x x N x x % % x N ! _ ! C ! ! ( }  . .~ ! ( ~ / _ ( ( Q Q I ",
"Q I N x x x x y % ! ! / / ! I ( ~ ( ~ / [ ' / _ / _ ' ~ ~ / ! / ( ~ _ / ( / ( Q % N W } ( [ ~ P ~ W ( E ! X.'  .} 2 x Q W I C W ~ ~ / x V x I x % N W } ( ( W ! ~ / / / / ( (  ./ ' ! W I W v 2 x y x x x x x y % N W } ( ( W Q / ( }  .[ Q / / ~ (  .( } / I V ",
"~ I C x C N I 4 % ~ ! ! ( / / ( / / ! / [ [ ( / _ / / / ' / ( _ ( ( ' ' / ( _ ! % Q / _ / _ ( Q ( I ~ ~ /  ._  .[ x ! I E x Q _ I / Q I N x x C % Q / _ / / ~ ~ ~ _ _ / _ ( [ [ ( ( Q Q I I x 2 x x x x x x $ % % Q / _ / / ~ / [  . . ._ ! ~ / ! ! ' _ C W I ~ ",
"q n % 2 x x m e % I I I I E I E I I I E W E W W E W W W Q W Q E I E E E I E ! C % P I I I I P N N x M I E W E E W M C P n V I 0 q m - f x x y 5 % P I I I I I P W I S I I W E E E A P V a f y @ * y = 2 x x 2 % % P I I I I I I Q Q T ! E V I I I m I N m P I p "
};
