/* XPM */
static char *SPACEW4[] = {
/* columns rows colors chars-per-pixel */
"64 128 31 1 ",
"  c #6F5743",
". c #7B634F",
"X c #67533F",
"o c #836B57",
"O c #775F4B",
"+ c #676B4F",
"@ c #5B6347",
"# c #775F3F",
"$ c #5F4B37",
"% c #53573B",
"& c #8B735B",
"* c #836B4B",
"= c #937B63",
"- c #574333",
"; c #6F7357",
": c #9B5B13",
"> c #533F2F",
", c #9B7F6B",
"< c #874307",
"1 c #875733",
"2 c #4F3B23",
"3 c #8F5F37",
"4 c #474F33",
"5 c #675333",
"6 c #8F7753",
"7 c #7B7F63",
"8 c #A36B3F",
"9 c #6B4727",
"0 c gray42",
"q c #3F2F17",
"w c #9B633B",
/* pixels */
".OOOOOO.oooooooooOXXXOOoOXXOX oO.OOOOOO.oooooooooOXXXOOoOXXOX oO",
".,=.&&&o&&o&=oo&=.o++o@.@.@@oo,&.,=.&&&o&&o&=oo&=.o++o@.@.@@oo,&",
"O=o++.o&&=&o=o..=oX+@oooo...@+.&O=o++.o&&=&o=o..=oX+@oooo...@+.&",
"O&o$O-=o&o&&&&&;;ooo&.o&=o.$ -&.O&o$O-=o&o&&&&&;;ooo&.o&=o.$ -&.",
"O&+424;&o.o&.o&;+oo+o+.&&&o424&.O&+424;&o.o&.o&;+oo+o+.&&&o424&.",
"O&o+&=&+o.+.o++&+..+o+@ooo&.@o++O&o+&=&+o.+.o++&+..+o+@ooo&.@o++",
"O&..+==+o.+.o&+.;o..+ooooooo+oo+O&..+==+o.+.o&+.;o..+ooooooo+oo+",
"O&&o+&o++.++o.o++&+o...o.o..++o+O&&o+&o++.++o.o++&+o...o.o..++o+",
" &&&+ooo..+.oo.ooooo @...o.&o@.+ &&&+ooo..+.oo.ooooo @...o.&o@.+",
" oo&o+.o+.....o++.+oo .@...o+@.+ oo&o+.o+.....o++.+oo .@...o+@.+",
" o.$O-o. +.++.o+.+.o@@.o+@.$ -@. o.$O-o. +.++.o+.+.o@@.o+@.$ -@.",
"X&o424&o.++.o+...+......o..424@.X&o424&o.++.o+...+......o..424@.",
"Xo.ooo&o..+..+o........+o..oO@o+Xo.ooo&o..+..+o........+o..oO@o+",
"X....+o&+@...+.+.O....@+.o.@O@o+X....+o&+@...+.+.O....@+.o.@O@o+",
"Xo...oo+o.+......OO.OO+++o.@@oo+Xo...oo+o.+......OO.OO+++o.@@oo+",
"X.oo.o.+oo.o..+o+.O..@..@@@@.&o+X.oo.o.+oo.o..+o+.O..@..@@@@.&o+",
"Xo..o..++o.+.+.+oo...OO..@+@+&.+Xo..o..++o.+.+.+oo...OO..@+@+&.+",
"Xo...o.++o...++.o+oOO@O...%.+.o+Xo...o.++o...++.o+oOO@O...%.+.o+",
"X&o$ -.....+.oo++oooo+.o.+.$ -o@X&o$ -.....+.oo++oooo+.o.+.$ -o@",
"Xo.424.@+O@.++oo@+++..+oo++324o+Xo.424.@+O@.++oo@+++..+oo++324o+",
" .o.&+...@+O.++++@++o+.o.+.88oo+ .o.&+...@+O.++++@++o+.o.+.8:oo+",
" +.o&oo...@.O.@ .@+.&ooo..oo=+o% +.o&oo...@.O.@ .@+.&ooo..oo:+o%",
" +..o@o@+..@..@@ ++OOo+@...@..@@ +..o@o@+..@..@@ ++OOo+@...@..@@",
" ....@o....@++@@@@+@+.O+O...@o@O ....@o....@++@@@@+@+.O+O...@o@O",
" ++...oo..@.+@o@+@0O+....+....+. ++...oo..@.+@o@+@0O+....+....+.",
"X@.+..++...@.+.@.@+@@+.o......+.X@.+..++...@.+.@.@+@@+.o......+.",
"X%+$ -.+@.@@.+.@.@+OOO..o.@$o-OoX%+$ -.+@.@@.+.@.@+OOO..o.@$o-O.",
"X@+4243.@.@@+++@@@+o.O.....424.oX@+4243.@.@@+++@@@+o.O.....<2<..",
"X@@+33@..@.@@+@@@@@+@++.o.++@o@&X@@+33@..@.@@+@@@@@+@++.o.++<o@+",
"X@@@....O.%O@%@+@+@++@+@+...o+o=-@@@....O.%O@%@+@+@++@+@+...:+@o",
"X@......@@@@O %@++@+@+@0@.o..o=,-@......@@@@O %@++@+@+@0@.o.:..&",
"X@..+@OO@@++ OO++@++@+@+ooo===,,>@..+@OO@@++ OO++@++@+@+@++@..&,",
"X                            -->>                               ",
"XooooOOOOOO* XX** .o&=&o.   **& X,,&o..OO...OX#***.#######**&&& ",
"X* XXXX   %  X X* .. O.OO* O**OOX& XXXX OO.O X #**.. O.OO**O**OO",
"X.X$O-O#  %X  X##O #O *.*#*$o-O.XoX$ -O#O.OOO X**O #O *.*#*$o-O ",
"X.X424XXO  X  ##* OO#O**#**424 .X.X<2<XXOOOO  ##* OO#O**#**424  ",
"XO  % # OO X   * OO #*O #*# %  &Xo  < # OO O   * OO #*O #*# %  X",
"XOX XO XO O  X#### O ##.#*.#OOO.XOX XO XO O  X#### O ##.#*.#OOOX",
"$OXOX OX XOO  # %*X   *##O*OXO .$OXOX OX XOO  # **X   *##O*OXO X",
"$OOXX#X*OX O O# %#OO O  O .#OO %$OOXX#X*OX O O# *#OO O  O .#OO %",
"$#OO#X .OO  O   X X# O  # OO   %$.OO#X .OO  O   X X# O  # OO   %",
"$#X$O- # X   #   X  X # OX#$O- %$OX$o- # X   #   X  X # OX#$o- %",
"-O 424O  OO##X   XOX O OX% 424 %-O 424O  OO##X   XOX O OX% 424 %",
"-* 111## ##OXXX #X OXX    # % O -O  % ## ##OXXX #X OXX    # % O ",
"-*$ #XOO X OO5XX  X#O %OO  X#OOO-O$ #XOO X OO5XX  X#O %OO  X#OOO",
"$*$X##XX#X  X#XXXXX# O XO  OO# %$O$X##XX#X  X#XX O # O XO  OO# %",
"$*$X # X#X  $%# XX# #XO  OO#  O $O$X # X#X  $%#  O  #XO  OO#  O ",
"$O O# #XX O $%X###X ##X## OO# O%$  O# #XX O $%X# O  ##X## OO# O%",
"$  O#% XX  #XXXX##X  O#  #O OOO%$  O#% XX  #XXXX O   O#  #O OOO%",
"$O $o- #X ##XX%XXX#XXO## X9$O-O%$  $ - #X ##XX%X O XXO## X $ -O%",
"$  424   X#  X #X %#XXX# X992<O.$  424   X#  X #X O#XXX# XX424OO",
"$ O % #%  #X 5#%X%OOO% # X 1<  .$ O % #%  #X 5#%   OO% # X  %  X",
"$X XO # X #X %  %%X O#### ##*X#&$O XO # X #X %  .%  O#### ##*X#-",
"$X  #X#X #XX 5 X#XX   ## XO  XX.$O  #X#X #XX 5 X XX O.O# XO  XX>",
"$XXX X#XX# X  %%# X  ##O OO  % O$OXX X#XX# X  %%# XX...O OO  %  ",
"$XX  %# X  X  $  #+  # #O ##O#X $ X  %# X  X  $  #+XO.O#O ##O#X ",
"$XX  %X XXX X5$$% # #  OO # %###$ X  %X XXX X5$$% # #  OO # %###",
"$XX$O-% X$%XX%%  %    XX XX$O-##$XX$ -% X$%XX%%  %    XX XX$ -##",
"$X 4241 X$X$$ XX# X        424% $X 424  X$X$$ XX# X        424% ",
"$XX 11 XXX$$ $X%%##X %%% %X % %X$OX %  XXX$$ $X%%##X %%% %X % %X",
"$XXXX     X$$XX  X XOO%%%X% %X X$OXXX     X$$XX  X XOO%%%X% %X X",
"$XX     -X%-X$XX%%X X@OX%X$X X%X-.X     -X%-X$XX%%X X@OX%X$X X%X",
"$X OX                X   @XXX  X-.oo..O              X   @XXX  X",
"$$$$$$$$$$$$$$$$$$$$$$$$$$$$$$$$>>>$$$$$$$$$$$$$$$$$$$$$$$$$$$$$",
".,=.&&&o&&o&=oo&=.o++o@.@.@@oo,&>ooo&&&:::o&=oo&=.o++o@.@.@@oo,&",
"O=o++.o&&=&o=o..=oX+@oooo...@+.&>o@++.o+:+&o=o..=oX+@oooo...@+.&",
"O&o$O-=o&o&&&&&;;ooo&.o&=o.$ -&.$o@$O-=o+o&&&&&;;ooo&.o&=o.$ -&.",
"O&+424;&o.o&.o&;+oo+o+.&&&o424&.$o@424;&+.o&.o&;+oo+o+.&&&o424&.",
"O&o+&=&+o.+.o++&+..+o+@ooo&.@o++O&@+&=&++.+.o++&+..+o+@ooo&.@o++",
"O&..+==+o.+.o&+.;o..+ooooooo+oo+O&@.+==+o.+.o&+.;o..+ooooooo+oo+",
"O&&o+&o++.++o.o++&+o...o.o..++o+O&&o+&o++.++o.o++&+o...o.o..++o+",
" &&&+ooo..+.oo.ooooo @...o.&o@.+ &&&+ooo..+.oo.ooooo @...o.&o@.+",
" oo&o+.o+.....o++.+oo .@...o+@.+ oo&o+.o+.....o++.+oo .@...o+@.+",
" o.$O-o. +.++.o+.+.o@@.o+@.$ -@. o.$O-o. +.++.o+.+.o@@.o+@.$ -@.",
"X&o424&o.++.o+...+......o..424@.X&o424&o.++.o+...+......o..424@.",
"Xo.ooo&o..+..+o........+o..oO@o+Xo.ooo&o..+..+o........+o..oO@o+",
"X....+o&+@...+.+.O....@+.o.@O@o+X....+o&+@...+.+.O....@+.o.@O@o+",
"Xo...oo+o.+......OO.OO+++o.@@oo+Xo...oo+o.+......OO.OO+++o.@@oo+",
"X.oo.o.+oo.o..+o+.O..@..@@@@.&o+X.oo.o.+oo.o..+o+.O..@..@@@@.&o+",
"Xo..o..++o.+.+.+oo...OO..@+@+&.+Xo..o..++o.+.+.+oo...OO..@+@+&.+",
"Xo...o.++o...++.o+oOO@O...%.+.o;Xo...o.++o...++.o+oOO@O...%.+.o+",
"X&o$ -.....+.oo++oooo+.o.+.$ -o;X&o$ -.....+.oo++oooo+.o.+.$ -o@",
"Xo.424.@+O@.++oo@+++..+oo++324o7Xo.<2<.@+O@.++oo@+++..+oo++324o+",
" .o.&+...@+O.++++@++o+.o.+.88o;7X.o:<:...@+O.++++@++o+.o.+.88oo+",
" +.o&oo...@.O.@ .@+.&ooo..oo=;;;X+.o:oo...@.O.@ .@+.&ooo..oo=+o%",
" +..o@o@+..@..@@ ++OOo+@...@..+;X+..o@o@+..@..@@ ++OOo+@...@..@@",
" ....@o....@++@@@@+@+.O+O...@o@+X....@o....@++@@@@+@+.O+O...@o@O",
" ++...oo..@.+@o@+@0O+....+....+.X++...oo..@.+@o@+@0O+....+....+.",
"X@.+..++...@.+.@.@+@@+.o......+.X@.+..++...@.+.@.@+@@+.o......+.",
"X%+$ -.+@.@@.+.@.@+OOO..o.@$o-O.X%+$ -.+@.@@.+.@.@+OOO..o.@$o-O.",
"X@+4243.@.@@+++@@@+o.O.....424..X@+4243.@.@@+++@@@+o.O.....424..",
"X@@+33@..@.@@+@@@@@+@++.o.++@o@+X@@+33@..@.@@+@@@@@+@++.o.++@o@+",
"X@@@....O.%O@%@+@+@++@+@+...o+@oX@@@....O.%O@%@+@+@++@+@+...o+@o",
"X@......@@@@O %@++@+@+@0@.o..o&&X@......@@@@O %@++@+@+@0@.o....&",
"X@..+@OO@@++ OO++@++@+@+@++@.o&,>@..+@OO@@++ OO++@++@+@+@++@..&,",
"X                             $>q>                              ",
"XooooOOOOOO* XX** .o&=&o.   **& X&&.   O X * XX*6*. O .     **& ",
"X* XXXX   %  X X* .. O.OO* O**OOX* XXXX  O...X #* .. O.OO* O**OO",
"X.X$O-O#  %X  X##O #O *.*#*$o-O.X.X$ -O# .=&. X#*O #O *.*#*$o-O ",
"X.X424XXO  X  ##* OO#O**#**<2< .X.X424XXOO&o. ##* OO#O**#**424  ",
"XO  % # OO X   * OO #*O #*# <: &XO  % # OO.o.. #6#O #*O #*# %  X",
"XOX XO XO O  X#### O ##.#*.#:OO.XOX XO XO .. X##6# O ##.#*.#OOOX",
"$OXOX OX XOO  # %*X   *##O*O:O .$OXOX OX XOO  # *#X   *##O*OXO X",
"$OOXX#X*OX O O# %#OO O  O .#OO %$OOXX#X*OX O O# *#OO O  O .#OO %",
"$#OO#X .OO  O   X X# O  # OO   %$.OO#X .OO  O   # X# O  # OO   %",
"$#X$O- # X   #   X  X # OX#$O- %$.X$o- # X   #  #X  X # OX#$o- %",
"-O 424O  OO##X   XOX O OX% 424 %-O 424O  OO##X  #XOX O OX% 424 %",
"-* 111## ##OXXX #X OXX    # % O -.  % ## ##OXXX #X OXX    # % O ",
"-*$ #XOO X OO5XX  X#O %OO  X#OOO-=$ #XOO X OO5XX  X#O %OO  X#OOO",
"$*$X##XX#X  X#XXXXX# O XO  OO# %$=$X##XX#X  X#XXXXX# O XO  OO# %",
"$*$X # X#X  $%# XX# #XO  OO#  O $.$X # X#X  $%# XX# #XO  OO#  O ",
"$O O# #XX O $%X###X ##X## OO# O%$O O# #XX O $%X###X ##X## OO# O%",
"$  O#% XX  #XXXX##X  O#  #O OOO%$  O#% XX  #XXXX##X OO#  #O OOO%",
"$O $o- #X ##XX%XXX#XXO## X9$O-O%$O $ - #X ##XX%XXX#XO.## X $ -O%",
"$  424   X#  X #X %#XXX# X9424O.$  424   X#  X #X %#O.X# XX424OO",
"$ O % #%  #X 5#%X%OOO% # X 1w  .$ O % #%  #X 5#%X%OO.. # X  %  X",
"$X XO # X #X %  %%X O#### ##*X#&$X XO # X #X %  %%XO.o### ##*X#-",
"$X  #X#X #XX 5 X#XX   ## XO  XX.$X  #X#X #XX 5 X#XX ooO# XO  XX>",
"$XXX X#XX# X  %%# X  ##O OO  % O$XXX X#XX# X  %%# XXo=oO OO  %  ",
"$XX  %# X  X  $  #+  # #O ##O#X $XX  %# X  X  $  #+XOoO#O ##O#X ",
"$XX  %X XXX X5$$% # #  OO # %###$XX  %X XXX X5$$% # #  OO # %###",
"$XX$O-% X$%XX%%  %    XX XX$O-##$XX$ -% X$%XX%%  %    XX XX$ -##",
"$X 4241 X$X$$ XX# X        424% $X 424  X$X$$ XX# X        424% ",
"$XX 11 XXX$$ $X%%##X %%% %X % %X$XX %  XXX$$ $X%%##X %%% %X % %X",
"$XXXX     X$$XX  X XOO%%%X% %X X$XXXX     X$$XX  X XOO%%%X% %X X",
"$XX     -X%-X$XX%%X X@OX%X$X X%X-XX     -X%-X$XX%%X X@OX%X$X X%X",
"$X OX                X   @XXX  X-X OX                X   @XXX  X"
};
