/* XPM */
static char *SPCDOOR4[] = {
/* columns rows colors chars-per-pixel */
"64 128 68 1 ",
"  c #67533F",
". c #775F4B",
"X c #7B634F",
"o c #574333",
"O c #6F5743",
"+ c #8B735B",
"@ c #836B57",
"# c #775F3F",
"$ c #5F4B37",
"% c #4F3B23",
"& c #836B4B",
"* c #937B63",
"= c #8F7753",
"- c gray39",
"; c #533F2F",
": c #6F6F6F",
"> c #43331B",
", c #A78F77",
"< c #332B13",
"1 c #9F876F",
"2 c #3F2F17",
"3 c #5B472B",
"4 c #4B371B",
"5 c #675333",
"6 c gray31",
"7 c #9B7F6B",
"8 c gray42",
"9 c #6F7357",
"0 c #434343",
"q c #7F532F",
"w c #533F1F",
"e c #5B5B5B",
"r c #2B230F",
"t c #8F5F37",
"y c #7B7F63",
"u c #838383",
"i c #774F2B",
"p c gray23",
"a c gray28",
"s c #AF977F",
"d c #6B4727",
"f c gray50",
"g c #670B0B",
"h c #9F8363",
"j c #777777",
"k c #2F2F2F",
"l c #9B633B",
"z c #53573B",
"x c #BFA78F",
"c c #B79F87",
"v c #4F3B27",
"b c #5F4323",
"n c #676B4F",
"m c #470000",
"M c #372313",
"N c #A36B3F",
"B c #430000",
"V c #4F3B2B",
"C c #1F170B",
"Z c #875733",
"A c gray34",
"S c #AB6F43",
"D c #FFC7A7",
"F c #432F1B",
"G c #272727",
"H c #FFEBDF",
"J c #473323",
"K c #939393",
/* pixels */
"%OO##O   ;%tO#  .  OOOX7@ o O.X..X.O o XXXOOO  .  #Ot%;   O##OO%",
"rOO##O  O;%0O#O .  .OOX+X o .XX..XX. o XXXOO.  . O#O0%;O  O##OOr",
"rOO##O   ;ooOOO .  OOOX@X o &@@..@@& o XXXOOO  . OOOoo;   O##OOr",
"r%O##O  $;XoOO. .  XOO+@.Oo &==OO==& oO.XXOOX  . .OOoX;$  O##O%r",
"r%$  $oo0;@.OO. .O XOX+@.Oo dZ@OO@Zd oO.XXOOX O. .OO.@;0oo$  $%r",
"r%O##O  -;XO+.X XO XOX+@XOo --8..8-- oOXXXOOX OX X.+OX;-  O##O%r",
"r#O##O  .;.o.#.OXO XOX@XXOo .OO99OO. oOXXXOOX OXO.#.o.;.  O##O#r",
"Coooo%%%%;%o333O.. XOO@XXXo 1*.99.1* oXXXXOOX ..@%%%%%%%%%%ooooC",
"CoO##O   ;. %%%@O. .OX@ .#o ++ .. +* o#. XOO. .O@333 .;   O##OoC",
"roO##O  .;. @@@@.. .O.@O. o#   ..  ##o .OXOO. ..@@@@ .;.  O##Oor",
"roOoo%  .;. X..O.O .O.XO. o.X+.XX.+X.o .OXOO. O.O..X .;.  %ooOor",
"roOo#%  .;.O... .O .&.XO. o..........o .OXOO. O.O..XO.;.  %#oOor",
"rooo#%%%%%%%;;5@.. X&..O. $.11O..O1*.$ .OXO.X ..@%%%%%%%%%%#ooor",
"r##o#%    O 335@...X&.XO. $ *+O..O+* $ .OXO.X...@333.O    %#o##r",
"r%%r%r%%.   @@@@..XX&.X..O$X  O..O  X$O..XO.XX..@@@@.  .%%r%r%%r",
"C22r2r22O  ..X.@..X@&.X..O$ XXO..OXX $O..XO.@X..@.X@.  O22r2r22C",
"rrrr<2roO  ..X.X..XX&.X.XO$XXXOOOOXXX$OX.XO.XX..@.X@.  Oorr<rrrr",
"r>22<2roO  ..X....XX&@X.XO$ 1+OOOO1* $OX.XO.XX..@.X@.  Oor2<22>r",
"r>>2<%>oO  .XX.@..X@&+X.X.$ =+O..O+= $.X.X..@X..@.X@.  Oo>%<2>>r",
"rw$Oo%>oO  .@X.@..X@&@X.X.$XbiO99OibX$.X8X..@X..@.X@.  Oo>%oO$wr",
"rw>%>%>oO  .@X....X@&@X.X.$XiO-99-OiX$.XjX..@X..@.X@.  Oo>%>%>wr",
"rw2r2%>oO  .@X.@..X@&+@.X. +O.X..X&OX .XuX..@X..@.X@.  Oo>%2r2wr",
"rw222%>oO  .@X.@..X@&+@... X.XX..X=.X ..jX..@X..@.X@.  Oo>%222wr",
"rw222%>oO O.@X.@..X@&+@..X f&@@XX@=&X X.8X..@X.O@.X@.O Oo>%222wr",
"r>24<%>oO O.@X.@..X@&@X..X X&==.+==&X X..X..@X.O@.X@.O Oo>%<42>r",
"r>24<%>oO O.@XX@@XXX&+X..X XdZ@.+@XdX X..X..XXXO@XX@.O Oo>%<42>r",
"r>>%<%>oO e.@XX=+XXX&+X..X -XXX.+8XXX X..X..XXXO@:X@.  Oo>%<%>>r",
"rw$Oo%>oO eXXX@**@@@O@***@ XX@yX+yXXX @***@O@@@O@jXXX  Oo>%oO$wr",
"rw>%>%>oO eXXX+=*@@@OXXXXX X1&+8++&1X XXXXXO@@@O@fXXX .Oo>%>%>wr",
"rw2r2%>oOX-X.X+=j@@@O+X.@. Xdqy8+yqdX .@.X.O@@@O@jX.X..Oo>%2r2wr",
"rw>2>%>oOX-X.X++jX@XO+X.@.$X..y8+y..X .@.X.OX@XO@:X.XX.Oo>%>2>wr",
"rw4%>%>oOX-X.XX=fXXX +X.X.$X.&y-+y&.X$.X.X. XXXO@:X.XX.Oo>%>%4wr",
"rw4%>%>oOX-..X#@u##@ 7scs7oX..y-+y..X 7scs7 @##O@j88.X.Oo>%>%4wr",
"rw4%>%>oOX-%333o35OX@=DHD=oXs=ye+y=sX =DHD7..##55333%-.Oo>%>%4wr",
"rw$Oo%>oOX-%        .@,x,@oX$&y++,&$X @,x,7X.OOOO.Oo%-.Oo>%oO$wr",
"rw>%>%>oOX-% @XX#XXX.@1s1@o= *,++,* = @1s17@XXX#XX@o%-.Oo>%>%>wr",
"rw2r2%>oOX-% @##X X+.+*1*X *+,,++,,+* X*1**@+XXX##@o%-.Oo>%2r2wr",
"rw>2>%>oOX-%o+X&&X&&.++7+X =x,h++h,x= X+7++@&XX&&X+o%-.Oo>%>2>wr",
"rw4%>%>oOX-%o*X@@XXX.++++X &3&,++,&3& X+++++XXX@@X*o%:-Oo>%>%4wr",
"rw4%>%>oOX-% *X=+XXX.++++X =X*1++1*X= X@@@++XXX+=X* %:-Oo>%>%4wr",
"rw4%>%>oOX:% *@**@@@&++++X ++**++**++ X@@@+&@@@**@* %f-Oo>%>%4wr",
"rw$Oo%>oOX:%o*+=*@@@=+@@@X +#,u++u,#+ X@@@+=@@@*=+*o%f-Oo>%oO$wr",
"rw>%>%>oOX:%o*+=*@@@=+@@@X +#,u++u,#+ X@@@+=@@@*=+*o%:.Oo>%>%>wr",
"rw2r2%>oOX@% +++=X@X++@@@  +1,:++:,1+  @@@++X@X=+++ %:.Oo>%2r2wr",
"rw>2>%>oO.+% +X=@XXX++@@@# @ ++++++ @ #@@@++XXX@=X+ %8.Oo>%>2>wr",
"rw%%>%>oO.u%X+#@X##@X+@@@# 7$X@++@X$7 #@@@+X@##X@#+X%-.Oo>%>%%wr",
"rw%%>%>o111O11*,,,,,*,*111:1uufssssss,s1sxxccss,,ffuO717o>%>%%wr",
"rw%%>%>o@@+ 3&&##&=&&&#&&eee&#e##e#&eee&&#&&&=&####3 *@@o>%>%%wr",
"rw$Oo%>o@X+#+111*****h=+**++++++++7,,77*+=h*****111+#*X@o>%oO$wr",
"r>>%>%>o&=+#3##&#&&&&=&##&###&&##&&###&##&=&&&&#&##3#+=&o>%>%>>r",
"r>2r2%>o##XO+=&+&+==&&&&==&+&&++++&&+&==&&&&==+&+&=+O###o>%2r2>r",
"r>>2>%>o 5$$6          3  ;.55....#5.;  3          ;$$5 o>%>2>>r",
"r>%%>%>o+#X;6.##. X...X.#.$*+.,++,.+*$.#.X...X .##.;dX#+o>%>%%>r",
"r>%%>%>o+##;o+X&&X&&....#X =+,h++h,+= X#....&&X&&X+oq##+o>%>%%>r",
"r>%%>%>o+#X o*X@@XXX... ## &3&,++,&3& ## ...XXX@@X*odO#+o>%>%%>r",
"r>$Oo%>o=#:  *X@@XXX..XX#X =X*1++1*X= X#XX..XXX@@X* qO#=o>%oO$>r",
"r>>%>%>o+#:  *@@@@@@..X XX ++**++**++ XX X..@@@@@@* q:O+o>%>%>>r",
"r>2r2%>o+5: o*+@@@@@...X#X +#,u++u,#+ X#X...@@@@@+*oq:O+o>%2r2>r",
"r>>2>%>o=5:  ++@@X@X...XXX +*,:++:,*+$XXX...X@X@@++ q:O=o>%>2>>r",
"r>%%>%>o1eu  +X@@XXX...##X$@ ++++++ @$XX#...XXX@@X+ q+O1o>%>%%>r",
"r>44<%>ou6:dX+#@X##@X.@XXXo7$X@++@X$7$X*&@.X@##X@#+Xd+O=o>%<44>r",
"r>%%>%>oua:O*1*,,,,,*,*111111,,ss,u11777,,,,,,,,,,,*O.+&o>%>%%>r",
"r>$Oo%>oKa8 3&&##&=&&&#&&eee&#e##e#&eee&&#&&&=&##&&3 +@#o>%oO$>r",
"r>>%>%>o@X+#+111*****h=+**++++++++++++**+=h*****111+#+X#o>%>%>>r",
"r>2r2%>o&=+#355#5####X#55#555##55##555#55#X####5#553#+=#o>32r2>r",
"r>>2>%>o##XO3=&+&+==&&&&==&+&&++++&&+&==&&&&==+&+&=3OX##o>3>2>>r",
"r>%%>%>o#Fo +u++1,*,h*,,,,111*,**,*111,,,,*h,*,1++u+ Fw#o>%>%%>r",
"r>44<%>o.;ob#X   #5#$5$$$ 33   $$   33 $$$5$#5#   X#bo;.o>3<44>r",
"r>%%>%>oo3.oooo;;;;;;;;;%%$$$$$$$$$$$$%%;;;;;;;;;oooo.3oo>5>%%>r",
"r>$Oo%>o.oX- :-   #  OXX.w.@++++++++@.w.XXO  #   -: -Xo.o>5oO$>r",
"r>>%>%>o,*o *7*+++@+*****777**1,scc,,77*****+@+++*7* O*,o>3>%>>r",
"r>2r2%>oX@; +=+&=&&&==&&&&#&&##&&##&&#&&&&==&&&=&+=+O @Xo>32r2>r",
"r>>2>%>o$Oo $ 5         ow #O$$$$$$O# wo         5 $ O@Oo>%>2>>r",
"r>%%>%>o%o.X #X   #  X#X$w.17**11**71.w$X#X  #   X# X.o%o>%>%%>r",
"r>%%>%>o%.:: X. $ X  @X+$w.,.@@@@@@.,.w$+X@  X $ .X ::.%o>%>%%>r",
"r>%%>%>oX -X-     X  @++Ow.,.+****+.,.wO++@  X     -X- Xo>%>%%>r",
"r>$Oo%>o.o.X..X $ #  @++Oi. .++**++. .iO++@  # $ X..X. .o>%oO$>r",
"r>>%>%>o$%....X 3 # X++uOi.++++**+++++iOu++X # 3 X.... $o>%>%>>r",
"r>2r2%>oO%.:.X+  X# @*11Oi+++++++=++++iO11*@ #X  +X.:. Oo>%2r2>r",
"r>>2>%>oO$6X&&&&..&&&===&&&&&&&..&&&&&&&===&&&..&&&&X6$Oo>%>2>>r",
"r>%%>%>o ;dlllStqqttttStqqqttttttttttqqqtSttttqqtSSltd; o>%>%%>r",
"r>44<%>oO;%Gw00www44wwww4wwwwwwwwwwwwww4wwww44www0pppG;Oo>%<44>r",
"r>%%>%>o ;%ooo60000oooo6%Mooo o66o oooM%6oooo00006oooo; o>%>%%>r",
"r>$Oo%>o$%%%%%p>aaao666Xo%. X*X++X*X .%oX666oaa00000o%%$o>%oO$>r",
"r>>%>%>o0.@.yy:%a6ao66o600  o6#11#6o  006o66o6a06.++.@.0o>%>%>>r",
"r>2r2%>o-oXO+.X XXXXXXXXXX++++o::o++++XXXXXXXXXX .@@ Xo-o>%2r2>r",
"r>>2>%>o.o.o.#$oX.X.XX.#XO.:.mgeegm.:.OX#.XX.X.Xo$#. .o.o>%>2>>r",
"r>%%>%>o.o.o..o%%o#OXO#OXXOX++.nn.++XOXXO#OXO#o%%o.. .o.o>%>%%>r",
"r>%%>%>o o. .X o%o- OXO X#O X#$nn$#X O#X OXO -o%o X. .o o>%>%%>r",
"r>%%>%>o.o. X  oo.- ...O  O##mgXXgm##O  O... -.oo$ X .o.o>%>%%>r",
"r>$Oo%>o.o. X..0...0..#$ O .X+ XX +X. O $#..0...0$OX .o.o>%oO$>r",
"r>>%>%>o.o.OX. o>>%%ooooo;ooooo##ooooo;ooooo%v>>o OXO.o.o>%>%>>r",
"r>2r2%>o o. X  o>>0oo6  oMvOOOo##oOOOvMo  6oo0>>  OX .o o>%2r2>r",
"r>>2>%>o oO5X .O>>;;oo O >v XXw..wXX v> O oo;;;>O. X5Oo o>%>2>>r",
"r>%%>%>o.o $#..OOfu++0oX >z XX$..$XX z% Xo0XXXX@O.OO$ o.o>%>%%>r",
"r>%%>%>oXo   #o.  $$+oo. %$ XXo..oXX $% .ooX$$  ..O   oXo>%>%%>r",
"r>%%o%>oX%   .o.    XooX ;o @@$OO$@@ o; XooX    ..O   %Xo>%o%%>r",
"r>%%% <>.o o$# .    .o X ;$ **oOOo** $; X o.    ..O$o o.>< %%%>r",
"r>%%%% 4.o oo. .O   .o # o  **o..o*=  o # o.   O..Ooo o.4 %%%%>r",
"r>%%%%% .w $$  ..   .o X#$OX$$ 99 $$XO$#X oX   ..  $$ w.5%%%%%>r",
"r>%%%%2gggBo O #OO $Oo XO #XOOO99OOOX# OX oX$ OO# O %Bggg2%%%%>r",
"r>$Oo%rBBBBJO. .OO $Oo XO$#&O.X..X.O&#$OX o.$ OO. .O%BBBBr%oO$>r",
"r>>%>%%4Vooo..$..O $Oo Xe$O&.XX..XX.-O$eX o.$ O..$..$ or4%%>%>>r",
"r>2r2%2gggBo.O$..O $Oo..e$O&&-@XX@@--O$e..o.$ O..$O.%Bggg2%2r2>r",
"r>>2>%rBBBBo..$O.OO$OoX:-$OX&-&..&&--O$-:XoO$OO.O$..%BBBBr%>2>>r",
"r>%%%%%r6oVV.O O O  Oo.:8 .X.-&..@.--. 8:.o   O O O.oOor<%%%%%>r",
"r>%%%%<4oo $O.O $OO$Oo#:8 X---8..8---X 8+#o$$OO$ O.O$ oor<%%%%>r",
"r>%%%<r<$o $..  OO.oOo#+9 Xe-@yXXy@-eX 9+#o o.OO  ..$ o$4r<%%%>r",
"r>%%<r24ow $X 6    o o#+. .eX&+88+&Xe. .+#o o   . .X$ wo42r<%%>r",
"r>%%r<24$o.o+o   O $ o#:O$9-dqy88yqd-9$O+#o $ O6   +o.o$42<r%%>r",
"r>%%<<24ooXo+6   .o  o#:O 9eA.y88y.Ae9 O+#oO  .    +oXoo42<<%%>r",
"r>%%<<<<ooX$:6   .oo$o#*O 9eA&y--y&Ae9 O*XoO  .   6 $Xoo<<<<%%>r",
"aapoopp<%o. #    .6o oX+#O8-Ot+99+tO-8O#+Xo. 6.      .o%<ppoopaa",
"o%%oooo<oo  ..o. Oo  o+*#O8Xii*99*iiX8O#*+oX  O    .  oo<oooo%%o",
">>>>%>%<o$.$X6   o6  $**# @X#i+99+i#X@ #**$X.      X$.$o<%>%>>>>",
">>>>>>%<o0.X@ . .  .o#**O @.#qy88yq#.@ O**#o.XXX . @X.0o<%>>>>>>",
">>>>>>%<ooooooooooo .+*:O 8.#ty88yt#.8 O:*+. oooo     oo<%>>>>>>",
">>>>>>%< %77**@@@XX@@+#+O @.#N*88*N#.@ O+#+@@+++***,,.% <%>>>>>>",
">>>>>>%<5%7X.OOOOOOOO #+#O@.qq*--*qq.@O#+# OOOOOOOO.,X%5<%>>>>>>",
">>>>k2%<oo*:  o 3    $.+##@. q*99*q .@##+.$    3 o  7Xoo<%2k>>>>",
">>pk2<%<6o*X  o$3  $ $ @.O@X.q*99*q.X@O.@ $ $  3$o  *Xo6<%<2kp>>",
">>>>>4%<oo+:  $$3    3X+. @@@qf..fq@@@ .+X3    3$$  *Xoo<%4>>>>>",
">o$o24%<6oXX  3$$    $X+.$@+=+f..f+=+@$.+X$    $$3  *.o6<%422o$o",
">$.$24%<ooXX  3$      X1.o.@&+*XX*+&@.o.1X      $3  * o-<%422$.$",
">o$o24%<oo#X   $      X1#$8y.t7@@7t.y8$#1X      $   *#o.<%422o$o",
"><r<22%<o XX   $      X1.z8jqq7@@7qqj8z.1X      $   *X .<%222<r<",
">>pk2<%<o XX .     ## X*9z-y=N7XX7N=y-z9*X ##     . *X :<%<2kp>>",
">>>k><><o5::.  $  #   X+O; .=ltOOtl=. ;O+X   #  $  .*:5:<><>k>>>"
};
