/* XPM */
static char *SPCDOOR1[] = {
/* columns rows colors chars-per-pixel */
"64 128 63 1 ",
"  c #67533F",
". c #574333",
"X c #4F3B23",
"o c #5F4B37",
"O c #4B371B",
"+ c #775F4B",
"@ c #775F3F",
"# c #774F2B",
"$ c #3F2F17",
"% c #332B13",
"& c #6B4727",
"* c #6F5743",
"= c #43331B",
"- c #2B230F",
"; c #5F4323",
": c #8F7753",
"> c #836B4B",
", c #9F8363",
"< c #7F532F",
"1 c #875733",
"2 c #7B634F",
"3 c #8F5F37",
"4 c #836B57",
"5 c #A36B3F",
"6 c #1F170B",
"7 c #533F1F",
"8 c #533F2F",
"9 c #9F876F",
"0 c #9B633B",
"q c #AF7B1F",
"w c #432F1B",
"e c #670B0B",
"r c #9B7F6B",
"t c #3F2B1B",
"y c #372313",
"u c #FFFF47",
"i c #BF7B4B",
"p c #430000",
"a c #FFFFD7",
"s c #731313",
"d c #4F0000",
"f c #675333",
"g c #AB6F43",
"h c #5B0000",
"j c #FFFF8F",
"k c #2F1B0B",
"l c #7F0000",
"z c #FFFFB3",
"x c #AF977F",
"c c #4F3B27",
"v c #170F07",
"b c #8B735B",
"n c #BFA78F",
"m c #7F1B1B",
"M c #831F1F",
"N c #5B472B",
"B c #070707",
"V c #F7AB7B",
"C c #CB7F4F",
"Z c #D78B5B",
"A c #937B63",
"S c #1B1B1B",
"D c #FFBB93",
/* pixels */
"X**@@*  .@@o@@ @@@ @@@ @@@ @@@ @*@@@@@.@@@@@***@*@.@@@@.  *@@**X",
"-**@@*  .@@o@@ @@@ @@@ @@@ @@@ @O..@@@.@@@@@***@*@.@@@@.  *@@**-",
"-**@@*  .@@ @XpX@XpX@XpX==pX@XpX@@.@@@.@.mmmmmmm.@.@@@@.  *@@**-",
"-X*@@*  .@@ @X.X@X.X@X.....X@X.X@@.@@@.desssssssed.@@@@.  *@@*X-",
"-Xo  o....XOXX.X.X.X.X.....X.X.X@@.@@@.@.eeeeeee.@.@@@@...o  oX-",
"-X*@@*  .@@ @X.X@X.X@X.....X@X.X@@.@@@.@@@@@***@*@.@@@@.  *@@*X-",
"-@*@@*  .@@ @X.X@X.X@X.....X@X.X@@.@@@.@.mmmmmmm.@.@@@@.  *@@*@-",
"6....XXX.@@ @X.X@X.X@X.....X@X.X@@.@@@.desssssssed.@@@@.OOX....6",
"6.*@@*  .@@ @X.X@X.X@X.....X@X.X@@.@@@.@.eeeeeee.@.@@@@.  *@@*.6",
"-.*@@*  ...X.X.X.X.X.X.....X.X.X@@.@@@.@@@@@***@*@.@@@@.  *@@*.-",
"-.*..X  .@@ @X.X@X.X@X.....X@X.X@@.@@@.@.mmmmmmm.@.@@@@.  X..*.-",
"-.*.@X  .@@ @X.X@X.X@X.....X@X.X@@.@@@.desssssssed.@@@@.  X@.*.-",
"-...@XXX.@@ @XXX@XXX@XXX===X@XXX...@@@.@.eeeeeee.@.@@@@.XXX@...-",
"-@@.@X  .@@ @@@@@@@@@@@@   @@@@@@@@@@@.@@@@@***@*@.@@@@.  X@.@@-",
"-XX-X-XXXXX=XXXX.&&&&&&&&&&&&&&&&&&&&&&&&&&&&. .#XXXXXXXXX-X-XX-",
"6$$-$-$$$$$------+uujzzzaaazaaaaaaaaazaaazzzjuu+=---.   .--$-$$6",
"-=$$%$-.   ------=+ujzzzzzzzzzzzzzzzzzzzzzzzju+=----.   .-XOOO=-",
"-=$$%$-.   -------=*9nnnnnnnnnnnnnnnnnnnnnnnn2==----.   .-XOOO=-",
"-==$%X=.   --8888$o***************************o88888.*2*.-XXXX=-",
"-7o*.X=.   %$O.o&. o. .+o ooo    o8. o o<O&Xo . o..X.282.=Xo*.7-",
"-7=X=X=.   %$O.o&. o  .+o ooo     8. o o#O&#o . o..X.*2*.=X=X=7-",
"-7$-$X=.   %$O.o&. o. .+o ooo *  *8. o o<O&Xo . o..X.   .=X$-$7-",
"-7$$$X=.   %$O.o&. o  .@o ooo *  *8. o o<O #o . o..X.   .=X=$=7-",
"-7$$$X=.   %$O.o&......@o o*2**  *8. o o<O.X... o..X.   .=XXXX7-",
"-=$O%X=.  o%$O.o&. o  .+o o2S2  *.8. o o3O&#o . o..X.   .=XOOO=-",
"-=$O%X=.   %$O.o&. o. .+o o*2*   o8. o o3O&Xo . o..X.   .=XOOO=-",
"-==X%X=.   %$O.o&. o  .+o ooo    o8. o o3O&1o . o..X.   .=XXXX=-",
"-7o*.X=.   %$O.o&. o. .+o ooo    o8. o o<O&Xo . o..X.   .=Xo*.7-",
"-7=X=X=.   %$O.o&. o  .+o ooo +   8. o o#O&1o . o..X.   .=X=X=7-",
"-7$-$X=.   %$O.o&. o. .+o ooo2=2 *8. o o<O&Xo . o..X.   .=X$-$7-",
"-7=$=X=.   %$O.o&. o  .@o ooo g  *8. o o<O &o . o..X.   .=X=$=7-",
"-7OX=X=.   %$O.o&......@o ooo *  *8. o o<O.X... o..X.   .=XXXX7-",
"-7OX=X=.   %$O.o&  o   @  ooo *  *8. o  <<<&o   o..X.   .=XXXX7-",
"-7OX=X=.   %X..o&      @  o . *  *8. o  <& &    o..X.   .=XXXX7-",
"-7o*.X=.   OXOX.O.X.X.X.X.X.X.X..X8X.X.XXO.O.X.X.XOX.&22o=Xo*.7-",
"-7=X=X=.   OO$-$y$%X$X$X$X$X$X$XX$X$X$X$OtXtX$X$X-$X.&28 =X=X=7-",
"-7$-$X=.   %$O==O$$.X.X.X.X.XO....OX.X.XXO.O.X.X..XX.&&2o=X$-$7-",
"-7=$=X=.   %$OO=7==. .......XOo**oOX....XO.&......XX.&& .=X=$=7-",
"-7OX=X=.   %$OO=7=O @     o .X.  .&. o  && #     .XX.&&&.=XXXX7-",
"-7OX=X=.   %$OO=7=X @     o .X....&. o  && #     .XX.&&&.=XXXX7-",
"-7OX=X=.   %$OO=7OX @   ++ + X....< + ++&& #   @+ XX. &&.=XXXX7-",
"-7o*.X=.   %$OO=7O. @  . :xx9@@..@9xx9: O& #   2=2XX. & .=Xo*.7-",
"-7=X=X=.   %$OO=7O. @  .. >9x9@..:xx9> OO& #    + XX. & .=X=X=7-",
"-7$-$X=.   %$OO=7O. @  ...Xo+4+...;X.X%$O& #     .XX. & .=X$-$7-",
"-7=$=X=.   %$OO=7Oo@>  ...Xo4=4...;X.X%$O& #     .XX.   .=X=$=7-",
"-7XX=X=.   %$OO=7Oo>X@ ...X.o o...;X.X%$O& #     .XX.   .=XXXX7-",
"-7XX=X=.   %$OO=7Xo >o ...Xo...OO.&X X%$O&&#o@>  .XX.   .=XXXX7-",
"-7XX=X=.   %$OO=7Xo @  ...X.X&.  .&X.X%$O&&#o>X@ .XX.   .=XXXX7-",
"-7o*.X=.   %$OO=7Xo @  ...X X&.  .&X X%$O&&#o3go .XX.   .=Xo*.7-",
"-==X=X=.   %$OO=7Xo @  ...X XX.  .XX X%$O&&# 13  .XX.   .=X=X==-",
"-=$-$X=.   %$OO=7Xo @  ...X XX.  .XX#X%$O&&# 13  .XX.   .=X$-$=-",
"-==$=X=.   %$OO=7Xo @  ...X XX%--=XX#X%$O&&# 13  .XX.   .=X=$==-",
"-=XX=X=.   %$XO=7Xo @  ...X .X%-=OX.#X%$O&&# 13  .XX.   .=XXXX=-",
"-=XX=X=.   $X @f# +++++ ..X .X%-XOX.#X%$;###+33+++ X.   .=XXXX=-",
"-=XX=X=.   . 44f<@+:,,:+ .X .X%-XOX.#X$;#355:05,,,+ .   .=XXXX=-",
"-=o*.X=.   .+rrf0 :,99,,+.X .X%-XOX. X.+5555,55999r+.   .=Xo*.=-",
"-==X=X=.   . .;;7X oo o  .X oX%-XOXo X. &;&;o    o. .   .=X=X==-",
"-=$-$X=.   . .;;7X o. o  .X oX%-XOXo X. &;&Xo    .. .   .=X$-$=-",
"-==$=X=.   . .;;7X o. o  .X oX%-XOXo X. X;;Xo    .. .   .=X=$==-",
"-=XX=X=.   %%-----------=.X oX%-XOXo X%%-----------=.   .=XXXX=-",
"-=OO%X=.   %%%---------$X.X oX%-XOXo X%%y---------=X.   .=XOOO=-",
"-=XX=X=.   %%%%%y-%%-%%O..X o.%-XO.o X%%yyy-%%-%O$O..   .=XXXX=-",
"-=o*.X=.   %%%%O7X..X..X..X o.%-XO.o X%%yyOO..X.OXX..   .=Xo*.=-",
"-==X=X=.   %%%X;&.  .  ...X&o.%-XO.o X%%yO;X  . <X...   .=X=X==-",
"-=$-$X=.   %$$;@# @@o@  ..X&#.%-XO.o X%$t;#;@@ @1 ...   .=X$-$=-",
"-==$=X=.   %$; @# @@ + + ..&#.%-XO.o X%$;&#&@@ +0  ..   .=X=$==-",
"-=XX=X=.   $;# @# ++@:+>> .##&%-XO.o X$;#&##++ @g : .   .=XXXX=-",
"-=OO%X=.   O#+@@#@+++:+:>> ##&%-XO.o XO#####++@ii@+,    .=XOOO=-",
"-=XX=X=.     oX;&.X..+.&&&&##&%-XO.o X++&X#X**oooooo*o  .=XXXX=-",
"-=o*.X=.     oX;&.X..+.&&####&%-XO.o X@+&X#X**oooooo*o  .=Xo*.=-",
"-==X=X=.     oX;&.X..+.&&#<<#&%-XOoo X@+ O#X**+44*oo*o  .=X=X==-",
"-=$-$X=. o@> o.;&.X..+.&<<1<#&%-XOoo X@+ O#X*+ 8 + o*o  .=X$-$=-",
"-==$=X=. o>X@o.;&.X.o+.&<111<&%-.Ooo X@+ O#;**8-8* o*   .=X=$==-",
"-=XX=X=. o >oo.;&.X.o@.&#11<#&%-.Ooo X*+ O#;**#5<* o*   .=XXXX=-",
"-=XX=X=.     o.X&.X.o@o&#<<<#&%-.Ooo X*+ ;#;**<01 o *   .=XXXX=-",
"-=XX=X=.     o.X&.X.o@o&##<##&%-.Ooo X*@ ;#;*+;01oo *   .=XXXX=-",
"-=o*.X=.     o..&.X. @o&&#o<#&%wwOoo X*@ ;#&*+;01ooo+4+ .=Xo*.=-",
"-==X=X=.     o..&.X. @o&##o##&%llO o X** ;#&*+;01ooo4=4 .=X=X==-",
"-=$-$X=. o   o..&oXo @o&##o## %hhX o X * ;#&++;31oo. +  .=X$-$=-",
"-==$=X=. o   o..&oXo @o ##o## %--X o   * ;#&++;<1ooo... .=X=$==-",
"-=XX=X=. o OO-------------X## %wwX o %-------------OO o .=XXXX=-",
"-=OO%X=. o OOO-----------X.#o %llX o %$-----------OOO o .=XXXX=-",
"-=XX=X=. o OOOO---------OX.#o %hhX o %$O---------OOOO o .=XXXX=-",
"-=o*.X=.--OOOOO$t=$==O=XOX.#o $--X o %$OXtOt=$==$OOOO=--.=Xo*.=-",
"-==X=X=.---$OOOXO.X..o..OX. o $wwX o %$O.O;X.X.XXOOO=---.=X=X==-",
"-=$-$X=.----OOOXOo.oo o.OX. o $llX o %$O.;&;o.oXXOO=----.=X$-$=-",
"-==$=X=.-----OOX7 . o@ .OX. o $hhX o %$O.&#; . .XO=-----.=X=$==-",
"-=XX=X=..X.X...X&+.+o@ .OX. o $--X o %$O.&#;o.+ X...X.X..=XXXX=-",
"-=XX=X=. o .3o..; o o@ .XX. o X..X o %$O.&#;oo o..o . o .=XXXX=-",
"-=XX=X=. o o3o..o o o@ .X.. o X..X o %$O.&#; o o..o o o .=XXXX=-",
"-=o*.X=. o o3o..o o o@ .X.. o X..X o %$O.&#; o o..o o o .=Xo*.=-",
"-==X=X=. o o3o..o o o@ .X.. o X  X o %$X.&#; o o..o o o .=X=X==-",
"-=$-$X=.+@++i@@ @@@>@++ X.. o .@@. o %$X ###>@@@ @@+++@+.=X$-$=-",
"-==$=X=.>+::Z>+*>+@:@::+ .. o @::@ o %$ +33#:@+>*+>:::+>.=X=$==-",
"-=XX=X=.:+,:V>>+,>>,>,,,: . o :,,: o % :,551,>>,+>>,:,+:.=XXXX=-",
"-=XX=X=.,:,,D::>,::,:,,,,,  o      o  ,,,553,::,>::,,,:,.=XXXX=-",
"-=XX.X=.   oX.. o oo.XXO.XOOX.o..o.XOOX.OOOOoo o ..Xo   .O.XXX=-",
"-=XXX %=   oX.. o  o   . o..   oo   ..o .&&&o  o ..Xo   O XXXX=-",
"-=XXXX O   oX.. o .....X.XXX...oo...XXX.XOXO.. o ..Xo    XXXXX=-",
"-=XXXXXO   oX.. o .o   o o .  .oo.  . o o&&&o. o ..Xo   XXXXXX=-",
"-=XXXXXe   ocw. o .o   o o .  .oo.  . o o&&&o. o ...o   XXXXXX=-",
"-=o*.XXpMMMMsk. o .o= =o= +4bA+8-8==$....OXO.. o %ksMMMMXXXo*.=-",
"-==X=XXOdddddk. X .oX XoXoo..+42*9.== oXoO&Oo. X %kdddddXXX=X==-",
"-=$-$XXewwwwyw. o .oX XoXo oo.+4b+*=O oXoO&Oo. o %wywwwwXXX$-$=-",
"-==$=XXp   ocw. o .oX XoXo X        X oXoO&Oo. o $$Oo   XXX=$==-",
"-=XXXXXOMMMMsk. o .o. .o.o XXXXXXXXXX....OXO.. o %ksMMMMXXXXXX=-",
"-=XXXX%Odddddk. X .oo oo o    .  .    o o;&;o. X %kddddd%XXXXX=-",
"-=XXX%-%wwwyyw. o .o@+ o o ...X..X... o o;&;o. o %wywwww-%XXXX=-",
"-=XX%-$O   ocw. o .o2=2o o .        . o o&&#4% o %$co   $-%XXX=-",
"-=XX-%$OMMMMsk. o .o + o o ...X..X... o o&#1o% o %ksMMMM$%-XXX=-",
"-=XX%%$Odddddk. X .oo oo o    .  .    o o&&1=% X %kddddd$%%XXX=-",
"-=XX  X.wwwwyw. o .oo oo o    .  .    o o;;<o% o %$ywwwwX .XXX=-",
"...0..............o<+  .X;;.....................................",
"XXX<XXXXXXXXXXXXXXXXXXXXXXXXXXXXXXXXXXXXXXXXXXXXXXXXXXXXXXXXXXXX",
" > C@>,@ o >,>   @ @>,,,,>>*o*>:,,,,,,,,,,,,,,,,,,>@+>,,,,>@,@>,",
".+or >:>o.o>:>@.X1  >::::> o.o.o:+::::::@o@::::::@ o@@::::@o+oo+",
".oor  o o.o o . .o o..o .#  o    oo o    o         o       o oo ",
"..+r .> o.+   *vvvvvvvvvvvvvvvvvvvvvvvvvvvvvvvvvX  o .>  .>o .+ ",
".O%@ O% oO%  *1.6666OO;;6666;;;;66v6;;;;6666;;;.@o+4+O%  O%o O% ",
"..X@ o. o.o  1 + --q##q--6-qqqq---6q#qq----qqq + o4=4..  .Xo o. ",
"..X*  o o.o     :@qq##---6qqqq----#q#q----qqq@:  .o o..  .Xo  . ",
"O.X......X.....  :@q#6---#qqq----q#q#----qqq@:   o....X...XX..X.",
"-$-$$$$$$-$$$$XN  :@66--q#qq----qq#q----qqq@:    .X$$$$$$$-$$$$$",
"--------------$XN  :* ,,:,:,,,,,,,+,+,,,,,::    .X$-------------",
"..+r .> o.+O---$X.    >>>>>>>o.o>+o o +>>+     .X$---.>  .>o .+ ",
".O%@ O% oO%XX=-$$X.          o.o  o o         .X$--=XO%  O%o O% ",
"--------------6-%%%%%%%%%%%%%%%%%%%%%%%%%%%%%%%%%-6-------------",
"66666666666666B66666666666666666666666666666666666B6666666666666"
};
