/* XPM */
static char *STARGR1[] = {
/* columns rows colors chars-per-pixel */
"64 128 23 1 ",
"  c #6F6F6F",
". c gray39",
"X c gray50",
"o c gray31",
"O c #5B5B5B",
"+ c gray34",
"@ c gray42",
"# c #777777",
"$ c #434343",
"% c gray28",
"& c #8B8B8B",
"* c #838383",
"= c #939393",
"- c gray23",
"; c #979797",
": c gray67",
"> c #4B4B4B",
", c #9F9F9F",
"< c #A7A7A7",
"1 c #373737",
"2 c gray70",
"3 c gray75",
"4 c #2F2F2F",
/* pixels */
"%%%%%%%>>>%%%%%%%%%%%%%%%%%%%%$$%%%%%%%%%%%%%%%%%%%%%%%%%%%%%%%%",
"o>>o>oo+O+o>oooo>>oo>o>oooooo>$$>>%>>o>ooo>%>>oo>>o>>o>>>>>>>>>o",
"+++O+OO.@.O+OOOO++OO+O+OOOOOO+oo+++++OOO@OO+OOOO++OO+O+OOOOO++++",
".. X&=====&&&===&&==X=X==&&* .O+.. X=&&==&&===&&&&==&X&=&XX= ...",
". *=,:222222::22::2<,<,<<<=&X O+. *=,222222<<<2222<2<,<2<,==X ..",
". &,2223232233232232222222<=XXOO. &,2:<<<:2222::<:22222222:,XX..",
"..*,===,,,,==,====,=,,,,,==,&XOOO.&:;&==&=&&=====&&=&&==&;,:=X..",
"O. XX*&=&=**&=***&=&&&&&&*X&& OOOOX=X#XX#X##XXXXX##X###X##X== ..",
"O.. XX&=&=*X&=XXXX&X&*&&*XX  .+O+O  X#XX#X##XXXX###X# #X##X# .O.",
"O...... . ..  .@..@@..@ @.@ .+oO++..... . ..@  @...@..@@... ..oO",
"O+ooooo+O.OoO.o+ooo+oo++ooo+oo$O+%ooo%o+oo%%o++o%%%oo%o+ooo+oo$O",
"Oo$$$$$%oo%%%o$%$$$%$$%%$$$%$$$O+$$%%$$%$$--$%%$$$$$$$$$$$$$$$$O",
".oo$$$$$$$$$$$$$$$$$$$$$$$$$$$oO.o$$$-$$$$--$$$$--$$$-$$---$$$oO",
".Oooooooo+ooo+oooooooooooooooOOO.Oooo++o+++oooo$$$ooooo+++++ooOo",
".........@...@........O..OO..O.O.OOOO@.O.@@....OOO......@@@@OO.O",
".. X====;,;=;,===&&X&&=====X ..OOO X&==&&**&=&=&**&*XX*&X&&X ..O",
". X=,22223223322222222222,==X .OO X=,<:222222222::,<,=*&=,==X .o",
". =,2222333233322222333232<=XX.OO &,2222::::::2:22::,===<2<=&XOo",
"O =<===,,,==,,======,,,=,==<=XO+O =,==,;;,,,,;;====&&X*&&==,=XOo",
"O ==XXX&=&*&=&XXXXXX&=&X&XX== Oo. *=*&;&&=;=&XXXXXXXX XXXXX&= +o",
"O XXXX#X**X*&*###XXX*&*X*XXXX Oo. XX**=*X&=&XXXXXXXX#   ##XX* +o",
"O. #XX#X**XX*X#X###XX&*XXX # .Oo.. #X*&*XX&*X##X#### .   # ##.Oo",
"O. #XX#X**X**X#XX###X*XXX# # .Oo.. #X***XX&XX##X#### .   # # .Oo",
"O. ##X#X**X**X#XX# #X*XXX# # .Oo.. #XX&*XX&XX##X ##  .   # # .+o",
"O. ##X#X**X**X##X# #XXXXX  # .Oo..  #X&*XX*#X##X ## @.@  # # .+o",
"O. # X#XXXX**X##X  #XX##X  # .+%..  #X*X#XX#X# #  # @.@    # .+o",
"O. # X#X*XXX*X# X  #XX###  # .+%..  #X*X#XX#X# #  # @..  @ # .oo",
"O.   X#X*XXX*X# #  #XX###    .o$O.  #X*X#XX#X# X    @.@  . # .+o",
"O. #  #XX#XXX## #   #X###    .Oo+.  #X###X##X#   @  @..  .@  .o%",
"+.    #XX#X#X#  #   #X# #    .O+o.  #XX  #X#X     @@@.O.@.@ @.+%",
"+.    #XX#X#X#  #   ### #    .O+o.  #XX  #X #     @ @.O...@ @.o%",
"+.    #XX#X#X#  #   ### #    .O+o.  #XX  ## #     @ @.O..O@ @.o%",
"+.    #XX#X#X#      #####    .Ooo.  #X#  X#       @ @.O...@ @.o%",
"+.    #X####X##     #####    .O%o.   ##  X#      @  @.O..O@ @.+$",
"o.    #X# ##X##     ### #    .O%o.   #X# ##      @  @.OO.O@ @.o$",
"o.     X# ##X##     #X# #    .+oo.   #X# X#      @@ @.OO.O@ @.o$",
"o.     X# ##X##     #X# #    .+oo.   ##  ##      @. @.OO.O@ @.o$",
"o.     ## ##X#      #X# X#   .ooo.   X#  #       @@ @.OO.O@ @.o$",
"o.     ## ##X#      #X# X#   .o%oO.  ##   @@    @@.@@.OO.O@@@.o$",
"o..    ## ##X#      #X# X#   .o%oO.  ##  @..@@@ @@.@..OO.O.@.Oo$",
"$ooO...OOOOOO.......O.OOOO..Oo$$$ooO...OOOOOO.......O.OOOO..Oo$$",
"$$oo%%%%%%%%%oooooooo%%o%%%oo$$-$$oo%%%%%%%%%oooooooo%%o%%%oo$$-",
"1-$$---------$$$$$$-$------$$$--1-$$---------$-$$$$-$------$$$--",
"1111444444411-11141444114444-4--1111444444411-11141444114444-4--",
"$---$$$$%%$$$$$%$$$$$$$$$$$$$$$$$---$$$$%%$$$$$%$$$$$$$$$$$$$$$$",
"$oooooo$oooooooooo%%%oo%o%oooooo$$$%oooo++$$o$o+ooo$o$$$$$$ooooo",
"+O.....+..........OOO..O.O......+.......@@.O.O.@...O..O++OO.....",
"..# ###@  ###@ #  @@@## # ##  ##..@@@@@@  @@@@@ @@@.@.....@@@@ @",
"@ ### # ####X ####   ###X##X### @@  ############ # @  ...@      ",
".. @@  .     @ #  @.@#  X #X    .@      XX#    #@ @....OO..@@@@@",
"..@@.@@. @.  @ # @...## # ## .@@.@@@. @ #X   @ #@ ..O.O+O......@",
"..@...@. @@  @ # @...#  # ## @@..@@.. . ##   @@#.@....OO+.O.....",
".....@..@@@  @   @.@. # #  #@@ @.@..@@.@##   .@#.@...o+o++.O....",
"..@..@.@@.@ @@ .@@.@.   #  #@   ..@..@.@ # @ .@#....O+ooooO..O..",
"o+O++O++O++.OOOOOO+++OOO.OO.OOOOo+O++O+OO.OOO+O.+++o+o%%%o%o++++",
"ooooooooooo+oo+ooooooo+o+o++ooo+ooooooo+++ooooo+oooooo%%%%%%%ooo",
"o$%$%%$$$$%%%$%%%$$$$$$$%$%%%%%%$$$$$$$%%%$%%%%%$$%$$%$$$$$$$$$$",
"oooooooo+oooo++ooooooooo++o+ooo%oo%%ooo+++ooooo+oo+oo+ooooooooo+",
"OOO+O++O.O++O..O++OO+O+O..O.O++o++oo+++...+++++.++.++.+++++++++.",
".. X&=====&&&===&&==X=X==&&* .O+.. X=&&==&&===&&&&==&X&=&XXX ...",
". *=,:222222::22::2<,<,<<<=&X O+. *=,222222<<<2222<2<,<2<,==X ..",
". &,2223232233232232222222<=XXOO. &,2:<<<:2222::<:22222222:,XX..",
"..*,===,,,,==,====,=,,,,,==,&XOOO.&:;&==&=&&=====&&=&&==&;,:=X..",
"O. XX*&=&=**&=***&=&&&&&&*X&& OOOOX=X#XX#X##XXXXX##X###X##X== ..",
"O.. XX&=&=*X&=XXXX&X&*&&*XX  .+O+O  X#XX#X##XXXX###X# #X##X# .O.",
"O...... . ..  .@..@@..@ @.@ .+oO++..... . ..@  @...@..@@... ..oO",
"O+ooooo+O.OoO.o+ooo+oo++ooo+oo$O+%ooo%o+oo%%o++o%%%oo%o+ooo+oo$O",
"Oo$$$$$%oo%%%o$%$$$%$$%%$$$%$$$O+$$%%$$%$$--$%%$$$$$$$$$$$$$$$$O",
".oo$$$$$$$$$$$$$$$$$$$$$$$$$$$oO.o$$$-$$$$--$$$$--$$$-$$---$$$oO",
".Oooooooo+ooo+oooooooooooooooOOO.Oooo++o+++oooo$$$ooooo+++++ooOo",
".........@...@........O..OO..O.O.OOOO@.O.@@....OOO......@@@@OO.O",
".. X====;,;=;,===&&X&&=====X ..OOO X&==&&**&=&=&**&*XX*&X&&X ..O",
". X=,22223223322222222222,==X .OO X=,<:222222222::,<,=*&=,==X .o",
". =,2222333233322222333232<=XX.OO &,2222::::::2:22::,===<2<=&XOo",
"O =<===,,,==,,======,,,=,==<=XO+O =,==,;;,,,,;;====&&X*&&==,=XOo",
"O ==XXX&=&*&=&XXXXXX&=&X&XX== Oo. *=*&;&&=;=&XXXXXXXX XXXXX&= +o",
"O XXXX#X**X*&*###XXX*&*X*XXXX Oo. XX**=*X&=&XXXXXXXX#   ##XX* +o",
"O. #XX#X**XX*X#X###XX&*XXX # .Oo.. #X*&*XX&*X##X#### .   # ##.Oo",
"O. #XX#X**X**X#XX###X*XXX# # .Oo.. #X***XX&XX##X#### .   # # .Oo",
"O. ##X#X**X**X#XX# #X*XXX# # .Oo.. #XX&*XX&XX##X ##  .   # # .+o",
"O. ##X#X**X**X##X# #XXXXX  # .Oo..  #X&*XX*#X##X ## @.@  # # .+o",
"O. ##X#X**XX*X##X# #XXXXX# # .Oo..  #X&XXX*#X##X ## @.@    # .+o",
"O. ##X#XX*XX*X#X#  #XXX#X#   .+o..  #X*X#X*#X##X  # @.@ #  # .+o",
"O. # X#XXXX**X##X  #XX##X  # .+%..  #X*X#XX#X# #  # @.@    # .+o",
"O. # X#X*XXX*X# X  #XX###  # .+%..  #X*X#XX#X# #  # @..  @ # .oo",
"O.   X#X*XXX*X# #  #XX###    .o$O.  #X*X#XX#X# X    @.@  . # .+o",
"..   ##X*XXXXX# X  #XX###    .o$O.  #XXX#XX#X# X @  @.@  @   .+%",
".. # ##XX*XX*X# #  #XX###    .o%O.  #XXX#XX#X# X  # @..  @ # .o%",
"O. # ##XXXXXXX# #  ##X###    .ooO.  #XX##XX#X# #    @..  .@  .oo",
"O.   ##XX#XXXX# #   #X# #    .+oO.  #XX##XX#X# # @  @..  .@  .+o",
"O.    #XXXXXX## X   #X# #    .+o+.  #X###XX#X# # @  @.@  @@  .+%",
"O. #  #XX#XXX## #   #X###    .Oo+.  #X###X##X#   @  @..  .@  .o%",
"+.    #XXXXXX#  #   #X# #    .Oo+.  #X# #X####   @  @..  .@ @.+%",
"+.    #XX#XXX#  #   ### #    .+o+.  #X# #X##X#      @..@ .@ @.+o",
"+.    #XX#X#X## #  #### #    .+o+.  #X# #X##X#    @ @..@ .@ @.+o",
"+.    #XX#X#X##     ### #    .+o+.  #XX #X##X#    @ @.O@@.@ @.+o",
"+.    #XX#X#X#     #### #    .Oo+.  #XX ### ##     @@...@.@ @.Oo",
"+.    #XX#X#X#  #   #X# #    .O+o.  #XX  #X#X     @@@.O.@.@ @.+%",
"+.    #XX#X#X#  #   ### #    .O+o.  #XX  #X #     @ @.O...@ @.o%",
"+.    #XX#X#X#      #####    .Ooo.  #XX  ## #     @ @.O..O@ @.o%",
"+.    #X####X##     #####    .O%o.  #X#  X#       @ @.O...@ @.o%",
"o.    #X# ##X##     ### #    .O%o.   ##  X#      @  @.O..O@ @.+$",
"o.     X# ##X##     #X# #    .+oo.   #X# ##      @  @.OO.O@ @.o$",
"o.     X# ##X##     #X# #    .+oo.   #X# X#      @@ @.OO.O@ @.o$",
"o.     ## ##X#      #X# X#   .ooo.   ##  ##      @. @.OO.O@ @.o$",
"o.     ## ##X#      #X# X#   .o%o.   X#  #       @@ @.OO.O@ @.o$",
"o..    ## ##X#      #X# X#   .o%oO.  ##   @@    @@.@@.OO.O@@@.o$",
"o..       ####              ..%%oO.  ##  @..@@@ @@.@..OO.O.@.Oo$",
"$oo...@@..@@@.@.@.O..........o%$$ooO...OOOOOO.......O.OOOO..Oo$$",
"$$oooooOooOO+ooo+o+ooOOoOoooo$-$$$oo%%%%%%%%%oooooooo%%o%%%oo$$-",
"1-$$$$$$$$%o%%$$o$o$%oo$o%$$$--$1-$$---------$-$$$$-$------$$$--",
"-1114414444444411441141144411-$-1111444444411-11141444114444-4--",
"$$--11--111111---11--1--1111$$-$------111---11------------------",
"$$$$$$$$$$%%%$$$$$$$%%$$%%$$$$$-$---$$$$$$$$$$$$$$$$$$$$$$$$$$$$",
"oooo$ooooo+++oo%%%oooooooooooo%$$$$%oooooo$$o$ooooo$o$$$$$$ooooo",
"...............................+++..............................",
" ###   ######     ########  ###@@@@@@@@@@@@@@@@@@@@@@.....@@@@ #",
"## ######XXXX#######XX*#X####  @.@  ############      ...@      ",
"@@        #X#  @  # #XX#X      @.@      XX#     @ @....OO..@@@@@",
"@...@ @.  #X# @.@ #######  .@ @..@@@. @ #X   @ @@ ..O.O+O......@",
"....@ @@  #X# ...@# ##X##  @@ ...@@.. . ##   @@@.@....OO+.O.....",
".....@@@.  ## ....## #X## @.@ ...@..@ @@#    .@..@.O.OOo+O......",
"..@..@@@. ### @.@. # #X # @@ @@..@..@@.@##   .@..@...o+o++.O....",
"..@.@@.@.@ ## @.@.  ##X # @  @ ...@..@.@ # @ .@.....O+ooooO..O..",
"..@..@...@# # @...@ ### # @@ @ .+.@..@.@ # @ .@....O.+ooo+oO....",
"@.@..@.@.@##  ..@.@ # # # @. @....O....@## . . ..@..+o%oooOO.@.@",
"O...OOOOO.@@@..OOO..@.@.@..O..OOO+O+OO...@.O..OOO.OO++oo>o+++OO.",
"o+++ooooo+OO++oooooo++++OOO+++ooooo++++OOOO+OO+++++++oo%%%ooooo+"
};
