/* XPM */
static char *STARGR2[] = {
/* columns rows colors chars-per-pixel */
"128 128 74 1 ",
"  c #6F6F6F",
". c black",
"X c #5F4B37",
"o c #533F2F",
"O c #B34F4F",
"+ c #AF4747",
"@ c #875733",
"# c #BB5757",
"$ c #131313",
"% c #A73F3F",
"& c #4F3B23",
"* c #430000",
"= c #675333",
"- c #B7B7B7",
"; c #8B735B",
": c #000023",
"> c #000017",
", c #00003B",
"< c #670000",
"1 c #775F3F",
"2 c #00002F",
"3 c gray39",
"4 c gray31",
"5 c #5B5B5B",
"6 c gray34",
"7 c gray28",
"8 c gray23",
"9 c #434343",
"0 c gray42",
"q c gray50",
"w c #777777",
"e c #8B8B8B",
"r c #838383",
"t c #373737",
"y c gray67",
"u c #939393",
"i c #2F2F2F",
"p c #979797",
"a c #9F9F9F",
"s c #4B4B4B",
"d c #232323",
"f c #3F472B",
"g c #474F33",
"h c #A7A7A7",
"j c #272727",
"k c #774F2B",
"l c #373F27",
"z c #1F4317",
"x c #4B371B",
"c c #5F4323",
"v c #1B1B1B",
"b c #6F5743",
"n c gray70",
"m c #67533F",
"M c #0B0B0B",
"N c #533F1F",
"B c #3F832F",
"V c #2F6323",
"C c #CB6B6B",
"Z c #53573B",
"A c #836B57",
"S c #BF7B4B",
"D c gray75",
"F c #775F4B",
"G c #17330F",
"H c #7B634F",
"J c #9B633B",
"K c #574333",
"L c #27531B",
"P c #37732B",
"I c #0B1707",
"U c #BF5B5B",
"Y c #676B4F",
"T c #5B6347",
/* pixels */
"7777777sss777777777777777777779977777777777777777777777777777777777777sss777777777777777777777997777777sss7777777777777777777799",
"4ss4s446564s4444ss44s4s444444s99ss7ss4s444s7ss44ss4ss4sssssssss44ss4s46564s444444ss44s4s44444s994ss4s446564s4444ss44s4s444444s99",
"66656553035655556655656555555644666665550556555566556565555566666665653035655555566556565555564466656553035655556655656555555644",
"33 qeuuuuueeeuuueeuuququueer 35633 queeuueeuuueeeeuueqeueqqu 33333 qeuuuueeeueuuueeuuququeer 35633 qeuuuuueeeuuueeuuququueer 356",
"3 ruaynnnnnnyynnyynhahahhhueq 563 ruannnnnnhhhnnnnhnhahnhauuq 333 ruannnnnnyyynnnyynhahahhueq 563 ruaynnnnnnyynnyynhahahhhueq 56",
"3 eannnDnDnnDDnDnnDnnnnnnnhuqq553 eanyhhhynnnnyyhynnnnnnnnyaqq333 eannDnDnnDDDDnDnnDnnnnnnhuqq553 eannnDnDnnDDnDnnDnnnnnnnhuqq55",
"33rauuuaaaauuauuuuauaaaaauuaeq5553eypeuueueeuuuuueeueeuuepayuq3333rauuaaaauuaauuuuuauaaaauuaeq5533rauuuaaaauuauuuuauaaaaauuaeq55",
"53 qqreueurreurrreueeeeeerqee 5555quqwqqwqwwqqqqqwwqwwwqwwquu 3353 qqeueurreuerrrreueeeeerqee 5553 qqreueurreurrreueeeeeerqee 55",
"533 qqeueurqeuqqqqeqereerqq  36565  qwqqwqwwqqqqwwwqw wqwwqw 353533 qeueurqeueqqqqqeqereeqq  365533 qqeueurqeuqqqqeqereerqq  365",
"5333333 3 33  303300330 030 36456633333 3 330  033303300333 3345533333 3 33   0303300330 30 36455333333 3 33  303300330 030 3645",
"56444446535453464446446644464495674447464477466477744746444644955644446535453564644464466446449556444446535453464446446644464495",
"54999997447774979997997799979995699779979988977999999999999999955499997447774799799979977997999554999997447774979997997799979995",
"34499999999999999999999999999945349998999988999988999899888999453449999999999999999999999999994534499999999999999999999999999945",
"35444444464446444444444444444555354446646664444999444446666644543544444464446444444444444444455535444444464446444444444444444555",
"33333333303330333333335335533535355550353003333555333333000055353333333303330333333333353553353533333333303330333333335335533535",
"33 quuuupapupauuueeqeeuuuuuq 33555 qeuueerreueuerrerqqreqeeq 33533 quuupapupapuuuueeqeeuuuuq 33533 quuuupapupauuueeqeeuuuuuq 335",
"3 quannnnDnnDDnnnnnnnnnnnauuq 355 quahynnnnnnnnnyyahaureuauuq 343 quannnDnnDDnnnnnnnnnnnnauuq 353 quannnnDnnDDnnnnnnnnnnnauuq 35",
"3 uannnnDDDnDDDnnnnnDDDnDnhuqq355 eannnnyyyyyynynnyyauuuhnhueq543 uannnDDDnDDDDDnnnnnDDDnnhuqq353 uannnnDDDnDDDnnnnnDDDnDnhuqq35",
"5 uhuuuaaauuaauuuuuuaaauauuhuq565 uauuappaaaappuuuueeqreeuuauq545 uhuuaaauuaauuuuuuuuaaauuuhuq565 uhuuuaaauuaauuuuuuaaauauuhuq56",
"5 uuqqqeuereueqqqqqqeueqeqquu 543 rurepeeupueqqqqqqqq qqqqqeu 645 uuqqeuereueqqqqqqqqeueqqquu 545 uuqqqeuereueqqqqqqeueqeqquu 54",
"5 qqqqwqrrqrerwwwqqqrerqrqqqq 543 qqrrurqeueqqqqqqqqw   wwqqr 645 qqqwqrrqrerqqwwwqqqrerqqqqq 545 qqqqwqrrqrerwwwqqqrerqrqqqq 54",
"53 wqqwqrrqqrqwqwwwqqerqqq w 35433 wqrerqqerqwwqwwww 3   w ww35453 wqwqrrqqrqqqwqwwwqqerqq w 35453 wqqwqrrqqrqwqwwwqqerqqq w 354",
"53 wqqwqrrqrrqwqqwwwqrqqqw w 35433 wqrrrqqeqqwwqwwww 3   w w 35453 wqwqrrqrrqqqwqqwwwqrqqw w 35453 wqqwqrrqrrqwqqwwwqrqqqw w 354",
"53 wwqwqrrqrrqwqqw wqrqqqw w 35433 wqqerqqeqqwwq ww  3   w w 36453 wwwqrrqrrqqqwqqw wqrqqw w 35453 wwqwqrrqrrqwqqw wqrqqqw w 354",
"53 wwqwqrrqrrqwwqw wqqqqq  w 35433  wqerqqrwqwwq ww 030  w w 36453 wwwqrrqrrqqqwwqw wqqqq  w 35453 wwqwqrrqrrqwwqw wqqqqq  w 354",
"53 w qwqqqqrrqwwq  wqqwwq  w 36733  wqrqwqqwqw w  w 030    w 36453 w wqqqqrrqwqwwq  wqqww  w 36753 w qwqqqqrrqwwq  wqqwwq  w 367",
"53 w qwqrqqqrqw q  wqqwww  w 36733  wqrqwqqwqw w  w 033  0 w 34453 w wqrqqqrqwqw q  wqqww  w 36753 w qwqrqqqrqw q  wqqwww  w 367",
"53   qwqrqqqrqw w  wqqwww    34953  wqrqwqqwqw q    030  3 w 36453   wqrqqqrqwqw w  wqqww    34953   qwqrqqqrqw w  wqqwww    349",
"53 w  wqqwqqqww w   wqwww    35463  wqwwwqwwqw   0  033  30  34753 w wqqwqqqw ww w   wqww    35453 w  wqqwqqqww w   wqwww    354",
"63    wqqwqwqw  w   wqw w    35643  wqq  wqwq     000353030 036763   wqqwqwqw w  w   wqw     35663    wqqwqwqw  w   wqw w    356",
"63    wqqwqwqw  w   wqw w    35643  wqq  wq w     0 0353330 034763   wqqwqwqw    w   www     35663    wqqwqwqw  w   www w    356",
"63    wqqwqwqw  w   www w    35643  wqq  ww w     0 0353350 034763   wqqwqwqw w      wwww    35463    wqqwqwqw  w   www w    356",
"63    wqqwqwqw      wwwww    35443  wqw  qw       0 0353330 034763   wqwwwwqwwqw     wwww    35763    wqqwqwqw      wwwww    354",
"63    wqwwwwqww     wwwww    35743   ww  qw      0  0353350 036943   wqw wwqwwqw     www     35763    wqwwwwqww     wwwww    357",
"43    wqw wwqww     www w    35743    ew ww      0  0355350 034943    qw wwqwwww     wqw     36443    wqw wwqww     www w    357",
"43     qw wwqww     wqw w    36443   rur qw      00 0355350 034943    qw wwqwwqw     wqw     36443      qw wwqwq5q  wqw w 0 0364",
"43     qw wwqww     wqw w    36443   u9u ww      03 0355350 034943    ww wwqw w      wqw w   34443      ww w w  r   wqw qw0 0364",
"43     ww wwqw      wqw qw   34443   w0w w       00 0355350 034943    ww wwqw        wqw w   34743      ww w   0 0  wqw qw3 0344",
"43     ww wwqw      wqw qw   347453   q   00    0030035535000349433   ww wwqw        wqw w   34743 3    ww w   030  wqw qw6 3347",
"433    ww wwqw      wqw qw   347453   03 033000 0030335535303549433      wwww               33774333       w    0         4 6347",
"94453335555553333333535555335499944533355555533333335355553354994665335555553333333335355533549994465333555333333333535555837499",
"99447777777774444444477477744998994477777777744444444774777449989944777777774444444444774774499899444777777444444444477477i7t998",
"t8998888888889999998988888899988t8998888888889899998988888899988t8998888888898999999898888899988t899988888898999999898888id8t988",
"ttttiiiiiiitt8tttitiiittiiii8i88ttttiiiiiiitt8tttitiiittiiii8i88ttttiiiiiitt8tttttitiiittiii8i88tttttiiiiii8tttttitiiittivvjvi88",
"9888999977999997999999999999999998889999779999979999999999999999988899977999997979999999999999999999999999899999999878977jjjj988",
"9444444944444444447774474744444499974444669945d59499999944444444444444444494444447444447744747444444944444444477744747444iiii799",
"6533333633333333335553353533333363333333003530r05335665533333335533333333363333335333335533535333333633333333355533535337888t846",
"33w www0  www0 w  000ww w ww  ww678888889988898989988888888755733w www www0  www030 w  00ww w ww w4787777777778t877888748jvvjii5",
"0 www w wwwwq wwww   wwwqwwqwww 7zGGGGGGzzGGGzGzGzzGGGLGGGGz5484 www www w wwwwq 0 wwww  wwwqwwqw3tddddddddddddddddddddttdMMdMM9",
"33 00  3     0 w  030w  q wq    7llffk3fggflllllgfVVBrIrBVfl37j73 00  00  3     030 w  03w  q wq04diiiiiiiiiiiiii96iiiid4jMMdMM9",
"33003003 03  0 w 0333ww w ww 3007NccNrJNccNNxxxNcNNNkSrSkcck07j730030003003 03  030 w 033ww w ww04iiiiiiiiiii88740M69iii68dvdij5",
"33033303 00  0 w 0333w  w ww 0037lVBrIrBVfgffgfggggfPkBgZZTY 48430333033303 00  030 w 033w  w ww35tiiiiiiiiiiiiii963iiit3sMMd7t4",
"33333033000  0   0303 w w  w00 04KbmAqAbmFmmmFmFmmmmmmmbFH33q57533330333033000  030   030 w w  w3 7tttttttttttttttttttt9 sMM8tj6",
"33033030030 00 300303   w  w0   3 errereepeeepeprqqwwwwqrruu 55530330033030030 0030 30030   w  w33w ww wwww ww w wwwqwwq04983996",
"46566566566355555566655535535555465665655355535346477745530033546566556656656635565555566555355360rwrwrwrwrrwrwrwrwrwrwr 5556774",
"44444444444644644444446464664446444444466644444644444477777774444444444444444464444644444464646644777777777777777777777744464994",
"9779999777997799999997977777797999999997779777479979979999999999979777977999977799777799999979777978iiiiiiiiiiiiiiiiiii877777979",
"4444444464444664444444446646444744774446664443i344644644444444464444444644446466444444444646444744444444644446644444444466464447",
"55565665356653356655656533535664664466633366663666366366666666635556565356653533566556565353566455565665356653356655656533535664",
"33 qeuuuuueeeuuueeuuququueer 35633 queeuueeuuueeeeuueqeueqqq 33333 qeuuuueeeueuuueeuuququeer 35633 qeuuuuueeeuuueeuuququueer 356",
"3 ruaynnnnnnyynnyynhahahhhueq 563 ruannnnnnhhhnnnnhnhahnhauuq 333 ruannnnnnyyynnnyynhahahhueq 563 ruaynnnnnnyynnyynhahahhhueq 56",
"3 eannnDnDnnDDnDnnDnnnnnnnhuqq553 eanyhhhynnnnyyhynnnnnnnnyaqq333 eannDnDnnDDDDnDnnDnnnnnnhuqq553 eannnDnDnnDDnDnnDnnnnnnnhuqq55",
"33rauuuaaaauuauuuuauaaaaauuaeq5553eypeuueueeuuuuueeueeuuepayuq3333rauuaaaauuaauuuuuauaaaauuaeq5533rauuuaaaauuauuuuauaaaaauuaeq55",
"53 qqreueurreurrreueeeeeerqee 5555quqwqqwqwwqqqqqwwqwwwuwwquu 3353 qqeueurreuerrrreueeeeerqee 5553 qqreueurreurrreueeeeeerqee 55",
"533 qqeueurqeuqqqqeqereerqq  36565  qwqqwqwwqqqqwwwqw u7uwqw 353533 qeueurqeueqqqqqeqereeqq  365533 qqeueurqeuqqqqeqereerqq  365",
"5333333 3 33  303300330 030 36456633333 3 330  03330330r333 3345533333 3 33   0303300330 30 36455333333 3 33  303300330 030 3645",
"56444446535453464446446644464495674447464477466477744746444644955644446535453564644464466446449556444446535453464446446644464495",
"54999997447774979997997799979995699779979988977999999999999999955499997447774799799979977749999554999997447774979997997799979995",
"34499999999999999999999999999945349998999988999988999899888999453449999999999999999999999606994534499999999999994549999999999945",
"354444444644464444444444444445553544466466644449994444466666445435444444644464444444444445i5455535444444464446445i54444444444555",
"33333333303330333333335335533535355550353003333555333333000055353333333303330333333333353454353533333333303330336063335335533535",
"33 quuuupapupauuueeqeeuuuuuq 33555 qeuueerreueuerrerqqreqeeq 33533 quuupapupapuuuueeqeeuuuuq 33533 quuuupapupauuueeqeeuuuuuq 335",
"3 quannnnDnnDDnnnnnnnnnnnauuq 355 quahynnnnnnnnnyyahaureuauuq 343 quannnDnnDDnnnnnnnnnnnnauuq 353 quannnnDnnDDnnnnnnnnnnnauuq 35",
"3 uannnnDDDnDDDnnnnnDDDnDnhuqq355 eannnnyyyyyynynnyyauuuhnhueq543 uannnDDDnDDDDDnnnnnDDDnnhuqq353 uannnnDDDnDDDnnnnnDDDnDnhuqq35",
"5 uhuuuaaauuaauuuuuuaaauauuhuq565 uepeeupueqqqqqqqqqq qqquuauq545 uhuuaaauuaauuuuuuuuaaauuuhuq565 uhuuuaaauuaauuuuuuaaauauuhuq56",
"5 uuqqwuereueqqqqqqqe0640qquu 543 rrurqeueqqqqqqqqqqw   wqqeu 645 uuqqeuereueqqqqqqqqeueqqquu 545 uuqqqeuereueqqqqqqeueqeqquu 54",
"5 qqqqwrrqrerqqwwqqqeCrUCeqqq 543 qrerqqerqwwqqqwqww 3   wqqr 645 qqqwqrrqrerqqwwwqqqrerqqqqq 545 qqqqwqrrqrerwwwqqqrerqrqqqq 54",
"53 wqqwrrqqrqqqwwwwqeayhae w 35433 rrrqqeqqwwqqwe0ew 3   w ww35453 q 300330003300303533333   35453 wqqwqrrqqrqwqwwwqqerqqq w 354",
"53 wq 3033000330303533333  w 35433 qerqqeqqwwqqwwuq  3   w w 35453  54454455644544646445545  35453 wqqwqrrqrrqwqqwwwqrqqqw w 354",
"53 w 549889988889988887845 w 35433 qerqqrwqwwqww0ww 030  w w 36453 6499997477799979797447443 35453 wwqwqrrqrrqwqqw wqrqqqw w 354",
"53rw378ijjjijjjjiijjjjii873w 35433 qeqqqrwqwwqqw00  030  w w 36453 6999toKKt9toKKt9toKKt9446 35453 wwqwqrrqrrqwwqw wqqqqq  w 354",
"5qiu688998i9898888888888i85w 35433 qrqwqrwqwwqww  w 030 w  w 36453 39tto=mmKto=mmKto=mmKt446 35453 wwqwqrrqqrqqqwwqw wqqqqqw 354",
"53ew38977i.7i79.99884889985  36433 qrqwqqwqw wqw  w 030    w 36453 349KXFAFmKXFAFmKXFAFmK443 36453 wwqwqqrqqrqqqwqw  wqqqwqw 364",
"53 w399q...4.4..998.8595993w 36733 qrqwqqwqw wqw  w 033    w 36453 064i7@+67i7@+57i7@+57i453 36753 w qwqqqqrrqwqwwq  wqqwwq  367",
"53 w388i........td.98454975w 36733 qrqwqqwqw qw     030  0 w 34453 054i84#O7i84#O7i84#O7i450 36753 w qwqrqqqrqwqw q  wqqwww  367",
"53  545wh...:,2>...4885r975  34953 qqqwqqwqw qw  0  030  3 w 36453 0345t45#%it45#%it45#%6430 34953   qwqrqqqrqwqw w  wqqwww  349",
"33  5497 .$.$vdv*.09880u075  34953 qqqwqqwqw qw   w 033  0   36733 0394KmbmXoKmFbmoKmFbm4930 34933   wwqrqqqqqwqw q  wqqwww  349",
"33 w54976$d$.....r460qu.-r3  34753 qqwwqqwqw ww     033w 0 w 34733 0394XbbmXKXbHmmKXbFbm493 w04733 w wwqqrqqrqwqw w  wqqwww  347",
"53 w5497i.$.j.*<*.di83h-573  34453 qqwwqqqqw ww  0  03 rw30  34453 034&KXbmXoX1AmXoXbFbX&43 r04453 w wwqqqqqqqwqw w  wwqwww  344",
"53  54t7d..jqj..d0694p6rp73  36453 qwwwqqqqw wq  0  03w5r30  36453 034&KXHmXoXbAmXoXbFbX&43rir6453   wwqqwqqrq qw w   wqw w  364",
"53 q04ti..j39t..0499w40990   36463 qwwwqweqw  w  0  03 rw00  36753 r34oKb;FXoXFHbXoXbFmKo53 u06453    wqqqqqew qw q   wqw w  364",
"53 q048trs0793d.9994499474w  35463 qw wqe5uw  w  0  035w030  34753 004oKHmAXKXbHbXKXbHmKo503 35453 w  wqqwqepr ww w   wqw w  354",
"63 u 5807877773d7777988745rw 35463 qw wqrurw  w     0335030 036763 304oXmomXKXFAbXKXFFbXo503535433    wqqqqp5p w  w   wqwwqw 354",
"63 rq 756755666q666648t65 rw 36463 qw wq r w  w   0 0333 30 036463 334oKAFAXoXbHbXoXbHbXo50 3064 0    wqqwqrpr w  w   wwwr5r 364",
"63 wq 60040uuuauuauuw64 qauw 36463 qq wq 0 w  w   0 0353030 036463 0345XF;bXKXbHbXKXbHbX440  3646ww   wqqwq q wqw w  wwwwwew 364",
"63  50t0 4waauuuquuur380rur  36463 qq www ww  w    00333030 036463 0594XFHbXoXbHbXoXmHmX493w 364trqw  wqqwq 0 wqw     www0w0 364",
"63  35i00iwueqqq qqqw685wqw  35463 qq  wqwq       000353030 035463 0594KbFbXoKbFbXoKmFmX4930 3546 w   wqqwqw w w     wwww000 354",
"63 359t66d3 w w     w6t40    3564wqwq  wq w       0 0303330 036763 054i7@O59i7@O59i7@O59i430 35603    wqqwqwww w  w   wqw 0  356",
"63 69jd77d6    r    58i895   3564q3qq  ww w   w   w 00w0330 034763 054i84OO4i84OO4i84OO4i430 35663    wqqwqwqw    w   www w  356",
"634idj.iiv833 ptp   5v..i83  3544wqww  qw  q  w  q6q0 w 350 034763 034it95+%it95+%it95+%i430 35463    wqqwqwqw w    w wwwww  354",
"635sd...v..t6wqh   5sd...46  35740w0w  qw e7e    wrw0q6q030 034763 005ZXmFmXZXmFmXZXmFmXZ30  35763    wqwwwwqwwqw  wqwwwwww  357",
"43 6i...v..86w0w3   38ti756  3574030qw ww wew    0w 0wr 050 036943 0054ZXXXZ4ZXXXZ4ZXXXZ430w 35743    wqw wwqwwqw  q5qwww w  357",
"43 ws.$ddit40w050   w56  w0  36443 wqw qw 0w0    00 00 5350 034943 w0064ZZZ464ZZZ464ZZZ46 ww 36443     ww wwqwwww  wqwwqw w  364",
"43 rw7..d..5qw00    wquaae   36443 ww  ww  0  w  03 0355350 034943 qwww03530 03530 03530 qqr 36443  w  wqwwwqwwqw  0 0wqw w  364",
"43 ur0..i..0u 0     wqw qw   34443 qw  w         00 0355350 034943 eueew000wrw000wrw000wquur 34443 wqw e6ewwqw w    3 wqw qw 344",
"43 rpw45594wu       wqw qw   34743 ww   00      00300355350 034943 reupeeeeeueeeeeuueeeeuueq 34743 q5q wewwwqw      0 wqw qw 347",
"433wuaruurrar       wqw qw   347453  ww   00    0030035535000349433wrreerrreerrrqrrrqrrrreqw 347433wrw 0 0wwqw        wqw qw 347",
"433 ruaaauauw               3377453  ww  033000 0030335535303549433      wwww               3377433       wwww              3377",
"94433303300033000353333333333479944533355555533333335355553354999443300330003300303533333333347994433300330003030353333333333479",
"99444445445564446464455454444989994477777777744444444774777449989944445445564454464644554444498999444445445564446464455454444989",
"t8999999997477994949744947999889t8998888888889899998988888899988t8999999974777999494974497999889t8999999997477994949744947999889",
"8tttiitiiiiiiiittiittittiiitt898ttttiiiiiiitt8tttitiiittiiii8i888tttitiiiiiiiiiittiittittiitt8988tttiitiiiiiiiittiitt978iiitt898",
"9988tt88tttttt888tt88t88tttt9989888888ttt888tt8888888888888888889988t88ttttttt8888tt88t88ttt99899988tt88tttttt888tt885i4tt769989",
"999999999977799999997799779999989888999999999999999999999999999999999999977799999999977997999998999999999977799999997457776i4998",
"44449444446664477744444444444479999744444499494444494999999444444444944446664444777444444444447944449444446664477744444444469479",
"33333333333333333333333333333336663333333333333333333333333333333333333333333333333333333333333333333333333333333333333333333336",
" www   wwwwww     wwwwwwww  www0000000000000000000000333330000 wwwqw  wwwwww w     wwwwwww  wwwr www   wwwwww     wwwwwwww  www0",
"ww wwwwwwqqqqwwwwwwwqqrwqwwww  030 qeqwwwwwwwwwww     3330      0q0qwwwwqqqqwwwwwwwwwqqrwwwww  www wwwwwwqqqqwwwwwwwqqrwqwwww  0",
"00        wqw  0  w wqqwq      030 q5q   qqw      033335533000000weq     wqw w  0  w wqqw       00        wqw  0  w wqqwq      0",
"03330 03  wqw 030 wwwwwww  30 033000q3 0 wq   w 0 3353565333333030ww003  wqw w 030 wwwwww  30 0303330 03  wqw 030 wwwwwww  30 03",
"33330 00  wqw 3330w wwqww  00 33300033 3 ww  wqw00333355635333333333000  wqw w 3330w wwqw  00 3333330 00  wqw 3330w wwqww  00 33",
"333330003  ww 3333ww wqww 030 33303330 00w   q0q303535546533333333333003  ww w 3333ww wqw 030 33333330003  ww 3333ww wqww 030 33",
"330330003 www 0303 w wq w 00 003303330030ww  wqw303334646635333333033003 www   0303 w wq  00 003330330003 www 0303 w wq w 00 003",
"3303003030 ww 0303  wwq w 0  0 333033030 w 0 3033333564444533533330303030 ww 300303  wwq  0  0 33303003030 ww 0303  wwq w 0  0 3",
"3303303330w w 03330 www w 00 0 363033030 w 0 3033335364446453333330333330w w 0003330 www  00 0 33303303330w w 03330 www w 00 0 3",
"0303303030ww  33030 w w w 03 03333533330ww 3 3 33033647444553030030333030ww  3033030 w w  03 0330303303030ww  33030 w w w 03 033",
"53335555530003355533030303353355565655333035335553556644s46665535333555530003333555330303335335553335555530003355533030303353355",
"46664444465566444444666655566644444666655556556666666447774444464666444465566664444446666556664746664444465566444444666655566644"
};
