/* XPM */
static char *STEP5[] = {
/* columns rows colors chars-per-pixel */
"128 64 19 1 ",
"  c #2B230F",
". c #332B13",
"X c #3F2F17",
"o c #232323",
"O c #2F2F2F",
"+ c #373737",
"@ c #43331B",
"# c #4B371B",
"$ c #533F1F",
"% c #4F3B23",
"& c #533F2F",
"* c #5F4323",
"= c #5B472B",
"- c #574333",
"; c #6B4727",
": c #774F2B",
"> c #7F532F",
", c #875733",
"< c #8F5F37",
/* pixels */
"++++++++++++++++++++++++++++++++++++++++++++++++++++++++++++++++++++++++++++++++++++++++++++++++++++++++++++++++++++++++++++++++",
"++++++++++++++++++++++++++++++++++++++++++++++++++++++++++++++++++++++++++++++++++++++++++++++++++++++++++++++++++++++++++++++++",
"++++++++++++++++++++++++++++++++++++++++++++++++++++++++++++++++++++++++++++++++++++++++++++++++++++++++++++++++++++++++++++++++",
"++++++++++++++++++++++++++++++++++++++++++++++++++++++++++++++++++++++++++++++++++++++++++++++++++++++++++++++++++++++++++++++++",
"OOOOOOOOOOOOOOOOOOOOOOOOOOOOOOOOOOOOOOOOOOOOOOOOOOOOOOOOOOOOOOOOOOOOOOOOOOOOOOOOOOOOOOOOOOOOOOOOOOOOOOOOOOOOOOOOOOOOOOOOOOOOOOOO",
"OOOOOOOOOOOOOOOOOOOOOOOOOOOOOOOOOOOOOOOOOOOOOOOOOOOOOOOOOOOOOOOOOOOOOOOOOOOOOOOOOOOOOOOOOOOOOOOOOOOOOOOOOOOOOOOOOOOOOOOOOOOOOOOO",
"OOOOOOOOOOOOOOOOOOOOOOOOOOOOOOOOOOOOOOOOOOOOOOOOOOOOOOOOOOOOOOOOOOOOOOOOOOOOOOOOOOOOOOOOOOOOOOOOOOOOOOOOOOOOOOOOOOOOOOOOOOOOOOOO",
"OOOOOOOOOOOOOOOOOOOOOOOOOOOOOOOOOOOOOOOOOOOOOOOOOOOOOOOOOOOOOOOOOOOOOOOOOOOOOOOOOOOOOOOOOOOOOOOOOOOOOOOOOOOOOOOOOOOOOOOOOOOOOOOO",
"    ....XXXXXXXXXXXXXXXX....    oooo    ....XXXX####&&&&----####    ####----&&&&####XXXX....            ....XXXXXXXXXXXX....    ",
"    ....XXXXXXXXXXXXXXXX....    oooo    ....XXXX####&&&&----####    ####----&&&&####XXXX....            ....XXXXXXXXXXXX....    ",
"    ....XXXXXXXXXXXXXXXX....    oooo    ....XXXX####&&&&----####    ####----&&&&####XXXX....            ....XXXXXXXXXXXX....    ",
"    ....XXXXXXXXXXXXXXXX....    oooo    ....XXXX####&&&&----####    ####----&&&&####XXXX....            ....XXXXXXXXXXXX....    ",
"    @@@@%%%%****;;;;;;;;====%%%%    @@@@%%%%;;;;::::,,,,<<<<::::    ::::<<<<,,,,::::;;;;%%%%XXXX    %%%%====;;;;;;;;****%%%%XXXX",
"    @@@@%%%%****;;;;;;;;====%%%%    @@@@%%%%;;;;::::,,,,<<<<::::    ::::<<<<,,,,::::;;;;%%%%XXXX    %%%%====;;;;;;;;****%%%%XXXX",
"    @@@@%%%%****;;;;;;;;====%%%%    @@@@%%%%;;;;::::,,,,<<<<::::    ::::<<<<,,,,::::;;;;%%%%XXXX    %%%%====;;;;;;;;****%%%%XXXX",
"    @@@@%%%%****;;;;;;;;====%%%%    @@@@%%%%;;;;::::,,,,<<<<::::    ::::<<<<,,,,::::;;;;%%%%XXXX    %%%%====;;;;;;;;****%%%%XXXX",
"    ########$$$$============%%%%    ####$$$$;;;;::::>>>>,,,,;;;;    ;;;;,,,,>>>>::::;;;;%%%%XXXX    %%%%============$$$$%%%%XXXX",
"    ########$$$$============%%%%    ####$$$$;;;;::::>>>>,,,,;;;;    ;;;;,,,,>>>>::::;;;;%%%%XXXX    %%%%============$$$$%%%%XXXX",
"    ########$$$$============%%%%    ####$$$$;;;;::::>>>>,,,,;;;;    ;;;;,,,,>>>>::::;;;;%%%%XXXX    %%%%============$$$$%%%%XXXX",
"    ########$$$$============%%%%    ####$$$$;;;;::::>>>>,,,,;;;;    ;;;;,,,,>>>>::::;;;;%%%%XXXX    %%%%============$$$$%%%%XXXX",
"    XXXX@@@@####%%%%%%%%%%%%@@@@    XXXX####%%%%****;;;;;;;;$$$$    $$$$;;;;;;;;********####XXXX    @@@@%%%%%%%%%%%%########XXXX",
"    XXXX@@@@####%%%%%%%%%%%%@@@@    XXXX####%%%%****;;;;;;;;$$$$    $$$$;;;;;;;;********####XXXX    @@@@%%%%%%%%%%%%########XXXX",
"    XXXX@@@@####%%%%%%%%%%%%@@@@    XXXX####%%%%****;;;;;;;;$$$$    $$$$;;;;;;;;********####XXXX    @@@@%%%%%%%%%%%%########XXXX",
"    XXXX@@@@####%%%%%%%%%%%%@@@@    XXXX####%%%%****;;;;;;;;$$$$    $$$$;;;;;;;;********####XXXX    @@@@%%%%%%%%%%%%########XXXX",
"    ........XXXXXXXXXXXXXXXX....    ....XXXX########$$$$####XXXX    XXXX####$$$$########XXXX....    ....XXXXXXXXXXXXXXXX........",
"    ........XXXXXXXXXXXXXXXX....    ....XXXX########$$$$####XXXX    XXXX####$$$$########XXXX....    ....XXXXXXXXXXXXXXXX........",
"    ........XXXXXXXXXXXXXXXX....    ....XXXX########$$$$####XXXX    XXXX####$$$$########XXXX....    ....XXXXXXXXXXXXXXXX........",
"    ........XXXXXXXXXXXXXXXX....    ....XXXX########$$$$####XXXX    XXXX####$$$$########XXXX....    ....XXXXXXXXXXXXXXXX........",
"                                                                                                                                ",
"                                                                                                                                ",
"                                                                                                                                ",
"                                                                                                                                ",
"++++++++++++++++++++++++++++++++++++++++++++++++++++++++++++++++++++++++++++++++++++++++++++++++++++++++++++++++++++++++++++++++",
"++++++++++++++++++++++++++++++++++++++++++++++++++++++++++++++++++++++++++++++++++++++++++++++++++++++++++++++++++++++++++++++++",
"++++++++++++++++++++++++++++++++++++++++++++++++++++++++++++++++++++++++++++++++++++++++++++++++++++++++++++++++++++++++++++++++",
"++++++++++++++++++++++++++++++++++++++++++++++++++++++++++++++++++++++++++++++++++++++++++++++++++++++++++++++++++++++++++++++++",
"OOOOOOOOOOOOOOOOOOOOOOOOOOOOOOOOOOOOOOOOOOOOOOOOOOOOOOOOOOOOOOOOOOOOOOOOOOOOOOOOOOOOOOOOOOOOOOOOOOOOOOOOOOOOOOOOOOOOOOOOOOOOOOOO",
"OOOOOOOOOOOOOOOOOOOOOOOOOOOOOOOOOOOOOOOOOOOOOOOOOOOOOOOOOOOOOOOOOOOOOOOOOOOOOOOOOOOOOOOOOOOOOOOOOOOOOOOOOOOOOOOOOOOOOOOOOOOOOOOO",
"OOOOOOOOOOOOOOOOOOOOOOOOOOOOOOOOOOOOOOOOOOOOOOOOOOOOOOOOOOOOOOOOOOOOOOOOOOOOOOOOOOOOOOOOOOOOOOOOOOOOOOOOOOOOOOOOOOOOOOOOOOOOOOOO",
"OOOOOOOOOOOOOOOOOOOOOOOOOOOOOOOOOOOOOOOOOOOOOOOOOOOOOOOOOOOOOOOOOOOOOOOOOOOOOOOOOOOOOOOOOOOOOOOOOOOOOOOOOOOOOOOOOOOOOOOOOOOOOOOO",
"    ....XXXXXXXXXXXXXXXX....        ....XXXXXXXXXXXXXXXX....        ....XXXXXXXXXXXXXXXX....    oooo    ....XXXXXXXXXXXX....    ",
"    ....XXXXXXXXXXXXXXXX....        ....XXXXXXXXXXXXXXXX....        ....XXXXXXXXXXXXXXXX....    oooo    ....XXXXXXXXXXXX....    ",
"    ....XXXXXXXXXXXXXXXX....        ....XXXXXXXXXXXXXXXX....        ....XXXXXXXXXXXXXXXX....    oooo    ....XXXXXXXXXXXX....    ",
"    ....XXXXXXXXXXXXXXXX....        ....XXXXXXXXXXXXXXXX....        ....XXXXXXXXXXXXXXXX....    oooo    ....XXXXXXXXXXXX....    ",
"    @@@@%%%%****;;;;;;;;====%%%%    @@@@%%%%****;;;;;;;;====%%%%    @@@@%%%%****;;;;;;;;====%%%%    %%%%====;;;;;;;;****%%%%XXXX",
"    @@@@%%%%****;;;;;;;;====%%%%    @@@@%%%%****;;;;;;;;====%%%%    @@@@%%%%****;;;;;;;;====%%%%    %%%%====;;;;;;;;****%%%%XXXX",
"    @@@@%%%%****;;;;;;;;====%%%%    @@@@%%%%****;;;;;;;;====%%%%    @@@@%%%%****;;;;;;;;====%%%%    %%%%====;;;;;;;;****%%%%XXXX",
"    @@@@%%%%****;;;;;;;;====%%%%    @@@@%%%%****;;;;;;;;====%%%%    @@@@%%%%****;;;;;;;;====%%%%    %%%%====;;;;;;;;****%%%%XXXX",
"    ########$$$$============%%%%    ########$$$$============%%%%    ########$$$$============%%%%    %%%%============$$$$%%%%XXXX",
"    ########$$$$============%%%%    ########$$$$============%%%%    ########$$$$============%%%%    %%%%============$$$$%%%%XXXX",
"    ########$$$$============%%%%    ########$$$$============%%%%    ########$$$$============%%%%    %%%%============$$$$%%%%XXXX",
"    ########$$$$============%%%%    ########$$$$============%%%%    ########$$$$============%%%%    %%%%============$$$$%%%%XXXX",
"    XXXX@@@@####%%%%%%%%%%%%@@@@    XXXX@@@@####%%%%%%%%%%%%@@@@    XXXX@@@@####%%%%%%%%%%%%@@@@    @@@@%%%%%%%%%%%%########XXXX",
"    XXXX@@@@####%%%%%%%%%%%%@@@@    XXXX@@@@####%%%%%%%%%%%%@@@@    XXXX@@@@####%%%%%%%%%%%%@@@@    @@@@%%%%%%%%%%%%########XXXX",
"    XXXX@@@@####%%%%%%%%%%%%@@@@    XXXX@@@@####%%%%%%%%%%%%@@@@    XXXX@@@@####%%%%%%%%%%%%@@@@    @@@@%%%%%%%%%%%%########XXXX",
"    XXXX@@@@####%%%%%%%%%%%%@@@@    XXXX@@@@####%%%%%%%%%%%%@@@@    XXXX@@@@####%%%%%%%%%%%%@@@@    @@@@%%%%%%%%%%%%########XXXX",
"    ........XXXXXXXXXXXXXXXX....    ........XXXXXXXXXXXXXXXX....    ........XXXXXXXXXXXXXXXX....    ....XXXXXXXXXXXXXXXX........",
"    ........XXXXXXXXXXXXXXXX....    ........XXXXXXXXXXXXXXXX....    ........XXXXXXXXXXXXXXXX....    ....XXXXXXXXXXXXXXXX........",
"    ........XXXXXXXXXXXXXXXX....    ........XXXXXXXXXXXXXXXX....    ........XXXXXXXXXXXXXXXX....    ....XXXXXXXXXXXXXXXX........",
"    ........XXXXXXXXXXXXXXXX....    ........XXXXXXXXXXXXXXXX....    ........XXXXXXXXXXXXXXXX....    ....XXXXXXXXXXXXXXXX........",
"                                                                                                                                ",
"                                                                                                                                ",
"                                                                                                                                ",
"                                                                                                                                "
};
