/* XPM */
static char *STONE[] = {
/* columns rows colors chars-per-pixel */
"128 64 93 2 ",
"   c #272727",
".  c gray16",
"X  c gray17",
"o  c #2D2D2D",
"O  c gray18",
"+  c #2F2F2F",
"@  c gray19",
"#  c #313131",
"$  c #323232",
"%  c gray20",
"&  c #343434",
"*  c #353535",
"=  c gray21",
"-  c #373737",
";  c gray22",
":  c #393939",
">  c #3A3A3A",
",  c gray23",
"<  c #3C3C3C",
"1  c gray24",
"2  c #3E3E3E",
"3  c #3F3F3F",
"4  c gray25",
"5  c #414141",
"6  c gray26",
"7  c #434343",
"8  c #444444",
"9  c gray27",
"0  c #464646",
"q  c gray28",
"w  c #484848",
"e  c #494949",
"r  c gray29",
"t  c #4B4B4B",
"y  c #4C4C4C",
"u  c gray30",
"i  c #4E4E4E",
"p  c gray31",
"a  c #505050",
"s  c #515151",
"d  c gray32",
"f  c #535353",
"g  c gray33",
"h  c #555555",
"j  c #565656",
"k  c gray34",
"l  c #585858",
"z  c gray35",
"x  c #5A5A5A",
"c  c #5B5B5B",
"v  c gray36",
"b  c #5D5D5D",
"n  c gray37",
"m  c #5F5F5F",
"M  c #606060",
"N  c gray38",
"B  c #626262",
"V  c gray39",
"C  c #646464",
"Z  c #656565",
"A  c gray40",
"S  c #676767",
"D  c #686868",
"F  c DimGray",
"G  c #6A6A6A",
"H  c gray42",
"J  c #6C6C6C",
"K  c #6D6D6D",
"L  c gray43",
"P  c #6F6F6F",
"I  c gray44",
"U  c #717171",
"Y  c #727272",
"T  c gray45",
"R  c #747474",
"E  c gray46",
"W  c #767676",
"Q  c #777777",
"!  c gray47",
"~  c #797979",
"^  c gray48",
"/  c #7B7B7B",
"(  c #7C7C7C",
")  c gray49",
"_  c #7E7E7E",
"`  c gray50",
"'  c #818181",
"]  c #838383",
"[  c gray52",
"{  c #868686",
"}  c #898989",
"|  c #8D8D8D",
" . c gray56",
/* pixels */
"l N y = q 0 d s f l 0 h s f h f c c F D V P y y s k M A C x w y t e M V N 8 m y c z d k l M h a x x 6 D p g u t k b y k 2 : i p j l t p b g B k V n n Z n D M V j L Z A m Z m r n 6 0 g 4 d r 4 c c F D V P y y l N y = q 0 d s c z d k l M h a V n n Z n D M V ",
"k S y * q q e p d N e g S j f s e b B C M m i e h k V x z d 7 e p f h N x w h t s s d u d m l u v u t t 9 z 5 b g z g d 5 - y h p z g s V Z H k g B n N N A V V N A G L z m v z N u e p q t w - e b B C M m i e k S y * q q e p s s d u d m l u g B n N N A V V ",
"x C f < q t r y a z r r v l k k x m M m G m p t s h x Z M u q t e u j l r i n y f z c l f c j l v t 6 i l Z n g l k k M 8 h d g c z j d z G z n V D F V S V S M I N J F B v G a b u u v u w v O x m M m G m p t x C f < q t r y f z c l f c j l V D F V S V S M ",
"k v y = q s 7 d 4 3 0 H D b h v g x G C N s s a t f h b M g p a w e d V u p b q u d l v u j s k v u t y d 0 h n z u w c b k 9 b f G z b B K N h u k V C Z Z n D G m K D Z K Z n v g r M a s N * g x G C N s s a k v y = q s 7 d u d l v u j s k u k V C Z Z n D ",
"c h e : i s 9 h g j 2 H b b h k f B G S V x g s y f x b C a i s y 0 j m s s V 0 d z k h f s h a v p 0 0 g u s g c 9 i j G n v V J M z n C Z j Y n k N B M P A H Z K F D l m m z N k w v i r m 8 f B G S V x g s c h e : i s 9 h d z k h f s h a n k N B M P A H ",
"s l 6 4 e e q y D n d V M c k h s v F n M b h e s h k b M c p e y u p h t g g i p k f n u a s k k g 7 e u w p d x c s z Z m B x V c V z I H b G J P M S Z G F T D I P A l x N u N x t b 9 d j r s v F n M b h e s l 6 4 e e q y p k f n u a s k J P M S Z G F T ",
"M d 2 2 q 0 r r c d q M d c k s j h F G k V k w u f k N G r p w q r p a z p d d t z t x h j v f l e & - 7 7 u n V z a l Y W B J g g g n m n z M c G G V A F K V Z N A A n z J q z e r z r p z s j h F G k V k w M d 2 2 q 0 r r t z t x h j v f c G G V A F K V ",
"b h 8 3 t 8 g x i h u n t l k p N x Z N C j s 8 q s b N V p e 8 w w w u b u h p i k f M l h b k k 1 4 p h a r d V h k c I M p l g z z v l m B n V S G V Z K A N V s S A v n V h g j 8 d y y B d N x Z N C j s 8 b h 8 3 t 8 g x i k f M l h b k V S G V Z K A N ",
"l i 0 9 6 a p l u n r K v b k p v b F D M b s 7 e s b N V k u 7 7 9 u r u u a t e a c l k p j s s e q 7 j k a k v d V N I k b y z l M V m c n M S V B V V J N v C m D k V b V j k r 0 u w y i g v b F D M b s 7 l i 0 9 6 a p l e a c l k p j s S V B V V J N v ",
"b h w 7 0 a d k d j y J x Z k s x z H D m M p 7 r s h b v m r 7 0 q g q t l 9 i t g h j v d n s s q e w u z h p z h x p j N k s V h Z k N d n Z V V D V B Z b Z M Z M A v z m w m d , s 9 t r h x z H D m M p 7 b h w 7 0 a d k t g h j v d n s V V D V B Z b Z ",
"f f w 9 7 j f N v b z m C S h f g z J H b B i 7 i s h c M h q 7 t q f d u a 0 e q p k s c p g j u 7 0 7 w e e k z j q g u B b Z M Y z b m n N Z Z c H S Z D z V A N b M V c a h k s 7 9 u q 1 g g z J H b B i 7 f f w 9 7 j f N q p k s c p g j Z c H S Z D z V ",
"x f i > g i u x h N I ) n C k k s b H J V x f q q f v c M u y q 9 d u n a r 7 u r s k d h p h m s e y 8 9 0 t a z z g k k n z g v c x B B V Z H m Z S G C Z J G x N k h g n A m x d e 3 t 3 1 r s b H J V x f q x f i > g i u x r s k d h p h m m Z S G C Z J G ",
"C f i 9 6 a p l g v K K D B x s v b F D M k s 9 7 s c N V k u 9 7 9 u r u u a t e a c l k p j s C 7 s t 0 t g p h j u g c l g b g p p v y A V n D Z Z F N L Y B c k h Z l N D a V m 8 w t 0 2 u v b F D M k s 9 C f i 9 6 a p l e a c l k p j s D Z Z F N L Y B ",
"C x r 7 0 a d k z A F R T S h p x z H C v x i 5 r h h b v m r 5 0 q g q t l 9 i t g h j v d n s g 2 p 0 9 i e h x l e a c p a l a i w 6 % v v V c M M V K J D V N v l z h m k q x l e u 6 ; , s x z H C v x i 5 C x r 7 0 a d k t g h j v d n s c M M V K J D V ",
"a k u 9 7 j f N g f c D J M f f g z J Z x v y 9 p h f c M h 8 9 t q f d u a 0 e q p k s c p g j j 7 6 q 5 0 9 p z p r g r 0 g x q h t 1 z v v Y d V n M K U S A x n n l f h a h k i w w r 0 - 5 g z J Z x v y 9 a k u 9 7 j f N q p k s c p g j d V n M K U S A ",
"c k y > g i u x l d J G U l k h s b H P m k f q y k x b M u y q 9 d u n a r 7 u r s k d h p h m M 8 6 3 6 y u p l a c a u 6 r x - 5 i 7 h l z F N h N n A n K d i f m l a h a r h u 0 3 q 3 - 0 s b H P m k f q c k y > g i u x r s k d h p h m N h N n A n K d ",
"c B i 5 z s r p w Z D / V l k h l Z F U n b f w e s k g g g p w e 6 s k q h 6 u 9 x m h k j g g f 7 : , d f 9 h v u g D u 9 y 0 w 6 a j j N n c C M d p s V 0 t j f l k v x f q N m 4 q e < 3 w l Z F U n b f w c B i 5 z s r p 9 x m h k j g g C M d p s V 0 t ",
"i B 0 7 u u d u f C T U C p k h v m H Y b x s w e j h k x k g w t 0 u l y a w r r h b p j v 9 s k 1 : , & f l h c h h p r e p p 0 z z z y k Z d x r t a k l 0 : h a A b x M u j n a 5 9 t : < 2 v m H Y b x s w i B 0 7 u u d u r h b p j v 9 s x r t a k l 0 : ",
"c m t ; p t t d p N / M J s k f f M G G K h h 8 t w k f v k t 8 w y 7 c a i i e 0 p h a j n f p u 7 : 2 9 e e b l k q g p q q x u p g k p g n x s e g g d B N z x v m l h k s w g i , 9 q : > 4 f M G G K h h 8 c m t ; p t t d 0 p h a j n f p s e g g d B N z ",
"v S u h u z r g k M W b c l k s c M A P m c h y t f x g N e g y p 8 e g p e y u 9 d c p g m c j u > 8 7 9 0 t d c j g k 5 e j y q 9 d u c z f f i 6 = G e E j N v g z c u e 9 i d d : > 9 % X 1 c M A P m c h y v S u h u z r g 9 d c p g m c j i 6 = G e E j N ",
"l B q t u b c c m D A H p l h f x b K B B c h q t h h m N f g q u q g p a t e e 0 f l h g l s d d - & : 0 t g e z f u g u 6 8 y p r a v a t z n u l < d p l g p d h f f p q 8 t p p ; 3 4 * - * x b K B B c h q l B q t u b c c 0 f l h g l s d u l < d p l g p ",
"h C t 9 u k k l d v P E M B k x z B U J B v h d e p k z n a f d r q r z d t d w q h l d r b r g p 1 + ; 5 i e g z j e u q q 4 y e 5 q h e t t m i d k e g d d d g d u t a t u t s 9 3 : < = > 5 z B U J B v h d h C t 9 u k k l q h l d r b r g i d k e g d d d ",
"g c 9 t d h k c l V J Y I V k h s V P B x k g r e s k c m p h r t 7 e g p e m q w t f z s z e u r ; o * 5 0 0 p s y u c t 0 8 y 7 9 q t q i r d h M g h d i u l a t i r i 0 q z x 0 * % 3 + < 6 s V P B x k g r g c 9 t d h k c w t f z s z e u h M g h d i u l ",
"h C s h e s q t d A G P Y B b s u n I M k k l 7 e s f b V p z 7 i 6 7 j f i h 0 r r a d h z p t t ; o j 3 9 9 y h u w u r 6 4 p 4 9 0 e q e s 9 0 s y a a y 8 a t f e t i 0 8 e f i > - 4 + : ; u n I M k k l 7 h C s h e s q t r r a d h z p t 0 s y a a y 8 a ",
"b x h a n q a d l i G D P b m f p N T B x l z q t f f j m l m q u e 9 r l w d e e w j m p g u q p 1 2 % 1 9 4 y k 8 e e 6 2 3 y q 4 , w q q q 4 0 t 0 i u s w e t q t 7 e 0 7 r q t 7 * 5 o + , p N T B x l z q b x h a n q a d e w j m p g u q 0 t 0 i u s w e ",
"n b r p n z h g g l F T S j m k p V J J k k c t s k k N S k n t g i s e s e f 9 u e p j u f p 0 t 9 o 1 2 % > p f q 4 q ; < : 0 8 < 5 w w q e 8 s h r 0 0 g e t 7 0 0 9 q 9 5 8 d e 8 % , + . * p V J J k k c t n b r p n z h g u e p j u f p 0 s h r 0 0 g e t ",
"j k q y u h z 8 q b J T M f C h w n I R b b M a s h b B D V n a n i h t f i i 6 s 6 u 9 e r u 0 f ; . & , 7 : e a i = 1 : 4 < e 1 , 6 0 3 8 9 q 6 w q 4 y t e 6 q q 8 0 0 5 9 < e 9 < & 6 # + ; w n I R b b M a j k q y u h z 8 s 6 u 9 e r u 0 6 w q 4 y t e 6 ",
"l l 8 u r p k c g b T A H s v f p b C J b k c y f h k g m k b y c e p h t , t 8 e 9 p e 9 h u k 5 , . 6 > 7 + e 4 t > # : ; - e < 1 5 w 7 3 0 0 6 q 9 8 0 r 0 9 e q q 8 0 8 = 5 9 7 - - - o   < p b C J b k c y l l 8 u r p k c e 9 p e 9 h u k 6 q 9 8 0 r 0 9 ",
"h A = 5 e a B l d C / m Z l h h 9 k N B B x h r h k x x C l g r z u c i 8 4 q 6 y < i 9 4 z h d , 3 X ; % e * 0 2 = < + 7 : ; e = 1 < 3 0 7 8 q > 8 e r 4 0 0 3 < 4 9 8 7 9 ; 2 < 7 * % - . X % 9 k N B B x h r h A = 5 e a B l y < i 9 4 z h d > 8 e r 4 0 0 3 ",
"f s w 0 k p z a n S Z n r x k s e t S N v k j 0 w f k x N k k 0 u 9 s s 1 d 7 0 r , e q r r y a 2 # X o o - X : q > % = 2 # $ : < & : & 8 8 7 q 0 9 q t 7 7 9 9 < * 3 q r 7 4 1 3 : + , -     X e t S N v k j 0 f s w 0 k p z a r , e q r r y a 0 9 q t 7 7 9 9 ",
"k k q e f f u s v z N e u b b p 3 x F c b l c 0 u f j h v f b 0 u 0 t a * f 8 9 % : t 0 y f t s > > + X & + . < i = % 4 o $ * e 1 : $ , 1 7 1 5 r 4 4 r w $ 1 0 * * . 2 < q 9 3 e 2 + # > %     3 x F c b l c 0 k k q e f f u s % : t 0 y f t s r 4 4 r w $ 1 0 ",
"b M r 9 e t t d p g l V J b l k 7 k J V b x g p e p s z x m k p 4 r 3 u @ y 5 7 1 2 t 0 s f a z 5 = . X O . X y w , - > @ & ; y - - % % 5 : 4 w : 3 2 6 7 % O 7 > + + # 7 5 3 8 9 8 + @ % X   - 7 k J V b x g p b M r 9 e t t d 1 2 t 0 s f a z : 3 2 6 7 % O 7 ",
" .| [ ` W ~ ( / Q T T E ^ } ^ E ` _ W ! {  .] } ( K I ' Q T ` ^  .| [ ` W ~ ( / Q T T E ^ } ^ E ` _ W ! {  .] } ( K I ' Q T ` ^  .| [ ` W ~ ( / Q T T E ^ } ^ E ` _ W ! {  .] } ( K I ' Q T ` ^  .| [ ` W ~ ( / Q T T E ^ } ^ E ` _ W ! {  .] } ( K I ' Q T ` ^ ",
"! Q { ^ U E ~ ~ E F V T T E Q T T Z G E Q ' T T Q Z P ( E P J T ! Q { ^ U E ~ ~ E F V T T E Q T T Z G E Q ' T T Q Z P ( E P J T ! Q { ^ U E ~ ~ E F V T T E Q T T Z G E Q ' T T Q Z P ( E P J T ! Q { ^ U E ~ ~ E F V T T E Q T T Z G E Q ' T T Q Z P ( E P J T ",
"T T ( U P T / E E A V T I T E T U Z Z E T ` T T W Z F E E K H T T T ( U P T / E E A V T I T E T U Z Z E T ` T T W Z F E E K H T T T ( U P T / E E A V T I T E T U Z Z E T ` T T W Z F E E K H T T T ( U P T / E E A V T I T E T U Z Z E T ` T T W Z F E E K H T ",
"W T ) T P T Q E U F b J K K T T F S Z L Q ) T W / F F E U K H L W T ) T P T Q E U F b J K K T T F S Z L Q ) T W / F F E U K H L W T ) T P T Q E U F b J K K T T F S Z L Q ) T W / F F E U K H L W T ) T P T Q E U F b J K K T T F S Z L Q ) T W / F F E U K H L ",
"l N y = q 0 d s f l 0 h s f h f c c F D V P y y s k M A C x w y t e M V N 8 m y c z d k l M h a x x 6 D p g u t k b y k 2 : i p j l t p b g B k V n n Z n D M V j L Z A m Z m r n 6 0 g 4 d r 4 c c F D V P y y l N y = q 0 d s c z d k l M h a V n n Z n D M V ",
"k S y * q q e p d N e g S j f s e b B C M m i e h k V x z d 7 e p f h N x w h t s s d u d m l u v u t t 9 z 5 b g z g d 5 - y h p z g s V Z H k g B n N N A V V N A G L z m v z N u e p q t w - e b B C M m i e k S y * q q e p s s d u d m l u g B n N N A V V ",
"x C f < q t r y a z r r v l k k x m M m G m p t s h x Z M u q t e u j l r i n y f z c l f c j l v t 6 i l Z n g l k k M 8 h d g c z j d z G z n V D F V S V S M I N J F B v G a b u u v u w v O x m M m G m p t x C f < q t r y f z c l f c j l V D F V S V S M ",
"k v y = q s 7 d 4 3 0 H D b h v g x G C N s s a t f h b M g p a w e d V u p b q u d l v u j s k v u t y d 0 h n z u w c b k 9 b f G z b B K N h u k V C Z Z n D G m K D Z K Z n v g r M a s N * g x G C N s s a k v y = q s 7 d u d l v u j s k u k V C Z Z n D ",
"c h e : i s 9 h g j 2 H b b h k f B G S V x g s y f x b C a i s y 0 j m s s V 0 d z k h f s h a v p 0 0 g u s g c 9 i j G n v V J M z n C Z j Y n k N B M P A H Z K F D l m m z N k w v i r m 8 f B G S V x g s c h e : i s 9 h d z k h f s h a n k N B M P A H ",
"s l 6 4 e e q y D n d V M c k h s v F n M b h e s h k b M c p e y u p h t g g i p k f n u a s k k g 7 e u w p d x c s z Z m B x V c V z I H b G J P M S Z G F T D I P A l x N u N x t b 9 d j r s v F n M b h e s l 6 4 e e q y p k f n u a s k J P M S Z G F T ",
"M d 2 2 q 0 r r c d q M d c k s j h F G k V k w u f k N G r p w q r p a z p d d t z t x h j v f l e & - 7 7 u n V z a l Y W B J g g g n m n z M c G G V A F K V Z N A A n z J q z e r z r p z s j h F G k V k w M d 2 2 q 0 r r t z t x h j v f c G G V A F K V ",
"b h 8 3 t 8 g x i h u n t l k p N x Z N C j s 8 q s b N V p e 8 w w w u b u h p i k f M l h b k k 1 4 p h a r d V h k c I M p l g z z v l m B n V S G V Z K A N V s S A v n V h g j 8 d y y B d N x Z N C j s 8 b h 8 3 t 8 g x i k f M l h b k V S G V Z K A N ",
"l i 0 9 6 a p l u n r K v b k p v b F D M b s 7 e s b N V k u 7 7 9 u r u u a t e a c l k p j s s e q 7 j k a k v d V N I k b y z l M V m c n M S V B V V J N v C m D k V b V j k r 0 u w y i g v b F D M b s 7 l i 0 9 6 a p l e a c l k p j s S V B V V J N v ",
"b h w 7 0 a d k d j y J x Z k s x z H D m M p 7 r s h b v m r 7 0 q g q t l 9 i t g h j v d n s s q e w u z h p z h x p j N k s V h Z k N d n Z V V D V B Z b Z M Z M A v z m w m d , s 9 t r h x z H D m M p 7 b h w 7 0 a d k t g h j v d n s V V D V B Z b Z ",
"f f w 9 7 j f N v b z m C S h f g z J H b B i 7 i s h c M h q 7 t q f d u a 0 e q p k s c p g j u 7 0 7 w e e k z j q g u B b Z M Y z b m n N Z Z c H S Z D z V A N b M V c a h k s 7 9 u q 1 g g z J H b B i 7 f f w 9 7 j f N q p k s c p g j Z c H S Z D z V ",
"x f i > g i u x h N I ) n C k k s b H J V x f q q f v c M u y q 9 d u n a r 7 u r s k d h p h m s e y 8 9 0 t a z z g k k n z g v c x B B V Z H m Z S G C Z J G x N k h g n A m x d e 3 t 3 1 r s b H J V x f q x f i > g i u x r s k d h p h m m Z S G C Z J G ",
"C f i 9 6 a p l g v K K D B x s v b F D M k s 9 7 s c N V k u 9 7 9 u r u u a t e a c l k p j s C 7 s t 0 t g p h j u g c l g b g p p v y A V n D Z Z F N L Y B c k h Z l N D a V m 8 w t 0 2 u v b F D M k s 9 C f i 9 6 a p l e a c l k p j s D Z Z F N L Y B ",
"C x r 7 0 a d k z A F R T S h p x z H C v x i 5 r h h b v m r 5 0 q g q t l 9 i t g h j v d n s g 2 p 0 9 i e h x l e a c p a l a i w 6 % v v V c M M V K J D V N v l z h m k q x l e u 6 ; , s x z H C v x i 5 C x r 7 0 a d k t g h j v d n s c M M V K J D V ",
"a k u 9 7 j f N g f c D J M f f g z J Z x v y 9 p h f c M h 8 9 t q f d u a 0 e q p k s c p g j j 7 6 q 5 0 9 p z p r g r 0 g x q h t 1 z v v Y d V n M K U S A x n n l f h a h k i w w r 0 - 5 g z J Z x v y 9 a k u 9 7 j f N q p k s c p g j d V n M K U S A ",
"c k y > g i u x l d J G U l k h s b H P m k f q y k x b M u y q 9 d u n a r 7 u r s k d h p h m M 8 6 3 6 y u p l a c a u 6 r x - 5 i 7 h l z F N h N n A n K d i f m l a h a r h u 0 3 q 3 - 0 s b H P m k f q c k y > g i u x r s k d h p h m N h N n A n K d ",
"c B i 5 z s r p w Z D / V l k h l Z F U n b f w e s k g g g p w e 6 s k q h 6 u 9 x m h k j g g f 7 : , d f 9 h v u g D u 9 y 0 w 6 a j j N n c C M d p s V 0 t j f l k v x f q N m 4 q e < 3 w l Z F U n b f w c B i 5 z s r p 9 x m h k j g g C M d p s V 0 t ",
"i B 0 7 u u d u f C T U C p k h v m H Y b x s w e j h k x k g w t 0 u l y a w r r h b p j v 9 s k 1 : , & f l h c h h p r e p p 0 z z z y k Z d x r t a k l 0 : h a A b x M u j n a 5 9 t : < 2 v m H Y b x s w i B 0 7 u u d u r h b p j v 9 s x r t a k l 0 : ",
"c m t ; p t t d p N / M J s k f f M G G K h h 8 t w k f v k t 8 w y 7 c a i i e 0 p h a j n f p u 7 : 2 9 e e b l k q g p q q x u p g k p g n x s e g g d B N z x v m l h k s w g i , 9 q : > 4 f M G G K h h 8 c m t ; p t t d 0 p h a j n f p s e g g d B N z ",
"v S u h u z r g k M W b c l k s c M A P m c h y t f x g N e g y p 8 e g p e y u 9 d c p g m c j u > 8 7 9 0 t d c j g k 5 e j y q 9 d u c z f f i 6 = G e E j N v g z c u e 9 i d d : > 9 % X 1 c M A P m c h y v S u h u z r g 9 d c p g m c j i 6 = G e E j N ",
"l B q t u b c c m D A H p l h f x b K B B c h q t h h m N f g q u q g p a t e e 0 f l h g l s d d - & : 0 t g e z f u g u 6 8 y p r a v a t z n u l < d p l g p d h f f p q 8 t p p ; 3 4 * - * x b K B B c h q l B q t u b c c 0 f l h g l s d u l < d p l g p ",
"h C t 9 u k k l d v P E M B k x z B U J B v h d e p k z n a f d r q r z d t d w q h l d r b r g p 1 + ; 5 i e g z j e u q q 4 y e 5 q h e t t m i d k e g d d d g d u t a t u t s 9 3 : < = > 5 z B U J B v h d h C t 9 u k k l q h l d r b r g i d k e g d d d ",
"g c 9 t d h k c l V J Y I V k h s V P B x k g r e s k c m p h r t 7 e g p e m q w t f z s z e u r ; o * 5 0 0 p s y u c t 0 8 y 7 9 q t q i r d h M g h d i u l a t i r i 0 q z x 0 * % 3 + < 6 s V P B x k g r g c 9 t d h k c w t f z s z e u h M g h d i u l ",
"h C s h e s q t d A G P Y B b s u n I M k k l 7 e s f b V p z 7 i 6 7 j f i h 0 r r a d h z p t t ; o j 3 9 9 y h u w u r 6 4 p 4 9 0 e q e s 9 0 s y a a y 8 a t f e t i 0 8 e f i > - 4 + : ; u n I M k k l 7 h C s h e s q t r r a d h z p t 0 s y a a y 8 a ",
" .| [ ` W ~ ( / Q T T E ^ } ^ E ` _ W ! {  .] } ( K I ' Q T ` ^  .| [ ` W ~ ( / Q T T E ^ } ^ E ` _ W ! {  .] } ( K I ' Q T ` ^  .| [ ` W ~ ( / Q T T E ^ } ^ E ` _ W ! {  .] } ( K I ' Q T ` ^  .| [ ` W ~ ( / Q T T E ^ } ^ E ` _ W ! {  .] } ( K I ' Q T ` ^ ",
"! Q { ^ U E ~ ~ E F V T T E Q T T Z G E Q ' T T Q Z P ( E P J T ! Q { ^ U E ~ ~ E F V T T E Q T T Z G E Q ' T T Q Z P ( E P J T ! Q { ^ U E ~ ~ E F V T T E Q T T Z G E Q ' T T Q Z P ( E P J T ! Q { ^ U E ~ ~ E F V T T E Q T T Z G E Q ' T T Q Z P ( E P J T ",
"T T ( U P T / E E A V T I T E T U Z Z E T ` T T W Z F E E K H T T T ( U P T / E E A V T I T E T U Z Z E T ` T T W Z F E E K H T T T ( U P T / E E A V T I T E T U Z Z E T ` T T W Z F E E K H T T T ( U P T / E E A V T I T E T U Z Z E T ` T T W Z F E E K H T ",
"W T ) T P T Q E U F b J K K T T F S Z L Q ) T W / F F E U K H L W T ) T P T Q E U F b J K K T T F S Z L Q ) T W / F F E U K H L W T ) T P T Q E U F b J K K T T F S Z L Q ) T W / F F E U K H L W T ) T P T Q E U F b J K K T T F S Z L Q ) T W / F F E U K H L "
};
