/* XPM */
static char *STONE3[] = {
/* columns rows colors chars-per-pixel */
"128 128 32 1 ",
"  c gray23",
". c #373737",
"X c #434343",
"o c #373F27",
"O c #3F472B",
"+ c #2F2F2F",
"@ c #474F33",
"# c #232323",
"$ c #272727",
"% c #1B1B1B",
"& c gray28",
"* c #53573B",
"= c gray31",
"- c #2B230F",
"; c #332B13",
": c #43331B",
"> c #131313",
", c #4B4B4B",
"< c #574333",
"1 c #17330F",
"2 c #1F4317",
"3 c #4F3B23",
"4 c #4B371B",
"5 c gray34",
"6 c #5B472B",
"7 c #5B6347",
"8 c #13230B",
"9 c #533F2F",
"0 c #5F4B37",
"q c #5B5B5B",
"w c #67533F",
"e c #6F5743",
/* pixels */
"    X X .$#>#$   ... +..  .  + X.&o..ooX,.X@*@@*@Ooooo@   X  OX   X     .+#>#+   .+..+..  .  + X.&o..ooXX.$.X.XXOOOOOOO   X  OX ",
"  XXX X .$#>#$   ... o+   XX .OXX&o..ooX,.X@*@@*@OOOoO@&  X  OX   XX OX .+#>#+   ....o+   XX .OXX&o..ooXoo=&XXXXOOOOOOO   X  OX ",
"   X    .$#%#$   ..  +o.  XX  .XXXo..ooX,.X@**@*@@OOoO@,  X  OX   XX OX .+#%#+   ..  +o.  XX  .XXXo..ooXoo .XXXX OOOOOO   X  OX ",
"    X   .$-%-$   ..  $++  X  ..XXXo..ooX,.X@**@*@@O@OO@,  X  OX   X   X .+-%-+   .   $++  X  ..XXXo..ooXoo .X+XXOOOOOOO   X  OX ",
"       ..$-%-$    .  +o   X  ..XXXo..ooX,.X@****@@O@oO@,  X  OX   X  OX..+-%-+       +o   X  ..XXXo..ooXoo .XXXXOOOOOOO   X  OX ",
"       +.$-%-$    .  +o.  .  ..XXXo..ooX,.X@****@@O@OO@,  X  OX      OX+.+-%-+       +o.  .  ..XXXo..ooXoo .oXXXOOOOOOO   X  OX ",
"       ..$-%-$  ...  ++.  +  ..XXXo..ooX@.X@***5@@O@OO@,  O  OXX  O  OX..+-%-+  ..   ++.  +  ..XXXo..ooXoo .oXX OOOOOOOX  O  OXX",
" X  X   .$-%-$.....  oo. X+   .X.Xo.XooX@.X@****@@O=OO@, XO   XX X    X .+-%-+....   oo. X+   .X.Xo.XooXoo .oXXXOOO OOOX XO   XX",
" XOXX  ..$-%-$..  . .oO  X+X oOX.o..XOoX@.X@***5@@O=OO@, XOX XXX XOX XX..+-%-+..    .oO  X+X oOX.o..XOoXoo .o&X O@OXOOOX XOX XXX",
" X XX  ..$-%-$.  +...+o+ X+X  .XXo X.ooo@.=@@*7*@@O=@O@, XOX   X X X   ..+-%-+.  + ..+o+ X+X  .XXo X.ooooo XoX  O@OXOOOX XOX   X",
" XXX OO..+-%-+. X....++. X.X .OX....XoooO.=@@@7*@@O@@OO, XXX OOX XXX OO..+-%-+. X.+..++. X.X .OX....Xooooo XoX  O@@@OOOX XXX OOX",
" X    O..$-%-$.  .+..+++ X.X .+.++.X.oooO.=@@@**@@O@@OOX XXX OOX X    O.++-%-+.  .+..+++ X.X .+.++.X.ooo$..+oo..O@@@OOOX XXX OOX",
"$+++++++++-%-+++$$$$$$$$+..++$$$$$$$$$$.++#ooOOoo  Oooo......+++$+++++++++-%-+.+$$$$$$$$+..++$$$$$$$$$$$$$$$$$$$+.X  .   .  ++++",
"$$$$$$$$####>###########$$$$$##$############++.+++++++++#####$$$$$$$$$$$####>###########$$$$$##$################$+++$$$$#$$$$$$$",
"##%###%#%%>%>%%%%%%%%%%%##%###%#%%%%%%%%###%+.+o##########%###%###%###%#%%>%>%%%%%%%%%%%##%###%#%%%%%%%%%%%%%%%%#$#$##$$##%###%#",
"#$$$$$$$$##############$$$$$$$$$$$$$$$$#####+..++++..++.+#%##$$+#$$$$$$$$##############$$$$$$$$$$$$$$$$$$$$$$$$$......+++$%#$$$+",
"XXXXXXXX   9&9   .   O**q**O&@@@O     OO@@***@X@***@@O@X.$%#.XXXXXXXXXXX   <0<          XX XXX X               ,*ew*@, ..$%#.XXX",
"  +   OX.. oooo...o .oO*q*@&=@OX++.X.ooo@@&&@@*=*@O@=@@&.#%#. OX  +   OX..+:o:o+..+..++$  +  ++.++.X.oo ...XooX&@w0@ OOX.#%#. OX",
"   X OOX.  o.oo ..o .oO@7*@&=@OX..X..ooX@@=&@@5=*@O@=@*,.#%#.OOX   X OOX. +:o:o...+. +o. X+X +OX..X..ooXooX.oo..@0<@ OOX.#%#.OOX",
" XOX   X.. :4:o ..o .:O@7@@&=*OXXXo.Xoo.@@=&@@==@@O@=@*,.#%#.OOX XOX   X..+:3:o...+  $+  XOX ++XXXo.Xoo.oo..oo..@6<@  OX.#%#.OOX",
"    .  X.. :4:  ..o .oO@*@@&=*OX .oX&oo.@O=&@@=X@OO@=@*,.#%#.O X X.X X X..+:9:. ..+ Xo+.+.+XX.+X .oX&oo.oo.XO...@6<@XOOX.#%#.O X",
"    . OX . :4o   .o .oO@*@@&=*OX .oXX .X@O=&@@==@OO@@@*,.#%#.O X X X  OX..+:3:.  .+  ++. X + .+X .oXX .Xoo.Xo...@6<@OOOX.#%#.O X",
"   O.OOX . o4o   .o..oO**@@&=*OX .o.X ..@OO&@@==@OO@=@*,.#%;.OOX X O OOX..+:3:.  .++.++.X&X  .+X .o.X ..ooXooo..@6<O OOX.#%;.OOX",
"   O. OX   :4O   .oo.oO7*@*&=@OX .o.X ..@OO&@@==@OO@=@*X.#%;.OOX   O  OX..+:3O.   oo.o+. X&X .+X .o.X ..ooXooo..@6<O OOX.#%;.OOX",
"    .  X..oooo  ..o.+oO7*@*&=@OX .o.X o @OO&@@==@OO@=@*X.#%;.OOX       X..o:3:. ..++++o.  +& o X .o.X o ooXooo..@6<O OOX.#%;.OOX",
"    .  X..oo4:  oo:..oO7*@*&&@OX ...X . @OO&@&==@OO@&@*X.#%;.O X X.    X..o:3:. ++$+ o.. X+& o X ...X .  oXooo..@6<O OOX.#%;.O X",
"       X.. o.o  .o:..oO7*@@&&@OX ...X .X@OO=@&==@OO*&@*X.#%; X X X  XX X. +:o3. .+$+ +   X=& o X ...X .X oXooo..@6<OX@OX.#%; X X",
"  O      . :44  ..oo.oO*5@@&=@O  ...Xoo.@@O=@&&=OOO*&&*X.#%; X   XO XX  ..+:<9.  .+o.o.. X&X   X ...Xoo.XoXooo..@6<OXXO .#%; X  ",
"  O . X    ooo  ..oo.oO*=@@&=@@  ..XXoo.@@O&@=&=O@O*=&*X.#%; XX   O  XX  .+:o9.   o+.+..  OX  XX ..XXoo.XoXooo..@6<O X@ .#%; XX ",
"    . X  . o4o  ..oo.oO*=@@&=O@X .X.Xoo.@@O&@=X=O@O*=X@X.#%; XX      XX ..+:39.. .++.+.   OX  XX .X.Xoo.XoXooo..@<<O @@X.#%; XX ",
"   .. X  . :4o . .oo.oO*=@@&=O@X XoXXoo.@@O&@=X=O@O*=X@X.#%; XX      XX ..+:3:.  .+o +..  OO  XX XoXXoo.XoXooo..@<<O X@X.#%; XX ",
"   .. X .o.ooo ..ooo+oO*=@@&OO@X +..Xoo.@@OX@=&=O@O*=&@& ;%; XXX     XX .++:33. .+o+++   ++O oXX +..Xoo.XoXooo..@<<OXX@X ;%; XXX",
"   ..  X o.:4O . ooo.oO*=@@&OOOX ++.Xoo.@@OX@&==@OO*&=@& ;%;.X X     X X.++:<O.. +oo.o   OO+  XX ++.Xoo.XoXoooX.@O<O @OX ;%;.X X",
"  O..O X.o.:.o ..ooo.oO*=@@&OOOXXX&XXoo.@@OX@&==@OO*&=*X ;%;.  X  O  O X.++:.3.+.ooo.+ . +++  XXXX&XXoo.XoXooo..@O<O OOX ;%;.  X",
"  . .  X.o...O .oooo..O*=&@&OO@X..oXXXo.@@OX@===@XO&==*X ;%;. XX      XX.++..O..++o+.. . +++  XX..oXXXo.XXXooo..@X<OXX@X ;%;. XX",
"  o .  X.o...4 ..ooo..O*=&*=OO XX.$.XXo.@@OX@&==@XX&&=*X.;%;.  X  O    X.++.+3. .oo+.. . +++  XXX.$.XXo.XXXooo..@X<OXX X.;%;.  X",
"  . .O X+o+..O..oooo.oO*&&*=O@ X X&.Xoo.@@OX@&==@X&@&=*X.;%;.        O X+++.+O.2oo++ +. +OO+ .XX X&.Xoo.XoXooo..@ OO X X.;%;.   ",
"  o .O X.o+o... .ooo.oO*&=*&O@OX .o.Xoo.@@OX@&==@X&@&=*& ;%;.  X  O  O X.++$+ ...+o+.+.  ++O .XX .o.Xoo.XoXooo..@  O XOX ;%;.  X",
"  . .O X.oo.o.o..+o..oO@X=*&O@OX .o.Xoo.@O&X@&===X&@&=*, ;%#.  X     O X.++.o 2..++..+.  ++  .XX .o.Xoo.Xo..oo..O  O XOX ;%#.  X",
"  ...  X.o+...o .++..oO@X=*&O@@X .oXXoo.@OXX@&===X&@==*, ;%#.OXX      XX.++ o 2..++  +.  ++  +XX .oXXoo.Xo.Xoo..O  O X@X ;%#.OXX",
"  o..  X+o+ o 2. ++ Xo@@&=*XO@XX .oXXoo.@@&X@&=&=X&@==*, ;%#. XX  O  XXX+++ o 2. ++ Xo..++O XOXX .oXXoo.Xo.XOo..O  OXX@X ;%#. XX",
".. ..  Xooo.. 2. ++.  @@=&*XO@XX ...XXo.@O& @&5&=X&@=5*, ;%#.OXX.      Xooo.  2. ++.  . +++  +XX ...XXo.Xo..o$..O OO  @, ;%#.OXX",
" ....   .ooo.... +++..&*=&*XO@XX .o.XXo.@OO @X5X=XX&=5*, ;%;. XX        .+oo.... +++.... +O+  XX .o.XXo.XXXooo..O  O  @, ;%;. XX",
"    ....+:oo..2..+++..X,&,, OO  ....X.o.Ooo.@&&&&&XX,,@X ;%;..XX    ....+$+o..2..+++.... O++  XX ...X.o.XXXooo..O OO  @X ;%;..XX",
"++++++++++::+oo++$$$++  . . . ++++++++$.++#oo+.++  Oooo..#%;++++++++++++++$$+++++$$$++++.+++..  ++++++$++++$$$++O  O  X .#%;++++",
"$$$$$$$$#####111#######$+.+.+$##############++.++++O++o+$#%#$$$$$$$$$$$$#####111############$#$$################$$$$$$$$$#%#$$$$",
"%%%%#%##>>>>%888>>%>%%%#++++++%%%%%%%%%%###%+.+o$$$ +#+#%%%%#%##%%%%#%##>>>>%888>>%>%%%%%%%%#%##%%%%%%%%%%%>%>%%##%####$%%%%#%##",
"$$#$$$$$#$#>#111########$.+++$##############+..++++O.oo.$$#$$$$$$$#$$$$$#$#>#111############$#$$################$$$$$$$.$$#$$$$$",
"XX XXXXX $#>#12       O@&&O  O X        5ooO*@***OO&@@@@oo XXOXXXX XXXXX $#>#12             X XX                @X****Xooo XXOXX",
"  . X X .$#>#12..+++ .@*==@&*&X ++$++ooX=oo @@&*@Xo &&@XooX  OX   .     .$#>#12..+++.... O.+    ++$++ooXXX ooo XO @@@OooooX  OX ",
"  . X X .$#>#1...+.+ .&*5=@&@&X .++.oooX=ooo@@&*@Xo X&@XooX  OX   . .   .$#>#1...++++... +.+o   .++.oooXXXoooo..O @@@OooooX  OX ",
"  . X X .$#>#1.. $.+ .X*5=O&@&X X..&oooX=ooo@@&*@OOXX&OXooX .OX   . . . .$#>#1.. $+++. + +.o+ . X..&oooXXXoooo..OO@O@OooooX .OX ",
"  . X X .$#>#$. Xo.+  X&*&OX@&X .X&.oooX=ooo@@&*@Xo XXOXooX  OX   .  X  .$#>#$. Xo+++ X  +..oX  .X&.oooXXXoooO .O @O@o.oooX  OX ",
" .. X X .$#>#$   +.+  X&@&OXO&X ....oooX=o o@@&*@XO XXoXooX  OX  ..     .$#>#$   ++++  . +..o   ....oooXXXoXoo .O @O@OooooX  OX ",
" .. X X .$#>#$.  +.. .X&@& XOXX ....oooX=o o@@O*@OOXXXoXooX .OX  .. .   .$#>#$.  +o.+... +..+   ....oooXXXoooo .Oo@O@OooooX .OX ",
"  ..X X .$#%#$+..o.. .OX@&  oX  X...oooX=o.o@@O*@OOXXXOXooX. OX   ...   .$#%#$+..o+.+... +..+   X...oooXXXXooo XOo@O@OOoooX. OX ",
"... X.X .$-%-$   ... +OXO&  oX  .oo..ooX=.$.@@X*@O@O@OO   X  OX ... ... .$-%-$   .+..+..  .  +  .oo..ooXX.$.X.XXOO@O@OO   X  OX ",
".  .X X..$-%-$.  ... o XOX XO   Xoo..ooX=.=&@@X*@O@OOOO   XX OX .  .   ..$-%-$.  ....o+   && .O Xoo..ooXo.=&XXXXOO@OOOO   XX OX ",
" ..+X X+.$-%-$+....  +  oX X  . .oo..ooX=. .@@X*@O@OOOO   X  OX  ..+. .+.$-%-$+....  +o.  XX  . .oo..ooXo. .XXXXOO@OOOO   X  OX ",
".+.   X..$-%-$+++... $  oX   .. ++o..ooX,. .@@X*@O@O@OO   X  OX .+.  . ..$-%-$+++. ..$++  X  .. ++o..ooXo. .X+XXOO@O@OO   X  OX ",
"++  X X .$-%-$+.. .+ + XO    .. ++o..ooX,. .@@&*@O@O@OO   X  OX ++  ... .$-%-$+.. .+++o   X  .. ++o..ooXo. .X=&XOO@O@OO   X  OX ",
".. .X X..$-%-$+   .+ +o.  .  .. &.o..ooX,. .*@X*@OOO@OO   X  OX .. .. ...$-%-$+   ++++o.  .  .. &.o..ooXo. .oXXXOOOO@OO   X  OX ",
"  ..  X..$-%-$ ....  ++.  +  ..X=&o..ooX,. .*@X*@OOOOOOX  X  OX   ..  +..$-%-$ ...o .++.  +  ..X=&o..ooXoo .oXX OOOOOOOX  X  OX ",
"....  X..+-%-+. X .. ....... . X&X. .ooX,.X *@.*@OOOOOOo oX .OX .... X ..+-%-+. X .......... . X&X. .ooX..Xoo...XOOOOOOo oX .OX ",
"  X     .+#>#+   .+..+..  .  + X.&o..ooXX.$.X.XXOOOOOOO   X  OX     X X .$#>#$   ... +..  .  + X.&o..ooX,.X@*@@*@Ooooo@   X  OX ",
"  XX OX .+#>#+   ....o+   XX .OXX&o..ooXoo=&XXXXOOOOOOO   X  OX   XXX X .$#>#$   ... o+   XX .OXX&o..ooX,.X@*@@*@OOOoO@&  X  OX ",
"  XX OX .+#%#+   ..  +o.  XX  .XXXo..ooXoo .XXXX OOOOOO   X  OX    X    .$#%#$   ..  +o.  XX  .XXXo..ooX,.X@**@*@@OOoO@,  X  OX ",
"  X   X .+-%-+   .   $++  X  ..XXXo..ooXoo .X+XXOOOOOOO   X  OX     X   .$-%-$   ..  $++  X  ..XXXo..ooX,.X@**@*@@O@OO@,  X  OX ",
"  X  OX..+-%-+       +o   X  ..XXXo..ooXoo .XXXXOOOOOOO   X  OX        ..$-%-$    .  +o   X  ..XXXo..ooX,.X@****@@O@oO@,  X  OX ",
"     OX+.+-%-+       +o.  .  ..XXXo..ooXoo .oXXXOOOOOOO   X  OX        +.$-%-$    .  +o.  .  ..XXXo..ooX,.X@****@@O@OO@,  X  OX ",
"  O  OX..+-%-+  ..   ++.  +  ..XXXo..ooXoo .oXX OOOOOOOX  O  OXX       ..$-%-$  ...  ++.  +  ..XXXo..ooX@.X@***5@@O@OO@,  O  OXX",
" X    X .+-%-+....   oo. X+   .X.Xo.XooXoo .oXXXOOO OOOX XO   XX X  X   .$-%-$.....  oo. X+   .X.Xo.XooX@.X@****@@O=OO@, XO   XX",
" XOX XX..+-%-+..    .oO  X+X oOX.o..XOoXoo .o&X O@OXOOOX XOX XXX XOXX  ..$-%-$..  . .oO  X+X oOX.o..XOoX@.X@***5@@O=OO@, XOX XXX",
" X X   ..+-%-+.  + ..+o+ X+X  .XXo X.ooooo XoX  O@OXOOOX XOX   X X XX  ..$-%-$.  +...+o+ X+X  .XXo X.ooo@.=@@*7*@@O=@O@, XOX   X",
" XXX OO..+-%-+. X.+..++. X.X .OX....Xooooo XoX  O@@@OOOX XXX OOX XXX OO..+-%-+. X....++. X.X .OX....XoooO.=@@@7*@@O@@OO, XXX OOX",
" X    O.++-%-+.  .+..+++ X.X .+.++.X.ooo$..+oo..O@@@OOOX XXX OOX X    O..$-%-$.  .+..+++ X.X .+.++.X.oooO.=@@@**@@O@@OOX XXX OOX",
"$+++++++++-%-+.+$$$$$$$$+..++$$$$$$$$$$$$$$$$$$$+.X  .   .  ++++$+++++++++-%-+++$$$$$$$$+..++$$$$$$$$$$.++#ooOOoo  Oooo......+++",
"$$$$$$$$####>###########$$$$$##$################$+++$$$$#$$$$$$$$$$$$$$$####>###########$$$$$##$############++.+++++++++#####$$$",
"##%###%#%%>%>%%%%%%%%%%%##%###%#%%%%%%%%%%%%%%%%#$#$##$$##%###%###%###%#%%>%>%%%%%%%%%%%##%###%#%%%%%%%%###%+.+o##########%###%#",
"#$$$$$$$$##############$$$$$$$$$$$$$$$$$$$$$$$$$......+++$%#$$$+#$$$$$$$$##############$$$$$$$$$$$$$$$$#####+..++++..++.+#%##$$+",
"XXXXXXXX   <0<          XX XXX X               ,*ew*@, ..$%#.XXXXXXXXXXX   9&9   .   O**q**O&@@@O     OO@@***@X@***@@O@X.$%#.XXX",
"  +   OX..+:o:o+..+..++$  +  ++.++.X.oo ...XooX&@w0@ OOX.#%#. OX  +   OX.. oooo...o .oO*q*@&=@OX++.X.ooo@@&&@@*=*@O@=@@&.#%#. OX",
"   X OOX. +:o:o...+. +o. X+X +OX..X..ooXooX.oo..@0<@ OOX.#%#.OOX   X OOX.  o.oo ..o .oO@7*@&=@OX..X..ooX@@=&@@5=*@O@=@*,.#%#.OOX",
" XOX   X..+:3:o...+  $+  XOX ++XXXo.Xoo.oo..oo..@6<@  OX.#%#.OOX XOX   X.. :4:o ..o .:O@7@@&=*OXXXo.Xoo.@@=&@@==@@O@=@*,.#%#.OOX",
" X.X X X..+:9:. ..+ Xo+.+.+XX.+X .oX&oo.oo.XO...@6<@XOOX.#%#.O X    .  X.. :4:  ..o .oO@*@@&=*OX .oX&oo.@O=&@@=X@OO@=@*,.#%#.O X",
" X X  OX..+:3:.  .+  ++. X + .+X .oXX .Xoo.Xo...@6<@OOOX.#%#.O X    . OX . :4o   .o .oO@*@@&=*OX .oXX .X@O=&@@==@OO@@@*,.#%#.O X",
" X O OOX..+:3:.  .++.++.X&X  .+X .o.X ..ooXooo..@6<O OOX.#%;.OOX   O.OOX . o4o   .o..oO**@@&=*OX .o.X ..@OO&@@==@OO@=@*,.#%;.OOX",
"   O  OX..+:3O.   oo.o+. X&X .+X .o.X ..ooXooo..@6<O OOX.#%;.OOX   O. OX   :4O   .oo.oO7*@*&=@OX .o.X ..@OO&@@==@OO@=@*X.#%;.OOX",
"       X..o:3:. ..++++o.  +& o X .o.X o ooXooo..@6<O OOX.#%;.OOX    .  X..oooo  ..o.+oO7*@*&=@OX .o.X o @OO&@@==@OO@=@*X.#%;.OOX",
" X.    X..o:3:. ++$+ o.. X+& o X ...X .  oXooo..@6<O OOX.#%;.O X    .  X..oo4:  oo:..oO7*@*&&@OX ...X . @OO&@&==@OO@&@*X.#%;.O X",
" X  XX X. +:o3. .+$+ +   X=& o X ...X .X oXooo..@6<OX@OX.#%; X X       X.. o.o  .o:..oO7*@@&&@OX ...X .X@OO=@&==@OO*&@*X.#%; X X",
" XO XX  ..+:<9.  .+o.o.. X&X   X ...Xoo.XoXooo..@6<OXXO .#%; X    O      . :44  ..oo.oO*5@@&=@O  ...Xoo.@@O=@&&=OOO*&&*X.#%; X  ",
"  O  XX  .+:o9.   o+.+..  OX  XX ..XXoo.XoXooo..@6<O X@ .#%; XX   O . X    ooo  ..oo.oO*=@@&=@@  ..XXoo.@@O&@=&=O@O*=&*X.#%; XX ",
"     XX ..+:39.. .++.+.   OX  XX .X.Xoo.XoXooo..@<<O @@X.#%; XX     . X  . o4o  ..oo.oO*=@@&=O@X .X.Xoo.@@O&@=X=O@O*=X@X.#%; XX ",
"     XX ..+:3:.  .+o +..  OO  XX XoXXoo.XoXooo..@<<O X@X.#%; XX    .. X  . :4o . .oo.oO*=@@&=O@X XoXXoo.@@O&@=X=O@O*=X@X.#%; XX ",
"     XX .++:33. .+o+++   ++O oXX +..Xoo.XoXooo..@<<OXX@X ;%; XXX   .. X .o.ooo ..ooo+oO*=@@&OO@X +..Xoo.@@OX@=&=O@O*=&@& ;%; XXX",
"     X X.++:<O.. +oo.o   OO+  XX ++.Xoo.XoXoooX.@O<O @OX ;%;.X X   ..  X o.:4O . ooo.oO*=@@&OOOX ++.Xoo.@@OX@&==@OO*&=@& ;%;.X X",
"  O  O X.++:.3.+.ooo.+ . +++  XXXX&XXoo.XoXooo..@O<O OOX ;%;.  X  O..O X.o.:.o ..ooo.oO*=@@&OOOXXX&XXoo.@@OX@&==@OO*&=*X ;%;.  X",
"      XX.++..O..++o+.. . +++  XX..oXXXo.XXXooo..@X<OXX@X ;%;. XX  . .  X.o...O .oooo..O*=&@&OO@X..oXXXo.@@OX@===@XO&==*X ;%;. XX",
"  O    X.++.+3. .oo+.. . +++  XXX.$.XXo.XXXooo..@X<OXX X.;%;.  X  o .  X.o...4 ..ooo..O*=&*=OO XX.$.XXo.@@OX@&==@XX&&=*X.;%;.  X",
"     O X+++.+O.2oo++ +. +OO+ .XX X&.Xoo.XoXooo..@ OO X X.;%;.     . .O X+o+..O..oooo.oO*&&*=O@ X X&.Xoo.@@OX@&==@X&@&=*X.;%;.   ",
"  O  O X.++$+ ...+o+.+.  ++O .XX .o.Xoo.XoXooo..@  O XOX ;%;.  X  o .O X.o+o... .ooo.oO*&=*&O@OX .o.Xoo.@@OX@&==@X&@&=*& ;%;.  X",
"     O X.++.o 2..++..+.  ++  .XX .o.Xoo.Xo..oo..O  O XOX ;%#.  X  . .O X.oo.o.o..+o..oO@X=*&O@OX .o.Xoo.@O&X@&===X&@&=*, ;%#.  X",
"      XX.++ o 2..++  +.  ++  +XX .oXXoo.Xo.Xoo..O  O X@X ;%#.OXX  ...  X.o+...o .++..oO@X=*&O@@X .oXXoo.@OXX@&===X&@==*, ;%#.OXX",
"  O  XXX+++ o 2. ++ Xo..++O XOXX .oXXoo.Xo.XOo..O  OXX@X ;%#. XX  o..  X+o+ o 2. ++ Xo@@&=*XO@XX .oXXoo.@@&X@&=&=X&@==*, ;%#. XX",
".      Xooo.  2. ++.  . +++  +XX ...XXo.Xo..o$..O OO  @, ;%#.OXX.. ..  Xooo.. 2. ++.  @@=&*XO@XX ...XXo.@O& @&5&=X&@=5*, ;%#.OXX",
"        .+oo.... +++.... +O+  XX .o.XXo.XXXooo..O  O  @, ;%;. XX ....   .ooo.... +++..&*=&*XO@XX .o.XXo.@OO @X5X=XX&=5*, ;%;. XX",
"    ....+$+o..2..+++.... O++  XX ...X.o.XXXooo..O OO  @X ;%;..XX    ....+:oo..2..+++..X,&,, OO  ....X.o.Ooo.@&&&&&XX,,@X ;%;..XX",
"++++++++++$$+++++$$$++++.+++..  ++++++$++++$$$++O  O  X .#%;++++++++++++++::+oo++$$$++  . . . ++++++++$.++#oo+.++  Oooo..#%;++++",
"$$$$$$$$#####111############$#$$################$$$$$$$$$#%#$$$$$$$$$$$$#####111#######$+.+.+$##############++.++++O++o+$#%#$$$$",
"%%%%#%##>>>>%888>>%>%%%%%%%%#%##%%%%%%%%%%%>%>%%##%####$%%%%#%##%%%%#%##>>>>%888>>%>%%%#++++++%%%%%%%%%%###%+.+o$$$ +#+#%%%%#%##",
"$$#$$$$$#$#>#111############$#$$################$$$$$$$.$$#$$$$$$$#$$$$$#$#>#111########$.+++$##############+..++++O.oo.$$#$$$$$",
"XX XXXXX $#>#12             X XX                @X****Xooo XXOXXXX XXXXX $#>#12       O@&&O  O X        5ooO*@***OO&@@@@oo XXOXX",
"  .     .$#>#12..+++.... O.+    ++$++ooXXX ooo XO @@@OooooX  OX   . X X .$#>#12..+++ .@*==@&*&X ++$++ooX=oo @@&*@Xo &&@XooX  OX ",
"  . .   .$#>#1...++++... +.+o   .++.oooXXXoooo..O @@@OooooX  OX   . X X .$#>#1...+.+ .&*5=@&@&X .++.oooX=ooo@@&*@Xo X&@XooX  OX ",
"  . . . .$#>#1.. $+++. + +.o+ . X..&oooXXXoooo..OO@O@OooooX .OX   . X X .$#>#1.. $.+ .X*5=O&@&X X..&oooX=ooo@@&*@OOXX&OXooX .OX ",
"  .  X  .$#>#$. Xo+++ X  +..oX  .X&.oooXXXoooO .O @O@o.oooX  OX   . X X .$#>#$. Xo.+  X&*&OX@&X .X&.oooX=ooo@@&*@Xo XXOXooX  OX ",
" ..     .$#>#$   ++++  . +..o   ....oooXXXoXoo .O @O@OooooX  OX  .. X X .$#>#$   +.+  X&@&OXO&X ....oooX=o o@@&*@XO XXoXooX  OX ",
" .. .   .$#>#$.  +o.+... +..+   ....oooXXXoooo .Oo@O@OooooX .OX  .. X X .$#>#$.  +.. .X&@& XOXX ....oooX=o o@@O*@OOXXXoXooX .OX ",
"  ...   .$#%#$+..o+.+... +..+   X...oooXXXXooo XOo@O@OOoooX. OX   ..X X .$#%#$+..o.. .OX@&  oX  X...oooX=o.o@@O*@OOXXXOXooX. OX ",
"... ... .$-%-$   .+..+..  .  +  .oo..ooXX.$.X.XXOO@O@OO   X  OX ... X.X .$-%-$   ... +OXO&  oX  .oo..ooX=.$.@@X*@O@O@OO   X  OX ",
".  .   ..$-%-$.  ....o+   && .O Xoo..ooXo.=&XXXXOO@OOOO   XX OX .  .X X..$-%-$.  ... o XOX XO   Xoo..ooX=.=&@@X*@O@OOOO   XX OX ",
" ..+. .+.$-%-$+....  +o.  XX  . .oo..ooXo. .XXXXOO@OOOO   X  OX  ..+X X+.$-%-$+....  +  oX X  . .oo..ooX=. .@@X*@O@OOOO   X  OX ",
".+.  . ..$-%-$+++. ..$++  X  .. ++o..ooXo. .X+XXOO@O@OO   X  OX .+.   X..$-%-$+++... $  oX   .. ++o..ooX,. .@@X*@O@O@OO   X  OX ",
"++  ... .$-%-$+.. .+++o   X  .. ++o..ooXo. .X=&XOO@O@OO   X  OX ++  X X .$-%-$+.. .+ + XO    .. ++o..ooX,. .@@&*@O@O@OO   X  OX ",
".. .. ...$-%-$+   ++++o.  .  .. &.o..ooXo. .oXXXOOOO@OO   X  OX .. .X X..$-%-$+   .+ +o.  .  .. &.o..ooX,. .*@X*@OOO@OO   X  OX ",
"  ..  +..$-%-$ ...o .++.  +  ..X=&o..ooXoo .oXX OOOOOOOX  X  OX   ..  X..$-%-$ ....  ++.  +  ..X=&o..ooX,. .*@X*@OOOOOOX  X  OX ",
".... X ..+-%-+. X .......... . X&X. .ooX..Xoo...XOOOOOOo oX .OX ....  X..+-%-+. X .. ....... . X&X. .ooX,.X *@.*@OOOOOOo oX .OX "
};
