/* XPM */
static char *STONE7[] = {
/* columns rows colors chars-per-pixel */
"64 128 44 1 ",
"  c #473323",
". c #4F3B23",
"X c #5B472B",
"o c #3F2B1B",
"O c #533F2F",
"+ c #43331B",
"@ c #2B230F",
"# c #5F4B37",
"$ c #574333",
"% c #4F3B2B",
"& c #533F1F",
"* c #675333",
"= c #5F4323",
"- c #6B4727",
"; c #4B371B",
": c #67533F",
"> c #775F3F",
", c #6F5743",
"< c #372313",
"1 c #774F2B",
"2 c #432F1B",
"3 c #875733",
"4 c #775F4B",
"5 c black",
"6 c #1B1B1B",
"7 c #7F532F",
"8 c #7B634F",
"9 c #1F170B",
"0 c #131313",
"q c #836B4B",
"w c #4B4B4B",
"e c #8F5F37",
"r c #2F1B0B",
"t c #8B735B",
"y c #8F7753",
"u c #A36B3F",
"i c #9B633B",
"p c #170F07",
"a c #070707",
"s c #836B57",
"d c #AB6F43",
"f c #9F8363",
"g c #0B0B0B",
"h c #373737",
/* pixels */
"OX*&Oooo@+  %%.$.&&#+ $=Xo :$O;$,$##X---o:>1+.o.2&$$$##,,$$# O %",
"$.*.& @o@    X%.$..O  .+X +OO.$%$%$%::*=<==*O2.;;&$OXXX###$$  O%",
"$$,#$ @ooo    $%%=X#  X;#$ OO%$%% O$#:*#<==&.+= &%$O##$$$$ $o # ",
"O$,#$o@o @  .  .%.X$ %%%:>#O$O$   XX=$:;>o-O&  <$$$$X#$#OX+-  +<",
".O-#,ooo @  $ %o$.## O++X=;$$$&$O&=*.-*X> ,$$ & O%O%$####$ O +.+",
"&:*$# o+ oo%o.# % .. +=<+##$$O$.&X&=X-*+*4o$$+  ;%.&&&---=+; + +",
"&.:O$ @o  @Oo $ o@o + 1:###&$O&.;X&$*=*.*4o$&%%  ;%O&&&=-=+.%%%+",
"..$.. @++ @o+ #+ O.@2 *$#>#$&.-..&&-****&,4o& -++;%.;&O=&-=$. X+",
"..%O% @ ++ o %$ X.#@@o4#&#X$O%$&.&.X:-*X&#4o&+&;o$%OO=O-==;;  O;",
"X-.O. @ %= @ oX;;.:# O>XOXXO&.&..&&1-:*X*# oO=;;%;;O$OOX=1 =.X..",
";+.:+ o  %+@<o+.*:,#OX##XXX&&O&&.&&#:X-O= @ $;++ ;.$$OOXO==-O+++",
"-...+oo $o  @6o#,$ #+%#X-&;-&O%$ .22+X=+9@@ $.;+.&O%&.O#X=O.=+;+",
"*;.+ +o  +  oo6 O:%%  XX$o;-..;&$;2@@ooo.8Oo$&;+.;;OO.-X>X$+.;.+",
"X=.Oo@oo+ + + @6%#%X  X&#..X$$%.#;o@@+w7:$,>o& +.+;&OOXX*= +..++",
"=OO.$ooo+++++X$@6o   +X.+X&.$.2.Xo+>>4*X$##:yoo;  .&OX.**=..+. ;",
"X..% o   O o&.X#@66@ .XXo+X&$&+<+*:-*X&X:, $+5@@+++.OX.:-;X+++o+",
".&$ %o   oO.+&.=6@+&oooO*+X.&o+**X.-**=1###O5555@<;;.##====.;+o.",
"=%%.Oo +  +.+Oo0@ * <.-.oo<oo *&XX&-=*=:$##+555555<&O##==X#;;.o+",
"$#.+%<o   o&.o006+> o.1*+@@@@2.+%X+#--#>#$ @55 5555<<.&-$#=.+++o",
"$-:&O o%++++oo@oooo@@ow<o@@@@@<O=$&=-:$:$ @@@555=@5@o+;-.--&&++ ",
".OO%&+oo@@oo+*XX;#74du>1XXO>o@@<;.;&*>#:oo*$o55@.&@&1+<+#-X+++  ",
" XO;.o@@@ X& $X#-$ 1*+-1:=3*o.o9<o++ @@@o@## 5@@@@<&77+o@ %=+  o",
"+X.o<@ X# +..%#$$$ 7**13-X3O&o*+oo@@@o *>+@ o@o@9.&>7&:>oo &  + ",
".-<o+-=+%$ =+.X;;%$:*>e33+-O.+&,qq@@oo+*=1+@@$:o@;+3&*;*>*@o .  ",
"oo+*X++ +o$%+&.#+#%$#1>--X*.O %$%#>2.< *=73 @  %@#-3OX==#-,oo@@o",
"**XXO+ ++  $+&&.%O##,,->**-O#  $$X&><<o+&X3+5@o @8>&.X##=#,,3**-",
"**O.&<o + oO%;=%%,#,$,311-*$ $O .X+3d++o.*@&@555oX,$;&O*$#X& + o",
".=:&O+o.++$O.##%O$$>$%4-*1,,$% &XX.-3>o5<.@>$5X*1<:$$$%#O#*&&+o ",
"2..&X+oX+  # ### O%$$ ,,>,,$OO.O;;..*13o5oooo5X+;@XO$%$###X++++ ",
";&&O.oo++<$$ ##=%# $: *$,##OO+O..XXX=-X=555555o+@@=&O%$$$X.X+o  ",
".=O& 2o+=  %%%#$& $%::1#>>#$OOO..&XXX1*755@@@55@@@$$$$$#O# O    ",
".*..X+@2.& $ %$O#+$%::=,,*%&O&..;.X=X1*35.,*7# 55@$$O*$#,$+..O  ",
"*;--. o+;X% o..% @$-*=>8##X&O&&&XXX=*-*X@=#$:8f45@ .$&$.#$..;%%+",
"-.-.& ++.+$&o ..o $:*=8,#XO&OO.&.X*-X*3ow;#$$%$:> o OO.$. $O.%+ ",
";+-%X@+  $ oo  .@$$$q,,**.+&$O&. ==*XX%@.$$$$ % .4Oo $O$O$O&&+;+",
"O;*X&<   %.@@+.%@$#8,,>*:: &O.OO ===12o.-##$$%    *#o.$$$$&&-.++",
"#;XO;  @ #O  @%<2@o#8,#&::%OOO& .2&-2wo-#4$$$% o .%,O< .X$&.+;+<",
"-&O-$  @ OO   @o55@o8:#:>#%oO&&.;<&2<@@1#4$%$$  . % :Oo+#$&&+; +",
"*O=X$  $ O#O  @@555o@o$O#Oo56<..+66ow@@o,##%$$% %%O $:$@ # .;#.2",
"*+*,$  , $XOO.@@o6o6 @oo<oo566ooo6++555@$$#$%$%%  O$%$# @   %;%.",
"=$#$$o .%.XX$+6oXo*o5@o$@@o6%o@Oo6@566@@w$$#O$ % .%O$$#$+@  %X ;",
"# ,#%o .% XXO6@@o@ @+   #@@.&@@@o@556@@o@w%#$$   %OO%O#X-@@ ;O  ",
"#$,#% o%.%$X@o*8=o@**o5@@ o@@@655566r@#,@ $:$$O$ ...$$O$X>9@o.&$",
" O,$O +  .#+@ X*, a+X 5@@@@@65566.O@-7,# @$$%o@@  .%OOOXX#1@r.+;",
".;;#+o %% X@@@%O%+@5ao@5@@@6@<&+6@@5.:#,+@$$o%oo@ .%OO$$X#X-@<&.",
"=.1%$+ %#%+@66@oo555555559@6@&;o@<6@ $$#%+$$#$ ooo%OXO$XX$&=&@++",
";&:#O   oo@@@o  %XX133>7*.@@@@o@@.26o % o$&&$X,# %$..O$*X#&2*<oo",
"&$:$&ooo .3>:% $ $..&X**>,8X+@@@<o=#6@@@@OO&&=    %%%$OX;#&2=-@+",
"oo   ;O##O %$  X%-.O&3-&,#X&Xo@@@<o 6@5@5.O%%=+ .+%O.OO+#X=2&=-@",
"$#$,$$;o >o.$ ..O$Oo1-1#>3X.&2@=X,q#%.55@O#$$X;+ %%O;.1%###===$ ",
"###$OO$+X3 X.X %#;*+--#,-:.O&@*.+.O4*X.o5@.&O$%++%O.++%%$*#.X$Oo",
"%#:%  %%;;&XX $#+.#+-#8>#XX&+@*...$,X*=%o@..XOO .&&o+$##*:# XO<o",
"%:&$ % $O +#.# 2o =&4#4*#X.+o+&;o;O*=114.@+O.XO $@@@$#:#>-#X. o ",
"%%:    %OO%$.#+2 O&,-:**-++@@3.&. $=*>>3> @5555@o%o5oo&=X$#X.@$O",
"#O#  % #% O%;.-&O=#.**>*: @1:=&%+%&***X>=*+555.*,,o55@o+#X. <X= ",
".$$# o  % OO$#;-.O&#q:X.:*.3.&&; #;=*.**#X&9@@.2&%o@@ooo%@@+4X% ",
"$#:O$ooo%+  O%.$%&OX  XX#  :$&.&,&=X=**=##2o*@2.+ooo&=%@@:>>+; .",
"O%*OO @o + + #O%&%.O +.+# +&$.&%....***=O#2-& @&.<@@#;@##4.. 2O%",
"$$:X$ @o ++   $O.XX# +#;XO .&.&%.+..=**XO#+-&o=@@@@555&O4.+Oo2# ",
"$$:X$o@o++++O  .%.XX ..%:># &%&  +XXX.:.*O .& 2<.o@@@@&1&$ #   o",
".O:X:ooo  + $ .oX.X#+&+ #X. OO&&O&X:O=*=#*:.&+.+Oo9o@@#1XO &  O ",
"$*:$X+o+++OOo.X %+.% +Xo+##+&O&..X.=XX* **X..+ +<o..%oo$#X+%    ",
"O$*$$ @o+  Oo $ o@o  +3*XXX+OO&O&=O..#*.*...&;.+@.;&$$$$ o%%%.% ",
"OOO$% @   %$  #+ ..@++*.-3#+O.:$%O.-;***..+.&22r ;.&O$$#$#$oo%.+",
"ooooo@@@o+%# %X X.X@@o>=OX $$%.$%$$#*o--O#X..@9.<&%$$#$###O% Ooo",
"#*..X$#,# @oo+#.%.*X %>=OX OO&$$%$$># *&*&.<o=.;;%%$$$$##, #O$O%",
"% $,  o  %#*#@oo -*#%#X=## OO$$$%OO#,#<O=<<&.;+  %$$ $$#$###$   ",
"X%%% oo Oo   OX*#++  %### %X$$OO $+*1#o<o#&X&$O $$$ O$%#XX.;$ ;+",
"*..   o     oO%+$*%%oo<+X@;#$$.$XX--290+oo #$$O .%. $ %#>#$ %;;+",
"=#O$ @oo     . .%$.X +=.<@$#$O%;XX2@@+3ei,ooO$  ; ;o&&==-=++%; 2",
"=.$O$ooo     $$O $# + =% o@&$O+.-o@ 31**>t,ooo . +oO&=&-*=;. % ;",
"-.$;+o ++O oO$$X %X+2#X#o @@&&+;@+37*=&X*88,=@@@@@o..=O--;= + o+",
"OO$+%o  +oO. $%X .*.o,##* oo@@@@3>**:-X3X##$#-=@@5o.O=X====oo@@@",
"o<<oOo   + O OO&;.* oO>>OXX@@@@+XX&--:X*&##$O;o;$@@o .. o@@@@X* ",
"&7+@o@oo  oO;%X.. 4 o.>:XX.r5@@+.X+#:*->=$##$++oo&+@@6666@;1* +o",
".X*>*2 o@@@$.XX%#%$ +#>&;@9555@o =&-**=*.,$#$++++..$-<66@;*O.+++",
".&..O+o:*+666@ #%#,   @5555555@&o+;&*1#1.$,$&+++.&+OO-1ooo#+++ +",
"+=..;oo +o@66666oo@@55555555555oo@ -X*X1####O+ oo&;&OOX>1ooo+++<",
"+XO.% o o@@o@@@@@5555555555555565@o@o>**##$$O+++o$O&OO.**7*o@o +",
"O-.%o@@o%::X+.XOOo555555g5g555555@$-@o**###$&O++o;+.O*.#1-*>*<@<",
"<@@@$,:  o$.+&.X @5555555555gg5556o+o5o7##$O. +;o;;.O#===##.=72o",
"1::.O+ +   $+O$O@@@p555555g5555gggg@55@o$#$&O;o+o+;O%#X=###;;XX*",
"::O.O<o   o&.%X.@ 2@po@p55555555ggggoo5@ %o%.++oo&..;.&-$#=.+++o",
"$-:&O o%+ &&.$Xo@,$@++@2@p5555555@@o-:#$>,Xoo+o++;&O$&;-.--&&+o ",
"+OO$X+o$ ++#+Xo@@@@=Xo@<o+o@5555@@;.*>##O&&,$o2+;..$&.&X#-X+++  ",
"%OO.&oo+ <OO $o:*#o@+o2-o+XOoo@<.=7X#,#:#$:$,oo2+.;&&.&XO#%=+o +",
".X..2+o@# +;.o#$&$o6@u2-+*u &o..;*$$#>:*X&$$$:= +O&&&&OX&# &  + ",
";-.O-+@+@@ = .X;=Oo6.+@+X+<@9&*>,%$-X**>&*&$$$  o&&&.*.X*O+%%.  ",
"*.XX&+o .#66o...+$o@;=*e-o@Oie>,$$X-****==XO$OO  %;.O&&;#&%%%%. ",
"X.*&O+ 2.#$666oo@@o  .@*X@@*->,$%X**-*>*=.X.$%  + %&&&;=; $$;.+2",
".+:.X@+++Oo@@+=1>>4tt7+@@@7y4>:%XXX*XX*>OO&&$ %+.+$$$&&&$$O&O+.+",
"..:XOo++ooo >#O%$X#8::7- @4,$OO&OX==3**1==XO$% +o+ #$%$$##&&X.  ",
"=.=&.+o6@ # %%%#%.$#4*>8t@@$OO& ..&->=-*=1&&$ooo+..o$$$%$#O&+; o",
"-&&*<@@+X.%    ;%%$:48X444o.O&OO..&**=X1X3.%$o +; ;+O$%$#OO&+;  ",
"*.ooo+X&+%#%   $+#%>44.$#$><OO...&&XX=*7*=#%$@# %%O $,$ X# ..#% ",
"o@2+X++* &#%%%%#O=$#>#=#%XO3o&..-XX*X1**&Oo@r#O%  $$O&#O#$+ .%..",
"o+1..o+;;.$$O#.###:1X$$$@%X*eo.&XXO=X1*.@@@@#$ % ..O$&#X:$&+; @<",
"-+--.o+;. #X$$.*#$ >*->qXX.&:eo&X&O=X3o@00@@$$   %OO.OX$.+ooo *#",
"-&-#.+o%%%O$$OXX.O#:,>q>>+X*&*3@ .--o550r@50o$$$ %.%  +ooo%**X.X",
"+&*O;+   %X X.X% #O$#>>X:$:&&.> @<+550@555@$0o % +ooo+#:##X.;O+.",
"%;.#+o %O #$%XOX%$X#,,#7:::OOO&o55550@X*@5@$@0oo%X:,*=#XX#=2.;.;",
"-.*;$  O#.OO%XX.%*$::,44>::OO2o@5550@oO=O@@@o55:X$%O$O$X#$=+== +",
".O-X$   o#O$    %$X>>>>::>:Xo@@oo<o@@ oo@oo4@55o %O.%O$:$## &O+o",
"&&*$$O##o%.O   O O%3O#:,7$ooooooX>>iq>=  @o$$@5@  .%.$$$*#$ $= +",
"&#$%$O$X#O .$  #.#..O>,.2<o+@@@O%.&*1-y# @o%O# @. %O.$$ X$# $X +",
"$#$,$O%o >o.X ..&OOo*:wo :-.&=@ %.&1-1-sO o   %@ %.O.O:.-$#X#$O ",
"###$%%$ X> X%# %=%:+*  *,*.&&X2@+;;1-3,1$$ oo$.5 .OOO$X$X:#.#X. ",
".X,%  ..%.$XX OX O#@+::4XX=.:O&+@..*=-,#>q$5@555oOO$OOXX*,# XO. ",
".*O$+% O%  X.X  o+o&*X4:#X$$.*&;o;.*=>4$=Oso655+OoO$O#:#3,##%#O ",
"..* +  %%%.$.#  @o:***:**. $#-&<.+==->8q#&>$@55%$@ .OX$XX$X#X#$.",
"#$# +. X% .%%%#oO*X.**>*** $$:&o+..*-,#4#$1Oo@5@@@o.OO$ X#X.X=$ ",
"%$$#+o  %+.%$#o::%O-e*X.*1OO&&O;o-.=:%:*#OO-&@o@@@oOO$OX=$X XX. ",
"%$,8@@@    $o*:O%;X*7*=-4#.&&..$o+%##$XO#.O#$;o>*.@OOX#&$,$ X. %",
"$$$$ o;+ %%o:XOX #.777&$#&X.&.&.o# ##X=**#$$$O@+$o@o&.&$###$%$% ",
"$$OO   ;Xo:*XO# %-O=1=##;%XO&.&;+. OXX=X*O.&X%$@@555o&$O#X# X%$ ",
"%%$%O   o*.OX$O --:1=$#O@X&&&&&+ + %**=#O$..&. @o@5@@ $#X##.X.2o",
"O$&$  @,,$=$ %$;:X==##  @.-&&X.+o+ X*==$O#.X.X.o@55<o@OOO=$.XXOo",
"$OOO%@:% O% .%.; O&O;>.+=-XO&X..o $=**X=XOO.O=.+@55o%%o;X$$ XXO ",
"#O#o::   O %;.;;.;O;.O*3>$:.$&&Oo &=**XX=....;.. @55@O@X$ OX..;O",
"X$o:% +    O 2;X;O-%#O.=#>O&;=&&  +=**=X#O=..X..+@555@5@##*=$X%%",
"@::O%    +.OO .#%.#.#$..%XOO$X#& o2X*.X=O#.;.X=.+@@55555@@ ooooo",
"*@*:O    +.;  O%;%&$:..;%..&$&=%+<+*X1==OO.&&X&& 2@@@@@@@w<;:-,%",
"#%@ %$.+ .+. OOOX+.$#. ..X...O;%+@.==X=XOO&&&&.;.o9@o%-:#-; $=$%",
"$% o@@O2++++OO O .&O .+$% OO;$;oo+ XX+:X.OO.;X;2+@9.:$;&=# $$#. ",
".O O oo+  +  O .+..% ++% . O%o&&o+ :*.==O.O.;++<@.*X%$%;&X+&$ X.",
"#O #++@@++  o. . X.%%++ .oo&;o;.<++**XX%..O.+@o.*$+.$O%$OX+ $ ..",
"+%+%% +@+  o    @X.% ++;+oo.OO&.<< =*$*.O.+<<;*=.o<&%O$$$=$ #X$+",
".O.  ooo@ %o   o ;+ ++&+@+%+OO %oo+====..h@+-&<o 2++$##$##OO,#X+"
};
