/* XPM */
static char *STONE4[] = {
/* columns rows colors chars-per-pixel */
"64 128 24 1 ",
"  c gray34",
". c gray28",
"X c #434343",
"o c gray31",
"O c gray39",
"+ c gray23",
"@ c #373737",
"# c gray42",
"$ c #5B5B5B",
"% c #777777",
"& c #6F6F6F",
"* c #272727",
"= c #2F2F2F",
"- c #232323",
"; c gray50",
": c #1B1B1B",
"> c #838383",
", c #4B4B4B",
"< c #939393",
"1 c #131313",
"2 c #9F9F9F",
"3 c #979797",
"4 c black",
"5 c #070707",
/* pixels */
" O#  +@@*X.Xooo o  O.X$OO@.#  o & OOO##O+&%%.oXo.    OO&&$ O.oXo",
" o#  .=+-....Ooo oo ..o.O.X  o o o o##&O@OO# Xooo   OOOOOO  .Xoo",
"  #O .=+@@.... oo$OO..OoO .  o oo.  O#&O@OO  XOX o  OO  $ . +XOX",
"  #O +=+.-..o..oooO$.ooo#%O  o ...OOO &o%@#  ..@    OO O $.O...@",
"o #O#+@+.-.. .o@$oOOX ..OOo       $& O#O%X#  . . o o OOOO . .. .",
" ## OX+X.@@o+oO.o.oo..O@.OO      O $OO#X&%+  ...oo    #OOO.o....",
"  #  .=+..- +.$.+*@...%&OOO     o$  #O#o#%@  oo..oo    OOO.oooo.",
"    oX*...=+X.OX. o=X.& O%O  o# o  O&### #%@ .O..oo o  O OO  .O.",
"ooo oX*....@.o$.OoO**+%$ OO  o  o  O##&O O%@ . o+ o  O OOOoo.. o",
"O#  oX=.o$X*.@Oooo#O.o%O OO     o  %#&&$&O.@ $ooooo    O$&.$o$oo",
"oX #X.+..o.=@+.o###OoOOOOOO     o  O&OO O.-. o...o     O OOO X..",
"OoooX++X @..-:@O&$.O.oOOO oO  o . ..XOO.---.  o.   o   OOO o$.o.",
"#o XXX+.....@@:X #oo..OO$+oO  o  o.==+++o;o+  o.ooo   OO%O .ooo.",
"OO  X=++...X..*:o$o$..O Oo O  ooOo+==X,;# #%@ .Xo.o   O$#O.Xoo.X",
"O    +++.....$$=:@....Oo.O    . O+X%;;&$ OO#3@@o..o  O #&Ooo.oXo",
"O  oX+XX. .+  $$=::-.oOO+.$   .@X&&O#O $##. #3-*X..  O ##o$X..@.",
"   Xo+X..@ o. oO:-. @@@ &.O  @X&&Oo###O%OOO  #%#*@oo OO$OO$oo.+o",
"Oooo @X.X.X . @1-.&.@o#o@@@@@X& $O OO#$# OO  o+o#*@  OOOOOOooo+.",
" OoXo@+..X+ o@11:.%X+o%#X*---X .o$.O##O%O OO ..++O*@@  #$OO ...+",
" O#  X+o..XX@+-@+@@**+,@+-----@ O$ O##$# # O .X..o&=@XoOoO#  XX.",
"o  o X@+**++X#OOoO%;2<;%OO %+--@ooo #%O&  #  X..o . &.@XOOO.....",
"XO oo+-**X$ .$$OO$.%#.#%&$%#+o+-@X$OO#O%OOOO ..@+ o  #.+=Xo$...@",
"XO +@*.OO..oooO$$$.%&&%>O$%  +&.+@X$O%##OO   ...+     &;@+. X...",
" #@@.#$Xo .$.o$ooo$##%>%%X#  . &>>+XO&#&OOO   ..+o.  #o#;&*@X ..",
"@+.#O.X..@ o. oO.Oo$O%%O#$#  .o oO;Xo#O%OO   .Xo+#oo OO$O#&@@**@",
"##OO XX.X.X .   o OO#&O%&#& O.. $O ;+o$# O   o+.@#o oOOOOO#&>###",
"## o @+..X+ ooOoo#$# #%%%&& .  .o$.%2X.O #   .--@ o o  #$OO ...+",
" O#  X+o..  o$$oo$$% o%#&%## o. O$ O%>+X   O -$##o    oOoO#  X+.",
"X   OX@$...O.OOO. o  .#&%#&   o ooo #%;+@++++-$.oo   o OOOO...X.",
"o    @+..@  .$$OoOo #.& #OO  . ooO$OO#O$=----*+X. o  o $ Oo$.+.X",
"oO  XX+XO..oooO$   o##%O%%O     o $$O%#;$=---**+.      O O. X...",
"o#  O.*Xo .$.o$oOo o##O###o   o oo$OO&#%=o&&;$.X+.  o# O& .oo ..",
"#oOO .+XoOo.+ooo.= ##O;;OO$     $$$O##&$=OO$#;2;.@.o   oO ooooo.",
"Oo#  XXXoX  +.oo+. #&O;&OO    o o$##O#%+,oO  o$#;.@.  o$o.$ ooX.",
"oX#oO*XX. X++..o=   >#&&#o.    o$O$#OOo=     .oXo; @.    $   .oX",
" o#O @XX.oo==Xoo=$O;&&%&##.      $$$%&+oOOO  o....&O@o  $$  Oo..",
"OoO oXX=.$o.X=o@.o O;&$ ##o    .   O%,+#O%   o.+.oo& @Xo$$  .o.+",
"O  # X.*X o...==.o$&;;O#%Ooo    oo &#+,%O% o  ..o.o.# @XO   .o..",
"# OO X. .oOo.X**+Oo%;;  O Oo  ooo  O,+O%#OOo  oXoo . # *XO.ooOoX",
"#X## X.&. Oooo*X=O O%OOOoO    o OO..+,,#  O o oo..  o O.-X..oooo",
"O O  +.ooo$$ XXO=O#%O $ *oO o o $@X&O%#o,  Oo Xo.oo   O$.-X.o$Xo",
"OX#Oo+.oo.O$ Xo#+=.%&&%>OOo   o@@& OO%O##,oO  X..o  o O$#*-Xo X.",
"O #Oo.+ooo $X $$#+=##%>%%X$# @X&& OO###&#O #   $.ooo   $O%--+  $",
"X # o.X..oO.@o$o.%5XO%%O#$#@X&& Oo #%%##O   o+==..oo   $O$%*= .o",
"oooOX@.oo.$@oO OoO=45XO%&X-*&    oo%&#O#    +o++=.oo   $$O$#-+oo",
"Oo#o X.oOoX-::-@@X==---=----= o .  &%# OO   O$X+++o O  OO$$O$=X.",
"o #O ...++---+..o$$%%%%;&,=--= .ooo#%&O      O&O.o oo  #$O$X&@++",
"  #  @++Xo%%#o. . o  O#&%#;O.*-=@.$O#&OO     $X...ooo  $oO$X$&*.",
"@+XXXo OO .o ..OoOo  %& #OO $@**=@@XoO#oO  ooOX.o.o o  .O$O.$O&*",
" O #  o@.%@o$.oo   +&#%O%%O  X*$$&>OoooO  O  $oX.oo o #oO$$$O$$X",
"OOO oo .O%.OoO.oOo&.##O###o  =# .oo%#Oo+     $o..o  ..oo$#OoO$o@",
"oO#oX.oooo O$. O. O.#O;;OO$ .=# o  &O#Oo+oooO o.   +. OO##O.O @+",
"o#  XoX o..OoOX.+.$ %O;&OO .+X o+oo#O%%#o*.  O X ++. O#O%#OOo.@X",
"oo#XX..oooo$oOXXX  ###&&#..==%  o.$O&%;>#.*=---=+o&o O OO$OOo- o",
"O OXXo.Oo.ooooO  $O #&%&#.=%#$ o.o ###O%O#.+=-o&&# o   .OOo.@O$X",
"o  OX+.XoXoo$OoOoo O>&$ ##o%   oXOoO#o##OO##.-oX o     $o--.$$oX",
" O#  +@@oX.Xooo o  O.X$OO..#  o & OOO##OOOOO#.Xo.    Oo==$ O.oXo",
" o#  .=+X....Ooo oo ..o.O.X  o o o o##&O OO# X+oo   Oo-OOO  .Xoo",
"  #O .=+...... oo$OO..OoO .  o oo.  O#&O OO  XO=+o  O-  $ . +XOX",
"  #O +=+....o..oooO$.ooo#%O  o ...OOO &o& #  ..@ ++ -- O $.O...@",
"o #O#+@+.... .o@$oOOX ..OOo       $& O#OO##  . . @-++-OOO . .. .",
" ## OX+X..oo+oO.o.oo..O@.OO      O $OO#X&#O  ...@@  o+@ OO.o....",
"  #  .=+... +.$.+*@...%&OOO     o$  #O#o# o  oo.=oo     .+ooooo.",
"    oX*...o X.OX. o=X.& O%O  o# o  O&### #.  ..=.oo o  O O ++oo.",
"+++++=-*@XoO.o$.OoO**+%$ OO  o  o  O##&O OO o=-o+ o  O OOOoo.o++",
"O#  $$O&OX=+@XOooo#O.o%O OO     o  %O&&$&$ @@$ooooo    O$&.$o$oo",
"oX #X.+..oO#O=@+X##OoOOOOOO     o  O&OO O@@  o...o     O OOO X..",
"OoooX++X @... O#OXX..oOOO oO  o . .&&OO@@O O  o.   o  oOOO o$.o.",
"#o XXX+.....+ oX #oo@@@.$+oO  o OOOOX-1X@+.O  o.ooo  .oO%O .ooo.",
"OO  X=++...X.o.oo$o$..O @= O  ooOO.--.%<<&++o .Xo.o   O$#O.Xoo.X",
"O    +++.....$$ .$O...Oo.@    . O+*.;%##;<&@@+Xo..+  O #&Ooo.oXo",
"O  oX+XX. .+  $$.oO.XOOO+.=*  .o*.%;#O $#;;&O=*--*+  O ##o$X..@.",
"   Xo+X..@ o. oO.o# @#O$&.@@****%;&###O%OOO O#$--4+o OO$OO$++===",
"+@@@ @X.X.X .   oo&.@o;% OO=**#&OO OO#$# OO  o+o$**@.oo.+====O&.",
" %.*@-@@.X+ ooOoo.%X+o%#O$o=@#O.o$.O##O%O OO ..++ .**::::=o%&..+",
" O#%#X.@**= o$$oOo .XO% o*--# o O$ O##$# # O .X..oo #@::=o#  XX.",
"o  o X@##.:::=XOoO&...*@O#X= o  ooo #%O&  #  X..o .  #%+++O.....",
"XO oo@+..+*:::::++***+$%&$%oX  .oO$OO#O%OOOO ..@+ o   O%%+@+...@",
"XO ooX+X@**@@oO$$$&&&&%>O$% o.++o $$O%##OO   ...+      ##;&@*@..",
" # o@**@o##$.o$ooo$##%>%%X#   &&.+$OO&#&OOO   ..+o.  #oO&##;&@*@",
"@*** ##..@ o. oO.Oo$O%%O#$#   o &&+.$#O%OO   .Xo+ooo OO$OO$oO;X@",
"###o XX.X.X .   o OO#&O%&#& O . $Oo.*@.# O   o+.+.o oOOOOOOoo$O&",
"## o @+..X+ ooOoo#$###%%%&&    .o$@O##$..o+o ..++ o o  #$OO ...+",
" O#  X+o..  o$$oo$$% %%#&%## o. O*+O##O&  o++X+..o    oOoO#  X+.",
"X   OX@$...O.OOO. o  O#&%#&   o **o #%OO     +X.oo   o OOOO...X.",
"o    @+..@  .$$OoOo +%& #OO  .@@oO$OO#O#O #  ++X. o  o $ Oo$.+.X",
"oO  XX+=O..oooO$   +&#%O%%O @+  o $$O%#&O    ....      O O. X...",
"o#  O.*X==.$.o$oOo&.##O###=@  o oo$OO&#% #    ..+   o# O& .oo ..",
"#oOO .+XoO::+ooo. O##O;o.=.     $$$O##&&OOO  oo..ooo   oO ooooo.",
"Oo#  XXXoO :::@@-*+XXo==**++. . o$##O#%&OoO  oX...o   o$o.$ ooX.",
"oX#oO*XX. @**.$#%%%<3%X**=   . o$O$#OO&%     .oXo.       $   .oX",
" o#O @XX+@@.%Ooo $O;&&;#X=X      $$$%&#%OOO  o.....O o  $$  Oo..",
"OoO oX@:*.O.oooOoo O;&%;<==    .   O%OO#O%   o.+.oo+   o$$  .o.+",
"O  #@**.O o....ooo$&;;O%%%@o    oo &#OO%O% o  ..o.o.  o O   .o..",
"# @+@.O .oOo.X. .Oo%;;  O %@  ooo  OOO&%#OOo  oXoo . # .OO.ooOoX",
"+*X.OX.&. OooooOoO O%OOOoO %@ o OO$#O&##  O o oo..  o OoO$..oooo",
"+.%  +.ooo$$ OoOOO#%O $ *oO#>@o $$ OO%#oO  Oo Xo.oo   O$&$ .oX*@",
"OX#Oo+.oo.O$ $o#$$.%&&%>OOo #>@ $  OO%O##OoO  X..o  o O$oX@@@X&O",
"O #Oo.+ooo $$ $$oo$##%>%%X$# #%*X OO###&#O #   $.ooo.XX++@o&&O $",
"X # o.X..oO.$o$o.Oo$O%%O#$#   %.*@ #%%##O   o .o.X@@@XO&OO$oo .o",
"oooOX@.oo.$$oO Oo OO#&O%&#&    @*-*.&#O#    oX@@oO&&&OO$$O$Xoooo",
"Oo#o X.oOoooo$Ooo#$###%%%&&  .@****--@ OoX@@@+X&O$o    OO$$X$$X.",
"o #O ...+Oo ....o$$%%%%#&%#$+**@@@@==X+@-@$%%%.+.o oo  #$O$X  .+",
"  #  oOO@ooo... . o% O#&%$@@@@@@O%%%%%%%%%#  $X...ooo  $#O$X$$X.",
" O o o OO .o ..OoOo  %& X@@X*** oo #%&###  ooOX.o.o o  .O$O.$OX.",
" O #  o@.%@o$.oo   +&#,+X#O  O*Xoo #&%#O  O  $oX.oo o #oO$$$O$oX",
"OOO oo .O%.OoO.oOo&.#XX###o  OX*Xoo%#%&&     $o..o    O$$#OoO$o.",
"oO#oX.oooo O$. O. O*X##;OO$ #  X=  &O#&O    O o.      OO##O.O o.",
"o#  XoX o..OoOX.+.+ #O;&OO   # o+oo#O%% O O  O X .   O#O%#OOoO X",
"oo#XX..oooo$oOXX*@####&&#o. O# @o.$O&%;>O O OO o o o O OO$OOOO o",
"O OXXo.Oo.ooooO@ #O #&%&##.  # X.o ###O%O    O$X o o   .OOOo$O$X",
"o  OX+.XoXoo$O@##o O>&$ ##o    oXOoO#o##O    $oX o     $$$O.$$oX",
"o #;===X...$+## oo$&;&O#%Oo  oo @.oOO$O O  O oXo o   OO $&$.$oXo",
"    X@oX.oo@#$ $.Oo%;;  O O     +$.OOOO##O    o.        OOO$o o.",
"  ooX.XoO@##$ O.oO O%OOOooO    o.o.oOOO$#   Oo X.oo     OOO.Oo X",
"oo oo.XX+#o $ o.OO#%O $ *O     ....o##OO     o.@+oo    O$OOo$o.@",
"    X.*##$$$.o o&O$O$O..*oO  Oo.+..O#O$$ OoO Oo@o   o    O$o$Oo@",
"    o*#o.oo.oooo.  oo%o.$OO  O o@X$O##$$O    $oX... oO o$$$.$$oX",
"O O@##...o.oooooooooo #%% &     @. $##OOO    ooo.o. o  O$. $ ooo",
"O +#o.XX...o..o$ooOoO o$O;  oO  ...O&#OOO O o$oo... ooo$OO&$$$oo",
"-## o.....ooo.oOooOoO$oooO   OO .@.O# OO O o O$o.o+ .  $O..++++@",
"#=## .....oo..oooo $#oooooo   Oo.@.#O%OO     O$o....o.-@+,@o###o",
"Oo=.o oX.o.o.ooo$.o$Oo. o$o o ooX*oOO$OO    o$ oo+.@@o##O#o.$$ o",
" oX+== X....oo. .o  .o.$o.  o o+@..$$.#Oo   o$o..*-o#$o OO. $$o.",
"o X X++X.....o.oXooo...o.o. o+  @..##oO$    o..@*o#Oo oo OX  .$o",
"O XOXX=*.X..@o.oXOoooX.. +@ o+o @..##OOo    .*@o#$.  oo  $..$.oo",
"XoXooXX*XX.+....=$oo.X.oX@@    o@@XO#$#o  .@@o#$o++ oo  $$ .O$ X",
"o oXX+++*.o+...@.o.... .*.o.  .o+@.$$OOoo@*.#$+X.... OO OOoo#O$X"
};
