/* XPM */
static char *STUCCO2[] = {
/* columns rows colors chars-per-pixel */
"64 128 48 1 ",
"  c #574333",
". c #5B472B",
"X c #4F3B2B",
"o c #533F2F",
"O c #67533F",
"+ c #5F4B37",
"@ c #473323",
"# c #3F2B1B",
"$ c #2F2F2F",
"% c #6F5743",
"& c #4F3B23",
"* c #432F1B",
"= c #372313",
"- c #533F1F",
"; c #4F3B27",
": c #1F170B",
"> c #675333",
", c #4B371B",
"< c #2B230F",
"1 c #272727",
"2 c #2F1B0B",
"3 c #0B0B0B",
"4 c #131313",
"5 c #1B1B1B",
"6 c #373737",
"7 c #332B13",
"8 c #232323",
"9 c black",
"0 c #170F07",
"q c gray23",
"w c #070707",
"e c #474F33",
"r c #6B4727",
"t c gray28",
"y c #171F07",
"u c #3F2F17",
"i c #43331B",
"p c gray31",
"a c #3F472B",
"s c #775F4B",
"d c #5F4323",
"f c #434343",
"g c #232B0F",
"h c #5B5B5B",
"j c #4B4B4B",
"k c #0F1700",
"l c gray34",
"z c #774F2B",
/* pixels */
"1#1=11$$+$$1111$X$111@$$+#$1@=#1$$$=#$=1+111#1@#X1$$1@@=s$##@$1$",
"111$=$1+oo1$1#1XX$=1#$@ & 111$11$1=1$$=..O1$1$1X=@@$=#1+ O=$1$##",
"$$$$#1  #  $1#X11$1@1@+o$Oo#X1$$#11<11+O@O ##1X#1$1#1#+%1%+$11$$",
"$$1#1 o1@$O&1X@$1$1$=o+$1@ O@$@#$11#1++1$1oO1$X$11111O $1$o.1111",
"1111o+$#1## X#111##1++#11@1+o#$1111#++#=@#@+o$X$$#1@ +@$1@1+.#1$",
"11@+.11$#11$+o1@11$+O$@1111$.+11$=1 o1#1$#$$+XX$$$@  $111@1#++@$",
"$1 +$11111X1@o+$11 +1@1#$11#$@o11$+.@1@$$#$$X@X$@$> $1$1$@1#1  @",
"1++1$1@#1X11@$o+@.+$=11$1@#$$1o.1O%1$=$$$@@X##* $ >$11@1$$1@$@ -",
"a 1111$1X$111@@O  @111#@1$$##$1+++11#11#@$X#<:<*X>1@$#@$#$$@1@1+",
"o+ .+  Xoo...   +   +o  & e+ r+ o  +   ..X#@707*X+&+. ++ Oo-o +.",
"+++ ++  .  oo +O + .+++oXOo  +  + +.o +OXO ;@**@X.++ O+%&%+ +%.+",
"oOo+o X   O&+.oo+   +o+  O O O O.XOo.++X OoO;@@XXO-++O O %o.%+++",
"1$@1@1X11$@1$$$$11$$1#$@111@11$1111$$$1$1@@##XX$$$1@11@11#1##1#@",
"$1#111X1@$@$$#$1$1$1111X##@1$1==$=11#X$11@1111#@1$$@1111$#1$11##",
"1111X@$1$1$$$1$11111$1$#=1=111#1##@XX1@11#11#1@1#$@$#111#11$1$@#",
"1@X@@$111111$1@1111111#11$X$#1111$X1#1111#1$$$$1$$1$11$1$1$$1$1$",
"@@@111=111$#$11$@XX1$=111#$$#1#$1X1@1$1$$$1$1;11###11$111$11XXXX",
"  . o  % OO OXOXO+o+. .  - o&o XX%..  ++O .O.o++o+ +o% O. +@2@+&",
"O .. XoX   XX +o++X +..+-+o+@XX  +  +O O+O.+ .%.X+&++ o> ##2@ O ",
"+ ++.OoO. X O  o+&+- + O  .+XXo>.O.O +&O+OO% O..+ o   XX##@ O   ",
"OO+++    XX ++Oo+ +  ..++;*XX+o  +   ..+++ O&+Oo   XX o..+ + +  ",
"++ ++ . X . % +o  +;; ;*@;o +++. +  + .O.+ O+o.o+ .O  oOO+&   + ",
". +o+X# O >   o.  @##=@ .+oO+o.. O.+ O&% . % % . .O .O O++++O+>o",
"XX*22# o o+X.  o+@<:2@oo+ -+. o  O..- o. %oO+O %.O +..o ++ooX###",
"o+ X=.  o o+X.  o#:0:@+oo e+ r+ o  +   ..O+ .%.+.+&+. ++ OX*#@+.",
"+++ *+  +oo... X*@=:=;o  Oo  +  + +.o +O.O   +-% .++ O+%X292@+.+",
"oOo+X*+  .XXXo**O @#@+++oO O O O.XOo.++. OoOX OOXO-++O @299@%+++",
"o.o+ooO*XX O&;++o+@;X+o+  o+oOX+.o o++ ++% +o .+ %&X##@+ 2@O+++o",
"+ o+.o+O*O&+ Ooo+@%+X@++e.O .+&& +  o%++.%+++O.  +&#OO O+#@.++++",
"+o +o.&o*X  o+o+X@+++O@e++. &@oo O+.+++%+.+++O+ +.@ ++&  @      ",
" ++X o  O+*XX+X@@Xo ++o@.o .  o.+O%%+..s+.+%o++ &XX  O+% @ + . -",
"a o.o  o .O+.*@##X.+>+oXo ..OoO+++++++o++O O .  X >X+.+ O@@oO+++",
" + + o .O O-+o+@#X +r+ X   O. > .& . + + .+OOX      O . O+@  &+ ",
"+  X   .. + + +X%X + + XX+  . +o+&O+++o+ +++X%--  O.+ % Oo+@  % ",
"o& o+       O+ X%++o .oX o+ O +.+o%.+o+ o.o.X+oo o o+ ..+ +- oO ",
" + +  .. + + +X% ++OO  X  - ++++Oo+o+.%   X.o   .   + +o>  @ o++",
"+  X       O+ X%&+o+.O+  ++oO++OO.+++ %o.oX++     -++ + O-Oo. O+",
"o& o+.o++-+ +O +o+ oO+ O @ ++o+++O.o++> +XX%o+++o ++...X++% + .+",
"+o+ -O ...   oO     o++ O%@XOo  o++ + X ++X%+ ++o +  +O. .O@+oO ",
"+-O %+ .    +X+o O+ + +   %@XoO..X .+X +  XX++         .  . >+%o",
"+++O% ++ . +o+ +o .++o>X-+Oo##.o%@@ XXoo.  X;X>>..&.+ ++ or. ++ ",
". +.+ + .+  +   &+. +o o + +*2$@X@@;XXoXX@@@*;;;.o+>+o+oOX-&. . ",
"+ ++O% .o+X +  + OXe . .O+o+o$3$8#@@@@@;@7<7#*;;.&+X. .+O .o+   ",
" .% ++  o.      -+o  + +o+o.o$3358####***<::=#,,X&o .   .o+o+o  ",
".++++O+O   + . .X..-.+O+o+  +$0095888==<<y442=@@X o +  ++ O +oO ",
".  +++..+  +&.  o+X+ @.o+ + O$433051$188549922#X@@@O++o  O+++++.",
"O +O+ + +  .-o+.&.XO&@o.oo+XO$503395$$15493392=###@ ++Oo O-% O+O",
"o  +% +.   +  , o..+ @ .oO.X+*53339945549933092<==#X  %+..+%++ +",
" o+&   +. o+ + .,,OO +@+ +eX *50339993999933339::<#@+ %o %+%+%+.",
"+++ +++ > +. &++ o,X@;.@X .o *5032999ww99933330999=@ .Oo.%++++O>",
" ++ + + +o. +   ++oOO#;@o+  o=50329999999933333099:#;+%O+%+>  .+",
"    +oo-%.O++++ +  + O##;. o*2503299999999::3333999## ++.>+++ +o",
"+.>oO&+o  +& +++ .++  O+#y=#23033<99999999::33329938$;>  + O.++%",
"+ .  o++%++  ++   + .-  .@0333400#99999999::33:299w4$X  O+XX  + ",
"  &o r+++-.+O O  o  +oO.&@9937<00#999999997#3::*99946X ++ o.X+%+",
"XXX o+  oo  +oOo    +o.+;q493=:00#99999999<:300+9999$6; + >.o+XX",
"o+ + O+  .O   + ++  e o Xt599==:=#99999999:<3::i999w8$,o  ++ Oo ",
"++          .   ..Ooo> X@u599o==<=999999997@3<:699w6817  ++++O%+",
"++o+-O Oo+..+X .-o.o. ;u#=599,*#<@99999999u#3<<o99$558$,++oo- +O",
" Ooo@. Xo OO.o& o&Oo,,<=$659:-i##@99999999:<0#:,99433517-+ -+o. ",
"  &   &X& o&Oo@aX O+ *<$6$490u.#0@99999999:<0<<,9943344<,; ...  ",
"  o  +&X. ooX. .o O +@=66899:-6>:@99999999<<:::.999445:<,*+.    ",
" o oo+o*&. . . +.   +o$68999:,do:@99999999<#:<=i999944<7-*o+X++%",
"X&+.+oo.*.X.  &+    .;@p9999:,.,<@99999999<@:i<,999955#;.o*.. oO",
"***;  +*=++++ .+o+ .;i#pod,o:Xo#=@:,rr.r.d7X:6=,,,7<5w2;o+**O;;;",
". ++;**22= O . + + ;@##$p,,,:XX@#@:,.,,,,,7+#<#,ooug4ww; ;*2;+ +",
".++..  o.;*XX.+. ##@#@@#ftthhpX@##:o.,o,iu7.&##-,up547o***;+   +",
"++ . +Oo+  .o.X.o+o@oi#:yw51$6t@#=:,,.d6,77o.&=+,pg4<7+O * O   +",
" +  % +o   + .  X@@.+i#:ywww5$qf@=:,.,,-7u7%.&#@fg447,-o * +o. +",
" X>-.  .. o.o+ O+ X*o+=:2:ww48$qt=::::::0:7O&.#@q$48<,-  * .  ++",
"+X  ++. X .OO ++oo%+*22==2:081$6t=:9999999uri.#@q14<<,-+ ; .oO+O",
"o + + O+X  %%++ O++O+Oww@#222$$6t=:9999999u.,.##q54<7--.;. + + .",
"+++   +  Oo  O+   O  .y==w###@q6j=:999966pt&o.=@q54<,. ; O.% % .",
".O+   . O+O++o+++++%O%##+O@=#@t66#:999548$qh&&=@q547,O+;+OO.O.+O",
".OO+    + > %- +OO ++ #X+OOX@#X6$$661534348qp&=&q15,+O ++O > +.+",
"o.+ +   %+OO%+++.  OX*=*+ +X. @qq$8344ww4458ql=&q57,.O+++. ++ +-",
" +O O +o.+O ++++  O+;=9k*;. +o++jf$4434435886tjqq3#+  O+ . +.o.+",
"+ + + + O+O+ +++O O X*k=*. X  . ++#<<34*=@8=$66$$36+o  X+.o+ o..",
"  o  ++.+.+ +++  X  X **o  X  ..+ @<:=#@=@@=$$$588q++. o+  +X+%+",
"X% . +      . %o   X  . X+++. O +  @#:X* o =@6t6qX +  O + +.X+ +",
"X.+  oo.  ..e  ++O   X  o. +++OO +.O +@*X+o; z  .++  O   .     o",
"o   o .% +Oo>-O .+o+.    .    .. s+.  ++#X O. +OoO + O O.-+o. +o",
"O +. XoX   &  + ++&o+  +-O +o. ..+  OO +.#o+ ++++ %o.oX++     O ",
" +O+oOoO. +o+   .@+- .o>  .+o+oO+O.+ +&O ;X% O.o++> +XX%o++o   +",
"OO+++    .+o .Oo+ .o   O.% o +   O e . .+; XXO+ + X ++X%+ +o + +",
"++ ++ .   o O + - +.Oo.. %o ++.. +  + .+o  +XX .+X +  XX;+   .+ ",
". + ++ ..oO   o+  + -%o .+ %+o.. +.+ O-%o-oO X  XXoo.  X*X>..+Oo",
"  + .  & &.X       .++oo+ o+.oo  O..o+X o+&O+O++O+oXX@@@=;;.o+% ",
"o+ .++ +X&   o-.+   .X   . + r+ o  +     +. .%+o+ X;O7<72*;.&++.",
"+++ ++    ooo .+ + ++++  Oo o+  .o+.o  . + oo.+++ X.@<522#,X&%++",
" O +o o   OX+.o +   +o+. % +o+ + &Oo.+  -.&+Xo .+oX;*y3932*X;+%+",
" + Oo o++o.-O o+>oOo++++o o+oO&..- X++ ..+-+X +o. ;X@233952* ++ ",
"  oO+&o  .oo+ O+++++%o + ++ ++ &   o O.+oO + .O.>X.; #5222<*X++O",
"+o Oo  oo.o+++++ -o++ O+O+ oo&o-o++ +++%+r+++O.++&+o;*2=*=oXX oo",
" +oX  oo + ++. +  +%+ . +  .    +OO++.o%+r+O .  .;o >o*@ *.Xo+ o",
"X o+o .O +o+ + O o+++ . + ..OoO+++O+ +X++% O .       o;@ ;+ &++.",
"XX +  ..X+ + OX% ++ + %o+  O..> .o . .o+ ..++O+   .-o .@ o+ oXXX",
"+ X X o   .O+ o%oXo++X+  + .. . +o%+++& o. . +XO  O+  +X. Oo O  ",
"oo+-X.&O+ + +%++o+; O+X + ++% +.. s.+o+o  o. ..++. >@%%.+ .o+Oo+",
"++O oXXX.+    O X ;X X X+ - %+++>o++Oo+-+  .o   .o+X O o.  .-++ ",
"++O ++ .OX  +X+;;X* @ @XX++ %++OO+++%.Oo+o..+o+.+ +  . +. +X.O+.",
" ++ O- + OOXX+ ; *#@#*@@++ ++&+O+%+ ++>&+. %-+ o+  .   O..o .o++",
"  + +   .+ +OXX**yy=##*o  ++%    O> + >  ++%       %X+&%.++ .>X ",
"oo +>% +oOX O .*y992=#@@@X++% O+++ .O +  oO +. ++ . & oO o+o++o+",
"  % ++  -.   X*#*y42=**o@.++% + %+ +++o++++ r.+..- + O+ or..O++%",
"+++. .+>   +.+@*#22*7**@@o++ +  + ++O+ oO. . +o. +>+&+o+o.&+ +++",
". o.++ .+. O X@@;*****X @+++so+++ .o++O % oo+ o.o+ . .+O +o+   %",
"+  +. + O  +  XX@;@@@XXo@+o+%+%.%o+++ +++-+ +.++&o . o   + O   +",
"   .+ + .  +X.+X;@;; @X+oO O% O    .+ +.+ ++.+     +o O. O + O +",
" oOX   +. oO + +X X+X+Xo X+OO-  %++++ +X+++..O    OO++o  O+++++.",
"+&  +    .+O  + oXO+ +++o +++o   +O+O&+X . a  O ..+o+.Oo >o% >+O",
" +. ++O.o  +O++XOX++   +oO+++o+ o++ O&Oo .. +.O+.O X  % +++%++++",
"+++ o +  .o  +. oXX@  oO ++..OoO +  +a  O+o+O+.eo+e%+ %ae%+%+%++",
"+++++++ O +  &+.  ++@X.OX.+  +&  O  .  + . +  + o++% .+o %OO%+O+",
" ++ + + +o. O   .+ .++@@X+.+.> +& +   XXXO+   +  > . +%O+%+O  .+",
"   o+   %.O+%++ . .+ oO+XX@#X O- . + XO+  + . O   + .++++>+++ +o",
"++>o%o+ + Oo O++  .+ + +OOO+@#X  .XX++ >&+O.+ . +.oO  >  + O.++O",
"+ +   ++%+O  ++   + .o  ..+o+@##22X . +X >.o.  +oo+OXo +O+X+ +%+",
"  oo +O++ + + +  o o+X+.X o+ #2=4=@X+ O  . +. + .OOo.. ++ X+ +%O",
"o%   +   o  .oOX o  + .+ +oOX2#@o@@X+  +   O++  ++  .-O + >+ + +",
"o  + O+o  O   .o..     + XX+@@X  OX@@XX%o+ %+O% +++++ +   +O+O  ",
"++       +  .   ..Ooo>+ -o @X%. O+ +O.XXX  O.. -  %%+ O %++%+%%+",
"++- -+ O %+++o .. . + +  .X+ % . +o..  .-XoX .O +.OO+. X++ .. +%",
" > o&  . +OO+ &   >o +++XX +-o.  +.+oO +&OoXXX  + O+ + o+.++O +o",
"o o   &>o  oO &oo O+  X O .O  o+  X .. Oo+ >  X . .  .+ +  ++.  ",
" +   +o O.- &+ .o.O Xo+ O++  +o   X  +O %%+%++ X  oOXo... ...  -",
" o + +. o+ + . ++  X+o    o +%.  O+. OO+++ . +ooX-O +oor+.-+&. O",
"oX++>  eXeX.  &. XX + + &. O & + +   Oo. +o+++OoX.++ oo&.o>.  &O"
};
