/* XPM */
static char *SW1COMM[] = {
/* columns rows colors chars-per-pixel */
"114 128 85 1 ",
"  c #13230B",
". c #152A0D",
"X c #17330F",
"o c #343D2F",
"O c #373737",
"+ c #363F31",
"@ c #3C3C3C",
"# c #7F0000",
"$ c #533F2F",
"% c #772B2B",
"& c #7C2B2B",
"* c #374032",
"= c #48423C",
"- c #594533",
"; c #5E4A37",
": c #444444",
"> c #4C4C4C",
", c #4F534E",
"< c #5A534D",
"1 c #555555",
"2 c #555854",
"3 c #585B56",
"4 c #5B5B5B",
"5 c #675644",
"6 c #745D49",
"7 c #675151",
"8 c #6B5252",
"9 c #665959",
"0 c #735454",
"q c #7B5454",
"w c #5F605F",
"e c #77604C",
"r c #676059",
"t c #6A635C",
"y c #786453",
"u c gray39",
"i c #6D6D6D",
"p c #706B65",
"a c gray46",
"s c #7A7570",
"d c #7D7873",
"f c gray49",
"g c #850000",
"h c #8B0000",
"j c #950000",
"k c #9C0000",
"l c #A50000",
"z c #AC0000",
"x c #B30000",
"c c #BD0000",
"v c #852B2B",
"b c #8B2B2B",
"n c #932B2B",
"m c #9B2B2B",
"M c #A32B2B",
"N c #C40000",
"B c #CB0000",
"V c #D40000",
"C c #DC0000",
"Z c #E30000",
"A c #EC0000",
"S c #F10303",
"D c #F40C0C",
"F c #FA1515",
"G c #FF1F1F",
"H c #805454",
"J c #836B57",
"K c #856D58",
"L c #86715F",
"P c #8B735D",
"I c #947B64",
"U c #977D6A",
"Y c #9B7F6B",
"T c #807A75",
"R c #857E79",
"E c #9E836E",
"W c #9B8271",
"Q c #A48A74",
"! c #AC947C",
"~ c #838383",
"^ c #898080",
"/ c #8B8B8B",
"( c #948383",
") c #939393",
"_ c #9B9B9B",
/* pixels */
"@@:@@@OOO@@:@O@@:@O:::OOO@O@::@O@@::O::@@@@@@:@@::@::@@::O@@@::O:>OOO@@@@::OO@::@@>:@@@@@::@::@@::@@::@@@::@@OOOOO",
"@@::@@@OO@::@@@@::@@:@@OO@@@@:@@@@:@O::@@@@@@:@@>:@@::@@:@@@@:@@::@@OO@OO::@@@@:@@::O@@@@@@@@>:@::@@:@@@O:@@@@@OOO",
"@@:@@@@OOO:::@@@::@@:@@OO@@O@:@@@@::@@:@@@@O@:@O::@@:@@::O@O::OO::@OO@@O@:@@@@@:@@::@@@@@::@@::@::@@:@@@@::O@@OOOO",
"@@::@@@OO@::@@@@::@::::OO@@::::@@@::@:::@@@@:::@>:@:::@::@@@:::@:::@OO@@:::O@@::@@::@@@@@::@:::@::@@::@@O:::@@OOOO",
"@@:::@@@O::::@:::::::::OO@O::::O:::::::::@@:::::>>::::::>O@::::::::@OO@::::O@::::::::@@@::>::>:::::::::@@::::@OOO@",
"::>::@@@O::::@:::::::::@@@:::::::::::::::::@::::>::::::::@:::::::::@O:@::>:::::>:::::@:::::::>::::::::::::::@:@@O@",
":::::::@@:::::::>:::>::@@::::::::::::::::::::::::>::::::::::::::::::O@:::::::::::::::::::::::>::>:::>:::::::::@@@@",
"::>::::@@:>>:@::>::>>::@O:::>>:@::>>:>>>::::>>>:>>:>>>:>>:::>>>:>>::@::::>::::>>>:>>:::::>>:>>>:>>::>::::>::::@@@@",
":::>:::@@:>>::::>>:>>>:@@:::>>::>:>::>>::::>:>:>>>>:>:>>>:::>>::>>::@@:::>>:::>>:>>>:::::>>>>>>:>>:>>>:::>:::::@@@",
"::1::>:::>:>>::>>>::>>::::::>>::::>>:>>::>::>>>:>1:>>>:>>:::>>>::>>:::>::>>:::>>>:>::>:>>:>:>>>>:>::>:::>>>>:>::::",
">:>::::::>>>>:>:>>>>>:>:::>>>>>:>>>>>>>>>:>:>>>:1>>:>>>>>:>:>>:>>>:::::>>>>>:>>>>:>>>>:::>>>>1>:>>>>>>:>>>>:::::::",
"::>1>>:::>>>>:>>>>>>>>>::::>>>>:>>>>>>>>>::>>>>>11>>>>>>>:>>>>>>1>>>:::>>>>:>>>>>>>1>::>>>>>>1>>>>>>1>>::>>>>:::@:",
">>,>>>>::>>>>>>>1>>>>>>:::>>>>>>>>>>>>>>>>:>>1>>11>>>>>>1>>>>>>>>1>::>>:>1>>:>>>>>>>>>:>>1>>11>>>1>>>>>:>>>>>>::::",
">>>>>>>>:>>1>>>>>>>>1>>:>>>>>1>>>>1>>>1>>>>>>>>>14>>1>>>>>>>>>>>>>>>::>>>>>>>>>1>>>>>>>>>>>>>11>>>>>1>>>>>>>>>>>::",
">>11>>>::>11>>>>11111>>::>>>11>>>>11>11>>>>>>11>44>>1>>11>>>111>11>>>>>>>11>>>11>111>>>>>11>141>11>>1>>>>11>>>:::>",
":121,>>::1>11>>>41>>111>:>>>11>>>111>14>1>>>111>41>141>41>>>111>14>>:>>>>11>>>11>111>>>1>111141>14>1411>>41>>>>:::",
"1>111>>>>>111>1>111141>>>>>1111>>>41>11>11>111>>44>14>>14>>>>11>11>>>>1>>11>1>111>11>1>>>14>141>14>111>>>14>>1>>>>",
"1111>1>>>11111>111>1111>>>>1111>11111111>>>>1411441>11114>1>141>411>>>>11111>111>1411>>111111411111>4111>14>>>>>>>",
">11111>>>1111>141111111>>>1111>1111111141>111114441441414>>441141141>>>1411>111414111111111414111441111>11114>>>>>",
">141111>111111114414414>>1114111144114411114414144141411411144144111>>11114111414141111141414u4141114411>444111>>>",
"14441141>114411144114411111144111444114441141441wu1444144114444144411111144111141144114114414u4144114414444141>>>1",
"11444111114441444444444>>14444411444444441144444uw444444411444414441>11444414444444441141444uu44444444414444141>>>",
"114444111444414444444441>44444144444444444144444uw444444411444444441>144444114444414441444444u44444444441444411>1>",
"44u44111144u4144uu44u4411114wu4144uu4wu441444u44uu44uw4wu1444uw4uu4411144uu1444u44uu44144uu44uu4uu44u44144u4411114",
"14u44411144u4444uw4uu4444114wu4144uw4uu44144wuw4uu44uw4wu414wuw4uu4111444uu114uuu4uu44144uu14uu4uu4uuu411uu4411411",
"44uu4444444uu444uu44u4411444wuw444uw4wu44444wu44iu4wuw4uu4444u444u4414444uu444uu44uu44444uu44iu14u44u4444uu4444144",
"44uu4444444u44u4uu4wuuw4444wwuw44wuu4uu4w444uuw4ii4wuw4uu444uuw4uu4414444uu14u4uu4u444444uu4uiu4uu44uu4444u4444114",
"44uuu4444uuu44uuuuuuuuu444wuuu44uuuuuuuuu44uuuuuiuuuuuuuu44uuuuuuuuu444uuuu44uuuuuuuuu44uuuuuiiuuuuuuuuu4uuuu44444",
"4uiuuu444uuiu4uwuuuuuuu44wwuuuuwuuuuuuuuuwwuuiuuiiuuuuuiuwwuuuuuuiuu144uuiu4uuuiuuuuuu4uuiuuiiuuuuuuuuuu4uiuuu4444",
"uuiuuuu44uuiuuuuiiuuiiu44uuuiiuuuuiiuuiuuuuuuiuuuiuuiuwiiuuuiiuuiiuu4uuuuiiuuuuiuuiiuuuuuiuuuiuuiiuuiuuuuiiuuuu444",
"uuiuuuu44uuiiuuuiuuuiuu44uuwiiuuuuiuuiiuuuuuuiuuiiuuiiuiiuuuuiiuui444uuuuuiuuuuiuuiuuuuuuuiuuiuuiiuuiiuuuiiuuu4444",
"uuiiuuu44uuiuuuuiiuiiuu44uuuuiuuuuiiuuiuuuuuuiiuiiuuiuuuiuuuuiuuiiuu44uuuii4uuiiuuiiuuuuuiiuiiiuuiuuiuuu4ii4uu4444",
"uuiiiuuuuiiiiuiiiiiiiiiuuuia~)/////))))))))________)))///))))______))/)))///////)/aaiuuuiiiiiiiiiiiiiiiiuiiiiuuuuu",
"uiaiiuuuuiiiiuiuiaiiaiiuuuiia/~~~~~~//~//)/))))))_)//~~~~/~//))___///////~f~~~////iiiiuiiiiiiiiiiiiiiiiuuiiiiuuuuu",
"iiiiiiiuuiiiiiiiiiiiiiiuuiw:4iuuuuuuiiiiiaaaffaa~~aiiuuuuiiiia~~~~aaiiiiiuuuuuiiii:1iiiiiiiiaaiiiiiiiiiiiiiiiuuuuu",
"iiaiiiiuuiiiiuiiiiiiiiiuuiw>4iiuuuuiiiiaaafff~ff~~faiiuuuiiaaf~~~~faaaiiiuiuuuiiii:>iiiiiiiiaaaiaiiiiiiiiaiiiiiuuu",
"uiiiiiiuuaaiiiiiiiaiaiiuuiu:4iiuuuiiiiiaaafff~~f~~ffiiiuuiaaff~~~~ffaaiiiiiuuiiiii>1iiiiaiiaiaaiiiiiiiiiiiaiiiuuu4",
"iiaaaiiuiiiaaiiiaaiaaiaiuiu:4iiiuiiiiiaaffff~~~f/~ffiiiiiiiaf~~~//ffaaiaiiiuiiiiii>1iiiaiaaiafaiaaaaaaiiiaaiiiiiui",
"aiaaiiiiiiiaaiaiaaiaaaiiiiu>4aiiiiiiiiaaaff~~~f~//ffiiiiiiaaf~~///~faaiiiuiiiiiiii>1iaiiiaaiiaaaaaaiaaaiiaaiiiiiii",
"iaaaiaaiiiaaaaiifaiiaaiiiiu>wiiiiiuiuu444u4u4wwwwwww4w4uuiifaf////ffafaaiiiiiiiiaa>1iiaaifaiafaiaaiiaaaiifaiaiiiii",
"iiaaiiiiiiaaaiiafaiaaaiiiiu>uiiiiiiiu9887798890888887789uaaaff~//~ffaaaaiiiiiiiaaa>1iaiiaaaia~aiaaaiaaaiifaiiiiiii",
"iaaafaaiaaaaaiaaaaafaafiiiu>uaaiiiiiiMBVCZZSDGGGSAZZCBBHiaaf~~////~~~faaaaiaiiaaaa>4aaiaaaaffffafafaaaaaiafaaiaiii",
"aafaaaiiiaafaaaafaaafaaiaau>waaiaiiiimBBVZZSDFFFAACCVBNqiaf~~~////~~ffafaiiaiiaaaa>4aaaaaffafffafaaafaaaaafaaaaiii",
"af~faafaiffffaafffffffaaiai>uaiiiiiiimcBBVCZASASZZVVBNNqiaaff~/)))~~~faaaaiiiaaaaa14aafaaffaf~faf~af~faaaf~aaaaiii",
"afffafaiiff~fafaffaafffiiai>uaaaaiaiimxNNVVCZZAZCCVBNccqiaa~~~)))/uu4afaaaaiiaaafa>4fafaa~fff~faf~af~ffaa~faafaiai",
"faffaaaiiaafaaaaffffffaiaai>uaafiaaainxccBBCCZZZCVBNNxxqiaaf~/)))/:>:ufffaaiafaaff>4aaaaaffaf~faffaa~aaaaffaaaaiii",
"aa~fffaaaff~faff~~ff~fffaai1uffaaaaaibzxxNNBVCCCBBNcxzz0if~~//))_/::>ufffaaaaaff~f1ufafff~~ff~ff~~ff~ffaa~~ffaaaaa",
"ff~~ffafa~~^faf~~~~f~~fafai>ifafdaaainlzxNNBBVCVBBNcxzz0if~~~/)__/::>if~ffaafaffff1u~faff~~f~~~f~~f~~~ffa~~~fafaaf",
"ff~~ff~aaf~~fff~~~f~~fffffi>u~aaafaaivkllxxNNBBBccxzzkk0if~~//))(Y(!!QERfaaaaff~ff1uffff~~~f~/~~~~ff~~~ff~~f~ffaaa",
"f~~f~fffff~~~~f~~~f~~~~aafa1ifffaafaivkklxxcNNBNcczzlkk0iff~//))UU!(!EIR~afafaff~f4uf~~ff~~~~/~~~~~~~~ff~~~~fffffa",
"ff~~~fffaf~~ff~f~~~f~fffa~a1ifffaa~ai&hjklzxccccxxllkjh0if~//))_PKYYIPKd~ffafff~~f4uffff~~~f~/~f~~f~~ff~f~~ff~aaaa",
"~~/~~ffff~~~~~f~~~~~/~ffffa4if~fff~ai%gjjllzxcccxzlkjhg0if~//)__eHHHe6ed~f~afff~~~4u~~~~~~~~~/~~~~f~/~~~~~~~f~ffff",
"~~/~~~~ff~///~~~//~//~~~f~a1i~f~f~~ai%#ghkllzxxxzlkjhg#8i~~//)__5;--$-;s~ff~ff~~~f4i~~~~~//~~//~//~~/~~~~//~~~~f~f",
"~~//~~~~f~~/~~~~//~~/~~f~~f1i~~fff~ai%#hhkklxxxxllkjhgg8i~~/)___py==$,uf~~ff~f~~~~4u~~~~~//~//~~//~~//~~~//~~~~ff~",
"~//~~~~f~~~//~f~/~~~/~~~f~a1i~~f~ffai%#hhkkzzxxxzlkjhg#8i~~//)__ai*:@3if~ff~~f~~~~4u~~~~~~/~/)/~//~~/~~~~//~~~~fff",
"~~////~ff///~~/////////~~~a1i~f~aa~ff^^(((((((((((((/((da~~//)_))/:>>i~ff~~aaf~f~~4u//~~/////)/////////~~//~~~~~~f",
"~~////~f~///~~/////////~f~a4ifffaa~~f/))))/))))))))))/)fa~~/)))__/:>>i~ff~~af~f~~~4i/~~//////)//////////~////~~ff~",
"//))///~~//))///))//)//~~/f>u~fafaaaf~f~~////)//)_/~~faaa~f~~/))))::>if~faaaaaffff1u/////))/)_)/)///)////))////~~~",
"//))///~~//)////)///))/~~/f>uffafaaffff~~///))//))/~fafaaff~~/))_/::1uff~aaafaffff4u/////)///_//))//)////))///~~~~",
"//)////~~//)////))/))//~~/f>ifaaaaaf~ff~~////))/_)//~faaaf~~//))))::>i~ffaafaaa~ff4u/////))//_)/))//)////)////~~~~",
"//)))//~/)))///))))))))///a>ufafaaaafff~~~///)//))//faaaaff~~/)))/::>iff~aaaaaffff1u)////))/)))/)))/))///)))/////~",
"/))))////)))//)))))))))///f>uaafiaaaaf~ff~~/////))/~~faiaaaf~/)))/::>i~aaaaiaaaaf~>u)//))))))_))))))))_//))///////",
")))))))//))_)))))))))))//)f>uaaaiiaaafa~~~~~~//~))~~aaaaiaf~~~)))/::,uafaaaiaiaaaa>u))/)))_))__))_))_)))/_))))////",
")))))))//))))))))_)))))//)f>uaiiaiiaaaa~f~~~~/~~)/~faaiiiaa~~~/))/::>iaaaiiiiaaafa>u)))))_))___/_)))))))))_)))////",
"))_))))//)))))))_))))))//)f:wfaiiiiiuw2ww333w33w4344444uufa~f~///~::1uaaaaiiaiaaaa1u))))))_)___)_))))_)))))))))///",
")))))))//)))))))))))_))//)f>waiiiiiuu,>>>>,>>>>>>>>>>>>wuaaf~~///~:>>uaaaiiiiiaaaa>u)/)))))))_))_)))))))))_)))////",
"//)))////)))//)))))))))///f>4iiuiiiii*                 1iiaaa~~//~::>uaaiiiiiiiiaa>u)//))))))_)))))))))//)))//////",
"//))/////))))///)))/)))///a>4aiiiiiii*  ......XX.....  4iiiaff~//~::1uaiiiiiiiiaai>4)////)))))))))/))))//))////~/~",
"//))///~~//))///))//)//~~/a:4aiiiiiiu*.XXXXXXXXXXXXXX. 4iaiaa~~//~::>uaiiiiiiiiiai>4/////))//_//))//)/////)////~~~",
"//)////~~//)////))//))/~~/f:4iiiuiiui*.XXXXXXXXXXXXXX. 4uiifff~/~~:>>wiiiiiuuiiiii>4/////)//)))/))//)////))///~~~~",
"//))///~~//)////))//)//~~/a>4iiiuuiii* XXXXXXXXXXXXX.. 1uiaaff~~~f::,wiiiiiuuiiiii>4/////))//_)/))//))///))///~~~~",
"~~///~~~~////~~////////~f~a:4iuuuwuuu* XXXXXXXXXXXXX.  1uiiiaa~~~f::>uiiiuuuuuiiii:4/~~//////)/////////~~////~~ff~",
"~~///~~f~///~~/////////~~~i:4iuuuuuui*.XXXXXXXXXXXXXX. ,uiiiiaf~~f:>>wiiiuuuuuuiii:4/~~//////)/////////~~////~f~~f",
"~///~~~~f~~//~~~//~~/~~ff~a:4iuuuuuui* XXXXXXXXXXXXXXX 2uiiiaaf~~f::>4iiiuuuuuuiiu:1~~~~~//~/)/~~/~~/~~~~//~~~~fff",
"~~/~~~~f~~~/~~~~/~~~/~~~~~a:1iuuwwuuu* .XXXXXXXXXXXXX. ,uiiiaaf~~f::>uiuuuuwuuuiii>1~~~~~//~///~//~~//~~~//~~~~ff~",
"~~//~~~ff~~//~~~//~///~ff~a:1uuwwwuuwo XXXXXXXXXXXXXX. >4uuiaaf~fa::>wiuuuu44uuuui:4~~~~f//~~/~~//~~/~~~~~/~~~ffff",
"f~~~~~fff~~/~~~~~/f~~~~ff~i:1uww44wwu* XXXXXXXXXXXXXX. >4uuiiaf^~fuiiiiuuw444wuuuu:1~f~f~~~~~//~~/~~~~~~~~~~~~ffff",
"~~~~f~ffa~f~~fff~~f~~~faa~i:1u444444u* .XXXXXXXXXXXXX..>4uuiiiaff~~~/auuu44444wuuu:4f~f~f~~~~/~f~~f~~~ff~~~ffffaaf",
"ff~~~ffaaf~~~f~f~~f~~~~aa~i:1u44444wwo XXXXXXXXXXXXXX. >4uuiiiafafaaiiuuu44444wuuw:1f~~ff~~f~/~f~~ff~~f~f~~~~~faaa",
"f~~~fffffff~~fff~~f~~fffa~i@1uw4444wwo XXXXXXXXXXXXXX. >4uuiiaaaaaiiiuuuu44444wuuu>1~fff~~~f~/~~~~f~~~fff~~ffffaaa",
"fa~~ffaafff~ffff~~ff~~fafai:>w44214uiaaafaaaaafaaaaafaaii44uiiaafaiiuuu444414444uw:1ffaff~~f~~ff~~ff~~ffa~~fffaffa",
"af~fffaaaff~faff~~f~~f~aaai@>4443444uiiaiaaaaaaaaaaaiaauu44uuiaaaaiiuuu444411444u4:1ffaff~~ff~~f~~ff~ffaa~~ffaaaaa",
"aafffafiiafffaaaffafffaiaau@>4411114444uuiiiiiiiaaiu4414144uiiaaaaiiuw444114114441:>aaaaaffaf~faffafffaffffaaaiiai",
"ffffaaaiaafffaaf~faa~aaaiau@:4411114444uuiuiiiiiaaiu441114uuuiiaaaiuu4444411144444:1fafafffff~faffafffafafffaaaaii",
"afffafaaiaaffaaa~faffffiifu@>441>114444uuuuiiiiiaiiu444>>44uiiiiaiiuuu44411>114444:1aafaaffaf~faffafffaaaffaaaaiii",
"iaafaaaiaaffaaaaafafafaiiiw@:4111>1114444uuiiiiuiiuu41>1>444uuiaiiuu44414>1>>11141@>aaaaaffafffaffaafaaaaffaaaiiia",
"iaaaaaiiiaaaaiafaaafafaaaiu@>4>>>>>>14444uuuuiuuiiuu41>>>4444uiiiiuu444111>>1>1141@>aaiafafafffafafafaaaiaaaaaiiii",
"iaaaiaiiiaaaaaiifaiifiiiiiu@@@@@OO@@@:@@@:::>>::>>::@@@OO@@@:::>>>:::@@:@@OOO@@@:@@>iaiiiaaiaffiaaiaaaiiaaaaiiiiii",
"iaaaiiiiiiaaaiiiaaiifiiiiiu:::@@O@@@@:::::>>>>>:>>>::@@@O:@:::>>>>::@:@:@@@O@@::@::>iiaiafaiafaiaaiaaaiiaaaaiiiiii",
"iiaaaaiiiiaaaiiaaaaaaaiiiiiiiaaiiifaiaaiiiiiiaaiaaiaaaiaaiiaaaaifaaiiiiaifaiiiaaaiaaaiiiiaaiaaaiaaiaaaaiiaaiiaiiii",
"iaaaiiiuiiaaaiiiaaiaaaiiiiiaaaiiiiaaiaaaaiiaifaiaaaiaiaaaiiiiaiaaaiiiiiiiaaiiaaaiaaaiiiiiaaiaaaaaaiaaiiiiaaiiiiiui",
"iiiaiiiuuiiiiiiaiaiiiiiiuiiiiiiiaiiaiiiiiiiiiiiiaaiaiaiiiiiiaiaiiiiiuuiiaiiiiiiiiiiiiiiiaiiaaaiiiaiiiaiiiiiaiiuuuu",
"iiiiiiiuuiiiiiiiaiiiiiiuuiiiiaiiiiiiiiiiiuiiiiiiaaiiiiiiaiiiiiiiiaiuuiiiiiiiiiiaiiiiiiiiiiiiaaiiiaiiaiiiiiiiiiuuuu",
"uiaiiiiuuiiiiiiuiiiiiiiuuiiiiiiiiiiiiiiiiiiiiaiiaaiiaiiiiiiiiiiiiiiiuuiuiiiiiiiiiiaiiiiiiiiiifiiiiuiiiiiiiiiuiiuuu",
"uiiiiuuuuiiaiuiiiiiiiiiuuuuiiiiuiiaiiiiiiuiiiiiiaiiiiiiiiuuiiiiiiiiuuuuiiiiuiiiiiiiiiiuiiiiiiaiiiiiiiiiuuaiiiuuuuu",
"uuiiiuuuuiiiuuiuaiiiiiiuuwuiiiuuiiiiiiiiiuuiiiiiiiiiiiiiiuuiiiiiaiiiuuuiiiiuuiiiiiiiiuuuiiiiiiiiiaiiaiiuuiiiuuuu4u",
"uuiuuuu4wuuiuuuuuuuuiuu44uuuuiuuuuiiuuiuuuuuiiuuiiuuiuuiuuuuuiiuuiuu4uuuuiiuuuiiuuiiuuuuuiiuuaiuiiuuiuuuuiiuuu4444",
"uuiuuuu44uuiiuuuiiuuiuu44uuuuiuuuuiuuiiuuuuuuiuuiiuiiuuiiuuuuiuuiiu444uuuiuuuuuuuuiuuuuuuuiuiiuuuiuuiiuuwiuuuuw444",
"uuiiuuu44uuiuuuuiiuiiuu44uuuuiuuuuiiuuiuuuuuuiuuii4uiiuuiuuuuiuuiiuu44uuuiiuuuiiuuiiuuuuuiiuuiuuiiuuiiuuuiiuuuw444",
"uuuuuwu44uuuuuuuuuuuiuu44uuuuuuuuuuuuuuuu4uuuiuuiiuuuuuui4uuuiuuuuuu444uuuuu4uuiuuuuuu4uuuuuuiuuuuuuuuu44iuuww4444",
"44uuu4444uuuw4uuuuuuuuu4444uuu44uuuuuuuuu44uuuuuiiuuuuuuu44uuuuuuuu4444uuuu4uuuuuuuuuu4uuuuuuiuuuuuuuuu44uuuu44444",
"44uw444444wu444wuu4uuu444444uuw44uuu4uu44444uu4uui4uuu44u4444uu4uu4444444u44444u44uu44444uu4uiu4uu4uuu444uw4441414",
"4wuw4444444uw444uu44u4411444wu4444u44uu444444u44iu44uu4uu4444uu4uu4414444uu444uu44uu44444uu4uiu4uu44uw444uu4444144",
"14uw441114wu4444uu44u4441444wu4444uu44u44414uu44uu44u44uu144uu44uu4414144u44444u44u444114uu4uu444u44uw441uu4414111",
"14uw4411144u4144uu44u44414444u4144u444u444444u44uu44u44uu1444u44u44411144u41444u444u41144u444u44uu44u4441uu4411111",
"144441111444414444444441>11444144444444441144444uu444444411444444444>11444441444444444144444uu44444444441444441>1>",
"1444441>>44441444444444>>11444414444444441144441uu444414411444444441>144444144444444444444444u444444444114411111>>",
"11411141111441114411444>144144411144444111144441uu114414414114414411>111144411444444111114414u44441144114441111>>1",
"1144111>>14411111411441>>114111>144414414111414444414144411414414111>11114111441114111>11444444141144141114111>>>>",
">11111>>>4111>114114141>>>>4141>141111111>>41111441141111>>441141411>>>1411>1114441441>11411444441111111>1111>>>>>",
">111>>1>>11411>114>14>>>>>1>>41>1>1111411>1>111>44>111>141>>111>111>>>>11111>>11>111>11>114>144>1111411>114111>>>>",
"1>111>>>>>>1>>>111>141>>>1>>141>>111>111>>1>111144>111111>>1>4>114>>>>1>>11>>1111>111>>1>11>141>11>111>>>11>>>>>>>",
">>11>>>>:1141>>>41>>4>>>:>>>11>>>111>111>>>>11>>44>111>11>>>111111>>:>>>111:>111>144>>>>>41>141>14>>11>>>111>>>:::",
">>11>>>:>>>1>>>>11>1111::>>>11>>1>11>111>>>>111>44>>11>11>>>11>>111>:>>>>11>>>111>1>>>>>>11>>41>11>111>>>11>>>>::>",
">>>>>>>::>>>>>>>1>>>>>>>>>>>>>>>>>>1>>>>>>>>>1>>11>>>>>>1>>>>>>>1>>>:>>>>>1>>>>>>>>>>>>>>1>>14>>>1>>1>:>>>1:>>:>>:",
">>>>>>>::>>>>>>>>>>>>>>::>:>>>>>>>>>>>>>:>>>>>>>11>>1>>>>:>>>>>>>>>::::>>>>>>>>>>>>>>>>>>>>>>4>>>>>>>>>>>>>:>>::::",
":>>>>:>::>>>>:>>>1>>>>>::>>>1>>:>>>>>>>>>::>>1>>11>>>>>>1:>>>>>>>1>>::>>>1>:>>>1>>>>>>:>>>>>>4>>>>>>>>>>:>>>>:::::",
">:>>>:::::>>>::>>>:>>>::::::>>>::>>>>>>>:>:>>>:>1>>>>>>>>:>:>>>:>>:>:::::>>>::>>>>>>:::>>>>:>>>>>>>>>>>:>>>>>:::::",
"::>>>::::>>>>:::>>:>>::::::>:>:>>:>>:>>::::::>::>1::>:::>:::>>:>>>:::::>:>::>:>>::>>>::::>:>>>>::>:>>::::>>::>::@:",
"::>>:::@@::>::>:>::>>>>@@:::>>::::>>::>>>::>>>:>>>:>>>>>>::>:>>::>::@@:::>>:::>:>:>>::::>>>:>>>>>>>:>>>::>>:::@@@@",
"::>>:::O@:>>::::>>::>::@@::::>::::>>:>>::::::>>:>>:>>::>>::::>::>>::@@:::>>:::>>:>>>:::::>>:>>>:>>::>>:::>:::::@@O",
":::::::@O::::::::::::::@O::::::::::::::::@::::::>>:::::::::::::::::@@@:::>:::::::@:::::::>:::>::::::::::::::::@@@@",
"@::::::O@:::::::>:::>::@@@:::>:@::>:::>::@:::>::>>::>:::::@:::::::::@@@::::@::::::::::@::::::>::::::>::@::::::@OO@",
"@@>::@@O@:::@@@::::::::@O@@:::@@::::@::::@@:::::>>@::::::@@::>:::>:@OO@::::@@:::::>::@O::::::>:::>:::::@O:>:@@OOOO",
"@@::@@@OO@:::@@@::@:::@OO@@@::@@@@::@:::@@@@::@@:>@:::@::@@@@::@::@@OO@@@::@@@:::@::@@O:@::@:>::::@:::@@O::@@@@OOO",
"@@:@O@@OO@@:@@@@::@@:@@OO@@@@:@@@@:@@@:@@@@@@:@@::@@:@@::@@@@:@@::@@O@@@@:@@@@::@O::@@@OO::@@>@O::@@:@@@O::@@@OOOO",
"O@:@O@@OO@@:@@@O::@@:@@OO@O@@:@@@@::@@@@@@@@::@@::@@:@@@:@@@::@@::@OOO@@@:@@@@@:@@::@@@@O::O@:@@:@@@:@@O@::@@@OOOO",
"@@::@@@O@@@:@@@O::@@:@@OO@@@::@@@@:@@::@@@@@@:@@:>@@:@@:@@@@@:@@:@@@O@O@@::@@@@:@O::O@@@O::@:::O::O@::@@O::O@@@OOO"
};
