/* XPM */
static char *SW1EXIT[] = {
/* columns rows colors chars-per-pixel */
"57 128 244 2 ",
"   c #2F2F2F",
".  c gray19",
"X  c #323232",
"o  c gray20",
"O  c gray21",
"+  c #373737",
"@  c gray22",
"#  c #393939",
"$  c #3A3A3A",
"%  c gray23",
"&  c #3C3C3C",
"*  c gray24",
"=  c #3E3E3E",
"-  c #3F3F3F",
";  c #430000",
":  c #4B0000",
">  c #4F0000",
",  c #530000",
"<  c #5A0000",
"1  c #5B0000",
"2  c #5D0000",
"3  c #5F0000",
"4  c #620000",
"5  c #630000",
"6  c #640000",
"7  c #670000",
"8  c #680000",
"9  c #6B0000",
"0  c #6C0000",
"q  c #6D0000",
"w  c #6F0000",
"e  c #700000",
"r  c #710000",
"t  c #720000",
"y  c #730000",
"u  c #750000",
"i  c #770000",
"p  c #780000",
"a  c #790000",
"s  c #7B0000",
"d  c #7C0000",
"f  c #7E0000",
"g  c #7F0000",
"h  c #542222",
"j  c #562222",
"k  c #5B2222",
"l  c #443C3C",
"z  c #473E3E",
"x  c #483F3F",
"c  c #593B3B",
"v  c #5B3B3B",
"b  c #5C3B3B",
"n  c #5A3C3C",
"m  c #5B3D3D",
"M  c #5B3E3E",
"N  c #612424",
"B  c #662525",
"V  c #6B2525",
"C  c #6D2525",
"Z  c #7C2525",
"A  c #7F2626",
"S  c #603B3B",
"D  c #623B3B",
"F  c #653B3B",
"G  c #6C3E3E",
"H  c #414141",
"J  c gray26",
"K  c #434343",
"L  c #444444",
"P  c gray27",
"I  c #464646",
"U  c gray28",
"Y  c #494040",
"T  c #4F4646",
"R  c #484848",
"E  c #494949",
"W  c gray29",
"Q  c #4B4B4B",
"!  c #4C4C4C",
"~  c gray30",
"^  c #4E4E4E",
"/  c gray31",
"(  c #504747",
")  c #5E4040",
"_  c #5F4141",
"`  c #524949",
"'  c #564D4D",
"]  c #505050",
"[  c #515151",
"{  c gray32",
"}  c #535353",
"|  c gray33",
" . c #555555",
".. c #565656",
"X. c gray34",
"o. c #585252",
"O. c #585858",
"+. c gray35",
"@. c #5A5A5A",
"#. c #5B5B5B",
"$. c #5E5A5A",
"%. c gray36",
"&. c #5D5D5D",
"*. c gray37",
"=. c #5F5F5F",
"-. c #604242",
";. c #614343",
":. c #634545",
">. c #644646",
",. c #644747",
"<. c #654747",
"1. c #6E4040",
"2. c #654848",
"3. c #664848",
"4. c #674949",
"5. c #684B4B",
"6. c #6B4D4D",
"7. c #784040",
"8. c #7A4040",
"9. c #606060",
"0. c gray38",
"q. c #626262",
"w. c gray39",
"e. c #676161",
"r. c #646464",
"t. c #656565",
"y. c gray40",
"u. c #676767",
"i. c #6A6363",
"p. c #696767",
"a. c #6A6767",
"s. c #6C6565",
"d. c #6D6565",
"f. c #6E6767",
"g. c #686868",
"h. c DimGray",
"j. c #6A6A6A",
"k. c gray42",
"l. c #6C6C6C",
"z. c #6D6D6D",
"x. c gray43",
"c. c #6F6F6F",
"v. c #736C6C",
"b. c #7E6A6A",
"n. c #7E6C6C",
"m. c gray44",
"M. c #717171",
"N. c #727272",
"B. c gray45",
"V. c #747474",
"C. c gray46",
"Z. c #767676",
"A. c #777777",
"S. c #787676",
"D. c gray47",
"F. c #797979",
"G. c gray48",
"H. c #7B7B7B",
"J. c #7C7C7C",
"K. c #7D7C7C",
"L. c gray49",
"P. c #7E7E7E",
"I. c gray50",
"U. c #800000",
"Y. c #810000",
"T. c #820000",
"R. c #830000",
"E. c #850000",
"W. c #860000",
"Q. c #870000",
"!. c #890000",
"~. c #8B0000",
"^. c #8C0000",
"/. c #8E0000",
"(. c #8F0000",
"). c #900000",
"_. c #920000",
"`. c #940000",
"'. c #960000",
"]. c #990000",
"[. c #9A0000",
"{. c #9B0000",
"}. c #9D0000",
"|. c #9E0000",
" X c #A00000",
".X c #A10000",
"XX c #A20000",
"oX c #A40000",
"OX c #A70000",
"+X c #AF0000",
"@X c #B30000",
"#X c #8B2A2A",
"$X c #8F2B2B",
"%X c #952D2D",
"&X c #9F3232",
"*X c #A43434",
"=X c #814242",
"-X c #854444",
";X c #8B4747",
":X c #995252",
">X c #A05757",
",X c #816F6F",
"<X c #836F6F",
"1X c #857171",
"2X c #877575",
"3X c #887474",
"4X c #897676",
"5X c #8F7B7B",
"6X c #8F7C7C",
"7X c #917D7D",
"8X c #808080",
"9X c #818181",
"0X c gray51",
"qX c #838383",
"wX c #848484",
"eX c gray52",
"rX c #868686",
"tX c gray53",
"yX c #888888",
"uX c #898989",
"iX c gray54",
"pX c #8B8B8B",
"aX c gray55",
"sX c #8D8D8D",
"dX c #8E8E8E",
"fX c gray56",
"gX c #938080",
"hX c #9A8686",
"jX c #948888",
"kX c #909090",
"lX c gray57",
"zX c #929292",
"xX c #939393",
"cX c gray58",
"vX c #959595",
"bX c gray59",
"nX c #979797",
"mX c #989090",
"MX c #989898",
"NX c gray60",
"BX c #9A9A9A",
"VX c #9B9B9B",
"CX c gray61",
"ZX c #9F9F9F",
/* pixels */
"X.O.#.#.#.O.X.#.#.X.O.#.#.#.O.X.#.#.#.#.#.#.#.#.#.#.#.#.#.#.O.X.X.X.X.O.#.#.#.O.X.#.@.X.+.#.] Q ..X.X.O.#.+.X.@.#.",
"w.w.y.y.y.r.w.t.y.w.r.u.u.y.w.w.w.r.y.y.y.y.y.u.u.y.y.y.y.y.w.w.w.w.w.r.u.u.u.w.w.r.w.0.r.u.*.+.q.w.w.r.u.t.w.t.y.",
"pXpXpXpXpXpXpXpXpXpXdXxXfXpXpXpXI.9XpXpXpXpXpXzXxXpXpXpXpXpXpXpXpXpXpXdXxXxXxXsXpXqXqXqXpXxXdXpXpXpXpXdXxXfXpXpXpX",
"I.I.I.I.I.9X0X0X0XI.0XiXrX0XI.I.J.H.F.H.I.I.I.yXiX0X0X0X8XI.9X0X0XqXrXrXtXtXtX8XP.C.Z.G.0XiX0XI.I.I.I.9XtX0XI.I.I.",
"c.c.c.c.c.V.A.A.Z.c.V.I.H.A.M.c.A.B.w.g.c.c.c.L.I.A.A.A.B.c.C.A.A.D.I.J.A.A.A.M.c.w.y.c.A.I.V.c.c.c.c.N.A.B.c.c.c.",
"c.m.V.N.c.M.N.N.N.c.N.G.D.A.M.c.N.M.k.z.c.N.V.F.F.N.B.A.Z.V.B.N.A.D.I.G.N.N.N.m.c.k.l.c.A.I.V.c.c.c.c.N.A.Z.V.m.c.",
"c.M.A.V.c.c.c.c.c.c.N.A.A.A.M.c.c.c.c.c.c.V.A.A.A.c.M.A.A.A.M.c.A.D.I.F.c.c.c.c.c.c.c.c.A.I.V.c.c.c.c.N.A.A.A.M.c.",
"Z.C.m.m.c.c.c.C.Z.Z.Z.A.A.A.h.r.c.m.Z.B.c.V.A.M.m.c.c.m.B.A.Z.Z.A.D.I.J.Z.Z.Z.Z.Z.c.c.c.D.qXC.c.c.c.c.V.P.G.A.M.c.",
"A.C.c.c.c.x.x.Z.A.A.A.A.A.D.g.w.c.M.A.B.x.B.Z.M.m.c.c.m.V.D.A.A.A.D.I.J.A.A.A.A.A.c.c.c.D.qXC.c.c.c.c.C.I.H.A.N.m.",
"A.C.c.c.c.u.w.C.A.A.A.A.H.I.j.w.c.M.A.c.w.k.c.Z.A.c.M.A.H.I.F.A.A.D.I.J.A.A.A.A.A.c.c.c.D.qXC.c.c.c.c.C.I.H.A.A.A.",
"A.Z.N.M.c.l.j.C.A.V.C.A.G.J.h.w.c.M.A.M.u.x.N.G.G.c.M.A.G.J.A.V.A.D.J.F.V.V.V.A.A.N.M.c.D.qXA.N.N.M.c.C.I.H.A.A.A.",
"A.A.A.V.c.V.A.A.Z.c.N.A.A.A.g.w.c.M.A.V.c.V.A.9X0Xc.M.A.A.A.M.c.A.A.A.V.c.c.c.Z.A.A.C.c.D.qXH.A.A.Z.c.C.I.H.A.A.A.",
"A.A.A.V.c.M.B.B.N.c.N.A.A.A.z.j.c.M.A.M.g.c.B.I.8XB.B.B.A.H.B.c.A.A.A.Z.B.B.B.Z.A.A.C.c.D.qXH.A.A.Z.c.C.I.H.A.A.A.",
"A.A.A.V.c.c.c.c.c.c.N.A.A.A.M.c.c.M.A.c.w.k.c.L.I.A.C.c.A.I.V.c.A.A.A.A.A.A.A.A.A.A.C.c.D.qXH.A.A.Z.c.C.I.H.A.A.A.",
"A.A.A.V.c.B.C.m.c.c.N.A.A.A.M.c.&.9.M.c.l.x.c.L.P.M.m.c.M.B.m.c.A.A.A.A.A.A.A.A.A.A.C.c.D.qXH.A.A.Z.c.C.I.H.A.A.A.",
"A.A.A.V.c.V.A.m.c.c.N.A.A.A.M.c.O.%.c.c.c.c.c.L.P.c.c.c.c.c.c.c.A.A.A.A.A.A.A.A.A.A.C.c.D.qXH.A.A.Z.c.C.I.H.A.A.A.",
"A.A.A.V.c.c.c.Z.Z.c.N.A.B.c.c.c.w.u.A.V.c.V.A.P.P.c.c.c.B.A.A.A.A.Z.c.c.c.c.c.Z.A.A.C.c.D.qXC.c.Z.A.A.G.I.Z.c.c.c.",
"C.Z.A.V.c.c.c.Z.A.B.V.A.B.c.m.M.w.u.A.V.c.V.A.P.P.c.c.c.B.A.Z.C.A.Z.c.c.c.c.c.Z.A.A.C.c.D.qXC.c.Z.A.A.G.I.A.M.M.M.",
"c.M.A.V.c.c.c.Z.D.I.L.A.B.c.C.A.r.u.A.V.c.V.A.P.P.c.c.c.B.A.M.c.A.Z.c.c.c.c.c.Z.A.A.C.c.D.qXC.c.Z.A.A.G.I.H.A.A.A.",
"c.M.A.V.c.c.c.B.C.I.L.A.C.B.B.B.r.g.J.A.c.V.A.P.P.B.N.c.M.B.m.c.A.Z.B.M.c.c.c.Z.A.A.C.c.D.qXD.B.A.A.A.G.I.H.A.A.A.",
"c.M.A.V.c.c.c.c.M.I.L.A.A.A.M.c.w.h.qXH.c.V.A.P.I.A.C.c.c.c.c.c.A.A.A.V.c.c.c.Z.A.A.C.c.D.qXH.A.A.A.A.G.I.H.A.A.A.",
"V.C.A.V.c.c.c.c.M.I.L.A.V.N.m.c.k.m.qXH.c.V.A.P.I.A.C.c.c.c.c.c.A.Z.N.B.V.V.V.A.A.A.B.u.B.8XG.A.A.D.J.L.I.H.A.A.A.",
"A.A.A.V.c.c.c.c.M.I.L.A.B.c.c.c.c.B.qXH.c.V.A.P.I.A.C.c.c.c.c.c.A.Z.c.N.A.A.A.A.A.A.N.w.m.I.G.A.A.D.I.I.I.H.A.A.A.",
"A.A.A.V.c.c.c.C.A.I.L.A.B.c.c.c.c.M.D.C.c.V.A.P.I.A.C.c.c.c.c.c.A.Z.c.c.m.m.m.Z.A.A.N.w.m.I.G.A.A.A.D.H.I.A.m.m.m.",
"A.A.Z.B.c.c.c.C.A.P.J.A.B.c.m.m.c.M.A.V.c.B.Z.P.I.D.Z.m.m.M.m.m.A.A.c.c.c.c.c.Z.A.Z.M.w.m.I.F.Z.Z.Z.Z.F.I.A.m.m.m.",
"A.C.c.c.c.c.c.c.m.A.A.A.B.c.C.A.c.M.A.V.c.c.c.L.I.I.L.A.H.I.F.A.I.L.c.c.c.c.c.Z.A.c.l.w.N.qXC.c.c.c.c.C.I.H.A.A.A.",
"A.C.c.c.c.c.c.c.m.V.C.A.B.c.m.m.k.z.V.N.c.c.c.L.I.J.G.V.D.J.F.A.J.G.c.c.c.c.c.Z.A.c.x.j.Z.qXC.c.c.c.c.C.I.F.V.Z.A.",
"A.C.c.c.c.c.c.c.c.c.N.A.B.c.y.w.w.t.c.c.c.c.c.L.I.A.C.c.B.A.A.A.A.Z.c.c.c.c.c.Z.A.c.M.A.L.qXC.c.c.c.c.C.I.Z.c.C.A.",
"A.G.qX9XI.I.I.I.I.qXwXtXeXqX9X8X8X0XiXyXeXyXiXaXaXtXwXI.8X0XeXtXtXtXeXtXiXiXiXuXuXqXwXtXuXaXqXI.I.I.I.qXiXrXqXG.A.",
"A.L.xXkXpXpXpXpXaXxXxXxXxXxXbXnXnXNXZXCXnXCXZXNXnXxXlXpXpXpXlXxXxXcXnXBXZXZXZXNXnXxXxXxXxXxXdXpXpXpXpXdXxXxXxXL.A.",
"{ +.V.m.l.l.l.l.z.V.V.V.Z.A.J.P.P.8XrXqXP.eXuX8XP.V.N.l.l.l.N.V.A.D.P.0XuXuXuX8XP.A.Z.V.V.V.x.l.l.l.l.c.V.V.V.+.{ ",
"U / k.g.w.w.w.w.r.k.k.k.z.c.C.A.A.F.I.J.A.I.qXF.Z.k.h.w.w.w.h.k.c.m.A.J.qXqXqXF.A.c.x.k.k.k.y.w.w.w.w.y.k.k.k./ U ",
"U ] c.z.k.y.w.j.k.c.c.c.B.A.A.A.I.8XqX9XI.9XqX8XP.c.x.k.u.w.l.c.A.D.I.8XqXqXqX8XI.A.C.c.c.c.l.k.r.r.k.l.c.c.c.} Q ",
"U ] c.z.k.u.t.j.k.c.c.c.B.A.D.F.I.8XqX9XI.qXeX8XP.c.x.k.g.t.l.c.A.D.I.9XeXeXeX8XI.A.C.c.c.c.l.k.t.y.k.l.c.c.c.} Q ",
"U ] c.z.k.k.k.k.k.c.c.c.B.A.L.I.I.8XqX9XI.tXpX9XP.c.x.k.k.k.x.c.A.D.I.wXpXpXpX9XI.A.C.c.c.c.l.k.k.k.k.l.c.c.c.} Q ",
"E [ c.z.k.k.k.k.a.M M M ) -.:.,.,.<.4.3.,.5.6.2.>.M m c c c m M -.;.,.4.6.6.6.3.,.-._ M M M n c p.k.k.l.c.M.B.| Q ",
"Q } c.z.k.k.k.k.e.; ; ; ; ; ; ; ; ; ; ; ; ; ; ; ; ; ; ; ; ; ; ; ; ; ; ; ; ; ; ; ; ; ; ; ; ; ; ; e.k.k.l.c.V.A. .Q ",
"Q | V.N.x.x.x.x.i.: : : : : : : : : : : : : : : : : : : : : : : : : : : : : : : : : : : : : : : i.x.x.m.V.Z.A.X.^ ",
"Q  .A.V.c.c.c.c.s.> > > > > > > > > > > > > > > > > > > > > > > > > > > > > > > > > > > > > > > s.c.c.N.A.A.A.O./ ",
"Q  .A.V.c.c.c.c.s.> > > > > > > > > > > > > > > > > > > > > > > > > > > > > > > > > > > > > > > s.c.c.N.A.A.A.O./ ",
"Q  .A.V.m.c.c.m.d.> > > > > > > > > > > > > > > > > > > > > > > > > > > > > > > > > > > > > > > s.c.m.N.A.D.D.O./ ",
"/ O.A.A.A.N.c.Z.v.> > > > > > > > > > > > > > > > > > > > > > > > > > > > > > > > > > > > > > > s.m.A.A.A.J.I.@./ ",
"/ O.G.F.A.V.N.Z.v.> > > > > > > > > > > > > > > > > > > > > > > > > > > > > > > > > > > > > > > f.N.A.D.G.L.I.%.{ ",
"/ @.I.J.A.A.A.A.v.> > > > > > > > > > > > > > > > > > > > > > > > > > > > > > > > > > > > > > > v.A.A.G.I.I.I.9.X.",
"/ @.I.J.A.A.A.A.v.> > > > > > > > > > > > > > > > > > > > > > > > > > > > > > > > > > > > > > > v.A.A.G.I.I.I.9.X.",
"/ @.I.J.A.A.A.A.v.> > > > > > > > > > > > > > > > > > > > > > > > > > > > > > > > > > > > > > > v.A.A.G.I.I.I.9.X.",
" .*.I.P.L.F.A.L.K.n.,X2X2X2X2X2X2X2X2X2X2X2X2X2X2X2X2X2X2X2X2X2X2X2X2X2X2X2X2X2X2X2X2X2X2X2X,Xn.S.D.L.P.I.9X0Xw.@.",
"X.9.I.I.I.G.A.P.8XpXfXnXnXnXnXnXnXnXnXnXnXnXnXnXnXnXnXnXnXnXnXnXnXnXnXnXnXnXnXnXnXnXnXnXnXnXfXpXF.D.I.I.I.9XqXr.#.",
"X.0.qX9XI.I.I.I.I.qXqXqXtXpXlXxXxXcXnXvXxXBXZXvXzXqX0XI.I.I.0XqXpXaXxXMXZXZXZXvXxXpXuXqXqXqX8XI.I.I.I.8XqXqXqXr.#.",
"X.0.qX9XI.I.I.I.I.qXqXqXtXpXlXxXxXcXnXvXxXBXZXvXzXqX0XI.I.I.0XqXpXaXxXMXZXZXZXvXxXpXuXqXqXqX8XI.I.I.I.8XqXqXqXr.#.",
"X.0.qX9XI.I.I.I.I.qXqXqXtXpXlXxXxXcXnXvXxXBXZXvXzXqX0XI.I.I.0XqXpXaXxXMXZXZXZXvXxXpXuXqXqXqX8XI.I.I.I.8XqXqXqXr.#.",
"X.9.9X8XI.L.H.I.I.9X0XqXtXpXfXfXxXxXvXcXxXNXVXcXzXqX0XI.L.H.8X9XiXaXxXbXVXVXVXvXxXpXuXqX0X9X8XI.J.J.I.8X9X0XqXr.#.",
"X.9.I.I.I.G.A.P.I.I.8XqXtXpXpXpXxXxXxXxXxXbXnXcXzXqX0XI.H.A.L.I.iXaXxXvXnXnXnXcXxXpXuXqX9XI.I.I.D.D.I.I.I.9XqXr.#.",
"{ %.I.L.G.D.A.F.G.I.I.8XqXrXiXpXdXfXxXlXdXcXnXfXsX8XI.G.D.A.L.I.eXtXdXlXnXnXnXfXdXrXwX8X8XI.H.G.A.A.G.H.I.8X8X0.O.",
"/ @.I.J.A.A.A.A.D.I.I.I.9XqXuXpXpXsXxXkXpXxXnXsXiXI.L.A.A.A.L.I.qXwXpXkXnXnXnXsXpXqX0XI.I.I.G.A.A.A.A.G.I.I.I.9.X.",
"/ @.I.J.A.A.A.A.D.I.I.I.9XqXuXpXpXsXxXkXpXxXnXsXiXI.L.A.A.A.L.I.qXwXpXkXnXnXnXsXpXqX0XI.I.I.G.A.A.A.A.G.I.I.I.9.X.",
"/ +.P.H.A.Z.Z.A.D.P.P.I.9XqXyXiXpXaXzXfXpXjXhX7X5X1X<Xb.b.b.<X1X3X4X6XgXhXmXnXsXpXqX0XI.I.P.F.A.Z.Z.A.G.P.I.I.=...",
"/ O.A.A.A.N.c.Z.A.A.G.I.I.I.0XqXpXpXpXpXpX*X@X@X@X@X@X@X@X@X@X@X@X@X@X@X@X>XxXsXpXI.I.I.H.A.A.A.m.m.A.A.A.J.I.@./ ",
"^ X.A.Z.V.M.c.V.C.A.F.J.P.I.0XqXyXuXpXyXwX&X+XoX.X|.}.[.[.[.[.[.}.|.XXOX+X:XiXuXyXI.P.J.G.A.C.V.m.m.V.C.A.G.J.+./ ",
"Q  .A.V.c.c.c.c.m.A.A.A.H.I.0XqXqXeXpXqXA.%XOXE.f y e 7 7 7 7 7 t u g /.OX;XA.9XqXI.L.A.A.A.N.c.c.c.c.N.A.A.A.O./ ",
"Q  .A.V.c.c.c.c.m.A.A.A.H.I.0XqXqXeXpX9XB.$X Xa r 0 9 7 7 7 7 7 0 q t R. X-XB.8XqXI.L.A.A.A.N.c.c.c.c.N.A.A.A.O./ ",
"Q  .A.V.c.c.c.c.m.A.A.A.H.I.0XqXqXeXpX8Xc.#X{.w 7 7 7 7 7 7 7 7 7 7 7 s {.=Xc.I.qXI.L.A.A.A.N.c.c.c.c.N.A.A.A.O./ ",
"Q } M.c.l.l.l.l.l.M.B.A.D.F.P.8X8X9XeXD.y.A (.u e e e e e e e e e e e d (.8.l.J.8XF.D.A.V.M.z.l.l.l.l.x.M.V.A. .! ",
"Q } c.z.k.k.k.k.k.c.N.A.A.A.L.I.I.8XqXZ.w.Z ~.i y y y y y y y y y y y d ~.7.k.H.I.A.A.A.B.c.l.k.k.k.k.l.c.B.A. .Q ",
"U ] c.z.k.k.k.k.k.c.c.c.B.A.L.I.I.8XqXZ.w.C y Q.~.~.~.~.~.~.~.~.~.~.~.T.y 1.k.H.I.A.C.c.c.c.l.k.k.k.k.l.c.c.c.} Q ",
"U ] c.z.k.j.h.k.k.c.c.c.B.A.J.L.I.8XqXZ.w.V e Q.~.(.(.(.(.(.(.(.(./.~.Y.e G h.H.I.A.C.c.c.c.l.k.h.h.k.l.c.c.c.} Q ",
"U ] c.z.k.y.w.j.k.c.c.c.B.A.A.A.I.8XqXZ.w.B 7 E.^.{.{.{.{.{.{.{.{.].~.f 7 F w.G.I.A.C.c.c.c.l.k.r.r.k.l.c.c.c.} Q ",
"U / z.k.u.t.w.u.g.z.z.z.M.B.Z.A.H.L.9XV.=.N 4 U.Q.`.'.{.{.{.{.{.`._.W.p 4 D w.A.H.B.N.z.z.z.h.u.w.r.u.h.z.z.z.[ E ",
"U / k.g.w.w.w.w.r.k.k.k.z.c.C.A.A.F.I.m.#.k 1 a U.~.).{.{.{.{.{.^.!.g r 1 S w.B.A.c.x.k.k.k.y.w.w.w.w.y.k.k.k./ U ",
"U / k.g.w.w.w.w.r.k.k.k.z.c.C.A.A.F.I.m.#.j , 2 3 5 6 8 8 8 8 8 5 4 3 < , b w.B.A.c.x.k.k.k.y.w.w.w.w.y.k.k.k./ U ",
"U / k.g.w.w.w.w.r.k.k.k.z.c.C.A.A.F.I.m.#.h > > > > > > > > > > > > > > > v w.B.A.c.x.k.k.k.y.w.w.w.w.y.k.k.k./ U ",
"U ^ r.w.w.*.%.q.w.r.y.k.z.c.m.m.A.A.D.l.#.o.' ( T x z l l l l l x Y T ` ' $.w.B.A.c.x.k.g.r.w.w.&.&.w.w.r.g.k./ U ",
"U ~ w.w.q.&.#.0.q.w.t.j.l.c.c.c.Z.Z.A.l.&.%.#.| { W E I I I I U Q ! } ..#.q.y.B.Z.c.x.j.u.w.q.q.%.%.q.q.w.u.j./ U ",
"K W w.9.#.#.#.#.%.w.w.w.u.k.x.c.c.M.A.V.c.F.I.N.x.w.0.#.#.#.0.w.k.l.c.C.I.I.I.N.c.k.h.w.w.w.*.#.#.#.#.*.w.w.w.~ U ",
"K W w.9.#.#.#.#.%.w.w.w.u.k.x.c.c.M.A.V.c.A.J.M.x.w.0.#.#.#.0.w.k.l.c.V.J.J.J.N.c.k.h.w.w.w.*.#.#.#.#.*.w.w.w.~ U ",
"K W w.9.#.#.#.#.%.w.w.w.u.k.x.c.c.M.A.V.c.V.A.m.x.w.0.#.#.#.0.w.k.l.c.N.A.A.A.M.c.k.h.w.w.w.*.#.#.#.#.*.w.w.w.~ U ",
"K E =.&.#.@.+.#.#.=.9.w.t.u.k.z.c.m.B.M.c.V.A.m.x.w.0.#.@.+.&.=.y.g.c.N.A.A.A.M.c.u.y.w.0.=.%.#.+.+.#.%.=.0.w.Q P ",
"K R #.#.#.O.X.#.#.#.*.w.w.w.h.k.c.c.c.c.c.V.A.m.x.w.0.#.+.X.@.#.q.t.c.N.A.A.A.M.c.w.w.w.=.#.#.#.X.O.#.#.#.9.w.W K ",
"* K #.@.O.X.X.O.O.#.%.&.9.w.h.k.l.l.c.x.l.B.A.x.k.&.#.O.X.X.@.#.q.r.l.m.A.A.A.x.l.w.0.&.%.#.+.O.X.X.O.+.#.%.&.E K ",
"% J #.+.X.X.X.X.X.#.#.#.=.w.h.k.k.l.c.z.k.B.A.z.j.#.@.X.X.X.@.#.q.r.k.c.A.A.A.z.k.w.0.#.#.#.O.X.X.X.X.O.#.#.#.R K ",
"% J #.+.X.{ / ..X.#.#.#.=.w.w.w.k.l.c.z.k.x.c.l.j.#.@.X.} / O.#.q.r.k.l.c.c.c.l.k.w.0.#.#.#.O.X.] ] X.O.#.#.#.R K ",
"% J @.O. .[ /  ...@.@.#.*.0.w.w.h.j.x.l.h.z.c.j.g.#.+. .{ / X.@.0.q.h.k.c.c.c.j.h.0.9.#.#.@.X. .] ]  .X.@.#.#.U H ",
"% H X.| / / / / ] X.O.#.#.#.0.w.w.t.k.g.w.k.c.t.q.#.O./ / /  .X.#.%.w.g.c.c.c.t.w.#.#.#.+.X.{ / / / / { X.+.#.J % ",
"% = Q R L J H L P Q Q ~ ~ ~ }  . ...#.O. .@.&...| ~ W L K H R Q ~ ^  .O.&.&.&... .~ ~ ~ ! Q I L H H L U Q ! ~ - % ",
"% % % # + X   O + % % % % % H K K L U P K I U L K % $ + o   @ % % & K P U U U L K % % % % % @ + . . + @ % % % % % ",
"k.k.k.h.u.t.r.u.u.g.h.k.j.g.y.y.0.w.l.l.k.l.l.x.x.k.j.u.u.u.j.k.k.k.k.l.l.l.l.z.x.k.k.k.x.m.j.u.t.r.q.t.k.h.g.j.k.",
"qXqXqX9XI.I.I.I.I.I.8XqX9XI.F.A.c.N.I.I.I.I.I.0XqXqX0XI.9XqXqXqXqX0XI.I.I.I.I.0XqXqXqXqXtXpXqXI.I.P.A.H.qX9XI.0XqX",
"D.D.D.C.M.M.M.M.M.M.B.D.D.D.N.m.t.u.M.V.D.D.D.P.I.D.D.D.C.M.Z.D.I.P.D.D.D.D.D.P.I.D.D.D.P.wXA.M.M.c.t.x.I.A.M.A.D.",
"A.A.A.V.c.c.c.c.c.c.N.A.A.A.M.c.t.y.c.N.A.C.B.L.P.Z.Z.A.B.m.C.A.I.P.A.A.A.A.A.L.P.A.A.A.L.qXV.x.c.x.r.x.I.Z.c.C.A.",
"A.A.A.V.c.c.c.c.c.c.N.A.A.A.M.c.c.c.c.N.A.w.X.F.P.c.M.A.A.A.A.A.I.P.A.A.A.A.A.A.A.A.A.A.L.qXz.w.x.c.c.C.I.Z.c.C.A.",
"V.C.A.V.c.c.c.c.c.c.N.A.A.A.M.c.c.x.k.c.V.t.#.F.P.N.V.G.D.A.C.V.J.H.A.A.A.A.A.F.G.A.A.A.L.qXz.w.x.c.c.C.I.D.N.Z.A.",
"c.M.A.V.c.c.c.c.c.c.N.A.A.A.M.c.c.z.w.g.c.g.w.H.I.A.F.I.H.A.M.c.A.A.A.A.A.A.A.P.I.A.A.A.L.qXz.w.x.c.c.C.I.H.A.A.A.",
"c.M.A.C.B.M.c.B.B.c.N.A.A.A.V.B.c.z.w.g.c.l.j.J.I.A.D.H.A.B.m.c.N.B.A.A.A.A.A.P.I.A.A.A.L.qXz.w.g.h.c.C.I.H.A.A.A.",
"c.M.A.A.A.N.c.Z.Z.c.N.A.A.A.A.A.c.z.w.g.c.c.c.L.I.A.A.A.B.c.c.c.c.m.A.A.A.A.A.P.I.A.A.A.L.qXz.w.w.t.c.C.I.H.A.A.A.",
"C.Z.A.A.A.N.c.Z.Z.c.B.L.G.A.A.A.c.z.w.g.c.c.c.A.D.M.V.L.Z.c.c.c.c.m.A.A.A.A.A.P.I.A.A.A.L.qXB.l.r.t.c.C.I.H.A.A.A.",
"A.A.A.A.A.N.c.Z.Z.c.V.I.H.A.A.A.c.z.w.g.c.c.c.Z.A.c.B.I.A.c.c.c.c.m.A.A.A.A.A.P.I.A.A.A.L.qXC.c.r.t.c.C.I.H.A.A.A.",
"c.c.c.B.A.A.A.A.Z.c.N.A.A.A.A.A.r.t.c.c.c.c.c.c.c.c.c.c.c.c.c.c.c.m.A.V.c.c.c.Z.A.A.A.A.L.qXC.c.r.y.A.G.I.H.A.A.A.",
"c.c.c.B.A.A.A.F.F.M.B.A.A.A.Z.C.y.u.c.m.M.m.c.c.c.c.m.M.M.M.m.c.c.m.C.B.c.c.c.V.C.A.A.A.L.qXC.c.u.g.A.G.I.G.C.A.A.",
"c.c.c.B.A.A.A.9X0XA.A.A.A.A.M.c.c.c.c.N.A.N.c.c.c.c.M.A.A.A.M.c.c.c.c.c.c.c.c.c.c.A.A.A.L.qXC.c.c.m.A.G.I.Z.c.C.A.",
"B.N.c.B.A.A.A.8X9XH.H.H.F.A.V.B.j.k.c.N.A.N.c.c.c.c.M.A.C.B.B.B.B.N.c.m.B.B.B.B.B.A.D.H.I.qXC.c.c.m.A.G.I.D.B.Z.A.",
"A.C.c.B.A.A.A.P.I.I.I.I.H.A.A.A.r.t.c.N.A.N.c.c.c.c.M.A.B.c.C.A.A.Z.c.N.A.A.A.A.A.A.F.I.9XqXC.c.c.m.A.G.I.H.A.A.A.",
"A.Z.V.Z.A.A.A.F.G.I.I.I.H.A.A.A.r.t.c.N.A.N.c.g.g.V.V.N.m.c.C.A.A.C.u.c.J.J.J.D.A.A.F.I.9XqXC.c.c.m.A.G.I.H.A.A.A.",
"A.A.A.A.A.A.A.A.D.I.I.I.H.A.A.A.r.t.c.N.A.N.c.t.r.A.C.c.c.c.C.A.A.V.w.x.I.I.I.F.A.A.F.I.9XqXC.c.c.m.A.G.I.H.A.A.A.",
"A.A.A.A.A.A.A.8X9XD.G.I.H.A.I.0Xr.t.c.N.A.Z.Z.y.r.A.C.c.c.c.C.A.m.x.w.k.D.D.D.A.A.A.A.D.L.qXC.c.c.m.A.G.I.H.A.A.A.",
"A.A.A.A.A.A.A.9X9XA.G.I.H.A.8XqXr.t.x.N.A.D.D.y.r.A.C.c.c.c.C.A.m.z.w.k.D.A.A.A.A.A.A.Z.J.qXC.c.m.M.A.G.I.G.Z.A.A.",
"A.A.A.A.A.A.A.P.P.A.G.I.H.A.8XqXr.w.w.k.A.J.I.u.r.A.C.c.c.c.C.A.m.z.w.x.I.G.A.A.A.A.C.c.A.I.V.c.Z.A.A.G.I.Z.c.C.A.",
"A.D.G.F.A.A.A.J.J.A.G.I.H.A.L.I.9.=.=.g.V.H.I.k.g.A.Z.N.N.N.V.V.c.z.w.x.I.G.A.C.V.A.Z.N.F.8XZ.N.F.F.A.G.I.Z.c.C.A.",
"A.F.I.J.A.A.A.A.A.A.G.I.H.A.A.A.O.X.X.0.c.F.I.N.m.A.A.A.A.A.M.c.c.z.w.x.I.G.A.M.c.A.A.A.L.qXH.A.P.P.A.G.I.Z.c.C.A.",
"A.F.I.J.A.A.A.L.L.A.G.I.H.A.A.A.O.O.*.t.c.F.I.l.h.A.A.A.A.A.M.c.B.M.w.l.H.D.A.M.c.B.V.A.G.J.F.A.P.P.B.A.I.F.B.Z.A.",
"A.F.I.J.A.A.A.9X0XA.G.I.H.A.A.A.O.+.w.g.c.F.I.u.r.A.A.A.A.A.M.c.A.V.w.k.A.A.A.M.c.c.M.A.A.A.A.A.P.L.c.C.I.H.A.A.A.",
"A.F.I.F.M.M.M.F.G.A.G.I.H.A.A.A.0.0.w.g.c.C.F.y.r.A.A.A.A.A.M.c.A.V.w.k.A.L.8XA.C.C.V.M.M.M.C.A.F.D.c.C.I.H.A.A.A.",
"A.F.I.D.c.c.c.Z.A.A.G.I.H.A.A.A.r.w.w.g.c.V.A.y.r.A.A.A.A.A.M.c.A.V.w.k.A.P.qXF.A.A.C.c.c.c.C.A.A.Z.c.C.I.H.A.A.A.",
"#.#.#.+.X.X.X.#.#.#.#.#.#.#.#.#.R W X.X.X.@.#.^ ~ w.9.X.X.X.@.#.#.O.Q [ #.#.#.#.#.#.#.#.#.#.#.#.X.O.#.#.#.#.#.#.#.",
"y.y.y.r.w.w.w.0.0.0.0.0.9.=.=.=.] } *.*.*.9.0.X...u.t.*.*.*.9.0.9.*.} O.=.=.=.=.9.0.0.=.q.r.y.u.t.r.r.w.0.0.0.0.0.",
"pXpXpXpXpXpXpXG.A.A.A.A.B.c.c.c.c.M.A.A.A.A.A.A.A.A.A.A.A.A.A.A.m.c.c.c.c.c.c.c.c.A.C.c.D.qXdXxXxXlXqXI.A.A.A.A.A.",
"fXfXfXfXfXaXpXwXqXqXqXqXL.D.V.B.D.D.A.D.H.D.A.I.8XH.H.H.F.A.A.A.B.B.B.B.B.B.B.B.B.A.Z.B.G.9XtXiXiXuXP.H.A.A.A.V.B.",
"xXxXxXxXxXdXpXzXxXxXxXxXpXqXG.A.qX9XA.G.I.G.A.yXiXI.I.I.H.A.A.A.A.A.A.A.A.A.A.A.A.A.A.A.H.I.I.I.I.P.A.A.A.A.A.M.c.",
"rXrXrXrXrX8XP.aXdXdXdXdXwXH.D.A.Z.C.N.A.I.G.A.9XqXI.P.G.Z.N.Z.A.N.M.j.j.j.j.j.m.N.A.Z.N.C.G.L.I.C.C.A.A.A.A.A.M.c.",
"I.I.I.I.I.G.A.yXpXpXpXpX8XA.A.A.c.c.c.Z.I.G.A.P.I.I.L.A.B.c.C.A.m.z.w.w.w.w.w.z.c.A.C.c.B.A.L.I.M.m.A.A.A.A.A.M.c.",
"y.l.I.F.M.C.A.F.H.pXrXF.V.m.m.m.c.c.c.B.D.A.A.D.D.D.D.A.A.Z.A.A.m.z.w.w.w.w.w.z.c.A.C.c.B.A.D.D.m.m.A.A.A.A.A.M.c.",
"r.j.I.D.c.V.A.A.F.pXeXA.B.c.c.c.c.c.c.N.A.A.A.D.D.A.A.A.A.Z.A.A.m.z.w.w.w.w.w.z.c.A.C.c.B.A.A.A.m.m.Z.Z.A.A.A.M.c.",
"k.c.I.D.c.V.A.A.F.pXeXA.B.c.c.c.c.c.c.N.A.A.A.P.I.A.A.A.B.c.C.A.m.z.w.w.w.w.w.z.c.A.C.c.B.A.A.A.m.c.c.N.A.A.A.M.c.",
"g.z.I.D.c.V.A.A.D.wXI.V.N.c.c.c.c.c.c.N.A.A.A.P.I.A.Z.V.B.N.Z.A.l.j.w.w.w.w.w.z.c.A.V.k.M.A.A.A.m.c.N.V.A.A.A.M.c.",
"w.h.I.D.c.V.A.A.A.A.C.c.c.c.c.c.c.c.c.N.A.A.A.P.I.A.C.c.B.A.A.A.r.w.w.w.w.w.w.z.c.A.N.w.l.A.A.A.m.m.A.A.A.A.A.M.c.",
"u.z.I.D.c.V.A.B.V.0XP.B.M.c.c.c.c.c.c.N.A.V.B.L.I.A.C.c.B.A.V.B.r.r.j.t.%.9.w.z.c.B.c.w.l.A.V.B.z.x.B.V.A.A.A.M.c.",
"k.c.I.D.c.V.A.m.N.pXeXA.B.c.c.c.c.c.c.N.A.N.c.L.I.A.C.c.B.A.M.c.r.t.c.y.X.*.w.z.c.c.l.w.l.A.N.c.k.l.c.N.A.A.A.M.c.",
"x.N.I.D.c.V.A.m.N.pXeXA.B.c.c.c.c.c.c.N.A.N.c.L.I.A.A.C.B.M.c.c.r.t.c.y.X.*.w.z.c.y.t.w.l.A.N.c.k.l.C.V.M.V.A.M.c.",
"c.B.I.D.c.V.A.m.N.pXeXA.B.c.c.c.c.c.c.N.A.N.c.L.I.A.A.A.B.c.c.c.r.t.c.y.X.*.w.z.c.w.w.w.l.A.N.c.k.l.A.V.c.V.A.M.c."
};
