/* XPM */
static char *SW1MOD1[] = {
/* columns rows colors chars-per-pixel */
"64 128 42 1 ",
"  c #1F170B",
". c #0B0B0B",
"X c #3F2B1B",
"o c #332B13",
"O c #373737",
"+ c #2B230F",
"@ c #1B1B1B",
"# c #131313",
"$ c #4B371B",
"% c #170F07",
"& c #232323",
"* c #2F2F2F",
"= c #4B4B4B",
"- c #4F3B23",
"; c #434343",
": c #5B5B5B",
"> c #070707",
", c #533F1F",
"< c gray34",
"1 c #372313",
"2 c gray23",
"3 c gray31",
"4 c #777777",
"5 c gray42",
"6 c #6B4727",
"7 c gray28",
"8 c gray39",
"9 c #5F4323",
"0 c #838383",
"q c #6F6F6F",
"w c #473323",
"e c #272727",
"r c #8B8B8B",
"t c #939393",
"y c #3F2F17",
"u c gray50",
"i c #979797",
"p c black",
"a c #1F4317",
"s c #17330F",
"d c #9F9F9F",
"f c #774F2B",
/* pixels */
"**;&@O@*:#@**O@*O*O#@#*&:@O*O@***&;*@O#*<.#*OO#&OO*#&#&*:#*OO***",
"#@&OO@&&@&&*#OO&O@OO&*&#;;*&@#O##@&OO@&@@@&*#=O&O*=O&*@#=O&&@#O#",
"*&@**@O&<##O&&.*O&&.&@&=#@*O@*&#*&@**@;&=#@O&&.@;O*#&#@:#&**@@&.",
"***##&&@@:#&&O;&&@OO&*O#;#.*@=@*O**##@O@#<#&@O;#&&O=#*&#;@>O@;@*",
"&=#*&O=*&&*O&=#==*O#O&;&&:<@***@*O#*@OO*&&*O&=@=O@;@;@;@&5<&***@",
"#=&*&#<#=&@*&#*&O*@*&:*O&&@&*OO*.O@*&&<#O&@*&#**O@#*&:OO&*&@*=OO",
"**;O&#@*.O@O>=#@*.:##O&&*#O#*.*<**O*&@*O.O&O>=##O#=##*&**#O.@#O:",
"#>@###>#>>@@##@.##@&.>>#&>#.#@>>.>@###.@>>@@###.@#&#.>>#&>.#.#>#",
"pppppppppppppppppppppppppppppppppppppppppppppppppppppppppppppppp",
"1www11XX111$X11Xw111y +y+$+1@-111wwyX1yX11+w1X1Xw111y++w1-++@$11",
"+o oX++.X %% + +  + +o++% XX.X XX+%+X +%X+ % +++% + ++o+% X$.X X",
"%++ +Xo%o%X+6.+o+-%+X% 9+% o+ +$%+  +Xo%o $+$%+X+$.+X% 6+% oX+X-",
"+$oo +oX  +++- +o+9 +-.  oo % + $X++ +oX  +++- ++ , +$.  o   +o ",
"   + X  ++ %.X  %.o + X+X+-+%%o.%  + o%% ++%>o   .o  +X+X+X %.+%",
"  + o X$%Xo + X+%+%XoXX%+.XXo+X+o++ X+$$%o+%+ Xo + X+++%+%o$++X+",
"+%o X +%X oo+%  ++%% %XX%+X%+$$+X ooX X X oX+.% XX%% .+o%+X%+XX+",
"  X+ %X+%o%X%++ + +o X$+X+9    %  X+ %Xo%o%o+$+%++Xo%X-X$X6 %  %",
" >+ X  $ X $ %ooX+ Xo%%+%.  %+ + > %X  + X%,+ o+X+ o+.%+%%+ .+ +",
"%+$ %%% % +%9%+..-%+. + +% o+,+  +X  % %%  .-%$..- +.%  + +X+$+%",
"X %++X+$ .   %$ +%++ -o-+% % X+XX %+++++ %   %-% %XX+-+$o%%  X+X",
"$o$X  X%X o$+  oX+++% %+ 9.++ +%X+$X++X%+ o$+  oo +o%  + 6.+o+X%",
" .X%X>$ ++ 9 X  ++.,X oo%$+%X  + %X.X%,++  -%X+ ++.$X X+%,X X  +",
"+%+o ++X++ +o>X ++  % % , o  +  +%oX  XX+ %++>-+++     +,%++ +++",
" +o% %.X +$%X %XX  X$%+ %,>.o%,+  + +..X++X%X% X$+ XX.+%.$.%X -o",
"+X$X+ +%  + oX++ + X o X%X--$++$+XXX++o + X% + + ++X o X%+$$$ +$",
"   %+ XX+  o   %$+ %++-+++ +%+$X   %$+XXX++X % %X+  ++-+++% %+XX",
"X%X >o+% X +.X %%+.X  o +  o  %XX%+ %X+%+X +%X+  +>-+ o X %+  .X",
"+++6X%+  +X$%X ++XoXX+%%+$%++$$%$++-X o+ ++o%o X+X+$X+ %+-%  $X%",
"+% >+oX++%+X,++o+ +  + - Xoo$,%o+%+.oX,o+ +XX  o+  % ++6 X++X-%+",
"+  %X+  +.+ %++o%X  ++> o +%% X%  +%+   +%+   + %$  ++. o+X%  , ",
"o %o+  +o+ X$.o+%+ +++o++%ooo ++o %o   + o X$ o+%  o+ o++%X$Xo++",
"Xo$  +%++$ +%X%o+o,.X+.%6+. +oo+Xo,  +%o X%+%X X+ $%X+.%9 . +Xoo",
"%  $X  X+ %X+ o% ++-+XX. +X +%%+ % $+  X +%$X o +++-XXX%  o o %+",
"6 .+  .o%X  + $ X%%X  +$oXX++   - .+ %%+%X  + o%X%%X+ oX+$o+ %% ",
"+X+  %+X  %%%% +>%  X+XX +.+XooX+X+  %+$ %. %%  .%  X+++ o.+X++X",
"%% ++ -- ++o   -+o+.% %XX%+ % XX ++++%--% +o   -+++.. .++%o+% $$",
"+ ++, %++  ++ + .XXo+%  X+  -.oX++$+X   o  X+ ++.+XX+%+ ++o -.+X",
"+-o%$%+o++  XX.-+%oo o  o+o  +%$+$+%X%XX+X+%X$.-o o+ X  o+X+  .X",
"+++   .+,% %  +  .+o+o +%.++$ ++ +++ +.+,     X +.+o+o +%.ooX o ",
"oX+X Xo +X oX++% ++   +o+X%++++o+X $ oo +X Xo+X  oo%   +oX%o+ ++",
"o  o,++++ X+ $o $X+++X%X+ %  + + % +$++ + X+%$X++oX+%+%o++%  +  ",
" $%%ooo$++. +%+X% o XX, o  ++Xoo $%.++o$ +. +%+X%++oXoX o  ++-++",
"X%-+ o%$o+oooX o XX %,+++$o %+o>X+-+ o -+o+++X +%$-  ,%+o$+ %+X.",
"  %X -+ + %+-% +    % $X +X$X  X%+ X $+ o %+$. +    % ++ +XXX  +",
"X $% X+ > % - +o+%  %+% %. %+X +X ,% X  . % $% +X%  %+% %% % o  ",
"+ %$%  X$ + %$ %X ,%+ ++oX%++$ +  %-%o XX%++ X .X $%+ +XXo%$oX +",
"Xo  +o X% X%+%o+  + X . X ++.9%X$o  o$+$  X.+ ++ ++% %% X ++%->X",
"-%$+ + %+ +XX$ +  +o$X % +++XX  9%$  + .o+oXX- +  XXXo .%+o+XX %",
"++%-+X%,%X %$.o X+  o+.9+X+  +oX+o.X X%$%- .X%X+Xoo++X%6+$   +oX",
"%o %XX+$X +.oX+ o$+++o+. + +$   %o%%XXX$Xo+.+oXooX++ +o. X+ $   ",
"%+oo+  % X X . %    +% % X$oXX+X ++ +  % X $+.  %   +% % X-X$$o$",
", % %X   + o+o+X$.+oX%oXoX %%% XX+  %X   + XXo+oX.++X%XXXX %  +6",
"X.X  % + $o + ++%$o%  X%. ++%++%+%X .  + $+%+ ++ ++%  X%> + %Xo ",
"o X XX,>+%++6o%+X +-X+++$ X%XX  o%o X+-%+%o+-+%+X +,X+++X+o%o+  ",
" +%  + X % >%++  %.% +% %% +> %. +%%   X % >.++   %. +. %. +. ..",
"pppppppppppppppppppppppppppppppppppppppppppppppppppppppppppppppp",
"77e2OeOO;32*3O2*OOeO33&272Oe;OO*77e2OeOe;;2e327*OO*O33&O272e;OO*",
"*@O#O**##*O@@*OOOO@#@*=.#*&&&**O*@O&O**##*O*#*;OOO*@@*=.#*&*&*OO",
"OO#*#O#*O**@O;>#O*@O*=#O*O#=&>&&OO&O#*&**;*@O*.#O**;*O#O@O#=*.@@",
"&;&O@:*@OO&##OO&@&*O#=&***##;:&O&*&O@=&@O**##*O@@&OO@=#&**##;:&*",
"@&#@*.:#*&O;&&***&&*&=;OO@:*@*@&###&*>:@*&==&**&*@#**=OOO#5O#*@*",
"*@*&=&#O**@**=&=O*&O#@##=*#=#=*&*@&*<&#OO*@&*<&O=*&*#&#@:*>:&<O*",
";O&:O&*O&&&&#:*#;<O&OO*=*@;:@;@*O*@=*&@O*&&@.<*#::&@OO*:*@*=&;#O",
"@O;&*OOO=O*#*&&*;&*O&==.;&O=O&>&@O;@*O*O=O*#*#&*;&&O@=;.;&*;**.&",
"*@O@@O@O:.@**O@&OO*###*O:#**O****&;&@O&;:#@OO*#@**O#&#&&:#**O*O&",
"#@&**#*&****.;;@*&=;#*&&=O&#@&O@@@@**#**&&&O*=O#*#;O@O&#=O@&@&O#",
"O&&*@#O&=##O@&.@*@*@@.@<@&**@&&#O&@**#O*=##O&*#&O**>*@&=#&@*#@&#",
"OOO*#@&@#=#&&O=@*@O=&@&#;&#O@=@*O**&.@*@#<#&@O;&**O;&**@=@>O@=@*",
"@O@O&O;O@&*O&<@OO*O#O@O&&:<****@@O#*@O;O*&*=&=#OO&=#O*;*O5:**OO&",
".O@&&&5*=&@O&@*&O&#*@<*O&@#&O;O*.=&&*&<#;&@**@O@*&#*@:**&*@OO;OO",
"@*O*&#*O.O&O@:@&*.=@&*&&*#*.&#O:**;*@@@O.;&*.=#**.=#&*&&*#*.*@O<",
">>@###>@.>#@#@&#@##@#.>#&.##.#>..>&##@.#..####@.@##&.>>#&>...#>.",
"pppppppppppppppppppppppppppppppppppppppppppppppppppppppppppppppp",
"1wwwX1Xy11+$111Xw111X+1w1-@+@-1++wwwX1yX11+w111X$1XXy@+y+- + -1X",
"X+ +X o.$ %%%o +% + ++++ +XX>o+XX+%+X +.X  % o +% ++o+++% XX.o X",
"%++ +Xo.+ o+X.XX+X.+X  6X  o+ +-%+  +Xo%o%X+X%+X+$.+X  6+% o+ o$",
"+$o  XoX o++ - $X - +,.  o    + +X+ %+oX  oX+- +++, +$.+ o    + ",
" +++.X .+++ .X ++%-+ +$+X+X  .+.+  +%+%%++  .o + >$   $+,+X +%o ",
"  +++ $$%oo + X+ ++$+o$ o.+X++X+ oX o XX%o+%+ Xo%++X+++%+.+o++$X",
"+%++X o - ooo.%+++%% >+o%+$  $X++ o $++%X%o++%% +o % .+o%+$% XX+",
"  X+ %X+ o%+ ++%+%++4trrrtttiididitrttrrrtt4%++%+ ++%X$+X+6  % %",
"%.+%X  + X $  o+X  o7588855q44u4045855888557+ o+$  o+.  %.++%o +",
"%+, %%%%%  .-%X.>-%$7q585qq44u0u0uq5qq585qq=f +..9%+.% ++  X+$+ ",
"X  oo+++%% + %6  %+X7q555qq4uu0uruq5qq555qq=% -.+ Xoo9+-o% + o+X",
"$+XXo+X%++oX+ oXo ++=q555q44uu0uru454q555q4=+  +o X+% %+ ->$o  %",
" .o.X%$  ++-%X  o+.,=4qqq44u00r0r04q44qqq443%X  ++%,X o+%$X%X%%+",
"+%+o +XX+  oX.X+++ %=4qqq44u00r0t04q44qqq443+.X+o+ + + +$%+  o  ",
" ++%+%.$ oX%X%%X,  X344q44u8<<<<<<<<<84q44u3+%%XX  XX%+ .,%%o ,+",
"+XXX+o+  %o%++ + + X344q44u8esesesese84q44u3+o + + X +%X%+,-$+++",
"   %X+XXX+%X % %X+ %=4qqq448OaOaOaOaO8qqq443+  %X+ %++-+++% .+$X",
"X.X .$X%+X +.X   o>X=4qqq448OaOaOaOaO8qqq443.X %%o.X% o X+ +  %X",
"o++-X%++ +X$%o ++$+o=q555q48OaOaOaOaO8555q4=%o o+X+XX+ %+$ + X$%",
"X%+.o+X++ ++X+++++ %7q555qq8OaOaOaOaO8555qq=X  oo   +++6%$X++,  ",
"+  %o   +%o %++o%$ +7q585qq8OaOaOaOaO8585qq=%++ %$+oo . +%X . , ",
"X %oo  + + X$%oo%  o75888558OaOaOaOaO8888557$%o+.  + +oX+%X$o ++",
"-$$% X%+o$ +%X%o+ $.75888558OaOaOaOaO8888557%X o++$.X+. 6+%+X$o+",
"   Xo +X++%X+%X%+X+-788:8858OaOaOaOaO88:8857+ $%+++-+oX%  X o  +",
"$  o %>  $% + $ X% X;8:::8840000000004:::887+%$ $% X%%+,+oo++   ",
" oo %%+$    %%++%%  ;8:::885qq4q4q8:88:::887%% +.%  o++X++.oXo+X",
" %+++%-- +XX   -XX+.;::<::885qqq4q8:8::<::8;   $+XX.% .+o%+ %%XX",
"+ + $+% +  oo + .XXo2:<<<::855q545:<::<<<::;+ + >XX$X + o++ -.+X",
"+$+.X%Xoo+  oX.-+ X 2:<3<::885q5q5:<::<3<::;XX.-+ ++%X  o+X+  %X",
"+++   .+$  %  + +>+o2<333<::8858q8:3:<333<:2  o +%+o++ +%.++o X+",
" X $++o +X+oX++% ++%22O*O222;;7;7;2O22O*O222X++ %+X    +oo%o+%++",
" %%+,++ + X+ ,X++oXX +%X++%+ o   % +$++ + X+ 6o +++o +%X+ %+ +  ",
" ,%>o+o,++.++%+X    $oX o  ++$o+ $%.+++X++>   $X%   XoX o  ++$o+",
"X -+++ -+ +++X.+ $X %,%+X$+ %+o%X -+ o -++++ X o $X  ,%+o$+ % o>",
"  %X ,+ o %+-% +     o+o+X$XX  +% %X%,X+o %+$. +++  %+Xo oX$o  +",
"X+-% X  . % , +oo%    . % + +o  X%$%%+  .+ %$%  +%  %+  .%+% o  ",
"  %-%  XX + %$ %X X + ++ o Xo,%+o %-.  X$ +o%X >o $ + +X+o Xo,%+",
"X+  +o X% X%+%oX   %o % X oo.->o$o+++o X% X%o%+o   %o %+X ++%6%X",
"9 X %++ + +XX$ o++++$X % ++XXX %-%X+ + %+ +XX, +  ++X+   o++XX  ",
"oX%X +.-%X%%X.o+$++ ++.6oX  +o+o+o%X +.$ X %X.++$++ ++.6oX  +++X",
"%X% XX+X$  .+o+ oX++ + . X+ X   %X %X$+X,o+%+++ X$++ ++.+o+ $   ",
"% + X+ %+X X % .%   +% % X-X$$++% oo+  % X X+% %%+  +  % X-+$$XX",
"X+% %$+  + o+X++X $X$ X$XX%   +XX+  %$   + o+X++X%ooX%Xo+X%  % X",
"X%X %% +%-+.++++%+o% %X%%++ .++%o%X %% + -o%+ Xo%+o%  $ .   %+o%",
"o X o+$>+%X $+ +X  $X  +$oX Xo  X o X+X.+%X+$ %+X%+,o+ o$+X%XX++",
" + %   1%%+.%++  %.% +. %%%+> %. +%% + 1%%+..++  %%%  .    o> %%",
"pppppppppppppppppppppppppppppppppppppppppppppppppppppppppppppppp",
"27e2OeO*222*32OeOO*23:e222Oe7O2e;7e;OeO2;72e3OOeOO*2:3&222Oe;OO*",
"*#;&O*O@@OO@@OO**O*.@*<..*&@@**OO@O#;**#.*O*#*O*OO*.@O:..;&@&**O",
";*#O#@@;OO*@OO##O***&O#O*;@<&.&*;*#*#*&**;*#O*.@OO**&O&=@O@=&.@&",
"&*&O&=&#O**@#O;&@&*O#;#&**&@O=#O*O*O#;*@O*@##*O&@*OO#O*&**&#O:&*",
"@@#@*#5@*@O;&*O&*&#*&O***#5O#*#&@@@*@>:@=&==&**&*&@*&OOO*&5*#*@&",
"O@*&=&#=O@@&*:*O=*&O#@##=@&:#<*@O@@&=&#OO*&&*=&=;*#*#@@#=&.:#<*&",
"O*&:O#*O&@&&#:*#<:&&;**<*#*:&;#*;*&=@&*O&*OO&=@#<:&&=O;:*@*=#;#&",
"@OO*OO*==O*#@@@*;**O&::.=&O=O@.&&;O&*O*O=O*#O&@*;&&O&==.=*OOO@.&"
};
