/* XPM */
static char *SW1PANEL[] = {
/* columns rows colors chars-per-pixel */
"64 128 68 1 ",
"  c #5F4323",
". c #5B472B",
"X c #533F1F",
"o c #533F2F",
"O c #6B4727",
"+ c #5F4B37",
"@ c #675333",
"# c #774F2B",
"$ c #67533F",
"% c #574333",
"& c #4B371B",
"* c #4F3B23",
"= c #43331B",
"- c #6F5743",
"; c #1F170B",
": c #3F2F17",
"> c #4F3B2B",
", c #7F532F",
"< c #332B13",
"1 c #2B230F",
"2 c #170F07",
"3 c #131313",
"4 c #4F3B27",
"5 c #272727",
"6 c #473323",
"7 c #373737",
"8 c #775F4B",
"9 c #3F2B1B",
"0 c #8F5F37",
"q c #775F3F",
"w c #875733",
"e c #3F472B",
"r c #53573B",
"t c gray28",
"y c #B37347",
"u c black",
"i c #836B57",
"p c #7B634F",
"a c #0B0B0B",
"s c #070707",
"d c #2F2F2F",
"f c #5B6347",
"g c #D78B5B",
"h c #8F7753",
"j c #1B1B1B",
"k c #836B4B",
"l c #373F27",
"z c #DF9363",
"x c #EFA373",
"c c #CF8353",
"v c #AB6F43",
"b c #BF7B4B",
"n c #E79B6B",
"m c #232323",
"M c #F7AB7B",
"N c #8B735B",
"B c #432F1B",
"V c #A36B3F",
"C c #FFBB93",
"Z c #FFB383",
"A c #6F7357",
"S c #4B4B4B",
"D c gray39",
"F c #7B7F63",
"G c gray34",
"H c #6F6F6F",
"J c gray23",
"K c gray31",
/* pixels */
"X+ %+X%.%%XXX%oXO+.X.+ .+..%OOXOX+ %+X%.%%XXX%oXO+.X.+ .+..%OOXO",
"<9<<9<:B9<<<9<<<<<9<<9<<B<<<9<<B<9<<9<:B9<<<9<<<<<9<<9<<B<<<9<<B",
"32223;2;222;2323223223223;33222232223;2;222;2323223223223;332222",
"jj;;j1;1;111111<11111111111j;;;;jj;;j1;1;111111<11111111111j;;;;",
"=9:<:=<B9:++@++@.++..@+&9<<9<<<<=9:<:=<B9:++@++@.++..@+&9<<9<<<<",
"% X  @XO96+o..ip$8&4XXo6<%XO XXX% X  @XO96+o..ip$8&4XXo6<%XO XXX",
"O+.OO#.O96#+o$-%$X9XXXO6<.X. X*:O+.OO#.O96#+o$-%$X9XXXO6<.X. X*:",
"X+XOO#..96...+$X%X1X XO6<.X   4&X+XOO#..96...+$X%X1X XO6<.X   4&",
"X%XO.+@%96..+O&<911X+4O6<  .+X+XX%XO.+@%96..+O&<911X+4O6<  .+X+X",
"X% +.+@o96+o+OO.X.XX+4O&< X.+:.XX% +.+@o96+o+OO.X.XX+4O&< X.+:.X",
"Xo..o.Oo:6&9&*&6:&66:9&&9O%X+> OXo..o.Oo:6&9&*&6:&66:9&&9O%X+> O",
"&o +o.O%1::<9&9<<9<<9<991O X+XXO&o +o.O%1::<9&9<<9<<9<991O X+XXO",
"&&.%+ .XX. X..#.X.oXX.XX$OXX+%&O&&.%+ .XX. X..#.X.oXX.XX$OXX+%&O",
"1;11111;111;;111;11;;1;;111;1;;11;11111;111;;111;11;;1;;111;1;;1",
"99&99&:9<9<:<:9:<:9<<:19999<99<999&99&:9<9<:<:9:<:9<<:19999<99<9",
"$*..OO .X+++XOO X%+&4X4X+@@O+X.+$*..OO .X+++XOO X%+&4X4X+@@O+X.+",
";;;2a2;;;;;;;;2;222;;;2;2;;;;;;;;2;2;;22;22;;;;;2;222a2;;;;;;;;;",
"9<<&<99:<6:6===*99:666:&9&66=:6==:=:=6:96669====:=:9o:=&==99:=:9",
"=*== &oole++.*6%oXXX@ X$X+ @. OOXXO.X X ..OO &  X.6.$*O#o XoXo==",
"6*6&O*ood7++.X*ooXX   X$X@ $%.O o.+oXo  .XO# *  *+=.$X #XOXX*o&&",
"*o=X#+X.=X+o$o* ..oXOO+o+.+%+$ ,XX  &oo.  @O.X*.*+X$.  O6+o*le<=",
"*oXX#+*.6.+o+XXX.Xo*#@.o+.+o@+ #XX+ &X.X+ @@XXo =oo$.XOO*+o*=e==",
"X>+*X@=X&%+o%++X$+oX+ +++++o.O*#oo o+ ..*O *.+.OXX+po+++XoXX&*=<",
"XJ+*.@*X& +X+++*$+ X$$++%++oXO*#%X.%+ ..& OX.$XOXo+io$++.+oo&*==",
" XoXX.X&.  ..$o.@$%.O@   .+o&O*OOXo # X &.+X++XX  #,%%$%ooX.6===",
" XoXX X&O  o $o @$++.@#O..$XXOXOOXo%#XXO&++*+$X.  #,+.$.*oo.&=&=",
"X+**=X.o$++o+.+XO%$X.OO  ++&. . $.o+$.XoX.X+++..p.#+@X +XXX.<X.*",
"X+&*9&O.@+oXO.XX#++X.+O  .@X.%. $.o+@ XoX.X%$+. p.#+OX .XoX.=X &",
"X &XX=XOOoX&.$o6@o$$X+#.+X+ XX #O XO.+*oo  .+o.#wO$% X..XXoo=+o6",
"& &*X=.O o*XX$X6$o$$o%,.@XO *o OO X+O@*X+ X .X##w#$o ...XXo%=+o6",
"XX oX= @O XX.OXO.%o$+o#X#@ ..+&+#O .+$X.X$X .X,0#,O . XXX**oX+X&",
"X* XX=o-  Xo.O  Ooo$%oOX#@ +X+*+#O .+$X..+o .Xw0##OX. X&X6XoX+X=",
"*Xo oXo$ oXOo+*o. X+.o%###...+o..+o++$$.@$ . o#wOOOX.o=X**.X& o*",
"XXXOo&*@OoX+*+&*  XOX%+###.+.@o..+o$%$$X@$ o o#@O OX.o*X&X.X= XX",
"  oO+X&@X.X X.XXO6o O.O+O-@o+$*X.$X.@.,X@$+o* #O OO ooX+oX* X%=O",
" .oO+XXOX+&+oXXo@6o O+.+ 8+X++*X+$.@+.w*@$+oX #O.   o*o+o**.o%= ",
".X X+$6$++o.o.X. oo$#OO. ww &$.X.$O%+.w Oooo+X#O. . .o&%%*>%.o9.",
"..XX+$=- +ooo.X..oo+O +O ,w X$.XX$#oO.w @oo%. ,.. .@.oX%+ooo  =.",
".Xo..$+OOO .XX O.*ooOXX...0,& +.*+# OX@XO .%S+,+. o oX.++>XX+o+X",
".. O.$$@O  X6X O.XoXOXo.. 0,&.+o6$@   +XOOo+S$OOX o oX. @7.X+o+*",
".+  Oo$o#XX*6o        ...+@, O$Xo.@.%.. 0$+%%$O # O *oXX. XXXX+ ",
"XO oOo+X,XXX&%  @  +OXXOXO@w .$X%X# .   0$+%o$oOw #X&. .. &.X*+ ",
"#++& O O.*o+o *.w  #OOO+ $X#8o+  X,OO+. w@OoX@XO# $oo.. .+& &.$>",
"O$+&    .*o$..X.w  OOO++ -.#qo+  .#@O.O.#-$+.OX+# $oo..OO+*.X.$X",
".+OXXX# OOXo%X*Xp.X.OO$o.-   wO##O#-Xo+@..p-++X O +%%.XoO.o%+.O<",
" OO&XXOOXOXo%o.X8OXO+O$oO$.  wO##O#@X    .p8++. O +oo.X%O.oo.XO=",
"o+% Xoo+6@.=+. X@O..@O$$o+@%%#O  % # O..Xo-q@ XoO +o..+-++.*,#X=",
"ooo+ooo+*++=+o.o+#X.@O$$%+@o O   .O#O..@&o$q$$Xo  +oX.+-+..6,@>&",
" &XO.6 $X++&X +o+-+o.OXwX+$o &+ .  $@..@X+@o#OXX XX & 0 o+$ , XX",
"oXXOO=.$.o$*X .o$$+++OX,o$$oo&OX.+ $@+.OX@Oo#.X&  o X 0 %o$ #OoX",
"XX.$+X*.$.o**#**O.$%$ $+%+O..o.OXo+X$ XOXO.o%#XX..  &X,.oX$+X+.X",
"oX.-@XX @X XXOX&@.$o$%+.o O. o.O*%+*$  @X.+o+,X ..  &X#.oX+$X+>X",
"XXX.pXX  .X.*.@X+%o$@..X$X.O+X&@X.o*,OXO.#@*$+oo*. * O $oX.#&XX ",
"XXX pXXXOXo.*.$.+%o$$+OX@*+ +.&@& oX, XO.#+*$$oX&. X O $X..#&XX ",
"*&XX-O X*-%oXo%+*.&.-OOX- .X.XXX+o$*OOX..O  $.$o*.#&@ oXX   X=+%",
"***X-OOX&-Ko&o.+*.X.$OOX$XX +X X$o+*  X..OX $o+%*.#&  %X.. .ol+%",
"&oX%$ ..X.Ooo.X$X+X+-.+++$oX o.X +.oo$XO++ oOO ,X.X  = ..*..&=.*",
"&X& +.. &..+oXX$ @X -..O+$.o... ...o*-o O+ o@+ #X.X. = ..X..&=.*",
"Oo&OX+Xo& O.XOo+@.XX@# O..+$o+ #X+.@=O X@#@+.o *+OO+*&XO*  .oX.*",
".o&Oo$X%* #.  o$$%X @, O..%@++O# @.$&@ .##O .o &+O@+o*X X  .oo+&",
"XX&  $&X+X+@X.o%w+ + # O+.$  O.#X @ooO+++. @+*&&X OX+>+.& *.*.$.",
"X *. $&*+X.#X.o++  .., O.+@.o+.#X Ooo ++.+ @.X&XX.OX$o+.&.*.& -X",
"=&oo+. X@. #&..OO- OO# O +,$&+++& @X& #$.+.+X *:X+..X#XoX%>o& @$",
"=&&o+  &+.Oq&..O - OO@OO.@OOX$+%* @oXXw+....XO*=X. +XO o&.>%= @+",
"XX%X+o,#.X>.@o+4 %.# +#+%$r+$ro$$or$+r$%.X>.@o+4 %.# +#+4+%.& o@",
" X%X@o,O.XX.@4o. +X@ @%r:oo+o5otto5o+oo:7%X.@4o. +X@ @# X.% X .@",
" .%+> OO@ %.$>XO +.O*f77;=&-175DD571-&=;77t*$>XO +.O .X.X+OOO...",
". 4o% OO@ . @> O.+>fd7185;=o;t5++5t;o=;5817df> O.+>-..X+.+OO#@.+",
" .. %  .q  .+>.+@+fo5:;t=1=5;557755;5=1=t;:5of.+@+.+.   # #+ #.+",
".X+ X ..q+.X+.XOOr7:+5d5e3ou3u2;;2u3uo3e5d5+:7rOO. @+   qO#%  +.",
" X$& .4O@#O .+ @fd:oo<=5ou;u23u33u32u;uo5=<oo:df.+$@ # .# ++.X.%",
".>@X%.o @q#O. .-k=5;$2os3u33s&O0,O&s33u3so2$;5=k+>+. O .# +. >.%",
"& .X$%.X+8,@O.Xr5oo==oo3s3=0yzzzzzzy0=3s33o==oo5r .>- + . +   -.",
"= .X%o.&+-,+O+Xf5o=1oo33:,yzxMZCCZMxzy,:3;8o1=o5f  %#.+ + +.OX+O",
"X O>X.+o$@#OO$Xr7:o3k33&0yzzxMZCCZMxzzg0&33k3o:7r  .+O$+$$... OO",
"X  >X .o.-#OO$o$1.1<h;:0vgzzxMZCCZMxzzgv0:;hl5:83$ @++@+$+... @O",
" .XX XXX4+@%$@or;=o;h;&0ygzzxMZZZZMxzzgy0 ;h&+;+2oOO#%O#-+o.O@O.",
"+.X X.X X.@.-+o=.1t;@;X0yggnxMMMMMMxnggy0X;@:=Ht;%O O+@#-@>O.$ +",
" %4X .> .% . @e=o5:;X;:00yycgnxxxxngcyy00:;X=ww$3%@X+@@.@.O #-.>",
" +X4.X>X.. OO@=<77<2X;< #000vbcggcbv000# <;X&h :7r-X++O+@.  #- >",
"XX.Xo.X @+XO+ e37o:2#;;: #000VybbyV000# :;;#&#<o7r@X @@O-.oO@#..",
">.+%%  X ->@. r3r1=28;;:XXX  O#000#O XXX:;;8<1.1$o-  @OO-..#-, @",
" X.4.>$4 OX$@Xor;=o;8;;;XXXXXXXXXXXXXXXX;;;8;o=;ro@O$$OO@. +@,++",
">X+X &o> .X@#oo=.1t;i;;;XX   XX::XX   XX;;;i;t1.=o#O@+# -o +@@O ",
">X+ .4%.++ $#Xe=o5:;i;;;X  #0# XX #0#  X;;;i;:5o=e#   O .   # + ",
"XX  .>%> + O- =<77<2F;;< X:::&X::X&:::X <;;F2<77<=#.  @ .+ O+@@ ",
" X .XX.+  @@-.e37o:2A3;::;2u211;;112u2;::;3A2:o73e#. +  .O .@+O.",
"@X O.X.+> .@8.r3r1=283;<;22uu2<;:<2uu22;<;382=1r3r#. . O. .X-@. ",
"+4 . %%o.%#.-O*5=;:=$3<:;222221<<122222;:<3$=:;=5*#.X.#O.o.+@@.$",
"  .XX%>>.%O.+#e57mo&$3:,:;2;1:<;2<:1;2;:,:3$&om75eO$ .O.. o @+.-",
"+.+. XX>@..O -eo;7=.@3<#0V00 &22u2& 00V0#<3@.=7;oe..oO .. X ..O@",
"+.+X.&XX+  #%$*55o;--31:::&:<<2222<<:&:::13--;o55*@. O o++XO%  -",
".$ + O.X># @O@*7==s#q32<:<<1::;1;;::1<<:<23q#s==7*.@ ++@-O @ %.%",
"O .@XO X , ++@*7=sG;q32<11<<  #O##  <<11<23q;Gs=7*.@..+#@. OOO.%",
" XO....X  # $+r5t2+oo323;2<: ,,# ,, :<2;323oo+2t5r+.. +@.. +.@.$",
" X#Xo+%X  O +@=o&:p&$323332<:&X:XX&:<233323$&p:&o=+-XO++ ..@.+.+",
"+ O>O   ... O,e;=:p 83233332<;;u2;;<23333238 p:=;e@q .@X.@X..@.+",
"+X X   .%.. @qe2:=Ht@3233333333333333333323koo=;ro## .%>.-  O@+O",
". .o%  XO.%++@:d=ww$:-k-oo===o=ol==o:e$-hq-:ot1.=oO@>+@O#qOO.++@",
".OoX  X    @-@=3&h :7<r;=o;<77<o5oo*o5o5#<o7o:5o=e+#X+# ,##%.O.+",
"XOXX  X4 O +qOe3&#<o7<=.1t;:o73175**5o171.1$o<77<=O.#$. .@#+  @.",
" O XX  XX-@ k,5a;;:;=a1<j12aaau2dj::jd2uauaaa1<ma5+##-..o+#..O#@",
"+.OXXX.X& #X-q%   @qq  .4X4   .++.OXXX.X& #X-q%   @qq  ..@ ##+@@",
".. 4. o%>O.Xwq. OO$,,X .XX4%Xo.%.. 4. o%>O.Xwq. OO$,,X .X.O#-@.O",
". + % =  @+ @#,#X+##@+ +X  O%X.%. + % =  @+ @#,#X+##@+ ++ X#q#@#",
"@ +4o X . ..O#,#%.,--. +X X#+..%@ +4o X . ..O#,#%.,--. +.@ O,#OO",
".%o X.  .. # #@,+$ .@XX..  ##%...%o X.  .. # #@,+$ .@XX. #  .O#O",
".%% .+.o..4,>@@+%O +-.  .  @,....%% .+.o..4,>@@+%O +-.   # .%$##",
" %. oo.X->o-X@O.4#  + + X% # +.  %. oo.X->o-X@O.4#  + +  $o@o@OO",
". . >4..@>>@  #$=O ..  .X@ ...o.. . >4..@>>@  #$=O ..  . $o X+#-",
"%. ++ %XX .o+  @4@X%%.+OX> .   $%. ++ %XX .o+  @4@X%%.+O.-...O#@",
">.X++.o..  X+.o-4$.X% +O>...  +#>.X++.o..  X+.o-4$.X% +OX-o+X+@ ",
".$  @  X>4%X+- -4++.$%> +.... #..$  @  X>4%X+- -4++.$%> .@.+%+.@",
">$ O+@ . 4>o+# q .+.+@ ## ..X O >$ O+@ . 4>o+# q .+.+@ # -@.>@.+",
" -  ..  . X++- #$X+.w@X + + XO+  -  ..  . X++- #$X+.w@X .+#+X@@ ",
" $ X++  o X.+@ +..-$@OX $X.   ++ $ X+.  o X.%@ +@.-$@O+ .+#,+.@ ",
"&#$.++ #  ..o$#+o+@O+++X. .%. .+&#$.++ # +..+$#+.-@O@+%XO+$+ @+#",
"4O+++O . +X  X @6-@ .+%X.. %  .+4O++++   .X o. @o-@ ++.XO+@+X%#O",
"X >  O   ++X   #X-+ .@.% .+.  .#XO>  Oo..+.X X #68+ .@.%O ++>> -",
"XO>##O+ .%.>$  #X8+ X$.   + OOO#X.>##O   %+>$ .#X+. .$. OO%$.>.@",
".X OX4.+ %.X4o.%%+@  O , %+4OX. %. ++. + ..X+O .XO  X.,O.++O#. .",
"X  O. .+X +XoX.%+@$.%O ,%++4 X+ X+ +.+ O +.X.o oXO%  .@O..+O@.. ",
"  4+. O.+ .*>O oO.$.+.++4.O% .++X..X+. .XO.44O   O+ X @ . +. .. ",
". 4++ O.+  XX. X+O@ %.@  oOo.%.+ +%X+O.+ ..4%#   ++OX @ . .+X%X ",
"  XX-O .o.  X4+ %+.@  . + ..+ X+O+XX,#O. @+ +%X.X.O XOO@ O O*XX.",
"O8i888i8iiNN8iii8q88888i8iiNN8iii8q8iiiiii8iNii888i8iiNN8iii8qi8",
" ..X%X.+.# +.. X  X%X%X.+.# +.. X   +.+4OOO+o..X%X.+.# +.. X  OO",
"O&XX. X%O# +&X.%  X.X. X%O# +&X.%   +..o.OO.+O X. X%O# +&X.%  OO"
};
