/* XPM */
static char *SW1STON6[] = {
/* columns rows colors chars-per-pixel */
"64 128 66 1 ",
"  c #473323",
". c #4F3B23",
"X c #5B472B",
"o c #533F2F",
"O c #5F4B37",
"+ c #574333",
"@ c #43331B",
"# c #533F1F",
"$ c #4F3B2B",
"% c #3F2B1B",
"& c #675333",
"* c #4B371B",
"= c #5F4323",
"- c #6B4727",
"; c #2B230F",
": c #67533F",
"> c #775F3F",
", c #372313",
"< c #6F5743",
"1 c #774F2B",
"2 c #432F1B",
"3 c #1F170B",
"4 c #875733",
"5 c #777777",
"6 c #775F4B",
"7 c gray39",
"8 c #8B8B8B",
"9 c #7B634F",
"0 c #6F6F6F",
"q c #5B5B5B",
"w c gray50",
"e c gray31",
"r c gray42",
"t c #939393",
"y c #7F532F",
"u c gray34",
"i c gray28",
"p c #836B4B",
"a c #838383",
"s c gray23",
"d c #8B0000",
"f c #434343",
"g c #670000",
"h c #730000",
"j c #9F9F9F",
"k c #979797",
"l c #4B4B4B",
"z c #170F07",
"x c #7F0000",
"c c #070707",
"v c #373737",
"b c #8F5F37",
"n c #2F1B0B",
"m c #9B0000",
"M c #AB6F43",
"N c #5B0000",
"B c #A70000",
"V c #2F2F2F",
"C c #430000",
"Z c #B30000",
"A c #4F0000",
"S c #8F7753",
"D c #A36B3F",
"F c #8B735B",
"G c #9B633B",
"H c #9F8363",
/* pixels */
"oX&#o%%%;@  $$.+.##O@ +=X% :+o*+<+OOX---%:>1@.%.2#+++OO<<++O o $",
"+.&.# ;%;    X$.+..o  .@X @oo.+$+$+$::&=,==&o2.**#+oXXXOOO++  o$",
"++<O+ ;%%%    +$$=XO  X*O+ oo$+$$ o+O:&O,==#.@= #$+oOO++++ +% O ",
"o+<O+%;% ;  .  .$.X+ $$$:>Oo+o+   XX=+:*>%-o#  ,++++XO+OoX@-  @,",
".o-O<%%% ;  + $%+.OO o@@X=*+++#+o#=&.-&X> <++ # o$o$+OOOO+ o @.@",
"#:&+O %@ %%$%.O $ .. @=,@OO++o+.#X#=X-&@&6%++@  *$.###---=@* @ @",
"#.:o+ ;%  ;o% + %;% @ 1:OOO#+o#.*X#+&=&.&6%+#$$  *$o###=-=@.$$$@",
"..+.. ;@@ ;%@ O@ o.;2 &+O>O+#.-..##-&&&&#<6%# -@@*$.*#o=#-=+. X@",
"..$o$ ; @@ % $+ X.O;;%6O#OX+o$+#.#.X:-&X#O6%#@#*%+$oo=o-==**  o*",
"X-.o. ; $= ; %X**.:O o>XoXXo#.#..##1-:&X&O %o=**$**o+ooX=1 =.X..",
"*@.:@ %  $@;,%@.&:<OoXOOXXX##o##.##O:X-o= ; +*@@ *.++ooXo==-o@@@",
"-...@%% +%  ;3%O<+ O@$OX-#*-#o$+ .22@X=@3;; +.*@.#o$#.oOX=o.=@*@",
"&*.@ @%  @  %%3 o:$$  XX+%*-..*#+*2;;%%%.9o%+#*@.**oo.-X>X+@.*.@",
"X=.o%;%%@ @ @ ;3$O$X  X#O..X++$.O*%;;@.y:+<>%# @.@*#ooXX&= @..@@",
"=oo.+%%%@@@@@X+;3%   @X.@X#.+.2.X%@>>6&X+OO:S%%*  .#oX.&&=..@. *",
"X..$ %   o %#.XO;33; .XX%@X#+#@,@&:-&X#X:< +&p33@@@.oX.:-*X@@@%@",
".#+ $%   %o.@#.=3;@#%%%o&@X.#%@&&X.-&&=1OOOo.&1-3,**.OO====.*@%.",
"=$$.o% @  @.@o%z; & ,.-.%%,%% &#XX#-=&=:+OO#o*%*-3,#oOO==XO**.%@",
"+O.@$,%   %#.%zz3@> %.1&@;3332.@$X@O--O>O+OO.@ %%=3,,.#-+O=.@@@%",
"+-:#o %$@@@@%%;%%%%;3%.,%333;3,o=+#=-:+:+:oO+@2 @*1;%@*-.--##@@ ",
".oo$#@%%;;%%@&XX*O16MD>1XXo>%33,*.*#&>O:o#&++ @@.#@#1@,@O-X@@@  ",
" Xo*.%3;; X# +XO-+ 1&@-1:=4&%.%3,%=XO<O>OOOOo  ,%o*##-@%; $=@  %",
"@X.%,; XO @..$O+++ 1&&14-X4o#%&@%% +O>:&XX++o   %.####:>%% #  @ ",
".-,%@-=@$+ =@.X**$+:&>b44@-o.@#<pp%2X&&&=-X+++  %*@##&*&>&3% .  ",
"%%@&X@@ @%+$@#.O@O$+O1>--X&.o $+$O>2.&X>==#o+  $%:**oX==O-<%%;;%",
"&&XXo@ @@  +@##.$oOO<<->&&-oO  ++X#>%*X&#X#.+$% %<$#.XOO=O<<4&&-",
"&&o.#,% @ %o$*=$$<O<+<411-&+ +o .X@4M@@X.&##+ ;3%#o+*#o&+OX# @ %",
".=:#o@%.@@+o.OO$o++>+$6-&1<<+$ #XX.-4>%2...O+;X&1*o+++$OoO&##@% ",
"2..#X@%X@  O OOO o$++ <<><<+oo.o**..&14%,%%%%;X@**#o+$+OOOX@@@@ ",
"*##o.%%@@,++ OO=$O$+: &+<OOoo@o..XXX=-X=;33;;;%@@#*#o$+++X.X@%  ",
".=o# 2%@=  $$$O+#++$::1O>>O+ooo..#XXX1&yX;3;;;;% ++++++OoO o    ",
".&..X@;2.# + $+oO*+$::=<<&$#o#..*.X=X1&4;.<&yO  % ++o&+O<+@..o  ",
"&*--. %@*X$ %..$ ;+-&=>9OOX#o###XXX=&-&X;=O+:9H6 % .+#+.O+..*$$@",
"-.-.# @@.@+#% ..% +:&=9<OXo#oo.#.X&-X&4%**O++$+:> % oo.+. +o.$@ ",
"*@-$X3@  + %%  .;+++p<<&&.@#+o#.X==&XX$;.++++ $ .6o% +o+o+o##@*@",
"o*&X#,   $.;;@.$;+O9<<>&:: #o.ooo===1&%.-OO++$    &O%.++++##-.@@",
"O*Xo*  ; Oo  ;$,2*oO9<O#::$ooo# ..#-1.%-O6+++$ % .$<o, .X+#.@*@,",
"-#o-+  ; oo   ;;@*+:99O:>O$.o##.*.#&-%.1O6+$++  . $ :o%@O+##@* @",
"&o=X+  + oOo  ;;%O.>69+oOoO.o....#.X*%=><OO$++$ $$o +:+; O .*O.2",
"&@&<+  < +Xoo.;@;XoX>OOO*Oooo#$oXX@@%.*:++O+$+$$  o+$+O 3   $*$.",
"=+O++% .$.XX+@@O;O&1Oo++;*O#$o*o+%@&X1:o$++Oo+ $ .$o++O+@;  $X *",
"O <O$% .$ XXo .&%; 4&:>pOO*.##.%%&#XX1O<:$$O++   $oo$oOX-;; *o  ",
"O+<O$ %$.$+X oX+&%;&&>b>> +-#%2&&#XX-&:<:O+:++o+ ...++o+X>3;%.#+",
" o<+o @  .O@%$X. >c@X>>X&+<,2&-#X.o&11<<O+++$%;;  .$oooXXO13n.@*",
".**O@% $$ X%.XoX$X;cc@O>:@;;&.##o*.1&:O<#o++%$%%; .$oo++XOX-3,#.",
"=.1$+@ $O$@;33;%% ;;33;;33;;;#*.@..-><+OO#++O+ %%%$oXo+XX+#=#;@@",
"*#:Oo   %%3;;%  $XX144>y&$;;;;.2*..&><O+++##+X<O $+..o+&XO#2&,%%",
"#+:+#%%% .4>:$ + +..#X&&><9X@;;;,2=O:<OXooo##=    $$$+oX*O#2=-;@",
"%%   *oOOo $+  X$-.o#4-#<OX#X%;;;,% oO&.O.o$$=@ .@$o.oo@OX=2#=-;",
"+O+<++*% >%.+ ..o+o%1-1O>4X.#2;=X<pO$..XooO++X*@ $$o*.1$OOO===+ ",
"OOO+oo+@X4 X.X $O*&@--O<-:.o#;&.@.o6&X.%oo.#o+$@@$o.@@$$+&O.X+o%",
"$O:$  $$**#XX +O@.O@-O9>OXX#@;&...+<X&=$%$..Xoo .##%@+OO&:O Xo,%",
"$:#+ $ +o @O.O 2% =#6O6&OX.@%@#*%*o&=11:.;@o.Xo +%%@+O:O>-OX. % ",
"$$:    $oo$+.O@2 o#<-:&&-@@;;4.#. +=&>>4& ;;;3;;%$&.+O#=X+OX.;+o",
"OoO  $ O$ o$*.-#o=O.&&>&: ;1:=#$@$#&&&X>=&@%;3.&<<+$+o#@OX. ,X= ",
".++O %  $ oo+O*-.o#Op:X.:&.4.##* O*=&.&&OX1& ;.2#$+++oo+$;;@+X$ ",
"+O:o+%%%$@  o$.+$#oX  XXO  :+#.#<#=X=&&=OO==& 2.@.++#=$;;+oX@* .",
"o$&oo ;% @ @ Oo$#$.o @.@O @#+.#$....&&&=oO=-# ,#.##+O*3OOO.. 2o$",
"++:X+ ;% @@   +o.XXO @O*Xo .#.#$.@..=&&XoO=##%=n%..#O;#o+.@o%2O ",
"++:X+%;%@@@@o  .$.XX ..$:>Oo#$#  @XXX.:.&o&.# 2,.%%o;;#=#+ O   %",
".o:X:%%%  @ + .%X.XO@#@ OX.ooo##o#X:o=&=O&:.#@.@o%3%%;O=Xo #  o ",
"+&:+X@%@@@oo%.X $@.$ @X%@OO##o#..X.=XX& &&X..@ @,%..$%%+OX@$    ",
"o+&++ ;%@  o% + %;%  @4&XXX.oo#o#=o.&O&.&...#*.@;.*#++++ %$$$.$ ",
"ooo+$ ;   $+  O@ ..;@@&.-4O#o.:+$o.-&&&&.r@.#22n *.#o++O+O+%%$.@",
"%%%%%;;;%@$O $X X.X;;%>=oXX++$.+$++O&---oOX..;3.,#$++O+OOOo$ o%%",
"O&..X+O<O ;%%@O.$.&X $>=oXXoo#++$++>O<&#&#.,%=.**$$++++OO< Oo+o$",
"$ +<  %  $O&O;%% -&O$OX=OOXoo+++$ooO<O-o=,,#.*@  $+++++O+OOO+   ",
"X$$$ %% o%   oX&O@@  $OOOo$X++oo +@&1OO,%O#X#+o +++$o+$OXX.*+ *@",
"&..   %     %o$@+&$$%%,@X%*O++.+XX--23z@%% O++o .$.o+ $O>O+ $**@",
"=Oo+ ;%%     . .$+.X @=.,;+O+o$*XX233@4bG<%%o+  * *###==-=@@$* 2",
"=.+o+%%%     ++o +O @ =$ %+#+o@.-%; 41&&>F<%%% . @%o#=#-&=*. $ *",
"-.+*@% @@o %o++X $X@2OXO% ;;##@*;@4y&=#X&99<=;3333%..=o--*= @ %@",
"oo+@$%  @%o. +$X5t888tttkkjkjkt88ttkjjkttt888tt5;c%.o=X====%%;;;",
"%,,%o%   @ o oo#ir777rr055w5a5r77r05aa50rr777rri+33% .. %;;;;X& ",
"#1@;%;%%  %o*$X.i0r7r0055wawaw0r705waaw500r7r00l%#@;;3333;*1& @%",
".X&>&2 %;;;+.XX$i0rrr005wwaw8w0rr05w88w500rrr00l@..+-,33;*&o.@@@",
".#..o@%:&@333; Ol0rrrCCCCCCCCCCCCCCCCCCCCCCrr05l.#@oo-1%%%O@@@ @",
"@=..*%% @%;33333l5000AAAAAAAAAAAAAAAAAAAAAA0055e%#*#ooX>1%%%@@@,",
"@Xo.$ % %;;%,.O+l5000AAAAAAAAAAAAAAAAAAAAAA0055e%+o#oo.&&y&%3% @",
"o-.$%;;%$::X@.Xoe5505AAAAAAAAAAAAAAAAAAAAAA055we%*@.o&.O1-&>&,;,",
",3;;+<:  %+.@#.Xew555AAAAAAAAAAAAAAAAAAAAAA55wwu%**.oO===OO.=y2%",
"1::.o@ @   +@o+oew555AAAAAAAAAAAAAAAAAAAAAA55wwu%@*o$OX=OOO**XX&",
"::o.o,%   %#.$X.uww5w8kkkkkkkkkkkkkkkkkkkk85wwaq%#..*.#-+O=.@@@%",
"+-:#o %$@ ##.+X.uawwwaa8ttktjtawwa8tjjt8aawwwaaq@*#o+#*-.--##@% ",
"@oo+X@%+ @@O@XOXuawwwaa8ttktjtawwa8tjjt8aawwwaaq*..+#.#XO-X@@@  ",
"$oo.#%%@ ,oo +XOuww5wwa88tttktaw5w8tkkt8aww5wwaq@.*##.#XoO$=@% @",
".X..2@%;O @*.$O+ew555wwa88t8k8w55wa8kk8aww555wwu@o####oX#O #  @ ",
"*-.o-@3@;; = .X*ew555wwa88t8k8w55wa8kk8aww555wwu%###.&.X&o@$$.  ",
"&.XX#@% .O33%...e55055wwa888ZZZZZZZZZt8ww55055we $*.o##*O#$$$$. ",
"X.&#o@ 2.O+333%%l500055waa85BxhggghxB5aw5500055e@ $###*=* ++*.@2",
".@:.X3@@@o%;;@=1l500055waa80mgggggggm0aw5500055e.@+++###++o#o@.@",
"..:Xo%@@%%% >Oo$l0rrr055wwa7dhhhhhhhdrw550rrr05l@@ O+$++OO##X.  ",
"=.=#.@%3; O $$$Oi0rrr005wwa7hdddddddhrw500rrr00l@..%+++$+Oo#@* %",
"-##&,;;@X.$    *i0r7r0055wa7gdmmmmmdg7w500r7r00l* *@o+$+Ooo#@*  ",
"&.%%%@X#@$O$   +ir777rr055wqNxdmmmdxN750rr777rri$$o +<+ XO ..O$ ",
"%;2@X@@& #O$$$$Oir777rr055wqAAAAAAAAA750rr777rri  ++o#OoO+@ .$..",
"%@1..%@**.++oO.Oi77q77r0055queifffieu750r77q77ri ..o+#OX:+#@* ;,",
"-@--.%@*. OX++.&f7qqq77r0050w07qq7r0ww0r77qqq77i $oo.oX+.@%%% &O",
"-#-O.@%$$$o++oXXf7qqq77r0050507qq7r0550r77qqq77i $.$  @%%%$&&X.X",
"@#&o*@   $X X.X$fqquqq77r000507quq7055077qquqq7f @%%%@O:OOX.*o@.",
"$*.O@% $o O+$XoXsquuuqq7rr0r5rquuq7r55r7qquuuqqf$X:<&=OXXO=2.*.*",
"-.&*+  oO.oo$XX.squeuqq77r0r0rqueq7r00r7qqueuqqfX+$o+o+XO+=@== @",
".o-X+   %Oo+    sueeeuqq77r707qeeuq7007qqueeeuqs $o.$o+:+OO #o@%",
"##&++oOO%$.o   ossvVvsssffififsvVssfiifsssvVvsss  .$.+++&O+ += @",
"#O+$+o+XOo .+  O.O..o><.2,%@;;3o$.#&1-:<:++$oO  . $o.++ X+O +X @",
"+O+<+o$% >%.X ..#oo%&:.% :-.#=; $.#1-1-Oo+O+++$  $.o.o:.-+OXO+o ",
"OOO+$$+ X> X$O $=$:@&  &<&.##X23@**1-4<-++++++.  .ooo+X+X:O.OX. ",
".X<$  ..$.+XX oX oO;@::6XX=.:o#@;..&=-<O++++O+. ooo+ooXX&<O Xo. ",
".&o+@$ o$  X.X  %@%#&X6:OX++.&#*%*.&=>6+=oO++O+@o o+oO:O4<OO$Oo ",
"..& @  $$$.+.O  ;%:&&&:&&. +O-#,.@==->9pO#O+OO+$+$+.oX+XX+XOXO+.",
"O+O @. X$ .$$$O%o&X.&&>&&& ++:#%@..&-<O6O+#o+X+ +$+.oo+ XOX.X=+ ",
"$++O@%  $@.$+O%::$o-b&X.&1oo##o*%-.=:$:&Ooo##Xo o$+oo+oX=+X XX. ",
"$+<9;;;    +%&:o$*X&y&=-6O.##..+%@$OO+XoO.oO+*@.o.+ooXO#+<+ X. $",
"++++ %*@ $$%:XoX O.1yy#+O#X.#.#.%O OOX=&&O+++o*@+++o#.#+OOO+$+$ ",
"++oo   *X%:&XoO $-o=1=OO*$Xo#.#*@. oXX=X&o.#X$+2@$$..#+oOXO X$+ ",
"$$+$o   %&.oX+o --:1=+Oo;X#####@ @ $&&=Oo+..#. %%*.o#++OXOO.X.2%",
"o+#+  ;<<+=+ $+*:X==OO  ;.-##X.@%@ X&==+oO.X.X.%$#o#$+ooo=+.XXo%",
"+ooo$;:$ o$ .$.* o#o*>.@=-Xo#X..% +=&&X=Xoo.o=.@   o$O#*X++ XXo ",
"OoO%::   o $*.**.*o*.o&4>+:.+##o% #=&&XX=....*.. o +$o#X+ oX..*o",
"X+%:$ @    o 2*X*o-$Oo.=O>o#*=##  @=&&=XOo=..X..@  +$..+OO&=+X$$",
";::o$    @.oo .O$.O.O+..$Xoo+XO# %2X&.X=oO.*.X=.@*%+@#o+O  %%%%%",
"&;&:o    @.*  o$*$#+:..*$..#+#=$@,@&X1==oo.##X## 2@ $@3%%$,*:-<$",
"O$; $+.@ .@. oooX@.+O. ..X...o*$@3.==X=Xoo####.*.%@%%$-:O-* +=+$",
"+$ %;;o2@@@@oo o .#o .@+$ oo*+*%%@ XX@:X.oo.*X*2@;3.:+*#=O ++O. ",
".o o %%@  @  o .@..$ @@$ . o$%##%@ :&.==o.o.*@@,;.&X$+$*#X@#+ X.",
"Oo O@@;;@@  %. . X.$$@@ .%%#*%*.,@@&&XX$..o.@3%.&+@.+o$+oX@ + ..",
"@$@$$ @;@  %    ;X.$ @@*@%%.oo#.,, =&+&.o.@,,*&=.%,#$o+++=+ OX+@",
".o.  %%%; $%   % *@ @@#@3@$@oo $%%@====..v;@-#,% 2@@+OO+OOoo<OX@"
};
