/* XPM */
static char *SW1STON1[] = {
/* columns rows colors chars-per-pixel */
"64 128 42 1 ",
"  c gray23",
". c #434343",
"X c #373737",
"o c #2F2F2F",
"O c #232323",
"+ c #1B1B1B",
"@ c gray31",
"# c gray28",
"$ c #5B5B5B",
"% c gray39",
"& c gray42",
"* c #777777",
"= c #6F6F6F",
"- c gray34",
"; c gray50",
": c #17330F",
"> c #838383",
", c #8B8B8B",
"< c #939393",
"1 c #13230B",
"2 c #979797",
"3 c #4B4B4B",
"4 c #B30000",
"5 c #CB0000",
"6 c #A70000",
"7 c #BF0000",
"8 c #9B0000",
"9 c #D70000",
"0 c #E30000",
"q c #8B0000",
"w c #9F9F9F",
"e c #7F0000",
"r c #EF0000",
"t c #272727",
"y c #131313",
"u c #9B7F6B",
"i c #AF977F",
"p c #937B63",
"a c #FF1F1F",
"s c #5F4B37",
"d c #533F2F",
"f c #836B57",
/* pixels */
"  .     XoO+Oo   XoXXoXX  X  o .X. XX  ..XOX.X.........   .  .. ",
"  .. .. XoO+Oo   XXXX o   .. X.... XX  .  @............   .  .. ",
"  .. .. XoO+Oo   XX  o X  ..  X... XX  .   X.... ......   .  .. ",
"  .   . XoO+Oo   X   Ooo  .  XX... XX  .   X.o.........   .  .. ",
"  .  ..XXoO+Oo       o    .  XX... XX  .   X...........   .  .. ",
"     ..oXoO+Oo       o X  X  XX... XX  .   X ..........   .  .. ",
"  .  ..XXoO+Oo  XX   ooX  o  XX... XX  .   X .. ........  .  ...",
" .    . XoO+OoXXXX     X .o   X.X. X.  .   X ...... .... ..   ..",
" ... ..XXoO+OoXX    X .  .o.  ..X XX.. .   X .. .@...... ... ...",
" . .   XXoO+OoX  o XXo o .o.  X..  .X      . .  .@...... ...   .",
" ... ..XXoO+OoX .XoXXooX .X. X..XXXX.      . .  .@@@.... ... ...",
" .    .XXoO+OoX  XoXXooo .X. XoXooX.X   OXXo  XX.@@@.... ... ...",
"ooooooooooO+OoXooooooooooooooooooooooooooooooooooooooooooooooooo",
"OOOOOOOOOOO+yOOOOOOOOOOOOOOOOOOOOOOOOOOOOOOOOOOOOoooOOOOOOOOOOOO",
"OO++++++++++++++++++++++++++++++++++++++++++++++++++++++++++++++",
"+OOOOOOOOOOOOOOOOOOOOOOOOOOOOOOOOOOOOOOOOOOOOOOOOOOOOOOOOO+OOOOo",
"........  .-%$$$$$%$%$@#.. ... .              .#.##. .  oO+Oo...",
"  o       . @@%===%$$@#Oo o  @oX@#X.X   .XX.oOX. @.oo.XooO+Oo ..",
"   .o. .   .@@%%%$%$@@#X  o. @..@#.XX  .. .X X.# @.oo.XXoO+Oo...",
" ..ooo o   .@@$$-$$$ @#   .. @o.@# X.  X. XXo X# @Xoo.XXoO+Oo...",
" .Xtooo..  .@@%-%$%%@@# o o..@o.@# ..  X. X.oX.@ @XXo. XoO+Oo. .",
" . o oo... ..$%$%@%$@@#. . o @o.@@ .. X.. X.oXX@#@XXo. XoO+Oo. .",
" . . ....  ..@$$%@@$#@#.. .  @ .@@#####X. ..oXX##@XXo. XoO+Oo...",
"   o  ...  .@@%$--@$@@#.. .. @ .@- ##@#X. ..oX#@##XXo. XoO+Oo...",
"      o. ..#@@%---@-@@#...o.#@ .@- ###### . .X#@##X  . XoO+Oo...",
" .X   o.. .##@$-$--@@@#.  o.#@ .--#X@#@@@#.##.X@##X  . XoO+Oo. .",
" .  o.o ..##.#@@--@@#@##.o@.#@..-$@@@@-@@@## .#$##  :. XoO+Oo. .",
" .. oo  o..##.@@@@@##@# .#..#@..-$@@$$@@---##o.. # oo. XoO+Oo.  ",
"  .  .. XXoo.##@@@ #X@##  #.@@ .-$#@@$@@$$-@@..$@#.o.. XoO+Oo.. ",
"     .. X X .##@@###X@#   .##@#.-$@@@@@@%$@@##.$@@.... XoO+Oo.. ",
"     .. XXXo.#@##.## @#X  .##-#.-%$@@-@@%%$###.$$$@.o. .oO+Oo.. ",
"     ..   X. .###. #o##  o.@@-#.$%$$---%%----@$$$@ o.# ooO+Oo...",
"     . .  XX #######X##  ..#@-#.$%$$$$$&=&$-$$$%$@- .# ooO+Oo. .",
"  .  . . X oX.##..##X##X o.#$-#.$%%%%%$%%$$%$@%%$$# .#..oO+Oo  .",
"      .. XXoX .### #X..X o.#$-#.$%$%%%%%&&%&%%%%$$#.@#XXoO+Oo ..",
"  .    . XXoX . #. #X..X o.@$-#@%%%%&==&===&&&&-$$@#.#.XoO+Oo  .",
"     . .X  oX .X#.o# .X o..@%-#@&$%%&&&=;*=====%%$@@.# .oO+Oo   ",
"  .  . .X . XX X#. #X.X  o.@%$#@&&%&&&&===***==&%%@-@# XoO+Oo  .",
"     . .X   X  X##o#X.X  o.#%$#$&%%&==&==***==&&&%-@-# XoO+Oo  .",
"      ..X XXXX o..o# .X  o.#%$$%&&%&&==*=***==&&&%$@-# XoO+Oo...",
"  .  ...XXoo. ....o#..X oo.@%$$%&&-&%%=&&=*==&&%%%-@-# XoO+Oo ..",
"X      .X ooo  o..o# .X oo@#%$$%&&-&%%&&%==&%%%%%$@@-# XoO+Oo...",
"        XX o.o  ..o#X.X  o.#%$%%&&-&-%&&-%%%%%$$$@@@-# XoO+Oo ..",
"    XXXXXX .oo  ..o#X.X  ..#%$$$%&-&@%%&@%$$$$$@@@##@# XoO+OoX..",
"XXXXXX  ooXoooXX  O#o.ooXo #  #..o#.#o###@@..#.####X  oooO+Ooooo",
"OOOOOOOOOOOOOOOOOOOOOOOOOOOOOOOOOOOOOOOOOOOOOOOOOOOOOOOOoO+OOOOO",
"++++++++++++++++++++++++++++++++++++++++++++++++++++++++O+++++++",
"OOOOOOOOOOO+OOOOOOOOOOOOOOOOOOOOOOOOOOOOOOOOOOOOOOOOOOOOOOOOOOOO",
".. ..... oO+OX.             . ..                @.----.    .....",
"  X     XoO+Oo.XXoooXXXX .Xo    ooOoo  ...     .. @@@.    .  .. ",
"  X X   XoO+OoXXXooooXXX oXo    XooX   ...    XX. @@@.    .  .. ",
"  X X X XoO+OoXX OoooX o oX o X .XX.   ...    XX..@.@.    . X.. ",
"  X  .  XoO+OoX . ooo .  oXX .  X..X   ...   . X. @.@ X   .  .. ",
" XX     XoO+Oo   oooo  X oXX    XXXX   ... .   X. @.@.    .  .. ",
" XX X   XoO+OoX  o XoXXX oXXo   XXXX   ...     X. @.@.    . X.. ",
"  XXX   XoO+OooXX oXoXXX oXXo   .XXX   ....    .. @.@..   .X .. ",
"XXX XXX XoO+Oo   XoXXoXX  X  o  X  XX  ..XOX.X....@.@..   .  .. ",
"X  X   XXoO+OoX  XXXX o   .. X. .  XX  . X@.......@....   .. .. ",
" XXoX XoXoO+OooXXXX  o X  ..  X X  XX  . X X......@....   .  .. ",
"XoX  X XXoO+OooooX XXOoo  .  XX oo XX  . X X.o....@.@..   .  .. ",
"oo  XXX XoO+OooXX Xooo    .  XX oo XX  . X X.@....@.@..   .  .. ",
"XX XX XXXoO+Ooo   oooo X  X  XX .X XX  . X X .......@..   .  .. ",
"  XX  oXXoO+Oo XXX  XooX  o  XX.@. XX  .   X .. ........  .  .. ",
"XXXX . XXoO+OoX . XXXXXXXXXX X ...X X  .XX.  XXX.......   . X.. ",
"  .     XoO+Oo   XoXXoXX  X  o .X. XX  ..XOX.X.........   .  .. ",
"  .. .. XoO+Oo   XXXX o   .. X.... XX  .  @............   .  .. ",
"  .. .. XoO+Oo   XX  o X  ..  X... XX  .   X.... ......   .  .. ",
"  .   . XoO+Oo   X   Ooo  .  XX... XX  .   X.o.........   .  .. ",
"  .  ..XXoO+Oo       o    .  XX... XX  .   X...........   .  .. ",
"     ..oXoO+Oo       o X  X  XX... XX  .   X ..........   .  .. ",
"  .  ..XXoO+Oo  XX   ooX  o  XX... XX  .   X .. ........  .  ...",
" .    . XoO+OoXXXX     X .o   X.X. X.  .   X ...... .... ..   ..",
" ... ..XXoO+OoXX    X .  .o.  ..X XX.. .   X .. .@...... ... ...",
" . .   XXoO+OoX  o XXo o .o.  X..  .X      . .  .@...... ...   .",
" ... ..XXoO+OoX .XoXXooX .X. X..XXXX.      . .  .@@@.... ... ...",
" .    .XXoO+OoX  XoXXooo .X. XoXooX.X   OXXo  XX.@@@.... ... ...",
"ooooooooooO+OoXooooooooooooooooooooooooooooooooooooooooooooooooo",
"OOOOOOOOOOO+yOOOOOOOOOOOOOOOOOOOOOOOOOOOOOOOOOOOOoooOOOOOOOOOOOO",
"OO++++++++++++++*<,,,<<<22w2w2<,,<<2ww2<<<,,,<<*++++++++++++++++",
"+OOOOOOOOOOOOOOO#&%%%&&=**;*>*&%%&=*>>*=&&%%%&&#OOOOOOOOOO+OOOOo",
"........  .-%$$$#=&%&==**;>;>;=&%=*;>>;*==&%&==3.##. .  oO+Oo...",
"  o       . @@%=#=&&&==*;;>;,;=&&=*;,,;*==&&&==3 @.oo.XooO+Oo ..",
"   .o. .   .@@%%3=&&&%$$$$$$$$$$%=*;,,;**=&&&=*3 @.oo.XXoO+Oo...",
" ..ooo o   .@@$$3*===&590raar095&*;>,,>;**===**@ @Xoo.XXoO+Oo...",
" .Xtooo..  .@@%-3*===&7590rr0957&*;><<>;**===**@ @XXo. XoO+Oo. .",
" . o oo... ..$%$@**=*&4759009574&*;,<<##;**=**;@#@XXo. XoO+Oo. .",
" . . ....  ..@$$@;***&6475995746&;>,22.@;;***;;-#@XXo. XoO+Oo...",
"   o  ...  .@@%$@;***&8647557468&;>,2uiiu;***;;-##XXo. XoO+Oo...",
"      o. ..#@@%--;;*;&q86477468q&;,<2fppf;;*;;>$##X  . XoO+Oo...",
" .X   o.. .##@$-->;;;&eq864468qe&>,<wsdds>;;;>>$##X  . XoO+Oo. .",
" .  o.o ..##.#@@->;;;&eq864468qe&>,<w=..=>;;;>>$##  :. XoO+Oo. .",
" .. oo  o..##.@@-;;*;;<<<<<<<<<<*;,<22.@>;;*;;>$ # oo. XoO+Oo.  ",
"  .  .. XXoo.##@@;***;;>,,<,2,;**;>,22.@;;***;;-@#.o.. XoO+Oo.. ",
"     .. X X .##@@;***;;>,,<,2,;**;>,22.@;;***;;-@@.... XoO+Oo.. ",
"     .. XXXo.#@#@**=**;;>,,,<,;*=*;,<<.@;**=**;@$$@.o. .oO+Oo.. ",
"     ..   X. .##3*===**;>>,><>*==*;><<.@**===**@$@ o.# ooO+Oo...",
"     . .  XX ###3*===%$$$$$$$$$$%*;>,,.@**===**@$@- .# ooO+Oo. .",
"  .  . . X oX.##3=&&&&1111111111&=*;,,.@*=&&&=*3$$# .#..oO+Oo  .",
"      .. XXoX .##=&&&&1::::::::1&=*;,,.@==&&&==3$$#.@#XXoO+Oo ..",
"  .    . XXoX . #=&%&&1::::::::1%=*;>>.@==&%&==3$$@#.#.XoO+Oo  .",
"     . .X  oX .X#&%%%&1::::::::1%&=*>>.@&&%%%&&#%$@@.# .oO+Oo   ",
"  .  . .X . XX X#&%%%&1::::::::1%&=*>>.@&&%%%&&#%%@-@# XoO+Oo  .",
"     . .X   X  X#%%$%%1::::::::1$%=*;;.@&%%$%%&#&%-@-# XoO+Oo  .",
"      ..X XXXX o.%$$$%1::::::::1$%&=;;>,%%$$$%%#&%$@-# XoO+Oo...",
"  .  ...XXoo. ...%$$$%1::::::::1$%&=**=&%%$$$%%#%%-@-# XoO+Oo ..",
"X      .X ooo  o.$$-$&**********&$%=**=%%$$-$$%.%$@@-# XoO+Oo...",
"        XX o.o   $---$$%&&=&*&$--$%&**&%$$---$$.$@@@-# XoO+Oo ..",
"    XXXXXX .oo   $-@-$$%%&=&=&$-@$%&==&%$$-@-$$.@@##@# XoO+OoX..",
"XXXXXX  ooXoooXX -@@@-$$%%&%=%$@@-$%==%$$-@@@-$ ###X  oooO+Ooooo",
"OOOOOOOOOOOOOOOO  XoX   ..#.#. Xo  .##.   XoX   OOOOOOOOoO+OOOOO",
"++++++++++++++++++++++++++++++++++++++++++++++++++++++++O+++++++",
"OOOOOOOOOOO+OOOOOOOOOOOOOOOOOOOOOOOOOOOOOOOOOOOOOOOOOOOOOOOOOOOO",
".. ..... oO+OX.             . ..                @.----.    .....",
"  X     XoO+Oo.XXoooXXXX .Xo    ooOoo  ...     .. @@@.    .  .. ",
"  X X   XoO+OoXXXooooXXX oXo    XooX   ...    XX. @@@.    .  .. ",
"  X X X XoO+OoXX OoooX o oX o X .XX.   ...    XX..@.@.    . X.. ",
"  X  .  XoO+OoX . ooo .  oXX .  X..X   ...   . X. @.@ X   .  .. ",
" XX     XoO+Oo   oooo  X oXX    XXXX   ... .   X. @.@.    .  .. ",
" XX X   XoO+OoX  o XoXXX oXXo   XXXX   ...     X. @.@.    . X.. ",
"  XXX   XoO+OooXX oXoXXX oXXo   .XXX   ....    .. @.@..   .X .. ",
"XXX XXX XoO+Oo   XoXXoXX  X  o  X  XX  ..XOX.X....@.@..   .  .. ",
"X  X   XXoO+OoX  XXXX o   .. X. .  XX  . X@.......@....   .. .. ",
" XXoX XoXoO+OooXXXX  o X  ..  X X  XX  . X X......@....   .  .. ",
"XoX  X XXoO+OooooX XXOoo  .  XX oo XX  . X X.o....@.@..   .  .. ",
"oo  XXX XoO+OooXX Xooo    .  XX oo XX  . X X.@....@.@..   .  .. ",
"XX XX XXXoO+Ooo   oooo X  X  XX .X XX  . X X .......@..   .  .. ",
"  XX  oXXoO+Oo XXX  XooX  o  XX.@. XX  .   X .. ........  .  .. ",
"XXXX . XXoO+OoX . XXXXXXXXXX X ...X X  .XX.  XXX.......   . X.. "
};
