/* XPM */
static char *SW2BRIK[] = {
/* columns rows colors chars-per-pixel */
"64 128 44 1 ",
"  c #373737",
". c gray23",
"X c #2F2F2F",
"o c #434343",
"O c #232323",
"+ c #777777",
"@ c gray50",
"# c gray42",
"$ c gray28",
"% c #5B5B5B",
"& c gray39",
"* c gray31",
"= c #838383",
"- c #8B8B8B",
"; c #939393",
": c #1B1B1B",
"> c #6F6F6F",
", c #131313",
"< c #272727",
"1 c gray34",
"2 c #979797",
"3 c black",
"4 c #4B4B4B",
"5 c #9F9F9F",
"6 c #17330F",
"7 c #1F4317",
"8 c #0B1707",
"9 c #3F832F",
"0 c #2F6323",
"q c #27531B",
"w c #37732B",
"e c #439337",
"r c #13230B",
"t c #4B9F3F",
"y c #5F4B37",
"u c #937B63",
"i c #AF977F",
"p c #836B57",
"a c #533F2F",
"s c #9B7F6B",
"d c #53AF47",
"f c #473323",
"g c #8B0000",
"h c #730000",
/* pixels */
"XXX<OO,O<XXXXXXXXXXXXXXXXXXXXXXXXXXXXXXXXXXXXXXXXXXXXXXXXXXXXXXX",
"o..X<O:<<XX.o$********$$$$$$$$oooooooooooooooooooooooooooooooooo",
". ..XO:O<X.1*$ooooo.. ..... . .... . ...... . .... . ..... . ...",
" .  XO:O<Xo*o.  .... .    .  ...    . .. .   .. X   .       .   ",
".o  XO:O<X$o.. ...  .o      .o .   .o. .. . .o . . .o..    .o   ",
"X.. XO:O<X$.X.. ... X..     X..    X...     X.. .  X...    X..  ",
" .. XO:O<Xo. .. . .. ..    . ..   . ...    . ..   . ...   . ..  ",
"    XO:O<X$.X  . X.                             .. ...         .",
"  . XO:O<X$..  .X . .        .       .       ... ...    o..   X ",
" . XXO:O<X$..  . . X.    .  . .     . .     ..    .     ... X   ",
"   XXO:O<X$X .  .   .      X         X      .    ..     ...     ",
"  . XO:O<X$ .      .        .     X   .         ..   .  ..      ",
"   .XO,O<X$.              .          . . . . . ...      .. .    ",
".   XO,O<X$  .                        . X .  .       X.  ...    ",
" .. XO,O<Xo .o.                      ..      . .        .. ..   ",
".o. XO,O<Xo X$.  ..            ..           . X      . .    .   ",
"X.  XO,O<Xo o.  .    . .     ..     X  .               .   .    ",
" .  XO,O<X..   ..X .. X .      .                .        .      ",
"X  .XO,O<X. . ..   .X ...            .    X       .    ..       ",
" ..XXO,O<X.X . X   . . .               .    X   X               ",
"X  XXO,O<X. ... ..  .  .           . X   X X      X            .",
" XXXXO,O<X..   .                  .X      . X      .          . ",
".  XXO,O<X.           .            . .     .      .            .",
". . XO,O<X.                 .               .       .      .    ",
" ...XO,O<X.  ..      .. .    ..       .      ..      ..     ..  ",
".o. XO,O<X. .o.     .o.     .o.. .  .o.     .o. ..  .o.    .o.  ",
"X.  XO,O<X. X.      X. . .  X.. X . X.      X...  . X. .   X.   ",
" .  XO,O<X            . X .  ..   .        . .  XX . .. . . .   ",
"X  XXO,OOX             . X .. XXXX .      . X XX<XX X  X . X    ",
"XXXXOO,::OX. XXXXXXXXXXXXXXXXXX<<XXXXXXXXXXXXXX<OO<XXXXXXXXXXXXX",
"OOOO:,3:::O<<<OOOOOOOOOOOOOOOOO::OOOOOOOOOOOOOO:,,:OOOOOOOOOOOOO",
":::,,33,,,,,:::::::::::::::::::,,::::::::::::::,,,,:::::OO<OOOOO",
"XXXXX.o.XXXXXXXXXXXXXXXXXXXXXXXXXXXXXXXXXXXXXXXXXXXX<OO,O<XXXXXX",
"***oooooo$$$$$oooooooooooooooooooooooooooooooooooo..X<O:<<XX.o$*",
"ooo.. ..... . .... . ...... . .... . ..... . ... . ..XO:O<X.1*$o",
".... .    .  ...    . .. .   .. X   .       .     .  XO:O<Xo*o. ",
"..  .o      .o .   .o. .. . .o . . .o..    .o    .o  XO:O<X$o.. ",
"... X..     X..    X...     X.. .  X...    X..   X.. XO:O<X$.X..",
". .. ..    . ..   . ...    . ..   . ...   . ..  . .. XO:O<Xo. ..",
" X.                             .. ...         .     XO:O<X$.X  ",
"X . .        .       .       ... ...    o..   X    . XO:O<X$..  ",
" . X.    .  . .     . .     ..    .     ... X     . XXO:O<X$..  ",
".   .      X         X      .    ..     ...         XXO:O<X$X . ",
"   .        .     X   .         ..   .  ..         . XO:O<X$ .  ",
"          .          . . . . . ...      .. .        .XO,O<X$.   ",
"                      . X .  .       X.  ...     .   XO,O<X$  . ",
"                     ..      . .        .. ..     .. XO,O<Xo .o.",
" f.            ..           . X      . .    .    .o. XO,O<Xo X$.",
".    . .     ..     X  .               .   .     X.  XO,O<Xo o. ",
".X .. X .      .                .        .      . .  XO,O<X..   ",
"   .X ...            .    X       .    ..        X  .XO,O<X. . .",
"   . . .               .    X   X               . ..XXO,O<X.X . ",
"..  .  .           . X   X X      X            . X  XXO,O<X. ...",
"                  .X      . X      .          . X XXXXO,O<X..   ",
"      .            . .     .      .            . .  XXO,O<X.    ",
"            .               .       .      .     . . XO,O<X.    ",
"     .. .    ..       .      ..      ..     ..    ...XO,O<X.  ..",
"    .o.     .o.. .  .o.     .o. ..  .o.    .o.   .o. XO,O<X. .o.",
"    X. . .  X.. X . X.      X...  . X. .   X.    X.  XO,O<X. X. ",
"      . X .  ..   .        . .  XX . .. . . .   . .  XO,O<X     ",
"       . X .. XXXX .      . X XX<XX X  X . X     X  XXO,OOX     ",
"XXXXXXXXXXXXXXX<<XXXXXXXXXXXXXX<OO<XXXXXXXXXXXXXXXXXXOO,::OX. XX",
"OOOOOOOOOOOOOOO::OOOOOOOOOOOOOO:,,:OOOOOOOOOOOOOOOOOO:,3,::O<<<O",
"OOOO,,,,,::::::,,::::::::::::::,,,,:::::::::::::::::,,333,,,,:::",
"XXX<O:::<XXXXXXXXXXXXXXXXXXXXXXXXXXXXXXXXXXXXXXXXXXXX .o. XXXXXX",
"o..X<O,<<XX.o$*******$$$$$$$$$oooooooooooooooooooooooooooooooooo",
". ..XO:O<X.1*$ooooo.. ..... . .... . ...... . .... . ..... . ...",
" .  XO:O<Xo*o.  .... .    .  ...    . .. .   .. X   .       .   ",
".o  XO:O<X*o.. ...  .o      .o .   .o. .. . .o . . .o..    .o   ",
"X.. XO:O<X$.X.. ... X..     X..    X...     X.. .  X...    X..  ",
" .. XO:O<Xo. .. . .. ..    . ..   . ...    . ..   . ...   . ..  ",
"    XO:O<X$.X  . X.                             .. ...         .",
"  . XO:O<X$..  .+;---;;;225252;--;;2552;;;---;;+ ...    o..   X ",
" . XXO:O<X$..  .$#&&&##>++@+=+#&&#>+==+>##&&&##$  .     ... X   ",
"   XXO:O<X$X .  $>#&#>>++@=@=@>#&>+@==@+>>#&#>>4 ..     ...     ",
"  . XO:O<X$ .   $>###>>+@@=@-@>##>+@--@+>>###>>4..   .  ..      ",
"   .XO,O<X$.    4>###&%%%%%%%%%%&>+@--@++>###>+4..      .. .    ",
".   XO,O<X$  .  4+>>>#hhhhhhhhhh#+@=--=@++>>>++*     X.  ...    ",
" .. XO,O<Xo .o. 4+>>>#hggggggggh#+@=;;=@++>>>++*        .. ..   ",
".o. XO,O<Xo X$. *++>+#hggggggggh#+@-;;$$@++>++@*     . .    .   ",
"X.  XO,O<Xo o.  *@+++#hggggggggh#@=-22o*@@+++@@1       .   .    ",
" .  XO,O<X..   .*@+++#hggggggggh#@=-22o*@@+++@@1.        .      ",
"X  .XO,O<X. . ..1@@+@#hggggggggh#@-;22o*@@@+@@=%  .    ..       ",
" ..XXO,O<X.X . X1=@@@#hggggggggh#=-;55o*==@@@==%X               ",
"X  XXO,O<X. ... 1=@@@#hggggggggh#=-;55o*==@@@==%  X            .",
" XXXXO,O<X..   .1@@+@@;;;;;;;;;;+@-;22o*=@@+@@=%   .          . ",
".  XXO,O<X.     *@+++@@=--;-2-@++@=-22o*@@+++@@1  .            .",
". . XO,O<X.     *@+++@@=--;-2-@++@=-22o*@@+++@@1    .      .    ",
" ...XO,O<X.  .. *++>++@@=---;-@+>+@-;;o*@++>++@*     ..     ..  ",
".o. XO,O<X. .o. 4+>>>++@==-=;=+>>+@=;;o*++>>>++*..  .o.    .o.  ",
"X.  XO,O<X. X.  4+>>>&%%%%%%%%%%&+@=--o*++>>>++*  . X. .   X.   ",
" .  XO,O<X      4>####w9etddte9w#>+@--o*+>###>+4XX . .. . . .   ",
"X  XXO,OOX      $>####0w9ette9w0#>+@-siis>###>>4<XX X  X . X    ",
"XXXXOO,::OX. XXX$>#&##q0w9ee9w0q&>+@=puup>#&#>>4OO<XXXXXXXXXXXXX",
"OOOO:,3:::O<<<OO$#&&&#7q0w99w0q7&#>+=yaay#&&&##$,,:OOOOOOOOOOOOO",
":::,,33,,,,,::::$#&&&#67q0ww0q76&#>+=>oo>#&&&##$,,,:::::OO<OOOOO",
"XXXXX.o.XXXXXXXX$&&%&&r67q00q76r%&>+@@o*#&&%&&#$XXXX<OO,O<XXXXXX",
"***oooooo$$$$$ooo&%%%&8r67qq76r8%&#>@@=-&&%%%&&$oo..X<O:<<XX.o$*",
"ooo.. ..... . ..o&%%%&88r6776888%&#>++>#&&%%%&&$ . ..XO:O<X.1*$o",
".... .    .  ...o%%1%#++++++++++#%&>++>&&%%1%%&o  .  XO:O<Xo*o. ",
"..  .o      .o ..%111%%&##>#+#%11%&#++#&%%111%%o .o  XO:O<X$o.. ",
"... X..     X.. .%1*1%%&&#>#>#%1*%&#>>#&%%1*1%%o X.. XO:O<X$.X..",
". .. ..    . .. .1***1%%&&#&>&%**1%&>>&%%1***1%.. .. XO:O<Xo. ..",
" X.             .. X ...oo$o$o. X..o$$o... X ...     XO:O<X$.X  ",
"X . .        .       .       ... ...    o..   X    . XO:O<X$..  ",
" . X.    .  . .     . .     ..    .     ... X     . XXO:O<X$..  ",
".   .      X         X      .    ..     ...         XXO:O<X$X . ",
"   .        .     X   .         ..   .  ..         . XO:O<X$ .  ",
"          .          . . . . . ...      .. .        .XO,O<X$.   ",
"                      . X .  .       X.  ...     .   XO,O<X$  . ",
"                     ..      . .        .. ..     .. XO,O<Xo .o.",
" ..            ..           . X      . .    .    .o. XO,O<Xo X$.",
".    . .     ..     X  .               .   .     X.  XO,O<Xo o. ",
".X .. X .      .                .        .      . .  XO,O<X..   ",
"   .X ...            .    X       .    ..        X  .XO,O<X. . .",
"   . . .               .    X   X               . ..XXO,O<X.X . ",
"..  .  .           . X   X X      X            . X  XXO,O<X. ...",
"                  .X      . X      .          . X XXXXO,O<X..   ",
"      .            . .     .      .            . .  XXO,O<X.    ",
"            .               .       .      .     . . XO,O<X.    ",
"     .. .    ..       .      ..      ..     ..    ...XO,O<X.  ..",
"    .o.     .o.. .  .o.     .o. ..  .o.    .o.   .o. XO,O<X. .o.",
"    X. . .  X.. X . X.      X...  . X. .   X.    X.  XO,O<X. X. ",
"      . X .  ..   .        . .  XX . .. . . .   . .  XO,O<X     ",
"       . X .. XXXX .      . X XX<XX X  X . X     X  XXO,OOX     ",
"XXXXXXXXXXXXXXX<<XXXXXXXXXXXXXX<OO<XXXXXXXXXXXXXXXXXXOO,::OX. XX",
"OOOOOOOOOOOOOOO::OOOOOOOOOOOOOO:,,:OOOOOOOOOOOOOOOOOO:,3:::O<<<O",
":::::::::::::::,,::::::::::::::,,,,:::::::::::::::::,,33,,,,,:::"
};
