/* XPM */
static char *SW2COMP[] = {
/* columns rows colors chars-per-pixel */
"64 128 94 2 ",
"   c #272727",
".  c black",
"X  c #070707",
"o  c #131313",
"O  c #2F2F2F",
"+  c #1F170B",
"@  c #13230B",
"#  c #232323",
"$  c #0B0B0B",
"%  c gray50",
"&  c gray39",
"*  c gray42",
"=  c #1B1B1B",
"-  c #6F6F6F",
";  c #777777",
":  c #373737",
">  c #5B5B5B",
",  c #838383",
"<  c #170F07",
"1  c gray34",
"2  c gray31",
"3  c #8B8B8B",
"4  c #373F27",
"5  c #939393",
"6  c gray28",
"7  c #434343",
"8  c #3F472B",
"9  c #474F33",
"0  c #332B13",
"q  c #0B1707",
"w  c #5B6347",
"e  c #4B4B4B",
"r  c #979797",
"t  c gray23",
"y  c #17330F",
"u  c #7B7F63",
"i  c #9F9F9F",
"p  c #53573B",
"a  c #B7B7B7",
"s  c #EFEFEF",
"d  c gray78",
"f  c #730000",
"g  c #67533F",
"h  c #5B0000",
"j  c #670000",
"k  c #1F4317",
"l  c #9F876F",
"z  c #AF977F",
"x  c LightGray",
"c  c #6F7357",
"v  c #533F2F",
"b  c gray67",
"n  c #A78F77",
"m  c #775F3F",
"M  c #8B0000",
"N  c #836B4B",
"B  c #775F4B",
"V  c #7F0000",
"C  c gray75",
"Z  c #676B4F",
"A  c #BFA78F",
"S  c #2B230F",
"D  c #E7E7E7",
"F  c #A7A7A7",
"G  c #27531B",
"H  c #DFDFDF",
"J  c #836B57",
"K  c #5F4323",
"L  c #6F5743",
"P  c #CBCBCB",
"I  c #9B7F6B",
"U  c gray70",
"Y  c #533F1F",
"T  c #43331B",
"R  c #4B371B",
"E  c #9B0000",
"W  c #EF0000",
"Q  c #CB0000",
"!  c #BF0000",
"~  c #B30000",
"^  c #E30000",
"/  c #D70000",
"(  c #A70000",
")  c #2F6323",
"_  c #675333",
"`  c #937B63",
"'  c #FF1F1F",
"]  c #4F0000",
"[  c #FF3F3F",
"{  c #FFDBC7",
"}  c #8F7753",
"|  c #FF5F5F",
" . c #7B634F",
".. c #3F2F17",
/* pixels */
"= O O O O O O O O O O O O O O O O O O O O O O O O O O O O O O O O O O O O O O O O O O O O O O O O O O O O O O O O O O O O O O O ",
"= O                                                                                                                           O ",
"= O                                                                                                                           O ",
"= O                                                                                                                           O ",
"= O                                                                                                                           O ",
"= O                                                                                                                           O ",
"= O             = = = = = = = = = = = = = = = = = = = = = = = = = = = = = = = = = = = = = = = = = = = = = = = = =             O ",
"= O             = X X X X X X X X X X X X X X X X X X X X X X X X $ + < $ X X X X X X X X X X X X X X X X X X X =             O ",
"= O             = X X o . o $ X = X $ + . = $ X = X X X X X X X X $ o $ $ X X X X X X X X X X X X X X X X X X X =             O ",
"= O             = X o # . O # o : o # O X : = = : X X X X X X $ X o = o o X X X X X X X X X X X X X X X X X X X =             O ",
"= O             = . X X . $ X X $ . $ X . o X X $ X = = $ q o $ $ o # o o X X X X X X X X X X X X X X X X X X X =             O ",
"= O             = X X X X X X X X X X X X X X X . o # O X q q = o o : # = X X X X X X X X X $ o X X X X X X X X =             O ",
"= O             = X X X X X X X X X X X X X X X . o = y q @ @ @ $ = T 0 = X X X X X X X X X o # . X X X X X X X =             O ",
"= O             = X X X q q q q q q q q q q $ X .   8 9 @ + + y @ 4 2 7   $ $ $ $ $ $   + + 4 o $ $ $ $ X X X X =             O ",
"= O             = < q q @ @ + @ + @ = = @ # $ $ . 7 < @ + @ y @ q O g 9   $ $ $ $ $ $   o = +   $ $ + o X o < X =             O ",
"= O             = @ @ @ k k k k k k k k k 8 @ o . u y k k k k 4 X 6 3 c 8 o + o o o o w 7 7 2 p < . 0 O $ + < $ =             O ",
"= O             = @ q q y @ y y y y y y @ y < X . 6 @ y y y k y 0 w z ; 8 o o o o o < T   # 4 o o X O 4 $ # + $ =             O ",
"= O             = # # # 4 4 4 4 4 4 4 4 4 9 o < . w y 4 4 k G k @ Z u u O o o o o o o & + # # o o o @ # $   = $ =             O ",
"= O             = $ X X X X X X X X X X X X X o . p X X X X k 4 + w I % : + o o o o o w # # 4 o o < 4 7 $ = o $ =             O ",
"= O             = q O e X ; 2 7 5 # & &   , t e % e o < 1 X @ @ . Z , u 8 o o o o o o : # # # o o o   O $ 4 o $ =             O ",
"= O             = X * ; . s * ; s + U U 6 s e F s @ X 0 a X ; & = , , , O @ o o o o o O   e > . 7       $ = + $ =             O ",
"= O             = . : g . A T : a . ` ` o x + & { X 6 t y k y y + c u , : o o o o o o 2 7 # # o O #   O q = + $ =             O ",
"= O             = . . . . . . . X . X . . o X < < o O ) X X % , @ % - 5 O @ o o o o o 4     t o O # O 7 $ # # $ =             O ",
"= O             = < X $ o X # . $ . X < + + X $ @ X k   = X i 7 y 9 c I 8 + o o o o o 6 O O p o 0 o # # $ = + $ =             O ",
"= O             = X . 9 w O F . o $ @ y < 7 8 + n + u , l L x # 4 1 - , # @ o o o o o o o o o o o o o o $ $ $ $ =             O ",
"= O             = # . : 4 4 & o o # @ @ . 7 4 + d . + * & 0 r + p 0 o . o o o o o o o o o o o o o o o o $ $ $ $ =             O ",
"= O             = , . - i O , + 6 t @ X X 7 ; + D + r 5 8 u C + @ x 4 X o . 7 0   O O 0 O 0           # o o o = =             O ",
"= O             = = . 4 8 0 N 8 e = X o . 6 u . 6 . + o c y   8 @ 1 o $ # . - v K K 9 7 e 6 6 K K Y 9 t O   0 ..=             O ",
"= O             = 4 $ $ X 8 Y 8 . $ < X $ $ o o o o $ o + 6 U : = s t * b . ; R R R 4 t 7 : v R R R 4 :   # S S =             O ",
"= O             = > . X ) G y X $ $ o o o $ o o $ o . d 1 - D . O *   8 0 . 6 S . u . t o 1 + S 0 0 = 7 $ 9 + < =             O ",
"= O             = 2 @ k G y < $ o o o o o o o $ $ $ X A Y +   . 9   . o $ b e 6 < x . 5 X a . l u @ p X : , . 1 =             O ",
"= O             = X X q X X o o o o $ o $ o o o o o o F - > i < X 4 1 $ $ b . 6 1 X 9 4 4 X . X @ 9 p . X q . $ =             O ",
"= O             = $ $ X o $ $ o o o o o o o o o o o o C 2 & s . @ X y c @ @ . ; 5 8 6 > 2 $ X # 2 8 @ X q X X X =             O ",
"= O             = $ $ $ o o $ o o o t t t t t t O t   O # O 3 @         w 7 t 8 G u % e r . O Z k @ $ . - X X X =             O ",
"= O             = X X $ o o o o @ . % a a x P x d P C d d d d d x d d P a a d b 1 * - t %   p X > = 1 2 t = # O =             O ",
"= O             = X $ $ o $ o o @ . u z w w w w w w w w w w w w w w w w w w w b O e 7 & , t 7 : i p & & 8 9 = 6 =             O ",
"= O             =   o : X . % r . . J z 2 2 2 2 2 2 2 2 2 2 2 2 2 2 2 2 2 2 o d @ w z 2 - 1 7 & O o + + < < < < =             O ",
"= O             = = O * . . c 3 . . I l B & & - - * * & * & > 1 > 1 1 > & 6   a 0 p r c % w - 2 # # o # o o o o =             O ",
"= O             = q = 1 o . u i . . I l N B B B B B B B B B B 1 B g g g 6 p S l 1 # O O 4 4 + p + o 7 # < < < o =             O ",
"= O             = . 5 r * . a d . . n l N B B B B m m m m m w m w _ _ v 9 p # u 9 9 < 1 , o 4 w + + + + < < < < =             O ",
"= O             = . e 1 o O 6 - . . 3 l N B B B m m B m L m g w w g g v v 9 0 u p 0 1 ; u @   u @ + + # < o o o =             O ",
"= O             = . O 7 o u O 2 . . u l B B B m m m m w w g m g L g g v g v 0 a y 6 - - ; < 4 c o + o   o o o < =             O ",
"= O             = $ r r 9 0 r d =   z A J J J N N  .N B B B B B B g g g L 1 : P   & 6 c 5 . . 3 o + o + < < < < =             O ",
"= O             = . O g . . 9 8 . . Z n n A b a a z l l n z 3 z z 3 5 i A C w z 8 & 3 9 Z o   5 o + o # $ o o o =             O ",
"= O             = . O 2 . o o $ o . 5 w w 4 8 8 9 8 8 4 O t 4 4 4 4 4 8 9 w 9 9 } c , & & 4 . ; o + o # $ o q < =             O ",
"= O             = . # e . & # $ o . 6 2 # # = # # + + + + + + + + + + + + + + v w # @ y 4 + . 5 o + + # o < o < =             O ",
"= O             = . e - . x   X o X X < . . . . . . . . . . . . . . + o 7 . . . X   9 X X X . u o + # + o < < o =             O ",
"= O             = . t e . 6 o X o $ o $ X . . . o o o . # o o o . . O X = . . . . . @ 8 o X . u < + 0 o < < < < =             O ",
"= O             = . 2 > $ F 5 . o o $ $ X $ . X o > i : x O % i . b   . . . . . X X X X 9 @ . 3 o + 0 + o o o < =             O ",
"= O             = q * - . n 8 . $ X o X X X $ X . : r 3 D & i 5 e H o O . . X X X X X X X 4 @ u o + # o < < < < =             O ",
"= O             = .   O . %   $ @ o o o o o o o @ . x s D C H d s s o , . 7 o $ $ X X . O a < l o @ + o $ $ $ $ =             O ",
"= O             = = = = +   y 0 0 ; p w p 1 1 p 8 . s s 5 r H - s H X , 4 a 4 4 9   . . < p . , o + + + $ $ $ $ =             O ",
"= O             = o o o # # # = # > q y y y y   # $ r 3 & e 5 & r , X e # > 4 @ @ # # X X X . 1 $ o $ $ $ X X X =             O ",
"= O             = q @ @ y y y y y * o = @ @ @ y = . - * > > ; - r - . 9 q k @ @ @ @ # # X X . 2 q o $ $ $ $ $ $ =             O ",
"= O             = q q q @ @ @ = # - = k @ . > # . : # O e X e   : > . q . X X # @ @ = @ # $ . O < < < $ $ $ $ $ =             O ",
"= O             = q $ q @ @ @ < # & @ q . . :   $ o $ $ O . # o X O . . . . . . @ # @ @ @   q . $ 4     # # o = =             O ",
"= O             O : : : : : : : : : : : : : : : : : : : : : : : : : : : : : : : : : : : : : : : : : : : : : : : O             O ",
"= O                                                                                                                           O ",
"= O                                                                                                                           O ",
"= O                                                                                                                           O ",
"= O                                                                                                                           O ",
"= O                                                                                                                           O ",
"= O O O O O O O O O O O O O O O O O O O O O O O O O O O O O O O O O O O O O O O O O O O O O O O O O O O O O O O O O O O O O O O ",
"= = = = = = = = = = = = = = = = = = = = = = = = = = = = = = = = = = = = = = = = = = = = = = = = = = = = = = = = = = = = = = = = ",
"= O O O O O O O O O O O O O O O O O O O O O O O O O O O O O O O = O O O O O O O O O O O O O O O O O O O O O O O O O O O O O O O ",
"= O                                                           O = O                                                           O ",
"= O                                                           O = O                                                           O ",
"= O                                                           O = O                                                           O ",
"= O                                                           O = O                                                           O ",
"= O                                                           O = O                                                           O ",
"= O                                                           O = O                                                           O ",
"= O                                                           O = O                                                           O ",
"= O                             ; 5 3 3 3 5 5 5 r r i r i r 5 3 3 5 5 r i i r 5 5 5 3 3 3 5 5 ;                               O ",
"= O                             6 * & & & * * - ; ; % ; , ; * & & * - ; , , ; - * * & & & * * 6                               O ",
"= O                             6 - * & * - - ; ; % , % , % - * & - ; % , , % ; - - * & * - - e                               O ",
"= O                             6 - * * * - - ; % % , % 3 % - * * - ; % 3 3 % ; - - * * * - - e                               O ",
"= O                             e - * * * j f V M E ( ~ ! Q / ^ W ^ / Q ! ~ ( E M V f * * - ; e                               O ",
"= O                             e ; - - - f V M E ( ~ ! Q / ^ W ' W ^ / Q ! ~ ( E M V - - ; ; 2                               O ",
"= O                             e ; - - - V M E ( ~ ! Q / ^ W ' [ ' W ^ / Q ! ~ ( E M - - ; ; 2                               O ",
"= O                             2 ; ; - ; M E ( ~ ! Q / ^ W ' [ | [ ' W ^ / Q ! ~ ( E - ; ; % 2                               O ",
"= O                             2 % ; ; ; V M E ( ~ ! Q / ^ W ' [ W W ^ / Q ! ~ ( E M ; ; % % 1                               O ",
"= O                             2 % ; ; ; f V M E ( ~ ! Q / ^ W ' W ^ / Q ! ~ ( E M V ; ; % % 1                               O ",
"= O                             1 % % ; % 3 r r r r r r r r r r r r r r r r r r r r 3 ; % % , >                               O ",
"= O                             1 , % % % , , 3 5 5 r 5 i 5 , % % , 3 5 i i 5 3 , , % % % , , >                               O ",
"= O                             1 , % % % , , 3 5 5 r 5 i 5 , % % , 3 5 i i 5 3 , , % % % , , >                               O ",
"= O                             1 % % ; % % , 3 3 5 5 5 r 5 , % ; % 3 5 r r 5 3 , % % ; % % , >                               O ",
"= O                             2 % ; ; ; % % , 3 3 5 3 r 3 % ; ; % , 3 r r 3 , % % ; ; ; % % 1                               O ",
"= O                             2 % ; ; ; % % , 3 3 5 3 r 3 % ; ; % , 3 r r 3 , % % ; ; ; % % 1                               O ",
"= O                             2 ; ; - ; ; % % , 3 3 3 M M M M M M M M M 5 3 % % ; ; - ; ; % 2                               O ",
"= O                             e ; - - - ; ; % , , 3 , M f j h h h j f M 5 , % ; ; - - - ; ; 2                               O ",
"= O                             e ; - - - ; ; % , , 3 , V h h h h h h h V 3 , % ; ; - - - ; ; 2                               O ",
"= O                             e - * * * - ; ; % % , % f j j j j j j j f 3 % ; ; - * * * - ; e                               O ",
"= O                             6 - * * * - - ; % % , % j f f f f f f f j 3 % ; - - * * * - - e                               O ",
"= O                             6 - * & * - - ; ; % , % h f V V V V V f h , % ; - - * & * - - e                               O ",
"= O                             6 * & & & * * - ; ; % ; h f f V V V f f h , ; - * * & & & * * 6                               O ",
"= O                             6 * & & & * * - ; ; % ; ] ] ] ] ] ] ] ] ] , ; - * * & & & * * 6                               O ",
"= O                             6 & & > & & * - - ; ; ; - & 1 1 1 1 1 & - % ; - * & & > & & * 6                               O ",
"= O                             7 & > > > & & * - - ; - % - & > > & * - % % - * & & > > > & & 6                               O ",
"= O                             7 & > > > & & * - - ; - ; - & > > & * - ; ; - * & & > > > & & 6                               O ",
"= O                             7 > > 1 > > & & * - - - ; - & > 1 > & - ; ; - & & > > 1 > > & 7                               O ",
"= O                             t > 1 1 1 > > & * * - * ; * > 1 1 > & * ; ; * & > > 1 1 1 > > 7                               O ",
"= O                             t > 1 2 1 > > & & * - * - * > 1 2 > & * - - * & > > 1 2 1 > > 7                               O ",
"= O                             t 1 2 2 2 1 > > & & * & - & > 2 2 1 > & - - & > > 1 2 2 2 1 > t                               O ",
"= O                             t t : O : t t t 7 7 6 7 6 7 t : O t t 7 6 6 7 t t t : O : t t t                               O ",
"= O                                                           O = O                                                           O ",
"= O                                                           O = O                                                           O ",
"= O                                                           O = O                                                           O ",
"= O                                                           O = O                                                           O ",
"= O                                                           O = O                                                           O ",
"= O                                                           O = O                                                           O ",
"= O                                                           O = O                                                           O ",
"= O                                                           O = O                                                           O ",
"= O                                                           O = O                                                           O ",
"= O                                                           O = O                                                           O ",
"= O                                                           O = O                                                           O ",
"= O                                                           O = O                                                           O ",
"= O                                                           O = O                                                           O ",
"= O                                                           O = O                                                           O ",
"= O                                                           O = O                                                           O ",
"= O                                                           O = O                                                           O ",
"= O                                                           O = O                                                           O ",
"= O                                                           O = O                                                           O ",
"= O                                                           O = O                                                           O ",
"= O                                                           O = O                                                           O ",
"= O                                                           O = O                                                           O ",
"= O                                                           O = O                                                           O ",
"= O O O O O O O O O O O O O O O O O O O O O O O O O O O O O O O = O O O O O O O O O O O O O O O O O O O O O O O O O O O O O O O ",
"= = = = = = = = = = = = = = = = = = = = = = = = = = = = = = = = = = = = = = = = = = = = = = = = = = = = = = = = = = = = = = = = "
};
