/* XPM */
static char *SW2GRAY1[] = {
/* columns rows colors chars-per-pixel */
"64 128 27 1 ",
"  c #777777",
". c #6F6F6F",
"X c gray39",
"o c gray50",
"O c #838383",
"+ c gray42",
"@ c #5B5B5B",
"# c gray34",
"$ c #4B4B4B",
"% c gray23",
"& c gray28",
"* c gray31",
"= c #434343",
"- c #27531B",
"; c #8B8B8B",
": c #37732B",
"> c #3F832F",
", c #2F6323",
"< c #939393",
"1 c #4B9F3F",
"2 c #373737",
"3 c #439337",
"4 c #53AF47",
"5 c #979797",
"6 c #5BBF4F",
"7 c #9F9F9F",
"8 c #2F2F2F",
/* pixels */
"########$=###@####@######@##$@#####$###$$##$###@#@###$##$##$####",
"#<<<<<<<<<<<<<<<<<<<<<<<<<<<<<<<<<<<<<<<<<<<<<<<<<<<<<<<<<<<<<<@",
"#o....  ... #o.   o      OX..o. O.oX.... . #.X o o  .o  X .O.oO@",
"#o....  ..X.Xo o .    o  OX..o  O. X.... XXX. oo.o  .   X. . o X",
"#o . .   .X..o  ...   o  OXX.o   . ....  XX..  o.  o.o  X.X. OO@",
"#o . .o  .X.. .o...   o  O.X.o     .. .  XX. .oo.  o..  X.X. o X",
"#    .   X......... ..   O.X o     .... ..X....o.  o.   X .  O #",
"#   O   ... ...  ......  O.. o.    . . . ..... o...o o  X . .O #",
"#   ooo  X. ... .  .    oO.. o     .o    ..... o ..o O  X  ..O @",
"#o   oo  X. .X ..  Xoo  oO.. o      o o O... ..o  .ooo  X  ..O X",
"#o  O o OX.  X .. .X     O.. o   X .  oOO..  ..o ..  O..X X..O @",
"#o  o o OXX oX .. .Xo   .o.  o.  . .   O ..  ... ..  o..X . .o.@",
"#o    o  ##.o.   ..Xo .  O o o.  .      .XX oo  .X.  o. @ .. o.@",
"#o  O o  #X.oX   . X  ..   o.o   . . .  ..X  o  .X.. o. @ X. O.@",
"#o..  o  XX. X   . X O  ..  .o   ...    ..X. o  .O..Oo  X X. o.#",
"#o..  o  #.. XO..  X  o    . o o ...    XoX.  .. . . o  XoX. o.@",
"#o. o o  #o. XO ...XoO     .oo     . .  X X.   ...  Oo  X . . .@",
"#o. O o  X.. XO .. X  o .. .oo   o . .  . X..  ... .    X . . .#",
"#o    oo.X. oX ... X. . .. . oo o  . .    X..  ... .o ..X . .O #",
"#o  ..o  X.ooX ....X. X... . oo O  . o ....  O.O..O  o..@.X..O #",
"#o   .o  X. oX . ..X  X.   ..o    o.Oo .... .o . . . o..@.. .O @",
"#o   .o. X.ooX . ..X  X... ..o  O.OXO   ...  o..  O. o .X.  .O X",
"#o    o  ... Xo  ..X ..... X.o  O.o.O  o. .  o.. . .   .X.   O @",
"#o  . o .... Xo O  .. .O.. . o..  o.    . .  O.  o X.   X.  oo.@",
"#o  . o..X.  Xo oo .  .O.. ..o..  o. ..   . .O. .o X.   X    O.@",
"#o    o..X.o .o Oo .oO.O  oX.o .   . ..   . . ...o ..   Xo..  .@",
"#o..   ..X.  .o O  .OO.O   X.o..   .o . o .   ...o ..o  .o..  .#",
"#o..    .XX o.o o  XO .O  oX.o.. O .O...  X.  X..o ..o  X  .  .@",
"# . .  . X. o.o O .Xo..o  o. OX.o  .O..   X.OO. .o.. o  X ... .@",
"#o   ... X Xo.o oO X o.o  oX.o.  o .oX.  .X oO.. o.. o    ..   #",
"#   . ..   XO oOo .X.o.o.. X.o...  .o..  .X OO..ooX@ O oX X.  .#",
"#   oO..o .XO.ooo oX.O.O...X.o  .  .O..o .X OOX    @OO  X ..   @",
"#o..o   o XXoX.o o.XX .o X X.o   ...   o X@.o X. o @.O. @ ..   #",
"#o..    o XXo. o o.X...o.X X.o   ...   o XX.OOX. o X.O..@ ..   #",
"#o.. .o  .XXo .oo .X. .o.X X.o.  ....o  .XX.OoX  o . O..X ..   #",
"#o . .  o..X ..oo .X. .o.+ X.o.   ...  o..XXooX  o.. O... ..   #",
"#o.. .O O... .Xo ..XX  oX+ X.o.  ....O O..XXo X..o.X O.X  ...  @",
"@oo. .   ... XXo ..XX .OX+ X o.. o...   ..XX  X..o.X   X  X .O.@",
"#o   .    .X .Xo   XX..OX+ X oX.   ..    .XXo X. O.X.  X  X .O @",
"#o . . oo..# .Xo.. XX..oX+ XooX.  ... oo..#Xo XX.O.X. .X. .o.O @",
"#o .   oo..X ..o X.@X..oXX.Xoo..  ..  oo..XXooX.XoXX. .X.. o O #",
"#o.  . o ...O..o XX@...o.X. oo..o. ...o ....ooX.X X.. .... o.O #",
"#o o . O.XXX.   O..X .  .X . o.Oooo....    . oXO OX.. .... . O #",
"@o.o o . XXX     ..Xo.  .XO. o.X oo....  ..  OX oOX.. .... X.  @",
"# .   o. X . . O  .X ... XX. o.X     ..   .. OXO OX oo..X  X.o @",
"@ .  oo. X.. X.OO .X ... XX..o .o   o.    .. OX oOX oo. X  X.Oo#",
"#o.O. o.  .. ..o  .X#..  Xo .o .     .      ooX .oX o ..Xo ..Oo@",
"#  .  o.  .. ..o  XX  .o Xo .o   ...     . oo X ..X oO ..o ..Oo@",
"# ..  o.     ..oo XX  . .+   o . ...     .  . X  .X ooo .   .Oo@",
"# ..  o.     . .o XX  .o.+   o..  oo ...    .OX.O X o...X  o.Oo@",
"#o   ooX.. o ...o .X  X.X+  .o.. .oo ...  ... X. OX o...X   .Oo@",
"#oo .ooX.. oOo.   .X  X .+.. o. ..    ..   .. X O X... .X.   Oo@",
"#o .. o... ooO  o .X  X X ...o.  X   o.    .. X. oX o. ...   Oo@",
"#oo.. ooX  o O ooo.X  ..X  . o..      .    ..oXo .X.o  .X   oOo@",
"#o... o X  oOo oOo.   ..X .. o.   ...     .. oXo .+.o O X. . O #",
"#o  . o .  ooo  O .   ..X .. o.   ...     .o. +o  +.o oo..   O #",
"#o . .o .    o  o...oo. ..X..o. O.  . o    o .+o o+ o  . X   O @",
"# .  .o .#...o      oo.XX. ..o.. .....  ..  ..+o  + o O. o O.Oo@",
"# .  .o . X..o     o  .X..... ..O ...   .. .. +o. + o o.    .Oo@",
"#o....  ....  . o. o.........  .O.XX.  .. ....+o. + o  .   .XooX",
"# ..    X. . ...o  o   .. ...o .o... . ....#. +o   .o. ..  o..o$",
"# .X   oX. X. . o  o   .. ...o   ... .o... XX +o    o. X . o .o#",
"#o.  .  X. . O. o.  ..  .   .o   . ... ..X.XX +o    o .X   o .o#",
"#X####@@##@$#X@#X#@@@@@@#@@@#X@@@##$##@##$#$#@#X###@X##$X@@X@#X#",
"########$=###@####@######@##$@#####$###$$##$###@#@###$##$##$####",
"#<<<<<<<<<<<<<<<<<<<<<<<<<<<<<<<<<<<<<<<<<<<<<<<<<<<<<<<<<<<<<<@",
"#o....  ... #o.   o      OX..o. O.oX.... . #.X o o  .o  X .O.oO@",
"#o....  ..X.Xo o .    o  OX..o  O. X.... XXX. oo.o  .   X. . o X",
"#o . .   .X..o  ...   o  OXX.o   . ....  XX..  o.  o.o  X.X. OO@",
"#o . .o  .X.. .o...   o  O.X.o     .. .  XX. .oo.  o..  X.X. o X",
"#    .   X......... ..   O.X o     .... ..X....o.  o.   X .  O #",
"#   O   ... ...  ......  O.. o.    . . . ..... o...o o  X . .O #",
"#   ooo  X. ... .  .    oO.. o     .o    ..... o ..o O  X  ..O @",
"#o   oo  X. .X ..  Xoo  oO.. o      o o O... ..o  .ooo  X  ..O X",
"#o  O o OX.  X .. .X     O.. o   X .  oOO..  ..o ..  O..X X..O @",
"#o  o o OXX oX .. .Xo   .o.  o.  . .   O ..  ... ..  o..X . .o.@",
"#o    o  ##.o.   ..Xo .  O o o.  .      .XX oo  .X.  o. @ .. o.@",
"#o  O o  #X.oX   . X  ..   o.o   . . .  ..X  o  .X.. o. @ X. O.@",
"#o..  o  XX. X   . X O  ..  .o   ...    ..X. o  .O..Oo  X X. o.#",
"#o..  o  #.. XO..   <;;;<<<557575<;<<;;;<< .  .. . . o  XoX. o.@",
"#o. o o  #o. XO ...&+XXX++.  o O +X++XXX++&.   ...  Oo  X . . .@",
"#o. O o  X.. XO .. &.+X+..  oOoOo.+..+X+..$..  ... .    X . . .#",
"#o    oo.X. oX ... &.+++.. ooOo;o.+..+++..$..  ... .o ..X . .O #",
"#o  ..o  X.ooX ....$.+++.  ooOo;o + .+++. $  O.O..O  o..@.X..O #",
"#o   .o  X. oX . ..$ ...  oOO;O;O .  ...  * .o . . . o..@.. .O @",
"#o   .o. X.ooX . ..$ ...  oOO;O<O .  ...  *  o..  O. o .X.  .O X",
"#o    o  ... Xo  ..*  .  o+++++++++++ .  o*  o.. . .   .X.   O @",
"#o  . o .... Xo O  *  .  o+>4>6>6>4>+ .  o*  O.  o X.   X.  oo.@",
"#o  . o..X.  Xo oo $ ...  +:1:4:4:1:+...  * .O. .o X.   X    O.@",
"#o    o..X.o .o Oo $ ...  +,3,1,1,3,+...  * . ...o ..   Xo..  .@",
"#o..   ..X.  .o O  $.+++. +->-3-3->-++++. $   ...o ..o  .o..  .#",
"#o..    .XX o.o o  &.+++..+-:->->-:-++++..$.  X..o ..o  X  .  .@",
"# . .  . X. o.o O .&.+X+..+-,-:-:-,-++X+..$.OO. .o.. o  X ... .@",
"#o   ... X Xo.o oO &+XXX+++-,-,-,-,-+XXX++& oO.. o.. o    ..   #",
"#   . ..   XO oOo .&+XXX++.-,-,-,-,-.XXX++& OO..ooX@ O oX X.  .#",
"#   oO..o .XO.ooo o&XX@XX+.-,-,-,-,-.X@XX+& OOX    @OO  X ..   @",
"#o..o   o XXoX.o o.=X@@@XX OOOOOOOOO @@@XX&.o X. o @.O. @ ..   #",
"#o..    o XXo. o o.=X@@@XX+.. . .X@XX@@@XX&.OOX. o X.O..@ ..   #",
"#o.. .o  .XXo .oo .=@@#@@XX+... .X@X@@#@@X=.OoX  o . O..X ..   #",
"#o . .  o..X ..oo .%@###@@X++.+ +@#@@###@@=XooX  o.. O... ..   #",
"#o.. .O O... .Xo ..%@#*#@@XX+.+.+@#@@#*#@@=Xo X..o.X O.X  ...  @",
"@oo. .   ... XXo ..%#***#@@XX+X.X@*@#***#@%X  X..o.X   X  X .O.@",
"#o   .    .X .Xo   %%282%%%==&=&=%2%%282%%%Xo X. O.X.  X  X .O @",
"#o . . oo..# .Xo.. XX..oX+ XooX.  ... oo..#Xo XX.O.X. .X. .o.O @",
"#o .   oo..X ..o X.@X..oXX.Xoo..  ..  oo..XXooX.XoXX. .X.. o O #",
"#o.  . o ...O..o XX@...o.X. oo..o. ...o ....ooX.X X.. .... o.O #",
"#o o . O.XXX.   O..X .  .X . o.Oooo....    . oXO OX.. .... . O #",
"@o.o o . XXX     ..Xo.  .XO. o.X oo....  ..  OX oOX.. .... X.  @",
"# .   o. X . . O  .X ... XX. o.X     ..   .. OXO OX oo..X  X.o @",
"@ .  oo. X.. X.OO .X ... XX..o .o   o.    .. OX oOX oo. X  X.Oo#",
"#o.O. o.  .. ..o  .X#..  Xo .o .     .      ooX .oX o ..Xo ..Oo@",
"#  .  o.  .. ..o  XX  .o Xo .o   ...     . oo X ..X oO ..o ..Oo@",
"# ..  o.     ..oo XX  . .+   o . ...     .  . X  .X ooo .   .Oo@",
"# ..  o.     . .o XX  .o.+   o..  oo ...    .OX.O X o...X  o.Oo@",
"#o   ooX.. o ...o .X  X.X+  .o.. .oo ...  ... X. OX o...X   .Oo@",
"#oo .ooX.. oOo.   .X  X .+.. o. ..    ..   .. X O X... .X.   Oo@",
"#o .. o... ooO  o .X  X X ...o.  X   o.    .. X. oX o. ...   Oo@",
"#oo.. ooX  o O ooo.X  ..X  . o..      .    ..oXo .X.o  .X   oOo@",
"#o... o X  oOo oOo.   ..X .. o.   ...     .. oXo .+.o O X. . O #",
"#o  . o .  ooo  O .   ..X .. o.   ...     .o. +o  +.o oo..   O #",
"#o . .o .    o  o...oo. ..X..o. O.  . o    o .+o o+ o  . X   O @",
"# .  .o .#...o      oo.XX. ..o.. .....  ..  ..+o  + o O. o O.Oo@",
"# .  .o . X..o     o  .X..... ..O ...   .. .. +o. + o o.    .Oo@",
"#o....  ....  . o. o.........  .O.XX.  .. ....+o. + o  .   .XooX",
"# ..    X. . ...o  o   .. ...o .o... . ....#. +o   .o. ..  o..o$",
"# .X   oX. X. . o  o   .. ...o   ... .o... XX +o    o. X . o .o#",
"#o.  .  X. . O. o.  ..  .   .o   . ... ..X.XX +o    o .X   o .o#",
"#X####@@##@$#X@#X#@@@@@@#@@@#X@@@##$##@##$#$#@#X###@X##$X@@X@#X#"
};
