/* XPM */
static char *SW2GARG[] = {
/* columns rows colors chars-per-pixel */
"64 128 67 1 ",
"  c #332B13",
". c #2F2F2F",
"X c #272727",
"o c #2B230F",
"O c #232323",
"+ c #131313",
"@ c #1B1B1B",
"# c black",
"$ c gray34",
"% c #373737",
"& c #3F2F17",
"* c gray28",
"= c #434343",
"- c #53573B",
"; c #43331B",
": c #13230B",
"> c #836B57",
", c gray39",
"< c gray23",
"1 c #777777",
"2 c gray31",
"3 c gray70",
"4 c #CF8353",
"5 c #775F3F",
"6 c #A36B3F",
"7 c #430000",
"8 c #675333",
"9 c #4F3B23",
"0 c #BFA78F",
"q c #8B735B",
"w c #9B7F6B",
"e c #B79F87",
"r c #6F5743",
"t c #533F2F",
"y c #0B0B0B",
"u c #A78F77",
"i c #DF9363",
"p c #939393",
"a c #775F4B",
"s c #1F170B",
"d c #BF7B4B",
"f c #FFC79B",
"g c #AF977F",
"h c gray75",
"j c #838383",
"k c #937B63",
"l c #170F07",
"z c #9F9F9F",
"x c #B37347",
"c c #9F876F",
"v c #A7A7A7",
"b c gray50",
"n c #EFA373",
"m c #FFFFB3",
"M c LightGray",
"N c #8B8B8B",
"B c #67533F",
"V c #5B5B5B",
"C c #6F6F6F",
"Z c #FFB383",
"A c #6F7357",
"S c #7B7F63",
"D c gray42",
"F c #CBCBCB",
"G c #5B6347",
"H c #474F33",
"J c #470000",
/* pixels */
"& X  & X XXo  :&& X  & X: XXX o : XXX o o X. XoX :XXoXXX: XXX o ",
"&&XXX   o X     &&XXX    o  Xo X o  Xo Xo .   X &  XX oX o  Xo X",
"&XX&XXX:  o  X&X&XX&XXX:: XoXo. : XoXo. X X   o  XXX o o: XoXo. ",
"& X& X X    . XX& X& X X;o X XX ;o X XX XoX  XoXX oX  XO;o X XX ",
"& XXXXX. . Xo.X & XXXXX. &oo  X  &oo  X X o  oo Xoo& X X &oo  X ",
"&;XXXXXXXo.oXX X&;XXXXXX:o X XXo:o X XXo.X XoXoo. X & o :o X XXo",
"oXXX;XX;o oX  o oXXX;XX;.Xoooo o.Xoooo o..X&X  XX O X& o.Xoooo o",
":XX.X .   .Xo X&:XX.X . ooooo   ooooo   Xo & oo&o XXo  Xooooo   ",
" .X    XX XX X&  .X    XX XX X& oXoXXXXX X oX& X XoXXXXX  XXo XX",
" .X .   X oXo&o  .X .  &X oXo&o  X oXo &   ooooX X o&o  X OXOXXX",
": X  X  Xo XX  o: X  X& Xo XX  o &X XX&X:oooXo XO X&XXXXXoXX XX ",
"oX  XX  o Xo ooXoX  XX  o Xo ooX&XX X  :XoX o X XXX X  : XX   . ",
"oX  ;X   oXoo X&oX  ;X   oXoo X&X;XX   X  XXXo  X;XX   XXooXX Xo",
"X   ;o X OooX X X   ;o & OooX X X & X    X X X  o & X   X XO: oX",
"XX X o X  XXXXXXXX X o X  XXXXXXoX  XX &    XXXX &  XX X Xo XX.X",
" :. :  Xo .X Xo  :. :  Xo .X Xo o XXo  X  XXoOX.& XXo  XX X.. XX",
"X.:    X O.oXXXoX.:    X O.oXXXo oX XXXXoXooo XoooX XXXX  .X X  ",
"oO& o.  XoX.o X oO& o.  XoX.o X oX.X oOXXXXo X ooX.X oOXo .  Xo ",
" XX   XXXXoo XX  XX   XXXXoo XX o o. o :oXo o  XX o. o :   XX XX",
"OX Xo.XXO OXoXO OX Xo.XXO OXoXO XXoXXooo XoXX .X XoXXooo:X   %XX",
"oo :XXXo:.o  :  oo :XXXo:.o  :  .   XOoX X . :Xoo   XOoXXXX o  o",
"Xo.X  XXXX oo o.Xo.X  XXXX oo o.ooo.o XX ; XXX .ooo.o XX  X .o  ",
" X:.    o Oo.XXX X:.    o Oo.XXXo oXXO XX.Xo X oo oXXO X XOX .X ",
"oX X  X X  oo .XoX X  X X  oo .XoXX &o.oX;   X.XoXX :o.ooo X X :",
"ooXo .:XX .X X  ooXo .:XX .X X  o. &X o. ..oX.X<o.  X o.XoOoo oo",
"Oo  OX.o&X.X .X Oo  OX.o&X.X .X oo& .    :.X .XX oo .   .oX XXX ",
"o ;oXX .&X  o  oo ;oXX .&X  o  o .    X.Oo.o  XXo.    X.X  X.oX ",
"oXOXoXX    o X.XoXOXoXX    o X.XoXXoXXX XXXX oX oXXoX&X   oO OXO",
" XXX oXX& o  X.  XXX oXX& o  X. o   ;X: ; XXo X O   ;X: o ooXXXO",
" o   .XX&   : oX o   .XX&   : oXO   ; XX. XXo XXXO  ; XXoo ooX  ",
"XoX  o X&.  oXX.XoX  o X&.  oXX.X    o XoXXXo XX  O& o Xo X   XX",
" X..   X oXoX &X X..   X oXoX &X  .    XX XXo XX  .O   X    ooX.",
"& X  & XX oX   ;& X  & XX oX   ; :XXoXXXo X. XoXo.O X o.: XXX o ",
"&&XXX   XoXoX oX&&XXX   XoXoX oXX  XX oXo .   X  o  .    o  Xo X",
"&XX&XXX:;  X X.X&XX&XXX:;  X X.X XXX o oX X   o o.    X.: XoXo. ",
"& X& X XoX&o   X& X& X XoX&o   X  oX  XOXoX  XoXoX&&XXX ;o X XX ",
"& XXXXX. XXX&   & XXXXX. XXX&   XooX X XX o  oo O   ;X:  &oo  X ",
"&;XXXXXX oX;  X &;XXXXXX oX;  X X X o o .X XoXooX   & XX:o X XXo",
"oXXX;XX;XoX   X oXXX;XX;XoX   X . O X  o..X&X  X   & o X.Xoooo o",
":XX.X . ooX. ooX:XX.X . ooX. ooXX XXo  XXo & oo&  &    Xooooo   ",
" .X    XX..Xo XX .X    X  XXo XX  XXo XX X oX& X XoXXXXX  XXo XX",
" .X .   X XXoXX  .X .   X OXOXXXX OXOXXX   ooooX X oXo  X OXOXXX",
": X  X   XX&  X&: X  X  XoXX XX XoXX XX :oooXo XO X XXXXXoXX XX ",
"oX  XX  X oo& &XoX  XX   XX   .  XX   . XoX o X XXX X  : XX   . ",
"oX  ;X    XXo& ooX  ;X  XooXX XoXooXX Xo  XXXo  X;XX   XXooXX Xo",
"X   ;o XoX X& XXX   ;o XX XO: oXX XO: oX X X X  o   X   X XO: oX",
"XX X o X XoX  X.XX X o X Xo XX.X Xo XX.X    XXXX X  XX X Xo XX.X",
" :. :  XoXooo Xo :. :  XX X.. XXX X.. XX  XXoOX.  XXo  XX X.. XX",
"X.:    XXXXo X oX.:    XOo.XXX  &oX X XooXooo XoooX XXXX  .X X  ",
"oO& o.  oXo o  XoO& o.  oXo o  &oX.X oOXXXXo X ooX.X oOXo .  Xo ",
" XX   XX  XX X   XX   XX XoXX .Xo o. o :oXo o  XX o. o :   XX XX",
"OX Xo.XXXXXX  XXOX Xo.XX X . :XoXXoXXooo XoXX .X.XoXXooo:X   %XX",
"oo :XXXoX X  Xo oo :XXXo ; XXX ..   XOoX X . :Xoo   XOoXXXX o  o",
"Xo.X  XXXXo XXXXXo.X  XXX.Xo X oooo.o XX ; XXX .ooo.o XX  X .o  ",
" X:.     XXX: X  X:.    X;   X.Xo oXXO XX.Xo X oo oXXO X XOX .X ",
"oX X  X  XX  o:XoX X  X  ..oX.X&oXX :o.oX;   X.XoXX :o.ooo X X :",
"ooXo .:XX &X   ;ooXo .:X O.X .XXo.  X o. ..oX.X<o.  X o.XoOoo oo",
"Oo  OX.oX&XoX oXOo  OX.oOoOo  .Xooo .    :.X .XX oo .   .oX XXX ",
"o ;oXX .;  X X.Xo ;oXX .XXOX oX. .    X.Oo.o  XXo.    X.X  X.oX ",
"oXOXoXX oX&o   XoXOXoXX ;OXXo . oXXoXXX XXXX oX oXXoXXX   oO OXO",
" XXX oXX XXX&    XXX oXX. XXo XXo  .;X: ; XXo X O   ;X: o ooXXXO",
" o   .XX oX;  X  o   .XXoXXXo XXO . ; XX. XXo XXX ;   XXoo ooX  ",
"XoX  o XXoX o X. XoX: XXX o  :XXoXXX X XX XoX.X  ; X o Xo X   XX",
" X..   XooX.o .   X  o  Xo XX  XX oX  X  XXX oXX; oX   X    ooX.",
"& X  & XX X X X   o : XoXo.  XXX o o o ; Xo XoXo   ooXXX: XXX o ",
"&&XXX   .  .XoX  XoX;o X XX   oX  XOo X:oX.X:XoX  X:X oX o  Xo X",
"&XX&XXX:XX XX o  oo  &oo  X XooX X XX: o X o  . X X. o o: XoXo. ",
"& X& X XoXo Xo & oo&ooooo   X%...%%X.   X; o Xo  . X  XO;o X XX ",
"& XXXXX. XX  X oX& X  XXo XO$,*.*=$-OXo  .X  X. %XX. X X &oo  X ",
"&;XXXXXXXo o   ooo$$< OXO@<=**,,=$***%@   X<$$oXoo. o o :o X XXo",
"oXXX;XX;Xoo :oooXo%=jk=X++=$*>q>,q>*-=++ =kq=<o XoooX  o.Xoooo o",
":XX.X . ooX XoX o @<$1m.1O%2-*=.%*=22.O>.m1,<@X X: oo  Xooooo   ",
" .X    XXXXX  XXXoO+<$3%h=%@@.,1$$.O@.*0%3$<+@o ;o..XXXX  XXo XX",
" .X .   .X X X X X@+@<*1e1$=$u30h3z,=$>e>=<@+@ o oXXXo  X OXOXXX",
": X  X  .oXX    XX##+@+..*..=**2-=**.%*%%+@+##..X  XXXXXXoXX XX ",
"oX  XX  X.    XXoO###+++@@.*--q3kq--=.@@+++### .   XX  : XX   . ",
"oX  ;X  oo XoXooo++++O@@X$,1jpB**Bwq>$-X@@O++++XX .o   XXooXX Xo",
"X   ;o XOX XXXXo #@+.<$>-.....$>j,..%%.->-<X+@#Xo   X   X XO: oX",
"XX X o Xo  :oXo o#@@..*=*-$ge=whew*3g$-***..@@#.oXXoXX X Xo XX.X",
" :. :  X  X  XoX@+@@@.,1u3hf0$>vv1$hM00u>$.@@O+@X Xoo  XX X.. XX",
"X.:    XOo.X X .+O@+%>$2---%.@*-*=@.=----$1%+@O+X&X.XXXX  .X X  ",
"oO& o.  oXo  ; X+@O%2.++++++##X-2X##+###++.2.O@+XXXX oOXo .  Xo ",
" XX   XX XoXX.Xo+%@**+#+O%O+#+$eN$+#+O%O+#+=*@%@ oX; o :   XX XX",
"OX Xo.XX X .X;  +++O+.@96n6t+*k00k*+t6n69O.+@+++  . Xooo:X   %XX",
"oo :XXXo ; X ..oy@<%.+54r6t@@,pfMp,@@r6t45+.%<@y  .oXOoXXXX o  o",
"Xo.X  XXX.Xo :.X@@2a$=+845O#.>cf0pA.#O548+*$a2@o. oXo XX  X .o  ",
" X:.    X;  Oo.oo+=zewa=@+@=*$cf0c,*=@+O=ap3u=+.   .XO X XOX .X ",
"oX X  X  ..oXXXX @=3uevw>>V,$-cffw=$,V1bwg3z3=OXX  &:o.ooo X X :",
"ooXo .:X O.X; XXo+@*>>ugeuj2awF0ffwD-qz3gu11=@+XXX  X o.XoOoo oo",
"Oo  OX.oOoOo. XXo++@..,,C$=#.G1Ne1,%#*aC,$%.@+@.;oXO.   .oX XXX ",
"o ;oXX .XXOXoXXXo@++@O.%.O#@@+@@%@+@@#OX%.O@++o; o O  X.X  X.oX ",
"oXOXoXX ;OXXX XXo@@@+@++@++#@@@++@@@#++@++@@@@oX   .XXX   oO OXO",
" XXX oXX. XXo X. o@%@@O%-$$$%@@@@@O%$-$H.O@O.@X  ; X;X: o ooXXXO",
" o   .XXoXXXo .   y+.@->q>bqp>.O.%>pjS>q>$@.+yXX; oX; XXoo ooX  ",
"XoX  o XX XXX X   @+.@=b$2$-,$$>--$$--2r>=@%+@Xo   o o Xo X   XX",
" X..   Xo X.XoX  Xoy@%%=+++X%.......X+++=%.@#XoX  X:   X    ooX.",
"ooXo .:Xo . X o  oos+@..#9864iZZZZi4689#%.@+s . X X.oXXXXoOoo oo",
"Oo  OX.oX X .X XoXooy+%.#;985644446589;#X%+# o .  XXX oX.oX XXX ",
"o ;oXX .XoX ..X&X  X@y@$#+;9856666589;+#-@#l   oo XX o oX  X.oX ",
"oXOXoXX X o Xo & oo&ol#$@+;;trdiidrt;;+O-#lo Xo  . X  XO  oO OXO",
" XXX oXX.X X X oX& X o#@-#@9rxinnixr9@#$@#X  X. %XX. X Xo ooXXXO",
" o   .XX..X&   ooooXX +#*++7rx4ii4xr7++*#+X X.oXoo. o o oo ooX  ",
"XoX  o XXo &:oooXo XXo@#+.+7t5d44d5t7+%@#@XoXoo XoooX  oo X   XX",
" X..   X oXoXoX o X  XX+#*+7786dd6tJ7+*#@Xo XXX X: oo  X    ooX.",
"& X  & XX oX  XXXo  Xoo@#@.+77855877+X@yX o XXo ;o..X o.: XXX o ",
"&&XXX   XoXo X X X  X XO+#@@++@@@@++@@#@X.  oX o oXX.    o  Xo X",
"&XX&XXX:;  X    XXXX Xo o+#X.+#++#+%X#+o  XXX...X  X  X.: XoXo. ",
"& X& X XoX&o  XXoOX.X X..@##@@%%=%@+##@ XXoX o .   XXXX ;o X XX ",
"& XXXXX. XXXoXooo Xo  .X oss#+++@++#sl oo X    XX .o;X:  &oo  X ",
"&;XXXXXX oX;XXXo X oo .  Xo@+@@@sl+@ooXXX XX .XXo   ; XX:o X XXo",
"oXXX;XX;XoX oXo o  X   XX XXo o. o : XXXo .O Xo.oXXo o X.Xoooo o",
":XX.X . ooX. XoXX .X:X   %XXXXoXXooo o   o.oXX&XX Xo   Xooooo   ",
" .X    XX X  X . :XoXXX o  o.   XOoXXXoo  X ;X;XX&X.oXXX  XXo XX",
" .X .   .  . ; XXX .  X .o  ooo.o XXoooXXX  XoX XXXXX oXX OXOXXX",
": X  X  XX XX.Xo X o XOX .X o oXXO X.;  o XX XXX oX; o oXoXX XX ",
"oX  XX  oXo X;   X.Xoo X X :oXX :o.o o X  .  XX   .   XO XX   . ",
"oX  ;X   XX  ..oX.X<XoOoo ooo.  X o. XXX X . XX   .o X XXooXX Xo",
"X   ;o XXo o :.X .XX.oX XXX ooo .   oXXo .XoX X . oXo o X XO: oX",
"XX X o XXoo Oo.o  XXX  X.oX  .    X.XXoX X o:X..   .X  o Xo XX.X",
" :. :  XooX XXXX oX   oO OXOoXXoXXX  XXXXX  oX.XX  &o  XX X.. XX",
"X.:    XXXXo; XXo X o ooXXXOo   ;X: oOXXoXXoo XXXX  XXXX  .X X  ",
"oO& o.  oXo . XXo XXoo ooX  O   ; XXooXXo XXo X.;oXO oOXo .  Xo ",
" XX   XX  XXoXXXo XXo X   XXX    o X.XXXo XXXXX; o O o :   XX XX",
"OX Xo.XXXXXXX XXo XX    ooX.  .    X  XXo XX  .X   .Xooo:X   %XX",
"oo :XXXoX X o X. XoX: XXX o  :XXoXXX X XX XoX.X  ; XXOoXXXX o  o",
"Xo.X  XXXXo o .   X  o  Xo XX  XX oX  X  XXX oXX; oXo XX  X .o  ",
" X:.     XXXX X   o : XoXo.  XXX o o o ; Xo XoXo   oXO X XOX .X ",
"oX X  X  XX o .   X  o  Xo XX  XX oX  X  XXX oXX; oX:o.ooo X X :"
};
