/* XPM */
static char *SW2LION[] = {
/* columns rows colors chars-per-pixel */
"64 128 68 1 ",
"  c #332B13",
". c #2F2F2F",
"X c #232323",
"o c #131313",
"O c #272727",
"+ c #13230B",
"@ c #2B230F",
"# c #3F2F17",
"$ c #43331B",
"% c #1F170B",
"& c #434343",
"* c black",
"= c gray39",
"- c #3F472B",
"; c #170F07",
": c #5B6347",
"> c #1B1B1B",
", c gray31",
"< c #53573B",
"1 c #9B7F6B",
"2 c #AF977F",
"3 c #6F7357",
"4 c #8B8B8B",
"5 c #777777",
"6 c gray34",
"7 c #373737",
"8 c #675333",
"9 c #A36B3F",
"0 c gray28",
"q c #BF7B4B",
"w c #070707",
"e c #373F27",
"r c #B37347",
"t c #775F3F",
"y c #DF9363",
"u c #BFA78F",
"i c #979797",
"p c #FFB383",
"a c #9F876F",
"s c #939393",
"d c #D78B5B",
"f c #6F5743",
"g c #836B57",
"h c #A78F77",
"j c #8F5F37",
"k c #0B0B0B",
"l c #0B1707",
"z c #7B7F63",
"x c #CF8353",
"c c #838383",
"v c #B79F87",
"b c #474F33",
"n c #9F9F9F",
"m c gray50",
"M c #5B5B5B",
"N c #67533F",
"B c gray70",
"V c #533F2F",
"C c gray67",
"Z c #775F4B",
"A c #B7B7B7",
"S c #EFA373",
"D c gray23",
"F c gray75",
"G c #937B63",
"H c #A7A7A7",
"J c gray78",
"K c #6F6F6F",
/* pixels */
"# O  # O OO@  +## O  # O+ OOO @ + OOO @ @ O. O@O +OO@OOO+ OOO @ ",
"##OOO   @ O     ##OOO    @  O@ O @  O@ O@ .   O #  OO @O @  O@ O",
"#OO#OOO+  @  O#O#OO#OOO++ O@O@. + O@O@. O O   @  OOO @ @+ O@O@. ",
"# O# O O    . OO# O# O O$@ O OO $@ O OO O@O  O@OO @O  OX$@ O OO ",
"# OOOOO. . O@.O # OOOOO. #@@  O  #@@  O O @  @@ O@@# O O #@@  O ",
"#$OOOOOOO@.@OO O#$OOOOOO+@ O OO@+@ O OO@.O O@O@@. O # @ +@ O OO@",
"@OOO$OO$@ @O  @ @OOO$OO$.O@@@@ @.O@@@@ @..O#O  OO X O# @.O@@@@ @",
"+OO.O .   .O@ O#+OO.O . @@@@@   @@@@@   O@ # @@#@ OO@  O@@@@@   ",
" .O    OO OO O#  .O    OO OO O# @O@OOOOO O @O# O O@OOOOO  OO@ OO",
" .O .   O @O@#@  .O .  #O @O@#@  O @O@ #   @@@@O O @#@  O XOXOOO",
"+ O  O  O@ OO  @+ O  O# O@ OO  @ #O OO#O+@@@O@ OX O#OOOOO@OO OO ",
"@O  OO  @ O@ @@O@O  OO  @ O@ @@O#OO O  +O@O @ O OOO O  + OO   . ",
"@O  $O   @O@@ O#@O  $O   @O@@ O#O$OO   O  OOO@  O$OO   OO@@OO O@",
"O   $@ O X@@O O O   $@ # X@@O O O # O    O O O  @ # O   O OX+ @O",
"OO O @ O  OOOOOOOO O @ O  OOOOOO@O  OO #    OOOO #  OO O O@ OO.O",
" +. +  O@ .O O@  +. +  O@ .O O@ @ OO@  O  OO@XO.# OO@  OO O.. OO",
"O.+    O X.@OOO@O.+    O X.@OOO@ @O OOOO@O@@@ O@@@O OOOO  .O O  ",
"@X# @.  O@O.@ O @X# @.  O@O.@ O @O.O @XOOOO@ O @@O.O @XO@ .  O@ ",
" OO   OOOO@@ OO  OO   OOOO@@ OO @ @. @ +@O@ @  OO @. @ +   OO OO",
"XO O@.OOX XO@OX XO O@.OOX XO@OX OO@OO@@@ O@OO .O O@OO@@@+O   7OO",
"@@ +OOO@+.@  +  @@ +OOO@+.@  +  .   OX@O O . +O@@   OX@OOOO @  @",
"O@.O  OOOO @@ @.O@.O  OOOO @@ @.@@@.@ OO $ OOO .@@@.@ OO  O .@  ",
" O+.    @ X@.OOO O+.    @ X@.OOO@ @OOX OO.O@ O @@ @OOX O OXO .O ",
"@O O  O O  @@ .O@O O  O O  @@ .O@OO #@.@O$   O.O@OO +@.@@@ O O +",
"@@O@ .+OO .O O  @@O@ .+OO .O O  @. #O @. ..@O.OD@.  O @.O@X@@ @@",
"X@  XO.@#O.O .O X@  XO.@#O.O .O @@# .    +.O .OO @@ .   .@O OOO ",
"@ $@OO .#O  @  @@ $@OO .#O  @  @ .    O.X@.@  OO@.    O.O  O.@O ",
"@OXO@OO    @ O.O@OXO@OO    @ O.O@OO@OOO OOOO @O @OO@O#O   @X XOX",
" OOO @OO# @  O.  OOO @OO# @  O. @   $O+ $ OO@ O X   $O+ @ @@OOOX",
" @   .OO#   + @O @   .OO#   + @OX   $ OO. OO@ OOOX  $ OO@@ @@O  ",
"O@O  @ O#.  @OO.O@O  @ O#.  @OO.O    @ O@OOO@ OO  X# @ O@ O   OO",
" O..   O @O@O #O O..   O @O@O #O  .    OO OO@ OO  .X   O    @@O.",
"# O  # OO @O   $# O  # OO @O   $ +OO@OOO@ O. O@O@.X O @.+ OOO @ ",
"##OOO   O@O@O @O##OOO   O@O@O @OO  OO @O@ .   O  @  .    @  O@ O",
"#OO#OOO+$  O O.O#OO#OOO+$  O O.O OOO @ @O O   @ @.    O.+ O@O@. ",
"# O# O O@O#@   O# O# O O@O#@   O  @O  OXO@O  O@O@O##OOO $@ O OO ",
"# OOOOO. OOO#   # OOOOO. OOO#   O@@O O OO @  @@ X   $O+  #@@  O ",
"#$OOOOOO @O$  O #$OOOOOO @O$  O O O @ @ .O O@O@@O   # OO+@ O OO@",
"@OOO$OO$O@O   O @OOO$OO$O@O   O . X O  @..O#O  O   # @ O.O@@@@ @",
"+OO.O . @@O. @@O+OO.O . @@O. @@OO OO@  OO@ # @@#  #    O@@@@@   ",
" .O    OO..O@ OO .O    O  OO@ OO  OO@ OO O @O# O O@OOOOO  OO@ OO",
" .O .   O OO@OO  .O .   O XOXOOOO XOXOOO   @@@@O O @O@  O XOXOOO",
"+ O  O   OO#  O#+ O  O  O@OO OO O@OO OO +@@@O@ OX O OOOOO@OO OO ",
"@O  OO  O @@# #O@O  OO   OO   .  OO   . O@O @ O OOO O  + OO   . ",
"@O  $O    OO@# @@O  $O  O@@OO O@O@@OO O@  OOO@  O$OO   OO@@OO O@",
"O   $@ O@O O# OOO   $@ OO OX+ @OO OX+ @O O O O  @   O   O OX+ @O",
"OO O @ O O@O  O.OO O @ O O@ OO.O O@ OO.O    OOOO O  OO O O@ OO.O",
" +. +  O@O@@@ O@ +. +  OO O.. OOO O.. OO  OO@XO.  OO@  OO O.. OO",
"O.+    OOOO@ O @O.+    OX@.OOO  #@O O O@@O@@@ O@@@O OOOO  .O O  ",
"@X# @.  @O@ @  O@X# @.  @O@ @  #@O.O @XOOOO@ O @@O.O @XO@ .  O@ ",
" OO   OO  OO O   OO   OO O@OO .O@ @. @ +@O@ @  OO @. @ +   OO OO",
"XO O@.OOOOOO  OOXO O@.OO O . +O@OO@OO@@@ O@OO .O.O@OO@@@+O   7OO",
"@@ +OOO@O O  O@ @@ +OOO@ $ OOO ..   OX@O O . +O@@   OX@OOOO @  @",
"O@.O  OOOO@ OOOOO@.O  OOO.O@ O @@@@.@ OO $ OOO .@@@.@ OO  O .@  ",
" O+.     OOO+ O  O+.    O$   O.O@ @OOX OO.O@ O @@ @OOX O OXO .O ",
"@O O  O  OO  @+O@O O  O  ..@O.O#@OO +@.@O$   O.O@OO +@.@@@ O O +",
"@@O@ .+OO #O   $@@O@ .+O X.O .OO@.  O @. ..@O.OD@.  O @.O@X@@ @@",
"X@  XO.@O#O@O @OX@  XO.@X@X@  .O@@@ .    +.O .OO @@ .   .@O OOO ",
"@ $@OO .$  O O.O@ $@OO .OOXO @O. .    O.X@.@  OO@.    O.O  O.@O ",
"@OXO@OO @O#@   O@OXO@OO $XOO@ . @OO@OOO OOOO @O @OO@OOO   @X XOX",
" OOO @OO OOO#    OOO @OO. OO@ OO@  .$O+ $ OO@ O X   $O+ @ @@OOOX",
" @   .OO @O$  O  @   .OO@OOO@ OOX . $ OO. OO@ OOO $   OO@@ @@O  ",
"O@O  @ OO@O# O  # OO.$ @  O@ O. O@O+ OOO @ @ O. O@O  @ O@ O   OO",
" O..   O@@O##OOO   ..OOO   @ .   O  @  O@ O@ .   O     O    @@O.",
"# O  # OO O#OO#OOO+ O$$OOOOO O   @ + O@O@. O O   @ O@OOO+ OOO @ ",
"##OOO   .  # O# O O O.O   OO@O  O@O$@ O OO O@O  O@OOO @O @  O@ O",
"#OO#OOO+OO # OOOOO. $$O  O O @  @@  #@@  O O @  @@ O @ @+ O@O@. ",
"# O# O O@O@#$OOOOOO $ OO OO&=ciHJ2a2@ O OO@.O O@O@@O  OX$@ O OO ",
"# OOOOO. OO@OOO$OO$@O O$,==n1g6%ogg1n==,@ @..O#O  OO O O #@@  O ",
"#$OOOOOOO@ +OO.O . +O .4=0=2zi*oooiz2=0=4. O@ # @@# @ @ +@ O OO@",
"@OOO$OO$O@@ .O    O 04C %o5=4-%O.o-4=5o% C40O @O# O O  @.O@@@@ @",
"+OO.O . @@O .O .   =c=6-3&o*w&mcg.&w*o&3-6=c= @@@@OO@  O@@@@@   ",
" .O    OOOO+ O  O X%-s>XOXooXo-*X:oXooXOX>s-%X@O@ OOOOOO  OO@ OO",
" .O .   .O @O  OO.Xo*,=MXoX+eX%o>,Xe+XoXM=,*oX.@ O @O@  O XOXOOO",
"+ O  O  .@O@O  $O.+oow5oo.X &X,X&,X& X.oo5woo+.O@   OOOOO@OO OO ",
"@O  OO  O. O   $@&+o>oBX>X.&<:1,K::<&.X>XBo>o+& O   O  + OO   . ",
"@O  $O  @@ OO OXX,OX.&4% -=3342hzs433=- %4&.XO,XXOOO   OO@@OO O@",
"O   $@ OXO  +. XX.:=67%X.,=auuuuuuuua=,.X%76=:.XXO. O   O OX+ @O",
"OO O @ O@  O.+ X:<<&.OXX&:11uuu2uuuu11:&XXO.&<<:XO@ OO O O@ OO.O",
" +. +  O  O@X# X.7%o+.-.=512uuvh2uuu215=.-.+o%7.X @O@  OO O.. OO",
"O.+    OX@. OO OX,&+oo.Nuuuuu22v112uuuuuN.oo+&,XO O OOOO  .O O  ",
"@X# @.  @O@XO O;X+oXXXX89V1uh<1GZZ<hu1V98XXXXo+X;.OO @XO@ .  O@ ",
" OO   OO O@@@ +>oX,XXXo tqppqjf&&fjqppqt oXXX,XolO@. @ +   OO OO",
"XO O@.OO O O@.O o..oo+XX8qyrtj5FA5jtryq8XX+oo..oO .OO@@@+O   7OO",
"@@ +OOO@ $  O+. oXoo++o<9dpytX0uu0Xtypd9<o++ooXoO @ OX@OOOO @  @",
"O@.O  OOO.O@O O ooX.XXo=3::-3i2u2ui3-::3=oXX.XooO.O.@ OO  O .@  ",
" O+.    O$ @@O@ +X.o>Xo.::42<; 7$w;<24::.oX>o.X+.ODOOX O OXO .O ",
"@O O  O  ..X@  XoXo.++oo;*1a3=,oXm=3a1*;oo++.oXo.OO +@.@@@ O O +",
"@@O@ .+O X.@ $@OXXo%+ooooo& $-6% :-$ &ooooo+%oXX OO O @.O@X@@ @@",
"X@  XO.@X@X@OXO@oo.-.Xoooo6++oXooXo++6ooooX.-.oo@O  .   .@O OOO ",
"@ $@OO .OOX OOO X.0ooXXXo*0o8roSSor8o0*oXXXoo0.X O    O.O  O.@O ",
"@OXO@OO $XO @   o&X.+Xo+oo o89qyyq98o oo+oX+.X&o OO@OOO   @X XOX",
" OOO @OO. OO@O  oXooeOoXXo Xfrxxxr9fX oXXoOeooXo OO $O+ @ @@OOOX",
" @   .OO@OO O.. ;oo&.X  ooX.89999998.Xoo  X.&oo; OO $ OO@@ @@O  ",
"O@O  @ OO O# O  @wXXooX.o%X&8oddddo8&X%o.XooXXw%O@O  @ O@ O   OO",
" O..   O@ O##OOO oXe+OooXo*:Xoq  qoX:*oXooO+eXo  O     O    @@O.",
"@@O@ .+O@ .#OO#OOoXX eXOXoo-36X&,.63-ooXOXe XX;  @ O@OOOO@X@@ @@",
"X@  XO.@O O# O# O%o%oXo+Xk 7&5A51u5&7 kX+oXo%o% O@OOO @O.@O OOO ",
"@ $@OO .O@O# OOOOOoooXooXo.Ob$%**;$bO.oXooXoo;  @@ O @ @O  O.@O ",
"@OXO@OO O @#$OOOOO>oXX+oX>X.o,&o*o,o.X>Xo+XXo%O@O@@O  OX  @X XOX",
" OOO @OO.O @OOO$OO$;ooo.O+o oXXooXXo o+O.ooooO#O  OO O O@ @@OOOX",
" @   .OO..O+OO.O . loooooo .oXXoXoXo. oooooo% # @@# @ @ @@ @@O  ",
"O@O  @ OO@  .O    O oXX>.X-OXX o*oXXO-X.>XX;O @O# O O  @@ O   OO",
" O..   O @O .O .    %;+o<7<%*%oooX%*%<7<o+o%  @@@@OO@  O    @@O.",
"# O  # OO @+ O  O  @ %+ --%oo&Xo&.&oo%-- +%+@@@O@ O O @.+ OOO @ ",
"##OOO   O@O@O  OO   O@;;ooo*s&<oo &s*ooo;o O@O @ O  .    @  O@ O",
"#OO#OOO+$  @O  $O  @O %%;o*o *Xo*;* o*oo;>@  OOO@     O.+ O@O@. ",
"# O# O O@O#O   $@ O@OO %%o**&.*Xww.&**kl%@O O O O  @OOO $@ O OO ",
"# OOOOO. OOOO O @ OO$    %;;;X*+*oX;o;%OO.O    OOOO $O+  #@@  O ",
"#$OOOOOO @O +. +  O OO    >%%oo;koo>%>.. OO  OO@XO. $ OO+@ O OO@",
"@OOO$OO$O@OO.+    OOOOOO  O@O%%%%>%  .O O  @O@@@ O@  @ O.O@@@@ @",
"+OO.O . @@O@X# @.      OO  OOO@ O @@ .  O@ OOO@ O @    O@@@@@   ",
" .O    OO O OO   OO$O$ O@O$@O@ @  O   OO OO@O@ @  OO@OOO  OO@ OO",
" .O .   .  XO O@.OO@ .@ O X O@OO .O+O   7OO O@OO .OOO @OO XOXOOO",
"+ O  O  OO @@ +OOO@$ .OO@OO O . +O@OOO @  @ O . +O@O @ @O@OO OO ",
"@O  OO  @O@O@.O  OOO O O@@@ $ OOO .  O .@   $ OOO .O  OX OO   . ",
"@O  $O   OO O+.    @.$OO O$O.O@ O @ OXO .O O.O@ O @O O OO@@OO O@",
"O   $@ OO@ @O O  O O .OOO@OO$   O.O@@ O O +O$   O.O @ @ O OX+ @O",
"OO O @ OO@@@@O@ .+O@$.@   O ..@O.ODO@X@@ @@ ..@O.OD O  @ O@ OO.O",
" +. +  O@@OX@  XO.@O O ..OO +.O .OO.@O OOO  +.O .OOO@  OO O.. OO",
"O.+    OOOO@ $@OO .O+.+O O.X@.@  OOO  O.@O X@.@  OO OOOO  .O O  ",
"@X# @.  @O@@OXO@OO OOOOO O.OOOO @O   @X XOXOOOO @O O @XO@ .  O@ ",
" OO   OO  O OOO @OO @OO.OO $ OO@ O @ @@OOOX$ OO@ O . @ +   OO OO",
"XO O@.OOOOO @   .OO@O.O$ OO. OO@ OO@@ @@O  . OO@ OOOO@@@+O   7OO",
"@@ +OOO@O OO@O  @ O@  . @O @OOO@ OO@ O   OO@OOO@ OO OX@OOOO @  @",
"O@.O  OOOO@ O..   O @.O   OO OO@ OO    @@O.O OO@ OO.@ OO  O .@  ",
" O+.     OO# O  # OO.$ @  O@ O. O@O+ OOO @ @ O. O@OOOX O OXO .O ",
"@O O  O  OO##OOO   ..OOO   @ .   O  @  O@ O@ .   O  +@.@@@ O O +"
};
