/* XPM */
static char *SW2SATYR[] = {
/* columns rows colors chars-per-pixel */
"64 128 58 1 ",
"  c #272727",
". c #2F2F2F",
"X c #332B13",
"o c #13230B",
"O c #232323",
"+ c black",
"@ c #373F27",
"# c #2B230F",
"$ c #3F2F17",
"% c #131313",
"& c gray39",
"* c gray28",
"= c #070707",
"- c #1F170B",
"; c #1B1B1B",
": c gray34",
"> c #5B6347",
", c #43331B",
"< c #6F6F6F",
"1 c #6F7357",
"2 c #170F07",
"3 c #838383",
"4 c #434343",
"5 c #7B7F63",
"6 c #775F3F",
"7 c gray23",
"8 c #777777",
"9 c gray50",
"0 c #0B0B0B",
"q c #CF8353",
"w c #6F5743",
"e c #979797",
"r c gray42",
"t c #FFB383",
"y c #B7B7B7",
"u c #533F2F",
"i c #53573B",
"p c gray31",
"a c #4B4B4B",
"s c #676B4F",
"d c #D78B5B",
"f c #17330F",
"g c #8B8B8B",
"h c #4F3B23",
"j c #5B5B5B",
"k c #939393",
"l c #8F5F37",
"z c #373737",
"x c #DF9363",
"c c #A7A7A7",
"v c #A36B3F",
"b c #3F472B",
"n c gray75",
"m c #E7E7E7",
"M c #1F4317",
"N c #B37347",
"B c #BF7B4B",
"V c #0B1707",
/* pixels */
"$X XX$X X  #XXo$$X XX$X oX   X#XoX   X#X#X .X # Xo  #   oX   X#X",
"$$   XXX#X XXXXX$$   XXXX#XX #X X#XX #X #X.XXX X$XX  X# X#XX #X ",
"$  $   oXX#XX $ $  $   ooX # #.XoX # #.X X XXX#XX   X#X#oX # #.X",
"$X $X X XXXX.X  $X $X X ,#X X  X,#X X  X # XX #  X# XX O,#X X  X",
"$X     .X.X #. X$X     .X$##XX XX$##XX X X#XX##X ##$X X X$##XX X",
"$,       #.#  X $,      o#X X  #o#X X  #. X # ##.X X$X#Xo#X X  #",
"#   ,  ,#X# XX#X#   ,  ,. ####X#. ####X#.. $ XX  XOX $X#. ####X#",
"o  . X.XXX. #X $o  . X.X#####XXX#####XXX #X$X##$#X  #XX #####XXX",
"X. XXXX  X  X $XX. XXXX  X  X $X# #     X X# $X X #     XX  #X  ",
"X. X.XXX X# #$#XX. X.XX$ X# #$#XX X# #X$XXX#### X X#$#XX XO O   ",
"oX XX XX #X  XX#oX XX $X #X  XX#X$ X  $ o### #X OX $     #  X  X",
"# XX  XX#X #X## # XX  XX#X #X## $  X XXo # X#X X   X XXoX  XXX.X",
"# XX, XXX# ##X $# XX, XXX# ##X $ ,  XXX XX   #XX ,  XXX  ##  X #",
" XXX,#X XO## X X XXX,#X$XO## X X X$X XXXX X X XX#X$X XXX X OoX# ",
"  X X#X XX        X X#X XX      # XX  X$XXXX    X$XX  X X #X  . ",
"Xo.XoXX #X. X #XXo.XoXX #X. X #X#X  #XX XX  #O .$X  #XX  X ..X  ",
" .oXXXX XO.#   # .oXXXX XO.#   #X# X    # ###X ### X    XX. X XX",
"#O$X#.XX # .#X X#O$X#.XX # .#X X# . X#O    #X X## . X#O #X.XX #X",
"X  XXX    ##X  XX  XXX    ##X  X#X#.X#Xo# #X#XX  X#.X#XoXXX  X  ",
"O X #.  OXO # OXO X #.  OXO # OX  #  ###X #  X. X #  ###o XXXz  ",
"##Xo   #o.#XXoXX##Xo   #o.#XXoXX.XXX O# X X.Xo ##XXX O#    X#XX#",
" #. XX    X##X#. #. XX    X##X#.###.#X  X,X   X.###.#X  XX X.#XX",
"X o.XXXX#XO#.   X o.XXXX#XO#.   #X#  OX  . #X X##X#  OX X O X. X",
"# X XX X XX##X. # X XX X XX##X. #  X$#.# ,XXX . #  Xo#.###X X Xo",
"## #X.o  X. X XX## #X.o  X. X XX#.X$ X#.X..# . 7#.XX X#. #O##X##",
"O#XXO .#$ . X. XO#XXO .#$ . X. X##$X.XXXXo. X.  X##X.XXX.# X   X",
"#X,#  X.$ XX#XX##X,#  X.$ XX#XX#X.XXXX .O#.#XX  #.XXXX . XX .# X",
"# O #  XXXX#X . # O #  XXXX#X . #  #   X    X# X#  # $ XXX#OXO O",
"X   X#  $X#XX .XX   X#  $X#XX .X#XXX, oX,X  #X XOXXX, oX#X##   O",
"X#XXX.  $XXXoX# X#XXX.  $XXXoX# OXXX,X  .X  #X   OXX,X  ##X## XX",
" # XX#X $.XX#  . # XX#X $.XX#  . XXXX#X #   #X  XXO$X#X #X XXX  ",
"X ..XXX X# # X$ X ..XXX X# # X$ XX.XXXX  X  #X  XX.OXXX XXXX## .",
"$X XX$X  X# XXX,$X XX$X  X# XXX,Xo  #   #X .X # #.OX X#.oX   X#X",
"$$   XXX # # X# $$   XXX # # X#  XX  X# #X.XXX XX#XX.XXXX#XX #X ",
"$  $   o,XX X . $  $   o,XX X . X   X#X# X XXX#X#.XXXX .oX # #.X",
"$X $X X # $#XXX $X $X X # $#XXX XX# XX O # XX # # $$   X,#X X  X",
"$X     .X   $XXX$X     .X   $XXX ## X X  X#XX##XOXXX, oXX$##XX X",
"$,      X# ,XX X$,      X# ,XX X X X#X#X. X # ## XXX$X  o#X X  #",
"#   ,  , # XXX X#   ,  , # XXX X.XOX XX#.. $ XX XXX$X#X . ####X#",
"o  . X.X## .X## o  . X.X## .X##  X  #XX  #X$X##$XX$XXXX #####XXX",
"X. XXXX  .. #X  X. XXXX XX  #X  XX  #X  X X# $X X #     XX  #X  ",
"X. X.XXX X  #  XX. X.XXX XO O    XO O   XXX#### X X# #XX XO O   ",
"oX XX XXX  $XX $oX XX XX #  X  X #  X  Xo### #X OX X     #  X  X",
"# XX  XX X##$X$ # XX  XXX  XXX.XX  XXX.X # X#X X   X XXoX  XXX.X",
"# XX, XXXX  #$X## XX, XX ##  X # ##  X #XX   #XX ,  XXX  ##  X #",
" XXX,#X # X $X   XXX,#X  X OoX#  X OoX# X X X XX#XXX XXX X OoX# ",
"  X X#X X # XX .  X X#X X #X  . X #X  . XXXX    X XX  X X #X  . ",
"Xo.XoXX # ###X #Xo.XoXX  X ..X   X ..X  XX  #O .XX  #XX  X ..X  ",
" .oXXXX    #X X# .oXXXX O#.   XX$# X X ## ###X ### X    XX. X XX",
"#O$X#.XX# #X#XX #O$X#.XX# #X#XX$# . X#O    #X X## . X#O #X.XX #X",
"X  XXX  XX  X XXX  XXX  X #  X. #X#.X#Xo# #X#XX  X#.X#XoXXX  X  ",
"O X #.      XX  O X #.  X X.Xo #  #  ###X #  X. . #  ###o XXXz  ",
"##Xo   # X XX #X##Xo   #X,X   X..XXX O# X X.Xo ##XXX O#    X#XX#",
" #. XX    #X     #. XX   . #X X####.#X  X,X   X.###.#X  XX X.#XX",
"X o.XXXXX   oX XX o.XXXX ,XXX . #X#  OX  . #X X##X#  OX X O X. X",
"# X XX XX  XX#o # X XX XX..# . $#  Xo#.# ,XXX . #  Xo#.###X X Xo",
"## #X.o  X$ XXX,## #X.o XO. X.  #.XX X#.X..# . 7#.XX X#. #O##X##",
"O#XXO .# $ # X# O#XXO .#O#O#XX. ###X.XXXXo. X.  X##X.XXX.# X   X",
"#X,#  X.,XX X . #X,#  X.  O X# .X.XXXX .O#.#XX  #.XXXX . XX .# X",
"# O #  X# $#XXX # O #  X,O  #X.X#  #   X    X# X#  #   XXX#OXO O",
"X   X#  X   $XXXX   X#  .X  #X  #XX., oX,X  #X XOXXX, oX#X##   O",
"X#XXX.  X# ,XX XX#XXX.  #   #X  OX.X,X  .X  #X   X,XXX  ##X## XX",
" # XX#X  # X .,XXXX ##XX X #X# # X$ $X XX$X  .,X#XX X#X #X XXX  ",
"X ..XXX ## ...    XX#X.# X X# .#X$X $$   XXX..   XXXXXX XXXX## .",
"$X XX$X  X XX ,,  Xo#  # X  O. #XX$ $  $   oX ,,    #   oX   X#X",
"$$   XXX.XX.X . X X XX  X# X X  X   $X $X X X . XXX  X# X#XX #X ",
"$  $   o  X X,.    .X #X#. #O       $X     .X,, XX XX#X#oX # #.X",
"$X $X X # #XX,X     .X# .XX; *&<<<&* ;      X,X  X  XX O,#X X  X",
"$X     .X  X# X ,  ,. X,  @*&3333333&*@ ,  ,# X ,#X,X X X$##XX X",
"$,       #X#o X. X.X  #$@:&&&8889888&&&:@X.Xo X. X. #X#Xo#X X  #",
"#   ,  , ##XX.XXXXX X @is&&1&<<1<1<<&1&&si@ X.X XXXX XX#. ####X#",
"o  . X.X## XX.XX#XX  b5:>>&&11&&<&&11&&>>:5bXXX#.#XX#XX #####XXX",
"X. XXXX     oXXXX#Xo 5>*&p*><51><>15<>*p&*>5 XXX,XX#    XX  #X  ",
"X. X.XXX. X # XX #Xo83*7*>::<9<&1&<9<::>*7*38o#X# XX #XX XO O   ",
"oX XX XX.#  # XX,  *:< =1::&&1<1&1<1&&::1= <:*XX,# X     #  X  X",
"# XX  XX .XX#XXX, .&>: =.a<9<<11>11<<9<a.= :>&.XX#   XXoX  XXX.X",
"# XX, XX##X   XXX#o@4< +=11@4>1>>>1>4@11=+ <4@oXXXXXXXX  ##  X #",
" XXX,#X O X XX.XX =o @oo  @:4o <<< o4:@  oo@ o= XXX  XXX X OoX# ",
"  X X#X #XXo .,XXoo X.=o@99*7@@:>:@@7*99@o=.X oo XX   X X #X  . ",
"Xo.XoXX XX X.. X:*Oo% o=+ kk4oo% %oo4kk +=o %oO*: XX#XX  X ..X  ",
" .oXXXX O#. X $@&c&.++oM +%yn8p   p8ny%+ Mo++.&c&@ ,    XX. X XX",
"#O$X#.XX# #XX .+@mg&.+%83@67yy34r43yy76@38%+.&gm@+XOX#O #X.XX #X",
"X  XXX  X # X,.=+@5*:+=*@@oq*cg@&@gc*qo@@*=+:*5@+=  X#XoXXX  X  ",
"O X #.  X X.X, -@=%>s=+6u6wwtd@ @ @dtwwwu6+=s>%=@-## ###o XXXz  ",
"##Xo   #X,X #  o&o+**=ouvxtxw++= =++wxtxwuo=**+o&o , O#    X#XX#",
" #. XX   . #o .io+;4o+ >*.O%+6+jej+6+%O.*> +o4;+oi# #X  XX X.#XX",
"X o.XXXX ,XXX..5@+o@=+ &<3:46=*s53*=64:3<& +=@o+@5X  OX X O X. X",
"# X XX XX..#X. z*o78@++ &594=f:*5r:f=495& ++@87o*z  o#.###X X Xo",
"## #X.o XO. oX.- oeeO=++-.*f+=*b>r*=+f*.-++=Oeeo - . X#. #O##X##",
"O#XXO .#O#O## . ;ora; ++++@o=>e@>@e>=o@++++ ;aro;X ..XXX.# X   X",
"#X,#  X.  O #   -+OOo*o++;O1 O;o&o;O 1O;++o*oOO+%  XXX . XX .# X",
"# O #  X,O  #X .#2 ++r@++@5OOO++4++OOO5@++@r++ %#X     XXX#OXO O",
"X   X#  .X     ,X-2O%j@=- =uo++++0++ou= -=@j%O2;X# X, oX#X##   O",
"X#XXX.  #   XX. XX-7O@ ;o++66ldtttdl66++o; @O7; XXX ,X  ##X## XX",
" # XX#X  X   .,XXXX7O* ;;=+hqvNBdBNvqh+=;; *O7,X#XX X#X #X XXX  ",
"X ..XXX #X ...    X@;@.oo=+0hql666lqh0+=oo.@;@   XXXXXX XXXX## .",
"## #X.o #X.XX ,,  X@ @.-=--+%@qtttq@%+--=-.@ @,,    #    #O##X##",
"O#XXO .# X XX . X X O* o%%++%;.p4p.;%++%%o *O . XXX  X# .# X   X",
"#X,#  X. # XX,.      aO;O=++&3 +++ 3&++=O;Oa  , XX XX#X# XX .# X",
"# O #  X X#XX,X    @ @Oo%%++&3&@.@&3&++%%oO@ @X  X  XX OXX#OXO O",
"X   X#  . X # X ,  -.* %++++ *:* *:* ++++% *.%X ,#X,X X #X##   O",
"X#XXX.  .. $o X. X.-O* .=+2++O 0+0 O++2+=. *O;X. X. #X#X##X## XX",
" # XX#X  #X$X.XXXXX 2+o>%@.+++++++++++.@%>o+2.X XXXX XX##X XXX  ",
"X ..XXX X# #X.XX#XX %+%&0@@%%OO+++OO%%@@0&%+2XX#.#XX#XX XXXX## .",
"$X XX$X  X# oXXXX#Xo;2=++*@=Oi*=+=*iO=@*++=2-XXX,XX# X#.oX   X#X",
"$$   XXX # ## XX #XXX-O++: +%%%%22%2%+ :++O-X #X# XX.XXXX#XX #X ",
"$  $   o,XX # XX,  #X %%0O+%%------;2%+O0%2X# XX,# XXX .oX # #.X",
"$X $X X # $##XXX, ##X#-2.%+2-X  #XX#;2+%.2- #  XX#     X,#X X  X",
"$X     .X     XXX##X  o;2%%-# X XX   ;2%2-X  ,XXXXXX, oXX$##XX X",
"$,      X# ,XX.XX.XX  X.;-% X # XX .Xo;-VXX X  XXXX ,X  o#X X  #",
"#   ,  , # X .,XXXX X#XXX # X#   X , .oXXXX      XX X#X . ####X#",
"o  . X.X## ... X XX X###X#XXXXX  $  #O$X#.XXXXXX  XXXXX #####XXX",
"X. XXXX  X XX $X     XXX #.#X, ## # X  XXX  , ,X # ,#   XX  #X  ",
"X. X.XXX.XX.X .XX X X##o XX X#OO.X#$O X #.  #X.#X XO X#  XO O   ",
"oX XX XX  X X,.X      .XX OX#    # X##Xo   #,X.  #  X#X# #  X  X",
"# XX  XX# #XX, X    X ,   X#X.#.#XXX #. XX   X X ###XX OX  XXX.X",
"# XX, XXX  X#  X,  , X    ##O XO# # X o.XXXX#.,  X ,X X  ##  X #",
" XXX,#X  #X#o .X X.   XX.   XXX X X # X XX X X.   # #X#X X OoX# ",
"  X X#X  ##XX..XXXX ##X .X   XX##X. ## #X.o #,.#XXX  XX#X #X  . ",
"Xo.XoXX ## XX. X.XXX#. # ##  X. X XXO#XXO .# X X..  #XX  X ..X  ",
" .oXXXX    #oX.XXXX. O. XXXX$ . X. X#X,#  X. o.o X .    XX. X XX",
"#O$X#.XX# #X# .   X$  .XO   $ XX#XX## O #  X     X .X#O #X.XX #X",
"X  XXX  XX  #   ,  X O. #X XXXX#X . X   X#  X#  .  XX#XoXXX  X  ",
"O X #.      #X .,# O X. #X  $X#XX .XX#XXX.  # . ,X   ###o XXXz  ",
"##Xo   # X X   ,X#XO  . #X X$XXXoX#  # XX#X #XX.X# X O#    X#XX#",
" #. XX    #XXX. XXX. X  #X  $.XX#  .X ..XXX X#. XXX #X  XX X.#XX",
"X o.XXXXX    .,XXXX ##XX X #X# # X$ $X XX$X  .,X#XX  OX X O X. X",
"# X XX XX  X..    XX#X.# X X# .#X$X $$   XXX..   XXXo#.###X X Xo"
};
