/* XPM */
static char *SW2STRTN[] = {
/* columns rows colors chars-per-pixel */
"64 128 52 1 ",
"  c #6F5743",
". c #67533F",
"X c #533F2F",
"o c #5F4B37",
"O c #775F4B",
"+ c #836B4B",
"@ c #836B57",
"# c gray42",
"$ c #43331B",
"% c #777777",
"& c gray50",
"* c gray39",
"= c #6F6F6F",
"- c #9F876F",
"; c #5B5B5B",
": c #8B735B",
"> c #838383",
", c #8B8B8B",
"< c #939393",
"1 c #574333",
"2 c gray31",
"3 c gray34",
"4 c #434343",
"5 c gray28",
"6 c #AF977F",
"7 c #9F8363",
"8 c #A78F77",
"9 c #2F371F",
"0 c #332B13",
"q c #979797",
"w c gray23",
"e c #4B4B4B",
"r c #3F2F17",
"t c #9F9F9F",
"y c #0B1707",
"u c #37732B",
"i c #2F6323",
"p c #17330F",
"a c #3F832F",
"s c #1F4317",
"d c #439337",
"f c #373737",
"g c #13230B",
"h c #4B9F3F",
"j c #53AF47",
"k c #937B63",
"l c #9B7F6B",
"z c #27531B",
"x c #730000",
"c c #2F2F2F",
"v c #2B230F",
"b c #8B0000",
/* pixels */
"XXXXXXXXXXXXXXXXXXXXXXXXXXXXXXXXXXXXXXXXXXXXXXXXXXXXXXXXXXXXXXXX",
"XXXXXXXoooXXXXXXXXXXXXXXXXXXXXXXXXXXXXXXXXXXXXXXXXXXXXXXXXXXXXXX",
"ooooooo. .ooooooooooooooooooooXXoooooooo ooooooooooooooooooooooo",
".. +::::::::::::::::+:+::::@ .oo.. +:::::::::::::::::+:::++: ...",
". @:7-888888--88--8-7-7---::+ oo. @:7888888---8888-8-7-8-7::+ ..",
". :78886868866868868888888-:++oo. :78-----8888----88888888-7++..",
"..@7:::7777::7::::7:77777::7:+ooo.:-::::::::::::::::::::::7-:+..",
"o. ++@::::@@::@@@::::::::@+:: oooo+:+O++O+OO+++++OO+OOO+OO+:: ..",
"o.. ++::::@+::++++:+:@::@++  .oooo  +O++O+OO++++OOO+O O+OO+O .o.",
"o...... . ..  . ..  ..   .  .oXooo..... . ..    ... ..  ... ..Xo",
"oo1XX11oo.o1o.1o1X1o1XooXXXoXXXooXXXXXXoXXXXXooXXXXXXXXoXXXoXXXo",
"o1XXXXXXXXXXXXXXXXXXXXXXXXXXXXXooXXXXXXXXX$$XXXXXXXXXXXXXXXXXXXo",
".1XXXXXXXXXXXXXXXXXXXXXXXXXXXX1o.XXXX$XXXX$$XXXX$$XXX$XX$$$XXXXo",
".o1XXXXX1o1X1o1XXXXXXXXXXXXX1ooo.oXXXooXoooXXXXXXXXXXXXoooooXXoX",
"......... ... ........o..oo..o.o.oooo .o.  ....ooo......    oo.o",
".. +:::::7:::7:::::+:::::::+ ..ooo +:::::@@:::::@@:@++@:+::+ ..o",
". +:7888868866888888888887::+ .oo +:7--888888888--7-7:@::7::+ .X",
". :78888666866688888666868-:++.oo :78888------8-88--7:::-8-::+oX",
"o :-:::777::77::::::777:7::-:+ooo :7::7::7777::::::::+@::::7:+oX",
"o ::+++:::@:::++++++:::+:++:: oX. @:@::::::::++++++++ +++++:: oX",
"o ++++O+@@+@:@OOO+++@:@+@++++ oX. ++@@:@+:::++++++++O   OO++@ oX",
"o. O++O+@@++@+O+OOO++:@+++ O .oX.. O+@:@++:@+OO+OOOO .   O OO.oX",
"o. O++O+@@+@@+O++OOO+@+++O O .oX.. O+@@@++:++OO+OOOO .   O O .oX",
"o. OO+O+@@+@@+O++O O+@+++O O .oX.. O++:@++:++OO+ OO  .   O O .oX",
"o. OO+O+@@+@@+OO+O O+++++  O .oX..  O+:@++@O+OO+ OO  .   O O .oX",
"o. O +O++++@@+OO+  O++OO+  O .oX..  O+@+O++O+O O  O  .     O .oX",
"o. O +O+@+++@+O +  O++OOO  O .oX..  O+@+O++O+O O  O  ..    O .XX",
"o. O +O+@+++@+O +  O++OOO  O .oXo.  O+@+O++O+O +     .   . O .oX",
"o.   +O+@+++@+O O  O++OOO    .1Xo.  O+OOO+OO+O       ..  .   .XX",
"o. O  O++O+++OO O   O+OOO    .o1X.  O++  O+O+        .o. .   .oX",
"o.    O++O+O+O  O   O+O O    .ooX.  O++  O+ O        .o...   .XX",
"o.    O++O+O+O  O   OOO O    .ooX.  O++  OO O        .o..o   .XX",
"o.    O++O+O+O      OOOOO    .o1X.  O+O  +O          .o...   .XX",
"o.    O+OOOO+OO     OOOOO    .oXX.   OO  +O          .o..o   .oX",
"X.    O+O OO+OO     OOO O    .oXX.   O+O OO          .oo.o   .XX",
"X.     +O OO+OO     O+O O    .oXX.   O+O +O          .oo.o   .XX",
"X.     +O OO+OO     O+O O    .oXX.   OO  OO       .  .oo.o   .XX",
"X.     OO OO+O      O+O +O   .1XX.   +O  O           .oo.o   .XX",
"X.     OO OO+O      O+O +O   .XXXo.  OO           .  .oo.o   .XX",
"X..    OO OO+O      O+O +O   .XXXo.  OO   ..      . ..oo.o. .oXX",
"XXXo...oooooo.......o.oooo..o1XXXXXo...oooooo.......o.oooo..oXXX",
"XXXXXXXXXXXXXXXXXXXXXXXXXXXXXXX$XXXXXXXXXXXXXXXXXXXXXXXXXXXXXXX$",
"9$XX$$$$$$$$$XXXXXX$X$$$$$$XXX$$9$XX$$$$$$$$$X$XXXX$X$$$$$$XXX$$",
"99990vvvvv099$99909000990000$0$$9999000000099$9990900099000r$0$$",
"X$$$$$$$$$$XXXXXX$$$$$XX$$$$$$XXX$$$$$$$$$$XXXXXX$$$$$$$$$$$$$XX",
"XXXXXXXXXXXXXXXXXXXXXXXXXXXXXXXXXXXXXXXXooXXXXXoXXXXXXXXXXXXXXXX",
"oo.....o..........ooo..o.o......o.......  .o.o. ...o..ooooo.....",
"..O OOO   OOO  O     OO O OO  OO..                 . .....      ",
"  OOO O OOOO+ OOOO   OOO+OO+OOO     OOOOOOOOOOOO O    ...       ",
"..     .       O   . O  + O+    .       ++O    O   ....oo..     ",
"..  .  .  .    O  ...OO O OO .  .   .   O+     O  ..o.ooo...... ",
".. ... .       O  ...O  O OO   ..  .. . OO     O. ....ooo.o.....",
"..... ..          . . O O  O    . ..  . OO   . O. ...XoXoo.o....",
".. .. .  .     .  . .   O  O    .. .. .  O   . O....ooXXXXo..o..",
"Xoooooooooo.oooooooooooo.oo.ooooXoooooooo.ooooo.oooXoXXXXXXXoooo",
"XXXXXXXXXXXoXXoXXXXXXXoXoXooXXXoXXXXXX1ooo1XXXXoXXXXXXXXXXXXXXXX",
"XXXXXXXXXXXXXXXXXXXXXXXXXXXXXXXXXXXXXXXXXXXXXXXXXXXXXXXXXXXXXXXX",
"XXXXXXXXoXXXXooXXXXXXXXXooXoXXXXXXXXXX1ooo1XXX1o11o11o1XXXXXXXXo",
"oooooooo.oooo..ooooooooo..o.oooXooXXooo...ooooo.oo.oo.ooooooooo.",
".. +::::::::::::::::+:+::::@ .oo.. +:::::::::::::::::+:::+++ ...",
". @:7-888888--88--8-7-7---::+ oo. @:7888888---8888-8-7-8-7::+ ..",
". :78886868866868868888888-:++oo. :78-----8888----88888888-7++..",
"..@7:::7777::7::::7:77777::7:+ooo.:-::::::::::::::::::::::7-:+..",
"o. ++@::::@@::@@@::::::::@+:: oooo+:+O++O+OO+++++OO+OOO+OO+:: ..",
"o.. ++::::@+::++++:+:@::@++  .oooo  +O++O+OO++++OOO+O O+OO+O .o.",
"o...... . ..  . ..  ..   .  .oXooo..... . ..    ... ..  ... ..Xo",
"ooXXXXXoo.oXo.XoXXXoXXooXXXoXXXooXXXXXXoXXXX1oo1XXXXXX1o1X1o1XXo",
"oXXXXXXXXXXXXXXXXXXXXXXXXXXXXXXooXXXXXXXXX$$XXXXXXXXXXXXXXXXXXXo",
".XXXXXXXXXXXXXXXXXXXXXXXXXXXXXXo.XXXX$XXXX$$XXXX$$XXX$XX$$$XXXXo",
".oXXXXXXXoXXXoXXXXXXXXXXXXXXXooo.oXXXooXoooXXXXXXXXXXXXoooooXXoX",
"......... ... ........o..oo..o.o.oooo .o.  ....ooo......    oo.o",
".. +:::::7:::7:::::+:::::::+ ..ooo +:::::@@:::::@@:@++@:+::+ ..o",
". +:788886886688%<,,,<<<qqtqtq<,,<<qttq<<<,,,<<%--7-7:@::7::+ .X",
". :78888666866685#***##=%%&%>%#**#=%>>%=##***##588--7:::-8-::+oX",
"o :-:::777::77::5=#*#==%%&>&>&=#*=%&>>&%==#*#==e:::::+@::::7:+oX",
"o ::+++:::@:::++5=###==%&&>&,&=##=%&,,&%==###==e+++++ +++++:: oX",
"o ++++O+@@+@:@OOe=###*;;;;;;;;;;*=%&,,&%%=###=%e++++O   OO++@ oX",
"o. O++O+@@++@+O+e%===#xxxxxxxxxx#%&>,,>&%%===%%2OOOO .   O OO.oX",
"o. O++O+@@+@@+O+e%===#xbbbbbbbbx#%&><<>&%%===%%2OOOO .   O O .oX",
"o. OO+O+@@+@@+O+2%%=%#xbbbbbbbbx#%&,<<55&%%=%%&2 OO  .   O O .oX",
"o. OO+O+@@+@@+OO2&%%%#xbbbbbbbbx#&>,qq42&&%%%&&3 OO  .   O O .oX",
"o. OO+O+@@++@+OO2&%%%#xbbbbbbbbx#&>,qq42&&%%%&&3 OO  .     O .oX",
"o. OO+O++@++@+O+3&&%&#xbbbbbbbbx#&,<qq42&&&%&&>;  O  .  O  O .oX",
"o. O +O++++@@+OO3>&&&#xbbbbbbbbx#>,<tt42>>&&&>>;  O  .     O .oX",
"o. O +O+@+++@+O 3>&&&#xbbbbbbbbx#>,<tt42>>&&&>>;  O  ..    O .XX",
"o.   +O+@+++@+O 3&&%&&<<<<<<<<<<%&,<qq42>&&%&&>;     .   . O .oX",
"..   OO+@+++++O 2&%%%&&>,,<,q,&%%&>,qq42&&%%%&&3     .       .oX",
".. O OO++@++@+O 2&%%%&&>,,<,q,&%%&>,qq42&&%%%&&3  O  ..    O .XX",
"o. O OO+++++++O 2%%=%%&&>,,,<,&%=%&,<<42&%%=%%&2     ..  .   .XX",
"o.   OO++O++++O e%===%%&>>,><>%==%&><<42%%===%%2     ..  .   .oX",
"o.    O++++++OO e%===*;;;;;;;;;;*%&>,,42%%===%%2     .       .oX",
"o. O  O++O+++OO e=####uadhjjhdau#=%&,,42%=###=%e     ..  .   .XX",
"o.    O++++++O  5=####iuadhhdaui#=%&,l66l=###==e     ..  .   .oX",
"o.    O++O+++O  5=#*##ziuaddauiz*=%&>@kk@=#*#==e     ..  .   .oX",
"o.    O++O+O+OO 5#***#sziuaauizs*#=%>oXXo#***##5     ..  .   .oX",
"o.    O++O+O+OO 5#***#psziuuizsp*#=%>=44=#***##5     .o  .   .oX",
"o.    O++O+O+O  5**;**gpsziizspg;*=%&&42#**;**#5     ... .   .oX",
"o.    O++O+O+O  4*;;;*ygpszzspgy;*#=&&>,**;;;**5     .o. .   .oX",
"o.    O++O+O+O  4*;;;*yygpsspyyy;*#=%%=#**;;;**5     .o...   .XX",
"o.    O++O+O+O  4;;3;#%%%%%%%%%%#;*=%%=**;;3;;*4     .o..o   .XX",
"o.    O+OOOO+OO w;333;;*##=#%#;33;*#%%#*;;333;;4     .o...   .XX",
"X.    O+O OO+OO w;323;;**#=#=#;32;*#==#*;;323;;4     .o..o   .oX",
"X.     +O OO+OO w32223;;**#*=*;223;*==*;;32223;w     .oo.o   .XX",
"X.     +O OO+OO wwfcfwww445454wfcww4554wwwfcfwww     .oo.o   .XX",
"X.     OO OO+O      O+O +O   .XXX.   OO  OO       .  .oo.o   .XX",
"X.     OO OO+O      O+O +O   .XXX.   +O  O           .oo.o   .XX",
"X..    OO OO+O      O+O +O   .XXXo.  OO           .  .oo.o   .XX",
"X..       OOOO              ..XXXo.  OO   ..      . ..oo.o. .oXX",
"XXX...  ..   . . .o..........XXXXXXo...oooooo.......o.oooo..oXXX",
"XXXXXXXoXXoooXXXoXoXXooXoXXXXX$XXXXXXXXXXXXXXXXXXXXXXXXXXXXXXXX$",
"9$XXXXXXXXXXXXXXXXXXXXXXXXXXX$$X9$XX$$$$$$$$$X$XXXX$X$$$$$$XXX$$",
"$9990r$rr0000rr$$r099r$$rr099$X$9999000000099$$$$r$r0099000090$$",
"XX$$99$$999999$$$99$$9$$99$$$X$X$$$$$$999$$$99$$$$$$$$$$$$$$$$$$",
"XXXXXXXXXXXXXXXXXXXXXXXXXXXXXXX$X$$$XXXXXXXXXXXXXXXXXXXXXXXXXXXX",
"XXXXXXXXXXoooXXXXXXXXXXXXXXXXXXXXXXXXXXXXXXXXXXXXXXXXXXXXXXXXXXX",
"...............................ooo..............................",
" OOO   OOOOOO     OOOOOOOO  OOO                      .....     O",
"OO OOOOOO++++OOOOOOO++@O+OOOO   .   OOOOOOOOOOOO      ...       ",
"          O+O     O O++O+       .       ++O        ....oo..     ",
" ...   .  O+O  .  OOOOOOO  .   ..   .   O+        ..o.ooo...... ",
"....      O+O ... O OO+OO     ...  .. . OO      . ....ooo.o.....",
".....   .  OO ....OO O+OO  .  ... ..    O    . .. .o.ooXoo......",
".. ..   . OOO  . . O O+ O      .. ..  . OO   . .. ...XoXoo.o....",
".. .  . .  OO  . .  OO+ O      ... .. .  O   . .....ooXXXXo..o..",
".. .. ... O O  ...  OOO O      .o. .. .  O   . ....o.oXXXoXo....",
" . .. . . OO  .. .  O O O  .  ....o.... OO . . .. ..oXXXXXoo. . ",
"o...ooooo.   ..ooo.. . . ..o..oooooooo... .o..ooo.ooooXXXXooooo.",
"XoooXXXXXoooooXXXXXXooooooooooXXXXXooooooooooooooooooXXXXXXXXXXo"
};
