/* XPM */
static char *SW2SKIN[] = {
/* columns rows colors chars-per-pixel */
"64 128 66 1 ",
"  c #836B57",
". c #A33B3B",
"X c #B34F4F",
"o c #AF4747",
"O c #BB5757",
"+ c #C76363",
"@ c #9B3333",
"# c #8F2B2B",
"$ c #D37373",
"% c #831F1F",
"& c #CB6B6B",
"* c #8B2323",
"= c #DF8787",
"- c #BF5B5B",
"; c #A73F3F",
": c #972F2F",
"> c #DB7B7B",
", c #E78F8F",
"< c #7F1B1B",
"1 c #771717",
"2 c #6B0F0F",
"3 c #F7ABAB",
"4 c #731313",
"5 c #EB9797",
"6 c #000023",
"7 c #2F2F2F",
"8 c #5F0707",
"9 c #43331B",
"0 c gray31",
"q c #7F0000",
"w c #373737",
"e c #070707",
"r c #F3A3A3",
"t c #00009B",
"y c #670000",
"u c #9B0000",
"i c #A70000",
"p c #5B0000",
"a c black",
"s c gray34",
"d c #4F0000",
"f c gray39",
"g c #8B0000",
"h c #000053",
"j c #777777",
"k c #9F8363",
"l c #4F3B23",
"z c #C7C7FF",
"x c #000083",
"c c gray50",
"v c #979797",
"b c #0000E3",
"n c #000047",
"m c #B30000",
"M c #7B634F",
"N c #775F4B",
"B c #8B735B",
"V c #9F876F",
"C c #9B7F6B",
"Z c #937B63",
"A c #A78F77",
"S c #6F5743",
"D c #67533F",
"F c #AF977F",
"G c #5F4B37",
"H c #B79F87",
/* pixels */
" BZBBZBB MBBB BZBBZB BBBM BBB  BZ MBCBB CBZ BCBBZVCCCZCZZCZZZBB ",
"B CBBZ  ZZ BBB CBBZ BBB ZZ BBBZBBM BCCCCZBZZZZMBAAVZCCCZZCZBBZ B",
"BZB BBZZ MZCBBZB BBZZZCZM ZBZBBBBVZBBCAVZB ZBZ  VZCCVCCZZCBZZZBZ",
"  BBBBBZZVBBVBCCZ BCZCCBBZBBVZZCBZBZBBBVBZB ZZBBZBCVVCCCZZZZBZ Z",
" BBZZZZZZVZVZ ZCZZZZBBVCZB ZVCBZCBBZZZCC CCZBC  CBBVAVCCCCZBBZZB",
"Z  BZZCCZZBBVVCV ZBZBZCCZBBBZVZBZCZBZB  BBCZBC ZZZBVAVCZCZBBBZAC",
"BBBMCZZBZVZBZVCB ZBZBZCCZBBBBZVCZBBBZBCBBAVVBZZAZBCAVVCCZCZBZAHV",
"B  BZBBCZZVZZBBBZZBB B   BB   BZCCVZACZZAZVABCCCBZZVVVCVCCC BVVZ",
" MBV ZZZBZVZBZZCBBZ BZB   B   BZZBZBZZZAACA BCVVBCZVVAVCCVBM BZ ",
"B BBZZB BZBBZVCCZZZBZZB  M    BBZZB CCCVZCVBVZCZ BCVVVVCVCB M BN",
"B  BVZ BBBBBBZZCZBZ Z  MMMMMMMM  ZZZZZVAZCAZAZVZ ZCVVAVVCCB MBNM",
"N BCZZB  Z BBBBZBBZBB  M   M  MMBBB BZZVZZCZ ZCZMBCAVVAVVVZ MNDM",
"N BAZBBZBB BZ  ZBVBBVZZBBBBB  BCZZAZZZAHAZFABZBZMZCCAAVAVVB NDM ",
"B  ZZZ M BBZZBBZ ZVZVZZZZZZBB BZB VZ ZVZFZAABVBZZCCAVVAVVCCBM   ",
"ZBZZVZB BCCZ ZZBVVBBZZCCZZB  ZBBCBB MBZZZBVABZZABZCCFAVCCVCC BBB",
"ZBZZZCCCZZBBBZZZVZBZVZBZZCMBBBBBACBCBCAZZBZZZZZZZBVCVFFVCCCBZZB ",
"ZZZZZCZZCZZZCZZZBZZVZZCBBZB  B  ZZCFVBZZCZ ZZBZZZBZVAHFACCZZZB B",
"BCZCZZCBBZZCZZZZZBZVZBZZZ VBM   BZBCAFBZZCCFC CFCZCAAFAVZCCZB B ",
" ZZZ ZCB ZCZZCZZVZBBZB BZZBB B BBBZ  ZZFBCZZAZZZBZBVAAAVVCZB    ",
"ZBZZBZCZBZBBZCZZZBBBBBB ZVB  BB MBZMNVAVBZB VZZ CVVAVAAACCB    B",
"ZZZZZZ BCZBZZCZVBBB Z  BZZCB NM  BZB BZZZZZBBZBBBCFVAVVCVBMM    ",
"BCZB B BZZZZZZZZ ZB BBZBBZAB N ZZBMZVB VCVVCBCBCCVVVACCCZ    M  ",
"BBB  BBB ZCBBZBZBZZBB M ZZZ  BB   M BZZZVVAZCFVBCVVCVCBBZB   N  ",
"BZ    BCBBBCBZBBZ ZCCB BZVZZZ Z M  ZBCZZBZBZBCAVCVCVCVZBB BZZ M ",
"BBZZZZBCBCBZZBBZZBBBZZCCCZZZZBBBMMBZ B ZB  BZ  ZCZZZVCBZBB    N ",
" BZVVCZBZCCCZCCZZCZZZCZZCZZ  ZBBBB    BCB MBZMNVZZBBCVZMBMMN MNM",
" ZCAVVZZCZZZZB ZZZCZZBBCZZCZZBZB BBZ  ZBM  BZB BBB  Z B NMNMMNSN",
"ZBBBZBCZBBZ  BZZCZZCZ BCZ ZZZ  BBBBBZZMM ZZBMZVBCZBB C BBNMNMN S",
"  Z  BZ BBBBZBZCCZBBZBZCZBZ ZC BCB BZVN BBZVBVZZZB B   ZBMDMNNNN",
"    BZM BBBBZZZBCZZBZCB ZZZBZZBMZV ZCAZC BB CBZCZB  BZ  ZZMSS  M",
"  B Z  MBZBZZBBBZZZZZZB B BBZBBBBVZBBCAHB   BCZB      Z   SNSS M",
" ZM  B M BB    ZZBBCZ BBB  BBBZBBM BZZCCBB  ZB    MZ    N MSNSSS",
" M   MBM BB B BZZBCBBBCB    ZBB  ZZ BBB BB  M ZB    Z  B  SNSS  ",
" N    BBM   BZB BZZBCBCBZZZZBBBBB MBBB BB MMMMM  Z   Z Z MNNSN  ",
" M BBM BB BZBBBMCZCCCZBZCVVZB B   BBB  B  M   MBB MMZB   Z NDSNN",
"  MM BBZB BBBMBZBZZZZCZZVVACZ VMB  ZZM Z    B  B Z  Z  M MNSGNSN",
"N M  ZZZZ ZABZZZB  ZBBZCBZBBZB  BBB MBZ BBMMB BBM Z  M B SMSNSGS",
"NNN  VZMZVBBBBCZBZBBBB ZB  ZZB BB      B  MM  MB  NNNN Z NNNSGSD",
"NN  BVVBBBBZZBBZZZBBBB MZB  BMBZM  BBBZZZ  B MM   N  N  NNSNSMDS",
"N   BZBZZZZCMBBBBZZBZBM  Z B MZ  MN CZZZ  Z  M   NNN NM N NNSSND",
"NM  BZB ZBZBBBZ    BB M B    BNZ  M BBBBZ   M B N   N NN  NSNDNM",
"M M ZBZB ZZZBZZB B BB MBM     NN  NM BZB    N BMD NN  N M SNSGNM",
"MMM B CCZBCCCB BZB   MBB    MMBN Z  M   Z   M B NNN   NNN MNNSS ",
"MMM ZBBCZBCACZMBBBZB BB MMSBMMM N BCB BZ  Z  M  NNNN N N NN S NM",
"MNS ZZBZZZ CBBZBMBBB BZBBMMMMM  ZMN B BBZ  B MM SNNNN NN NNNSNS ",
"SSNBZBB BBZAZBBBB  BZB B  MZ   B   MBZB   BZNNMSGNNNN  NNNN NNNM",
"NSS BB BBBVZZB BZB  BBB ZZ  NNM ZZ B M  B   N SGSSDNNNNNNMNNNNSN",
"NSN   BB  ZCBZBBZ  B BBBM BBB  M MBB N BZZZBN NDNSSSNNSN NNNNSSS",
" N   BB  BZCM ZZZ  B  BBB   B    BBBMNM     NNDNNSSSSNSSNNNNSNNN",
"NNM  BB B ZCZZ  B  M   BBBMMBZBMBBB NSNMM ZNNNSSSDGSSGSSNNNNNM M",
"NNMMM BB  ZZM BBBN MM  BBMB   NNBBBBN SNM   NSDSSSSGSSSSNSNNNDNM",
"MN  M     BBB   BN BBBB  MBB N    MMNNNNNMBNNDNSSDSSDNNDDNSNSDSN",
"MN  N      C BBZB ND BBN  MNB  N MNM  M MM  NGDSNSSGSNNSSSDNDDDN",
"N    M   ZBAN BZB MM B  SM MM M NSMZ    B B NGNSSSNSSSDSSNNNNSDS",
"M    ZZBZZ  M  BZ M SN NDSSSMNDSS Z BBMMM  NNGSNNNNNN NSNNNSSSDD",
"NSSNBZBB N  NM NB BSNB NNSSNNNNSMZB   MM  Z  N M NNNN  NDSNSSNDS",
"NNSS BB BN Z  MBB  MMZ    NDNM MM B Z  BB BBN   N NN N  NNSNSMDD",
"NNSN   BB N BC  BZ  ZCB    N   N Z    Z   B NNN M NNNN Z NNNSGSD",
"N N   BB  ZMN B  BBBCB Z Z MBBBM ZB Z    BBZ  NM  Z  M B SMSNSGS",
"NNNM  BB B   MMB N    Z M   Z BMMMMM    MB B NBZBZ  Z  MXXXXXNSN",
"N +==,,=$    M B M   Z  M    Z  MZ   B  M  Z  ZCC MMZB$=rr==+XNN",
"NX&=.2=,,$- BB  M  Z    M    M        Z B C   BCCZ &$$,r=..=&X  ",
"N%X&*a4=&XO+$&XMM B  Z BBB  MMBBBBBBM  B  M  B  X$$+O;+=.ao&Xo  ",
"B*%.&.2%&+X.#.$,&OMM   B BB  B MMMM B MM M B O&$$X;@o+,.2o&.1*SS",
"  %4.&&*o&+X*#.+$,>$&O ZMMB B   MM   BMM O&$$$$+X;#:+,oo&&.41S M",
" B@%4.X&X$+X@*@OX+&>$$&+Oooo.@oo.@.oooO+&$$&&+XO;#@O>&X&X.41@  M",
" Bo@%*@X&$$+X@..XOOO+$>>,,,,5333335,,,>$>$+OOOX;.@O>&++X@1%@oNNN",
"  B$.#*@.O+++.o.XOXXX+XO++&&$>>>>>$&+-OXX+XXXOX.oO>&OO.@1%.OM   ",
"B BX$.@.ooX++OoooXXX.OXoXO+++&+++&++-OXoXO.XX.oooO+XXoo%@.+X N  ",
"BB O>+O..ooXOOXooXXXXOOXo-X;X--X-X$XXXoXOOXX.X.;;;O;;o..:+$ON N ",
"BBZB&>XXXooo++XXoXXoOXoooo.-oO.-oO+$.-oooXOoX.o;o@.;;..:X$&NBN B",
"CZCBO>+OOXXXXXoXXo.@.oXXXOO;X.+$-X$-XX-.-XXX.o;X@;@;X.o*+>OZBBZB",
"BBZBX>XOXXoXoXooX...XoOXX+-O-o@@#;.;;oOXX-.Xo.X;@o.@o@:<O>XZZZCZ",
"ZBZB.>;XXoo;o.o.oX@oX.@oO+$XO=1&1=OX$+Xo;oo.ooo@;X@..o*1X+.VVZZZ",
"BZBZ@O@;O@.o.o.o.Oo:*@;O$-=+=5#3#5=+=-$O.o.@OX;@X.o@o.18.O@ ZBBZ",
"ZB C.O@@X..;;.o..:*<.oO+==+=53o+o35=+==+OoX;@@oo..@o@*28.O.ZZBBB",
"BZBB+O%<X.Xo.;;#*:@:oO+$=&-,==&#&3=,-&=$+Oooo#.@...@X.<2@O+kZZZZ",
" ZZB&o<4...o.;:%*.X;o-$=&OO$,33*33,$OO&=$-o.X.*%%@o@..*<*o&ZZZZZ",
"MZCC&.4<#XX.@*%#o.X$&;:.oX-&$=-%-=$&-Xo.#.&$X.o#%%..XXo#2@&VZBBZ",
"B C-O.#.XX..*4<@XX.$=$Xo+-&$=+.2.+=$&-+oX$=$.XX@%1%..XXo##O=CZZZ",
"VB+$o.OX..X.:*#;oOXO$3,-+-X;@%421%@.X-+-,3$OXOo.#*#.X..XOoo$+ZZZ",
"ZV$o.+X..X.*X;@XO-$&+-X;#%<<4222221%%%#.X-+&$-OX@.X*.X..X+oo$ZZV",
"Z+o$&o.o#.X<X-oX+$$$X;@#<12%%%%%%%%%21%#@.X$$$+Xo-X%X.#o.o&$>+BZ",
"+$,$OOOoo.:#o$-O$&O;@#<12<*::@;o.@##*%21%#@.O&$O-$o##.ooOOO>,>+Z",
"$,,,=$&OX.:o:o-$X;@#<*;X:%%w7666667w%%#X.*%#@.X$-o#o#.XO&$=,,,$+",
"=O944%%*#@1*o:;XOO#<*##<yp00tn6elz600py###*%#OOX.#o*1@#*%%449O=+",
"$..oXO++OO:o:o-$X;@#<*;X<dfv7bxeetwcfd%X.*%#@.X$-o#o#XO++OXo..$+",
".+===&Oo.@:#o$-O$&O;@#<@::qsj7h6h7jsq##@%#@.O&$O-$o##@@XO&&$=+.Z",
"C.&=&-O#..@@X-oX+$$$X;@#<X#qguimiugq#X<#@;X$$$+Xo-X<...##.++&.BZ",
"ZZ.>&+&Oooo*X;@XO-$&+-X;#%<<4222224<<%#;X-+&$-OX@;X*ooXO&+O>.ZBB",
"BB o>O@.OOo;:*#;oOXO$3,-+-X;@%424%@;X-+-,3$OXOo;#*:oXOXo@O>oCZB ",
" BZB+>O@@.XX@4<@XX.$=$Xo+-&$=+.2.+=$&-+oX$=$.XX@<4:XXo@@O>+CBBZB",
"  BB.>&...@o.*%#o.X$&;:.oX-&$=-<-=$&-Xo.:;&$X.o#%*.o@...&>.CZM Z",
" B BB+>..XX.o.#%*.X;o-$=&OO$,33*33,$OO&=$-o;X.*%#.o.XX..=+BB ZZ ",
" B  BO>o@o.o.o.:*:@:oO+$=&-,==&:&==,-&=$+Oo:@:*:.o.o.ooO,OBBBM B",
" M   +>o#@..oo.o.:*<.oO+==+=53o+o35=+==+Oo.<*:.o.o#.@:o&,+ BBB  ",
" Z  M&+%#*.#@.O.o.@#*@;O$-=+=5#3#5=+=-$O;@**@.o.@@.X.*:X=& ZZ  B",
" NNNN>o%###*#....X@@..@*.+$XO=#&#=OX$+.*@..@@o...@#.#**X&> MMBNB",
" N  X>%*###.#.ooXo.@ooo..o..X-:;:-X..o..ooo@.oooo@*%*<1:X>XMMM B",
"NNN +&%*.##.##oX....oooo.@@@@#####@@o@.oooo....oo##.<11#;&+MM  B",
"   N>o%*###*X.X.@...@@@@**************@@@@@...@;;.X@<111#X>   BM",
" NNX&.#*1###.X.X.#*##**%***%%%%%%%%%%%%%**##*#.;...#.<121:&XNM N",
"NN >X@%2#o@.XXX**%%%%%1@oX+$>======$+Xo@1%%%%%*:..:#@o#82<X> MM ",
"NNN>@%2#-@.#o..%%%*.XXX++++++O+++O++++++XXX.*%%%*::*#.o#8%X&.   ",
"NN+X%2#-o#.@o.XO&++O+++OOOMZ  ZBBBBBBOOO+++O++&OX.:#*#.O#8%X+*BZ",
" N>.9#$&#%@.XXX++OOSNNSM  MBZCBC BZBBBBSB  oOO++XXX.#%*o+#9.>%BB",
" D+.1$$+OXXXXoNNSDNDSSNNN M ZZCVM    B NBBB  B ZooXXXXO+$+1.+1 B",
"MS:+$+-.@@NNSSNNNNSSNSNMMM BBBBZB BZZBM B   MMZBCCB##@@.o+$+%   ",
"M  ::::  NNGSN MMSDNSSNN N MBZBBMMMM   B  M BBB BZACCCZ141%%BB  ",
"NN  N M B NGNSMMNNSDMSNSNN  B B  MZ   MM NB   BBZZCAZCZBMMZBM BM",
"  N NN  M NGDSSNNNDSGSNNN Z BB ZZ  NBBMMM  BBZB ZZBBCZZB BZB  MN",
"NN NM N NNNDNSSN NSGSNSMS B BBBM BBB    B B BM  CA BCZ BZZMBZZ N",
"N  N  NNN NSDSNNNSNSNGSNM M  BBB   B   Z   B ZZ BZBZCZBB  M   BB",
"NNNN Z NNNNNSSSN NNNSDN Z     BBBMMBBBB ZZB  BB BZCB ZZCBZ  M Z ",
" S B B  N NNDNNSNS  NSNNM Z Z NN BBB MMBBZB BBBMZZZB B B ZBMMBBB",
" M M M M NN NDNSNN  SSNS  B  ZBMB B BBMBBZ BBB ZCZ BBB  B  BBBBZ",
"BZ   BBZ NN SGSSSNSSSNSM N       B B  BBBBZZZCZMBBBCB    ZBB BZB",
" M Z  BCNSNNMSSNMSM SSNS   Z   M MBBBBB  BCZCCBBBCBCBZZZZBBBBB  ",
"B  B ZZZ MMMNSMMM M  SSMZZ  Z M ZZ BBBB ZZZBBVCZCCZBZCVVZB BCB C",
"ZBZB ZBZBM M M  NM   BMDMBZ    NB B BZB A VCCBBBZZCZZVVACZ VZMBZ",
"BZBZB ZZZBZZBBZB BBB BZB B NNN MB BZB B BBAVVBM ZBBZCHACBBZVBBBB",
"ZB CCZBCBZZCCZMBBBZB BB  BZ  NM  CZZAZZZCAZVAB NBBB ZCCZZB MBBZB",
"BZBBCZBC BBCCB BZB   MBBB B NBZBBZB VZ ZCCZAZ  BBBB M BBBBM ZZ  ",
" ZZBZZZ MBMBBZZB B BB MBC Z  ZCCZBCBB MBZCCVZZA BZBM ZZCBMBZZB  ",
"MZCCBB  BBBBBBZ    BB M ZC   BCCBBACBCBCACZZZZZBBB M ZC   BCC   ",
"B CCZZCZBBBBM B BZZBZBM ZZC MBZZB ZZCFVBZZZAF  ZBB MBC ZN ZCCB  ",
" B VVVVBBBBZ   ZZZB BB MMM  BM ZZ BZBCAFCCCCCZZB  MBBB BDNBZBMMM",
"  BBVVZMZVBBB CZB  B B ZCCZZB MB BBBZ  ZZZZAZZZ B BB  BZSGNMSDSM"
};
