/* XPM */
static char *SW2TEK[] = {
/* columns rows colors chars-per-pixel */
"64 128 37 1 ",
"  c #474F33",
". c gray28",
"X c gray31",
"o c #3F472B",
"O c #53573B",
"+ c #373F27",
"@ c #434343",
"# c gray42",
"$ c gray34",
"% c #777777",
"& c gray23",
"* c #5B5B5B",
"= c #6F6F6F",
"- c gray39",
"; c #5B6347",
": c #4B4B4B",
"> c #8B8B8B",
", c #939393",
"< c #3F832F",
"1 c #37732B",
"2 c #838383",
"3 c #27531B",
"4 c #2F6323",
"5 c #6F7357",
"6 c #373737",
"7 c #439337",
"8 c #53AF47",
"9 c #4B9F3F",
"0 c #131313",
"q c gray50",
"w c #979797",
"e c #2F371F",
"r c #676B4F",
"t c #9F9F9F",
"y c #1B1B1B",
"u c #5BBF4F",
"i c #2F2F2F",
/* pixels */
"yyyyyyyyyyyyyyyyyyyyyyyyyyyyyyyyyyyyyyyyyyyyyyyyyyyyyyyyyyyyyyy0",
"+5;;;;;;;;;;;;;;;;;;;;;;;;;;;;;;;;;;;;;;;;;;;;;;;;;;;;;;;;;;;;e0",
"+;..X. X  ..Xoo o.X... ..X. .  .XX @. .XO@ OOO ..X.... .  . o e0",
"+;..X. .  ..Xoo o.XoXX X.X. .  .XX @. .XO@ OOO ..X..X. .  . o e0",
"+;X.5+ 5+ 5+X5+ 5+.5+X5+.5+ 5+ 5+X5+.5+X5+ 5+O5+.5+.5+ 5+ 5   e0",
"+;..+o +o +o$+oo+o.+oX+o.+o +o +oX+o.+oX+o +oO+o.+o.+o +o +o  e0",
"+;..+. +  +X$ooo ..+.$O..X.  o .X.+@. XX+X OOO X.O..X. X  .o  e0",
"+r  ;O .X XXXoXX .... X  .OoX.  @ oo X OX OO  X. X. OX  .X   oe0",
"+r  ;  .XO$$XoX$O..X.  o .OoX.  X oo   OX OO  X@ X. OX  .Xoo oe0",
"+r  O  .XO;$XoXXO..X.  o .Ooo.. X oo X OX OO  X. X. OX  .Xoo oe0",
"+r  O  .XOO*XoXXO..X.    .Ooo.. X oo X O@ OO  X. X. OX  .ooo oe0",
"+r OO  .XOO$Xo@XO.XX.  O .Ooo.. X oo X O@ OO  X. X. OX  .ooo oe0",
"+rO;O O.X OXXo@X .XX.O O .Ooo...X oo . O@ OO  X. X. OX  .ooo +e0",
"+rO;O O.X OXXo@X .XX.O O .OooX..X ooO. O@ OO  X..X. OX. .ooo +e0",
"+rO;O O.. OX$o@X .X..O O .O oX..XoooO..O@ OO  X@.XXOOX.OXooo oe0",
"+r ;O  .. OX$ooX .X..  O .O o..XXo oOX.O@ OO  X@.XXOO..OXo   oe0",
"+r O$  .X OX$ooX .XX.  O .  o..XXo oOX@ @ OO  @@.X.OO.XO.o  O e0",
"+;.XX.  OX.X$ooX @+.@ o. X. X .... XO ..o@OO  @@X .X..O O .+o e0",
"+;.XX.  OX.@$ooXX@+.& o. .. $O..X.  O .@o@OO  @@X .X..  O .+o e0",
"+5rrrrrrrrrrrrrrrrrrrrrrrrrrrrrrrrrrrrrrrrrrrrrrrrrrrrrrrrrrrre0",
"+;.X..  OX.@XooX @+o& o  .. XO..X.  O .@+@    @&X .XX.  OX.++ e0",
"+;.X..  OX.@XooX @+o& o  .. XO.XX.  O .@o@    @&Xo.XX.  OX.++ e0",
"+;.X.. .OX.@XooX @+o& o. oXOX .XX.O O .       @& o.XX.  OX.+o e0",
"eeeeeeeeeeeeeeeeeeeeeeeeeeeeeeeeeeeeeeeeeeeeeeeeeeeeeeeeeeeeeee0",
"yyyyyyyyyyyyyyyyyyyyyyyyyyyyyyyyyyyyyyyyyyyyyyyyyyyyyyyyyyyyyyy0",
"+5;;;;;;;;;;;;;;;;;;;;;;;;;;;;;;;;;;;;;;;;;;;;;;;;;;;;;;;;;;;;e0",
"+;..X. X  ..Xoo o.X... ..X. .  .XX @. .XO@ OOO ..X.... .  . o e0",
"+;..X. .  ..Xoo o.XoXX X.X. .  .XX @. .XO@ OOO ..X..X. .  . o e0",
"+;X.5+ 5+ 5+X5+ 5+.5+X5+.5+ 5+ 5+X5+.5+X5+ 5+O5+.5+.5+ 5+ 5   e0",
"+;..+o +o +o$+oo+o.+oX+o.+O +o +oX+o.+oX+o +oO+o.+o.+o +o +o  e0",
"+;..+. +  +X$ooo ..+.$O..XO  o .X.+@. XX+X OOO X.O..X. X  .o  e0",
"+r  ;O .X XXXoXX .... X  .OoX.  @ oo X OX OO   . X. OX  .X   oe0",
"+r  ;  .XO$$XoX$O..X.  o .OoX.  X oo   OX OO   @ X. OX  .Xoo oe0",
"+r  O  .XO;$XoXXO..X.  o .Ooo.. X oo X OX OO   . X. OX  .Xoo oe0",
"+r  O  .XOO*XoXXO..X.    .Ooo.. X oo X O@ OO   . X. OX  .ooo oe0",
"+r OO  .XOO$Xo@XO.XX.  O .Ooo.. X oo X O@ OO   . X. OX  .ooo oe0",
"+rO;O O.X OXXo@X .XX.O O .Ooo...X oo . O@ OO   . X. OX  .ooo +e0",
"+rO;O O.X OXXo@X .XX.O O .OooX..X ooO. O@ OO   ..X. OX. .ooo +e0",
"+rO;O O.. OX$o@X .X..O O .O oX..XoooO..O@ OO   @.XXOOX.OXooo oe0",
"+r ;O  .. OX$ooX .X..  O .O o..XXo oOX.O@ OO   @.XXOO..OXo   oe0",
"+r O$  .X OX$ooX .XX.  OX.O o..XXo oOX@ @ OO   @.X.OO.XO.o  O e0",
"+;.XX.  OX.X$oooo@+.@ o.XXO X .... X  ..o@OO   @X .X..O O .+o e0",
"+;.XX.  OX.@$oooo@+.& o.X.O $O..X.  o .@o@OO   @X .X..  O .+o e0",
"+5rrrrrrrrrrrrrrrrrrrrrrrrrrrrrrrrrrrrrrrrrrrrrrrrrrrrrrrrrrrre0",
"+;.X..  OX.@Xoooo@+o& o.X.O XO..X.    .@+@     &X .XX.  OX.++ e0",
"+;.X..  OX.@Xoo o@+o& o.X.O XO.XX.  O .@o@     &Xo.XX.  OX.++ e0",
"+;.X.. .OX.@Xoo o@+o& o.XoOOX .XX.O O .        & o.XX.  OX.+o e0",
"eeeeeeeeeeeeeeeeeeeeeeeeeeeeeeeeeeeeeeeeeeeeeeeeeeeeeeeeeeeeeee0",
"yyyyyyyyyyyyyyyyyyyyyyyyyyyyyyyyyyyyyyyyyyyyyyyyyyyyyyyyyyyyyyy0",
"+5;;;;;;;;;;;;;;;;;;;;;;;;;;;;;;;;;;;;;;;;;;;;;;;;;;;;;;;;;;;;e0",
"+;..X. X  ..Xoo o.X... ..X. .  .XX @. .XO@ OOO ..X.... .  . o e0",
"+;..X. .  ..Xoo o.XoXX X.X. .  .XX @. .XO@ OOO ..X..X. .  . o e0",
"+;X.5+ 5+ 5+X5+ 5+.5+X5+.5+ 5+ 5+X5+.5+X5+ 5+O5+.5+.5+ 5+ 5   e0",
"+;..+o +o +o$+oo+o.+oX+o.+o +o +oX+o.+oX+o +oO+o.+o.+o +o +o  e0",
"+;..+. +  +X$ooo ..+.$O..X.  o .X.+@. XX+X OOO X.O..X. X  .o  e0",
"+r  ;O .X XXXoXX .... X  .OoX.  @ oo X OX OO  X. X. OX  .X   oe0",
"+r O$  .X OX$ooX .XX.  OX.  o..XXo oOX@ @ OO  X@.X.OO.XO.o  O e0",
"+;.XX.  OX.X$oooo@+.@ o.XX. X .... X  ..o@     @X .X..O O .+o e0",
"+;.XX.  OX.@$oooo@+.& o.X.. $O..X.  o .@o@     @X .X..  O .+o e0",
"+5rrrrrrrrrrrrrrrrrrrrrrrrrrrrrrrrrrrrrrrrrrrrrrrrrrrrrrrrrrrre0",
"+;.X..  OX.@Xoooo@+o& o.X.. XO..X.    .@+@     &X .XX.  OX.++ e0",
"+;.X..  OX.@Xoo o@+o& o.X.. XO.XX.  O .@o@     &Xo.XX.  OX.++ e0",
"+;.X.. .OX.@Xoo o@+o& o.XoXOX .XX.O O .        & o.XX.  OX.+o e0",
"eeeeeeeeeeeeeeeeeeeeeeeeeeeeeeeeeeeeeeeeeeeeeeeeeeeeeeeeeeeeeee0",
"yyyyyyyyyyyyyyyyyyyyyyyyyyyyyyyyyyyyyyyyyyyyyyyyyyyyyyyyyyyyyyy0",
"+5;;;;;;;;;;;;;;;;;;;;;;;;;;;;;;;;;;;;;;;;;;;;;;;;;;;;;;;;;;;;e0",
"+;..X. X  ..Xoo o.X... ..X. .  .XX @. .XO@ OOO ..X.... .  . o e0",
"+;..X. .  ..Xoo o.XoXX X.X. .  .XX @. .XO@ OOO ..X..X. .  . o e0",
"+;X.5+ 5+ 5+X5+ 5+.5+X5+.5+ 5+ 5+X5+.5+X5+ 5+O5+.5+.5+ 5+ 5   e0",
"+;..+o +o +o$+oo+o.+oX+o.+o +o +oX+o.+oX+o +oO+o.+o.+o +o +o  e0",
"+;..+. +  +X$ooo ..+.$O..X.  o .X.+@. XX+X OOO X.O..X. X  .o  e0",
"+r  ;O .X XXXoXX .... X  .OoX.  @ oo X OX OO  X. X. OX  .X   oe0",
"+r  ;  .XO$$XoX$O..X.  o .OoX.  X oo   OX OO  X@ X. OX  .Xoo oe0",
"+r  O  .XO;$XoXXO..X.  o .Ooo.. X oo X OX OO  X. X. OX  .Xoo oe0",
"+r  O  .XOO*XoXXO..X.    .Ooo.. X oo X O@ OO  X. X. OX  .ooo oe0",
"+r OO  .XOO$Xo@XO.XX.  O .Ooo.. X oo X O@ OO  X. X. OX  .ooo oe0",
"+rO;O O.X OXXo@X .XX.O O .Ooo...X oo . O@ OO  X. X. OX  .ooo +e0",
"+rO;O O.X OXXo@X .XX.O O .OooX..X ooO. O@ OO  X..X. OX. .ooo +e0",
"+rO;O O.. OX$o@X .X..O O .O oX..XoooO..O@ OO  X@.XXOOX.OXooo oe0",
"+r ;O  .. OX$ooX .X.%,>>>,,,wwtwtw,>,,>>>,,%  X@.XXOO..OXo   oe0",
"+r O$  .X OX$ooX .XX.#---##=%%q%2%#-##---##.  X@.X.OO.XO.o  O e0",
"+;.XX.  OX.X$oooo@+..=#-#==%%q2q2q=#==#-#==:   @X .X..O O .+o e0",
"+;.XX.  OX.@$oooo@+..=###==%qq2q>q=#==###==:   @X .X..  O .+o e0",
"+5rrrrrrrrrrrrrrrrrr:=###=%%qq2q>q%#%=###=%:rrrrrrrrrrrrrrrrrre0",
"+;.X..  OX.@Xoooo@+o:%===%%q22>2>2%=%%===%%X   &X .XX.  OX.++ e0",
"+;.X..  OX.@Xoo o@+o:%===%%q22>2,2%=%%===%%X   &Xo.XX.  OX.++ e0",
"+;.X.. .OX.@Xoo o@+oX%%=%%q###########%=%%qX   & o.XX.  OX.+o e0",
"eeeeeeeeeeeeeeeeeeeeX%%=%%q#<8<u<u<8<#%=%%qXeeeeeeeeeeeeeeeeeee0",
"+yyyyyyyyyyyyyyyyyyy:%===%%#191818191#===%%Xyyyyyyyyyyyyyyyyyye0",
"+yyyyyyyyyyyyyyyyyyy:%===%%#474949474#===%%Xyyyyyyyyyyyyyyyyyye0",
"+yyyyyyyyyyyyyyyyyyy:=###=%#3<37373<3####=%:yyyyyyyyyyyyyyyyyye0",
"+;OOOOOOOOOOOOOOOOOO.=###==#313<3<313####==:OOOOOOOOOOOOOOOOOOe0",
"+rrrrrrrrrrrrrrrrrrr.=#-#==#343131343##-#==:rrrrrrrrrrrrrrrrrre0",
"+ o.o@O. X.@@  o+o++.#---###343434343#---##.    o ....OXO.X   e0",
"+ o.o@ .OX.@&  ++o+&.#---##=343434343=---##.    o ..o.OX @X   e0",
"eeeeeeeeeeeeeeeeeeee.--*--#=343434343=-*--#.eeeeeeeeeeeeeeeeeee0",
"yyyyyyyyyyyyyyyyyyyy@-***--%222222222%***--.yyyyyyyyyyyyyyyyyyy0",
"+5;;;;;;;;;;;;;;;;;;@-***--#==%=%=-*--***--.;;;;;;;;;;;;;;;;;;e0",
"+;..X. X  ..Xoo o.X.@**$**--#===%=-*-**$**-@OO ..X.... .  . o e0",
"+;..X. .  ..Xoo o.Xo&*$$$**-##=#%#*$**$$$**@OO ..X..X. .  . o e0",
"+;X.5+ 5+ 5+X5+ 5+.5&*$X$**--#=#=#*$**$X$**@+O5+.5+.5+ 5+ 5   e0",
"+;..+o +o +o$+oo+o.+&$XXX$**--#-=-*X*$XXX$*&oO+o.+o.+o +o +o  e0",
"+;..+. +  +X$ooo ..+&&6i6&&&@@.@.@&6&&6i6&&&OO X.O..X. X  .o  e0",
"+r  ;O .X XXXoXX .... X  .OoX.  @ oo X OX OO  X. X. OX  .X   oe0",
"+r  ;  .XO$$XoX$O..X.  o .OoX.  X oo   OX OO  X@ X. OX  .Xoo oe0",
"+r  O  .XO;$XoXXO..X.  o .Ooo.. X oo X OX OO  X. X. OX  .Xoo oe0",
"+r  O  .XOO*XoXXO..X.    .Ooo.. X oo X O@ OO  X. X. OX  .ooo oe0",
"+r OO  .XOO$Xo@XO.XX.  O .Ooo.. X oo X O@ OO  X. X. OX  .ooo oe0",
"+rO;O O.X OXXo@X .XX.O O .Ooo...X oo . O@ OO  X. X. OX  .ooo +e0",
"+rO;O O.X OXXo@X .XX.O O .OooX..X ooO. O@ OO  X..X. OX. .ooo +e0",
"+rO;O O.. OX$o@X .X..O O .O oX..XoooO..O@ OO  X@.XXOOX.OXooo oe0",
"+r ;O  .. OX$ooX .X..  O .O o..XXo oOX.O@ OO  X@.XXOO..OXo   oe0",
"+r  ;  .XO$$XoX$O..X.  o .OoX.  X oo   OX OO  X@ X. OX  .Xoo oe0",
"+r  O  .XO;$XoXXO..X.  o .Ooo.. X oo X OX OO  X. X. OX  .Xoo oe0",
"+r  O  .XOO*XoXXO..X.    .Ooo.. X oo X O@ OO  X. X. OX  .ooo oe0",
"+r OO  .XOO$Xo@XO.XX.  O .Ooo.. X oo X O@ OO  X. X. OX  .ooo oe0",
"+rO;O O.X OXXo@X .XX.O O .Ooo...X oo . O@ OO  X. X. OX  .ooo +e0",
"+rO;O O.X OXXo@X .XX.O O .OooX..X ooO. O@ OO  X..X. OX. .ooo +e0",
"+rO;O O.. OX$o@X .X..O O .O oX..XoooO..O@ OO  X@.XXOOX.OXooo oe0",
"+r ;O  .. OX$ooX .X..  O .O o..XXo oOX.O@ OO  X@.XXOO..OXo   oe0",
"+r O$  .X OX$ooX .XX.  OX.  o..XXo oOX@ @ OO  X@.X.OO.XO.o  O e0",
"+;.XX.  OX.X$oooo@+.@ o.XX. X .... X  ..o@     @X .X..O O .+o e0",
"+;.XX.  OX.@$oooo@+.& o.X.. $O..X.  o .@o@     @X .X..  O .+o e0",
"+5rrrrrrrrrrrrrrrrrrrrrrrrrrrrrrrrrrrrrrrrrrrrrrrrrrrrrrrrrrrre0",
"+;.X..  OX.@Xoooo@+o& o.X.. XO..X.    .@+@     &X .XX.  OX.++ e0",
"+;.X..  OX.@Xoo o@+o& o.X.. XO.XX.  O .@o@     &Xo.XX.  OX.++ e0",
"+;.X.. .OX.@Xoo o@+o& o.XoXOX .XX.O O .        & o.XX.  OX.+o e0",
"eeeeeeeeeeeeeeeeeeeeeeeeeeeeeeeeeeeeeeeeeeeeeeeeeeeeeeeeeeeeeee0"
};
