/* XPM */
static char *SW2VINE[] = {
/* columns rows colors chars-per-pixel */
"64 128 63 1 ",
"  c #777777",
". c #473323",
"X c #4F3B27",
"o c #3F2B1B",
"O c #533F2F",
"+ c #2B230F",
"@ c #5B472B",
"# c #4F3B23",
"$ c #5F4B37",
"% c #332B13",
"& c #574333",
"* c #4F3B2B",
"= c #67533F",
"- c #6F6F6F",
"; c #675333",
": c #6F5743",
"> c #4B371B",
", c gray50",
"< c gray39",
"1 c #838383",
"2 c #775F3F",
"3 c #1F170B",
"4 c #774F2B",
"5 c #6B4727",
"6 c gray42",
"7 c #775F4B",
"8 c #5F4323",
"9 c #3F2F17",
"0 c gray34",
"q c black",
"w c #2F1B0B",
"e c gray23",
"r c #5B5B5B",
"t c gray31",
"y c #372313",
"u c #170F07",
"i c #0B0B0B",
"p c #7B634F",
"a c #434343",
"s c #3F832F",
"d c #131313",
"f c #171F07",
"g c #836B4B",
"h c #939393",
"j c #8B8B8B",
"k c gray28",
"l c #37732B",
"z c #27531B",
"x c #2F6323",
"c c #4B4B4B",
"v c #533F1F",
"b c #836B57",
"n c #373737",
"m c #439337",
"M c #53AF47",
"N c #4B9F3F",
"B c #232B0F",
"V c #979797",
"C c #0F1700",
"Z c #2F2F2F",
"A c #5BBF4F",
"S c #9F9F9F",
"D c #8F7753",
/* pixels */
" ---  ,-   *+ooO=;;;@2:O#.o. - - -X++++++-  <-   -- ,,, -   - , ",
" ---  ,-   -+++X$&$;;224@oo.. --  ,-++++XO* <,--1   ,---<  ,- , ",
"     ,,<--   %.===&>>@;;;=Ooo+-- -,- --+.$&++- - 1  ,---<   - ,*",
"- , -,,<--  1,.&$$O>>@;;:$OOO.% -- -  -- $:.%.**.$&o++ -<-    o=",
"-  -- ,---  ,1  ..OO$=X;;$;;@X.  < - ,-   .*XXO=7::;>oo---   +XO",
"  ,-- ,,<    1 , ooO$=;5O24:@oX*   -  -    =XOOOOOO$#o.+<   %oO&",
"  --- , <   1, ,1,Xo#;;@#524&##=& -<-     --- -, -.*Xo#.+- -%+.#",
"    - , -   ,,  1 - ##$@O454;;>.*.-<-     -,<--,  --,+.Oo*.%+o.$",
"-  - -, -    ,   ---,ooO$:@#$:X.%%%-- ,    ,-<-, ,- , %.o$$.o+oO",
"---  -, -0---,  -   ,.X&$=;@22:O#.o.--  --  <<-,  - , 1+o&OXo%+o",
"---  -, - <--,  -  ,  O$==:52224@oo..   -- -<--,-   , ,%...+3++.",
"- ----  ----  -  - ,--X.&=$X2g2X##X$*  -- --<< ,-   ,  .yOo-<-.y",
" ---    <- - ---   ,   @$=$X445@@OX.oX$&O*-0<-,,   -,- -.y#o--,+",
" --<   ,<- <- - ,  ,   %.*X##@2p;@;X@#$$#X*<<- ,    ,- < .+X.-,-",
"  -  -  <- - 1-  -  --  +%#@O&$;@o.&.+ --OX<<- ,    , -<< %+Xo.&",
"  ----  -- <-, -,-      %X@O.&=:;>>:X+ --#X<-- ,--- ,--<-  %3..=",
"  - --  -0---,----     ..+%%%.$2@>>O&o -<2O<-- ,---,, --<-  3333",
"+ -- - --< - ,--   --- .+%++%%@@@@@#X.--O@$- -  -.XO.O*---   ,,*",
"..-- , - < - ,-- - ---.*+++ +o#@@@X#..-$X-&- --1OX##oXO.<-    ,*",
".o.&-,  -<1- , ---  --*&++  %oXXO@XXX@@XXX$< --X.OX, *&O&  -- ,*",
"#O.+., ---1- , --- -  XO+,  u+o*==@#o.oO$X.< -O&oo , +.&$= -- ,.",
"X@&oX. --- - , --- ---X$+,  ++o.O&@o3--@$%+%%.O#.*...%*$.%  - 1.",
"X@X.OO++ - --,, , ,---#=+1--+%.X$@;;. Xoo....@Xo#&OO#@$$O.*---..",
"@;;O#X.+%<---, -   --->$%1--+%XX:;:::$X<-+-XOO&&XX..XO&&.X$$-X.+",
"@::$OooX*.---, - pp--->@%%*..+X$$$::*--<<-..o--, ,- -< -<+XOOO..",
"##@X##OXXo%  ,  Xp#y#o>>X@=7$..o>;$=$- --.XO-- , ,  -  &*...%.++",
"o##X@8@&O#.*o+%.X%++++.OXo..**oX@@;$$.-- X#O-< , ,  -,*&:.+%-,1 ",
"o.o#:;:;@X#$Xoo..=*+o..OOXOOX..O:;;@#3q=&#>..oX,-,  - *$$% - , ,",
"+%%$;@;:@5;#..O..Xo3@;X>X===&##$:72@#3q@$$OOO.$.-  ,-+**%-<.&.. ",
".3+=$#@:&;@X.O.+.@.+;;@#:D7:4X@:&:7#%+qoOOO.XO$O%  ,+**.<-3%*Xo%",
"-+ %=.#=*@OXXo+>.:O3X##o@::45822::2>%o- --<-.o$=XX +*++ <%O++.+o",
"--+%*.+$*OO.O+oX$:O3u+o+X#>X@>;O=:;o%3O- ----oOO#X.&&+  <%&+-1.%",
"%.%%.++...OXo.+.&:Ou33%u+*.++..o@@@%iqO$ -----$OoOO&&%  3X.--1 .",
"&o#@#>oo.o.*-< -O@X<,,  ,1--3o.X@$%3uiO$&--- --oO.O&=%  .=.--1 %",
":o..++X*.%3  < -o$=<     %*+3o.oO+3iio*:;#.....%.OoO:$%-%O.--1 .",
"%   , , 1<< ,< -+&*<,  *.>@@oo-  $3io.*222;O........X.X$=bXo%&*o",
"..%%%.,  00-,-  o..<, .&oo*+ ,-  .%3.**;;2:@@&.#$:&X..#=$=OXXO=o",
"O@##@@#.O0<-,<  +X$=$oO*o  ,-,   -.3XO58X;4@X@@X;b@o.#>@=:@$$:Xo",
".&@@#X#>#Xo- <  oO++&Ooo--  -,   --..o>X;O:@X#;55p4>#@@XO;:222@>",
"%*....o>@O.X.<1--.O$@oo    - , , ---.oo@$O$@@$;884XX@O;@.;:2:24#",
"-,-++oXX@>&X..1 -.OX#+o    -,,     -*Xo@$$==>X:;84>X@X@#.$$$OX>#",
"-,- 1 %.Xoo#&.% --.#X+, -- -o,   , -&.oO$&O.ooXO;#X#...OO%+%%%%.",
" ,    ,,+*.o&&o+-- oo.- -- oo,, ,  -..o&X..--  -X- -, .=.++++%%%",
" ,  --,  <&%o#@X%--Xoo<---oOo,, 1  -.+oOX.-  1-1X#@OooX.&-<--1+%",
" ,   -,  <- +o#@..*O#+<- oO$O,    ,-.*XooX-XXX - - - ,--r-- -1 +",
" ,   -,- <-,,oXO.&&$O>oo#O&&$O  1-1<1.X#oOw&..XX  1- , -<-  -1 ,",
" ,    ,  --- <.$O&$=;>>#@O$=$*+o1-,-1oo#X*wwwoO.X- -   -<-   1  ",
" ,  - , ---- <,...%%++.X#@&$&O+%. ,- *.o@:$o %@.oX <-   <-  ,,- ",
"-,  - ,--<-  <, ,, +++%.XO$;@#ooo+oqqq.oo$$o.&>oOXX<-   < .#>#:$",
"-,    ,--<-, -, 1,&+,1-1#O.O##o>#Oowqq+o.&$##X;:X@#oOXX.XX#>>$>>",
"- --   --<-  -, 1o -11-.#X.ooX..XX.owqq.$O.&&@;24X##@X&.*X..ooXo",
"  --    -<< ,-, O. <&&O@OO.dddqq 1 -1---&.X&.>X@X.XX@#@X&.*X*%$O",
" -- -+.%.*...oX=$ooXOX.#X.dqqqdd,  -1--   ...X#o..XX@X@O&O=OX..o",
"-   oo.oO$@@#@&&@>#XX.+o. ,qdd%$#o -,<-  -<+.$*++.>>$X@O&&=@O*.o",
" - &Xo.o...o#o.@Xo>O$$+,-- <%%&==#oO,--  -< 1++++.ooO>$&.@@X@&o+",
" ..XXoo.3.%%ooO&O..%*1-1---<-.&=:$@OOO*..3< 11< +++>$oO=Xo#XX*o+",
"-OOOX o+, <+++@*Oo%+. -, < <-,*&=@$@@XXX#.oo, <- ,++%%$$O3oXXOX*",
"-X&X  X3, <%..oo%.-<---,-< <-, &O.OooX..XX.o%1<- , <+3%@O..@Xo++",
".o.- -O+ -<+o .X.%..o -,-< <-,- Cooo+%%+%o..oX<  , - 133%O..@oXO",
".#O- -O.,-%oo--*OoXXooX*-6 <-,- CCoo-  ,-%oX$X<  ,-- 1-3++%oo.>$",
"+>+- -.#..#. -<++o++*>O*.6 <-,- Co---1 1--.o;XX--,-< 1-< +3uu%%%",
".o%- - o@X.- <<dddd<+o>X.6 < ,--o,---   --o%$OX.X,-<   <  < -u++",
"&oo  -    -< -<ffdd<<+$$X* < ,<-   --    -<o$$#o.o+<-  <  < -1  ",
":.o- - ,,--0 -<&=o+<<+O&XX <,,<- %+%*o.,--0<.X+o##.o&X-<- -,-1  ",
"=.%-   ,,--< --.=O+r<-+.#.-<,,--..X.+++.--<<,,<*X##o&=X++XX, 1 -",
"oo%  - , --...%*==.r--+OO=X+,,-&$O.---+.----,,<-< Xo&>@@@@@@$& -",
"o.o++%+%+...*.O===-< - +O=&ooO$$OO.+.-%o   - ,<1 1<-+....&.>@;&O",
"o$=.oo.&&$=&O.X&$&-<,-  ++.XO..O&=$#O$*. --  1< ,1<--+oOOXO=@>;;",
" .&.+o#XXX$=X++%.%-< --- <++++XXO$@@$$XXo..- 1<1 1< ,,y..&@@XXO@",
",-- .oo++oO:*<-fff-< --- <<--,+++Xo#@=@@#.=& 1< ,1< ,,-yy;@>#oOO",
"  -1- ,o+o@..--ff.-<0--  +, -, - +++*OX#>O=&,,< -,< , --<yX>#o.o",
"-- -  o@>>o. --oO*<<  -,++, -,   --++o%..$=*= < --< ,1 --,%#o+.&",
" ---..#.o++  --XX.<.*..+++   , - --- oo>>&OX$=<  -< ,,, -  y+yoO",
" --XX&Xo+    -%o.*+.OOO*.+   ,--  ,, -.->>>X$===1 < ,---<  ,y.oo",
"   &&OOo.. , -+ooo.X#oOO.o  -,-- -,, -.% 99>$$==O3< ,---<   -.OX",
"- *OOO......1,&...@Xo.XOX*.-*$X..o    -.%%%%9v88>%O;-- -<-   X@o",
"- +XOX....o.*$Oo%$O* ++X&X.oXO##OXXo ,-   +++%v>9oo;;- ---   X##",
".o.X.XooX.oo&&OX%X.<  %+.#X#.X$=@#X..%-    -+++9@>X@@&.-<   .X#;",
"&++-- ,.* +oO&##.o-   -.#.#Xo..OOo#$XoOX....$$9..o+.O&+.<-XOXo$;",
":%+ - ,+%  ,OOo>$X.   %+..#*.%...+o=XoO:$#@&99Oo&#..$$oo%@$$:$@@",
"=++- -,o+    Xoo$$O*,++X&X..%,- 1%+.&.oXO&99$b7@=##oO=.+.$777:O#",
"o.-  -,*-0---,&*..@Xo.XOX*.--,-- --%.XO:X++oOb:2;@@O#&&%*=77::45",
"X+-  -.*- <--,  +o.X#oOO.o--- --1 --...*iiOo#7:::@X.oX.#X$$:;@52",
"o ---o  ----  -++++.OOO*.----  -1-<<- .+i+7$X;2@@@.++.%@#XX5@#44",
".--- X  <- - -+++++. hjjjhhhVVSVSVhjhhjjjhh 252=o.&$O>%O#4222$;&",
"#--< . ,<- <- - ,  ,k6<<<66-  , 1 6<66<<<66k;5;XX$@;$#@&@4g22:8.",
". -  +  <- - 1- ,-  k-6<6--  ,1,1,-6--6<6--c@4@#@:;@#@@$25228v>B",
". ---+  -- <-, -,-X&k-666-- ,,1,j,-6--666--c;$::@@@@;:@;p@8v>.BB",
"X - +-  -0---,-- XXOc-666-  ,,1,j, 6 -666- c5@;=$@X@@X@@;@8>9.++",
"  --+- --< - ,--,o#Xc ---  ,11j1j1 -  ---  t:;o.&@;;;@@o@O9o.%. ",
"- -- + + < - ,--,.@Xc ---  ,11j1h1 -  ---  t7@#@$@@X85#.;9+oo%, ",
"- ---+  +<1- , - #$.t  -  ,66666666666 -  ,t@#X$OOX#XX2&X%+.. , ",
"  ---,++--1- , - X;@t  -  ,6sMsAsAsMs6 -  ,t$X&Oo@&@@@@.9+*-- , ",
"  -- , --- - , - X;;c ---  6lNlMlMlNl6---  tXX@:#@@@X;@o%+  - 1 ",
" ----  - - --,, ,O;@c ---  6xmxNxNxmx6---  t@4$@X@@@@;:O.f ---  ",
" ----- -<<---, -$$@@c-666- 6zszmzmzsz6666- c@4;@.XOO:5g$.- --   ",
"  ---- -<0---,+O$&@>k-666--6zlzszszlz6666--c@XX#o.O:2:;>o  <-  -",
"  ----  -<-  +.$$O@;k-6<6--6zxzlzlzxz66<6--c@$$@..O;g:@@w -<-- -",
": ----  --- =o>X;$=4k6<<<666zxzxzxzxz6<<<66k;224.Oo$7:Xw  -1--1 ",
"#=----  --<O=XX@X&&2k6<<<66-zxzxzxzxz-<<<66k2224@@X54X@w-- - - ,",
"#@..XO  X.#>#X@@>#&:k<<r<<6-zxzxzxzxz-<r<<6k2:44&X;@XXw  -<-  1 ",
"$@.#OO..&>O>=O##o#$:a<rrr<< 111111111 rrr<<k$=OXO.@@XXw  -<- - ,",
"@;@@XXXo#@@X=@@#XO$:a<rrr<<6-- - -<r<<rrr<<k&:O#..@@XXw   -  , -",
"X=@;@@XX#@#@@#OO.$;$arr0rr<<6--- -<r<rr0rr<a@OO...@@@XX - - -, -",
"O=#>XX@@Oo&X.O..%OXXer000rr<66-6 6r0rr000rra8@&Xo.@@@XXw-  --   ",
".>X.#XXXXoo.O..oo..+er0t0rr<<6-6-6r0rr0t0rra>ooo3o.@@XXX   --  ,",
"o$:#oX#.+.%%*Oo+X.+ue0ttt0rr<<6<-<rtr0ttt0reo3333%..#XXXX <--   ",
"#O;>o#O.+%%%%+++++++eenZneeeaakakaeneenZneee33oo33%.>o@XXX- --- ",
"@#;@....%&%%%%+++++-, -   o&$$% ..O@@;X:@X*..o  -33%X#>:@X@- -- ",
"#X:=$+.%&=%%%O+++- -  --  *,-&o.**&$$@>=:*.o -  -<%%%>X##XX#  - ",
"O>$$%o#%==*o+O++ - - 1  --$ --o.O==::@;$Ooo- -  -1-%&##.o##..X--",
"@.O*%XXX@OXXo%+--     ,   &-  +%X&:=;;$$..o-  -- - -*.o.#@X>>@*%",
">++%%.#X@@@#o+O ---%o%o.XO&OO.%*o>>>@;:&.o--   ---  1.ooX#X#o.=$",
"@+%%%X#@@@@@%%. -X*..*X##OOO.%.X#$=;$=$$o ---  --- - -o%%.%+o&oo",
".+%%%&O>>@2$.%.@oo#&OOOo-- o .O.@:7$O@$$O ---  --- -,--%o%.#o>@X",
" ,%%%X:>>;:=&.O@.oX@&OX.-- o.*O#$=:OX...--    -1--1   --..+.O#@;",
" , %%.&.o@;$&O@#%+oX&X.o   o*&$$@>#X&+o---  -- - - ,  --<.%%*X.>",
" ,  %@X;@;p2@##X*.%XXOoo.. X**:gX@O*.+o --   -OooXX..o$---3%*OX#",
" ,   o.XO@@544X$=$@  $o#&XoXo.#;@@&O&8+,-    .&- - ..+o=-- 3.*oo",
" ,  -*$X##X2g2X$77$X- -o.X.o##o>O&O&;g+ -    o#  , ---++OO+qqq++",
"-,  - .oo@42225:77$O  - %OXo;4>#$*O&v;;+    -&X+oXO#oo=$+o.++qq+",
"-,    .o.#O:22@;:7:X.1- .$$O;2@X*%+++++++   -OooO@:@@$OooOO.%+qq",
"- --   %%%.X:$#@::$oo1-.$&OO$$X.+u+ , - ,    oOo.>#&...%%%.+o+qq",
"  --    .*.>;;454O@$##.$&XO*&X.&o1 11---  -- oX&O#OO-      - -- ",
" -- -  - &=##&425#@;;#O..OX#..%-,  ,1--   --  %>#o-       ---<- ",
"-    --- <*Xo@:42O5;=##=&..XX=&ooXX ,<-  -- -  ##o-       --   -",
" -  - --  3.X@;;$;;X=;>.*.o+%oO.+%O*,--  --    o#+<0 - ,  <-  --",
" -  ,1--, -%.OOO$:;;@:X.%%%--   - o.+--, -- , -o., -1-    --    "
};
