/* XPM */
static char *SW2WDMET[] = {
/* columns rows colors chars-per-pixel */
"64 128 62 1 ",
"  c #473323",
". c #3F2B1B",
"X c #1B1B1B",
"o c #2B230F",
"O c #332B13",
"+ c #4F3B2B",
"@ c #272727",
"# c #1F170B",
"$ c #170F07",
"% c #372313",
"& c #4F3B27",
"* c #574333",
"= c #533F1F",
"- c #131313",
"; c #232323",
": c #533F2F",
"> c #43331B",
", c #4F3B23",
"< c #5F4323",
"1 c #432F1B",
"2 c #5B472B",
"3 c #5F4B37",
"4 c #4B371B",
"5 c #2F2F2F",
"6 c #3F2F17",
"7 c #0B0B0B",
"8 c #2F1B0B",
"9 c black",
"0 c #4F0000",
"q c #67533F",
"w c #5F0707",
"e c #6F5743",
"r c #430000",
"t c #731313",
"y c #373737",
"u c #470000",
"i c #5B0707",
"p c #7F1B1B",
"a c #675333",
"s c #670B0B",
"d c gray23",
"f c #831F1F",
"g c #774F2B",
"h c #0B1707",
"j c #A33B3B",
"k c #6B0F0F",
"l c #6B4727",
"z c #9B3333",
"x c #8F2B2B",
"c c #8B2323",
"v c #434343",
"b c #13230B",
"n c #B34F4F",
"m c #BB5757",
"M c #232B0F",
"N c #C76363",
"B c #AF4747",
"V c #070707",
"C c #0F1700",
"Z c #3F472B",
"A c #836B57",
"S c #373F27",
/* pixels */
"6Ooo@@>$ooooh7OO@X;@oO@oooOoO@5@o@XXOo@@#o#o@@>oooOohXoO@X;X$o-o",
"oooOo@O$OOXX-7@@@o;@oO@XoooOO@5OooooO5@@$##Oo@OoOO@XX;X@@o;X$#XX",
"6o@O@O@-@oXo#$@O@X;@oO@oooOObOo@XoXoOoO@##XO@O@@@o@oo#XO@X;X$#Xo",
"X;O@oo@XX;hX#7oyXXX@oO@;-XOOo@@5-;;;OOOy7Xo@oo@5X;bXoXoyXXXX$#X;",
"$X>OOOO9$Xoo-$X9$-oO@O@9$-@o@O69$XXoO6O9$-oOOOO9$XOoXoX9$-oo-#X9",
"Xo@@@@O-Xo;#-$XXX#;o@O@--#5oO6OX-oXX@OOX7#X@@@OXXo5#XoXXX#;#-#X-",
"X@>>@@Oho@X#-$X@o@Xo@O@@X;@oOO6@o@Xo@@@b7Xo>@@Obo@@#Xo@@oXX#-#XX",
"@@5@O@OXOOXX#$XOOO@@Oo@OXo@@O@@@oOXoO@O@-X;@O@O@OO@Xo#@OOoXX#$Xo",
"6Ooo@@>#ooooh7oO@;5@oO@OooOoO@5@o@X@Oo@@oo#o@@>oooOohXOO@;;X$#Xo",
"oooOo@O#OOX@-X@@@O5@oO@@6ooOO@5OOoOOO5@@###Oo@OoOO@XX;@@@O;X$#XX",
"6o@O@O@X@o@>o$@O@@5@oO@O6oOObOo@@o@OOoO@ooXO@O@@@o@ooo@O@@;X##XO",
"X;O@oo@;X;b@o-OyX;@@oO@dX;OOo@@5X;55OOOy-;o@oo@5X;b@O@OyX;XX#oXd",
"$X>OOOO9$XOOX#@9$XOO@O@9$X@o@O69$X@OO6O9$X>OOOO9$XOO@O@9$XoOXo@9",
"Xo@@@@O-Xo5oX#@XXo5o@O@XXo5oO6OXXo@@@OOXXo@@@@OXXo5o@O@XXo;o@O@X",
"X@>>@@Obo@@oXO@@o@@o@O@@;5@oOO6@6@@6@@@bX@>>@@Obo@@o@O@@o@Xo@O@@",
"@XXX#X#X##XX##X###XX##X#X#XX#XXXo#Xo#X#XXXXX#X#X##XX##X###-X##X#",
"9$$o$####$######$############o#997$o#####$#####o#$##########o#99",
"9#o.#Oo.##%o%oo.$ooo%%oooo%oo%#99$o.ooooo#ooooo%o#o%oo%Oo%oo%#99",
"9#.3.=.+MS++  .+*O.O  =+ +   3%99#.3..  +%.+ .:*O%&: &&+1  &3%99",
"9#.3>= :;5++  .  ..>  =+ + +.3%99#.3    :8.*. = .1 1 &+&1+ +3%99",
"9#.3 :.2o.+.+ .>= .. =: * +  q%99#.3     8%2. ++ 1  * &&1,& q%99",
"9#.* :.:O + +  +=...=+=.: +. 3%99#.*. 4& 9%< 4=2+1  +   .,&,3%99",
"9#.:O2O O +  ++ 3 ..+ :+++ ..3%99#.:   & 9% &,2: 1<+* & . &:3%99",
"9#.3 qO . +.+++ * >O+*: +++..3%99#.3  O &C%4+,<:.1,,+ &+  .23.99",
"9#.* q.>   ++* =*+   2 > ++.63%99#%*     8% 2:& &1+<2.& . &<3X99",
"9#%* g >=  + * =3+  >*< + +.63%99# *..  .%1 *: & ,+*3O&  + <3-99",
"9#+* q++*++++++ 2.+O <=   +. *%99#.*  & .%143,+,&, ,,8  . :,*999",
"9#.*.e=2++ . +.+g +. *<  >+..*%99#.* &. &1 +*4:44,& :9   +::*399",
"9#%:6< <=  . + +3.*+.:2++.+..*%99#%: &.& .&+*+2  < , 92 <,,+*&99",
"9#.* ++=   ..*6=*+  .+< +. >.*%99#.* && &. ++&,. <&+ 8+4,*&,*199",
"9#.* : +=  .+=.=3+    <.2+ . 3%99#.*  &  . &2*,%.2,,&O . *&&3.99",
"9#.*+  *  +   > 2.+O  <%<+  .3%99#.* & &   &,<&: 2+3 %+. + &3%99",
"9#1: = *   . +.+g +.  :2<= . 3%99#.: +   .&,+&4..+ :.8  1  +3%99",
"9#1*   +  +..+O+3.*+. :=22   3%99#.*    &.:&+ 4 4*   8    &:3%99",
"9#%3:  +. ++ +. 3.*+ +=+22+. q%99#.3.&& &,&+ +   & + % ,   <q%99",
"9#83+++=. >+  .l2@ + +=+=a2. 3%99#.3 &  ., 2&+6  4 +&1& +&&+3%99",
"9o*:**+++++  + =l. +=<=>=aa .q%99o.: ..6+. 2     &+ &1&.   <q%99",
"9o.*+* *  +  +% 2>.   : :2a .q.99o.*1.6 +. = & . &   4&  &.&q.99",
"9o.:+*:     . %+<>.     :,2<63.99o.:.    .,  > & &&+  , 1& &3.99",
"9#.*+**+   .O.8 2O.     :12<63%99#.*      , +6  &,,   2&   :3%99",
"9#.3= * =1 .. 8+2O.   + : +243.99#.3 O +&. =*++ 4,,    ,1&  3.99",
"9#.*= +.=1 .. %=<.1+  .    243.99#.*1. +,.+++   ,,,  1 & ,&&3.99",
"9o.* 2  >%++  .+:%1+ = +=+.=+3.99o1* .  &  ,+  &<,,  1+& +&<3.99",
"9o.3 <   8+* +62=%1. =++=+ 4 a%99o13 .  +  +,  ,<<,& %&   &&a%99",
"9o.:  2  *    .2+%1. <+ =+  4e%99o%: .  & .+4 4,::,=+8:&: &:e%99",
"9o%* +< .:     :<%%>+:+ 4+  4e%99o8* .+.44.  14&:=+,:*&&  &:e%99",
"9o.* +++.++O++ =3%%++<+: ++.4a%99o**   .&+.&  ,4,+:&&+4,:+ 2a%99",
"9o%*++++ ++O   +g%%=+<**.++.13%99o&*  .1= .&%&4&,++   +&:  >3#99",
"6>.o5;o..oooo;o.vvvvvvvdvvvvvvvdvvvvvvvdvvvvvvvd..>>M;%>5.;oO.;.",
"oooo$XooOOoX-X7ovdddddd5vdddddd5vdddddd5vdddddd5OO@XX;X@5o-XooXX",
"6o@o7oX@@oo#$$-Ovdyyyyd5vdyyyyd5vdyyyyd5vdyyyyd5@oXoooXOoX-XooXo",
"X;OX$#X5X;o#$-oyvdyddvd5vdyddvd5vdyddvd5vdyddvd5X;bXoXo5XX-XooX;",
"$X>o$oo9$Xoo7#-9vdyddvd5e3e=<4<<<e3e=<4<vdyddvd5$XooXoX9$-#;ooo9",
"Xo@X7XoXXoo#7#-Xvdyddvd5+ +61%111+ +61%1vdyddvd5XoXoXoXXXoXooo--",
"X@>o7Xobo@o#7#-@vdyddvd5$$$#uistttsiu#$$vdyddvd5o@XoXoXXoo-ooooo",
"@@5X$Xo@OOo-$$-Ovdyddvd5$$#itcxzzzxcti#$vdyddvd5OOXXooXoOo-ooooo",
"6Oo#7Xooooo#h-#Ovdyddvd5$r0fBnmNNNmnBf0rvdyddvd5oooobXoo5o-Xoo-o",
"oooo$XooOOo-7XXXvdyddvd5$0szjBnmmmnBjzs0vdyddvd5OOXXX;XX5o-XooXX",
"6o@o7oX@@oo#$$Xovdyddvd5$itxjjBnnnBjjxtivdyddvd5@oXoooXooX-XooXo",
"X;O@$#X5X;o-$-o;vdyddvd5$ipffxzjjjzxffpivdyddvd5X;bXoXo5XX-XooX;",
"$X>O$oo9$Xo#7#X9vdyddvd5$iwtpppfffppptwivdyddvd5$XooXoX9$-#;o#o9",
"Xo@X7XoXXo;#7#X-vdyvvvd5$00ktpptptpptk00vdyvvvd5XoXoXoXXXoXoooX-",
"X@>o7Xobooo#7#XXvdddddd5$0rsiiiwwwiiisr0vdddddd5o@XoXoXXoo-ooooo",
"@@5X$Xo@OOo#$$Xod5555555$rrtsww000wwstrrd5555555OOX@ooXOoo-oo-oo",
".Oo#7XooooO#h-oovvvvvvvd$$rtpfckikcfptr$vvvvvvvdoooObXoO.o-XooXo",
"oooo$XooOOo#7XX;vdddddd5$Vuk000i0i000kuVvdddddd5OOX;X;X;;o-XooXX",
".o;o7o;;;oo#$$XOvdyyyyd5$$wu$9$rur$9$uw$vdyyyyd5;oX.ooXOoX-XooXo",
"X;OX$#;5X;o#$-o5vdyddvd5$uwr$$$0p0$$$rwuvdyddvd5X;b;oXoyXX-XooX;",
"$X>o$oO9$oO#7#X9vdyddvd5$st0r$r0$0r$r0tsvdyddvd5$XoOXoX9$X#oooo9",
"Xo;X7;OXXo;#7#;Xvdyddvd5$stcpsw$$$wspctsvdyddvd5XoXoXoXXXoXoooXX",
"X;>o-;Obooo#-o;;vdyddvd5$rkw0r$$u$$r0wkrvdyddvd5o;XoXoX;ooXooooO",
";;5X#;O;OOo##o;Ovdyddvd5$$uur$ur0ru$ruu$vdyddvd5OOX;ooXOooXooooO",
"6Oo#-@>oooO##oOOvdyddvd5$$$$$0wtwtw0$$$$vdyddvd5oooObXoO.oXXooXO",
"oooo$@OoOOo##o@@vdyddvd5$$$$$u0sws0u$$$$vdyddvd5OOX@X;@@;oXXooX;",
"6o@OXO@@@o@##o@Ovdyddvd5$$$$$$u#$#u$$$$$vdyddvd5@oX>oo@OoXXXooXO",
"X;O@#o@5X;b##oOyvdyddvd5Agalglgggggalglgvdyddvd5X;b@oXOyXXXXooXy",
"$X>OoOO9$XO##o@9vdyddvd5vdyddvd5vdyddvd5vdyddvd5$XoOXO@9$Xo;ooo9",
"Xo@@X@OXXo5#oO@Xvdyvvvd5vdyvvvd5vdyvvvd5vdyvvvd5Xo;o@O@XXo;oooXX",
"X@>>@@Obo@@ooO@@vdddddd5vdddddd5vdddddd5vdddddd5o@@o@O@@ooXooooO",
"XXXX#X#X##XX##X#d5555555d5555555d5555555d5555555##XX##X###--##-#",
"9$#o##$#o#######$####$#o#####o$997$o#######o######$797######o$99",
"9#o .OoO%.#%ooOOoo%oo$o.o%ooo.#99$$ o%oooo%%%ooooOo#$#o%%oo%.#99",
"9#1q=++*2=.++. 4 +  :* <    .q%99#*q  & 42**  1 ,& 181. , . q%99",
"9#%e: .:2+O+= =:  = + ==+ <=.q%99#.e  ++,2:+  % ,,  8.. &  +q%99",
"9#8e+ .*:+>+4 +:= =>   =+    *.99#.e  ,><3   &8 ,,  %  4& . *.99",
"9#*e+  +=*. * +:  :   +=+  = 3%99#.e + 1<34..+*&:,  % .   .&3%99",
"9#1q=  *==  * 1=. :> + ==  + a.99#.q &&1g3   + &2,,.1.1  1.,a.99",
"9#1q= ** =. *+1=. <  + 4=.   q%99#.q   1q3   :&&,,4 1...  .&q%99",
"9o%q: ** +  + %+> = 6+=4 .=y q.99o.q 1 .<2. d+,<.,.  . 1+5  q.99",
"9#8q +: =:> +:8=%  +>+  +. . q.99#.q .+.22. y 2+ ,.  .  +.  q.99",
"9o*3< : 3=.4 :* Oy   :>.=>   e%99o.3 &<&22.  12, :>+  . +   e%99",
"9o.q2.= :<.= +  O.*  =  = . 4e%99o.q  <&<2.. .<,1,    O  .  e%99",
"9o%e<=2 .<.+ + +..=+  + =.%  3%99o%e  <.32 ..12< ,   ..  .  3.99",
"9o%e+<a  <.+++ +.y++ + 4=.:+ 3%99o e  2.231..1:= <& ...  . &3%99",
"9#%e2+2     ++ +.+*  =+4*. + 3%99#%e +:.231. .:2&&&. ..... .3%99",
"9#%e:+*. => ++ .O :*6<+.: +  a%99#%e +: =3%...:l,<4...O..  .a%99",
"9#%q2 <> =  =< + ++* ++ <.=  3%99#%q +.>,3%%..lg,<1. 1O. O. 3%99",
"9#%32 <  =  +*  %=:< = . . = q%99#%3 :  :2%%..2g,<1 .1O. .. q%99",
"9#%e* :. =.+++  . =+.:  =  + 3%99#%e + 6*<8%.O<<<2% 1 . ..  3%99",
"9#%e2   > .+*++ .=+:.:= <  +.3%99#1e  . *2X%..:<<,8 ..   .  3%99",
"9#%q2  .><>+*  %O,= =q>><  + a%99#1q  ..+2-%. :,* * 4O.   . a%99",
"9#%q= = O*  3 %8%<::=3  =  + 3%99#%q+ . 42-%. , * , +.. . . 3%99",
"9#%3 6+ O==.*.898<**:    ..  3%99#83=.+44*-%.++, &,< .  .   3%99",
"9#%3=  +.< .2 898 *<=    .. .3.99#*3 &  1:X1. & 1&:<      . 3.99",
"9#%3+ >  2  + %8% <= :    >= 3.99#%3  & 1,%..  =O  3.    +  3.99",
"9# 3+  = =.+  181.2*++ +  6: q%99#%3 &  &2%.. 4=.  *.   . ..q%99",
"9#%3==   *.=   8..4  > +2 >2 q.99#13.   *,. .. ,O& + O44.: .q.99",
"9-%3**++ 2.<.  %   +++  = >+=q.99-136.  1,.4 . ,.:.: 114.+ .q.99",
"9#%3  = *:.*   % . >  +   >= q.99#%3..&  41,1.4<.+O  O1, ,6.q.99",
"9-.3+ +=++.+  :+O   . =  +>+ q.99-%3..  ,+141O&<. .  .4, &  q.99",
"9#%3: + .<  +   .    >+= y>  3%99#.3  . *+%.1 &,. ..+O.4    3%99",
"9#.*:+ + < .++ *O+=O1 += + + 3.99#%* ...+ 8 1& ,. .. . 4 &  3.99",
"6>..55>...o>M;>>55Z5.>5>>>>.>5Z5>555>.55#>..55>...>oM5>>55Z5.>5>",
"oooOo@OoOOXXXX@@@O5@oO@@6OoOO@5OOoOOO5@@$ooOo@OoOO@X@;@@@o5XooX@",
"6o@O@O@@@oXo#$@O@@5@oO@O6OOObOo@@o-OOoO@$#XO@O@@@o@oo#XO@X5-o#XO",
"X;O@oo@5X;hX$-OyX;@@oO@dX;OOo@@5-;X5OOO;7-o@oo@5X;bXoXoyXXX-##Xd",
"$X>OOOO9$Xoo7#@9$XOO@O@9$X@o@O69$X-OO6O9$7oOOOO9$XOoXoX9$-o#X#X9",
"Xo@@@@O-Xo;#7#@XX#5o@O@--o5oO6OX-o-@@OO-7$X@@@OXXo5#XoXXX#;$X#XX",
"X@>>@@Oho@X#7#@@#X@o@O@X-5@oOO6@o@-6@@@h7-o>@@Obo@@#XoX@oXX$X#X@",
"@@5@O@OXOOXX$$@Ooo@@Oo@o-O@@O@@@oO-6O@OXX7;@O@O@OO@Xo#XOOoX-o$-O",
"6Ooo@@>$ooooh7OOXX5@oO@o#OOoO@5@o@-@Oo@@o$#o@@>oooOohXoO@X;-##-O",
"oooOo@O$OOXX7-@@Xo5@oO@X#OoOO@5Ooo#OO5@@#$#Oo@OoOO@XX;X@@o;-##-@",
"6o@O@O@-@oXo$$@OXX5@oO@o#OOObOo@Xo-OOoO@o$XO@O@@@o@oo#XO@X;-##-O",
"X;O@oo@XX;hX$7Oy-X@@oO@;7;OOo@@5-;X5OOOy-7o@oo@5X;bXoXoyXXX-##-d",
"$X>OOOO9$Xoo7$@9$-OO@O@9$X@o@O69$X-OO6O9$7oOOOO9$XOoXoX9$-o#X#-9",
"Xo@@@@O7Xo;#7$@X-#5o@O@-7o5oO6OX-oXX@OOX7$X@@@OXXo5#XoXXX#;$X#X-",
"X@>>@@Oho@X#7$@@oXXo@O@X-5@oOO6@o@Xo@@@b7Xo>@@Obo@@#XoX@oXX$Xo-X",
"@@5@O@O-OOXX$$@OOoX@Oo@o-O@@O@@@oOXoO@O@-X;@O@O@OO@Xo#XOOoXX##-o"
};
