/* XPM */
static char *SW2WOOD[] = {
/* columns rows colors chars-per-pixel */
"64 128 60 1 ",
"  c #533F2F",
". c #43331B",
"X c #5B472B",
"o c #4B371B",
"O c #3F2F17",
"+ c #2B230F",
"@ c #272727",
"# c #6F5743",
"$ c #1F170B",
"% c #67533F",
"& c #332B13",
"* c #533F1F",
"= c #774F2B",
"- c #775F4B",
"; c #6B4727",
": c #5F4323",
"> c #5F4B37",
", c #373737",
"< c #875733",
"1 c #675333",
"2 c #170F07",
"3 c #775F3F",
"4 c gray28",
"5 c #7B634F",
"6 c #131313",
"7 c #1B1B1B",
"8 c #53573B",
"9 c #3F472B",
"0 c #836B57",
"q c #836B4B",
"w c black",
"e c #232323",
"r c #4F3B23",
"t c #574333",
"y c gray34",
"u c #2F2F2F",
"i c #0B0B0B",
"p c #434343",
"a c #7F532F",
"s c #6F7357",
"d c #5B6347",
"f c #070707",
"g c #4F0000",
"h c #8B735B",
"j c #373F27",
"k c gray31",
"l c #8F7753",
"z c gray23",
"x c #8B0000",
"c c #5B0000",
"v c #B30000",
"b c #676B4F",
"n c gray39",
"m c #8F5F37",
"M c #5B5B5B",
"N c #7B7F63",
"B c #4B4B4B",
"V c #E30000",
"C c #7F0000",
"Z c #6F6F6F",
/* pixels */
">4zzzzzzzz4>z44z4%#%yk%%#%y%--55--yys-s0-y#5s5ys5-#5-ys0550-#---",
"Oe$6$$$$$$@@$@@++oX. ..@*:  ;X;==Xo=#o>q< X# #oX;::ao>#<=#-%:;X ",
"+666$6$66677$7767&&$&7ee. r..   r  999j 999r r.9r        r rr.j&",
"&@@e@e@@@e@@e@@@&O&@&@&&&rO&.O*o.or.or....O *oOro...rr.o.99ooO&+",
"   , ,  ,j9  pp, >t 4p    9    r              .             . ..",
"t ,,,,  ,,tBppp,Bt8 8 88-%b%%8-%0-%%-%8h#%%bb%>%0%%-%%-#%###%#%%",
"O+$$$2$@$$.@@@@$...@O@. Xo#oX  X33XXX *q== -;;X:# X#XX=1:1 #o;X*",
"+622222222+$2$$7e7+777e&.&OO...O.tooOO&>.OOO&OO&.OO.&O.OOOOo+O.+",
"ip2++$$$$$$$$$677.O+&o.k+# Xo1....r:>> o oo :X:-$-> ..<   **1O o",
"242++$e$$e$$$$$$$+.@+.,>$#Xoo ...r;X::o>  oo:=:q$q*:oO=oX .%>&X.",
"2p$$@$@$$$$$$$+$$+@@O  k+-. > oOO %Xo .   Xoo#oq$0XX*;>.   #1. ,",
"2p2$.$+$$$$$$$$$@@+@@O >$-oo oo.   X .OX.Xo:o<X-+-;X;*XoX. >X  .",
"242$@$@$$$$@$$$+@@+@@+ %25#&      o% oooo. XX%#-$0o;=  X;ooX>,  ",
"24$$@$@$$$$+$@$$$$@$ OX3$5#..  ,.oo=   X OXXo<<#$0XX<:; XX.XX.X ",
"2p$+.$&$+$$$+$$$$$@+OOX-$-X o >O, &;;o  %O   ;#%$5X1=oXXX%oXX  o",
"i4$@+$$$$$$$$$$&+$@@O.O5$% X..X .o&;#oXX# ::=X=-$5;;<oX XXO>XoX&",
"2p$@+$$+$$$$$$&. @$++.@-$%.=o.oXo O#X::;  oX%%X3$0;:#*X o:oX X>.",
"24+.$e$+$2$+$+***.+$@&+-$#OO=O  uu %Xo.  *oo;;:0$qXo%XX  XOX:  o",
"i4@O$$$$$$+@$+9  .O+++$y$-.o<%oXOo  # .oXXoO=;X-$-XX%o%   OX;X  ",
"24@@$$$$$$$,$@  . .$$@+%$M oX3.*o   %> o#% o> %0$-;>%o    +XXX  ",
"24@@$$$$$$@ @Oo   .+$+O%+# .oXooX.  X#oX>#  XX;5+-;%# .%o;+%XX o",
"24+@$e$$$$.*@.+   .+++O-$5o.&oX >   XX oX>>.XX;3$#;XXX X %&<XX..",
"24@@$@+$$+O:O..O>oO@$.O-$5oooOXXo ooo# Ot # o =-$#%%%Xo=;<$#XX X",
"24+@$@$+$+.*....%O@@$+.-$#; o.*1::*oo=:::  %  ;#+%>%%=oXX%O#;;  ",
"24@&$$$+$$.,,@.  @@@OOO-$# ;.o.XX oXoXo.*:oXX  5+#%=;;oXX; >#; X",
"2p+.$+$$$$, .+.  @.OOoO-$- =Xoo:oXo ooXo:. oXXX0$-X#X:o1 >.#=XoX",
"24@.$+$$$+O @&*.,+,@@.+-$#**X#.X > o.XXX.   =:X-$->>#X.>>#o;;;:;",
"24$.++$$$+. O.o.+@&@@ +-$% XX##o:::o.o:=oo .=o.-$-;aXXo>>-O#>XXX",
"24$&@e$$$$@ ,, O@$@,.OOh$#o ; #O=ooo. ;;;:;X:*o-+-%#*=#X#> >#% 1",
"64$,@e$$$$+ .*X.&$&@OOO0+- .::;:o. # XoX<:;=:XX-+#%%##X # X*3**X",
"28$9&$$+$$$ . %.&+@OO,+h+5XO**==**o  ooX5X*XX:#%+#X;X=*X#oX #  X",
"28$ $+$+$++*.   +@$@.,@h$->    %.XX.1   X=XX>o#0+#=X%-XX>XX >> X",
"24$,++++2+O .X*X+@+@OOO0$%X*X.X#X >oo;X  -% XXoq&-%;=3XX;XX:X X:",
"24$.$@@$$+@.,  %O+O@@&&0$#X#  oX3oooo=oo;X-    -&-##>-a=XX#o=X;:",
"24+.$@@e$$@.9  >@O+...+0$#oo#Xoo=X.XoX%X tt#  X#&-#=X<;; %#.#XX ",
"2p+.$@++$$&.,4 #.++O..+5$#OoX;:o.54 X >#OXoX1::#&-X=X#=XX - #4X ",
"24@.$@@@$$..*O:; ++O+OO3$-O  oXooXX %oo#o>oX3oX-&- qX## 4>5 >> X",
"74O@++++$@@,> >>O$++Oo&5+-OX..o o:=o=X %%  o;=:3+- q%%<X>>-  %  ",
"$4OO$O@@$,@4XO >.++OO O%$#.XoX..%**;:%  # ;Xo=:3+5X##X<X#=<o:#. ",
"24@.+@@@$. >   XX&$O@,@y28.  o;o#X:=o#X:=#:;:;:3&- #1*=X==<Xo#  ",
"24@O$@@$+.*. ,..%,+++..y+#.   OXo1:X oXoo#X  X;#+-:#> %5##-X:XXX",
"24@@$@@++oX. ..@%.O++..%&0...   oo1* *oXo X  XX0+3:ao>#<=#-%:;X ",
"24@@+@@$@ *+ @,,%oO@+.o%$5=:*  O.XoXX=ooX  %>o h+- <=X=X1X3#o#Xo",
"74,@$@@@OX*+.+..%..OO,.%$#o**=%   oX&=:O=Xo##o:-&-X<<%XX*##=oXXo",
"2p&O+@@$. oO,@..%,.O+.O#$#ooooo% oOXoO%O>  O<Xo#&3X-;<=1X<;=.#X:",
"24O,@@@$,O.+.+..1O+@+O.#28O O >t#.o+X.o:OXoo Xo3&-X# X#=:=;=X;XX",
"24.@@@@$...@O@. %.@@@O+-28o.OX oXX. .<&#o>X X> #+-X#XX=1:1 #o;X*",
"24.+$++@,@.@@u, 4&$+@@O0$%...*oo:==o XXXX >X#;;3+3:1*X#>X;:=oX1.",
"78.+++$@,@o+OO.. @@&@..0$#oooOXoo* X: # >XoX*:;3+3:;;;#XX%:%X=XO",
"64,+$++$*&.+.O.o @OO&o.-+5*.*.o, .O1. XXXX:=ooX-+- %<X1=oa:<X>#O",
"24.@$++$ @@...+  @.+o.X-$5a=*oOO, o*1.oXo=:O=oo-+- #=a=<;;oX#X#o",
"28.+++++.+.@..OoX@++O.X%$#:;:=X o* .X1oo;;Xo*#:3+-:X==#<;=:*<X#X",
"24.+@+$@ +O+.@O.X$@@..#-$- oO %%>o**oXooX % o%%-&-*:==1#X<;XX3<X",
"24,$@@$. @@@@OOo.$.+. %-$#X.oooX<X.o oXX X.;X>##+qo<##X#=1XXX##X",
"24.$+@$&X@@O+.@ .+++OO1%$#&.oo.o:%t  ooX %:XXo=3&5 X<qX>X#=11#;X",
"24&$+@$& +O++..o +@+..=%$%.O.o.ooo<: .XXX #:;:#-+0oX<qX%%#=:=:XX",
"2k@$+.$..@@.&&o. @@+..X%$s> ooO oo::oo   ooX:=X5&5oX1=:=;##X=oX;",
"i8@$+O$..OO@@..O4@@@.. %+->%%%%.OO  Xoooo:o o<:5&- ##<;%%-#XXo:X",
"28+$++$,O,O@@O @ @@@O X%$-oooooXX.Ooo%  oXoO<X;5+3 >5a-%%%<;XXX>",
"2k@$@$$,@uO@,O O>+@@+oo0$#o  oXo==oO.X#   XO:1=#+3oX5%<XX;<;;X1X",
"2%$$+$+ +O@O.+.+o+@@+..0$%Xoo oo omX+oo% o <.  5+-oXm;XX#XX;XoXX",
"2k$++$@,$..+.@.@7+@++..0$%.OoOOo X:; u  Xoo=oo1q+-o;q#=X; %t  XX",
"2k$@@$@O@+.+.&@@@$O@@..-$-.oX**.o*::X:o Xo o=o:-+q*Xq%=1=*#X>oXX",
"$k$@+$.+++OOO+.@.++@+X.3$5*.oO*..O*X=< OXXo 1oo3+-XX-%#11o;;#o;X",
"+4$@@+@+O+.@@+.@O.+.+ .5$5=XXX*1  X== - o;:::#X#+-X%##### %X;XXX",
"+4++++&+.OO.@@,@@,@@@ O-+#X Xoo*::ooX >> XX:X3 #+qX;3#X=#X-%X;:=",
"+4++@$&@@++.++.+$.++@ .>t%8>%8 %% 8%>8%to.# o=:#+5oX-#;=#X31XXXX",
"+4++++.+@@+o+2 O$,$&+.t8O  > @ 44 @ >  O,t<; XX#+0o<#<X##X1=#X=X",
"7k@$+$.+O@@.+...+..,rd,,$.o#+,@nn@,+#o.$,,4r :;#&q #<#X##X1===X;",
"7k@++$.@O.++..@.@++du,+-@$. $4@>>@4$ .$@-+,udo:-+q:13<:#X#=3 # #",
"+8+++$.+.@O+.&.@+@d @O$4.+.@$@@,,@@$@.+.4$O@ do-+q=1#<X# #<#*3*#",
"74@+$+++&&@.O$O.$8,O>@u@96 w6w2$$2w6w 69@u@>O,83+qX<#3=#>0-<o5o%",
"74@$$O++.@@O.&&*duO  &.@ w$w26w66w62w$w @.&  Oud+0X#33##>5##;Xo>",
"24@+$.$+.@@&&..&q.@$%2 f6w66fwwwwwww66w6f 2%$@.q$0X;<q#<13:<=XXX",
"24$e$&+&+@@&@@.8@  ..  6wwwwwwwwwwwwwwww66 ..  @8qX<3#%31=oX3XX ",
"24$$@@++O+.@. .d@ .+  $6wwww$$&OO&$$wwww6$- +. @d5;##31#XXXX#X;:",
"$4$$&++@@@O+...8,O 6qwwwww$&.*::::*.&$wwww6q6 O,80;%<;=#X> ## %X",
"24$$.+O@+++&.O %+X+&lwwww+O*:;;==;;:*O+www$lj@O-6%X=3=## %.%# k ",
"64$@O+++++++.+ 8$. $lwww+&o*:;=aa=;:*o&+ww$lo>$>2 *;<#%%X%.1XXoX",
"24@@++O$$$@+.. .X+4$1ww$+.o*:;=aa=;:*o.+$w$1O.Z4$t*1=3#=X# %%X X",
"24,++.+@$@@@@@9. @O$*ww++Oo*:;;==;;:*oO++w$*.<<%6to##=#;%=o<X ;:",
"2#@$@O++$$++@e.&,,&2*ww++&Oo*:;;;;:*oO&++w$*ol:O,8.;<=XX%%X%X ;:",
"7M$$.@++@e@@@@96, O2=ww$+&O..o****o..O&+$w$=o=& ,8.:;<X:==X## #X",
"78+@@+$@@$@@@@868+.2-ww$$+&O..oooo..O&+$$w$-&+X+% o >#X1X1:==11*",
"74+&++$+@$@@@+ 8$. $-ww2$+++&&OOOO&&+++$2w$-$ .$8 o#>->XX=X%#=Xo",
"24+++$@@OOO@@@ .X+4$0ww22$+&&&++++&&&+$22w$0$4+X. .X;3=#;#X;X1 .",
"2k+@$$@+@.O.$@9. @O$0ww22$&&o:&++&:o&&$22w$0$O@ .9o*:<<%%%#XXX  ",
"28+@$$+$@@&@@@.&,,&2Nww2$++++++++++++++$2w$N2&,,&.oXo-#X%#XXXX*X",
"24$@$@@@@++++O96, O2swww$+$gggc$$cggg$+$ww6s2O ,69*  3X>%1**1XXX",
"24++$@.&..++..868+.2-www++gxvxc++cxvxg++ww6-2.+868X  <XX#X  #>  ",
"24@+++o@&,e$&@r@.$O.%www+OxvVC+22+CVvxO+ww6%.O$.@rXXo1= %X  #X >",
"i4$$$..++ @@.&9@,e o%www+o:;*&2ww2&*;:o+ww6%o e,@9#% X=X =Xo1Xo#",
"24$$@.&++,, ,@9 $,.X1www++++++2772++++++ww61X.,$ 9#X.1X%:#X:*X*X",
"24$$@+@+77+@ @r@@ $##www2$$++&OOOO&++$$2ww6##$ @@r#XoXX=;X;*o*oX",
"24$$@+@7$$$77Or,..f=3wwww27$+&O**O&+$72www63=f..,r% rrX=X%XX:*o*",
"24$$.@7$$$$$$7r,.fy$3wwwww27++++++++72wwww63$yf.,r  r.X=X oX >  ",
"ip2++$$$$$$$$$8@42>  wwwwww27+$22$+72wwwww6  >24@8> ..<   **1O o",
"242++$e$$e$$$$. oO5o%wwwwwwwwwwwwwwwwwwwww6%o5Oo .*:oO=oX .%>&X.",
"2p$$@$@$$$$$$$9$.O5:-wwwwwwwwwwwwwwwwwwwww6-:5O.$9XX*;>.   #1. ,",
"2p2$.$+$$$$$$$92O.Z416266666666666666666626q  .$8 ;X;*XoX. >X  .",
"242$@$@$$$$@$$Ou.<<%O#q#  ... . j.. O9%#l3#O 4+X. o;=  X;ooX>,  ",
"24$$@$@$$$$+$@.6ol:O,&8$. $&,,& @  r @ @=& , O@ .9XX<:; XX.XX.X ",
"2p$+.$&$+$$$+$96o=& ,&.X+4$O ,6+,@rr@ +,+X+% &,,&.X1=oXXX%oXX  o",
"i4$@+$$$$$$$$$@i$$O$.i+&7+2iiiw2u7OO7u2wiwiii+&ei@;;<oX XXO>XoX&",
"2p$@+$$+$$$$$$&. @$++.@-$%.=o.oXo O#X::;  oX%%X3$0;:#*X o:oX X>.",
"24+.$e$+$2$+$+***.+$@&+-$#OO=O  uu %Xo.  *oo;;:0$qXo%XX  XOX:  o",
"i4@O$$$$$$+@$+9  .O+++$y$-.o<%oXOo  # .oXXoO=;X-$-XX%o%   OX;X  ",
"24@@$$$$$$$,$@  . .$$@+%$M oX3.*o   %> o#% o> %0$-;>%o    +XXX  ",
"24@@$$$$$$@ @Oo   .+$+O%+# .oXooX.  X#oX>#  XX;5+-;%# .%o;+%XX o",
"24+@$e$$$$.*@.+   .+++O-$5o.&oX >   XX oX>>.XX;3$#;XXX X %&<XX..",
"24@@$@+$$+O:O..O>oO@$.O-$5oooOXXo ooo# Ot # o =-$#%%%Xo=;<$#XX X",
"24+@$@$+$+.*....%O@@$+.-$#; o.*1::*oo=:::  %  ;#+%>%%=oXX%O#;;  ",
"24@&$$$+$$.,,@.  @@@OOO-$# ;.o.XX oXoXo.*:oXX  5+#%=;;oXX; >#; X",
"2p+.$+$$$$, .+.  @.OOoO-$- =Xoo:oXo ooXo:. oXXX0$-X#X:o1 >.#=XoX",
"24@.$+$$$+O @&*.,+,@@.+-$#**X#.X > o.XXX.   =:X-$->>#X.>>#o;;;:;",
"24$.++$$$+. O.o.+@&@@ +-$% XX##o:::o.o:=oo .=o.-$-;aXXo>>-O#>XXX",
"24$&@e$$$$@ ,, O@$@,.OOh$#o ; #O=ooo. ;;;:;X:*o-+-%#*=#X#> >#% 1",
"64$,@e$$$$+ .*X.&$&@OOO0+- .::;:o. # XoX<:;=:XX-+#%%##X # X*3**X",
"28$9&$$+$$$ . %.&+@OO,+h+5XO**==**o  ooX5X*XX:#%+#X;X=*X#oX #  X",
"28$ $+$+$++*.   +@$@.,@h$->    %.XX.1   X=XX>o#0+#=X%-XX>XX >> X",
"24$,++++2+O .X*X+@+@OOO0$%X*X.X#X >oo;X  -% XXoq&-%;=3XX;XX:X X:",
"24$.$@@$$+@.,  %O+O@@&&0$#X#  oX3oooo=oo;X-    -&-##>-a=XX#o=X;:",
"24+.$@@e$$@.9  >@O+...+0$#oo#Xoo=X.XoX%X tt#  X#&-#=X<;; %#.#XX ",
"2p+.$@++$$&.,4 #.++O..+5$#OoX;:o.54 X >#OXoX1::#&-X=X#=XX - #4X ",
"24@.$@@@$$..*O:; ++O+OO3$-O  oXooXX %oo#o>oX3oX-&- qX## 4>5 >> X",
">4zzzzzzzz4>z44z4%#%yk%%#%y%--55--yys-s0-y#5s5ys5-#5-ys0550-#---",
"Oe$6$$$$$$@@$@@++oX. ..@*:  ;X;==Xo=#o>q< X# #oX;::ao>#<=#-%:;X ",
"+666$6$66677$7767&&$&7ee. r..   r  999j 999r r.9r        r rr.j&"
};
