/* XPM */
static char *TANROCK3[] = {
/* columns rows colors chars-per-pixel */
"64 128 35 1 ",
"  c #5F4323",
". c #5B472B",
"X c #533F1F",
"o c #5F4B37",
"O c #6B4727",
"+ c #533F2F",
"@ c #675333",
"# c #574333",
"$ c #774F2B",
"% c #67533F",
"& c #4F3B23",
"* c #4B371B",
"= c #4F3B2B",
"- c #4F3B27",
"; c #6F5743",
": c #7F532F",
"> c #43331B",
", c #473323",
"< c #875733",
"1 c #775F3F",
"2 c #775F4B",
"3 c #3F2F17",
"4 c #7B634F",
"5 c #8F5F37",
"6 c #332B13",
"7 c #373F27",
"8 c #3F472B",
"9 c #3F2B1B",
"0 c #4B4B4B",
"q c #373737",
"w c #836B4B",
"e c gray23",
"r c #2F2F2F",
"t c gray31",
"y c #836B57",
/* pixels */
"XXX##XX+X-OXX *oXo #oX#.##XXX#+XOo.X.o .o..#OOXOXXX +&.o .. X3X&",
"XXXX+XXXX. .X Xo+oX+oX O.#X#o++XX+.X-o-+O#X#.#+OXXX.X=.#+.o  *X3",
".XXO*# XXXO.XO..o+XX.OXOXX#%#.+o*#. *.X*.OooXX+X+OO#&XOO& ...*X3",
"+XXOXoX#-XO.XXXoooX+o:XOXXXoo..OXo.#X.+X@OO.XXXX+O.#XOO+-...#-&3",
" XXX+oXX. ..XX #@o # @XO.Xo.O..OX.oXXO#..XXo+XXXX O #-.XXX- +XoX",
" +&-.oXX. o@XXX## X  @XO.#o+..#oX.o-XX+oX#XO XXXXXO oX.XXXO XXo3",
"*XX-#-XX.+.@XX+.Oo.OO$.O.#$o+%.#X..XXXOoX.X. X&3 +X  @-#*X# XX..",
"*X*X.XXX%oO%XX+.XoXOO$..#o...oo- ..X XO#X.X   -* XX% o.-XX-.*X.+",
"XXXX#X@oo-&ooX#XX#XO.o@#oo..oOoXX.XXo-OoX  .oXoX+X+@+oO#-..XXXX.",
"XXoXoXO.oXXoo&XXX# o.o@+ooo+oOO.X.XXo-O.X X.o3.X+#X%+OO   .XXXX.",
"X+o#>X..o X o=X.X+..+.O+ o.+ @OoX.##X+..oO#Xo= OX#.o..  Xoo OXXX",
"XX+X-X..o.XOo-X.++ o+.O#   X.@O-X.&X#+OOoO XoXXOX.X%+.X#Xoo O X+",
"XXX+XX.X%.X .XX#o+.#o .XX. X..$.X.+XX.XX%OXXo#.#.. .XOX O.O#XOX+",
"XX.+*+oX%%X . X.oX.o# .+#o =-.O X #XX.XX%o.*o+-OO. o#O  @.O#.X#X",
"X*oXXX-O OO o#XOo#@OO@ .X.+ X O X o&X 3OoO.Xo#+o#%oo $X oX##XXX-",
"X=o -X.X @oOoXX%%&..OO .XoooXOO X#o*-X-Xo@@OoX.o###XO$X @X#++&X-",
"&>&OX,&.*oXo.OXO+X+O@@X XO%.. %. X X .*Xo++.    X.XX%..O. +++XX&",
",>>O*&&X*oXo.  @++XoooXO&Ooo Xo. X X oX+oo#+    X.X=;X.O..++X X&",
">&>> *++78oo.&,#+XXX@ X%Xo @. OOXXO.X X ..OO *  X.,.%&O$+ X+X+>>",
",&,*O&++rqoo.X&++XX   X%X@ %#.O +.o+X+  .XO$ &  &o>.%X $XOXX&+**",
"&+>X$oX.>Xo+%+& ..+XOOo+o.o#o% :XX  *++.  @O.X&.&oX%.  O,o+&786>",
"&+XX$o&.,.o+oXXX.X+&$@.+o.o+@o $XXo *X.Xo @@XX+ >++%.XOO&o+&>8>>",
"X=o&X@>X*#o+#ooX%o+Xo ooooo+.O&$++ +o ..&O &.o.OXXo4+oooX+XX*&>6",
"Xeo&.@&X* oXooo&%o X%%oo#oo+XO&$#X.#o ..* OX.%XOX+oy+%oo.o++*&>>",
" X+XX.X*.  ..%+.@%#.O@   .o+*O&OOX+ $ X *.oXooXX  $:##%#++X.,>>>",
" X+XX X*O  + %+ @%oo.@$O..%XXOXOOX+#$XXO*oo&o%X.  $:o.%.&++.*>*>",
"Xo&&>X.+%oo+o.oXO#%X.OO  oo*. . %.+o%.X+X.Xooo..4.$o@X oXXX.6X.&",
"Xo*&9*O.@o+XO.XX$ooX.oO  .@X.#. %.+o@ X+X.X#%o. 4.$oOX .X+X.>X *",
"X *XX>XOO+X*.%+,@+%%Xo$.oXo XX $O XO.o&++  .o+.$<O%# X..XX++>o+,",
"* *&X>.O +&XX%X,%+%%+#:.@XO &+ OO XoO@&Xo X .X$$<$%+ ...XX+#>o+,",
"XX +X> @O XX.OXO.#+%o+$X$@ ..o*o$O .o%X.X%X .X:5$:O . XXX&&+XoX*",
"X& XX>+;  X+.O  O++%#+OX$@ oXo&o$O .o%X..o+ .X<5$$OX. X*X,X+XoX>",
"&X+ +X+% +XO+o&+. Xo.+#$$$...o+..o+oo%%.@% . +$<OOOX.+>X&&.X* +&",
"XXXO+*&@O+Xo&o*&  XOX#o$$$.o.@+..o+%#%%X@% + +$@O OX.+&X*X.X> XX",
"  +OoX*@X.X X.XXO,+ O.OoO;@+o%&X.%X.@.:X@%o+& $O OO ++Xo+X& X#>O",
" .+OoXXOXo*o+XX+@,+ Oo.o 2oXoo&Xo%.@o.<&@%o+X $O.   +&+o+&&.+#> ",
".X Xo%,%oo+.+.X. ++%$OO. << *%.X.%O#o.< O+++oX$O. . .+*##&=#.+9.",
"..XXo%>; o+++.X..++oO oO :< X%.XX%$+O.< @++#. :.. .@.+X#o+++  >.",
".X+..%oOOO .XX O.&++OXX...5:* o.&o$ OX@XO .#0o:o. + +X.oo=XXo+oX",
".. O.%%@O  X,X O.X+XOX+.. 5:*.o+,%@   oXOO+o0%OOX + +X. @q.Xo+o&",
".o  O+%+$XX&,+        ...o@: O%X+.@.#.. 5%o##%O $ O &+XX. XXXXo ",
"XO +O+oX:XXX*#  @  oOXXOXO@< .%X#X$ .   5%o#+%+O< $X*. .. *.X&o ",
"$oo* O O.&+o+ &.<  $OOOo %X$2+o  X:OOo. <@O+X@XO$ %++.. .o* *.%=",
"O%o*    .&+%..X.<  OOOoo ;.$1+o  .$@O.O.$;%o.OXo$ %++..OOo&.X.%X",
".oOXXX$ OOX+#X&X4.X.OO%+.;   <O$$O$;X+o@..4;ooX O o##.X+O.+#o.O6",
" OO*XXOOXOX+#+.X2OXOoO%+O%.  <O$$O$@X    .42oo. O o++.X#O.++.XO>",
"+o# X++o,@.>o. X@O..@O%%+o@##$O  # $ O..X+;1@ X+O o+..o;oo.&:$X>",
"+++o+++o&oo>o+.+o$X.@O%%#o@+ O   .O$O..@*+%1%%X+  o+X.o;o..,:@=*",
" *XO., %Xoo*X o+o;o+.OX<Xo%+ *o .  %@..@Xo@+$OXX XX * 5 +o% : XX",
"+XXOO>.%.+%&X .+%%oooOX:+%%++*OX.o %@o.OX@O+$.X*  + X 5 #+% $O+X",
"XX.%oX&.%.+&&$&&O.%#% %o#oO..+.OX+oX% XOXO.+#$XX..  *X:.+X%oXo.X",
"+X.;@XX @X XXOX*@.%+%#o.+ O. +.O&#o&%  @X.o+o:X ..  *X$.+Xo%Xo=X",
"XXX.4XX  .X.&.@Xo#+%@..X%X.OoX*@X.+&:OXO.$@&%o++&. & O %+X.$*XX ",
"XXX 4XXXOX+.&.%.o#+%%oOX@&o o.*@* +X: XO.$o&%%+X*. X O %X..$*XX ",
"&*XX;O X&;#+X+#o&.*.;OOX; .X.XXXo+%&OOX..O  %.%+&.$*@ +XX   X>o#",
"&&&X;OOX*;t+*+.o&.X.%OOX%XX oX X%+o&  X..OX %+o#&.$*  #X.. .+7o#",
"*+X#% ..X.O++.X%XoXo;.ooo%+X +.X o.++%XOoo +OO :X.X  > ..&..*>.&",
"*X* o.. *..o+XX% @X ;..Oo%.+... ...+&;+ Oo +@o $X.X. > ..X..*>.&",
"O+*OXoX+* O.XO+o@.XX@$ O..o%+o $Xo.@>O X@$@o.+ &oOOo&*XO&  .+X.&",
".+*O+%X#& $.  +%%#X @: O..#@ooO$ @.%*@ .$$O .+ *oO@o+&X X  .++o*",
"XX*  %*XoXo@X.+#<o o $ Oo.%  O.$X @++Oooo. @o&**X OXo=o.* &.&.%.",
"X &. %*&oX.$X.+oo  ..: O.o@.+o.$X O++ oo.o @.X*XX.OX%+o.*.&.* ;X",
">*++o. X@. $*..OO; OO$ O o:%*ooo* @X* $%.o.oX &3Xo..X$X+X#=+* @%",
">**+o  *o.O1*..O ; OO@OO.@OOX%o#& @+XX<o....XO&>X. oXO +*.=#> @o",
"XX#Xo+:$.X=.@+o- #.$ o$o..O @X. XX#Xo+:$.X=.@+o- #.$ o$o-o#.* +@",
" X#X@+:O.XX.@-+. oX@ @$ ..O.@X   X#X@+:O.XX.@-+. oX@ @$ X.# X .@",
" .#o= OO@ #.%=XO o.O .X.X.O  $X. .#o= OO@ #.%=XO o.O .X.XoOOO...",
". -+# OO@ . @= O.o=;..XoXXX o$-=. -+# OO@ . @= O.o=;..Xo.oOO$@.o",
" .. #  .1  .o=.o@o.o.   #=. # $. .. #  .1  .o=.o@o.o.   $ $o $.o",
".Xo X ..1o.Xo.XOO. @o   o.X=-o$..Xo X ..1o.Xo.XOO. @o   1O$#  o.",
" X%* .-O@$O .o @.o%@ $ ..X X#    X%* .-O@$O .o @.o%@ $ .$ oo.X.#",
".=@X#.+ @1$O. .;o=o. O .#...=   .=@X#.+ @1$O. .;o=o. O .$ o. =.#",
"* .X%#.Xo2:@O.X$. .=; o O .#X++o* .X%#.Xo2:@O.X$. .=; o . o   ;.",
"> .X#+.*o;:oOoX@O  #$.o   X.X# .> .X#+.*o;:oOoX@O  #$.o o o.OXoO",
"X O=X.o+%@$OO%X@#  .oO%o  .==. oX O=X.o+%@$OO%X@#  .oO%o%%... OO",
"X  =X .+.;$OO%.o@  @oo@o Xo=-  .X  =X .+.;$OO%.o@  @oo@o%o... @O",
" .XX XXX-o@#%@oX$:OO$#O$-X.,= =  .XX XXX-o@#%@oX$:OO$#O$;o+.O@O.",
"o.X X.X X.@.;oo.@1O Oo@$XX%X  X o.X X.X X.@.;oo.@1O Oo@$;@=O.% o",
" #-X .= .# . @  $;@Xo@@.XX.X,*   #-X .= .# . @  $;@Xo@@.@.O $;.=",
" oX-.X=X.. OO@ OO;;XooOo  XX--=. oX-.X=X.. OO@ OO;;XooOo@.  $; =",
"XX.X+.X @oXOo OOXo@X @@O   X.==.XX.X+.X @oXOo OOXo@X @@O;.+O@$..",
"=.o##  X ;=@. $O..;  @OOXo Xo=-.=.o##  X ;=@. $O..;  @OO;..$;: @",
" X.-.=%- OX%@XOOo@@O%%OOX   Xo-X X.-.=%- OX%@XOOo@@O%%OO@. o@:oo",
"=XoX *+= .X@$+O$oO$O@o$ + $$X.XX=XoX *+= .X@$+O$oO$O@o$ ;+ o@@O ",
"=Xo .-#.oo %$X.$$O$   O #. O@Xo.=Xo .-#.oo %$X.$$O$   O .   $ o ",
"XX  .=#= o O; .O$ $.  @ ##X$O   XX  .=#= o O; .O$ $.  @ .o Oo@@ ",
" X .XX.o  @@;.o.  $. o   .#o@$.  X .XX.o  @@;.o.  $. o  .O .@oO.",
"@X O.X.o= .@2.@.  $. . O +#+@@ X@X O.X.o= .@2.@.  $. . O. .X;@. ",
"o- . ##+.#$.;OX#  $.X.$O-XO=@ooXo- . ##+.#$.;OX#  $.X.$O.+.o@@.%",
"  .XX#==.#O.o$=OX O% .O..= X@@o   .XX#==.#O.o$=OX O% .O.. + @o.;",
"o.o. XX=@..O ;XXX=..+O .. ..O%.oo.o. XX=@..O ;XXX=..+O .. X ..O@",
"o.oX.*XXo  $#%.+==@. O +. .+O%+.o.oX.*XXo  $#%.+==@. O +ooXO#  ;",
".% o O.X=$ @O@Xo=X.@ oo@ XO+.o ;.% o O.X=$ @O@Xo=X.@ oo@;O @ #.#",
"O .@XO X : oo@X##=.@..o$ =oo.OO;O .@XO X : oo@X##=.@..o$@. OOO.#",
" XO....X  $ %oX..oo.. o@#X..+Ooo XO....X  $ %oX..oo.. o@.. o.@.%",
" X$X+o#X  O o@XXX+o;XOoo..%.X$@o X$X+o#X  O o@XXX+o;XOoo ..@.o.o",
"o O=O   ... O: ..@@1 .@XOXOOo .oo O=O   ... O: ..@@1 .@X.@X..@.o",
"oX X   .#.. @1 OX$$$ .#= X.OO%#@oX X   .#.. @1 OX$$$ .#=.;  O@oO",
". .+#  XO.#oo@ O OO@=o@O  .oX#.#. .+#  XO.#oo@ O OO@=o@O$1OO.oo@",
".O+X  X    @;@@O Oo$Xo$ O ..X=##.O+X  X    @;@@O Oo$Xo$ :$$#.O.o",
"XOXX  X- O o1OXOO.O.$%. O #@ O  XOXX  X- O o1OXOO.O.$%. .@$o  @.",
" O XX  XX;@ w:X$O.o$$;..   @ @O  O XX  XX;@ w:X$O.o$$;..+o$..O$@",
"o.OXXX.X* $X;1#   @11  .-X-   .oo.OXXX.X* $X;1#   @11  ..@ $$o@@",
".. -. +#=O.X<1. OO%::X .XX-#X+.#.. -. +#=O.X<1. OO%::X .X.O$;@.O",
". o # >  @o @$:$Xo$$@o oX  O#X.#. o # >  @o @$:$Xo$$@o oo X$1$@$",
"@ o-+ X . ..O$:$#.:;;. oX X$o..#@ o-+ X . ..O$:$#.:;;. o.@ O:$OO",
".#+ X.  .. $ $@:o% .@XX..  $$#...#+ X.  .. $ $@:o% .@XX. $  .O$O",
".## .o.+..-:=@@o#O o;.  .  @:....## .o.+..-:=@@o#O o;.   $ .#%$$",
" #. ++.X;=+;X@O.-$  o o X# $ o.  #. ++.X;=+;X@O.-$  o o  %+@+@OO",
". . =-..@==@  $%>O ..  .X@ ...+.. . =-..@==@  $%>O ..  . %+ Xo$;",
"#. oo #XX .+o  @-@X##.oOX= .   %#. oo #XX .+o  @-@X##.oO.;...O$@",
"=.Xoo.+..  Xo.+;-%.X# oO=...  o$=.Xoo.+..  Xo.+;-%.X# oOX;+oXo@ ",
".%  @  X=-#Xo; ;-oo.%#= o.... $..%  @  X=-#Xo; ;-oo.%#= .@.o#o.@",
"=% Oo@ . -=+o$ 1 .o.o@ $$ ..X O =% Oo@ . -=+o$ 1 .o.o@ $ ;@.=@.o",
" ;  ..  . Xoo; $%Xo.<@X o o XOo  ;  ..  . Xoo; $%Xo.<@X .o$oX@@ ",
" % Xoo  + X.o@ o..;%@OX %X.   oo % Xo.  + X.#@ o@.;%@Oo .o$:o.@ ",
"*$%.oo $  ..+%$o+o@OoooX. .#. .o*$%.oo $ o..o%$o.;@O@o#XOo%o @o$",
"-OoooO . oX  X @,;@ .o#X.. #  .o-Ooooo   .X +. @+;@ oo.XOo@oX#$O",
"X =  O   ooX   $X;o .@.# .o.  .$XO=  O+..o.X X $,2o .@.#O oo== ;",
"XO=$$Oo .#.=%  $X2o X%.   o OOO$X.=$$O   #o=% .$Xo. .%. OO#%.=.@",
".X OX-.o #.X-+.##o@  O : #o-OX. #. oo. o ..XoO .XO  X.:O.ooO$. .",
"X  O. .oX oX+X.#o@%.#O :#oo- Xo Xo o.o O o.X.+ +XO#  .@O..oO@.. ",
"  -o. O.o .&=O +O.%.o.oo-.O# .ooX..Xo. .XO.--O   Oo X @ . o. .. ",
". -oo O.o  XX. XoO@ #.@  +O+.#.o o#XoO.o ..-#$   ooOX @ . .oX#X ",
"  XX;O .+.  X-o #o.@  . o ..o XoOoXX:$O. @o o#X.X.O XOO@ O O&XX.",
"O X ;OXX  . --o-...oo.$ o-....XoXO-X:.O.#o. ooXXX#OOXOO@ ..@&X .",
" XX %oXX&oX# -X#X#X.o.$ o.. X   o.o-OOOo+.. o-oXX.OXoX.   O.X*.X",
"O- -o.OX&oo#XX-#X. X#O$ o*X.#   o..+.OO.oO .o-#XXXOX X.  - X-=.X"
};
