/* XPM */
static char *TANROCK7[] = {
/* columns rows colors chars-per-pixel */
"64 128 29 1 ",
"  c #4B371B",
". c #5F4B37",
"X c #533F2F",
"o c #473323",
"O c #6B4727",
"+ c #574333",
"@ c #5F4323",
"# c #774F2B",
"$ c #4F3B27",
"% c #4F3B23",
"& c #3F2B1B",
"* c #432F1B",
"= c #67533F",
"- c #6F5743",
"; c #332B13",
": c #875733",
"> c #7F532F",
", c #533F1F",
"< c #8F5F37",
"1 c #474F33",
"2 c #2B230F",
"3 c #373F27",
"4 c #836B57",
"5 c #775F3F",
"6 c #43331B",
"7 c #53573B",
"8 c #675333",
"9 c #2F371F",
"0 c #434343",
/* pixels */
"o;*o** ;o;;***; o;*o** ;o;;***; o;*o** ;o;;***; o;*o** ;o;;***; ",
" O..X.+.@-oO+>#O O..X.+.@-oO+>#O O..X.+.@-oO+>#O O..X.+.@-oO+>#O",
"o@@..@XO.@+@O+-.o@@..@XO.@+@O+-.o@@..@XO.@+@O+-.o@@..@XO.@+@O+-.",
"&O.-.% XX.  +X  &O.-.% XX.  +X  &O.-.% XX.  +X  &O.-.% XX.  +X  ",
"Xo   X X%o$X+XXXXo   X X%o$X+XXXXo   X X%o$X+XXXXo   X X%o$X+XXX",
".@O5=+X&& +..XX..@O5=+X&& +..XX..@O5=+X&& +..XX..@O5=+X&& +..XX.",
"OXX-XX;###X.=.X%OXX-XX;###X.=.X%OXX-XX;###X.=.X%OXX-XXO###X.=.X%",
" &*o& 3X.o+   oo &*o& 3X.o+   oo &*o& 3X.o+   oo &*o& 3X.o+   oo",
" O:##-+.$* <#>:  O:##-+.$* <#>:  O:##-+.$* <#>:  O:##-+.$* <#>: ",
"X-... +@X> ....oX-... +@X> ....oX-... +@X> ....oX-... +@X> ....o",
" +O..  + . %@O@& +O..  + . %@O@& +O..  + . %@O@& +O..  + . %@O@&",
" Xo*;o     Oo@ o Xo*;o     %%@ o Xo*;o     Oo@ o Xo*;o     Oo@ o",
"+:@#X#O,.Ooo9o; +:@#X#O,.Ooo9o; +:@#X#O,.Ooo9o; +:@#X#O,.Ooo9o; ",
"+.OXo#OXO.@ O.OX+.OXo#OXO.@ O.OX+.OXo#OXO.@ O.OX+.OXo#OXO.@ O.OX",
" .XO .O.XX  X=0@ .XO .O.XX  X=0@ .XO .O.XX  X=0@ .XO .O.XX  X=0@",
" $ $&&     + Oo& $ $&&     + Oo& $ $&&     + Oo& $ $&&     + Oo&",
"o;*o** ;o;;***; $oo$::@o,O o  .oo;*o** ;o;;***; $Oo$::@o,O o  .o",
" O..X.+.@-oO+>#O#=%O=-= 1=XX#:#O O..X.+.@-oO+>#O#=&O=-= 1=XX#:#O",
"o@@..@XO.@+@O+-.@. #..O 5O+XXO.@o@@..@XO.@+@O+-.@. #..O 5O+XXO.@",
"&O.-.% XX.  +X  & %#.XO&-4= + o*&O.-.% XX.  +X  & %#.XO&-4= + o*",
"Xo   X X%o$X+XXX%@.3.+% <=1o:7. Xo   X X%o$X+XXX%@.3.+% <=1o:7. ",
".@O5=+X%% +..XX..X oo$&&X o$X#X+.@O5=+X&& +..XX..X Xo$&&X o$X#X+",
"OXX-XX$###X.=.X%%. @@@X#O# ,+O..OXX-XX;###X.=.X%%. @@@X#O# ,+O..",
" &*o& 3X.$+   oo& *@O+.O %$Ooo * &*o& 3X.o+   oo& *@O+.O %$Ooo *",
" O:##-+.$* <#>: oOOO.=+.X%&@ .+% O:##-+.$* <#>: oOOO.=+.X%&@ .+%",
"X-... +@X> ....o+..,=$+.-+;+ @X.X-... +@X> ....o+..,=$+.-+;+ @X.",
" +O..  + . %@O@&$.=+.+ooX$o XXoo +O..  + . %@O@&$.=+.+ooX$o XXoo",
" Xo*;o     Oo@ ooX.$X+ #O#O8.%+. Xo*;o     Oo@ ooX.$X+ #O#O8.%+.",
"+:@#X#O,.Oo%$%$ o$$o**%%@@$**%% +:@#X#O,.Ooo9o; o;*o** ;o;;***; ",
"+.OXo#OXO.@ O.OX O..X.+.@-oO+>#O+.OXo#OXO.@ O.OX O..X.+.@-oO+>#O",
" .XO .O.XX  X=0@o@@..@XO.@+@O+-. .XO .O.XX  X=0@o@@..@XO.@+@O+-.",
" $ $&&     + Oo&&O.-.% XX.  +X   $ $&&     + Oo&&O.-.% XX.  +X  ",
"$2o$::@o,O o  .oXo   X X%o$X+XXX$Oo$::@o,O o  .oXo   X X%o$X+XXX",
"#=&O=-= 1=XX#:#O.@O5=+X&& +..XX.#=&O=-= 1=XX#:#O.@O5=+X&& +..XX.",
"@. #..O 5=+XXO.@OXX-XXO###X.=.X%@. #..O 5O+XXO.@OXX-XX;###X.=.X%",
"& %#.XO&-4= + o* &*o& 3X.o+   oo& %#.XO&-4= + o* &*o& 3X.o+   oo",
"%@.3.+% <=1o:7.  O:##-+.$* <#>: %@.3.+% <=1o:7.  O:##-+.$* <#>: ",
".X Xo$&&X o$X#X+X-... +@X> ....o.X Xo$&&X o$X#X+X-... +@X> ....o",
"%. >@@X#O# #+O.. +O..  + . %@O@&%. >@@X#O# #+O.. +O..  + . %@O@&",
"& *>O+.O %$<oo * Xo*;o     Oo@ o& *>O+.O %$#oo * Xo*;o     %%% o",
"o;*o** ;o;;***;  O:##-+.$* <#>: o;*o** ; O:##-+.$* <#>: o;;***; ",
" O..X.+.@-oO+>#OX-... +@X> ....o O..X.+.X-... +@X> ....o@-%O+>#O",
"o@@..@XO.@+@O+-. +O..  + . %@O@&o@@..@XO +O..  + . %@O@&.@+@O+-.",
"&O.-.% XX.  +X   Xo*;o     @@@ o&O.-.% X Xo*;o     Oo@ oX.  +X  ",
"Xo   X X%o$X+XXX+:@#X#O,.Ooo9o; Xo   X X+:@#X#O,.Ooo9o; %o$X+XXX",
".@O5=+X&& +..XX.+.OXo#OXO.@ O.OX.@O5=+XO+.OXo#OXO.@ O.OX& +..XX.",
"OXX-XX;###X.=.X% .XO .O.XX  X=0@OXX-XXO# .XO .O.XX  X=0@##X.=.X%",
" &*o& 3X.o+   oo $ $&&     + Oo& &*o& 3X $ $&&     + Oo&.o+   oo",
" O:##-+.$* <#>: o;*o** ;o;;***;  O:##-+.o;*o** ;o;;***; $* <#>: ",
"X-... +@X> ....o O..X.+.@-oO+>#OX-... +@ O..X.+.@-oO+>#OX> ....o",
" +O..  + . %@O@&o@@..@XO.@+@O+-. +O..  +o@@..@XO.@+@O+-. . %@O@&",
" Xo*;o     Oo@ o&O.-.% XX.  +X   Xo*;o  &O.-.% XX.  +X     Oo@ o",
"+:@#X#O,.Ooo9o; Xo   X X%o$X+XXX+:@#X#O,Xo   X X%o$X+XXX.Ooo9o; ",
"+.OXo#OXO.@ O.OX.@O5=+X&& +..XX.+.OXo#OX.@O5=+X%% +..XX.O.@ O.OX",
" .XO .O.XX  X=0@OXX-XX;###X.=.X% .XO .O.OXX-XX$###X.=.X%XX  X=0@",
" $ $&&     + Oo& &*o& 3X.o+   oo $ $o    &*o& oX.o+   oo   + Oo&",
"o;*o** ;o;;***; $2o$::@o,O o  .oo;*o** $o;;***$ $$o$::@o,O o  .o",
" O..X.+.@-oO+>#O#=&O=-= 1=XX#:#O O..X.+.@-oO+>#O#=&O=-= 1=XX#:#O",
"o@@..@XO.@+@O+-.@. #..O 5O+XXO.@o@@..@XO.@+@O+-.@. #..O 5O+XXO.@",
"&O.-.% XX.  +X  & %#.XO&-4= + o*&O.-.% XX.  +X  & %#.XO@-4= + o*",
"Xo   X X%o$X+XXX%@.3.+% <=1o:7. Xo   X X%o$X+XXX%@.3.+% <=1o:7. ",
".@O5=+X&& +..XX..X Xo$&&X o$X#X+.@O5=+X%% +..XX..X Xo$&&X o$X#X+",
"OXX-XX;###X.=.X%%. >@@X#O# #+O..OXX-XX;###X.=.X%%. @@@X#O# ,+O..",
" &*o& 3X.o+   oo& *>O+.O %$Ooo * &*o& 3X.o+   ooo %@O+.O %$Ooo *",
"o;*o** ;o;;***; o;*o** ;o;;***;  O:##-+.$* #<<: oOOO.=+.X%&@ .+%",
" O..X.+.@-oO+>#O O..X.+.@-oO+>#OX-... +@X> ....$+..,=$+.-+;+ @X.",
"o@@..@XO.@+@O+-.o@@..@XO.@+@O+-. +O..  + . %@O@o$.=+.+ooX$o XXoo",
"&O.-.% XX.  +X  &O.-.% XX.  +X   Xo*;o     Oo@ ooX.$X+ #O#O8.%+.",
"Xo   X X%o$X+XXXXo   X X%o$X+XXX+:@#X#O,.Ooo9o$ o$*o**%%%%$%%%%$",
".@O5=+X&& +..XX..@O5=+X&& +..XX.+.OXo#OXO.@ O.OX O..X.+.@-oO+>#O",
"OXX-XX;###X.=.X%OXX-XXO###X.=.X% .XO .O.XX  X=0@o@@..@XO.@+@O+-.",
" &*o& 3X.o+   oo &*o& 3X.o+   oo $ $&&     + Oo&&O.-.% XX.  +X  ",
" O:##-+.$* <#>:  O:##-+.$* <#>: $Oo$::@o,O o  .oXo   X X%o$X+XXX",
"X-... +@X> ....oX-... +@X> ....o#=&O=-= 1=XX#:#O.@O5=+X&& +..XX.",
" +O..  + . %@O@& +O..  + . %@O@&@. #..O 5O+XXO.@OXX-XXO###X.=.X%",
" Xo*;o     Oo@ o Xo*;o     Oo@ o& %#.XO&-4= + o* &*o& 3X.o+   oo",
"+:@#X#O,.Ooo9o; +:@#X#O,.Ooo9o; %@.3.+% <=1o:7.  O:##-+.$* <#>: ",
"+.OXo#OXO.@ O.OX+.OXo#OXO.@ O.OX.X Xo$&&X o$X#X+X-... +@X> ....o",
" .XO .O.XX  X=0@ .XO .O.XX  X=0@%. >@@X#O# ,+O.. +O..  + . %@O@&",
" $ $&&     + Oo& $ $&&     + Oo&& *>O+.O %$Ooo * Xo*;o     Oo@ o",
"o;*o** ;o;;***; $Oo$::@o,O o  .ooOO<.=+.X%&@ .+%+:@#X#O,.Ooo9o; ",
" O..X.+.@-oO+>#O#=&O=-= 1=XX#:#O+..#=$+.-+;+ @X.+.OXo#OXO.@ O.OX",
"o@@..@XO.@+@O+-.@. #..O 5O+XXO.@$.=+.+ooX$o XXoo .XO .O.XX  X=0@",
"&O.-.% XX.  +X  & %#.XO&-4= + o*oX.$X+ #O#O8.%+. $ $&&     + Oo&",
"Xo   X X%o$X+XXX%@.3.+% <=1o:7. $& X+ &#O.+=1+.+$Oo$::@o,O o  .o",
".@O5=+X&& +..XX..X Xo$&&X o$X#X+$:-+  oo ooXX+  #=&O=-= 1=XX#:#O",
"OXX-XX;###X.=.X%%. @@@X#O# ,+O.. ..@XXOO$$.+$+$X@. #..O 5O+XXO.@",
" &*o& 3X.o+   oo& *@O+.O %$Ooo *o    & o X++ ...& %#.XO&-4= + o*",
" O:##-+.$* <#>: oOOO.=+.X%&@ .+%$Oo$::@o,O o  .o%@.3.+% <=1o:7. ",
"X-... +@X> ....o+..,=$+.-+;+ @X.#=&O=-= 1=XX#:#O.X Xo$&&X o$X#X+",
" +O..  + . %@O@&$.=+.+ooX$o XXoo@. #..O 5OOXXO.@%. >@@X#O# ,+O..",
" Xo*;o     Oo@ ooX.$X+ #O#O8.%+.& %#.XO&-4= + o*& *>O+.O %$Ooo *",
"+:@#X#O,.Ooo9o; o;*o** ;o;;***; %@.3.+% <=1o:7. oOO<.=+.X%&@ .+%",
"+.OXo#OXO.@ O.OX O..X.+.@-oO+>#O.X Xo$&&X o$X#X++..#=$+.-+;+ @X.",
" .XO .O.XX  X=0@o@@..@XO.@+@O+-.%. @@@X#O# ,+O..$.=+.+ooX$o XXoo",
" $ $&&     + Oo&&O.-.% XX.  +X  & *@O+.O %$Ooo *oX.$X+ #O#O8.%+.",
"$-o$::@o,O o  .oXo   X X%o$X+XXXoOOO.=+.X%&@ .+%$& X+ &#O.+=1+.+",
"#=&O=-= 1=XX#:#O.@O5=+X%% +..XX.+..,=$+.-+;+ @X.$:-+  oo ooXX+  ",
"@. #..O --+XXO.@OXX-XX$###X.=.X%$.=+.+ooX$o XXoo ..@XXOO$$.+$+$X",
"& %#.XO&-4= + o* &*o& 3X.o+   oooX.$X+ #O#O8.%+.o    & o X++ ...",
"%@.3.+% <=1o:7.  O:##-+.$* <#>: $& X+ &#O.+=1+.+$& X+ O#O.+=1+.+",
".X oo$&&X o$X#X+X-... +@X> ....o$:-+  oo ooXX+  $:-+  oo ooXX+  ",
"%. @@@X#O# ,+O.. +O..  + . %@O@& ..@XXOO$$.+$+$X ..@XXOO$$.+$+$X",
"& *@O+.O %$Ooo * Xo*;o     %$% oo    & o X++ ...o    & o X++ ...",
"oOOO.=+.X%&@ .+%+:@#X#O,.Ooo9o; oOO<.=+.X%&: .+%+:@#X#O,.Ooo9o; ",
"+..,=$+.-+;+ @X.+.OXo#OXO.@ O.OX+..#=$+.-+;= @X.+.OXo#OXO.@ O.OX",
"$.=+.+ooX$o&XXoo .XO .O.XX  X=0@$.=+.+ooX$o XXoo .XO .O.XX  X=0@",
"oX.$X+ #O#O8.%+. $ $&&     + Oo&oX.$X+ #O#O8.%+. $ $&&     + Oo&",
"$& X+ &#O.+=1+.+$-o$::@o,O o  .o$& X+ &#O.+=1+.+$-o$::@o,O o  .o",
"$:-+  oo ooXX+  #=&O=-= 1=XX#:#O$:-+  oo ooXX+  #=&O=-= 1=XX#:#O",
" ..@XXOO$$.+$+$X@. #..O 54+XXO.@ ..@XXOO$$.+$+$X@. #..O 5-+XXO.@",
"o    & o X++ ...& %#.XO&-4= + o*o    & o X++ ...& %#.XO&-4= + o*",
"$-o$::@o,O o  .o%@.3.+% <=1o:7. $oo$::@o,O o  .o%@.3.+% <=1o:7. ",
"#=&O=-= 1=XX#:#O.X X&$&&X o$X#X+#=&O=-= 1=XX#:#O.X oo$&&X o6X#X+",
"@. #..O 5-+XXO.@%. > @X#O# ,+O..@. #..O 5-+XXO.@%. @@@X#O# ,+O..",
"& %#.XO&-4= + o*& *>,+.O %$Ooo *& %#.XO&-4= + o*& *@O+.O %$Ooo *",
"%@.3.+% <=1o:7. oOOO.=+.X%&@ .+%%@.3.+% <=1o:7. oOOO.=+.X%&@ .+%",
".X oo$&&X o$X#X++..,=$+.-+;+ @X..X oo$&&X o$X#X++..#=$+.-+;+ @X.",
"%. @@@X#O# ,+O..$.=+.+ooX$o XXoo%. @@@X#O# ,+O..$.=+.+ooX$o&XXoo",
"& *@O+.O %$Ooo *oX.$X+ #O#O8.%+.& *@O+.O %$Ooo *oX.$X+ #O#O8.%+.",
"oOOO.=+.X%&@ .+%$& X+ &#O.+=1+.+oOOO.=+.X%&@ .+%$& X+ &#O.+=1+.+",
"+..#=$+.-+;+ @X.$:-+  oo ooXX+  +..#=$+.-+;+ @X.$:-+  oo ooXX+  ",
"$.=+.+ooX$o XXoo ..@XXOO$$.+$+$X$.=+.+ooX$o XXoo ..@XXOO$$.+$+$X",
"oX.$X+ #O#O8.%+.o    & o X++ ...oX.$X+ #O#O8.%+.o    & o X++ ...",
"$& X+ &#O.+=1+.+$& X+ &#O.+=1+.+$& X+ &#O.+=1+.+$& X+ &#O.+=1+.+",
"$:-+  oo ooXX+  $:-+  oo ooXX+  $:-+  oo ooXX+  $:-+  oo ooXX+  ",
" ..@XXOO$$.+$+$X ..@XXOO$$.+$+$X ..@XXOO$$.+$+$X ..@XXOO$$.+$+$X",
"o    & o X++ ...o    & o X++ ...o    & o X++ ...o    & o X++ ..."
};
