/* XPM */
static char *TANROCK8[] = {
/* columns rows colors chars-per-pixel */
"64 128 14 1 ",
"  c #6B4727",
". c #774F2B",
"X c #5F4323",
"o c #7F532F",
"O c #875733",
"+ c #533F1F",
"@ c #8F5F37",
"# c #4B371B",
"$ c #9B633B",
"% c #A36B3F",
"& c #3F2F17",
"* c #AB6F43",
"= c #B37347",
"- c #CB7F4F",
/* pixels */
" . X   ... .X X  . X   .o  . X +.. .X X O . X O  . X   .X&X . . ",
"  .  o.Oo Oo. oO  .  o.O$@. +&# o Oo. oOoo o . O  .  o.OXX.X . X",
"o Oo. oo%o.o.o@.o Oo. oo . .X#++oo.o.o@.O.  .O.oo Oo. oo .  XooX",
". oo@. X O . .o+. oo@. X#X. XXX+ O . .o+X  oO$OO. oo@. X ... oo ",
" XoO%Oo X  OO .  XoO%Oo + ..X .XX  OO . +X .  .  XoO%Oo  .  Xo. ",
"X .   o.+X.@%@..X .   o. . . .Oo+X.@%@..X . .X XX .   o.. .X . X",
" . X#X.. o . .   . X#X...O. XX+  o . .     o  o. . X#X..oo o. oo",
" .  +  X   +Xo o .  +  X.O@. +#X   +Xo o.. .Oo.  .  +  XO. oo oO",
".. .X o  . X   ... .X o .. .X  o . X   ...O$@o ... .X o $O o.  @",
".. ...o   .  o.O.. ...o o Oo. .   .  o.O...  XoO.. ...o X o  . +",
" . oO.. o Oo. oo . oO.. oo.o.o.Xo Oo. oo. .+#+ o . oO.. #.@Oo X ",
" . o$O. . oo@. X . o$O.  O . ..X. oo@. X# . X. . . o$O.  @%@. o.",
"o@o    o XoO%Oo o@o    oX  OO .  XoO%Oo #  oo.  o@o    o.XXX. +.",
"@$@o+ o.X .   o.@$@o+ o.+X.@%@XXX .   o.o O@O ..@$@o+ o. X#X  X.",
"$*$O  o. . X#X..$*$O  o. o . .X. . X#X .o   . ..$*$O  o.X X o. .",
".X .o o. .  +  X.X .o o.   +Xo O .  +  X  X#X.O..X .o o. . .$O O",
"+&# . . .. .X o o  .  +. . X   O.. .X   +XX+ $Oo.. .X o .. .X  o",
"X#+X . X.. ...o oX oOX.+  .  o  .. ... X+X . X+ .. ...o o Oo. . ",
" +  XooX . oO.. .  X XX.o Oo.  O . oO..X+ X. X#  . oO.. oo.o.o.X",
" ... oo  . o$O. . .X  ... oo@.oO . o$O.X  + X X. . o$O.  O . ..X",
" .  Xo. o@o    o .  . .O.XoO%O.oo@o    oX.o +. .o@o    oX  OO . ",
". .X . X@$@o+ o. oo . +XX .   o.@$@o+ o.@@. X. o@$@o+ o.+X.@%@  ",
"oo o. oo$*$O  o. o.   ++ . X#X..$*$O   X#+X+ . O$*$O  o. o . . .",
"O. oo oO.X .o o. ..OoX X .  +  X.X .o  X+&#+  ...X .o o.   +Xo O",
"$O o.  @+&# . . .oO@$. . . .X o +&# . . X#X.  .o+&# . .  . X   O",
"X o  . +X#+X . XO@O. X . . ...o X#+X . X . .   .X#+X . X  .  o .",
"#.@Oo X  +  XooX.$.# .X  . oO..  +  XooX   . . . +  XooXo Oo.  O",
" @%@. o. ... oo X  X.X.  . o$O.  ... oo .X  .. . ... oo . oo@.oO",
".XXX. +. .  Xo. +#+ .X. o@o    o .  Xo. ##+.$. . .  Xo.  XoO%O.o",
" X#X  X.. .X . X+#+. XXX@$@o+ o.. .X . X#++XX++ . .X . XX .   o.",
"X X o. .oo o. oo + . .X $*$O  o.oo o. o ++XX#&+Xoo o. oo . X#X..",
" . .$O OO. oo oO.  .  o+.X .o o.O. oo oO X X+#+ O. oo oO .  +  X",
".. .X  *$O o.  @ .  .X. +&# . . $O o. .o X.X + O$O o. .@.. .X o ",
"o Oo. . X o  . + o .oX#+X#+X . XX o  .  XX .X.X X o  . +.. ...o ",
"%o.o.o.X#.@Oo X .. o.XoX +  XooX#.@Oo X  Oo.  o #.@Oo X  . oO.. ",
" O . ..X @%@. o. . .. o  ... oo  @%@. o . XX. .O @%@. o. . o$O. ",
"X  OO . .XXX. +. O$.     .  Xo. .XXX. oo+X#X. .$.XXX. ooo@o    o",
"+X.@%@   X#X  X.oX#.   .. .X . X X#X  o #X+  X   X#X  oo@$@o+ o.",
" o . . .X X o. .$OX. . . o o. ooX.X o.  + X.X.X+X X o. o$*$O  o.",
"   +Xo O . .$O O*$o. . X O oo o.o@..$Oo  + .o  X . .$Oo..X .o o.",
" . X   O.. .X   @.X  ..X#&# . . X#X X X X#X X X. . X   .+&# . . ",
"  .  o .o Oo. . #&X  .. X#+X . X    X X  X+ X  .  .  o.OX#+X . X",
"o Oo.  O%o.o.o.X##X  .      XooX X+ X..  X+ X.  o Oo. oo +  XooX",
". oo@.oO O . ..XX+ .   oX... oo .XX.@O. .X X. ... oo@. X ... oo ",
" XoO%O.oX  OO .  . .  X X.  Xo. #X @%@ . X+.$. . XoO%Oo  .  Xo. ",
"X .   o.+X.@%@  oO.. . X  .X . XXXXXXX+ #X+XX++ X .   o.. .X . X",
" . X#X.. o . . .@@Oo  o. o o. oo++ X#X+X+  X#&+X . X#X..oo o. oo",
" .  +  X   +Xo O@*@O. .oX. oo oOXX X+#+. . X+#+  .  +  XO. oo oO",
"..O$@o . . X   O$=%O. .oX. X   .o  . X  o.Xo.X ... .X o $O o. .@",
"...  XoO  .  o .X.X. X .X .  o.O$@. +&#o@o O. oO.. ...o X o  . +",
". .+#+ oo Oo.  O + . +X X Oo. oo . .X#++  O$O. o . oO.. #.@Oo X ",
"  . X. .. oo@.oO.X.o. + X oo@. X#X. XXX++ O=O. . . o$O.  @%@. o.",
"   oo.   XoO%O.o. OOo.  .XoO%Oo + ..X .X+X o .  o@o    o.XXX. o+",
"  O@O ..X .   o. . . .OoX .   o. . . .Oo+X+&+ ..@$@o+ o. X#X  oX",
"    . .. . X#X...O. XX+  . X#X...O. XX+ +XX#X ..$*$O  o.X X o.  ",
"  X#X.O. .  +  X.O@. +#X .  +  X.O@. +#X+X.X  O..X .o o. . .$Oo ",
" XX+ $Oo.. .X o o  .  +.o. .X o o  .  +.X .  .$O.. .X o .. .X X ",
" X . X+ .. ...o oX oOX.o@oo$..o oX oOX.OX .o X+X.. ...o o Oo. o.",
"  X. X#  . oO.. .  X XX@$@  O.. .  X XX#  ..  #  . oO..o%o.o.o@.",
"  + X X. . o$O. . .X   $=$o+$O. . .X   X. OO  X. . o$O. +  . .o.",
"X.o +. .o@o    o .  .  $-$O    o .  .  .. O@X  .o@o    oX  OO ..",
" @. X. o@$@o+ o. oo . + + .o+ o. oo .    oX#X  o@$@o+ o.+X.@%@. ",
"#+X+ .XO$*$O  o. o.   ++&# .  o. o.    .o$OX. XO$*$O  o. o . .  ",
"+&#+  X..X .o o. ..OoX X#+X o o. ..OoX X@*$o. X .X  o o.   +Xo  ",
" #X X Xo+&# . . .oO@$.  +  X. . .oO@$. +.@.X  Xo+&# . . .. .X X ",
"o.o X X.X#+X . XO@O. X  ...  . XO@O. X + #&X  X.X#+X . Xo Oo. o ",
"o.o X... +  XooX.$.# .X  +  XO.X.$.# .X X##X  .. +  Xoo.@..o.o@ ",
".X X.@.. ... oo X  X.X.+ ... O. X  X.X.+XX+ . .. ... oo .O . .oo",
"  +.$. . .  Xo. +#+ .X.+ .  Xo. +#+ .X.+  + .  . .  Xo. X  OO ..",
"o +XX++ . .X . X+#+. XXX. .X . X+#+. XXX#++X .  . .X . X+X.@%@..",
"o XX#&+Xoo o. oo + . .X oo o. oo + . .X ++XX# +Xoo o. oo o . .  ",
".  X+#+ O. oo oO.  .  o@O.Xoo oO.  .  o@XX X+#+ O. oo oO   +Xo o",
". .X + O$O o. .@ . X   .o XX X X..  .X.  . X   .o  . X + . X   .",
"+X .X.X X o  . +  .  o.O$@ X+&#X o .oX#+  .  o.O$@. ++#   .  o.O",
" Oo.  o #.@Oo X X Oo. oo . .X#+... o.X#Xo Oo. oo . .X#++o Oo. oo",
". XX. .O @%@. o.X oo@. XXX. XXX. . .. + . oo@. X#X. XXX+. oo@. X",
"+X#X. .$.XXX. o X O$.  + X..X .X O.  X . XoO%Oo + ..X .X XoO%Oo ",
".X+  X   X#X  oX.o.    +.  . .O @$@oo. XX .   o. . . .OoX .   o.",
". X.X.X+X X o.  .$O.X . .@. XX+ .@.o..X  . X#X...O. XX+  . X#X..",
" + .o  X . .$Oo O*$oX . X@@. +#XX X. .X. .  +  X.O@. +#X .  +  X",
"O . X O .. .X X+$=$OX ..+## . . .. .X X .. .X o o  .  +... .X X ",
"oo o . Oo Oo. o++ ++  ..+#+X . .@.Oo. oO.. ...o oX oOX..O.Oo. oO",
"O.  .O.o%o.o.o@.###X  . X+  Xoo@%@.o.o@. . oO.. .  X XXo@o.o.o@.",
"X  oO$OO O . .o.X#+ .   oX.. oo.O. . .o+ . o$O. . .X   +#X . .o+",
"+X .  . X  OO ..    .  X X  Xo. X  OO . o@o    o .  .  XX  OO . ",
"X . .X X+X.@%@.    .. . X .X . X+X.@%@..@$@.. o. oo . +X+X.@%@..",
"   o  o. o . .  .@@Oo  o.. o. oo o . .  $=$O  o. o.   ++ o . .  ",
".. .Oo.    +Xo  O@*@O. .o. oo oO   +Xo o.X .o o. ..OoX X   +Xo o",
"O . X O .. .X X O$=%O. .o. X   ... .X X +&# . . .oO@$. + . X   .",
"oo o . O@ Oo. o .X.X. X ...  o.OO Oo. oOX#+X . XO@O. X +  .  o.O",
"O.  .O.@%@.o.o@ O + . +X .Oo. oo%O.o.o@. +  XooX.$.# .X o Oo. oo",
"X  oO$O. . . .ooO.X.o. + .oo@. X   . .o  ... oo X  X.X.+. oo@. X",
"+X .  . X  OO ..o. OOo.  .oO%Oo X  OO .  .  Xo. +#+ .X.+ XoO%Oo ",
"X . .X X+X.@%@.. . . .OoX .   o.+X.@%@... .X . X+#+. XXXX .   o.",
"   o  o. o . .  .O. XX+  . X#X.. o . .  oo o. oo + . .X  . X#X..",
".. .Oo.    +Xo o.O@. +#X .  +  X   +Xo oO. oo o@.  .  o@ .  +  X",
"..O$@o . . X   .o  . . oo . @o . . X   .$O o. @*@.  .X. .. .X o ",
"...  XoO  .  o.O$@. +. o.    XoO  .  o.OX o  . + o .oX#+.. ...o ",
". .+#+ oo Oo. oo . .X. ..OoX#+ oo Oo. oo#.@Oo X .. o.X#X . oO.. ",
"# . X. .. oo@. X#X. X .oO@$.X. .. oo@. X @%@. o. . .. +  . o$O. ",
"#  oo.   XoO%Oo + ..XXO@O. Xo.   XoO%Oo .XXX. oo O.  X .o@o    o",
"+ O@O ..X .   o. . . X.$.# .O ..X .   o. X#X  oo@$@oo. X@$@o+ o.",
"+   . .. . X#X...O. X X  X.X. .. . X#X..X X o. oO*Oo..X $*$O  o.",
"  X#X.O. .  +  X.O@.  +#+ .XX.O. .  +  X . .$Oo.X X. .X..X .o o.",
"+XX+ $Oo.. .X o o  . X+#+. X $Oo.. .X o +X.X + O$O o. .@+&# . . ",
"+X . X+ .. ...o oX oOo + . . X+ .. ...o +X .X.X X o  . +X#+X . X",
"+ X. X#  . oO.. .  X O.  .   X#  . oO..  Oo.  o #.@Oo X  +  XooX",
"  + X X. . o$O. . .X @..  .XX X. . o$O. . XX. .O @%@. o. ... oo ",
"X.o +. .o@o    o .  .+ o .oX.. .o@o    X+X#X. .$.XXX. oo .  Xo. ",
"@@. X. o@$@o+ o. oo . .. o.XX. o@$@o+ o XX+  X   X#X  oo. .X . X",
"#+X+ .XO$*$O  o. o.  . . @   ..O$*$O  o.. X.X.X+X X o. ooo o. oo",
"+&#+  X..X .o o. ..OoX X+& +. X..X .o o..+ .o  X . .$Oo.O. oo oO",
"X#X X Xo+&# . . .oO@$. +X+X o .o+&# . . ..O@$. ++&# . . $O o.  @",
" X+ X X.X#+X . XO@O. X +  + o ..X#+X . XO@X. X +X#+X . XX o  . +",
" X+ X... +  XooX.$.# .X  .+ X... +  XooX.*.# .X  +  XooX#.@Oo X ",
".X X.@.. ... oo X  X.X.+.X X.@.. ... oo X  X.X.+ ... oo  @%@. o.",
"##+.$. . .  Xo. +#+ .X.+##+.$. . .  Xo. +#+ .X.+ .  Xo. .XXX. +.",
"#++XX++ . .X . X+#+. XXX#+ XX++ . .X . X+#+. XXX. .X . X X#X  X.",
"++XX#&+Xoo o. oo + . .X + .X#&+Xoo o. oo + . .X oo o. ooX X o. .",
"XX X+#+ O. oo oO.  .  o@X  X+#+ O. oo oO.  .  o@O. oo oO . .$O O",
"+X.X + O$O o. .@..  .X. +X.X . O$O o. .@..  .X. $O o. .@.. .X  @",
"+X .X.X X o  . + o .oX#++X .XoX X o  . + o .oX#+X o  . +o Oo. . ",
" Oo.  o #.@Oo X .. o.X#X Oo.  o #.@Oo X .. o.X#X#.@Oo X %o.o.o.X",
". XX. .O @%@. o. . .. + . XX. .O @%@. o. . .. +  @%@. o. O . ..X",
"+X#X. .$.XXX. oo O.  X .+X#X. .$.XXX. oo O.  X ..XXX. ooX  OO . ",
"#X+  X   X#X  oo@$@oo. X#X+  X   X#X  oo@$@oo. X X#X  oo+X.@%@  ",
"+ X.X.X+X X o. oO*Oo..X + X.X.X+X X o. oO*Oo..X X X o. o o . . .",
" + .o  X . .$Oo.X X. .X. + .o  X . .$Oo.X X. .X. . .$Oo.   +Xo O"
};
