/* XPM */
static char *TEKBRON1[] = {
/* columns rows colors chars-per-pixel */
"128 128 55 1 ",
"  c #67533F",
". c #5F4B37",
"X c #574333",
"o c #4F3B23",
"O c #4B371B",
"+ c #775F3F",
"@ c #775F4B",
"# c #3F2F17",
"$ c #6F5743",
"% c #43331B",
"& c #8F7753",
"* c #774F2B",
"= c #836B4B",
"- c #332B13",
"; c #7F532F",
": c #5F4323",
"> c #6B4727",
", c #9F8363",
"< c #2B230F",
"1 c #9F876F",
"2 c #430000",
"3 c #670B0B",
"4 c #875733",
"5 c #7B634F",
"6 c #8F5F37",
"7 c #5B0707",
"8 c #771717",
"9 c #432F1B",
"0 c #4F3B27",
"q c #533F2F",
"w c #836B57",
"e c #9B7F6B",
"r c #6B0F0F",
"t c #8B2323",
"y c #372313",
"u c #972F2F",
"i c #675333",
"p c #BF7B4B",
"a c #533F1F",
"s c #831F1F",
"d c #2F1B0B",
"f c #7F1B1B",
"g c #1F170B",
"h c #8F2B2B",
"j c #731313",
"k c #5B472B",
"l c #530707",
"z c #4F0000",
"x c #D78B5B",
"c c #A33B3B",
"v c #9B633B",
"b c #3F2B1B",
"n c #F7AB7B",
"m c #FFBB93",
"M c #AB6F43",
/* pixels */
"99999999999999999999999999999999999999999999999999999999999999999999999999999999999999999999999999999999999999999999999999999999",
"yyyyyyyyyyyyyyyyyyyyyyyyyyyyyyyyyyyyyyyyyyyyyyyyyyyyyyyyyyyyyyybyyyyyyyyyyyyyyyyyyyyyyyyyyyyyyyyyyyyyyyyyyyyyyyyyyyyyyyyyyyyyyyb",
"555@5w55@@@5555=@5@$@+5$@+@$@5@=555@5w55$@+@$@5@=555@@$@5@=555@5555@5w55@@@5555=@5@$@+5$@+@$@5@=555@5w55$@+@$@5@=555@@$@5@=555@5",
"   X @  ...    *X XoX: oX:XoX X*   X @  oX:XoX X*   XXoX X*   X    X @  ...    *X XoX: oX:XoX X*   X @  oX:XoX X*   XXoX X*   X ",
"  .<<<<<<<<<<<<<<<<<<<<<<<<<<<<<<<<<<<<<<<<<<<<<<<<<<<<<<<<<<     .<<<<<<<<<<<<<<<<<<<<<<<<<<<<<<<<<<<<<<<<<<<<<<<<<<<<<<<<<<   ",
"  .-<<<<<<<<<<<<<<<<<<<<<<<<<<<<<<<<<<<<<<<<<<<<<<<<<<<<<<<<o     .-<<<<<<<<<<<<<<<<<<<<<<<<<<<<<<<<<<<<<<<<<<<<<<<<<<<<<<<<o   ",
"  .-#%<<<<<<<<<<<<<<<<<<<<<<<<<<<<<<<<<<<<<<<<<<<<<<<<<<<<%OX     .-#%<<<<<<<<<<<<<<<<<<<<<<<<<<<<<<<<<<<<<<<<<<<<<<<<<<<<%OX   ",
"  .-#O%%%o%#%%%%###-%#-###%%%#-###%%%%#%-#%#-###%%%%#%o%%%oOX     .-#O%%%o%#%%%%###-%#-###%%%#-###%%%%#%-#%#-###%%%%#%o%%%oOX   ",
"  .-#OoXX.XoXXX:oXOXo:ooXOXOXoXOO%oXOqOXooqoXOXo:XXXoX.XXoXOX     .-#OoXX.XoXXX:oXOXo:ooXOXOXoXOO%oXOqOXooqoXOXo:XXXoX.XXoXOX   ",
"  .-#OX..$.X...>X.X..:  .o.....ooXo.oqo.ooqo.X.X>...X.$..XXOX     .-#OX..$.X...>X.X..:  .o.....ooXo.oqo.ooqo.X.X>...X.$..XXOX   ",
"  .-#OX. + .   @X X..  . o ....ooXX oqo .XqX X XX   . + .XXOX     .-#OX. + .   @X X..  . o ....ooXX oqo .XqX X X6   . + .XXOX   ",
"  .-#OX. + .   @X X..  . X ....XoXX XqX .XqX X XX   . XXoX.XX.    .-#OX. + .   @X X..  . X ....XoXX XqX .XqX X X6   . + .XXOX   ",
"  .-#OX. + .   @. ...  . X ....XoXX XqX .XqX . XX   .  +&==.X.    .-#OX. + .   @. ...  . X ....XoXX XqX .XqX . .6   . + .XXOX   ",
"  .-#OX. XoOoXX@. ...  . X ....XXXX XqX .XqX . XX  =&,,,,&&@..    .-#OX. XoOoXX@. ...  . X ....XXXX XqX .XqX . .6XXoOoX .XXOX   ",
"  .-#OX. X .  X@. ...  . X ....XXXX XqX .XqX . XX  X    X XX .    .-#OX. X .  X@. ...  . X ....XXXX XqX .XqX . .6X  . X .XXoX   ",
"  .-#OX. X .X X@. ...    X ....XXXX XqX  XqX . XX  X    X XX .    .-#OX. X .X X@. ...    X ....XXXX XqX  XqX . .6X X. X .XXoX   ",
"  .-#OX. X .  X@. ...    X ....XXXX XqX  XqX . XX  X    . XX .    .-#OX. X .  X@. ...    X ....XXXX XqX  XqX . .6X  . X .XXoX   ",
"   -#OX. X .X X@. ...    X ....XXXX XqX  .qX . .X  X    . XX .     -#OX. X .X X@. ...    X ....XXXX XqX  .qX . .6X X. X .XXoX   ",
"   -#OX. X .  X@. ...    X ....XXXX XqX  .qX . .X  X    . XX .     -#OX. X .  X@. ...    X ....XXXX XqX  .qX . .6X  . X .XXoX   ",
"   -#OX. X .X X@. ...    X@wwwwwwwww+@X  .qX . .X  Xo%%<<<<<O.     -#OX. X .X X@. ...    X@wwwwwwwww+@X  .qX . .;X X. X .XXoX   ",
"   -#OX. X .  X@. ...    X            X   qX . .X  .X. X%-<OX.     -#OX. X .  X@. ...    X            X   qX . .@X  . X .XXoX   ",
"   -#OX. X .X X@. ... $  X o%#%o#<#%o X  $qX . .X  X.   .XXoX      -#OX. X .X X@. ... $  X o%#%o#<#%o X  $qX . .;X X. X .XXoX   ",
"   -#OX. X .  X+. ... $  X X X XXoX X X  $qX . .X       .XXoX      -#OX. X .  X+. ... $  X X X XXoX X X  $qX . .;X  . X .XXoX   ",
"   -#OX. XXXXXX+. ... $  X @@@@@@@@@+ X  $qX . XXXXX    .XXoX      -#OX. XXXXXX+. ... $  X @@@@@@@@@+ X  $qX . .;XXXXXX .XXoX   ",
"   -#OX.   .   +  ... $  X   X  XXX   X  $qX . X;X; .   .XXoX      -#OX.   .   +  ... $  X   X  XXX   X  $qX .  ;;; .   .XXoX   ",
"   -oXX.       +  . X $  X o%%%o%%%%o X  $qX . X;       .XXoX      -oXX.       +  . X $  X o%%%o%%%%o X  $qX .  ;       .XXoX   ",
"   OoOoXoXoXoXoXoXoXoXoXoX X . XX . X XoXoqoXoXoXoXoXoXoXoOoX      OoOoXoXoXoXoXoXoXoXoXoX X . XX . X XoXoqoXoXoXoXoXoXoXoOoX   ",
"   OO#<#-#-o#o#o#o#o#o#o#o X . .. . X o#o#o#o#o#o#o#o#o#o<#oX      OO#<#-#-o#o#o#o#o#o#o#o X . .. . X o#o#o#o#o#o#o#o#o#o<#oX   ",
"   -#O%%o##XoXoXoXoXoOXXX. .@@@..@@@. .XXXOoXoXoXoXoXoXoXXooX      -#O%%o##XoXoXoXoXoOXXX. .@@@..@@@. .XXXOoXoXoXoXoXoXoXXooX   ",
"   -#OO%X%%X XXXXXXXoO.$$====@ .. @====$$.OoXXXXXXX XXXXXXooX      -#OO%X%%X XXXXXXXoO.$$====@ .. @====$$.OoXXXXXXX XXXXXXooX   ",
"   -#OO%X%O +     . XoX w,,,w X..X w,,,w X>X .     +     XooX      -#OO%X%O +     . XoX w,,,w X..X w,,,w X>X .     +     XooX   ",
"   -#OO%X%o +     . XoXXXXXXXXX..XXXXXXXXX>X .     +     XooX      -#OO%X%o +     . XoXXXXXXXXX..XXXXXXXXX>X .     +     XooX   ",
"   -#OO%XOo +   @@ @ oXX     XX@@XX     XX; @ @@   +     XooX      -#OO%XOo +   @@ @ oXX     XX@@XX   **XX; @ @@   +     XooX   ",
"   -#OO%XOX +  X &+&+++X     X+&&+X     X+&&&&& O  +     XooX      -#OO%XOX +  X &+&+++X     X+&&+X   **X+&&&&& O  +     XooX   ",
"   -#OO%XOX +  XX =@+++X     X&,,&X     X&&&&= OO  +     XooX      -#OO%XOX +  XX =@+++X     X&,,&X*** *X&&&&= OO  +     XooX   ",
"   -#OO%XOX +  XXXoXo:XX o o X    X     XX:oXo-#O  +     XooX      -#OO%XOX +  XXXoXo:XX o o X    X *** XX:oXo-#O  +     XooX   ",
"   -#OO%XOX +  XXXoXo:XX     X   4X     XX:oXo-#O  +     XooX      -#OO%XOX +  XXXoXo:XX     X   4X  *  XX:oXo-#O  +     XooX   ",
"   -#OO%XOX +  XXXoXo:XX f f X    X     XX:oXo-#O  +     XooX      -#OO%XOX +  XXXoXo:XX f f X  ;4X **  XX:oXo-#O  +     XooX   ",
"   -#OO%XoX +  XXXo o>XO%3%3%O    O%%XoooX>o o-#O  +     XooX      -#OO%XoX +  XXXo o>XO%3%3%O ;46O%%%%%OX>o o-#O  +     XooX   ",
"   -#OO%Xo. +  XXXoXo>X  3 3;         ... >oXo-#O  +     XooX      -#OO%Xo. +  XXXoXo>X  3 3;;;;4644;*** X>oXo-#O  +     XooX   ",
"   -#OO%Xo. +  XXXo o>X  3 3  ;       .X= >o o-#O  +     XooX      -#OO%Xo. +  XXXo o>X  3 3  ;4664;**** X>o o-#O  +     XooX   ",
"   -#OO%Xo. +  XXXo ooX  z z          .o- oo o-#O  +     XooX      -#OO%Xo. +  XXXo ooX  z z   ;664;  ** Xoo o-#O  +     XooX   ",
"   -#OO%Xo. +  XXXo oo.o+  X          ..o oo*o-#O  +     XooX      -#OO%Xo. +  XXXo ooX  X X    4;4;  ** Xoo*o-#O  +     XooX   ",
"   -#OO%Xo. +  XXXo oo.X+ .  .   = oX ..X oo*o-#O  +     XooX      -#OO%Xo. +  XXXo oo-<<<<<<<% 4-<<<<<<<%oo*o-#O  +     XooX   ",
"   -#oO%Xo. +  XXXo Xo.X+ . XoXXX= oX ..X oX*o-#O  +     XooX      -#oO%Xo. +  XXXo Xo-<<<<<<%X 4-<<<<<<%OoX*o-#O  +     XooX   ",
"   #o +i+ @@@@@ XXo XoXX+ . X.  X= oX ... oX*o-#:@@@@@@@@@ oX      #o +i+ @@@@@ XXo Xo-<%<<<%oX  -<%<<<%oOoX*o-#:@@@@@@@@@ oX   ",
"   X wwiw+@&,,&@ Xo XoX=+ . X.  X= XX .X+ oX*o#:@&,,&,,,,,@ X      X wwiw+@&,,&@ Xo Xo-<OXXoOoX  -<OoXXXoOoX*o#:@&,,&,,,,,@ X   ",
"   X@eeie &,11,,@Xo Xoo-  . X.  X= XX .o- oX oX@,,11,11111e@X      X@eeie &,11,,@Xo Xo-<O..XOXX  -<OX..XoOoX oX@,,11,11111e@X   ",
"     X::Xo .. XX.   .oXo  . X.  X= XX ..X o. oX  . ..    .X X      X X::Xo .. .  Xo .o-<O  XOXX  -<OX  XoOo. oX  . ..    .X X   ",
"     X::Xo .X XX..  .oXX  . X.  X= XX ..X$o. oX  . X.    XX X      X X::Xo .X .  Xo .o-<O  XOXX  -<OX  XoOo. oX  . X.    XX X   ",
"    ++++++++++kX..  .o.X  . X.  X= XX ...$o. oX X::X.    XX X      X X::Xo .X .  Xo .o-<O  XOXX  -<OX  XoOo. oX X::X.    XX X   ",
"    +o%%%O%%%o%X..  .o.X  . X.  X= XX+.X.$o. o--<<<<<<<<<<<%X      --<<<<<<<<<<<%Xo .o-<O  XOXX  -<OX  XoOo. o--<<<<<<<<<<<%X   ",
"    +X777X777X%X..  .oX+  . X.  X@ XX+XX=$o. o---<<<<<<<<<%oX      ---<<<<<<<<<#oXo .o-<O  XOXX  -<OX  XoOo. o---<<<<<<<<<%oX   ",
"    ++@@@@@@@+%X..  .Xo-  . X.  X@ XX Xo-$X. o-----<--<-O#OXX      ------<--<--OXXo .X-<O  XOXX  -<OX  XoOX. o-----<--<-O#OXX   ",
"    +o%%%O%%%o%X..  .XXX  . X.  X@ XX X o$X. o----OoXXoXOooXX      ----OXoXXoXXoXXo .X-<o  XoXX  -<oX  XoOX. o----OoXXoXOooXX   ",
"    +Xtt8XhttX%X..  .XXX  . X.  X@ .X X .$X. o---o:X  X ;oXXX      ---o: X  X  XXXo>.X-<o  XoXX  -<oX  XoOX. o---o:X  X ;oXXX   ",
"    +X872X278X%X..  .XX.  . X.  X@ .X X..$X. o-##:+.++ +4 XXX      -##:++ ++.+  XXo>*X-<o  XoXX  -<oX  XoOX. o-##:+.++ +4 XXX   ",
"    +Xr72X27rX%X..  .XX.  . X.  X@ .X X..$X. o-#: + ++ @v  XX      -#: +@ ++ @ @ XX>*X-<o  XoXX  -<oX  XoOX. o-#: + ++ @v  XX   ",
"    +X722X227X%X..  .XX=    X.  X@ .X XX=$X. o#:* ++@@ +M & X      #:* ++ @@+&@== X**>-<o  XoXX  -<oX  XoOX. o#:* ++@@ +M & X   ",
"    +.o: XoXX@%X..  .Xo-    X.  X@ .X Xo-$X. oO*@++@@@+pp+@,       O*@++++@@@&@&== **>-<o  XoXX  -<oX  XoOX. oO*@++@@@+pp+@,    ",
"    k%%%%%%%%%%X..  .X .    X.  X+ .X X.o$X. o@@ X@X$$......$.       .o: XoXX@X>>>>**>-<o  .oXX  -<o.  XoOX. o@@ X@X$$......$.  ",
"     .X: XoX.@XX..  .X      X.  X+ .X X.X$X. o+@ X@X$$......$.       .o: XoXX@X>>****>-<o  .oXX  -<o.  XoOX. o+@ X@X$$......$.  ",
"     .X: XoX.+XX..  .X      X.  X+  X X.X$.. o+@ X@X$$......$.       .o: XoXX@X>>*;;*>-<o  .oXX  -<o.  XoO.. o+@ X@X$$......$.  ",
"     .Xo XoX.+.X..  .X      X.  X+  X XXX$.. o+@ X@X$$......$.       .X: XoXX@X>;;4;*>-<o  .oXX  -<o.  XoO.. o+@ X@X$$......$.  ",
"     .Xo XoX.+.X..  .XX=    X.  X+  X XX=$.. o+@ X@.$$......$        .X: XoX.@X>;444;>-<o  .oXX  -<o.  XXO.. o+@ X@.$$......$   ",
"     .X: XoX.+XX..  .Xo-    X.  X+  X Xo-$.. o$@ X+.$$......$        .X: XoX.+X>*44;*>-<o  .oXX  -<o.  XXO.. o$@ X+.$$......$   ",
"     .Xo XoX.+.X..  .X .    X.  X+  X..Xo$.. o$@ .+.$$.$... $        .Xo XoX.+.>*;;;*>-<o  .oXX  -<o.  XXO.. o$@ .+.$$.$... $   ",
"     .Xo XoX.+.X..  .X  .   X.  X+  X..XX$.. o$+ .+.$$.$... $        .Xo XoX.+.>**;**>-<o  .oXX  -<o.  XXO.. o$+ .+.$$.$... $   ",
"     .XX XoX +.X..  .X  .   X.  X$  X...X$.. o$+ .+ $$.$$.. $        .XX XoX +.>>*.;*>-90  .09X  -90  .09O.. o$+ .+ $$.$$.. $   ",
"     .XX XoX +.X..  .X.X    X.  X$  $...X$ . o$$ .+ ...$$.. $        .XX XoX +.>**.**>-djshsjdX  -djshsjdO . o$$ .+ ...$$.. $   ",
" .   .XX .o. +.X..  .XX+    X.  X$ +...X+$ . o $ .+ ...$$.. $ .  .   .XX .o. +.>**.** -dzzzzzdX  -dzzzzzdo . o $ .+ ...$$.. $ . ",
" .   .XX .o. +.X..  .Xo-    X.  X$  X..o-$ .   $ .+ ...$$.   $.  .   .XX .o. +. **.** -9yyyyy9X  -9yyyyy9o .   $ .+ ...$$.. $ . ",
" . OO<<<<<<<<<<<<<o .XXX    X.  X$  ...XX$ ...   . X. .  .    .  . OO<<<<<<<<<<<<<o** -90  .09X  -90  .09o . -<<<<<<<<<<<<<OO . ",
" . OOO<<<<<<<<<<<oX .XXX    X.  X$ $...XX$ ..X.... X.    .    .  . OOO<<<<<<<<<<<oX*. -djshsjdX  -djshsjdo . -#<<<<<<<<<<<OOO . ",
" . OOOO<<<<<<<<<OoX . X. .  X.  X$ +...X.$ . .    %<gggg%.   $.  . OOOO<<<<<<<<<OoX*. -dzzzzzdX  -dzzzzzdo . -#O<<<<<<<<<OOOO . ",
"<<OOOOO#%%#%%O%oOoX . X. .  X.  X$ $...X.$ . .    o<<<<<o. <<<<<<<OOOOO#%%#%%O%oOoX*. #9yyyyy9X  #9yyyyy9o . -#Oo%O%%#%%#OOOO%<<",
"<<<#OOOooXoXX.XXOoX . X= .  X.  X   ...X=$ . .  c Xzzz--X. -<<<<<<<#OOOooXoXX.XXOoX . #90  .09X  #90  .09o . -#OXX.XXoXooOOO%<<<",
"<<<<OOOoo.X.. .XOoX . o- .  X.  X   ...o-$ . .  o X223##X. -#<<<<<<<OOOoo.X.. .XOoX . #djshsjdX  #djshsjdo . -#OX. ..X.ooOO%<<<<",
"<<<<<OOoX X .+ XOoX .  . .  X.  X   ... .$ . .. X X<#3##X. -#O<<<<<<<OOoX X .+ XOoX . #dzzzzzdX  #dzzzzzdo . -#OX +. X XoO%<<<<<",
"XoXoXXXo @X@.+ XOoX .    .  X.  X   ...  $ . ..$c X333##X. -#OoXXoXoXXXo @X@.+ XOoX . #9yyyyy9X  #9yyyyy0o . -#OX +..X@ oXXXoXoX",
".X.X..XX *X .+ XOoX .    X  X.  X   ..   $ . ...o X223##X. -#OX..X.X..XX *X .+ XOoX . ##X   XXX  ##X   XXo . -#OX +..X* XX..X.X.",
" X   .XXXXX+@+ XOoX .    X  X.  X   ..   $ . .. X X<#3##X. -#OX  X   .XXXXX+@+ XOoX . ##X   XXX  ##X   XXo . -#OX +..XXXXX. X X ",
"  @+ .X X X@$+ XOoX . X= X  X.  X   .. X=$ . .. c X333##X. -#O    @+ .X X X@$+ XOoX . ##X   XXX  ##X   XXo . -#OX +..X X X. X@  ",
" +*o .$a. X+.+ XOoX . o- X  XXXXX   .. o-$ . .. o X2233#X. -#O   +*o .$a. X+.+ XOoX . #90  .09X  #90  .09o . -#OX +..X .aX. X*  ",
" .XX@+aO. X .+ XooX .  . X   .      ..  .$ . .  X X##l3#X. -#O.  .XX@+aO. X .+ XooX . #djshsjdX  #djshsjdo . -#OX +..X .OX..X . ",
" . X>$XX. X .+ XooX .   .X  .+++++++..   $ . .  X X##<l#X. -#O.  . X>$XX. X .+ XooX . #dzzzzzdX  #dzzzzzdo . -#OX +..X .XX. X . ",
" . X4.$X. X .+ XooX .   .X  X       X.$  $ . .  X X#####X. -#O.  . X4.$X. X .+ XooX . #9yyyyy9X  #9yyyyy9o . -#OX +..X .XX. X . ",
" . X;.XX. . .+ XooX .   .X  X X   X X.$  $ .%<<<<<<#####X. -#O.  . X;.XX. . .+ XooX . ##X   XXX  ##X   XXo . -#OX +... .XX. X . ",
" . X6.XX. . .+ XooX . X+.X  X  O%O  X.$X+$ .Xgggggg#####X. -#O.  . X6.XX. . .+ XooX . oXX +@+XX  #X+@+ XXo . -#OX +... .XX. X . ",
" . .6.XX. . .+ XoXX . o-.X  ooooXoooo.$o-$ .Xzzzzz3f3###X. -#O.  . .6.XX. . .+ XoXX . oXX+@&&+X  X+&&@+XXo . -#OX +. . .XX. . . ",
" . .6.XX. . .+ XoXX . ..XX  .%oX.Xo%..$..$ .X222222r8###X. -#O.  . .6.XX. . .+ XoXX . oX+@&,,&+  +&,,&@+Xo . -#OX +. . .XX. . . ",
" . .6.XX. . .+ XoXX .  .XX @@.;X  *. .$ .$ .X###########X. -#o.  . .6.XX. . .+ XoXX . o @&,,11&  &11,,&@ o . -#oX +. . .XX. . . ",
"@+@@p++ +++=+@@ oXX .   X,11&@.  .@&1.$  $ .Xzzzzzz333##X. -#o+@@+@@p++ +++=+@@ oXX . X+&,11&@.  .@&11,&+X . -#o @@+=+++ ++@@@+@",
"=@&&x=@$=@+&+&&@ XX .   X1&@. .  . .@.$  $ .X222222223##X. -# @==@&&x=@$=@+&+&&@ XX . +&11&@. .  . .@&11&+ . -# @&&+&+@=$@=&&&@=",
"&@,&n==@,==,=,,,& X . X+X@ .. .  . ...$X+$ .X#######23##X. - &@&&@,&n==@,==,=,,,& X . &,&@ .. .  . .. @&,& . - &,,,=,==,@==,&,@&",
",&,,m&&=,&&,&,,,,,  . o-X  .. .  . ...$o-$ .+&@++@&+@&&&+.  ,,&,,&,,m&&=,&&,&,,,,,  .      .. .  . ..      .  ,,,,,&,&&,=&&,,,&,",
"   .oXX +.ooooooooooooooooooo ..%oXoooooo.XoOOoXOooX.. . XXo.      .oXX . ..XooOXoOOoX.X.X...Xo%%oX...X.X.XoOOoXOooX.. . XXo.   ",
"   .oXX  .o..XX..  @ X..XX  o ..O.    . .   XX. X   .  . XXo.      .oXX .  .   X .XX   . .    .o..    . .   XX. X   .  . XXo.   ",
"   .oXX  .o..XX..  @ XXX.Xo o ..OXXX XoX.XXXoooXoXXXXX . XXo.      .oXX . XXXXXoXoooXXX.XqX XXXo.XXX XoX.XXXoooXoXXXXX . XXo.   ",
"   .oXX  .o..XX..  @ XXX.XX o ..OX X XXX.X  X . .   .X . XXo.      .oXX . X.   . . X  X.XqX X Xo.X X XXX.X  X . .   .X . XXo.   ",
"   .09X  .o..XX .  @ XXX.XX o ..OX X XXX.X  X . .   .X . XXX.      .09X . X.   . . X  X.XqX X Xo.X X XXX.X  X . .   .X . XXX.   ",
"ssssjdX  .o..XX .  + XXX.XX o  .OOOOOOOOOOOO#XXXXXXXXX . -djssssssssjdX . X.% %.%. #OOOOOOOOOOOOOOOOOOOOOOOO#XXXXXXXXX . -djssss",
"zzzzzdX  .X..XX   @+ .XX.XX o  .OX. $$$$$$$$% .o.o o.X o -dzzzzzzzzzzdX o X.o o.o. %   $$$$. .Xo.X. $$$$$$$$% .o.o o.X o -dzzzzz",
"9999y9X  .X..XX   @+ .XX.XX o  .OX. .     X O .o.o o.X . -9y99999999y9X . X.o o.o. O X     . .Xo.X. .     X O .o.o o.X . -9y9999",
"   .09X  .o..XX   @+ .XX.X@ o  .OX. .       o .o.o o.X . ##O.      .09X . X.o o.o. o       . .Xo.X. .       o .o.o o.X . ##O.   ",
"ssssjdX  .o..XX   @+ .X.X.  o  .OooooooooooooXXXXXXXXX . -djssssssssjdX . X.X X.X. ooooooooooooooooooooooooooXXXXXXXXX . -djssss",
"zzzzzdX  .o..XX..  @ XX.X.  o ...X. .    X    . .. ..X o -dzzzzzzzzzzdX o X.. .. .    X    . .Xo.X. .    X    . .. ..X o -dzzzzz",
"999yy9X  .X..XX..  @ XX.X.%%oooO%ooXXXXXXoXXX . .. ..X . -9y9999999yy9X . X.. .. . XXXoXXXXXXoo%%ooXXXXXXoXXX . .. ..X . -9y9999",
"   .09X =.X..XX..  @ XX.X+oruuu8oX. .       X . .. ..X . -#0.      .09X . X.. .. . X       . .Xo.X. .       X . .. ..X . -#0.   ",
"ssssjdX  .o..XX .  @ XX.X.o2zzz2OOooXXXXXoXXX . .. ..X . -djssssssssjdX . X.. .. . XXXoXXXXXooOOOOooXXXXXoXXX . .. ..X . -djssss",
"zzzzzdX  .o..XX .  + XX.Xo%%# o .X  .    X    . .. ..X o -dzzzzzzzzzzdX o X.. .. .    X    .  XX.X  .    X    . .. ..X o -dzzzzz",
"9999y9X  .o..XX   @+ .X.XOo8uuu8ooooooXX X    . .. ..X . -#y99999999y9X . X.. .. .    X XXooooo..oooooXX X    . .. ..X . -#y9999",
"    XXX  .X..X.    + .X.X#o2zzz2o   .  X X         ..X . -#O        XXX . X..XXX oXo  X X  .   ..   .  X X         ..X . -#O    ",
"    XXX  .X..X.    + .X.XX@@# o .XXX.  X X         ..X . -#X        XXX . X..XXX XXo  X X  .XXX..XXX.  X X         ..X . -#X    ",
"    XXX  .o..X. .  $ .X.X.  # oo.X X.  X OoXXXXXXXXXoX . -#o.       XXX . XoXXXXXXXoXoO X  .XXX..X X.  X OoXXXXXXXXXoX . -#o.   ",
"   .09X  .o..X. .  $ .X.X.  #   .XXX.  X ..         .  . -90.      .09X .  . XXX XXo .. X  .XXX..XXX.  X ..         .  . -90.   ",
"ssssjdX  .o. X. .  $  X.X.  #   .   .  X ..         .  . -djssssssssjdX .  . XXX XoO .. X  .   ..   .  X ..         .  . -djssss",
"zzzzzdX  .o. X. .  $  X.X.  #   XXXoOoXX .. ..      .  o -dzzzzzzzzzzdX o  . XXX  .. .. XXoOoXXXXXXoOoXX .. ..      .  o -dzzzzz",
"9999y9X  .o. X. .  $  X.X.  #       .    .. ..      .  . -9y99999999y9X .  . XXX  .. ..    .        .    .. ..      .  . -9y9999",
"X X XXX  .o%#################       .    .. ..      .  . -90. XXX X XXX .  . XXX  .. ..    .        .    .. ..      .  . -90. XX",
"+@+@+XX .  . XXX  .. X>X  XX  X>>X  XX  X>X ..      .  . -X+@++++@+@+XX .  . XXX  .. X>X  XX  X>>X  XX  X>X ..      .  . -X+@+++",
"&&&&&+X .  . oXX  .. XOO  o#  O##O  #o  OOX ..      .  . -+&&&&&&&&&&+X .  . oXX  .. XOO  o#  O##O  #o  OOX ..      .  . -+&&&&&",
",,,,,&+ .  . .    .. X:o  o%  o%%o  %o  o:X ..      .  . +&,,,,,,,,,,&+ .  . .    .. X:o  o%  o%%o  %o  o:X ..      .  . +&,,,,,",
"        .  . XXX  .. X>o  XO  o%%o  OX  o>X ..      .  .                .  . XXX  .. X>o  XO  o%%o  OX  o>X ..      .  .        ",
"      . .  . X X  .. X>o  Xo  o%%o  oX  o>X ..      .  .              . .  . X X  .. X>o  Xo  o%%o  oX  o>X ..      .  .        ",
"..... . .  . ooX  .. X>X  Xo  XOOX  oX  X>X ..      .  . . ..  ...... . .  . ooX  .. X>X  Xo  XOOX  oX  X>X ..      .  . . ..  .",
"..... . .  . ..   .. X*X  Xo  XOOX  oX  X*X ..   .. .  . . .......... . .  . ..   .. X*X  Xo  XOOX  oX  X*X ..   .. .  . . .....",
"..... . .  . ..   .. .*X  Xo  XooX  oX  X*. ..   .. .  . . .......... . .  . ..   .. .*X  Xo  XooX  oX  X*. ..   .. .  . . ....."
};
