/* XPM */
static char *TEKGREN1[] = {
/* columns rows colors chars-per-pixel */
"64 128 82 1 ",
"  c #474F33",
". c #070707",
"X c #232323",
"o c #0B0B0B",
"O c #272727",
"+ c #1F170B",
"@ c #2F2F2F",
"# c #373737",
"$ c gray23",
"% c #979797",
"& c #170F07",
"* c #533F2F",
"= c LightGray",
"- c #732B00",
"; c #332B13",
": c #836B57",
"> c #5F4B37",
", c #B7B7B7",
"< c #777777",
"1 c #6F5743",
"2 c #4B4B4B",
"3 c #838383",
"4 c #6F6F6F",
"5 c #939393",
"6 c #A78F77",
"7 c gray50",
"8 c #13230B",
"9 c #67533F",
"0 c #2B230F",
"q c #8B8B8B",
"w c #A7A7A7",
"e c #BFA78F",
"r c #7B7F63",
"t c #9F9F9F",
"y c #9F876F",
"u c #9B7F6B",
"i c gray75",
"p c #AF977F",
"a c gray78",
"s c #775F4B",
"d c #0B1707",
"f c gray70",
"g c #CBCBCB",
"h c #7B634F",
"j c gray86",
"k c #000023",
"l c #372313",
"z c #DFDFDF",
"x c #473323",
"c c #D37373",
"v c #3F2B1B",
"b c #EFEFEF",
"n c gray42",
"m c gray67",
"M c gray31",
"N c #53573B",
"B c gray28",
"V c gray34",
"C c #5B6347",
"Z c #3F472B",
"A c #AF7B1F",
"S c #9B5B13",
"D c #434343",
"F c #373F27",
"G c #1B1B1B",
"H c #2F371F",
"J c #C39B2F",
"K c #5B5B5B",
"L c black",
"P c #6F7357",
"I c #232B0F",
"U c #676B4F",
"Y c #B79F87",
"T c #4B371B",
"R c #171F07",
"E c #937B63",
"W c #5B472B",
"Q c gray39",
"! c #3F2F17",
"~ c #874307",
"^ c #131313",
"/ c #43331B",
/* pixels */
"^^^^^^^^^^^^^^^^^^^^^^^^^^^^^^^^^^^^^^^^^^^^^^^^^^^^^^^^^^^^^^^^",
"FUUUUUUUUUUUUUUUUUUUUUUUUUUUUUUUUUUUUUUUUUUUUUUUUUUUUUUUUUUUUCN^",
"FUBBBB MMMBMVZZZDBBZBVNBBMBD ZNBMBMDBMMMNM NNNZMBNBBMBMMBMBZBBH^",
"FUBBHHHHHHHHHHHHHHHHHHHHHHHHHHHHHHHHHHHHHHHHHHHHHHHHHHHHHHHMMBH^",
"FUBBHLL~~~~~~~LLLLLLLL~~~~~~~LLLLLLLL~~~~~~~LLLLLLLL~~~~~~HZMBH^",
"FUBBHGG!AASASSS/GGGGGG!AJJAASS/GGGGGG!JJJJJJJ/GGGGGG!AAJJAHZMBH^",
"FUBMHGGGTASASSASTGGGGGGTAJAASSATGGGGGGTJJJJJJATGGGGGGTAJJAHZMBH^",
"FUBMHGGGGTSASSAJSTGGGGGGTAAASSAJTGGGGGGTJJJJJAATGGGGGGTJJAHZNBH^",
"FUBMHGGGGGTASSAJASTGGGGGGTAASSAJATGGGGGGTJJJJAAATGGGGGGTJAHZ BH^",
"FUBMHGGGGGGTSSAJASSTGGGGGGTASSAJJATGGGGGGTJJJAAAJTGGGGGGTAHF MH^",
"FUBMHGGGGGGGWSAJASSSFGGGGGGWSSAJJJAFGGGGGGWJJAAAJJFGGGGGGFHF MH^",
"FUBMPCCCCCCCCCCCCCCCCCCCCCCCCCCCCCCCCCCCCCCCCCCCCCCCCCCCCCUH MH^",
"FU  P  BMNCVM DMBBD  CZNMB  CNN Z  ZZVZZ N  N   KQNMB  C  BHNVH^",
"FU  P  BMNNKM DMBBD  NZNMB  NNN Z  ZZVZZ N  N   KKNMB  N  BHNCH^",
"FU NP  BMNNVM BMBBD  N NMB  NNN Z  Z VZZ N  N   KKNMB  N  BHNNH^",
"FUNCP NBM NMM BMBBD  NNNMB  NVN Z  Z MZZ N  N   MVNMB NN  BHNNH^",
"FUNCP NBM NMM BMBBDN NC MBN NVN Z  Z MZZ N  N   KMNMBNCN NBH NH^",
"FUNCP NBB NMV BMBBDN NC MBN NVN Z MZ MZZ N  N   KMNMBNCN NBH NH^",
"FU CP  BB NMV BMBDDN NC BBN NVN Z MZ MZZ N  N   MBNMBNCN NBH NH^",
"FU NP  BM NMV BMBDD  NC BB  NMN Z M  MZZ N  N   MBMMB CN  BH NH^",
"FU NP  BM  MM BMBDD  VN MB  VMN Z M NMZZ    N   MDMMB NV  BI NH^",
"FU NP  BMZ BM BMBDD  MN MB  MM  Z M NMZZ    N   MB MB NM  BR  H^",
"FU NHHHHHHHHHHHHHHHHHHHHHHHHHHHHHHHHHHHHHHHHHHHHHHHHHHFHHHHR  H^",
"FU NRRRRRRRRRRRRRRRRRRRRRRRRRMEYYE RRRRRRRRRRRRRRRRRRIRRRRRR  H^",
"...G...0.....................................oo..o..o..o........",
"...G.........................................do..o..o.o0........",
"..oG...G...........X.........................^d..^..^.^@........",
"o^^@..^M........o..M..o.ooooo.^+oo..............^G..G.+0........",
"o^^@...X...........B.....ooooo+^...........o^^..oR..G.^@........",
".GG$ooo@....ooooo..M..oo^^XGvlx&oooo..^..o^.@ d.IIo.$oo7....oooo",
"GO@<^^XqLL^GXO^X^#Q3Q#^L+o+++OEO+^^^oL#^LX^LLP;&;DG^QXOzLL^GXO^X",
"^O@<^^X=L^@Oo^^^+QtgqQ+LG+@*M>:*>>*++Of^&X^LXPO^ZZGoO.BwL^@Oo^^^",
"GXO,^L+e^G^^^GG+XPtfqPX&^o..++G++++Mw0+L^+^^ssO^DZ+o@L#%^G^^^GG+",
"G@#,L^L;oo^^#O^X#CrrrC#^&LLOKV:1BB9ueQ$M@^^^pC;&ZZGLO.B%oo^^#O^X",
"GX@3^^^PLL^@X^O2;ZDMDZ;&&&.+&+X+&&.sc+&.XX^LMQ#XZBGo#+*eLL^@X^O2",
"GO@7^.O=^XDM^$BML@;4;@L.ZCVXGXBBXOo!!OB.^X^L^QB^ZNXo#o@,^XDM^$BM",
"GO@7^o^Q^^O8ONO1XNZ%ZNLN*1y0..#*o^^^^&p^^X^^^:BL*NXo#.Oe^^O8ONO1",
"oOOQ^^^D^^X^^^.X@^M4M^OVh1u+L.O*G++G^.a#+Z^+CyBLZNGoO.O,^^X^^^.X",
"GO@<^^XqOO2@L@@$#&5w5&#P+*>L^..##GXGGDPLF@X@3<NLZNGoX.@gOO2@L@@$",
"^O@<^^X=G^DDLO#BZL363LZPLX&++^ooXGO#$^^ZZO8o@VBLVZ^oOo@=G^DDLO#B",
"XX@<^^LD^oXX^VO+#LNrNL#rX^LXO^@L^^@@VDO^^@^L^V#.XXooO^B,^oXX^VO+",
"^@@q^^.Z^oL^L%Q.@ 5j5 @Q@@B^+.V#O+LX5@L^^@^L&Q@LooooO+1,^oL^L%Q.",
"G@@%^^X%@^L^L7N^L %=% @VO*O+$B.;VV^^Q#L^^;^^CQ#Loooo$G>,@^L^L7N^",
"^@Ot^^^<#^oLLNX.L %=% OMX+^&B4OO#:1+.##^^@+@PPOLooooO^Ve#^oLLNX.",
"G@Xm^^.XG^.&LQO.LM%=%MLZX2X#!O:hW>BD&./O^X^^CNBLooooO^B,G^.&LQO.",
"^@Xw^^^D^^^^.QO^LC%=%CL#^++*+@*:>0.@M.L$X@&L&;@LooooV^1u^^^^.QO^",
"^@Xw^^^wX8^^L$X^LC%=%CL@^LL3^*:&u>.^ZXL+X^&L.V@Loooo4o:OX8^^L$X^",
"&X^iX^.VKXM^LDD@LC%=%CL;+^+5MB++*uO&&#GD$^^L;qVLooooB+*qKXM^LDD@",
"^X^,X^.OX^X^LXG^L96=69L;^^+1E*+++M@+L^O@#+@XQrMLOGXB^*@jX^X^LXG^",
"^X^tX^^MGo^L^XD^LM:i:MLL#X^L>>+++#+DXL#BZ^Z@P:B&O#VV+*@=Go^L^XD^",
"^X^3X^.P^o^LooOO.K3=3K..DX^^+>o+O+.*4L+ON^^.#9/.+*t+>@@B^o^LooOO",
"^X^7X^LO#X@#OL^^LK6=6KL^+LQO.O+OX^.0:^LL:O.L^#XL+>w.QOO,#X@#OL^^",
"^X^4X^.#M@Q#BO^^LC%=%CL^LL7@L^+#^+++*O^LQ#LL^NXLo7<#,OBaM@Q#BO^^",
"^X^QX^LBVk<^#B^^LC%=%CL^o.B#L^^^L##^O@XLBOXXFC;L.yB*fO*=Vk<^#B^^",
"^X^QX.LBD^2OO@^^LK%=%KLXLL^ML^++^O4o+NDL;B4QP+&^.5@#,+#bD^2OO@^^",
"^X^QX^L^DGO#B$X^LK6=6KLXLLOQ.^^<O.E+XOQL;PNNC^^G+%#Ba.*pDGO#B$X^",
"^+.DX^LDXLGo^OOLL96=69LLLLOV^^LQO.7#O.#.ONL&;L^X+%#Oi*QiXLGo^OOL",
"^^^DX^L4^o^ooXG^LC%=%CLLoLLX^OGBO#9VXo2##D^^X^XB>y*+5OVa^o^ooXG^",
"^^LVX^LO^o$DX2XLLC%=%CLL^LL.LX.V+!E#+L^^X4@QOX8Q17n^E*Mo^o$DX2XL",
".X.MX^^^^^^OODO^LC%=%CLL^L^&L^LX++>+^L^^XD^XF^&V9:Q.V@O$^^^OODO^",
"^GoDX^L$^^^^^GOoLM%=%MLL^LX#XoL^^+X+^&@X^D++^^+Uyh:+=o13^^^^^GOo",
"^X^MX^LZ^oBBo$X^L %=% LLLLLDO^LOX^#^XLO^LMD@^^GN%V<+,&Mi^oBBo$X^",
"^XLMX^L@GoOG8$$^L %=% LLoLLDXLL@+^XX^LX^^D&X^^^23*:@e+#gGoOG8$$^",
"^XLQX^LD^oXo^OOo@ 5j5 LLLL^M^LL^^LV+^oV+GX^^XXX@p>E*e*:6^oXo^OOo",
"GGGGGGGGGGGGGGGGGGGGGGGGGGGGGGGGGGGGGGGGGGGGGGGGGGGGGGGGGGGGGGG^",
"FPCCCCCCCCCCCCCCCCCCCCCCCCCCCCCCCCCCCCCCCCCCCCCCCCCCCCCCCCCCCCH^",
"FCBBMB M  BBMZZ ZBMBBB BBMB B  BMM DB BMND NNN BBMBBBB B  B Z H^",
"FCBBMB B  BBMZZ ZBMZMM MBMB B  BMM DB BMND NNN BBMBBMB B  B Z H^",
"FCMBPF PF PFMPF PFBPFMPFBPF PF PFMPFBPFMPF PFNPFBPFBPF PF P   H^",
"FCBBFZ FZ FZVFZZFZBFZMFZBFZ FZ FZMFZBFZMFZ FZNFZBFZBFZ FZ FZ  H^",
"FCBBFB F  FMVZZZ BBFBVNBBMB  Z BMBFDB MMFM NNN MBNBBMB M  BZ  H^",
"FCBBHHHHHHHHHHHHHHHHHHHHHHHHHHHHHHHHHHHHHHHHHHHHHHHHHHHHHHH N H^",
"FCBBHLL~~~~---LLLLLLLL~~~~~~~LLLLLLLL~~~~~~~LLLLLLLL~~~~~~HZN H^",
"FCBBHGG!AAS~---/GGGGGG!AJJAASS/GGGGGG!AAAAAAJ/GGGGGG!AAJJAHZ  H^",
"FCBMHGGGTAS~---~TGGGGGGTAJAASSSTGGGGGGTAAAAAJATGGGGGGTAJJAHZ  H^",
"FCBMHGGGGTS~---~STGGGGGGTAAASSS~TGGGGGGTAAAAJAATGGGGGGTJJAHZ  H^",
"FCBMHGGGGGT~---~SSTGGGGGGTAASSS~~TGGGGGGTAAAJAAATGGGGGGTJAHZ  H^",
"FCBMHGGGGGGT---~SSSTGGGGGGTASSS~~~TGGGGGGTAAJAAAJTGGGGGGTAHFZ H^",
"FCBMHGGGGGGGW--~SSSSFGGGGGGWSSS~~~~FGGGGGGWAJAAAJJFGGGGGGFHFZ H^",
"FCBMNCCCCCCCCCCCCCCCCCCCCCCCCCCCCCCCCCCCCCCCCCCCCCCCCCCCCCNFZ H^",
"FCBMMB  NMBDMZZZZDZDDMZBMMB M BBMB M  BB D     DM BMMBN N BFZ H^",
"FCBMMB  NMBMVZZZZDFBD ZBMMB M BBBB M  BBZD     DM BMBBN N BFZ H^",
"FCBMMB  NMBDVZZZZDFB$ ZBMBB VNBBMB  Z BDZD     DM BMBB  N BFZ H^",
"FPUUUUUUUUUUUUUUUUUUUUUUUUUUUUUUUUUUUUUUUUUUUUUUUUUUUUUUUUUUUUH^",
"FCBMBB  NMBDMZZZZDFZ$ ZBMBB MNBBMB    BDFD     $M BMMB  NMBFF H^",
"FCBMBB  NMBDMZZ ZDFZ$ ZBMBB MNBMMB  N BDZD     $MZBMMB  NMBFF H^",
"FCBMBB BNMBDMZZ ZDFZ$ ZBMZMNM BMMBN N B        $ ZBMMB  NMBFZ H^",
"HHHHHHHHHHHHHHHHHHHHHHHHHHHHHHHHHHHHHHHHHHHHHHHHHHHHHHHHHHHHHHH^",
"FGGGGGGGGGGGGGGGGGGGGGGGGGGGGGGGGGGGGGGGGGGGGGGGGGGGGGGGGGGGGGH^",
"FGGGGGGGGGGGGGGGGGGGGGGGGGGGGGGGGGGGGGGGGGGGGGGGGGGGGGGGGGGGGGH^",
"FGGGGGGGGGGGGGGGGGGGGGGGGGGGGGGGGGGGGGGGGGGGGGGGGGGGGGGGGGGGGGH^",
"FCNNNNNNNNNNNNNNNNNNNNNNNNNNNNNNNNNNNNNNNNNNNNNNNNNNNNNNNNNNNNH^",
"FUUUUUUUUUUUUUUUUUUUUUUUUUUUUUUUUUUUUUUUUUUUUUUUUUUUUUUUUUUUUUH^",
"F ZBZDNB MBDD  ZFZFFFZ ZBZD  ZBMMB  NMB         Z BBBBNMNBM   H^",
"F ZBZD BNMBD$  FFZF$FZ ZBZDZ ZBMBB  NMB         Z BBZBNM DM   H^",
"HHHHHHHHHHHHHHHHHHHHHHHHHHHHHHHHHHHHHHHHHHHHHHHHHHHHHHHHHHHHHHH^",
"GGGGGGGGGGGGGGGGGGGGGGGGGGGGGGGGGGGGGGGGGGGGGGGGGGGGGGGGGGGGGGG^",
"FPCCCCCCCCCCCCCCCCCCCCCCCCCCCCCCCCCCCCCCCCCCCCCCCCCCCCCCCCCCCCH^",
"FCBBMB M  BBMZZ ZBMBBB BBMB B  BMM DB BMND NNN BBMBBBB B  B Z H^",
"FCBBMB B  BBMZZ ZBMZMM MBMB B  BMM DB BMND NNN BBMBBMB B  B Z H^",
"FCMBPF PF PFMPF PFBPFMPFBPF PF PFMPFBPFMPF PFNPFBPFBPF PF P   H^",
"FCBBFZ FZ FZVFZZFZBFZMFZBFZ FZ FZMFZBFZMFZ FZNFZBFZBFZ FZ FZ  H^",
"FCBBFB F  FMVZZZ BBFBVNBBMB  Z BMBFDB MMFM NNN MBNBBMB M  BZ  H^",
"FU  CN BM MMMZMM BBBB M  BNZMB  D ZZ M NM NN  MB MB NM  BM   ZH^",
"FU  C  BMNVVMZMVNBBMB  Z BNZMB  M ZZ   NM NN  MD MB NM  BMZZ ZH^",
"FU  N  BMNCVMZMMNBBMB  Z BNZZBB M ZZ M NM NN  MB MB NM  BMZZ ZH^",
"FU  N  BMNNKMZMMNBBMB    BNZZBB M ZZ M ND NN  MB MB NM  BZZZ ZH^",
"FU NN  BMNNVMZDMNBMMB  N BNZZBB M ZZ M ND NN  MB MB NM  BZZZ ZH^",
"FUNCN NBM NMMZDM BMMBN N BNZZBBBM ZZ B ND NN  MB MB NM  BZZZ FH^",
"FUNCN NBM NMMZDM BMMBN N BNZZMBBM ZZNB ND NN  MBBMB NMB BZZZ FH^",
"FUNCN NBB NMVZDM BMBBN N BN ZMBBMZZZNBBND NN  MDBMMNNMBNMZZZ ZH^",
"FU CN  BB NMVZZM BMBB  N BN ZBBMMZ ZNMBND NN  MDBMMNNBBNMZ   ZH^",
"FU  C  BMNVVMZMVNBBMB  Z BNZMB  M ZZ   NM NN  MD MB NM  BMZZ ZH^",
"FU  N  BMNCVMZMMNBBMB  Z BNZZBB M ZZ M NM NN  MB MB NM  BMZZ ZH^",
"FU  N  BMNNKMZMMNBBMB    BNZZBB M ZZ M ND NN  MB MB NM  BZZZ ZH^",
"FU NN  BMNNVMZDMNBMMB  N BNZZBB M ZZ M ND NN  MB MB NM  BZZZ ZH^",
"FUNCN NBM NMMZDM BMMBN N BNZZBBBM ZZ B ND NN  MB MB NM  BZZZ FH^",
"FUNCN NBM NMMZDM BMMBN N BNZZMBBM ZZNB ND NN  MBBMB NMB BZZZ FH^",
"FUNCN NBB NMVZDM BMBBN N BN ZMBBMZZZNBBND NN  MDBMMNNMBNMZZZ ZH^",
"FU CN  BB NMVZZM BMBB  N BN ZBBMMZ ZNMBND NN  MDBMMNNBBNMZ   ZH^",
"FU NV  BM NMVZZM BMMB  NMB  ZBBMMZ ZNMD D NN  MDBMBNNBMNBZ  N H^",
"FCBMMB  NMBMVZZZZDFBD ZBMMB M BBBB M  BBZD     DM BMBBN N BFZ H^",
"FCBMMB  NMBDVZZZZDFB$ ZBMBB VNBBMB  Z BDZD     DM BMBB  N BFZ H^",
"FPUUUUUUUUUUUUUUUUUUUUUUUUUUUUUUUUUUUUUUUUUUUUUUUUUUUUUUUUUUUUH^",
"FCBMBB  NMBDMZZZZDFZ$ ZBMBB MNBBMB    BDFD     $M BMMB  NMBFF H^",
"FCBMBB  NMBDMZZ ZDFZ$ ZBMBB MNBMMB  N BDZD     $MZBMMB  NMBFF H^",
"FCBMBB BNMBDMZZ ZDFZ$ ZBMZMNM BMMBN N B        $ ZBMMB  NMBFZ H^",
"HHHHHHHHHHHHHHHHHHHHHHHHHHHHHHHHHHHHHHHHHHHHHHHHHHHHHHHHHHHHHHH^"
};
