/* XPM */
static char *TEKGREN3[] = {
/* columns rows colors chars-per-pixel */
"64 128 33 1 ",
"  c #474F33",
". c #53573B",
"X c gray31",
"o c gray28",
"O c #3F472B",
"+ c #434343",
"@ c #6F7357",
"# c #5B6347",
"$ c #00002F",
"% c #373F27",
"& c #000053",
"* c gray34",
"= c #00006B",
"- c #000023",
"; c #000047",
": c #000083",
"> c #676B4F",
", c #171F07",
"< c #1B1B1B",
"1 c #5B5B5B",
"2 c #2F371F",
"3 c gray23",
"4 c #00003B",
"5 c #000017",
"6 c #7B7F63",
"7 c #937B63",
"8 c #232B0F",
"9 c #B79F87",
"0 c #131313",
"q c #272727",
"w c gray39",
"e c #00009B",
"r c black",
/* pixels */
"0000000000000000000000000000000000000000000000000000000000000000",
"%>>>>>>>>>>>>>>>>>>>>>>>>>>>>>>>>>>>>>>>>>>>>>>>>>>>>>>>>>>>>#.0",
"%>  #  oX.**XOX*.ooXo  O o.OXo  X OO   .X ..  X+ Xo .X  oXOO O20",
"%>  .  oX.#*XOXX.ooXo  O o.OOoo X OO X .X ..  Xo Xo .X  oXOO O20",
"%>  .  oX..1XOXX.ooXo    o.OOoo X OO X .+ ..  Xo Xo .X  oOOO O20",
"%> ..  oX..*XO+X.oXXo  . o.OOoo X OO X .+ ..  Xo Xo .X  oOOO O20",
"%>.#. .oX .XXO+X oXXo. . o.OOoooX OO o .+ ..  Xo Xo .X  oOOO %20",
"%>.#. .oX .XXO+X oXXo. . o.OOXooX OO.o .+ ..  XooXo .Xo oOOO %20",
"%>.#. .oo .X*O+X oXoo. . o. OXooXOOO.oo.+ ..  X+oXX..Xo.XOOO O20",
"%> #.  oo .X*OOX oXoo  . o. OooXXO O.Xo.+ ..  X+oXX..oo.XO   O20",
"%> .*  oX .X*OOX oXXo  .Xo  OooXXO O.X+ + ..  X+oXo..oX.oO  . 20",
"%>oX@#####################################################>2 X20",
"%>  @  oX.#*X +Xoo+  #O.Xo  #.. O  OO*OO .  .   1w.Xo  #  o2.*20",
"%>  @  oX..1X +Xoo+  .O.Xo  ... O  OO*OO .  .   11.Xo  .  o2.#20",
"%> .@  oX..*X oXoo+  . .Xo  ... O  O *OO .  .   11.Xo  .  o2..20",
"%>.#@ .oX .XX oXoo+  ...Xo  .*. O  O XOO .  .   X*.Xo ..  o2..20",
"%>.#@ .oX .XX oXoo+. .# Xo. .*. O  O XOO .  .   1X.Xo.#. .o2 .20",
"%>.#@ .oo .X* oXoo+. .# Xo. .*. O XO XOO .  .   1X.Xo.#. .o2 .20",
"%> #@  oo .X* oXo++. .# oo. .*. O XO XOO .  .   Xo.Xo.#. .o2 .20",
"%> .@  oX .X* oXo++  .# oo  .X. O X  XOO .  .   XoXXo #.  o2 .20",
"%> .@  oX  XX oXo++  *. Xo  *X. O X .XOO    .   X+XXo .*  o8 .20",
"%> .@  oXO oX oXo++  X. Xo  XX  O X .XOO    .   Xo Xo .X  o,  20",
"%> .22222222222222222222222222222222222222222222222222%2222,  20",
"%> .,,,,,,,,,,,,,,,,,,,,,,,,,X7997 ,,,,,,,,,,,,,,,,,,8,,,,,,  20",
"%> .r;&&=;&&&$&&=&&$&&;&=<.OX.@66@.%O#,=&&$=&:&:&&:=&&=&&&&O  20",
"%> .<-;$&-$$$-$$&$$-$;4$&,.OX.>@@>.%+#,:$$-:$=$=$$=-$$&;$$$O  20",
"%> .@.;$&-$$$-$$&$$-$;4$&,# X.>>>>.%+#,:$$-:$=$=$$=-$$&;$$.@  20",
"%>..X@.$&-$$$-$$&$$-$;4$&<#oX.####.%+#,:$$-:$=$=$$=-$$&;$.@OO 20",
"%>..oo@.========&========<#oX.####.%+#,=&&&=&:&:;;:&;;&&.@OOO 20",
"%>..oX.@.-$$;-$$&$$-$;4;:<#oo......%+#,e===:$=$:;$=;$$&.@XOO  20",
"%>. +X.o@.$$;-$$&$$-$;4;&<#*X......%%#,:$$-=$=$:;$=;$$.@.oOO .20",
"%>. +X.oO@.-$5--$--5-$-$$<#XXo ....OO#,&--5;-=-&$-=$-.@X*oooo.20",
"%>. oX.+O @.;;&&==:====$=<#XXo ....OO#,;&:;&&:&=;$=$.>. oXXXo.20",
"%>. Xo.+O .@.-$$=$&-$-4&&<#Xoo ... O #,&$:-=$-$:;$=.@X. oXXXo.20",
"%>..Xo.+O  X@.$$=$&-$-4&&<#Xoo ... O #,;-:5;-5-=;-.@.X. ooXXo.20",
"%>o.XXo+O  XX@.$;&=;=;&;&<#.oo ... O #,&;:;&;;;:;.@ .X. ooXXo 20",
"%>o.Xoo+O OXo @.&&=;=;&;=<# oo .*. O #,;&:;=&;&=.@o .X. oo..o 20",
"q> .Xo +O OXo X@.-&-=-4&$<# oo ... OX#,;$:-$&-$.@Xo .1. oo  oO20",
"%> .Xo +O  XX XX@.&-=-4&&<# Xo .*. OX#,&$:$=&-.@.Xo .1. oo  XO20",
"%> .Xo +oO oX XX+@.-=-4&&<# Xo ... OX#,&$:$=&.@#.Xo .1. oX  X 20",
"%> .XX ++O +X XX++@.:;;=:<#.Xo  .. O #,=&:&=.@1#.Xo  #. oX  X 20",
"%> .XX +o .X* XX+++@.-4&:<#.Xo  .. O #,:=:=.@ 1w.Xo  #  oX..* 20",
"%> .o. oXXoX* XoXooo@.4&&<>.Xo  .. O #,&$&.@  11.Xo  .  oX..#.20",
"q> .X. oXXoXX XoXooXo@.;$<>.Xo  *. O #,&$.@.  11.Xo  .  oX....20",
"%> .X. ooXo*X XoXoooo @.&<> Xo. *. O >,&.@..  X*.Xo ..  oX... 20",
"q> .X. ooXo*X XoXoooo o@.<# Xo. *. O #,.6 ..  1X.Xo.#. .oX  . 20",
"%> .X. oo.o*X Xo.ooXo X #@# oo. *. O X@@X ..  1X.Xo.#. .oX  . 20",
"%> .1. oo oXX Xo ooXo o  o# oo  X. O XO X ..  Xo.Xo.#. .oo  . 20",
"%> .1. oo XXX XX XoXo o  o. Xo  X. O X .X ..  XoXXo #.  oo  .O20",
"%> .1. oX XXX XX ooXo X  o. Xo  X  O X .X ..  X+XXo .*  oX  .O20",
"%>  #. oX XXXOXX oooo X  o.OXo  + OO X .X ..  Xo Xo .X  oX   O20",
"%>  #  oX.**XOX*.ooXo  O o.OXo  X OO   .X ..  X+ Xo .X  oXOO O20",
"%>  .  oX.#*XOXX.ooXo  O o.OOoo X OO X .X ..  Xo Xo .X  oXOO O20",
"%>  .  oX..1XOXX.ooXo    o.OOoo X OO X .+ ..  Xo Xo .X  oOOO O20",
"%> ..  oX..*XO+X.oXXo  . o.OOoo X OO X .+ ..  Xo Xo .X  oOOO O20",
"%>.#. .oX .XXO+X oXXo. . o.OOoooX OO o .+ ..  Xo Xo .X  oOOO O20",
"%>.#. .oX .XXO+X oXXo. . o.OOXooX OO.o .+ ..  XooXo .Xo oOOO O20",
"%>.#. .oo .X*O+X oXoo. . o. OXooXOOO.oo.+ ..  X+oXX..Xo.XOOO O20",
"%> #.  oo .X*OOX oXoo  . o. OooXXO O.Xo.+ ..  X+oXX..oo.XO   O20",
"%> .*  oX .X*OOX oXXo  .Xo  OooXXO O.X+ + ..  X+oXo..oX.oO   O20",
"%> .X  oX  XXOOX oXXo  .Xo  OooXXO O.X+ + ..  X+oXo. +X.oO   O20",
"%> .X  oXO oXOOXOoXXo  .ooo o  oXO O.Xo X ..  o+ Xo. +X.oO   O20",
"%>oooo o  o+XOO OoXXo  .oXo o  oX OO.oX X ..  o+oX+. oX.+O   O20",
"<222222222222222222222222222222222222222222222222222222222222220",
"<<<<<<<<<<<<<<<<<<<<<<<<<<<<<<<<<<<<<<<<<<<<<<<<<<<<<<<<<<<<<<<0",
"%@############################################################20",
"%#ooXo X  ooXOO OoXooo ooXo o  oXX +o oX.+ ... ooXoooo o  o O 20",
"%#ooXo o  ooXOO OoXOXX XoXo o  oXX +o oX.+ ... ooXooXo o  o O 20",
"%#Xo@% @% @%X@% @%o@%X@%o@% @% @%X@%o@%X@% @%.@%o@%o@% @% @   20",
"%#oo%O %O %O*%OO%Oo%OX%Oo%O %O %OX%Oo%OX%O %O.%Oo%Oo%O %O %O  20",
"%#oo%o %  %X*OOO oo%o*.ooXo  O oXo%+o XX%X ... Xo.ooXo X  oO  20",
"%>  #. oX XXXOXX oooo X  o.OXo  + OO X .X ..  Xo Xo .X  oX   O20",
"%>  #  oX.**XOX*.ooXo  O o.OXo  X OO   .X ..  X+ Xo .X  oXOO O20",
"%>  .  oX.#*XOXX.ooXo  O o.OOoo X OO X .X ..  Xo Xo .X  oXOO O20",
"%>  .  oX..1XOXX.ooXo    o.OOoo X OO X .+ ..  Xo Xo .X  oOOO O20",
"%> ..  oX..*XO+X.oXXo  . o.OOoo X OO X .+ ..  Xo Xo .X  oOOO O20",
"%>.#. .oX .XXO+X oXXo. . o.OOoooX OO o .+ ..  Xo Xo .X  oOOO %20",
"%>.#. .oX .XXO+X oXXo. . o.OOXooX OO.o .+ ..  XooXo .Xo oOOO %20",
"%>.#. .oo .X*O+X oXoo. . o. OXooXOOO.oo.+ ..  X+oXX..Xo.XOOO O20",
"%> #.  oo .X*OOX oXoo  . o. OooXXO O.Xo.+ ..  X+oXX..oo.XO   O20",
"%> .*  oX .X*OOX oXXo  .Xo  OooXXO O.X+ + ..  X+oXo..oX.oO  . 20",
"%#oXXo  .XoX*OOOO+%o+ OoXXo X oooo X  ooO+     +X oXoo. . o%O 20",
"%#oXXo  .Xo+*OOOO+%o3 OoXoo *.ooXo  O o+O+     +X oXoo  . o%O 20",
"%@>>>>>>>>>>>>>>>>>>>>>>>>>>>>>>>>>>>>>>>>>>>>>>>>>>>>>>>>>>>>20",
"%#oXoo  .Xo+XOOOO+%O3 OoXoo X.ooXo    o+%+     3X oXXo  .Xo%% 20",
"%#oXoo  .Xo+XOO O+%O3 OoXoo X.oXXo  . o+O+     3XOoXXo  .Xo%% 20",
"%#oXoo o.Xo+XOO O+%O3 OoXOX.X oXXo. . o        3 OoXXo  .Xo%O 20",
"2222222222222222222222222222222222222222222222222222222222222220",
"%<<<<<<<<<<<<<<<<<<<<<<<<<<<<<<<<<<<<<<<<<<<<<<<<<<<<<<<<<<<<<20",
"%<<<<<<<<<<<<<<<<<<<<<<<<<<<<<<<<<<<<<<<<<<<<<<<<<<<<<<<<<<<<<20",
"%<<<<<<<<<<<<<<<<<<<<<<<<<<<<<<<<<<<<<<<<<<<<<<<<<<<<<<<<<<<<<20",
"%#............................................................20",
"%>>>>>>>>>>>>>>>>>>>>>>>>>>>>>>>>>>>>>>>>>>>>>>>>>>>>>>>>>>>>>20",
"% OoO+.o Xo++  O%O%%%O OoO+  OoXXo  .Xo         O oooo.X.oX   20",
"% OoO+ o.Xo+3  %%O%3%O OoO+O OoXoo  .Xo         O ooOo.X +X   20",
"2222222222222222222222222222222222222222222222222222222222222220",
"<<<<<<<<<<<<<<<<<<<<<<<<<<<<<<<<<<<<<<<<<<<<<<<<<<<<<<<<<<<<<<<0",
"%@############################################################20",
"%#ooXo X  ooXOO OoXooo ooXo o  oXX +o oX.+ ... ooXoooo o  o O 20",
"%#ooXo o  ooXOO OoXOXX XoXo o  oXX +o oX.+ ... ooXooXo o  o O 20",
"%#Xo@% @% @%X@% @%o@%X@%o@% @% @%X@%o@%X@% @%.@%o@%o@% @% @   20",
"%#oo%O %O %O*%OO%Oo%OX%Oo%O %O %OX%Oo%OX%O %O.%Oo%Oo%O %O %O  20",
"%#oo%o %  %X*OOO oo%o*.ooXo  O oXo%+o XX%X ... Xo.ooXo X  oO  20",
"%>  #. oX XXXOXX oooo X  o.OXo  + OO X .X ..  Xo Xo .X  oX   O20",
"%>  #  oX.**XOX*.ooXo  O o.OXo  X OO   .X ..  X+ Xo .X  oXOO O20",
"%>  .  oX.#*XOXX.ooXo  O o.OOoo X OO X .X ..  Xo Xo .X  oXOO O20",
"%>  .  oX..1XOXX.ooXo    o.OOoo X OO X .+ ..  Xo Xo .X  oOOO O20",
"%> ..  oX..*XO+X.oXXo  . o.OOoo X OO X .+ ..  Xo Xo .X  oOOO O20",
"%>.#. .oX .XXO+X oXXo. . o.OOoooX OO o .+ ..  Xo Xo .X  oOOO %20",
"%>.#. .oX .XXO+X oXXo. . o.OOXooX OO.o .+ ..  XooXo .Xo oOOO %20",
"%>.#. .oo .X*O+X oXoo. . o. OXooXOOO.oo.+ ..  X+oXX..Xo.XOOO O20",
"%> #.  oo .X*OOX oXoo  . o. OooXXO O.Xo.+ ..  X+oXX..oo.XO   O20",
"%>  #  oX.**XOX*.ooXo  O o.OXo  X OO   .X ..  X+ Xo .X  oXOO O20",
"%>  .  oX.#*XOXX.ooXo  O o.OOoo X OO X .X ..  Xo Xo .X  oXOO O20",
"%>  .  oX..1XOXX.ooXo    o.OOoo X OO X .+ ..  Xo Xo .X  oOOO O20",
"%> ..  oX..*XO+X.oXXo  . o.OOoo X OO X .+ ..  Xo Xo .X  oOOO O20",
"%>.#. .oX .XXO+X oXXo. . o.OOoooX OO o .+ ..  Xo Xo .X  oOOO %20",
"%>.#. .oX .XXO+X oXXo. . o.OOXooX OO.o .+ ..  XooXo .Xo oOOO %20",
"%>.#. .oo .X*O+X oXoo. . o. OXooXOOO.oo.+ ..  X+oXX..Xo.XOOO O20",
"%> #.  oo .X*OOX oXoo  . o. OooXXO O.Xo.+ ..  X+oXX..oo.XO   O20",
"%> .*  oX .X*OOX oXXo  .Xo  OooXXO O.X+ + ..  X+oXo..oX.oO  . 20",
"%#oXXo  .XoX*OOOO+%o+ OoXXo X oooo X  ooO+     +X oXoo. . o%O 20",
"%#oXXo  .Xo+*OOOO+%o3 OoXoo *.ooXo  O o+O+     +X oXoo  . o%O 20",
"%@>>>>>>>>>>>>>>>>>>>>>>>>>>>>>>>>>>>>>>>>>>>>>>>>>>>>>>>>>>>>20",
"%#oXoo  .Xo+XOOOO+%O3 OoXoo X.ooXo    o+%+     3X oXXo  .Xo%% 20",
"%#oXoo  .Xo+XOO O+%O3 OoXoo X.oXXo  . o+O+     3XOoXXo  .Xo%% 20",
"%#oXoo o.Xo+XOO O+%O3 OoXOX.X oXXo. . o        3 OoXXo  .Xo%O 20",
"2222222222222222222222222222222222222222222222222222222222222220"
};
