/* XPM */
static char *TEKLITE[] = {
/* columns rows colors chars-per-pixel */
"64 128 20 1 ",
"  c #43331B",
". c #4F3B23",
"X c #4B371B",
"o c #533F2F",
"O c #332B13",
"+ c #574333",
"@ c #3F2F17",
"# c #372313",
"$ c #533F1F",
"% c #675333",
"& c #2F1B0B",
"* c #5F4B37",
"= c #2B230F",
"- c #1F170B",
"; c #5F4323",
": c #8F7753",
"> c #5B472B",
", c #6F5743",
"< c #67533F",
"1 c #FFC7A7",
/* pixels */
" X  .o+++o.  X @ X  .o+++o.  X @ X  .o+++o.  X @ X  .o+++o.  X @",
"@X  .o+++o.  X @@X  .o+++o.  X @@X  .o+++o.  X @@X  .o+++o.  X @",
" X  .o+++o.  X @ X  .o+++o.  X @ X  .o+++o.  X @ X  .o+++o.  X @",
" X  .o+++o.  X   X  .o+++o.  X   X  .o+++o.  X   X  .o+++o.  X  ",
" X X.o+++o.X X   X X.o+++o.X X   X X.o+++o.X X   X X.o+++o.X X  ",
"XX X.o+++o.X    XX X.o+++o.X    XX X.o+++o.X    XX X.o+++o.X    ",
"                                                                ",
"===============#===============#===============#===============#",
"X@XX       XX@X#X@XX       XX@X#X@XX       XX@X#X@XX       XX@X#",
"X XX X . X XX X#X XX X . X XX X#X XX X . X XX X#X XX X . X XX X#",
"X.XX XX.XX XX.X#X.XX XX.XX XX.X#X.XX XX.XX XX.X#X.XX XX.XX XX.X#",
"XX*,**+.+,**+XX#XX*,**+.+,**+XX#XX*,**+.+,**+XX#XX*,**+.+,**+XX#",
"XXo...o.o...oXX#XXo...o.o...oXX#XXo...o.o...oXX#XXo...o.o...oXX#",
"X .<.*...<.*. X#X .<.*...<.*. X#X .<.*...<.*. X#X .<.*...<.*. X#",
"o ....X.X.... o#o ....X.X.... o#o ....X.X.... o#o ....X.X.... o#",
"o X+.+X.X+.+@ o#o X+.+X.X+.+@ o#o X+.+X.X+.+@ o#o X+.+X.X+.+@ o#",
"o X.X.@. .X.@ o#o X.X.@. .X.@ o#o X.X.@. .X.@ o#o X.X.@. .X.@ o#",
"o@=====.@@===@o#o@=====.@@===@o#o@=====.@@===@o#o@=====.@@===@o#",
"o @XXXX.XXXX@ o#o @XXXX.XXXX@ o#o @XXXX.XXXX@ o#o @XXXX.XXXX@ o#",
"o @$X..o..X$@ o#o @$X..o..X$@ o#o @$X..o..X$@ o#o @$X..o..X$@ o#",
" +%%O>%%%>X%%+ o +%%O>%%%>X%%+ o +%%O>%%%>X%%+ o +%%O>%%%>X%%+ o",
" oo+O.ooo.O+oo o oo+O.ooo.O+oo o oo+O.ooo.O+oo o oo+O.ooo.O+oo o",
" .$oO ... Oo$. o .$oO ... Oo$. o .$oO ... Oo$. o .$oO ... Oo$. o",
" .$$O ... O$$. o .$$O ... O$$. o .$$O ... O$$. o .$$O ... O$$. o",
"  .$O ... O$.  o  .$O ... O$.  o  .$O ... O$.  o  .$O ... O$.  o",
"  .$O ... O$.  o  .$O ... O$.  o  .$O ... O$.  o  .$O ... O$.  o",
"  . O@... O .  o  . O@... O .  o  . O@... O .  o  . O@... O .  o",
"  . OOOOOOO .  o  . OOOOOOO .  o  . OOOOOOO .  o  . OOOOOOO .  o",
"   O&O:1:O&O   X   O&O:1:O&O   X   O&O:1:O&O   X   O&O:1:O&O   X",
"--&&&X;;;X&&&--#--&&&X;;;X&&&--#--&&&X;;;X&&&--#--&&&X;;;X&&&--#",
"-&&=O@$;$@O=&&-#-&&=O@$;$@O=&&-#-&&=O@$;$@O=&&-#-&&=O@$;$@O=&&-#",
"=====OOOOO=====#=====OOOOO=====#=====OOOOO=====#=====OOOOO=====#",
" X  .o+++o.  X @ X  .o+++o.  X @ X  .o+++o.  X @ X  .o+++o.  X @",
"@X  .o+++o.  X @@X  .o+++o.  X @@X  .o+++o.  X @@X  .o+++o.  X @",
" X  .o+++o.  X @ X  .o+++o.  X @ X  .o+++o.  X @ X  .o+++o.  X @",
" X  .o+++o.  X   X  .o+++o.  X   X  .o+++o.  X   X  .o+++o.  X  ",
" X X.o+++o.X X   X X.o+++o.X X   X X.o+++o.X X   X X.o+++o.X X  ",
"XX X.o+++o.X    XX X.o+++o.X    XX X.o+++o.X    XX X.o+++o.X    ",
"                                                                ",
"===============#===============#===============#===============#",
"X@XX       XX@X#X@XX       XX@X#X@XX       XX@X#X@XX       XX@X#",
"X XX X . X XX X#X XX X . X XX X#X XX X . X XX X#X XX X . X XX X#",
"X.XX XX.XX XX.X#X.XX XX.XX XX.X#X.XX XX.XX XX.X#X.XX XX.XX XX.X#",
"XX*,**+.+,**+XX#XX*,**+.+,**+XX#XX*,**+.+,**+XX#XX*,**+.+,**+XX#",
"XXo...o.o...oXX#XXo...o.o...oXX#XXo...o.o...oXX#XXo...o.o...oXX#",
"X .<.*...<.*. X#X .<.*...<.*. X#X .<.*...<.*. X#X .<.*...<.*. X#",
"o ....X.X.... o#o ....X.X.... o#o ....X.X.... o#o ....X.X.... o#",
"o X+.+X.X+.+@ o#o X+.+X.X+.+@ o#o X+.+X.X+.+@ o#o X+.+X.X+.+@ o#",
"o X.X.@. .X.@ o#o X.X.@. .X.@ o#o X.X.@. .X.@ o#o X.X.@. .X.@ o#",
"o@=====.@@===@o#o@=====.@@===@o#o@=====.@@===@o#o@=====.@@===@o#",
"o @XXXX.XXXX@ o#o @XXXX.XXXX@ o#o @XXXX.XXXX@ o#o @XXXX.XXXX@ o#",
"o @$X..o..X$@ o#o @$X..o..X$@ o#o @$X..o..X$@ o#o @$X..o..X$@ o#",
" +%%O>%%%>X%%+ o +%%O>%%%>X%%+ o +%%O>%%%>X%%+ o +%%O>%%%>X%%+ o",
" oo+O.ooo.O+oo o oo+O.ooo.O+oo o oo+O.ooo.O+oo o oo+O.ooo.O+oo o",
" .$oO ... Oo$. o .$oO ... Oo$. o .$oO ... Oo$. o .$oO ... Oo$. o",
" .$$O ... O$$. o .$$O ... O$$. o .$$O ... O$$. o .$$O ... O$$. o",
"  .$O ... O$.  o  .$O ... O$.  o  .$O ... O$.  o  .$O ... O$.  o",
"  .$O ... O$.  o  .$O ... O$.  o  .$O ... O$.  o  .$O ... O$.  o",
"  . O@... O .  o  . O@... O .  o  . O@... O .  o  . O@... O .  o",
"  . OOOOOOO .  o  . OOOOOOO .  o  . OOOOOOO .  o  . OOOOOOO .  o",
"   O&O:1:O&O   X   O&O:1:O&O   X   O&O:1:O&O   X   O&O:1:O&O   X",
"--&&&X;;;X&&&--#--&&&X;;;X&&&--#--&&&X;;;X&&&--#--&&&X;;;X&&&--#",
"-&&=O@$;$@O=&&-#-&&=O@$;$@O=&&-#-&&=O@$;$@O=&&-#-&&=O@$;$@O=&&-#",
"=====OOOOO=====#=====OOOOO=====#=====OOOOO=====#=====OOOOO=====#",
" X  .o+++o.  X @ X  .o+++o.  X @ X  .o+++o.  X @ X  .o+++o.  X @",
"@X  .o+++o.  X @@X  .o+++o.  X @@X  .o+++o.  X @@X  .o+++o.  X @",
" X  .o+++o.  X @ X  .o+++o.  X @ X  .o+++o.  X @ X  .o+++o.  X @",
" X  .o+++o.  X   X  .o+++o.  X   X  .o+++o.  X   X  .o+++o.  X  ",
" X X.o+++o.X X   X X.o+++o.X X   X X.o+++o.X X   X X.o+++o.X X  ",
"XX X.o+++o.X    XX X.o+++o.X    XX X.o+++o.X    XX X.o+++o.X    ",
"                                                                ",
"===============#===============#===============#===============#",
"X@XX       XX@X#X@XX       XX@X#X@XX       XX@X#X@XX       XX@X#",
"X XX X . X XX X#X XX X . X XX X#X XX X . X XX X#X XX X . X XX X#",
"X.XX XX.XX XX.X#X.XX XX.XX XX.X#X.XX XX.XX XX.X#X.XX XX.XX XX.X#",
"XX*,**+.+,**+XX#XX*,**+.+,**+XX#XX*,**+.+,**+XX#XX*,**+.+,**+XX#",
"XXo...o.o...oXX#XXo...o.o...oXX#XXo...o.o...oXX#XXo...o.o...oXX#",
"X .<.*...<.*. X#X .<.*...<.*. X#X .<.*...<.*. X#X .<.*...<.*. X#",
"o ....X.X.... o#o ....X.X.... o#o ....X.X.... o#o ....X.X.... o#",
"o X+.+X.X+.+@ o#o X+.+X.X+.+@ o#o X+.+X.X+.+@ o#o X+.+X.X+.+@ o#",
"o X.X.@. .X.@ o#o X.X.@. .X.@ o#o X.X.@. .X.@ o#o X.X.@. .X.@ o#",
"o@=====.@@===@o#o@=====.@@===@o#o@=====.@@===@o#o@=====.@@===@o#",
"o @XXXX.XXXX@ o#o @XXXX.XXXX@ o#o @XXXX.XXXX@ o#o @XXXX.XXXX@ o#",
"o @$X..o..X$@ o#o @$X..o..X$@ o#o @$X..o..X$@ o#o @$X..o..X$@ o#",
" +%%O>%%%>X%%+ o +%%O>%%%>X%%+ o +%%O>%%%>X%%+ o +%%O>%%%>X%%+ o",
" oo+O.ooo.O+oo o oo+O.ooo.O+oo o oo+O.ooo.O+oo o oo+O.ooo.O+oo o",
" .$oO ... Oo$. o .$oO ... Oo$. o .$oO ... Oo$. o .$oO ... Oo$. o",
" .$$O ... O$$. o .$$O ... O$$. o .$$O ... O$$. o .$$O ... O$$. o",
"  .$O ... O$.  o  .$O ... O$.  o  .$O ... O$.  o  .$O ... O$.  o",
"  .$O ... O$.  o  .$O ... O$.  o  .$O ... O$.  o  .$O ... O$.  o",
"  . O@... O .  o  . O@... O .  o  . O@... O .  o  . O@... O .  o",
"  . OOOOOOO .  o  . OOOOOOO .  o  . OOOOOOO .  o  . OOOOOOO .  o",
"   O&O:1:O&O   X   O&O:1:O&O   X   O&O:1:O&O   X   O&O:1:O&O   X",
"--&&&X;;;X&&&--#--&&&X;;;X&&&--#--&&&X;;;X&&&--#--&&&X;;;X&&&--#",
"-&&=O@$;$@O=&&-#-&&=O@$;$@O=&&-#-&&=O@$;$@O=&&-#-&&=O@$;$@O=&&-#",
"=====OOOOO=====#=====OOOOO=====#=====OOOOO=====#=====OOOOO=====#",
" X  .o+++o.  X @ X  .o+++o.  X @ X  .o+++o.  X @ X  .o+++o.  X @",
"@X  .o+++o.  X @@X  .o+++o.  X @@X  .o+++o.  X @@X  .o+++o.  X @",
" X  .o+++o.  X @ X  .o+++o.  X @ X  .o+++o.  X @ X  .o+++o.  X @",
" X  .o+++o.  X   X  .o+++o.  X   X  .o+++o.  X   X  .o+++o.  X  ",
" X X.o+++o.X X   X X.o+++o.X X   X X.o+++o.X X   X X.o+++o.X X  ",
"XX X.o+++o.X    XX X.o+++o.X    XX X.o+++o.X    XX X.o+++o.X    ",
"                                                                ",
"===============#===============#===============#===============#",
"X@XX       XX@X#X@XX       XX@X#X@XX       XX@X#X@XX       XX@X#",
"X XX X . X XX X#X XX X . X XX X#X XX X . X XX X#X XX X . X XX X#",
"X.XX XX.XX XX.X#X.XX XX.XX XX.X#X.XX XX.XX XX.X#X.XX XX.XX XX.X#",
"XX*,**+.+,**+XX#XX*,**+.+,**+XX#XX*,**+.+,**+XX#XX*,**+.+,**+XX#",
"XXo...o.o...oXX#XXo...o.o...oXX#XXo...o.o...oXX#XXo...o.o...oXX#",
"X .<.*...<.*. X#X .<.*...<.*. X#X .<.*...<.*. X#X .<.*...<.*. X#",
"o ....X.X.... o#o ....X.X.... o#o ....X.X.... o#o ....X.X.... o#",
"o X+.+X.X+.+@ o#o X+.+X.X+.+@ o#o X+.+X.X+.+@ o#o X+.+X.X+.+@ o#",
"o X.X.@. .X.@ o#o X.X.@. .X.@ o#o X.X.@. .X.@ o#o X.X.@. .X.@ o#",
"o@=====.@@===@o#o@=====.@@===@o#o@=====.@@===@o#o@=====.@@===@o#",
"o @XXXX.XXXX@ o#o @XXXX.XXXX@ o#o @XXXX.XXXX@ o#o @XXXX.XXXX@ o#",
"o @$X..o..X$@ o#o @$X..o..X$@ o#o @$X..o..X$@ o#o @$X..o..X$@ o#",
" +%%O>%%%>X%%+ o +%%O>%%%>X%%+ o +%%O>%%%>X%%+ o +%%O>%%%>X%%+ o",
" oo+O.ooo.O+oo o oo+O.ooo.O+oo o oo+O.ooo.O+oo o oo+O.ooo.O+oo o",
" .$oO ... Oo$. o .$oO ... Oo$. o .$oO ... Oo$. o .$oO ... Oo$. o",
" .$$O ... O$$. o .$$O ... O$$. o .$$O ... O$$. o .$$O ... O$$. o",
"  .$O ... O$.  o  .$O ... O$.  o  .$O ... O$.  o  .$O ... O$.  o",
"  .$O ... O$.  o  .$O ... O$.  o  .$O ... O$.  o  .$O ... O$.  o",
"  . O@... O .  o  . O@... O .  o  . O@... O .  o  . O@... O .  o",
"  . OOOOOOO .  o  . OOOOOOO .  o  . OOOOOOO .  o  . OOOOOOO .  o",
"   O&O:1:O&O   X   O&O:1:O&O   X   O&O:1:O&O   X   O&O:1:O&O   X",
"--&&&X;;;X&&&--#--&&&X;;;X&&&--#--&&&X;;;X&&&--#--&&&X;;;X&&&--#",
"-&&=O@$;$@O=&&-#-&&=O@$;$@O=&&-#-&&=O@$;$@O=&&-#-&&=O@$;$@O=&&-#",
"=====OOOOO=====#=====OOOOO=====#=====OOOOO=====#=====OOOOO=====#"
};
