/* XPM */
static char *WOODMET3[] = {
/* columns rows colors chars-per-pixel */
"64 128 61 1 ",
"  c #2B230F",
". c #473323",
"X c #1B1B1B",
"o c #332B13",
"O c #1F170B",
"+ c #3F2B1B",
"@ c #372313",
"# c #4F3B2B",
"$ c #533F2F",
"% c #4F3B27",
"& c #170F07",
"* c #131313",
"= c #232323",
"- c #771717",
"; c #533F1F",
": c #272727",
"> c #574333",
", c #6B0F0F",
"< c #43331B",
"1 c #5F4323",
"2 c #4F3B23",
"3 c #2F1B0B",
"4 c #432F1B",
"5 c #5B472B",
"6 c #530707",
"7 c #7F0000",
"8 c #4B371B",
"9 c #5F4B37",
"0 c black",
"q c #3F2F17",
"w c #2F2F2F",
"e c #670B0B",
"r c #0B0B0B",
"t c #9B0000",
"y c #8B0000",
"u c #5B0707",
"i c #373737",
"p c #67533F",
"a c #13230B",
"s c #675333",
"d c #6B4727",
"f c #430000",
"g c #730000",
"h c #6F5743",
"j c #831F1F",
"k c #0B1707",
"l c #B30000",
"z c #670000",
"x c #774F2B",
"c c #5F0707",
"v c #A70000",
"b c #731313",
"n c #4F0000",
"m c #7F1B1B",
"M c #232B0F",
"N c #8F2B2B",
"B c #3F472B",
"V c #0F1700",
"C c #CB0000",
"Z c #470000",
"A c gray23",
/* pixels */
"oo OoXw:o:Xr&OXXOO***** <oX*  : &oO&r*XX oo  :aoO=X*&X:  oX**:oo",
"qoO oXwoo  &&=XX&XX*&O*XwoX*  :X&  O&*  =oo  o::O X*& :: oXXO :=",
"qo  a  :: XO&O X& OX&&*  :X*  :X&oXO& XX:oo   o:=:X*& ::::XOO o=",
"X=   X:wX==*&  =rXX*&OO=X=X*  :=r= O&OX=X=w  ooi*=X*& :iX==*Oooi",
"&XXO: q0&XX&&  0&*OO&OO0&XXXoX 0&XXX*OO0&X:XO::0&X ** :0&XXOO<o0",
"X =Oo oXX X*r  *rO**rOO*X =Oo :*r  OX& *X oXXo XX XOOX:XX X*Oo X",
"=wXOo q:q:XOrXXkOXOOrX*X:oX o   koXOX&= o::X  o o  OOX o: X&Ooo ",
":oX:oX::qoXO&X X XX*O OX: X oX X<  XO*X oo X o:= oXk&Xw:a:O*Oo:a",
"oo  oXw:o::*&OXXoO**XXX <oXX o:  oOO**XX oo  :ao =X*&X:  oX**:oo",
"qoOooXwoo oOO=XX XX*OoX:wo:X o:X   O&*o =oo  o::  X*O :: oX=O :=",
"qoooa  :: :OO  X  OXO Xo ::X o:X oX&&O:X:oo   o:w::XOo::::X<O o=",
"X=oo ::wX=w= o =XXX* o iX=:X o:wX= &OO:iX=w OooiX=:XOo:iX=w: ooi",
"&X: :oq0&X:  qo0&*O Ooo0&X:=o: 0&X:*X  0&X:X&::0&XoXXo:0&X:oo<o0",
"X w oqoXX :XXoo*X *:XooXX w oo:XX o XOoXX o:*o XX :  ::XX ::<o X",
"=w: ooq:q::qX::ko:<<X::::o:ooo oao:OXOwoo::X  o o o o: o: : ooo ",
"XOXXOXXX OX &XOXOXXXOOOXXOXOOXOXuOO*OXXOOOO*&OX*OOXkOXXXkXOXOOXa",
"0r& &OOOOOO&&  OOOOOO0&OOOOOOO&00r& OOOOO&O&OOrrOOO0&OOOOOOO O00",
"0& +Oo +  @O@@++  o @6O   @  @ 00& +     O Oo &O++@r&@@o @  @O00",
"0O+9+;+#.+#@.5;$$.2o.& #.#...$$00O+9@+..#@+#2.@@5;>&O$%#o..%9@00",
"0O+9<;.$=w#q.;8$$22<1& #.#.#+$900O+94...$3+>22+4%;$&O$#%3#.#9@00",
"0O+9.$+5 +#@#;8;5;;+1& .>.#..#p00O+9.....3@528+4.8$& #%%02%.p@00",
"0O+>.2+$o.#@#$<>$88+d& +$.#+..900O+>+.8%.0@12+@.8;$&O#..02%29@00",
"0O+$o%o.o.#+.><>9.2+d& ###.++.j00O+$...%.0@.2+@.<;5& #%.3.%$9@00",
"0O+9.%o.+.$@41.>>;;od& .###++.>00O+9..o.%V@8-<,..8>&O#%#o.+59+00",
"0O+>..+<.+;@.$<5$88.x6 .4##+q#$00Oe>.....8@.2....<9O .%.@.%19X00",
"0O@>.q.<;@$ .58$281.s& %#,#+q#-f06.>++..+;4.%$.%.;9O <%.3#.19*00",
"0O#>. ##-&$@.$2;<21,s& 2..#,.$,f06+>.,%.,;48.2#2%o>&O+..3,$2>000",
"0O+>+ ;5#&; o$-$;1d#s  8.,#++$+000+-.%,.%1.#<8$88oj&OX..@#$$>900",
"0O@$qq.1;@; @-2$.1s#sO@.#+#++>@000@p.%+-.1%.+#5.%+j&OX5.422#>%00",
"0O+>.+#;.,; +5;;;-d#dO +-+.<+9+000+>.%%.%1.+O%-+%O9&@+#84>%2>400",
"0O+>.4.#;+.@+;.;$11%xO @-#.+.9@000+-..-..1.Mu>2@. 9&e<.+8>%%9+00",
"0O+>#@.>.@.@+$22-11%1Oe>--..+9@f00,>.%.%.1.+e1%$%O9O@.#+.#.%9@00",
"0O4$.@.>.@.@@>.$$;-2$6 %1;.+.97000,m.-7,.1%.7%8+.&>&@+.....#9@00",
"0O4>.+.#.+.@u$.-$;5%yOo--5,7.jef00+p,,..-1$%4.8.2 >&@,....%$9@00",
"0O@9$..-+,.@+;%$$1$#.u tt5#77p@f00+9,%%.-d%#e-... >3@.,24..1p@00",
"0O39##--+.,e,2%9$1$5% 7-;sy,.j7000,9.-..+d.57-q,+o>3e2%.4%%#9e00",
"0 >$>>####,e+$->-y--.ue.;ss7,p@f00,$7,,7#1,>>;.,@o9@@2%+@..1p@00",
"0 +>#>,>...@+$.$511-.6 +$-s7,p,f00+-7+y,#-.751.,O,-+@;%.3%+%N+00",
"0 +$#>$...+e+$.-$;5.,6u%$t--q9,000,$@.7.,1-7$7.%O79,@#2.-%.%9+00",
"0O+>#>>#..4@+;,y-157-6 .y45yqy7z007y67.7..2;71,.@89@@#q%8..$9@00",
"0O+9;.-.;44e,-,$525;yg,.y7-5,j+f007j67,#72+752.,+893@#,2-%..9+00",
"0O+>;.#+;44@+9;y$-5##go.,,,5,9yf00+t@777.-77@,..,;>3@2q%.2%%9+00",
"0 +>.5.,,@4@.j>---;-#37-y#yttb7f00y-,,,.7-<$@-+.@;>3@28q,#%19+00",
"0 +9.1..,3,@.j55$1---6,--y.77-ez007b77.,,-.,..7,@1$6e.q,4.%%s@00",
"0 +$,.5..>#u+-5jy12#,6,-;y7.,>tz007$@,7e,-,7+,+.o-$&@+$q8$%$h@00",
"0 @>.21.+$,3+5$511,,76u-7y,,7te700u>7,#c,1%.@+++@-$6@>281$%$h@00",
"0 +>.2##+#%3+5%$--+%.6@,7#t77%tz00y-y.76-%-,e,+,z$$g@$2;1$.5s@00",
"0 @>#.##.- 3,1--5-+-,3q%+-t,,-ez00y>7,ene,8+o++gf-#&@#$11..19@00",
" O +<wBw<w=X***tvv,vt7t7ttltyCtttllllttlttty7777+www+ww++<wwwwoo",
" O6oo-wo    6**6666,ge---e-v7ye--yo-tg7t-6e:g--:  :: o:: o:w< :=",
" O oaou:X XOXX*6f*X6ge---X-tyy--l-,:6g7tlt,:g-:-w::X o:::X:@o o=",
"**   :-wX==6oX*=6X,X e:1,,wXe6--itXm6 7litX- --iX=:X o:iXXwXoooi",
"&*X :oq0&XXOoXOf7XeO-e-066X-e-o-0y,,O:et0y,X-o:0&XoX:o:0&XX o<o0",
"*&= oqoXX X*:XO*ZXXXe7-6Xu6,,7--6,uX*e-t6,u6e:-6X : o::XX XX<o X",
"XXX ooq: :XO:XX*gX- o7 e:66tee:-t- ,Oo-te: 6o: eo o@o: o: X ooo ",
"XOXXo::- oXOoXO*6,=X6ge:a6-,e- @--oXOo6t*7z3 7:X oXa :w:aX Xoo:a",
"OO  o:w: -X*o 6*6XX6XX:  6XX:7X3: -X*o6y*e6u ,au =XX ::   XX::oo",
" OO o:wo   OoXX*zX=X  :- 6X=<6:,o   Oo6,*o6u c:6  XX o::  X=< :=",
" O  ao :X XOo O,tO XO :--XX@e6:@:X XOo e,t6u 6oXw:XX o:::XX@o o=",
"**e  :-wX==Xo Ow,*=Xe ei,6=Xe6:@wX==Xo ewb6u cowX=XX o:iXX=Xoooi",
"&*: :oq0&6XOo O0r* OO o0c6X e6 n0&6XOo e0,63 @:0&X X:o:0&XX o<o0",
"*&w oqoXX X*: OX*O6XX eX, X6< :3X  Oc3 3X-33X3 XX X o::XX XX<o X",
"XX: ooq: :6O:XXaOX  XX:-:333f u36oXO33X3 -36  o    < : oX X ooo ",
"XO:Xo::: oXOoXOXOXXXO o::333fX @<u *3@X3 -u3uo:= oXa :w:a: Xoo:a",
" Oo o=w= =X*o ,X  XXX,=o<36@3u=o eOO3@6X o u =ao =X= ==  oXX==oo",
"oO  o=wo   OoXXX XXX  ==w33=  =6  u63=  Xe   o==  X= o== oX=< ==",
"oOo ao =X XOo OX O XO =o =3=  == oXO3oXXXo   uo===X= o==X=Xoo o=",
"X*o  ==wX==Xo OwX,=XO oiX=3= o=wX= O3 XXX==   oiX=X= o=iX==Xoooi",
"O*= =o+0&XX o O0&XoOO o0&X3wu= 0&XX*Xo 0&XXX X=0&X =Xo=0&XX o<o0",
"X w o+oXX XX= OXX XXXooXX =o o=XX  OX  XX  XX  XX Xo ==XX XX<o X",
"=== oo+= =6 =XXa Xo X====o=o o oaoXOX X  =XX  o    < = oX X ooo ",
"= =Xo=== oXooXOX X=XOoo== =o = =<  * =X  o X  == oXa =w=a= Xoo=a",
"ooo o:w: :X:o XXo XXX:-o<o:: o-o oOO::XX o  <Xao =X: ::  o:X::oo",
"qo  o:wo  oooXXX X=X o::wo:: o::     :  =o o<o::  X: o:: o:=< :=",
"qoo ao :: :oo  X   X  :o ::: o:: oX ooXX:o oo o:w:X: o:::::@o o=",
"X=o  ::wX=wwo  wXX=: ooiX=:: o:wX=    :iX==ooooiX=X: o:iX=w:oooi",
"&X: :oq0&X:oo o0&X@o oo0&X:wo: 0&XXX:o 0&XX: ::0&Xo::o:0&X:oo<o0",
"X w oqoXX :::ooXX ::XooXX wooo:XX   : oXX  ::o XX :oo::XX ::<o X",
"=w: ooq:q::q:::ao:  X::::o:ooo oao: : woo:::o o o o<o: o: : ooo ",
"XOXXOXXX OX OXOXOXXXOOOXXOXOOXOX OOXOXXOOOOXOOX*OOXkOXXXkXOXOOXk",
"0rO OO&O & 0&O&O OOOOOOOOOOOO &00rO OOOOOOO OOOOOO&00r OOOOO &00",
"0& .+o o@O+OO oo  @ +  + @   +O00&@+ @  o @@@    o+&&O+@o  @+O00",
"0O4p;##>5+>O@+.8.#..5+.1....+p@00O9>..4.;5>>..4..%#93p>.;.+.p@00",
"0O@h$.+$5.#O .;$..;.5@;;#.1;+p@00O$9..@#15$#..@..2.>3>+.;..#p@00",
"0O3h#.+>>.5O .#$;.;<1o.;#....>+00O%h..3<19...%3.42.>@>.8;.+.>+00",
"0O>h#..#122Oo.#$..$.83#;#..;.9@00O4h.#>4x98++#>%42.<@.+.<.+%9@00",
"0O4p;..>12#O .4;+.$<8&.;;..#.s+00O@p.%%4x9...#.%@22<4+4.<4+2s+00",
"0O4p;.>2.2#Oo#4;+.1.8&.8;+...p@00O3p...4d9...$%%328<4+++<++%p@00",
"0 @p$.>2%#.  .@#<.;.<.;8.+;i.p+00 3p.4.+15+.A#21>2+<.+.4< ..p+00",
"0O3p.#$.;$% o$3;@..#8o..#+.+.p+00OXp.+#+55@.i.5#.2+<.+..<&..p+00",
"0 >91.$+9;. o$>.oi..8@<+;<...h@00 @9.%1%55 ..452.$<<..+.q&..h@00",
"0 +p5+;@$1.O #..o+>..3..;.+.8h@00 @p..2%15 +.+1242.<..o.@@..h@00",
"0 @h1;5O+1.O #.#++;#.3#.;+@..9@00 @h..2+95+++451.2.+.++.++..9+00",
"0 @h#1s&.1#O #.#+i##.@.8;+$#.9@00 @h..8+59+++4$;.1%++++.++.%9@00",
"0O@h5#5O..>O+#.#+#>..+#8>+.#.9@00O@h.#++59++.+$5%%%+.++++@.+9@00",
"0O@h$#>@.;#Oo#.+o.$>q+#+$.#..s@00O@h.#+.;9@+<+$d218<++o++@.+$@00",
"0O@p5.1+.;#3+1.#.##>.q#.1+;..9@00O@p.#O<29@@++dx214<.4o++o+.$400",
"0O@95.1@.;2O+>..@;$1.+.+.+.;.p@00O@9.$O.$5@@++5x214++4o++4+.$$00",
"0O@h>.$@.;8O+#..+.;#++..;..#.9@00O@h.#@q>1@@@o1d15@+4.+.@+..$900",
"0O@h5..@<..O ##.+;#$+.;.1..#+9@00O4h..+.>5X@O+$1123+++..++..#p00",
"0O@p5..+<1.O@..@o2;.;$<<1..#.s@00O4p..++#5*@O.$2>.>+8o<.+.+..900",
"0O@p;.;.o>.3q.@3@1$$;%..;..#.9@00O@p#.@.85*@@.21>.2<#+<.@.+..900",
"0O@9.q#.o;%3++3031>>$+..;+<..9@00O39;+@88>*@+##2.%2<.+..@....>00",
"0O@9;..#+143+.303.>1;+...++.+9+00O>9.%+.4$X4+.%.4%$<..+...+.#$00",
"0O@9#.<..5#3+.@3@.1;.$..;.+;.9+00O@9....42@+@..;o...+.@..#..##00",
"0O.9#..;.;.3+.434+5>##.#1.@$.p@00O@9.%..%5@+@.8;+..<+.&.+.++$.00",
"0O+9;;...>43+..3++8..<.#5.r5.p+00O49+...>2+.++.2o%.<.o&8+%.+$+00",
"0*@9>>##.543+..@...###..;.r#;p+00*49q+..42+8.+.2+$+..4@8+%.+>@00",
"0O@9..;.>$43+..@.+.<..#...@;.p+00O@9++%..8424+81+#o<.o+2..q+9+00",
"0*@$#.#;##43+.$#o...+.;.;#+#.p+00*@9++..2#484o%1+.+<.++2.<..p+00",
"0O4$$.#.+1+3+...+....<#;;i+..9@00O+9..+.>#@+4.%2+.+<#o@8.+..9@00",
"0O$$$#.#.1.3+#.>o#;o4.#;;#@#.9+00O@>.+++#.3.4%.2+.+<.+@8.@..9+00",
"<<<+<wBw<wwOO+ww<+=XOOw<<<OO+<w<+<+ wwww+<<<<wM<+www ww++<wwww<o",
"qoO o:woo  O&w:: XX*OOX:woX* o:: O &&X o=oo  o::  X*O :: o:=  :=",
"qo  a  :: XO&  :O OX&OX  :X*  :XO X&&OX::oo   o:=:X*O ::::X&  o=",
"X=   X:wX==*&  =*XX*&O =X=X*  :=*X &&&XiX=w  ooi*=X*& :iX==r ooi",
"&XXO: q0&XX&&  0&*OO&O 0&XXXoX 0&*X**OO0&X:XO::0&X ** :0&XX& <o0",
"X =Oo oXX Xrr  *rO**rO *X =Oo :**O &*& *X oXXo X* XOOX:XX Xr o X",
"=wXOo q:q:X&rXXkOXOOr*XX:oXOo   k X&*&= o::X  o    OOX o: X& oo ",
":oXXoX::qoX&&X XOXX*&O X: XOoX X O *&*X oo X o:=OoXk&Xw:a:Or o:a",
"oo OoXw:o:Xr&OXXOO****X <oX*  : O O&**XX oo  :aoO=X*&X:  oXrX:oo",
"qoO oXwoo  &O=XX&XX*&OXXwoX*  :XOO &&*  =oo  o::O X*& :: oX*  :=",
"qo  a  :: X&OO X& OX&&X  :X*  :XO X&&OXX:oo   o:=:X*& ::::X&  o=",
"X=   X:wX==rO  =rXX*O& =X=X*  :=r= &&&X=X=w  ooi*=X*& :iX==r ooi",
"&XXO: q0&XX&&  0&*OO&& 0&XXXoX 0&XX*rOO0&X:XO::0&X ** :0&XX& <o0",
"X =Oo oXX **r  *rO***& *X =Oo :*r  &r& *X oXXo X* XOOX:XX Xr o X",
"=wXOo q:q:X&rXXkOXOOrrXX:oXOo   koX&r&= o::X  o    OOX o: X&Ooo ",
":oXXoX::qoX&&X XOXX*&OOX: XOoX XO  *&*X oo X o:=OoXk&Xw:a:O*Oo:a"
};
