/* XPM */
static char *WOODVERT[] = {
/* columns rows colors chars-per-pixel */
"64 128 6 1 ",
"  c #3F2F17",
". c #43331B",
"X c #332B13",
"o c #4B371B",
"O c #2B230F",
"+ c #4F3B23",
/* pixels */
"OX  .X.Xo. .  .O X Xo o. o o o OX X XXX.X X.   OOOOOOOOOOOOOOOOO",
"OX  .X.Xo. .. .O X Xo o. o o o OX X XXX.X X..  OXXXX X XX XXX XO",
"OX  .X.Xo. .o .O X Xo o. o oXo OX X XXX.X X..  OX X  X XX X   XO",
"OX  .X.Xo. .o .OXX Xo o. o oX. OX X X X X X.o  OX O  X XX O   XO",
"OX  .X.Xo. .o .OXX XoXo. o oX. OX X X X X X.o oOX    X XX X X XO",
" X  .X.Xo. .. .OXX XoXo.XoX.X. OX X X X X X.o +OX    X XX X X  O",
" X  .X.X.. .  .OXX XoXo.XoX.X  OX X X X   Xoo +OX  . X XX X X .O",
"   .oXoX.. .   OXXX .X .X.X .  OX X X X    +o oOX  . X.XX X X .O",
"   .oXoX.X .   OXXO .X .X O .  OX X X X    +o oOX Xo.X. X X X .O",
"   .+XoX.X ..  OXX X.X .X   X  OX X X X    +o  OX Xo.X. X X X oO",
"   .oXoX.   .  OXX X X  X X X  OX X X.X. . +o  OX Xo. o X X X oO",
".  .oXoX.   .  OOOOOOOOOOOOXOXOOX X.X.Xo . +o  OX Xo. o X . X oO",
".. .oX.X.   .  O o  .XX. oXoX+XOX X.X.X+ . oo  OX Xoo.. X . X oO",
".. oo .X.   .  O oX oXX. oX  oXOX X.X. + . oo  OX Xoo.+ X . X oO",
".. o+ oX.   .  O oO +XX. +O  .XO  X.X. o . o.  OX Xo+.. X . X oO",
".. oo +Xo   .  O o  oXX..+XoX.XO  X. . . . o.  OXoXo+.o.X . X oO",
"   .o oX.   .  O .  + X..+XoX XO  X. . . . ..  O oXo+.o.X . X oO",
"   .+ o .   .  O .  o X..oX.X XO . . . . . ..  O +Xo+.+ X . X oO",
"   .o o . . .  O .  . X . X.X XO . . . ... .  .O oXoo.+ X.. X oO",
".  .o o . . .  O .  . X . X X XO o ... o.. .  .O + oo.+  o. X oO",
".. .o . . ...  O .  . X . X X XO o o.. o.o o  .O o oo.+ Xo. X oO",
".. oo . . o..  O .  . X . X X XO o.o.o.o.o .  .O o o..o  +. X oO",
".. o+ o . o..  O .  . X . X X XO o.o.o.o.o .X .O + o. o .o.  XoO",
".. oo + o o..  O .  . X . XoX.XO o.+.+.+.o o  .O o o. o .+.  XoO",
".. o+ + + o..  O .  . X .  oXoXO o.o.+.+.o o  .O . o. o .+.  XoO",
".. o+ + + +..  O .  . X o  + +XO o.+.o +.o oX .O . o. o .+.   oO",
".. oo + + +..  O .  . X o. + +XO.o.o.+ +.o o  .O . o. o .+.   oO",
"..X . . o oX . O .  . X o. + +XO.o +.o +.o o  .O . o. o .+.   .O",
" .O . o o .O   O .  . X o. o oXO.o o.+ +.o .  .O . o. o .+.   .O",
"   .  o o  ..  O .  . X o. + oXO.o o o +.o o  .O . o. o .o.   .O",
"      o o  ..  O .  . X o. + oXO.o o o o.o .  .O . o. o .o.   .O",
"OOOOOOOOOOOOOOOO .  . X o. + oXO o o o +.+ .  .O . o. o .+.   .O",
" XXX X  o      O o  . X o. o oXO . o o o.+ .  .O . o. o .+.   .O",
" XXX X.X.o .   O o  . X o. o o.O   o o +.o .  .O . o. o .o.   .O",
" XX .X.Xoo X . O o  o X o. o o.O  .o o o.+ .   O . o. o .+.   .O",
" .O .X. oo O . O o  o X o. o ..O  .o o +.o o   O . o. o .o.   .O",
" .X..X. oo oo  O o  o X o. o . O  X .+.+ o X . O.. o. o .o.   .O",
" .XooX. oo oo  O o  o X o. o . O  O .o.o o O . O.. .. . .o.   .O",
" .X+oX. oo ... O o  o X o.X. . O     + o o o o O.. o. . .o..  .O",
" .X++Xo o. .o. O o  o X o.X. . O  XX . .X  .X  O . o. . .. .  .O",
" .Xo+XoX.. o+  O o  o X o. .X. OOOOOOOOOOOOOOOOO . +. . .. o  .O",
" . .o oXooX.  .O o  o X o. .X. O.o o o o  .oX  O . o. . .. +   O",
" . .o .X.. . X.O .  o X .. .X.XO.+.o o o . .X  O . +. . .. o   O",
" ...o .X.  . X.O .  o   ..X.XoXO.+X .o o o X . O.. o. . .o +X. O",
" . .o .X. Xo X.O .  o   ..X.XoXO.+O .o.o o O . O . .. . .o oX. O",
" . .. .X. X+ X.O .  o   ..X. +XO.+.+ +.o . . . O . .. . .o .X. O",
" . .. .Xo X+ X.O   .o   ..Xo oXO.o.+ +.+ . . . O . .. . .o .X. O",
"   .. .Xo Xo X.O   .. . ..Xo +XO ..o +.+ . . . O . ..X. .o .X. O",
"O  .  oX+ X. X O   .. . .oX+ oXO . o o.o . . . O . .. . .o .X. O",
"O  .  +Xo Xo X O    . . .o o oXO . . . o . . . O .X..X. .o . . O",
"OX . XoXo X XX O    . . .+ + oXOX X.X.X. .  X. O  X.. .X.o o . O",
"OX . X.X. X XX O    . . .o o oXOX X.X.X...  X XO  X .X. .o o o O",
"OX   X X  X XX O    . . .+ o oXOX X.X.X.. X XX O  X .X.X.o oXo O",
"OX   X X  X XX O    . . .o o .XOX X.X.X.. X X  O  X .X. .. oXo O",
"OX   X X  X XX O.X  . . .o . .XOX X.X.X.. X.X  O  X oX.X.. .Xo O",
"OX   X X  X.XX O.X  . . .. . .XOX X.X.X.. XoX. O  X +XoX.. . . O",
"OX . X X  XoXX O X  . . o. . . OX X X X.. XoX  O  X +X+Xo.X. . O",
"OX o X X .X+XX O X  . . .. . . OX X X X.. XoX  O  X oX+X+oX.   O",
"OX + X X oX+XX.O X  . . o. . . OX X X X.  XoX  O  X oXoX+oX.  XO",
"OX + X X + oXX.O X  o . +. . . OX X X X.  XoX  O  X .XoXooXoX XO",
"OX o.X.X o .XX.O X  o . +. . . OX X.X.X.X XoX  O XX .X.X.oXX .XO",
"OX ..XoX .X.XX.O X  o . .. . . OX X.X.X.X X.X  O XO .X X .XO .XO",
"OX  .X.X .X.XX.O X  o .  o o . OX X X.X.X X.X  O XXX X X  X.X XO",
"OX  .X.Xo.X.XX.O X Xo .. o o . OX X X.X.X X.X  O XXX X XX X X XO",
"OX  .X.Xo. .  .O X Xo o. o o o OX X XXX.X X.   OOOOOOOOOOOOOOOOO",
"OX  .X.Xo. .. .O X Xo o. o o o OX X XXX.X X..  OXXXX X XX XXX XO",
"OX  .X.Xo. .o .O X Xo o. o oXo OX X XXX.X X..  OX X  X XX X   XO",
"OX  .X.Xo. .o .OXX Xo o. o oX. OX X X X X X.o  OX O  X XX O   XO",
"OX  .X.Xo. .o .OXX XoXo. o oX. OX X X X X X.o oOX    X XX X X XO",
" X  .X.Xo. .. .OXX XoXo.XoX.X. OX X X X X X.o +OX    X XX X X  O",
" X  .X.X.. .  .OXX XoXo.XoX.X  OX X X X   Xoo +OX  . X XX X X .O",
"   .oXoX.. .   OXXX .X .X.X .  OX X X X    +o oOX  . X.XX X X .O",
"   .oXoX.X .   OXXO .X .X O .  OX X X X    +o oOX Xo.X. X X X .O",
"   .+XoX.X ..  OXX X.X .X   X  OX X X X    +o  OX Xo.X. X X X oO",
"   .oXoX.   .  OXX X X  X X X  OX X X.X. . +o  OX Xo. o X X X oO",
".  .oXoX.   .  OOOOOOOOOOOOXOXOOX X.X.Xo . +o  OX Xo. o X . X oO",
".. .oX.X.   .  O o  .XX. oXoX+XOX X.X.X+ . oo  OX Xoo.. X . X oO",
".. oo .X.   .  O oX oXX. oX  oXOX X.X. + . oo  OX Xoo.+ X . X oO",
".. o+ oX.   .  O oO +XX. +O  .XO  X.X. o . o.  OX Xo+.. X . X oO",
".. oo +Xo   .  O o  oXX..+XoX.XO  X. . . . o.  OXoXo+.o.X . X oO",
"   .o oX.   .  O .  + X..+XoX XO  X. . . . ..  O oXo+.o.X . X oO",
"   .+ o .   .  O .  o X..oX.X XO . . . . . ..  O +Xo+.+ X . X oO",
"   .o o . . .  O .  . X . X.X XO . . . ... .  .O oXoo.+ X.. X oO",
".  .o o . . .  O .  . X . X X XO o ... o.. .  .O + oo.+  o. X oO",
".. .o . . ...  O .  . X . X X XO o o.. o.o o  .O o oo.+ Xo. X oO",
".. oo . . o..  O .  . X . X X XO o.o.o.o.o .  .O o o..o  +. X oO",
".. o+ o . o..  O .  . X . X X XO o.o.o.o.o .X .O + o. o .o.  XoO",
".. oo + o o..  O .  . X . XoX.XO o.+.+.+.o o  .O o o. o .+.  XoO",
".. o+ + + o..  O .  . X .  oXoXO o.o.+.+.o o  .O . o. o .+.  XoO",
".. o+ + + +..  O .  . X o  + +XO o.+.o +.o oX .O . o. o .+.   oO",
".. oo + + +..  O .  . X o. + +XO.o.o.+ +.o o  .O . o. o .+.   oO",
"..X . . o oX . O .  . X o. + +XO.o +.o +.o o  .O . o. o .+.   .O",
" .O . o o .O   O .  . X o. o oXO.o o.+ +.o .  .O . o. o .+.   .O",
"   .  o o  ..  O .  . X o. + oXO.o o o +.o o  .O . o. o .o.   .O",
"      o o  ..  O .  . X o. + oXO.o o o o.o .  .O . o. o .o.   .O",
"OOOOOOOOOOOOOOOO .  . X o. + oXO o o o +.+ .  .O . o. o .+.   .O",
" XXX X  o      O o  . X o. o oXO . o o o.+ .  .O . o. o .+.   .O",
" XXX X.X.o .   O o  . X o. o o.O   o o +.o .  .O . o. o .o.   .O",
" XX .X.Xoo X . O o  o X o. o o.O  .o o o.+ .   O . o. o .+.   .O",
" .O .X. oo O . O o  o X o. o ..O  .o o +.o o   O . o. o .o.   .O",
" .X..X. oo oo  O o  o X o. o . O  X .+.+ o X . O.. o. o .o.   .O",
" .XooX. oo oo  O o  o X o. o . O  O .o.o o O . O.. .. . .o.   .O",
" .X+oX. oo ... O o  o X o.X. . O     + o o o o O.. o. . .o..  .O",
" .X++Xo o. .o. O o  o X o.X. . O  XX . .X  .X  O . o. . .. .  .O",
" .Xo+XoX.. o+  O o  o X o. .X. OOOOOOOOOOOOOOOOO . +. . .. o  .O",
" . .o oXooX.  .O o  o X o. .X. O.o o o o  .oX  O . o. . .. +   O",
" . .o .X.. . X.O .  o X .. .X.XO.+.o o o . .X  O . +. . .. o   O",
" ...o .X.  . X.O .  o   ..X.XoXO.+X .o o o X . O.. o. . .o +X. O",
" . .o .X. Xo X.O .  o   ..X.XoXO.+O .o.o o O . O . .. . .o oX. O",
" . .. .X. X+ X.O .  o   ..X. +XO.+.+ +.o . . . O . .. . .o .X. O",
" . .. .Xo X+ X.O   .o   ..Xo oXO.o.+ +.+ . . . O . .. . .o .X. O",
"   .. .Xo Xo X.O   .. . ..Xo +XO ..o +.+ . . . O . ..X. .o .X. O",
"O  .  oX+ X. X O   .. . .oX+ oXO . o o.o . . . O . .. . .o .X. O",
"O  .  +Xo Xo X O    . . .o o oXO . . . o . . . O .X..X. .o . . O",
"OX . XoXo X XX O    . . .+ + oXOX X.X.X. .  X. O  X.. .X.o o . O",
"OX . X.X. X XX O    . . .o o oXOX X.X.X...  X XO  X .X. .o o o O",
"OX   X X  X XX O    . . .+ o oXOX X.X.X.. X XX O  X .X.X.o oXo O",
"OX   X X  X XX O    . . .o o .XOX X.X.X.. X X  O  X .X. .. oXo O",
"OX   X X  X XX O.X  . . .o . .XOX X.X.X.. X.X  O  X oX.X.. .Xo O",
"OX   X X  X.XX O.X  . . .. . .XOX X.X.X.. XoX. O  X +XoX.. . . O",
"OX . X X  XoXX O X  . . o. . . OX X X X.. XoX  O  X +X+Xo.X. . O",
"OX o X X .X+XX O X  . . .. . . OX X X X.. XoX  O  X oX+X+oX.   O",
"OX + X X oX+XX.O X  . . o. . . OX X X X.  XoX  O  X oXoX+oX.  XO",
"OX + X X + oXX.O X  o . +. . . OX X X X.  XoX  O  X .XoXooXoX XO",
"OX o.X.X o .XX.O X  o . +. . . OX X.X.X.X XoX  O XX .X.X.oXX .XO",
"OX ..XoX .X.XX.O X  o . .. . . OX X.X.X.X X.X  O XO .X X .XO .XO",
"OX  .X.X .X.XX.O X  o .  o o . OX X X.X.X X.X  O XXX X X  X.X XO",
"OX  .X.Xo.X.XX.O X Xo .. o o . OX X X.X.X X.X  O XXX X XX X X XO"
};
