/* XPM */
static char *WOOD12[] = {
/* columns rows colors chars-per-pixel */
"64 128 35 1 ",
"  c #533F1F",
". c #5B472B",
"X c #533F2F",
"o c #43331B",
"O c #4B371B",
"+ c #4F3B23",
"@ c #67533F",
"# c #5F4B37",
"$ c #574333",
"% c #473323",
"& c #5F4323",
"* c #6B4727",
"= c #4F3B2B",
"- c #675333",
"; c #3F2F17",
": c #774F2B",
"> c #332B13",
", c #6F5743",
"< c #373737",
"1 c #7F532F",
"2 c #775F3F",
"3 c gray23",
"4 c #875733",
"5 c #2B230F",
"6 c #2F371F",
"7 c #775F4B",
"8 c #2F2F2F",
"9 c #434343",
"0 c #3F2B1B",
"q c gray28",
"w c #836B4B",
"e c #3F472B",
"r c #272727",
"t c #53573B",
"y c #836B57",
/* pixels */
"555>5555555>5>>>>55>>;or55555555o;>>;>555555555;;;;;;>;>;5555555",
"o%<+;;+$=XoO%.,- .<0;;<;;Xoo+;o%>;;;;;;+;0>O<OX >%++%+%;>3>%;O% ",
";O=3  8O+ *..<%;>;;+<>; <>;% ;3<>%O+;O%%+O%O <3+o>>;0>;%;O%X%< ;",
"oO+X$O X%<o>+%5oo  @+>o%;+O $3ooo%+++;>;%<>o%;>o; + +;5;8+  $X <",
";O  <%>%o>oX.X++++ o<%<+Oo>%+%XX9=  OXoXXo>%%++%%oo<O%<Xoo>;>>;;",
"X Oo<%X%o ++++X+<O  $$%o%>+ ++%++O XX+%ooo%++%%+<Oo3%%%>oo++%;% ",
"%;;X%%;&.-  X+%o%%%+%X%.o X$$ %o.$X##$%&.*X X++..+% ;%=O . $$$%o",
">>o+$o;%<o+ooO=oo%o>>>;%+>;oooo>oo+<%o<+ o+Ooo;oo;>>;>8;<>%o <o>",
" %=;o%+$X+o&  &OX#**&.$$X X-&**  .& &#%$O+o-   oo #& %<;o>o-..* ",
"%9;%;o<%%&  . +O$@. $ $&@2#@@@1$.#$ . ##.. $$  oXX+++o+O%  +;;  ",
"o% <;o # $ .. .% $.X     X X..X% $. .  $O$O  & oO+. $OO+o+oX &Xo",
";O%oo%%o;ooo%O+%oo;;;;oo%oo%==o%oo%o;;;;oooooooooo%o;ooooo;o>;>;",
"%&O % O;%O;o;%;;oOoo;OOO  o%%o;oo&O ;OOo+O;o>o>;o&O ; Oo+O;>>>5>",
"$##@#,-,@,@##@#####@,2,,2,-,2-4@@,@#@-@@-@@.@@@@.##$.-@###@####@",
"o+   X X..  .-$. $.& ..*.   $-$#  +&O .X..  XX=  $X O  .+X  XX=O",
"+X.@&$#&.  + ..&XX .O%     .  XX OO&   .   $ .=  X O%      . &o;",
"XooO;oOo=o+++X #$X$X&*X=X*&*  . +oOX+OOOX$$#X $ O oX** o   Xo -.",
"o  $X %  .X.$.& &XX X.@OX-.$*#-.    +..**- -$**-,,*112,:@-#*:*  ",
"oOO++O  ..+X#$. X.O&X$$ -#.. .+ X&*@*.@2@-@:2@4.&*&* $&O...&+  O",
"o 3.$OO ..  .. o><X.++.%.@$ .OOO$2771@@@:2,@,.   .X*$X. *7,#.&X+",
"X=X  $XXOXX#@..$XX o$+X -#X *#* .OOO . .XX&..X+XXX$+ $X 2,@$-#$ ",
"@-. $++XX $  +.*@*:#X&$&* $X&*..$ ..X+X% #@* X% .X  OOo%X OX..@@",
"..&.X%X**,@XX.*-,2-w,w@11,#::-*@-..#.X+***+ $$+ X.  & +***#X+.  ",
"ooo%+o%o++&+oO+++=o++X+OoO%Oo%oo=%oo;O%+ %ooooo%;oo+++++=%+++%OO",
">O   X%%;;o   &ooOoO%%o+%o;O%X+%oO&Oo%o%o;o&  &;;O  +%+%%o>o>;;;",
"$@#@#.##@@#,@@,@@@@.@@@,,@$@#-,@@,##--@@@2#,,@@##@@@@@#@,@.$##$@",
"o  ..OO$X. X...%o+X.-..X.XX #. $&.**@# $ $ OX. %X@#..$==+O OX%oO",
"  O o=  o  .=  =O.$XX$ *.*.&XX.$ &XO%OOoOO &oOO==X$X$$o*.:.$.X$.",
"$& *X OX+OoXXOo OXX  +XX  OOOooo.*X&+& O  OO==+XX%+O+  +X%+  O% ",
"$  + ...    .$.X  $.*@:@--X&.,-.@@-X=*.X $.   .X  ++%+$  .oO$...",
" $% OX&$ #. X#$&=OO+ ... ..,@.X. $.& *@@$.  .-$.=. .$X#.X $ O%3+",
"<>oX%oooo O+O.X  . X+;;%+XOO$+o ooO& O  X  $O    ..#+oo%%+o $. <",
"3>oo& O==. oO .OXo oO..#XOX.+.X.X oo  OoX.O=eO$=XOo<o o%OXXX+3e9",
" $< X.X +X%%.#*.$X.9X.. %<3$$XX..Xo&##@##@.X.&&....#@#.%% +X+XX+",
"O+o%$X. #X+ % $X&..@X+&&&&+ $$ OO+o ++oo3 +%<   .X%X%%>  &%+<3%o",
";;%+<<+;==+o+%ooo;;;;o;o++ Oo=%%8;oooo+;;+%;;;;;;;;;;;;;o;8>;>;;",
";O+6%+o; %%; % o>oOoo%o+ooo&  &ooo%r%;;> +%; %+>>O& O+o;oo> oO%>",
"-4-@@..#@4#@,244@@@@#.,,-2-@@-,@@@.-@-#@,##.#-@#@,@##.@@@@-,,22@",
":*O*&.#*&&&*@**.o%O $ #. $ O.#. O O. .+*14 &.-.$O.  XOo$ $#X.*&$",
"oO; &.   &*1#= +O%o +X& X  .XXX$o.#*.#.. O*2##OO .X oooO O XXX o",
" O    X$$%oooO%OO ***#.@:  &&** @$O  O;OO.***# 1:+ 1*&&;oo%   +&",
"  ..X$@$OXO  &..+#$++O+ .,&1$.#=O:-.X..  .+$$ *.+&o.$ .+X#X..**&",
"o.X $XX11#*:@:,@#. ..  @ @ &&.X o  $#O; o+.,@  %o OO . o$OoO +.+",
"oO #$&OXX.&**1:#:#X &#-* OoO..OO *.4 o +&&O;;oO  O .=.XX  oo++oo",
"&X+oo%o+O=&..#*..:-1,,@&*. X++= .OO  ::1#&&*%& O  ;o;o; OoX+$X+.",
"X &#.+%>;Oo.$++ ...  &...$&&&**@.X&-$.+&.#@.X..X...    ;;O+ +XX+",
" X.#X+%   %$$$&X  +oO ..X+O +X$..X;#*@1:X ; O+.$.*:..#$ ..X X++O",
";;o;;o;;o%+oooo%ooooo &ooooo;oo;%;oo;o%o%+%Ooooo;;oooOo;o;oo;;;;",
"5;OoO+++o;;  O oO;;;;OOoo;;Ooo;%oO OO%;;>>;o;;>>o>>;oo;;o;o&oOO>",
"@@@,@@@@@-#t@@-,,77,,@@@@,.@#---@@@,@#@#.-#@@###-,@@@--@@-##@##.",
" ..@@  @ . .&&X O.X$@....X$..+   .@*@X . .X+$.+.$.$  %..O  oO Oo",
" XXX X     ....Xo  # XO...  .+  O+X $$&&$@$*.X XX.<O++     .$. +",
"$* *X-.X$.O=+X+ &X o X .*$@.$.$$.*-,.*.&.XO  + +XXXX++XX$*XX==% ",
"X$.X=-*#.#X  $ +   -,@@$*#*@1**..@.+X*......$$XX;o++ +X   X     ",
"o+   X X..  .-$..X.*..+**&&.@-.#  +&O .X...#X+O&..X X +X+X  XX=O",
"o+X@&$#&.  + ..&X  .O =.. .  OXX OO&X  .  +=% =..=$O  XX   $ .o%",
"X;oO;oOo=o+++X #$=$X&*X=X*&*  . +oOX+OO&X$$#X @ OOoX** o   Xo $.",
"   $X %  .X.$.& &X  X.@OX-.$*#-.    +..**- -$**-,,*112,:@-#*-**#",
"O       ..+X#$. X.O&X$$ -#.. .+ X&*@*.#@2-@:2@4.&*&* $&O....+   ",
";o<++ooo++oo++o;>8%+oo+;+X+o+ooo+.##&XXX&.$X$+ooo+% +%+O #$=+O%o",
"%o>;o%;;;>;;;;;;;o%r;;;;&+6o %%o;>>;>;>;;>;%;;;;;o%6%o;; %6>;8;>",
"@@#,@@#@.X$##$##@##,,,-##...$-#@#.###$#@@@@@#@#@@@.##@.X$#@,,-$@",
" X #..o...$ X$**X   XXX..* .+....X+XX.$.*. .-..Xo Oo .::  OO$.# ",
"o%+O% =& =$<O XooO .&+$# &X.==OOo oO  o+.=*&##oOo X. + .OX$.=OOo",
"o;%=++XO +oOO = O&@2*  %$o;OOO  O@,&&X*@Xo &1:#OX& #.X%3+o<O $%o",
"+ XX8$$ o o.....  X*.*.-X#= .** &*X*.X+ $*O$ .$O+X X$X$$ o>+OX  ",
"X...+;%  ..&.***X.&.$X% *.*..+#. +&*@ O+O- XO OOO X..@#X.@  XXO ",
"%. 9+oO.#,#&*%OO O.--*-,:@&O+. X .=+oX#O  O  & XO&$X+$o &*.$ o+ ",
"XOooO+ +OO&..&X+% ###@ X.#&*27+X+1--+ .&$.@* Oo +&=XX#XXX##XOoXX",
" ..-,#.%  .@@@@   &@,@:@* ...:@...*XO&.,-. &*$.XO.@#X$+  *=.$&* ",
"&&%.X+o -*.$@..X.@@#X.&:,,:*$$+X .+*--.$.$  &-#.XX ...**@*$ .+..",
"ooO%++=&Xo&&&X=oooo%+o &%oooOoo%OOoOooooo==+oo%o;    =oO+ =&X+oo",
"5o  O++%;>;&O  o;oOoo+o;ooo&  .oo ;o  oooOoo;>;;;;>;o;>;;;;;;;;>",
"@,,,,,@@#-.####.#@@@--@@@--@@##@-@#@@,2,,,@,,4,@,@,,,@@##-@@#@@@",
"oX  + O$   &.#&*#*1@1#-:-@#-:@@#.-#-...X--.@ .@.*###@#--,1*1-* X",
":.X +.&  #::X. X#@$#&.###& &X.&X$&:1@**&#@. @OoOOoO=o #..X.&  X.",
"$*.*&.-#@-$ +X&#@*...**.##=X##$##*@$q.X 1@@#4##  .:.&#$$O  :**# ",
"  ..X*.X&.- ....+$ %=* &@,:&*--,,::,@@$$. XXX ++X 0%;>%O+ O+ $$X",
".$&  -@@#.  @-@. @.@#@-*.+  *,$.&  ..-@:.-#-@#**#.... &. . X..*X",
" XOOOo     $ *# &XOq$   OO $ :X   o....* XX&=X O X=o%=  X  .=X X",
"o;oooO<;=%%$ +% X.XX&:- &.OX& e =. & #.*.. * @.&$# &%& O &+++++X",
" ... $$ X.+ +&o  $o.@,,###.*,**.+..**&.X#. @&-**.*# X*.+ $X ..&.",
"oOO++o+.@-#& +#$X$ .#.  *.+&X +O:11:@*.=. XO+& =  X O$ .&.XXXXXX",
"%+==+;;o%=oooooo;oo X=XoX.=o+ooo+++%%+% + + +%o+o%oo;;oooooo;o;;",
";>;;>;;;;>;;%;%;;;;r;;;; %6; %%;;>o;;>>oO%;%6;%;;o;; O;>;O5>550>",
"X##.q$@$.#####@#q$.$#@..@=..$-$$.-@#.......$$$..$@=$$##=$@$$..$.",
"%;3X%%;&.-  X+%o>+ooOXX.o  X$ ++ #$.#$. XX$+o+O$. o ;+=;X. XX.+O",
">ooX$o;%<o+ooO=o; o%o;+ o;; ooo>oo < o<OO%++o+%+;o>o+8%>3=+o$<o;",
" .&;oX+$X+o&  &OX#..X.$$XXXX ..XX.Oo&#O=O.o=oo%oo $o+;>>&%%=##. ",
"%9;%;o<%%&  . +O##.O$X$.,,X@##:@*#% ##@#X$&X.&& $%o%oooo%o=$$$+.",
"O% ++o # $ .. .%X$$  $X+& X .X==X$ &.$. ..  +&  O  &X +&  oX+&$$",
"o&X +XXOoO  =&.XO++o++O.#*.$@#$$%OX&+% o#@.O OXOoO *.+.  XoXXXXX",
"o O&%..&@-XX+=o O%oX++#==%% OO% XX.X.$Oo&X+=&+ OO  - .$.+XoOo$%o",
"$#..<  %  O   O%o.+ . ++  ; $.. $%o+=oooX .X.-$@*.**#&.##.+.X.%+",
"X$;Oo$.$    .X=OoOO+XXX.$X X..@.X. ....*&* &.&..X.-@X.==+oo %%X$",
"oOoo;oXXX O   %oo XX .X== OO<OOooOOO =  XX  O+O=X  +  X      +OO",
"oXoo&.o;;O;oo%+;;>;>;;o%Ooo%=%%%; OO;%o+%o>O;+o;;oo%oo>  %o%6;;;",
" @$@@,,,@,@#-,-####,2,,,4,-,2--@@,@.,-@@-@$##@@@X-@$..#...#@##.#",
"O++&.X  ##$..*...X.*..X**&&.@-.#& X. +=+.XX X+OO $$ ++ .OX$$X+o%",
"% .,*@@&@@#O$ .&X  .O =.. .  OXX + &.. -&*.$$X$.X  O   X ... .++",
"X +o++OO-XX=##-#X#,*&#$$X &4*&*& oO.$Oo*.@@,#.@.OooX.   &  #% -#",
"++O==O;o+OXXX.+++..  O# .: #.$#XX&.+O X &  #X. #@44::-#*#..** oo",
"o+oOOO &.*OX#.   .  X X. # X .Oo *-#..-2-@@:,@:.&**.+X& OX..O+O%",
"oO< .+ & &X.XX o;3=+;O  O   XOOO#@,@:@@#:272@...X.   %   @@@ *.$",
"=.#.$@#$+X ##...$# &X&.X$.X +X& X  &.#...X * $+X.#X&+..&,@#$XX% ",
"@@$o$O+.#$%+O .*@*1@X*@*:$# &...$ $&XO$$*@$-OX% .$. O& X..  .$@@",
"X.*+$+XX.@#O+.*#@2@w@y@1:@#::@#-#*#..$X &XOOXXO+ . &   .#.# %$= ",
"+ ++X O  .&.=  . $O+O=OOOOOOO OO==  O O   O= + =O+O+OOOOXO+   O ",
";>>;+;o o;;%6;;%o ;;OO;>o ;;;o+oo>>%;>>oo%%+6;;o;%>;& ;;;O;>>>;5",
"@-@@###@.X.$$#..@@#,72,######--@.-@$...@#@@@#@##@,.#@,@.$@@,2-#@",
"O$X... .XX#+O$**.   $$. -@.X+... $ OX.@.XXX.&.X.O OO .1&.X+%X.# ",
"o  O    OX$3OX.+oOX.X+.X#-# $ OOo&oO  OO X*.#@+ o X* % %.@@ $OOo",
"oX+X##. &.OO  # O*2,-.& ,.%O&+- O#$O&&*#&  O& $OX& $.+o%&X3o##+o",
"&.% <#$O6+%X*#...+ . & .X =O.*.+**O:#qXO##+X&*.   O==X%%%;;O+.#.",
".. *+; o.#.&.:.&X.&* X%&:*&.. $.X  :@. O.@$X% + O O..#@*.,&X$. .",
"% OX+%  @w,&*oOO ; :.*@,:#& O  X  X. $-o#@XO. X o +X $+  XX.OooO",
"X +; +XO&XXX*.$Oo&--@,$$$# *@7+XO*@# %X&-#,*:++ +&..#,.$X#$XO+$X",
" $  #$ %.  #@,@++ .#,#:24$+. :@..&&=OO=@# +&..X$+$@-$X+ ..%.  . ",
"&.o X + -* X#...X@,.$.+.@@*&XXOXX.O&-*X..- &.:*.X$X..#. #*=o.+O ",
"ooO+X=X&=O&& X=o%o+%=+ &OOo  %++oooO++++o=X+o;oo%+ O+Xo +&X&X%o+",
"5oO %%+%;;>O;+%o;>>;;;>oO+++%=X%o O ++o+%o;O;;;;;>>;+;>Oo%o%6;;>",
"#@,22,@@@#.#.#$#.-@@--@@#@@-@#.#@@@@@@,,2-#,,-@@,,2@--@@-#@@#@##",
"oX.++$O=XO &$$ *#*1-:@-1-@@@:@@@$-,@..XX*#X# .#X&@@.@#--@:*:*. +",
"*..X.*&*.,1:#X..####&.###*.. .*.$*1:@*&1.*&.@O+ OOO o%#X ... .#*",
"X  .. $,-@@-X.*@#  X. .-##$#@@@@@&#$9 %**#@,@##$X &X+ %. ..#..$.",
" &#.  == X#...  O#X+  O #@**##-@@14,@@## XX.X%OoX 0o>>ooOoO%+$ o",
".$.  #@@.X..@*@. @.-@@-:&OX$*@X.  .X$@@:X$@@@#&*#*....*&XX..$..$",
"= OO o =  $$ -@*  O9#  XO+ $ *..X o      X$  .. =  o % =X.$. $$."
};
