/* XPM */
static char *WOODMET4[] = {
/* columns rows colors chars-per-pixel */
"64 128 69 1 ",
"  c #473323",
". c #2B230F",
"X c #1B1B1B",
"o c #1F170B",
"O c #332B13",
"+ c #3F2B1B",
"@ c #6B0F0F",
"# c #771717",
"$ c #372313",
"% c #272727",
"& c #4F3B2B",
"* c #131313",
"= c #170F07",
"- c #7F0000",
"; c #232323",
": c #8B0000",
"> c #533F2F",
", c #9B0000",
"< c #533F1F",
"1 c #430000",
"2 c #530707",
"3 c #4F3B27",
"4 c #43331B",
"5 c #574333",
"6 c #2F1B0B",
"7 c #670B0B",
"8 c #5F4323",
"9 c #5B0000",
"0 c #4F3B23",
"q c #2F2F2F",
"w c #0B0B0B",
"e c black",
"r c #5F4B37",
"t c #4F0000",
"y c #730000",
"u c #432F1B",
"i c #5B472B",
"p c #731313",
"a c #4B371B",
"s c #670000",
"d c #A70000",
"f c #5B0707",
"g c #3F2F17",
"h c #831F1F",
"j c #7F1B1B",
"k c #67533F",
"l c #373737",
"z c #B30000",
"x c #13230B",
"c c #675333",
"v c #5F0707",
"b c #6B4727",
"n c #CB0000",
"m c #BF0000",
"M c #0B1707",
"N c #6F5743",
"B c #8B2323",
"V c #774F2B",
"C c #D70000",
"Z c #EF0000",
"A c #8F2B2B",
"S c #070707",
"D c #732B00",
"F c #0F1700",
"G c #470000",
"H c #E30000",
"J c gray23",
"K c #3F472B",
"L c #232B0F",
/* pixels */
"OO.oOXq%O%Xw=oXXoo*****.4OX*..%.=Oo=w*XX.OO..%xOo;X*=X%..OX**%OO",
"gOo.OXqOO..==;XX=XX*=o*XqOX*..%X=..o=*..;OO..O%%o.X*=.%%.OXXo.%;",
"gO..x..%%.Xo=o.X=.oX==*..%X*..%X=OXo=.XX%OO...O%;%X*=.%%%%Xoo.O;",
"X;...X%qX;;*=..;wXX*=oo;X;X*..%;w;.o=oX;X;q..OOl*;X*=.%lX;;*oOOl",
"=XXo%.ge=XX==..e=*oo=ooe=XXXOX.e=XXX*ooe=X%Xo%%e=X.**.%e=XXoo4Oe",
"X.;oO.OXX.X*w..*wo**woo*X.;oO.%*w..oX=.*X.OXXO.XX.XooX%XX.X*oO.X",
";qXoO.g%g%XowXXMoXoowX*X%OX.O...MOXoX=;.O%%X..O.O..ooX.O%.X=oOO.",
"%OX%OX%%gOXo=X.X.XX*o.oX%.X.OX.X4..Xo*X.OO.X.O%;.OXM=Xq%x%o*oO%x",
"OO..OXq%O%%*=oXXOo**XXX.4OXX.O%..Ooo**XX.OO..%xO.;X*=X%..OX**%OO",
"gOoOOXqOO.Ooo;XX.XX*oOX%qO%X.O%X...o=*O.;OO..O%%..X*o.%%.OX;o.%;",
"gOOOx..%%.%oo..X..oXo.XO.%%X.O%X.OX==o%X%OO...O%q%%XoO%%%%X4o.O;",
"X;OO.%%qX;q;.O.;XXX*.O.lX;%X.O%qX;.=oo%lX;q.oOOlX;%XoO%lX;q%.OOl",
"=X%.%Oge=X%..gOe=*o.oOOe=X%;O%.e=X%*X..e=X%X=%%e=XOXXO%e=X%OO4Oe",
"X.q.OgOXX.%XXOO*X.*%XOOXX.q.OO%XX.O.XoOXX.O%*O.XX.%..%%XX.%%4O.X",
";q%.OOg%g%%gX%%MO%44X%%%%O%OOO.OxO%oXoqOO%%X..O.O.O.O%.O%.%.OOO.",
"XoXXoXXX.oX.=XoXoXXXoooXXoXooXoXfoo*oXXoooo*=oX*ooXMoXXXMXoXooXx",
"ew=.=oooooo==..ooooooe=ooooooo=eew=.ooooo=o=oowwoooe=ooooooo.oee",
"e=.+oO.+..$o$$++..O.$2o...$..$.ee=.+.....o.oO.=o++$w=$$O.$..$oee",
"eo+r+<+& +&$ i<>> 0O =.& &   >>eeo+r$+  &$+&0 $$i<5=o>3&O  3r$ee",
"eo+r4< >;q&g <a>>0048=.& & &+>reeo+ru  j>6+500+u3<>=o>&36& &r$ee",
"eo+r >+i.+&$&<a<i<<+8=. 5 &  &keeo+r     6$h0a+u a>=.&33e03 k$ee",
"eo+5 0+>Oj&$&h45>aa+b=.+> &+  reeo+5+ a3 e$80+$ a<>=o&  e030r$ee",
"eo+>O3O O &+ 545r 0+b=.&&& ++ heeo+>  j3 e$ 0+$ 4<i=.&3 6 3>r$ee",
"eo+r 3O + >$u8 55<<Ob=. &&&++ 5eeo+r  O 3F$a#4@  a5=o&3&O +ir+ee",
"eo+5  +4 +<$ >4i>ja V2. u&&+g&>eeo75     a$ 0    4ro. 3 $ 38rXee",
"eo$5jg 4<9>. ia>0a8 c=.3&@&+g&#1e2 5++  +<# 3> 3 <ro.43 6& 8r*ee",
"eo&5 .&&#=>$ >0<#08@c=.j  &@ >@1e2+5 @3 @<ua 0&03O5=o+  6@>05eee",
"eo+5+.<i&=<.O>#><8b&c..a :&++>+eee+# 3@ 38 &4j>aaOh=oX  $&>>5ree",
"eo$>gg 8<9<.$#0> 8c&co$ &+&++5$eee$k 3+# 83&+&i 3+h=oXi u00&53ee",
"eo+5 +&< @<7+i<<<#B&bo.+#+j4+r+eee+5 33 38 &o3#+3or=$+&au5305uee",
"eo+5 # &<+ $+< <>883Vo.$#& + r$eee+#  #  8 :f50$ .r=74 #a533r+ee",
"eo+5&$ 5 $ $+>00#8838o75## j+r$1ee@5 3 3j8 3783>3oro$ &+ & 3r$ee",
"eou> $ 5 $ $$5 >><#0>2.38< + r-eee@j #-@ 830-3a+ =5=7+     &r$ee",
"eou5 + & + $f> #><i3:oO##h@- h71ee+k@@  #8>3u a 07h2$@   p3>r$ee",
"eo+r@33 #@ $+<3>>9>& f.,,i&--k$1ee+r@33 #b3&7#   .pd33 #u @8k$ee",
"eo@r #  +i3.-#<c>8>i3.-#<B:@ h-eee@r #  +b i-#g@+O:::  +u33&r7ee",
"e.@>-@@-&# f7 <c#8#8 f7 hcc-@k$1ee@>-@@-&8@i+  @$O>,@@-&$ @8k$ee",
"e.+#-+:@&# 2.+>#i88# 2.#>#c-@A@1ee+#-+:@&# < # @o@#,+:@&6#+3A+ee",
"e.@>$ - @ @2f3>,><i @2f3>,##gr@eee@>$ - @8#55< 3o->@ - @## 3r+ee",
"eo-:2- - -#2. :u#8i-#2. :ui:g:-see-:2- -  0-i8@ $a::- - a@@>r$ee",
"eo-h2-@&-<:y@ :-i0i<:y@ :-,h:h+1ee-h2-@&-0+>>- @+ah:-@&-p3@@r+ee",
"eo+,$--& &&yO @@>#i&&yO @@@h:B:1ee+,$--& #+<-8  @p,$--& @033r+ee",
"e.:#@@@ -#&6-#d&##<#&6-#:&d,d,-1ee:#@@@ -#--i0+ $<#@@@ -@#3#r+ee",
"e.-p-- B@##2@##:>8###2@##:j-,#7seey--- @@# @  -@$8p-- @@@@3#c$ee",
"e.->$@-@@&@2@#<:d80&@2@,,:djdh,fee:@d@,:d#@-+@+ O#>$@-@@-#ppN$ee",
"e.f5-@&@@,22f#dd88@@-2f#-::@ddd-ee::d:,@:B3 $++@$#5-@&@@B>,>A$ee",
"e.:#: dp,h 2#@-&##+3 27:,,zddzdyee-z:,d,#j#@7@+@s>#: --##>,D,$ee",
"e.:5-@-@#pppj3+#i#+#@6:p:-,,zn,-ee-zd,m,::j#O+-y1#5-@-@#p,,#,$ee",
"@@@@#::,ddd:::dnZnzd,zzznnnCzCZHZZCnnzznz,,:-,,,,z,,::--:::::,z,",
"2222@y:dz,#72*y:z:ysssy--:,dzzzzmd,,d,-,,,7%yy:,,-v2yo%%2fXXy-,#",
"21*X2y:,Cm#7XXfy,ys-21yf:-,,d,zzm-:-,y-,z,@%yy-:,v%1yo#:9X*o1-,z",
";2X@X.:zhz#7OXf9:-2211tyv-:,d,,,my:-:.-zh,X#.yyl:vq*t2#ltX1wo-zl",
"1-X7o#:,t,-7OXo9y21191yfv@-:,-::my:-m%7,t:@X#s%e:vX*to%e9Xw=X7,e",
"*GXXX7-,2,-7%@o1y11s1s9v-:-@,-d#zy:-,7#,2:f279#2:fX2:X#29fww1#,2",
"*yX#.O-y7,-7%XX1y2111t1y@#sy,y,#zy7y-O#,7#.2OX.7,#X9OX.71.S=o#,7",
"*2@;X2yy*,@oOXo12221119@f2s:,y:7dy@ysO2,*,s6.t%X:#XM.2q21Xwwo2,*",
"*2XX2XXy*:-*@.212X111*tf7-9-,y@@,y,9fO2:*:2f.1xf,;X1fX%21.Swo2:*",
"*sX;X..@*@-oOXX*sX*1toty729y:2#::y79,O2@*@2f.v%2d#X*#ot21.wwo2@*",
"@,o.Xo.zd7-oO.o@,o11t.9:yXX7-2#:z,79vO.7d-2f.1O:z#s1.1t21Xw=o.7@",
"q@*;X7.,q7@XO.oq@**1t.9+:2@X72#7#:-9@O.7q,2fovOqs;21t1%l*Xwwo.7q",
"ew*.oo.:e7@oO7oew*o1t.1=:2X.227ttv:X9O.7e:2=oo%e:X2*11tewXw=o.7e",
"X*o2XX.,X6f*%.oX*o11t.9X@.X24.#6@77ov6.6X,6=*1.X:.2=119X*.*1=.6X",
"v:X..XX,.6yo%X@x:X111X9,#@661.:62@@o66X6.y=1=tOt-.21s1s9*.*==X6.",
",d,XXo.,.6foOt:@oX919.1%%6@61X7$4:7*6$X6.9161ottyO91tt-s1#owoX6.",
"sssXXX@@.Xf*O.tX#.*1*@1O462$6f@O.:oo6$2X.-.1=*xO7;911tys1O*w*;OO",
"X#XXX..:X.6oOXXX.@*wo.1;q@6;..@2.7f26;..9:oo=o;;-.X19ts9oO*w..;;",
"O7O.xO.@@@XoO.oX.oo1=.9:.;6;..@d-@Xo6OX9@yo==1O:d;Xw919;*;*1o.O;",
"X7O..;;:XX;XO.oqX@*1=.1lX;=*.O;q::.o6.XXXy;=o=Ol:;X*.1;l*;*woOOl",
"o7;.;O+:=eX.O.oe=Xo==.9e=*=X1;.e:@X*XO.e=y**ow;evX.*X-;ew@*1O4Oe",
"X.q.O+O7XXXX;.oXX@*11OoXX.*woO;X:7.oX..XXso**=.X@.Xo.tp@t,114O.X",
";;;.OO+;..2.;XX9669t1t1;;Owo.O.Of@XoX.X..sowo=O.7....t#-9z1=#OO.",
";.;X#p;@..XOOttf9s91tt9;;.*o.;.;#7.*.@X7.so*==;;7OXM#1jp9m91OO;x",
"OOO.,#q%.%X%ttt99s91t%tO4OXX.O#O7@o2%t;X.@oo.wxO.;X%.X--9,9w%%OO",
"gO..##qO..OOOtts9991oO%%qO%X.O%%77.ttsss@@9o1=X%..X%.o#-1-2;4.%;",
"gOO.xO.%%.%OO66s9691o.%O.%%%.O%,-@Xttysy,@o1O.o%q%X%.o-%1-1$O.O;",
"X;O..%%qX;qqO666969XoOOlX;%%.O%q:@.2s-ysyss91@OlX;X%.o-lX-X%OOOl",
"=X%.%Oge=X%OO66ey99ooOOe=X%qO%.e:@tts--stss29jje=XO%#O%e=-XOO4Oe",
"X.q.OgOXX.%%%66X:69X*OOXX.qOOO%X@7t7--:-yss22@.XX.%,z#-XXs%%4O.X",
";q%.OOg%g%%g%%6x@69o*%%%%O%OOO.Ox@j7y--:-ys297O.O.Oj#%-O%s%.OOO.",
"XoXXoXXX.oX.oXoX7XXXoooXXoXooXoX.ooXoXXotttXooX*ooXMoXXXMXoXooXM",
"ewo.oo=o.=.e=o=o7fooooooooooo.=eewo.oofttttttfoooo=eew.ooooo.=ee",
"e=. +O.O$o+oo.OO77$..+..+.$...+oee$@7@.:::@@@77.7O+==o+$O..$+oee",
"eouk<&&5i+5o$+ ap#   i+ 8    +k$eerhp pp,,php :p 3&r6k5 < + k$ee",
"eo$N> +>i &o. <# :<  i$<<& 8<+k$ee>rp $&p,#&p @ p0 565+ <  &k$ee",
"eo6N& +55 io7p&#<p<448O <&    5+ee3N  6:p, p #6 u0 h$5pa< + 5+ee",
"eo5N&  &80#o@9#>p >@ a6&<&  < r$eeuN #5u,,a++&h3p0p4$72 4 +3r$ee",
"eouk<  580&o9tt#+ >44a= <<  & c+ee$kp33u,zp p& 32s04u+p 4u+0c+ee",
"eouk< 50 0#os-9<@ h  a= a<+   k$ee6k  pupdp  >3#92#4u+:+4++3k$ee",
"e.$k> 503& t7:6#4 <  4 <a +<l k+ee6k u +h,@ J#08dm+p + u4.  k+ee",
"eo6k &> <>3t@-6<$  &&aO  &+ + k+eeXkp+&+jj$ l i&p:+4 +p 4=  k+ee",
"e.5r8 >+r< tO79 @l@  a$4+<4   N$ee$r 383jj.  ui0p,44  @ g=  N$ee",
"e.+ki+<$>8 o.26 O+5@  6  < + aN$ee$k  03hi.+ +80p, 4  O $$  N$ee",
"e.$N8<io+8 o.2$&++<&& 6& <+$  r$ee$N  0+r,+++ui8 , + ++ ++  r+ee",
"e.$N&8c= 8&o.+ &+l&&& $ a<+>& r$ee$N  a+ih+++u>< h3++++ ++ 3r$ee",
"eo$Ni&io  5o+& &+&5@  +&a5+ & r$ee$N &++ir++ +>i3:3+ ++++$ +r$ee",
"eo$N>&5$ <&oO& +O >55g+&+> &  c$ee$N &+ <h$+4+>b0da4++O++$ +>$ee",
"eo$ki 8+ <&6+8 & &&55 g& 8+<  r$ee$k &o40h$$++bV0pu4 uO++O+ >uee",
"eo$ri 8$ <0o+5  $<>88 + + + < k$ee$r >o >j$$++iV08u++uO++u+ >>ee",
"eo$N5 >$ <ao+&  + <&&++  <  & r$ee$N &$g58$$$@8b8i$+u +p$+  >ree",
"eo$Ni  $4  o.&& +<&>>+ < 8  &+r$eeuN  + 5iX$o+>8806+++ p++  &kee",
"eo$ki  +48 o$  $O0<  <>448  & c$eeuk  ++&i*$o >05 5+aO72v +  ree",
"eo$k< < O5 6g $6$8>>><3  <  & r$ee$k& $ ai*@$ 0h5 04&@92yp+  ree",
"eo$r g& O<36++6e68555>+  <+4  r$ee6r<+$aa5*$+&&0 304 +-:$    5ee",
"eo$r<  &+8u6+ 6e6 588<+   ++ +r+ee5r 3+ u>Xu+ 3 u3>4  +:  + &>ee",
"eo$r& 4  i&6+ $6$ 8<< >  < +< r+ee$r    u0$+$  <O   + $: &  &&ee",
"eo r&  < < 6+ u6u+i55&& &8 $> k$ee$r 3  3i$+$ a<+  4+ =,+ ++> ee",
"eo+r<<   5u6+  6++a   4 &i wi k+eeur+   50+ ++p#O3 4 O=7+3 +>+ee",
"e*$r55&& iu6+  $   &&&&  < w&<k+eeurg+  u0+a + #@>+  u$:+3 +5$ee",
"eo$r  < 5>u6+  $ + 44  &   $< k+ee$r++3  au0u+ah+&O4 O+$  g+r+ee",
"e*$>& &<&&u6+ >&O    + < <&+& k+ee$r++  0&uauO38+ +4 ++0 4  k+ee",
"eou>> & +8+6+   +     4&<<l+  r$ee+r  + 5&$+u 30+ +4&O$$ +  r$ee",
"eo>>>& & 8 6+& 5O&<OOu &<<&$& r+ee$5 +++& 6 u3 0+ +4 +$a $  r+ee",
"444+4qKq4qqoo+qq4+;Xooq444oo+4q4+4+.qqqq+4444qL4+qqq.qq++4qqqq4O",
"gOo.O%qOO..o=q%%.XX*ooX%qOX*.O%%.o.==X.O;OO..O%%..X*o.%%.O%;..%;",
"gO..x..%%.Xo=..%o.oX=oX..%X*..%Xo.X==oX%%OO...O%;%X*o.%%%%X=..O;",
"X;...X%qX;;*=..;*XX*=o.;X;X*..%;*X.===XlX;q..OOl*;X*=.%lX;;w.OOl",
"=XXo%.ge=XX==..e=*oo=o.e=XXXOX.e=*X**ooe=X%Xo%%e=X.**.%e=XX=.4Oe",
"X.;oO.OXX.Xww..*wo**wo.*X.;oO.%**o.=*=.*X.OXXO.X*.XooX%XX.Xw.O.X",
";qXoO.g%g%X=wXXMoXoow*XX%OXoO...M.X=*=;.O%%X..O....ooX.O%.X=.OO.",
"%OXXOX%%gOX==X.XoXX*=o.X%.XoOX.X.o.*=*X.OO.X.O%;oOXM=Xq%x%ow.O%x",
"OO.oOXq%O%Xw=oXXoo****X.4OX*..%.o.o=**XX.OO..%xOo;X*=X%..OXwX%OO",
"gOo.OXqOO..=o;XX=XX*=oXXqOX*..%Xoo.==*..;OO..O%%o.X*=.%%.OX*..%;",
"gO..x..%%.X=oo.X=.oX==X..%X*..%Xo.X==oXX%OO...O%;%X*=.%%%%X=..O;",
"X;...X%qX;;wo..;wXX*o=.;X;X*..%;w;.===X;X;q..OOl*;X*=.%lX;;w.OOl",
"=XXo%.ge=XX==..e=*oo==.e=XXXOX.e=XX*wooe=X%Xo%%e=X.**.%e=XX=.4Oe",
"X.;oO.OXX.**w..*wo***=.*X.;oO.%*w..=w=.*X.OXXO.X*.XooX%XX.Xw.O.X",
";qXoO.g%g%X=wXXMoXoowwXX%OXoO...MOX=w=;.O%%X..O....ooX.O%.X=oOO.",
"%OXXOX%%gOX==X.XoXX*=ooX%.XoOX.Xo..*=*X.OO.X.O%;oOXM=Xq%x%o*oO%x"
};
