/* XPM */
static char *WOOD7[] = {
/* columns rows colors chars-per-pixel */
"64 128 43 1 ",
"  c #473323",
". c #3F2B1B",
"X c #4F3B2B",
"o c #372313",
"O c #533F2F",
"+ c #574333",
"@ c #533F1F",
"# c #4F3B27",
"$ c #432F1B",
"% c #4F3B23",
"& c #43331B",
"* c #5F4323",
"= c #1F170B",
"- c #5F4B37",
"; c #2F1B0B",
": c #2B230F",
"> c #170F07",
", c #332B13",
"< c #5B472B",
"1 c #4B371B",
"2 c black",
"3 c #67533F",
"4 c #3F2F17",
"5 c #0B0B0B",
"6 c #675333",
"7 c #6B4727",
"8 c #6F5743",
"9 c #131313",
"0 c #774F2B",
"q c #373737",
"w c #1B1B1B",
"e c #0F1700",
"r c #070707",
"t c #7F532F",
"y c #232323",
"u c #272727",
"i c #2F2F2F",
"p c #775F3F",
"a c #875733",
"s c #7B634F",
"d c #775F4B",
"f c gray23",
"g c #2F371F",
/* pixels */
"2=.8,@  ,O XX@ 1&OX &,   .,  -o22=.8  X  XXX49., X%=4.%;2;O -o22",
"2=.3.<#  .  X O @*&.,9,  .,  +o22=.3 1%X,X  49.. X%=u %o2o# +o22",
"2=.3.X@O . X  1O @ %o9o  4,X +o22=.3 XO$;$ $19..#<+=.X%$2$.o+o22",
"2=.-.+ $$;$  &%O  &O;2; $.&  -o22=.-1O%;2; $.9,  .O=4@ ;9o# -o22",
"2=.3 + o;2; .&1@@O ,;2;,$.& $+o22=.3$OXuqy . :,,  O>4Oo99o# +o22",
"2=o3 +.;uqy  @ O O@,2q2%. . $+o22=$3 X+eye . :,, .+>4O2i2$# +o22",
"2=$3.@.;eye X4 O&O $eye$O .. 3o22=$3 .+2e2+, .o,.&+54O2e2$#O3o22",
"2=$3.&.%2e2+X&&O O@-2e2++ o. -o22=o3 ..&9&.. $o$..Or4+=2=+ X-o22",
"2=o8   #&9&. 1&% @O8;226+ >. -.22=;8 #.o=o..$.o$ .O>&O+=O1 #-.22",
"2=;3.O $o=o. && #%#+->><X >. -o22=+3 # .=. .$.$o,.+= XO; . $#o22",
"2=+-: . .=. .%4O  @XX>>$..o, +o22=.-.X##. .1%  o,%+= XO; . o$o22",
"2:.-:X. #. . O O# @# >>o1o..$-.22:.-.  %   #% $;o*+=OXXo#  +o.22",
"2:.+o@ O%  o&O<O%%%  >>  @.. -o22:.+:    $.%1..2;X+=OX<o# <%so22",
"2=.-,O -  Xo  @@O%1. >;  +o& -.22=.-: .# .,O1oo2; +=+X<$  <$3o22",
"2=.-,& +# X,+# @%@1 @=:  +o .-o22=.-. o  .. %$o;o +=OO#% XX$-o22",
"2:.-,& +  XoX@*@111 O>:  +. .-o22:.-. O  o 4# o;$.+>$X $   X-o22",
"2=o-, .X  Xo **O&@1 X>:      Oo22=o-$    o$1% =;#@O>oXX% O X-.22",
"2=.-,@.+  XoXO*+4 % X=:   X $O$22= -.   .:  % =o**O>;XX%.X  Oo22",
"2=.-.@.X .Xo <@OO %, >:X X   OO22=.-o.  Xo.X% oo<@+>=O#X,  #-o22",
"2=.-&@ OyiX4 @1OO%%&*>:X X X.O-22=.-$   O;.+%%.$#@O>=OX#;X X-o22",
"2=.- O.<:.XoX@1@<@@.*>: + X  X322=.-     ;o<%1.$ 1O>:X##2%# 3o22",
"2=.+ %.O, XoXO&+O11.7>:.O X.  -22=.+. 1# 2o*%.o 1@O>=X  2%#%-o22",
"2=.O,#, , X. +&+- %.7>:XXX .. -22=.O   # 2o %.o &@<>:X# ; #O-o22",
"2=.- #, . Oo$* ++@@,7>: XXX.. +22=.-  , #eo1O&$  1+>=X#X, .<-.22",
"2=.+  .& .@o O&<O11 0>: $XX.4XO22=o+     1o %    &-=: # o #*-w22",
"2=o+ 4 &@oO: <1O%1* 6>:#X X.4XX22= +..  .@$ #O # @-=:&# ;X *-922",
"2=X+ :XX+>Oo O%@&%*16>:%  X. O 22=.+  # .@$1 %X%#,+>=.  ; O%+222",
"2=.+.:@<X>@:,O@O@*7X6::1 &X..O.22=.+ #. #* X&1O11,->=w  oXOO+-22",
"2=oO44 *@o@:o<%O *6X6=o X.X..+o22=o3 #.# *#X.X< #.->=w< $%%X+#22",
"2=.+ .X@ .@o.<@@@*7X7=:.X. &.-.22=.+ ## #* X=#%.#=->o.X1$+#%+$22",
"2=.+ $ X@. o.@ @O**#0=:o<X . -o22=.+  #  * #:+%o :->o& .1+##-.22",
"2=.+Xo + o o.O%%O**#*=,+*X  .-o22=.+ # # * #o*#O#=-=o X. X #-o22",
"2=$O o + o oo+ OO@*%O=:#*@ . -o22=.8 X   *#%.#1. >+>o.     X-o22",
"2=$+ . X . o:O +O@<##=,O<<   -o22=.3    #*O#$ 1 %:+>o.    #O-o22",
"2=o-O  X.  o.@#OO*OX ::O<<X. 3o22=.-&## #7#XoX   :+;o  %$  *3o22",
"2=;-XXX@.  o.%#-O*O<#:,O@6<. -o22=.- #  .7 <oX4 .,+;o%# $##X-o22",
"2:+O++XXXX o.OO++@*< :, @66 .3o22:.O ..4X* <.   o,-oo%#.o  *3o22",
"2:.+X+ +   o.O O<**@ =:.O<6 .3.22:.+..4 X* @ # .=4+.o@# ;#.#3.22",
"2:.OX+O   .o.O OO@<  =:#O%<*4-.22:.Oo    *% o& #=1-.oX% +# #-.22",
"2=.+X++X  $o.@ @O*< X=: O$<*4-o22=.+=     %;2o  o1-ooX<#1  O-o22",
"2=.-@ + @$$o.< O<%<@+=. O X<1-.22=.-=, X.%.;2; $.1-;oX %%#  -.22",
"2=.+@ X.@$$o.-@OO%<XX=,    <1-.22=.+o. X %.$o$  .@+;o% # %##-.22",
"2:.+ <  &o$o -+OO*@%X;.#@X.@X-.22:$+..   O&OoO. o@+;o%X#&X#*-.22",
"2:.- *   ; o -<<O*@X%=.%@X 1 +o22:$-..  $%    , o*O>o # $ ##6o22",
"2:.O  <  +X;.<<-<*%X1=.%@X  1+o22:oOo.   %  ... ,<O>o.O@4O#O8o22",
"2:o+ %* .O$;.<O<**1  =:#1X  1#o22:;+o.X. *# o.. o*O>o+%O*O#O8o22",
"2:.+ %XX.X#;.<#OO<.# =o1 XX.1#o22:++.  .###.,...2OO>oO%@*O <6o22",
"2:o+X XX X ;4*O+<@.# ;4#.%X.$#o22:#+o .$%*1.,.,.2<X>oXO**  *-o22",
"2ooO@.@+ X ;o<O++@41#;.#o X..$o22ooO=...%*$..$,.;7O>oX@@*  %Oo22",
"2:oOOoX-X  ;o<O < 1$$;.$X X..oo22:oO> .$%*$ .$,.,7X>:+  *@1#Oo22",
"2oo++> O+ 1=.0  O&% X;.$X. ..+o22oo+o .$*<o o . ot%>w< @*O.O+o22",
"2:oO+> @X %=.6O%@    ;..Xo  .3o22:oO.. ,*%; =.  ;a%>w<O@6O. +o22",
"2=.O-oX@  X;.6+OO@41$;. += & +o22=.O.$ .+ + =,& ;t#>:+%@pO %+$22",
"2=.O-.X @$X=.6-O+%1$$;.#+=X& +o22=.Oo$X + % ..& o0 >o%%*t@ %+-22",
"2=oO+. @ #+=.6-OO@  $;. +o&..8o22=oOo  . #%*..  $7 >o *@t* %+%22",
"2=oO+o<@ #Xw,6-O+@* $;.%+... 3o22=oO.   $#O;; . $7 >: **0* #+$22",
"2=.O+o<+X  =,0 @OO1$.;.XO$ .$+o22=.O   #, ;r=-o :@ >:&<%t@  +$22",
"2=.OO.+@   =.7X.X1#. ;.XX. . -.22=.O $ #.;ro- 2= @O>. @17% O-o22",
"2=o-.   &4 =.7X +  , ;.#XoXX.-o22=o-.$#$;ro8$22: + ;. @%7%%X-;22",
"2=o-.+@+ .#=.* X%.   ;o X$  o3.22=o-  #;ro8%55=+ &5;. @%*%<X3522",
"2:o-.+,@O: =.*   .   ;:#  X&o-.22:o- $;r:+,52=3%.>>;.$@@<@%%-w22",
"2:o-&+o@+:X=&*X  .   ;=%     -.22:o-.;5o  55:3..5==;.&@1<@%*-o22",
"2:o- < @+.X=&*X .,.% ;:  X*X;-.22:o-;5:+.55:+,o5>= ;.&*%<@X#-o22",
"2:o+ @&&+4%=4*X&o,,  =,. X  ;3.22:o;5:X.>2:+.&2>53+;o$*%<@X 3o22",
"2:.+XX@*O.<=,*X,>,,  ;.OXX $,+o22:;5: .=5o o.55 3@3; .@@*1 X+o22",
"2:.+XX@<Oo >:% .>,  @;. @X &;+o22;2+  o5:X  2>&+.13; o1@71  +o22",
"2:o-.* <-. >:%  o,X&@=o@   &26o222;- $2o  &52%O .@+; = O71 %6o22",
"2:o- * <-$ >;%  . .X@=,%& .&26o222;- 2r+ &5> $.$. %;&o @74 X6o22",
"2:o3 * O3 @=:% X.X  O= % . $;-.22;o32 o  5>+= #., +;..&O7:# -.22",
"2:o- @&X- O>:*4 o . O=  X ..,O222:o54+:&5>+X= #.;$%;&4&@*:O -.22",
"2:o+ <.**%X>:< XoXX @; .X  .o2o2222+ X,5>+. o 1%2. ;&4&@*4 %-o22",
"2:o- <  O#X=:*X+.. .O=&o  X&2Oo2222- X2>+.$ o##*2+ ;..1 *&  -o22",
"2:o+++X.O  >:* O   ,-= > & 2;Oo2223+ 52X... o X ;+%o..  @1# -o22",
"2:o+X X,O$ >:< X@&&.*= >  5 oOo22.O+5>. .=  o O ,%%o&&& @4##-o22",
"2=o- XX.+o >:6.X@&..X;.o > .$O=22=o22XoO$= .o   oX o. &O@4 *-o22",
"2=o- @X.O;@>:< X< & X& .= X.$oo2222.31$% oX.$ # ;% $& 1O@& <-o22",
"2=o+O 4,X=X>:<  0@ &@. =. X.:Oo22222o$$X.. . %  ;O $. 1 @$ O-o22",
"2=o-X@..OoX>:< Xp+ &@.=o  +:X-o22222o 1% .   @ .o% ..$% @.XX-o22",
"2=o3OO.&+ <>:<&@0X .X= o  o  Oo222&oo  % o1 % #,$% .;o*$@ X%Oo22",
"2=o3OO,.<.+>:< <0+X.=. .@:X..+>22&d$o  X .  %11,$1.>2;*$@ X#+o22",
"2=.3XO,O-o->: o@<XX. .X1:X . :=22O3#o  X@$ +XX#.11.>2;+O@  .+o22",
"2=$8+@.@Oo+:: @@. X *. .XX  = o22$3#o#$ @ XOX $  %+=;o-O@  #+o22",
"2=$3@XX+<.+=o. 1 X  <.:<   =&3o22o-#o $ @<++  $  #X-;3+ @ . 3o22",
"2=o8O .O< X=: @O  @ <=+@X :+.3o22oO-  oX*<OX  o  % +;+. @  X3o22",
"2=;8X .++ <=: XO@ @&*  @X:X  +.22=#8  ;&*-   #; $% +o+ 1@ . +.22",
"2=+8X  X*%%=, XO  O 1;X@oX @ -o22=$8 X+$0-1..X+#$% &o . & .#-o22",
"2=$3@  +*%X=: $@. O&1> @@  X 6.22=o3 ##$0-   X #o%%&$.$ &$.%6.22",
"2=$3@ +% %X=,X$@. * 1> 1@.   3o22=;3   $7-   O##;%1&$...&..#3o22",
"2:o3O +%#X :: oX& @ & @1 .@q 3.22:;3 $ .*<. fX%*+%.& . $&:  3.22",
"2=;3 XO @O#:,O;@o  X1,  X. . 3.22=w3 .X.<<o q <Xoo.&:.  &>  3.22",
"2:+-* O.-@ :,O+ ,q  1o&.@&   8o22:o- #*#<<;  $<;2;&.2 . 4>  8o22",
"2:.3<.@oO* =:X  ,.+  ;: @ . 18o22:o3  %#*<;. .;2;%.2:+, oo  8o22",
"2:o8*@<=.* =:X X..@X ;o=o.o  -o22:o8  %.-<5..;>o .2:+.. ..  -.22",
"2:o8X*6> *X=:X X.qXX o :2:OX -o22:o8  1.<-5;;5o@o2o3... .. #-o22",
"2=o8<X<=  +=.X X.X+  .X1 2:X -o22=o8 X..<-225&O.2o3. =:..o .-o22",
"2=o8OX+o @X=,X ., O+4>o.O&2: 6o22=o8 X. @-55&..2 <1&=2>..o .Oo22",
"2=o3< *. @X;.* X XX+ =5o*..5:-o22=o3 X=&%;2..&2@+*$=2>+..,. O$22",
"2=o-< *o @%=.+  o@O* Xo5o. .5 o22=o- O= o>.o 2 0%*=2o+,..$. OO22",
"2=o8+ Oo @1=.X  . oX..+o5o X.>=22=o8 Xo:: o 2 <7*.2o+ . o.  O-22",
"2=o8<  o&  =:XX .@oo. @+.5oX.-522=$8  :=.<i2= O*.22X..  ..  X322",
"2=o3<  .&* =o  o,%@>oO&&<o5o 6 22=$3  =:X<2o. Oo2o+.1,& . .  -22",
"2=o3@ @ ,+ ;4 o;o*O+>o  @+o5o-o22>o3X=o 19. o o2&X%&X.& o .  -22",
"2=o- 4X ,@#;..;2;*+++>: @.+o5.o222>-=.o19.go.X5.X#%& .  o    +22",
"2=o-@  X.*$;. ;2; +*@ >: ..+o>>222== #..$+w$.5.X$#O&  .   . XO22",
"2=o-X &  <X;. o;o *@ OX>o .@+=5222>=: . #%o.2XX@,   . o  X  XX22",
"2= -X  @ @ ;. $;$.<+XX +==oO 3522222>o X#<o=oX1@.  &. > . ..O 22",
"2=.-@@   +$;.  ;..1  & X<=2< 3.222$<&>  +%= .. %,# & ,>1.# .O.22",
"29o-++XX <$;.  o   XXX  @X2=@3.222:&&&> $=.1 . %.O.  $o1.# .+o22",
"2=o-  @ +O$;.  o . &  X    ==3.2222...#=:1$%$.1*.X,& ,.%  4.-.22",
"29oOX X@XX$;. OX,   . @ @X.+=:.2295>:.  =X$1$,#*. .& ..% &  3.22",
"2=$OO X .*.;.   .    &X@@q. X:>22=225:. +=o.$ #%. .&X,o1 .  -o22",
"2=OOOX X * ;.X +,X@,$ X@@XoX -222=2+O5..X 5 $# %. .& .o1 o  -.22",
"2=-O    .@ ;.+ -.   $ q $XoX.- 22=.+.O>.. +>   *.X o,&,.$:  -.22",
"2=3XXX@%$  ;o@ +& X oX O* . ,-o22>o-.&:5$O%,:. %.+O>:&$. .  -o22",
"2=- X@@&   ;:+ @&,- ;  1X   ;6.225o-.. >>*%,   %. O::&$. .$ 6o22",
"2=- OX &   ;=X  X +X+ . O   2-.2222+...=::1: . #. O::1&.#$# -X22",
"2=+ XX@$ @ ;:+@X  @   X  X& 2-.22=2:.4 o..=,   1. O::4&.@.X.-.22",
"2=OX$O =$- =,X X.X $$ X  X  ;-o22=o-=44. *o> ..X. O>:&&.1$X.-o22",
"2=XX$OX= 6 ;.. @;X &o   .   ;-.22=o- = . *X =o 1. O>:4.. $ .-.22",
"2= Oo* o -@;. X@,+ &oX  o   o6o22=o- .=o4OX  o 1. O::4..    6o22",
"2=.O;* . +@=o X+,  &oX *O $.;3o22=o- ..>.OO%.o#1&4 >:...  @ 3o22",
"2=o++*@.X*@=,  X, X $X&@X &q;3o22=o3 ...=OX#.o #. X>:..#o## 3o22",
"2=.- <Oo. O= . X. + $     & o-.22=o-... .%.#,;$#.XO>:,.#o#% -.22",
"2=o-$*Xo XO=    &@1 . X1    $3.22=o-... .##%.; 1.XO>:.%#;X# 3.22",
"2=o-@@*. +@; q X. @@,. @XX. $3.22=o-   , #1X,; 1.X >:$. ;1# 3.22",
"2=o3 X*$.+O=&  ..@  ,.@+  .X1-o22=o3   , ##X,w 1.XX::$1$2$1 -o22",
"2=o3XO*    X . .. .*4.@  X X -o22=o3     ## ,9  &XO:>  o2o  -o22",
"2==3 X .  OXX.... & &,@  X.X -o22==3   .4X#O,9 $.X :>  ;2; .-o22"
};
