/* XPM */
static char *WOOD5[] = {
/* columns rows colors chars-per-pixel */
"128 64 130 2 ",
"   c #0D0B09",
".  c #110D09",
"X  c #14120D",
"o  c #1D160B",
"O  c #1E1A0F",
"+  c gray8",
"@  c #191612",
"#  c #1E1A13",
"$  c gray10",
"%  c #241C0D",
"&  c #2A1F0F",
"*  c #221D12",
"=  c #281E10",
"-  c #221F19",
";  c #1D201B",
":  c #27250F",
">  c #2A220F",
",  c #262314",
"<  c #2D2513",
"1  c #2D2817",
"2  c #25231B",
"3  c #2A261B",
"4  c #26291B",
"5  c #2D2A1D",
"6  c #312613",
"7  c #332A13",
"8  c #3B2E16",
"9  c #31271A",
"0  c #322B1A",
"q  c #3A2E1B",
"w  c #2D331B",
"e  c #3F3017",
"r  c #35341D",
"t  c #3D311C",
"y  c #252525",
"u  c #282621",
"i  c #252923",
"p  c #2C2A23",
"a  c #2A2A2A",
"s  c #332D22",
"d  c #3B2F20",
"f  c #312E29",
"g  c #2F3327",
"h  c #2F312B",
"j  c #323224",
"k  c #3C3123",
"l  c #34332B",
"z  c #3D352A",
"x  c #3C3A2D",
"c  c #323231",
"v  c #3A3531",
"b  c #403017",
"n  c #44331B",
"m  c #49371C",
"M  c #47391F",
"N  c #4D3A1E",
"B  c #533C1E",
"V  c #443523",
"C  c #493721",
"Z  c #463924",
"A  c #4D3A23",
"S  c #44372A",
"D  c #44392C",
"F  c #4D3D2A",
"G  c #523E24",
"H  c #5A3F22",
"J  c #523E2A",
"K  c #443B31",
"L  c #4C3E32",
"P  c #4F4027",
"I  c #4E412D",
"U  c #564226",
"Y  c #5B4325",
"T  c #55422B",
"R  c #5B452B",
"E  c #5D492D",
"W  c #444136",
"Q  c #4D4033",
"!  c #4D443B",
"~  c #554332",
"^  c #5A4632",
"/  c #574835",
"(  c #5D4933",
")  c #55473A",
"_  c #52483F",
"`  c #5C4B3A",
"'  c #634526",
"]  c #694727",
"[  c #694827",
"{  c #62462A",
"}  c #64492C",
"|  c #6B4B2C",
" . c #714D2B",
".. c #794F2D",
"X. c #6F512F",
"o. c #70502F",
"O. c #7A502C",
"+. c #634C33",
"@. c #6B4E32",
"#. c #624D39",
"$. c #694F39",
"%. c #734F31",
"&. c #675136",
"*. c #6B5135",
"=. c #66513B",
"-. c #6B533B",
";. c #6E583D",
":. c #725234",
">. c #7B5434",
",. c #72553C",
"<. c #795738",
"1. c #745B3D",
"2. c #7C5A3B",
"3. c #7E603F",
"4. c #4A4541",
"5. c #6B5541",
"6. c #6F5843",
"7. c #745A43",
"8. c #7B5D43",
"9. c #755D49",
"0. c #776046",
"q. c #7B6346",
"w. c #776049",
"e. c #7D6550",
"r. c #815737",
"t. c #855D3B",
"y. c #85613F",
"u. c #9B643C",
"i. c #815D41",
"p. c #83664A",
/* pixels */
"< p 7 6 5 g 1 5 0 y 1 a s p 0 a < p < > u 1 1 7 t 4 , a 1 4 < a 5 1 s p 1 p 6 < 3 9 < 1 y 5 p a < p 7 7 < 5 7 < 5 f < 5 0 y r y 6 p < > p 3 1 7 t 4 < y 1 i < p 5 3 0 p 5 u 6 < u 7 6 5 y 5 u a < p 7 6 5 p 7 5 0 y 1 a j p 0 a < p > < 3 5 < 7 t 2 , i < u p a ",
"6 p 3 7 , p 2 p < s , p 6 s 2 a > a 3 7 < a 2 0 6 p y y < a y f 7 5 y p < a 1 p < a 2 5 1 s y y 6 p 3 6 < j 1 7 , p 2 p 6 f 2 y 6 a , 9 < a 2 0 6 p i y < a y f 7 p y s < y 3 5 < a 2 5 1 s u a < p 1 6 , a 2 p < s , p 6 s 2 p < a 2 7 6 a u 5 7 p i a < a y y ",
"5 $ # 3 0 = # p 0 * # s 1 O # p 1 # # 5 5 O # p 5 # # 5 5 $ # 5 e O * p 0 @ # 9 5 # # 1 5 $ # 0 5 $ # 3 5 $ # 5 0 * * u 7 * # p 1 # # 5 3 O # p 3 # # 5 5 $ # u e O # p 0 # # 0 5 % # 1 5 $ # 1 5 $ # 3 0 * # a 9 % # s 1 O # p 5 # # 5 3 # * u 3 # # 5 5 $ # 1 ",
"1 p p 3 0 p 0 s u 2 5 d 5 p 5 5 7 1 < 3 3 5 0 y 6 3 < 1 3 5 2 2 9 , < p 5 3 y j p 1 1 y < p < u 1 p p p < p p u 0 p 0 s p 2 5 5 0 1 < 3 5 5 1 u 7 3 < 1 3 5 2 3 7 , < u 5 1 5 j p 4 1 u 1 u 1 u 1 p p u 7 p q 0 p 2 5 j 5 p 3 5 7 1 < 1 3 5 0 u 7 3 < 1 3 5 1 p ",
"3 u 5 0 6 1 5 u 5 5 y 0 p 2 a s 4 4 5 y 7 1 1 0 a 9 1 1 p u 5 5 1 6 5 , 9 y 5 a p 5 5 0 p 3 < p 3 u p 0 3 u p 0 7 9 5 u 5 5 a p 4 4 5 y 7 1 1 s a 9 1 1 p u 5 5 5 6 5 < 5 u 5 y p 5 5 0 p 2 < s 3 u 5 9 1 3 5 p 3 5 y 0 p , a p 4 4 p u 7 1 0 5 a 9 1 1 p u 1 y ",
"2 2 1 3 < , 3 , , - - , - 2 2 - ; 2 2 - ; 2 = , , , 2 y , y , # - < < < < p 5 3 ; , , , u 2 , 2 - 2 1 3 - 2 < 3 , , 2 < , 2 2 , ; 2 2 2 y - * = , , y - , y , # , > < < < p - - - , , 2 2 2 - ; 2 1 < 2 < < 2 < - : 2 = 2 y 2 < 3 2 1 = 2 , < % < 2 2 2 1 3 2 y ",
"o + O % % , X + o o @ o % & O % # o % % = & % % * 6 # O O O o o % @ % o o = * = O % o o % @ = o % 6 o     .     . . * @ * % X $ o + * % % , % = % % % * # < % X o % * % * o % % = % % + o o @ o % O O % # 9 2 % * % > % = % < & 6 7 % < % % % o % @ # o # % o + ",
"< 2 8 8 8 k @ 6 6 7 7 6 n Z 0 n n t 7 t q n b m b T t 0 8 9 7 e S y u p u K n A t 8 8 8 d 8 Z 0 D U * - o o % o o % 5 9 6 5 < y < u 7 8 8 t < q 7 b 8 q m D 0 z 0 8 < n n q 7 b t n q 6 < 6 7 6 n 0 8 6 e T k n 0 e A m q n A b H / n C q 8 8 8 d 8 5 9 7 p 1 y ",
"< u t t b S = 5 % 8 q q J F n k R b b m b A n G n E Z Z q V b Z Z 0 F s s S Z U n A n C t k R q A R % % o o o % % % 9 p q 0 < u 9 u q b b V q G n J b n B F V m q s V V U b n m b F d s = 7 d q T n q b d T k G J A J n N H G A +.=.D H n A b C q Z w p q s < u ",
"u a 0 n q Z = q % 6 q Z T P V q V A N 8 n J A m C +.A A n C q C A k Z b q F F A U A n A Z A A N A +.% 2 o % o o o % 5 9 q j 2 p u a 9 b q V q U b n D V N F k A b 8 b q V A m 8 n J d q % 6 n n J n t V m S Z J R n J R A U Y G R +.F G J G n A Z C 4 5 q s 2 p ",
"u $ # m b C - 0 q 6 C A D A A n j b E / N T A A n *.A G m A C J T l K 8 b F F R n H C U A G J G U +.= O * * % o o o 5 < 9 # # p u $ * m b A n Y n H G 8 A A F Z C C F n s n E / N J d 0 k 6 m A F b n b A / V R H n G ] H J ~ F U +.F R n H m U A A p 1 0 # # p ",
"3 , 8 b b Z % q n k J b T D D n n t *.B G { A J U -.D m n A C F A D x z S Z J ( R G A ( T D Z H N R % o = * o % o O p 0 q < 3 p 3 , q n b V b H n R n F R L Z A G / J b n q *.G G { d 0 t k J b J f A F J $.A C J n A / A A F H } *.~ R R G F ^ U F 5 0 q < 1 u ",
"3 , t e b S = 0 z d J Z J D F G J F ' | U *.E T G *.F A U A G A C A V q k K ~ Y | R R G F T J U A +.= % - - o * * % w < 7 p 5 5 2 : e e b S 8 G C G A N A ~ A H A +.R G J J ' *.U *.d 0 z k J V J t n H F ;.S J F L F R J G n R } 7.~ U | R H G I T 5 1 7 5 5 5 ",
"< , 9 e n V $ t A q V J J H F U A R Y 1.E 5.&.T R #.F J G Y U A G m G n q x F } ' R E G U A +.T T 5.* = & % % % % % 0 3 0 a y > < 3 9 8 V Z 9 C Z J m n ( Q Z F A ' { U A U Y 1.E -.l k C 8 C J J m N A A $.C J C J C N R H ^ R } ,.F | { R ( G T A 0 2 s a y < ",
"> O # b q z < t 8 q n n ( T A A N P E ,.U | ` H } -.F R G A G B A m G C n K ~ H +.T H A R F +.B R #.% 6 * % o % % m 4 0 s @ # 6 > O # b 0 k 6 C G R B b E / Z U G T J G N P T 1.G | Z d q q n n ( A m G A -.V N G J S / H H J G @.-.J Y +.T U G T A 5 r 0 # @ 6 ",
"p 3 q 8 5 V 9 V Z f k n Y R F T m U U *.T @.A G G #.U N J Z U n ~ n G G n F F E R ~ ~ C { J E G R / = p % % o - * I 5 j d p 0 < u 5 q t 9 Z q N J ( n N U } Z R A T U U m U H @.R $.D V S f V n Y m N Y A 5.x C :.A m J #.C #.C +.6.F { R / J m E ~ 5 s d p 9 > ",
"u 5 d 8 0 k - q V q m m T E Z N N J R  .U R N B G +.U C C ~ J q J J F ~ n J F } +.R R G R C R A R R & u * o o V 0 Z 5 s 0 5 < < u 3 d q 0 k b A A J m U U R A T n H G N m J H %.U { z 0 V 8 m C U A m H ^ ;.Z C m H T J +.G +.J R :.F +.( R R G R C 1 p q 5 > 1 ",
"3 a u q 1 V 6 8 b j J T U T F F A T G @.[ E R G G ( A U U T ( n R R G T Z F D =.+.U @.J { T / H J +.& u - = % m n t 5 5 3 0 2 < 3 a u q 5 V 7 A n B b G ' T F U T Q T A A T G @.' ( V q q d J J U N m H { ;.V G n R J m R H J ` J :.D $.+.H @.J { T p 5 3 0 2 < ",
", $ # 5 0 g 9 s A n A F T U F P N G J ;.+.E G H U ` A U J J ( F J { H R A A F @.] U { ~ | U H ' ( +.& 0 % % % S j A 5 p , % # 1 < $ # 5 9 j n G n G A R T / A H ^ T U J C G U 6.+.} S s G k G F T m m R G 9.Z { A G H G G N B G R 5.D *.' U R ^ @.U 5 p , # # 1 ",
"5 a f q p j , t n n A G Y T V ^ C G R +.8.} J G R +.D } F N / J { } H G A J F @.( J 5.H } R R @.] +.& 0 % o % A q m a 1 p 5 p < 5 a s 0 p j 8 Y U N U #.A +.F m U { N / C G R +.8.} z b n n C G Y A A J Y ;.k T &.U R G m { N F ' +.F @.+.J 5.R { { a 0 p 1 p 6 ",
"p 0 u a p j 9 A t n G J U T F T J J #.:.t.8.R U F +.C ,.C H ^ R R / T J F P I -.@.( #.R =.R Y | R $.= 3 y o o k z A p p 5 1 5 5 p 0 p a a j Z ( #.A A R G *.Z J G ' R U J J $.:.t.8.Z C n n G J U Z J U E =.A A Y Y B R J ' ] | Y #.P 5.@.( $.T &.E p i 4 3 5 5 ",
"u s p p 9 l < m Z A ^ J T ( Z E R H *.| 9.w.R #.U +.F =.J { N +.R #.G R A A F } =.R ( R #.T U } ] =.= q & % % q A T 5 < p p y 5 u s u p 0 g t m A B } R C 5.F H ~ } U R R H @.+.9.9.S V C Z R J R J U R R 7.A T J @.G G J G @.R U 9.A | =.R ( T #.T 5 < p 0 y 5 ",
"1 - # p 5 r 6 C n n ^ ( T T A R R U ' ' q.8.U { ] ` J } J R A J ` +.H / d Z ^ -.,.| R R R R H } { ;.& 1 , , % k D E 3 2 9 * # 6 1 - # p 9 r b n n H ,.U ^ ` Z H { { Y E U U R ' 9.8.V C n n ( ( J F R A Y 1.V E J R R A ' G } #.R #.~ =.,.| E R E ' 5 , 0 % # 6 ",
"s u u a 5 r * A V V J R =.T A ' R Y G R 7.9.&.U U *.F +.+.H G #.R R F ( 7 ~ T @.@.| R +.5.T R Y | -.= 7 , 2 o t W ( p 4 p 9 1 p j 2 p a 5 r 7 ' m B r.A } &.D T R @.Y ' R R H R $.7.z C V V J / #.C R G ( -.V m } B +.F J #.J / R @.~ :.*.[ R +.#.T p 3 p 5 1 p ",
"< u < a 0 j > Z D F T R J T J U ' } R B +.<.U G U | H Y { R G ~ H U A E e F ~ -.-.@.) $.` T U R @.#.6 s = 3 * k G } p u < < 3 y < p 1 a q g t ] J ' ` G R R A ( R #.( U Y } T B +.<.V n D F R U T Z G C +.5.F C m G H R { ( R G } *.~ -.=.@.) $.` T p p < < 3 y ",
"p p y u < r < n A m { J G / J / G U m N R 9.H A H 1.I U H R R / R m F A b J T #.+.| :.| +.F G T %.-.= q 3 y u K G / 3 0 1 5 y 1 u p y p < r m ' G ' A R / =.F U +.U +./ H U N N R 9.V Z A Z { J J G R Z H 7.q F G N ( ' R R -.' ' &.~ +.+. .:.| +.P 5 1 1 5 y 1 ",
"1 $ # p i r 6 q J n +.G ( ( A { R [ B J R :.} R ( 9.I #.' R J R J C J U r ! T | T 7.,.5.' R ^ H +.6.= p - - 8 A D t p 9 u $ # u 1 $ # u 5 w Z G N { U ( U -.Z U Y Y U } R  .B J R :.S q J b +.G ( G J F G ,.P Z F J N R J H T T R ;.T @.~ 7.;.5.Y T p 0 p $ # p ",
"9 p < a 7 j 7 b z V +.G { ( D Y ' Y R A ^ R O.T +.*.T T } R J R T U A T n T T @.%.} +.,.U G @.R #.<.< a 2 y C b k z p 5 3 5 5 u 1 u < p 9 r n B H R n T Y E P ' U U Y Y Y Y R N ^ { D b z V +.B { G { H T 9.Z Y U T T U ' m R ( R -.T | %.} } ,.R U p 5 2 5 5 2 ",
"7 5 1 p 0 j 0 z C Z H G U / A U R T ( E T T 7.Y =.-.U ( %.J R R R E U _ F D T =.} :.|  .R R +.} | <.& d u - C b 0 n a 5 6 0 1 3 9 5 < 5 9 l b U G G U Y G =.T E G G ( U R T } E U R z z C C H J R J U U J 2.k m m ^ U n C G T C } E T =.| :.|  .R R a 5 6 0 : 3 ",
"5 p , 0 p z 6 n D m / R Y T F J R H U ] +.( q.| T 6.T | -.+.G R R R Y B N F T +.R *.} } H U U } Y 6.= q - 2 d s f D f 0 5 s 2 u 3 p 2 0 p z 8 T G R ' T F -.T U T N Y G R U R } ` R V V D C ^ R H m U U B :.d n N A } H R T U R +.@.T +.U *.} | Y U a q 0 s 2 p ",
"5 $ # 3 0 z s b C J { { G U F R Y U G U +.( q.| } -.T ;.*.U ' R +.B U U G U T R | @.} | } J J { @.$.< 0 & * k q t n t 3 4 : # 1 5 $ # 3 7 z Z T | ' U R U -.^ A U N Y R H U G U T F D n C J { { G m A U F #.D N m C A U J +.R ' B ;.T R | *.} | } G r 3 2 , # 5 ",
"1 u p u 1 z 6 J A T ` ^ +.^ Z / N R U R Y ;.;.&.E @.T ;.,.R R R R E R P E F T { O.>.| H @.+.( | -.6.< 0 % & d s n n i 5 a 3 1 u 1 p p u 0 l e }  .Y | } A :.^ U A R N / A R U Y G ` Z J A J #.^ ( J ~ H ~ -.C  .Y m F A R N ' B { +.T E O.>.[ U @.+.5 5 a 3 1 5 ",
"s , u y > l 6 K A G +.G ( R Z } H U T R G G +.@.J +.J 1.+.U ( / Y ( ` ^ T E ~ Y ,.*.o.E *.@.} E } 8.= 9 u < V u s b 5 5 0 p 5 < p 2 u y < f n R J ( +.~ ^ 5.~ E T } m @.J U R U G F V K A G ^ G +.G G m R -.Z A m ( } B G G J R ( 6.R ' ,.=.o.} &.@.5 5 1 p 5 1 ",
"3 a y y < c 0 C A A #.A ( ( A ^ G / ~ G U J +.] H +.F >.+.G U ^ H #.) ~ F ` ^ U y.( -.| @.E } Y @.5.& < 2 = V 9 8 V u 3 p p y 8 1 a y y 6 c ` 7.R q.T T | -.T E T R U ^ H / J G J J S Z A A $.G ( T D G R -.V t m n U { A U ^ { H 7./ J t.+.=.| | E i 5 p h y 7 ",
"4 # # a 6 c 2 q A G ! B / +.D G ( U J T J m @.] R +.A +.} R H A U / U ( T ( ~ R <.| ;.+.Y } | J 5.6.= - 8 6 q s 0 n p p r - # < 4 # # a < c A | ,.+.+.U P +.T &./ R R A / H J R J m z d A G _ C ^ U A H T $.F ( R F n U A G A G ] -.R R :.| ;.=.Y Y a 5 r $ * 1 ",
"< 3 p y 9 j - 8 A A R R ( T A Y Y A D U A N H +.} +.A +.=.U ~ ~ N +.U R Z Q U U 7.,.+...Y E ( A +.;.3 * - 5 f 0 j V 0 9 0 5 1 1 < 5 5 p 1 g b J U A U A } ( U R H J J Y R C D U G N z 8 F C H R ( A J Q U +.Z A N H ' m U / J N | :.T T 9.:.+.O.E } 0 7 0 s 1 < ",
"p 1 1 3 6 j & n m J R +.R ( F U R G G T A U E } ,.&.A G =.U U A J U A G G T I U 2.} } +.U E Y B %.&.< % % d 6 0 q 0 5 y 7 5 1 1 p < 1 3 9 r q G U T A N | R T Y R J T U U G G U A J V n C J { +.R J J G R ( k m C n U | k J G ] C 6.I U 2.} } } U E 5 p 7 5 1 < ",
"5 p 2 3 0 c 6 n A K / +.H ) F +.( U U G T U R *.q.&.T R ( U C n J ( G J z #.T E 9.*.Y +.R R U ~ R -.y - - 0 < 8 7 f 5 5 0 h y 4 5 a 2 3 0 c q B T A Y ( #.` T E N A R +.( H U J J U V n A D ~ +.J L ) A ( #.A m N m m U  .A U G Y +.T E 7.*.R } T E 5 5 q a y 4 ",
"1 # # p 0 l s q n V +.^ #.` F R +.U { R A A R @.p.*.P U -.U A U m E R R n =.T } 7.*.+.-.' } R R R +.7 - < < 8 q 3 f 5 0 7 # # < 1 # # p 9 c m ( } A U ,.^ #.T U G J R U #.R { H G A D q n V +.^ $.J J C +.+.D { R H H H ( #.H R *.#.T } 7.=.+.-.{ } w 0 7 # # < ",
"1 p 7 u 5 k 9 8 G C =.+.J ` A | =.U R U A m ' | p.&.T *.{ U G R A T T T U -.~ Y 7.@.&.*.+.} T R Y @.7 < = 0 y 8 & n 5 0 < 5 1 < 5 p 7 2 5 d C ( } U R ' T ( P { N R R | =.T R J A N Z q G C #.+.J ~ A J ( +.d A G G ( R G #.^ @.Y &.~ Y 1.| =.,.E } 5 0 < 3 1 < ",
"u < p p 5 j < q J C ~ #.R #.C ,.@.J %.R R m  .' 8.+.P -.^ A G N ( U T T H *.R +.<.@.#.:.@.+.' +.R *.y 2 % q q 0 t t a 7 p y p s p < 5 u 3 j n { ' G ' | A +.F T T R J ,.@.J @.R U C Z q J C ^ #./ J Y / T ) V V J R C { { B :.@.U *.E +.2.+.+.:.@.} p 7 p a p r ",
"a 5 y 1 2 s y d A q ) #.U ^ D :.[ G ' U T A R ( 1.+.P ^ ( H U R G G Q ! A ,.T | 1.*.5.2.+.E J U G -.0 < % 6 0 0 7 t i 1 0 y 2 5 a 5 y 5 3 l G { } B | U n #.J H / R ^ :.| G ' H R A c d G q / #.U J / G T 7.Z G R +.H J +.R -.R 2.} T o.2.*.5.2.+.( a 1 1 i 2 5 ",
"5 @ # p 9 l 6 n q C J } +.` A r.@.R F G T J T ' u.@.P ` E U U #.J m U R N +./ +.i.,.;.:.} R U { J ,.= - 6 & s s 8 b 5 w 5 O # 3 5 @ # 5 < l m Y *. .*.U R -./ ~ G R ' r.%.R J G ~ J V k q A J +.+.J J R / 5.Z U R ^ ` R @.,.@.@.;.*.~ +.q.,.;.,.} R 5 1 5 @ # 3 ",
"5 5 0 0 9 j 3 k n n J ` R T F ,.R U U F Q B T +.e.=.F A +.R J @.+.n E U G +.T @.7.;.} R @.R H #.H 9.= % 2 6 < 9 k t 1 3 4 0 a p 5 5 s 5 0 j 8 G } 7.#.Y B <.} U R R J ,.U R U D J A z V n q J ^ R C ^ G ( q.F +.J { ' Y G :.-.:.U 2.T *.7.,.} U &.Y 5 3 , 0 a p ",
"< p 7 6 5 c < b C d R ^ N T D ;.+.Y U m G A E E q.+.T N =.F ' { C A m P ~ R L | >.,.( / #./ A / J 6.< % 7 5 3 9 b k 1 5 i 5 p a < p 7 7 5 c 8 N Y >.,.B n ( ^ R ~ U U =.+.Y U m G C S q Z d R ^ N G ^ G U ,.T ` / R :.' U @.#.6.R 5.F @.O.,.( ` ` ` 5 1 i 5 4 a ",
"6 p 1 7 , f < 0 q V D U A R Z { R T ( G G K Y [ 2.*.P U T H T T m A A ~ U ~ F { <.-.#.R ( T J R J #.- y 6 > % < t V 5 5 1 p y y 6 p 1 9 , l 7 A R +.=.U Y ^ P 9.R N G } / R ( B G K V 9 q V S T C A V A n &.F } H H } G +.Y | Y ( =.T Y <.-.#.R E T 4 5 1 j y a ",
"5 $ # 5 0 z V f s A U } ~ ( Z +.E ( ^ A G n ( } 1.;.F +.^ J F #.T T U J H #.F R >.} =.| R ' R ~ R } 6 2 0 < * 2 y n r 3 2 , # 1 1 $ * 3 0 z 6 G 1.%.' G E ( T 6.R N H ( R ( ^ A G n L f d C R { J U G A T / Z T { m N H } } ( B +.;.L U >.} -.} R ' r 3 2 * # 1 ",
"< p p i 1 z 9 G 8 A n +.U *.A *.} +.+.N ( G { [ :.,.Z E R N m +./ U A ^ A ( / G :.R | @.+.+.( G J +.f * 5 < 2 a y r p 5 a 5 1 u 1 p u u 0 z 9 J >.2.| m @.( F | E ( E =.} +.} A ( G Z G 8 A n +.R ] R G U #.V G +.R ^ R | U R #.+.9.^ G *.E X.| &.+.a 9 a 5 1 u ",
"p , 2 a < l q T n A C U R +.T } E ' R F R U ( E | -.S U E T J J G m n U F ( / U ;.@.@.} @.A T A H +.< < & - 6 p u y 5 5 1 p 0 1 p , 2 a < l 7 +.>...| H F / F ^ } E ` } } Y / G T H F J n A A U R R A J U @.k A U F N R | Y | 5.R i.^ T -.@.@.} @.A 5 5 1 p 5 1 ",
"5 a y y < l 6 t m m t n ^ R P ` R +.Y N U H R A &.7.V T ~ J C C C A G C G T ` G | -.5.( R U A m ( ( , 3 % = f 0 2 , i 5 p h y 7 5 a y y < c 9 { :.{ H q A $.P *.} R R ( R +.U N U H S n m C q n R G G C +.+.V A ~ F N B R @.Y R R 2.^ G | -.5.( E U i 5 a g y 7 ",
"4 # # a 6 c = Z T p V 0 +.U D E U } ` N R H C A -.&.F U L V G m A n ~ G F ) ~ T @.R =.G =.R J A E ( & - - s 0 > e , a 5 q # # 3 4 # # a 6 l 8 H >.T N 8 A R F *.E C T ( U } +.N / H k V T 5 Z 0 +.n U C J -.C J Z G Y n m Y H T T q.^ T @.R =.H #.T a 5 r $ * < ",
"1 3 5 y 1 a - F R 7 8 V T ( A E B =.U N U G / U U ` Z A F J V C B n C A N _ F +.R } } J +./ I J G / & = < q d 2 q < 0 0 1 s 0 < < 2 5 a 9 a Z ^ R B n m G / A =.T J U } U +.R m U G l F R 7 8 V J U A C ~ -.D G R J J J b A J ( n 0.F &.R } +.J +.^ 0 7 0 0 9 3 ",
"p < 1 3 6 j 0 < t A 6 t k } D T E +.J J E T ( T A #.D G Y U G n C Z b V z 4.F +.R +.} Y Y H R R J ` = % 9 < s v l q p p 7 3 1 1 5 1 1 3 6 j q G G Z b C J R Z ( / H T ~ R +.J J R R D < t A 6 t d U n K R +.D T { G L J A k C +.U 7.F #.R } } Y ' U 5 p 7 5 1 < ",
"5 p y 3 7 l Z q t n s t A ( A T G &.n N E P / U H +.F N N A m m A t b V b Q F / U ( ( R +.G A ~ J $.& % p < p s q b 5 9 r a y 3 1 a 2 5 6 c q N J e n N H / D G H G A U U +.Z N R T I t k n s t A U A U T ( D U J G b ~ R A N E G ;.F / U +.( U } G 4 5 q a y 4 ",
"1 % * p 9 l q D q k j n F ^ Z H N R V U R T R G T =.F A A G n b n q 5 k t S J J T +.H J J J J J G #.& = < - * 5 2 n w 0 7 # # < 1 # # p 5 l 7 n U b Z m C ^ F G A A m J N R Z U R T F D q z j n F A A A A +.T Y n m C n / H F } H -.F J ~ +.J U F ~ 5 r 7 # # < ",
"3 3 7 2 p d 6 J 0 l n M S ` Z F / ) A J } Y G F A +.A F n n b V t n q b t Q L m G G G ( J A A U b #.- 3 * = * - : 6 p 7 < 3 1 : 5 5 6 2 5 k d Z H A G C b T A n Y C N G / ) A G E Y V F q p n m S ) U T A ( T J b n D C J H C T Z 5.J C G G G E J A 5 0 6 5 1 : ",
"p < 5 u < j > J 8 q S 0 A ) V m H J N G #.E A A G R V A A b Z N q n 5 n k x D m m } / +.C G D A C #.= % % o # % % = p 7 p a p j p < 5 u < j q N A C l Z t Q k A Z S N N G F A G ` E V J t 0 V t A ~ F Z V #.V t n t e n T G / G n &.F m m +.R #.C A a 7 p y p s ",
"y - 2 2 2 f 3 V 0 s v q q ` V C G A R J ^ E R U A J q J n k J b q f d n 8 z S G C +.^ T n P m n q { & o o , , - % > ; , 3 ; 2 3 y - 2 2 2 5 8 m n n n T n U V m F U Z m H A R J ( ( z k 0 s v t 0 F n b C T f < q k 8 n J A F D n #.D A m #.T R V G y < 1 ; 4 2 ",
"j f j l j j 3 j l a t j l h g h l c j p g j w r l j j a j g g l j l j f g g l j w s s j g j j j j f s l r j p j l a r j l h p j g r r r j j f p l j l j j j j a l j h j w j s j l g j j j f l g l j j j l p j j l h p l l h a j g j 0 r l j g a j j f f l j j g ",
"5 5 0 5 9 1 < 5 u 5 y i 5 a u p < p 0 5 5 p 5 1 1 p p u p 6 2 a 0 0 p p a p p 5 9 p < 3 3 0 y p 5 5 0 p 9 9 1 5 p 5 i y 5 a 7 3 3 u 5 9 5 p i u p 6 2 a 0 q p p y p p 5 6 p < 5 < 0 y a 5 5 0 s 9 1 < 5 u 5 y u 5 a u p 6 p 0 3 5 p 5 1 5 p p u p 6 p 2 p 6 y p ",
"< p 7 6 5 p 1 5 1 a 1 a 0 p 0 a < p < < 5 3 3 7 t 2 , y 1 p < p 5 5 5 p 3 i 6 > u 7 < 5 i 5 u a < u 7 6 5 p 1 5 1 y < a s p > < u 5 1 6 t 4 , a < 4 < a 5 5 0 p 3 p 7 > 3 9 < 5 i 5 p a < 5 7 < 5 a 1 5 1 y 1 p r i 0 y < p > < u 3 1 7 r 2 < y < u , a 1 5 i a ",
"6 p 1 9 , p 2 f 6 p 3 p 7 p 2 p > a 2 7 < a 2 7 < s i y < a y p 9 9 y s > a 3 5 < a 2 5 1 p y a 6 f 1 9 , p 2 p 6 s 3 p < s 2 1 < a 2 0 7 p y y < a y p 9 5 y j < a , 5 < a 2 5 < p y a 9 p 1 7 < p 2 p 9 j , a 6 s 2 a < a < 5 < a 2 0 7 p u y 6 a y y < a y a ",
"5 $ # 3 r : # u 7 # # 5 1 O # a 7 @ # 5 3 % # p 5 # # 5 5 $ # p e O # p q # # 5 5 # # 0 5 $ # 1 5 $ # 3 q , # p 0 O # 0 1 % # 5 5 % # p 1 # # 5 5 $ # p e O # p 0 @ # 0 5 # # 0 5 $ # 1 5 $ # 3 0 * # u 0 * # s 1 # # p 7 # # 1 5 O # p 5 # # p 5 $ # 5 5 $ # 1 ",
"1 p p u 9 p 0 0 p 4 5 k 5 p 1 5 0 1 1 3 3 5 5 p 7 3 < 1 3 5 2 3 7 , : g 5 3 y s u 1 1 2 1 p 1 5 < p p u 1 p q 5 p 4 5 j 5 p < 5 5 5 1 p 6 3 < 1 5 5 2 4 7 , < p 5 0 5 j p , 1 u 1 p 1 2 < p p u 0 p q 0 u 4 5 s 5 p 5 1 5 1 < 5 3 5 1 p 6 1 < 1 3 5 < 1 1 p < u "
};
