/* XPM */
static char *WOOD10[] = {
/* columns rows colors chars-per-pixel */
"128 128 48 1 ",
"  c #473323",
". c #3F2B1B",
"X c #4F3B2B",
"o c #574333",
"O c #372313",
"+ c #533F2F",
"@ c #533F1F",
"# c #432F1B",
"$ c #43331B",
"% c #4F3B27",
"& c #5B472B",
"* c #5F4323",
"= c #4F3B23",
"- c #332B13",
"; c #5F4B37",
": c #2B230F",
"> c #1F170B",
", c #2F1B0B",
"< c #4B371B",
"1 c black",
"2 c #67533F",
"3 c #170F07",
"4 c #3F2F17",
"5 c #675333",
"6 c #6F5743",
"7 c #6B4727",
"8 c #774F2B",
"9 c #373737",
"0 c #0B0B0B",
"q c #0F1700",
"w c #131313",
"e c #232323",
"r c #775F4B",
"t c #1B1B1B",
"y c #272727",
"u c #7F532F",
"i c #7B634F",
"p c #775F3F",
"a c #2F2F2F",
"s c gray23",
"d c gray28",
"f c #070707",
"g c gray31",
"h c #373F27",
"j c #232B0F",
"k c #875733",
"l c gray34",
"z c #5B5B5B",
/* pixels */
">&. @<oX    @o;X @   <&*oo+@X@+X+oX@o  @*++@@ XXX   $.$  X. .X --.    %<* <4 =<4..<=@@&&&&**++&***757**<@=<@===<<<<=@@%+@ @ $ $;",
">&* @   $$$# X   -  X o@*o+ +X*oo XX  X  $ $   ...$$ ..-.   X$   =   -.#  #<  #<%% XX=X@  @&&X%=%%XXX<  -...$-    . %Xo6;#--+=.&",
"364--.##OOO# o,O## .X X @+@@..  4    <<$<<<*&&* XX@@XX*;+@++@@@        .#### X#%   <=XXoX   % %+*8755558777** XX+@   X;,1q1,,O%&",
"3+... ###O-..##X  $ X$X+..%+ ..4..O,,O- 33,-O.......$,>>>,>>>>,,>,,,,,,,,,,,,,,,,>>>>,>>>>>:::>>>>>>:333333333>33>333331qe911#;2",
"3;&@%.O,1qy,#.# 9XX@       $@  XXX X $ @  X @  X     .  $   -O..-:>:O...........4O:...-.:::--:-:-::O::::::::::::::,333311q1,,OO3",
"=r;o.>>1qe91,.=+ @@  XX    $  . .<<  . <<@@@@**<.OO#.O33O. ==@ +. =% %XX= % .##%%<%==%   %. +++%oO. <=%  X. XX      O#&5o#=-   2",
"3OO+%;#>1qe$;o%*#@@@@&*@ @@**@ *+o@@@@X @@XXX   @  .     XX $ @X    XXX+ooooXXXO. <@@@ ++++@@&&**&XX  X#XX+o        <.Xoo+.##  o",
"3;X ---o;66;o   XX9X    ..    .. ... $...     X        $   .  XXXX  #O.#.O>>O.  =XXXXX  #=&55&&@XX..$  XXX  XX  ooo@O.     ..=Xr",
"3r .. $$#   $  .OO..00O..$     @X +O.  @    *    XoXX   X . .    * X X  .$X   XXXX   . X&&55&X     XXXXXX XX  X .OO..O33O..$$--2",
"#;oo+  9.       XX XX&+@  XXXX@  XX   .9 X@ @  ....... .$..#$$$# X $ X....$$ .....  <@&&**  .. . .$........ X     $..-....   X&;",
"#& <##O,,O,,11,-.   @   .   .       <       ..  .  <##O,,O-,11,-,, OO. # .  ....#<<< X<<44..    . ... 44..  . # ..  #     ##   %",
":2;;22;225;;;;5;;;;2222;;;;5;;2;5;;;662225;o22ooo+;++++++++;55oo2;;;2;;o26oo2oO#%%%oo;;;;;22;2;;;;;o++XX   X++++;;;;;o;;;2oo;o%O",
"OO>>>>333>3>>33>>3>>>>3>>3333333333>33>>3>3>33333333333333>>3333>>>>>3>33333333333333>>>3>>3>>>:>>:>>>>>>>>>>>>>:3>>>>>:11::>3>1",
"1>>:>>:>>:>>>>>>>>>>3>>:>>>>>:31103:>>>3>>>>30>>>>>>>>>>1>>>:311103:>>:>>:>0>>>>>>>>3>>:>>>>>:..:.--O-::O::O:+:O33::::::1.:::::1",
"1>> O-.::::O:::::::.::-::O:O:.>113> :::::OO:>0:::O:::::>1>::.>1113> O-.::::O:::::::.::-::O:3#+o +X++XX  X. =  o o..  +  & <.or:1",
"1>>+.$.O.. $$OOOO.4.4-$..$O$O%O11>>+...O-$$ ->..O$4....,3,.O%O111>>+.$.O.. $$OOOO.4.4-$..X>Ooo   $$ ;XXXXXX  ,1+..  X@@@   Oo2;1",
"1>.6-@  -+ XX .$.+9 $-   .-  ;O11>.6  X  XXX4w.- X$. .=,1,+ ;O111>.6-@  -+ XX@ <$+X $-   :,;;      o; .X o.oqd, .$-XX+*   @o+;r1",
"1>.2.&%  .  X   X*..-w-  .-  oO11>.2 <=X-X  4w.. X$.%.=O1O% oO111>.2.&%  .  X + @*$.-w- :.+;X  @@.Xo% X O..$qq1o.. =  o  o ..+;1",
"1>.2.X@+ . X  .X X =OwO  4-X oO11>.2 X+#,# #<w..%&<<. =#1#.OoO111>.2.X@+ . X  <+ @ =OwO>.+2oXX@@.oX  XXO.XOw$w$.. @  ,1+o  $   1",
"1>.;.o #yg;< .$X   +,1, #..  ;O11>.;<+=,1, #.w-  .$ .< ,wO% ;O111>.;.o ##,#  $=+  $+,1>.oi2oX=+ XX  XX-  X&OO>O.XX.o19, X  .X O1",
"1>.2 o Oese#...  + -,1,-#.. #oO11>.2#+Xy9e . :--   < XOwwO% oO111>.2 o O,1, .$<@@+ -,:.;i2o+%=.&+ .XXO o @8.OOOX ..$qq1o  .;XO11",
"1>O2 o.,1e1O  .  XX-191=. . #oO11>#2 Xoqeq . :-- .X##%1d1#% oO111>O2 o.,y9e  @ + +@-:.o2;oo%%-++:aXXO  @ @@X- $&o+Ow$w$o #;XO111",
"1>#2.@.,111OX-.  + #qeq#. .. 2O11>#2 .o1q1o- .O-.$X-#%1q1#%+2O111>#2.@.,qeq X4 +$+ :.;;;oo4 -  - XXO X**@@+=. oo  #O$o$. +X.1111",
"1>#2.$.=010OX-.  + ;1q1o-  . ;O11>O2 ..$w$.. #O#.. ,#o>1>o X;O111>#2.$.=1q1oX$$+ +>Oo+ * :: $ . XXO  &*++<@=<o**##X#O.  ;XO1:>11",
"1>O6   &w1wo ..4 XX6,1,5.  . ;.11>,6 %.O>O..#.O# . , @7>7@ +;.111>O6   %$w$. <$= >.oo   4:XX$  +XO X@@+o$@<<. *##XXX.. 2XO1>..11",
"1>,2.+ #&1t; ...   o6>5&.  . ;O11>o2 % .>. .#.#O-. 6O @,@. X;O111>,2.+ #O>O. $$ >.;o X*.. &XoO@+O X+<+++ @< @ #,# X...;;O1>:%O11",
"1>o;: . +16;. .     ;>; ..X- oO11>.; X%%. .<. #,-. 6O +,.. &oO111>o;: . .>. .=4>.+o@XXO#X@*X3++O.#o$o@+  = X+:,,$X..4;;O1>:O#O11",
"1:.;:X. &1;o X.   $%o.&.<O .#;.11:.;   =   %  <o..42O XO   &;.111:.;:X. %. . +>.;+- @OO X@ O@+O$ * oo+@==-X:3::. ..4;;O1>: oO.11",
"1:.oO@ ++0o+$   X . o &  @ . ;O11:.o     #.=    ...;O &O  &O;O111:.oO@ +=  O$:.oo &X . oo@.@@:. &$oo;<<@$ :>::. oo.o;O13O &=iO11",
"1>.;-+ ;%wo+  . +$..  o  o $ oO11>.;  .% .-+ X#+ . ;. &#. &#oO111>.;-+ ;  XO:.oo 2-X  Xo O @OO-+=+&o@ <.*43::. ooOooO1::  &#2O11",
"1>.;-$ o Oo o .@# $ @ @  o  .;O11>.;  O  ..  < ;X. o.X%=.XX#;O111>.;-$ o% X..;; 8 ooXXX O  O..&@@@=<@@.743::.   .ooO1>O= XX#;O11",
"1:.;-$ o O .X   #.. +@*  o  .;O11:.;  +  O 4 X#o ,X+.  #.  X;O111:.;-$ o  .Oo+ 6XooXX@.   O..&@++$=<<-743::. X  ;;O1>O #   X;O11",
"1>O;- .X O   @.@O.. XX    X  ;.11>O;     O#< . o O +. X=.+ X;.111>O;- .X ..oo  @oo+oXX   O..+ @@ *=* 873::.oXX ;;O1f>XX= + X;.11",
"1>.;-@.o-O% X  o,.. XX    X #+O11> ;    .:   ##X O +. X=#X  +O111>.;-@.oO.;o X*  oX  X  O.:o==@@**7<553::X+   ;;O1>0,XX=.X  +O11",
"1>.;.@.XjhXX  .Xo-.-  @X X   ;O11>.;..  XO.X .+o-O%+ %%X#  %;O111>.;.@.O.+o@XX& X X    O..@ +=+**7X553:: XX X;2O1>.3>+%X-  %;O11",
"1>.;$@ +eaXX  .  ..$  @X X X.;O11>.;    +,.o. @ .# # %X%#X X;O111>.;$@O.;+- @ * ..@ #.O..=%+o+***X75:::%#XX 2;O1>-+3>+X%,X X;O11",
"1>.; +.&:.X.X .$@ .. @+ o X  2O11>.;     ,O&. XX #  o %%#=% 2O111>.; >Ooo &X= &  @###O..++;++@@*%87>O:=  XX;2O1>:<+3:X%%1=% 2O11",
"1>.o +.+- X X  X@...@X@.+ X. ;O11>.o. <% 1O* <@&X#  X   .=%=;O111>.oO.oo 2-==*   O##O..+ oo+**&=**>::    X;;.13:<@+3>X  1=%=;O11",
"1>.+-&- - X  XX ; ..X +XXX ..;O11>.+   % 1O %=&+ #*Xo % . %+;O111>.OOoo 8 . XX  o #O..@ ++o@*+X%+>-:.X.$X;;O1>> $@&3:X% , %+;O11",
"1>.; 2- . X.XXX o $-Xo+ XXX..;O11>.;  - %qO<X=*+.#==X %X  .&;.111>>.o+.6XOO@XX.+XX...; @@+*@*&  >:-o&..X;;.1>:#  <o3>X%X- .&;.11",
"1>.o 2.$   XXo @oX   & $ XX.4;O11>Oo     ,O &+% %#X*&.% . %*;t111>.oo *@33X;o X%#.. ;@+++*@*& %::-%*XX 55.1>O    $;>: % O %*;t11",
"1>Oo 8 $@  X o @;X  $o* X X.4;O11> o..  .O# o+ % =Xo;-%  X *;w11>#+o +XO3 +;XX %...&&+++=*&   :-:+&@X 66O1>:%+ % @;>:$% ,X *;w11",
"1>Xo 2XXoXXXXXX &.X- *@   X. oO11>.o  % .O#<;=X=%= ==,  . +=o11>Ooo   ..X@@o   O..&&;&+==& X >--+&&& 56O1>:< =X=%-o3>.  , +=o111",
"1>.o.6@&XX . X.X8 X. o*  $X..oO11>.o %. %# Xo<+<<=% +1   X++o1:,;;   O.  @X < OO4&%&;&**&XoX>:: @5&X+;O1>. X$<+<<-;3>t  OX++o;11",
"1>O+4* *@  . X X;.oX.+&XX.X..oO11>O+ %.% .%XoX&  * = 1& *==Xo:.+;X  OO&@@@ ==OOO&+++***@=XX>::%+55&++O1>:*%X.X& %.;3>t& #==Xo%11",
"1>.o XX@   ..o4@oX  .X* X. $.oO11>.o %% %. XX%=. *%X ,X<=o%=>.+ooXX .&o@ %XX...&++o+&*=X=X>-. +=&5ooO1>:%* X>%=.%>;3O.X<#o%=o#11",
"1>.o + X@  .X@.@;X    *.&X . ;O11>.o  %  . %&o=O.&==%- . o%>.o+XoXoo @oX%oo...5=  o &. <<>.- +##&ooO1>O  * %:o=O :;3O$ .<o%%;.11",
"1>.oX  o  X   $ &.X-  *O*X  .;O11>.o % %   %=*%+ &X; OX. X:.;;Xo+oo@o    X...5+  ,1+.%  >..%   &ooO1>O % * %O*%+%>;>O X. X %;O11",
"1>#+ @ o   . X.X8 X.  +&*@ . ;O11>.+ X   .%=X%<..X +.,  #:.oo@ o&&O@o 4  --.5;%oq9, <  >:.=@X  ooO1::X   *%=.%<. 3o3O.     X;O11",
"1>#o   X  X..X-X;.oX. +@&&   ;O11>.o    %.+%X < <o   ,  :.;;  oX@ @@+.% O--5;%.$qq1o#%,OO%@XX.+oO1>     %*+%# < =:o3O.    %+;O11",
"1>O;+  X. XX X. ;.oX X@X&&X. 2O11>.;.%% %=%X X   % X O >Ooo   XX@$@o: %...8 +%O#$w$.#,.4< XX +oO10:;$%% %7%XOX   :o,O  =#  *2O11",
"1>,;XXX@. $X  .7&y X X@X@5&. ;O11>.; %  .= &%X4  < X%#:,;;   **@**o.XX...7X@@o#OO>O.,..%.XX +;O113.; %  .7 &OX4 .-o,O=% #%%X;O11",
"1:o+ooXXXXX  X @7. X@*@$@55 .2O11:.+ ..4X. &     %X %:.+;X  ** &&+.=X.$.*  .++@#O##,..#X =X++O111:.+ ..4X* &.   O-;OO=%.O  *2O11",
"1:.oXo o  X  XO &$.   + +&5 .2.11:.o#.4 X. @ % . %  >.+ooXX@@ &&;O&&.$$* XXo<+< ##,...X  XooO1>11:.o..4 X* @ % .>4o.O@% ,%.%2.11",
"1:.+Xo+     . OX*$.     +=&*4;.11:.+.    .=  $ % %%>.o+XoX&&$X+;#  --4*X  =. %#.#,.. XO.XooO1::11:.+O    *= O$ %><;.OX= o% %;.11",
"1>.oXooX   .-., &-.     +#&*4;O11>.o      = X4  %=:.;;Xo+oo *X;   ::-*X   .. - .,.. o>O ooO1>.O11>.o>     =,1O  O<;OOX&%<  +;O11",
"1>.;@ o @# .. ,X&-.   X + X&<;.11>.; - X%. @oXX <:.oo@ oX X. * +@-,:=X-$.-.    ,..=oO> ooO1::;.11>.;>- X.=.,1, #.<;,OX ==%  ;.11",
"1>.o@ X.@# .. O@*.#X  .    &<;.11>.o#. X=.XXX   :.;;  o@XX-.+%X+-:,= .-3--.   ,..X+.O$ooO1>.<;.11>.oO. X =.#O#  .@o,O= % =%%;.11",
"1:.o &  $OXX  .X+O#X @ X@X.@X;.11:#o .  %  =X  :Oo+ * @ X..+  X-::=   3---=  ,OO%X##.;;O1>:@X;.11:#o..   +$+O+. O@o,O=X%$X%*;.11",
"1:.; *   ,Xo X4&@O#. @XX@X < 5O11:#; .  X  X= OOoo   +@.-.oO  :::*4X .---   ,>: XO. 2;O1>O < oO11:#;..  #=    - O*+3O % # %%5O11",
"1:.+  &  o    .&XO#. *X @X  <6O11:O+ .  % .X<:O+o X*++...X,  :::*   .  X   >::= ##X;;.1>-X  <oO11:O+O.   =  ... -&+3O.+@4+%+6O11",
"1:Oo X* .+     +*OO$X+X <X  <6O11:,o .X.<<. :O++@XX@+-.$+OX@-::* oXO X.X@@,.-     ;;.13O<X  <%O11:,oO.X. *% O.. O*+3Oo=+*+%+6O11",
"1:.o XXX.XX-XX @;OOXX*X+ XX.<5O11:oo   .%X.>O+o+ @XX.+.& XX-::5 ++.X . @@>..+ XX 22.10>< XX.<%O11:oo.  .%%%.-...1++3O+=@*+ &5O11",
"1:OoXXXX XX-   X8OO@X*oo.XX.#;O11:%o  .#@ >.++oXX  Xo@;.o&-::&.XX  .X ++>-O XXX*oo.1>34%.=X.#%O11:%oO .#=*<.-.-.1&X3OX+**  *;O11",
"1OO+@ @o XX.. X+8OO  oo*O X..+O11OO+ ...+>O++;@   .+o&O;o.::& XX@$  .@+> -= XX 55O1>O,.%O X..#O11OO+>...=*#..#-.,7+3OX@@*  =+O11",
"1:O++ X;X X.. X i,O X*-&XXX..+O11:O+  .#>.++;@X   oo&.oo.::& X &$$$-;+,  =$   ;5O1>:#,.#X X..OO11:O+3 .#=*# .#-.-7X3:o  *@<%+O11",
"1OOooX +o  ..@  2,O X XXXX ..oO11OOo. .>.++o*X  ooXo Xo.::& @Xp@ ..*;>$  X. .;;.1>O X,.#X. ..oO11OOoO .#*&O O . Ou=3t& @*+.+oO11",
"1:O+o@ @X. ..@  2OO XXX@X   .oO11:O+ .>O;+o+&XXo==*=&&.OO O&&8oo  XX>  OX   ;;.1>:   ,..XO  .2O11:O+.. -*=, >.  ,k=3t&+@5+. oO11",
"1>.+;@X@    . X ;OO  @  o. $ oO11>.+.:O;;.&&. + = =X=-::. @@8oX $@X,. 3   .;;O1>-@4<#,. o> $ oO11>.+.# .o o >-$ ,u%3:o=@p+ =o#11",
"1>.+;@X @.  . oX;OO.XX@ o.X$ oO11>.+:O;;.o @@@. @XXX--: @<<.XoX.@@. .O $$X;;O1:-o=<##,.%o>X$ oO11>.+O#X o = ..$ O8 3O==*u@ =o;11",
"1>O+o* @ X .. X ;O# o@@ o $..oO11>O:O;;$o@X*&>O;+% --: X++ X X.XX.  .    22.1:.++@  #,. oO$..6O11>O+O  . %=*..  #7 3O *@u* =o=11",
"1>O+o&&@ Xs - X oO# X@@ o... oO11>:.oo oOXX&3>.* %-:-X#++@ X   X.  O.   oo.13$;+o@* #,.=o... 2O11>O+.   #%+*# . #7 3: **8* %o#11",
"1>.+o+&oX    X .oO#.oXXo+o .#oO11:Ooo @   oO> *  --- #@@   @ &*.  O   X55O10>8 @++<#.,.X+# .#oO11>.+   %-  ;O O <@ 3:$&=u@  o#11",
"1>.++&o@   X..X.o. .o# *Xo . ;.1:O;;XX$  *.O  X -:-+,X@.  @$&&. X.@  o;5O1>3.7X.X<%. ,.XX. . ;.11>.+ # %.  oO >  @+3. @<7= +;O11",
"1>O;.o  $$  . X  . -X# @XXXX.;O:O2;.*@  +OO @Xo.::Xo@@$  + **O  *   X;;.1>:>.7X o  - ,.%XOXX.;O11>O;.#%#-% X#->< o ,. @=7==X;,11",
"1>O;.o@o $@ $  XXy..XO @XX   2:O;; *    OO @XX..:X   O  * <<- @* X  ;;.1>:%>.* X=.   ,O X#  O2.11>O;  % .+.+ #O< o ,. @=*=&X2011",
"1:O;.o-@+.XX.   *    ,<@ XX$.:O;o @ 44@..$@=$.-+X XX-9   <<3X @X   ;;O1>-: >.*   .   ,:%  X$O;.11:O; # %.X-  -.= * ,.#@@&@==;t11",
"1:O;$oO@o. +. X  $ .Xo *   .>Oo; &$  X  $* .>=  o X... X<$3  @X   5;O13-o:X>$*X  .   ,>=     ;.11:O;.  =. .  ..=%*<,.$@<&@=*;O11",
"1:O; & @o  +. X $X $@& * X#>O;oo&   $X -o .>.  ,1+.9.@ <<-@ <@   +;O1::@o.X>$*X .-.= ,:  X*X,;.11:O;   =. ..$-O<%o ,.$*=&@X%;O11",
"1:Oo @$$o  o. X$.X $*X@* #>O;;  Xo@ @ .@%.>O.oql,  XXX  O  <@.  ++O1>-$$o4=>4*X$O--  >-. X  ,2.11:Oo . +. ....O< @ ,O#*=&@X 2O11",
"1:.oXX@*+..X  X-. X  X@+ >Ooo XX oX @ &#.,4..$qq1o +   , $ X.. ooO1:OX@*+.&>-*X-3--  ,.+XX #-oO11:.o...X.X.O:$-. @%, .@@*< XoO11",
"1:.oXX@&+. XX. ..   @X+#>O2;+ X  @XX @ .,.. Ow$w$.Xo4 OXX @..@ooO1>.XX@&+O 3:= .3-  @,. @X $,oO11:.o. O+   X>% - < , O<@7<  oO11",
"1:O;.* &o$  X.  .XX$@ .>.22+@4X X@  &#.,...,,OO>O.* 4.X  @ $ ooO13>;.* &;. 3:=  O-X$@>O@   $15O11:O; #3+. #X> .  @<, > +7< =5O11",
"1:O; * &&    .  . .X@.>#62++.     X+#.,.. ,11O==XX  4XX<@...ooO11>O; * &;# 3,=  . .X@>-=$ .$15O11:O; %fX .#X>#.#. =,$O @74 X5O11",
"1:O2 * +;   X. X X  #>O26o+-@X  X.*#.,.. #,1,**@ ... X.+..OooO111:O2 * +2 @>:= X.X  +> = . #,;.11:O2. 3 =<. > %.- X,..$+7:% ;.11",
"1:O; @$XoX .  4 $ ..>,66@@.XX@= .*..,..  ,,O *o+@@   .*   ;;O1111:O; @$X; +3:*4 O . +>  X ..-+.11:O;4%:  = X> %.,#=,$4$@*:+ ;.11",
"1:Oo &.*@@  $X X.X#>#66X X+X $$#@ .,..  O,#. oo+@+$@  ..X2;O13111:Oo &.**=X3:& XOXX @, .X  .O+O11:Oo.X-+# . O <=1. ,$4$@*4 =;O11",
"1:O; &   o    Xo .:#22X .++ #$   .,.. +OO ..&@@+. $$* . ;;.1:>111:O; &  +%X>:*Xo.. .+>$O  X$,+O11:O; XO= .# O%%*1o ,..< *$  ;O11",
"1:OoooX. ;@X   +#>,22@  **X>>   .,..X  X   <oX .   *   ;;.1>.O111:OoooX.+  3:* +   -;> 3 $ .,+O11:Oo #, ... O X ,o=O..  @<% ;O11",
"1:OoX X-Xo@X X  :,22+ o** O>#; .,:Oo o . . X XX   @   22.1>O;O111:OoX X-+# 3:& X@$$.*> 3    O+O11:Oo<<, .>  O + -==O$$$ @4%%;O11",
"1>O; XX.XX   o.:O2; Xo&&@.. 5 .,>>o ;;-   $XX$    .. oo.1>:*;O111>O; XX.oO 3:5.X@$..X,.O   .#+O11>O;@ O+#> .O   OX O. $+@4 *;O11",
"1>O; @X.Xo   .>O66& ++*+O. o@$>-:X @o. X  . X  X* .$55O1>> &;O111>O; @X.+,@3:& X& $ X$ .  X.#+O11>O;@<#= OX.# % ,= #$ <+@$ &;O11",
"1>Oo+ 4-XX  O1O;;  .&5@OO.*@$,.-X@  $   -   X  &  .;5O1>:- +;O111>Oo+ 4-X>X3:&  8@ $@. #. X.<+O11>Oo ##X.. . =  ,+ #. < @# +;O11",
"1>O;X@..+X O1O;;..  &@@$  +$>O.. XXX -X ##$X@ @  O;;.1>: .XX;O111>O;X@..+OX3:& Xpo $@. O  o. ;O11>O;  <= .   @ .O= ..#= @.XX;O11",
"1>O2++.$o O1Ooo .  &&&X@*+ >-O X@X.  o O# XX@@  0;;.13.#  X=+O111>O2++.$o &3:&$@8X .X. O  X. +O11>O2   = O< = %-#= .,O*#@ X=+O11",
"1>O2++-.&.1Ooo.$. X*&@@XX=>   Xo@,XX@Xo,X99@@9XO;;O113*#  X%oO111>O2++-.&.o3:& &8oX.X. .@  ..oO11>#2   X .  =<<-#<.31,*#@ X%oO11",
"1>.2X+-+.1O;o... X&*&+ X XX . Xo-oX # o    #X9.;;O101, +X  .oO111>.2X+-+;O;3: O@&XX. .X<   . oO11>%2<  X@# oXX%.<<O31,o+@  .oO11",
"1>#6o@..1O;;4..X.X&.*  .XX . XX-   $## ..<*XXO;;O1>>,O +X  %oO111>#6o@.@+Oo:: @@. X *. * X   oO11>+; %# @ X+X #  =o>,O;+@  %oO11",
"1>#2@X.1O;;4..X$ X *   XXoy&7 .   $OO XX +  O;;O1>:#,#. = . 2O111>#2@XXo&.o>O. < X  &. *    .2O11>;o  # @&oo  #  %X;,2o @ . 2O11",
"1>O6+.1O;;...X    &X  -.o.;&7 @ o OOX X     +;O1>O  ,.. %  X2O111>O6+ .+& X>: @+  @ &O@@X *@.2O11>+;  OX*&+X  O  = o,o. @  X2O11",
"1>,6 1O22 ..XXXX *o+.  X ;; ..X< ##X    XX ooO1>O=  O  <% . o.111>,6X .oo &>: X+@ @$*- @X    o.11>%6  ,$*;   %, #= oOo <@ . o.11",
"1>o 1O;;  . XX  **o X  X&8X-.  X.# $ *O X ooO1:O+=  O .   .%;O111>o6X  X*==>- X+  + <,X@X  @ ;O11>#6 Xo#8;<..Xo%#= $O . $ .%;O11",
"1>:1.++ X X XX  oo ..oX;; .-X XX    @+   2oO1>:%&==.#.#  #.=5.111>#2@  o*=X>: #@. +$<3 @@  X 5.11>O2 %%#8;   X %O==$#.# $#.=5.11",
"1>1O;;#    o+X+o&$ -X ;o@.$X..X$ XX    #o2O1>-%%==< #...  .%2O111>#2@ o= =X>-X#@. * <3 <@.   2O11>,2   #7;   +%%,=<$#...$..%2O11",
"11O;;.  X+ o @  X   .88X4.@ ..X @X.   $;o.1>eX=*.=.  . #Xa  2.111:O2+ o=%X :: OX$ @ $ @< .@9 2.11:,2 # .*&. sX=*o=.$ . #$:  2.11",
"1O;o.  =  o +@XX.- X;&X. oX.   @@$ . $o5O1>:9 &X =.  .  X.  2.111>,2 X+ @+%:-+,@O  X<-  X. . 2.11>t2 .X.&&O 9 &X =.$ .  $3  2.11",
"O;; $    ,1+ @ ... #;@X+X ..   @.. . o2O1::  #&= +$X  . X   6O111:o;* +.;@ :-+o -9  <O$.@$   6O11:O; %*%&&:  #&= +$$  . 43  6O11",
";o#.. .oq9,   ... Oo@   o..    .O   o2.1:... .*=#=    -  .  6O111:.2&.@O+* >:X  -.o  ,  @ . <6O11:O2  =%*&:. .*=#= $  - OO  6O11",
"; -. ..$qq1oX-$. O; =  ,1+   @X X  o6.1>.& ..#&* =   ..  .  ;.111:O6*@&>.* >:X X..@X ,X @.O  ;O11:O6  =.;&...#&* = . .. ..  ;.11",
" ..XO Ow$w$.  ..,@XX.oq9,XXX@@ XX X;#1::&;#..#+@ *% ...  . %;O111:O6X*53 *X>:X X.9XX O <@.+X ;O11:O6  <.&;...#+@ *%.... .. %;O11",
"..  .< OO>O. ..,O$...$qq  XX& X  o;%1>-.&;#. .+&%%%. ..... .;O111>O6&X&>  o>.X X.Xo  .X<o. X ;O11>O6 X..&;.. .+&%%%. ....O .;O11",
".  .. &     ..,,X+. Ow$1o @X##*  ;;O1O+ @;O...+7=*<...-..  .5O111>O6+XoO @X>-X .- +o4.X.+ X  5O11>O6 X. @;O.$.+7=*<$..-..O .+O11",
". -.&5>.o .$O1OO;+ X.Ow$.+2#,6. ;r#1:X.$=;OO..78=*#. #-. -. ;O111>O2& *. @X,.* X XXo 4X *.@  ;O11>O2 X>$=;OO..78=*#$ #-..-. +#11",
" .-o,>>;% .,11#%i; X.++O;;#O8  X;rO1:X.$=;OO..78=*#. #-. -. ;O1O1>O2++-.&.o3:& &8oX.X. .@  ..oOOO>,2   #7;   +%%,=<$#...$..%2O11",
">22;;;o++XX   X++++;;;;;;;2266;266662;222266626222;o;;oo;o;2;;ooo;;;;;+++++++o++ooo+;oo;o+o+;;o+ooo+oooo;+o;;;;;;;;o;;262222;22.",
"O; @# o,O##X+XX ++X o@XX@ @&&o&&+&X*&* +@@XX+@oX++X+  Xo     .XX  $...+ooo;;oo+@X     @@XXXoX+  X  4.    -  $.-----O::. ..  ... ",
", X@*&***++XX@X X   o@   4      XX*@. X      X@+++@ @X o&&@***XX@&ooo .OO..O33O. == *&  ooooX .OO#.4::4 %%=+@@@ $$+@X + $@oooX&o",
"33O;X+@  X @ @@  XX@X  $ X@  +**o&5&@++oo  ..X.--..4XXXX .$   @@$ O-@ o&& XX  X@XX*&  Xoo+ XX     X @X .--.. ...    ..  ...  @;r",
"OO#.OO..O>>#$$= X @ X @ X  .OOO.O>3>O. ==oXo+o@+.$.-..-. *X+&&&*$@@@o @o@@ @@+;oXX    . X oX@XXooX@*&X$$  +&+XoXoo;+  #%=,,O#+o%",
"O#;oo.X   #   #. .Xo    .--$$      .+;@% **o&&+;&o+X+o+++*;2;;++ooo+ $ X  @ XoX  ..  $@@   X..   @ @Xo@ .--:e    % =%.O$1qy,# oo",
",;ooX %     X=+X*;++&o@&*@o* @@@@ ***@+X===  .OO. O>,O# %=  #.O.4.::.4  %%#    XXX+o,O##   X  .OO..O33O.   .a.      .>>wqe91,.o2",
"3%2o+@%.O,11y,O.$  ### X#%   <=XXoX   % XX=&Xoo;o&XX@   XX+@   &=XX %   XoXX=<   %#X ####.        @@@++@+XXXXXXXXXX  .O$1qe,#o6%",
"3#62o>>>111z91,,,,,,,,,,,,,>>>>,>>>>>:::>>>>>>:333333333>33>333>>>>>>>>>t>>,>>,,,,,,OOOOOOOOOOOOOOO::O:OO.OO4OOOO-OO. ..o    XoO",
"3%;X &o;2o$qe,O+&5&%%#....4O:...-.:::--:-:-::O::::::::::::::,::-4$$....--.....OO4...  ........:O...O-   # XX  X Xo $ .  XX . ;o%",
",#X  ;%X%o;6r5o%%#       .  XXo*XXXXX++ X    .  &&&&&5&**&*====******778555558&&*&&&;;;&@+++=@+o+@&&++&+*o+@@&+*@% ++=$<$4@$$  .",
"OOX    XX  @      +   #O,,O X        o,O##XX@ @O $   .  X 4    XXXX  XX ;;;o+ +++%+&&o@    +%%  = @=@=<$ $$<<@*** @& 4$$$  <=<;;",
"O#.X XXo@@XX @o;o XOO,,,11,O   X.XXX  @X@@+++<@@&@X XXX+oX X  .-$   X .@++++=  oo+&;&+++@++o;+o+=@@++@+&ooo@++o+@@@+++ =+++@++ +",
"Oo..$.---,. X$$.-.-  .#O,,O-..O -...--O$.. @  .&88p8&@@ .OO..O33O.  =oX+o+o+@+&o&+*&+++&++&o++++++@ @$=+o;+&++4$<=+=% %  $ @  @+"
};
