/* XPM */
static char *WOOD4[] = {
/* columns rows colors chars-per-pixel */
"64 128 58 1 ",
"  c #5B472B",
". c #533F2F",
"X c #4B371B",
"o c #6F5743",
"O c #5F4323",
"+ c #6B4727",
"@ c #67533F",
"# c #3F2F17",
"$ c #43331B",
"% c #774F2B",
"& c #875733",
"* c #5F4B37",
"= c #533F1F",
"- c #775F4B",
"; c #7B634F",
": c #775F3F",
"> c #675333",
", c #836B4B",
"< c #332B13",
"1 c #1F170B",
"2 c #2B230F",
"3 c #7F532F",
"4 c #8F5F37",
"5 c #8B735B",
"6 c #4F3B23",
"7 c #836B57",
"8 c #574333",
"9 c #170F07",
"0 c #B37347",
"q c #8F7753",
"w c #373737",
"e c #D78B5B",
"r c #937B63",
"t c #DF9363",
"y c #EFA373",
"u c #A36B3F",
"i c #BF7B4B",
"p c #CF8353",
"a c #AB6F43",
"s c #8B0000",
"d c #E30000",
"f c #F7AB7B",
"g c #B30000",
"h c #E79B6B",
"j c #272727",
"k c #FFBB93",
"l c gray28",
"z c #730000",
"x c black",
"c c #FFB383",
"v c #CB0000",
"b c #2F2F2F",
"n c red",
"m c #9B633B",
"M c #9F8363",
"N c #1B1B1B",
"B c #232323",
"V c gray31",
/* pixels */
",-,M7@--;;,,;5o;;;-;77;r-,,;7;55,;,,-q,,-,,,,rr5,5-,;-q,q5q55,-q",
"  .&@#..X*   l$. $.X o.7.   @.o     X% o. XO+.&@  X  XX%, ,   Xo",
"<2<$#NB22$2#2<22$222#$2.$<$<#2#$$#2######<2#$#.X2#2<#2#=X#X##<#$",
"6#8.$<$<#.$$6$6#X6#$6#68666$866686$6#6#6###$.$@8#6$$6#68.6.66$.8",
"#,qq7o--;5,-;--;;;-;,-,M,,-,,7-,,,5;-,-5----,-r5-,--,-7M,,,,;55#",
"27;;o***o;o*o-oooooooo@,::o@oo@,oo:o:o:,o@o@oo;;oooo;-;7:o:o:;-2",
"2o=:$<2<<$#<#$<##<<<<<#$#<#<#<<##<######<#<<######<#$<#$X<X<;O:2",
"1o>o6j#$$8$#XO6#66#6$$888#O#6#66XXXXXXX6666#$$66..$686#*6X6X;=o2",
"2oO,-*.O> @@;   *$  .@+Oo= .XOX . *$X:XOO.. X  .XX $ $X =$$X; :2",
"2o+, ..X    : >X $X.X% X@  .. # O..XX;XO *. .%O .. # XXX $$=,Xo2",
"2:O, $XOX   o% X  # X   @X@...# + ..$:.XX+X.+%XX..$$=..$@$$.;O:2",
"2oX;.$X X= .@o+OO+# ..+*@X....2   ..X: X.+#XX% X.X.$ =##..#$:Oo2",
"2oX;X$X=OX O &@X.+$O .+@o.$@X+2@  .X$o #X@$XX&X<O#*w..##..$=;.o2",
"1;.;=X===. ..;@# %<O=X+   . .@<&  $$X =$X@XXXo.X < .X #< ...7.@2",
"1:.;.O X=X $X,o$ >$%=X@@@ X%+&1o  . X**..%X.X= X $. .o$#X   ,X@1",
"1:X:...= X XX:-. >#% $*@@%X  @#o++...@+XX..$X. .@X. . XX    ;Oo1",
"2:#, X O .. $::$*@X+ X@%++X  +.*o+. .X O= =X XX+.... *.X.  +;Oo1",
"1o=;.XX== .X$::= ..o.  o OX>.*$o% X +X+ .@ .  . ....**.w*X +o o2",
"1o ;X.$=XOO X o ...*. **o $**oX+43+X+X3+O%X.*..*X$XX ...+.Ooo.o1",
"1o :... .@  $.:O    = +3  X$40tttttt04$ O  X>$ %..$..@X +OX%oX;1",
"1@ ; .X ..  $ oO = &O @o=#30tyfckkcfyt03#@..%X@&.X$ *oX+ +X@o$,1",
"1oX; O+ X.. .oo.$X%O X@@X40ttyfckkcfytte4X+Xo#@-X$=+X..o.=.@-X72",
"1@ -OOo.XOX X@&.w o  X =4aettyfckkcfyttea4= *. > $.oXX  . .o;X;1",
"2@ ; .o.   OX%oX.*o.@X#O40ettyfccccfytte04O#OXoo..X%X=.o *.o;=o1",
"2o.; OO+O >X &%+ @@.&.<=40eehyffffffyhee04=<XO % =X>X.X+*V*@; @1",
"2oX;  .+++ X%&%O++@+&.2#4400pehyyyyhep0044#2Xo *. #:$..@o .+-.*2",
"2o$- o.    .;oo.o*o &.1<O%444aipeepia444%O<1X  o  X X..@oX=ooX@2",
"2:=o oX .X%+&o X% X+4 11#O%444u0ii0u444%O#11X*+@@ X+X. @+X= ;.o2",
"2@ -  X  XX%,  Xo  .&.11#===OO+%444%+O===#11$&+ o.. X..@.X  ;.o2",
"2o=oX X. XO&% . >.X.o.<11================11< &X++X= X ..OOO.-.@2",
"2o.;X+.. X+:% =>o X@**111==OOO==##==OOO==111XoX +X  .*@. OXX; o2",
"2oX;X XX+X*,  X@o*..& 111=OO%4%O==O%4%OO=111.*  +XOO .o#..$$; ;2",
"2oX;  ..@*@;+.O3@o.@o 11<O=###X=##=X###=O<11%..o+O   .oX..#Xo :1",
"2-*;% X%oX*,&. o.oX +OO1##19x92211229x91##1X+ .@ OO  $oX.. X; o1",
"2; -%%. o X,+OO% oX %..1<19zsgs<1#<sgsz91<1Oo . * X ..o. .X ; ,2",
"2;X;&+. @  &*@Xo@*X@-. <#1zsgvd2<<2dvgsz1#<.@@.O% .**X X $  ;.,2",
"2;.-;++Oo..7o*.o@ X.&O #3#sgdn#<19<#ndgs#3# &   o+X >$ X>=X>-X,2",
"2, o;o  o $q% .@@ XO;. <%4u44OX99x9XO44u4%<O- .@+&.  . @ . *;.;2",
"2, o::   .=,%%.-++ Oo. 2###X#<<9999<<#X###2$o++@*o.o    = O@5X,2",
"1,O@oq%%  .ro   .  .oOO><#<<2##1211##2<<#<oX:% & ;O%XX .  .=7.;2",
"2, ;o5%%+O ;o *... . =O+<22<<OO%+%%OO<<22<* &@o%>:X OO .*@$X,X,<",
"2; ;>,% > X:&+O =>XXo .@&19<#O33%O33O#<91++X:.:> o=>%=oXO:= ; ;<",
"2o.;o::= oX&o OX +..o..o%3%9<#X=#==X#<9+@@* ;O%  :X%    O   -.;2",
"2@.; ;oO .  ; = + O o O %%o&9<11x911<9 o& @*o@;oo&#o    . .%-.;2",
"2;=;.o%o. +X&& .@*.X; =O%%>o &+  :& .o o @@-**,+ oX *  @    ;.;2",
"2;>:=%% ..   & .*@oXo%X&oo o%>   oo O% XO%++  -@ o. *  .=O @o o2",
"2o - o.%XOO .- X +%X-*. &, * o%>>o+  @ X+%  > %3X%X.*. .. @*-X@<",
"1- -  X&OO = oo$  +.o@X &, @@o%O%O  O+%X@*.:= o%.;X OX. X o ;X@2",
"1o*-% X& .= Xo*X  o.&+X >%O%+oo %X +O% .o* :X :..% +OXX=X @.;X@<",
"2:%- oX&%X    o.   .- .oo&+@@-o  XO  oX.o@.&X%%= > = ..$  *.:.@<",
"2o>,X+ o:X. .o@..o..%O.*;3-@@@&+   **  Xo X&$%  @  X ...XXo ;=@<",
"2;.5.* %4X +O+&   +XoOX ;@&  +&++ > .@ $o  -$ o.o@ . *..XX>.; o<",
"2o.,   oqXO%X % ..+Xo X 4+  o  + X   OO#%%X&OO%$o  .. #... .;@@<",
"2oX,   %rX   Xo*. @.o X+,o% +.@8..  X+ Xo X& = $@@ X$ $O =X -@o2",
"1o 5 O%>q>=  O> $ .$@>= ,@%>%=o *X  X *. %Xo*   @+ X#.X$o#  o o2",
"2o ,  >>r>> = :O#O==>   -@o>>X++oX+ . ..X  @* X @.=.#.X$ #**-*-2",
"2, ;7@--;;,,;5o;;;-;77;r-,,;7;55,;,,,rr5,5-,,rr5,5-,7;55,;,,,=o2",
"<ol*@#..X*   l$. $.X o.7.   @.o     +.&@  X +.&@  X @.o     ..o<",
"X####NB22$2#2<22$222#$2.$<$<#2#$$#2#$#.X2#2<$#.X2#2<#2#$$#2#<.$X",
"O68.$<$<#.$$6$6#X6#$6#68666$866686$6.$@8#6$$.$@8#6$$866686$66886",
"#,qq7o--;5,-;-7o--;5,-;--;;;-;,-,M,,5;-,-5--5;-,-5---;,-,M,,;55#",
"27;;@*-****-*@@-:>-*@@-@@*@@@**@*@@->>@@* ;;>>@@* ;;@**@*@@-:;-2",
"2o=:.X  $X.*#   &X+X#X .+OX. XX.$oX =XOO X o=XOO X o XX.$oX ;O:2",
"1o>o###222<#2###X##22#2#X22<$2<#2####<$##2<6#<$##2<6$2<#2###;=o2",
"2o=: $$...# X>O .X XXo .. +X .. :# . => @.&&  ..%X *.. +OO3O;O:2",
"1o>o;o$$$...XX>=.=X X. ..  oXXXO+&$.  Xo.+O o * o.+3  .O+O *;=o2",
"1o ;X %O=..#$ X  %XX ..@*X.:$XOOX o O  %X+$@&      ++++O OO%; o2",
"1,O;#XX==%@...X <%O#% XooXO *XO .  OOXoXO X++&33 + ..Xo +++ ;=:2",
"1, 5$XXXXXX@.X# X#@#*..#& XX&+X. . .$O ...XX.@&@ oX  O+.&Oo=; o2",
"2oO;<<#.#.*8o$X2 $XO# XX. XO+O...O+.XO+.   #@@&4&@8@ %O+@+oo5 @2",
"1oX;<<X$# .X  $.$&<oX* . *.XX .$ +O+  X.    X : ,@@ O&++&.%m5 o2",
"1oX7.#$$$=XXO%%X.    .* o++OX  X<XO. @$X OOO O% &,%O+:o @o::; ;1",
"2oO,XXXXX# XX=. O.o.* X =O+OXO%= $. =. ..+X+++X@o%4%  o +,&&; :2",
"2o+,% =$=$Xw.$#>$.    O%XX .XO++  X  = X X@.%+X@ @&&o+::,o&&,Xo2",
"2:O,X+3%=X##w.X=>$X X%O#%XX . O%%   =    .... O+O+ &&3%%%%%%;O:2",
"2oX;.XO+O% .X=.$ >XX++ X=oOO+...oo X  O+  *oO+.. Oo  +% &@++:Oo2",
"2oX;...X#.@@*X==X XX .@.X@@ OXX+43+X X . ...-.& .OOO +%.+O%O;.o2",
"1;.;XX $XXX & $X.X  . $+ *o$40tttttt04$  X .-.O+..XX=XO XO+O7.@2",
"1:.;.X<$XX$XO@8..XX .@O  #30tyfckkcfyt03#% =X3+o. $..$X. @oo,X@1",
"1:X:##$#$X$XXX&O.$   .oOX40ttyfckkcfytte4X.OO%3%.@X ..*  +@@;Oo1",
"2:#,.**.XX#.XXOOXX...XX=4aettyfckkcfyttea4=    + @+  :+%O .X;Oo1",
"1o=;O.*@@@@$##.. XXXXO#O40ettyfccccfytte04O#%OX: O+&&&X Xo%%o o2",
"1o ;XOXXXXX  $#XX@..X <=40eehyffffffyhee04=<O+X+:%X&&  O%qOOo.o1",
"1o :X$X..X X%%X#$ o...2#4400pehyyyyhep0044#2X% =>;X+%O,4&OOXoX;1",
"1@ ;X# XX.XX.X4 2XX@.X1<O%444aipeepia444%O<1O @ O%&%  3+OO .o$,1",
"1oX;X#$#X##X. O+.b.. X11#O%444u0ii0u444%O#11 .=&XO>o.oO X   -X72",
"1@ -.O$X ==$X=OO OX. X11#===OO+%444%+O===#11>..o X&*#4OOXO> ;X;1",
"2@ ;X =$X#=$$#= %&.#  <11================11< ..  O o.7 =X >%;=o1",
"2o.;X %   =>.. %%.-.X+111==OOO==##==OOO==111....@+ :$*o .@.%; @1",
"2oX; X . XX=OOXX .**. 111=OO%4%O==O%4%OO=111O+ @@o+o. o@O+X%-.*2",
"2o$-$$XXOXX=>> $...;X$11<O=###X=##=X###=O<11%   oo+o.*o% @. oX@2",
"2:=oX$X..X..X  >XO+*7.&1##19x92211229x91##1O+@*.++ &Xo:%>@..;.o2",
"2@ -=$$jX...X$ % +XO,  1<199xx9<1#<9xx991<1O O .X  o ++3  *&;.o2",
"2o=o$$X..*  X Xo*.X=%% <#1999992<<2999991#<   *.w. X%&%%O o+-.@2",
"2o.;.XX  . o$ ..% +X+o #3#1912#<19<#2191#3#.@.++OX OOo%%=%&+; o2",
"2oX;  #O +O>= .X ooXoo.<%4u44OX99x9XO44u4%< @ @ooXX   + + &+; ;2",
"2oX; XX    .@@.=%o&**o&2###X#<<9999<<#X###2& @@@&OOO+X  %=X&o :1",
"2-*;.=  . *.. >=Xo-@.&,X<#<<2##1211##2<<#<O&++@. &&OOOO%%.Xo; o1",
"2; -XO%=...@OOO=$>:*.,&O<22<<OO%+%%OO<<22<+3%+@ * %OO%=O>   ; ,2",
"2;X;X%o.. X&+.+ .X%%o+@& 19<#O33%O33O#<91+++@% . .> OOXO=XX>;.,2",
"2;.-=%-w.o=%3   ..>>o oo.8@9<#X=#==X#<9o ++=o +++Oo-*... XX -X,2",
"2, o.::=$@. qO+OOO+%@ @;  ..9<11x911<9 +3+ >  >    ooX.*.o..;.;2",
"2, o*o >OO  ;==O+. +@ O%:$. ;. O*o&@o.&.&O O%&O .oXoo..+ 7,X5X,2",
"1,O@:XXoXXXX%XXX o<%O%X.o.=  o . +% : - -O%+ o%.=>Oo&OO:%&u 7.;2",
"2, ; #.o XXXX$O.   o$oX  o  X,X .&++&+@.oX+ =%q      &&4&+&;,X,<",
"2; ;XX$ %o$XOX X+oX%XoXX o++.&O O+3% -@.%O @X+u++ XOO&&33+ o; ;<",
"2o.;#.XO3+ **..%O%Xo.>o  ooXO%O%X : *o+  %$  3&&@ O++ +%%3  -.;2",
"2@.;<X$..@=  .. %o$=O o* o-.@ >>X -o o@@ :#   &,@oO+O+O++&++-.;2",
"2;=;.#$.X XO=$   &%$ +oo* & = + Xoooo@o* +Oo*.@-. +OX++ +&+o;.;2",
"2;>:$$$.X@w.XX. O%%$ %@@.+&&O O.@ ++3+o .:X% O % o X ++o 4%oo o2",
"2o -$$#**...XX$   oXO%O+ O&o  o  *@oO>. =:O+OOOOo. .. =o % %-X@<",
"1- -XX< ...$ X#  .-+X    X+%XX;..@+&   .X:X+ .. o . X%$o O o;X@2",
"1o*-.XXX.bX$+X<XXX>OXO .@.oo.. $@ $o  @OO%O+  $*o =oX X>===&;X@<",
"2:%-8.*..XOOOOXX$X =X .*$ & .. X+OX-@.-XX%XO OX :>=&X   OXO%:.@<",
"2o>, X=XX ..*X.X$XX...  XXooXX = XX3O+o== +X +O  -*+OO+O%X @;=@<",
"2;.5....   .....2## X.**X$>%XX3.@$.oX+o o.-. .   &@ X..  .*@; o<",
"2o., X. + ....j $$$#XXo*. o X$@ @XXo  oOoX&X. @. =4O.X  ....;@@<",
"2oX,XX..  XX.w.o .w#$.+ X  >$#.+ X#  OO o..@$.+.O=o  X.. $X.-@o2",
"1o 52X$ = .X=#.o  XX$.  #.% $$ *.XXX..X+* .-<  o= .oXO.X..XOo o2",
"2o , o  ...X$2$  *..XX* OOO =X$ ww..++ .. $=>X * +X++X...X$X-*-2",
"2, ;7@--;;,,;5o;;;-;77;r-,,;7;55,;,,,rr5,5-,,rr5,5-,7;55,;,,,=o2",
"<ol*@#..X*   l$. $.X o.7.   @.o     +.&@  X +.&@  X @.o     .8@<",
"X####NB22$2#2<22$222#$2.$<$<#2#$$#2#$#.X2#2<$#.X2#2<#2#$$#2#<<<X",
"O68.$<$<#.$$6$6#X6#$6#68666$866686$6.$@8#6$$.$@8#6$$866686$66886",
"57;;7o--;5,-;-7o--;5,-;--;;;-;,-,M,,5;-,-5--5;-,-5---;,-,M,,,,-5",
"@o*o@*-****-*@@-:>-*@@-@@*@@@**@*@@->>@@* ;;>>@@* ;;@**@*@@--:@*",
"++X3.X  $X.*#   &X+X#X .+OX. XX.$oX =XOO X o=XOO X o XX.$oX +++O",
"#$<$###222<#2###X##22#2#X22<$2<#2####<$##2<6#<$##2<6$2<#2###$###"
};
