/* XPM */
static char *t_0[] = {
/* columns rows colors chars-per-pixel */
"64 64 256 2 ",
"   c black",
".  c black",
"X  c black",
"o  c black",
"O  c black",
"+  c #000011",
"@  c #000034",
"#  c #000048",
"$  c #00004F",
"%  c #000057",
"&  c #000057",
"*  c #000057",
"=  c #000057",
"-  c #000057",
";  c #000058",
":  c #00005A",
">  c #000061",
",  c #000063",
"<  c #000063",
"1  c #000063",
"2  c #000063",
"3  c #000063",
"4  c #000064",
"5  c #000064",
"6  c #000065",
"7  c #00006B",
"8  c #00006F",
"9  c #00006F",
"0  c #000070",
"q  c #000070",
"w  c #000070",
"e  c #000070",
"r  c #000077",
"t  c #00007B",
"y  c #00007B",
"u  c #00007B",
"i  c #00007B",
"p  c #00007B",
"a  c #00007C",
"s  c #00007C",
"d  c #00007C",
"f  c #00007C",
"g  c navy",
"h  c #000085",
"j  c #000087",
"k  c #000087",
"l  c #000087",
"z  c #000087",
"x  c #000088",
"c  c #000088",
"v  c #000088",
"b  c #000088",
"n  c #00008C",
"m  c #000095",
"M  c #000097",
"N  c #000097",
"B  c #000097",
"V  c #000097",
"C  c #000097",
"Z  c #000097",
"A  c #000098",
"S  c #000098",
"D  c #000098",
"F  c #000098",
"G  c #000098",
"H  c #000099",
"J  c #00009F",
"K  c #0000A3",
"L  c #0000A3",
"P  c #0000A3",
"I  c #0000A3",
"U  c #0000A4",
"Y  c #0000A4",
"T  c #0000A4",
"R  c #0000A4",
"E  c #0000A4",
"W  c #0000A4",
"Q  c #0000A4",
"!  c #0000A4",
"~  c #0000A4",
"^  c #0000A9",
"/  c #0000B8",
"(  c #0000C3",
")  c #0303CD",
"_  c #0404D6",
"`  c #0404DA",
"'  c #0404DB",
"]  c #0404D9",
"[  c #0202CF",
"{  c #0000C8",
"}  c #0000C5",
"|  c #0000C2",
" . c #0000BF",
".. c #0000BB",
"X. c #0000BB",
"o. c #0000BB",
"O. c #0000B8",
"+. c #0000B2",
"@. c #0000B0",
"#. c #0000B0",
"$. c #0000B0",
"%. c #0000AF",
"&. c #0000AF",
"*. c #0000AF",
"=. c #0101AB",
"-. c #050595",
";. c #12125C",
":. c #1C1C30",
">. c #1F1F22",
",. c #1F1F20",
"<. c #202020",
"1. c #202020",
"2. c #202020",
"3. c #202020",
"4. c #202020",
"5. c #202020",
"6. c gray13",
"7. c #252525",
"8. c #2A2A2A",
"9. c gray17",
"0. c gray17",
"q. c gray17",
"w. c gray17",
"e. c #2C2C2C",
"r. c #2C2C2C",
"t. c #2C2C2C",
"y. c #2C2C2C",
"u. c #2C2C2C",
"i. c #2D2D2D",
"p. c gray18",
"a. c #313131",
"s. c #343434",
"d. c #373737",
"f. c #373737",
"g. c #373737",
"h. c #373737",
"j. c #373737",
"k. c gray22",
"l. c gray22",
"z. c gray22",
"x. c gray22",
"c. c gray22",
"v. c gray22",
"b. c gray22",
"n. c gray22",
"m. c #3C3C3C",
"M. c #464646",
"N. c gray28",
"B. c gray28",
"V. c gray28",
"C. c gray28",
"Z. c gray28",
"A. c #484848",
"S. c #484848",
"D. c #484848",
"F. c #484848",
"G. c #484848",
"H. c #484848",
"J. c #484848",
"K. c #484848",
"L. c #4C4C4C",
"P. c gray31",
"I. c #515151",
"U. c gray32",
"Y. c #535353",
"T. c #535353",
"R. c gray33",
"E. c gray33",
"W. c #555555",
"Q. c #565656",
"!. c #585858",
"~. c #5A5A5A",
"^. c gray37",
"/. c gray38",
"(. c gray39",
"). c gray39",
"_. c gray39",
"`. c gray39",
"'. c gray39",
"]. c #646464",
"[. c #646464",
"{. c #646464",
"}. c #646464",
"|. c #646464",
" X c #646464",
".X c #646464",
"XX c #646464",
"oX c #646464",
"OX c #656565",
"+X c gray43",
"@X c #777777",
"#X c #7B7B7B",
"$X c #7B7B7B",
"%X c #7B7B7B",
"&X c #7B7B7B",
"*X c #7B7B7B",
"=X c #7C7C7C",
"-X c #7C7C7C",
";X c #7C7C7C",
":X c #7C7C7C",
">X c #7C7C7C",
",X c #7C7C7C",
"<X c #7C7C7C",
"1X c #7C7C7C",
"2X c #7C7C7C",
"3X c #7C7C7C",
"4X c #7E7E7E",
"5X c #818181",
"6X c #838383",
"7X c gray52",
"8X c #868686",
"9X c gray53",
"0X c gray53",
"qX c #888888",
"wX c #888888",
"eX c gray54",
"rX c #8E8E8E",
"tX c #979797",
"yX c #9F9F9F",
"uX c gray64",
"iX c gray65",
"pX c #AAAAAA",
"aX c #AFAFAF",
"sX c #B6B6B6",
"dX c gray",
"fX c gray79",
"gX c #D2D2D2",
"hX c #DDDDDD",
"jX c #E4E4E4",
"kX c gray90",
"lX c #E6E6E6",
"zX c #E7E7E7",
"xX c gray91",
"cX c #E9E9E9",
"vX c #EAEAEA",
"bX c gray92",
"nX c #ECECEC",
"mX c gray93",
"MX c #EEEEEE",
"NX c #EFEFEF",
"BX c gray94",
"VX c #F1F1F1",
"CX c gray95",
"ZX c #F3F3F3",
"AX c #F4F4F4",
"SX c gray96",
"DX c #F6F6F6",
"FX c gray97",
"GX c #F8F8F8",
"HX c #F9F9F9",
"JX c gray98",
"KX c #FBFBFB",
"LX c gray99",
"PX c #FDFDFD",
"IX c #FEFEFE",
"UX c white",
/* pixels */
"O f f f f f f f f f f f f f f f f f f f f f f f f f f f c.c.f f f f f f f f f f f f f c.c.f f f f f f f f f f f f c.f f f f f O ",
"O U U U U U U U U U U U U U U U U U U U U U A A A c f f 3.3.U U U U U U U U A c c c c 3.3.U U U U U U U U c c e 5 3.@.@.@.@.A O ",
"O U U U c U f U U A f A A f A A A f f U c f f f f e 5 ; O 3.U U A A c U U A c c c c ; O 3.U ..@...@...........A f O @.@.c A c O ",
"O U A f ....A A f U U A U 5 A A 5 c f f A A f f e 5 5 ; O 3.U A U U c A A f c f U e ; O 3.U @.....U ..{ @...U A f O U U @.A ; O ",
"O U c U ....e A f f A U U c f 5 c e A 5 f e 5 5 ; ; ; ; O 3.U A c c A A f c f e ; 5 ; O 3.U ..@.U { ..@.U A c c e O c e f f ; O ",
"O U c f U A c 5 A A f U U U A c c f e 5 5 e f 5 e 5 ; ; O 3.U U c U U f e e e c 5 ; ; O 3.U ..U { ' { U ..U A e f O A c e 5 ; O ",
"O U A A f f f A U A f f U U c e c ; f 5 5 5 ; ; ; ; ; ; O 3.U U U c c f e c c c e 5 ; O 3.U @...U ....U U @.f f e O A f ; ; ; O ",
"O U U A A f f f A f 5 c c f f A f e e e 5 5 5 f f ; 5 # O 3.U U c f c c c f c f 5 ; ; O 3.U @...@.U @.@.@.U f e f O A 5 ; 5 ; O ",
"O U A f A U U c A f A e f c c 5 5 5 c c e 5 5 f f f ; # O 3.U A c c e c U U f e f ; 5 O 3.U @.{ @.@...U U U A e 5 O O O O O O O ",
"O U c c c U A A f 5 f f f c c e ; c c c c f ; 5 f f ; # O 3.U c c e f f c c e 5 ; 5 ; O 3.U @...U @.U U c A c 5 ; O A @.@.@.U O ",
"O A f c U A A A A 5 e e f ; e ; f 5 f c c f 5 5 # ; ; # O 3.A c f e e c c e f 5 ; 5 ; O 3.U @.....U ..U c c f 5 5 O U @.A @.c O ",
"O A c A f f U A A f ; f ; f f ; 5 5 c 5 f f ; # ; # # # O 3.A c f e e e c ; e ; e ; ; O 3.U @.....@.U c U A f 5 5 O A U c A 5 O ",
"O A f A f 5 c c f 5 f 5 f 5 ; e ; e ; ; ; ; ; 5 ; # # # O 3.A f c e e 5 5 e 5 ; 5 5 ; O 3.U @.....U A A f c e ; ; O A U A e ; O ",
"O A A f f f e 5 ; ; 5 3.3.3.3.3.3.3.3.3.3.3.3.3.3.3.3.3.3.3.3.3.3.3.3.3.3.3.3.3.3.3.3.3.3.3.3.3.3.3.3.3.3.f f ; 5 O c c f 5 e O ",
"O A f A 5 5 e 5 f 5 e 3.rXrX,X,X,X,X,X,X,X,X,X,X,X,X,X,X,X,X,X,X,X,X,X,X,X,X,X,X,X,X,X,X,X,X,X,X,X|.|.E.t.e 5 ; ; O f e 5 ; ; O ",
"O O O O O O O O O O O 3.rX|.G.G.G.G.G.G.G.G.G.G.G.G.G.G.G.G.G.G.G.G.G.G.G.G.G.G.G.G.G.G.G.G.G.G.G.G.G.G.t.5 ; 5 ; O O O O O O O ",
"U ..@.U @.U U U U U @.3.,XG.G.G.G.G.G.G.G.G.G.G.G.G.G.G.G.G.G.G.G.G.G.G.G.G.G.G.G.G.G.G.G.G.G.G.G.G.G.G.t.f 5 ; ; O e { { { { { ",
"..@.U A U ..@.U c U U 3.,XG.G.O O O O O O O O O O O O O O O O O O O O O O O O O O O O O O O O O O E.G.G.t.f e 5 ; O c { { ' ..{ ",
"..@.A A c U U c f A A 3.,XG.G.O O O c.t.O O O O O c.t.O O O O O c.t.O O O O O c.t.O O O O c.t.O O E.G.G.t.f e ; 5 O U { ' ' ' @.",
"@.U A U U A A f f f A 3.,XG.G.O O O E.c.O O O O O E.c.O O O O O E.c.O O O O O E.c.O O O O E.c.O O |.G.G.t.5 ; 5 5 O U { { ' @.{ ",
"U c A @...c f f A A f 3.,XG.G.O O O |.c.O O O O O |.c.O O O O O |.c.O O O O O |.c.O O O O |.c.O O |.G.G.t.e 5 5 ; O @.{ { @.U @.",
"U U c A @.c f A f f 5 3.,XG.G.O O O |.c.O O O O O |.c.O O O O O |.c.O O O O O |.c.O O O O |.c.O O ,XG.G.t.e ; ; ; O ..{ { @.{ U ",
"@.c @.@.A U A f f A 5 3.,XG.G.O O O |.c.O O O O O |.c.O O O O O |.c.O O O O O |.c.O O O O |.c.O O ,XG.G.t.5 ; $ ; O @.{ @...@.U ",
"@.U @.@.@.A f A A f e 3.,XG.G.O O O |.c.O O O O O |.c.O O O O O |.c.O O O O O |.c.O O O O |.c.O O ,XG.G.t.e ; 5 ; O @.{ @.U A ..",
"@.@.A @.@.c c A A f f 3.,XG.G.O O O |.c.O O O O O |.c.O O O O O |.c.O O O O O |.c.O O O O |.c.O O ,XG.G.G.; 5 ; ; O U { { @.{ { ",
"@.U c f c c c c f A e 3.,XG.G.O O O |.c.O O O O O |.c.O O O O O |.c.O O O O O |.c.O O O O |.c.O O ,XG.G.|.5 5 5 ; O U { @.{ ..@.",
"U A f c U c A A c f 5 3.,XG.G.O O O |.c.O O O O O |.c.O O O O O |.c.O O O O O |.c.O O O O |.c.O O ,XG.G.c.5 ; 5 5 O U { { { @.U ",
"@.A @.A A f A A A f 5 3.,XG.G.O O O |.c.O O O O O |.c.O O O O O |.c.O O O O O |.c.O O O O |.c.O O ,XG.G.|.5 5 e ; O c { { { @.@.",
"U c c f f A f A A e ; 3.,XG.G.O O O |.c.O O O O O |.c.O O O O O |.c.O O O O O |.c.O O O O |.c.O O ,XG.G.|.; ; ; 5 O c { @.{ { U ",
"U A c f A f e e e 5 ; 3.,XG.G.O O O |.c.O O O O O |.c.O O O O O |.c.O O O O O |.c.O O O O |.c.O O ,XG.G.G.; ; # # O c { { ..@.@.",
"A c A A c e A c e ; ; 3.,XG.G.O O O |.c.O O O O O |.c.O O O O O |.c.O O O O O |.c.O O O O |.c.O O ,XG.G.t.; e # # O c { { @.A U ",
"A c c f c c A A c e ; 3.,XG.G.O O O |.c.O O O O O |.c.O O O O O |.c.O O O O O |.c.O O O O |.c.O O ,XG.G.t.f f ; # O c { @.{ @.A ",
"A c U A e f f A A e ; 3.,XG.G.E.|.,X|.G.E.E.O O O |.c.O O O O O |.c.O O O O O |.c.O O O O |.c.O O ,XG.G.t.5 f 5 ; O c { @.{ c c ",
"A U A c c f e e e e 5 3.,XG.G.G.G.G.G.G.G.G.O O O |.c.O O O O O |.c.O O O O O |.c.O O O O |.c.O O ,XG.G.t.c 5 ; ; O c { { c A c ",
"f A A c f f f e ; ; ; 3.,XG.G.G.G.G.G.G.G.G.O O O |.c.O O O O O |.c.O O O O O |.c.O O O O |.c.O O ,XG.G.t.c f e ; O e { @.{ A A ",
"f c c f e 5 5 5 ; ; ; 3.,XG.G.G.G.G.G.G.G.G.O O O |.c.O O O O O |.c.O O O O O |.c.O O O O |.c.O O ,XG.G.t.f e $ $ O e { @.A A c ",
"f c 5 e f 5 ; e ; ; ; 3.,XG.G.G.G.G.O G.G.G.O O O |.c.O O O O O |.c.O O O O O |.c.O O O O |.c.O O ,XG.G.t.5 5 5 ; O e @.@.A c c ",
"f A f 5 f 5 e ; ; ; ; 3.,XG.G.O G.O t.t.G.G.O O O |.c.O O O O O |.c.O O O O O |.c.O O O O |.c.O O ,XG.G.t.e # # ; O e @.A c A c ",
"f c A c e f e ; ; ; 5 3.,XG.G.t.G.O t.t.G.G.O O O |.c.O O O O O |.c.O O O O O |.c.O O O O |.c.O O ,XG.G.t.; # # # O e @.A A A c ",
"f A c f 5 e f e ; ; 5 3.,XG.G.G.G.O G.t.G.G.O O O |.c.O O O O O |.c.O O O O O |.c.O O O O |.c.O O ,XG.G.t.5 ; # # O e A A A f A ",
"O O O O O O O O O O O 3.,XG.G.G.G.t.|.t.G.G.O O O |.c.O O O O O |.c.O O O O O |.c.O O O O |.c.O O ,XG.G.t.5 $ ; ; O O O O O O O ",
"O O A A ....; ; e e c 3.,XG.G.G.G.G.t.G.G.G.O O O |.c.O O O O O |.c.O O O O O |.c.O O O O |.c.O O ,XG.G.t.; ; ; ; O O e e e e O ",
"O O A U @.............3.,XG.G.G.G.G.G.G.G.G.O O O |.c.O O O O O |.c.O O O O O |.c.O O O O |.c.O O ,XG.G.t.5 ; e ; O O e ; f ; O ",
"O O U ..........@.U @.3.,XG.G.G.G.G.G.G.G.G.O O O |.c.O O O O O |.c.O O O O O |.c.O O O O |.c.O O ,XG.G.t.O O O O O O ; ; ; e O ",
"O O U ..@.@.U @.@.....3.,XG.G.G.G.G.G.G.G.G.O O O |.c.O O O O O |.c.O O O O O |.c.O O O O |.c.O O ,XG.G.t.O O O O O O O O O O O ",
"O O ......@.@.....@.@.3.,XG.G.O O O O O O O O O O |.c.O O O O O |.c.O O O O O |.c.O O O O |.c.O O ,XG.G.t.............@.@.@.U O ",
"O O ..U @.U @.@.@.@.@.3.,XG.G.O O O G.c.O O O O O |.c.O O O O O |.c.O O O O O |.c.O O O O |.c.O O ,XG.G.t.U @.@.@.U U @...U c O ",
"O O ....@.A c @.@.A ..3.,XG.G.O O O E.c.O O O O O |.c.O O O O O |.c.O O O O O |.c.O O O O |.c.O O ,XG.G.t.U U @.U A ....A A c O ",
"O O ....A U ..@.c U @.3.,XG.G.O O O |.c.O O O O O |.c.O O O O O |.c.O O O O O |.c.O O O O |.c.O O ,XG.G.t.A U @.A c f A e c f O ",
"O O ........U c ..c @.3.,XG.G.O O O |.c.O O O O O |.c.O O O O O |.c.O O O O O |.c.O O O O |.c.O O ,XG.G.E.U @.U A A U f f f e O ",
"O O ..U ..A U U ..@.A 3.,XG.G.O O O |.c.O O O O O |.c.O O O O O |.c.O O O O O |.c.O O O O |.c.O O ,XG.G.|.U A A c U c c A 5 ; O ",
"O O ..@.A A ..' ..U c 3.,XG.G.O O O |.c.O O O O O |.c.O O O O O |.c.O O O O O |.c.O O O O |.c.O O ,XG.G.c.@.U A @.f e A A 5 ; O ",
"O O ..U ..U ' ' ' A A 3.,XG.G.O O O |.c.O O O O O |.c.O O O O O |.c.O O O O O |.c.O O O O |.c.O O ,XG.G.|.A f A f c A A f 5 ; O ",
"O O ..@...U ..' ..U f 3.,XG.G.O O O |.c.O O O O O |.c.O O O O O |.c.O O O O O |.c.O O O O |.c.O O ,XG.G.|.c U c f c U c e 5 ; O ",
"O O ..U ..U @.@.c c c 3.,XG.G.O O O |.c.O O O O O |.c.O O O O O |.c.O O O O O |.c.O O O O |.c.O O ,XG.G.G.f c A A A c e 5 ; ; O ",
"O O U ..U A U f f U c 3.,XG.G.O O O |.c.O O O O O |.c.O O O O O |.c.O O O O O |.c.O O O O |.c.O O ,XG.G.t.e f c A f 5 ; 5 e ; O ",
"O O ..U ..@.c c @.f f 3.,XG.G.O O O |.c.O O O O O |.c.O O O O O |.c.O O O O O |.c.O O O O |.c.O O ,XG.G.t.5 e f e ; # # e 5 ; O ",
"O O ..U ..U A c f 5 c 3.,XG.G.O O O |.c.O O O O O |.c.O O O O O |.c.O O O O O |.c.O O O O |.c.O O ,XG.G.t.f e 5 e ; # # 5 5 ; O ",
"O O @.U c c c U 5 $ $ 3.,XG.G.O O O |.c.O O O O O |.c.O O O O O |.c.O O O O O |.c.O O O O |.c.O O ,XG.G.t.f 5 e ; e ; ; ; ; ; O ",
"O O @.U e 5 c 5 U $ $ 3.,XG.G.O O O |.c.O O O O O |.c.O O O O O |.c.O O O O O |.c.O O O O |.c.O O ,XG.G.t.f ; 5 ; ; ; ; 5 5 ; O ",
"O O U U c c 5 c ; 5 ; 3.,XG.G.O O O |.c.O O O O O |.c.O O O O O |.c.O O O O O |.c.O O O O |.c.O O rXE.G.t.e 5 ; 5 ; 5 5 5 5 5 O ",
"O O U A 5 5 5 5 5 5 5 3.|.G.G.|.|.,X,X,X,X,X,X,X,X,X,X,X,X,X,X,X,X,X,X,X,X,X,X,X,X,X,X,X,X,X,X,XrXrXE.G.t.f f 5 5 5 5 5 5 5 5 O ",
"O O f f f f f f f f f 3.E.G.G.G.G.G.G.G.G.G.G.G.G.G.G.G.G.G.G.G.G.G.G.G.G.G.G.G.G.G.G.G.G.G.G.G.G.E.E.G.t.f f f f f f f f f f O ",
"f f f f f f f f f f f c.t.t.t.t.t.t.t.t.t.t.t.t.t.t.t.t.t.t.t.t.t.t.t.t.t.t.t.t.t.t.t.t.t.t.t.t.t.t.t.t.t.f f f f f f f f f f f "
};
