/* XPM */
static char *ZDOORB1[] = {
/* columns rows colors chars-per-pixel */
"128 128 39 1 ",
"  c #CBCBCB",
". c white",
"X c #EFEFEF",
"o c #434343",
"O c gray34",
"+ c #5B5B5B",
"@ c yellow",
"# c #070707",
"$ c gray50",
"% c #AF7B1F",
"& c #232B0F",
"* c gray75",
"= c LightGray",
"- c #0F1700",
"; c #4B371B",
": c #C39B2F",
"> c black",
", c gray67",
"< c #E7E7E7",
"1 c #874307",
"2 c #732B00",
"3 c #232323",
"4 c #5F4323",
"5 c #FFFF47",
"6 c #332B13",
"7 c #A7A7A7",
"8 c #777777",
"9 c #838383",
"0 c #939393",
"q c gray39",
"w c gray28",
"e c #B7B7B7",
"r c #6F6F6F",
"t c #1B1B1B",
"y c #2F2F2F",
"u c #DFDFDF",
"i c gray42",
"p c gray23",
"a c #373737",
/* pixels */
"tttttttttttttttttttttttttttttttttttttttttttttttttttttttttttttttttttttttttttttttttttttttttttttttttttttttttttttttttttttttttttttttt",
"ttaaaaaaaaaaaaaaaaaaaaaaaaaaaaaaaaaaaaaaaaaaaaaaaaaaaaaaaaaaaaaaaaaaaaaaaaaaaaaaaaaaaaaaaaaaaaaaaaaaaaaaaaaaaaaaaaaaaaaaaaaaaapt",
"tyqqqqqqqqqqqqqqqqqqqqqqqqqqqqqqqqqqqqqqqqqqqqqqqqqqqqqqqqqqqqqqqqqqqqqqqqqqqqqqqqqqqqqqqqqqqqqqqqqqqqqqqqqqqqqqqqqqqqqqqqqqqqpt",
"tyrrrrrrrrrrrrrrrrrrrrrrrrrrrrrrrrrrrrrrrrrrrrrrrrrrrrrrrrrrrrrrrrrrrrrrrrrrrrrrrrrrrrrrrrrrrrrrrrrrrrrrrrrrrrrrrrrrrrrrrrrrrrpt",
"tyrr88888888888888888888888888888888888888888888888888888888888888888888888888888888888888888888888888888888888888888888888888pt",
"tyr8999999999999u 89999999999999u 89999999999999u 89999999999999u 99999999999999u 89999999999999u 89999999999999u 899999999999pt",
"tyr8999999999999e0r8999999999999e0r8999999999999e0r8999999999999e089999999999999e0r8999999999999e0r899999999999970r89999999999pt",
"tt897777777777778qr80777777777778qr80777777777778qr807777777777799807777777777778qr80777777777778qr80777777777778qr80777777777pt",
"tt89eeeeeeeeeeee08880eeeeeeeeeee08880eeeeeeeeeee08880eeeeeeeeeee09900eeeeeeeeeee08880eeeeeeeeee708880eeeeeeeeeee08880eeeeeeeeept",
"tt89eeeeeeeeeeee70007eeeeeeeeeee70007eeeeeeeeeee70007eeeeeeeeeee70007eeeeeeeeeee70007eeeeeeeeee770007eeeeeeeeeee70007eeeeeeeeept",
"tt87        iwwwwwwwwwwwwwwwwwwwwwwwwwwwwwwwwwwwwwwwwwwwwwwwwwwwwwwwwwwwwwwwwwwwwwwwwwwwwwwwwwwwwwwwwwwwwwwwwwwwwwwq7         wt",
"tt87        iwwwwwwwwwwwwwwwwwwwwwwwwwwwwwwwwwwwwwwwwwwwwwwwwwwwwwwwwwwwwwwwwwwwwwwwwwwwwwwwwwwwwwwwwwwwwwwwwwwwwwq7u         wt",
"tt87        iw u           7777770000000008888888888888888888888888888iiiiiiiiiiiiiiiiiiiii8i8888888888888888888880uu         wt",
"tt87        iw......XX.XXXXuuuu uu          e7ee777007000090998998888888888rrrrirriiirrirr88888889899999000777ee7eeuu         wt",
"tt87  ..e   iw.......X.XXXXuuuuu          eeeeee777707000099999888888888888rrrrriiiiiiri8r888888899999900777777eeeeuu   ..e   wt",
"tt87  . 0   iw..........XXXXXXuuuu u         eee7e7777700000099998988888888888rrrririiiiir8r8888888899990000007777euu   . 0   wt",
"tt87  708e  iw..........X.XXXXXuuu uu          e7ee7777070000009989988888888888rrrirriiiirirr888888888999990007777euu   708e  wt",
"tt87  e07ee iw..........XXXXXXuuuuu u        e eeee777700000099099888888888888rrrrriiiiiiri8r888888899899900707777euu   e07ee wt",
"tt87   eee  iwu............XXXXuXuuuu        e  eee7e77777000090999988888888888r8rrrriiiiiiir8888888898999900000777uu    eee  wt",
"tt87        iwu..............XXXXXuuuuuu           eee7777770000009999988888888888rrrrrriiiirirr8888888889999900077uu         wt",
"tt87        iwu............XX.XXXXuuuu u        e eeee777700700099099898888888888rrrrriiiiiirr8rr888888998999907007uu         wt",
"tt87        iwu.............X.XXXXuuuuuu           eee7777707000099999988888888888rrrrrriiiiiii88888888899999900000uu         wt",
"tt87        iw ................XXXXXXuuuu u        e eeee7777770000099998988888888888rrrrrriiiiii8r8888888899990907uu         wt",
"tt87        iw7................X.XXXXuuuu uu       e eeeee77700700009099899888888888rrrrririiiirrirr888888898999907uu         wt",
"tt87        iw7XXX.............XXXXXXuuuuu         e  ee77e77700000099099888888888888rrrrrriiiiiri88888888899899900uu         wt",
"tt87        8w7X.X................XXXXuXuuuu          ee eee7777700009099998988888888888rrrririiiiii888888889899990uu         wt",
"tt87        8w7XXX................X.XXXXXuuuuuu         eeeee777707000000998998888888888rrrrirriiirrirr888888888999uu         wt",
"tt87        iw0XXXX.X.............XX.XXXuuuuu u          ee7e777700700099099898888888888rrrrriiiiiirr8r888888899899uu         wt",
"tt87        iw0XuXX.X..............X.XXXXuuuuuu          eeeee777707000090999989888888888r8rrrririiiiir888888889999uu         +t",
"tt87        iw0XXuXX...................XXXXXuuuu u         eeeee7777770000099989988888888888rrrirriiiiri8r888888889uu         +t",
"tt87  ..e   iw0uXuXXXX...............XX.XXXXuuuu uu          e7ee77700700009099898888888888rrrrririiiirrirr88888889uu   ..e   +t",
"tt87  . r   qw0uuuuuXXXX..............XXXXXXuuuuu          eeeeee777707000090999988888888888r8rrrriiiiiri8888888889uu   . 0   +t",
"tt87  7rqe  qw9uuuXXuXX.X................XXXXuXuuuu u         eee7e7777700000099999988888888888rrrrrriiiiii88888888uu   708e  +t",
"tt87  e07ee qw0uuuuXXXXXX................X.XXXXXuuu uu          e7ee777707000090998998888888888rrrrirriiirrirr88888uu   e07ee +t",
"tt87   eee  qw9u uuuuuXXXXX..............XX.XXXuuuuu u        e eeee777707000099999888888888888rrrrriiiiiirr8r88888uu    eee  +t",
"tt87        qw9u  uuuuXuXX.XX.............X.XXXXuXuuuu        e  eee7e7777700000099998988888888888rrrririiiiir88888uu         +t",
"tt87        qw9 u uuuuXXXXX...................XXXXXuuuuuu           eee7777070000009989988888888888rrrirriiiirirr88uu         +t",
"tt87        qw9    uuuuuuXXXX...............XX.XXXXuuuu uu       e ee77777700000099099888888888888rrrrririiiirr8rr8uu         +t",
"tt87        qw9      uuuuuuXX.XX.............X.XXXXuuuuu           eeeee777777000090999988888888888r8rrrriiiiiii888uu         +t",
"tt87        qw9    u uuuuXXuXX.X................XXXXXXuuuu u         eeeee7777770000009999988888888888rrrrrriiiiii8uu         +t",
"tt87        qw9      uuuuuXuXXXX................X.XXXXXuuu uu      e   e7ee777007000990998988888888888rrrririiiirriuu         +t",
"tt87        qw8       u uuuuuXXXXXX.............XXXXXXuuuuu          eeeeee777707000099999988888888888rrrrrriiiiiriuu         +t",
"tt87        qw8       u  uuuuXuXX.X................XXXXuXuuuu           eee7e7777770000099998988888888888rrrririiiiuu         +t",
"tt87        qw8          uuuuXXXXX...................XXXXXuuuuuu          e7ee777007000090998998888888888rrrrirriiiXX         +t",
"tt87        qw8eee       uuuuuuuXXXX.X.............XX.XXXuuuuu          e eeee777700000099099888888888888rrrrriiiiiXX         +t",
"tt87        qw8eeee         uuuuuuXX.X..............X.XXXXuuuuuu        e  eee7e77777000090999988888888888r8rrrriiiXX         +t",
"tt87  ..e   qw8eee        u uuuuXXuXX...................XXXXXuuuuuu           7ee7777070000009999988888888888rrrrrrXX   ..e   +t",
"tt87  . q7  ww8eeee e       uuuuuXuXXXX...............XX.XXXuuuuu u        e eeee777700700099099898888888888rrrrrir..   . 0   +t",
"tt87  7rq0  ww877eeeee         uuuuuuXXXX..............XXXXXXuuuuuu           eee7777707000099999988888888888rrrrrr..   708e  +t",
"tt87e e000e ww8ee7eeee          uuuXXuXX.X.................XXXXXuuuu u        e eeee7777770000099999988888888888rrr..   e07ee +t",
"tt87ee eee  ww87e7eeee        uuuuuuXXXXXX...............XX.XXXXuuuu uu       e eeeee777007000090998998888888888rrr..    eee  +t",
"tt877ee     ww87777eeeeee       u uuuuuXXXX...............XXXXXXuuuuu         e  ee77e77700000099999888888888888rrr..         +t",
"tt8077ee    wwi7777e7eeeee      u  uuuuXuXX.XX...............XXXXuXuuuu u        ee eee77777000000999989888888888r8..         +t",
"tt80077ee   ww87707eeeeee        u uuuuXXuXX.................X.XXXXXuuu uu         eeeee777707000000998998888888888..         +t",
"tt800077ee  wwi0007777eeee e        uuuuXuXXXX...............XX.XXXuuuuu u    77777777777777770$io99099898888888888..         +t",
"tt8000077ee wwq000777777eeeee         uuuuuuXX.XX.............X.XXXXuXuuuu    7OOOOOOOOOOOOOOOOOo#r9099998888888888..         +t",
"tt80000077eewwq0707777ee7eee        u  uuuXXuXX.X.................XXXXXuuuuuu 7OOOOOOOOOOOOOOOOOo#r0009999998888888..         +t",
"tt800000077ewwq00000777e7eeee        uuuuuuXuXXXX.X.............XX.XXXXuuuu uu7OOO$yOOOOOOOOO$yOo#r0009099899888888..         +t",
"tt8000000077wwq999070777777eeeee       u uuuuuXXX.X..............X.XXXXuuuuu  7OOOyooOOOOOOOOyoOo#r0000@@@@@@188888..         +t",
"tt8000000007wwq9990700707ee7eeee       u  uuuuXuXX.X................XXXXXXuuuu7OOOOOOOOOOOOOOOOOo#r0000@@@@@:1r8888..         +t",
"tt8000000000wwq99900000777eeeeee          uuuuXuXXXX................X.XXXXXuuu7OOOOOOOOOOOOOOOOOo#r07001@@@@%;wr888..         +t",
"tt8000000000wwq99990907077777eeee e       uuuuuuuXXXXX..............XXXXXXuuuu7OOOOOOOOOOOOOOOOOo#r00002@@@@;&3wr88..         +t",
"tt8000u 8990wwq88999907007777e7eeeee         uuuuXuXX.XX...............XXXXuXu7OOOOOOOOOOOOOOOOOo#r77700@@@@-33wrr8..   ..e   +t",
"tt8000e0q890wwq99899900000777ee7eee        uuuuuuXXXXX...................XXXXX7OOOOOOOOOOOOOOOOOo#r77777:@@@-wwwir8..   . 0   +t",
"tt87008qq800wwq898999900077777e7eeee e        uuuuuuXXXX...............XX.XXXX*OOOOOOOOOOOOOOOOOo#r77700@@@@-9iiir8..   708e  +t",
"tt8770088800wwq8888899990000077777eeeee         uuuuuuXX.XX.............X.XXXX*OOOOOOOOOOOOOOOOOo#r77770@@@@-09iir8..   e07ee +t",
"tt8777000000wwq88899899990000777ee7eeee       u uuuuXXuXX..................XXX*OOOOO@@@:%%1&OOOOo#iee777:@@@-009ir8..    eee  +t",
"tt87e7700000wwq888899999900777777e7eeee e       uuuuuXuXXXX................X.X=iiOOO5@@@:%2&oOOOo#ieee77:@@@-0009r8  e        +t",
"tt87ee770000wwq888888899990000077777eeeeee       u uuuuuuXXXXX.............XXX=$iOOO5%>>>y;&yoOOo#ie77e7:@@@-7009r8ee7e       +t",
"tt87 ee77000wwq888888898999990007777e7eeee       u  uuuXXuXX.X................<$$OOO@%>##y;&yoOOo#ie eee:@@@-0000r8ee77e      +t",
"tt87  ee7700wwq888888899899900777707e7eeee          uuuuXXXXXX................<0$iOO@%>##o;&toOOo#i eeee:@@@-0700r8ee77e      +t",
"tt87   ee770wwq888888889899990000077777eeeeee       u uuuuuXXXX.X..............70iOO@%>##O;&toOOo#i  ee7:@@@-7070r8ee77e      +t",
"tt87    ee77wwqrrr888888888999990007777e7eeeee      u  uuuuXuXX.X..............*7$iO@%#yy$;&#oOOo#i  eee%@@@-7070r8ee07e      +t",
"tt87e    ee7wwqr8r888888899899990000777eeeeee        u uuuuXXuXX...............=*0iO@%yO$0;&#yOOo#i    e%@@@-7777r8ee07e      +t",
"tt87,e    eewwqrrr888888889899990907777777eeee e       uuuuuXuXXXX.............=*0$O:%124;;&>yOOo#i     %::%-e770r8ee07e      +t",
"tt87e,e    ewwqrrrr8r88888888999990000007777eeeee         uuuuuuXXXX...........=*7$O&&&&&&&&>yOOo#i    e%%%%-e777r8ee07e      +t",
"tt87 e,e    wwqrirr8rr88888889899990000777ee7eee           uuuXXuXX.X..........=*7$iOoytt#>>>yOOo#i     %%%%-ee77r8ee07e      +t",
"tt87  e,e   wwqrrirr88888888898999900077777e7eeee        uuuuuuXXXXXX..........=*70iiOOOooyyyyOOo#i     %%%%-eee7r8ee07e      +t",
"tt87  ..ee  wwqirirrrr8r88888888999990000777777eeeee       u uuuuuXXXXX........==70$iOOOOOOOOOOOo#i    21111;4ee7r8ee07e..e   +t",
"tt87  . 0,e wwqiiiiirr8rr88888889899999000777ee7eeee       u  uuuuXuXX.XX......<=*0$$iOOOOOOOOOOo#i    ;2222;&ie7r8ee07e. 0   +t",
"tt87  708e,ewwqiiirrirr8r888888899999900777777eeeeee        u uuuuXXXXX........<<=70$iiOOOOOOOOOo#iuu  &;44;6&wi7r8ee07e708e  +t",
"tt87  e07e,,wwqriiirirrrr8r8888888899990000007777eeee e        uuuuuuXXXX......<==*70$iiOOOOOOOOo#i uu 8&&&&&3wwir8ee07ee07ee +t",
"tt87   eeee,wwqrriiiiirrr8rr888888888999990007777e7eeeee         uuuuuuXX.XX...=**=*70$iiOOOOOOOo#iu    00w333wwir8ee07e eee  +t",
"tt87       ewwqrriiiiirirr8r888888899899900707777ee7eee        u uuuuXXuXX.X...*77*=*70$iiOOOOOOo#iuuu u  0iwwwiir8ee07e      +t",
"tt87        wwq8rriiiirirrrr8888888898999900000777e7eeee         uuuuuXuXXXX..<700.7=*70$iiOO$yOo#iuuu uu  08qi88r8ee07e      +t",
"tt87        wwqirrrriiiiirrrrrr88888888899999000777777eeeee       u uuuuuXXXXX<0$$Oi*=*70$iiOyoOo#iuuuu     08rr8r8ee07e      +t",
"tt87        wwqii8rrriiiirirr8rr88888899899990700707ee7eeee       u  uuuuXuXX.<$$$$07*=*70$iiOOOo#iuXuuuu    08r888ee07e      +t",
"tt87        wwq8ii8rriiiirrrrr88888888899999900000777eeeeee          uuuuXXXXX<O##################iXXXuuuuuu  78888ee07e      +t",
"tt87        wwq88iirrrriiiiirrrr8r8888888899990907077777eeeeee       uuuuuuuXXXX,99iiiiiiiiiiiiiiiiXXuuuuu u   7088ee77e      +t",
"tt87        wwq888iirrrrriiiiirr8rr888888898999907007777e7eeeee         uuuuuuXXXX..............X.XXXXuuuuuu    708  77e      +t",
"tt87        wwq8888ii8rriiiirrirr88888888899899900000777eeeeee        u uuuuXXuXX...................XXXXXuuuu u  77  7e       +t",
"tt87        wwq88888iirrriiiirirrrr888888889899990007777777eeee e       uuuuuXuXXXX...............XX.XXXXuuuu uu  eXX7        +t",
"tt87        wwq888888iirrrriiiiiirrrrr88888888899990000007777eeeee         uuuuuuXXXX..............XXXXXXuuuuu     XX         +t",
"tt87        wwq9888888ii8rriiiirrirr8r888888899899990000777ee7eeee          uuuXXuXX.X................XXXXuXuuuu   ..         +t",
"tt87  ..e   wwq98888888ii8rriiiirrrrrr8888888899999900077777e7eeee        uuuuuuXXXXXX................X.XXXXXuuuuuu..   ..e   +t",
"tt87  . 0   wwq988888888iirrrriiiiirrrr8r8888888899999000077777eeeeee       u uuuuuXXXX...............XX.XXXuuuuu u..   . 0   +t",
"tt87  708e  wwq9999888888iirrrriiiirirr8rr888888898999990007777e7eeeee      u  uuuuXuXX.XX.............X.XXXXuuuuuu..   708e  +t",
"tt87  e07ee wwq99899888888ii8rriiiirrirr88888888899999900777707eeeeee        u uuuuXXuXX...................XXXXXuuu..   e07ee +t",
"tt87   eee  wwq999888888888iirrriiiirirrrr888888888899990000007777eeee e        uuuuXuXXXX...............XX.XXXXuuu..    eee  +t",
"tt87        wwi0999989888888iirrrriiiiiirrrrr88888888899999000777777eeeee         uuuuuuXX.XX.............XXXXXXuuu..         +t",
"tt87        wwi00999899888888ii8rriiiirrirr8r888888899899990707777ee7eee        u  uuuXXuXX.X................XXXXXX..         +t",
"tt87        wwi709999898888888ii8rriiiirrrrrr8888888898999900000777e7eeee        uuuuuuXuXXXX................X.XXXX..         +t",
"tt87        wwi7090999988888888iirrrriiiiirrrrrr88888888999999070777777eeeee       u uuuuuXXXXXX.............XXXXXX..         +t",
"tt87        ww800000999999888888ii8rrrriiirirr8rr88888889899990700707ee7eeee       u  uuuuXuXX.X................XXX..         +t",
"tt87        wwi700709999899888888ii8rriiiirrrrr88888888899999900000777eeeeee          uuuuXXXXX...................X..         +t",
"tt87        ww87700099999888888888iirrrriiiiirrrr8r8888888899990907077777eeee e       uuuuuuuXXXX.X.............XX...         +t",
"tt87        ww877700000999989888888iirrrriiiiiirr8rr888888888999907007777e7eeeee         uuuuuuXX.X..............X...         +t",
"tt87        ww8e77770700999899888888ii8rriiiirrirr8r888888899899900000777ee7eee        u uuuuXXuXX.X.................         +t",
"tt87        ww8e777700099999888888888ii8rrriiirirrrr8888888898999900077777e7eeee e       uuuuuXuXXXX.................         +t",
"tt87        ww8e7777000000999988888888iirrrriiiiirrrrrr88888888899990000077777eeeee         uuuuuXXXXX...............         +t",
"tt87  ..e   ww8eeee77777700999999888888ii8rriiiiirirr8rr88888899899990000777ee7eeee          uuuuXuXX.X..............u  ..e   +t",
"tt87  . 0   ww8ee7ee77700099999898888888ii8rrqiiirrrrr88888888899999900777777e7eeee        uuuuuuXXXXXX..............uu . 0   +t",
"tt87  707e  ww8eee77777700009999988888888iirrrqqiiiirrrr8r8888888899990000077777eeeeee       uuuuuuuXXXX.............Xuu708e  +t",
"tt87  e77ee ww8 eeee7e77777000999989888888ii8rrqiiiiiirr8rr888888898999990007777e7eeeee         uuuuXuXX.XX..........XXuu07ee +t",
"tt87   eee  ww0  eee7ee77700009999898888888iirrrqiiirrirr88888888899899900777707eeeeee        u uuuuXXuXX............XXXuuee  +t",
"tt87        w8  XXXXXXXXXXXXXXXXXXXXXXXXXXXXu    uXXXXXXXXXXXXuuuuuuXXXXXXX..........................................XXXXuu   +t",
"tt87        87  XXXXXXXXXXXXXXXXXXXXXXXXXXXXu    uXXXXXXXXXXXXuuuuuuXXXXXXX..........................................XXXXXuu  +t",
"tt87                                          e7e      ee770000000000077ee                                     uuXXXXXXXXXXuu +t",
"tt87                                           e7e      ee770000000000077ee                                     uuXXXXXXXXXXuu+t",
"tt87                                            e7e      ee770000000000077ee                                     uuXXXXXXXXXXu+t",
"tt87            ..e             ..e             ..7e      ee7700u 899000077ee   ..e             ..e             ..uuXXXXXXXXXX+t",
"tt87            . 0             . 0             . 07e      ee770e7r890000077ee  . 0             . 0             . 0uuXXXXXXXXX+t",
"tt87            708e            708e            708e7e      ee778qr8000000077ee 708e            708e            708euuXXXXXXXX+t",
"tt87            e07ee           e07ee           e07ee7e      ee708880000000077eee07ee           e07ee           e07eeuuXXXXXXX+t",
"yy87             eee             eee             eeeee7e      ee700000000000077eeeee             eee             eee  uuXXXXXX+y",
"yy80                                                 ee7e      ee770000000000077ee                                     uuXXXXX+y",
"oooooooooooooooooooooooooooooooooooooooooooooooooooooooooooooooooooooooooooooooooooooooooooooooooooooooooooooooooooooooooooooooo",
"oooooooooooooooooooooooooooooooooooooooooooooooooooooooooooooooooooooooooooooooooooooooooooooooooooooooooooooooooooooooooooooooo"
};
