/* XPM */
static char *ZIMMER1[] = {
/* columns rows colors chars-per-pixel */
"64 128 43 1 ",
"  c #2F371F",
". c #3F472B",
"X c #373F27",
"o c #474F33",
"O c #53573B",
"+ c #1B1B1B",
"@ c #232B0F",
"# c #332B13",
"$ c #43331B",
"% c #13230B",
"& c #5B6347",
"* c #0F1700",
"= c #2B230F",
"- c #1F170B",
"; c #473323",
": c #2F2F2F",
"> c #131313",
", c #232323",
"< c #676B4F",
"1 c #372313",
"2 c #4F3B2B",
"3 c #574333",
"4 c #3F2B1B",
"5 c #434343",
"6 c #373737",
"7 c #5F4B37",
"8 c #0B0B0B",
"9 c #67533F",
"0 c #6F7357",
"q c gray23",
"w c #171F07",
"e c #272727",
"r c #3F2F17",
"t c #6F5743",
"y c #4F3B23",
"u c #675333",
"i c #775F4B",
"p c #7B634F",
"a c #775F3F",
"s c #836B4B",
"d c #533F2F",
"f c #7B7F63",
"g c #5B472B",
/* pixels */
"XooO.+:.X O w@ .. =. 6.o&oO.oo X%@X%@-@ .@1;oO.#.  2X X %@>+.$&&",
".XX2@ .XoX#XXXXOo.XXXO. = X+++ @ +X@@@ @X . ++o ooXuOO.O  #@+@+.",
"oo2 @....@ X oOO =@%#  X+ +$.XX..@XXX#Oo.O. . ..++@ OO0O<X. .X++",
"O<X+ XOO @   OOX %+-X# e XX.O.Xo. oX@O..Oo.o...X = +*+ XX.O3. o.",
"o$+X.oo. X 6O. %   X X  XOoO.O.r. @+@oo#o.oO1OXoXoX. X@++@oo.ooX",
".+  Xo#+. @o    X#&7o.OOOoo.. @+#+*. +>++++. #OO<< o ...X+++# OO",
"+#.X..@-+ . . @.-oO#..  X@@++@+#@X%. .#oXX oo+* @oOi..$.o  ;+>+ ",
" . O.    &O + #oO O@ @ ++ @X . 4%..-O XO#X .o.X e>+@oo<.O..X# +*",
"XX..$ :1 % + @Xo..@+  .@o..X2oX o=oo.O.+O1.0 OoO  .++++XoO*oo.XX",
" X.$,+o.o #+. OX + XO.oO.&OX< # X X+ ..X+ OOO.O...7%o% *++O9   X",
"o..@ O.X @XXX&X #X.OoOOOo..$X -+*+X#+@...:+++$.&o.5o-O*O  >*%Ooo",
".# @. &.+@ X o* .XOo.o# ++->+*  @.@... .@o.X ++*,OO<o ...X  ++ .",
". , .O.X@# . .-..o..++@X.  7# .o  Oo$oO oXo@.oXX%>@+=OO..  o.o+*",
" +#XO&o .#OO@@ @. .#+X X@  O OOoO X. @-X.o&oOo.O  X#>*-X. ....%X",
"+#.OO.@X$oX  + O.@+  =.O<$ooo....=@#..+*>+ O&fO..  $   >*+ooO.#.",
"$.#Oo@ .OO ++o  X.oO &&o.@*+ *++ X%.oo-%%@+*, .&<Oo..oX% +*+.OOo",
"X#. @@X&$# +Xo#.<OO##.X#++  X  X:O%o..#4   q.++++o.O&.-oo o >+oo",
"o&o+@oOo @+.@=-OOO.#O.+@ X  O.Xo.O&O@-oO#.oO.X. X++@ .ooO.XXX + ",
".# ...  X4 X oo %O. +  o.O Oo&&&..O# +X#,XOo ooXoO$@+>@ @X. X.X ",
" X@ .X@*+ oO%+X .-X*XoOoX o.,:  X OoOXX*+ +O.OoOO.Xo.  ++@O..oX.",
"+@.oo  *%X#.#o%o #o.OOO#+%+@   @ :o-o$ 7  ++* #OXO@. .XX.++#:O7.",
"  .OX.+ XoOy .OO OOOo . :@.$.X X..Xoo&oOX..X@+++*Xo.O.#..X +++oo",
"XX ..XX 5%$  ;.OO@ ...3X .Xo..oO.ooOXO.<O.#OXX. @+=+$Xoroo . #8@",
".X.. @ O.+-+ X.@@ .:$.  OoXq&O@..o.o.OooO&&. 1. o .= ++X.OX..X  ",
"O..#@.&.X X o#@XXX..oO.o. @++>@++$.o..O$. # ...soo$  @@>@.#o. . ",
".1.: OOo   OOoo  oOO#O +@ ,+.X    :+X- X% +@8++X O oX=  +@@XOoo.",
"X.oXOOOoO# #o.o@O&oO# X   Xo.....X.@ ; * 5XOX..%.%.oo   1= ++X .",
"@@..OOOX....X @  .% .X ;&OuoOOOooOOqO&0O.X%.O.O.XX1X=1#XXoX  @+.",
" ..0&%@O.O:8*+ .@@#.4XOo.o.-  @  X..O&oOoo@o&&o..X #+% #Xr...X  ",
"X..<= +#Oo. .oXo.  o  . @+*++@ ++>+ X%o.. *.. X.# X#@.X  X#OXO3$",
"  XX# :@0XOo tOOso.;.$@  X.%XoXX  X%+-+.@@+++@ +#==  . @++.XoOo.",
"OX#%X# ..o&o.oo.o;# +  O o O0XO9....o..@+$.oX .O.oX.o.X. =+@ ..#",
"O O .oOO X@ X$ >+   #XX*XO@.ooo.o.ooOo.OO.Oo<O&&Ooo.X.#.o1   @o ",
".o o.OX# %.  e.o#.5o.Xo3X# @+@+++..3oO<O&O... = 1   X$# OO.X o$+",
"oo.$o$*+$ oXO.OoXO.OooX @++ X#X. ++- O #.=O X++8>*++@,## XX.o#..",
"o..=+8-##*OOoo.ooO.o$  >$ XX XXoO    +++++8+* O.= X  e,+++- Oqoo",
"+* X*#. #o.&&O#X.# ;+, XXoO.o<OO<oOoX... .O  =.#o Oo.O.X %+@=Xoo",
" :.X XOOXXX#+++ +5.  .XXoOo  # X O<O 9.. O.=OO #Oo7.OXXro.o-++# ",
" .=.O.#   ++ .X.$  X.X.oX# >*+>*+   XXoo #@##.@.+ @+.XXoO.oXX%+=",
"#O..#  +@+=OoX.OOo..&. X#,+r ;.X.X  X ..#***>+8+++@4@>+XX#Xo#.  ",
"O *+8:.o#*OXooXoyXo.= #>%.X% .oo##X   +@ :@  ==#XX#O6 @+++  O@9.",
"+- XOoOO&.&o.OXX%+X#X+#XX o..oo9o@.....OOOX..@  XoO<.Oo@#X+@#  .",
"@- ,.XX<&. #++>#  .X@..ooXOoX   ooOO..OOO.Xoo &.o#.X.O&O X +- o.",
"  .o 3.-X@*+ -  o..OO Oo..O +  @++++@ +X4.oO==%   >>+#Oo. ..@ .$",
"OO @ +++ . 5-.X.Ooo.oO@.. +@6. ...=X.X#  ++88+++  5 X+#....o.X #",
"@ +*>  X#o@&0oo.XX X #.X+4X...oX o . .  X@X@@X .X.Xo o +@@, #1  ",
"*++;  ,X@p<=OoX++@ ; @@  @#.$..o.OO&oX.oX.@+X....ioO0o.oX@@..1#o",
"X#+.@oOOX:.++>+ XX XX ;....Xoo2X  X4X..oO< &o.. .o....o.X.Xo$. X",
"..OO.O.X+++*.#o1 o$.oX.X;oy. X ; # e  @++@ X @X;X%>+++@X. .   X ",
" X.##>*+  5.O oOo$o     %ooXX+#.3X.XX3XX ++-+  X..2X X XooX :   ",
" w+>>#  o +<.O=. .O + 5OO + +XX.9O.9.O o.$X.   .o.oo. .X   X X .",
"*,# X@..O&Oo=   +@@+ .o @;# XoooO9oo$oOoooo .oo O#Oo.Oo ++X ooX+",
"X@ .tOOoo..#+.@+ #@$XO..X@.XXoo.  +++@X OoX..O...o...&o X X.#o@=",
" &.O.o  @+@;.ooXXXX.. .* ;XO&X  > ;..oX +*+ X@@@..$@+++ oX.OX+X ",
".o .=+>@  .OXX.o. XX@. 5.Xoo  +  Xooo.oXX.+@*  X.O. +=+ .O..+.X#",
";+@>+  # XoO. X.XooXo. $OX o++ .oOo.Ooo. ...  .OOo  X #X.#+@ XX#",
"*+#o X.X.oO  XX#O#&o$..oO %+   Oo..X 2..$ oX.o#.. Xo.  =@++XX  o",
" X.o.o. X % X%+XoO O ;OooX   X.. X++@@+@X  OooO.$ oXr&&*  oX Oo@",
"XoOOXo.X+-+X.X. .oOXX .X #..o&Xo+*  #   +  X  ...#o..X+ 46....+#",
" ...@ @ ;X. @XOOX.  X*X.@  oOo *+#  .OO.. @+ X$..o.#+*X X.Oo +@X",
"$ +@ ..O..%&O& .Xoo.Xo. X . 3+@ . &OOo...O.  @+.# *@@X XOO  >6oO",
"X,XX5.$ .@. . O O.2O o#X .$  +XXXO@X*@@+@.oO.OO.Xo+-  o3.-++XX#.",
"X.oOOoX  oo#,@ o.o .o#X.o    .6..o@-+ @.$..9o&&$. X%.oOo.@#o oO.",
".O&OO2 $@oO    .@#% ;@ $  X+Xoo6 @+  oo 2.Oo.o..,#.&.g2   .X.o @",
"  .OO.$   XoOX:oo#%o#%o@X  ...  + .@OX.O.4 @   @  o @X+  ..OO.$ ",
"X @   X:  XO..= OOOo#XX   OoXX#, =O6OX...    @X+.  #@*=oX.=# +X ",
".5. +#o  # X.O..@X %@    o .@. +.@O# ++4XX.OO.oo o.XO. X #,8+  .",
"OOo.; +X  + @ .# +*-Xo @ o.X. .$X 4 + @4.O&<&OO.Oo.7& o  @..:X &",
"oOOXX.X#XO .oXXOX +#X XX OX%  X#..@++..OO&Oooo@ X..O<oo. .$o.OoX",
"++ooX.#@ .@OX@oO .   X@# Xe X o#= +X #o7.  +-8+++++++# + .Oo.&. ",
"@4> o.X- *@oo   #.OXoX   XX%XX.X% + qO $@++#  .:@. X#,+ .oo7%+@X",
".X = .XXX .#..   @X7XXX X.@$XX.X@oo o@ +@.ooOoOoXoooX..XXX+-+%..",
"O    @.O#Xd* =.    .o . O    .X*@#o..;+.oo9pXOXOo.ooO<@&OoO$XX X",
"O...X=* ..4%X% OX     .O. X oO* @ OX+.. <OOoX4   @XX %#.*Xo..Xo6",
"+ O. XX%@XX .OOX....XXX3XoXX  @.O@1%@ ,OOo +++@@++*++ @@@ X@.o X",
" +$..o.X+% O% # o..X..X@ o#X.+ .#.w+.#O.@@    O X.. .X  + .X;X @",
"X +Xooooo  .#.++#oooX=.o.$  . .o-#@$ O %+Xooo&O.OO<iOooX o *+@X ",
"=X +@..OaX 21#+%.. O X..o X1#  .o+.oO.  X. o .@.oOooXXXX.o.OX$#.",
"<..OX+X&.O#* +XOO  - +. .=   o. o$X=#. +#XX.X ++@+@.#XX@:*X. .X ",
"1. o.$ X.o@= oXO@o   OO.O=O...  o.2OX# -  .#  oOX2 @++@.  ..oX  ",
"+ .OX#X+.@  .&X.O Xo@ oo#@; .XXoX&.OX :  -w O#OO.OO;.X X$:+.. O#",
"X>@O&<o.@@ooO*+@.Oo=O.X. O.o.@..X<* = .X@@ Oo.O#9<OOOOoOX  +X;7 ",
"X  % X oXoo..O. +o.o.O.%#$$.X.Ooo..-oot.; X.X..@.@$ # XXOo6  .X ",
"O..X+ +-.o.@  o #..$X..oX  X.oOo #O.&.o@.@ %.@+.X# ,  $.X..*X  @",
" O.O +  #@X +.O.oOo *.  OXX ..oXX O.0@@ o.+:+. XX.X* X X.X#X.X+@",
".$OOX&O+X #.. oo OO...X o$  ..#X 6Oo$. o$X.  Xo.7.XX...$, .q..% ",
"+  .&o...@.X.X@ .#.OoO ..:o.X  # oo3...OO+@+ Oo.@ oOo @%X.O.o..X",
".X .X  $  2 1X.X .O.X-X## X @  O.oX.@oOX ..  X.$@X   #XX.o .$ XX",
"o....@oXOo.*.. o..X o.XOX#. # + X. .oOO XXX . + XO.$++   O @+ oo",
"Oo.  .5oX *O.@ .OooO X.2XX     XoX...OX.3  .. @@X.$ @#X# .o XXuO",
"XXO&&.oOOO    .ooOO..$ X X..@ X @X  X; #@oO.+.o=O X# $XXX% ... .",
" O#XoO5ooX@XXX  #%.O#X. . .@ ..    ..%OO % - X oX.- =#=#++ .O +@",
" . oO..ooXX#X#oXX#X 3#$.=.O#. .. XX..&1.-O@.o.$o +  #X#*@ O&.o#@",
"=O &X X .$O@ .oO XXX  O . . XX X   ..#@.O-oOoX#  X ..@+ #o...X%X",
"OX O = ;O  .OO.$t.X.$  X .$  @ XXXXXO=@O .o..&+-*# O;#.X   @+X .",
"OXX ;6*X. . . #XO;.$X#@ #, X ..XX$%XoX&oX...O$XX.O.@#X .X$ +#.o.",
"O OXeoo..oo X#5:..XXXO$X@o%Xo .=O  XX.@=X..O  ...#X+.  O#++.:O&.",
"o .o%. =*o.#O.OXXOXo= .; %XX.O.o..o#o...4#.  %X.= +X##1++ .ooO.@",
"X.XXX%#%.;o .oO #+ o XX+# @X#.Oo.<..o:#.%oo ...1#+ X #  #..#.. +",
"oo w%#@*#X.XX  o. .-:X  OXO. XXoOo# X.&.$.X  .X. $.@..X...1X  :o",
"$  X% %+%OOoX.oXo.o ..O.$o&X2# Xu  ..O..%O@O %.$   XXX;, @ @+ %O",
"o..# X 4# XX,$.O OOXXOo3      o oX.oOO X#@#=X.#@X  X @ X  +w.4oO",
"X *@+ XX+oO.O@+.. + Xo $  X..Xo.;XX..O..##@+-X       5Xo$XX#ooo ",
"@OX%@%O@  7OX XXoX X.a@..:XX$X.+ .X..@o o#@%O.@.@OXXo .Xo.#1o.$.",
" o*X+OOO ,oo.4 .%o..X XXXXX X.$X3.oo#% OoX# .,#O   XX##X.## .o.=",
"$ X@Xoo.. .6#O OXXO.o .XXX.X.$ oXOo.XXO 0.OOO@O. ..O#.X##    +@.",
"%*.-X++OO oo.. @XX.3 X oOX...##o.#.#....O o..@@# :.XX     .= # X",
" -@ 1 -qpO#..@X  X.  $X.O .X ..#.   +# . .@X++  X X XO.OX .XX.  ",
"X. XO.o.OOX X.X#XOO..@=Xoo  #O# .oO$ .#+oO.O#. X .o..ooo. # .X o",
"#3==#oO %: O  Oo.X.XoXXOXt.,  @..O..$XXXoOO#+2.o.oOooO$+$ .X X o",
"@.- .  +-X.@o $.  X2.oXX %1@X$XXX. .OX.%.X@=3 :%.. o.. XX X %@@ ",
" #@    XX OoO  ..X @o% #@X .ooo2X#.   .o.$ ..$X7. XX  .. .oOoX@@",
"#  .  ..XOO.X+XOXX .o .X ...oo.$+@OO. X3#.: ...X -4 XX.XX+XOo..w",
"o=.   X&Oo.+  X O&X .#XXO6oo   X$ o .X .q   ,+#@  oXXX XX +# .#=",
":+@# oO o@+X=oO..O X@ X.Oo=@@@ X3%Xo.$@XOX%X     .O.XX XXX@+ oX ",
"# ; ..X +#X..O7O  . XXoy.. @X..O.;+.O.X@XOO..OOoOX.oX XoX.  @@..",
" X  .  + oXO;O.+#   #+O$ +X .oOo..@X o X>%.  oOoXo X X+$#.o$ .$#",
"% #. >+. &.OoX+1    ;o.  .:X   XXoX o.o..@+  @  .  +@#X*. o X+..",
" X X+  XO.O%+*XOX...<o$ X.:.X +@XX. $.ooo.   X+ .$.X.O@=+XXO:.+@",
"XoO%$XXX  +-#.XO=O.@# X##Xo .  XX.  ,#..@ &o  .OOo   X#@ + Ooo$+",
"6.@XXo  %+  .o<=*5+,-X@.o.  @.. O.o .  .X+#oO.o  3.@  .X#  X.$o ",
" XXo..X++ oOOO%X+@X@.XOo@X+@6 X +@.o.. #..  ..#X#XX# @. 5X@X.2X ",
"2O.XXX    o.. -+ ooo.o  $@.X XO.@  #X ooXX.+%O...+oXX#XO2X + ooo",
"O   X..O.&.X@+ 5.Oo.Xo@: .  @OOX @.X. @OO#  @@OOX#X% O@XXoO:+ .O",
".O@q.oOOX. ++..#oOo .X..o X -  .#@oOOo$+ O.Xo# X@X%.,.   7.XX+@.",
"o #XXO.#2@++ +& oO 3. @ ..X* + .oo%o XX@XooOX Od. -*OX.@+.o .X+@",
"  .Xoo#++@o.Oo9O%+@#X=   .o.X X$  @  X..+ o.XXX. o +;...@    O +",
"+..X.@  #.OOo  @+-&.. O  .o .oXX =@+ o.X  ;o..@.OXO.@XXX.++..o6X"
};
