/* XPM */
static char *ZIMMER5[] = {
/* columns rows colors chars-per-pixel */
"64 128 51 1 ",
"  c #473323",
". c #3F2B1B",
"X c #2B230F",
"o c #533F2F",
"O c #4F3B27",
"+ c #332B13",
"@ c #4F3B23",
"# c #5B472B",
"$ c #5F4B37",
"% c #574333",
"& c #1F170B",
"* c #4F3B2B",
"= c #6F5743",
"- c #67533F",
"; c #675333",
": c #4B371B",
"> c #372313",
", c #775F3F",
"< c #43331B",
"1 c #1B1B1B",
"2 c #2F371F",
"3 c #232B0F",
"4 c #775F4B",
"5 c #3F2F17",
"6 c #774F2B",
"7 c #6B4727",
"8 c #2F1B0B",
"9 c #170F07",
"0 c #5F4323",
"q c #7B634F",
"w c #171F07",
"e c #0F1700",
"r c black",
"t c #131313",
"y c #836B57",
"u c #373F27",
"i c #272727",
"p c #432F1B",
"a c #070707",
"s c #836B4B",
"d c #533F1F",
"f c #0B0B0B",
"g c #2F2F2F",
"h c #13230B",
"j c gray31",
"k c #232323",
"l c #8F7753",
"z c #373737",
"x c #434343",
"c c #3F472B",
"v c #474F33",
/* pixels */
"+.3332X.-;#=@.= XOXXX @-%. .X+.-% %O......ooo =++$$+X@.$,+X .X O",
"8+>+X.+ -%:;;o..OO&& %XXXX++%%.+ . X&X+X..0o.& +2$o +-y=;+.+ ..+",
"+ ++2+++ o$O;;# XX+X  Oo4=:.+XXO@$XX>*  XX,@>+X  O% oX$##o  X *.",
".+<  %o@@O@;@,%@%X+*.*X&X O@X@+ @oXXX  2. @o>o@X$.oO& *$:o;@X.+.",
"+2+.o.:#-+&.$#$O++X+.++X* X+.$..$$O+  . ++@.><  @ @+%X *.%;#.X**",
"O- 6#;,#*++o-=,,#. . .++X.2X  &Xo@=%++*j.*o$$XOo@<%X+X***O%, XX.",
"@@=,6% .X+* $$67#O.$o .oo*+  @+&XX$@#.=o++#O#oo  X@1uXXXXX$#o&XX",
";6@7@# oXX. X@o$#  &&OO.@oX+++O  +..o:;@  #o@&&&&+OXX Xg X$:%. .",
"$7=4-+.++X@+ ++$#:%&+o&$ +.@X && Xo XXoO=;#0%O.%  %tO1  % o@. X.",
" #$$#.@X+XX XXX@#O >O%Xoo@.o+.+&o&X&XXX+% @66= .oXOO@oO%$@:%#= o",
"@  <%%o.X+XOX.9.-#..$ >o.+> $*++ +. $o&XX&$#o;Oo-+&&XO*o:%o@$O@=",
"OOoX. o.X>+@X<X $; O.  O@o@$o*+ .+++X 2+X&-  ###$o*X ##;@o $o$o@",
"#=o.*.<@XqO:+* O$=*.. ..>.Xo%Oo +X +<@@@X9&&*o+#-$--.@6$o+++  *O",
".@##o .+OXX O *.#;$. @+X@ X*=X.XX+XX1t $$+X&++-.##y6OO-  . .%X -",
"X+;;#; o .#OO-%@=,@ $oo$.@c*+&%   .2+>.#$o.u+ -+$q=#$O*%X:  %.X ",
"o&-@*oOX oO@#=7,=,+ XX $O@*X3oXX +**%t .X+++.o: ==#%.  %O##-+   ",
"++ X o.X%o&+X X ## o 2+$.o%X& +XO+O--O@..3+.;-# #@o+%XO-.   . X ",
"= XO &*X.->+X*& o..*;    .=++ X@-+.$.< .+#$$#;;O,;#-% $# eX& o.o",
" ++>..o#.   .*>:.+ *;=# $% @$oO-   #X+8>+-4=7$-$$@##;;# eXX*. O-",
" #@@@.$=.X%.>X+$## :;=O;76@#o=,###@ +Xo #O7@6;.X.##:O$:O..+..+ O",
" XXO#%  oo@.>@:::,*.$-:=0:## $o:o#Oo&X. %6,=@OX+ @=Oo$:-+o*++u X",
"% 2XX %..*.o.=.@#, .O +XO&X  XX+X-:#%*#,;#6 -&X&+ o.o  o X 5<+oX",
"X... XX@ *@<ooo##$ O.OO$$&$$&1&i+$O#%-#:.o.++&X2  %6: +o.+.5+ @w",
".+o@%.. o$;:#$$X$%+.O OoOd-.1 .uX$@oO@@o%   <XX$$ oO# +O.o% X &1",
"   .oO>Xo5X+O$#.... .$ :oOo.u :=..OOo  .XX>.7$ .$.#O.O .XX&&o>>.",
"*oo.eo9.O:#;@ . O 8.$ %;6@#%* .O ::#O 9>+X2:6%9$=$7O$#@$X..*@+*%",
"%#     O$.o OO......>  @ O##%-O  -:O4-93 .o#@+$=.;=@ +X o.+$o@ =",
"#@O   @ O:$o==+%-.@##++XX.o$ ##.+*$=q$.. .%X%@$y=$#%.++*o%+.%X% ",
"5oO.&@X#o+ O:$$*-$#O@.@XXX+$o.OOO%#%-$:o%@o O;;,;#*=$O+X Xo%XX%+",
"  Xo.+.   .%==%  .X++ .4@.X&+ #OO#$o #0;#;@@$o;@ .w.$%O %O$.+X:&",
"XX.  @.OXX*o # .XXXX. ;O@+2XO&9+::; #O#,:#;$##+1w.+w*@$.o=.##%:f",
"%.>>. #*u2$$OOO.X++X:;$@ Xo. e+*-XX+5:;::.:::X1&&   O#@o%:;   3+",
"-+>  @@.-$4$@#O  OXX3#6+O@%OXO%=s-#$@&XXX95.1X @ +2+% .-. :-X &X",
"..XXX *o-y=-o%.$o  +&30=;XX   #%#-:-.#=#o* 1.X+.$++X .O= XX+  &%",
"+%X@O$OX =@,;XXOo#$O. @%;@:> #Oo;,# #=,6-%&>> i+...&#.O;4*9&+ & ",
"@. @X# Ow$,,@OX11X*O:-&$$;=X O@  %##:#66@X&XXXo $X>&.:%,Xo +.+X+",
"o  @.X.OO;* XXXX .1.:o$$;#7- =X.%$#70;,OO&.++%o..+X&$$#7@  +X&+1",
"1.%o -@X. @o X&X.   95$-o--y-$ o.o:=7@,$*&++= aXX+.+Oo=O%3XX++X.",
".Xo  .*o+o#X% O@oO+X&XXd5.;,# .@$:O;#0-= *+= aXX.+.  @-+.:o  .X.",
"%X& *Xo@ oo+@@. o@Oo  $5 XoX OO$;;;$;#%=@ %--Oo.*2+++$X%9X>.o .X",
"-XXXX$;.$o X% +&&X%.o5$4-@o  44oo=%$$ o0,;o.- O%%.*X+,+Xh+XXXOX ",
"O.O $;-:X @o 1X&X+  fo@==O. O$;760OX.3.*=# OO .X @-+@@ <&++X>O& ",
" 4@67#;XXX* X&X.++XXXO,,.%o+@,,;#3XXaawo@ $;#o.XX&%@#=:oo+o@@,p*",
" %=@=$.&r14@%X+5.+ XXO###;@#,,0:3Xae+awX o4#,;#o*  @<#@:=<$.o@p+",
"O6X74$&X&O$:$$#O% % .O7;$O##;05Xa<.>.+&a+% X==##-$$@< @O:$<&.O* ",
"o#6O-#+.%#.@#%$.OO$O##4@$#0@;X.+&.O;o  *8XX O#=O#;- @X o%@%*=.O$",
".;%X+r% O; $#@o $$$#,,$%.%##5*.&X.o;$%o*8&&+ $%@$-;-*<.o#@+oOO&.",
":,  r>ooO;#@#$:o;-##:##$O##= .X+i1*,y=$O.&.+ $. *%$--<OoO#O-XXXo",
"###o.X.X$#@#O;##ql6$:@#O.o,;.X+XXX ;=.=$+.  X$ . +O@s@##& %o.$X@",
"=#,#X;-:;-07:=. $:Oo:d;, .4O&X+.>O.#$;$.   @#-X>=*+**@,OOXXXX*.$",
"@ O#O@@#:%$;7$#-@@-:O=,6%;O8& *.XOX*#=7#o%o=# O+#=y *;;@>>%@o% $",
"##OO@#-#O$;$#&@ o o@@.%o #O8+O.+OX.=%@@@@6.O: .+%#6- %:O&+.O@ .X",
"o@O#o%  +O.X.9X  oO#@:0%.##OX# %@*$$. $.#:8po.*  o%.oq0=X+%%+2+X",
".=.@X+*.OXX*.<>>.@=#60.&& @OO.. #@%@++#@  8.@p8X @;:##@o .X+.$--",
"#;  +++XXX>.:.$+ o#O#* &+&O:##@.@$@+.*@ +=O8 8..%#=o.*+#O# X*$+O",
"o$+@-*XX>.o=@$@.o-=;o.X&%&%@.@ -o. X< $. o> .%..%-o9 *XO+###.@@;",
":X+@##.o+@..O%o+.:#= ++hOX@.OO.-.o% *q .  8X.% ..O 9>X.9+OoO#70s",
" ++o:,  .@oo*.Oo#4o$o&+XOX3*. .#O:..+4q-@p8XXoXXo,@&+%@:X.o#@ .o",
"X&+%.;%#+.%  .*$#@%.&&XO. ..O+* @-:  -@p888XO +X.;$& o:oX o%.X.&",
"X++ o#6O-# .%..@#%%X&Xg%@@ . X . $#@o>8&X88X%XX %.O&$@%  @O:++&X",
".++ .6,74$XO+O;:$od;&.>O.o.-X X& oo@>8>XX+8 @+ .$#OXo$+@#@:=+X.%",
"..+2+ =@=$.o$o$OXXXX&XOo @  + .&&@%$ &&@  + $Xo O:.X .-o=:o+&+ z",
".. + -@67#;o O +X&>O>.++@&+>XX>&1.$@ .*@*@o o>...@.+++..@ +XX   ",
"XtO.X&O;$;-:*.+oXo  XX+ @&i1o@++X.-:o %.+  oo o+* #O> %=,+X.%..3",
"3O3iXXX.-;#=@. .XOXXX>X +w1o@+OtX %O..* ++ooo+=++$$+X@.$,+XX  X.",
"X.2*+XO -%:;;o.#,;.: %X><@. .+.. . X>.o X.0o&&%+O$o +-y=;+.+2.+X",
" g++2+++ o$O;;#  %6,= Oo4=:.   O@$XX> o.XX,@>+X  -- oX$##o  X1O+",
".+2  %o@@O@;@,%@%#@7@6<&X O@XX+ @oX1X .   @o><@X-.-O&+*$:o;@Xi.+",
">.+.o.:#-+&.$#$O++-4=7$-$+++.$..$$O+OOOo++@.><  - $+%..*.%;#.&X ",
"O- 6#;,#*+Oo-=,,#. $$#;$o.    &Xo@=%++o@+ o$$+oo@ %X*X  *O%, XXX",
"@@=,6% .XOOX$$67#O.$o;-;:$@. @XXXX$@#.=o++#O#oo  .@&.X+ XX$#oX+X",
";6@7@# oXOX5X@o$#  &+O:,;;$@@+O  >..o:;@  #o@  .p+OXX &  X$:%. .",
"$7=4-+XX+XX5 ++$#:%+>o+#=oo$==o* Xo XXoO=;#0%O.%  %X.3  %:o@. X.",
" #$$#XXXXOX XXX@#O &O%X.o@.o$=y*o&. +XX % @66= .oXOO@oO%$@:%#= o",
"@  +X % +iXOX.9.-#..$ &o..< $@=4 &X..6.X *$#o;Oo-+.&XO*o:%o@$O@=",
"OOoX>. . XX@X<X $; O.  O.+@$o*- ..%tO#; X *  ###$o*X ##;@o $o$o@",
"#=o.* ..Xq.:+* O$=*.& ..+. o%Oo +X=:=--#X9.**o+#-$--.@6$o+++  *O",
".@$=$ .+OXX O *.#;$+X@tX+O+*=X..>. $=4-@$X1&++-.##,6OO-  . .%X -",
"Xo;q4=%o .#OO-%@=,;#$oo$.@X*+.% @ %$$$@,<..*. -+$=y#$O*% :  %.X ",
"o&%-$-OX oO@#=7,=,o XX $O@*X+--o . %$o ...*..o: $;-%.  %O##-+ ..",
"++ X o.X%o&+X X ##;   +$.o%&& +X$oO--*@.2  .;-# #@o+%XO-.   . X ",
"=%XO &*X.->+X*& o.#,$    .=+o oo-o.$.u ++#q$#;;O,;#-% $# .X& o.o",
"or+>X.+#.   .*>:.+o;$=# $% @yoO-oo #X2+ +-4=7$-$$@##;;# .X ** O-",
"rr@@@. =.o%.>X+$## :;=O;76@#4o,###@ +Xo #O7@6;.X.##:O$:Oi$   + O",
".&XO#% X*o@<>5.oo,*.$-:=0:##-oo:o#Oo&X. %6,=@OX+ @=Oo$:-+o ..<  ",
"+ .XX %..O.o.@.5@, .O O%O&t  rrXX-:#%*#,;#6 -+XX+ o.o* o 3.+<+o ",
"X++..XX$4*X<o.oX#$ O OO$$t$$&1&.+$O#%-#:.o.++&X   %6: +o.+.++ @&",
"2+o@%3> $=X:#$<.$%+.O%$oO.-O ..<X$@oO@@o%   <  $$ oO# +O.o% X XX",
"   .oO 2o5& #@,..+  3$ $,O%+. :=..OOo  .X+>.7$ .$.#O. +X. XX @@.",
"*oo.eo9.O:#;--@ O +&$3%;6@,,*#;O%%:#O.1++X2:6%o==$7O$+@+ XX+@X*%",
"%#  eo;#=46#-4$o....> w3 O   .#fo--O.99X*.x#@+==.;=@ +XXoX.$ X$=",
"#@O.eo. oo..==$$-.@#:@+XX. Ooooww$4$@* . .%X%@$yy.#%.++ *++$o.==",
"5XO.&@@:O-$t:$$%-$#O@..XXX+X #O%X  $@o.X..O O;;,q##=$O+X . oo#@o",
"  Xo&+.:& X%==% e.X++ .@o .559X.*=#@ o@.%OX@$o;@ .w%$.O %O$#@;@X",
"XXX  @.OXXX%o# .e+X.. ;O.. :OXe.o:=$ @O##o#$##@1w.+.$.$.o=.##%5+",
"%.+<.<.*ot$OoOO&X1+@o#$@ X..@e+*-:#o ;O=;.#%#.X++X< OX@o%:; $ XX",
"-++  ##.$44###O  OXX@,# O@%OX %=s-#$@#6#=.o.1+ $ +.+% .-. :-%.XX",
"..XXX *o+y=-;%O$o  +X@@@.XX-XO$$q-:-.#=#o* 1.oo.*++X -O$@+%;$:O+",
"++X@O$OX==@,;;#Oo#$O= .##,@  %%@o@. #=,6-%+@@  +Xj.&#%%OO*..1.:@",
"@. >X# O=$,,@OX.+X..:-X%6$7X %#Oooo.O766@X.XXXo $X>f.$%,@.X&.1.o",
"o @+.XXO$;,=@X.+ .&.*.$ #77- =:..%$:OOo Ow%O+%o..+X&$O#7@*X+X&O1",
"1.o+& @$o7;:*+*.+<XX&1$-%--y-$ .o%O77:;%O+*+= aXXXkXO#@#O3..X+XX",
"*O&o+.$;o6#Or&O@oOX1&X1.%$4,# . #:,$77@$. += a+X .*k >>>Xw O *%*",
"%X& $o:;=oo+&+.11@Oo  $5 Xo; o.o;.#6#O7,@$qq-Oo+>.+2+$X%&&.O+ . ",
"-XXX-$;,#. X% X&&X..o.$;-*ooXO#7=O#% :#; $=-% O%#.*X+,+Xh&&...X ",
"XXO;$;-:*.+oX1+XX2 1+1@==o%%.OO7#O. X #;.,$%O .+ +O XX <&+.X>&++",
"r4@67#;o+r9+XX .++>.XO,,$%oO;0,#,Oo& 3o =#O;#o.X*&&XX=:oo++@@OXX",
"-%=@=$..r1 *XX++.+ XXO###;@:,s0oO Xe+aw+  o#,;#o*  +<#@:=<..o@pX",
".6,74$..&X;:$odO% % .O7;$O##=#$O.<.>%..X+X.X==##-$$ < XO:$<&.O& ",
"o#6O-#o.%+.@#%%.OO$O##4@$#0@;O.+X.o;@+>>8Xr+O#=O#;- XsXo%@%@<.O ",
".;%#+r% O;*$#@% $$$#,,$%.%###*X&u@;;$=o 8&&+ $%@4-;o*%Xo#@ .o +%",
":,  r>ooO;#o#4oo;-##oO#$O##= X++31@,y==2*&2+ $.e%@$-#%+oO#70:5:o",
"###o%...O%o+.;##ql6$o55OOo,;.+..2  qy.=$2+< X$ . rw@s:O%#.:+XXX@",
"=#,#.;-:;-07:=. $-Oo.p;,;O4O&X  +2.#.;$.   @#-X>; +w*@,OOX+XX*5d",
"@ ;#>&@#:%$;7$#-@@-.5O#,#;O8&X..+XX##=7#o%o=# O+-y, *;;@>>%+>- :",
"##OOO9##O$<$#&@ o o@@+55+#O89O+++.%=%@@@@6.@: .+%#6- %:O&+2u@ . ",
"o@O#oXX555XX.9X  oO#@3XXX##OX# %@$$$. $.#:8<o.*  o%.oq0=X+%%+2+X",
".=.,X&&999X*.<>X.@=#63eX& @OO%- X..+2++   X-%88X @;:##@o .X+.v-X",
"o;  ++&&XX>.:.$+ o#O*ee&+&O:##+++++.++2++=O. 8..%#=o.*+#O# X*$+X",
"X$+@-*XX>.+=@$>.o-=;*.+&.>%@.@ . .>.+X+X o> .%..%,o9 *XO+###.@@.",
"9o+@##.o&@..O%o+.:#=XX+...%.OO.-.X+ooq++  8&.% ..O 9>X.9+OoO#70X",
"&&+o:,  .@oo3XXo#4o o3++X:  . .##:.%%4q-@p83XoXXo,@&+%@ X.o#@ .t",
"X&+%.;%#+.% X.*$#@%.XX+X>o   +*;#-#  -@p888XO XX.;$& o:oX o%.X.&",
"X2+ o#6O-#X.%..@#%:XX +%.  .+X # $#@o>8XX88X%XX %.O&$@%  @O:++&&",
"X+2 .6,74$X.oO;:$od;1+.O.o.-X  < oo@>8>+X+8 @XX.$#OXo$+@#@:=+XX ",
"..+.+ =@=$.o$o$OXXX>1<@o @  + .oo@%$ >&*  + $Xo O:.X .-o=:o+.. .",
". >X+-@67#;o O +&3>*pp2+@+X&&++&X.$@ Xu.O@o o>.X+@.+++..@ +XX*.3",
".OiXX&O;$;-:*.+oXo$ +*  @X 3< %XX.-:o3..XXXoo o * #O> %=,+X&. +."
};
