/* XPM */
static char *ZZWOLF13[] = {
/* columns rows colors chars-per-pixel */
"128 128 49 1 ",
"  c #430000",
". c #874307",
"X c #5F4323",
"o c #9B5B13",
"O c #2F2F2F",
"+ c #4B4B4B",
"@ c gray23",
"# c #C39B2F",
"$ c #D7BB43",
"% c #AF7B1F",
"& c #4F0000",
"* c yellow",
"= c #5B0000",
"- c gray34",
"; c #43331B",
": c #470000",
"> c #EBDB57",
", c #432F1B",
"< c #372313",
"1 c #670000",
"2 c #232323",
"3 c #434343",
"4 c #272727",
"5 c #FFFF73",
"6 c #7F0000",
"7 c #732B00",
"8 c #373737",
"9 c #2F1B0B",
"0 c #533F1F",
"q c #1B1B1B",
"w c gray42",
"e c #2B230F",
"r c #730000",
"t c #332B13",
"y c #5B5B5B",
"u c #777777",
"i c #4F3B27",
"p c #131313",
"a c #1F170B",
"s c #3F2F17",
"d c #4B371B",
"f c gray50",
"g c #170F07",
"h c #FFFF47",
"j c #9B0000",
"k c #5B0707",
"l c gray28",
"z c gray31",
"x c #4F3B23",
/* pixels */
"OOOOOOOOOOOOOOOOOOOOOOOOOOOOOOOOOOOOOOOOOOOOOOOOOOOOOOOOOOOOOOOOOOOOOOOOOOOOOOOOOOOOOOOOOOOOOOOOOOOOOOOOOOOOOOOOOOOOOOOOOOOOOOO@",
"@@@@@@@@@@@@@@@@@@@@@@@@@@@@@@@@@@@@@@@@@@@@@@@@@@@@@@@@@@@@@@@@@@@@@@@@@@@@@@@@@@@@@@@@@@@@@@@@@@@@@@OOOOOO@@@@@@@@@@@@@@@@@@@@",
"--@@--++++++++++--++++++++++++--++@@++++++++++++++------------++++++++++++++333++++++++++++++++++3333@@8888@@+++----++++++++++@@",
"--@@--++++++++++--++++++++++++--++@@++++++++++++++------------++++++++++++++++++----------------++++++@@OO@@++-------+++++++++@@",
"1&= 1 11&1&1&&1&=1 1 1 =1+++++--+61&=1&1&1&1&&1&= 1 11=&1&&1 ==1==&1&====@+++++-+61&=1&1          & & & &     &  & &&&= 1&1&= 1 ",
"r1611611616611r161161r161&2+++-wjj6rr616616611r1611611616r111116=6161611  @@++-+jj6rr616616611r1611611616rr1611111166161r1r16116",
"1 1 1&111=11= 1 11 1& ==  2O++-wj11==1 11=11= 1 1 1&11111= 1===1 1 11=&1  O@+--@j11==1 11=11= 1 1 1&11111=1 == 1===11 1 1 1 1 1&",
"= = = 1==1=1  = =1=1 1 1  2O++-wj61 1= 1=1=1  = = = 1=1=1  1 &1= 1=1=1&1  O@++-@j61 1= 1=1=1  = = = 1=1=1 = 1= 1 &1== = = = = = ",
" =1= 1== 1 1=  =1= 1  =&  2O++-w66= 1 =& 1 1=  =1= 1==1 1=1== =1 1 = ==&  O@++-+66= 1 =& 1 1=  =1= 1==1 1== 1 1== =1 =&= = =1  1",
"= 1 1&11==11=1= 11== = 1  2O+-ww661=1= 1==11=1= 1 1&11=11= 1 &1 11=111&=  O@+--+661=1= 1==11=1= 1 1&11=11=1 == 1 &1 1 & = = &  &",
"1 = 1 11 1 1  1 =1 1 1 =  2O+-ww611 =1 1 1 1  1 = 1 11= 1  1 &=1== 1 =&1  O@+--+611 =1 1 1 1  1 = 1 11= 1 1 1  1 &=1  ==1 1 = & ",
"= 1 =1==1=11= = 1= 1 = 1  2O+-ww611==1 11=11= = 1 =1==1=1= &=  1 1&1=1&1  O@+--+611==1 11=11= = 1 =1==1=1== 1= &=  11  == = & =1",
" 1 = 1 =1=11=1 1  1 = =   2O+-ww611==1 11=11=1 1 = 1 =1=1  = &1= 1=1=1&1  O@+--+611==1 11=11=1 1 = 1 =1=1 = 1= = &1=11 =&= &=  1",
" = 1 =11=1=1 = = &= =&=   2O+-ww611 1= 1=1=1 = = 1 =11= 1=1&= =1 1 = ==&  O@+-w+611 1= 1=1=1 = = 1 =11= 1== 1 1&= =1== =&= ==  =",
"=1 1== = 1 1===1  =1 1 =  2O3+-w61= 1 =& 1 1===1 1== ==11= = &1 11=111&=  O@+-w+61= 1 =& 1 1===1 1== ==11=1 == = &1  1 1&1 &=  =",
" =1 1 = ==11=1 =1 1 =1=&  2O3+-w661=1= 1==11=1 =1....ooooooooo%%%%%%%%%%ooo@+-w+661=1= 1==11=1 =1 1 = 1 1 1 1  1 &=11= 1&1=1=  =",
"&1  1 == 1 1 1&1  =1== &  2O33-w661 =1 1 1 1 1&..o%%%%%%%%%%o%###$$$$$$$$$$..-w+661 =1 1 1 1 1&1  1 ==1=1==&1= &=  1 1 1&1 &=  =",
"=11 ==  =1=1===11  & &g   2O@3-w661 1 =&=1=1o%%%o.o#$$$$$#%o%$55555555555>#o%%%o661 1 =&=1=1===11 ==  11&&11& 11= 11=1 1&1  =  =",
"                &g g g gg 2O@3++1&         o%%##%..o%>>>$%oo#55555555555>#o%##%%o&                                   &g    gg   ",
"                 g      g22O@3++@       .ooo#%##oXX.o%$$%o.#>>>>>>>>>>>$#XXo##%#ooo.                                            ",
"22222222222222222222qq2222OO@3+-+++@@OO.%%ooo%%o..X..o%%%.o$$$$$$$$$$$$#.X..o%%ooo%%.222222222222222222222222222222222222222222O",
"88888888888888888888OOOOOO88@3+-wuff..o%##%oooo.%%#o..o%o.%############%o#%%.oooo%##%o..8888@@@@@@@@@8888888OOOOOOO88@@888888OOO",
"-+3@@@@@@@33333333@88888888@3333-wu.%%%##oooo..%$$>>$..%oo#############$>>$$%..oooo##%%%.3+-yywy--++++++++33@OOOO@@@+--+++++----",
"--@@@@@@@@++++++++@@@@@@@@@@3+@@++.o###%o#***#%%$*>>$..o.%%%%%%%%%%%%%%$>>*$%%#***#o%###o.ywuffuwy----++++33@OOO@+@+-ww-++++----",
"1 1 1 == =11&= 1&1&= 1 1 1 1 =1@++Xo#$#o#*>>$*#>*>$#%...o%%%%%%%%%%%%%o%#$>*>#*$>>*#o#$#oX&1&= 1 1 1 1 =1@++3@OO+61&=1&1&1&1&&1&",
"1161r16116rr161r1r161161161r161&+..o$$%o#$$$$$**$ooo..%.oooooooooooooo..ooo$**$$$$$#o%$$o..r161161161r161&++33@Ojj6rr616616611r1",
"1 1&  =&==&1 1 1 1 1 1&1 1& == .X%%.oooo#$#%**>#oo..%.%.ooooooooooooo..%..oo#>**%#$#oooo.%%X.1  &1 1& ==  @@++@Oj11==1 11=11= 1 ",
"1=1 1 1& 1 1 = = = = = 1=1 1 1.%o##$%#*>>##$>%ooo.o#$.0..............0.$#o.ooo%>$##>>*#%$##o%. = 1=1 = 1  @@++@Oj61 1= 1=1=1  = ",
"= 1    &== ==&= = =1  1= 1  =XX%#%#$%5>$$$>$%ooooo#$%.0..............0.%$#ooooo%$>$$$>5%$#%#%XX 1= 1 ==&  2@++@O66= 1 =& 1 1=  =",
"1== = 1= 1 = & = = &  &1== =Xo###%$$%>>5*>$%ooooo%%..XXXXXXXXXXXXXX00XX..%%ooooo%$>*5>>%$$%###oX 1== = 1  2@++@@661=1= 1==11=1= ",
"1 1 1 =& = 1 ==1 1 = & 1 1 X%$$$#%#o%>5*>#%ooooo%#%..XX0000000000000;XX..%#%ooooo%#>*5>%o#%#$$$%X1 1 1 =  2O33@@611 =1 1 1 1  1 ",
"= = = 1& 1 =  == = & =1= 1 o#$##%%%o#>*>#%oooo%%#$%XXoo000000000000x;ooXX%$#%%oooo%#>*>#o%%%##$#o= = 1 1  2O3-+@611==1 11=11= = ",
"  = 1= === =1 =&= &=  1 1 Xo%##%ooo%$*$%%oo...%#$%..Xo.;;;;;;;;;;;;;;.oX..%$#%...oo%%$*$%ooo%##%oX = 1=   2O@-++611==1 11=11=1 1",
"1== &= 1== == =&= ==  =&= .oooooo$>*$$%%ooo.%......XX.7;;;;;;;;;;;;;;7.XX......%.ooo%%$$*>$oooooo. = &==  2O@-++611 1= 1=1=1 = =",
" == 1 =  = =1 =&1 &=  =XX.oo%.%%%>$%$%oo.o.%#%.oo..XX77;;;;;;;;;;;;;;77XX..oo.%#%.o.oo%$%$>%%%.%oo.XX1 =  2O@--+61= 1 =& 1 1===1",
"=1==1 11=1 == =&1=1=  .%.Xo%o%$>$#%*$ooo%%#$$%Xoo.;X;;;222222222OOO;;;;;X;.ooX%$$#%%ooo$*%#$>$%o%oX.%. &  2O@--+661=1= 1==11=1 =",
"= 1 = 1  1&=1 =&1 &== o%%%%o.%>$#%*$%o..o$$$%XXo.X.X;;;222222;;OOOO;;;;;X.X.oXX%$$$o..o%$*%#$>%.o%%%%o =  2O3-w-661 =1 1 1 1 1&1",
"  1 1 1=&1&=1 =&1  ==o%$#%.$5*$#%*$%%.%%..XX.;.XXXX;;2222222;;;XOOOOOO;;;XXXX.;.XX..%%.%%$*%#$*5$.%#$%o=  2O3-w-661 1 =&=1=1==&1",
"         &  &g    gg o$$#oo$$$$%*$$*..%%.X...X.XX;;22222222;;;;;XOOOOOOO;;;XX.X...X.%%..*$$*%$$$$oo#$$ogg 2O+-w-1&= = & =& = =  ",
"                   ;..###%o$##%*$$$*o...oo..;;;;O222222222;;;;;;;XOOOOOOOOOO;;;;..oo...o*$$$*%##$o%###..;22O+-w-@1              ",
"OOOOOO22OOOOOO2222.;.o%%%oo#$%$>#$*$%o..ooX;X.;O222222222;;;;;;;;;XOOOOOOOOOO;.X;Xoo..o%$*$#>$%$#oo%%%o.;.O@+ww-+@O2222222222222",
"O88888OO888888OOOO.ooo%$*>$##$*###%oo%o.o.;X0OO222222222;;;;;;;;;;;;OOOOOOOOOOO0X;.o.o%oo%###*$##$>*$%ooo.@+-wuw++@@@OO@O@@8@+@O",
"-+++3@888@33+3@@33.%%o%*$$#o#*>#%ooo##o...X0;2222222222;;XXXXXXXX;;;OOO@@OOOOOO;0X...o##ooo%#>*#o#$$*%o%%.++wufuw---+333--++++++",
"----++@@@@++--@@-.%$#%.$$%%o**$>>$%%#%o...0;2222222222XXXXX....XXXXOOOO@@@@OOOOO;0...o%#%%$>>$**o%%$$.%#$%.wuuffuw---+33--++++++",
"---61&=1&1&1&1&&1.##$o%##%o%*>$$$*$.oo.X.0;2222222222XXX.........XOOOO@@@@@@OOOOO;0.X.oo.$*$$$>*%o%##%o$##.= 1&1&= 1 1 1 1 =1@++",
"--jj6rr616616611r1#$$%.o%%o$*$###>*.o..X0;2222222222.X..........XOOOO@@++++@@OOOOO;0X..o.*>###$*$o%%o.%$$#161r1r161161161r161&@+",
"--j11==1 11=11= 1 %#%%.X.o%*>$%%%$>.%o.0;2222222222X......oooo.XOOOO@+-----+@@OOOOO;0.o%.>$%%%$>*%o.X.%%#% 1 1 1 1 1&1 1& ==  O@",
"--j61 1= 1=1=1  .%o%.$*>$%$*$**%o%ooo.X;;222222222.....oooooooXOOOO@+---hh--+@@OOOOO;X.ooo%o%**$*$%$>*$.%o%. = = = = 1=1 1 1  OO",
"@@66= 1 =& 1 1= .....5$##%**$$**o.%%o.d2222222222....oo%%%%%%XOOOOO@---*%%h--+@OOOOO;d.o%%.o**$$**%##$5.....= = =1  1= 1  =&  2O",
"@@661=1= 1==11=.o%%o.$#%%$*>#$$*$.%%oX;222222222...oo%%%%%%%XOOOOO@+--*%..%*--+@OOOOO;Xo%%.$*$$#>*$%%#$.o%%o.= = &  &1== = 1  2O",
"++611 =1 1 1 1 %#$#oX##%#$*$##$>$.ooXd222222222..oo%%%%%%%%XOOOOO@@--*%ooo.%*-+@@OOOO;dXoo.$>$##$*$#%##Xo#$#%1 1 = & 1 1 1 =  2O",
"++611==1 11=11=%$#%..%#%#**$##$$#XX.0;22222222..oo%%%%%%%%XOOOOOO@+-*%%%%%o.%$++@@OOOO;0.XX#$$##$**#%#%..%#$%= = & =1= 1 = 1  2O",
"++611==1 11=11=%#%%o.o%%#>$###$#oX..d22222222...o%%%%%%%%*%XOOOO@@+*%%%%%%%o.%$+@@OOOO;d..Xo#$###$>#%%o.o%%#%&= &=  1 1 = =   2O",
"++611 1= 1=1=1 .%#%o..X%#$#%###%o...;22222222X..%%%%%%%%%%*%XOOO@-*%%%%%%%%%o.%$@@@OOOO;...o%###%#$#%X..o%#%.&= ==  =&= =&=   2O",
"--61= 1 =& 1 1==..oo..X%##.ooooo.oo.2222222222X.o%%%%%%%%%%*%XOO@$%%%%%%%%%%%o.%%@@@OOO;.oo.ooooo.##%X..oo..1&1 &=  = =1 1 =  2O",
"--661=1= 1==11=.o##o.X;%%%..o%o%.o%X2222222OO22X.o%%%%%%%%%%*%XX$%%%%%%%%%%%%%o.%.@@OOO;X%o.%o%o..%%%;X.o##o.&1=1=  = 1 =1=&  2O",
"++661 =1 1 1 1 o%%#o.XX.%%..%#$$o%%X2222222OOO22X.o%%%%%%%%%%*%$%%%%%%%%%%%%%%%o.%.@@OO;X%%o$$#%..%%.XX.o#%%o&1 &=  = =1== &  2O",
"++661 1 =&=1=1=o%oo..X.$**$.%##$#%o22222.%OOO@O22X.o%%%%%%%%%%$%%%%%%%%%%%%%%%%%o...@OOOOo%#$##%.$**$.X..oo%o&1  =  =  & &g   2O",
"++1&           oo.%o...****%o%##%%o2222.%$%OO@@O22X.o%%%%%%%%%%%%%%%%%%XX%%%%%%%o...XOOOOo%%##%o%****...o%.oo   gg   g g g gg 2O",
"++@            ..o%o.%.$$$$.oo%%#oX222.%%%$$@@@@O22X.o%%%%%%%%%%%%%%%%X22X%%%%%%%o...XOOOXo#%%oo.$$$$.%.o%o..        g      g22O",
"+++O22222222222..oo....#$$>%X.ooooX22.%%%%%$$@@@@O22X.o%%%%%%%%%%%%%%X@822X%%%%%%oo..X;OOXoooo.X%>$$#....oo..222222222222222222O",
"++++@OOOOOOOOOOO.o.#**##>$$>**#.o..;.%%%%%%%$$@@@@O22X.o%%%%%%%%%%%%XOOO822X%%%%%oo...X;;..o.#**>$$>##**#.o.OOOOOO22OOOOOOOOOOOO",
"-----+33333@@@@@XXo**>%%>$#%%*$....X.%%%%%%%%$$@@@@O22X.o%%%%%%%%%%*XOOOO822X%%%%%o...X;X....$*%%#$>%%>**oXX+@@+-+@@+-+++++++---",
"----------++++@...o*$%%%>$$%%#%X...O2X%%%%%%%%$*@@@@O22%.%%%%%%%%%%%*XOOO@822X%%%%o...XOO...X%#%%$$>%%%$*o...@@+-+@@+-+++++++---",
"11&= 1&1&= 1 1 .o.o%#%oo>>###%..oo.OO2X%%%%%%%%$*@@@@O2$%%%%%%%%%%%%%*%OO@@822X%%%o..XOOO.oo..%###>>oo%#%o.o. 1 1==1=&1&1 1 &1 =",
"rr161r1r1611611Xo%.o%%%o$*##.XX%%ooOOO2X%%%%%%%%$*@@@@*%%%%%%%%%%%%%%%*%O@@@822X%o..XOOOOoo%%XX.##*$o%%%o.%oX1r16161616rr1611111",
"&1 1 1 1 1 1&1 X%#o.oo%o$*$%...%#%oOOOO2X%%%%%%%%$*@@*%%%%%%%%%%%%%%%%%*%O@@@822Xo.XOOOOOo%#%...%$*$o%oo.o#%X&  1==1111=1 == 1==",
" 1 = = = = = 1=.##%...oo#*$***%.%%o.OOOO2X%%%%%%%%$**%%%%%%%%%.o%%%%%%%%*%O@@@822XX@@@@X.o%%.%***$*#oo...%##. 1 =&1=1=1 = 1= 1 &",
" ==&= = =1  1= 1o%%oo...#**$$**.oo..XOOOO2X%%%%%%%%$%%%%%%%%%XX.o%%%%%%%%*%O@@@82O@@@++X..oo.**$$**#...oo%%o1   1&1=1 1== 1 1== ",
" = & = = &  &1=.%%ooo$*$%**###$.o%%o.@OOOO2X%%%%%%%%%%%%%%%%X22X.o%%%%%%%%*%O@@@@@@+++-.o%%o.$###**%$*$ooo%%. = =1=1=11=1 == 1 &",
" 1 ==1 1 = & 1 .%##o%*>%o#>####.#>$%.+@OOOO2X%%%%%%%%%%%%%%X2222X.o%%%%%%%%*%O@@@@++++-.%$>#.####>#o%>*%o##%. 1 1&=1= 1 1 1  1 &",
" =  == = & =1= X.##%%*$oo%>###%X##%oX.+@OOOO2X%%%%%%%%%%%%X222222%.%%%%%%%%%*%O@@+++--.Xo%##X%###>%oo$*%%##.X = 1&1=1=1== 1= &= ",
" =1 =&= &=  1 1,.o%%.$#oo%>$#%%o.o%o.+++@OOOO2X%%%%%%%%%%X222OO22$.%%%%%%%%%%.O@@+++---.o%o.o%%#$>%oo#$.%%o., 1=&1&=1=1 = 1= = &",
" == =&= ==  =&=<X.o%o.%%o%$*>>$%oooo.X+++@OOOO2X%%%%%%%%X222OOOO$.%%%%%%%%%%X2OO@++----.oooo%$>>*$%o%%.o%o.X< &=&1=1= 1== 1 1&= ",
" =1 =&1 &=  = =<X%o....%%%#*>$#%o%%%o..+++@OOOO2X%%%%%%X222OOOO$%%%%%%%%%%%X22O@@++--..o%%%o%#$>*#%%%....o%X< 1 ==&==11=1 == = &",
" == =&1=1=  = 1 X%%oX....o%**%%#$>#%ooo.+++@OOOO2X%%%%X222OOOO$%%%%%%%%%%%X22OO@+++-.ooo%#>$#%%**%o....Xo%%,==1 1&= 1 1 1 1  1 &",
"&=1 =&1 &== = =1,%#%o..%$#o$>%%%#$>Xo%%.++++@OOOO2X%%X222OOOO*%%%%%%%%%%%X22OO@@++--.%%oX>$#%%%>$o#$%..o%#%,1 = =&1=1=1==&1= &= ",
"&=1 =&1  == =  &<o##o.o>**$%$>###$$Xo$#o.++++@OOOO2XX22OOOOO*%%%%%%%%%%%X22OO@@++--.o#$oX$$###>$%$**>o.o##o<1 1 1&1 11&&11& 11= ",
"  &g    gg   g g .oo.X%**$$%#$#$$$%X#$$%.+++++@OOOO222OOOOO*%%%%%%%%%%%X22OO@@++---.%$$#X%$$$#$#%$$**%X.oo.                     ",
"             g   X..X;%*>#%%%##..;;.#%##o..++++@OOOOOOOOOO*%%%%%%%%%%%X22OO@@++--..o##%#.;;..##%%%#>*%;X..X                     ",
"OOOOOOOOOOOOOOOO2,.X;;.#*$%%.o##.Xoo$##%%o..++++@OOOOOOOO$%%%%%%%%%%%X22OO@@++--..o%%##$ooX.##o.%%$*#.;;X.<222222222222222222222",
"@@@@@@@@@@@@@@@@44tXXX;.#$>%o.o%ooo%ooooo%oo.++++@OOOOOO%%%%%%%%%%%%X22OO@@++--.oo%ooooo%ooo%o.o%>$#.;XXX;OOO2222OOOOOOOOOOOOOOO",
"--++-+@@++@@@@++844Xo.XX.%#o...%%o%oo%o%o%#%.+++++@OOOOOX%%%%%%%%%%X22OO@@++---.%#%o%o%oo%o%%...o#%.XX.oXOO+@@@@++++++++-+@@++@@",
"+++++@@@@@@@@@@+844,oo.X.....X.%$*$%%#**#.%%X++++++@OOOO2X%%%%%%%%X22OO@@+++---X%%.#**#%%$*$%.X.....X.oo;O8++@@@+-+++-++-+@+--+@",
"++@61&=1&1&1&1&&:  <;.X..Xoooo.%$$*#>$$>*%..oo..++++@OOO22X%%%%%%X22OO@@+++-..oo..%*>$$>#*$$%.ooooX..X.;< 1 1 &1 ==1==&1&====@++",
"++jj6rr616616611&1 :<;XooXoo##o.#*$%#$$$*#o.ooo.++--+@OOO22X%%%%X22OO@@++---.ooo.o#*$$$#%$*#.o##ooXooX;<k&r161111116=61r1111  ++",
"+@j11==1 11=11= 1 : :<;o.X..%#o..$*$##$$>%ooo%o...---+@OOO22X%%X22OO@@+.--...o%ooo%>$$##$*$..o#%..X.o;<:: 1 == 1===1 1 11111  @+",
"-@j61 1= 1=1=1  =    <;.%%%ooo.oo.#*>####o%##o..oX.%%oo.OOO22XX22OO...ooo%%o..o##%o####>*#.oo.ooo%%%.<: : = 1= 1 &1= 1=1=111  O@",
"+@66= 1 =& 1 1=  =:  :<.%##%%..o%o.%**$%#%$$$$oo%.7o%#%oo.OO2XX2O.o%%##$$$#%oo$$$$%#%$**%.o%o..%%##%. : : = 1 1== =1 1 ====1  O@",
"+@661=1= 1==11=1= : : :Xo%%%o...o%o.o>*$o#$#$*#....7o%$$##%%%%o%%###$$$$$#o..#*$#$#o$*>o.o%o...o%%%o,: ::=1 == 1 &1 11=111=1  2@",
"+@611 =1 1 1 1  1   : :<Xo%o.XX.o##ooo$*$%%%#>$%...7o%#$$$$$%o#$$$$$$$$$#%..%$>#%%%$*$ooo##o.XX.o%o,9   1 1 1  1 &=1== 1===1  2@",
"+@611==1 11=11= = 1  :  sX.XXXXX%$%%ooo$*$#%%#%####o.o%#$$$#%#>55555555>#%###%#%%#$*$ooo%%$%XXXXX., : : 1== 1= &=  1 1&1=1=1  2@",
"@@611==1 11=11=1 1 = :   <siX..Xo*$#%ooo#**$%%$$>>#.7o%##$#%#>555555555>%#>>$$%%$**#ooo%#$*oX..X,s9:    1 = 1= = &1= 1=1=1=1  2@",
"@@611 1= 1=1=1 = = 1  :   &<i..X.%#%.%%ooo$**$#**>#.7.o%##%#>>>>>>>>>>>$o#>**#$**$ooo%%.%#%.X..,9  :    1== 1 1&= =1 1 = ===  2@",
"-@61= 1 =& 1 1===1 1      :9;.X..X..o#%%ooo%>**>>>%..7o%%%o$$$$$$$$$$$$#.%>>>**>%ooo%%#o..X..X.<9      :1=1 == = &1 11=111==  2@",
"+@661=1= 1==11=1 =1 :  :  : :XXo%XX.%$#%%o%o%#$***$.%7.o%o%############%.$***$#%o%o%%#$%.XX%oX,       : 1 1 1  1 &=1== 1 =&1  2@",
"@@611 =1 1 1 1 1&1  1   :   :;.oo..X#*$#%o.%...%%$$..7.o%o%############o7$$%%...%.o%#$*#X..oo.9 :     :=1==&1= ==  1 1&1=1&1  2@",
"@@611 1 =&=1=1===11 ==  : : : &X...X.%#%o.o%%o........7.oo%%%%%%%%%%%%%o7.....o%%o.o%#%.X...,<:     : ===&=== === ==&&=1 r=1  2@",
"+@11                           <,XXX..XX.X%$#%%oo.....7..o%############.7..oo%%#$%X.XX..Xi,99                                 2@",
"+@O                              <;XX%o.X;%*$#%%oXXX..77.o%%%%%%%%%%%%%.7XXo%%#$*%;X.o%Xi,e                                  22@",
"@@@@OOOOOOOOOOOOOOO4444444444442q2<,.ooo.XX#*$$%X;XXXX77.oooooooooooooo77i;X%$$*#XX.ooo.,22qqqqqqqqqqqqqqqqqq22222222222222222O@",
"@@@@@@@OO@@@@@@@@@@@8888OO4444444qq4OX...;;.%%o;XXXX;;77.oooooooooooooo77,,X;o%%.;;...X22qqqqqqp4qqO22OOOOOOOOO22222OO@@@@@@@@@+",
"++@@@@@@@33++++333333++-yll@@884444qq<;X;;X;;;;;;XX,;;7................7,,,;;;;;;X;;X,9qqqqpqqq22q4@8@33+333@88OOOOO88@@33++----",
"++@@@++@++++--++++++++--ww-zz@88@@4qqqqq4<;.,tt,,tt,,;7..oooooooooooooo7,;;XX;;X.eee4qqqqqpppqq444O@@+++++++@@88OOOO88@@++++----",
"1&1&&1&= 1 == =11&=r&1&= 1 1 : :  :44qqqq9<;,,,t,tt,t;X................7,;t,ttteeea: : : :  :&q4448@@61&=1&1&1&1&&1&= 1 1 1 1 ==",
"16611r161116116rr16r1r16116116:&: :&44qqqq :9e9<ttt,,tXXX............XX7,ttttee           : :&q2448@jj6rr616616611r161161161r161",
"=11= 1 1 1 =&==&1 11 1 1 1&1 1& ==  q44q4q:::9999tt,,;XXXXXXXXXXXXXXXXX7,teeaaa  : : : :   =  q2448@j11==1 11=11= 1 1 1&1 1&  =&",
"1=1  = = = 1& 1 1 =1 = = = 1=1 1 1  q244q4: : :  : : ;;;;;;;;;;;;;;;;;; : :          : : : :  q24O8@j61 1= 1=1=1  = = = 1=1 1 1&",
"1 1=  =1=   &== ==& = =1  1= 1  =&  q24444    :    : eeeeeeeeeeeeeeeeee          :  :  :      q2483@66= 1 =& 1 1=  =1= 1= 1    &",
"=11=1= 1 1 1& 1 1 =1 = = = 1=1 1 1  q24444  : :  :  :: :  : :: :   : :  : :  :       : :   :  q24@3@661=1= 1==11=1= 1 1&1== = 1=",
"1 1  1 = 1  &== ==& = =1  1= 1  =&  q24444 ::  : : : :  :   :  : :               :  :  :      q2O@+@611 =1 1 1 1  1 = 1 1 1 1 =&",
"=11= = 1 = 1= 1 = &1 = &  &1== = 1  2244O4 ::  : :: ::    :  ::      :  :    :       :   = 1  q2O3+@611==1 11=11= = 1 =1= = = 1&",
"1 1  1 = 1 =& = 1 =  1 = & 1 1 1 =  22O4O4 ::  : : : :  :   : :    :      :    :     : : 1 =  q2O3+@611 =1 1 1 1  1 = 1 1 1 1= =",
"=11= = 1 = 1& 1 =  1 = & =1= 1 = 1  2OO4O4 ::  : :: ::    :    :     :  :    :      :  : = 1  q283+@611==1 11=11= = 1 =1= = == 1",
"=11=1 1 = = === =1 1= &=  1 1 = =   2O8OO4k::  : :: :: : :         :       : :      : 1 = =   q283+@611==1 11=11=1 1 = 1  = 1 = ",
"1=1 = = 1 = 1== ==  = ==  =&= =&=   2O+8O46:: :  : : :     : :  :     :         =       =&=   2O@3+@611 1= 1=1=1 = = 1 =1== &11 ",
"1 1===1 1= =  = =1 11 &=  = =1 1 =  2O++8461= 1    : :   : : :   : :       : ::     = =1 1 =  2O@3+@61= 1 =& 1 1===1 1== == 11 1",
"=11=1 =1 1 11=1 ==  1=1=  = 1 =1=&  2O+++@661=1= :  :: :  : :  :   : :: :     : :   = 1 =1=&  2O@3+@661=1= 1==11=1 =1 1 =1==1=1 ",
"1 1 1&1  1 1  1&=1 11 &== = =1== &  2O++-@661 =1 1 1 1 1&1  1 = 1  = 1  1&=1 11 &== = =1== &  2O@3+@661 =1 1 1 1 1&1  1 = 1 =1  ",
"1=1===11 = 1=&1&=1 &1  == =  & &g   2O++-@661 1 =&=1=1===11 ==  1  1 1=&1&=1 &1  == =  & &g   2O@3+@661 1 =&=1=1===11 ==  1 111 ",
"              &  &g   gg   g g g gg 2O+++@1&                            &  &g   gg   g g g gg 2O@3+@&&                       &&1",
"                           g      g22O+++@O                                          g      g 2O@3+@@                           ",
"2222222222222222222222222222222222222O++--@OO22222222222222222222222222222222222222222222222222O@3++@@OOO2222222222222222222222O",
"OOOOOOOOOOOOOOOOOOOOOOOOOOOOOOOOOOOOOO++--++@OOOO8OOOOOOOOOOOOOOOOOOOOOOOOOOOOOOOOOOOOOO88888888@3++++@@OOOOOOOOOO2222222222OOOO",
"@@+3@@+3@@@@@@3333333333+++3@@@3333333+------++-++++++--++++++--+++@@@@+++++3@@@@@@@@@@@33++33@@33--+++@@@+-++++++++3@@@@3++++++",
"@@++3+-+333333++++++++++---+33++++++++-----------------------+--++++@@++++++33@@@@33@@@@33++33@@33--++++@@--++++++++33@@33++++++",
"--------------------------------------------------------------------------------------------------------------------------------",
"--------------------------------------------------------------------------------------------------------------------------------"
};
