/* XPM */
static char *ZZWOLF12[] = {
/* columns rows colors chars-per-pixel */
"128 128 47 1 ",
"  c #5B0000",
". c #430000",
"X c #9F9F9F",
"o c gray34",
"O c gray50",
"+ c gray42",
"@ c #670000",
"# c #4F0000",
"$ c #777777",
"% c gray23",
"& c gray67",
"* c #730000",
"= c #939393",
"- c #4B4B4B",
"; c #7F0000",
": c #2F2F2F",
"> c gray78",
", c #232323",
"< c #5F4323",
"1 c #170F07",
"2 c #B7B7B7",
"3 c #A73F00",
"4 c #533F1F",
"5 c #B74700",
"6 c #9B0000",
"7 c LightGray",
"8 c #434343",
"9 c #874307",
"0 c #43331B",
"q c #D75F0B",
"w c #AF7B1F",
"e c #732B00",
"r c #373737",
"t c #774F2B",
"y c #EB6F0F",
"u c #C39B2F",
"i c #332B13",
"p c black",
"a c #4B371B",
"s c #D7BB43",
"d c #EFEFEF",
"f c #DFDFDF",
"g c #6B4727",
"h c yellow",
"j c #3F2F17",
"k c #FF7F1B",
"l c #7F532F",
/* pixels */
":::::::::::::::::::::::::::::::::::::::::::::::::::::::::::::::::::::::::::::::::::::::::::::::::::::::::::::::::::::::::::::::%",
"%%%%%%%%%%%%%%%%%%%%%%%%%%%%%%%%%%%%%%%%%%%%%%%%%%%%%%%%%%%%%%%%%%%%%%%%%%%%%%%%%%%%%%%%%%%%%%%%%%%%%%::::::%%%%%%%%%%%%%%%%%%%%",
"oo%%oo----------oo------------oo--%%--------------oooooooooooo--------------888------------------8888%%rrrr%%---oooo----------%%",
"oo%%oo----------oo------------oo--%%--------------oooooooooooo------------------oooooooooooooooo------%%::%%--ooooooo---------%%",
"@# .@.@@#@#@##@# @.@.@. @-----oo-;@# @#@#@#@##@# .@.@@ #@##@.  @  #@#    %-----o-;@# @#@..........#.#.#.#.....#..#.### .@#@# .@.",
"*@;@@;@@;@;;@@*@;@@;@*@;@#,---o+66;**;@;;@;;@@*@;@@;@@;@;*@@@@@; ;@;@;@@..%%--o-66;**;@;;@;;@@*@;@@;@@;@;**@;@@@@@@;;@;@*@*@;@@;",
"@.uu@#@@@ @@ .@.@@.@#.  ..,:--o+6@@  @.@@ @@ .@.@.@#@@@@@ .@   @.@.@@ #@..:%-oo%6@@  @.@@ @@ .@.@.@#@@@@@ @.  .@   @@.@.@.@.uu@#",
" uhww.@  @ @.. . @ @.@.@..,:--o+6;@.@ .@ @ @.. . . .@ @ @..@.#@ .@ @ @#@..:%--o%6;@.@ .@ @ @.. . . .@ @ @. .@ .@.#@  . . . wwhu.",
"9ssw90o=2222222222222222222222222222222222222222222222222222222222222222222222222222222222222222222222222222222222222222X+09wss9",
"9wuw9iOXXXXXXXXXXXXXXXXXXXXXXXXXXXXXXXXXXXXXXXXXXXXXXXXXXXXXXXXXXXXXXXXXXXXXXXXXXXXXXXXXXXXXXXXXXXXXXXXXXXXXXXXXXXXXXXXXXOi9wuw9",
"<999ei$$$$$$OOOOOOOOOOOOOOOOOOOOOOOOOOOOOOOOOOOOOOOOOOOOOOOOOOOOOOOOOOOOOOOOOOOOOOOOOOOOOOOOOOOOOOOOOOOOOOOOOOOOOOOO$$$$$$ie999<",
"<4<<40oo+$$$$$$$$$$$$$$$$$$$$$$$$$$$$$$$$$$$$$$$$$$$$$$$$$$$$$$$$$$$$$$$$$$$$$$$$$$$$$$$$$$$$$$$$$$$$$$$$$$$$$$$$$$$$$$$+o04<<4<",
"140i41o+$$$$$OOOOOOOOOOOOOOOOOOOOOOOOOOOOOOOOOOOOOOOOOOOOOOOOOOOOOOOOOOOOOOOOOOOOOOOOOOOOOOOOOOOOOOOOOOOOOOOOOOOOOO$+++ooop4i04p",
"11<<1.+OOO$$$$OOXXXXXXXXXXXXXXXXXXXXXXXXXXXXXXXXXXXXXXXXXXXXXXXXXXXXXXXXXXXXXXXXXXXXXXXXXXXXXXXXXXXXXXXXXXXXXXXXOO$+++OOoopp<<p.",
"..11..$$>>@;@  ..oOOo. @@@@@########################################################################@@@@@@.oOOo.....#O>>O+..p.. ",
"......o$X>;;*@  ..oo. @@@@@@########################################################################@@@@@@@.oo......@#>X$+ .... ",
"#@..@.o+OX@6XO++o....o>>>>>>>>>>2222222222222222222222222222222222222222222222222222222222222222>>>>>>>>>>o....o++OX6@XO$+.# .. ",
" @@.  +++O@6XXO$+o..o>>>>>>>>>>>22222222222222>>>>>7777777777777777777777777777>>>>>>22222222222>>>>>>>>>>>o..o+$OXX6;OO+$.. .. ",
"......O$+$ ;&2&O$O=&&&&&22>>$-**-=22222222222222222>>>>777fffffffffffffff777>>2222222222222222=-**-$>22222&&&=O$O&2&;@$++O.11...",
"......OO$$.@&72&OO==&&&&22>$- ** -=222222222222222222222>>>777777777777777>222222222222222222=- ** -$>22&&&&==OO&27&@.++OO......",
",,,,,,XOO$..=272&=XXX&&&&&X-      -=&2222222222222222222222>>>>>>>>>>>>>>>22222222222222222&=- *;;* -X&&&&&XXX=&272=..$OOX,,,,,:",
"rrrr,,XXOO..O&>72&XXXXX&&&X        -=&>22222222222222222222222222222222222222222222222222>&=- *;;;*  X&&&XXXXX&27>&O..OOXX,,::::",
"o-8%%,&X=O..OX>>72&XXXXXXXX         -$=&>222222222222222o $22o%       yyyyk222222222222>&=$- *;;;**  XXXXXXXX&27>>XO..O=X&,%oooo",
"oo%%%,&&==..+=&>>72&XXXXXXX-          -==X>2222222222222   $o         555qyk222222222>X==-  *;;***  -XXXXXXX&27>>&=+..==&&,%oooo",
"@.@.@.&&X=..+OX2>>>>2XXXXXXX-           -+=X222222222222          *;* 5555qyk2222222X=+-  *;;***  .-XXXXXXX2>>>>2XO+..=X&&#@##@#",
"@@;@*@&&XX..+$=&2>>>2&XXXXXX$-            -+=X2222222222o         ;+; 55555qyk2222X=+-  ******  ...$XXXXXX&2>>>2&=$+..XX&&;;@@*@",
"@.@#..22&&..$$OX&2>>2&&+  -$$$-              -+=X2222222$o        *;* 555=22222X=+-   *****   ...-$$$-  +&&2>>2&XO$$..&&22@@ .@.",
"@ @.@.22&&..O$O=X&22&&+*  *-$$$-                -+=22222&$            55=2222=+-   *****    ....-$$$-*  *+&&22&X=O$O..&&22 @.. .",
" .@...22&&##=$$OXX&&&+     *o$$$-        *;**     -+=X222=            ==22X=+-           ......-$$$o*    *+&&&XXO$$=##&&22.@ .. ",
"@  . .22&&##=O$O=X&&O*      *o$$$--      *;;**      -=222&            =222=-          ...... --$$$o*    *;6O&&X=O$O=##&&22@@ @ .",
"@.@.@.22&&##==$OO=XX+**      .--++--%.....**         -2222            2222-        ........%--++--.     ;66+XX=OO$==##&&22.@..@.",
" . . .22&&##==OOO=XO****     ...----%%....**         o2222            2222o    ...........%%----...    *;66*OX=OOO==##&&22@@ . .",
".. .@ 22&&##X==OOO=O*****     ....----%..............o2222            2222o..............%----....     ;66;*O=OOO==X##&&22@@ @.@",
"@  .# 22&&##X==OOO=O******    .......-%%............o=2222            2222=o............%%-.......    *66;* O=OOO==X##&&22 @. . ",
".  .@.2222##X===OOO=o******    ....................$2222X$            $X2222$....................    *;6;* o=OOO===X##2222.@   @",
" @  @.2222##XX==OOOO+o******    ..................$=2222$              $2222=$..................    *;;;**o+OOOO==XX##2222@@ @. ",
" .@. .2222##&X==OOOOO+o******    .....  .........$..$222                222$..$.........  .....    *;;;**o+OOOOO==X&##2222.@.@#@",
"..@.@.2222##&X===OOOOO+o*****     ...   ........$....$22o              o22$....$........   ...    **;;**o+OOOOO===X&##2222 @  #@",
"......2222##&XX==OOOOO++oo****         * .............$22o            o22$............. *        **;**oo++OOOOO==XX&##2222. . ..",
"......2222##&&X=O$%%%-++++oo**         * ..............$22            22$.............. *      *****oo++++-%%%$O=X&&##2222......",
"::::,,2222##&&X=+-....%-++OOoo         ** ..............++            ++.............. **     ****ooOO++-%....-+=X&&##2222,,,,,,",
":rrr,,2222##&&X=-........-$O==oo       ** ................            ................ **  *****oo==O$-........-=X&&##2222,,%%%:",
"o---%,2222##&&&X............-oOO==++oo  *  ..............              .............. **  oo++==OOo-............X&&&##2222,%----",
"oooo%,2222##&&&X.............. -+$++oo   *  .............              .............  *   oo++$+- ..............X&&&##2222,%----",
"ooo;@#2222##&&&X .............         *     ...........                ...........      **;;;;   ............. X&&&##2222. @%--",
"oo66;*2222##&&&X ..............               ..........                ..........       *;;;;;  .............. X&&&##2222@;@#%-",
"oo6@@ 2222  &&XX ..............                 .......                  .......        **;;;;*  .............. XX&&  2222  ..:%",
"oo6;@.2222  &&XX- ..............                  ....                    ....         **;;;;;* .............. -XX&&  2222.@..::",
"%%;; .2222  &&XX$ ..............                        <ee9999999999ee<              **;;;;;*  .............. $XX&&  2222 #..,:",
"%%;;@ 2222  &&XXX$...............                       g4gtttlllltttg4g             **;;;;;*  ...............$XXX&& @2222.@..,:",
"--;@@.2222  22XXXX$-..............                      g4* * *  * * *4g            **;;;;;*  ..............-$XXXX22@@2222. ..,:",
"--;@@ 2222  22XXXX$$o-%............                     g<*   *66*   *<g          ***;;;;**  ............%-o$$XXXX22@*2222.@..,:",
"--;@@ >>>>@@>>$* *%-++oo-8%%%88---oooo                  <4*  *6;;6*  *4<        ***;;;**  oooo---88%%%8-oo++-%* *$>>*;>>>> ...,:",
"--;@@.>>>>@@>O***    .%--88%%%88---ooo                  g<* *6;..;6* *<g       **;;;**    ooo---88%%%88--%.    *;*O>;;7>>> ...,:",
"oo;@ .7777@@7o**     ...............                    <4**6;....;6**4<    ****;;*        ................    *;;o7;;7777. ..,:",
"oo;;@ 7777@@7 **      ...............                   <<*6;..@@..;6*<<  ******          ................     *;; 7;;7777 #..,:",
"--;;@.>>>>@@> **      ................                  <46;..@@@@..;64<                ..................     *;;*>;;777>.#..,:",
"--;;@.>>>>@@> *        ...............                  <<6*. @@@@ .*6<<              ...................     **;;*>;*>>>>1...,:",
"--@#..>>>>  > *        ................                 <4;6*. @@ .*6;4<            .....................     *;;;*>*@>>>>.11.,:",
"--%...>>>>  > *        .................                <<.;6*.  .*6;.<<         ........................     *;;;*>@@>>>>..1,,:",
"---:,,2222  2+          .............-o%                <4 .;6*..*6;. 4<        ........%o-.............     **;;*+2@@2222,,,,,:",
"----%,2222  2O          ...........-+-%..     :%%       g<  .;6**6;.  <g       %%:     ..%-+-...........     *;;;*O2@@2222,,::::",
"ooooo,2222##22+          ........-+o......   :--%       <4   .*66*.   4<       %--:    .....o+-........     **;;*+22@#2222,,-ooo",
"ooooo,2222##22X+          ....-+$o......... :oo-        r0<   ....   <0r        -oo:   .......o$+-....     **;**+X22@#2222,,-ooo",
"@@# .@2222##22&X++         -+$$o...........-++-          ra4<  ..  <4ar          -++-  .........o$$+-      ***++X&22##2222..#@. ",
"**@;@*2222##22&&XX++   -+$$$$o............-$+-             :a<4ee4<a:             -+$-............o$$$$+-***++XX&&22##2222#.@@@@",
"#@.@.@&&&&..&&&&22&XXXXXXX$o.............-$$-                j0000j                -$$-.............o$XXXXXXX&22&&&&..&&&&. .@  ",
".@. . &&&&..&&&&&&&XXXXX+o%  ...........-$$-                                        -$$-...........   o+XXXXX&&&&&&&..&&&&...@.#",
".  # .&&&&..&&&&XXXXX$o%     ..........-$$-                                          -$$-..........      o$XXXXX&&&&..&&&&..@  .",
". .#. XXXX..XXXXXXX$o%        ........-$$-                                            -$$-........         o$XXXXXXX..XXXX...@.#",
".@.  @====..======$%           ......-$$-        o  %$                    $%  o        -$$-......            $O=====..====...@.#",
". ..  ====..====O$%             ....-$$-         o% $o                    o$ %o         -$$-....              $OO===..====...# .",
". @. #====..====$%               ..-$$-         oX$$o                      o$$Xo         -$$-..                $OO==..====... .#",
".  . #XX==..====$                 -$$-         oXX$o                        o$XXo         -$$-                 $XXXX..XXXX..@# .",
". @. #XXXX..X=X=$                -$$-          XXXo                          oXXX          -$$-                $XXXX..XXXX. . .#",
".  . #XXXX..XXXX$%              -$$-          oXo%                            %oXo          -$$-               $XXXX..XXXX...@.#",
"# @. #&&&&..&&&&X$             -$$o          oXo                                oXo          o$$-             $X&&&&..&&&&...# .",
"# @. #&&&&..&&&&X$%           -$$o          oXo                                  oXo          o$$-            $X&&&&..&&&&..@@ .",
"..#1..2222..222222$%         -$$o          oXo                                    oXo          o$$-          $222222..2222......",
"......2222..2222222$%       -$$-           $X                                      X$           -$$-        $2222222..2222......",
":::::,2222##22222222$%     -$$-           -Xo                                      oX-           -$$-      $22222222##2222,,,,,,",
"%%%%:,2222##2222222222$  -$OOO            XX                                        XX            OOO$-  $2222222222##2222,,::::",
"oo--:,>>>2##222222222222XXXXXX           $2X-             $$        $$             -X2$           XXXXXX222222222222##2222,%--%%",
"----::>>>>##>>>222222222222XXX          $X2XO-           o$o        o$o           -OX2X$          XXX222222222222222##2222,%oo-%",
"--%;@#>>>>  >>>>222222222222XX+        $222X==$-         $o          o$         -$==X222$        +XX222222222222>>>>  >>>>   %--",
"--66;*77>>  >>>>>>>222222222XXX+     +XX2222=++-                                -++=2222XX+     +XXX222222222222>>>>  >>>>@@..--",
"-%6@@ f777  >>>>>>>>>>222222Xqq&222222222222=55%                                %55=222222222222&qqX222222>>>>>>>>>>  >>>>@@..%-",
"o%6;@.fff7  7>>>>>>>>>>2222X555q&222222222=5qyyt%                              %tyyq5=222222222&q555X22222>>>>>>>>>>  >>>>@@..:%",
"-%;; .dddf@@f77777>>>>>>>>X53355qqyyykkkkyyyy555t%    %o$$            $$o%    %t555yyyykkkkyyyqq55335X>>>>>>>>777777@@7777 @..:%",
"-%;;@ dddf@@777777>>>>>>>>53&&3355qqyykkyyq555555t%  o$$2-            -2$$o  %t555555qyykkyyqq5533&&35>>>>>>>>777777@@7777 @..,%",
"-%;@@.7777@@77>>>>>>>>2222222XX3335qyyyyyyq555=&22222222-              -22222222&=555qyyyyyyq5333XX2222222>>>>>>>>>>@@>>>> @..,%",
"-%;@@ >>>>@@>>>>>>>>>>>22222222X+35yyyqqqqqq3=&22222222-                -22222222&=3qqqqqqyyy53+X222222222>>>>>>>>>>@@>>>> @..,%",
"%%;@@ >>>>  >>>>>>>>>2>2222Xqqqqqyyyqq555555555=222222-                  -222222=555555555qqyyyqqqqqX22222222222>>>>  >>>> @..,%",
"%%;@@.>>>>  >>>>>>>>222222Xq555555yqq555333355552222X-                    -X222255553333555qqy555555qX2222222222>>>>  >>>>  ..,%",
"o%;@ .2222##2>>>>>2222222255333333qq553======35522XO-                      -OX22553======355qq3333335522222222222222##2222  ..,%",
"-%;;@ 2222##2>22222222>222533&&&&&qq53==222&=35=2OO-                        -OO2=53=&222==35qq&&&&&33522222222222222##2222#@..,%",
"%%;@@.2222##22222222222222533&2222qq5&&22222222XOo                            oOX22222222&&5qq2222&33522222222222222##2222#@..,%",
"%%;@@.2222##22222222222222&3&22222qq5&22222222O-                                -O22222222&5qq22222&3&22222222222222##2222 @..,%",
"-%@@..2222##2222222222222222222222555&22222XOo                                    oOX22222&5552222222222222222222222##2222....,%",
"-%:...2222##2222222222222222222222&553222O-                                          -O222355&2222222222222222222222##2222...,,%",
"%%%%:,2222##X222222222222222222222&&5322-                 +O        O+                 -2235&&222222222222222222222X##2222,,,,:%",
"%%%%:,2222##X2222222222222222222222&&&22-                +2+        +2+                -22&&&2222222222222222222222X##2222,:%%%-",
"--%%:,2222##+O22222222222222222222222222O-             +X22          22X+             -O22222222222222222222222222O+##2222,%oooo",
"--%%:,2222###+=2222222222222222222222222XOo           +X22+          +22X+           oOX2222222222222222222222222=+###2222,%oooo",
"@#@##.X222#####=22222222222222222222222222XO--       +X222            222X+       --OX22222222222222222222222222+####o222X.@@.  ",
"@;;@@.O222O######+=2222222222222222222222222OOoo  -+X2222+            +2222X+-  ooOO2222222222222222222222222O+#####oO222O.@*@;@",
" @@ ..OX22X=+#######+=2222222222222222222222222222222222=              =2222222222222222222222222222222222=+######o+=222XO.#.. #",
"@ @....O22X2==O########+=2222222222222222222222222222222O              O2222222222222222222222222222222=+#######oO=22222O.#.@.@#",
"@.@ ...oX222222==O+#######+=2222222222222222222222222222=              =2222222222222222222222222222=+#######+O=2222222Xo.#....#",
" @@ @ ..OX222222222==+#######+=22222222222222222222222222+            +22222222222222222222222222=+#######+==222222222Xo.# . .@ ",
"@.@..@. .oOX2222222222&=O#######+=222222222222222222222222+          +222222222222222222222222=+#######O=&2222222222XOo.#.@.@. #",
" @@ . .....o$X22222222222&==+#######+=222222222222222222222+        +222222222222222222222=+#######+==&22222222222X$o..# . . .@#",
"@.@..@. .....ooOX222222222222X=+#######+=2222222222222222222+      +2222222222222222222=+#######+=X222222222222XOoo...@.@.@.@ . ",
" @@ . .@. ......ooOX222222222222X=+#######+=22222222222222222+    +22222222222222222=+#######+=X222222222222X=o1..#.@. @ . .  .@",
" @@ @.@. . . .......ooX222222222222X=O+#######+=22222222222222++++22222222222222=+#######+O=X222222222222X=o11.# @.@. .@.. .@. .",
"@ @. . .@. .@  . .....ooOX2222222222222X=+########+=222222222222222222222222=+########+=X2222222222222XOoo11.@ @. . .@. @  .#@@.",
"@.@   @.@ . .. . @....#..oo=X2222222222222X=+########+=222222222222222222=+########+=X2222222222222X=o.11. #.@.@   @.@  .  .@@.@",
" @@ @. @.@.@@ @.  ..@ . ....ooOOX222222222222XX=+#######+=222222222222=+#######+=XX222222222222XOOo,11..# .@  @@ @. @.@. @  @ @.",
"@.@.@#@..@.@..@# @..@.#  .......ooO=X222222222222X=+#########+=XX=+#########+=X222222222222X$oo:,,,,..#. @.@.@.@.@#@..@. .@. @..",
"@ @   @@. .@ #@# @.#@..  . ..#.#1...,,%OX22222222222X=++################++=X22222222222XO$oo..,,,,,,;;@.@. # @ @   @@.  ..@.@@@.",
"..............#..#1...11...1.1.1.11.,,,,,oOOX2222222222=XO+##########+OX=2222222222X=Ooo.1.11.,,,:::##.......................##@",
"...........................1......1,,:%%%%:.ooOX22222222222=O######O=22222222222XOoo.1......1.,:::::%...........................",
",,,,,,,,,,,,,,,,,,,,,,,,,,,,,,,,,,,,,:%-o%%::,,oOXX22222222222222222222222222XXoo,,,,,,,,,,,,,,:%8--%%:::,,,,,,,,,,,,,,,,,,,,,,:",
"::::::::::::::::::::::::::::::::::::::--oo--%::::r:oOOX222222222222222222XOOoo::::::::::rrrrrrrr%8----%%::::::::::,,,,,,,,,,::::",
"%%-8%%-8%%%%%%8888888888---8%%%8888888-oooooo---%%::::::oOXX22222222XX++o::::::%%%%%%%%%88--88%%88oo---%%%-o--------8%%%%8------",
"%%--8-o-888888----------ooo-88--------ooooooooooo--%%::::::oOOXX2XOO++-::::::%%%%%88%%%%88--88%%88oo----%%oo--------88%%88------",
"oooooooooooooooooooooooooooooooooooooooooooooooooooo--%:::::::::::::::::::%%-ooooooooooooooooooooooooooooooooooooooooooooooooooo",
"ooooooooooooooooooooooooooooooooooooooooooooooooooooooo--%:::::::::::::%%--ooooooooooooooooooooooooooooooooooooooooooooooooooooo"
};
