/* XPM */
static char *ZZWOLF11[] = {
/* columns rows colors chars-per-pixel */
"128 128 21 1 ",
"  c #430000",
". c #4B4B4B",
"X c #4F0000",
"o c gray23",
"O c #5B0000",
"+ c #670000",
"@ c gray34",
"# c #2F2F2F",
"$ c #434343",
"% c gray42",
"& c #730000",
"* c #7F0000",
"= c #373737",
"- c #232323",
"; c #777777",
": c #5B5B5B",
"> c gray50",
", c #9B0000",
"< c #170F07",
"1 c #8B0000",
"2 c #1B1B1B",
/* pixels */
"###############################################################################################################################o",
"oooooooooooooooooooooooooooooooooooooooooooooooooooooooooooooooooooooooooooooooooooooooooooooooooooooo######oooooooooooooooooooo",
"@@oo@@..........@@............@@..oo..............@@@@@@@@@@@@..............$$$..................$$$$oo====oo...@@@@..........oo",
"@@oo@@..........@@............@@..oo..............@@@@@@@@@@@@..................@@@@@@@@@@@@@@@@......oo##oo..@@@@@@@.........oo",
"+XO + ++X+X+XX+XO+ + + O+.....@@.*+XO+X+X+X+XX+XO + ++OX+XX+ OO+OOX+XOOOOo.....@.*+XO+X+          X X X X     X  X XXXO +X+XO + ",
"&+*++*++*+**++&+*++*+&+*+X-...@%,,*&&*+**+**++&+*++*++*+*&+++++*O*+*+*++  oo..@.,,*&&*+**+**++&+*++*++*+*&&+*++++++**+*+&+&+*++*",
"+ + +X+++O++O + ++ +X OO  -#..@%,++OO+ ++O++O + + +X+++++O +OOO+ + ++OX+  #o.@@o,++OO+ ++O++O + + +X+++++O+ OO +OOO++ + + + + +X",
"O O O +OO+O+  O O+O+ + +  -#..@%,*+ +O +O+O+  O O O +O+O+  + X+O +O+O+X+  #o..@o,*+ +O +O+O+  O O O +O+O+ O +O + X+OO O O O O O ",
" O+O +OO + +O  O+O +  OX  -#..@%**O + OX + +O  O+O +OO+ +O+OO O+ + O OOX  #o..@.**O + OX + +O  O+O +OO+ +OO + +OO O+ OXO O O+  +",
"O + +X++OO++O+O ++OO O +  -#.@%%**+O+O +OO++O+O + +X++O++O + X+ ++O+++XO  #o.@@.**+O+O +OO++O+O + +X++O++O+ OO + X+ + X O O X  X",
"+ O + ++ + +  + O+ + + O  -#.@%%*++ O+ + + +  + O + ++O +  + XO+OO + OX+  #o.@@.*++ O+ + + +  + O + ++O + + +  + XO+  OO+ + O X ",
"O + O+OO+O++O O +O + O +  -#.@%%*++OO+ ++O++O O + O+OO+O+O XO  + +X+O+X+  #o.@@.*++OO+ ++O++O O + O+OO+O+OO +O XO  ++  OO O X O+",
" + O + O+O++O+ +  + O O   -#.@%%*++OO+ ++O++O+ + O + O+O+  O X+O +O+O+X+  #o.@@.*++OO+ ++O++O+ + O + O+O+ O +O O X+O++ OXO XO  +",
" O + O++O+O+ O O XO OXO   -#.@%%*++ +O +O+O+ O O + O++O +O+XO O+ + O OOX  #o.@%.*++ +O +O+O+ O O + O++O +OO + +XO O+OO OXO OO  O",
"O+ +OO O + +OOO+  O+ + O  -#$.@%*+O + OX + +OOO+ +OO OO++O O X+ ++O+++XO  #o.@%.*+O + OX + +OOO+ +OO OO++O+ OO O X+  + +X+ XO  O",
" O+ + O OO++O+ O+ + O+OX  -#$.@%**+O+O +OO++O+ O+ + O + +  + XO+OO + OX+  #o.@%.**+O+O +OO++O+ O+ + O + + + +  + XO++O +X+O+O  O",
"X+  + OO + + +X+  O+OO X  -#$$@%**+ O+ + + + +X+  + OO+O+O XO  + +X+O+X+  #o.@%.**+ O+ + + + +X+  + OO+O+OOX+O XO  + + +X+ XO  O",
"O++ OO  O+O+OOO++  X X<   -#o$@%**+ + OXO+O+OOO++ OO  ++XX++O ++XX++  ++  #o.@%.**+ + OXO+O+OOO++ OO  ++XX++X ++O ++O+ +X+  O  O",
"                X< < < << -#o$..+X                                        #o.@%.+X                                   X<    <<   ",
"                 <      <--#o$..o                                        -#o.@%.o                                               ",
"--------------------22----##o$.@...oo##---------------------------------###o.@;.o----------------------------------------------#",
"====================######==o$.@%;>>>;%@oo==#########=oo===######=oooooooooo@%;@.oo=========ooooooooo=======#######==oo======###",
"@.$ooooooo$$$$$$$$o========o$$$$@%;;;%@.$$$$$.oooooo.......oooooo$$$$$.....@%%>%@@..$$ooo$.@::%:@@........$$o####ooo.@@.....@@@@",
"@@oooooooo........oooooooooo$.oo..%;%@.........oooo..@......oooo..........@%%>>;%%@@...o.@:%;>>;%:@@@@....$$o###o.o.@%%@....@@@@",
"+ + + OO O++XO +X+XO + + + + O+o..%;%..*+XO+X+X+X+XX+XO + + + &++++ OO++XO + + + + O++XO +X+XO + + + + O+o..$o##.*+XO+X+X+X+XX+X",
"++*+&+*++*&&+*+&+&+*++*++*+&+*+X..@;%.,,*&&*+**+**++&+*++*++*+++&&&+*+X&**++*++*+&+*&&+*+&+&+*++*++*+&+*+X..$$o#,,*&&*+**+**++&+",
"+ +X  OXOOX+ + + + + +X+ +X OO  o$@%%@,++OO+ ++O++O + + +X+ +XXX&X&OOXX+ + +X+ +X OOX+ + + + +  X+ +X OO  oo..o#,++OO+ ++O++O + ",
"+O+ + +X + + O O O O O +O+ + +  -o.%:@,*+ +O +O+O+  O O O +O+ XX+ + +X&O + O +O+ + + + O O O O O +O+ O +  oo..o#,*+ +O +O+O+  O ",
"O +    XOO OOXO O O+  +O +  OX  -=.%:.**O + OX + +O  O+O +O + XX+ +OXXXOO+O +O +  OO OOXO O O+  +O + OOX  -o..o#**O + OX + +O  O",
"+OO O +O + O X O O X  X+OO O +  -=$::.**+O+O +OO++O+O + +X+OO XXO O +OXO + +X+OO O + O X O O X O +OO O +  -o..oo**+O+O +OO++O+O ",
"+ + + OX O + OO+ + O X + + + O  -=$::.*++ O+ + + +  + O + + + X + + OXX+ O + + + + O + OO+ + O   + + + O  -#$$oo*++ O+ + + +  + ",
"O O O +X + O  OO O X O+O + O +  -=$:@.*++OO+ ++O++O O + O+O + O + OX+XXO + O O + O + O  OO O X   O O + +  -#$@.o*++OO+ ++O++O O ",
"  O +O OOO O+ OXO XO  + + O O   -=$:@.*++OO+ ++O++O+ + O + + O + O XXOO X O XO O OOO O+ OXO  O O   O +O   -#o@..*++OO+ ++O++O+ +",
"+OO XO +OO OO OXO OO  OXO OXO   -=$@@.*++ +O +O+O+ O O + O+O O+O OXXXXO X X  + O XOO OO OXO  OOO O O XOO  -#o@..*++ +O +O+O+ O O",
" OO + O  O O+ OX+ XO  O O+ + O  -=$@@o*+O + OX + +OOO+ +OO O+  OXX+ OXOOX XO O + + O O+ OX+  O   + O + O  -#o@@.*+O + OX + +OOO+",
"O+OO+ ++O+ OO OX+O+O  O + O+OX  -=$:@o**+O+O +OO++O+ O+ + O+ OO+XO+O+X+ X+ + O  O+O+ OO OX+O O   + O + X  -#o@@.**+O+O +OO++O+ O",
"O + O +  +XO+ OX+ XOO O O+OO X  -=$::o**+ O+ + + + +X+  + OO+OOO+OO +XOXXX + O +OO +XO+ OX+  O   + O O O  -#$@%@**+ O+ + + + +X+",
"  + + +OX+XO+ OX+  OO O  X X<   -=.@@o*++ + OXO+O+OOO++ OO  + + +X+X+O+O   + + + +X+XO+ OX+  O   + O O<O  -#$@%@**+ + OXO+O+OOX+",
"         X  X<    <<   < < < << -o.@@o+X              XXXXOOOOOOXXXXX      < < X X X  X<    <<   < < < << -#.@%@+XO O X OX O O  ",
"                       <      <-oo..@o-                                                          <      <--#.@%@o+              ",
"######--######------######-----#oo.@%.o-------------------------------------------------------------------#o.%%@.o#-------------",
"#=====##======######======####=#oo.@%@..ooo================ooooooo======##########========######=========#o.@%;%..ooo##o#oo=o.o#",
"@...$o===o$$.$oo$$oo$$$$o======o$$@%;@.$....$$oo$$oo$$oo$@%;;%%@@@..@@..$$o###oo$$$$....@@$$oooo$$......@@..%;>;%@@@.$$$@@......",
"@@@@..oooo..@@oo@@oo....oooooooo.@%;;%@.....$$oo$$oo$$oo$.@%;%@.@.oo.@@.$$oooooo$$$$....@@$$oooo$$......@@.%;;>>;%@@@.$$@@......",
"@@@*+XO+X+X+X+XX+XO + + + + + OO O++XO +X+XO + + + + O+...@%%@@*+XO+X+X+X+XX+XO + + + & OO++XO + + + + O++XO +X+XO + + + + O+o..",
"@@,,*&&*+**+**++&+*++*+*++*+&+*++*&&+*+&+&+*++*++*+&+*+X..@@%.,,*&&*+**+**++&+*++*++*+++*+X&**++*++*+&++&&+*+&+&+*++*++*+&+*+Xo.",
"@@,++OO+ ++O++O + + +X+X+ +X  OXOOX+ + + + + +X+ +X OO  oo..@@,++OO+ ++O++O + + +X+ +XXOOXX+ * +X+&+ + OX+ + + + + +X+ +X OO  #o",
"@@,*+ +O +O+O+  O O O + +O+ + +X + + O O O O O +O+ + +  -o..@@,*+ +O +O+O+  O O O +O+ X +X&O + O +O+ + + + O O O O O +O+ + +  ##",
"oo**O + OX + +O  O+O +O+O +    XOO OOXO O O+  +O +  OX  -#..:.**O + OX + +O  O+O +O + XOXXXOO+O +O +++ O OOXO O O+  +O +  OX  -#",
"oo**+O+O +OO++O+O + +X+X+OO O +O + O X O O X  X+OO O +  -#..:.**+O+O +OO++O+O + +X+OO X +OXO + +X+OO O + O X O O X  X+OO O +  -#",
"..*++ O+ + + +  + O + + + + + OX O + OO+ + O X + + + O  -#.@%.*++ O+ + + +  + O + + + X OXX+ O + + + + O + OO+ + O X + + + O  -#",
"..*++OO+ ++O++O O + O+O+O O O +X + O  OO O X O+O + O +  -#.@%.*++OO+ ++O++O O + O+O + OX+XXO + O O + O + O  OO O X O+O + O +  -#",
"..*++OO+ ++O++O+ + O + +  O +O OOO O+ OXO XO  + + O O   -#.@:.*++OO+ ++O++O+ + O + + O XXOO X O XO O OOO O+ OXO XO  + + O O   -#",
"..*++ +O +O+O+ O O + O+O+OO XO +OO OO OXO OO  OXO OXO   -#.@:.*++ +O +O+O+ O O + O+O O+XXXO X X  + O XOO OO OXO OO  OXO OXO   -#",
"@@*+O + OX + +OOO+ +OO O OO + O  O O+ OX+ XO  O O+ + O  -#..@o*+O + OX + +OOO+ +OO O+   OXOOX XO O + + O O+ +X+ XO  O O+ + O  -#",
"@@**+O+O +OO++O+ O+ + O O+OO+ ++O+ OO OX+O+O  O + O+OX  -#o.:o**+O+O +OO++O+ O+ + O+ OOO+X+ X+ + O  O+O+ OO +X+O+O  O + O+OX  -#",
"..**+ O+ + + + +X+  + O O + O +  +XO+ OX+ XOO O O+OO X  -#o.:o**+ O+ + + + +X+  + OO+OO +XOXXX + O +OO +XO+ +X+ XO  O O+OO X  -#",
"..**+ + OXO+O+OOO++ OO O  + + +OX+XO+ OX+  OO O  X X<   -#o.:o*++ + OXO+O+OOO++ OO  + +X+O+O   + + + +X+XO+ +X+  O  O  X X<   -#",
"..+X                             X  X<    <<   < < < << -#o..o+X     OOOOOOOOOOOO     <        < < X X X  X<    <<   < < < << -#",
"..o                                            <      <--#o..o#                                                      <      <--#",
"...#-----------------------------------------------------#o...###--------------------------------------------------------------#",
"....o##############################=====ooooo=========####$@@..o###############========o--##oooooo##------########--############",
"@@@@@.$$$$$ooooooooo.@%%;;;%@@@@......$$$$.@@.$o..o.@.ooo.@%%@......@..o@@..@@.@@%;>;%@.$$..@@@@....$$oo$$...oo.@.oo.@.......@@@",
"@@@@@@@@@@....oo..ooo.@%%%%@%%%%@@@@@@@@.@%;;%@@@@.@%@.o.@%;;%@.......oo.@..@@..@@%;%@..$$..@%%@....$$oo$$..ooo.@.oo.@.......@@@",
"++XO +X+XO + + + + O+o.@%%@.@*+XO+X+X+X+XX+XO + + + + OO O++XO +X+XO + + + + O+..@@;%@.*&+++++OOO+XX+XO + + + + +OO+OX+X+ + X+ O",
"&&+*+&+&+*++*++*+&+*+Xo.@%..,,*&&*+**+**++&+*++*++*+&+*++*&&+*+&+&+*++*++*+&+*+X..@%@@,,*&&****+**++&+*++*++*+&+*+*+*+*&&+*+++++",
"X+ + + + + +X+ +X OO  #.@:.o,++OO+ ++O++O + + +X+ +X  OXOOX+ + + + + +X+ +X OO  oo.%@@,**&&++++O++O + + +X+ +X  +OO++++O+ OO +OO",
" + O O O O O +O+ + +  #o@:.o,*+ +O +O+O+  O O O +O+ + +X + + O O O O O +O+ + +  -o.%@.,**++O++O+O+  OXO O +O+ + OX+O+O+ O +O + X",
" OOXO O O+  +O +  OX  #o@:.o**O + OX + +O  O+O +O +    XOO OOXOXX O+  +O +  OX  -o.@@.***++OOX + +O  X+O +O +   +X+O+ +OO + +OO ",
" O X O O X  X+OO O +  #o@:.o**+O+O +OO++O+O + +X+OO O +O + O XO+XO X  X+OO O +  -o.@@.**&O+O++OO++OX X+ +X+OO O O+O+O++O+ OO + X",
" + OO+ + O X + + + O  #o.@.o*++ O+ + + +  + O + + + + OX O + OOO + O X + + + O  -o.@@.1&++O+O+ + +  X O + + + + +XO+O + + +  + X",
" O  OO O X O+O + O +  #o.@.o*++OO+ ++O++O O + O+O O O +X + O  ++ O X O+O + O +  -o.@@.,&++O+O&+O+&O X + O+O O O +X+O+O+OO +O XO ",
" O+ OXO XO  + + O O   #o.@.o*++OO+ ++O++O+ + O +  O +O OOO O+ ++O XO  + + O O   -o.@@.1++OO+ *+O+&O+ X O +  O +OX+XO+O+ O +O O X",
" OO OXO OO  OXO OXO   #o.@.o*++ +O +O+O+ O O + O+OO XO +OO OO O+O OO  OXO OXO   -o.@@.*++ +OO&O+O+ O X + O+OO XOX+O+O +OO + +XO ",
" O+ OX+ XO  O O+ + O  #o.@.o*+O + OX + +OOO+ +OO OO + O  O O+ OX+ XO  O O+ + O  -o.@@.*+O + OX + +OOOX +OO OO + OOXOO++O+ OO O X",
" OO OX+O+O  O + O+OX  #o.@.o*&+O+O +OO++O+ O+ + O+OO+ ++O+ OO OX+O+O  O + O+OX  -o$@@.*&+O+O +OO++O+ X+ + O+OO+ +XO + + + +  + X",
"XO+ OX+ XOO O O+OO X  #o.@.o*++ O+ + + + +X+  + O + O +  +XO+ OX+ XOO O O+OO X  -#$@@.*&++O+ + + + +XX  + O + O OX+O+O+OOX+O XO ",
"XO+ OX+  OO O  X X<   #o.@.o*X+ + OXO+O+OOO++ OO  + + +OX+XO+ OX+  OO O  X X<   -#$@@.+*++++OXO+O+OOO++ OO  + + +X+ ++XX++X ++O ",
"  X<    <<   < < < << #o.@.o+X                           X  X<    <<   < < < << -#$@@.+X                                        ",
"             <      <##o.@.o#                                          <      <--#$@%.#                                         ",
"#######################o.@@.oo--------------------------------------------------##$@%.o##---------------------------------------",
"oooooooooooooooooooooooo.@@@.oo######=======oooooo===########===============#####$@%;@.oo=####==oooo$$oo#####----###############",
"@@..@.oo..oooo....ooooo.@%%@..oooooo..........@@@@....oooooo.@@@@%%>;%@.$ooooooo$@%;;%@..$ooo....@::%%@@....oooo........@.oo..oo",
".....oooooooooo...oooo.@%;;%@.oooooo..........@@@@.....ooo..@@...@%;%@.ooooooooo.@;>>;%@.ooooo..@@%%>>%@@....ooo.@...@..@.o.@@.o",
"..o*+XO+X+X+X+XX+XO + + + + OO O + + + OO O++XO&X+XO + + + + O+oo.:;@.o*+XO+X+X+X+XX+XO + + + + OO+OO+OX+X+ + X+ OO+OOX+XOOOOo..",
"..,,*&&*+**+**++&+*++*++*+&+*++**++*+&+*++*&&+*&+&+*++*++*+&+*+Xo$@%.o,,*&1,,**+**++&+*++*++*+&+*+*+*+*+*&&+*++++++*O*+&++++  ..",
".o,++OO+ ++O++O + + +X+ +X  OXOOX+ +X  OXOOX+ ++ + + +X+ +X OO  #o.@.o,OOOO+ ++O++O + + +X+ +X  OX+OO++++O+ OO +OOO+ + +++++  o.",
"@o,*+ +O +O+O+  O O O +O+ + +X + +O+ + +X + + O+ O O O +O+ + +  #o.@.o,O  +O +O+O+  O O O +O+ + +XOX+O+O+ O +O + X+O +O+O+++  #o",
".o**O + OX + +O  O+O +O +    XOO+O +    XOO OOX O O+  +O +  OX  #=$@.o*++ + OXX+ +O  O+O +O +    X+X+O+ +OO + +OO O+ + OOOO+  #o",
".o**+O+O +OO++O+O + +X+OO O +O +X+OO O +O + O X+ O X  X+OO O +  -=$..o*,*O+O +XOX+O+O + +X+OO O +OO+O+O++O+ OO + X+ ++O+++O+  -o",
".o*++ O+ + + +  + O + + + + OX O + + + OX O + O  + O X + + + O  -=o.$o**+ O+ +X+X+X + O + + + + OX+XO+O + + +  + XO+OO +OOO+  -o",
".o*++OO+ ++O++O O + O+O O O +X ++O O O +X + O  + O X O+O + O +  -=o$$o*++OO+ +XOX+X O + O+O O O +X+X+O+O+OO +O XO  + +X+O+O+  -o",
"oo*++OO+ ++O++O+ + O +  O +O OOO+  O +O OOO O+ +O XO  + + O O   -=o$$o*++OO+ +XOX+X+ + O +  O +O OX+XO+O+ O +O O X+O +O+O+O+  -o",
"oo*++ +O +O+O+ O O + O+OO XO +OOO+OO XO +OO OO  O OO  OXO OXO   -#o$$o*++ +O +X+X+XO O + O+OO XO +X+X+O +OO + +XO O+ + O OOO  -o",
"@o*+O + OX + +OOO+ +OO OO + O  OO OO + O  O O+ ++ XO  O O+ + O  -#o$$o*+O + OX +X+XOO+ +OO OO + O OOXOO++O+ OO O X+ ++O+++OO  -o",
".o**+O+O +OO++O+ O+ + O+OO+ ++O+ O+OO+ ++O+ OO  +O+O  O + O+OX  -#o$$o**+O+O +XOX+X+ O+ + O+OO+ +++XO + + + +  + XO+OO + OX+  -o",
"oo*++ O+ + + + +X+  + O + O +  + O + O +  +XO+ ++ XOO O O+OO X  -#o$$o**+ O+ + +X+ +X+  + O + O + OX+O+O+OOX+O OO  + +X+O+X+  -o",
"oo*++ + OXO+O+OOO++ OO  + + +OX+O  + + +OX+XO+ X+  OO O  X X<   -#o$$o**+ + OXO+O+OOO++ OO  + + +O+X+ OOOXOOO OOO OOXXO+ &O+  -o",
".o++                           X          X  X<   <<   < < < << -#o$$o+X                                                      -o",
".o#                                                    <      <-##o..oo                                                      --o",
"oooo####################oooooo##-----=====####-----------------##o$@@.o##-----------------------------------------------------#o",
"ooooooo##oooooooooooooooooooooooooo.%%;>;%@oooooooooooooooooooooo$@%%@.o####################==oo==##--#########-----##ooooooooo.",
"..ooooooo$$....$$$$$$..@::::@.....o$@@%;%@.$$$oooooo$$$....$$$oo$.%;;%@..@.....................$$ooo=o$$.$$$o==#####==oo$$..@@@@",
"..ooo..o....@@........@@%%%%@@..@@oo@o@;@...$$oooooo$$..@@.......@;>>;@@@@.................@@@@...$oo.......oo==####==oo....@@@@",
"+X+XX+XO + OO O++XO&X+XO + + + + O+..o@%.oo*+XO+X+X+X+XX+XO +O + + + OO O++XO&X+XO + + + + O++@....oo*+XO+X+X+X+XX+XO + + + + OO",
"+**++&+*+++*++*&&+*&+&+*++*++*+&+*+X.o.@.o,,*&&*+**+**++&+*++**++*+&+*++*&&+*&+&+*++*++*+&+*+Xo$...o,,*&&*+**+**++&+*++*++*+&+*+",
"O++O + + + OXOOX+ ++ + + +X+ +X OO  -o.@.o,++OO+ ++O++O + + +OX+ +X  OXOOX+ ++ + + +X+ +X OO  o$...o,++OO+ ++O++O + + +X+ +X  OX",
"+O+  O O O +X + + O+ O O O +O+ + +  -#o@.o,*+ +O +O+O+  O O O+ +O+ + +X + + O+ O O O +O+ + +  -o...o,*+ +O +O+O+  O O O +O+ + +X",
"+ +O  O+O   XOO OOX O O+  +O +  OX  -#o@.o**O + OX + +O  O+O O+O +    XOO OOX O O+  +O +  OX  -#$..o**O + OX + +O  O+O +O +    X",
"O++O+O + + +X + + O+ O O O +O+ + +  -#o..o**+O+O +OO++O+O + ++X+OO + +X + + O+ O O O +O+ + +  -#$..o**+O+O +OO++O+O + +X+OO O +O",
"+ +  + O +  XOO OOX O O+  +O +  OX  -#..$o*++ O+ + + +  + O +O + +    XOO OOX O O+  +O +  OX  -#$..o*++ O+ + + +  + O + + + + OX",
"O++O O + O +O + O X+ O X  X+OO O +  -#..$o*++OO+ ++O++O O + O++O O O +O + O X+ O X  X+OO O +  -#o..o*++OO+ ++O++O O + O+O O O +X",
"+ +  + O + OX O + O  + O X + + + O  -#..$o*++ O+ + + +  + O +O+  O + OX O + O  + O X + + + O  -#o$.o*++ O+ + + +  + O + + + +O O",
"O++O O + O +X + O  + O X O+O + O +  -#..$o*++OO+ ++O++O O + OOO+OO O +X + O  + O X O+O + O +  -#o$.o*++OO+ ++O++O O + O+O O OO +",
"O++O+ + O O OOO O+ +O XO  + + O O   -#..$o*++OO+ ++O++O+ + O OO OO +O OOO O+ +O XO  + + O O   -#o$.o*++OO+ ++O++O+ + O +  O + O ",
"+O+ O O + O +OO OO  O OO  OXO OXO   -#..$o*++ +O +O+O+ O O + + O+O XO +OO OO  O OO  OXO OXO   -#o$.o*++ +O +O+O+ O O + O+OO X++ ",
"+ +OOO+ +O O  O O+ ++ XO  O O+ + O  -#...o*+O + OX + +OOO+ +O+ O + + O  O O+ ++ XO  O O+ + O  -#o$.o*+O + OX + +OOO+ +OO OO ++ +",
"O++O+ O+ + ++O+ OO  +O+O  O + O+OX  -#...o**+O+O +OO++O+ O+ + O+OOO+ ++O+ OO  +O+O  O + O+OX  -#o$.o**+O+O +OO++O+ O+ + O+OO+O+ ",
"+ + +X+  + +  +XO+ ++ XOO O O+OO X  -#..@o**+ O+ + + + +X+  + O +  O +  +XO+ ++ XOO O O+OO X  -#o$.o**+ O+ + + + +X+  + O + O+  ",
"+O+OOO++ O +OX+XO+ X+  OO O  X X<   -#..@o**+ + OXO+O+OOO++ OO  +  + +OX+XO+ X+  OO O  X X<   -#o$.o**+ + OXO+O+OOO++ OO  + +++ ",
"              X  X<   <<   < < < << -#...o+X                            X  X<   <<   < < < << -#o$.oXX                       XX+",
"                           <      <--#...o#                                          <      < -#o$.oo                           ",
"-------------------------------------#..@@o##--------------------------------------------------#o$..oo###----------------------#",
"######################################..@@..o####=######################################========o$....oo##########----------####",
"oo.$oo.$oooooo$$$$$$$$$$...$ooo$$$$$$$.@@@@@@..@......@@......@@...oooo.....$ooooooooooo$$..$$oo$$@@...ooo.@........$oooo$......",
"oo..$.@.$$$$$$..........@@@.$$........@@@@@@@@@@@@@@@@@@@@@@@.@@....oo......$$oooo$$oooo$$..$$oo$$@@....oo@@........$$oo$$......",
"@@@@@@@@@@@@@@@@@@@@@@@@@@@@@@@@@@@@@@@@@@@@@@@@@@@@@@@@@@@@@@@@@@@@@@@@@@@@@@@@@@@@@@@@@@@@@@@@@@@@@@@@@@@@@@@@@@@@@@@@@@@@@@@@",
"@@@@@@@@@@@@@@@@@@@@@@@@@@@@@@@@@@@@@@@@@@@@@@@@@@@@@@@@@@@@@@@@@@@@@@@@@@@@@@@@@@@@@@@@@@@@@@@@@@@@@@@@@@@@@@@@@@@@@@@@@@@@@@@@"
};
