/* XPM */
static char *ZZWOLF10[] = {
/* columns rows colors chars-per-pixel */
"128 128 19 1 ",
"  c gray70",
". c #CBCBCB",
"X c #8B8B8B",
"o c #9F9F9F",
"O c #A7A7A7",
"+ c gray75",
"@ c gray50",
"# c #DFDFDF",
"$ c #777777",
"% c #6F6F6F",
"& c #838383",
"* c #B7B7B7",
"= c #5B5B5B",
"- c #E7E7E7",
"; c #4B4B4B",
": c gray23",
"> c gray34",
", c #EFEFEF",
"< c black",
/* pixels */
"::::::::::::::::::::::::::::::::::::::::::::::::::::::::::::::::::::::::::::::::::::::::::::::::::::::::::::::::::::::::::::::::",
"::::::::::::::::::::::::::::::::::::::::::::::::::::::::::::::::::::::::::::::::::::::::::::::::::::::::::::::::::::::::::::::::",
"::%%%%%%%%%%%%%%%%%%%%%%%%%%%%%%%%%%%%%%%%%%%%%%%%%%%%%%%%<<<<<<<<<<<<%%%%%%%%%%%%%%%%%%%%%%%%%%%%%%%%%%%%%%%%%%%%%%%%%%%%%%%%;:",
"::%$$$$$$$$$$$$$$$$$$$$$$$$$$$$$$$$$$$$$$$$$$$$$$$$$$$$$$$<<<<<<<<<<<<%$$$$$$$$$$$$$$$$$$$$$$$$$$$$$$$$$$$$$$$$$$$$$$$$$$$$$$$;:",
"::%$$$$$$$$$$$$$$$$$$$$$$$$$$$$$$$$$$$$$$$$$$$$$$$$$$$$$$$<<<<<<<<<<<<%$$$$$$$$$$$$$$$$$$$$$$$$$$$$$$$$$$$$$$$$$$$$$$$$$$$$$$$;:",
"::%&&&&&&&&&&&&&@ +&&&&&&&&&&@ +&&&&&&&&&&@ +&&&&&&&&&&&&$<<<<<<<<<<<<%&&&&&&&&&&&&&@ +&&&&&&&&&&@ +&&&&&&&&&&@ +&&&&&&&&&&&&$;:",
"::%&&&&&&&&&&&&@$XO&&&&&&&&&@$XO&&&&&&&&&@$XO&&&&&&&&&&&&$<<<<<<<<<<<<%&&&&&&&&&&&&@$XO&&&&&&&&&@$XO&&&&&&&&&@$XO&&&&&&&&&&&&$;:",
"::%oooooooooooX@$%@ooooooooX@$%@ooooooooX@$%@oooooooooXXX&<<<<<<<<<<<<%oooooooooooX@$%@ooooooooX@$%@ooooooooX@$%@oooooooooooo&::",
"::%OOOOOOOOOOOX@@@XOOOOOOOOX@@@XOOOOOOOOX@@@XOOOOOOOOXXXX&<<<<<<<<<<<<%OOOOOOOOOOOX@@@XOOOOOOOOX@@@XOOOOOOOOX@@@XOOOOOOOOOOOO&::",
"::%OOOOOOOOOOOoXXXoOOOOOOOOoXXXoOOOOOOOOoXXXoOOOOOOOXXXXX&<<<<<<<<<<<<%OOOOOOOOOOOoXXXoOOOOOOOOoXXXoOOOOOOOOoXXXoOOOOOOOOOOOO&::",
"::%         o%==================================%ooXXXXXXX<<<<<<<<<<<<%         o%==================================%        o::",
"::%         +o==================================%oXXXXXXXX<<<<<<<<<<<<%         +o==================================%        o::",
"::%         ++XX&&&&@&@@@@$$$%%$$$%%%%$$%$$$$$$=%XXXXXXXXX<<<<<<<<<<<<%         ++@@@@@XXXXXXXXXoooooo           + =%        o::",
"::%         ++X&&&&@&@@@@$$$%%$$$%%%%$$%$$$$$$$=%XXXXXXXXX<<<<<<<<<<<<%         ++OoO    *  ***++*++++....#..###--#=%        o::",
"::%   O#,   ++X&&&&@&@@@$$$%%$$$%%%%%%%$$$$$$$$=%X&&@ +XXX<<<<<<<<<<<<%   O#,   ++OOOOO    ******+++++....#.#######=%   O#,  o::",
"::$   X*#   ++&&&&@@@@$@$$%%$$$%%%%%%$$$$$$$$$$=%X&@%XOXXX<<<<<<<<<<<<$   X*#   ++OO      ***+*++++......#####-#--#=%   X*#  o::",
"::$  O@Xo   ++&&@&@@@@$$$%%$$$%%%%$$$$$$$$$$@@$=%XX@%%@XXX<<<<<<<<<<<<$  O@Xo   ++    * ****++*+++.....#.####--#--#=%  O@Xo  o::",
"::% OOoXO   ++&&&&@@@@$$%%$$$%%%%%$%$$$$$$$$@@$=%XX@@@XXoo<<<<<<<<<<<<% OOoXO   ++ O    ****+*+++++......######---#=% OOoXO  o::",
"::%  OOO    ++&@@@@@$$$%%$$$$%%%%%$$$$$$$$$@@@@=%XXXXXXooo<<<<<<<<<<<<%  OOO    ++ O   *****++++.+....#######-----+=%  OOO   o::",
"::%         ++@@$@@$$$%%$$$$%%%$%$$$$$$$$@@@@&@=%XXXXXooOo<<<<<<<<<<<<%         ++ ******++++++.....######--------+=%        o::",
"::%         ++&@@@@$$%%$$$%%%%$$%$$$$$$$$@@@&&@=%XXXXooOOo<<<<<<<<<<<<%         ++   ****+*++++....#..####-#---###+=%        o::",
"::%         ++@@@$$$%%$$$$%%%%%%$$$$$$$$$@@@@@&=%XXXooOO o<<<<<<<<<<<<%         ++  *****++++++....#.#####-----###+=%        o::",
"::%         ++@@$$$%%$$$$%%%%%$$$$$$$$@@$@@@&&&=%XXooOO  o<<<<<<<<<<<<%         ++****+*++++......#####-#------#-#*=%        o::",
"::%         ++@$$$%%$$$%%%%$$$$$$$$$$$@@@&&&&&&=%XooOO   o<<<<<<<<<<<<%         ++***++*++++....#.####--#----#####o=%        o::",
"::%         ++$$$%%$$$$$%%%$%$$$$$$$$@@@@&@&&&&=%ooOO    o<<<<<<<<<<<<%         ++*****+++++......######----###...o=%        o::",
"::%         ++$$%%$$$$%%%%%$$$$$$$$$@@@@@&&&&&&=$oOO    Oo<<<<<<<<<<<<%         ++***++++.+....#######-----##-#.#.o=$        o::",
"::%         ++$%%$$$%%%%$$$$$$$$$$$@@@&@&&&&XXX=$OO    Ooo<<<<<<<<<<<<%         ++++++++.....#.####-------#####...o=$        o::",
"::%         ++%%$$$%%%%$$%$$$$$$$@@@@&&@&&&&XoX=%O    OoOo<<<<<<<<<<<<%         +++*+++++...#..####-#----#-#.#....X=%        o::",
"::%         ++%$$$$%%%%%%$$$$$$$$@@$@@@&&&&&XXX=%    OoO o<<<<<<<<<<<<%         ++++++++....#.#####-----##-#.#..+.X=%        o::",
"::%         ++$$$%%%%$%$$$$$$$$$@@@@@&&&&XXXXXX=%   OoO  o<<<<<<<<<<<<%         +++++.....######-------######..+..X=%        o::",
"::%   O#,   ++$$%%%%$$%$$$$$$$@@@@&&&&&&XXooooX=%  OO#,  o<<<<<<<<<<<<%   O#,   +++++....#..###--#------###....+.+X=%   O#,  o::",
"::%   X*#   ++$$%%%%$%$$$$$$$$@@@@&@&&&&&XXXooo=% OoX*#  o<<<<<<<<<<<<%   X*#   +++++......######---#####....+++++X=%   $*#  o::",
"::%   @Xo  O++$%%%%%$$$$$$$$$$@@@@&&&&&XXXXoooo=%OoO@Xo  o<<<<<<<<<<<<%  O@Xo   ++.+....#####-#-----####.#..+..+++&=%  O%$o  o::",
"::%    OO OO++%%%$$$$$$$$$$@@$@&&&&&&XXXoooooOo=%ooOoXO  o<<<<<<<<<<<<% OOoXO   ++....#.####--#------###......++++X=% OOoXO  o::",
"::%      OOo++%%$$%$$$$$$$$@@$&&@&&&&XXXXoooOOo=%oOOOO   o<<<<<<<<<<<<%  OOO    ++...#..####-#----####.....+++++*+&=%  OOO   o::",
"::%     OOoo++%%%%$$$$$$$$@@@@@@&&&&XXXXXXooooO=%O       o<<<<<<<<<<<<%         ++...#.#####-----###..#..+.++++**+&=%        o::",
"::%    OOooX++$%$$$$$$$$@@@@&@&&&&XXXoooooooOOO=%        o<<<<<<<<<<<<%         ++.######----------###.....++++*+*&=%        o::",
"::%   OOooXX++$%$$$$$$$$@@@&&@&&&XXXXXoooOOOOOO=%        o<<<<<<<<<<<<%         ++#..###--#---######....++++++****&=%        o::",
"::%  OOooXXX++%$$$$$$$$$@@@&@&&&&XoXXooooOoOOOO=%        o<<<<<<<<<<<<%         ++#.######----###..#..++++++*** **&=%        o::",
"::% OOooXXXX++$$$$$$$$@$@@@&&&&X&XoXoooooOOOOOO=%        o<<<<<<<<<<<<%         ++####-#------#-#.#..+..++++*+* **&=%        o::",
"::%OOooXXXXX++$$$$$$$@@@&&&&&&XXXXXoooOOOOOO   =%        o<<<<<<<<<<<<%         ++###--#----#####....+.+++++***   &=%        o::",
"::$OooXXXXXX++$$$$$$@@@&&@&&&&XoXXoXoOOoOOOO   =%        o<<<<<<<<<<<<$         ++#####----#-#......+++++*+* **   @=%        o::",
"::$ooXXXXXXX++$$$$$@@@@@@&&&&&XXXooooooOOOOO   =%        o<<<<<<<<<<<<$         ++###-----##-#.#..+.++++**+* **   @=%        o::",
"::%oXXXXXXXX+.$$$$@@@&@&&&&XXXXXoooOoOOOO      =%        o<<<<<<<<<<<<%         +.-------######.....++++*****     @=%        o::",
"::%XXXXXXXXX.#$$@@@@&&@&&&XXoXooooOOoOOO    ** =%        o<<<<<<<<<<<<%         .#-#----#-#.#....+++++++* **   OOO@=%        o::",
"::%XXXXXXXXX##$$@@$@@@&&&&&XXXooooOoOOOOO   ** =%        o<<<<<<<<<<<<%         ##-----##-#.#..++++++**** *   OOOO@=%        o::",
"::%X&&@ +XXX##$@@@@@&&&&XXXXXXooooOOOO O    ***=%   O#,  o<<<<<<<<<<<<%   O#,   ##----######..+..++++*+***     OOO@=%   O#,  o::",
"::%X&@%XOXXX--@@@&&&&&&XXooooooOOOOOO    ****+*==   X*#  o<<<<<<<<<<<<%   X*#   -------###....+.+++++*****  O OOOO@==  o%*#  o::",
"::%XX@%%@XXo--@@@&@&&&&&XXXoooOOoOOOO    ** +**==  O@Xo  o<<<<<<<<<<<<%  O@Xo   ---#####....++++++****     OOOOOoo@==  X%$o  o::",
"::%XX@@@XXoo--@@@&&&&&XXXXooooooOOOOO    ***+*+== OOoXO  o<<<<<<<<<<<<% OOoXO   ---####.#..+..+++*** **    OOOOoOO@== OXXXO Oo::",
"::%XXXXXXooO--&@&&&&XXXoooooOoOOOO    ****+++++==  OOO   o<<<<<<<<<<<<%  OOO    -----##......++++++****    OOOOoOo@==  OOO OOo::",
"::%XXXXXooOO--&@&&&&XXXXoooOOoOOO     ******+++==        o<<<<<<<<<<<<%         --####....+++++*+***    OOOOOOoooo@==     OOoo::",
"::%XXXXooOO --&&&&&XXXXXXooooOOOOO     ****++++==        o<<<<<<<<<<<<%         --#..#..+.++++**+ **   OOOOOoOoooo%==    OOooX::",
"::%XXXooOO  --&&&X&XoooooooOOOO O   ****+++++.+==        o<<<<<<<<<<<<%         --###..+..++++*+****    OOOOOOoXoo@==   OOooXX::",
"::%XXooOO   ##&&&XXXXoooOOOOOO     ***+*++++..+==        o<<<<<<<<<<<<%         ###....+.++++****    O OOOOooooXXX%==  OOooXXX::",
"::%XooOO    #.&&&XXXooooOoOOOOO   * *+**++++.+.==        o<<<<<<<<<<<<%         #.#..++++++*** **   OOOOOooooooXXX%== OOooXXXX::",
"::%ooOO     ..XXXXXoooooOOOOOO   ** *+*+++++...==        o<<<<<<<<<<<<%         ....+..+++**+* **    OOOoOOooooXoX%==OOooXXXXX::",
"::%oOO      ..XooooXoOoOOOO     *****++++......==        o<<<<<<<<<<<<%         ..+.+.++++++**      OOOOoOoooXXXXX%==OooXXXXXX::",
"::%OO       ..XXXooooOoOOOO   ** *+**+++..+..#.==        o<<<<<<<<<<<<%         ..++++++*+* **   OOOOOooooooXoX&&&%==ooXXXXXXX::",
"::%O        ..XXoooooOOOOOO   ** *+*++++++.....==        o<<<<<<<<<<<<%         ..+++++**+* *    OOOOoOOoXoXXoX&&&%==oXXXXXXXX::",
"::%         ..ooooOoOOOO O    ***+++++.+....###==        o<<<<<<<<<<<<%         ...++++*****     OOOOOOoooXXXXX&&&%==XXXXXXXXX::",
"::%         ..oooOOoOOOO   ** *+*++++..+..###-#==        o<<<<<<<<<<<<%         ..+++++* **   O OOOOoooooXoX&X&&&&%==XXXXXXXXX::",
"::%   O#,   ..oooooOOOOO   ** ***++++++..#..###==   O#,  o<<<<<<<<<<<<%   O#,   ..++**** *   OOOOOoOooooXXoX&&&&@@%==X&&@ +XXX::",
"::=   X*#   ..oOoOOOO O  * ****++++++....######==   X*#  o<<<<<<<<<<<<=   X*#   ..++++***     OOOoOOoooXXXXX&&&@&&%==X&@%XOXXX::",
"::=  O@Xo   ..OOoOOO     ***++++++.....###-----==  O@Xo  o<<<<<<<<<<<<=  O@Xo   ..+**** *  O OOOOoOoooooXXX&&&&@&@%==XX@%%@XXo::",
"::= OOoXO   ..OoOOOOO   * ****++++.+..#..###---== OOoXO  o<<<<<<<<<<<<= OOoXO   ..** **   OOOOOoooooXXXXX&&&&@@@@@%==XX@@@XXoo::",
"::=  OOO    ..OOOO O   ** *+++++++.....####----==  OOO   o<<<<<<<<<<<<=  OOO    ..+* **   OOOOoOOoooXXXX&&&&@&&$@@%==XXXXXXooo::",
"::=         ..OOO     *****++++.+....###------#==        o<<<<<<<<<<<<=         ..**    O OOOOoOooooooXX&&&&&&@$@@%==XXXXXooOo::",
"::=         ..OOO    * *+**++++.+..#.####-----#==        o<<<<<<<<<<<<=         ..**   OOOOOOoooooXXXXX&&&&@@@@$$$%==XXXXooOOo::",
"::=         ..OOO   ** *+*+++++...#.#####---###==        o<<<<<<<<<<<<=         ..**   OOOOoOooooXXX&&&&&@&@@@@$$$%==XXXooOO o::",
"::=         ..      **++++++.+....#.#------#--#==        o<<<<<<<<<<<<=         ..     OOOOoOoXooooXX&&&@&&@@@@$$$%==XXooOO  o::",
"::=         ..   ** *+**+++..+..#.####-------##==        o<<<<<<<<<<<<=         ..  OOOOOOoooooXXXXX&&&&@&@@@$$$$$%==XooOO   o::",
"::=         ..   ** ***++++++..#..###-----#####==        o<<<<<<<<<<<<=         .. OOOOOoOooooXXX&&&&&@@@$$@$$$$$$%==ooOO    o::",
"::=         ..   ****++++.+....#####----#-####.==        o<<<<<<<<<<<<=         ..  OOOOOOoooXXXX&&&&@&&@@@$$$$$$$%==oOO    Oo::",
"::=         ..****+*++++..+..###-------#--####.==        o<<<<<<<<<<<<=         .. OOOOoooooooX&X&&&&@&@@@$$$$$$$$%==OO    Ooo::",
"::=         ..** +**++++.+..#..###-----#-#####.==        o<<<<<<<<<<<<=         ..OOOooooXXXXXX&&&&&@@@@@$$$$$$$$$%==O    OoOo::",
"::=         ..***+*+++++....#####----#-####....==        o<<<<<<<<<<<<=         ..OOoOOoooXXXX&&&&@&@@@@$$$$$$$$%$%==    OoO o::",
"::=         ..*++++++......##-------#--###..#..==        o<<<<<<<<<<<<=         ..OOoOoooooXXX&&&&@&@@@$$$$$$$$%$$%==   OoO  o::",
"::=   O#,   ..***+++..+..#.####-----#-######...==   O#,  o<<<<<<<<<<<<=   O#,   ..ooooooXXXX&&&&&@@@@$@$$$$$$$$%$%%==  OO#,  o::",
"::=   X*#   ..**++++++....#####---######......+==   X*#  o<<<<<<<<<<<<=   X*#   ..OOoooXXX&&&&&@&@@@@$$$$$$$$%%%%%%== OoX*#  o::",
"::=  O@Xo   ..++++.+....###------#--###..#...++==  O@Xo  o<<<<<<<<<<<<=  O@Xo   ..OooooooXX&&&&&&@@@@$$$$$$$%$$%%%%==OoO@Xo  o::",
"::= OOoXO   ..+++..+..######-----#-######.....+== OOoXO  o<<<<<<<<<<<<= OOoXO   ..ooXXXXXX&&&&@@@@@$$$$$$$$$%$%%%$%==ooOoXO  o::",
"::=  OOO    ..+++++..#.#-##-----#####.#....++++==  OOO   o<<<<<<<<<<<<=  OOO    ..ooXXX&&&&&@@@$@@$$$$$$$$$%%%%%$$%==oOOOO   o::",
"::=         ..+++....#.#-#----#-####..#...+++++==        o<<<<<<<<<<<<=         ..ooXoXX&&&@&&@@@@$$$$$$$%$%%%%%$$%==O       o::",
"::=         .......######-------######.....++++==        o<<<<<<<<<<<<=         ..XXXXX&&&&@&@@@$$$$$$$$$%$%%%%$$$%==        o::",
"::=         ...+..#.#-##-----#######....+.++++*==        o<<<<<<<<<<<<=         ..XX&&&&&@@@@@@$$$$$$$$$%%%%%$$$$%%==        o::",
"::=         ........#-#----######......+++++***==        o<<<<<<<<<<<<=         ..oX&&&&@&&@@@$$$$$$$$%$%%%%$$$$%%%==        o::",
"::=         .....#####----#--####.#.....+++*++*==        o<<<<<<<<<<<<=         ..XX&&&&&&@@@$$$$$$$$$$$%%%%$$$%%$%==        o::",
"::=         ...#.#-#------#-#####......++++*+**==        o<<<<<<<<<<<<=         ..X&&&&@@@$@$$$$$$$$$%%%%%$$$$%%$$%==        o::",
"::=         ..#..###----######.#....+++++******==        o<<<<<<<<<<<<=         ..&&&@&@@@$$$$$$$$$%%%%%$$$$$%%$$$%==        o::",
"::=         ..######---#--###..#....++++*++*** ==        o<<<<<<<<<<<<=         ..&&@&&@@@$$$$$$$$%$$%%%%$$$%%$$@@%==        o::",
"::=         ..#----------######.....++++++*****==        o<<<<<<<<<<<<=         ..&&@&@@@@$$$$$$$$%$%%%%$$$%%$$$@@%==        o::",
"::=         ..###-----#####.#....+.++++*****   ==        o<<<<<<<<<<<<=         ..@@@@@@$$$$$$$$%%%%%%$$$$%%$$$@@@%==        o::",
"::=         ..##----#-####..#...+++++*+****    ==        o<<<<<<<<<<<<=         ..&&$@@$$$$$$$$%$$%%%%$$$%%$$@@@@&%==        o::",
"::=   O#,   ..-----#--####.#.....+++*++**** *  ==   O#,  o<<<<<<<<<<<<=   O#,   ..&@$@@$$$$$$$$$$%%%%$$$%%$$$@@@@&%==   O#,  o::",
"::=   X*#   ..-----#-#####....+.++++*+***      ==   X*#  o<<<<<<<<<<<<=   X*#   ..@@$$$$$$$$$$%%%%%$$$$%%$$$$@@@@&%==   X*#  o::",
"::=  O@Xo   ..---######......+++++******    OOO==  O@Xo  o<<<<<<<<<<<<=   @Xo  O..@@$$$$$$$$%$%%%%$$$$%%$$@@$@&&&&%==  O@Xo  o::",
"::= OOoXO   ..--#--###..#....++++*++***  *    O== OOoXO  o<<<<<<<<<<<<=    OO OO..@@$$$$$$$%$$%%%%$$$%%$$$@@$&&@&&%== OOoXO  o::",
"::=  OOO    ..----######.....++++*+***      OOO==  OOO   o<<<<<<<<<<<<=      OOo..$$$$$$$$$%$%%%%$$$%%$$$@@@@@@&&&%==  OOO   o::",
"::=         ..-#####.#....++++++***** *   OOOOO==        o<<<<<<<<<<<<=     OOoo..$$$$$$$%%%%%%$$$$%%$$@@@@&@&&&&X%==        o::",
"::=         ..-####..#...+++++*+****  *   OOoOo==        o<<<<<<<<<<<<=    OOooX..$$$$$$%$$%%%%$$$%%$$$@@@&&@&&&XX%==        o::",
"::=         ..-####.#.....++++++***      OOOOOo==        o<<<<<<<<<<<<=   OOooXX..$$$$$$$$%%%%$$$%%$$$$@@@&@&&&&Xo%==        o::",
"::=         ..#####....+.++++*******   OO OOOoo==        o<<<<<<<<<<<<=  OOooXXX..$$$$$%%%%%$$$$%%$$$@$@@@&&&&X&Xo%==        o::",
"::=         ..##......+++++******   O  OOooOooo==        o<<<<<<<<<<<<= OOooXXXX..$$$%$%%%$$$$$%%$$$@@@&&&&&&XXXXX@==        o::",
"::=         ..##.#....++++*++***    O OOOOOoooX==        o<<<<<<<<<<<<=OOooXXXXX..$$$$$%%%%$$$%%$$$@@@&&@&&&&XoXXo%==        o::",
"::=         ..##......++++*+*****   O OOOOooooo==        o<<<<<<<<<<<<=OooXXXXXX..$$%%%%%$$$$%%$$$@@@@@@&&&&&XXXoo@==        o::",
"::=         ..#....++++++*****      OOOoooooXoX==        o<<<<<<<<<<<<=ooXXXXXXX..%%%%%%$$$$%%$$$@@@&@&&&&XXXXXooo@==        o::",
"::=         ..#....++++*+****    O OOOOooooXXoX==        o<<<<<<<<<<<<=oXXXXXXXX..$$%%%%$$$%%$$@@@@&&@&&&XXoXooooO@==        o::",
"::=         .......++++++******     OOOooooooXX==        o<<<<<<<<<<<<=XXXXXXXXX..$%%%$$$$%%$$$@@$@@@&&&&&XXXooooO@==        o::",
"::=         ....+.++++*****   O  OOOoOoooooXXXX==        o<<<<<<<<<<<<=XXXXXXXXX..%%%$$$$%%$$$@@@@@&&&&XXXXXXooooO@==        o::",
"::=   O#,   ...+++++*+****    O OOOOooooXXXXXX&==   O#,  o<<<<<<<<<<<<=X&&@ +XXX..%%%$$$%%$$@@@@&&&&&&XXooooooOOOO@==   O#,  o::",
"::=   X*#   ....+++*++**** *    OoOOooooXoXXXXX==   X*#  o<<<<<<<<<<<<=X&@%XOXXX..%%$$$%%$$$@@@@&@&&&&&XXXoooOOoOO@==   X*#  o::",
"::=  O@Xo   ...++++*+***      OOOoOoooooXXXXXX&==  OoXo  o<<<<<<<<<<<<=XX@%%@XXo..%$$$%%$$@$@@@@&&&&&XXXXooooooOOO@==  OoXo  o::",
"::= OOoXO   ..+++******    OOOOOOooooXoXXXX&&&&== OOooO  o<<<<<<<<<<<<=XX@@@XXoo..$$$%%$$$@@@&@&&&&XXXoooooOoOOOO @== OOooO  o::",
"::=  OOO    ..++*++***  *    OoOOoooXXoXXXX&X&&==  OOO   o<<<<<<<<<<<<=XXXXXXooO..$$%%$$$@@@@&@&&&&XXXXoooOOoOOO  X==  OOO   o::",
"::=         .................................**$=        o<<<<<<<<<<<<=XXXXXooOO.................................**$=        o::",
"::=         .................................**o$        o<<<<<<<<<<<<=XXXXooOO .................................**o$        o::",
"::=                                                      o<<<<<<<<<<<<=XXXooOO                                               o::",
"::=                                                      o<<<<<<<<<<<<=XXooOO                                                o::",
"::=                                                      o<<<<<<<<<<<<=XooOO                                                 o::",
"::=            O#,          O#,           O#,            o<<<<<<<<<<<<=ooOO        O#,          O#,           O#,            o::",
"::=            X*#          X*#           X*#            o<<<<<<<<<<<<=oOO         X*#          X*#           X*#            o::",
"::=           O@Xo         O@Xo          O@Xo            o<<<<<<<<<<<<=OO         O@Xo         O@Xo          O@Xo            o::",
"::=O         OOoXO        OOoXO         OOoXO            o<<<<<<<<<<<<=O         OOoXO        OOoXO         OOoXO            o::",
";;=           OOO          OOO           OOO             o<<<<<<<<<<<<=           OOO          OOO           OOO             o;;",
";;=                                                      X<<<<<<<<<<<<=                                                      X;;",
">>>>>>>>>>>>>>>>>>>>>>>>>>>>>>>>>>>>>>>>>>>>>>>>>>>>>>>>;;:::::::::::<:;;>>>>>>>>>>>>>>>>>>>>>>>>>>>>>>>>>>>>>>>>>>>>>>>>>>>>>>>",
">>>>>>>>>>>>>>>>>>>>>>>>>>>>>>>>>>>>>>>>>>>>>>>>>>>>>>>>;;::::::::::::;;>>>>>>>>>>>>>>>>>>>>>>>>>>>>>>>>>>>>>>>>>>>>>>>>>>>>>>>>"
};
