/* XPM */
static char *ZZZFACE7[] = {
/* columns rows colors chars-per-pixel */
"128 64 102 2 ",
"   c black",
".  c #0C0B09",
"X  c #170F07",
"o  c #120E08",
"O  c #161208",
"+  c #1C1309",
"@  c #1E1A0E",
"#  c #151515",
"$  c #1B1711",
"%  c #1E1B13",
"&  c #1E1C1A",
"*  c #220B05",
"=  c #290D06",
"-  c #3D0604",
";  c #320B05",
":  c #3A0D06",
">  c #3B0E08",
",  c #2E1107",
"<  c #231509",
"1  c #2C1409",
"2  c #241C0D",
"3  c #2B1B0B",
"4  c #351408",
"5  c #3E1309",
"6  c #321E0E",
"7  c #3A1D0D",
"8  c #231D13",
"9  c #2A1F12",
"0  c #231F19",
"q  c #2D1B1B",
"w  c #301D1D",
"e  c #3E1919",
"r  c #1D220C",
"t  c #1F2317",
"y  c #25240D",
"u  c #2B220F",
"i  c #31230F",
"p  c #252214",
"a  c #2D2613",
"s  c #2D2816",
"d  c #24251B",
"f  c #2A261C",
"g  c #26291C",
"h  c #2D291D",
"j  c #332413",
"k  c #3A2616",
"l  c #342A13",
"z  c #3A2D16",
"x  c #32261A",
"c  c #322A1A",
"v  c #3D2C1B",
"b  c #3F3017",
"n  c #3C301C",
"m  c #262625",
"M  c #282621",
"N  c #242822",
"B  c #2B2923",
"V  c #2A2A2A",
"C  c #382525",
"Z  c #332C22",
"A  c #3C2D21",
"S  c #302E28",
"D  c #3D3123",
"F  c #323232",
"G  c #420301",
"H  c #4D0303",
"J  c #450B06",
"K  c #4B0B06",
"L  c #4A0D09",
"P  c #540505",
"I  c #590707",
"U  c #520904",
"Y  c #5E0909",
"T  c #41170C",
"R  c #4A170F",
"E  c #421E12",
"W  c #5E1711",
"Q  c #630B0B",
"!  c #690C0C",
"~  c #6C1111",
"^  c #651813",
"/  c #6A1E18",
"(  c #731313",
")  c #791717",
"_  c #7D1A1A",
"`  c #422315",
"'  c #432F1F",
"]  c #44331B",
"[  c #49371F",
"{  c #4C391D",
"}  c #453222",
"|  c #4A3625",
" . c #453824",
".. c #4D3A25",
"X. c #423629",
"o. c #4E3A2A",
"O. c #513E26",
"+. c #503D29",
"@. c #554327",
"#. c #584429",
"$. c #831E1E",
"%. c #862020",
/* pixels */
"X X X p s l s h 2 p 3 s 2 p d z B s s l s h B d B M f h B B z g s 8 u p M s c c @ 2 t z 9 f s 2 s 0 B f p 0 f f s B n g s B c f M s c c z f d z c g h j s f B M a B c f a s f s s B f M s f c h z M c l V B s y a B c h a } k l ' B k  .c s h f } v ' [ v B c g ",
"X X X d B f c s 8 p u f 8 Z V h B B B g c s z l B h s h d f l p a 0 f c f p l d s h d h p p @ h s 3 j p 9 p s h d f l p a B h s f p l d s B V g B B M f l s z l f s c s s f f h s M l f B M l B z Z B g v ' Z c v c k l c | x Z ' M z [ a s f s ' v ' [ c B s c ",
"X X X B M N s f p S 0 d p h s B l S M d s f g B d c s h l Z c B M 8 f c M B B M c h 8 B x B d d h 8 M 0 d + d f l B s V B l f h c k Z Z x k v c k v c Z c x x v c k k ' ] ' ' ' ' ' ] ' ' ' ' ' ' ' } } ' ' v ' v v ' v ' j s Z } h z { s s s s ' ' ' [ Z s f Z ",
"X X X f s f c x 2 S 2 B 8 f B B B Z s f B l f l u 2 2 2 2 2 y 2 s 0 s B l B l M g f < 8 B c h f c c d 3 l f s l l a c B c Z D } } v v ' ' v v v ' ] } ' ' v v v ' v ' c j a j j 6 a j a j i a j j j j j 9 s a p a l u j u u u z ' f c | B l c l ' v ' [ z V c B ",
"X X X f z f d z 9 f 8 j 8 h B M B B f g B B b g 3 k k ' k ` v 2 l 0 p z c g h l s h B M B B f h h M f p B s f h h s c ' } v k j p f s a l s s a s a c j a h s p a u u d c B f V f s B s Z V a V Z h c c c s c y l a s h c m f Z ' s A { B a c f ' ' ' [ n c M d ",
"a y u d s h V f p B d f p s z l B f s f d f c p 2 7 j 7 j j j 3 a l Z c v c z z c z z ] Z c n z z z z l z z n c X.o.' v z k c z c v Z v c z A c v v A z v z ] v l l z n c Z c c v c Z Z c Z z c c n c z l z ] l c l c n c Z z v O.c ] ..D c c n [ ] | @.c c s c ",
"g B m M s h s B 2 S 0 N 8 f M B d s c f l c s V 2 6 j j j k j 3 ] } [ [  .{ [ [  .[ [ {  .[ [ [  .{ [ [ [ [ ..o.| k v [ [ | [ [  .{ { [ { [ [ [ { } ] | [ [ [ ] { @.O.{ [ [ { { { ] O.{ { [ [ [ { [ [ [ [ { [ [ { { [ | | { [ | o. .O.{ ..[ [ ....O.#.[ s M g g ",
"l B l B g h B B f c 2 f 0 c h l l f s l s l c B 8 6 7 k j j 6 1 3 s p s f s a p l h u u l a u a u s l a j l ' k 6 3 u s a a a a x u y s p s g a f s j p s l u u a z l h s f s d a f z u s a a f y s y s s s a y u f p f s f s k } 3 i l a s p 6 j 6 j 3 f B c h ",
"B m s c B h n B p h p z 8 l h c u B l a B h B B 2 i k j 7 j 6 3 v ' ' ' ' ' ' ' ' ' ' ' ' } ' } ' } } | +...' j x x k v z c Z x v c k c B h c B h c c z x l h c h k z u l B h l s B z f l M c B B s c s c h B y M s s s a B h l ] B b | s f s f ' ' ' s m c l h ",
"s f B B l c s Z p l p l 8 a c f B d V h B s d a 2 6 7 k k 6 6 3 2 j i j i j 6 j i j j j j k k k k k v j k v ' ' ' ' v ' v v ' ' v v ' ' } ' } ' ' | } ' ' ' ] ' c ] ' B a c Z m f f n p l M h h M f s B c c f p f s s B s c Z Z } f c { s h a f ' ` ' f c f B S ",
"s B f B s B c h p B 9 s 8 h f s y s h s M a l V 2 6 k j k 6 6 9 ' ' ' ' ' ' ' ' ' ' ' ' } v ' ' ' j 6 a 3 u u s f s u u s s a f s a s f i j j j j j j j j j k v ' | ' v h h l l s c c B h M s s a g h B c B g t c c d f f h s v ' s c { f s f s ' ' ' V f s h f ",
"c f h s c c c B 0 f u s 8 h s f s y V s h S c h 2 i k j 6 j 6 < 2 3 j i j j u j 6 j u j j 2 d s a f B B x s s s h h f B s c l c s Z s h c c c B f x k s d f s u u l j k  . .D d s B c h f h h s d h c s h S f r S s h B h M c c ' h c | c s l f ' v ' c B f f h ",
"l g f s s c l B % l 8 c d f V h c f M h c B s s 2 3 1 3 < 3 @ < a 9 a B d l f s V f V h c f M c a B B s f M B a h 2 p M f c s s V c s c s c l B s k c s V f V h l l c f x j } } s i Z c h h s B s s B d c h Z p h B B V h f f c ' l Z [ f M Z s ' ' } f s V h c ",
"s h c s c c a f p c 3 s 9 c h V a l B f M Z f f p u a a j j u 3 s 9 a h c c f s B c h V a c B f M f c h f a c h h k h u d 8 B d h v B g c c l f h c k s B c B V M c n B l f j | Z h n B Z c c s s h M B N M h t g B l B s f h } A h z [ M M M j ' ' ' c B B V M ",
"B s B s B l B m p B p B p B s c s l f B c c B V s j v c c v x s B 3 M V B B M B h h f c c s h B d f s s s c M h B s B Z ] c V V n h m V B l B V B c v B h Z s c n Z l m a a f j ] l ] d z u c V s c c V s V c t c V a M a u B } z l ]  .p B p f ' k } f c B f d ",
"d s B l N s s N p c 0 S 8 f h V s V c f g B l Z B k ' z v ' v v Z l c c v n Z A v c z Z l v z c Z v c v z Z v Z z c c z k v v A c v A n Z z c c z D A v c c k Z c X.} D k z z c v v  .D v z c c c c l f a B c s c Z k Z k A } O...v z [ B B i f ' ' ] B B Z a V ",
"S h B s a c s g 2 h 8 c a B c s V Z s c a B l f a j ' ] p ' c M c 8 g m h B b f a B c f a f f s s B f B f f c x v M c s V c h l a S l f a g h a p Z x f s f f M a } z x l Z v ' o.o.| ' ' ] ' ' ' ' } ' ' ' } ] ` v v v v v v k } | k | c h h f ' ' } f h B c g ",
"B D B p s M s B 8 B p B a c B d h Z h B h h c s a l } c ' ] v Z k x k A c c b s c v n c v z c n k c v Z c v v ' | ' ' ' } ' ' ' ' ] ] ' v ' ] ' ' ' ' ' ' } ' ' ' ] ' } v ' v j k k x 6 j a 6 j a j 6 j i a j y s s s s j s ' k j ' z [ a s g s ' v ' p u B s c ",
"b B m V c f B s 0 V 2 B j m V V n c s B B x s a a l } f Z } x s g 9 s g l Z c V B l s a a s c f f f s s f f } | v j j j j a a i j k v v ' ' k ' ' ' } v k j j j a j j u y s f h f a ' 6 d V a M k Z c V z c c t B h s u u k } c Z ' z { s s s s ' k ' B B s f Z ",
"d h Z c V z f m 0 m y m @ V c Z d h c Z B c s c f l ' f Z ' s s c 2 f l s a s B B c g l f u u a h B s s B f } x d B c Z d h c Z B c u j y u u u p x 6 a h l h l s l l s f u u j h M k ' B m a B c ' ' ' | S c p B c s c f } v l Z } c [ B l c i ' ' ' B s V c B ",
"Z l l g h a d p 9 V 8 V u h c s c s c l s l a f u k } Z k } a f M 3 f f B f f B c a x f s m f m f f m V c h ..A v c v c v c k B f s c f k Z k x x x Z f B a c c c v ' Z v k z Z ' ' | o.O.| ' ' } v i j } | c y l a x g c } f m k ' Z { B j c f ' k ' S h l N d ",
"p l s s s s s f p m 2 f @ c B l s l c a p a l f c f ' k x | } } ' ' ' ' } ' } ' ' ' ' ' } c A ' ] ' ' ' ' k ..' v v ' ' v v } } ' } } ' ] ' v } ' | | ' ' ' ' ' ' ' } v v v v ' j a j 6 k j j i j i c j k } x y p s h s v } c Z v ' Z [ s B M s ' ' ' a h c s c ",
"s l c s h s c h p f 2 l 8 l c s g s l B s M p l g s ' x f a j 6 j j j j j j a j j u j j k v ' j j j j a j a } k s a 2 u a u a j j j j 9 a f p i i j k j i j j a j u l f u l x u s s c u v 6 a s f z z c j ' j t c M h l Z ' p f ' c A { f B B a ' ' ' V s M g h ",
"g l c s m g h M 2 f @ V p c a h c c l u l c h B h f ' x h h f h s 0 x f f S l h j f p h h f s B s h f f s u v Z d h a c c s l c l f M B h h B V s x h s s f h M h Z c s g c c i V f v M j } a m g n l h s } l y l f M B c } B V ] c c | s h h p ' v } h M M c f ",
"g c 8 8 y 2 u u u M 0 B 2 S c f u f 2 u p B f M l B } v k c Z c k k l x k v c v f f h M c c c k ' ' } } l p ' v M a s s h h B s M p x s c Z v k k v A Z j k k z z } } c Z v z x k z ] c k | c v Z v ] c x ..' x x k l x ' ..x k o.v v [ k k k c | ` ' s m c l s ",
"2 l 0 % 2 2 8 8 9 0 p x 0 h s s a c v ] z M l f s c j ' v ' v ' v v v v v v v v } ' ' ' } ' ' v ' x c } } x } c B h c V c c f h f s s k ..' v ' v ' ' v v ' v v ' } | v v v ' v ' k | ' v ' v ' v } } v ' o.' v v v ' v ' ..' v ..' | | v ' v ' v k ' f c f B B ",
"O + @ p @ p d 8 p 8 2 y d h a u a s l p j g s s g h f l 3 a a f a u f a s a u a u j j j j s s l 2 x f j } l ' j s g f M c B f f c c d l } p s l a x 6 f u s d l a z l p l s f f s h j u j k k a s v k f a } j u j s f s j } 3 u } j u z u s f a f x } V h s h h ",
"2 + + + < a m B h h f f B a h k g y a c s h s s s M c d h f d f z 2 a B f B j c S s h f a M B p s h p x ' j ' f s d c c h S B c S h c l } M h p s c f f c s l B s k z c d h Z B M h z f s u ' A B l n s k | h y S x f f k | x s | v c [ l s l B h A } Z B f f h ",
"3 8 8 @ + + 2 f d l B M j l j f l l k m f s M h f f f s s l c s f 0 f f h B c h s B V V s f f s s l B l ' k v s s s B d c h B B g B B l } f f s s k S c s M h h h z D f Z h c c s f Z B f c k } | ..| } ' o.] ' ' ' ' ' } +.' ' +.} | o.} ' } v v ..k B s V h c ",
"x 0 M N 0 + O + u u m V s x p h f c c B h h B d c f h f f s h V M 8 M l d S c c d B j B c g h B f s s j ' k ] a s h M h g N h V M B l l | f h M h k k B B M M l d D n c d B h c B B n f c z o.j | l j j k o.j a j i i j v | j a | v j l j j v ' } v j c B B m B ",
"b l % 0 0 2 < @ X + 2 h a c d M s d s d Z h c c u a B g s l v g s % s B a V h s c m j B u u M f s l z k ' j ' h s h s V s V Z B c l ] ] +.] | [  .] ]  .| [ [ [  .....{ {  .{ { | { | {  .[ o.[ v | [ [ | | [ [ [ [ [ | } | { { | | o.z s m a f a f h s Z B f M ",
"l l ] s s 2 2 y 2 + X X y u Z S h Z B V s s g h a l a V s c l f h 0 a B h B l B h B a m l c a V l c u v ' x } Z f B l h a B l h f ..+.' | k l z z z k k l z l z l ] b l l z l z l k ] l z v } k 6 v ' l z } l j z l z l ..v z j | k k s h m a B h V l h B Z s m ",
"a l l u b b u y u < 2 + X + y s d s B B s B f M a B B s p B f M s 8 f M h B z g l B s f a s h s s M s ' v f ' Z k B c l V Z l s i ..z j v a f s d x x M a B s f a l l s s d t p r y l y 2 h v p 2 2 v v x | y @ a c a k v j s u ' j f M c h h M h B n g l B c f ",
"2 u a l l l b ] l a u y < + X X 2 l m m h g s s m f s f l M l f a p f c d f l p h h s s a g f Z s M a ' v f ' Z k Z B d h Z h B f [ l j ' f f h c Z z f h h c s u l z s s r i f s p z f B x ' B c c j v ' O.s f f s l ' k p h g ' x j h s s g h d f l p a B g s ",
"2 < u u u l j l ] b l l u 2 2 + X X 2 s d c B h Z s h f M f s h p 8 8 2 2 8 8 % 2 2 @ < y < 2 8 @ $ 2 j ' 8 ' f 2 % % % 2 8 2 2 2 [ x a ' + 3 % @ a j @ 8 < < 2 u l l 8 p p s h Z r A p d Z ' M ] m m s ' o.l B B x s ' k s s f v ' s s s s s f l c c V B s h c ",
"+ @ < 2 2 u 2 u l l ] ] b b a < + O O + 2 u B h f m B s s h M l c h d d f a s B M c s s d u u a f d s x ' f ' x d m h h d f 8 h M [ l k ] u a j f x x s M c a a f l l u 2 t s s V y c B B x ' M d V Z f s | | n B c s ' k u a a j ' x s h l h l s a s B c V c B ",
"O X + + 2 2 2 y u i l b { ] l y < + 2 + + + y s V a B B B h m s c B B M h h f B h l M d Z l l s f s d k ' f } Z Z f c c c s 2 l s { z l } B f m f x Z f s a h h c Z c m % y M f f y n p h k ] m B f c l l ' k | c l s ' z m f m l ' M h B a c h B h h B h c M d ",
"a X X X + + 2 2 y 2 u i z b l u y i u u 2 + X + a s B s l M B l c Z h l l f f s g p s c p l s s l p s ' k f ' k p s B l a a 2 y % l 9 2 j 8 a f p j 9 d p s p h f l l f 8 p M d s 2 c d f 2 j 9 y s B c k v u } j h s ' c B s h k ' B g s B M s B s d a h s s c ",
"c n u + O X X < + 2 2 y l ] ] ] ] { { l u 2 + + + u f u B M s s B g a l s a s s s d f f s z c s h s s ' c p ' x h l c c p 2 2 @ u 2 2 2 y 2 2 2 2 2 9 8 l g < y u u u 2 2 2 < f 2 2 u u u u 2 u p 2 c l j ' l ' c B f } k M s f l ' s s h B B l M a l V s B g s ",
"c s Z l a X X X + + < y y i z z z ] ] ] ] u y u 2 @ p h h s f l l B s l Z s s s h s c g h c s s V f p } Z j ' Z g B a s p @ 2 y 2 2 2 2 2 2 8 2 2 2 3 $ c f 2 a u u a a a y y f % u u u j u u a u p a h l ' a ' k f M ] c B B V k ' f h s f h M h S s h M B c B ",
"F c s h c c j O X X + + 3 2 2 p a l l l ] { b u u u y g s g a B s B s c s l m g h B c s j f f s g B a ] A s ' v B s c c 8 u 8 + O 8 2 @ @ < 2 @ < u u @ p 2 2 2 2 2 y 2 u 7 2 0 < 2 2 2 2 2 2 2 2 3 c s x ' f ' Z p x ' k V c u ' A f m c f s B c B s s V c l s ",
"h c B B c y c c u + O O O + < 2 u 2 u l l l ] b l l a h B B l c c s g c B B a a s s s s a c g Z s M u v x 0 v f M h s m 2 p + & # .               o u + 0 2 2 2 < u u u u u 2 2 8 2 2 y 2 2 y 2 2 8 s B k ' f ' Z a s } c c S f ' Z s y s f l B B c f f s f B S ",
"z B m m B Z M s l c a + X X O < 2 2 < u y l l l ] z b s B c l a < + 2 a m m l a g s s a a s l d 2 2 2 3 < 2 2 3 u g h M 2 u 0 N                   o p @ p 9 2 < 2 u u u a u 2 p % u 6 u a u u u u 3 c Z v o.c | A c d ' c x s a ' v f M f s h s h Z B m h s h f ",
"d c c S B h V f c s c c j O X O O + @ 2 < 2 u l l l b h V c l u 2 @ O + 2 f d c B B s c f u a 2 2 < @ u 2 < 2 2 0 g l s @ u %                     o u @ d 8 2 X O u u u u u 2 8 2 u a u u u u u u 2 v ' ' O.' v c s h ' c M h s ' c d h c s l B h B l Z B f f h ",
"Z h c s s g h M h h s c c c a + X X O + @ 2 2 2 2 i l l V B l l a y < @ X + 3 a V m s a l m d d u < @ y 2 < 2 u 2 2 0 p % u o                     . u % p p 2 2 2 l u u u u 2 p 2 u u u l u u u u 2 d s x ' h M f B B } k f f s ' k c c f M h h h h c h s V h c ",
"p S g n m S h h Z B c s h f c c a + X X X + 2 2 < y l s V S a l b u u 2 2 + O O 2 f d l s a c 8 < X O < 2 X X 2 % 0 8 9 @ u .                     o u 2 9 8 y u u u u u u u 2 d 2 u u u u u u u u 8 B h j ' h V M B l ' l f f f } x B B B M B a d V c c B B m B ",
"s V n M M V l M l l h V l B c m l v a + X O + + 2 2 u s V c a l ] ] l l u y 2 @ O X + y % u 2 < u @ 2 2 2 2 < y 8 h c m @ y .                     . p 2 a 0 3 u u u u u u u 2 2 % u u u u u u u u 8 c m j ' Z B c m a ' l a M h v ] n d s m s M a V h h Z B f M ",
"s S s h B m u B n l p B f B l h x h c c u + X X X + l s f c l i l z ] u 1 ; 2 2 + + X O + 2 t 2 2 2 2 y u 2 2 u 8 V l h 2 u a + + + O O + O + + + a u < 8 0 y u u u u a u u 2 8 2 u u u u u i u u 8 l f k ] a h f V a ] k c l m k } l h h m a V s S l h B Z a m ",
"V Z h c a s h g s f c Z z M c c V c s c b b u @ < l b l g s a 2 y i i @ K P H ; 2 2 < @ X + 2 2 8 2 2 @ 0 < 2 2 2 B c l 8 a u u a u y y u u u u u y p @ 2 0 2 u u u i u u 3 3 0 2 u u u y 3 u u i 8 c s x ] s c l B c ' l h h s x ' c M s g s M B B b g s B c g ",
"h Z B p s B s B B M s B v c B d B Z g B s z b [ { ] c f c Z l y 2 2 y ; H I Y P G = 2 2 < + O + 2 3 0 l s y 8 d a p p p 8 < y 2 y 2 2 y 2 y 2 2 2 2 3 @ f f 2 u u u u u u u 2 p 2 p u u l l u u u p B d k } s B f h s ' k f f h l ' k f l h h h d f l p a B h c ",
"n B V V h s c p M m a B n m m V b c c B h b l b ] l Z s s l n 2 + y < 1 Y ) ) ( I I H ; y 3 + @ X O < a d c h c n m m V a y i a l a a l a a l a l a a 8 B s 2 u u y u l u a y s p u u u u u i u u 0 m m x ' c f B s s ' k s s h f | c x s c s f a h s V B s g c ",
"d c h Z V z f V B m l m d V h Z d h c Z h l b l Z h g s B B B b + + 2 2 E ^ ) ( I Y ~ I P = 2 2 @ + O + y u d c d V c Z a 8 2 % $ 2 2 @ $ $ 2 2 2 $ 2 y B c 2 i l u u u u u 2 a 8 u u u u i u 3 u < k Z v ] v v S v A } A l x k X.| k s h s c l c l c f c V c B ",
"h l l h f s g p Z V a m h M f M c s s l l c z s n d h c h M s v a X X + < u i J I Q ( _ ~ I U ; 2 2 @ + X + y a B h c s l s y l s a s f c m g B f s M h B u 2 p u u u u u u 2 d 8 a u u u j u u i u ' ' | ..} v ' v } | | ' v ' ' j M f B a c h B h B B h l M d ",
"p l s a s s s f h m s s d F F V s l c l y s b c s h c g Z M s c ] u X O + + 2 u k / $._ %.! Q H H ; 2 3 < + O O s l B l s s y s p s s f f B c B h h B d l M 2 u u 6 u u u a 2 y 8 u u u u u j u u 2 d u 9 j x j p s j j a B c h f h B d s B M s M l d a h s s c ",
"s l c s s s h s c f l p d V V V g c l g c B s z c h d B Z f c V l ] a + X X X + < u ` ^ Q Q H Q P H H = 2 2 < + y l c s g c y B c B g l f M p f c B c s f f 2 u u u u u u i 2 s 2 a u u u u u u p 2 c l k ] l M c M f ' z M s d Z h c l h B B l M a l V s B f g ",
"h c c a V g f B f f c V M F F m c c l c l g N B f B f B g g B B s a c v i + X X O @ < u 7 U I ~ I Y H Y P ; u 2 p y r r c c y c l s f V h h B V s h h h s f 2 2 2 2 2 2 u u 2 l 8 2 2 2 y 2 2 i u 2 k Z v } l c l B a ' c f B V s h f h s f h M h S s h f B c B ",
"N p p p y u 8 8 p 0 0 0 & V F V h h B s M s h s j B h s M V M B l f s s Z z a O X X O < 2 u 7 W _ Q Q $.( I ; u 2 y i 3 g h y s M p s a l B g l s B h m a f 3 u u u u u u u 2 f 2 u u u u u u u u 3 ` ` } k M s M c p ' k V f l s B f m c f s M c B s c m c l s ",
"g n B M s a h B l f f h M m C V c c f c f s s B p c Z B M M M y s h S c c f x z a + X X X + < a 6 K ! Q P Q ; l 2 y 6 < y a p h f s a f d l Z M a f s i s h @ 2 2 2 y 2 u 6 1 d 8 2 2 3 y 2 2 u 4 2 j j v v c v x l v | c c Z m f f s p s c u B B c f f c f B h ",
"{ } X.X.| | X.'  .| } { X.F V w c B f f l h d a c g s l s x f M h p B c 9 q s y Z c a + X X + + < u 7 L ! U 2 u 2 g y r c B d s c Z f s h h s l a s g p f p 3 y u u 4 u u 6 1 m 8 u 4 4 u 4 u 4 4 2 ' E L ` v v R v ' ' c f s j h l f M f p f x h c B V f s h h ",
"d x c S 9 f f f f h 9 s f F E q h Z B h S h s 6 s B c p a f p h c s n x M B f c B T l k u + + X @ @ < l b ` i 5 2 d l y p p t t a y p y r p y r 8 p 2 p 2 p 2 2 2 2 y 2 2 4 2 B 0 u 1 2 2 y 1 u a % u s x f f p x a s B s 9 B 3 s f d c c 6 j f s M l Z f f f f ",
"d 2 9 8 3 < 0 8 2 0 2 d 8 V V V c s l s j 2 S V f g f s a 3 j c 6 M f s c Z h f f f s l a k u z a l u l z u l b i a h 3 x x c B s f j B h 3 a x u 3 s c 3 M 3 2 4 u 3 u 4 4 2 j 2 3 u 3 u 1 3 4 3 2 h p j h Z B s B B V f a 6 a s i a l 6 p j s B f c a j M 9 6 ",
"+ 3 < 4 X 3 1 8 3 3 < < X < I < 1 i u 3 3 6 u u 6 3 M p 3 3 2 3 < 2 3 3 a 3 + * 1 9 9 = 3 < 3 < 3 y 3 3 u 3 , , < 3 1 4 2 1 < y y 3 + 1 3 < 3 u 3 < 3 3 3 p X X X X X < O 3 1 = X X + 3 < X X X X O 4 3 4 2 i 2 2 1 a s j u < + < j a < 1 9 < 3 j 2 3 4 < < 3 3 ",
": : - = ; > : ; - : : J : 4 4 < + < 1 < 4 + 1 < + < 3 3 < 6 ; O X < < 1 < < 1 * < = 2 ; < X + = < < < < 3 < < < + X < 3 + X < 1 < * < + 3 3 3 3 < 4 ; < X 3 + X < X * < X 3 = + + < < < 4 < < 1 < < 2 X < < 4 + 4 < 3 3 1 3 X < < 3 ; < + < + X < + * < = 1 + + ",
"< = 3 1 + + < + : 3 + + + < < O < 1 3 < + X < X 3 3 < + 3 3 1 < 3 X < 1 < 1 1 O 3 < = + 1 < * < < X + 1 + + + + 1 3 < 4 X + * ; 1 < + + < < X + 3 3 1 < 3 X < X < = 3 3 < = 1 1 + + < + 4 4 + + + 3 1 < < 3 1 < + X < < 3 1 < + 1 3 1 < 3 X < X < = 3 3 O , = X "
};
