/* XPM */
static char *ZZZFACE6[] = {
/* columns rows colors chars-per-pixel */
"128 64 83 1 ",
"  c black",
". c #00000C",
"X c #0C090C",
"o c #170F07",
"O c #120D0B",
"+ c #16120D",
"@ c #1D150A",
"# c #1D1B0C",
"$ c #000014",
"% c #0A0A13",
"& c #00001B",
"* c #0A0A18",
"= c #120D14",
"- c gray9",
"; c #1C1611",
": c #1E1C12",
"> c #1D1D1D",
", c #32070E",
"< c #23160A",
"1 c #241B0C",
"2 c #2C1D0D",
"3 c #331F0F",
"4 c #2C021F",
"5 c #231D13",
"6 c #2C1F11",
"7 c #231F19",
"8 c #1F230D",
"9 c #1E2316",
"0 c #1F2118",
"q c #25230D",
"w c #2B220F",
"e c #31230F",
"r c #262214",
"t c #2E2612",
"y c #2E2816",
"u c #25241B",
"i c #2B261B",
"p c #27291D",
"a c #2E291D",
"s c #342413",
"d c #3A2616",
"f c #352A14",
"g c #3B2D16",
"h c #322619",
"j c #322B1B",
"k c #3D2C1A",
"l c #3F3117",
"z c #3E3019",
"x c #000021",
"c c #00003B",
"v c #391E27",
"b c #262625",
"n c #282621",
"m c #242822",
"M c #2B2923",
"N c #2A2A2A",
"B c #312222",
"V c #332C22",
"C c #3C2E21",
"Z c #312E28",
"A c #3D3122",
"S c #45160B",
"D c #432312",
"F c #422F1E",
"G c #403017",
"H c #43321B",
"J c #49371E",
"K c #4D391D",
"L c #503C1F",
"P c #463322",
"I c #493523",
"U c #453925",
"Y c #4C3A24",
"T c #443628",
"R c #43392B",
"E c #4E3A29",
"W c #513D27",
"Q c #523E2D",
"! c #554127",
"~ c #57432D",
"^ c #584429",
"/ c #564231",
"( c #594533",
/* pixels */
"JHzHkzzFFgkfJzgGkzgGddgddHHzzzzzFGgGHGHzYzHHJHgfgdgddzHzJKKHWKHHHGGHGgJGPHGJHJGFPfHkYkPgHzgzHHgPkzYzYIkzf!lzH!zJzJJLYzJzKYHkHkgg",
"HgzfFsgdkfwfHgtfFwfsFdgdfHHzufAzGHgGHzggHgzzJzffsfdsdHGzHHKgwwwwHzgzFfHgFgfFHHgsHtgfPgHtkfffHgtHgzHzJHfftJgfzgzgzJJLHfzlYzgfkkgd",
"#<1111wwq12rwq1f22sgkkFkdFGgjgAkkFDkHkggHgzzHzifdwgfgGzfHKLfoooFFFHFFFFHEIFFFPHkFtgfYgPtlfffGfiHgzJgPFfftJlfHllglzJKHzHzHzjfFfgd",
"gggfffffffffffwz63kkFkkkFkkDFkkkFCkFkFHFFPHGJjtfssdssHzjzGKgooossssssss3dsssssPkFfgfJfFtgaylgatPjgJzIFfatJlglgggllHKAjzHKfjfdfss",
"(/QQ~E//QQQQQQYj21ssfhfdffdhnijhhdssfffssgFPFkkgdfdjkgfjzzJloo<HHJJJJJYW!!YJIW!!!!Y!!!!HjMgjfftHfzJgJFfjtKzfHfffglHKjMHzGfftfstd",
"kffffffffffffftj63FkkFkkFkFFFFFPkkFkFIPkjjfefFkkDkFHFFPggkKHggzfgffggffdFdggfdddddfzHFHQjajjzftPgzJzJFfjtYggzzfgglJKzjjzzzzyfssd",
"stfftyttftftst1g2@5stttsssdddddddsss66kBjMFFggtsytwestDRggJfwqwwfjjzjagyksgggwGdksgfHskJzagggptHggKgIFsHE~!JJYzggVzKMjHzzVkzfrfs",
"PHY!YzPzYkgYUHjj63FFFFFFFFkFkFDFkFkFFFkYFIAjggGgHjHzgfsPggGsoo@HIJKJHYYY^WYJYW!!!WKzJFFYzijagftHjgIgJFhYzffzgzYHflzHjaAMzzggzfts",
"YYUgYYEYUgfkYYHf212tsessttfwfeetfeeftesPssFFVgHGHHHfHztkkHHzgggzfffffgfdGddgfddgdg^IJgFJzjafijfFggYgJFfIgHffaggYYHzHfjVgjjHfHetr",
"rwwqqqwwww1rtq1V2wHHHHHHHHHHHHHHHHHHHgsPks3H^^YIJHHgzGfksVJfqwwwfgggjjfsDsGjjwGdktYJJkFJzafjgIE!!!!!!WW^!!WYJYHzY(YYYIKIJJJgKffg",
"fggfffffft1stfwfttq11r12211r11qqwwqtgGgPPHzHdgdkdfYHgzyAdGHf+o@DFFFFFFFFWPFBzjFDFgYHJkHJgijVzYfdddgfkgdgfkfffffffzQkffgfggUQHafG",
"QQQQ~YY!QQE~/~H111<q1111111111wHGGHffereFt12126kItHYgjsPfgHggggfsss6sss3ddPCAVPkHzJHJkFIzikAYEEEYEEEEIEEEEWIFPPPPkzIHHFHPHyUAjzG",
"fffffffffffffff111q11q111111w1wfzgHkHjgf3FitVaj1IskJFjsDfjHgVakkkjFDjjh2k3kFjfPkFkIHJgFJzyfPsgsdssgsdddfsdsstssPfstsJzewfFHJgfHz",
"tstttefqftttfewqw211<11#1#1<ww<wwrwwgkPFFQQFFFFEEEEQEFFEWJFFFPFkkkkkFPkrFgFFMjFkFjJHJFFJgygPsH2DssHsHk3HsHfsytjjhjFfezgftjPYVaGf",
"Jlwtettftttettqwr@=X        ow1fdff1fPkss33323s6ds73362sd63sssraarff1Fs7FsF3arFdF2JHJsFIsygFfI7FsfYfIFsJfJffyMfkyffgfwHkwyPHjfjz",
"zgfffftfftfffftq1>0X        OrqzGzg1yFshyi6dtmfhIktkswr2k6f5@#1:::;:@d<Od<s<5;s3sot1t<st@;6s#t<s6;t1ts2t1sq:1rtghMujjffJsfHUziyg",
"llffffflffffffw1q@          Ow1fHkf1tPkjfjfdkat5kszYfyikkqH#$&$&&x&&&X%&X*X&$&XX=&XXX$OX.$XO.X$XX$X%XO$X$X%&@nrkaMagjftJlfFIkira",
"KGqtttwttttttfwwwO          Ow1ggagqtFkMaVzeFBupPfgYggkEgzf<$$&$$x&$&&$&&&&x&&$.&&$$$$$.$.....$..$$.$&$$$.$$5kFkknfgjVjlUgHJzptN",
"ffffftfffffffffwqO          Ow<rw5w1tFjafMjifFHjkjjDrthDthf1$$$&$$$.$$.$$.x&$$$.&$&x&&&$&$&$$&&&xx&&x&xxx&&&1ffggffgfggJWgPJaMiV",
"GlteqffyqfttttqqqO          Oq<qrr21tHjhaaiyisFI/YUUitFsfjz1$&&$$$&.$..$$&&&.$$.&$.x.$$$............$$.$$.$&;sdfffkffggJKjFJfVNN",
"llffffffffffyfttqt#o@@@@@@@@rw1ww1w1hFjfjZrVpytwdkFYPkPsyag1$$&&&&&$&&$&$&x&&&&.$&$&$$$$$&$$&&$$&$$&$&$$$&$$5gVkVkjFgkzUQPE~zpta",
"HHzzzPzAHlUHPHgqwwqqwqwqqwqwqqrj75r2sFkaMyMafaafsk3dskIknyt#$.&&$$$..$$$$&.$$$$..$..$$$$$&$.$&$$$&$$$$$&$&$$1iffhfsfhfyyHygHgpyy",
"YU!!YPHJU!ULYYHr111q11q1q1q1q17Mr5r1tHjyiipynyyMkPfFyskFFFF6$$$&$$$$$.&&$$..&$&&&$$$$$&&$$$$$&&$$$$&&$$x$&$$6DkkkkkFkPPgJkPYzZni",
"tqq8r1qwqqtqwr1iqsteftwftsttst5Sr1w1tFfajtMiMyjfkPkYhsks33s5%Xd;%Xd;%f;%%%%%==%%%X%%%%%%%%%X%%%Xh;%%%%%*%%*X@@ryysyr11PFYPgJgNia",
"yffffyffffgftfwtq11111111q1q11ry55w1qD6ttqtyiMVMfFjYasFyttfkz2P6d6P22F6kgzgsjkHHHDJlfHry:tHkkHz6P2FHGzFkkgJggnajNMaftwFGJHdIjbjj",
"~YE~/EEY~QE/EEI@<#<#<#<@#<<@#<@@@#@<#r1@@<@5yauykFkJftIkfazfimFiNuF7sF6fjiyVFFFjajgzIkhHjFVahhprksjnsaaMffzfibuMNMijfqFFPFfJVgaV",
"fwtsfffffwffgKfqfffwrgfgfgffffgffdgfgfgffgq1kkgjkIjYutsPDgjjtVPhbfFdafPFFFFFPPkkkkkYkkDPkHFIkyqVdFFkuyMpajhVituMMymsywFFYFfJHMZa",
"qf1fsqtsfwttwt11ggglzggfgtsffstffr11<#<wfg11tiskIEPQs2ytkFFFFFsabakssBfhkddkPFFFFHPPkPPHFPkdFCfdjdkIPkjskfkfVhjjBjVffyFGJHVIjiib",
"PPIHHPzzkzPAPPf1gr<1#1<@#@@@ooooooooooo@fg1#3IIFYQEQFkFjhys3stifMysFFFFFFFDCHkssskDysssd3FFPskFkkDksPIEFkkFkFkADFkFFPrFFUPfJjaaa",
"UYYYYEEUfgYYUYHqw@-+-------+---+->-+---+tf1<3sdsddss33FIYPji2jhujVgddFkkFPFJYEQPIPFPkqygid2sPffgjggPzfhIEksffgfffgh7PdFFJPkJzNff",
"qtwqwrqttwwwqt11f##+:>:->>>-u>>>>>0>>>u:ef1tjyssDkfF32663FPFdJIJIIYPFHFHFkssdssdJe3fEYjTzQJksQPJYJIHfyt3dFIIIJJJIY!HFyFFJdPUjfia",
"121ww1ww1ww1ww11zHzzzgflzdggsyiuaiiuiaitlz11tya73ksHhjjVrt333sssse2232232fkzfkPWWPYksE/YHkGd13PkfHIFIIIDkddPIFjkzjHYFVHFJVzUzVaa",
"1111qq1q11q1111wlgzlggflllllHHHHKGKKKHKHgl11faprhFhYjIayykfhdrggPFjJIHIPYzYYHFPdfkd663k/FhEQPksIFFEFh662w3e33Fk3dTkJFkFFJjFIAjjj",
"zHzzllfllHllzzgzgggfffflffegzfffgggefggflg1qajfkIEfPI/EAAPPHPJJFIIgffkkdrtD7tdYCkCIPIWksQFd3se1dF3s3iaaifrttw3Ff6IDJFjFFKdHJVjMp",
"eHqflfftlflflflfzgfgffgfflGlfgfgglgfflzggG11iVni6P5rgPHfhFigsuqrdF65ikEkkPEPIIYPFIEhsds6dFkFsje2FQPPjsweq112ersFkFHUFjFFIgFJHVbN",
"ftffffefteq1wtetfftqwtteffttftstefqttftfffq1jMtMsIj77k7isFfFIkkVEQFPIPEFkPEFs3s6223553rw23333de12ds6PssslGHls12sIQIHFjFkYFFIAMjM",
"fflllfllt1@@#q<1111<111q8@q1<#@1qq111<egfff1mubNtkICFIFHPQIIEPkkdks365s595serrfriyhuit>w1112qfffswgk3FgkggGGKg122sFEPdFdzYHYAaja",
"tffflfggwooooooooo+ooooooooooooooooooowgggf#rgyiMikFIYPFkks637r:2tiymfdiaihitq5r511rfffzHzGHKGflgf2dk3FflHKKLGfr6d3dPPIktJYJjZaj",
"qzlfflfg5---------------;-------------5Hggf5iiyMiMqr#dqr1drshjqyMstirwr11112qqlKHHHHflffewwgllfffgtwFskFfHGGHdf5iFkd3sFPkfYEzNjM",
"tftffffHabbmbbmmbjaijjayayaajjbbpmbbbbVgggfw1tjiajjMystwttrt571211tsfldJHHHzGGGggfggflttfgffflfllggs3F3kFegGffwwwFFJDf3dFgf!AVta",
"ffGffffljbmbbbbbaKKgLKLKKHKKKKimbnmmbbjlffftw#1rttrq11118egqelHHHHzlgflffflGgGffggftgfelHKHHgggtfzgfwsHskk28wf1qiFFJFfDsFkPfIzVg",
"tflflllzhuutur7iHfffeefffflftfHy7uipuufHgftllGffeffggzHlfllGGGgfgffffflflffflfggflgGlfGKzlgflgllffflgwsF3kdq11jayHkJFsPdFFPDFJka",
"ffflflflHffwteHJgffdDDzfwflflllHHffeffKffllGfgGFflglggwfgggffflfffffllffgffgfGglgflfllffzfzffGffftfffqq6F3FssMMitFFJFhFhFFFJHJjM",
"tgfftflfgHJHHKHdsktktfffqqffffllHJKGKKzffzffggfwfffffgGGefggffffggggffflfgffffgfgflffffffgffftqeq##qwwtt3FskkkFPiFHIFkFdFkFPHJja",
"tfeq<ttefsfteetePIdPkk2t1qffffzfffzffffgzefflgfefflgGflfgeffgfgffGfflffffGfffgggfggflgtqt2#1wwryftNaiaNMskFFFPkFkPFHFjFhFFFJHJja",
"1#11@<1###<<q<wq3FEIs62<1<1<<<#<<1<#<1<11qlzfgJYYlffwfgflllggggfGfffffflffgggffeq8###@@#@<1<#<1<#<<<#jRUPHFksgIkkPFYFVFdFkFJHJjy",
"<o@o=c2ddddkddHFdIFIFkJddddddddddddddddddw1egggkGflfGGfgffffflfgffgeeette222e233sdddDdffkdddddssde2oofYfYYfgFkWPWPgJFBFfFkHIHJaf",
"EJYv4,233333333311d32<d333ee33ee33ee33e33311ffrfqflGffqfffwweeeeee22e22e322233333e33e333333e3322e2<oofJwDYgsssIFPtfJFCFsFFFJHJMi",
"EPEvOooooooooo@@oo@ooo<ooooooooooooooooooooo#wtteftqw#@o@oooooo@<<2<2<1<2<2<221<21<2<22122<@oooooo#<1VJwnJHgChFFFhgIPgFsFFFPHJsi",
"/HQk2@1<<#1#1<##<<##1<<###<<#111<1##<<1#<#1#<<qq1q##<<1<11#<#<1#GggDGgdGdGkgdddGgdGdddggdddgdgGd<<1wtkJwHIfkFkFkFFHIkaFfFFFJHJja",
"IhPFfgfgfzgfffllfgfllfgfflgggflfggfllfgflfggfflfgflllfflffgglflf!!!GfHgfKfHgfKdHgfYfG!YfG!^!!zffggfqrfJ1FJksi3FFFtsftiFfFFFJHJsr",
"sss3ffffffffffftfffffffffffffftfffffffffffffffffffftffftffffyfff!!!effffffffffffffffe!Hfe!!!!wfffyffefJwGJHgftFkFkzPdjPfFkFPHJyi",
"s3332qwwqtqwtqwwwwwwqqwwwwwwwwwwwww2qwwwrwwqwwwwwqwwqqwwwwwwwtqwHHJ6wfrwfrfwqfwfqtfqwJgwqJHHJwwwwqwweVKtHJfkPFFkFkIIPPktPDHUHH8r",
"dfds@@1@<<@2@<@@1@#<@q@<@@1@#<@1@<#@qo<1@1@<<@1@<<@1@#<@1@<#@1@<fffftstsssssfstsssssfsgtdfedfdssq@<wfjJqzJzshwFFF2efriuuPkFJJ!ym",
"DFPkIIs666FHd6s2s6s66swet2s2t36s6tt6s2we3dFFr6s2wtFFd2ews66s6st6ddGDddGDdGGdddddddkDdGdddddddd2<@o@wfsJ1HJHzzkFkFkHYkzjzPPJKYYMy",
"FTEIQQPIPJ(~QIIJJIIPPJJJIIIIIPJIIPJIIIJIIW~(JIIJPJ((QIJJPJIPJPJYJJJPIIPIJIJIIJIYJIIJIPIJJHIFFJooooo@rfJfHJfHIIPkFYWYYJJY!YL!!ftN",
"333djk562<ff2<e<esedyfyffftffysft22see<t<2ff<1326<ss2<t<ssfstyfeyeyytfsfjsfsfyssyffseefefeeywsffyyjffytttzzfjrDdd2wfriursesfwwrM",
"<<<Vihs75<FYs@e1jMitMjaNtjMiMjiij5rZjM1s@sYH211r52HYe@n2miaiyyaaayyMaVnpjjMpMjyiyiaZaajyjjtijautMfaNyfqq8wtiiedsdagIajMyFkFYgyMN",
"ooo1777rtdJWHwMrVjiuMatjyyiMaMMNa5r55i7y3HWJdtr7tdJWGei1r::yfaMyaiaMzamNzaNNaVMNayaiiibyMfMbMMMMaayayyp#9ipiyaHkFizUgjbiFkPJganj",
"ooo57ur5ieese2j:r75riiiNtZyianfVM>ia511h2ese37iryeesewj5itiMybiMyarMyaaZuaaManfVMiiauyjapyapVjNZaipNtZy9itMMfbPkFafJyMjiFDPPjjbn",
"ooo57755t3eeeea5NaaMuiayfiimaijiy52r5uuaeeeeesi7teeeeea#y5#:ybVjyijaVajjVajyaajiyNaamyqitjaybaaMuaaayyyuyrqyyMFkFykUVMjtFkFYjjMa",
"ooo5i275aeeteey155VVbiyMyitppNfjM7bni51Meeeweyrrieeeeet:r1t9taMynnaiyMajyZajuNjjMMNnMafMripjjMVamiyifpt8azy0iaFkFngJrMafFkFJjMji",
"ooobjMM1t2n6525rr5jnanyaiqantNaiV7imst5t1w:w5721555r51r7srMipZMeyNtiyNjMymjMtNaaaZinftnftipaabjMaMyaarprtrnaiZIkPbfJyNjiFFFIzbtn",
"oo@nfaMM77u7i7yay7faMNtbfisNaZfan715w5r7rawa5Zf1i7sbw5sNtjybaMitimtNaMfaaNfaaMfaMVtbfaybypyaaMfaMbtbfit9ysibyFFgFbgJaMfsFkHYjbtb"
};
