/* XPM */
static char *ZZZFACE8[] = {
/* columns rows colors chars-per-pixel */
"128 64 105 2 ",
"   c black",
".  c #0C0804",
"X  c #170F07",
"o  c #151505",
"O  c #191507",
"+  c #1A1B07",
"@  c #14100A",
"#  c #1C1409",
"$  c #1E1D08",
"%  c gray7",
"&  c #1E1B12",
"*  c #260F07",
"=  c #3D0603",
"-  c #340C06",
";  c #3A0D06",
":  c #2D1004",
">  c #21160A",
",  c #2B1409",
"<  c #251D0D",
"1  c #2C1E0D",
"2  c #341307",
"3  c #331609",
"4  c #3D1309",
"5  c #321E0E",
"6  c #3A1D0E",
"7  c #241E13",
"8  c #2C1F11",
"9  c #231F19",
"0  c #361B11",
"q  c #1C200B",
"w  c #1E2413",
"e  c #25230D",
"r  c #2A220F",
"t  c #32220F",
"y  c #3E200F",
"u  c #262415",
"i  c #2D2613",
"p  c #2D2816",
"a  c #24251B",
"s  c #2A261C",
"d  c #26291C",
"f  c #2D291D",
"g  c #322412",
"h  c #3A2716",
"j  c #352A14",
"k  c #3D2E16",
"l  c #32261A",
"z  c #322A1A",
"x  c #3E2B1B",
"c  c #3F3017",
"v  c #3D301C",
"b  c #272625",
"n  c #282621",
"m  c #242822",
"M  c #2B2923",
"N  c #2A2A2A",
"B  c #332B22",
"V  c #3B2D21",
"C  c #302E28",
"Z  c #373023",
"A  c #3E3123",
"S  c #353028",
"D  c #430000",
"F  c #4B0202",
"G  c #450905",
"H  c #4E0C08",
"J  c #510404",
"K  c #5B0707",
"L  c #5D0808",
"P  c #42150B",
"I  c #46180C",
"U  c #4C1A0E",
"Y  c #56110C",
"T  c #531C12",
"R  c #620909",
"E  c #701212",
"W  c #7A1818",
"Q  c #422212",
"!  c #412E17",
"~  c #432F1F",
"^  c #572014",
"/  c #512D17",
"(  c #403017",
")  c #44321A",
"_  c #49371F",
"`  c #4E3A1D",
"'  c #543D1F",
"]  c #463222",
"[  c #4A3625",
"{  c #4D3A23",
"}  c #433428",
"|  c #4E3A2A",
" . c #533F25",
".. c #5B3F27",
"X. c #523E2D",
"o. c #554127",
"O. c #5E4323",
"+. c #56422B",
"@. c #58442C",
"#. c #564231",
"$. c #594533",
"%. c #5C4832",
"&. c #6B4927",
"*. c #604B34",
"=. c #634F3C",
/* pixels */
"N B f p i z f f u M p n k n z p N B p z g N z s i f s p d M f M z f f m f M k d p M f f p p f m f M c a p M z f u M d n k n j z N B p p i N z s i f s p p M s d z f f m f M c s p M f f p m p b h M z p N z p z i N z s i s s p p M d n p f f m f M c a p M z a ",
"f Z M d p d p M z b j s z B M d f Z d M d f z i p p s f p d i p i p f f a a j u i M f p i f f f a s j u i M f p z n j p z B M a f Z f M f M z i p p s f p M j d i p s f a p j u i M f p z b j d z z M a f Z f M s f j p j s s B p m j p j p s f a p j u p M s p ",
"c M b b B p M u s d p z c b b b c z z M M j p r i p p p s s p p p p p s j z z N M p f p p z p s j z p N M p f f f s p p c b b N v z z M M p u i i p p s s f p p u z p p p B p N M i f p s s p p c b b N v f z M N j p g e u z p s f p p s z p p p B p N M p s p ",
"a f B B b j s M z n p p a N B B a M z z N z p z u i i j M M p p M j z j p i z M p N p C f i B j p i z N z N p M f M p p a N M B a f z B M k p h p e i j M n p p f j M j j i p N p N z N z n p z a N B B a f z B M z p < e e < < < < < < < < < < < < r M z b z M ",
"M j j f d p a p f p n f Z f z p z p p j z i p f p b s M p p n f M g z f M f M B f z m a b i z f M M p N f j m d a p d f Z f z p f p p j z j l d z b s M p p n f M i z f b f B M p k m a s p n f B f z z z p p j j i j 7 r r r r u r i r r r i r r r < M f j m a ",
"u j u i z p p a d d n a u p M j p j p j u p p p f M p M f f n d z n M u n p a r p z p k j M M u n j a i f p p z f f M a u z M j i j z i w p u f s M p M f f n d p M M p n p a i f p p z f n b d u z d z p c ] ] ~ l p > e < < e < 1 < < < < < < r < < r p i p u ",
"p j B p p p f p Z f p p s j z z d z j M p N f z s n u s B f z p d M M j n i j N p m s a d M M j n i j N p M f a B f p p a j z p a z j M p M d j s n u s B f p z s M M j n g g N p M d p z f p p s j h p l ] j s x x ! u r # . . . . . . . . . . # r $ $ q + $ $ ",
"f z p j b d f n p f f f d f i f z p z p j p d b f f M N p f s f p s f n f C l f M M j M p s f n d S p f M d z M p f f f d B i f z z ] ] ) ) ] ~ ~ ~ ~ ~ ~ ~ ~ ~ ~ ~ ~ B B B l V ] v ] ~ V x ] ~ x c ~ z ] ] h h k h l > r 9 b %                 X r $ $ $ $ $ $ ",
"C z z f i g p p p M f b b j p p f f n l n u p i j M f g u M f b z p p b h z l B M h l h j l h l k z z z B z h h u M f b n i z z f ] ~ 0 g g g i g i g g r g g g g g h x ! x ! ! g g i 0 h ! g g x x x ~ ] ] ~ x x x x 1 i & %                   . r $ $ $ $ $ $ ",
"f z M M p i s s s d u i n f z b z z f z z h h l k B ] ~ ~ ~ ~ ] ~ ] ~ ~ ] ~ ~ x ~ ~ ! ~ ! x ~ ! x x ~ ~ ~ ! ! ~ [ ~ ~ ~ ~ ~ ) ~ | ] ~ ~ ~ ~ ~ ~ ] ~ ~ ~ ~ ~ h g l B l h l l j l l l g V j l j g d p i 8 [ h i i i s 7 # r @                     o r < d p f M M ",
"v z m N M B n p p p p n p d f b h N x ] ] x ! ~ x ! g g 0 i g g g g g g r p p g g l g g h l l l g l p 9 i u u 0 g g g g 0 i l ~ x 5 g g t i x 0 h g t i g h x x ! ! x x ! ~ x x ! ! x x x ~ x ] ~ ~ ~ ~ X.~ ] V ~ ~ ~ 8 r .                     . r < N s p f a ",
"a M z N n f N s p p a M d d j p M ) _ l l g j l l j V l j p a s z p g M ] ) ] ~ ~ ! ~ x ! ! x x ~ ] ~ ~ ] h l l l l a s p i ) h r C b f B p h s l n f p u u u p i u g p i i g p s i s a i i i g g i 0 h ] 5 g 0 g g 8 < r X                     X r < z b p s f ",
"B B z f i p p b p b d n u p M a z | x n B | ] x ~ ~ x ~ ] x M z f n h [ x g 0 p 1 f s p i u p i 8 g g g g x ! ~ x ! ) ] ] X.] x h z h z z V V S x l h x ~ ~ ~ ~ ~ ~ ~ ~ ~ ~ ~ ~ ~ ~ ~ x z h h B l l l ! [ h l B l l l < u #                     & r < s l N d p ",
"u M f z c _ ~ ) ~ ~ ] ~ ~ ~ ) ~ | | ~ ] X.] ] V l g g g h | ) B B z } ~ p C h h B z ~ ~ ~ ~ ~ g d N p h s d a f p g l h ] h 5 h ! ~ ~ ~ x x ] ! ] x x h g g g g 5 i g g g g g g g g g h x ! x x x x ! [ [ ~ ~ x x ~ x 8 u i i i i j i e t i i j < u $ $ $ $ $ $ ",
"p N z f ] x g g g g g 0 g g 0 5 ~ h g x ! 0 g h x ! ! x ~ ] | x ~ ] [ [ ~ x ~ x ! x h g g g x ] ~ ~ ~ ~ ~ ~ ~ ~ ] [ X.[ ~ ~ ~ ~ ~ ~ ~ ~ ) ] ] ~ ] ~ ~ ~ ~ ~ ~ ~ ~ ~ ~ ~ ~ ~ ] z B N s s g i u p i p 8 | h 8 g p i s < # < < < < < e e r e < < e < < < f z M p b ",
"d C j f ) l h z z ] ~ ~ ~ ~ ~ ] h i x h B M l l h g j j l z ] } g 0 ! 1 i s p p i l r b g a g g g g 8 g g g g x ~ x 5 0 g g g i g i 5 g t t l g h g i g t g t i g g 5 i g t x [ ~ ~ ~ ~ ~ ~ ] ~ ~ ~ ~ X.] ~ ~ ~ ~ ~ ~ 8 t j r j g i g r g i t i g i $ $ $ $ $ + ",
"N B f g [ [ ~ x x x g i g t i 0 l ~ x l j [ ~ x ! x ~ ~ ] ~ ] X.X.X.] ~ ~ ~ ~ l z l V B ! x z l B l ~ l V ! ~ x g 1 i l N z p p r B p f i d l p i M f n p f f b f n c s p M i g g t i i g g g g r g 0 [ h g g g g g g > < < < < e < < < < < < < < < < p r f i r ",
"f V b [ [ h 5 p s p n V ] ~ ~ ] ) x l n V ] h 0 h l g h h h h x [ X.[ h g g x x ~ ! ~ x ~ ) _ ~ ~ ! x ! x g g p l z b p B ~ B B z z h h ~ ~ ] ] ] ~ ~ ~ ~ ] ~ ] ~ ~ h h i M d p i M p z l a g f k j u h t u f j B d g p g p p u i i u p p p u p s p p p f f i j ",
"v f x ] h g f u l f h [ h h ~ ~ ~ ~ ~ ] ] | x ! x ! ! ! x ~ x ~ ) h h ] ~ ~ ~ ~ ~ ~ ~ ~ ~ [ [ ~ ~ ~ ~ ~ ~ ~ ~ ~ ~ ~ ] ~ ~ x x x ~ ~ x x i l x l x l g g j l g l g x ] ] [ ] f z M p s M s l p p k b s ~ l z n i z p p r i p j m s f j p B p b p M B n i f p s f ",
"a i ~ g ~ l M b p f z [ x ] ~ g g g g 5 l [ 3 i r r i i 8 s g g l h z x h h h x h h h h h ~ ) h h h h x g s l l i B l l d z z x ] ] ~ ~ ~ ~ ] ~ ] ~ ] ) ~ ~ ~ ~ ~ ~ ~ ~ x X.X.~ ~ ] z h z z B h z z h [ V a j n M z p z d r r M j z b p M M M h z i N M f f z a ",
"z j ) B ~ l a u p B } | ~ g h l z z ] ~ ] [ ~ ~ ~ ~ ~ ~ ~ ] ] z x ! x x ~ ! ~ ! ~ x x x ! [ _ ~ ~ ~ Q ~ ] ) ~ ~ ~ ~ ~ ~ ) ~ ~ ] x g g i g i h g j g g g t g i g g r g i g g x ] l h ~ x x x x ! ~ ~ ] X.[ ~ ~ ~ ~ ~ ~ ~ ) ~ ~ ~ ~ ~ ~ ~ z B B l h B V z f p f s ",
"u i ~ p ] l p p l ] ~ ~ i x [ ] ! ~ g 0 h x g g g t i g g 0 p j h j h j j j h j t i r j s h z p 9 p u i g g i g i 0 g i g g i g 8 i p k h B ) z v x B B k x ) _ _ _ { | c j 1 x [ z r j s p p r i a h X.~ g g i g g t g t i g g g i i h ~ ~ ~ ! x x ~ ~ [ h z i ",
"u p ] g ~ h M i ] x g ] h [ g p i p s 8 x V j ( { { _ _ _ _ [ _ _ _ _ _ _ [ _ _ _ ` _ _ _ { _ { _ { [ _ ] _ _ _ _ _ _ _ { _ [ [ _ _ { _ _ _ [ _ [ _ _ _ _ _ v k j h j ) | { { _ | [ c k h B k z z k ~ [ z B k k j f s j f m u p g M M s i i p u i f i > g ] p i ",
"z p ~ k ] B f n ~ h x ~ ~ x g z l f n l ] h p { ! j j k j h j j u i p p r p r l l j h j j k j j j h j j k j j k j j h j j j j h h j g i r u z p g p r p i u d p i z j p s j j h k [ _ _ _ { _ _ { [ [ ] _ _ _ _ _ { _ _ _ _ | B j p M z l s B f f p C p g ) p M ",
"N z ~ B ~ j p p ~ l ~ z ~ h f z n p B } | h ~  .h B l h h z B B x ~ ~ ~ ~ ~ ~ ] ~ ~ ~ ~ h l h z h z l B V ] ~ ~ ~ ~ ~ ~ ~ ~ z h z l j h h C ~ h k z B B h h h z k h z z B f u i 8 x 0 u s s i s i g ~ l t g s i i l j h j j ) +._ _ _ _ _ _ [ { | k a f j ] s b ",
"f l ~ B ~ g s V ] l ~ x ] z j z i ] ] | [ x ) { x ~ x x x ~ ~ x ! h g t g g i 0 g t t l ! ~ x x ~ x x x ! g 0 g g g g t g h ! x x x x ~ x x ] x ] x x ~ ! x x x x x x ~ ] ] z S u ) z C s s p e n d ~ B z z s z s i j M p z f j j j k j k j j h ) { b j j ~ i p ",
"k j ~ b ] z M ~ ! f ) h [ h m p z ] 7 | h p h { r p p g g g g l l l x l z h V B l j f f r u p p u p p s i p f s s r p f j p s i z p s p j p z j g s r s r p s i i p i r 0 ] z f l ] z l p l f n u d ] l z M s s z B a f f f p z z j j i f f s e k _ b M l ~ s a ",
"a l ~ B ] z N ~ l s [ ] [ g z ~ [ X.] #.[ ] ) o.z V ~ ~ ] x ~ ! x ! x ! ! ~ x x ~ ] ~ ~ ] ~ ] ) ~ ~ ~ ~ ~ ~ ~ ~ ] ~ ~ ~ ~ ~ ~ z B z h l z l x z x h B l x h l B z B ! h h ] x x [ x p M i s a n f d [ x z N M p C p f f p m f z N p N M M f j l { v p a l ~ s s ",
"z j ] l ~ l ~ ] g M [ X.l h ] ] h h 0 ] h h ) { ! ! j g 0 i p j i u p p p p p i i g t g g t g t g t t g g g g g g g t i g g h x ~ x x x x x ] [ ] x x x ~ x x x x ~ x ! ] | [ ~ [ x ~ ~ x B M V x ] | ] ] ) ~ ~ V B B B l l l j M n a f e p z g _ B z p h ~ s g ",
"u l ~ z ~ l ~ x z V [ ] g z ~ 0 g ! l ] l g _ k 1 j ) ) ( ) ) ( ) ) ) ) ) ) ) ) ) ) ) ) ) ) ) ) ) ) ) ) ) ) ) ) ) c j p r p p j i s i s r i u j i i g s u p i p i s i s 1 g < i x 8 g g x x x x h 0 ] h t g g h ! x x ~ ~ ! ~ ~ ) ] ~ ~ ] z b l _ B b z j ~ f d ",
"p l ~ n ~ V ] l h [ h ~ z ] h n z ~ [ ) j x [ u g l ! k j ( ( j c c k j ! ! j k k k j ! c j k ! c j k ! j c k k j ( c j p p p i n b g b g p g m z z j d f b i b f B p l 8 x 8 8 ~ i i b l p i s s p h g t N j p p u i p i t i g g g g g [ B z l _ B B p l ] b n ",
"f j ~ f ~ x ~ l ] ] 1 ~ B ] x f z ] $.{ _ _ j M r j k j r ( ( r t ! j r k c r g ! j r k c r t k j r c c r g ( t r k _ j p f u j p N z p i s f p u M p n l f f n f n k u , 1 < > 1 > z p p s z z k z ] z C C p p g N z d r f p g M s f 7 x 8 p 7 _ g g n 8 ! < n ",
"N l ) z ] x ~ B [ h u ~ B ~ h z  ._ X.) h i z s i j c j r ( ! r j c j r k ! r j ! j r ! ! r j c j r ! ! r j ! h r c c h j M j p z f z u p f f M z n g p i p f f a s g e ` j j ` j l p j M n z M z [ ~ u f Z f M p f z p i p p M f z M p q q f i q q n p e $ u p ",
"l l ) h ) x ] B ] s g ] ~ [  .{ ) h [ ~ x z p j j t k ( k k c k j r r r r r u r r r r r r r r r 1 r r r r r r < r r e u f f a j z p p i i u j p s s p p p z p d j z e r t i i p t i < u l B h x ] ~ p b k M p M N p p u j e z l f p a 7 < & M < < < p r $ 9 < f ",
"h j ] B ~ h ] z ~ s l | _ o.[ j l ] | x v %.o. . ._ j k k c ( j > X X X X X X X X X X X X X X X X X X X @ X X X X X X < p a z M M h p j s r < g p u p r u i u j p i e j j c c j k j r h x x ! x h z B B a B z z N z h j z f r < r < x ) g < u ( ) j d < ) ) g a ",
"a l ~ B ~ l ] B ~ b [ ! h l 5 p u ] ] h u  .{ j k _ j j j c j < X X X X X X X X X X X X X X X X X X X X X X X O X X X @ < < < < < 7 < r > # # O # # # # # # o # + # + k j j j j j c i # < < < < # < < < $ < < < < < < < < r i j ) ) j < O r ) ! j > > r ! ! r > ",
"B j ~ x ~ h x z ~ h _ ~ x ] l g x [ i k ) o._ g k ] j r < k k r # > # # X X X X X X X X X X X X @ # X X X X X X X X O X X X @ # @ X X X O X X O X @ O @ < $ $ + e r r k ( ( ( c ( ( r @ X X X X X X X O @ O X X X X # r j ( ) c k < # X > ) ! k # X X k ! k r X ",
"p r ~ x ~ j ] h ~ x _ ~ ! ! [ ] | ] ~ ~ i o._ i j _ j k j j c t 1 5 # # # X O @ X X X @ X X X X @ @ X X X X X X X X @ @ X X @ @ @ @ X X @ @ o > > e e e $ $ < o + $ r j r r r r r j ( k k k j k k k k j k j k h c ) ) ) ( c ! i # X X < ( ! k e @ X X c c k 1 X ",
"u j ~ x ~ j ~ g x [ [ x ] ! g g ~ 0 r g r o._ g k _ j k j j ( j t 5 1 < 3 F F F F F H F F F F F G F F F F F F F F F F F F F F F F F F F F F 2 2 2 2 F F H F F F J F 2 j r j j g h j ! c ! c ! ( ! k k ( ) ( c k c k ( ! ( ! y F F F t ) ( c j F F F 4 ( k k I K ",
"f p ~ x ~ l ~ n g g ] ] ~ ~ [ | ] j k x c @._ g j { j g r c ( j j j P K H R R R R R R L R R R R R R R R R R R R R R R R R R R R R R R R R R R R R R R K R R Y R Y R K i > r j t h j ( k ( k c ! k ! c ! ( k c ! ! k c ( ( ( R R R Q ) k ( k Y R R R U j c k ^ W ",
"N l ~ ! ~ ] x p p i j 0 x x l ~ | X.] x i { _ j k _ j j r j k k ~ ~ Q T Y R R R R R R R R R R R R R R R R R R R R R R R R R R R R R R R R R r t g h i i j j ) ) _ ) ( ( ( i j j h h ! c k j < r r r r j ( ! c ( k ( ( ! ( ( ) / k ) c c k y R R R R j ( k c ^ W ",
"f z ~ x ~ ] j M f j _ u z ] j ~ ~ | ] k ) +._ g k _ j ( c k k c ) ) ! ! h K K K L L K K K K K K K K K K K R K K R K K K K K K K K K K K K K r r 6 g r p p j ) j ) c c c ( j k r g j ! j , ; J K K K H - < g k k k j c ( k c ) ) ) ( k ! j K K K K L ! j k j ^ E ",
"k M ~ x ~ ] h h ~ | | X.] | ] X.| [ X.~ p  ._ g k _ j j i j c j h h 4 J F J J J F J J J J J J J J J J J J J J J J J J J J J J J J J J J J J 4 4 4 P 4 P 6 P y P y I I j t r j r l j j , F J J J J J F J F - r k k k k k ( ! ! ( ! c k ( P J K F H P k ) c k U R ",
"a s ~ x ~ ~ B [ g g h g h ] g ~ ] ~ ] g i { _ g j _ j t < c ( j h g ; D G F F F F F F F F F F F F F F F F F F F F F F F F F F F F F F F F F F D D D D D F F F F F F F j < k k j ! j r F F F F F F F F F F F = u j ( c j k k c k ( k k ( F J J J J P k r j c U J ",
"B f ] x ] ~ B ~ a p ) j h ~ h ~ ~ x x v ) @._ r j _ j k j j ( g 5 1 1 1 3 D D D D D D D D D D D D D D D D D D D D D D D D D D D D D D D D D : : : : D D D D D D D D : j r < < r 1 j 5 D D D D D D D D D D D D = : i j ( ! c ! c ! ( k j 1 D D D D k k ) ) ( I F ",
"u d ~ x ~ ~ l ] B z _ j 8 ] ] [ [ ] [ l r o._ g c _ j k j k ( t 3 1 O O # X X X X X O X X X X X X X X X X X O X X X X X X X X X X X X X X X o > $ r e $ $ < > o $ q r k c c ( ( c c < X X X X X X X X X X X X X O # j x ( k ( ( c j k ) j r > > r ( c ! ! ( < X ",
"i s ~ x ~ ~ l ~ j j _ z g g ~ | [ ] | k j { _ g k _ j i r j ( r > > # # X X X X X X X X X X X X X X X X X X X X X X X X O X @ @ X X X X X X O X X X O O $ $ $ + e r r j c ! ( c ! ! < X X X @ O X X X X X X X X X X X < k ! c j ( j k ( ) ) ( ` ) ( j ( k ! 1 O ",
"s s ~ ~ ~ ~ j ) z j j [ s p l [ ] x | v ) @._ i k _ j j r k k < X X X X X X X X X X X X X X X X X X X X X X X X X X X X > 9 9 7 < i < i < # # @ # # @ # # @ O # + # O k k ( k c ! ! u 7 7 u r i < i 9 9 < e 8 r < i u 8 < r j ( c ) ) ( k j ( j j ( ( ! ! ! i < ",
"N z ~ x ~ ~ B ~ s s g ) { _ [ | | ] | [ j  .] j h _ j c k k ( j O X X X X X X X O X X X X X X X X X X X X X X X X X X # p h k z k k z z c h z c z B j j k c c c z z u g ` ( ( ' ( ) < z h B z z c v z z v Z c z z k z z ( z < < < r r j u k j j ( j j j j j u p ",
"f z ~ ~ ~ ~ l ] N h h j z j ~ h ] ) { ( k +.c c k k j k ( ! ( ) k < r r r r e r r r < r r r r r r r r r r r r r r r r e p z a f b M p i r p p u r t 1 5 u ( i z k v r 7 i r r t e < a u d b i M c b M N c z p m M p p i j z j h r r < < < < > < < < < < < < < p ",
"k p ~ x ~ ~ z ] ! ] _ ) C g ~ | X.| ] 1 < < < e u j k k j ( k j ) ) ( k ) ) k ( ) ( c ) ) k ( ) ( k ) ) c ( ) ( c ) ) ( f p d M M x p z s u i 1 h h h 5 g j j ` j k N i > r < > r > i b c c c ( N M B B a d z Z M z p j a e i j h B ! c v k v j k j v k c B h f ",
"a i ~ x ~ ] l ] ! ` ` ~ x p | | ] h 0 i i < < g j j k j r ( ( r g ! j r ( ! < j ( g r ( ! r j k j r ! k r g ( g r ! ( j M j f p p p M z j f r , y j 5 5 6 ; t ` j r N M t ! u g ! i i d c j ) j A p p s z z B z z j z f j z p f i p p d p p B f p z M M f z d u ",
"B t ] x ~ [ V [ !  .&.~ h B X.~ | | ~ h p i r d s j x j r ! ( r j ( j u ( ( r h ( j u ! k r h k k r ! ( r j ( j r k ! j d h n f f w z p ) ] ~ h 6 h g 4 4 r ( ` x u M f z ~ l M ] f f f g c ` j z h M d d u d p f j p j u < s f u f n f n p M d f u d M n f p s ",
"u i ~ ! ~ ] ~ ~ X.{ O.! p g ] 1 ! h g ] k g p f p l ( c k ( ! h ( ! ! h ( ! c c ! ! k ! c k c k k k ( h c k ( ( k k j j M f z f j s p ] ~ 8 8 1 g g 5 5 z r j k 0 p z f ~ ] M B ~ p p j < j ` h a a z f j s z k p u M z A p u N M g p a f b h f j f M b p p s p ",
"u j ~ x ~ l ] 1 ! $.=. .[ ] [ i ~ ~ i i h ] z j n p r u i i l j p p s i p p i u i u i p i p s g a p p p u u r j p a s j n p z n p n d [ p s b 8 1 1 1 1 s s j ) 8 f f p ] l s p ] z B N j k ) h s p f f p M d u j b B n p M u f N p u s M s f d z M s p s M M z ",
"f p ~ x ~ g ] f r x x l 0 x | [ ] | ~ ~ ~ ] X.] ~ ~ ) ~ ] ) ~ ~ ~ ~ ~ ~ ~ ~ ~ ) ~ ~ ~ ~ ~ ~ ~ ] ~ ~ ~ ~ ] ~ ~ ] ~ ~ ) ] ] h l l B B V X.] ~ ~ ~ ~ ] ~ ~ ~ [ X.%.[ ] ] [ [ g s p ~ h f n u j ! 1 p j b f n M d j p p f m s z 7 < j j Z z f g M f s f s p f z M b ",
"N z ~ j ] h ~ z i ) ' t u h ~ 0 0 ] 0 i g g ~ x g g g 8 i t g g g t g g 0 i g g g 5 i g g g i i g g g g i g g g 0 g i g h x ~ x ~ x x [ h t g t g g g g g 0 j j g 5 g g g r d z x ] f M p ) ' z N f p M i u m < u z z b u < u p g s j j M n p M i i s p M s f N ",
"f z ~ l ~ l ~ x l '  .g s l ~ s ~ h p z f u g ~ ~ ~ ~ ~ ~ ~ ~ ~ ~ ~ ~ ~ ] ~ ~ ~ ~ ~ x p p p j g b j p p M h [ [ ~ ) ~ ~ ~ ~ ~ ~ ~ ~ ~ ! g p a z u r M s p i j x 0 p s s d p f z l ] p p r ) ' k N j f d p p u l j i j p p ( ) _ z p < n b z f s s p p z M s p j ",
"k s ~ ! ~ z h ~ j '  .h i l ~ b ~ V b s z B a i g g g t g g g t i 0 i h 0 x h h h x [ } g l z l l x z B l | ~ l h j 0 i h h h h g 0 g r j j B p N M p s z k ) { V h B l k g z h [ ! s z p l ! h j M n f j u x c z c 7 p M v z z z v x u B s M f j a f N p f b p ",
"a s ~ ~ ] z h ~ j _ O.h p l ~ p g | x z B l h h h B B h h ~ ~ ~ ~ ~ ] ~ x ! ~ ! ~ x x ] ~ x ~ x ! x x ~ x [ ! x ! ] ~ ~ ] x ! ~ ] ~ ~ ~ ~ ~ ~ ) ~ ~ ~ ~ ] ] | | ] ~ ~ ! x ~ x ] h h N f r k _ ! n l p f j M u i g C ( p g f f M M B s d d n j p p d z d M s M s ",
"M f ~ ! ~ l j ~ z  ...h u g ] p i h ~ ~ x x ~ x z ~ ! ! ~ g g i g t g i a p 1 u i i g x h g l i g i i u 5 ! g 0 p 8 g g r r i r i g g r t t g g g i g g g 5 ( ( g 1 p p a p i r s z g M s j ` ) h ! z x c z z j k k z V A v v c k j ( h j k h ! k c x x k x c v ",
"u f l ] ] z g | | %.o.( h j ] | l h g g g g g g j l l l h l h B B l V l B h B B z l B V [ l V ~ ~ ~ V n i ~ l s f l p l M f d f u i n n s i p p s n n j l l ( ( u p M f p p b n M f M d a j ! ) _ ' ) ' ' ` ) ` ' '  .' ' '  .' ' ) _ ) ' ' ) ' _ ' ' '  .' '  .",
"p s ~ l ~ B 1 h x X.X.[ ] ! ! [ [ ! ~ x ~ x ~ x ! ! x x x x ! ~ x x x x x x ~ x ~ x ~ ~ | x x g t h ] ) r ~ ! N f n f d M M j M i a g s j _ _ ' ! j ( ! ` ) ` ( i f p p f s p g f z B b f < i g i j r j j j j j j j j j j j j j j r j j ) ) j j i j j j j l j j ",
"f s ~ B ] B i 3 r j k 1 1 u 1 0 ) x i i i s 8 s g i 1 s t p i p i p i s i s g i i p 9 l ] l i i g M j ~ p ~ B f n B f i g p i M s n d j ( ' ( ) ( t j i ) k k j < M s j b M j s f f n f p r e < < e u u i p s i p i p s i p s g i < r j ) ` r < r s j r i p p i "
};
