/* XPM */
static char *ZZZFACE1[] = {
/* columns rows colors chars-per-pixel */
"128 64 139 2 ",
"   c #080C00",
".  c #100C06",
"X  c #0E1501",
"o  c #161705",
"O  c #151D05",
"+  c #1A1A07",
"@  c #13140C",
"#  c #1F170B",
"$  c #151B0B",
"%  c #1A1D0B",
"&  c #141610",
"*  c #1B1711",
"=  c #1A1C13",
"-  c #241B0C",
";  c #2C1D0C",
":  c #241E13",
">  c #2A1F11",
",  c #231F19",
"<  c #182007",
"1  c #16230A",
"2  c #1C240B",
"3  c #1F290E",
"4  c #1E2412",
"5  c #1E2A11",
"6  c #23230C",
"7  c #2B220F",
"8  c #22290E",
"9  c #31230F",
"0  c #252414",
"q  c #2D2513",
"w  c #252D13",
"e  c #2D2816",
"r  c #24251B",
"t  c #2B271C",
"y  c #262A1B",
"u  c #2D291D",
"i  c #322512",
"p  c #332A13",
"a  c #3B2E16",
"s  c #322B1A",
"d  c #3A2E1C",
"f  c #293117",
"g  c #2D351C",
"h  c #3F3017",
"j  c #33341D",
"k  c #3D311C",
"l  c #31391E",
"z  c #272727",
"x  c #282621",
"c  c #242822",
"v  c #2B2923",
"b  c #2A2A2A",
"n  c #332D22",
"m  c #322E28",
"M  c #2E3029",
"N  c #323723",
"B  c #393124",
"V  c #353D24",
"C  c #3B3B24",
"Z  c #32362A",
"A  c #3A372D",
"S  c #363B2B",
"D  c #3A3C2D",
"F  c #422F1E",
"G  c #403017",
"H  c #43321A",
"J  c #4A371B",
"K  c #4C391C",
"L  c #553D1F",
"P  c #463323",
"I  c #4A3626",
"U  c #423B25",
"Y  c #4E3B24",
"T  c #453F2A",
"R  c #4E3A2A",
"E  c #523E2E",
"W  c #493F36",
"Q  c #3A4126",
"!  c #3C442A",
"~  c #45452C",
"^  c #4B442E",
"/  c #424A2E",
"(  c #55422E",
")  c #404632",
"_  c #4D4731",
"`  c #454D32",
"'  c #4B4C32",
"]  c #434438",
"[  c #4E4D3A",
"{  c #554231",
"}  c #5A4634",
"|  c #534D35",
" . c #5D4A36",
".. c #5E4C39",
"X. c #4B5236",
"o. c #4E553B",
"O. c #575036",
"+. c #52553A",
"@. c #5B543B",
"#. c #53593D",
"$. c #624E3A",
"%. c #65513D",
"&. c #69533F",
"*. c #545544",
"=. c #5C5342",
"-. c #575D41",
";. c #5C5B41",
":. c #635342",
">. c #6C5642",
",. c #645B43",
"<. c #6D5A45",
"1. c #655A4B",
"2. c #6A5F4E",
"3. c #725A46",
"4. c #755E4A",
"5. c #685C52",
"6. c #5A6246",
"7. c #6A6147",
"8. c #6C624B",
"9. c #75624C",
"0. c #7A624E",
"q. c #776556",
"w. c #7D6551",
"e. c #736951",
"r. c #7A6951",
"t. c #74685E",
"y. c #7B6959",
"u. c #7A7057",
"i. c #7D7259",
"p. c #786C62",
"a. c #826A56",
"s. c #866E59",
"d. c #86765D",
"f. c #8C745C",
"g. c #83795F",
"h. c #937A63",
"j. c #997F69",
"k. c #9C836C",
"l. c #A48B74",
/* pixels */
"t s v e t h v t v u u e v t v y e t u q t s v i t s v e t a v u v t u s x t v y q t v q t s v i s e s b s s z a s s t t t u s q t s v e t a x t x u u p x t v e e u u q t s v e y h v u v u u p x t v e e t u q t s v i p e v b s s v h s s x e t u s q s t s b ",
"s t v 7 y p t r v t e q t p x s u t t q q s u t s t v q y p r r v t e q t p x s u e t q e e t t v u B u y v d s v s x v x e x e e t v q y p t r u t t p t q x e u t t q e t v q r p r y u t t q r p x e u t t q e s u t v v B t r v d s v p x v x e x e y t n n ",
"u t e v b s v p t e s e e e t t t e e q q 0 e v u t e v b s s p t e s e e e t t t e e q q e s v x s s a z z z a v q z x y n 0 n u t e v b p n p t e s 0 e e t t t s e q u e e v b e n p t e e e e e t u u e e q q 0 i v x p v h b v z h v q z r y s e u z z v a ",
"v s b s v e q p p s q u e e x s p q 7 t s e d v v s b s x e p e p s q u e e v u e q q e s i s v n s v r n n b r v q z v z e a z v s b s v e q s p u p u p e v v p 7 7 t v s b s v s q e q n p u e p v v p q 7 y s e d z n s s r n v z r b i z v z t d z n n n r ",
"s u n b v u u v u s q z t x e t z t z e t e q s r x p t b u u v t d q x t x e t x t z s t e i s p s e s s s u n z i b u t r s , r x p v v n t v u s q v u x t t z e z s r z i v v u t v u d i v s x e t z t z s t i q s p s e s e s t n z q b v e r e t t p p v ",
"0 x B u q y e x e v v p t v v t u e x t t e e 0 d 0 s t q r e x e x x s t v t t j e x t t e i 0 i s p e p x e y t e z u t q q s d 0 e e 7 r e x 0 v v e y v u t v i z t d > d t q r e x t x x e r z t u u e v t v q e 0 p p p e p v e y u e z t t e 0 p q e p y ",
"b z v a r 0 7 , - 0 : , 0 ; , 0 0 0 : : 0 : : - : 0 : : r > ; r - 0 : , , 7 , : : 0 : : > > , 9 0 p i > 9 > 7 : : > - : : 0 , : , : : : r 0 ; , 7 0 : , : ; , 0 : : : : : : > , t 7 - r - 0 : , 0 > : 0 : : 0 : - : > ; q q 9 q 7 i ; : : ; - 0 0 0 : : , 0 7 - ",
"n s t r - # # # # # # # # # # # # # - # - - # # # # # # - # # # # # # # # - # # # # # # - ; - ; 7 i ; - ; - # # # # # # # - # # - # # # - # # # # - # # # # # - # # # # # - # # # # # # - # # # # - # # # # # # - - 9 ; ; 0 9 ; - 9 - # - # # # # - # # - # # # ",
"u p p v # - # # # # # # # # # # # # # # - # # # # # # # # # # # # # # # # # # # # # # # - 9 ; 9 p G 7 ; 9 - # # # # # # # # # # # # # # # # # # # # # # # # # # # # # # # # # # # # # # # # # # # # # # # # # # # - 9 ; ; p H ; ; 9 - # # # # # # # # # # # # # ",
"q e p y # # # # # # # # # # # # # # # # # # # # # # # # # # # # # # # # - # # # # # # # - i 9 p G K a i 9 # # # # # # # # # # # # # # # # # # # # # # # # # # # # # # # # # # # # # # # # # # # # # # # # # # # # - > i p H K a 9 9 - # # # # # # # # # # # # # ",
"0 n p q # # # # # # # # # # # # # # # # # # # # # # # # # # # # # # # # # # # # # # # # # - - ; ; 9 ; - - # # # # # # # # # # # # # # # # # - # # # # # # # # # # # # # # # # # # # # # # # # # # # # # # # # # # # - - 7 7 9 ; - - # # # # # # # # # # # # # # ",
"p s s e # # # # # # # # # # # # # # # # # # # # # # # # # # # # # # # # # # # # # # # # # # ; p 9 7 9 ; - # # # # # # # # # # # # # # # # # * - # # # # # # # # # # # # # # # # # # # # # # # - # # # # # # # - # # - ; 9 q 9 9 - - # # # # # # # # # # # # # # ",
"u s s b - # # # # # # # # # # # # # # # # # # # # # # # # # # # # # # # # # # # # # # # # # p H G a 9 7 - # # # # # # # # - # # # - # # - 9 > i i i P I I F i > > > i F F d 9 a d P P P P F p d > 9 > i P P d 9 > 9 i F J G a 7 9 - - * - - # > i F d - # # # # ",
"v v s u # # # # # # # # # # # # # # # # # # # # # # # # # # # # # # # # # # # # # # # # # # - i H K 9 - # # # - # - - - 9 > d i > > i F I R E } $.$.$.} } } E E I I R R R I I I E E $.$.$.} E E I R R E E } E E R R F P i K J G F P i i i d F F I R P P q # # # ",
"z z s h # # # # # # # # # # # # # # # # # # # # # # # # # # # # # # # # # # # # # # # # # - a a p p G a q q i d d I E E E E } } E $.E E E } } } $.:.>.3.>.&.:.$.} $.$.E $.$.$.$.&.&.$.$.%.$.}  .} } } $.:.:.$.} $.:.$.$.} $.} } $.} } } E E E E E E E E R P F P ",
"v n v r # # # # # # # # # # # # # # # # # # # # # # # # # # # # # # # # # # # # # # # # # ; i H K a 7 a R E E } } } $.} } } :.} $.E $.$.$.&.$.$.$.$.&.&.$.$.>.&.>.$.$.E $.$.&.:.$.:.$.{ $.$...$.} }  .` $.} ..:.} T :.>.>.4.4.>.$.>.>.3.3.4.4.3.3.3.&.$.$.$.5.4.",
"s s s n # # # # # # # # # # # # # # # # # # # # # # # # # # # # # # # # # # - # > i I I I E E a i L G Y $.} $.%.%.%.3.>.%.&.>.4.3.3.3.4.3.4.0.0.0.0.0.0.0.0.0.0.a.a.0.4.4.a.4.a.a.a.w.4.a.w.0.w.w.w.a.q.4.#.9.3.~ l R %.4.3.4.4.0.0.4.3.9./ Q _ ,.4.4.3.3.9.6.Q ",
"j u b 0 # # # # # # # # # # # # # # # # # # # # # # # # # # # # # # # - 9 d I R P R } $.$.$.} $.} Y ( %.$.>.>.3.4.3.3.3.4.0.0.a.0.0.4.a.a.0.0.a.w.0.a.a.a.a.s.a.a.a.a.a.a.s.a.a.a.a.a.a.a.a.a.a.a.a.a.a.s.w.a.a.0.4.w.a.a.0.s.w.4.3.$.} ! l l j V | %.3.3.} ! N ",
"t d b 0 # # # # # # # # # # # # # # # # # # # # # # # # # # # # - q P E } E { } E $.:.$.$.$.>.<.>.>.3.3.&.3.4.3.3.3.4.3.<.4.0.0.4.3.>.:.:.3.4.4.3.<.3.3.%.3.>.%.<.<.<.>.w.w.4.:.4.w.w.w.2.,.8.w.a.4.0.w.a.a.a.a.a.a.a.a.f.h.f.a.a.s.s.a.a.9.9.0.a.a.a.a.p.a.4.0.",
"u p m u # # # # # # # # # # # # # # # # # # # # # # # # # - q i F E E E } $.$.3.3.3.3.3.>.<.3.<.>.>.&.&.&.&.%.%.$.>.3.%.$.3.4.4.4.4.3.>.3.>.>.3.0.0.4.>.3.3.4.4.<.4.3.:.>.%.>.<.4.3.4.,.%.! V X.*.@.@.@.:.2.0.,.0.| l _ 0.w.w.a.w.a.f.h.h.h.k.h.h.j.k.j.h.h.j.k.",
"e t s b # # # # # # # # # # # # # # # # # # # # # # > i n E E E } %.%.>.>.>.>.&.>.$.$. .>.@.$.%.%.$.$.$.%.$.%.3.3.3.4.4.3.9.0.3.4.a.3.0.a.4.4.4.9.>.,.2.3.3.<.9.0.0.0.a.w.w.w.a.a.a.a.0.9.0.0.0.7.<.;.#.*.#.X.! ! f w g  .>.3.w.3.a.s.@.Q @.0.f.s.f.h.h.j.k.l.l.",
"t v B v # # # # # # # # # # # # # # # # # # + # 5 P E E } $.$.>.%.$.$.%.>.>.:.| ..>.` X.@.>.>.%.@.%.&.%.%.3.>.@.%.>.%.%.<.O.~ ^ | | @.` R ..| ' %.[ ! Q X.^ | O.<.+.%.1.w.<.,.4.w.9.7.w.a.a.a.d.f.f.f.a.t.<.7.y.a.<.` | ,.>.$.$.&.:._ w w g T O.<.9.a.f.a.h.k.l.",
"b z v h # # # # # # # # # # # # # # # # + 2 e C ~  .$.$.$.$.$.$.&.>.%.%.$.| ~ ! ` | @._ _ ' Q / U ` | _ / _ ~ Q Q ! ! ! Q Q ! ! Q Q ! ! ` ! S V Q Q Q Q Q Q Q ! / / ^  .| ^ ^  .@./ X.%.<.@.%.9.w.s.a.a.f.f.f.f.f.f.w.r.f.f.w.w.3.&._ P W ~ Q ,.+.+.4.<._ ! ! X.",
"m s u r # # # # # # # # # # + o o % 2 r f ] @.' { } $.=.:.=.$.$.| ^ } ^ C V V V D ~ T ! Q ] ! ! ! ` [ / / / ! ~ ~ ~ ` / / / / / ` / / ` ! ! / ! ! ! ` ` X.` X./ ` ` ! ! / ! Q D ! ! ! / / / / ! / +.@.@.>.9.w.a.w.w.a.f.a.f.h.f.f.f.a.>.%.>.0.w.w.4.4.:.! Q Q V ",
"u p p s # # # # # # # - # o $ w g k V Q Q ^ { ^ ..O._ ^ ~ ~ J V ^ C N V U D ^ ~ ( E ^ Q Q { C j g j V Q Q V U j N g V ! V Q Q ! C ! ! ! ! / / ` / / ` X.X.X.X.+.X.X.+.X.+.+.o.o.#.+./ ! ! ! ! ! Q ! Q Q / X.+.| ` #.,.7.a.r.0.4.s.f.a.d.a.a.h.h.h.k.j.s.2.;.,.<.",
"q 0 p y # # # # # - o % 6 w g j ! Z l Q ! ^ ^ { _ C C C k j j k I T V Q V V l g f f f g f 3 3 2 5 5 w w f f f N f f f f g g f f f g g V f g j ! Q Q V / / ! ! ` / / X.X.' ` +.X.X.X.X.X./ X.o.+.+.` X.^ ! ! Q Q Q Q l j ~ O.o.@.@.8.i.g.i.a.h.h.h.k.k.k.j.h.f.k.",
"q B p e # # # # o o 4 y S A V Q N g V V N g l g e N V g l f g g g g g y w 2 w 1 2 2 2 1 1 1 2 ; ; 7 ; 2 1 3 w 2 3 1 2 8 3 w 3 2 8 3 8 w g w f 8 8 f 8 f g f l f V Q ! V / V Q / ` ` / / X.o.X.o.+.o.o.X.@.X.` X.X./ Q Q l / ! Q Q l k Q V +.a.a.h.l.l.l.l.l.k.k.",
"p e e u # o o O = 0 t g C w g N l f g q w l l e f 8 2 8 8 w 6 < 0 r 3 1 2 1 4 $ 2 1 1 1 2 1 7 ; ; ; 7 ; 3 5 4 w 8 2 2 3 8 3 8 8 2 2 8 8 w 6 8 2 2 8 f 8 2 w 3 8 2 w f l l f g g Q Q V ! ! ` ' ` O.{ ` / ! X.o.+.#.X.! ! ' ,.,.8.X.l f f f j ` %.#.o.X.X.+.e.g.f.",
"u s s b o * b b r r v w f w 0 3 5 r y 2 w w 6 O O O $ X X X O X o o o o o o o o o o o o o o - 7 9 7 ; 7 # 2 X < O O < O $ % $ $ % % 3 4 2 2 3 6 8 8 8 8 8 8 8 f w 2 8 w 2 O 3 w 5 w g l w f Q Q V Q / ` ! ! ! ! ` ! / X.` +.#.&.X.! V g N A ` ! M f w w 8 D @.7.",
"v v d u & r w y 2 6 w 2 2 $ $ % = O O X X o o # o - o + # # # # # # # # # # # # # # # - # # - 7 p a 7 - # # # # # # # O X o O o o o X O O O $ 2 2 2 < 6 2 8 2 8 r w 4 2 2 8 8 5 w f f w 3 8 w w 3 f / X.` l V g Q ! o.o.+.` #.#.+.` ! ! ! / ` *.` V N l N V C ..",
"z z v a 3 2 3 4 O O O O O o o o o % # # # # # # - # # # # # # # # # # # # # # # # # # # # - 7 p p 7 9 7 - # # # # # # # - # # # # # # # # # o o O o O o O O < < 2 < 2 $ $ 2 2 = 2 2 8 f 8 w g p 2 w w f 3 3 w w V X.#.#.+.` X.+.` ` ` ` ` X.#.;.o.! Q Q ! / Q S ",
"v s t r & O $ o o o o # # # # # - # # # # # # # # # # # # # # # # # # # # # # # # # # # # - 6 h J h 7 - # # # # # # # # # # # # # # # # # # - # - # + o + o # # # + % O O $ $ + $ < O - 2 q 3 2 2 f 8 3 3 g w w 2 g ` ` Q g Q +.-.+.+.X.o.O.-.+.' X.! Q _ ` +.+.",
"s s v N o % # - # # # # # # # # # # # # # # # # # # # # # # # # # # # # # # # # # # # # # # > q 9 h h 7 + - # # # # # # # # # # # # # # # # # # # # # # # # # # # # # # - o X X X o O 2 < < O o < 2 8 2 8 g w f g 3 3 O O O l ! -.6.#.X.X./ / / Q X.` / ` ` #.6.",
"d t v y # # # # # # # # # # # # # - # # # # # # # # # # # # # # # # # # # # # # # # # # # - a H h a q 7 - # # # # # # # # # # # # # # # # # # # # # # # # # # # # # # # # # # # # # # o o X $ @ $ O $ 2 2 8 8 w % 8 2 2 8 < 8 8 g l l l ~ Q ! Q ! ` X.` ! O./ X.",
"v s v e # # # # # # # # # # # # # # # # # # # # # # # # # # # # # # # # # # # # # # # # # - - i H J 9 - # # # # # # # # # # # # # # # # # # # # # # # # # # # # # # # # # # # # # # # # # o o # # o O + O 2 3 O O < 2 8 : 0 O < 8 2 2 w N V V S / o.#.+.#.o.~ ( ",
"s i m t # # # # # # # # # # # # # # # # # # # # # # # # # # # # # # # # # # # # # # # # # - a p p p h a # # # # # # # # # # # # # # # # # # # # # # # # # # # # # # # # # # # # # # # # # # # - # # o o o o O O O < O - 7 7 9 - 2 < O < 8 w w V Q / o.X.` D X.` ",
"s t s b * - # # # # # # # # # # # # # # # # # # # # # # # # # # # # # # # # # # # # # # # # - F J h 7 ; # # # # # # # # # # # # # # # # # # # # # # # # # # # # # # # # # # # # # # # # # # # # # # # # - # # # o O O - 7 p p 7 - 8 8 8 8 < < 8 8 2 < 2 6 2 ! 5.",
"0 v B t # # # # # # # # # # # # # # # # # # # # # # # # # # # # # # # # # # # # # # # # # # 7 9 p H H 7 # # # # # # # # # # # # # # # # # # # # # # # # # # # # # # # # # # # # # # # # # # # # # # # # # # # # - o O - 7 7 p 7 7 2 2 8 8 8 2 2 8 2 2 3 f w l l ",
"b z v h # # # # # # # # # # # # # # # # # # # # # # # # # # # # # # # # # # # # # # # # # - p J G a 7 9 - # # # # # # # # # # # # # # # # # # # # # # # # # # # # # # # # # # # # # # # # # # # # # # # # # # # # # - 7 h p p 6 - O 2 8 8 8 8 2 2 8 8 8 w g w 8 ",
"n n u r # # # # # # # # # # # # # # # # # # # # # # # # # # # # # # # # # # # # # # # # # # - 9 H J p - # # # # # # # # # # # # # # # # # # # # # # # # # # # # # # # # # # # # # # # # # # # # # # # # # # # # # # + ; 7 9 h p ; o < < 8 8 8 0 3 < 2 2 8 w f f ",
"u i p n # # # # # # # # # # # # # # # # # # # # # # # # # # # # # # # # # # # # # # # # # - a p p p a a - # # # # # # # # # # # # # # # # # # # # # # # # # # # # # # # # # # # # # # # # # # # # # # # # # # # # # - 7 p p p 9 ; - O $ 2 2 2 3 < O < < < 3 2 8 ",
"q e p 0 # # # # # # # # # # # # # # # # # # # # # # # # # # # # # # # # # # # # # # # # # # ; G K a 9 ; # # # # # # # # # # # # # # # # # # # # # # # # # # - # # # # # # # # # # # # # # # # # # # # # # # # # # # # ; h H p 6 - - o X X .     X + $ O < = % r ",
"0 n p e # # # # # # # # # # # # # # # # # # # # # # # # # # # # # # - # # # # # # # # # # # 7 q p G G 9 # # # # # # # # # # # # # # # # # # # # # # # # # # # # # # # # # # # # # # # # # # # # # # # # # # # # # # # ; p 9 h h - - # # # # # #   @ $ O $ 2 * * ",
"p s s t # # # # # # # # # # # # # # # # # # # # # # # # # # # # # # # # # # # # # # # # - - a H G a 7 9 # - # # # # # # # # # # # # # # # # # # # # # # # # # # # # # # # # # # # # # # # # # # # # # # # # # # # - - p H h q 7 - - : # # # # # - .   O O X     ",
"u e s b # # # # # # # # # # # # # # # # # # # # # # # # # # # # # # # # # # # # # # - p - # - 7 H K p - # - i - # # # # # # # # # # # - # # # # # # # # # # # # # # # # # # # # # # # # # # # # # # # # # # # # i - # - 7 H H p - - - - o - # # # # # # o % # # ",
"v v d u # # # # # # # # # # # # # # # # # # # # # # # # # # # # # # # # # # # # - # q 7 # - a p p p h a - # 7 q # - # # # # # # # # # # # # # # # # # # # # # # # # # # # # # # # # # # # # # # # # # # # - - i 7 # - a a p p p 9 - # ; 7 # - # # # # # # # # # ",
"z z v h # # # # # # # # # # # # # # # # # # # # # # # # # # # # # # # # # # # # 7 - p 7 7 - ; K K G a - - ; 7 p - 0 # # # # # # # # # # # # # # # # # # # # # # # # # # # # # # # # # # # # # # # # # # # 0 - i q ; - ; H J h 9 - - - q 7 - - # # # # # # # # # ",
"b s u r # # # # # # # # # # # # # # # # # # # # # # # # # # # # # # # # # # # # - 7 7 - 7 p h J K L H h p 7 - 7 7 7 # # # # # # # # # # # # # # # # # # # # # # # # # # # # # # # # # # # # # # # # # # # - q 7 - 7 s h H J J H a i ; - 7 7 - # # # # # # # # # ",
"s j s n # # # # # # # # # # # # # # # # # # # # # # # # # # # # # # # # # # # # - ; q 9 9 p F L L L K H a 9 ; 7 ; - # # # # # # # # # # # # # # # # # # # # # # # # # # # # # # # # # # # # # # # # # # # 7 7 7 7 9 p k H K L H G p 9 - 7 7 - # # # # # # # # # ",
"d e v y # # # # # - # # # # # # # # # # # # # # # - # # # # # - # # # # # # # # q q ; 7 7 p a H J J H h p 7 q ; q q # # # # # # # # # # # # # # # # # # # # # # # # # # # # # # # # # # # - # # # # # # # 7 7 7 9 q p p G J J h p q 7 7 ; 7 7 - # # # - # # # # ",
"x d z e b e n q t t e w s u e x i s t b p t 7 z v e u x z t u a v q p B v u x w e z x p t e z s 7 p v s t e e e u p u s s p u v q t x t q a u s z z p r a s p v s u e i t u p u p s s u v e q v t q h u e z z p v h p x s p e t t z v h v q z t w v e u b z z a ",
"u p b u v p q s p x t q a t s z a p 0 s t v q u v p t e t x t r z q p p e u t e e x m s e z x z p s p s s q v t p n s v p s e v z e r t p a s u v z p r a a d p s s q z t e n s v p s e z z q r e q h s u v z e y p k p s s q v r n z r b q z v z t a z n s u r ",
"r z p s v v u v u r t 7 h s v v v p y t e t e h v s p s e z q s z p s v e e t u p t s p s u x e e n s s v r u t u s d e a v s v z q t t q F s s b u e u a a s s v s r u q t s d s a v p v v 0 t t p H e e b n e e a n s v s r u t s u v v q b v e r t t u p p v ",
"d 0 s t q r e v t t t p H s p b e p s v q z s k s p s u s x x y u e s s q v t e n s n p s i z v p d b v j e u t x B d p a s m s n 0 x t p G e p t v v s p a d z n s t u t v B d p a s m s v y x t e H s p t v v e a d z n s t v t v p y u e z u t 0 e s q e p y ",
"t t v e b p q t i x t e H e p t v s r z e z v k s s p n n t r u e i v s r t t t s d p s v s n x e n v z m p x t z n u u p z z v m e c e t a u p e v q u a s n v z m p v t z n u t s v v v m s r e u h t p e v q s a n v v m p v t s p e e p t e 0 s e e 0 n p q ",
"x p z x u e Z u x c e u h u p e b v a x p v v s a s e z n b d r b s n s m p z e d j p a s v t n e p e m v s v q v s t p d q u n m i s q s H s p t h p s a a p e n v s z i z s t s a e e Z m i s q e H s p t h e d s p e v m e v q q u r b s t t v v y v p s s e ",
"e p s z p e z s x s q p H e p u e B t t s x z B i s v r z B n x v s s t m u b e d t u d v v v m p d p s B v n t q s p s a a p s m e v t p H u u p u p H h p d p s B v v t p s p s s a p s v s u u p H u u p v p H a d p p B v u t s p x v u v p e p q q u e s b ",
"m v t e t t s z v n t p H u u p v n b t b e 0 d 7 h p a p n n x e u u v B m p s a r a s p u v Z p H s u H B e s e s i p a H e u p a p s a H s p p u s h a a h p t H B e s 0 s s p h h p e p a s s a k s p p s s a a F e u H B e s e u x s t x p v t q p v v j u ",
"t u e u b v n u s e s a h s p p u d Z d i p s k q d a s u s s e s t u s H B u s d i s a s p s n a h s d H n u s d d u u h k s d p s u s G H a p q v v H h h k n d H B u s d s t e H h v d p s e s h H h p q v v H a a d d h B u s v v 0 e t v u e z n v z z s a ",
"v t t v n p x u v v s h H h p e q a B d t n t s 9 s G h s p p t t t s B k d s s F e p a H p u p h d v d n h a p v d x s H a v n b p d p H H a s t s v H h H h v H n a a s n a v s H h v n b s d p H H h s r n s H H d v B d d a s p y u t t u t t z u x v n n r ",
"s u b e v s u u u d p H H h e t u B H e d d u B p j H k v d e 0 u e t H d H a d G t u H h n s p s H a H n H a d n a s s H H a a u p h p H H k s v v s H d a H a H n J a a n a d s h H a h u p a p H H k p v v s H a H a H n H G a v e 0 v i u t x u t e s s n n ",
"x z v v s s b r p a p H J k e v s d H h s h x d s a H s v s s e e s B C d H h d H v e H a v n b p k d B h J a n d p d p G k n s e p H u H H k p d s a K h h k n k h H H d d s s p H k n s s p h v H H k s d s d K a B n H a J a d x t e e s v d u u v z s u v y ",
"x t v s u u b p x F u G H k s k k u H H d H t k p d h d k v p e b s P H a H d s h s s H h a d u a d s J a h d d d B u u H k d a s p h s H H h a u a G Y F a d d J d H d s d B u t H d d p s p h s H H a a s a h Y a d d H d H d s s u s v s q s x i b x v s v 0 ",
"z i n v u p v u z a s G H h a e B h h k s h m s s h H v d s e t v 0 H H F a a h h d p H k n s p a H k H H d s H d B x s H k d a a p s H H H s a e s H Y H H H j H H s s H d B v s H k k a a p s H H H d a e s H Y J H k H H d s H p v t v w p d x p b v u i m u "
};
