/* XPM */
static char *WALL031[] = {
/* columns rows colors chars-per-pixel */
"128 128 14 1 ",
"  c #100808",
". c #181410",
"X c #213000",
"o c #181029",
"O c #212421",
"+ c #212829",
"@ c #293031",
"# c #394142",
"$ c #424D52",
"% c #526163",
"& c #73757B",
"* c #843800",
"= c #F77900",
"- c #848E8C",
/* pixels */
"&&%%##..............................OO&&%%##..................................OO&&%%##..................................&&%%##..",
"&&%%##..............................OO&&%%##..................................OO&&%%##..................................&&%%##..",
"&&%%##..%%%%%%%%%%%%%%%%%%%%%%%%%%%%OO&&%%##..####%%%%%%%%%%%%%%%%%%%%%%%%%%%%OO&&%%##..####%%%%%%%%%%%%%%%%%%%%%%%%%%##&&%%##..",
"&&%%##..%%%%%%%%%%%%%%%%%%%%%%%%%%%%OO&&%%##..####%%%%%%%%%%%%%%%%%%%%%%%%%%%%OO&&%%##..####%%%%%%%%%%%%%%%%%%%%%%%%%%##&&%%##..",
"&&%%##..@@##########################OO%%@@@@..@@@@############################OO%%@@@@..@@@@##########################OO&&%%##..",
"&&%%##..@@##########################OO%%@@@@..@@@@############################OO%%@@@@..@@@@##########################OO&&%%##..",
"&&%%##..@@##OOOOOOOOOOOOOOOO########OO&&%%##..@@@@############################OO&&%%##..@@@@##OOOOOOOOOOOOOOOOOOOO####OO&&%%##..",
"&&%%##..@@##OOOOOOOOOOOOOOOO########OO&&%%##..@@@@############################OO&&%%##..@@@@##OOOOOOOOOOOOOOOOOOOO####OO&&%%##..",
"&&%%##..@@##OO@@@@@@@@@@@@%%####OOOOOO&&%%##..OOOOOOOOOOOOOOOOOOOOOOOOOOOOOOOOOO&&%%##..OOOO####OO@@@@@@@@@@@@@@@@%%##OO&&%%##..",
"&&%%##..@@##OO@@@@@@@@@@@@%%####OOOOOO&&%%##..OOOOOOOOOOOOOOOOOOOOOOOOOOOOOOOOOO&&%%##..OOOO####OO@@@@@@@@@@@@@@@@%%##OO&&%%##..",
"&&%%##..@@##OO@@@@@@@@@@%%####OO      @@@@@@..                                  @@@@@@....  @@####OO@@@@@@@@@@@@@@%%##OO&&%%##..",
"&&%%##..@@##OO@@@@@@@@@@%%####OO      @@@@@@..                                  @@@@@@....  @@####OO@@@@@@@@@@@@@@%%##OO&&%%##..",
"&&%%##..@@##OO@@@@@@@@%%####OO..OO  OO..%%  ..@@@@@@@@@@  OOOOOOOO  OOOO  OOOOOO..%%....@@@@..@@####OO@@@@@@@@@@@@%%##OO&&%%##..",
"&&%%##..@@##OO@@@@@@@@%%####OO..OO  OO..%%  ..@@@@@@@@@@  OOOOOOOO  OOOO  OOOOOO..%%....@@@@..@@####OO@@@@@@@@@@@@%%##OO&&%%##..",
"&&%%##..@@##OO@@@@@@%%####OO  OOOO  OOOO%%  @@@@@@@@@@          OO  OOOOOO  OOOO  %%  @@@@@@@@    ####OO@@@@@@@@@@%%##OO&&%%##..",
"&&%%##..@@##OO@@@@@@%%####OO  OOOO  OOOO%%  @@@@@@@@@@          OO  OOOOOO  OOOO  %%  @@@@@@@@    ####OO@@@@@@@@@@%%##OO&&%%##..",
"&&%%##..@@####%%%%%%####OO    OOOO  OOOO%%##@@@@@@@@@@  OOOOOO  OO  OOOOOOOO  OO  %%  @@@@@@@@@@  @@####OO%%%%%%%%%%##OO&&%%##..",
"&&%%##..@@####%%%%%%####OO    OOOO  OOOO%%##@@@@@@@@@@  OOOOOO  OO  OOOOOOOO  OO  %%  @@@@@@@@@@  @@####OO%%%%%%%%%%##OO&&%%##..",
"&&%%##..@@############OO..OO  OOOO  OOOOOO%%  ########..OO@@@@OO@@..@@@@@@@@OO..  %%  @@######@@    @@################OO&&%%##..",
"&&%%##..@@############OO..OO  OOOO  OOOOOO%%  ########..OO@@@@OO@@..@@@@@@@@OO..  %%  @@######@@    @@################OO&&%%##..",
"&&%%##..OOOOOOOOOOOOOO..OOOO        OOOOOO##%%OOOOOO##..OO@@@@OO@@..@@@@@@OOOO  %%##OOOO..######  OO  @@OOOOOOOOOOOOOOOO&&%%##..",
"&&%%##..OOOOOOOOOOOOOO..OOOO        OOOOOO##%%OOOOOO##..OO@@@@OO@@..@@@@@@OOOO  %%##OOOO..######  OO  @@OOOOOOOOOOOOOOOO&&%%##..",
"&&%%##................OOOOOO  ####  OOOOOOOO##%%%%OOOO..OO@@@@OO@@..@@@@OOOO##%%##..OO@@OO..####..OOOO                  &&%%##..",
"&&%%##................OOOOOO  ####  OOOOOOOO##%%%%OOOO..OO@@@@OO@@..@@@@OOOO##%%##..OO@@OO..####..OOOO                  &&%%##..",
"........OOOO##..OO..OOOOOOOO  ####    @@@@OOOO  ##%%%%..OOOO@@@@....@@@@OO  %%  OOOO..@@@@OO......@@OOOO  OO  OO##OO  $$........",
"........OOOO##..OO..OOOOOOOO  ####    @@@@OOOO  ##%%%%..OOOO@@@@....@@@@OO  %%  OOOO..@@@@OO......@@OOOO  OO  OO##OO  $$........",
"$$OO&&&&&&$$$$..OO..OO  ##########..OO..OO@@OOOOOO  ##%%##OO@@@@@@..@@OOOO%%##OOOO##OOOO..............@@  OO  OO##$$&&&&&&OOOO..",
"$$OO&&&&&&$$$$..OO..OO  ##########..OO..OO@@OOOOOO  ##%%##OO@@@@@@..@@OOOO%%##OOOO##OOOO..............@@  OO  OO##$$&&&&&&OOOO..",
"$$OO&&%%%%%%%%&&&&$$OO..##########..OO@@..OO@@@@OOOOOO  %%##OO@@@@@@..OO  ##  OO########OOOO..OOOOOO..@@OO$$&&&&%%%%%%&&&&OOOO..",
"$$OO&&%%%%%%%%&&&&$$OO..##########..OO@@..OO@@@@OOOOOO  %%##OO@@@@@@..OO  ##  OO########OOOO..OOOOOO..@@OO$$&&&&%%%%%%&&&&OOOO..",
"$$OO&&%%..OO########%%&&&&$$######..OO@@@@..OO@@@@@@OOOO  ##..OO@@@@@@OO####@@OO############..@@OO$$&&&&%%%%%%%%%%$$@@&&$$@@@@..",
"$$OO&&%%..OO########%%&&&&$$######..OO@@@@..OO@@@@@@OOOO  ##..OO@@@@@@OO####@@OO############..@@OO$$&&&&%%%%%%%%%%$$@@&&$$@@@@..",
"$$@@&&%%......  ..OO########&&&&$$##@@&&&&&&&&&&&&&&&&&&&&&&&&&&&&&&&&&&&&&&&&&&&&&&&&$$####$$&&&&%%%%%%%%$$@@    ....&&$$..OO..",
"$$@@&&%%......  ..OO########&&&&$$##@@&&&&&&&&&&&&&&&&&&&&&&&&&&&&&&&&&&&&&&&&&&&&&&&&$$####$$&&&&%%%%%%%%$$@@    ....&&$$..OO..",
"$$@@&&%%      ........    OO%%%%%%OO@@&&**********************************************$$##OO%%%%%%$$@@    ........    &&$$..OO..",
"$$@@&&%%      ........    OO%%%%%%OO@@&&**********************************************$$##OO%%%%%%$$@@    ........    &&$$..OO..",
"$$@@&&%%              ......    %%OO@@&&**                                          **$$##OO%%    ........            &&$$..OO..",
"$$@@&&%%              ......    %%OO@@&&**                                          **$$##OO%%    ........            &&$$..OO..",
"$$@@&&%%                    ....%%OO@@&&**    ..................................    **$$##OO%%....                    &&$$..OO..",
"$$@@&&%%                    ....%%OO@@&&**    ..................................    **$$##OO%%....                    &&$$..OO..",
"$$@@&&%%........                %%OOOO&&**    ******  ******  ********..********    **$$..OO%%                ........&&$$..OO..",
"$$@@&&%%........                %%OOOO&&**    ******  ******  ********..********    **$$..OO%%                ........&&$$..OO..",
"$$@@&&%%..................      %%OO..&&**    ==**==  ==**==  ====**==  ====**==    **$$..OO%%      ..................%%$$..OO..",
"$$@@&&%%..................      %%OO..&&**    ==**==  ==**==  ====**==  ====**==    **$$..OO%%      ..................%%$$..OO..",
"$$@@&&%%..................      %%OO..&&**..........................................**$$..OO%%........................%%$$..OO..",
"$$@@&&%%..................      %%OO..&&**..........................................**$$..OO%%........................%%$$..OO..",
"$$@@&&%%........................%%OO..&&**....********..********..**************....**$$..OO%%........................%%$$..OO..",
"$$@@&&%%........................%%OO..&&**....********..********..**************....**$$..OO%%........................%%$$..OO..",
"$$@@%%%%........................%%OO..&&**....====**==..==**====..==**==**==****....**$$..OO%%........................%%$$..OO..",
"$$@@%%%%........................%%OO..&&**....====**==..==**====..==**==**==****....**$$..OO%%........................%%$$..OO..",
"$$@@%%%%........................%%OO..&&**..........................................**$$..OO%%........................%%$$..OO..",
"$$@@%%%%........................%%OO..&&**..........................................**$$..OO%%........................%%$$..OO..",
"$$@@%%%%........................%%OO..&&**....********..************..****..........**$$..OO%%........................%%$$..OO..",
"$$@@%%%%........................%%OO..&&**....********..************..****..........**$$..OO%%........................%%$$..OO..",
"$$@@%%%%........................%%OO..&&**....==****==OO====**==**==OO==**..........**$$..OO%%........................%%$$..OO..",
"$$@@%%%%........................%%OO..&&**....==****==OO====**==**==OO==**..........**$$..OO%%........................%%$$..OO..",
"$$@@%%%%..................OOOOOO%%OO..&&**OOOOOOOOOOOOOOOOOOOOOOOOOOOOOOOOOOOOOOOOOO**$$..OO%%OOOOOO..................%%$$..OO..",
"$$@@%%%%..................OOOOOO%%OO..&&**OOOOOOOOOOOOOOOOOOOOOOOOOOOOOOOOOOOOOOOOOO**$$..OO%%OOOOOO..................%%$$..OO..",
"$$@@%%%%......OOOOOOOOOOOOOOOOOO%%OO..&&**OOOOOOOOOOOOOOOOOOOOOOOOOOOOOOOOOOOOOOOOOO**$$..OO%%OOOOOOOOOOOOOOOOOO......%%$$..OO..",
"$$@@%%%%......OOOOOOOOOOOOOOOOOO%%OO..&&**OOOOOOOOOOOOOOOOOOOOOOOOOOOOOOOOOOOOOOOOOO**$$..OO%%OOOOOOOOOOOOOOOOOO......%%$$..OO..",
"$$@@$$%%OOOOOOOOOOOOOOOOOOOOOOOO%%OO..&&**OOOOOOOOOOOOOOOOOOOOOOOOOOOOOOOOOOOOOOOOOO**$$..OO%%OOOOOOOOOOOOOOOOOOOOOOOO%%$$..OO..",
"$$@@$$%%OOOOOOOOOOOOOOOOOOOOOOOO%%OO..&&**OOOOOOOOOOOOOOOOOOOOOOOOOOOOOOOOOOOOOOOOOO**$$..OO%%OOOOOOOOOOOOOOOOOOOOOOOO%%$$..OO..",
"$$@@$$%%OOOOOOOOOOOOOOOOOO@@@@$$%%OO..&&**********************************************$$..OO%%$$@@OOOOOOOOOOOOOOOOOOOO%%$$..OO..",
"$$@@$$%%OOOOOOOOOOOOOOOOOO@@@@$$%%OO..&&**********************************************$$..OO%%$$@@OOOOOOOOOOOOOOOOOOOO%%$$..OO..",
"$$@@$$%%OOOOOOOOOO@@@@$$%%%%%%%%OOOO..##$$$$$$$$$$$$$$$$$$$$$$$$$$$$$$$$$$$$$$$$$$$$$$$$..OOOO%%%%%%%%$$@@@@@@OOOOOOOO%%$$..OO..",
"$$@@$$%%OOOOOOOOOO@@@@$$%%%%%%%%OOOO..##$$$$$$$$$$$$$$$$$$$$$$$$$$$$$$$$$$$$$$$$$$$$$$$$..OOOO%%%%%%%%$$@@@@@@OOOOOOOO%%$$..OO..",
"$$@@$$%%OO@@$$%%%%%%%%%%OOOOOOOO......@@..............................................OO..........OOOO%%%%%%%%%%$$@@OO%%$$..OO..",
"$$@@$$%%OO@@$$%%%%%%%%%%OOOOOOOO......@@..............................................OO..........OOOO%%%%%%%%%%$$@@OO%%$$..OO..",
"$$@@$$%%%%%%%%OOOOOOOOOO........@@@@@@@@..%%%%%%%%%%%%%%%%%%%%%%%%%%%%%%%%%%%%%%%%%%%%..OOOOOOOOOO        OOOOOO%%%%%%%%$$..OO..",
"$$@@$$%%%%%%%%OOOOOOOOOO........@@@@@@@@..%%%%%%%%%%%%%%%%%%%%%%%%%%%%%%%%%%%%%%%%%%%%..OOOOOOOOOO        OOOOOO%%%%%%%%$$..OO..",
"$$@@##OOOOOOOOOO        @@@@@@@@@@@@@@..%%$$&&$$&&$$&&$$&&$$&&$$&&$$&&$$&&$$&&$$&&$$&&##..OOOOOOOOOO  OO        OOOOOOOO##..OO..",
"$$@@##OOOOOOOOOO        @@@@@@@@@@@@@@..%%$$&&$$&&$$&&$$&&$$&&$$&&$$&&$$&&$$&&$$&&$$&&##..OOOOOOOOOO  OO        OOOOOOOO##..OO..",
"$$@@@@&&OOOO&&..OO      @@@@@@@@@@@@..%%$$$$##$$##$$##$$##$$##$$##$$##$$##$$##$$##$$##$$##..OOOOOOOO      @@  OO............OO..",
"$$@@@@&&OOOO&&..OO      @@@@@@@@@@@@..%%$$$$##$$##$$##$$##$$##$$##$$##$$##$$##$$##$$##$$##..OOOOOOOO      @@  OO............OO..",
"$$@@@@&&OO@@&&..OO  OO  @@@@@@@@@@..%%$$&&$$--&&$$--&&$$--&&$$--&&$$--&&$$--&&$$--&&$$&&$$##..OOOOOO  OO  @@  OO&&..OO&&..OOOO..",
"$$@@@@&&OO@@&&..OO  OO  @@@@@@@@@@..%%$$&&$$--&&$$--&&$$--&&$$--&&$$--&&$$--&&$$--&&$$&&$$##..OOOOOO  OO  @@  OO&&..OO&&..OOOO..",
"$$@@@@&&$$$$&&..OO  OO  @@@@@@@@..%%$$$$%%##%%%%##%%%%##%%%%##%%%%##%%%%##%%%%##%%%%##%%$$$$##..OO@@..OO..@@  OO&&..OO&&..OOOO..",
"$$@@@@&&$$$$&&..OO  OO  @@@@@@@@..%%$$$$%%##%%%%##%%%%##%%%%##%%%%##%%%%##%%%%##%%%%##%%$$$$##..OO@@..OO..@@  OO&&..OO&&..OOOO..",
"$$@@@@&&  ..&&........  @@####..%%$$--&&&&##--&&&&##--&&&&##--&&&&##--&&&&$$--&&&&##--&&&&$$$$##......OO..@@..OO&&$$$$&&..OOOO..",
"$$@@@@&&  ..&&........  @@####..%%$$--&&&&##--&&&&##--&&&&##--&&&&##--&&&&$$--&&&&##--&&&&$$$$##......OO..@@..OO&&$$$$&&..OOOO..",
"$$@@@@&&$$$$$$..@@@@..  @@####%%$$$$%%%%%%$$%%%%%%$$%%%%%%$$%%%%%%$$%%%%%%$$%%%%%%$$%%%%%%$$$$$$##....OO..@@..OO$$    &&..OO@@..",
"$$@@@@&&$$$$$$..@@@@..  @@####%%$$$$%%%%%%$$%%%%%%$$%%%%%%$$%%%%%%$$%%%%%%$$%%%%%%$$%%%%%%$$$$$$##....OO..@@..OO$$    &&..OO@@..",
"$$@@@@$$  ..$$..........@@####------------------------------------------------------------------&&....OO..@@..OO$$$$$$$$..@@@@..",
"$$@@@@$$  ..$$..........@@####------------------------------------------------------------------&&....OO..@@..OO$$$$$$$$..@@@@..",
"$$@@@@$$OO@@$$..@@@@@@..@@####--&&&&&&&&&&&&&&&&&&&&&&&&&&&&&&&&&&&&&&&&&&&&&&&&&&&&&&&&&&&&&&&&%%OO..OO..@@..OO$$  ..$$..OO@@..",
"$$@@@@$$OO@@$$..@@@@@@..@@####--&&&&&&&&&&&&&&&&&&&&&&&&&&&&&&&&&&&&&&&&&&&&&&&&&&&&&&&&&&&&&&&&%%OO..OO..@@..OO$$  ..$$..OO@@..",
"$$@@@@$$OO..$$..@@@@@@..@@##########@@OOOOOOOOOOOOOOOOOOOOOOOOOOOOOOOOOOOOOOOOOOOOOOOOOOOOOOOOOOOOOO..OO..OOOO@@$$..OO$$..OO@@..",
"$$@@@@$$OO..$$..@@@@@@..@@##########@@OOOOOOOOOOOOOOOOOOOOOOOOOOOOOOOOOOOOOOOOOOOOOOOOOOOOOOOOOOOOOO..OO..OOOO@@$$..OO$$..OO@@..",
"$$....$$OO@@@@......++  OOOOOOOOOOOOOOOO$$OO++......++................++..++..++....++  OOOOOOOOOOOOOOOO@@++++..@@..@@$$........",
"$$....$$OO@@@@......++  OOOOOOOOOOOOOOOO$$OO++......++................++..++..++....++  OOOOOOOOOOOOOOOO@@++++..@@..@@$$........",
"$$++++@@..++++..@@..%%  ..      ......  %%$$........++..............++....++..++....@@                    $$......++++@@..++@@oo",
"$$++++@@..++++..@@..%%  ..      ......  %%$$........++..............++....++..++....@@                    $$......++++@@..++@@oo",
"$$++++@@..++++..@@..%%  **************  %%$$........++..++++++++++++......++..++....@@  OO**************  $$........++@@..++@@oo",
"$$++++@@..++++..@@..%%  **************  %%$$........++..++++++++++++......++..++....@@  OO**************  $$........++@@..++@@oo",
"$$++++++++++++++@@..%%                  %%$$..++++..++..++................++..++....@@    XX              $$..........++..++@@oo",
"$$++++++++++++++@@..%%                  %%$$..++++..++..++................++..++....@@    XX              $$..........++..++@@oo",
"$$++++++++++++++@@..%%  **************  %%$$..++++..++..++................++..++....@@  OO**************  $$..........++++++@@oo",
"$$++++++++++++++@@..%%  **************  %%$$..++++..++..++................++..++....@@  OO**************  $$..........++++++@@oo",
"$$++++++++++++++@@..$$          ......  %%$$..++++..++..++++++++++++++++++++++++@@..%%&&  XXXX    ......  $$..........++++++@@oo",
"$$++++++++++++++@@..$$          ......  %%$$..++++..++..++++++++++++++++++++++++@@..%%&&  XXXX    ......  $$..........++++++@@oo",
"$$++++++++++++++@@..$$@@@@@@@@@@@@@@@@$$++$$..++++..++..++++++......................%%&&@@@@@@@@@@@@@@@@OO++..........++++++@@oo",
"$$++++++++++++++@@..$$@@@@@@@@@@@@@@@@$$++$$..++++..++..++++++......................%%&&@@@@@@@@@@@@@@@@OO++..........++++++@@oo",
"++@@@@@@@@@@@@@@@@..&&%%&&%%%%%%%%$$%%$$++++..@@@@..@@..@@@@@@..@@@@@@@@@@@@@@@@@@..%%--%%&&%%%%%%%%$$%%$$++..@@@@@@@@@@@@@@@@++",
"++@@@@@@@@@@@@@@@@..&&%%&&%%%%%%%%$$%%$$++++..@@@@..@@..@@@@@@..@@@@@@@@@@@@@@@@@@..%%--%%&&%%%%%%%%$$%%$$++..@@@@@@@@@@@@@@@@++",
"&&&&&&&&&&&&&&&&&&%%--%%&&%%%%%%%%$$%%$$++$$$$$$&&&&&&&&&&&&&&&&&&&&&&&&&&&&&&&&&&&&&&--%%&&%%%%%%%%$$%%$$++++&&&&&&&&&&&&&&&&$$",
"&&&&&&&&&&&&&&&&&&%%--%%&&%%%%%%%%$$%%$$++$$$$$$&&&&&&&&&&&&&&&&&&&&&&&&&&&&&&&&&&&&&&--%%&&%%%%%%%%$$%%$$++++&&&&&&&&&&&&&&&&$$",
"&&%%%%%%%%%%%%%%%%$$--%%&&%%%%%%%%$$%%$$++@@++$$$$$$$$$$$$$$$$$$$$$$$$$$$$$$$$$$$$$$$$--%%&&%%%%%%%%$$%%$$++@@++$$$$$$$$%%%%%%@@",
"&&%%%%%%%%%%%%%%%%$$--%%&&%%%%%%%%$$%%$$++@@++$$$$$$$$$$$$$$$$$$$$$$$$$$$$$$$$$$$$$$$$--%%&&%%%%%%%%$$%%$$++@@++$$$$$$$$%%%%%%@@",
"&&%%%%%%%%%%%%%%%%$$--%%&&%%%%%%%%@@%%$$..$$$$$$$$&&&&&&&&&&&&&&&&&&&&&&&&&&&&&&&&&&&&--%%&&%%%%%%%%@@%%$$++$$$$$$&&&&&&%%%%%%@@",
"&&%%%%%%%%%%%%%%%%$$--%%&&%%%%%%%%@@%%$$..$$$$$$$$&&&&&&&&&&&&&&&&&&&&&&&&&&&&&&&&&&&&--%%&&%%%%%%%%@@%%$$++$$$$$$&&&&&&%%%%%%@@",
"&&%%%%%%%%%%%%%%%%&&--%%&&%%%%%%%%@@%%$$..@@@@@@$$$$$$$$$$$$$$$$%%%%%%%%%%%%%%%%%%%%%%--%%&&%%%%%%%%@@%%$$++@@@@++$$$$$$$$$$$$@@",
"&&%%%%%%%%%%%%%%%%&&--%%&&%%%%%%%%@@%%$$..@@@@@@$$$$$$$$$$$$$$$$%%%%%%%%%%%%%%%%%%%%%%--%%&&%%%%%%%%@@%%$$++@@@@++$$$$$$$$$$$$@@",
"%%$$$$$$$$$$$$%%&&$$--%%&&%%$$@@@@@@%%$$..@@@@@@@@$$$$$$$$$$$$$$$$%%%%%%%%..%%**%%..%%--%%&&%%$$@@@@@@%%$$..@@@@@@@@$$$$&&&&&&%%",
"%%$$$$$$$$$$$$%%&&$$--%%&&%%$$@@@@@@%%$$..@@@@@@@@$$$$$$$$$$$$$$$$%%%%%%%%..%%**%%..%%--%%&&%%$$@@@@@@%%$$..@@@@@@@@$$$$&&&&&&%%",
"--&&&&&&&&&&&&&&$$$$--%%%%%%%%%%%%%%%%$$..@@@@@@@@$$$$$$$$$$$$$$$$$$%%%%%%..%%==%%..%%--%%%%%%%%%%%%%%%%$$..@@@@@@@@@@$$%%%%%%@@",
"--&&&&&&&&&&&&&&$$$$--%%%%%%%%%%%%%%%%$$..@@@@@@@@$$$$$$$$$$$$$$$$$$%%%%%%..%%==%%..%%--%%%%%%%%%%%%%%%%$$..@@@@@@@@@@$$%%%%%%@@",
"&&%%&&%%$$$$$$$$$$$$&&&&&&&&&&&&&&&&&&$$..@@@@@@@@@@$$$$$$$$$$$$$$$$$$%%%%..%%**%%..%%&&&&&&&&&&&&&&&&&&$$..@@@@@@@@@@@@%%%%%%@@",
"&&%%&&%%$$$$$$$$$$$$&&&&&&&&&&&&&&&&&&$$..@@@@@@@@@@$$$$$$$$$$$$$$$$$$%%%%..%%**%%..%%&&&&&&&&&&&&&&&&&&$$..@@@@@@@@@@@@%%%%%%@@",
"&&%%%%&&%%$$$$$$$$$$&&%%%%%%%%%%%%%%%%OO..@@@@@@@@@@$$$$$$$$$$$$$$$$$$$$%%%%%%%%%%%%%%&&%%%%%%%%%%%%%%%%OO..@@@@@@@@@@@@%%%%%%@@",
"&&%%%%&&%%$$$$$$$$$$&&%%%%%%%%%%%%%%%%OO..@@@@@@@@@@$$$$$$$$$$$$$$$$$$$$%%%%%%%%%%%%%%&&%%%%%%%%%%%%%%%%OO..@@@@@@@@@@@@%%%%%%@@",
"&&%%%%%%&&&&&&&&&&&&&&%%&&OOOOOOOO&&%%OO..$$$$$$$$$$&&&&&&&&&&%%$$$$$$$$$$$$$$$$&&&&&&&&%%&&OOOOOOOO&&%%OO..$$$$$$$$$$@@%%%%%%@@",
"&&%%%%%%&&&&&&&&&&&&&&%%&&OOOOOOOO&&%%OO..$$$$$$$$$$&&&&&&&&&&%%$$$$$$$$$$$$$$$$&&&&&&&&%%&&OOOOOOOO&&%%OO..$$$$$$$$$$@@%%%%%%@@",
"&&%%%%%%%%%%%%%%%%%%&&%%&&########&&%%OO..@@@@@@@@@@%%%%%%%%%%&&%%$$$$$$$$$$$$$$%%%%%%&&%%&&########&&%%OO..@@@@@@@@@@@@%%%%%%@@",
"&&%%%%%%%%%%%%%%%%%%&&%%&&########&&%%OO..@@@@@@@@@@%%%%%%%%%%&&%%$$$$$$$$$$$$$$%%%%%%&&%%&&########&&%%OO..@@@@@@@@@@@@%%%%%%@@",
"&&%%%%%%%%%%%%%%%%%%&&%%&&OOOOOOOO&&%%OO..@@@@@@@@@@%%%%%%%%%%%%&&$$$$$$$$$$$$$$%%%%%%&&%%&&OOOOOOOO&&%%OO..@@@@@@@@@@@@%%%%%%@@",
"&&%%%%%%%%%%%%%%%%%%&&%%&&OOOOOOOO&&%%OO..@@@@@@@@@@%%%%%%%%%%%%&&$$$$$$$$$$$$$$%%%%%%&&%%&&OOOOOOOO&&%%OO..@@@@@@@@@@@@%%%%%%@@",
"oo                  &&%%&&########&&%%OO                          @@@@                &&%%&&########&&%%OO                      ",
"oo                  &&%%&&########&&%%OO                          @@@@                &&%%&&########&&%%OO                      "
};
