/* XPM */
static char *WALL005[] = {
/* columns rows colors chars-per-pixel */
"128 128 15 1 ",
"  c #101410",
". c #292C31",
"X c #393C39",
"o c #42454A",
"O c #42515A",
"+ c #525552",
"@ c #5A6163",
"# c #6B6D6B",
"$ c #73797B",
"% c #AD8600",
"& c #D6BE00",
"* c #EFCB00",
"= c #FFFF21",
"- c #84868C",
"; c #ADAEAD",
/* pixels */
"++++++++++++++++++++++++++++++++++++++++++++++++++++++++++++++++++++++++++++++++++++++++++++++++++++++++++++++++++++++++++++++XX",
"++++++++++++++++++++++++++++++++++++++++++++++++++++++++++++++++++++++++++++++++++++++++++++++++++++++++++++++++++++++++++++++XX",
"++++++++++++++++XXXXXXXXXXXXXXXXXXXXXXXXXXXXXXXXXXXXXXXXXXXXXXXXXXXXXXXXXXXXXXXXXXXXXXXXXXXXXXXXXXXXXXXXXXXXXX..................",
"++++++++++++++++XXXXXXXXXXXXXXXXXXXXXXXXXXXXXXXXXXXXXXXXXXXXXXXXXXXXXXXXXXXXXXXXXXXXXXXXXXXXXXXXXXXXXXXXXXXXXX..................",
"++XX@@@@@@@@++##XX........XXXXXXXXXXXXXXXXXXXXXX............................  ooXXXX$$$$$$$$$$$$$$$$$$$$$$$$$$$$$$$$$$$$$$$$$$..",
"++XX@@@@@@@@++##XX........XXXXXXXXXXXXXXXXXXXXXX............................  ooXXXX$$$$$$$$$$$$$$$$$$$$$$$$$$$$$$$$$$$$$$$$$$..",
"++oo  &&&&&&&&##XX........++XX++++++++++++++XX++............................@@XXXX$$$$++++++++++++++++oooooooooooooooooooo@@@@..",
"++oo  &&&&&&&&##XX........++XX++++++++++++++XX++............................@@XXXX$$$$++++++++++++++++oooooooooooooooooooo@@@@..",
"++oo    &&&&&&##XX..      ++XX++++++++++++++XX++..                    ..  @@XXXX$$$$++$$$$$$$$############----------------@@@@..",
"++oo    &&&&&&##XX..      ++XX++++++++++++++XX++..                    ..  @@XXXX$$$$++$$$$$$$$############----------------@@@@..",
"++oo      &&&&##XX..XX....++XX++++++++++++++XX++..XX..oooooooooooooooo..@@XXXX$$##oo####################--##############@@@@@@..",
"++oo      &&&&##XX..XX....++XX++++++++++++++XX++..XX..oooooooooooooooo..@@XXXX$$##oo####################--##############@@@@@@..",
"++oo      ..&&##XX..      ++XX++++++++++++++XX++..        ............++XX..$$##oo####################--####ooooooooXXXXXX@@@@..",
"++oo      ..&&##XX..      ++XX++++++++++++++XX++..        ............++XX..$$##oo####################--####ooooooooXXXXXX@@@@..",
"++oo      ....$$XX..XXoooo$$++$$##########$$++$$XXoooo++++++++++++XX$$++oo;;--@@--------------------;;----++########@@$$$$--@@..",
"++oo      ....$$XX..XXoooo$$++$$##########$$++$$XXoooo++++++++++++XX$$++oo;;--@@--------------------;;----++########@@$$$$--@@..",
"++XX$$    ....$$XX..      $$++++++++++++++++++$$XX        XXXXXXXX$$++oo;;--@@--------------------;;----++##########@@$$$$--@@..",
"++XX$$    ....$$XX..      $$++++++++++++++++++$$XX        XXXXXXXX$$++oo;;--@@--------------------;;----++##########@@$$$$--@@..",
"++XX##&&  ....$$XX..XXoooo##oo##################..oooo++++++++XX$$++oo;;--@@--------------------;;----++############@@$$$$--@@..",
"++XX##&&  ....$$XX..XXoooo##oo##################..oooo++++++++XX$$++oo;;--@@--------------------;;----++############@@$$$$--@@..",
"++XX##&&&&....$$XX..      $$++##oooooooooooooo##$$..      XXXX$$++oo;;--@@--------------------;;----++##############@@$$$$--@@..",
"++XX##&&&&....$$XX..      $$++##oooooooooooooo##$$..      XXXX$$++oo;;--@@--------------------;;----++##############@@$$$$--@@..",
"++XX##&&&&&&..$$XX..XXoooo##++##oo++++++++++++oo##$$XXoo++XX$$++oo;;--++--------------------;;----++################++$$$$--@@..",
"++XX##&&&&&&..$$XX..XXoooo##++##oo++++++++++++oo##$$XXoo++XX$$++oo;;--++--------------------;;----++################++$$$$--@@..",
"++XX$$&&&&&&&&##XX..    XX$$++##oo++++++++++++++oo##$$....$$++oo;;--++--------------------;;----++##################++$$$$--++..",
"++XX$$&&&&&&&&##XX..    XX$$++##oo++++++++++++++oo##$$....$$++oo;;--++--------------------;;----++##################++$$$$--++..",
"++oo  &&&&&&&&##XX....XXXX##++##oooooooooooooooo++oo####$$++oo;;$$++--------------------;;$$--++####################++++++##@@..",
"++oo  &&&&&&&&##XX....XXXX##++##oooooooooooooooo++oo####$$++oo;;$$++--------------------;;$$--++####################++++++##@@..",
"++oo    &&&&&&##XXXX++++$$##oo##########################++oo;;$$++$$----------$$$$$$$$;;$$--++############################--++..",
"++oo    &&&&&&##XXXX++++$$##oo##########################++oo;;$$++$$----------$$$$$$$$;;$$--++############################--++..",
"++oo      &&&&##ooooooXX++++++++++++++++++++++++++++++++++;;$$++$$$$$$$$$$$$$$$$$$$$;;$$--oo########################++++++##@@..",
"++oo      &&&&##ooooooXX++++++++++++++++++++++++++++++++++;;$$++$$$$$$$$$$$$$$$$$$$$;;$$--oo########################++++++##@@..",
"++oo      ..&&##XX------;;;;;;;;;;;;;;;;;;;;;;;;;;;;;;;;;;##$$$$;;;;;;;;;;;;;;;;;;;;$$--oo##########################++$$$$--@@..",
"++oo      ..&&##XX------;;;;;;;;;;;;;;;;;;;;;;;;;;;;;;;;;;##$$$$;;;;;;;;;;;;;;;;;;;;$$--oo##########################++$$$$--@@..",
"++oo      ....$$XX--++@@$$$$$$$$$$$$$$$$$$$$$$$$$$$$$$$$$$$$$$$$$$$$$$$$$$$$$$$$$$$$--oo############################++$$$$--@@..",
"++oo      ....$$XX--++@@$$$$$$$$$$$$$$$$$$$$$$$$$$$$$$$$$$$$$$$$$$$$$$$$$$$$$$$$$$$$--oo############################++$$$$--@@..",
"++XX$$    ....$$XX--@@XXOOOOOOOOOOOOOOOOOOOOOOOOOOOOOOOOOOOOOOOOOOOOOOOO$$$$++OOOOOOOO--############################++$$$$--@@..",
"++XX$$    ....$$XX--@@XXOOOOOOOOOOOOOOOOOOOOOOOOOOOOOOOOOOOOOOOOOOOOOOOO$$$$++OOOOOOOO--############################++$$$$--@@..",
"++XX##&&  ....$$XX--@@XX%%%%%%%%%%%%%%%%%%%%%%%%%%%%%%%%%%%%%%%%%%%%%%%%;;$$OO%%%%%%%%OO--##########################++$$$$--@@..",
"++XX##&&  ....$$XX--@@XX%%%%%%%%%%%%%%%%%%%%%%%%%%%%%%%%%%%%%%%%%%%%%%%%;;$$OO%%%%%%%%OO--##########################++$$$$--@@..",
"++XX##&&&&....$$XX--@@XX%%**********************************************;;$$OO%%******%%OO--########################++$$$$--@@..",
"++XX##&&&&....$$XX--@@XX%%**********************************************;;$$OO%%******%%OO--########################++$$$$--@@..",
"++XX##&&&&&&..$$XX--@@XX%%**==========================================**;;$$OO%%**==****%%OO--######################++$$$$--@@..",
"++XX##&&&&&&..$$XX--@@XX%%**==========================================**;;$$OO%%**==****%%OO--######################++$$$$--@@..",
"++XX$$&&&&&&&&##XX--@@XX%%**==========================================**;;$$OO%%**====****%%OO--####################++$$$$--@@..",
"++XX$$&&&&&&&&##XX--@@XX%%**==========================================**;;$$OO%%**====****%%OO--####################++$$$$--@@..",
"++oo  &&&&&&&&##XX--@@XX%%**********************************************;;$$OO%%****====****%%OO--##################++$$$$--@@..",
"++oo  &&&&&&&&##XX--@@XX%%**********************************************;;$$OO%%****====****%%OO--##################++$$$$--@@..",
"++oo    &&&&&&##XX--@@XX%%%%%%%%%%%%%%%%%%%%%%%%%%%%%%%%%%%%%%%%%%%%%%%%;;$$OO%%%%****====****%%OO--################++$$$$--@@..",
"++oo    &&&&&&##XX--@@XX%%%%%%%%%%%%%%%%%%%%%%%%%%%%%%%%%%%%%%%%%%%%%%%%;;$$OO%%%%****====****%%OO--################++$$$$--@@..",
"++oo      &&&&##XX--@@@@;;;;;;;;;;;;;;;;;;;;;;;;;;;;;;;;;;;;;;;;;;;;;;;;$$$$$$----%%****====****%%OO--##############++$$$$--@@..",
"++oo      &&&&##XX--@@@@;;;;;;;;;;;;;;;;;;;;;;;;;;;;;;;;;;;;;;;;;;;;;;;;$$$$$$----%%****====****%%OO--##############++$$$$--@@..",
"++oo      ..&&##oo--@@@@$$$$$$$$$$$$$$$$$$$$$$$$$$$$$$$$$$$$$$$$$$$$$$$$$$$$$$$$----%%****====****%%OO--############++$$$$--@@..",
"++oo      ..&&##oo--@@@@$$$$$$$$$$$$$$$$$$$$$$$$$$$$$$$$$$$$$$$$$$$$$$$$$$$$$$$$----%%****====****%%OO--############++$$$$--@@..",
"++oo      ....$$oo--@@XX++++++++++++++++++--++$$++++++++++++++++++++++++++++++##$$----%%****====****%%OO------------##------@@..",
"++oo      ....$$oo--@@XX++++++++++++++++++--++$$++++++++++++++++++++++++++++++##$$----%%****====****%%OO------------##------@@..",
"++XX$$    ....$$oo--@@ooooXX++oooo++++@@$$$$++$$++$$$$$$$$$$$$$$$$$$$$$$$$@@$$$$##$$----%%****====****%%OOOOOOOOOOOOOOOOOO++@@  ",
"++XX$$    ....$$oo--@@ooooXX++oooo++++@@$$$$++$$++$$$$$$$$$$$$$$$$$$$$$$$$@@$$$$##$$----%%****====****%%OOOOOOOOOOOOOOOOOO++@@  ",
"++XX##&&  ....$$oo--@@oooo--$$$$$$$$$$----$$--$$oo##@@@@@@@@@@@@@@@@@@@@@@@@$$$$$$##$$----%%****====****%%%%%%%%%%%%%%%%%%--@@..",
"++XX##&&  ....$$oo--@@oooo--$$$$$$$$$$----$$--$$oo##@@@@@@@@@@@@@@@@@@@@@@@@$$$$$$##$$----%%****====****%%%%%%%%%%%%%%%%%%--@@..",
"++XX##&&&&....$$oo--@@ooooXXoooooo++++++$$--;;++++--$$$$$$$$$$$$$$$$$$$$$$@@$$$$$$$$##$$----%%****====******************%%--@@..",
"++XX##&&&&....$$oo--@@ooooXXoooooo++++++$$--;;++++--$$$$$$$$$$$$$$$$$$$$$$@@$$$$$$$$##$$----%%****====******************%%--@@..",
"++XX##&&&&&&..$$oo--@@oooo--------$$$$----------@@----$$$$--$$$$$$$$$$$$$$@@$$$$$$$$$$##$$----%%**************%%%%%%%%%%%%--@@..",
"++XX##&&&&&&..$$oo--@@oooo--------$$$$----------@@----$$$$--$$$$$$$$$$$$$$@@$$$$$$$$$$##$$----%%**************%%%%%%%%%%%%--@@..",
"++oo$$&&&&&&&&##oo--@@ooooXX++oooo++++--;;;;;;;;;;@@----------------------############$$##$$$$------------------------------@@..",
"++oo$$&&&&&&&&##oo--@@ooooXX++oooo++++--;;;;;;;;;;@@----------------------############$$##$$$$------------------------------@@..",
"++oo  &&&&&&&&##oo--##oooo--$$$$--$$--;;----@@@@@@;;++oo------------------############$$--$$++OOOOOOOOOOOOOOOOOOOOOOOOOOOO++@@  ",
"++oo  &&&&&&&&##oo--##oooo--$$$$--$$--;;----@@@@@@;;++oo------------------############$$--$$++OOOOOOOOOOOOOOOOOOOOOOOOOOOO++@@  ",
"++oo    &&&&&&##oo--##oo--------;;--;;--;;--;;++..++;;++;;++--------------############$$--$$OO%%%%******%%%%%%%%%%%%%%%%%%--@@..",
"++oo    &&&&&&##oo--##oo--------;;--;;--;;--;;++..++;;++;;++--------------############$$--$$OO%%%%******%%%%%%%%%%%%%%%%%%--@@..",
"++oo      &&&&##oo--####----------;;----oo--;;++..--++--++$$oo$$----------############$$--$$OO%%**======****************%%--@@..",
"++oo      &&&&##oo--####----------;;----oo--;;++..--++--++$$oo$$----------############$$--$$OO%%**======****************%%--@@..",
"++oo      ..&&##oo--##oo@@@@@@$$;;--++;;----;;++--;;++++--++oooo----------############$$--$$OO%%%%************%%%%%%%%%%%%--@@..",
"++oo      ..&&##oo--##oo@@@@@@$$;;--++;;----;;++--;;++++--++oooo----------############$$--$$OO%%%%************%%%%%%%%%%%%--@@..",
"++oo      ....##oo--##oo$$$$$$$$;;--oo++;;;;;;;;;;++$$@@--++oo$$----------############$$--$$$$------------------------------@@..",
"++oo      ....##oo--##oo$$$$$$$$;;--oo++;;;;;;;;;;++$$@@--++oo$$----------############$$--$$$$------------------------------@@..",
"++oo--    ....##oo--##oo$$$$$$$$;;@@oooo++;;;;;;++oo@@@@--++oo@@----------############$$--$$++OOOOOOOOOOOOOOOOOOOOOOOOOOOO++@@  ",
"++oo--    ....##oo--##oo$$$$$$$$;;@@oooo++;;;;;;++oo@@@@--++oo@@----------############$$--$$++OOOOOOOOOOOOOOOOOOOOOOOOOOOO++@@  ",
"++oo$$&&  ....##oo--##oo$$$$$$$$;;@@oo--;;;;;;;;;;++++----++oo++----------############$$--$$OO%%%%******%%%%%%%%%%%%%%%%%%--@@..",
"++oo$$&&  ....##oo--##oo$$$$$$$$;;@@oo--;;;;;;;;;;++++----++oo++----------############$$--$$OO%%%%******%%%%%%%%%%%%%%%%%%--@@..",
"++oo$$&&&&....##oo--##oo$$$$$$@@;;@@--;;++++;;++++;;++;;--++oo++----------############$$--$$OO%%**======****************%%--@@..",
"++oo$$&&&&....##oo--##oo$$$$$$@@;;@@--;;++++;;++++;;++;;--++oo++----------############$$--$$OO%%**======****************%%--@@..",
"++oo$$&&&&&&..##oo--##oo$$$$$$$$@@--++++----;;++oo++;;--++oooooo----------############$$--$$OO%%%%************%%%%%%%%%%%%--@@..",
"++oo$$&&&&&&..##oo--##oo$$$$$$$$@@--++++----;;++oo++;;--++oooooo----------############$$--$$OO%%%%************%%%%%%%%%%%%--@@..",
"++oo$$&&&&&&&&##oo--##oo$$$$$$$$;;++--++oo--;;++..;;--++;;++oooo----------############$$--$$$$----------------------##------@@..",
"++oo$$&&&&&&&&##oo--##oo$$$$$$$$;;++--++oo--;;++..;;--++;;++oooo----------############$$--$$$$----------------------##------@@..",
"++oo  &&&&&&&&##++####@@$$$$$$$$++--++--++@@@@--;;--++oo++oooo$$$$$$------############$$--$$++$$$$$$$$$$$$$$$$$$$$$$++####--@@..",
"++oo  &&&&&&&&##++####@@$$$$$$$$++--++--++@@@@--;;--++oo++oooo$$$$$$------############$$--$$++$$$$$$$$$$$$$$$$$$$$$$++####--@@..",
"++oo    &&&&&&##++oo####$$$$$$$$--oooo++----------++--oooooooooo--$$--$$$$##$$$$$$$$$$$$--$$++$$$$$$$$$$$$$$$$$$$$$$++####--@@..",
"++oo    &&&&&&##++oo####$$$$$$$$--oooo++----------++--oooooooooo--$$--$$$$##$$$$$$$$$$$$--$$++$$$$$$$$$$$$$$$$$$$$$$++####--@@..",
"++oo      &&&&##++++oo##--$$##------oo--++++++++++oooooooo--oo------------@@$$$$$$$$$$$$--$$++$$$$$$$$$$$$$$$$$$$$$$++####--@@..",
"++oo      &&&&##++++oo##--$$##------oo--++++++++++oooooooo--oo------------@@$$$$$$$$$$$$--$$++$$$$$$$$$$$$$$$$$$$$$$++####--@@..",
"++oo      ..&&##++oo++oo--##$$--------------;;++oooooooo------------------##$$##@@@@@@@@--@@oo$$$$$$$$$$$$$$$$$$$$$$++######++..",
"++oo      ..&&##++oo++oo--##$$--------------;;++oooooooo------------------##$$##@@@@@@@@--@@oo$$$$$$$$$$$$$$$$$$$$$$++######++..",
"++oo      ....##oo--oo++++----$$------------++oooooooo--------------------##$$##$$$$$$$$--$$++++++++++++++++++++++++++++++--@@..",
"++oo      ....##oo--oo++++----$$------------++oooooooo--------------------##$$##$$$$$$$$--$$++++++++++++++++++++++++++++++--@@..",
"++XX$$    ....##oo--##XX##@@----$$------------oooooo--------------------####--##$$$$$$$$--$$++############################--@@..",
"++XX$$    ....##oo--##XX##@@----$$------------oooooo--------------------####--##$$$$$$$$--$$++############################--@@..",
"++XX##&&  ....##oo--@@##++##@@----$$------------oo--------------------##--##--##--$$$$$$----++############################--@@..",
"++XX##&&  ....##oo--@@##++##@@----$$------------oo--------------------##--##--##--$$$$$$----++############################--@@..",
"++XX##&&&&....$$oo--####--@@##@@----$$------------------------------##----##--##------$$----++############################--@@..",
"++XX##&&&&....$$oo--####--@@##@@----$$------------------------------##----##--##------$$----++############################--@@..",
"++XX##&&&&&&..$$oo##oooo@@@@@@##@@----$$--------------------------##------##--##------------++############################--@@..",
"++XX##&&&&&&..$$oo##oooo@@@@@@##@@----$$--------------------------##------##--##------------++############################--@@..",
"++XX$$&&&&&&&&##XXXXooXX++++++++##@@----$$;;;;;;;;;;;;;;;;;;;;;;;;;;;;;;;;;;;;;;;;;;;;;;;;--++############################--@@..",
"++XX$$&&&&&&&&##XXXXooXX++++++++##@@----$$;;;;;;;;;;;;;;;;;;;;;;;;;;;;;;;;;;;;;;;;;;;;;;;;--++############################--@@..",
"++oo  &&&&&&&&##XX......XXXXXXXX..##@@------------------------------------------------------++############################--@@..",
"++oo  &&&&&&&&##XX......XXXXXXXX..##@@------------------------------------------------------++############################--@@..",
"++oo    &&&&&&##XX..XX..oooooooooo..##@@++++++++++++++++++++++++++++++++++++++++++++++++++--++############################--@@..",
"++oo    &&&&&&##XX..XX..oooooooooo..##@@++++++++++++++++++++++++++++++++++++++++++++++++++--++############################--@@..",
"++oo      &&&&##XX..              XX..################################################oooo@@++############################--@@..",
"++oo      &&&&##XX..              XX..################################################oooo@@++############################--@@..",
"++oo      ..&&##XX..XX..oo++++++++++++XXXXXXXXXXXXXXXXXXXXXX..++....++++....++oo..XXXXXXXXXX@@$$##########################--@@..",
"++oo      ..&&##XX..XX..oo++++++++++++XXXXXXXXXXXXXXXXXXXXXX..++....++++....++oo..XXXXXXXXXX@@$$##########################--@@..",
"++oo      ....$$XX..                                        $$++XX  $$++XX  $$++XX          XX@@$$########################--@@..",
"++oo      ....$$XX..                                        $$++XX  $$++XX  $$++XX          XX@@$$########################--@@..",
"++XX$$    ....$$XX..XX..oo++++++++++++++++++oooooooooooooooo##++XXoo##++XXoo##++XXooooooooooooXX@@$$######################--@@..",
"++XX$$    ....$$XX..XX..oo++++++++++++++++++oooooooooooooooo##++XXoo##++XXoo##++XXooooooooooooXX@@$$######################--@@..",
"++XX##&&  ....$$XX..            XXXXXXXXXXXXXXXXXX          $$++XX  $$++XX  $$++XX              XX@@$$####################--@@..",
"++XX##&&  ....$$XX..            XXXXXXXXXXXXXXXXXX          $$++XX  $$++XX  $$++XX              XX@@$$####################--@@..",
"++XX##&&&&....$$XX......oo++++++++++++++++++++++++++++++++++##++..++##++..++##++..++++++++++++++XXXX++####################--@@..",
"++XX##&&&&....$$XX......oo++++++++++++++++++++++++++++++++++##++..++##++..++##++..++++++++++++++XXXX++####################--@@..",
"++XX##&&&&&&..$$XXXX@@++$$####################################++++$$##++++$$##++++$$##################++@@++++++++++++++++XXoooo",
"++XX##&&&&&&..$$XXXX@@++$$####################################++++$$##++++$$##++++$$##################++@@++++++++++++++++XXoooo",
"++oo++######$$$$XXoooooo++++++++++++++++++++++++++++++++++++++++++++++++++++++++++++++++++++++++++++++++++++++++++++++++++XXXX  ",
"++oo++######$$$$XXoooooo++++++++++++++++++++++++++++++++++++++++++++++++++++++++++++++++++++++++++++++++++++++++++++++++++XXXX  ",
"..                                                                                                                              ",
"..                                                                                                                              "
};
