/* XPM */
static char *WALL008[] = {
/* columns rows colors chars-per-pixel */
"128 128 15 1 ",
"  c #182018",
". c #212829",
"X c #393C39",
"o c #294121",
"O c #4A494A",
"+ c #4A4D52",
"@ c #5A5D63",
"# c #6B696B",
"$ c #7B7D7B",
"% c #CE0000",
"& c red",
"* c #DEC300",
"= c #848684",
"- c #949694",
"; c #ADAEAD",
/* pixels */
"@@@@@@@@@@@@@@@@@@@@@@@@@@@@@@@@@@@@@@@@@@@@@@@@@@@@@@@@@@@@@@@@@@@@@@@@@@@@@@@@@@@@@@@@@@@@@@@@@@@@@@@@@@@@@@@@@@@@@@@@@@@@@@XX",
"@@@@@@@@@@@@@@@@@@@@@@@@@@@@@@@@@@@@@@@@@@@@@@@@@@@@@@@@@@@@@@@@@@@@@@@@@@@@@@@@@@@@@@@@@@@@@@@@@@@@@@@@@@@@@@@@@@@@@@@@@@@@@@XX",
"@@@@@@@@@@@@@@@@XX..XXXXXXXXXXXXXXXXXXXXXXXXXXXXXXXXXXXXXXXXXXXXXXXXXXXXXXXXXXXXXXXXXXXXXXXXXXXXXXXXXXXXXXXXXXXXXXXXXXXXXX####..",
"@@@@@@@@@@@@@@@@XX..XXXXXXXXXXXXXXXXXXXXXXXXXXXXXXXXXXXXXXXXXXXXXXXXXXXXXXXXXXXXXXXXXXXXXXXXXXXXXXXXXXXXXXXXXXXXXXXXXXXXXX####..",
"@@XX########@@$$XX..XX..++++++++++++++++++++++++++++++++++++++++++++++++++++++++++++++++++++++++++++++++++++++++++++++++@@--##..",
"@@XX########@@$$XX..XX..++++++++++++++++++++++++++++++++++++++++++++++++++++++++++++++++++++++++++++++++++++++++++++++++@@--##..",
"@@++..********$$XX====$$$$$$$$$$$$$$$$$$$$$$$$$$$$$$$$$$$$$$==============@@................------====##..................--##..",
"@@++..********$$XX====$$$$$$$$$$$$$$$$$$$$$$$$$$$$$$$$$$$$$$==============@@................------====##..................--##..",
"@@++....******$$XX==@@@@@@@@@@@@@@@@@@@@@@@@@@@@@@@@@@@@@@@@@@@@@@@@@@@@##@@++++++++++++++++--########@@++++++++++++++++@@--##..",
"@@++....******$$XX==@@@@@@@@@@@@@@@@@@@@@@@@@@@@@@@@@@@@@@@@@@@@@@@@@@@@##@@++++++++++++++++--########@@++++++++++++++++@@--##..",
"@@++......****$$XX$$@@@@XXXXXXXXXXXXXXXXXXXXXXXXXXXXXXXXXXXXXXXXXXXX@@####@@................--########@@..................--##..",
"@@++......****$$XX$$@@@@XXXXXXXXXXXXXXXXXXXXXXXXXXXXXXXXXXXXXXXXXXXX@@####@@................--########@@..................--##..",
"@@++........**==XX$$@@XX++++++++++++@@####........................XX######@@++++++++++++++++--########@@++++++++++++++++@@--##..",
"@@++........**==XX$$@@XX++++++++++++@@####........................XX######@@++++++++++++++++--########@@++++++++++++++++@@--##..",
"@@++..........==XX$$@@XX..........##......@@OOOOOOOOOOOOOOOOOOOOOO@@==$$$$@@................--========@@..................--##..",
"@@++..........==XX$$@@XX..........##......@@OOOOOOOOOOOOOOOOOOOOOO@@==$$$$@@................--========@@..................--##..",
"@@XX==........$$XX$$@@XX++++++++##..OO..OO..@@OOOOOOOOOOOOOOOOOO##XX--$$$$@@++++++++++++++++--========@@++++++++++++++++@@--##..",
"@@XX==........$$XX$$@@XX++++++++##..OO..OO..@@OOOOOOOOOOOOOOOOOO##XX--$$$$@@++++++++++++++++--========@@++++++++++++++++@@--##..",
"@@XX$$**......$$XX$$@@XX......##@@@@..OO..OO..##OOOOOOOOOOOO++##XXXX--====@@................--========@@..................--##..",
"@@XX$$**......$$XX$$@@XX......##@@@@..OO..OO..##OOOOOOOOOOOO++##XXXX--====@@................--========@@..................--##..",
"@@XX$$****....$$XX==@@XX++++##@@@@@@@@..OO..OO..##OOOOOOOO++##XXOOXX--====@@++++++++++++++++------====@@++++++++++++++++@@--##..",
"@@XX$$****....$$XX==@@XX++++##@@@@@@@@..OO..OO..##OOOOOOOO++##XXOOXX--====@@++++++++++++++++------====@@++++++++++++++++@@--##..",
"@@XX$$******..$$XX==@@XX..##@@@@@@@@@@@@..OO..OO..##++++++##XXOOXXOO--====@@................----------@@..................--##..",
"@@XX$$******..$$XX==@@XX..##@@@@@@@@@@@@..OO..OO..##++++++##XXOOXXOO--====@@................----------@@..................--##..",
"@@XX==********$$XX==@@####====----------==..OO..OOXX##++##XXOOOOOO..--====@@++##############----------@@++####################..",
"@@XX==********$$XX==@@####====----------==..OO..OOXX##++##XXOOOOOO..--====@@++##############----------@@++####################..",
"@@++..********==XX==@@@@@@########$$$$$$$$==XXOOXXOOXX##XXOOOOOO..OO------@@++++++++++++++++----------@@++++++++++++++++++++++..",
"@@++..********==XX==@@@@@@########$$$$$$$$==XXOOXXOOXX##XXOOOOOO..OO------@@++++++++++++++++----------@@++++++++++++++++++++++..",
"@@++....******==XX==@@@@##$$$$$$$$$$$$$$$$$$--XXOOXXOOOOOOOOOO..OOOO;;------;;--;;--;;--;;--------------;;--;;--;;--;;--;;--;;..",
"@@++....******==XX==@@@@##$$$$$$$$$$$$$$$$$$--XXOOXXOOOOOOOOOO..OOOO;;------;;--;;--;;--;;--------------;;--;;--;;--;;--;;--;;..",
"@@++......****==XX==######@@@@@@@@@@@@@@======--XXOOOOOOOOOO..OOOOOO;;----##;;##;;##;;##;;##----------##;;##;;##;;##;;##;;##;;..",
"@@++......****==XX==######@@@@@@@@@@@@@@======--XXOOOOOOOOOO..OOOOOO;;----##;;##;;##;;##;;##----------##;;##;;##;;##;;##;;##;;..",
"@@++........**==XX==####OO;;;;;;;;;;;;--@@======--OOOOOOOO..======$$;;----##--##--##--##--##;;--------##--##--##--##--##--##--..",
"@@++........**==XX==####OO;;;;;;;;;;;;--@@======--OOOOOOOO..======$$;;----##--##--##--##--##;;--------##--##--##--##--##--##--..",
"@@++..........$$XX==@@@@@@;;----@@==XX;;--@@########@@OOOOOOOOOO++++;;----##--##--##--##--##;;--------##--##--##--##--##--##--..",
"@@++..........$$XX==@@@@@@;;----@@==XX;;--@@########@@OOOOOOOOOO++++;;----##--##--##--##--##;;--------##--##--##--##--##--##--..",
"@@XX==........$$XX@@OOOO..;;--##XX++XX;;**--XX@@@@@@@@OO==------++++;;----##################;;----==--########################..",
"@@XX==........$$XX@@OOOO..;;--##XX++XX;;**--XX@@@@@@@@OO==------++++;;----##################;;----==--########################..",
"@@XX$$**......$$XX@@@@@@..;;--##XX@@XX;;****--OO$$$$$$$$++------@@++;;--------;;;;;;;;;;;;;;--------==--------========$$$$==++..",
"@@XX$$**......$$XX@@@@@@..;;--##XX@@XX;;****--OO$$$$$$$$++------@@++;;--------;;;;;;;;;;;;;;--------==--------========$$$$==++..",
"@@XX$$****....==XX@@OOOO..;;--##XX++XX;;******--OO@@@@@@@@++----@@++;;------;;--;;;;;;--------------==--------------------==++..",
"@@XX$$****....==XX@@OOOO..;;--##XX++XX;;******--OO@@@@@@@@++----@@++;;------;;--;;;;;;--------------==--------------------==++..",
"@@XX$$******..==XX@@OOOO..;;--##OO@@XX;;********--@@@@@@@@@@++--@@@@;;;;;;;;;;;;;;;;;;--------------------------------------++..",
"@@XX$$******..==XX@@OOOO..;;--##OO@@XX;;********--@@@@@@@@@@++--@@@@;;;;;;;;;;;;;;;;;;--------------------------------------++..",
"@@XX==********$$XX@@OOOOXX;;--##OO@@XX;;********--@@@@@@@@@@@@@@@@@@--@@@@@@@@@@@@@@@@@@@@@@@@@@@@@@@@@@@@@@@@@@@@@@@@@@@@@@@@..",
"@@XX==********$$XX@@OOOOXX;;--##OO@@XX;;********--@@@@@@@@@@@@@@@@@@--@@@@@@@@@@@@@@@@@@@@@@@@@@@@@@@@@@@@@@@@@@@@@@@@@@@@@@@@..",
"@@++..********$$XX@@OOOOXX;;--##OO@@XX;;******--OO@@@@@@@@@@@@@@@@@@--@@..@@--@@..@@--@@--------------------==@@==@@@@@@@@@@##..",
"@@++..********$$XX@@OOOOXX;;--##OO@@XX;;******--OO@@@@@@@@@@@@@@@@@@--@@..@@--@@..@@--@@--------------------==@@==@@@@@@@@@@##..",
"@@++....******$$XX@@@@@@XX;;--##OO@@XX;;****--OO$$$$$$$$$$$$$$$$$$@@--@@..@@--@@..@@--@@@@@@@@@@@@@@@@@@@@@@@@@@==@@@@======##..",
"@@++....******$$XX@@@@@@XX;;--##OO@@XX;;****--OO$$$$$$$$$$$$$$$$$$@@--@@..@@--@@..@@--@@@@@@@@@@@@@@@@@@@@@@@@@@==@@@@======##..",
"@@++......****$$XX@@OOOOXX;;--##OO@@XX;;**--OO@@@@@@@@@@@@@@@@@@@@@@@@@@@@@@@@@@@@@@@@@@@@@@++++++++++++++++OOOOOOOOOOOOOOOOOO..",
"@@++......****$$XX@@OOOOXX;;--##OO@@XX;;**--OO@@@@@@@@@@@@@@@@@@@@@@@@@@@@@@@@@@@@@@@@@@@@@@++++++++++++++++OOOOOOOOOOOOOOOOOO..",
"@@++........**$$XX--====@@;;--####--XX;;--$$==;;;;;;;;;;;;;;;;;;;;;;;;;;;;;;;;;;;;;;;;;;;;;;;;;;;;;;;;;;;;;;;;;;;;;;;;;;;;;;==..",
"@@++........**$$XX--====@@;;--####--XX;;--$$==;;;;;;;;;;;;;;;;;;;;;;;;;;;;;;;;;;;;;;;;;;;;;;;;;;;;;;;;;;;;;;;;;;;;;;;;;;;;;;==..",
"@@++..........==XX--====@@--------------$$--------------------------------------------------------------------------------==##..",
"@@++..........==XX--====@@--------------$$--------------------------------------------------------------------------------==##..",
"@@XX==........==XX--======######$$##$$$$------;;;;;;;;;;;;;;--;;;;--------------------------------------------------------==##..",
"@@XX==........==XX--======######$$##$$$$------;;;;;;;;;;;;;;--;;;;--------------------------------------------------------==##..",
"@@XX$$**......==XX--======--------------------;;;;;;;;;;;;;;--------;;;;;;;;;;;;;;;;;;;;;;;;;;;;;;;;;;;;;;;;;;;;;;;;;;;;;;;;==..",
"@@XX$$**......==XX--======--------------------;;;;;;;;;;;;;;--------;;;;;;;;;;;;;;;;;;;;;;;;;;;;;;;;;;;;;;;;;;;;;;;;;;;;;;;;==..",
"@@XX$$****....==XX--====@@@@@@@@@@@@;;;;--@@@@@@@@@@@@;;;;;;--;;;;--;;;;;;;;;;;;;;;;;;##;;;;==;;;;==;;;;====----------======##..",
"@@XX$$****....==XX--====@@@@@@@@@@@@;;;;--@@@@@@@@@@@@;;;;;;--;;;;--;;;;;;;;;;;;;;;;;;##;;;;==;;;;==;;;;====----------======##..",
"@@XX$$******..$$XX--$$==@@            ;;$$@@%%%%%%%%%%%%;;;;--------;;----------------@@;;--@@;;--@@;;--@@==--------========##..",
"@@XX$$******..$$XX--$$==@@            ;;$$@@%%%%%%%%%%%%;;;;--------;;----------------@@;;--@@;;--@@;;--@@==--------========##..",
"@@++==********$$XX----==@@            ;;--@@%%%%%%%%%%%%;;;;--;;;;--;;--@@@@####$$;;--@@;;--@@;;--@@;;--@@==------==========##..",
"@@++==********$$XX----==@@            ;;--@@%%%%%%%%%%%%;;;;--;;;;--;;--@@@@####$$;;--@@;;--@@;;--@@;;--@@==------==========##..",
"@@++..********$$XX----==@@      oooo  ;;--@@%%%%%%&&&&%%;;;;--------;;--$$$$$$----;;--@@;;--@@;;--@@;;--@@==================##..",
"@@++..********$$XX----==@@      oooo  ;;--@@%%%%%%&&&&%%;;;;--------;;--$$$$$$----;;--@@;;--@@;;--@@;;--@@==================##..",
"@@++....******==XX----==@@    oooooo  ;;--@@%%%%&&&&&&%%;;----------;;--@@@@####$$;;--@@;;--@@;;--@@;;--@@==================##..",
"@@++....******==XX----==@@    oooooo  ;;--@@%%%%&&&&&&%%;;----------;;--@@@@####$$;;--@@;;--@@;;--@@;;--@@==================##..",
"@@++......****==XX;;;;==@@  oooooooo  ;;;;@@%%&&&&&&&&%%;;;;;;;;;;;;;;--$$$$$$====;;--@@;;--@@;;--@@;;--@@==================##..",
"@@++......****==XX;;;;==@@  oooooooo  ;;;;@@%%&&&&&&&&%%;;;;;;;;;;;;;;--$$$$$$====;;--@@;;--@@;;--@@;;--@@==================##..",
"@@++........**$$XX$$$$==@@  oooooooo  ;;$$@@%%&&&&&&&&%%;;$$$$$$$$$$;;--@@@@####$$;;--@@;;--@@;;--@@;;--@@==================##..",
"@@++........**$$XX$$$$==@@  oooooooo  ;;$$@@%%&&&&&&&&%%;;$$$$$$$$$$;;--@@@@####$$;;--@@;;--@@;;--@@;;--@@==================##..",
"@@++..........$$XX----==@@  oooooo    ;;--@@%%&&&&&&%%%%;;----------;;----------------@@;;--@@;;--@@;;--@@==================##..",
"@@++..........$$XX----==@@  oooooo    ;;--@@%%&&&&&&%%%%;;----------;;----------------@@;;--@@;;--@@;;--@@==================##..",
"@@++--........$$XX--;;==@@  oooooo    ;;;;@@%%&&&&&&%%%%;;----------;;--@@@@@@@@@@@@@@@@--@@@@--@@@@--@@@@==================##..",
"@@++--........$$XX--;;==@@  oooooo    ;;;;@@%%&&&&&&%%%%;;----------;;--@@@@@@@@@@@@@@@@--@@@@--@@@@--@@@@==================##..",
"@@++==**......$$XX;;;;====            ;;;;;;%%%%%%%%%%%%;;--------;;----++XXXXXXXXXXXXXXXXXXXXXXXXXXXXOOOOOOOOOOOOOOOOOO##@@@@..",
"@@++==**......$$XX;;;;====            ;;;;;;%%%%%%%%%%%%;;--------;;----++XXXXXXXXXXXXXXXXXXXXXXXXXXXXOOOOOOOOOOOOOOOOOO##@@@@..",
"@@++==****....$$XX--;;==;;;;;;;;;;;;;;;;;;;;;;;;;;;;;;;;;;------;;--==++======================$$$$$$$$$$$$$$$$$$$$$$$$$$$$$$##..",
"@@++==****....$$XX--;;==;;;;;;;;;;;;;;;;;;;;;;;;;;;;;;;;;;------;;--==++======================$$$$$$$$$$$$$$$$$$$$$$$$$$$$$$##..",
"@@++==******..==XX;;;;--;;==============;;;;##----------------;;====++======XXXXXXXXXXXXXXXXXXXXXXXXXXXXXXXXXXXXOOOOOOOO--$$##..",
"@@++==******..==XX;;;;--;;==============;;;;##----------------;;====++======XXXXXXXXXXXXXXXXXXXXXXXXXXXXXXXXXXXXOOOOOOOO--$$##..",
"@@++==********==XX;;;;--;;==------------==;;;;$$------------;;====++======..++@@@@@@@@@@@@++..++++++..++++++..++++++XX++--$$##..",
"@@++==********==XX;;;;--;;==------------==;;;;$$------------;;====++======..++@@@@@@@@@@@@++..++++++..++++++..++++++XX++--$$##..",
"@@++..********==XX;;;;--;;==--------------==;;;;##------==;;====++====$$..++@@@@++++++++++++XX@@++++XX@@++++XX@@++++XX@@--####..",
"@@++..********==XX;;;;--;;==--------------==;;;;##------==;;====++====$$..++@@@@++++++++++++XX@@++++XX@@++++XX@@++++XX@@--####..",
"@@++....******==XX;;;;--;;================--==;;;;--====;;====++==$$$$..OO++++##############++==####++==####++==####++$$--####..",
"@@++....******==XX;;;;--;;================--==;;;;--====;;====++==$$$$..OO++++##############++==####++==####++==####++$$--####..",
"@@++......****$$XX;;;;==;;;;;;;;;;;;;;;;;;;;;;;;;;;;;;;;====++$$$$$$..XXXXXX++++++++++++OOOOOO$$@@@@OO@@OOOOOO$$@@@@OO@@--####..",
"@@++......****$$XX;;;;==;;;;;;;;;;;;;;;;;;;;;;;;;;;;;;;;====++$$$$$$..XXXXXX++++++++++++OOOOOO$$@@@@OO@@OOOOOO$$@@@@OO@@--####..",
"@@++........**$$XX;;------------------------------========++$$$$##..@@@@@@$$$$$$$$$$$$$$$$$$@@$$@@@@OO$$$$$$@@$$@@@@OO$$--####..",
"@@++........**$$XX;;------------------------------========++$$$$##..@@@@@@$$$$$$$$$$$$$$$$$$@@$$@@@@OO$$$$$$@@$$@@@@OO$$--####..",
"@@++..........$$XX--@@@@@@@@@@@@@@@@@@@@@@@@@@@@@@@@@@@@@@$$$$##..@@@@@@@@@@@@@@@@@@@@@@@@@@@@##@@@@@@--@@@@OO$$@@@@OO$$--####..",
"@@++..........$$XX--@@@@@@@@@@@@@@@@@@@@@@@@@@@@@@@@@@@@@@$$$$##..@@@@@@@@@@@@@@@@@@@@@@@@@@@@##@@@@@@--@@@@OO$$@@@@OO$$--####..",
"@@XX==........$$XX--------==--------------==========$$$$$$##############################################$$@@OO$$@@@@OO$$--####..",
"@@XX==........$$XX--------==--------------==========$$$$$$##############################################$$@@OO$$@@@@OO$$--####..",
"@@XX$$**......$$XX;;------------;;;;;;;;;;;;;;;;;;;;;;;;;;;;------------------------================@@####$$OO$$@@@@OO$$--####..",
"@@XX$$**......$$XX;;------------;;;;;;;;;;;;;;;;;;;;;;;;;;;;------------------------================@@####$$OO$$@@@@OO$$--####..",
"@@XX$$****....==XX;;------------------========$$$$$$##################################################@@####$$$$@@@@OO$$==####..",
"@@XX$$****....==XX;;------------------========$$$$$$##################################################@@####$$$$@@@@OO$$==####..",
"@@XX$$******..==XX;;@@OOOOOOOOOOOOXXXXXXXXXXXXXXXXXXXXXXXXXXXXXXXXXXXXXXXXXXXXXXXXXXXXXXOOOOOOOOOOOOOOOO@@####$$$$$$$$$$$$####..",
"@@XX$$******..==XX;;@@OOOOOOOOOOOOXXXXXXXXXXXXXXXXXXXXXXXXXXXXXXXXXXXXXXXXXXXXXXXXXXXXXXOOOOOOOOOOOOOOOO@@####$$$$$$$$$$$$####..",
"@@XX==********$$XX--################################################@@##@@@@##################################################..",
"@@XX==********$$XX--################################################@@##@@@@##################################################..",
"@@++..********$$XXXXXXXXXXXXXXXXXXXXXXOO##########@@@@@@@@@@@@@@@@@@@@@@@@@@@@@@@@@@@@@@@@@@@@@@@@@@@@@@@@@@@@@@@@@@@@@@@@@@##..",
"@@++..********$$XXXXXXXXXXXXXXXXXXXXXXOO##########@@@@@@@@@@@@@@@@@@@@@@@@@@@@@@@@@@@@@@@@@@@@@@@@@@@@@@@@@@@@@@@@@@@@@@@@@@##..",
"@@++....******$$XXOOXXXXXXXXXXXXXXXXOO####@@++++++++++++++++++++++++++++++++++++++++++++++++++++++++++++++++++++++++++++@@--##..",
"@@++....******$$XXOOXXXXXXXXXXXXXXXXOO####@@++++++++++++++++++++++++++++++++++++++++++++++++++++++++++++++++++++++++++++@@--##..",
"@@++......****$$XXOOXXXXXXXXXXXXXXOO####@@++......................................................@@++XX..@@++XX..@@++XX..--##..",
"@@++......****$$XXOOXXXXXXXXXXXXXXOO####@@++......................................................@@++XX..@@++XX..@@++XX..--##..",
"@@++........**$$XXOOXXXXXXXXXXXXOO######++++++++++++++++++++++++++++++++++++++++++++++++++++++++++@@++XX..@@++XX..@@++XX@@--##..",
"@@++........**$$XXOOXXXXXXXXXXXXOO######++++++++++++++++++++++++++++++++++++++++++++++++++++++++++@@++XX..@@++XX..@@++XX@@--##..",
"@@++..........==XXOOXXXXXXXXXXOO######++..........................................................@@++XX..@@++XX..@@++XX..--##..",
"@@++..........==XXOOXXXXXXXXXXOO######++..........................................................@@++XX..@@++XX..@@++XX..--##..",
"@@XX==........==XXOOXXXXXXXXOO######++++++++++++++++++++++++++++++++++++++++++++++++++++++++++++++$$++XXXX$$++XXXX$$++XX@@--##..",
"@@XX==........==XXOOXXXXXXXXOO######++++++++++++++++++++++++++++++++++++++++++++++++++++++++++++++$$++XXXX$$++XXXX$$++XX@@--##..",
"@@XX$$**......==XXOOXXXXXXOO######++..............................................................==++XX..==++XX..==++XX..--##..",
"@@XX$$**......==XXOOXXXXXXOO######++..............................................................==++XX..==++XX..==++XX..--##..",
"@@XX$$****....==XXXXXXXXOO####@@++++++++++++++++++++++++++++++++++++++++++++++++++++++++++++++++++==++..++==++..++==++..@@--##..",
"@@XX$$****....==XXXXXXXXOO####@@++++++++++++++++++++++++++++++++++++++++++++++++++++++++++++++++++==++..++==++..++==++..@@--##..",
"@@XX$$******..==XX========================--------------------------------------------------------==++++##==++++##==++++----##..",
"@@XX$$******..==XX========================--------------------------------------------------------==++++##==++++##==++++----##..",
"@@++@@$$$$$$====##############################################################################################################..",
"@@++@@$$$$$$====##############################################################################################################..",
"................................................................................................................................",
"................................................................................................................................"
};
