/* XPM */
static char *WALL032[] = {
/* columns rows colors chars-per-pixel */
"128 128 13 1 ",
"  c #100C10",
". c #101410",
"X c #181C18",
"o c #211C21",
"O c #212429",
"+ c #293031",
"@ c #293439",
"# c #313031",
"$ c #394142",
"% c #424D52",
"& c #4A5D63",
"* c #636563",
"= c #73757B",
/* pixels */
"&&&&&&&&&&&&&&&&&&&&&&&&&&&&&&&&&&&&&&&&&&&&&&&&%%%%&&%%%%&&%%%%&&$$$$$$@@$$@@$$$$$$%%$$&&%%%%%%&&&&&&%%%%&&&&%%%%&&%%&&&&&&&&++",
"&&&&&&&&&&&&&&&&&&&&&&&&&&&&&&&&&&&&&&&&&&&&&&&&%%%%&&%%%%&&%%%%&&$$$$$$@@$$@@$$$$$$%%$$&&%%%%%%&&&&&&%%%%&&&&%%%%&&%%&&&&&&&&++",
"&&%%$$%%$$%%$$%%$$%%$$%%$$%%$$%%$$%%$$%%$$%%$$%%$$%%$$$$@@$$@@$$@@@@++@@++OO++OO++OO++@@$$$$$$$$$$$$%%%%$$%%$$%%%%$$$$$$%%$$%%$$",
"&&%%$$%%$$%%$$%%$$%%$$%%$$%%$$%%$$%%$$%%$$%%$$%%$$%%$$$$@@$$@@$$@@@@++@@++OO++OO++OO++@@$$$$$$$$$$$$%%%%$$%%$$%%%%$$$$$$%%$$%%$$",
"$$$$$$$$$$$$$$$$$$$$$$$$@@++$$$$$$$$$$$$$$$$$$@@$$@@@@++@@OO++++OOOOOOooXXOOOOOOooOO++OO++@@@@$$@@$$@@$$$$$$$$@@@@$$@@$$$$@@$$$$",
"$$$$$$$$$$$$$$$$$$$$$$$$@@++$$$$$$$$$$$$$$$$$$@@$$@@@@++@@OO++++OOOOOOooXXOOOOOOooOO++OO++@@@@$$@@$$@@$$$$$$$$@@@@$$@@$$$$@@$$$$",
"&&%%%%%%%%%%&&&&&&%%%%%%$$%%&&%%%%%%&&&&%%%%%%&&%%%%$$&&$$%%%%$$%%$$@@++++++OO++++@@@@$$%%%%%%&&&&&&&&%%%%%%%%%%&&%%%%%%%%&&%%%%",
"&&%%%%%%%%%%&&&&&&%%%%%%$$%%&&%%%%%%&&&&%%%%%%&&%%%%$$&&$$%%%%$$%%$$@@++++++OO++++@@@@$$%%%%%%&&&&&&&&%%%%%%%%%%&&%%%%%%%%&&%%%%",
"%%##$$##@@@@##$$@@@@$$@@++OOOO%%XX  ..            XX      XX++OOooXX        XXOOOOXXOOOO$$XXXX  @@$$$$@@@@@@@@@@@@@@@@@@@@$$$$++",
"%%##$$##@@@@##$$@@@@$$@@++OOOO%%XX  ..            XX      XX++OOooXX        XXOOOOXXOOOO$$XXXX  @@$$$$@@@@@@@@@@@@@@@@@@@@$$$$++",
"&&++####$$@@##$$@@@@@@OOXXooOOOO..  OOOOooOO##@@XXOOOOOOXXOOooXXXXXXXX  XX..XXXXXXXXOOOO%%XX$$  @@$$$$@@@@@@@@@@@@@@@@@@++$$$$OO",
"&&++####$$@@##$$@@@@@@OOXXooOOOO..  OOOOooOO##@@XXOOOOOOXXOOooXXXXXXXX  XX..XXXXXXXXOOOO%%XX$$  @@$$$$@@@@@@@@@@@@@@@@@@++$$$$OO",
"%%@@@@##@@@@@@@@@@oo      XX            XXOOOO++                              OOooOOOO++$$XXOO  @@@@@@@@@@@@@@@@@@@@@@@@@@@@$$++",
"%%@@@@##@@@@@@@@@@oo      XX            XXOOOO++                              OOooOOOO++$$XXOO  @@@@@@@@@@@@@@@@@@@@@@@@@@@@$$++",
"&&%%%%&&%%$$@@%%@@        XX  XX  OO$$&&    XX  $$@@++OOooXXOOoo++++++++@@@@@@$$$$$$$$@@%%%%%%%%%%%%&&&&%%$$%%$$%%%%%%%%&&&&%%%%",
"&&%%%%&&%%$$@@%%@@        XX  XX  OO$$&&    XX  $$@@++OOooXXOOoo++++++++@@@@@@$$$$$$$$@@%%%%%%%%%%%%&&&&%%$$%%$$%%%%%%%%&&&&%%%%",
"%%@@@@@@@@@@@@@@          ..++@@OOOO$$    OOOOOOOOOOXXXXXXXXXXOOOOOO++++++@@@@@@@@@@++@@@@@@$$$$$$$$$$$$@@$$$$$$$$@@$$@@$$$$$$$$",
"%%@@@@@@@@@@@@@@          ..++@@OOOO$$    OOOOOOOOOOXXXXXXXXXXOOOOOO++++++@@@@@@@@@@++@@@@@@$$$$$$$$$$$$@@$$$$$$$$@@$$@@$$$$$$$$",
"%%$$@@@@@@$$$$++      $$$$$$++@@OO++%%XXOOXX  OOXXXXXXXXXXXXOOXX++++++@@@@@@++++@@@@@@@@@@@@$$$$$$$$$$$$@@$$$$@@$$$$$$$$$$%%$$XX",
"%%$$@@@@@@$$$$++      $$$$$$++@@OO++%%XXOOXX  OOXXXXXXXXXXXXOOXX++++++@@@@@@++++@@@@@@@@@@@@$$$$$$$$$$$$@@$$$$@@$$$$$$$$$$%%$$XX",
"%%$$$$@@OO$$$$++    ++$$@@$$++@@++@@  XXOO  OO++XXXXXXXXXXoo++++++@@++$$$$@@@@@@@@@@@@@@$$$$$$$$$$$$$$$$$$$$$$$$$$$$$$@@$$$$$$XX",
"%%$$$$@@OO$$$$++    ++$$@@$$++@@++@@  XXOO  OO++XXXXXXXXXXoo++++++@@++$$$$@@@@@@@@@@@@@@$$$$$$$$$$$$$$$$$$$$$$$$$$$$$$@@$$$$$$XX",
"%%$$##++++$$%%$$    @@@@++++oo@@OO    XXXXOOOO++ooOOXXooOO++++++$$@@$$$$@@@@@@@@@@@@@@@@@@@@$$$$%%%%%%$$@@$$@@$$$$@@$$$$$$$$$$XX",
"%%$$##++++$$%%$$    @@@@++++oo@@OO    XXXXOOOO++ooOOXXooOO++++++$$@@$$$$@@@@@@@@@@@@@@@@@@@@$$$$%%%%%%$$@@$$@@$$$$@@$$$$$$$$$$XX",
"&&$$++@@$$&&$$@@    @@@@++++OO++    ..      OO@@OOoo++++OOOO++$$$$@@$$@@$$@@@@@@@@@@@@$$$$$$@@$$$$$$$$$$$$$$$$$$$$$$$$$$$$$$$$XX",
"&&$$++@@$$&&$$@@    @@@@++++OO++    ..      OO@@OOoo++++OOOO++$$$$@@$$@@$$@@@@@@@@@@@@$$$$$$@@$$$$$$$$$$$$$$$$$$$$$$$$$$$$$$$$XX",
"%%$$$$%%&&    OO    XX@@++ooXX..    XXXX      OO++++OO++@@@@$$@@$$@@$$@@$$@@@@@@@@@@@@@@@@$$$$$$%%%%%%@@$$$$@@$$@@$$$$@@$$$$@@XX",
"%%$$$$%%&&    OO    XX@@++ooXX..    XXXX      OO++++OO++@@@@$$@@$$@@$$@@$$@@@@@@@@@@@@@@@@$$$$$$%%%%%%@@$$$$@@$$@@$$$$@@$$$$@@XX",
"%%$$@@%%$$$$  OOOO++++OOOOOOXX....    XX        @@++@@@@@@$$@@$$@@$$$$@@$$$$%%$$$$$$$$$$$$@@$$$$$$$$$$%%$$$$%%$$%%$$$$%%$$$$%%XX",
"%%$$@@%%$$$$  OOOO++++OOOOOOXX....    XX        @@++@@@@@@$$@@$$@@$$$$@@$$$$%%$$$$$$$$$$$$@@$$$$$$$$$$%%$$$$%%$$%%$$$$%%$$$$%%XX",
"&&@@@@@@##@@++XX@@@@++OOOOXXXXOOXX..  XXXX    OO@@@@@@@@@@++@@++@@@@++++$$@@$$@@$$@@@@@@@@@@@@$$$$$$$$$$$$$$$$$$$$$$$$$$$$@@$$XX",
"&&@@@@@@##@@++XX@@@@++OOOOXXXXOOXX..  XXXX    OO@@@@@@@@@@++@@++@@@@++++$$@@$$@@$$@@@@@@@@@@@@$$$$$$$$$$$$$$$$$$$$$$$$$$$$@@$$XX",
"$$@@@@@@@@##$$@@@@$$@@@@@@++++++++OO..      XX++@@++@@OO@@@@@@oo++@@++$$$$@@$$@@@@@@@@@@@@@@$$$$$$$$$$$$$$$$$$@@$$$$$$@@$$@@$$XX",
"$$@@@@@@@@##$$@@@@$$@@@@@@++++++++OO..      XX++@@++@@OO@@@@@@oo++@@++$$$$@@$$@@@@@@@@@@@@@@$$$$$$$$$$$$$$$$$$@@$$$$$$@@$$@@$$XX",
"%%@@@@@@@@@@$$@@@@@@++@@$$@@++@@++OOXX    ..++++@@++@@++@@@@@@++@@++@@$$$$@@$$@@$$@@@@@@@@@@$$@@@@@@$$@@$$@@$$$$$$@@$$@@$$@@$$XX",
"%%@@@@@@@@@@$$@@@@@@++@@$$@@++@@++OOXX    ..++++@@++@@++@@@@@@++@@++@@$$$$@@$$@@$$@@@@@@@@@@$$@@@@@@$$@@$$@@$$$$$$@@$$@@$$@@$$XX",
"$$$$@@@@@@@@$$@@@@$$@@@@@@@@OO$$@@OOoo  ++++OOOO@@++++++@@@@++@@@@@@@@@@$$@@$$$$$$@@@@@@@@@@$$$$$$@@$$$$$$$$@@$$$$$$@@$$@@@@@@XX",
"$$$$@@@@@@@@$$@@@@$$@@@@@@@@OO$$@@OOoo  ++++OOOO@@++++++@@@@++@@@@@@@@@@$$@@$$$$$$@@@@@@@@@@$$$$$$@@$$$$$$$$@@$$$$$$@@$$@@@@@@XX",
"%%$$##@@@@@@$$@@@@@@@@@@@@$$@@$$@@++OOOO$$++OOOO@@@@++++++@@@@$$$$$$$$$$$$$$$$@@$$$$$$$$$$$$$$$$$$@@@@@@$$$$$$$$@@$$$$$$$$@@@@XX",
"%%$$##@@@@@@$$@@@@@@@@@@@@$$@@$$@@++OOOO$$++OOOO@@@@++++++@@@@$$$$$$$$$$$$$$$$@@$$$$$$$$$$$$$$$$$$@@@@@@$$$$$$$$@@$$$$$$$$@@@@XX",
"$$$$####@@@@$$@@@@@@@@@@@@$$@@@@@@@@++OO@@@@++++@@@@@@++@@@@@@@@@@$$$$@@$$$$@@$$$$$$@@$$$$@@$$@@$$$$$$$$$$$$@@$$$$$$$$@@$$@@@@XX",
"$$$$####@@@@$$@@@@@@@@@@@@$$@@@@@@@@++OO@@@@++++@@@@@@++@@@@@@@@@@$$$$@@$$$$@@$$$$$$@@$$$$@@$$@@$$$$$$$$$$$$@@$$$$$$$$@@$$@@@@XX",
"%%@@$$######@@@@@@@@@@@@@@@@@@@@$$@@@@####$$++@@@@@@@@@@$$$$$$@@@@$$$$$$$$$$$$$$$$$$$$$$$$$$@@@@$$$$@@$$$$$$$$$$@@$$$$$$$$$$@@XX",
"%%@@$$######@@@@@@@@@@@@@@@@@@@@$$@@@@####$$++@@@@@@@@@@$$$$$$@@@@$$$$$$$$$$$$$$$$$$$$$$$$$$@@@@$$$$@@$$$$$$$$$$@@$$$$$$$$$$@@XX",
"$$@@$$@@######@@@@@@@@@@$$$$++@@@@@@@@######@@@@@@@@@@@@@@$$$$@@@@$$@@$$$$@@$$$$@@$$@@@@@@@@@@@@@@@@@@@@@@@@@@@@$$@@$$$$@@@@@@XX",
"$$@@$$@@######@@@@@@@@@@$$$$++@@@@@@@@######@@@@@@@@@@@@@@$$$$@@@@$$@@$$$$@@$$$$@@$$@@@@@@@@@@@@@@@@@@@@@@@@@@@@$$@@$$$$@@@@@@XX",
"%%@@@@##$$##@@@@@@@@@@@@$$$$@@@@@@++++@@##@@##@@@@@@@@@@@@$$$$@@@@$$$$@@@@@@$$@@@@@@$$@@$$$$@@@@@@$$$$$$$$$$$$@@$$@@@@@@@@@@@@XX",
"%%@@@@##$$##@@@@@@@@@@@@$$$$@@@@@@++++@@##@@##@@@@@@@@@@@@$$$$@@@@$$$$@@@@@@$$@@@@@@$$@@$$$$@@@@@@$$$$$$$$$$$$@@$$@@@@@@@@@@@@XX",
"$$@@@@@@######@@@@@@@@++$$@@@@@@@@OO@@##$$####@@@@@@@@@@@@++@@@@@@$$@@@@@@@@@@@@@@@@@@@@++@@++@@@@++@@++++@@@@@@@@@@@@@@@@@@@@XX",
"$$@@@@@@######@@@@@@@@++$$@@@@@@@@OO@@##$$####@@@@@@@@@@@@++@@@@@@$$@@@@@@@@@@@@@@@@@@@@++@@++@@@@++@@++++@@@@@@@@@@@@@@@@@@@@XX",
"%%++++++@@####@@@@@@@@@@@@++@@++@@@@$$######@@++++++++++@@@@@@@@@@@@@@@@@@@@@@@@@@@@@@@@++@@++@@++@@++@@@@@@@@@@@@@@@@@@@@@@@@XX",
"%%++++++@@####@@@@@@@@@@@@++@@++@@@@$$######@@++++++++++@@@@@@@@@@@@@@@@@@@@@@@@@@@@@@@@++@@++@@++@@++@@@@@@@@@@@@@@@@@@@@@@@@XX",
"%%++@@@@++@@##@@@@@@++@@@@@@@@@@@@++$$@@##@@++@@@@@@@@@@++++@@@@@@@@$$$$$$$$$$$$$$$$$$$$@@@@@@@@@@@@@@@@@@$$++++++++++++++++++XX",
"%%++@@@@++@@##@@@@@@++@@@@@@@@@@@@++$$@@##@@++@@@@@@@@@@++++@@@@@@@@$$$$$$$$$$$$$$$$$$$$@@@@@@@@@@@@@@@@@@$$++++++++++++++++++XX",
"$$@@++++@@++@@@@@@@@@@@@$$@@@@++@@@@$$##@@@@@@@@++++++++@@@@@@@@@@@@@@@@@@@@@@@@@@@@@@@@@@@@@@@@++@@@@@@@@@@@@@@++@@++@@@@++++XX",
"$$@@++++@@++@@@@@@@@@@@@$$@@@@++@@@@$$##@@@@@@@@++++++++@@@@@@@@@@@@@@@@@@@@@@@@@@@@@@@@@@@@@@@@++@@@@@@@@@@@@@@++@@++@@@@++++XX",
"%%++@@@@++@@++++++@@@@@@$$@@@@@@@@@@@@@@@@++++++@@@@@@@@@@@@@@$$@@@@@@@@@@@@@@@@@@@@@@@@@@@@@@@@@@++++@@@@++@@++++++@@++++@@OOXX",
"%%++@@@@++@@++++++@@@@@@$$@@@@@@@@@@@@@@@@++++++@@@@@@@@@@@@@@$$@@@@@@@@@@@@@@@@@@@@@@@@@@@@@@@@@@++++@@@@++@@++++++@@++++@@OOXX",
"$$@@++@@##@@@@@@@@++@@@@@@@@@@@@@@@@@@@@++@@@@@@++@@++@@@@@@@@@@@@@@$$@@$$$$$$$$@@@@@@@@@@@@@@@@@@@@@@$$$$@@++@@OO@@++@@++@@++XX",
"$$@@++@@##@@@@@@@@++@@@@@@@@@@@@@@@@@@@@++@@@@@@++@@++@@@@@@@@@@@@@@$$@@$$$$$$$$@@@@@@@@@@@@@@@@@@@@@@$$$$@@++@@OO@@++@@++@@++XX",
"%%++@@@@####++@@@@@@@@@@@@@@@@@@@@@@@@++@@++++@@++@@@@@@@@@@$$$$@@@@$$$$@@@@@@@@@@@@@@@@@@@@@@@@@@@@$$$$@@@@@@++@@@@@@@@@@@@@@XX",
"%%++@@@@####++@@@@@@@@@@@@@@@@@@@@@@@@++@@++++@@++@@@@@@@@@@$$$$@@@@$$$$@@@@@@@@@@@@@@@@@@@@@@@@@@@@$$$$@@@@@@++@@@@@@@@@@@@@@XX",
"$$++@@@@@@####++@@@@@@@@@@@@@@@@@@++++++++@@++@@++@@@@@@@@@@@@@@$$@@$$@@@@@@@@@@@@@@@@@@@@@@++@@@@@@$$@@@@@@@@++@@@@@@@@@@@@@@XX",
"$$++@@@@@@####++@@@@@@@@@@@@@@@@@@++++++++@@++@@++@@@@@@@@@@@@@@$$@@$$@@@@@@@@@@@@@@@@@@@@@@++@@@@@@$$@@@@@@@@++@@@@@@@@@@@@@@XX",
"%%++++@@####@@##@@++@@@@@@@@@@@@@@@@@@@@++++++++@@++@@@@@@@@@@@@@@@@@@@@@@@@@@@@@@@@@@OO++OO++@@@@@@@@@@@@++OO++++++@@@@@@@@@@XX",
"%%++++@@####@@##@@++@@@@@@@@@@@@@@@@@@@@++++++++@@++@@@@@@@@@@@@@@@@@@@@@@@@@@@@@@@@@@OO++OO++@@@@@@@@@@@@++OO++++++@@@@@@@@@@XX",
"$$OO@@++##$$####@@++@@@@@@++@@++++++++@@++oo++++++++++++@@@@@@@@@@@@@@++++++++++++++@@++++++OO++++@@@@++++++++OO@@++@@++++++++XX",
"$$OO@@++##$$####@@++@@@@@@++@@++++++++@@++oo++++++++++++@@@@@@@@@@@@@@++++++++++++++@@++++++OO++++@@@@++++++++OO@@++@@++++++++XX",
"$$++++++++##@@##@@@@@@@@@@++@@++@@@@++++OOOOoo++OO++++@@OO@@@@@@@@@@@@@@@@@@@@@@@@@@++@@++OO++@@@@++@@@@++OO@@++@@++@@++@@@@@@XX",
"$$++++++++##@@##@@@@@@@@@@++@@++@@@@++++OOOOoo++OO++++@@OO@@@@@@@@@@@@@@@@@@@@@@@@@@++@@++OO++@@@@++@@@@++OO@@++@@++@@++@@@@@@XX",
"$$++++@@OO++####@@++@@@@@@@@++@@++++@@++++OOOOoo++OO++OO++++@@@@OO++++@@++++++++++++++++OO++++++++++@@@@OO++@@++@@++@@++@@++++XX",
"$$++++@@OO++####@@++@@@@@@@@++@@++++@@++++OOOOoo++OO++OO++++@@@@OO++++@@++++++++++++++++OO++++++++++@@@@OO++@@++@@++@@++@@++++XX",
"$$OO@@++++++++++##@@@@@@@@@@++@@++@@++++OO++OOOO++OOOOOOOO++@@++++++@@++@@@@++++++@@@@OO++OO++@@++++++++++OO++++@@++@@++@@++++XX",
"$$OO@@++++++++++##@@@@@@@@@@++@@++@@++++OO++OOOO++OOOOOOOO++@@++++++@@++@@@@++++++@@@@OO++OO++@@++++++++++OO++++@@++@@++@@++++XX",
"$$++OO@@OO++OO++++++@@@@@@@@++++@@++@@++@@OOOOooOO++oo++@@@@@@++++++@@@@++++OO@@++++@@++OOOOoo++++OO@@OO++++++@@++@@++@@++++OOXX",
"$$++OO@@OO++OO++++++@@@@@@@@++++@@++@@++@@OOOOooOO++oo++@@@@@@++++++@@@@++++OO@@++++@@++OOOOoo++++OO@@OO++++++@@++@@++@@++++OOXX",
"$$++@@++@@++@@++@@@@@@@@@@++oo++++@@++@@OO++ooOOOOooOOOO@@++++oo++@@@@++++ooOOOO++++++OOOOooOO++OO++++@@++OO++++@@++@@++@@++@@XX",
"$$++@@++@@++@@++@@@@@@@@@@++oo++++@@++@@OO++ooOOOOooOOOO@@++++oo++@@@@++++ooOOOO++++++OOOOooOO++OO++++@@++OO++++@@++@@++@@++@@XX",
"$$@@++@@@@##@@++@@@@@@@@@@@@++@@@@OO++OOOOOOOOOOXXXXOO++OO++OO++OO++ooOOOOOOOO++OOOOooOOOOOOOOooOOooOO++oo++++++++++OO++++++++XX",
"$$@@++@@@@##@@++@@@@@@@@@@@@++@@@@OO++OOOOOOOOOOXXXXOO++OO++OO++OO++ooOOOOOOOO++OOOOooOOOOOOOOooOOooOO++oo++++++++++OO++++++++XX",
"$$OO++OO@@@@++++OO@@OO@@@@++@@++@@++OO++++++OOooXXXXXXooOOXXXXOOOOooXXOOooOOOOOOooOOOOXXXX..XXXXXXXXOO  XX++oo++OO++++OOOO++OOXX",
"$$OO++OO@@@@++++OO@@OO@@@@++@@++@@++OO++++++OOooXXXXXXooOOXXXXOOOOooXXOOooOOOOOOooOOOOXXXX..XXXXXXXXOO  XX++oo++OO++++OOOO++OOXX",
"$$++OO++++@@++@@++++++++++@@++@@OOOOOOOO++OOOOXXXXXXOOOOooOOooOOOOXXXXOOooOOooOOXXXXXXXXXXXXXXXXXXOOXX  XXOOOOooOOoo++++++OO++XX",
"$$++OO++++@@++@@++++++++++@@++@@OOOOOOOO++OOOOXXXXXXOOOOooOOooOOOOXXXXOOooOOooOOXXXXXXXXXXXXXXXXXXOOXX  XXOOOOooOOoo++++++OO++XX",
"$$OO++++++++@@++++@@++++++@@++++++OOOO++ooOOXXXXXXXXXXXXXXOOOOOOooOOooOOXXXXXXXXXXXXXXXXXXXXXXXXXXXX    ++XXXXOOOOOOoo++OO++++XX",
"$$OO++++++++@@++++@@++++++@@++++++OOOO++ooOOXXXXXXXXXXXXXXOOOOOOooOOooOOXXXXXXXXXXXXXXXXXXXXXXXXXXXX    ++XXXXOOOOOOoo++OO++++XX",
"$$++  oo++++++++++++++++@@++++++OOOO++++++OOooOOXXXXXXXXXXooOOooOOooOOOOXXXXXXXXXXXXXX        XXXXXX    ooXXXX..OOooOO++++++OOXX",
"$$++  oo++++++++++++++++@@++++++OOOO++++++OOooOOXXXXXXXXXXooOOooOOooOOOOXXXXXXXXXXXXXX        XXXXXX    ooXXXX..OOooOO++++++OOXX",
"$$XXXXXXXXXXXXooOOooOOXXooXXXXXXXXXXXXXXXXXX        XX    XXXXXXXXXX                              XXOOXX                XXXXXXXX",
"$$XXXXXXXXXXXXooOOooOOXXooXXXXXXXXXXXXXXXXXX        XX    XXXXXXXXXX                              XXOOXX                XXXXXXXX",
"$$++@@$$$$@@@@@@@@##$$@@$$$$$$@@@@@@@@@@@@++OOOOOO++ooXXOOoo++OO++++++OOOOooOOooXXXXXXXXXXXXXXOOOOOO++..                  @@$$++",
"$$++@@$$$$@@@@@@@@##$$@@$$$$$$@@@@@@@@@@@@++OOOOOO++ooXXOOoo++OO++++++OOOOooOOooXXXXXXXXXXXXXXOOOOOO++..                  @@$$++",
"%%XXXXXXXXXXXXXXXXOOXXXXXXXX..    XXXXXXXXXX  XXXX            XXXXXXXX                              OOOOXX                XXXX++",
"%%XXXXXXXXXXXXXXXXOOXXXXXXXX..    XXXXXXXXXX  XXXX            XXXXXXXX                              OOOOXX                XXXX++",
"$$OO++OO++OO++++++OO++++OO    ++  OOooOO++ooOOOOOOXX        XXXXOOooOOOOXXXXXX..    XX    XX..    ..XX  OOXXooOOooOOOOOO++OO++oo",
"$$OO++OO++OO++++++OO++++OO    ++  OOooOO++ooOOOOOOXX        XXXXOOooOOOOXXXXXX..    XX    XX..    ..XX  OOXXooOOooOOOOOO++OO++oo",
"%%++++++@@@@@@++++@@$$$$$$  XX##  ++OO++ooXX    ..XX            XXXXXXXXXXXX        ..            ..XX  XX    OOoo++OO++@@@@@@@@",
"%%++++++@@@@@@++++@@$$$$$$  XX##  ++OO++ooXX    ..XX            XXXXXXXXXXXX        ..            ..XX  XX    OOoo++OO++@@@@@@@@",
"$$@@@@++@@++OO@@++++++++++OO%%++@@oo++OO%%++  ++OOXX    XXXXOOoo++++++OO++$$@@  ....    XX      OO          XXOOXXOOOOXXXXXXXXXX",
"$$@@@@++@@++OO@@++++++++++OO%%++@@oo++OO%%++  ++OOXX    XXXXOOoo++++++OO++$$@@  ....    XX      OO          XXOOXXOOOOXXXXXXXXXX",
"%%++OO++++@@XXOOooOO@@@@++@@$$##OO++++++oo    XX                  XXXXXX..      XX....XXOO  XXOO++oo  ooOOXXXXXXOOXX  OO++XXXXXX",
"%%++OO++++@@XXOOooOO@@@@++@@$$##OO++++++oo    XX                  XXXXXX..      XX....XXOO  XXOO++oo  ooOOXXXXXXOOXX  OO++XXXXXX",
"    ..      ..                        ..                                        XXXXXX                XXXXXX                ..  ",
"    ..      ..                        ..                                        XXXXXX                XXXXXX                ..  ",
"==&&**==**============**==**%%OO&&**  ====**&&%%&&%%%%%%%%&&$$XX&&**%%%%%%%%%%%%&&%%%%%%      ..&&&&****************========&&OO",
"==&&**==**============**==**%%OO&&**  ====**&&%%&&%%%%%%%%&&$$XX&&**%%%%%%%%%%%%&&%%%%%%      ..&&&&****************========&&OO",
"==%%%%&&&&&&%%&&&&&&&&&&&&&&$$@@==$$  **&&&&$$%%$$%%$$@@$$@@@@OO%%$$@@$$%%$$%%$$%%%%          XX**%%%%&&%%&&%%&&%%&&&&&&&&&&$$OO",
"==%%%%&&&&&&%%&&&&&&&&&&&&&&$$@@==$$  **&&&&$$%%$$%%$$@@$$@@@@OO%%$$@@$$%%$$%%$$%%%%          XX**%%%%&&%%&&%%&&%%&&&&&&&&&&$$OO",
"==%%&&%%&&&&&&%%&&&&&&&&&&%%%%++**$$  XX**&&%%%%%%$$$$$$$$@@OOXX%%++@@@@$$$$$$$$$$@@++$$++    XX**%%%%%%%%%%&&%%%%%%&&&&&&&&%%++",
"==%%&&%%&&&&&&%%&&&&&&&&&&%%%%++**$$  XX**&&%%%%%%$$$$$$$$@@OOXX%%++@@@@$$$$$$$$$$@@++$$++    XX**%%%%%%%%%%&&%%%%%%&&&&&&&&%%++",
"==&&%%%%&&&&%%&&%%&&&&&&&&%%$$oo**%%  ++$$oo  &&&&      $$@@OO  @@++OO++@@@@@@$$@@$$$$$$@@      &&&&%%&&%%&&%%&&%%&&%%&&%%&&$$OO",
"==&&%%%%&&&&%%&&%%&&&&&&&&%%$$oo**%%  ++$$oo  &&&&      $$@@OO  @@++OO++@@@@@@$$@@$$$$$$@@      &&&&%%&&%%&&%%&&%%&&%%&&%%&&$$OO",
"==&&%%&&&&&&%%%%&&%%&&&&&&&&$$++==    XXOO++XX      XX  $$@@++  $$++++@@@@@@$$$$$$$$$$%%$$  ooXX**%%&&%%%%&&%%%%&&&&&&&&&&&&%%++",
"==&&%%&&&&&&%%%%&&%%&&&&&&&&$$++==    XXOO++XX      XX  $$@@++  $$++++@@@@@@$$$$$$$$$$%%$$  ooXX**%%&&%%%%&&%%%%&&&&&&&&&&&&%%++",
"==&&%%%%&&&&&&&&%%&&%%%%&&%%$$++==%%  OO..++XX  XX&&$$%%%%@@oo  @@OOOOOO@@++@@@@$$$$%%$$$$@@@@OO**%%%%&&%%&&&&%%%%&&&&%%&&&&$$++",
"==&&%%%%&&&&&&&&%%&&%%%%&&%%$$++==%%  OO..++XX  XX&&$$%%%%@@oo  @@OOOOOO@@++@@@@$$$$%%$$$$@@@@OO**%%%%&&%%&&&&%%%%&&&&%%&&&&$$++",
"==$$%%$$$$$$%%$$%%$$%%%%%%&&%%++==$$##++  OOOO        ++++@@XX  $$XXooOOoo++++OO@@@@$$$$$$%%@@OO**%%%%$$%%$$%%$$%%%%$$%%$$&&%%++",
"==$$%%$$$$$$%%$$%%$$%%%%%%&&%%++==$$##++  OOOO        ++++@@XX  $$XXooOOoo++++OO@@@@$$$$$$%%@@OO**%%%%$$%%$$%%$$%%%%$$%%$$&&%%++",
"**%%&&%%&&&&%%&&&&%%%%%%&&==$$OO    %%XX  OO@@..  ..    ++$$XX  ++XXOOOO++@@@@$$$$%%$$%%$$**@@OO**$$%%&&%%&&&&&&%%&&&&&&%%==$$OO",
"**%%&&%%&&&&%%&&&&%%%%%%&&==$$OO    %%XX  OO@@..  ..    ++$$XX  ++XXOOOO++@@@@$$$$%%$$%%$$**@@OO**$$%%&&%%&&&&&&%%&&&&&&%%==$$OO",
"**%%&&%%%%&&&&&&&&&&&&%%&&==%%++  ..$$    XX++OO    $$$$++$$OO  ++XXXXooOO@@@@$$$$$$%%%%%%==$$oo**%%%%%%&&&&&&%%&&&&&&%%&&==%%++",
"**%%&&%%%%&&&&&&&&&&&&%%&&==%%++  ..$$    XX++OO    $$$$++$$OO  ++XXXXooOO@@@@$$$$$$%%%%%%==$$oo**%%%%%%&&&&&&%%&&&&&&%%&&==%%++",
"**%%==**====================%%++  @@oo      ooXXooXX      ++XX  @@OO++$$%%%%**&&******======$$++==&&========================$$++",
"**%%==**====================%%++  @@oo      ooXXooXX      ++XX  @@OO++$$%%%%**&&******======$$++==&&========================$$++",
"%%$$%%$$%%$$%%$$%%%%%%$$$$%%%%++XXoo        XXOOOO              XX    XXXXOO@@@@@@$$$$%%$$%%%%OO&&%%$$%%&&%%%%%%&&$$%%%%%%%%%%++",
"%%$$%%$$%%$$%%$$%%%%%%$$$$%%%%++XXoo        XXOOOO              XX    XXXXOO@@@@@@$$$$%%$$%%%%OO&&%%$$%%&&%%%%%%&&$$%%%%%%%%%%++",
"++++OO++OO++OO++++++++++++++OOOO            XXoo++                            XXXXXXOOooOOOOOOOO++OO++++OO++++++OO++++OO++OOOOOO",
"++++OO++OO++OO++++++++++++++OOOO            XXoo++                            XXXXXXOOooOOOOOOOO++OO++++OO++++++OO++++OO++OOOOOO"
};
