/* XPM */
static char *WALL046[] = {
/* columns rows colors chars-per-pixel */
"128 128 15 1 ",
"  c #101010",
". c #212421",
"X c #313431",
"o c #393C39",
"O c #424142",
"+ c #4A494A",
"@ c #525152",
"# c #5A595A",
"$ c #6B696B",
"% c #00BA08",
"& c #00EF08",
"* c #31FF42",
"= c #948E94",
"- c #ADAAAD",
"; c #C6C3C6",
/* pixels */
"XX++  XX..++OOOO++++XX++++..XXXX  ....$$############@@####OO########OO@@################@@####++--======##;;;;;;;;;;;;;;@@====@@",
"XX++  XX..++OOOO++++XX++++..XXXX  ....$$############@@####OO########OO@@################@@####++--======##;;;;;;;;;;;;;;@@====@@",
"OO++  XX..OO++OO++++OOOO++..XXXX  ....$$######XX                                    ..OO@@##@@@@--======##;;------------@@====@@",
"OO++  XX..OO++OO++++OOOO++..XXXX  ....$$######XX                                    ..OO@@##@@@@--======##;;------------@@====@@",
"++OO..XX  @@    ..        ......  ....######oo  %%%%%%%%%%%%%%%%%%%%%%%%%%%%%%%%%%%%%%..XX####@@--======##;;------------@@====@@",
"++OO..XX  @@    ..        ......  ....######oo  %%%%%%%%%%%%%%%%%%%%%%%%%%%%%%%%%%%%%%..XX####@@--======##;;------------@@====@@",
"  ++..XX  @@  XXXXooooXXoo..XXXX      $$##OO  %%&&&&&&&&&&&&&&&&&&&&&&&&&&&&&&%%%%%%%%%%######@@--======##;;------------##====@@",
"  ++..XX  @@  XXXXooooXXoo..XXXX      $$##OO  %%&&&&&&&&&&&&&&&&&&&&&&&&&&&&&&%%%%%%%%%%######@@--======##;;------------##====@@",
"  ++  XX  ++  XXXXXXXXXXXX..XXXX..XXoo$$##OO..&&&&&&&&&&&&&&&&&&&&&&&&&&&&&&&&%%%%%%%%%%####@@##--======##==============##====@@",
"  ++  XX  ++  XXXXXXXXXXXX..XXXX..XXoo$$##OO..&&&&&&&&&&&&&&&&&&&&&&&&&&&&&&&&%%%%%%%%%%####@@##--======##==============##====@@",
"XXXXXXXXXXXXooooXXXXXXooXXXXXXXX  ....$$####@@@@%%%%%%%%%%%%%%%%%%%%%%%%%%%%%%%%%%%%%%$$$$####@@--======##;;;;;;;;;;;;;;##====@@",
"XXXXXXXXXXXXooooXXXXXXooXXXXXXXX  ....$$####@@@@%%%%%%%%%%%%%%%%%%%%%%%%%%%%%%%%%%%%%%$$$$####@@--======##;;;;;;;;;;;;;;##====@@",
"  ..            ..........XXXXXX  ....$$##OO++##$$$$$$$$$$$$$$$$$$$$##$$$$$$$$##$$##$$@@OO######--======##==============##====@@",
"  ..            ..........XXXXXX  ....$$##OO++##$$$$$$$$$$$$$$$$$$$$##$$$$$$$$##$$##$$@@OO######--======##==============##====@@",
"XX........................XX..oo  XX..$$####@@######@@####@@@@@@####++##################@@####@@--======##;;;;;;;;;;;;;;##====@@",
"XX........................XX..oo  XX..$$####@@######@@####@@@@@@####++##################@@####@@--======##;;;;;;;;;;;;;;##====@@",
"..................XX......ooXXXX  ..  $$####@@######@@####@@########OO##################@@##@@@@;;====--##==============##====@@",
"..................XX......ooXXXX  ..  $$####@@######@@####@@########OO##################@@##@@@@;;====--##==============##====@@",
"XXXXXXXX........XXXX......ooXXXX..XXXX$$####@@XX                                    ..OO####@@@@;;==----##;;;;;;;;;;;;;;##====@@",
"XXXXXXXX........XXXX......ooXXXX..XXXX$$####@@XX                                    ..OO####@@@@;;==----##;;;;;;;;;;;;;;##====@@",
"..........................XXXXoo  ....$$####XX  %%%%%%%%%%%%%%%%%%%%%%%%%%%%%%%%%%%%%%oo++##@@@@;;------##;;------------##====@@",
"..........................XXXXoo  ....$$####XX  %%%%%%%%%%%%%%%%%%%%%%%%%%%%%%%%%%%%%%oo++##@@@@;;------##;;------------##====@@",
"                        ..XXXXXX  ....$$##OO  %%&&&&&&&&&&&&&&&&&&&&&&&&&&&&&&%%%%%%%%%%@@##@@$$;;------##;;------------##====@@",
"                        ..XXXXXX  ....$$##OO  %%&&&&&&&&&&&&&&&&&&&&&&&&&&&&&&%%%%%%%%%%@@##@@$$;;------##;;------------##====@@",
"++XX++XX++XX++XXXXXXXX  ..XXXXXX  ....$$####XX&&&&&&&&&&&&&&&&&&&&&&&&&&&&&&&&%%%%%%%%%%$$##$$;;--------##;;------------@@====@@",
"++XX++XX++XX++XXXXXXXX  ..XXXXXX  ....$$####XX&&&&&&&&&&&&&&&&&&&&&&&&&&&&&&&&%%%%%%%%%%$$##$$;;--------##;;------------@@====@@",
"++XX++XX++XX++XXXXXXoo  ..XXXXoo  ....$$####++++%%%%%%%%%%%%%%%%%%%%%%%%%%%%%%%%%%%%%%$$$$$$;;----------##;;------------@@====@@",
"++XX++XX++XX++XXXXXXoo  ..XXXXoo  ....$$####++++%%%%%%%%%%%%%%%%%%%%%%%%%%%%%%%%%%%%%%$$$$$$;;----------##;;------------@@====@@",
"XXXXXXooooooooooooXXoo  ..ooXXXX  ....$$##oo@@@@##$$$$$$$$$$$$$$$$$$##$$$$$$$$$$$$$$$$$$$$;;------------##;;------------@@====@@",
"XXXXXXooooooooooooXXoo  ..ooXXXX  ....$$##oo@@@@##$$$$$$$$$$$$$$$$$$##$$$$$$$$$$$$$$$$$$$$;;------------##;;------------@@====@@",
"  ................oooo  ..OOoooo  ....$$##oo@@@@####################++##@@@@##@@######$$;;--------------##;;------------@@====@@",
"  ................oooo  ..OOoooo  ....$$##oo@@@@####################++##@@@@##@@######$$;;--------------##;;------------@@====@@",
"XXXXXXXXXX......ooXXXX  ..XXXXoo  ....$$##@@##@@####@@####@@########++##@@####@@####$$;;--------$$$$$$$$OO;;------------@@====@@",
"XXXXXXXXXX......ooXXXX  ..XXXXoo  ....$$##@@##@@####@@####@@########++##@@####@@####$$;;--------$$$$$$$$OO;;------------@@====@@",
"................XXXXXX..XXXX++OO......$$@@####XX                                  $$;;--------$$%%%%%%%%%%;;------------@@====@@",
"................XXXXXX..XXXX++OO......$$@@####XX                                  $$;;--------$$%%%%%%%%%%;;------------@@====@@",
"............XX..XX..XXXX..++XX........$$@@@@XX  %%%%%%%%%%%%%%%%%%%%%%%%%%%%%%%%$$;;--------$$%%&&&&&&&&%%;;------------@@====@@",
"............XX..XX..XXXX..++XX........$$@@@@XX  %%%%%%%%%%%%%%%%%%%%%%%%%%%%%%%%$$;;--------$$%%&&&&&&&&%%;;------------@@====@@",
"............XX..XXXXooXX@@OO....XX....$$@@##..%%&&&&&&&&&&&&&&&&&&&&&&&&&&&&&&$$;;--------$$%%&&******&&%%;;------------@@====@@",
"............XX..XXXXooXX@@OO....XX....$$@@##..%%&&&&&&&&&&&&&&&&&&&&&&&&&&&&&&$$;;--------$$%%&&******&&%%;;------------@@====@@",
"..........XX....XXooXX@@oo....    ....$$@@##oo&&&&&&&&&&&&&&&&&&&&&&&&&&&&&&$$;;--------$$%%&&**&&&&&&&&%%;;------------@@====@@",
"..........XX....XXooXX@@oo....    ....$$@@##oo&&&&&&&&&&&&&&&&&&&&&&&&&&&&&&$$;;--------$$%%&&**&&&&&&&&%%;;------------@@====@@",
"........XX....OOXXXX++XX..XX  XX  ....$$##@@++OO%%%%%%%%%%%%%%%%%%%%%%%%%%$$;;--------$$%%&&**&&&&&&&&&&%%;;------------@@====@@",
"........XX....OOXXXX++XX..XX  XX  ....$$##@@++OO%%%%%%%%%%%%%%%%%%%%%%%%%%$$;;--------$$%%&&**&&&&&&&&&&%%;;------------@@====@@",
"............XXXXXX++XX..XX  XXXX  ....$$##oo##@@####++++++++$$$$$$$$##$$$$;;--------$$%%&&**&&&&&&&&&&&&%%;;------------@@====@@",
"............XXXXXX++XX..XX  XXXX  ....$$##oo##@@####++++++++$$$$$$$$##$$$$;;--------$$%%&&**&&&&&&&&&&&&%%;;------------@@====@@",
"....XX....OOXX..++XX..XX  XXXX..  ....$$##@@@@@@##oo####@@@@@@######XX##;;--------$$%%&&**&&&&&&&&&&&&&&%%;;------------@@====@@",
"....XX....OOXX..++XX..XX  XXXX..  ....$$##@@@@@@##oo####@@@@@@######XX##;;--------$$%%&&**&&&&&&&&&&&&&&%%;;------------@@====@@",
"..XX..  oo....++XX....  XXXX..XX  ....$$@@####++@@oo########@@######OO##;;------$$%%&&**&&&&&&&&&&&&&&&&%%;;------------@@====@@",
"..XX..  oo....++XX....  XXXX..XX  ....$$@@####++@@oo########@@######OO##;;------$$%%&&**&&&&&&&&&&&&&&&&%%;;------------@@====@@",
"XX....++XX..@@XX....  XX....XXXX  ....$$@@####XX                        ;;------$$%%&&**&&&&&&&&&&&&&&&&%%;;------------@@====@@",
"XX....++XX..@@XX....  XX....XXXX  ....$$@@####XX                        ;;------$$%%&&**&&&&&&&&&&&&&&&&%%;;------------@@====@@",
"..  ooXXXX@@XX  ..  XX....ooXXXX  ....$$@@##XX  %%%%%%%%%%%%%%%%%%%%%%%%;;------$$%%&&**&&&&&&&&&&&&&&&&%%;;------------@@====@@",
"..  ooXXXX@@XX  ..  XX....ooXXXX  ....$$@@##XX  %%%%%%%%%%%%%%%%%%%%%%%%;;------$$%%&&**&&&&&&&&&&&&&&&&%%;;------------@@====@@",
"....XX..@@oo....  XX......XXXXXX  ....$$@@##..%%&&&&&&&&&&&&&&&&&&&&&&&&;;------$$%%&&&&&&&&&&&&&&&&&&&&%%;;------------@@====@@",
"....XX..@@oo....  XX......XXXXXX  ....$$@@##..%%&&&&&&&&&&&&&&&&&&&&&&&&;;------$$%%&&&&&&&&&&&&&&&&&&&&%%;;------------@@====@@",
"  ooXX++XX....  XX..XXXX..XXXXXX  ....$$@@##oo&&&&&&&&&&&&&&&&&&&&&&&&&&;;------$$%%%%%%%%%%%%%%%%%%%%%%%%;;------------@@====@@",
"  ooXX++XX....  XX..XXXX..XXXXXX  ....$$@@##oo&&&&&&&&&&&&&&&&&&&&&&&&&&;;------$$%%%%%%%%%%%%%%%%%%%%%%%%;;------------@@====@@",
"OOXX++oo  ..  XX..XXXXXX  XX..@@  ....$$@@##@@OO%%%%%%%%%%%%%%%%%%%%%%%%;;------$$%%%%%%%%%%%%%%%%%%%%%%%%;;------------@@====@@",
"OOXX++oo  ..  XX..XXXXXX  XX..@@  ....$$@@##@@OO%%%%%%%%%%%%%%%%%%%%%%%%;;------$$%%%%%%%%%%%%%%%%%%%%%%%%;;------------@@====@@",
"..@@XX..XX  XX....XX..XX..XX@@    ....$$@@####++############$$$$$$$$$$$$;;----==$$;;;;;;;;;;;;;;;;;;;;;;;;;;------------@@====@@",
"..@@XX..XX  XX....XX..XX..XX@@    ....$$@@####++############$$$$$$$$$$$$;;----==$$;;;;;;;;;;;;;;;;;;;;;;;;;;------------@@====@@",
"++XX....  XXXXXX....XXXX..@@....  ....$$@@####++@@oo####@@@@@@######++##;;======$$========================;;------------@@====@@",
"++XX....  XXXXXX....XXXX..@@....  ....$$@@####++@@oo####@@@@@@######++##;;======$$========================;;------------@@====@@",
"oo....  XXXXXXXXXXXXXX......  ..  ....$$@@####@@@@ooOOOOOOOO@@######++@@;;======$$========================;;------------@@====@@",
"oo....  XXXXXXXXXXXXXX......  ..  ....$$@@####@@@@ooOOOOOOOO@@######++@@;;======$$========================;;------------@@====@@",
"....  XXXXXXXXXX..XXXX@@..    ..  ....$$@@####XX                        ;;======$$$$$$$$$$$$$$$$$$$$$$$$$$;;------------@@====@@",
"....  XXXXXXXXXX..XXXX@@..    ..  ....$$@@####XX                        ;;======$$$$$$$$$$$$$$$$$$$$$$$$$$;;------------@@====@@",
"..  XX..XXXXXXXXXX..@@....    ..      $$@@##oo  %%%%%%%%%%%%%%%%%%%%%%%%;;======$$%%%%%%%%%%%%%%%%%%%%%%%%;;------------@@====@@",
"..  XX..XXXXXXXXXX..@@....    ..      $$@@##oo  %%%%%%%%%%%%%%%%%%%%%%%%;;======$$%%%%%%%%%%%%%%%%%%%%%%%%;;------------@@====@@",
"  ....@@..XX......@@..  ..    ....OOoo$$@@##..%%&&&&&&&&&&&&&&&&&&&&&&&&;;======$$%%&&&&&&&&&&&&&&&&&&&&%%;;------------@@====@@",
"  ....@@..XX......@@..  ..    ....OOoo$$@@##..%%&&&&&&&&&&&&&&&&&&&&&&&&;;======$$%%&&&&&&&&&&&&&&&&&&&&%%;;------------@@====@@",
"XX......@@..XX..@@..    ..    ..  ..XX$$@@##oo&&&&&&&&&&&&&&&&&&&&&&&&&&;;======$$%%&&****************&&%%;;------------@@==$$@@",
"XX......@@..XX..@@..    ..    ..  ..XX$$@@##oo&&&&&&&&&&&&&&&&&&&&&&&&&&;;======$$%%&&****************&&%%;;------------@@==$$@@",
"XX........++..@@..      ..    ..  ....$$@@##@@oo%%%%%%%%%%%%%%%%%%%%%%%%;;======$$%%&&**&&&&&&&&&&&&&&&&%%;;------------@@$$$$@@",
"XX........++..@@..      ..    ..  ....$$@@##@@oo%%%%%%%%%%%%%%%%%%%%%%%%;;======$$%%&&**&&&&&&&&&&&&&&&&%%;;------------@@$$$$@@",
"............++          ..    ..  ....$$@@####++##############$$$$$$$$$$;;======$$%%&&**&&&&&&&&&&&&&&&&%%;;------------++$$$$@@",
"............++          ..    ..  ....$$@@####++##############$$$$$$$$$$;;======$$%%&&**&&&&&&&&&&&&&&&&%%;;------------++$$$$@@",
"..XX..XXXX..++..        ..    ..  ..XX$$@@####++@@oo##OO@@@@@@@@####++##;;======$$%%&&**&&&&&&&&&&&&&&&&%%;;----------==++$$$$@@",
"..XX..XXXX..++..        ..    ..  ..XX$$@@####++@@oo##OO@@@@@@@@####++##;;======$$%%&&**&&&&&&&&&&&&&&&&%%;;----------==++$$$$@@",
"....XXXX....++..        ..    ..  ..XX$$@@####++@@ooOOOOOOOO++@@####++@@;;========$$%%&&**&&&&&&&&&&&&&&%%;;--------====++$$$$@@",
"....XXXX....++..        ..    ..  ..XX$$@@####++@@ooOOOOOOOO++@@####++@@;;========$$%%&&**&&&&&&&&&&&&&&%%;;--------====++$$$$@@",
"......XX....@@..        ..    ..  ....$$@@####..                        $$==========$$%%&&**&&&&&&&&&&&&%%;;----========++$$$$@@",
"......XX....@@..        ..    ..  ....$$@@####..                        $$==========$$%%&&**&&&&&&&&&&&&%%;;----========++$$$$@@",
"............++++++++++@@  @@++@@  ..XX$$@@##oo  %%%%%%%%%%%%%%%%%%%%%%%%%%$$==========$$%%&&**&&&&&&&&&&%%;;--==========++$$$$@@",
"............++++++++++@@  @@++@@  ..XX$$@@##oo  %%%%%%%%%%%%%%%%%%%%%%%%%%$$==========$$%%&&**&&&&&&&&&&%%;;--==========++$$$$@@",
"@@++@@++++@@++........XX..@@XXXX  ..XX$$@@++  %%&&&&&&&&&&&&&&&&&&&&&&&&&&&&$$==========$$%%&&**&&&&&&&&%%;;============++$$$$@@",
"@@++@@++++@@++........XX..@@XXXX  ..XX$$@@++  %%&&&&&&&&&&&&&&&&&&&&&&&&&&&&$$==========$$%%&&**&&&&&&&&%%;;============++$$$$@@",
"  ..        ++..  ........@@XXXX  ..XX$$##XX..&&&&&&&&&&&&&&&&&&&&&&&&&&&&&&&&$$==========$$%%&&&&&&&&&&%%;;============++$$$$@@",
"  ..        ++..  ........@@XXXX  ..XX$$##XX..&&&&&&&&&&&&&&&&&&&&&&&&&&&&&&&&$$==========$$%%&&&&&&&&&&%%;;============++$$$$@@",
"@@++@@@@@@@@++XX..      ..++XXXX  ..XX$$@@++OOOO%%%%%%%%%%%%%%%%%%%%%%%%%%%%%%%%$$==========$$%%%%%%%%%%%%;;============++$$$$@@",
"@@++@@@@@@@@++XX..      ..++XXXX  ..XX$$@@++OOOO%%%%%%%%%%%%%%%%%%%%%%%%%%%%%%%%$$==========$$%%%%%%%%%%%%;;============++$$$$@@",
"......XX....++XX..      ..++XXXX  ..XX$$++####++############$$$$$$$$$$$$$$########$$==========$$%%%%%%%%%%;;============++$$$$@@",
"......XX....++XX..      ..++XXXX  ..XX$$++####++############$$$$$$$$$$$$$$########$$==========$$%%%%%%%%%%;;============++$$$$@@",
"XXXXXXXX....++..........  ++XXOO  ....$$@@####++@@oo######OO++######++####oo######@@$$==========--------$$;;============++$$$$@@",
"XXXXXXXX....++..........  ++XXOO  ....$$@@####++@@oo######OO++######++####oo######@@$$==========--------$$;;============++$$$$@@",
"......  ....++....XX..XX  ++XXXX  ..XX$$@@####@@##oo######OO++######++##@@ooOOOOOOOO@@$$========$$$$$$OO;;==============++++$$@@",
"......  ....++....XX..XX  ++XXXX  ..XX$$@@####@@##oo######OO++######++##@@ooOOOOOOOO@@$$========$$$$$$OO;;==============++++$$@@",
"++OOOO++XXOO++XXOOOOXXOOOO++XXXX  ..XX$$######XX                                    ..oo$$==========OO;;================$$XX++@@",
"++OOOO++XXOO++XXOOOOXXOOOO++XXXX  ..XX$$######XX                                    ..oo$$==========OO;;================$$XX++@@",
"XX..XX....XXXXXX..XX..........OO  ..XX$$@@##XX  %%%%%%%%%%%%%%%%%%%%%%%%%%%%%%%%%%%%%%XX++$$======OO;;====================$$XXXX",
"XX..XX....XXXXXX..XX..........OO  ..XX$$@@##XX  %%%%%%%%%%%%%%%%%%%%%%%%%%%%%%%%%%%%%%XX++$$======OO;;====================$$XXXX",
"                        ....  ++  ..XX$$++++  %%&&&&&&&&&&&&&&&&&&&&&&&&&&&&&&%%%%%%%%%%++XX$$==OO;;========================$$XX",
"                        ....  ++  ..XX$$++++  %%&&&&&&&&&&&&&&&&&&&&&&&&&&&&&&%%%%%%%%%%++XX$$==OO;;========================$$XX",
"++OOOO++++++++  @@XX....XXOOXXOO  ..XX$$####oo&&&&&&&&&&&&&&&&&&&&&&&&&&&&&&&&%%%%%%%%%%$$##++##;;============================$$",
"++OOOO++++++++  @@XX....XXOOXXOO  ..XX$$####oo&&&&&&&&&&&&&&&&&&&&&&&&&&&&&&&&%%%%%%%%%%$$##++##;;============================$$",
"  ++OOOOOO++  @@++XXXXXXXXXXOO++  ..XX$$####@@oo%%%%%%%%%%%%%%%%%%%%%%%%%%%%%%%%%%%%%%$$$$##++##==============================$$",
"  ++OOOOOO++  @@++XXXXXXXXXXOO++  ..XX$$####@@oo%%%%%%%%%%%%%%%%%%%%%%%%%%%%%%%%%%%%%%$$$$##++##==============================$$",
"@@  OOOO++  @@++++......XXXXXXOO  ..XX$$######++##$$$$$$$$$$$$$$$$$$##$$$$$$$$$$$$$$$$$$@@##++##====$$$$$$$$$$$$$$$$$$$$$$$$==$$",
"@@  OOOO++  @@++++......XXXXXXOO  ..XX$$######++##$$$$$$$$$$$$$$$$$$##$$$$$$$$$$$$$$$$$$@@##++##====$$$$$$$$$$$$$$$$$$$$$$$$==$$",
"++@@..++  @@++++++..XXXX..XXXXXX  ..XX$$######++@@##@@####@@########++##################@@##++##====$$....XXXXXXXXXXXXoo++$$==$$",
"++@@..++  @@++++++..XXXX..XXXXXX  ..XX$$######++@@##@@####@@########++##################@@##++##====$$....XXXXXXXXXXXXoo++$$==$$",
"@@++  OO..@@++++@@XX....XXXXXXXX      $$######@@####@@####@@##++++##XX##@@##################++##====$$..++++++++++++++$$$$====$$",
"@@++  OO..@@++++@@XX....XXXXXXXX      $$######@@####@@####@@##++++##XX##@@##################++##====$$..++++++++++++++$$$$====$$",
"XX....OO..XX........XXXXXXXXXXXX..OOOO$$######XX                                    ..OO@@@@++##====$$....XXXXXXXXXXXXoo++====$$",
"XX....OO..XX........XXXXXXXXXXXX..OOOO$$######XX                                    ..OO@@@@++##====$$....XXXXXXXXXXXXoo++====$$",
"OO++  ++..++OO++++OOOO++..XXXX++  ....$$####oo  %%%%%%%%%%%%%%%%%%%%%%%%%%%%%%%%%%%%%%oo++##++##====$$..++++++++++++++$$$$====$$",
"OO++  ++..++OO++++OOOO++..XXXX++  ....$$####oo  %%%%%%%%%%%%%%%%%%%%%%%%%%%%%%%%%%%%%%oo++##++##====$$..++++++++++++++$$$$====$$",
"......++..  ..........  ........  ....$$##@@  %%&&&&&&&&&&&&&&&&&&&&&&&&&&&&&&%%%%%%%%%%@@++++##====$$....XXXXXXXXXXXXoo++====$$",
"......++..  ..........  ........  ....$$##@@  %%&&&&&&&&&&&&&&&&&&&&&&&&&&&&&&%%%%%%%%%%@@++++##====$$....XXXXXXXXXXXXoo++====$$",
"++@@  ++..@@++++++++@@++XXOOOOOO  ....$$####XX&&&&&&&&&&&&&&&&&&&&&&&&&&&&&&&&%%%%%%%%%%$$##++##====$$..++++++++++++++$$$$====$$",
"++@@  ++..@@++++++++@@++XXOOOOOO  ....$$####XX&&&&&&&&&&&&&&&&&&&&&&&&&&&&&&&&%%%%%%%%%%$$##++##====$$..++++++++++++++$$$$====$$",
"@@@@..++..@@++++++++++++XXOOOOOO  ....$$####@@++%%%%%%%%%%%%%%%%%%%%%%%%%%%%%%%%%%%%%%$$$$##++##====$$++$$$$$$$$$$$$$$$$$$====$$",
"@@@@..++..@@++++++++++++XXOOOOOO  ....$$####@@++%%%%%%%%%%%%%%%%%%%%%%%%%%%%%%%%%%%%%%$$$$##++##====$$++$$$$$$$$$$$$$$$$$$====$$",
"@@@@..++..++++++@@++++++XXOOOOOO  ....$$########$$$$$$$$$$@@$$$$$$$$@@$$$$$$$$$$$$$$$$$$####++##==============================$$",
"@@@@..++..++++++@@++++++XXOOOOOO  ....$$########$$$$$$$$$$@@$$$$$$$$@@$$$$$$$$$$$$$$$$$$####++##==============================$$",
"++@@..++..++++++++++++++XXOOOOOO  ....$$############@@####XX########XX######################++##==============================$$",
"++@@..++..++++++++++++++XXOOOOOO  ....$$############@@####XX########XX######################++##==============================$$"
};
