/* XPM */
static char *WALL033[] = {
/* columns rows colors chars-per-pixel */
"128 128 15 1 ",
"  c #100C10",
". c #101410",
"X c #181C18",
"o c #211C21",
"O c #212429",
"+ c #292829",
"@ c #293031",
"# c #293439",
"$ c #313031",
"% c #394142",
"& c #424D52",
"* c #4A5D5A",
"= c #4A5D63",
"- c #636563",
"; c #73757B",
/* pixels */
"**==============================&&%%##@@%%@@OOOO@@##%%%%&&&&&&&&&&&&&&&&&&%%%%;;--==&&ooooOO$$++ooXX%%&&%%&&&&&&&&============@@",
"**==============================&&%%##@@%%@@OOOO@@##%%%%&&&&&&&&&&&&&&&&&&%%%%;;--==&&ooooOO$$++ooXX%%&&%%&&&&&&&&============@@",
"====&&&&============&&&&%%==&&%%##%%OO@@%%@@XX&&----;;;;;;;;;;;;;;;;;;;;;;;;;;;;;;==&&oo++OO$$%%%%++ooXXXX&&&&&&&&==&&&&======@@",
"====&&&&============&&&&%%==&&%%##%%OO@@%%@@XX&&----;;;;;;;;;;;;;;;;;;;;;;;;;;;;;;==&&oo++OO$$%%%%++ooXXXX&&&&&&&&==&&&&======@@",
"%%%%%%%%%%%%%%%%%%%%%%%%%%%%%%##@@@@XX..%%@@OO==--;;;;;;;;;;;;;;;;;;;;;;;;;;;;;;;;&&%%..%%oo..OO$$%%$$++OOoooooo%%%%%%%%%%%%%%%%",
"%%%%%%%%%%%%%%%%%%%%%%%%%%%%%%##@@@@XX..%%@@OO==--;;;;;;;;;;;;;;;;;;;;;;;;;;;;;;;;&&%%..%%oo..OO$$%%$$++OOoooooo%%%%%%%%%%%%%%%%",
"--======================&&&&&&%%%%##OOOO%%@@&&==--;;;;;;;;--;;;;;;;;----==&&==----%%oo++%%++..oo++++$$$$%%%%oooooooooooooo======",
"--======================&&&&&&%%%%##OOOO%%@@&&==--;;;;;;;;--;;;;;;;;----==&&==----%%oo++%%++..oo++++$$$$%%%%oooooooooooooo======",
"==%%%%%%%%%%%%%%%%##%%########%%  ##XXXX%%@@##%%&&&&&&==&&&&==&&==&&%%%%%%##OOOOOO@@oo%%$$oo  ..XXXX++$$++++oooooooooooooo%%%%##",
"==%%%%%%%%%%%%%%%%##%%########%%  ##XXXX%%@@##%%&&&&&&==&&&&==&&==&&%%%%%%##OOOOOO@@oo%%$$oo  ..XXXX++$$++++oooooooooooooo%%%%##",
"==%%%%%%%%%%%%####%%##########&&..##XXXX&&&&&&--;;;;;;;;;;;;;;;;;;--&&&&&&XXXX@@@@oo++$$$$XX  OO      oo++++$$oooo%%##%%%%%%%%@@",
"==%%%%%%%%%%%%####%%##########&&..##XXXX&&&&&&--;;;;;;;;;;;;;;;;;;--&&&&&&XXXX@@@@oo++$$$$XX  OO      oo++++$$oooo%%##%%%%%%%%@@",
"==%%%%%%%%####################&&..##XXOOOO##%%&&&&&&====&&========&&&&%%%%##XXooOOXX++$$OO..        ..XXoooo##########%%%%%%%%@@",
"==%%%%%%%%####################&&..##XXOOOO##%%&&&&&&====&&========&&&&%%%%##XXooOOXX++$$OO..        ..XXoooo##########%%%%%%%%@@",
"--==============&&&&&&&&&&&&&&&&%%##%%@@OO##XXOOooOO@@OOOO@@@@@@@@OOOOooXX....@@%%..OO++XX..    OOOOOO######&&&&&&==============",
"--==============&&&&&&&&&&&&&&&&%%##%%@@OO##XXOOooOO@@OOOO@@@@@@@@OOOOooXX....@@%%..OO++XX..    OOOOOO######&&&&&&==============",
"==%%%%%%%%%%%%%%%%############@@@@##@@OOOO##XX&&&&&&==============&&&&%%XX@@@@@@%%##OOXXoooo        ..oooo@@@@##%%%%%%%%%%%%%%%%",
"==%%%%%%%%%%%%%%%%############@@@@##@@OOOO##XX&&&&&&==============&&&&%%XX@@@@@@%%##OOXXoooo        ..oooo@@@@##%%%%%%%%%%%%%%%%",
"&&%%%%%%%%%%%%%%######@@............%%OOoo@@oo&&&&====================&&&&%%%%%%&&%%@@  OOoo        oo$$++@@####%%%%%%%%%%%%%%oo",
"&&%%%%%%%%%%%%%%######@@............%%OOoo@@oo&&&&====================&&&&%%%%%%&&%%@@  OOoo        oo$$++@@####%%%%%%%%%%%%%%oo",
"&&%%%%%%%%%%%%%%####@@##..oo..XX$$..OOOOXX##XX%%&&==========================&&&&--&&@@  oooo..  ..oo$$$$OO@@##%%%%%%%%%%%%%%%%oo",
"&&%%%%%%%%%%%%%%####@@##..oo..XX$$..OOOOXX##XX%%&&==========================&&&&--&&@@  oooo..  ..oo$$$$OO@@##%%%%%%%%%%%%%%%%oo",
"&&%%%%%%%%%%%%%%####@@....==%%..$$ooXXooXX%%OO%%&&================&&&&==========;;==%%..OOoo....++OO%%XX@@##%%%%%%%%%%%%%%%%%%oo",
"&&%%%%%%%%%%%%%%####@@....==%%..$$ooXXooXX%%OO%%&&================&&&&==========;;==%%..OOoo....++OO%%XX@@##%%%%%%%%%%%%%%%%%%oo",
"&&%%%%%%%%%%%%%%@@OO..OO&&..##OO$$$$XX  OO##@@&&&&==================&&&&========;;==&&..++XX..++$$++oo  OO@@%%%%%%%%%%%%%%%%%%oo",
"&&%%%%%%%%%%%%%%@@OO..OO&&..##OO$$$$XX  OO##@@&&&&==================&&&&========;;==&&..++XX..++$$++oo  OO@@%%%%%%%%%%%%%%%%%%oo",
"&&%%%%%%%%%%%%##@@..@@@@oo..--##oo$$oo  OO####&&&&==========&&&&&&&&&&%%&&&&&&==;;==%%  oo....%%%%..  @@@@##%%%%%%%%%%%%%%%%%%oo",
"&&%%%%%%%%%%%%##@@..@@@@oo..--##oo$$oo  OO####&&&&==========&&&&&&&&&&%%&&&&&&==;;==%%  oo....%%%%..  @@@@##%%%%%%%%%%%%%%%%%%oo",
"&&%%%%%%%%%%%%##@@OO..oo%%%%XX##@@XXXX..OO%%%%&&%%&&##%%@@@@&&&&&&&&&&%%&&&&&&&&;;&&##..XX..XX++++    @@##%%%%%%%%%%%%%%%%%%%%oo",
"&&%%%%%%%%%%%%##@@OO..oo%%%%XX##@@XXXX..OO%%%%&&%%&&##%%@@@@&&&&&&&&&&%%&&&&&&&&;;&&##..XX..XX++++    @@##%%%%%%%%%%%%%%%%%%%%oo",
"&&%%%%%%######OOOOOO..%%OO..OO&&%%..ooXX  &&%%XX&&@@@@%%%%%%OOXXOO@@&&&&&&%%&&%%--%%##  oo  OOXXXX  @@@@##%%%%%%%%%%%%%%%%%%%%oo",
"&&%%%%%%######OOOOOO..%%OO..OO&&%%..ooXX  &&%%XX&&@@@@%%%%%%OOXXOO@@&&&&&&%%&&%%--%%##  oo  OOXXXX  @@@@##%%%%%%%%%%%%%%%%%%%%oo",
"&&%%%%%%##%%##OOOOOO@@....OO%%%%@@@@@@XX@@..%%OO@@@@OO@@%%%%OO@@@@%%OO&&&&&&&&&&ooXX        OO..    @@##%%%%%%%%%%%%%%%%%%%%%%oo",
"&&%%%%%%##%%##OOOOOO@@....OO%%%%@@@@@@XX@@..%%OO@@@@OO@@%%%%OO@@@@%%OO&&&&&&&&&&ooXX        OO..    @@##%%%%%%%%%%%%%%%%%%%%%%oo",
"&&%%%%%%##%%##OOOOOO@@..OO&&%%######..  oooo@@OO%%ooXXoo....OOOO..oo....OOXXXX@@OOOO      ooXXooXXOO@@##%%%%%%%%%%%%%%%%%%%%%%oo",
"&&%%%%%%##%%##OOOOOO@@..OO&&%%######..  oooo@@OO%%ooXXoo....OOOO..oo....OOXXXX@@OOOO      ooXXooXXOO@@##%%%%%%%%%%%%%%%%%%%%%%oo",
"&&%%%%%%######OOOO@@@@OO@@@@########@@..OOoo&&oo$$##@@oo##@@....XXXXoo....%%ooooXX..  ..XX  OOXXooOO@@##%%%%##%%%%%%%%%%%%%%%%oo",
"&&%%%%%%######OOOO@@@@OO@@@@########@@..OOoo&&oo$$##@@oo##@@....XXXXoo....%%ooooXX..  ..XX  OOXXooOO@@##%%%%##%%%%%%%%%%%%%%%%oo",
"&&%%%%%%%%%%##@@@@@@@@@@@@##########@@..@@XXoooo%%$$##ooooOOOOOOoo..OOOOOOXXoo%%OO..  ..    XXXX@@OO@@##%%####%%####%%%%%%%%%%oo",
"&&%%%%%%%%%%##@@@@@@@@@@@@##########@@..@@XXoooo%%$$##ooooOOOOOOoo..OOOOOOXXoo%%OO..  ..    XXXX@@OO@@##%%####%%####%%%%%%%%%%oo",
"&&%%%%%%%%%%##@@##@@@@@@############OO..@@XX@@oooo$$ooooOOooOOooXX  XXooooOOXX%%OO....XX  XXXXOO##@@######@@##############%%%%oo",
"&&%%%%%%%%%%##@@##@@@@@@############OO..@@XX@@oooo$$ooooOOooOOooXX  XXooooOOXX%%OO....XX  XXXXOO##@@######@@##############%%%%oo",
"&&%%%%%%%%########@@@@############@@@@..@@%%OO@@oo%%oooo##%%ooOOXX....XX..OOXXoo##OO..@@..ooXXOO########@@@@############%%%%%%oo",
"&&%%%%%%%%########@@@@############@@@@..@@%%OO@@oo%%oooo##%%ooOOXX....XX..OOXXoo##OO..@@..ooXXOO########@@@@############%%%%%%oo",
"&&%%%%%%%%%%######################@@@@..@@%%OOoooo++@@OO%%OOOO@@XX......XX..XXooXX##XXoo..oooo@@##%%##%%####################%%oo",
"&&%%%%%%%%%%######################@@@@..@@%%OOoooo++@@OO%%OOOO@@XX......XX..XXooXX##XXoo..oooo@@##%%##%%####################%%oo",
"&&%%%%%%%%%%%%##########%%######@@@@@@..OO%%@@oo##ooOOOO@@OOOO@@XX......XXXXOOooXX@@oo%%..OO@@####%%%%%%########%%##%%%%%%##%%oo",
"&&%%%%%%%%%%%%##########%%######@@@@@@..OO%%@@oo##ooOOOO@@OOOO@@XX......XXXXOOooXX@@oo%%..OO@@####%%%%%%########%%##%%%%%%##%%oo",
"&&############################@@@@@@OO..@@oooooo@@OOXX@@OOOOooOOOOXXoo..XXOOooXXoo@@oo##..OO@@################################oo",
"&&############################@@@@@@OO..@@oooooo@@OOXX@@OOOOooOOOOXXoo..XXOOooXXoo@@oo##..OO@@################################oo",
"&&############################@@OOOOOO@@@@oo@@oo@@OO..ooOOooooOOXX  ..XXooOO..oooooo@@oo@@OO@@@@@@############################oo",
"&&############################@@OOOOOO@@@@oo@@oo@@OO..ooOOooooOOXX  ..XXooOO..oooooo@@oo@@OO@@@@@@############################oo",
"&&############################OOOOOOOO@@@@oo@@oo..OOXXXXOOXXXXoo..  XXXXOOXXXXoo@@oo@@oo@@@@@@@@@@############################oo",
"&&############################OOOOOOOO@@@@oo@@oo..OOXXXXOOXXXXoo..  XXXXOOXXXXoo@@oo@@oo@@@@@@@@@@############################oo",
"&&############################@@OO@@@@@@OOOOooOOOOOOooOOXXooXXXX....XXOO$$..XXoo@@oooooo@@####@@@@############################oo",
"&&############################@@OO@@@@@@OOOOooOOOOOOooOOXXooXXXX....XXOO$$..XXoo@@oooooo@@####@@@@############################oo",
"&&########@@@@@@@@############@@OOOOOO##++oo@@OOOOOOOOXXXXXXXX..    $$OO....XXoo@@@@oo######@@@@##############################oo",
"&&########@@@@@@@@############@@OOOOOO##++oo@@OOOOOOOOXXXXXXXX..    $$OO....XXoo@@@@oo######@@@@##############################oo",
"&&########@@##@@@@##@@@@####@@@@@@OOOO##++ooooOO..OOOOXXooXXoo..  ++&&XX..XXXXoo@@@@oo########@@##############################oo",
"&&########@@##@@@@##@@@@####@@@@@@OOOO##++ooooOO..OOOOXXooXXoo..  ++&&XX..XXXXoo@@@@oo########@@##############################oo",
"&&##########@@@@@@@@@@@@##@@@@OOOOOOOO##ooooOOXX..OO@@XXooXXoo..  XXOO....XXXXoo@@@@OO########################################oo",
"&&##########@@@@@@@@@@@@##@@@@OOOOOOOO##ooooOOXX..OO@@XXooXXoo..  XXOO....XXXXoo@@@@OO########################################oo",
"&&############@@@@@@@@@@@@OOOOOOOOOOOO%%XXOOXX..XX@@@@@@XXOOOOXX    XXXX..XXXXOO####oooo######################################oo",
"&&############@@@@@@@@@@@@OOOOOOOOOOOO%%XXOOXX..XX@@@@@@XXOOOOXX    XXXX..XXXXOO####oooo######################################oo",
"&&########@@@@OO@@@@OO@@OOooOOOOOOOO##%%..XXXXXXXX##@@@@oo@@OOoo    XXoo....XXOOOO##oooo@@@@@@##@@############################oo",
"&&########@@@@OO@@@@OO@@OOooOOOOOOOO##%%..XXXXXXXX##@@@@oo@@OOoo    XXoo....XXOOOO##oooo@@@@@@##@@############################oo",
"&&##########@@@@@@##@@@@@@OO##OOOOOO%%@@..XXXXooooOO##@@##OO@@oo..  oo@@....XXoo@@##oooo@@@@@@@@@@############################oo",
"&&##########@@@@@@##@@@@@@OO##OOOOOO%%@@..XXXXooooOO##@@##OO@@oo..  oo@@....XXoo@@##oooo@@@@@@@@@@############################oo",
"&&########################OO@@OOOOoo##ooXXXXoooooo@@##OOoo##@@OO..  OO%%....XXOO@@##@@oooo##@@@@##############################oo",
"&&########################OO@@OOOOoo##ooXXXXoooooo@@##OOoo##@@OO..  OO%%....XXOO@@##@@oooo##@@@@##############################oo",
"&&########################OO@@@@OOOO##oo..ooOOOO%%##@@ooOO##ooOO..  oo##....OO@@##oo@@oooo##@@@@##############################oo",
"&&########################OO@@@@OOOO##oo..ooOOOO%%##@@ooOO##ooOO..  oo##....OO@@##oo@@oooo##@@@@##############################oo",
"&&####################@@##@@@@%%####%%OOooOOOO##++##@@@@OOOOOOoo..  XX@@..XXOOOO##&&oooooo####################################oo",
"&&####################@@##@@@@%%####%%OOooOOOO##++##@@@@OOOOOOoo..  XX@@..XXOOOO##&&oooooo####################################oo",
"&&##############@@@@@@@@@@OO@@@@$$OO@@OOOO++%%%%##%%####ooOOOOXX    XXXXXXOOOOOO##&&oo##oo####################################oo",
"&&##############@@@@@@@@@@OO@@@@$$OO@@OOOO++%%%%##%%####ooOOOOXX    XXXXXXOOOOOO##&&oo##oo####################################oo",
"&&############@@@@@@@@@@OOoo@@####XXXX@@OO@@$$$$$$######@@OO@@XX..XXXX..XXoo@@%%@@oooo##oo####################################oo",
"&&############@@@@@@@@@@OOoo@@####XXXX@@OO@@$$$$$$######@@OO@@XX..XXXX..XXoo@@%%@@oooo##oo####################################oo",
"&&##########@@@@@@OOOOOOOOXXOOOO@@ooXXOO%%&&&&@@&&&&==++@@##ooOOOOXX  ..XXOOOOOO@@oooooooooooo################################oo",
"&&##########@@@@@@OOOOOOOOXXOOOO@@ooXXOO%%&&&&@@&&&&==++@@##ooOOOOXX  ..XXOOOOOO@@oooooooooooo################################oo",
"&&##########@@@@OOOOOOOOOOooooOO@@ooXXoo&&&&&&%%%%####&&++&&ooOOXXXX..XXooooXXoo;;oooooooooooooo##############################oo",
"&&##########@@@@OOOOOOOOOOooooOO@@ooXXoo&&&&&&%%%%####&&++&&ooOOXXXX..XXooooXXoo;;oooooooooooooo##############################oo",
"&&@@##@@@@@@@@@@@@OOOOOOOOOOXXOOOOXXXXOO&&%%%%&&&&&&####%%&&@@..XXXXXXXXXX....@@&&oooooooooooooo@@@@######@@##@@@@##@@##@@@@@@oo",
"&&@@##@@@@@@@@@@@@OOOOOOOOOOXXOOOOXXXXOO&&%%%%&&&&&&####%%&&@@..XXXXXXXXXX....@@&&oooooooooooooo@@@@######@@##@@@@##@@##@@@@@@oo",
"&&@@@@@@@@@@@@@@OOOOOOOOOOooXXXXOOXX..oo%%%%##&&&&&&&&&&####@@OO..XXooXXooooOO@@&&##;;oooooooooooo@@@@@@@@@@@@@@@@@@@@@@@@@@@@oo",
"&&@@@@@@@@@@@@@@OOOOOOOOOOooXXXXOOXX..oo%%%%##&&&&&&&&&&####@@OO..XXooXXooooOO@@&&##;;oooooooooooo@@@@@@@@@@@@@@@@@@@@@@@@@@@@oo",
"&&@@@@@@@@@@@@@@OOOO@@OOXXXXXX..XX..XXXX%%####&&========@@@@@@OOXX..XXoo@@OO&&##;;==;;oooooooooooo@@@@@@@@@@@@@@@@@@@@@@@@@@@@oo",
"&&@@@@@@@@@@@@@@OOOO@@OOXXXXXX..XX..XXXX%%####&&========@@@@@@OOXX..XXoo@@OO&&##;;==;;oooooooooooo@@@@@@@@@@@@@@@@@@@@@@@@@@@@oo",
"&&@@@@@@@@@@@@OOOOOO@@OOXXXXXX......XX..%%##%%&&==&&&&&&&&%%%%@@oooooooo##&&&&==;;==;;oooooooooooooo@@@@@@@@@@@@@@@@@@@@@@@@@@oo",
"&&@@@@@@@@@@@@OOOOOO@@OOXXXXXX......XX..%%##%%&&==&&&&&&&&%%%%@@oooooooo##&&&&==;;==;;oooooooooooooo@@@@@@@@@@@@@@@@@@@@@@@@@@oo",
"&&@@@@@@@@@@@@@@OO@@@@OOXXXXXX..  ..XX..&&%%%%&&==&&&&&&&&&&&&@@##@@OO%%&&&&====;;==;;oooooooooooooo@@@@@@@@@@@@@@@@@@@@@@@@@@oo",
"&&@@@@@@@@@@@@@@OO@@@@OOXXXXXX..  ..XX..&&%%%%&&==&&&&&&&&&&&&@@##@@OO%%&&&&====;;==;;oooooooooooooo@@@@@@@@@@@@@@@@@@@@@@@@@@oo",
"&&@@@@@@@@@@@@@@OO@@@@OOXX..XX  ..  XX..&&%%%%&&&&&&&&&&&&&&&&&&####@@##========;;==;;oooooooooooooo@@@@@@@@@@@@@@@@@@@@@@@@@@oo",
"&&@@@@@@@@@@@@@@OO@@@@OOXX..XX  ..  XX..&&%%%%&&&&&&&&&&&&&&&&&&####@@##========;;==;;oooooooooooooo@@@@@@@@@@@@@@@@@@@@@@@@@@oo",
"&&@@@@@@@@@@@@@@@@@@@@oooo..    ooXXXX..%%%%%%&&====&&&&&&&&&&&&&&##%%++;;====&&;;==;;oooooooooooooooo@@@@@@@@@@@@@@@@@@@@@@@@oo",
"&&@@@@@@@@@@@@@@@@@@@@oooo..    ooXXXX..%%%%%%&&====&&&&&&&&&&&&&&##%%++;;====&&;;==;;oooooooooooooooo@@@@@@@@@@@@@@@@@@@@@@@@oo",
"&&@@@@@@@@@@@@@@@@@@@@++$$++oo..OO++oo..%%%%%%&&====&&&&&&&&&&&&&&&&@@%%======&&--==;;oooooooooooooooo@@@@@@@@@@@@@@@@@@@@@@@@oo",
"&&@@@@@@@@@@@@@@@@@@@@++$$++oo..OO++oo..%%%%%%&&====&&&&&&&&&&&&&&&&@@%%======&&--==;;oooooooooooooooo@@@@@@@@@@@@@@@@@@@@@@@@oo",
"&&@@@@@@@@@@oooooooo++$$OO++oo..  OO++  %%%%%%====&&&&&&&&&&&&&&&&====##==&&&&&&--&&--ooOOoooooooooooooo@@@@@@@@@@@@@@@@@@@@@@oo",
"&&@@@@@@@@@@oooooooo++$$OO++oo..  OO++  %%%%%%====&&&&&&&&&&&&&&&&====##==&&&&&&--&&--ooOOoooooooooooooo@@@@@@@@@@@@@@@@@@@@@@oo",
"&&@@@@@@@@oooooo++$$++XX..XXXX    ooOOoo&&&&&&==============&&============&&&&&&--&&--OOOOooooooooooooXXOO@@@@@@@@@@@@@@@@@@@@oo",
"&&@@@@@@@@oooooo++$$++XX..XXXX    ooOOoo&&&&&&==============&&============&&&&&&--&&--OOOOooooooooooooXXOO@@@@@@@@@@@@@@@@@@@@oo",
"@@@@ooooooooXX++++$$++......      ooOO..&&&&&&==========================&&&&&&&&==&&--OOOOooooooooooXXXXXX@@oooooooooooooooooooo",
"@@@@ooooooooXX++++$$++......      ooOO..&&&&&&==========================&&&&&&&&==&&--OOOOooooooooooXXXXXX@@oooooooooooooooooooo",
";;;;;;;;;;;;----;;oooo------==&&&&==&&%%&&&&&&==========================&&&&&&&&==&&--&&&&&&&&&&&&&&%%&&&&;;;;;;;;;;;;;;;;;;;;&&",
";;;;;;;;;;;;----;;oooo------==&&&&==&&%%&&&&&&==========================&&&&&&&&==&&--&&&&&&&&&&&&&&%%&&&&;;;;;;;;;;;;;;;;;;;;&&",
";;==========&&&&==&&oooo%%%%########@@##--==&&======================&&&&&&&&&&%%&&&&--####@@@@@@@@@@@@@@OO@@&&&&&&&&%%========@@",
";;==========&&&&==&&oooo%%%%########@@##--==&&======================&&&&&&&&&&%%&&&&--####@@@@@@@@@@@@@@OO@@&&&&&&&&%%========@@",
";;==========&&&&==&&XX......@@@@@@@@@@##;;==&&======================&&&&&&&&&&%%&&&&--++++ooooooooooooXXoooo%%%%%%%%%%========@@",
";;==========&&&&==&&XX......@@@@@@@@@@##;;==&&======================&&&&&&&&&&%%&&&&--++++ooooooooooooXXoooo%%%%%%%%%%========@@",
";;==========&&&&&&..XXOO%%%%%%%%%%%%%%&&####&&====================&&&&==&&&&%%%%&&%%==####@@@@@@@@@@OOOO@@OO@@&&&&&&%%%%&&&&&&@@",
";;==========&&&&&&..XXOO%%%%%%%%%%%%%%&&####&&====================&&&&==&&&&%%%%&&%%==####@@@@@@@@@@OOOO@@OO@@&&&&&&%%%%&&&&&&@@",
"==&&&&&&&&%%%%==XXXX%%$$oo%%%%%%&&&&&&&&oooo####;;;;;;;;;;;;;;------------==&&====&&==####@@@@@@@@OO@@OOooOOOO%%&&%%&&%%%%%%%%%%",
"==&&&&&&&&%%%%==XXXX%%$$oo%%%%%%&&&&&&&&oooo####;;;;;;;;;;;;;;------------==&&====&&==####@@@@@@@@OO@@OOooOOOO%%&&%%&&%%%%%%%%%%",
";;%%%%%%%%%%%%oooooo&&$$OO&&&&&&&&&&&&&&##oooooooo============&&&&====&&&&&&%%%%&&&&&&@@@@@@@@OOOOOOOOOOooOOOOOO%%&&&&%%======@@",
";;%%%%%%%%%%%%oooooo&&$$OO&&&&&&&&&&&&&&##oooooooo============&&&&====&&&&&&%%%%&&&&&&@@@@@@@@OOOOOOOOOOooOOOOOO%%&&&&%%======@@",
";;==%%==oooooooo&&oo$$++++oo&&&&&&&&&&&&####%%%%########;;;;;;--;;;;------==&&&&======@@OO@@@@@@OOOOooXXXXXXooOO%%%%&&%%======@@",
";;==%%==oooooooo&&oo$$++++oo&&&&&&&&&&&&####%%%%########;;;;;;--;;;;------==&&&&======@@OO@@@@@@OOOOooXXXXXXooOO%%%%&&%%======@@",
";;====%%==&&oo&&&&&&&&++++&&&&&&&&&&&&&&##oooo&&%%================&&&&&&&&%%%%%%&&&&&&@@@@OO@@##OOOOXX..oooo@@OOOO&&&&%%======@@",
";;====%%==&&oo&&&&&&&&++++&&&&&&&&&&&&&&##oooo&&%%================&&&&&&&&%%%%%%&&&&&&@@@@OO@@##OOOOXX..oooo@@OOOO&&&&%%======@@",
";;======%%%%oo%%%%%%%%%%&&%%%%%%%%%%%%%%##ooOO##&&&&&&&&&&&&&&&&&&&&%%%%%%%%%%%%--&&&&@@@@@@@@##%%ooXX######@@@@OO%%&&%%======@@",
";;======%%%%oo%%%%%%%%%%&&%%%%%%%%%%%%%%##ooOO##&&&&&&&&&&&&&&&&&&&&%%%%%%%%%%%%--&&&&@@@@@@@@##%%ooXX######@@@@OO%%&&%%======@@",
";;======================--==============####++;;;;;;;;;;;;;;;;;;;;;;;;;;;;--------&&%%@@@@@@@@####@@oo%%##ooXXOOOOOO&&%%======@@",
";;======================--==============####++;;;;;;;;;;;;;;;;;;;;;;;;;;;;--------&&%%@@@@@@@@####@@oo%%##ooXXOOOOOO&&%%======@@",
";;======================----============;;--==;;;;;;;;;;;;;;;;;;;;;;;;;;;;------==&&%%OO@@@@@@@@####OO@@..XXoo@@OO@@&&%%======@@",
";;======================----============;;--==;;;;;;;;;;;;;;;;;;;;;;;;;;;;------==&&%%OO@@@@@@@@####OO@@..XXoo@@OO@@&&%%======@@",
"oooooooooooooooooooooooooo++++oooooooooo;;==;;;;;;;;;;;;;;;;;;;;;;;;;;;;;;--------&&%%XXoooo$$++oo....      XXXXXXooooooXXoooooo",
"oooooooooooooooooooooooooo++++oooooooooo;;==;;;;;;;;;;;;;;;;;;;;;;;;;;;;;;--------&&%%XXoooo$$++oo....      XXXXXXooooooXXoooooo"
};
