/* XPM */
static char *WALL025[] = {
/* columns rows colors chars-per-pixel */
"128 128 15 1 ",
"  c #080800",
". c #101410",
"X c #181810",
"o c #212018",
"O c #292821",
"+ c #312C21",
"@ c #393821",
"# c #313029",
"$ c #393C29",
"% c #4A4531",
"& c #4A4D39",
"* c #5A5539",
"= c #635D4A",
"- c #636552",
"; c #73715A",
/* pixels */
"&&;;&&++;;;;&&&&&&**;;;;;;;;&&++&&++&&&&&&&&$$&&&&++&&&&&&&&----$$++&&&&&&====&&&&&&&&&&++++&&--;;;;;;--;;&&$$$$&&&&&&++&&&&$$&&",
"&&;;&&++;;;;&&&&&&**;;;;;;;;&&++&&++&&&&&&&&$$&&&&++&&&&&&&&----$$++&&&&&&====&&&&&&&&&&++++&&--;;;;;;--;;&&$$$$&&&&&&++&&&&$$&&",
"--&&&&;;**;;&&&&--==;;;;&&;;&&$$$$$$XXXX++==&&&&&&XX++$$$$$$$$--==$$&&==;;;;&&==&&$$XX&&$$XXXX&&==&&&&$$;;&&++$$$$$$&&--++&&&&++",
"--&&&&;;**;;&&&&--==;;;;&&;;&&$$$$$$XXXX++==&&&&&&XX++$$$$$$$$--==$$&&==;;;;&&==&&$$XX&&$$XXXX&&==&&&&$$;;&&++$$$$$$&&--++&&&&++",
";;&&++;;--;;;;;;;;;;;;;;&&;;**==&&==--$$&&;;==;;;;$$&&$$&&&&--**;;==;;;;;;;;&&;;;;;;**==;;&&&&==;;;;;;++;;&&&&;;;;&&++--$$&&;;;;",
";;&&++;;--;;;;;;;;;;;;;;&&;;**==&&==--$$&&;;==;;;;$$&&$$&&&&--**;;==;;;;;;;;&&;;;;;;**==;;&&&&==;;;;;;++;;&&&&;;;;&&++--$$&&;;;;",
";;==&&==--====**;;==;;;;==;;$$&&$$$$--&&$$$$$$++==$$&&$$&&**==$$++$$&&**;;;;++&&**;;;;$$&&&&&&--;;;;;;&&;;&&&&**&&----&&$$$$;;;;",
";;==&&==--====**;;==;;;;==;;$$&&$$$$--&&$$$$$$++==$$&&$$&&**==$$++$$&&**;;;;++&&**;;;;$$&&&&&&--;;;;;;&&;;&&&&**&&----&&$$$$;;;;",
"--&&&&--&&&&--&&$$$$$$==$$;;&&$$&&++$$&&++++XXXX&&$$&&XXXX++&&XXXX$$$$**;;;;$$&&&&&&;;&&XX++++++==&&--++--&&$$&&$$++&&$$&&$$XX&&",
"--&&&&--&&&&--&&$$$$$$==$$;;&&$$&&++$$&&++++XXXX&&$$&&XXXX++&&XXXX$$$$**;;;;$$&&&&&&;;&&XX++++++==&&--++--&&$$&&$$++&&$$&&$$XX&&",
"&&++..oooooo++++..oooooo++&&&&++oooo..++++oooo..##++&&##++++++++++oo++++$$$$##==++++##++oo++oo##++++&&##++++oo++++++++++oo++++$$",
"&&++..oooooo++++..oooooo++&&&&++oooo..++++oooo..##++&&##++++++++++oo++++$$$$##==++++##++oo++oo##++++&&##++++oo++++++++++oo++++$$",
"##............XX..XX........XXXX..XX........XX  ......    ................XXXXXXXXXXXXXXXXXX............XXXX..XXXXXX..XXXXXXXXXX",
"##............XX..XX........XXXX..XX........XX  ......    ................XXXXXXXXXXXXXXXXXX............XXXX..XXXXXX..XXXXXXXXXX",
"..oooooo....oo%%##%%$$%%OO....$$OOOOoooooooo####oooo      ....  oo$$....  ##;;**%%$$%%==OO%%%%....##OOoo$$**%%$$OO##  $$&&**==;;",
"..oooooo....oo%%##%%$$%%OO....$$OOOOoooooooo####oooo      ....  oo$$....  ##;;**%%$$%%==OO%%%%....##OOoo$$**%%$$OO##  $$&&**==;;",
"##OO##&&##oooo##oo&&##&&$$##$$&&==%%oo##$$oooo####OOoo####OO%%##..oooo&&oo%%;;;;%%;;;;**&&##$$  oooo@@$$oo@@******%%..OO%%****;;",
"##OO##&&##oooo##oo&&##&&$$##$$&&==%%oo##$$oooo####OOoo####OO%%##..oooo&&oo%%;;;;%%;;;;**&&##$$  oooo@@$$oo@@******%%..OO%%****;;",
"&&OOoo$$$$OO..$$..**@@@@&&$$OO@@%%&&oooo@@..##....$$OOOOOO  oo##oo&&  $$%%OO%%;;****==;;$$%%&&  ..oooo&&$$%%@@%%==$$  OO****;;;;",
"&&OOoo$$$$OO..$$..**@@@@&&$$OO@@%%&&oooo@@..##....$$OOOOOO  oo##oo&&  $$%%OO%%;;****==;;$$%%&&  ..oooo&&$$%%@@%%==$$  OO****;;;;",
"##oo..OO##OOoo==..$$&&$$OO####oo$$&&..oo$$  oooo  oo##oo....##oo..&&oooo&&%%$$****&&oo;;%%oo$$  oooo  ..oo..oooo@@OO  oo%%;;@@&&",
"##oo..OO##OOoo==..$$&&$$OO####oo$$&&..oo$$  oooo  oo##oo....##oo..&&oooo&&%%$$****&&oo;;%%oo$$  oooo  ..oo..oooo@@OO  oo%%;;@@&&",
"..      ....oo%%..  ..oooo  ..  ..OOoooo##..          ..        ..##      ......  oo..ooOO##%%                  oo..  oo..##oo  ",
"..      ....oo%%..  ..oooo  ..  ..OOoooo##..          ..        ..##      ......  oo..ooOO##%%                  oo..  oo..##oo  ",
"##oo##$$$$##oo====%%%%****$$$$oo##%%$$##&&$$%%%%&&$$$$%%&&%%&&$$##&&@@@@$$oo$$OO$$##%%##$$==;;&&==$$$$&&&&==&&%%&&&&oo%%oooo$$OO",
"##oo##$$$$##oo====%%%%****$$$$oo##%%$$##&&$$%%%%&&$$$$%%&&%%&&$$##&&@@@@$$oo$$OO$$##%%##$$==;;&&==$$$$&&&&==&&%%&&&&oo%%oooo$$OO",
"oooooo##$$##oo&&==%%$$==%%&&&&%%&&;;%%%%;;;;==;;==&&$$OOoo&&$$##oooo@@%%%%%%##oooo##&&%%##%%%%OO%%&&%%$$&&==@@@@%%==##oo..ooOO$$",
"oooooo##$$##oo&&==%%$$==%%&&&&%%&&;;%%%%;;;;==;;==&&$$OOoo&&$$##oooo@@%%%%%%##oooo##&&%%##%%%%OO%%&&%%$$&&==@@@@%%==##oo..ooOO$$",
"%%....oo..oo..OO%%%%OO$$....##%%OO##%%oooo@@@@%%%%oooo    ##OOoooo$$$$%%**%%oo%%..  ##@@$$@@$$@@OO@@%%......ooOO$$@@@@$$oooooo$$",
"%%....oo..oo..OO%%%%OO$$....##%%OO##%%oooo@@@@%%%%oooo    ##OOoooo$$$$%%**%%oo%%..  ##@@$$@@$$@@OO@@%%......ooOO$$@@@@$$oooooo$$",
"OOoo##%%$$&&OO##====@@&&oo..oo%%%%**%%ooOO;;******@@&&OO##$$$$@@@@%%%%**;;;;..&&&&@@%%;;;;%%**%%@@%%**oo%%..oo&&**;;**%%==@@@@;;",
"OOoo##%%$$&&OO##====@@&&oo..oo%%%%**%%ooOO;;******@@&&OO##$$$$@@@@%%%%**;;;;..&&&&@@%%;;;;%%**%%@@%%**oo%%..oo&&**;;**%%==@@@@;;",
"oo..####OO$$$$OO**;;@@%%OO####%%%%%%;;%%oo@@==&&;;OO&&@@OOOO%%==**@@@@@@%%==oo..##&&@@%%%%OO&&%%@@%%**..##oo  oooo@@%%OO@@OOOO**",
"oo..####OO$$$$OO**;;@@%%OO####%%%%%%;;%%oo@@==&&;;OO&&@@OOOO%%==**@@@@@@%%==oo..##&&@@%%%%OO&&%%@@%%**..##oo  oooo@@%%OO@@OOOO**",
"$$..oo##..  oooo%%%%$$&&oo..oo..ooooOO##..oooooo==oo##@@##oooooo##ooooOO##%%..oo..oo    oooo....  OO**oooooo  ....oo##OOoo..OO%%",
"$$..oo##..  oooo%%%%$$&&oo..oo..ooooOO##..oooooo==oo##@@##oooooo##ooooOO##%%..oo..oo    oooo....  OO**oooooo  ....oo##OOoo..OO%%",
"##oooooooo......oooo..OOOO....oooooooo....oo....OO....oo..  ............ooOO..##  ..oooooooooooo  ..@@OO%%OOoooooooooooooooooooo",
"##oooooooo......oooo..OOOO....oooooooo....oo....OO....oo..  ............ooOO..##  ..oooooooooooo  ..@@OO%%OOoooooooooooooooooooo",
"%%****==%%@@OOOO$$%%%%$$%%oooo##%%######$$====;;==%%oo%%;;&&##%%&&&&$$$$&&==%%====%%$$$$%%@@$$&&%%==;;==;;;;**==;;==$$%%%%@@****",
"%%****==%%@@OOOO$$%%%%$$%%oooo##%%######$$====;;==%%oo%%;;&&##%%&&&&$$$$&&==%%====%%$$$$%%@@$$&&%%==;;==;;;;**==;;==$$%%%%@@****",
"ooooooOOoo........OO@@oooooo    ..      ..ooOO%%**@@@@ooOO%%oo  ooOO..oo..OO$$OO@@$$oooo  oo%%ooOO%%%%**$$%%OO$$**@@..oooooooooo",
"ooooooOOoo........OO@@oooooo    ..      ..ooOO%%**@@@@ooOO%%oo  ooOO..oo..OO$$OO@@$$oooo  oo%%ooOO%%%%**$$%%OO$$**@@..oooooooooo",
"==%%OO%%==@@######&&**==##OO&&&&&&$$......    %%;;;;**;;@@$$;;@@oo%%oo&&&&$$**$$..&&;;;;&&oo&&@@%%%%%%%%@@**;;%%;;**##&&OO&&&&**",
"==%%OO%%==@@######&&**==##OO&&&&&&$$......    %%;;;;**;;@@$$;;@@oo%%oo&&&&$$**$$..&&;;;;&&oo&&@@%%%%%%%%@@**;;%%;;**##&&OO&&&&**",
"**%%$$OO==OOoo##..$$@@@@==OOooOO@@==oooooo  ooOO%%@@oo%%==$$==%%oo##..OOOO$$%%OOoooo@@@@%%OO$$oo@@%%%%**%%@@%%OO;;;;oo$$oo$$@@@@",
"**%%$$OO==OOoo##..$$@@@@==OOooOO@@==oooooo  ooOO%%@@oo%%==$$==%%oo##..OOOO$$%%OOoooo@@@@%%OO$$oo@@%%%%**%%@@%%OO;;;;oo$$oo$$@@@@",
"%%%%....&&oooo##  OO$$OO%%$$ooooOO%%##oo##  ##OO&&&&OO..##$$&&@@oo##  ..OOOO@@OO..oo$$%%OOoo%%ooOO$$@@@@%%**$$oo##%%oooooo@@OOoo",
"%%%%....&&oooo##  OO$$OO%%$$ooooOO%%##oo##  ##OO&&&&OO..##$$&&@@oo##  ..OOOO@@OO..oo$$%%OOoo%%ooOO$$@@@@%%**$$oo##%%oooooo@@OOoo",
"  ..    oo..oo##        ..oo  ..  ..  ..oo        ..  ..    oooooo%%    ....  ..      ........  ......    ..oooo..  ##%%  ..    ",
"  ..    oo..oo##        ..oo  ..  ..  ..oo        ..  ..    oooooo%%    ....  ..      ........  ......    ..oooo..  ##%%  ..    ",
"ooOOOOOOOO%%%%&&$$$$$$@@%%&&==$$OOoo##OO$$##oo##&&%%%%&&%%%%&&%%%%%%oo$$&&%%##%%%%&&%%%%%%$$$$##%%##%%%%OOOO$$oo$$&&##==&&%%&&&&",
"ooOOOOOOOO%%%%&&$$$$$$@@%%&&==$$OOoo##OO$$##oo##&&%%%%&&%%%%&&%%%%%%oo$$&&%%##%%%%&&%%%%%%$$$$##%%##%%%%OOOO$$oo$$&&##==&&%%&&&&",
"..oooooooooo..####OO$$$$##oo==;;;;==****%%****;;;;&&$$%%$$OO$$&&&&;;;;==;;;;%%====;;;;%%&&==&&$$$$&&$$##oo..##oooooooooo$$@@OO##",
"..oooooooooo..####OO$$$$##oo==;;;;==****%%****;;;;&&$$%%$$OO$$&&&&;;;;==;;;;%%====;;;;%%&&==&&$$$$&&$$##oo..##oooooooooo$$@@OO##",
"##..ooooOO%%OO..##OOOOOO....OO**;;**;;;;;;****;;;;%%##$$ooOOooooOO$$$$%%%%&&....oo@@%%%%@@%%%%%%@@##oo..##oooooooooo##oooo####OO",
"##..ooooOO%%OO..##OOOOOO....OO**;;**;;;;;;****;;;;%%##$$ooOOooooOO$$$$%%%%&&....oo@@%%%%@@%%%%%%@@##oo..##oooooooooo##oooo####OO",
"%%oo&&**%%@@&&OO@@%%%%;;OOooOO**;;******;;;;;;**;;%%OO$$******@@$$OOOO==;;%%oooo##$$%%******==;;;;;;**..%%oo##@@@@%%$$%%OO%%%%**",
"%%oo&&**%%@@&&OO@@%%%%;;OOooOO**;;******;;;;;;**;;%%OO$$******@@$$OOOO==;;%%oooo##$$%%******==;;;;;;**..%%oo##@@@@%%$$%%OO%%%%**",
"##..oo%%%%oooooo  oo@@%%oooooo%%**@@@@%%@@@@@@;;**OOOOooOO@@%%@@@@%%oo..%%**oooooooo&&**@@ooooOO%%%%==oooo  oo##@@$$oooo..oo@@==",
"##..oo%%%%oooooo  oo@@%%oooooo%%**@@@@%%@@@@@@;;**OOOOooOO@@%%@@@@%%oo..%%**oooooooo&&**@@ooooOO%%%%==oooo  oo##@@$$oooo..oo@@==",
"..    ..oooo..oo..  ..OO..  ..ooOOooooOOoo    $$==..##oo  ..  oooooo##....OO..oo..  ..oooo##..  oo  oooo....    ....oo..    ..$$",
"..    ..oooo..oo..  ..OO..  ..ooOOooooOOoo    $$==..##oo  ..  oooooo##....OO..oo..  ..oooo##..  oo  oooo....    ....oo..    ..$$",
"oooooooo..    ....  ..OO..oo..ooOOoo      ....  $$oo####oooooo##oo....oo..oo..##OOoo........    ..##oooooooo##ooOOOOoooooooooo##",
"oooooooo..    ....  ..OO..oo..ooOOoo      ....  $$oo####oooooo##oo....oo..oo..##OOoo........    ..##oooooooo##ooOOOOoooooooooo##",
"##%%%%====%%##&&==$$%%;;==####%%==%%$$oo..$$%%$$==&&%%%%&&&&$$&&====;;;;;;;;====;;;;;;==&&$$%%&&%%==;;==&&$$==&&==;;====;;;;==;;",
"##%%%%====%%##&&==$$%%;;==####%%==%%$$oo..$$%%$$==&&%%%%&&&&$$&&====;;;;;;;;====;;;;;;==&&$$%%&&%%==;;==&&$$==&&==;;====;;;;==;;",
"......oo$$##..%%==**OO@@**@@..  oo@@%%%%oo  oooo$$##  ....oo..  ..##%%%%;;;;**==;;;;;;;;&&####@@%%@@@@OOOOoo......oooo&&%%**@@**",
"......oo$$##..%%==**OO@@**@@..  oo@@%%%%oo  oooo$$##  ....oo..  ..##%%%%;;;;**==;;;;;;;;&&####@@%%@@@@OOOOoo......oooo&&%%**@@**",
"%%oo..%%==##..oo$$**&&%%**;;**&&****%%&&$$  oooooo%%OOOO##$$%%##  ooOO@@;;;;%%%%@@****;;%%..oooo$$%%%%$$@@@@**@@$$##..$$%%;;**;;",
"%%oo..%%==##..oo$$**&&%%**;;**&&****%%&&$$  oooooo%%OOOO##$$%%##  ooOO@@;;;;%%%%@@****;;%%..oooo$$%%%%$$@@@@**@@$$##..$$%%;;**;;",
"&&%%OO@@%%%%  oooo@@%%******;;******$$oo$$..oo$$$$oo##ooooooOOOO  oooo&&;;**;;**%%;;;;;;%%OO....OO@@OO@@%%OO@@%%@@%%  ..OO**%%;;",
"&&%%OO@@%%%%  oooo@@%%******;;******$$oo$$..oo$$$$oo##ooooooOOOO  oooo&&;;**;;**%%;;;;;;%%OO....OO@@OO@@%%OO@@%%@@%%  ..OO**%%;;",
"ooooooooOOoo  ..ooooooOO##oo##%%%%%%OOoooo..oooo&&$$  ooooOO%%OOoo##  ##OO==@@$$==**%%;;$$OO$$  ooOO%%@@$$OOooOO%%$$..  ..$$OOoo",
"ooooooooOOoo  ..ooooooOO##oo##%%%%%%OOoooo..oooo&&$$  ooooOO%%OOoo##  ##OO==@@$$==**%%;;$$OO$$  ooOO%%@@$$OOooOO%%$$..  ..$$OOoo",
"        oo....oo      ....    ..OOoo..oo%%        oo        ..oo  ##      oooo    oo..OO####%%                  oooooo%%  oo....",
"        oo....oo      ....    ..OOoo..oo%%        oo        ..oo  ##      oooo    oo..OO####%%                  oooooo%%  oo....",
"oooo####%%##oo%%ooooOOooOO##oooo@@@@oooo$$%%OOOO%%@@%%%%%%&&&&$$##&&%%@@OOOO##..ooOO$$%%$$##&&****&&&&@@OO@@$$%%%%OO##&&%%@@%%%%",
"oooo####%%##oo%%ooooOOooOO##oooo@@@@oooo$$%%OOOO%%@@%%%%%%&&&&$$##&&%%@@OOOO##..ooOO$$%%$$##&&****&&&&@@OO@@$$%%%%OO##&&%%@@%%%%",
"oooo##OO$$##..  ..##oooooo%%oo..oooo..  ..oooo..oooo$$&&**;;;;**==$$&&==**;;%%..oo##%%&&&&$$%%;;;;;;;;$$ooOO%%%%@@%%$$@@$$%%$$%%",
"oooo##OO$$##..  ..##oooooo%%oo..oooo..  ..oooo..oooo$$&&**;;;;**==$$&&==**;;%%..oo##%%&&&&$$%%;;;;;;;;$$ooOO%%%%@@%%$$@@$$%%$$%%",
"%%..ooOO%%@@ooOOooOO%%&&oo$$OOOOOO%%$$$$OOOOoooo##..ooOO%%**%%;;;;;;$$%%%%;;%%&&oooo@@%%**$$oo%%**@@@@oo##..  ##$$@@@@%%@@@@@@@@",
"%%..ooOO%%@@ooOOooOO%%&&oo$$OOOOOO%%$$$$OOOOoooo##..ooOO%%**%%;;;;;;$$%%%%;;%%&&oooo@@%%**$$oo%%**@@@@oo##..  ##$$@@@@%%@@@@@@@@",
"&&ooOOOO@@%%%%$$%%@@$$&&OO&&@@%%OO@@**%%@@%%oo@@==ooOO$$%%;;**;;;;**;;****;;@@..OO@@oo%%%%**OOOO******..##....oo$$%%%%%%**%%%%==",
"&&ooOOOO@@%%%%$$%%@@$$&&OO&&@@%%OO@@**%%@@%%oo@@==ooOO$$%%;;**;;;;**;;****;;@@..OO@@oo%%%%**OOOO******..##....oo$$%%%%%%**%%%%==",
"%%OOOO##oo&&OO$$@@@@OO%%oo&&$$%%OO  @@$$oo==%%@@@@..==OO$$**;;;;;;%%****;;;;**&&oo$$%%@@oo@@==oooo%%**oo$$oo##%%@@@@OOOO%%****;;",
"%%OOOO##oo&&OO$$@@@@OO%%oo&&$$%%OO  @@$$oo==%%@@@@..==OO$$**;;;;;;%%****;;;;**&&oo$$%%@@oo@@==oooo%%**oo$$oo##%%@@@@OOOO%%****;;",
"oo..  ..  ......##oooo$$..%%ooooOO  ..oo  ooOO##$$  ##oo..$$oooo@@@@oo%%%%;;$$OOoo..$$%%oo  ####..oo&&oo$$oo......      ooooOO$$",
"oo..  ..  ......##oooo$$..%%ooooOO  ..oo  ooOO##$$  ##oo..$$oooo@@@@oo%%%%;;$$OOoo..$$%%oo  ####..oo&&oo$$oo......      ooooOO$$",
"oooo......  ....  ....oo..$$##............  ....oo  ..oo..oooo            oooooooo  ooOOoo  ....oooooo..##oo..oo..............oo",
"oooo......  ....  ....oo..$$##............  ....oo  ..oo..oooo            oooooooo  ooOOoo  ....oooooo..##oo..oo..............oo",
"&&==&&&&&&##$$&&&&==&&==========;;;;&&##$$==%%&&====##&&&&$$$$##oo..%%$$$$&&%%%%====**;;;;OO##%%**&&$$##%%&&%%&&&&&&&&==**======",
"&&==&&&&&&##$$&&&&==&&==========;;;;&&##$$==%%&&====##&&&&$$$$##oo..%%$$$$&&%%%%====**;;;;OO##%%**&&$$##%%&&%%&&&&&&&&==**======",
"oooooooo##oo  ooOO%%@@%%&&OOOO..oo$$oooo..ooOO..####oooo$$@@oo  ....oo##%%**%%OO@@$$oo##%%##..oo@@OOoo##..oo..  ......##ooOO@@OO",
"oooooooo##oo  ooOO%%@@%%&&OOOO..oo$$oooo..ooOO..####oooo$$@@oo  ....oo##%%**%%OO@@$$oo##%%##..oo@@OOoo##..oo..  ......##ooOO@@OO",
"##oo##oo####  ..oo**@@$$==&&$$%%$$%%OOoooo  ooooOO$$  ooOO%%$$OOoo##..ooOO%%%%**OO@@&&&&OOooOO  OO@@OO@@$$$$&&$$oo....##OO;;%%;;",
"##oo##oo####  ..oo**@@$$==&&$$%%$$%%OOoooo  ooooOO$$  ooOO%%$$OOoo##..ooOO%%%%**OO@@&&&&OOooOO  OO@@OO@@$$$$&&$$oo....##OO;;%%;;",
"&&##$$OO$$OO..oooo==%%OO@@&&**%%**;;;;$$OOOOoo%%%%@@OOoo..OO%%OO..%%oo$$%%@@OO%%&&OO$$==##oo$$..oo@@@@@@%%%%%%%%&&oo  $$$$==%%**",
"&&##$$OO$$OO..oooo==%%OO@@&&**%%**;;;;$$OOOOoo%%%%@@OOoo..OO%%OO..%%oo$$%%@@OO%%&&OO$$==##oo$$..oo@@@@@@%%%%%%%%&&oo  $$$$==%%**",
"&&oo##OO$$oooooo..oooooo..oo$$OOoo##$$%%oo......####..oo....OOoo..oooo$$%%OO$$######OO&&oo..oo  ....oooooooo....%%oo..##OO&&%%OO",
"&&oo##OO$$oooooo..oooooo..oo$$OOoo##$$%%oo......####..oo....OOoo..oooo$$%%OO$$######OO&&oo..oo  ....oooooooo....%%oo..##OO&&%%OO",
"....    ....oo##..oo  ..    ..        oooo..      ..          ....oo  ..    ....      OOOOoo..                  ........  ..oo..",
"....    ....oo##..oo  ..    ..        oooo..      ..          ....oo  ..    ....      OOOOoo..                  ........  ..oo..",
"$$@@$$%%&&%%%%==%%==**@@$$####OO$$$$%%%%==%%OOoo@@####oooo####oooo%%@@OOOO$$####%%%%%%%%&&&&&&%%&&====%%$$%%OOOO==&&%%%%oo##$$$$",
"$$@@$$%%&&%%%%==%%==**@@$$####OO$$$$%%%%==%%OOoo@@####oooo####oooo%%@@OOOO$$####%%%%%%%%&&&&&&%%&&====%%$$%%OOOO==&&%%%%oo##$$$$",
"##oo%%$$%%&&##OOOOOO**%%oo##oooooooooo##oo$$oo  ....oooo..oo%%..  ####....oooo##****;;;;==%%&&==;;&&==$$##&&;;%%%%==%%##..%%;;%%",
"##oo%%$$%%&&##OOOOOO**%%oo##oooooooooo##oo$$oo  ....oooo..oo%%..  ####....oooo##****;;;;==%%&&==;;&&==$$##&&;;%%%%==%%##..%%;;%%",
"##..ooOO$$$$OOoooo@@%%%%oo##....ooOOooooooOO##oo..  oo..%%OO%%%%oooo&&$$##oo  oo%%%%;;**@@@@oo%%**%%%%OO..  ooOO@@%%%%OOoo%%;;==",
"##..ooOO$$$$OOoooo@@%%%%oo##....ooOOooooooOO##oo..  oo..%%OO%%%%oooo&&$$##oo  oo%%%%;;**@@@@oo%%**%%%%OO..  ooOO@@%%%%OOoo%%;;==",
"&&OO$$@@$$==@@oo&&****;;@@&&OO$$@@%%%%@@$$%%$$%%OO..##..oo@@@@$$@@%%****&&==....$$@@@@**;;;;%%@@%%**;;OO%%..OO$$OO;;**$$%%%%**;;",
"&&OO$$@@$$==@@oo&&****;;@@&&OO$$@@%%%%@@$$%%$$%%OO..##..oo@@@@$$@@%%****&&==....$$@@@@**;;;;%%@@%%**;;OO%%..OO$$OO;;**$$%%%%**;;",
"oooo%%%%@@@@&&$$@@@@%%==@@&&##$$$$%%$$OOoo@@oo@@&&..%%..oooo####$$OO@@OOOO&&....$$%%%%$$==%%==%%**%%**oo&&&&@@==%%**;;@@@@@@@@&&",
"oooo%%%%@@@@&&$$@@@@%%==@@&&##$$$$%%$$OOoo@@oo@@&&..%%..oooo####$$OO@@OOOO&&....$$%%%%$$==%%==%%**%%**oo&&&&@@==%%**;;@@@@@@@@&&",
"..  ..%%oo..oo%%$$OO..%%oo....oooo##OOoooooo..oo%%oo%%..%%&&..  ..oo##oooo##  oo..##%%oooooo..oo$$&&==##oo$$oo##OO@@OOoo@@%%$$&&",
"..  ..%%oo..oo%%$$OO..%%oo....oooo##OOoooooo..oo%%oo%%..%%&&..  ..oo##oooo##  oo..##%%oooooo..oo$$&&==##oo$$oo##OO@@OOoo@@%%$$&&",
"oooooo....oo    ......oooo..oooo    oo....oo........%%oo..##oo..........oooo  oo................  ..oooo      ............oooooo",
"oooooo....oo    ......oooo..oooo    oo....oo........%%oo..##oo..........oooo  oo................  ..oooo      ............oooooo",
"------==--;;;;----;;;;;;;;==--;;==&&==----;;;;;;;;;;;;;;;;;;;;;;;;--==--;;;;;;$$$$--;;--&&====--==$$--;;--====--;;------;;;;;;--",
"------==--;;;;----;;;;;;;;==--;;==&&==----;;;;;;;;;;;;;;;;;;;;;;;;--==--;;;;;;$$$$--;;--&&====--==$$--;;--====--;;------;;;;;;--",
"&&$$++++XXXX==--&&&&&&==&&&&$$$$$$&&++$$&&$$$$&&==;;----;;;;----$$==$$$$$$==;;;;&&$$&&--&&++++&&&&++$$==$$++&&&&&&&&++$$&&----$$",
"&&$$++++XXXX==--&&&&&&==&&&&$$$$$$&&++$$&&$$$$&&==;;----;;;;----$$==$$$$$$==;;;;&&$$&&--&&++++&&&&++$$==$$++&&&&&&&&++$$&&----$$",
"--------====&&$$==;;==--;;;;;;;;&&--$$XX&&&&&&&&==--;;;;;;;;--&&++&&--;;;;--&&&&==&&--;;;;$$&&&&$$--;;;;;;====--;;==++&&==;;----",
"--------====&&$$==;;==--;;;;;;;;&&--$$XX&&&&&&&&==--;;;;;;;;--&&++&&--;;;;--&&&&==&&--;;;;$$&&&&$$--;;;;;;====--;;==++&&==;;----",
";;==--==;;--&&&&XX--====&&&&;;;;&&==$$++$$++&&&&--====&&&&==;;--++$$&&&&$$==&&$$&&====;;--++--&&&&$$--==;;;;==&&;;==$$&&$$;;&&$$",
";;==--==;;--&&&&XX--====&&&&;;;;&&==$$++$$++&&&&--====&&&&==;;--++$$&&&&$$==&&$$&&====;;--++--&&&&$$--==;;;;==&&;;==$$&&$$;;&&$$",
"&&==&&++====++&&XX&&==----$$&&--====&&$$==++++++&&--==--;;;;;;&&++&&&&====++$$$$&&&&&&----XX==$$&&++++&&$$$$&&$$----&&==$$--;;;;",
"&&==&&++====++&&XX&&==----$$&&--====&&$$==++++++&&--==--;;;;;;&&++&&&&====++$$$$&&&&&&----XX==$$&&++++&&$$$$&&$$----&&==$$--;;;;",
"XX$$++XXXX++++&&++XXXXXXXXXXXXXX++++++++++XXXXXXXXXX++XXXX++&&==&&XXXXXX++XXXXXXXXXXXXXX++XX&&XX++$$XX&&++XXXXXX++==$$&&XXXX++&&",
"XX$$++XXXX++++&&++XXXXXXXXXXXXXX++++++++++XXXXXXXXXX++XXXX++&&==&&XXXXXX++XXXXXXXXXXXXXX++XX&&XX++$$XX&&++XXXXXX++==$$&&XXXX++&&"
};
