/* XPM */
static char *WALL029[] = {
/* columns rows colors chars-per-pixel */
"128 128 14 1 ",
"  c black",
". c #080000",
"X c #182421",
"o c #293439",
"O c #313C42",
"+ c #39454A",
"@ c #394952",
"# c #4A5D63",
"$ c #525D63",
"% c #4A6163",
"& c #5A6973",
"* c #63757B",
"= c #00AEFF",
"- c #8C8A8C",
/* pixels */
"##%%%%%%%%%%%%%%%%%%%%%%%%%%%%%%%%%%%%%%%%%%%%%%%%%%%%%%%%%%%%%%%%%%%%%%%%%%%%%%%%%%%%%%%%%%%%%%%%%%%%%%%%%%%%%%@@%%%%%%%%%%%%XX",
"##%%%%%%%%%%%%%%%%%%%%%%%%%%%%%%%%%%%%%%%%%%%%%%%%%%%%%%%%%%%%%%%%%%%%%%%%%%%%%%%%%%%%%%%%%%%%%%%%%%%%%%%%%%%%%%@@%%%%%%%%%%%%XX",
"%%%%@@@@%%%%%%%%%%%%@@@@@@%%%%@@@@%%%%%%%%%%%%%%%%%%%%%%@@@@@@@@@@@@@@@@@@@@@@%%%%%%%%%%%%@@@@@@@@@@%%%%%%%%%%%%@@%%@@@@%%%%%%XX",
"%%%%@@@@%%%%%%%%%%%%@@@@@@%%%%@@@@%%%%%%%%%%%%%%%%%%%%%%@@@@@@@@@@@@@@@@@@@@@@%%%%%%%%%%%%@@@@@@@@@@%%%%%%%%%%%%@@%%@@@@%%%%%%XX",
"XXXXXXXXXXXXXXXXXXXXXXXXXXXXXXXXXXXXXXXXXXXXXXXXXXXXXXXXXXXXXXXXXXXXXXXXXXXXXXXXXXXXXXXXXXXXXXXXXXXXXXXXXXXXXXXXXXXXXXXXXXXXXXXX",
"XXXXXXXXXXXXXXXXXXXXXXXXXXXXXXXXXXXXXXXXXXXXXXXXXXXXXXXXXXXXXXXXXXXXXXXXXXXXXXXXXXXXXXXXXXXXXXXXXXXXXXXXXXXXXXXXXXXXXXXXXXXXXXXX",
"----------------------------------******--------------------**XX----------------------------------******--------------------**XX",
"----------------------------------******--------------------**XX----------------------------------******--------------------**XX",
"--%%%%%%%%%%%%%%%%%%%%%%%%%%%%%%$$****$$********************$$XX--%%%%%%%%%%%%%%%%%%%%%%%%%%%%%%$$****$$********************$$XX",
"--%%%%%%%%%%%%%%%%%%%%%%%%%%%%%%$$****$$********************$$XX--%%%%%%%%%%%%%%%%%%%%%%%%%%%%%%$$****$$********************$$XX",
"--%%++++++++++++++++++++++++++++$$****$$****$$**$$++$$++++**$$XX--%%++++++++++++++++++++++++++++$$****$$****$$++$$$$++$$****$$XX",
"--%%++++++++++++++++++++++++++++$$****$$****$$**$$++$$++++**$$XX--%%++++++++++++++++++++++++++++$$****$$****$$++$$$$++$$****$$XX",
"--$$++************************++$$****$$********************$$XX--$$++$$**********************++$$****$$********************$$XX",
"--$$++************************++$$****$$********************$$XX--$$++$$**********************++$$****$$********************$$XX",
"--$$++$$$$$$$$$$$$$$$$$$$$$$$$++$$****$$************$$++++**$$XX--$$++$$$$$$$$$$$$$$$$$$$$$$$$++$$****$$**********$$$$++****$$XX",
"--$$++$$$$$$$$$$$$$$$$$$$$$$$$++$$****$$************$$++++**$$XX--$$++$$$$$$$$$$$$$$$$$$$$$$$$++$$****$$**********$$$$++****$$XX",
"--%%++++++++++++++++++++++++++++$$****$$********************$$XX--%%++++++++++++++++++++++++++++$$****$$********************$$XX",
"--%%++++++++++++++++++++++++++++$$****$$********************$$XX--%%++++++++++++++++++++++++++++$$****$$********************$$XX",
"--$$$$$$$$$$$$$$$$$$$$$$$$$$$$$$$$****$$********************$$XX--$$$$$$$$$$$$$$$$$$$$$$$$$$$$$$$$****$$********************$$XX",
"--$$$$$$$$$$$$$$$$$$$$$$$$$$$$$$$$****$$********************$$XX--$$$$$$$$$$$$$$$$$$$$$$$$$$$$$$$$****$$********************$$XX",
"--$$****************************************************$$$$$$XX--$$****************************************************$$$$$$XX",
"--$$****************************************************$$$$$$XX--$$****************************************************$$$$$$XX",
"--$$$$$$$$$$$$$$$$$$$$$$$$$$$$$$$$$$$$$$****************++$$$$XX--$$****************************************************++$$$$XX",
"--$$$$$$$$$$$$$$$$$$$$$$$$$$$$$$$$$$$$$$****************++$$$$XX--$$****************************************************++$$$$XX",
"--%%****--**&&************************$$********--**&&**++$$$$XX--%%****--**&&******************XX**XX**$$XX$$**++XX****++$$$$XX",
"--%%****--**&&************************$$********--**&&**++$$$$XX--%%****--**&&******************XX**XX**$$XX$$**++XX****++$$$$XX",
"--$$******&&&&************************$$**********&&&&**++$$$$XX--$$******&&&&******************XX**XX**XX++XX**XX******++$$$$XX",
"--$$******&&&&************************$$**********&&&&**++$$$$XX--$$******&&&&******************XX**XX**XX++XX**XX******++$$$$XX",
"--$$****&&&&&&************************$$********&&&&&&**++$$$$XX--$$****&&&&&&******************++XX++**XX**XX**++XX****++$$$$XX",
"--$$****&&&&&&************************$$********&&&&&&**++$$$$XX--$$****&&&&&&******************++XX++**XX**XX**++XX****++$$$$XX",
"--$$**********************************$$****************++$$$$XX--$$****************************************************++$$$$XX",
"--$$**********************************$$****************++$$$$XX--$$****************************************************++$$$$XX",
"--%%**********************************$$****************++$$$$XX--%%****************************************************++$$$$XX",
"--%%**********************************$$****************++$$$$XX--%%****************************************************++$$$$XX",
"--$$**********************************$$****************++$$$$XX--$$****************************************************++$$$$XX",
"--$$**********************************$$****************++$$$$XX--$$****************************************************++$$$$XX",
"--$$**********************************$$****************++$$$$XX--$$****************************************************++$$$$XX",
"--$$**********************************$$****************++$$$$XX--$$****************************************************++$$$$XX",
"--$$**********************************$$****************++$$$$XX--$$****************************************************++$$$$XX",
"--$$**********************************$$****************++$$$$XX--$$****************************************************++$$$$XX",
"--%%**********************************$$****************++$$$$XX--%%****************************************************++$$$$XX",
"--%%**********************************$$****************++$$$$XX--%%****************************************************++$$$$XX",
"--$$**********************************$$****************++$$$$XX--$$****************************************************++$$$$XX",
"--$$**********************************$$****************++$$$$XX--$$****************************************************++$$$$XX",
"--$$**********************************$$****************++$$$$XX--$$****************************************************++$$$$XX",
"--$$**********************************$$****************++$$$$XX--$$****************************************************++$$$$XX",
"--$$**********************************$$****************++$$$$XX--$$****************************************************++$$$$XX",
"--$$**********************************$$****************++$$$$XX--$$****************************************************++$$$$XX",
"--%%**********************************$$****************++$$$$XX--%%****************************************************++$$$$XX",
"--%%**********************************$$****************++$$$$XX--%%****************************************************++$$$$XX",
"--$$**********************************$$****************++$$$$XX--$$****************************************************++$$$$XX",
"--$$**********************************$$****************++$$$$XX--$$****************************************************++$$$$XX",
"--$$**********************************$$****************++$$$$XX--$$****************************************************++$$$$XX",
"--$$**********************************$$****************++$$$$XX--$$****************************************************++$$$$XX",
"--$$**********************************$$****************++$$$$XX--$$****************************************************++$$$$XX",
"--$$**********************************$$****************++$$$$XX--$$****************************************************++$$$$XX",
"--%%**********************************$$****************++$$$$XX--%%****************************************************++$$$$XX",
"--%%**********************************$$****************++$$$$XX--%%****************************************************++$$$$XX",
"--$$**********************************$$****************++$$$$XX--$$****************************************************++$$$$XX",
"--$$**********************************$$****************++$$$$XX--$$****************************************************++$$$$XX",
"--$$**********************************$$****************++$$$$XX--$$****************************************************++$$$$XX",
"--$$**********************************$$****************++$$$$XX--$$****************************************************++$$$$XX",
"--$$**********************************$$****************++$$$$XX--$$****************************************************++$$$$XX",
"--$$**********************************$$****************++$$$$XX--$$****************************************************++$$$$XX",
"--%%**********************************$$****************++$$$$XX--%%****************************************************++$$$$XX",
"--%%**********************************$$****************++$$$$XX--%%****************************************************++$$$$XX",
"--$$**********************************$$****************++$$$$XX--$$****************************************************++$$$$XX",
"--$$**********************************$$****************++$$$$XX--$$****************************************************++$$$$XX",
"--$$**********************************$$****************++$$$$XX--$$****************************************************++$$$$XX",
"--$$**********************************$$****************++$$$$XX--$$****************************************************++$$$$XX",
"--$$****--**&&************************$$********--**&&**++$$$$XX--$$****--**&&**********************************--**&&**++$$$$XX",
"--$$****--**&&************************$$********--**&&**++$$$$XX--$$****--**&&**********************************--**&&**++$$$$XX",
"--%%******&&&&************************$$**********&&&&**++$$$$XX--%%******&&&&************************************&&&&**++$$$$XX",
"--%%******&&&&************************$$**********&&&&**++$$$$XX--%%******&&&&************************************&&&&**++$$$$XX",
"--$$****&&&&&&************************$$********&&&&&&**++$$$$XX--$$****&&&&&&**********************************&&&&&&**++$$$$XX",
"--$$****&&&&&&************************$$********&&&&&&**++$$$$XX--$$****&&&&&&**********************************&&&&&&**++$$$$XX",
"--$$**********************************$$****************++$$$$XX--$$****************************************************++$$$$XX",
"--$$**********************************$$****************++$$$$XX--$$****************************************************++$$$$XX",
"--$$$$++++++++++++++++++++++++++++++++++++++++++++++++++++$$$$XX--$$$$++++++++++++++++++++++++++++++++++++++++++++++++++++$$$$XX",
"--$$$$++++++++++++++++++++++++++++++++++++++++++++++++++++$$$$XX--$$$$++++++++++++++++++++++++++++++++++++++++++++++++++++$$$$XX",
"--%%$$$$$$$$$$$$$$$$$$$$$$$$$$$$$$$$$$$$$$$$$$$$$$$$++$$$$**$$XX--%%$$$$$$$$$$$$$$$$$$$$$$$$OOOOOOOOOOOOOOOOOOOOOOOOOOOOOOOO$$XX",
"--%%$$$$$$$$$$$$$$$$$$$$$$$$$$$$$$$$$$$$$$$$$$$$$$$$++$$$$**$$XX--%%$$$$$$$$$$$$$$$$$$$$$$$$OOOOOOOOOOOOOOOOOOOOOOOOOOOOOOOO$$XX",
"--$$++++++$$$$XXXXXXXXXXXXoo++++++++++++++++++++++++$$$$****$$XX--$$++++++$$$$++++++$$$$++++++$$OO**$$$$$$$$$$$$$$$$$$$$$$OO$$XX",
"--$$++++++$$$$XXXXXXXXXXXXoo++++++++++++++++++++++++$$$$****$$XX--$$++++++$$$$++++++$$$$++++++$$OO**$$$$$$$$$$$$$$$$$$$$$$OO$$XX",
"--$$++    $$$$XX==XX==XX==**$$$$$$$$$$$$$$$$$$$$++$$$$****@@$$XX--$$++    $$$$++    $$$$++    $$OOOOOOOOOOOOOOOOOOOOOOOOOOOO$$XX",
"--$$++    $$$$XX==XX==XX==**$$$$$$$$$$$$$$$$$$$$++$$$$****@@$$XX--$$++    $$$$++    $$$$++    $$OOOOOOOOOOOOOOOOOOOOOOOOOOOO$$XX",
"--$$++XXXX$$$$XX==XX==XX==**$$$$$$$$$$$$$$$$$$++$$$$****@@oo$$XX--$$++XXXX$$$$++XXXX$$$$++XXXX$$OO**$$$$$$$$$$$$$$$$$$$$$$OO$$XX",
"--$$++XXXX$$$$XX==XX==XX==**$$$$$$$$$$$$$$$$$$++$$$$****@@oo$$XX--$$++XXXX$$$$++XXXX$$$$++XXXX$$OO**$$$$$$$$$$$$$$$$$$$$$$OO$$XX",
"--%%++XXXX$$$$XXOOXXOOXXOO**$$$$$$$$$$$$$$$$++$$$$****@@oo++$$XX--%%++XXXX$$$$++XXXX$$$$++XXXX$$OOOOOOOOOOOOOOOOOOOOOOOOOOOO$$XX",
"--%%++XXXX$$$$XXOOXXOOXXOO**$$$$$$$$$$$$$$$$++$$$$****@@oo++$$XX--%%++XXXX$$$$++XXXX$$$$++XXXX$$OOOOOOOOOOOOOOOOOOOOOOOOOOOO$$XX",
"--$$++XXXX$$$$XX**XX**XX****$$$$$$$$$$$$$$++$$$$****@@oo++@@$$XX--$$++XXXX$$$$++XXXX$$$$++XXXX$$OO**$$$$$$$$$$$$$$$$$$$$$$OO$$XX",
"--$$++XXXX$$$$XX**XX**XX****$$$$$$$$$$$$$$++$$$$****@@oo++@@$$XX--$$++XXXX$$$$++XXXX$$$$++XXXX$$OO**$$$$$$$$$$$$$$$$$$$$$$OO$$XX",
"--$$++XXXX$$$$oo************$$$$$$$$$$$$++$$$$****@@oo++@@@@$$XX--$$++XXXX$$$$++XXXX$$$$++XXXX$$OOOOOOOOOOOOOOOOOOOOOOOOOOOO$$XX",
"--$$++XXXX$$$$oo************$$$$$$$$$$$$++$$$$****@@oo++@@@@$$XX--$$++XXXX$$$$++XXXX$$$$++XXXX$$OOOOOOOOOOOOOOOOOOOOOOOOOOOO$$XX",
"--$$++XXXX$$++++++++++++++++++++++++++++$$$$****@@oo++@@@@@@$$XX--$$++XXXX$$$$++XXXX$$$$++XXXX$$OO**$$$$$$$$$$$$$$$$$$$$$$OO$$XX",
"--$$++XXXX$$++++++++++++++++++++++++++++$$$$****@@oo++@@@@@@$$XX--$$++XXXX$$$$++XXXX$$$$++XXXX$$OO**$$$$$$$$$$$$$$$$$$$$$$OO$$XX",
"--%%++XXXX$$$$$$$$$$$$$$$$$$$$$$$$$$$$$$$$****@@oo++@@..@@..$$XX--%%++XXXX$$$$++XXXX$$$$++XXXX$$OOOOOOOOOOOOOOOOOOOOOOOOOOOO$$XX",
"--%%++XXXX$$$$$$$$$$$$$$$$$$$$$$$$$$$$$$$$****@@oo++@@..@@..$$XX--%%++XXXX$$$$++XXXX$$$$++XXXX$$OOOOOOOOOOOOOOOOOOOOOOOOOOOO$$XX",
"--$$$$XXXX$$**************************$$****@@oo++@@@@--@@--$$XX--$$$$XXXX$$$$$$XXXX$$$$$$XXXX$$OO$$$$$$$$$$$$$$$$$$$$$$$$OO$$XX",
"--$$$$XXXX$$**************************$$****@@oo++@@@@--@@--$$XX--$$$$XXXX$$$$$$XXXX$$$$$$XXXX$$OO$$$$$$$$$$$$$$$$$$$$$$$$OO$$XX",
"$$$$$$$$$$$$$$$$$$$$$$$$$$$$$$$$$$$$$$$$$$$$$$$$$$$$$$$$$$$$$$XX--$$$$$$$$$$$$$$$$$$$$$$$$$$$$$$$$$$$$$$$$$$$$$$$$$$$$$$$$$$$$XX",
"$$$$$$$$$$$$$$$$$$$$$$$$$$$$$$$$$$$$$$$$$$$$$$$$$$$$$$$$$$$$$$XX--$$$$$$$$$$$$$$$$$$$$$$$$$$$$$$$$$$$$$$$$$$$$$$$$$$$$$$$$$$$$XX",
"XXXXXXXXXXXXXXXXXXXXXXXXXXXXXXXXXXXXXXXXXXXXXXXXXXXXXXXXXXXXXXXXXXXXXXXXXXXXXXXXXXXXXXXXXXXXXXXXXXXXXXXXXXXXXXXXXXXXXXXXXXXXXXXX",
"XXXXXXXXXXXXXXXXXXXXXXXXXXXXXXXXXXXXXXXXXXXXXXXXXXXXXXXXXXXXXXXXXXXXXXXXXXXXXXXXXXXXXXXXXXXXXXXXXXXXXXXXXXXXXXXXXXXXXXXXXXXXXXXX",
"--**----**----**----**----**----**----**----**----**----**--XXoooooooooooooooooooooooooooooooooooooooooooooooooooooooooooooooooo",
"--**----**----**----**----**----**----**----**----**----**--XXoooooooooooooooooooooooooooooooooooooooooooooooooooooooooooooooooo",
"--$$$$$$$$$$oo$$$$$$$$$$$$$$$$oo$$++++@@++++@@++++@@++++@@++XX@@XXXXXXXXXXXXXXXXXXXXXXXXXXXXXXXXXXXXooooXXXXXXXXXXXXXXooooooooXX",
"--$$$$$$$$$$oo$$$$$$$$$$$$$$$$oo$$++++@@++++@@++++@@++++@@++XX@@XXXXXXXXXXXXXXXXXXXXXXXXXXXXXXXXXXXXooooXXXXXXXXXXXXXXooooooooXX",
"**%%%%%%%%oo%%%%%%%%%%%%%%%%%%oo%%@@@@@@@@@@@@@@@@@@@@@@@@@@XX@@XX..XX..OO..XX....XX......XXXXXXXX%%ooooXX..XXXXXXXXXX**ooooooXX",
"**%%%%%%%%oo%%%%%%%%%%%%%%%%%%oo%%@@@@@@@@@@@@@@@@@@@@@@@@@@XX@@XX..XX..OO..XX....XX......XXXXXXXX%%ooooXX..XXXXXXXXXX**ooooooXX",
"--%%%%%%oo%%%%%%%%%%%%%%%%%%%%oo%%%%%%%%%%%%%%%%%%%%%%%%%%%%XX@@XX..XX..OO..XX..XXXXXXXX..XX..XX..%%ooooXXXXXX......XX**oooooooo",
"--%%%%%%oo%%%%%%%%%%%%%%%%%%%%oo%%%%%%%%%%%%%%%%%%%%%%%%%%%%XX@@XX..XX..OO..XX..XXXXXXXX..XX..XX..%%ooooXXXXXX......XX**oooooooo",
"$$XXXXXXXXXXXXXXXXXXXXXXXXXXXXXXXXXXXXXXXXXXXXXXXXXXXXXXXXXXXX@@XX..XX..OO..XX..XX....XX..XXXXXXXX%%ooooXXXXXXXXXX..XX**oooooooo",
"$$XXXXXXXXXXXXXXXXXXXXXXXXXXXXXXXXXXXXXXXXXXXXXXXXXXXXXXXXXXXX@@XX..XX..OO..XX..XX....XX..XXXXXXXX%%ooooXXXXXXXXXX..XX**oooooooo",
"--**----**----**----**----**----**----**----**----**----**--XX@@XXOOOOOOOOOOOO..XXXXXXXX..XX..XX..%%ooooXX..XX..XX..XX%%oooooooo",
"--**----**----**----**----**----**----**----**----**----**--XX@@XXOOOOOOOOOOOO..XXXXXXXX..XX..XX..%%ooooXX..XX..XX..XX%%oooooooo",
"--$$++++@@++++@@++++@@++++@@++++@@++++$$XXXXXXXXXXXXXXXX@@$$XX@@XX..XX........OOXX....XX..XX..XX..%%ooooXX..XX..XX..XX%%ooooooXX",
"--$$++++@@++++@@++++@@++++@@++++@@++++$$XXXXXXXXXXXXXXXX@@$$XX@@XX..XX........OOXX....XX..XX..XX..%%ooooXX..XX..XX..XX%%ooooooXX",
"**$$%%%%%%%%%%%%%%%%%%%%%%%%%%%%%%%%@@%%XX++@@@@++@@@@++--%%XX@@XXXXXXXXXXXXXXXXOOXXXXXXXXXX..XXXX%%ooooXX..XXXXXXXXXX%%ooooooXX",
"**$$%%%%%%%%%%%%%%%%%%%%%%%%%%%%%%%%@@%%XX++@@@@++@@@@++--%%XX@@XXXXXXXXXXXXXXXXOOXXXXXXXXXX..XXXX%%ooooXX..XXXXXXXXXX%%ooooooXX",
"--$$XXXXXX%%%%%%%%%%%%%%XXXXXXXXXX%%@@%%XX@@@@@@@@@@@@@@**$$XX@@XX..XX..XX..XX....OO..XX..........%%ooooXX..XX..XX..XX%%ooooooXX",
"--$$XXXXXX%%%%%%%%%%%%%%XXXXXXXXXX%%@@%%XX@@@@@@@@@@@@@@**$$XX@@XX..XX..XX..XX....OO..XX..........%%ooooXX..XX..XX..XX%%ooooooXX",
"--$$oo--oo%%%%%%%%%%%%%%oo--oo--oo%%@@%%XX@@@@@@@@@@@@@@--$$XX@@XX..XX..XX..XX..XX..OOOOOOOOOOOOOO%%ooooXXOOOOOOXXOOOO%%ooooooXX",
"--$$oo--oo%%%%%%%%%%%%%%oo--oo--oo%%@@%%XX@@@@@@@@@@@@@@--$$XX@@XX..XX..XX..XX..XX..OOOOOOOOOOOOOO%%ooooXXOOOOOOXXOOOO%%ooooooXX",
"**%%oo**oo%%%%%%%%%%%%%%oo**oo**oo%%@@%%XX@@@@@@@@@@@@++--%%XX@@XX..XX..XXXXXX..XX....OO..........%%ooooXX..OO..XX..XX%%ooooooXX",
"**%%oo**oo%%%%%%%%%%%%%%oo**oo**oo%%@@%%XX@@@@@@@@@@@@++--%%XX@@XX..XX..XXXXXX..XX....OO..........%%ooooXX..OO..XX..XX%%ooooooXX",
"--%%oo--oo%%%%%%%%%%%%%%oo--oo--oo%%@@%%XX@@@@@@@@@@@@@@**$$XXXXXX................................@@XXXXXX............@@XXXXXXXX",
"--%%oo--oo%%%%%%%%%%%%%%oo--oo--oo%%@@%%XX@@@@@@@@@@@@@@**$$XXXXXX................................@@XXXXXX............@@XXXXXXXX"
};
