/* XPM */
static char *WALL015[] = {
/* columns rows colors chars-per-pixel */
"128 128 11 1 ",
"  c #181008",
". c #291C10",
"X c #392818",
"o c #392C21",
"O c #423021",
"+ c #4A3429",
"@ c #4A3829",
"# c #523C29",
"$ c #5A4131",
"% c #634939",
"& c #6B4D39",
/* pixels */
"$$OO$$oo@@oo++++++oooooo@@....$$++oooo....@@oo%%..XX@@..++$$oooo++$$oooooo++++++ooOO....++@@..OOoo$$oo..@@++@@..@@@@..@@oo%%oo++",
"$$OO$$oo@@oo++++++oooooo@@....$$++oooo....@@oo%%..XX@@..++$$oooo++$$oooooo++++++ooOO....++@@..OOoo$$oo..@@++@@..@@@@..@@oo%%oo++",
"++++++@@++oo++++++@@oo..@@OO..$$++@@@@....oooo&&..XX@@..++$$..oo++++@@oooo++++++@@oo....$$++..OO++%%oo..oo++@@..@@@@..@@oo%%++++",
"++++++@@++oo++++++@@oo..@@OO..$$++@@@@....oooo&&..XX@@..++$$..oo++++@@oooo++++++@@oo....$$++..OO++%%oo..oo++@@..@@@@..@@oo%%++++",
"++++++oo@@oo++$$$$ooOO  @@oo..$$oooo@@....OOoo$$..XX@@..$$$$..oo++++oooooo++$$$$ooOO  ..$$++....oo%%oo..oo@@oo..oo@@oo$$XX%%++++",
"++++++oo@@oo++$$$$ooOO  @@oo..$$oooo@@....OOoo$$..XX@@..$$$$..oo++++oooooo++$$$$ooOO  ..$$++....oo%%oo..oo@@oo..oo@@oo$$XX%%++++",
"++++@@oo++@@++$$$$ooOO..@@oooo$$@@..OO  ..OOoo$$....OO..$$$$oooo++@@oooo@@++$$$$ooOO....$$$$..OO..$$....oo@@oo..OOoo++$$++%%++oo",
"++++@@oo++@@++$$$$ooOO..@@oooo$$@@..OO  ..OOoo$$....OO..$$$$oooo++@@oooo@@++$$$$ooOO....$$$$..OO..$$....oo@@oo..OOoo++$$++%%++oo",
"oo$$XX++++oo++$$++ooOOoo&&oooo$$++....  OOoooo$$OO..oo@@$$$$oooo$$XX@@oooooo$$++oooooooo$$$$..oo..@@..OOoo@@ooOOoooo++$$XX%%++oo",
"oo$$XX++++oo++$$++ooOOoo&&oooo$$++....  OOoooo$$OO..oo@@$$$$oooo$$XX@@oooooo$$++oooooooo$$$$..oo..@@..OOoo@@ooOOoooo++$$XX%%++oo",
"++++++$$++oo++&&oo......oo@@++OO&&ooOO..@@oo@@++oo..@@oo++$$oo&&##$$$$oooooooo++++@@@@oo++$$..&&++&&..OOoo@@oooooooo@@oo++%%++oo",
"++++++$$++oo++&&oo......oo@@++OO&&ooOO..@@oo@@++oo..@@oo++$$oo&&##$$$$oooooooo++++@@@@oo++$$..&&++&&..OOoo@@oooooooo@@oo++%%++oo",
"$$++oo##++$$++oo@@......@@++++++++ooOO..$$oo@@@@oo..&&oo++$$oo..++$$$$oooooooo++++oooo@@++%%..++$$%%..oooo++ooooOOoo@@..oo++++++",
"$$++oo##++$$++oo@@......@@++++++++ooOO..$$oo@@@@oo..&&oo++$$oo..++$$$$oooooooo++++oooo@@++%%..++$$%%..oooo++ooooOOoo@@..oo++++++",
"++ooOOooOOOO$$oo@@..##oo@@oo++%%OO@@oo..@@oooooo@@....oo++$$oo..++++++++++oooo++++@@oooo++%%..&&OO%%..@@$$$$oooo..@@@@..oo$$OO++",
"++ooOOooOOOO$$oo@@..##oo@@oo++%%OO@@oo..@@oooooo@@....oo++$$oo..++++++++++oooo++++@@oooo++%%..&&OO%%..@@$$$$oooo..@@@@..oo$$OO++",
"$$oooo@@++@@$$oo@@..oooo@@..oo%%%%++oo..##oooooo@@....oooo$$++oo$$++++++$$oo@@++++++oooo++%%..++$$%%..++$$$$oo@@..++@@..oo%%$$oo",
"$$oooo@@++@@$$oo@@..oooo@@..oo%%%%++oo..##oooooo@@....oooo$$++oo$$++++++$$oo@@++++++oooo++%%..++$$%%..++$$$$oo@@..++@@..oo%%$$oo",
"++@@oo@@++oo$$oo++@@oooo@@oooo$$OO++OO..  OOoo++@@..$$++oo$$++oo++++++++++oo++++++++++++$$$$..@@XX$$..++$$OOoooo..$$++oooo%%##++",
"++@@oo@@++oo$$oo++@@oooo@@oooo$$OO++OO..  OOoo++@@..$$++oo$$++oo++++++++++oo++++++++++++$$$$..@@XX$$..++$$OOoooo..$$++oooo%%##++",
"oooo@@oo++++++oo++++oooo@@oooo$$OO@@....##@@oo$$@@..$$++oo$$++@@++oooooo++++++++++oo++$$$$++..@@oooo..++##%%++oooo$$++oooo%%##++",
"oooo@@oo++++++oo++++oooo@@oooo$$OO@@....##@@oo$$@@..$$++oo$$++@@++oooooo++++++++++oo++$$$$++..@@oooo..++##%%++oooo$$++oooo%%##++",
"@@oooooo++##OOOO++++++++++oooo$$$$++....@@++oo++ooXX++++++$$++oo@@oooooo++++++++++oo++++oo@@..@@++oo..++$$$$$$@@oo++++++oo%%##++",
"@@oooooo++##OOOO++++++++++oooo$$$$++....@@++oo++ooXX++++++$$++oo@@oooooo++++++++++oo++++oo@@..@@++oo..++$$$$$$@@oo++++++oo%%##++",
"++oooooo++$$oo@@++++++++++oo@@XX$$++....@@++oo$$ooXX++++++$$oooo++++$$$$++oooooo++++++@@oo&&..oo&&++..++$$oooooo..@@++$$oo%%##++",
"++oooooo++$$oo@@++++++++++oo@@XX$$++....@@++oo$$ooXX++++++$$oooo++++$$$$++oooooo++++++@@oo&&..oo&&++..++$$oooooo..@@++$$oo%%##++",
"++++++++++$$ooOOoooo++$$++oooooo$$++OO..@@@@..oo..XX@@@@XX$$oooo@@oo$$$$++oooooo++++oooooo@@..ooOO&&..@@$$ooooOO..@@++++oo%%##++",
"++++++++++$$ooOOoooo++$$++oooooo$$++OO..@@@@..oo..XX@@@@XX$$oooo@@oo$$$$++oooooo++++oooooo@@..ooOO&&..@@$$ooooOO..@@++++oo%%##++",
"oo++$$++oo$$OOOOOOoo++##%%$$oo@@OO++oo..@@@@..@@OOXXoooo@@$$oo@@oooo++++++++oooo++++@@oooo@@..@@%%++..oooooo@@oo..oo++++++%%##++",
"oo++$$++oo$$OOOOOOoo++##%%$$oo@@OO++oo..@@@@..@@OOXXoooo@@$$oo@@oooo++++++++oooo++++@@oooo@@..@@%%++..oooooo@@oo..oo++++++%%##++",
"oo++++oooo++##++OOoo++$$##%%++OO$$++oo..@@@@..##..@@oooooo$$oo@@@@..@@++++$$oo@@++++++oooo@@..oo++$$..@@$$oo@@ooOOoo++++OO%%##++",
"oo++++oooo++##++OOoo++$$##%%++OO$$++oo..@@@@..##..@@oooooo$$oo@@@@..@@++++$$oo@@++++++oooo@@..oo++$$..@@$$oo@@ooOOoo++++OO%%##++",
"++++$$oooo++##@@XX@@++$$OO%%OO$$##$$oo..@@++oooo..@@@@oo++$$oooo++@@++++++++oo++++++@@oooo$$..$$++oo..oo$$++++oo..@@++++$$$$$$++",
"++++$$oooo++##@@XX@@++$$OO%%OO$$##$$oo..@@++oooo..@@@@oo++$$oooo++@@++++++++oo++++++@@oooo$$..$$++oo..oo$$++++oo..@@++++$$$$$$++",
"++++oooooo++$$++..@@++##%%##OO$$%%$$oo@@++++ooOO..@@oooo++$$oo@@++++oooooo++++++++++oooo@@$$..$$++ooXXoo$$OO%%++..oo@@oo++%%++oo",
"++++oooooo++$$++..@@++##%%##OO$$%%$$oo@@++++ooOO..@@oooo++$$oo@@++++oooooo++++++++++oooo@@$$..$$++ooXXoo$$OO%%++..oo@@oo++%%++oo",
"++++++@@oo++$$++oo++++$$##$$++OO%%++oo@@++++oooo..@@oooo++$$oo++++@@oooooo++++++++++oo$$XX@@XX$$++++XXoo$$OO$$$$oooo++++++%%++oo",
"++++++@@oo++$$++oo++++$$##$$++OO%%++oo@@++++oooo..@@oooo++$$oo++++@@oooooo++++++++++oo$$XX@@XX$$++++XXoo$$OO$$$$oooo++++++%%++oo",
"oo@@@@oo@@oo##++OO@@++++++$$++++$$oooooo$$$$oo@@OOoo..OOoo$$oo++&&oo@@@@oo++$$++++++++$$@@ooXX$$OO$$XX++$$++++oo@@..@@++++%%OO++",
"oo@@@@oo@@oo##++OO@@++++++$$++++$$oooooo$$$$oo@@OOoo..OOoo$$oo++&&oo@@@@oo++$$++++++++$$@@ooXX$$OO$$XX++$$++++oo@@..@@++++%%OO++",
"oooooo@@++oo##++++  OOoooo$$++++++++++++$$$$oo....oo@@oooo$$oooo++oooooooooo++++oooo++++ooooXX$$++++XX++$$OO%%oo++$$OO&&XX%%$$++",
"oooooo@@++oo##++++  OOoooo$$++++++++++++$$$$oo....oo@@oooo$$oooo++oooooooooo++++oooo++++ooooXX$$++++XX++$$OO%%oo++$$OO&&XX%%$$++",
"oooooo@@@@oo$$oooo++..OOoo$$++++++++++$$++++oo..OOoooooooo++oooo%%++ooOOoo@@++@@oooo@@oooo@@XX$$oo@@XX++$$OO$$oo++++++++oo%%##OO",
"oooooo@@@@oo$$oooo++..OOoo$$++++++++++$$++++oo..OOoooooooo++oooo%%++ooOOoo@@++@@oooo@@oooo@@XX$$oo@@XX++$$OO$$oo++++++++oo%%##OO",
"oo@@oooooooo++OOooooOOoo@@++oo++$$XX++$$ooooooOOoooooooooo++@@oo%%oo....oo@@++oooo@@ooOOooooXX$$oo@@XX++$$++++oo@@++++oo..$$##$$",
"oo@@oooooooo++OOooooOOoo@@++oo++$$XX++$$ooooooOOoooooooooo++@@oo%%oo....oo@@++oooo@@ooOOooooXX$$oo@@XX++$$++++oo@@++++oo..$$##$$",
"@@oooooo@@++++++++oo@@oo@@oooooo$$++++$$++++@@oooo@@oooooo$$++oo$$ooOOoo@@oo++ooooooOO  OO@@XX$$++++@@XX$$oo@@oooo@@++$$oooo$$..",
"@@oooooo@@++++++++oo@@oo@@oooooo$$++++$$++++@@oooo@@oooooo$$++oo$$ooOOoo@@oo++ooooooOO  OO@@XX$$++++@@XX$$oo@@oooo@@++$$oooo$$..",
"++ooOO..@@++++##XXoo++..oo++oo++$$++++$$++++++oooo@@oooooo$$++++++oooooo@@oo$$oooooo@@....@@XX$$++++++++$$oo@@..@@oo++$$++oo$$oo",
"++ooOO..@@++++##XXoo++..oo++oo++$$++++$$++++++oooo@@oooooo$$++++++oooooo@@oo$$oooooo@@....@@XX$$++++++++$$oo@@..@@oo++$$++oo$$oo",
"++@@oo@@@@oo++OOoooo@@OO++%%oo++$$oo++++oooo++@@oo++++@@oo$$++++++oo@@oooooo++ooOO..OO....@@XX$$++++++++$$@@oo..++++++$$++oo$$oo",
"++@@oo@@@@oo++OOoooo@@OO++%%oo++$$oo++++oooo++@@oo++++@@oo$$++++++oo@@oooooo++ooOO..OO....@@XX$$++++++++$$@@oo..++++++$$++oo$$oo",
"++++oooooooo++OO..oo@@..oo$$@@oo$$oo++++++++++++oo++++++oo$$++++++oooo..OOoo@@ooOO..OO..OO@@oo$$oooooo++$$ooOO..$$++++$$++oo$$oo",
"++++oooooooo++OO..oo@@..oo$$@@oo$$oo++++++++++++oo++++++oo$$++++++oooo..OOoo@@ooOO..OO..OO@@oo$$oooooo++$$ooOO..$$++++$$++oo$$oo",
"++++oo@@oooo++++ooOOooOOoo$$oooo++oo++++++++++++oo++++++oo$$++++$$ooOO..oo@@@@oo....OO..oooo++$$oooooo++$$++oooo++oo++++++++$$oo",
"++++oo@@oooo++++ooOOooOOoo$$oooo++oo++++++++++++oo++++++oo$$++++$$ooOO..oo@@@@oo....OO..oooo++$$oooooo++$$++oooo++oo++++++++$$oo",
"++++oooo@@oo@@oooo++OOoo++$$oooo$$++++oooooo++++oo@@oo++++$$oooooo@@oo@@ooooooooOOOOoooo@@oo@@++oooooooo$$++oooo$$oo++++++$$$$++",
"++++oooo@@oo@@oooo++OOoo++$$oooo$$++++oooooo++++oo@@oo++++$$oooooo@@oo@@ooooooooOOOOoooo@@oo@@++oooooooo$$++oooo$$oo++++++$$$$++",
"oo@@oooo++$$++OOOOXXOOoo++$$oooo$$oo@@oooooo++++oo@@oo++++$$++@@oooooooo$$oooo@@oooooooo@@oooo%%++oooooo$$++oo..oooo++++++OO$$++",
"oo@@oooo++$$++OOOOXXOOoo++$$oooo$$oo@@oooooo++++oo@@oo++++$$++@@oooooooo$$oooo@@oooooooo@@oooo%%++oooooo$$++oo..oooo++++++OO$$++",
"oo@@oooooo$$++++..oo$$oo++$$++oo++oo++@@oooo++++oo@@++++OO$$++++oooooooo$$oo@@ooooooOO..@@oooo$$++oo@@++++@@oooo@@@@++oooo++$$++",
"oo@@oooooo$$++++..oo$$oo++$$++oo++oo++@@oooo++++oo@@++++OO$$++++oooooooo$$oo@@ooooooOO..@@oooo$$++oo@@++++@@oooo@@@@++oooo++$$++",
"++++oooooo$$++oo..oo$$oo++$$++oo@@oo@@oo@@@@++@@..oo++++$$OO++++@@oo@@oo$$oooooo@@ooOO..@@oooo$$++oo++++@@oooooo@@oo@@oooo++$$++",
"++++oooooo$$++oo..oo$$oo++$$++oo@@oo@@oo@@@@++@@..oo++++$$OO++++@@oo@@oo$$oooooo@@ooOO..@@oooo$$++oo++++@@oooooo@@oo@@oooo++$$++",
"++@@oooo@@##@@oo++ooOOoo++$$++oo++oo++oooooo++@@..oo@@++++@@oooooooooo@@$$oooooo@@ooOO..@@oo++$$++++++@@oooooo@@oooo++@@oo++%%++",
"++@@oooo@@##@@oo++ooOOoo++$$++oo++oo++oooooo++@@..oo@@++++@@oooooooooo@@$$oooooo@@ooOO..@@oo++$$++++++@@oooooo@@oooo++@@oo++%%++",
"++ooooooooOO$$ooOO$$OOoooo$$$$++$$++$$oooooo@@oo..@@oooooooo@@@@oooooooo++@@oo@@++@@oo..@@oo++%%OO$$ooooooOOoooooooo@@oooooo++++",
"++ooooooooOO$$ooOO$$OOoooo$$$$++$$++$$oooooo@@oo..@@oooooooo@@@@oooooooo++@@oo@@++@@oo..@@oo++%%OO$$ooooooOOoooooooo@@oooooo++++",
"++ooooooooOO$$ooXX$$oo++oo$$++oo$$++++oooooo@@oo@@++ooooOOoooo@@oo@@@@ooooooOO..OOooOO..@@oooo$$++++ooooOO..oooooooo@@oooo@@++++",
"++ooooooooOO$$ooXX$$oo++oo$$++oo$$++++oooooo@@oo@@++ooooOOoooo@@oo@@@@ooooooOO..OOooOO..@@oooo$$++++ooooOO..oooooooo@@oooo@@++++",
"++@@oooooooo++OO..OOoooooo$$++oo$$OO$$oooooo++++++++ooOO..oooo++++oo@@oooooooo....OOoo..@@oooo$$OO$$ooooOO..@@oo@@++@@..oo@@++oo",
"++@@oooooooo++OO..OOoooooo$$++oo$$OO$$oooooo++++++++ooOO..oooo++++oo@@oooooooo....OOoo..@@oooo$$OO$$ooooOO..@@oo@@++@@..oo@@++oo",
"++++ooooooooooOOOOXXooOO++$$++@@XX++$$++++++$$++++++ooOO..@@oo++$$oo++oooooo@@oooooo++%%oooo++$$OO$$++oooo@@++oo++++oo..OOoo++oo",
"++++ooooooooooOOOOXXooOO++$$++@@XX++$$++++++$$++++++ooOO..@@oo++$$oo++oooooo@@oooooo++%%oooo++$$OO$$++oooo@@++oo++++oo..OOoo++oo",
"++++ooooooooOOOOooOO++OO..$$XX++++++$$++++++OO++++@@..OOoo@@oo++%%oo$$oooooooooo@@oo##  OO..++$$++$$++oooo$$++++++@@oo&&oooo&&++",
"++++ooooooooOOOOooOO++OO..$$XX++++++$$++++++OO++++@@..OOoo@@oo++%%oo$$oooooooooo@@oo##  OO..++$$++$$++oooo$$++++++@@oo&&oooo&&++",
"oo@@ooooooooOOOOOOooooOO..$$++$$++oo++++++++$$++++@@..OOoo++++++%%oo++oooooooooo@@..OO..oo@@$$$$XX$$++oooo++++++oooo@@oo@@ooOO$$",
"oo@@ooooooooOOOOOOooooOO..$$++$$++oo++++++++$$++++@@..OOoo++++++%%oo++oooooooooo@@..OO..oo@@$$$$XX$$++oooo++++++oooo@@oo@@ooOO$$",
"oo++@@oo@@ooOOooOOoooooooo$$++++oooooo++++++$$++++@@....oo++++++++oo++@@oooooo@@@@..OOOOoo@@OO$$oo++++++oo$$++++@@oo..oo++++%%OO",
"oo++@@oo@@ooOOooOOoooooooo$$++++oooooo++++++$$++++@@....oo++++++++oo++@@oooooo@@@@..OOOOoo@@OO$$oo++++++oo$$++++@@oo..oo++++%%OO",
"@@++++oo@@oo++OOooOO..OOoo@@oo$$oooooo++++++$$++++++OO..oo++++++++++++++oo@@oo++@@..OOoo@@oo$$$$oo++++$$oooo++++++oo..oo@@XX++$$",
"@@++++oo@@oo++OOooOO..OOoo@@oo$$oooooo++++++$$++++++OO..oo++++++++++++++oo@@oo++@@..OOoo@@oo$$$$oo++++$$oooo++++++oo..oo@@XX++$$",
"oooo++++++++ooooOOXXOOoooooooooooooooo@@oooo++++++++oo..@@++++++++++++++oooooo@@ooOOooooooooXX$$oo@@++++oooo++++++@@oo@@++$$++oo",
"oooo++++++++ooooOOXXOOoooooooooooooooo@@oooo++++++++oo..@@++++++++++++++oooooo@@ooOOooooooooXX$$oo@@++++oooo++++++@@oo@@++$$++oo",
"oooo++++$$%%oo@@ooOOoo@@oooooo@@@@oooooooooooo++++++oooo@@oooo++++++++%%++oo@@oo@@oo@@oooooo++$$oooooo++++++++++oo@@oo@@oo$$++oo",
"oooo++++$$%%oo@@ooOOoo@@oooooo@@@@oooooooooooo++++++oooo@@oooo++++++++%%++oo@@oo@@oo@@oooooo++$$oooooo++++++++++oo@@oo@@oo$$++oo",
"@@oo++++##++ooooOOXXoo++oooooo@@oo@@@@oo++++++++$$$$oooo++++++++++++++$$$$++++++++oo@@oooooo++$$++oooo++OO%%++++oo++@@oooo++++++",
"@@oo++++##++ooooOOXXoo++oooooo@@oo@@@@oo++++++++$$$$oooo++++++++++++++$$$$++++++++oo@@oooooo++$$++oooo++OO%%++++oo++@@oooo++++++",
"++++++++OO@@@@OO@@ooOO..OOoooooooo++@@oo$$$$++++$$$$oooo++++++++++@@++OO$$OO$$OO%%oo@@oo@@oooo$$++@@oo++$$OO++++++++@@oooo++++$$",
"++++++++OO@@@@OO@@ooOO..OOoooooooo++@@oo$$$$++++$$$$oooo++++++++++@@++OO$$OO$$OO%%oo@@oo@@oooo$$++@@oo++$$OO++++++++@@oooo++++$$",
"++++++++$$@@@@++++ooOOXX@@oooooooo@@oooo++++++++++++oooo++++++++@@..++%%OO++$$%%%%oo++++++oooo$$++oooooo++&&oooo@@@@..oooo@@++++",
"++++++++$$@@@@++++ooOOXX@@oooooooo@@oooo++++++++++++oooo++++++++@@..++%%OO++$$%%%%oo++++++oooo$$++oooooo++&&oooo@@@@..oooo@@++++",
"++++++++@@OO++++##XXXXOO@@ooOOoooo@@oooo$$++++++oooooo++++oooo++++oo++$$++++OO%%++oo@@++++oooooo@@oooo@@++++oooooo@@oo@@oooooo++",
"++++++++@@OO++++##XXXXOO@@ooOOoooo@@oooo$$++++++oooooo++++oooo++++oo++$$++++OO%%++oo@@++++oooooo@@oooo@@++++oooooo@@oo@@oooooo++",
"++$$++++++$$++++##++OOoo++@@oo@@@@oooooo$$++oo@@++++++$$++oooo++++oo++OO++++++++oo..oo++$$oo@@@@oo..oo@@++++oo@@..@@oooo@@oooo++",
"++$$++++++$$++++##++OOoo++@@oo@@@@oooooo$$++oo@@++++++$$++oooo++++oo++OO++++++++oo..oo++$$oo@@@@oo..oo@@++++oo@@..@@oooo@@oooo++",
"++##++++++##@@++OO%%OOoo@@oooo++++oo@@oo++++oooo@@++++$$oooo@@++++oo++%%++oo++++ooOOoo@@++oo++++oo..OOoo++++oo@@..@@..oo++@@oo@@",
"++##++++++##@@++OO%%OOoo@@oooo++++oo@@oo++++oooo@@++++$$oooo@@++++oo++%%++oo++++ooOOoo@@++oo++++oo..OOoo++++oo@@..@@..oo++@@oo@@",
"++++++++++@@##++@@++ooXXOOoooo@@@@oo@@oo++%%++@@oooo++++oooo++++++oooo++++++++++oooooooo@@oo@@@@oo&&oooo&&++++++oo@@..oo@@oooooo",
"++++++++++@@##++@@++ooXXOOoooo@@@@oo@@oo++%%++@@oooo++++oooo++++++oooo++++++++++oooooooo@@oo@@@@oo&&oooo&&++++++oo@@..oo@@oooooo",
"++++++ooOO++##oo++++ooOOOOoo@@oooo@@++++++OO$$++++++++oo++++++$$++oooo++++++++@@..$$oooo++@@oooo@@oo@@ooOO++++++oo$$..oo@@oooo@@",
"++++++ooOO++##oo++++ooOOOOoo@@oooo@@++++++OO$$++++++++oo++++++$$++oooo++++++++@@..$$oooo++@@oooo@@oo@@ooOO++++++oo$$..oo@@oooo@@",
"oo##ooOOoooo@@++++++OOOOOOoo++@@oooooo++$$%%OO++++++++oo$$++++++++++++$$++oo++@@..@@oooo@@++@@oooooo++++%%++++++oo++oo@@oo..oo@@",
"oo##ooOOoooo@@++++++OOOOOOoo++@@oooooo++$$%%OO++++++++oo$$++++++++++++$$++oo++@@..@@oooo@@++@@oooooo++++%%++++++oo++oo@@oo..oo@@",
"oo$$oo++##++++$$@@++XX++OOoo&&++oooo@@++++OO$$++oooo@@oo$$++++++OO$$OO%%++oo++++oo@@oooooo++++oooooo@@oo++oo@@@@oo@@oo@@oo..oooo",
"oo$$oo++##++++$$@@++XX++OOoo&&++oooo@@++++OO$$++oooo@@oo$$++++++OO$$OO%%++oo++++oo@@oooooo++++oooooo@@oo++oo@@@@oo@@oo@@oo..oooo",
"++$$++++@@++++$$##++XX++@@oooooooooo@@++oo@@oo@@oooo@@oo++++$$OO$$OO++++++oo++++@@@@oooooo++@@oooooo++oo$$oooooooo@@oo@@oo$$++oo",
"++$$++++@@++++$$##++XX++@@oooooooooo@@++oo@@oo@@oooo@@oo++++$$OO$$OO++++++oo++++@@@@oooooo++@@oooooo++oo$$oooooooo@@oo@@oo$$++oo",
"++$$++++ooOO@@++++OOoo@@++XXoooooooooo@@oo@@..oooooo@@oo@@oo$$OO%%++++++OO$$++oooooo@@++@@@@XX&&oooo&&++++@@ooOO..OO..oooo$$++oo",
"++$$++++ooOO@@++++OOoo@@++XXoooooooooo@@oo@@..oooooo@@oo@@oo$$OO%%++++++OO$$++oooooo@@++@@@@XX&&oooo&&++++@@ooOO..OO..oooo$$++oo",
"++$$++++@@oo@@oooooo++++OOoooooo@@oooo++++@@..oo@@@@++oooooo++++OO++$$++%%$$++oooooo++++oooo@@oo@@ooOO$$++++ooOO..OOoo@@oo++++++",
"++$$++++@@oo@@oooooo++++OOoooooo@@oooo++++@@..oo@@@@++oooooo++++OO++$$++%%$$++oooooo++++oooo@@oo@@ooOO$$++++ooOO..OOoo@@oo++++++",
"++$$++++++oo@@##++OO##@@ooooOOoo@@oooo++++@@..OOoooo@@oooooo++++%%XX%%XX%%OO++++oooo++++@@oooooo++++%%OO++++@@ooOOoo@@++oo++++$$",
"++$$++++++oo@@##++OO##@@ooooOOoo@@oooo++++@@..OOoooo@@oooooo++++%%XX%%XX%%OO++++oooo++++@@oooooo++++%%OO++++@@ooOOoo@@++oo++++$$",
"++$$++++++++$$##++ooOOoooo@@++++++oooo++@@ooOOoooooo@@..oooo@@++%%XX$$OO%%++++$$oo@@++++++oooooo@@XX++$$++oo@@oooooo++++++++++++",
"++$$++++++++$$##++ooOOoooo@@++++++oooo++@@ooOOoooooo@@..oooo@@++%%XX$$OO%%++++$$oo@@++++++oooooo@@XX++$$++oo@@oooooo++++++++++++",
"++$$++++oo++$$++ooOOoooooo++++++##++++$$XX@@oo@@oooo@@oo@@oooooo++++$$$$OO++++++oo++++++++++++++++$$++oooooo++@@oooo++++$$oooo++",
"++$$++++oo++$$++ooOOoooooo++++++##++++$$XX@@oo@@oooo@@oo@@oooooo++++$$$$OO++++++oo++++++++++++++++$$++oooooo++@@oooo++++$$oooo++",
"oo$$++++oo++$$ooOO..oo@@ooOO$$++OO##++$$++++oo@@oooo++oooo@@oooo++++$$$$++oooo++++++++++oo++$$++oo$$++oooooo++++++++++++++oooo++",
"oo$$++++oo++$$ooOO..oo@@ooOO$$++OO##++$$++++oo@@oooo++oooo@@oooo++++$$$$++oooo++++++++++oo++$$++oo$$++oooooo++++++++++++++oooo++",
"oo$$++++++++$$ooOO..oo$$oo++++++++##OO%%OO%%oo++++++$$..oo++@@oo++++++++++oooo++++++++++oo++++oooo++++++oooo++++OO$$oooo++@@oo@@",
"oo$$++++++++$$ooOO..oo$$oo++++++++##OO%%OO%%oo++++++$$..oo++@@oo++++++++++oooo++++++++++oo++++oooo++++++oooo++++OO$$oooo++@@oo@@",
"oo++oooo++++++ooOO..OO++oo++++++%%OO++$$%%%%oo++++++++..oo@@oooo++++++OO$$@@oo++$$++++++++++$$oooo++++$$oo@@++++$$$$oooo@@oooooo",
"oo++oooo++++++ooOO..OO++oo++++++%%OO++$$%%%%oo++++++++..oo@@oooo++++++OO$$@@oo++$$++++++++++$$oooo++++$$oo@@++++$$$$oooo@@oooooo",
"++@@oooo@@++++@@oo....@@++++++++$$++++OO%%++oo@@++++$$..oo@@oooo++%%OO%%%%oooooo++++oooo++++oooooo@@++++oo++++++++++@@oo@@oooo@@",
"++@@oooo@@++++@@oo....@@++++++++$$++++OO%%++oo@@++++$$..oo@@oooo++%%OO%%%%oooooo++++oooo++++oooooo@@++++oo++++++++++@@oo@@oooo@@",
"++oooo@@oo++++oo@@..OO++++++++++++++oo++++oo..oo++++$$oo@@oo..oo$$OO++##%%oooo@@++++oooo++++++@@oooooo++++++++++++++oooooo..oo++",
"++oooo@@oo++++oo@@..OO++++++++++++++oo++++oo..oo++++$$oo@@oo..oo$$OO++##%%oooo@@++++oooo++++++@@oooooo++++++++++++++oooooo..oo++"
};
