/* XPM */
static char *WALL035[] = {
/* columns rows colors chars-per-pixel */
"128 128 8 1 ",
"  c black",
". c #101410",
"X c #182021",
"o c #293031",
"O c #39494A",
"+ c #4A555A",
"@ c #63696B",
"# c #848A94",
/* pixels */
"++++++##@@++OO@@@@++OOOOOOoo  XXXX  oooo  ......  ++OOOOOO++++##@@@@oo@@++OOOOoo  ..  oooooooooo  XX  ++OOOOOO++@@@@OO##@@OO++++",
"++++++##@@++OO@@@@++OOOOOOoo  XXXX  oooo  ......  ++OOOOOO++++##@@@@oo@@++OOOOoo  ..  oooooooooo  XX  ++OOOOOO++@@@@OO##@@OO++++",
"++++++##@@++OO++++OOooOOOOooXX  XX        ....  XX++OOOOooOOOO##@@@@oo++OOooOOooXX    oooooooooo    XX++OOOOooOO++++OO##@@OO++++",
"++++++##@@++OO++++OOooOOOOooXX  XX        ....  XX++OOOOooOOOO##@@@@oo++OOooOOooXX    oooooooooo    XX++OOOOooOO++++OO##@@OO++++",
"++++++##@@++ooooooooOOOOOOooXXoo    XXXX  ..  OOXX++OOOOOOoooo##@@@@ooooooOOOOooXXoo  oooooooooo  OOXX++OOOOOOoooooooo##@@OO++++",
"++++++##@@++ooooooooOOOOOOooXXoo    XXXX  ..  OOXX++OOOOOOoooo##@@@@ooooooOOOOooXXoo  oooooooooo  OOXX++OOOOOOoooooooo##@@OO++++",
"++++++##@@++ooOOOOOOOOOOOOooXXXXoo  XXXX    OOooXX++OOOOOOOOOO##@@@@ooOOOOOOOOooXXXXoo  oooooo  OOooXX++OOOOOOOOOOOOoo##@@OO++++",
"++++++##@@++ooOOOOOOOOOOOOooXXXXoo  XXXX    OOooXX++OOOOOOOOOO##@@@@ooOOOOOOOOooXXXXoo  oooooo  OOooXX++OOOOOOOOOOOOoo##@@OO++++",
"++++++##@@++ooOOOOOOOOOOOOooXXXXXX    XX  OOooooXXOOOOOOOOOOOO##@@@@ooOOOOOOOOooXXXXXXOO  oo  OOooooXXOOOOOOOOOOOOOOoo##@@OO++++",
"++++++##@@++ooOOOOOOOOOOOOooXXXXXX    XX  OOooooXXOOOOOOOOOOOO##@@@@ooOOOOOOOOooXXXXXXOO  oo  OOooooXXOOOOOOOOOOOOOOoo##@@OO++++",
"++++++##@@++ooOOOOOOOOOOoo    XXXXooOO  OOooooXX    ooOOOOOOOO##@@@@ooOOOOOOOO    XXXXooOO  OOooooXX    ooOOOOOOOOOOoo##@@OO++++",
"++++++##@@++ooOOOOOOOOOOoo    XXXXooOO  OOooooXX    ooOOOOOOOO##@@@@ooOOOOOOOO    XXXXooOO  OOooooXX    ooOOOOOOOOOOoo##@@OO++++",
"++++++##@@++ooOOOOOOOOoooo  XX  XXooooOOooooXX  XX  OOooOOOOOO##@@@@ooOOOOOOoo  XX  XXooooOOooooXX  ..  OOooOOOOOOOOoo##@@OO++++",
"++++++##@@++ooOOOOOOOOoooo  XX  XXooooOOooooXX  XX  OOooOOOOOO##@@@@ooOOOOOOoo  XX  XXooooOOooooXX  ..  OOooOOOOOOOOoo##@@OO++++",
"OOOOOO@@++OOooOOOOOOooXXoo        XXOOooooXX  XXXX  OOooOOOOOO##@@@@ooOOOOooOO  XXXX  XXOOooooXX  ....  OOooOOOOOOOOoo@@++OOOOOO",
"OOOOOO@@++OOooOOOOOOooXXoo        XXOOooooXX  XXXX  OOooOOOOOO##@@@@ooOOOOooOO  XXXX  XXOOooooXX  ....  OOooOOOOOOOOoo@@++OOOOOO",
"@@@@@@####@@ooOOOOOOooXXoo  oooo  OOooooXXoo  XXXX  OOoo++OOOO##@@@@ooOOOOooOO  XXXX  OOooooXXoo  ....  OOoo++OOOOOOoo####++@@@@",
"@@@@@@####@@ooOOOOOOooXXoo  oooo  OOooooXXoo  XXXX  OOoo++OOOO##@@@@ooOOOOooOO  XXXX  OOooooXXoo  ....  OOoo++OOOOOOoo####++@@@@",
"++++++##@@++ooOOOOOOooXXoo  oo  OOooooXXXXooOO  XX  OOoo++OOOO##@@@@ooOOOOooOO  XX  OOooooXXXXooOO  ..  OOoo++OOOOOOoo##@@OO++++",
"++++++##@@++ooOOOOOOooXXoo  oo  OOooooXXXXooOO  XX  OOoo++OOOO##@@@@ooOOOOooOO  XX  OOooooXXXXooOO  ..  OOoo++OOOOOOoo##@@OO++++",
"++++++##@@++ooOOOOOOooXXoo    ooooooXX  XXooooOO    OOoo++OOOO##@@@@ooOOOOooOO    ooooooXX  XXooooOO    OOoo++OOOOOOoo##@@OO++++",
"++++++##@@++ooOOOOOOooXXoo    ooooooXX  XXooooOO    OOoo++OOOO##@@@@ooOOOOooOO    ooooooXX  XXooooOO    OOoo++OOOOOOoo##@@OO++++",
"++++++##@@++ooOOOOOOooXXoo  ooXXooXX  ..  XXooooOO  OOoo++OOOO##@@@@ooOOOOooOO  ooXXooXX  ..  XXooooOO  OOoo++OOOOOOoo##@@OO++++",
"++++++##@@++ooOOOOOOooXXoo  ooXXooXX  ..  XXooooOO  OOoo++OOOO##@@@@ooOOOOooOO  ooXXooXX  ..  XXooooOO  OOoo++OOOOOOoo##@@OO++++",
"++++++##@@++ooOOOOOOooXXooXXXXXXXX  ......  XXooooXXOOoo++OOOO##@@@@ooOOOOooOOXXXXXXXX  ......  XXooooXXOOoo++OOOOOOoo##@@OO++++",
"++++++##@@++ooOOOOOOooXXooXXXXXXXX  ......  XXooooXXOOoo++OOOO##@@@@ooOOOOooOOXXXXXXXX  ......  XXooooXXOOoo++OOOOOOoo##@@OO++++",
"++++++##@@++ooOOOOOOooXXooXXXXXX    ........  XXooXXOOoo++OOOO##@@@@ooOOOOooOOXXXXXX  ..........  XXooXXOOoo++OOOOOOoo##@@OO++++",
"++++++##@@++ooOOOOOOooXXooXXXXXX    ........  XXooXXOOoo++OOOO##@@@@ooOOOOooOOXXXXXX  ..........  XXooXXOOoo++OOOOOOoo##@@OO++++",
"++++++##@@++ooOOOOOOooXXooXXXX  XX  ..........  XXXXOOoo++OOOO##@@@@ooOOOOooOOXXXX    ............  XXXXOOoo++OOOOOOoo##@@OO++++",
"++++++##@@++ooOOOOOOooXXooXXXX  XX  ..........  XXXXOOoo++OOOO##@@@@ooOOOOooOOXXXX    ............  XXXXOOoo++OOOOOOoo##@@OO++++",
"++++++##@@++ooOOOOOOooXXooXX  XXXXXX  ..........  XXOOoo++OOOO##@@@@ooOOOOooOOXX  XX          ......  XXOOoo++OOOOOOoo##@@OO++++",
"++++++##@@++ooOOOOOOooXXooXX  XXXXXX  ..........  XXOOoo++OOOO##@@@@ooOOOOooOOXX  XX          ......  XXOOoo++OOOOOOoo##@@OO++++",
"++++++##@@++ooOOOOOOooXXooXXoo  XXXXXX  ......  OOXXOOoo++OOOO##@@@@ooOOOOooOOXXoo  XXXX  oooo  ..  OOXXOOoo++OOOOOOoo##@@OO++++",
"++++++##@@++ooOOOOOOooXXooXXoo  XXXXXX  ......  OOXXOOoo++OOOO##@@@@ooOOOOooOOXXoo  XXXX  oooo  ..  OOXXOOoo++OOOOOOoo##@@OO++++",
"++++++##@@++ooOOOOOOooXXooXXXXoo  XXXXXX  ..  OOooXXOOoo++OOOO##@@@@ooOOOOooOOXXXXoo  XX  oooooo  OOooXXOOoo++OOOOOOoo##@@OO++++",
"++++++##@@++ooOOOOOOooXXooXXXXoo  XXXXXX  ..  OOooXXOOoo++OOOO##@@@@ooOOOOooOOXXXXoo  XX  oooooo  OOooXXOOoo++OOOOOOoo##@@OO++++",
"++++++##@@++ooOOOOOOooXXooXXXXXXOO  XXXXXX  OOooooXXOOoo++OOOO##@@@@ooOOOOooOOXXXXXXOO    oooo  OOooooXXOOoo++OOOOOOoo##@@OO++++",
"++++++##@@++ooOOOOOOooXXooXXXXXXOO  XXXXXX  OOooooXXOOoo++OOOO##@@@@ooOOOOooOOXXXXXXOO    oooo  OOooooXXOOoo++OOOOOOoo##@@OO++++",
"++++++##@@++ooOOOOOOooXXoo  XXXXooOO  XX  OOooooXX  OOoo++OOOO##@@@@ooOOOOooOO  XXXXooOO  oo  OOooooXX  OOoo++OOOOOOoo##@@OO++++",
"++++++##@@++ooOOOOOOooXXoo  XXXXooOO  XX  OOooooXX  OOoo++OOOO##@@@@ooOOOOooOO  XXXXooOO  oo  OOooooXX  OOoo++OOOOOOoo##@@OO++++",
"++++++##@@++ooOOOOOOooXXoo    XXooooOO  OOooooXX    OOoo++OOOO##@@@@ooOOOOooOO    XXooooOO  OOooooXX    OOoo++OOOOOOoo##@@OO++++",
"++++++##@@++ooOOOOOOooXXoo    XXooooOO  OOooooXX    OOoo++OOOO##@@@@ooOOOOooOO    XXooooOO  OOooooXX    OOoo++OOOOOOoo##@@OO++++",
"++++++##@@++ooOOOOOOooXXoo  ..  XXooooOOooooXX  XX  OOoo++OOOO##@@@@ooOOOOooOO  ..  XXooooOOooooXX  XX  OOoo++OOOOOOoo##@@OO++++",
"++++++##@@++ooOOOOOOooXXoo  ..  XXooooOOooooXX  XX  OOoo++OOOO##@@@@ooOOOOooOO  ..  XXooooOOooooXX  XX  OOoo++OOOOOOoo##@@OO++++",
"########@@++ooOOOOOOooXXoo  ....  XXOOooooXX        OOoo++OOOO##@@@@ooOOOOooOO  ....  XXOOooooXX  XXXX  OOoo++OOOOOOoo##@@@@####",
"########@@++ooOOOOOOooXXoo  ....  XXOOooooXX        OOoo++OOOO##@@@@ooOOOOooOO  ....  XXOOooooXX  XXXX  OOoo++OOOOOOoo##@@@@####",
"@@@@@@@@@@++ooOOOOOOooXXoo  ....  OOooooXXoo  XXXX  OOoo++OOOO##@@@@ooOOOOooOO  ....  OOooooXXoo        OOoo++OOOOOOoo##@@@@@@@@",
"@@@@@@@@@@++ooOOOOOOooXXoo  ....  OOooooXXoo  XXXX  OOoo++OOOO##@@@@ooOOOOooOO  ....  OOooooXXoo        OOoo++OOOOOOoo##@@@@@@@@",
"OOOOOO@@@@++ooOOOOOOOOoooo  ..  ooooooXXXXooOO  XX  OO++OOOOOO##@@@@ooOOOOOOoo  ..  ooooooXXXXooOO  XX  OO++OOOOOOOOoo##@@OOOOOO",
"OOOOOO@@@@++ooOOOOOOOOoooo  ..  ooooooXXXXooOO  XX  OO++OOOOOO##@@@@ooOOOOOOoo  ..  ooooooXXXXooOO  XX  OO++OOOOOOOOoo##@@OOOOOO",
"++++++##@@++ooOOOOOOOOOOoo    ooXXooXX  XXooooOO    ++OOOOOOOO##@@@@ooOOOOOOOO    ooXXooXX  XXooooOO    ++OOOOOOOOOOoo##@@OO++++",
"++++++##@@++ooOOOOOOOOOOoo    ooXXooXX  XXooooOO    ++OOOOOOOO##@@@@ooOOOOOOOO    ooXXooXX  XXooooOO    ++OOOOOOOOOOoo##@@OO++++",
"########@@++ooOOOOOOOOOOOOooXXXXXXXX  XX  XXooooXX++OOOOOOOOOO##@@@@ooOOOOOOOOooXXXXXXXX  oo  XXooooXX++OOOOOOOOOOOOoo##@@@@####",
"########@@++ooOOOOOOOOOOOOooXXXXXXXX  XX  XXooooXX++OOOOOOOOOO##@@@@ooOOOOOOOOooXXXXXXXX  oo  XXooooXX++OOOOOOOOOOOOoo##@@@@####",
"@@@@@@@@@@++ooOOOOOOOOOOOOooXXXXXX    XXXX  XXooXX++OOOOOOOOOO##@@@@ooOOOOOOOOooXXXXXX    oo    XXooXX++OOOOOOOOOOOOoo##@@@@@@@@",
"@@@@@@@@@@++ooOOOOOOOOOOOOooXXXXXX    XXXX  XXooXX++OOOOOOOOOO##@@@@ooOOOOOOOOooXXXXXX    oo    XXooXX++OOOOOOOOOOOOoo##@@@@@@@@",
"######@@@@++OO@@@@++OOOOOOooXXXX  oooo  XXXX  XXXX++OOOOOO++++##@@@@oo@@++OOOOooXXXX  XX  oo  ..  XXXX++OOOOOO++@@@@OO##@@######",
"######@@@@++OO@@@@++OOOOOOooXXXX  oooo  XXXX  XXXX++OOOOOO++++##@@@@oo@@++OOOOooXXXX  XX  oo  ..  XXXX++OOOOOO++@@@@OO##@@######",
"@@@@@@++@@++OO++++OOooOOOOooXX  XX  oooo  XXXX  XX++OOOOooOOOO##@@@@oo++OOooOOooXX        oo  ....  XX++OOOOooOO++++OO##@@##@@@@",
"@@@@@@++@@++OO++++OOooOOOOooXX  XX  oooo  XXXX  XX++OOOOooOOOO##@@@@oo++OOooOOooXX        oo  ....  XX++OOOOooOO++++OO##@@##@@@@",
"@@@@@@++@@++ooooooooOOOOOOoo  XXXXXX  oooo  XXXX  ++OOOOOOoooo##@@@@ooooooOOOOoo  oooooooooo  ......  ++OOOOOOoooooooo##@@##@@@@",
"@@@@@@++@@++ooooooooOOOOOOoo  XXXXXX  oooo  XXXX  ++OOOOOOoooo##@@@@ooooooOOOOoo  oooooooooo  ......  ++OOOOOOoooooooo##@@##@@@@",
"@@@@@@++@@++ooOOOOOOOOOOOOoo  XXXXXXXX  oooo  XX  ++OOOOOOOOOO##@@@@ooOOOOOOOOoo          oo  ......  ++OOOOOOOOOOOOoo##@@##@@@@",
"@@@@@@++@@++ooOOOOOOOOOOOOoo  XXXXXXXX  oooo  XX  ++OOOOOOOOOO##@@@@ooOOOOOOOOoo          oo  ......  ++OOOOOOOOOOOOoo##@@##@@@@",
"@@@@@@++@@++OO@@@@++OOOOOOooXX            oooo  XX++OOOOOO++++##@@@@oo@@++OOOOooXX  ....  oo  ....  XX++OOOOOO++@@@@OO##@@##@@@@",
"@@@@@@++@@++OO@@@@++OOOOOOooXX            oooo  XX++OOOOOO++++##@@@@oo@@++OOOOooXX  ....  oo  ....  XX++OOOOOO++@@@@OO##@@##@@@@",
"@@@@@@++@@++OO++++OOooOOOOooXXoo  ......  oo  OOXX++OOOOooOOOO##@@@@oo++OOooOOooXXoo  ..  oo  ..  OOXX++OOOOooOO++++OO##@@##@@@@",
"@@@@@@++@@++OO++++OOooOOOOooXXoo  ......  oo  OOXX++OOOOooOOOO##@@@@oo++OOooOOooXXoo  ..  oo  ..  OOXX++OOOOooOO++++OO##@@##@@@@",
"++++++++@@++ooooooooOOOOOOooXXXXOO  ....    OOooXX++OOOOOOoooo##@@@@ooooooOOOOooXXXXOO    oo    OOooXX++OOOOOOoooooooo##@@@@++++",
"++++++++@@++ooooooooOOOOOOooXXXXOO  ....    OOooXX++OOOOOOoooo##@@@@ooooooOOOOooXXXXOO    oo    OOooXX++OOOOOOoooooooo##@@@@++++",
"@@@@@@@@@@++ooOOOOOOOOOOOOooXXXXooOO  ..  OOooooXX++OOOOOOOOOO##@@@@ooOOOOOOOOooXXXXooOO  oo  OOooooXX++OOOOOOOOOOOOoo##@@@@@@@@",
"@@@@@@@@@@++ooOOOOOOOOOOOOooXXXXooOO  ..  OOooooXX++OOOOOOOOOO##@@@@ooOOOOOOOOooXXXXooOO  oo  OOooooXX++OOOOOOOOOOOOoo##@@@@@@@@",
"OOOOOO@@@@++ooOOOOOOOOOOOOoo  XXooooOO  OOooooXX  OOOOOOOOOOOO##@@@@ooOOOOOOOOoo  XXooooOO  OOooooXX  OOOOOOOOOOOOOOoo##@@OOOOOO",
"OOOOOO@@@@++ooOOOOOOOOOOOOoo  XXooooOO  OOooooXX  OOOOOOOOOOOO##@@@@ooOOOOOOOOoo  XXooooOO  OOooooXX  OOOOOOOOOOOOOOoo##@@OOOOOO",
"++++++##@@++ooOOOOOOOOOOoo  oo  XXooooOOooooXX  oo  ooOOOOOOOO##@@@@ooOOOOOOOO  XX  XXooooOOooooXX  XX  ooOOOOOOOOOOoo##@@OO++++",
"++++++##@@++ooOOOOOOOOOOoo  oo  XXooooOOooooXX  oo  ooOOOOOOOO##@@@@ooOOOOOOOO  XX  XXooooOOooooXX  XX  ooOOOOOOOOOOoo##@@OO++++",
"########@@++ooOOOOOOOOoooo  oooo  XXOOooooXX  oooo  OOooOOOOOO##@@@@ooOOOOOOoo  XXXX  XXOOooooXX        OOooOOOOOOOOoo##@@@@####",
"########@@++ooOOOOOOOOoooo  oooo  XXOOooooXX  oooo  OOooOOOOOO##@@@@ooOOOOOOoo  XXXX  XXOOooooXX        OOooOOOOOOOOoo##@@@@####",
"@@@@@@@@@@++ooOOOOOOooXXoo  oooo  OOooooXXoo        OOooOOOOOO##@@@@ooOOOOooOO  XXXX  OOooooXXoo  oooo  OOooOOOOOOOOoo##@@@@@@@@",
"@@@@@@@@@@++ooOOOOOOooXXoo  oooo  OOooooXXoo        OOooOOOOOO##@@@@ooOOOOooOO  XXXX  OOooooXXoo  oooo  OOooOOOOOOOOoo##@@@@@@@@",
"OOOOOO@@@@++ooOOOOOOooXXoo  oo  OOooooXXXXooOO  XX  OOoo++OOOO##@@@@ooOOOOooOO  XX  OOooooXXXXooOO  oo  OOoo++OOOOOOoo##@@OOOOOO",
"OOOOOO@@@@++ooOOOOOOooXXoo  oo  OOooooXXXXooOO  XX  OOoo++OOOO##@@@@ooOOOOooOO  XX  OOooooXXXXooOO  oo  OOoo++OOOOOOoo##@@OOOOOO",
"++++++##@@++ooOOOOOOooXXoo    ooooooXX  XXooooOO    OOoo++OOOO##@@@@ooOOOOooOO    ooooooXX  XXooooOO    OOoo++OOOOOOoo##@@OO++++",
"++++++##@@++ooOOOOOOooXXoo    ooooooXX  XXooooOO    OOoo++OOOO##@@@@ooOOOOooOO    ooooooXX  XXooooOO    OOoo++OOOOOOoo##@@OO++++",
"++++++##@@++ooOOOOOOooXXoo  ooXXooXX  ..  XXooooOO  OOoo++OOOO##@@@@ooOOOOooOO  ooXXooXX  XX  XXooooOO  OOoo++OOOOOOoo##@@OO++++",
"++++++##@@++ooOOOOOOooXXoo  ooXXooXX  ..  XXooooOO  OOoo++OOOO##@@@@ooOOOOooOO  ooXXooXX  XX  XXooooOO  OOoo++OOOOOOoo##@@OO++++",
"++++++##@@++ooOOOOOOooXXooXXXXXXXX  ....    XXooooXXOOoo++OOOO##@@@@ooOOOOooOOXXXXXXXX  XXXX    XXooooXXOOoo++OOOOOOoo##@@OO++++",
"++++++##@@++ooOOOOOOooXXooXXXXXXXX  ....    XXooooXXOOoo++OOOO##@@@@ooOOOOooOOXXXXXXXX  XXXX    XXooooXXOOoo++OOOOOOoo##@@OO++++",
"++++++##@@++ooOOOOOOooXXooXXXXXX  ......  oo  XXooXXOOoo++OOOO##@@@@ooOOOOooOOXXXXXX  ..  XX  oo  XXooXXOOoo++OOOOOOoo##@@OO++++",
"++++++##@@++ooOOOOOOooXXooXXXXXX  ......  oo  XXooXXOOoo++OOOO##@@@@ooOOOOooOOXXXXXX  ..  XX  oo  XXooXXOOoo++OOOOOOoo##@@OO++++",
"++++++##@@++ooOOOOOOooXXooXXXX  ........  oooo  XXXXOOoo++OOOO##@@@@ooOOOOooOOXXXX    ....    oooo  XXXXOOoo++OOOOOOoo##@@OO++++",
"++++++##@@++ooOOOOOOooXXooXXXX  ........  oooo  XXXXOOoo++OOOO##@@@@ooOOOOooOOXXXX    ....    oooo  XXXXOOoo++OOOOOOoo##@@OO++++",
"++++++##@@++ooOOOOOOooXXooXX  ....        oooooo  XXOOoo++OOOO##@@@@ooOOOOooOOXX  oooo  ....  oooooo  XXOOoo++OOOOOOoo##@@OO++++",
"++++++##@@++ooOOOOOOooXXooXX  ....        oooooo  XXOOoo++OOOO##@@@@ooOOOOooOOXX  oooo  ....  oooooo  XXOOoo++OOOOOOoo##@@OO++++",
"++++++##@@++ooOOOOOOooXXooXXoo  ..  XXXX  oooo  OOXXOOoo++OOOO##@@@@ooOOOOooOOXXoo  oooo  ....  oo  OOXXOOoo++OOOOOOoo##@@OO++++",
"++++++##@@++ooOOOOOOooXXooXXoo  ..  XXXX  oooo  OOXXOOoo++OOOO##@@@@ooOOOOooOOXXoo  oooo  ....  oo  OOXXOOoo++OOOOOOoo##@@OO++++",
"++++++##@@++ooOOOOOOooXXooXXXXoo          oo  OOooXXOOoo++OOOO##@@@@ooOOOOooOOXXXXoo  oo  ......  OOooXXOOoo++OOOOOOoo##@@OO++++",
"++++++##@@++ooOOOOOOooXXooXXXXoo          oo  OOooXXOOoo++OOOO##@@@@ooOOOOooOOXXXXoo  oo  ......  OOooXXOOoo++OOOOOOoo##@@OO++++",
"++++++##@@++ooOOOOOOooXXooXXXXXXOO  oooo    OOooooXXOOoo++OOOO##@@@@ooOOOOooOOXXXXXXOO    ....  OOooooXXOOoo++OOOOOOoo##@@OO++++",
"++++++##@@++ooOOOOOOooXXooXXXXXXOO  oooo    OOooooXXOOoo++OOOO##@@@@ooOOOOooOOXXXXXXOO    ....  OOooooXXOOoo++OOOOOOoo##@@OO++++",
"++++++##@@++ooOOOOOOooXXoo  XXXXooOO  oo  OOooooXX  OOoo++OOOO##@@@@ooOOOOooOO  XXXXooOO  ..  OOooooXX  OOoo++OOOOOOoo##@@OO++++",
"++++++##@@++ooOOOOOOooXXoo  XXXXooOO  oo  OOooooXX  OOoo++OOOO##@@@@ooOOOOooOO  XXXXooOO  ..  OOooooXX  OOoo++OOOOOOoo##@@OO++++",
"++++++##@@++ooOOOOOOooXXoo    XXooooOO  OOooooXX    OOoo++OOOO##@@@@ooOOOOooOO    XXooooOO  OOooooXX    OOoo++OOOOOOoo##@@OO++++",
"++++++##@@++ooOOOOOOooXXoo    XXooooOO  OOooooXX    OOoo++OOOO##@@@@ooOOOOooOO    XXooooOO  OOooooXX    OOoo++OOOOOOoo##@@OO++++",
"++++++##@@++ooOOOOOOooXXoo  XX  XXooooOOooooXX  ..  OOoo++OOOO##@@@@ooOOOOooOO  oo  XXooooOOooooXX  oo  OOoo++OOOOOOoo##@@OO++++",
"++++++##@@++ooOOOOOOooXXoo  XX  XXooooOOooooXX  ..  OOoo++OOOO##@@@@ooOOOOooOO  oo  XXooooOOooooXX  oo  OOoo++OOOOOOoo##@@OO++++",
"++++++##@@++ooOOOOOOooXXoo        XXOOooooXX  ....  OOoo++OOOO##@@@@ooOOOOooOO  oooo  XXOOooooXX  oooo  OOoo++OOOOOOoo##@@OO++++",
"++++++##@@++ooOOOOOOooXXoo        XXOOooooXX  ....  OOoo++OOOO##@@@@ooOOOOooOO  oooo  XXOOooooXX  oooo  OOoo++OOOOOOoo##@@OO++++",
"OOOOOO@@++OOooOOOOOOooXXoo  oooo  OOooooXXoo  ....  OOoo++OOOO##@@@@ooOOOOooOO        OOooooXXoo  oooo  OOoo++OOOOOOoo@@++OOOOOO",
"OOOOOO@@++OOooOOOOOOooXXoo  oooo  OOooooXXoo  ....  OOoo++OOOO##@@@@ooOOOOooOO        OOooooXXoo  oooo  OOoo++OOOOOOoo@@++OOOOOO",
"@@@@@@####@@ooOOOOOOooXXoo  oo  ooooooXXXXooOO  ..  OOoo++OOOO##@@@@ooOOOOooOO  XX  ooooooXXXXooOO  oo  OOOO++OOOOOOoo####++@@@@",
"@@@@@@####@@ooOOOOOOooXXoo  oo  ooooooXXXXooOO  ..  OOoo++OOOO##@@@@ooOOOOooOO  XX  ooooooXXXXooOO  oo  OOOO++OOOOOOoo####++@@@@",
"++++++##@@++ooOOOOOOOOoooo    ooXXooXX  XXooooOO    OO++OOOOOO##@@@@ooOOOOOOoo    ooXXooXX  XXooooOO    OO++OOOOOOOOoo##@@OO++++",
"++++++##@@++ooOOOOOOOOoooo    ooXXooXX  XXooooOO    OO++OOOOOO##@@@@ooOOOOOOoo    ooXXooXX  XXooooOO    OO++OOOOOOOOoo##@@OO++++",
"++++++##@@++ooOOOOOOOOOOoo  XXXXXXXX  oo  XXooooXX  ++OOOOOOOO##@@@@ooOOOOOOOO  XXXXXXXX  ..  XXooooXX  ++OOOOOOOOOOoo##@@OO++++",
"++++++##@@++ooOOOOOOOOOOoo  XXXXXXXX  oo  XXooooXX  ++OOOOOOOO##@@@@ooOOOOOOOO  XXXXXXXX  ..  XXooooXX  ++OOOOOOOOOOoo##@@OO++++",
"++++++##@@++ooOOOOOOOOOOOOooXXXXXX  oooo    XXooXX++OOOOOOOOOO##@@@@ooOOOOOOOOooXXXXXX    ....  XXooXX++OOOOOOOOOOOOoo##@@OO++++",
"++++++##@@++ooOOOOOOOOOOOOooXXXXXX  oooo    XXooXX++OOOOOOOOOO##@@@@ooOOOOOOOOooXXXXXX    ....  XXooXX++OOOOOOOOOOOOoo##@@OO++++",
"++++++##@@++ooOOOOOOOOOOOOooXXXX    oooo  ..  XXXX++OOOOOOOOOO##@@@@ooOOOOOOOOooXXXX  oo  ......  XXXX++OOOOOOOOOOOOoo##@@OO++++",
"++++++##@@++ooOOOOOOOOOOOOooXXXX    oooo  ..  XXXX++OOOOOOOOOO##@@@@ooOOOOOOOOooXXXX  oo  ......  XXXX++OOOOOOOOOOOOoo##@@OO++++",
"++++++##@@++OO@@@@++OOOOOOooXX  XX  oooo  ....  XX++OOOOOO++++##@@@@oo@@++OOOOooXX    oo  ......    XX++OOOOOO++@@@@OO##@@OO++++",
"++++++##@@++OO@@@@++OOOOOOooXX  XX  oooo  ....  XX++OOOOOO++++##@@@@oo@@++OOOOooXX    oo  ......    XX++OOOOOO++@@@@OO##@@OO++++",
"++++++##@@++OO++++OOooOOOOoo  XXXX  oooo  ......  ++OOOOooOOOO##@@@@oo++OOooOOoo  ..  oo  ......  XX  ++OOOOooOO++++OO##@@OO++++",
"++++++##@@++OO++++OOooOOOOoo  XXXX  oooo  ......  ++OOOOooOOOO##@@@@oo++OOooOOoo  ..  oo  ......  XX  ++OOOOooOO++++OO##@@OO++++",
"++++++##@@++ooooooooOOOOOOoo  XXXX  oooo  ......  ++OOOOOOoooo##@@@@ooooooOOOOoo  ..              XX  ++OOOOOOoooooooo##@@OO++++",
"++++++##@@++ooooooooOOOOOOoo  XXXX  oooo  ......  ++OOOOOOoooo##@@@@ooooooOOOOoo  ..              XX  ++OOOOOOoooooooo##@@OO++++",
"++++++##@@++ooOOOOOOOOOOOOoo  XXXX  oooo  ......  ++OOOOOOOOOO##@@@@ooOOOOOOOOoo  ..  oooooooooo  XX  ++OOOOOOOOOOOOoo##@@OO++++",
"++++++##@@++ooOOOOOOOOOOOOoo  XXXX  oooo  ......  ++OOOOOOOOOO##@@@@ooOOOOOOOOoo  ..  oooooooooo  XX  ++OOOOOOOOOOOOoo##@@OO++++"
};
