/* XPM */
static char *e14d61e9ab184f9ffa2f678f8e9f4241QWbD16zGLFEkg984[] = {
/* columns rows colors chars-per-pixel */
"32 32 7 1 ",
"  c None",
". c #06060F",
"X c #096A06",
"o c #0D9F09",
"O c #52D33C",
"+ c #83F646",
"@ c white",
/* pixels */
"                                ",
"                                ",
"                                ",
"                                ",
"                                ",
"                                ",
"                                ",
"               ..               ",
"              .@+.              ",
"             .@@@+.             ",
"            .@@OO@+.            ",
"           .@@OOOO@+.           ",
"           .ooOOOO++.           ",
"           .ooOOOO++.           ",
"           .ooOOOO++.           ",
"           .ooOOOO++.           ",
"           .ooOOOO++.           ",
"           .ooOOOO++.           ",
"           .ooOOOO++.           ",
"           .oXOOOOXX.           ",
"            .oXOOXX.            ",
"             .oXXX.             ",
"              .oX.              ",
"               ..               ",
"                                ",
"                                ",
"                                ",
"                                ",
"                                ",
"                                ",
"                                ",
"                                "
};
