/* XPM */
static char *d7d9f54ec6c84f8d94043b0b6c4fe0b9Hwf85EZgCt5V1qdf[] = {
/* columns rows colors chars-per-pixel */
"32 32 9 1 ",
"  c black",
". c #713143",
"X c #504551",
"o c #6A6F76",
"O c #AB5B49",
"+ c #C9815E",
"@ c #929EA0",
"# c #B2CABD",
"$ c #C9E5D6",
/* pixels */
"$$$##$$$$$$$$$$$$$$$$$$$$$$##$$$",
"$$$##$$$$$$$$$$$$$$$$$$$$$$##$$$",
"###@@######################@@###",
"@@oX                        Xo@@",
"$$@X .....XX........XX..... X@$$",
"$$#X OOO.OXXO.OOOO.OXXO.OOO X#$$",
"$$#X +++O+XX+O++++O+XX+O+++ X#$$",
"$$#X OOO.OOOO.OOOO.OOOO.OOO X#$$",
"$$#X          o@@o          X#$$",
"$$#X XXXXXX XoXXXXoX XXXXXX X#$$",
"$$#X          oooo          X#$$",
"$$#X                        X#$$",
"$$#X                        X#$$",
"$$#X                        X#$$",
"$$#X                        X#$$",
"$$#X                        X#$$",
"#@@X                        X@@#",
"$$#X                        X#$$",
"$$#X                        X#$$",
"$$#X                        X#$$",
"$$#X                        X#$$",
"$$#X                        X#$$",
"$$#X                        X#$$",
"$$#X                        X#$$",
"$$#X                        X#$$",
"$$#X                        X#$$",
"$$#X                        X#$$",
"##@X                        X@##",
"@@oX                        Xo@@",
"$$$##$$$$$$$$$$$$$$$$$$$$$$##$$$",
"$$$##$$$$$$$$$$$$$$$$$$$$$$##$$$",
"###@@######################@@###"
};
