/* XPM */
static char *_17f36c29df1467bbf9bdb1a95480496UBuXuZM92BZZCS5S[] = {
/* columns rows colors chars-per-pixel */
"128 128 13 1 ",
"  c None",
". c #292829",
"X c #783E3A",
"o c #1D583B",
"O c #B85F33",
"+ c #AE7340",
"@ c #309060",
"# c #40D870",
"$ c #E1B050",
"% c #DC9A6A",
"& c #F8C9A6",
"* c #C3BED6",
"= c #F0F8F0",
/* pixels */
"             ......                          ......                          ......                                             ",
"           ..@####@..                      ..@####@..                      ..@####@..                                           ",
"          .@########@.                    .@########@.                    .@########@.                       ......             ",
"         .@##########@.                  .@##########@.                  .@##########@.                    ..@####@..           ",
"         .@oX+$$$$+Xo@@.                 .@oX+$$$$+Xo@@.                 .++X+$$$$+Xo@@.                  .@########@.          ",
"        .oX+$$$$$$$++o@.                .oX+$$$$$$$+$o@.                .X$$$$$$$$$+$o@.                 .@##########@.         ",
"        .X+$++$$$$$+$$oo.               .X+$+$$$$$$+$$oo.               .X+$++$$$$$$$$oo.                XXXX+$$$$$+o@@.        ",
"        .X++$$$$$$$$$$+o.               .X$+$$$$$$$$$$+o.               .XX+$$$$$$$+$$+o.               .X$$$$++$$$$$o@.        ",
"     ....+X$$$$$$$$+$$+o...          ....+X$$$$$$$$$$$+o...          .....X$$$$$$$$+$$+o...             .X++++$$$$$$$$oo.       ",
"     .%%XX+$$$$$$$+X$$X.%%.          .%%XX+$$$$$$$$+$$X.%%.          .%%XX+$$$$$+++X+$X.%%.             .XX$$$$$$$$+$$+o.       ",
"     .&&X.+$$$$$+++X+$X%&&.          .&&X.+$$$$$$++X+$X%&&.          .&&X+++++++++XX++X%&&.          ....+X$$$$$$$$+$$+o...     ",
"     .%X%.++++++++X%X$.&X%.          .%X%.++$$$++++X+$.&X%.          .%X%.+++++XXX%%X+.&X%.          .%%XX+$$$+++++X+$X.%%.     ",
"      .%.X.+++++XX%%X.+.%X            .%.X.++++++XX%X++.%X.           .%.+.XXXX%%%%%%.X.%X.          .&&X.+++++++++X++X%&&.     ",
"       ..+....XX%%....$.X.             .++....XXX%....$$Xo.           .X+X....%%%%....+$Xo.          .%X%.++++++XXX%X+.&X%.     ",
"        .+X*...%%...*X+.o.             .X.X*...%%...*X.+.o.            ..XX*...%%...*X..oo.           .%.X.XXXXX%%%%X.+.%X      ",
"        .X.=..%&&%..=.Xooo.            ....=..%&&%..=.....               ..=..%&&%..=.ooo.             .X+....%%%%....$.X...    ",
"         ..%==&&&&==%..ooo.               .%==&&&&==%.XX...               .%==&&&&==%....              .+XX*...&&...*X$.ooo.    ",
"         .X.%&&&&&&%.X..oo.               .X%&&&&&&%XXXXX%.              ..X%&&&&&&%X.XXX.             ....=..%&&%..=.X+ooo.    ",
"        .XX@.X%%%%X.@XX...               .X@.X%%%%X.@XXX%%.             .XX@.X%%%%X.@XXX%%.               .%==&&&&==%..ooo.     ",
"       .XXX@@..XX..@@XXX.                .XX@..XX..@@XX...             .XXXX@..XX..@@XX.%%.             ...X%&&&&&&%X.....      ",
"       .XX.@##++++##@.XX.               .XXX##++++##@X.                .%&%X##++++##@X....             .XXo@.X%%%%X.@XXX.       ",
"       .X%&.########.&%X.               .%&%@#####@@..                 .&&&.@#####@@..                .XXXX@@..XX..@@XXXX.      ",
"       ..%&@.@####@.@&%..               .&&&.@@XX@@oo.                 .%&%o.@@XX@##o..              .X%XXX.########.XX%&%.     ",
"        .X%@#.X$$X.#@%X.                .%&%o.X$@####@.                 ...@o.X$#####@.              .%%%X.@.@####@.@.X&&&.     ",
"         ..@@######@@..                  ...@@@###@@@o.                   .@@@###@oooo.              .X%X..@#.X$$X.#@..%&%.     ",
"         .+o@@@@@@@@o.                    .o@###@.++X..                   .o###@o.XXX.                ...++o@@#####@@+....      ",
"         .++oo@@@@oo+.                     .oo@o.+$$+.                     .o@@o.+$$+.                  .+++oo@@@@@@o++.        ",
"         .XX+.....++$$.                    .XX...$OO$.                      .....$OO$.                   .X++oo@@@oo+$$.        ",
"        .XOXX.    .$$O.                     ... .OXXO.                          .OOOO.                  .XXX+......$$$.         ",
"        .OOX.     .XOOO.                        .XXXX.                          .OXXO.                  .OOX.     .XOOO.        ",
"         ...       .XOO.                         .XX.                            .XX.                    ...       .XOO.        ",
"                    ...                           ..                              ..                                ...         ",
"                                             .....                            .....                                             ",
"             .....                         ..@###@..                        ..@###@..                                           ",
"           ..@###@..                     ..@#######@.                     ..@#######@.                                          ",
"         ..@#######@.                   .X+$$+X@#####.                   .X+$$$++X@###.                      .....              ",
"        .X+$$+X@####@.                 .+$$$$$$+X@##@@.                 .+$$$$$$$$$XX@@.                   ..@###@..            ",
"       .+$$$$$$+X@###@.               .+XX+$$$$$+X@@@@.                .XX+$$$++++$$+@@o.                ..@#######@.           ",
"      .+X+$$$$$$+X@##@o.              .X+$$$$$$$$+X@@@o.               .$$$$$$$$$$++X@@@.               .X+$$+XX@####.          ",
"      .X+$$$$$$+$+X@@@@.              .+$$$$$$$$+$+@@@@.               .+++$$$$$$$$$X@@@o.             .+$$$$$$$++XX@.          ",
"      .+$$$$$$$$+$+@@@@.              .$$$$$$$$$$++X@@@o.              .XX+++$$$$$$+X@@@@o.           .+$$$$$$$$$$$X@o.         ",
"      .++$$$$$$$$X+X@@@o.             .+$$$$$$$$$++X@@@@.               .%XX+++$$++X@@@@@@o.          .X+$$$$$++$$+X@@.         ",
"       X++++$$$$+XXX@@@@.              .+$$$$$$$+XXXX@@@.               .%%%XX++++XXXX@@@@oo.         .+$$$$$$$$+XX@@@o.        ",
"       .X++++++++XXXX@@@o.             .XX+++++XX%&&%@@@.               .%%%%%XXX+%&&%@@oooo.         .+++$$$$$$$$XX@@@o..      ",
"       .%XXX+++XX%&&%@@@o.             .&%...XX+X&XX%@@@.               .&%...XX+$&XX%oooooo.         .X+++++$$$+++X@@@@oo.     ",
"       .&%...XX+$&XX%@@oo.             .&...*.X$+XX%X@@o.               .&...*.X$XXX%Xooooo.           .X++++++++XXXX@@ooo.     ",
"       .&...*.X$+XX%Xoooo.            .%&=..=%.+$X%Xoooo.              .%&=..=%X$+%%Xoooo..            .%XXX+++XX%&&%ooooo.     ",
"      .%&=..=%X$X%%Xooooo.            .%&&==&&%.+XX..ooo.              .%&&==&&.+$XX+....              .&%...XX+$&XX%oooo.      ",
"      .%&&==&&.+XXX..oooo.             .%&&&&%%.X+.X.oo.                .%&&&&%%.XX..                  .&...*.X$+XX%Xooo.       ",
"       .%&&&&&.XX+.  .ooo.              .X%%%%X...XX.oo.                 .X%%%%X...X.                 .%&=..=%X$X%%Xoo..        ",
"        .X%%%%X....   ...                .XXX.+@oo.X...                   .XXX.+@@o..                 .%&&==&&.+XXX...          ",
"        ..XXX.@oXXX.                       .@+XXooo.                        .@+XXX@o.                  .%&&&&&.XX+...           ",
"       .XX.@++#@XXXX.                    ....XXXXoo.                       ...XXXXoo.                   .X%%%%X...XX.           ",
"      .XXX@####@..XXX.                  .%&%XXXXoo..                      .%&%XXXXo..                    .XXX..oXXXXX.          ",
"      .XX.####@.%XXXX.                ...&&&XXX...@o..                    .&&&XX...@o...                .XX.@++@%&%XX.          ",
"       .%o$$X..%&%XX.                .XX.%&%...@##@oXX.                   .%&%..@@#@oXOO.              .%%.@###.&&&%X.          ",
"       .%@####.%&&X.                 .XXX+..@####@o$XOO.                  ....#####@oXXO.              .%...@#@.%&%..           ",
"        .@@@@@o.%..                   .XXX+.o@@@oo$$.OO.                ..++.o@###@o$$..                .o@#$$Xo...o.           ",
"        .o@@@@@oooo.                   .XX. ....+++. ...               .XX.X+.....o++.                  .Xo@###@@o+++.          ",
"        .X+....++$$.                    ..      ...                    .XXXX.     ...                    .X+@@@@o+$$$.          ",
"       .XXX+.  .$XO.                                                    .XX.                            .XXX+....$$O.           ",
"       .XXX.   .XOOO.                                                    ..                             .XXX.   .XOOO.          ",
"        ...     .OOX.                                                                                    ...     .OOX.          ",
"                 ...                                                                                              ...           ",
"                                            .....                             .....                                             ",
"             .....                        ..@###@..                         ..@###@..                                           ",
"           ..@###@..                     .@#######@..                      .@#######@..                                         ",
"          .@#######@..                  .#####@X+$$+X.                    .###@X++$$$+X.                     .....              ",
"         .@####@X+$$+X.                .@@##@X+$$$$$$+.                  .@@XX$$$$$$$$$+.                  ..@###@..            ",
"        .@###@X+$$$$$$+.               .@@@@X+$$$$$+XX+.                .o@@+$$++++$$$+XX.                .@#######@..          ",
"       .o@##@X+$$$$$$+X+.             .o@@@X+$$$$$$$$+X.                .@@@X++$$$$$$$$$$.               .####@XX+$$+X.         ",
"       .@@@@X+$+$$$$$$+X.             .@@@@+$+$$$$$$$$+.               .o@@@X$$$$$$$$$+++.               .@XX++$$$$$$$+.        ",
"       .@@@@+$+$$$$$$$$+.            .o@@@X++$$$$$$$$$$.              .o@@@@X+$$$$$$+++XX.              .o@X$$$$$$$$$$$+.       ",
"      .o@@@X+X$$$$$$$$++.            .@@@@X++$$$$$$$$$+.             .o@@@@@@X++$$+++XX%.               .@@X+$$++$$$$$+X.       ",
"      .@@@@XXX+$$$$++++X             .@@@XXXX+$$$$$$$+.             .oo@@@@XXXX++++XX%%%.              .o@@@XX+$$$$$$$$+.       ",
"     .o@@@XXXX++++++++X.             .@@@%&&%XX+++++XX.             .oooo@@%&&%+XXX%%%%%.            ..o@@@XX$$$$$$$$+++.       ",
"     .o@@@%&&%XX+++XXX%.             .@@@%XX&X+XX...%&.             .oooooo%XX&$+XX...%&.           .oo@@@@X+++$$$+++++X.       ",
"     .oo@@%XX&$+XX...%&.             .o@@X%XX+$X.*...&.              .oooooX%XXX$X.*...&.           .ooo@@XXXX++++++++X.        ",
"     .ooooX%XX+$X.*...&.             .ooooX%X$+.%=..=&%.              ..ooooX%%+$X%=..=&%.          .ooooo%&&%XX+++XXX%.        ",
"     .oooooX%%X$X%=..=&%.            .ooo..XX+.%&&==&&%.                ....+XX$+.&&==&&%.           .oooo%XX&$+XX...%&.        ",
"     .oooo..XXX+.&&==&&%.             .oo.X.+X.%%&&&&%.                     ..XX.%%&&&&%.             .oooX%XX+$X.*...&.        ",
"     .ooo.  .+XX.&&&&&%.              .oo.XX...X%%%%X.                      .X...X%%%%X.               ..ooX%%X$X%=..=&%.       ",
"      ...   ....X%%%%X.                ...X.oo@+.XXX.                       ..o@@+.XXX.                  ...XXX+.&&==&&%.       ",
"           .XXXo@.XXX..                   .oooXX+@.                         .o@XXX+@.                     ...+XX.&&&&&%.        ",
"          .XXXX@#++@.XX.                  .ooXXXX....                       .ooXXXX...                    .XX...X%%%%X.         ",
"         .XXX..@####@XXX.                 ..ooXXXX%&%.                      ..oXXXX%&%.                  .XXXXXo..XXX.          ",
"         .XXXX%.@####.XX.               ..o@...XXX&&&...                 ...o@...XX&&&.                  .XX%&%@++@.XX.         ",
"          .XX%&%..X$$o%.               .XXo@##@...%&%.XX.               .OOXo@#@@..%&%.                  .X%&&&.###@.%%.        ",
"           .X&&%.####@%.              .OOX$o@####@..+XXX.               .OXXo@#####....                   ..%&%.@#@...%.        ",
"            ..%.o@@@@@.               .OO.$$oo@@@o.+XXX.                 ..$$o@###@o.++..                 .o...oX$$#@o.         ",
"           .oooo@@@@@o.               ... .+++.... .XX.                    .++o.....+X.XX.               .+++o@@###@oX.         ",
"           .$$++....+X.                    ...      ..                      ...     .XXXX.               .$$$+o@@@@+X.          ",
"           .OX$.  .+XXX.                                                             .XX.                 .O$$....+XXX.         ",
"          .OOOX.   .XXX.                                                              ..                 .OOOX.   .XXX.         ",
"          .XOO.     ...                                                                                  .XOO.     ...          ",
"           ...                                                                                            ...                   ",
"             ......                          ......                        .......                                              ",
"           ..+$$$$+..                      ..+$$$$+..                      .$$$$$+..                      ...                   ",
"          .X+@####@+X.                    .X+@####@+X.                  ...X++$$$$++.                   ...++......             ",
"         .X@########@X.                  .X@########@X.                 .X++X@###@@+X.                  .+.+$$$$$++..           ",
"         .@##########@.                  .@##########@.                 .X+@########@X.                 .++X+@####@+X.          ",
"        .o############o.                .o############o.                 .@##########@.                 .X+@########@X.         ",
"        .@############o.                .@############o.                .@###########@o.                 .@##########@.         ",
"        .##########@##@.                .##########@##@.               .@##########@#@@.                .o############o.        ",
"     ...o##########@@#@....          ...o#########@@@#@....            .#########@@@#@@.                .@############o.        ",
"     .&%o#########@@@#@X%&.          .&%o########@@@@#@X%&.          ..o########@@@o@@@....             .##########@##@.        ",
"     .&%o########@@o@@@%%&.          .&%o########@@o@@@%%&.          .X@#######@@@o@@@@X%&.          ...o#########@@@#@....     ",
"     .%Xo#######@@@o@@@%&%.          .%Xo@######@@@o@@@%&%.          .X@@#####@@@@o@@@@%%&.          .%o@########@@@@#@X%&.     ",
"      .Xo@####@@@@@o@@oX%.            .Xo@@###@@@@@o@@oX%.           .X@@@###@@@@o@@@@o%&%.         .oo@#######@@@@o@@@%%&.     ",
"       .o@@@@@@@@@oo@@oX.              .o@@@@@@@@@oo@@oX.             .@@@@@@@@@oo@@@@oX%.          .o@@@###@@@@@@@o@@@%&%.     ",
"        .@@@@@@@@@oo@o+.                .@@@@@@@@@oo@o+.              .@@@@@@@@@.o@@@ooX.           .o@@@@@@@@@@@@@o@@oX%.      ",
"        .o@@@@@@@ooooo+.                .o@@@@@@@ooooo+.              .@@@@@@@@.ooo@@oo.             .o@@@@@@@@@@@oo@@oX.       ",
"         .@@@@@@o.ooo+.                  .@@@@@@o.ooo+..              .o@@@@@@o.oooooo+.              .o@@@@@@@@@o.o@o+.        ",
"         .o@@@@o.oo++.                  ..o@@@@o.oo++...               .o@@@@o.oooooo+. ...            ..o@@@@@oo.oooo+.        ",
"          .ooo..+++..                 ..XX.ooo..@@@..XXX.            ....o@@o.ooooo++...%%%.          ......oo...oooo+....      ",
"         .X...o@@@oXX.               .XXXXX...o###@@oXXX.           .%%XX....o@@@@@..XXXX%%.         .%%X.++ooooooo++..%&&.     ",
"        .XX.o@@@@@@XXX.              .%&%XX.o@#####@@oXX.           .&%XXXXoo@#####@oXXXXXX.         .%XXXXoooooooo...XX%&.     ",
"       .XXX.@#####@XXXX.             .&&&X..@.......@oX.            .%&%XXX.@#######@oXXXX.          .XXXXX.o@@@@@@oXXXXX%.     ",
"       .XXXo.@###@@oXXX.             .%&%....o@###@o.o..             .......@.......@oXX..            .XXX..@######@XXXXX.      ",
"        .%.@o......o&&%.              ....o@@@@@@@@###.                    ..o####@o....               ...@o.@####@@XXX..       ",
"        .%.@@######@%&.                   .@@@@@@@#@@@.                  ..o@@@@@@@@@@.                 .o@#o......o...         ",
"         .+o@@@@@@@@.%.                   .ooo@@##.++X.                  .o@@@@@@@####.                 .+o@#######@+.          ",
"         .++o@@@@@oo+.                     .XXooo.+XX+.                   .o@@@###.XX..                 .$$o@@@@@@@@o+.         ",
"         .XX+.....++$$.                     ......XXXX.                   .Xoo@@@.XXXX.                  .$$o@@@@@oo++.         ",
"        .XOXX.    .$$O.                          .XXXX.                    .XXX...XXXX.                 .OOX+......+$..         ",
"        .OXX.     .XXOO.                         .OXXO.                     ...  .OXXO.                 .XXX.     .XXOO.        ",
"         ...       .XXO.                          .OO.                           .XOOX.                  ...       .XXO.        ",
"                    ...                            ..                             .XX.                              ...         "
};
