/* XPM */
static char *_82ca1ac04b2458dcc09b62546831460D5wYp5faeVThCI87[] = {
/* columns rows colors chars-per-pixel */
"32 32 13 1 ",
"  c None",
". c #292829",
"X c #783E3A",
"o c #1D583B",
"O c #B85F33",
"+ c #AE7340",
"@ c #309060",
"# c #40D870",
"$ c #E1B050",
"% c #DC9A6A",
"& c #F8C9A6",
"* c #C3BED6",
"= c #F0F8F0",
/* pixels */
"             ......             ",
"           ..@####@..           ",
"          .@########@.          ",
"         .@##########@.         ",
"         .@oX+$$$$+Xo@@.        ",
"        .oX+$$$$$$$++o@.        ",
"        .X+$++$$$$$+$$oo.       ",
"        .X++$$$$$$$$$$+o.       ",
"     ....+X$$$$$$$$+$$+o...     ",
"     .%%XX+$$$$$$$+X$$X.%%.     ",
"     .&&X.+$$$$$+++X+$X%&&.     ",
"     .%X%.++++++++X%X$.&X%.     ",
"      .%.X.+++++XX%%X.+.%X      ",
"       ..+....XX%%....$.X.      ",
"        .+X*...%%...*X+.o.      ",
"        .X.=..%&&%..=.Xooo.     ",
"         ..%==&&&&==%..ooo.     ",
"         .X.%&&&&&&%.X..oo.     ",
"        .XX@.X%%%%X.@XX...      ",
"       .XXX@@..XX..@@XXX.       ",
"       .XX.@##++++##@.XX.       ",
"       .X%&.########.&%X.       ",
"       ..%&@.@####@.@&%..       ",
"        .X%@#.X$$X.#@%X.        ",
"         ..@@######@@..         ",
"         .+o@@@@@@@@o.          ",
"         .++oo@@@@oo+.          ",
"         .XX+.....++$$.         ",
"        .XOXX.    .$$O.         ",
"        .OOX.     .XOOO.        ",
"         ...       .XOO.        ",
"                    ...         "
};
