/* XPM */
static char *_fb55871e4124432f597913c2ce0302dJKegJjg3w6YEB2ui[] = {
/* columns rows colors chars-per-pixel */
"61 38 166 2 ",
"   c #202020",
".  c #252525",
"X  c #2C2C2C",
"o  c gray18",
"O  c gray19",
"+  c #343434",
"@  c gray21",
"#  c gray22",
"$  c #393939",
"%  c #3A3A3A",
"&  c gray23",
"*  c gray24",
"=  c #3E3E3E",
"-  c #4F0B06",
";  c #4F0C07",
":  c #4F0C08",
">  c #4F0D08",
",  c #4F0D09",
"<  c #500E09",
"1  c #500F0B",
"2  c #4E100C",
"3  c #50100B",
"4  c #52130F",
"5  c #4D1614",
"6  c #4E1815",
"7  c #4F1A18",
"8  c #521310",
"9  c #551A17",
"0  c #521D1B",
"q  c #521E1C",
"w  c #53201E",
"e  c #4B2422",
"r  c #4B2928",
"t  c #4A2F2E",
"y  c #552321",
"u  c #5E2523",
"i  c #592625",
"p  c #5C2A29",
"a  c #5C2B2A",
"s  c #5E2D2C",
"d  c #4C3130",
"f  c #4D3332",
"g  c #493D3C",
"h  c #493E3E",
"j  c #563030",
"k  c #573E3D",
"l  c #583938",
"z  c #593F3E",
"x  c #602F2E",
"c  c #673837",
"v  c gray25",
"b  c #414141",
"n  c gray26",
"m  c #444444",
"M  c gray27",
"N  c #464646",
"B  c #484242",
"V  c #484747",
"C  c #4D4747",
"Z  c #484848",
"A  c gray29",
"S  c gray30",
"D  c #4E4E4E",
"F  c #524747",
"G  c #544949",
"H  c #544E4E",
"J  c #505050",
"K  c #515151",
"L  c #535353",
"P  c #565050",
"I  c #555555",
"U  c #565656",
"Y  c #595353",
"T  c #5B5555",
"R  c #5F5454",
"E  c #5B5B5B",
"W  c gray36",
"Q  c gray37",
"!  c #5F5E5E",
"~  c #6F4341",
"^  c #664D4D",
"/  c #6D4848",
"(  c #704443",
")  c #605656",
"_  c #625858",
"`  c #735555",
"'  c #755857",
"]  c #7A5959",
"[  c #7B5D5D",
"{  c gray39",
"}  c #646363",
"|  c #646464",
" . c #656565",
".. c gray40",
"X. c #686868",
"o. c #6C6C6C",
"O. c #796160",
"+. c #726C6C",
"@. c gray44",
"#. c #717070",
"$. c gray45",
"%. c gray46",
"&. c #767676",
"*. c #7C7373",
"=. c gray47",
"-. c #797979",
";. c #7B7B7B",
":. c #7C7C7C",
">. c #7E7E7E",
",. c #826565",
"<. c #836B6A",
"1. c #886B6A",
"2. c #927070",
"3. c #977978",
"4. c #9B7F7E",
"5. c #848484",
"6. c gray52",
"7. c gray53",
"8. c #8A8080",
"9. c #948F8E",
"0. c #978E8E",
"q. c #929292",
"w. c #979696",
"e. c #989898",
"r. c #9B9B9B",
"t. c gray61",
"y. c #9F9F9F",
"u. c #A08484",
"i. c #A28B8B",
"p. c #AE9796",
"a. c #A0A0A0",
"s. c gray65",
"d. c #A7A7A7",
"f. c #A9A4A4",
"g. c gray66",
"h. c #A9A9A9",
"j. c gray67",
"k. c gray68",
"l. c #B5ACAC",
"z. c #B3B2B2",
"x. c gray71",
"c. c #BBB6B6",
"v. c #BCBCBC",
"b. c #BDBCBC",
"n. c gray75",
"m. c #C1C1C1",
"M. c #C3C3C3",
"N. c gray78",
"B. c #CACACA",
"V. c #CBCBCB",
"C. c #CDCDCD",
"Z. c #D0C6C6",
"A. c #D1C8C8",
"S. c #D2C9C9",
"D. c #D0D0D0",
"F. c gray82",
"G. c #D5D5D5",
"H. c gray84",
"J. c #DED9D9",
"K. c gray88",
"L. c gray89",
"P. c #E4E4E4",
"I. c #EAE9E9",
"U. c gray92",
"Y. c #ECEBEB",
"T. c #ECECEC",
/* pixels */
"- - - - - - - - - - - - - - - - - - - - - - - - - - - - - - - - - - - - - - - - - - - - - - - - - - - - - - - - - - - - - ",
"- - - - - - - - - - - - - - - - - - - - - - - - - - - - - - - - - - - - - - - - - - - - - - - - - - - - - - - - - - - - - ",
"- - - - - - - - - - - - - - - - - - - - - - - - - - - - - - - - - - - - - - - - - - - - - - - - - - - - - - - - - - - - - ",
"- - - - - - - - - - - - - - - - - - - - - - - - - - - - - - - - - - - - - - - - - - - - - - - - - - - - - - - - - - - - - ",
"- - - - - - < < < - - - - - - - - - - - - - - - - - - - - - - - - - - - - - - - - - - - - - - - - - - - - - - - - - - - - ",
"- - - - - 9 / ` / 0 - - - - - - - - - - - - - - - - - - - - - - - - - - - - - - - - - - - - - - - - - - - - - - - - - - - ",
"- - - - - a 8.w.8.a - - - - ; ; - - - - - - - - - - - - - - - - - - - - - - - - - - - - - - - - - - - - - ; - - - - - - - ",
"- - - - - a 8.w.3.x 4 4 4 4 4 4 8 8 8 8 8 8 8 8 1 8 < : - < - - - - - - - - - - - - - - - - - - - - - - - < < 8 1 - - - - ",
"- - - - - 9 / ` ] 3.u.u.0.4.u.u.u.u.u.u.0.4.0.4.1.,.[ F l a 8 - - - - - - - - - - - - - - - - ; - - - - - u 2.u.2.x - - - ",
"- - - - - - < < ( Z.I.I.I.I.I.I.I.I.I.I.I.I.I.K.b.z.s.$.} ) 0 - - ; - - - - - - - - - - - - - ; - - - - < ( Z.I.Z.c - - - ",
"- - - - - - < 3 ( A.I.T.T.I.T.T.Y.Y.Y.Y.I.I.U.L.n.x.s.&..._ y 4 8 4 8 < 4 8 8 8 8 8 4 8 4 4 4 4 8 8 8 8 8 ( A.Y.A.( 4 < ; ",
"- - - - - 9 / ` <.c.V.V.V.V.V.V.V.V.V.A.A.G.G.G.F.F.B.z.j.f.i.u.u.u.u.q.u.u.u.u.u.u.u.u.u.u.u.u.u.u.u.u.u.p.J.Y.J.p.u.2.x ",
"- - - - - a 8.w.w.g.g.g.g.g.g.g.h.j.j.f.k.b.m.B.P.U.T.I.I.I.I.I.I.I.I.I.I.I.I.I.I.I.I.I.I.I.I.I.Y.Y.I.I.I.T.Y.Y.T.Y.I.Z.c ",
"- - - : : a 8.e.r.s.s.g.g.g.g.g.h.f.d.d.j.v.b.B.L.U.U.T.Y.Y.Y.Y.U.U.T.I.T.I.U.U.I.T.I.T.T.T.I.T.Y.Y.I.I.Y.Y.I.Y.Y.Y.I.Z.( ",
"- - 4 j l ^ q.a.t.w.q.q.q.w.q.q.q.q.q.q.w.t.y.s.M.V.B.B.B.B.B.C.C.V.V.C.V.V.C.V.C.C.V.V.C.V.V.B.V.B.V.B.V.B.B.B.V.B.B.l.c ",
"- - 0 R { +.t.g.a.7.:.:.:.:.:.:.:.:.:.:.>.:.:.7.y.j.j.s.j.j.j.s.d.j.d.d.d.j.d.j.d.f.s.j.g.g.g.g.f.j.j.j.j.j.j.s.j.j.j.0.x ",
"- - 0 ) { +.r.s.y.7.:.:.;.;.:.=.:.:.;.;.>.;.:.7.y.s.s.s.s.d.d.d.g.g.g.g.g.g.g.g.g.g.s.g.g.g.g.g.g.s.g.g.g.g.f.g.d.f.g.0.s ",
"- ; 8 s l F ` [ O.o.@.o.Q E E W W Q ..X.o.&.:.>.7.7.7.7.7.7.7.7.7.7.7.7.7.7.7.7.7.7.7.7.7.7.7.7.7.7.7.7.7.7.7.7.7.7.7.*.i ",
"- - - - < < < 8 q R | Q b % % % $ * J I E &.:.&.........| ......| | | | | | | | | | | | | | | | | | | | | | | | | | } ) q ",
"- - - - - - - - q R | W b # # # $ * D I E &.;.;.....| { { | { ..| | | | | | | | | | | | } | | } | | } | | | | | | | } ) q ",
"- - - - - 2 e r f H I K = # @ o X O b N D { ....Q Q T z l z H I U U U U U U I I E I U U P z l l l l l l l l l l l l l j 8 ",
"- - - - : 5 h Z Z Z Z N & # + .   . @ $ * D I I I K F 0 - 5 h N Z Z Z Z Z Z Z V V V Z V h 6 ; ; < ; : ; ; ; < ; : : 2 : - ",
"- - - - - 5 h Z Z Z Z N % # + .   . @ @ * K I I K I F q < 5 h Z Z V V V V V V V N Z Z V h 5 ; - - - ; ; - - - - - - ; ; - ",
"- - - - : 7 G I K m b = % # @ o X X @ $ * D L L D D C t r t B Z B t r r r r r r r r r r e 2 ; - - - - ; - - - - - - - - - ",
"- - ; - - 0 R ..W b # # # # # # # # # # * D I K Z Z V V V V Z Z h 5 ; ; ; ; ; ; ; ; ; ; - - - - - - - - - - - - - - - - - ",
"- - ; : - 0 R { Q n # # # # # # # # # # v K K J Z Z V V V V V V h 5 ; ; - ; - - - - - - - - - - - - - - - - - - - - - - - ",
"- - : e r f H I J = # # # # # # # % = b N I Q Y f r r r r r r r e : - - - - - - - - - - - - - - - - - - - - - - - - - - - ",
"- - 5 h Z N Z Z M & # # # # # # # & N A D _ { R w < ; < - - < - ; - - - - - - - - - - - - - - - - - - - - - - - - - - - - ",
"- - 5 g Z Z A N M % # # # # # # # & M A S Q } ) q - - - - - - - - - - - - - - - - - - - - - - - - - - - - - - - - - - - - ",
"- ; 5 h N N b b = O X o @ # # # # = J U P k l j 8 - - - - - - - - - - - - - - - - - - - - - - - - - - - - - - - - - - - - ",
"- - 5 h N N $ & + .   . + # # # # b W | R q : : - - - - - - - - - - - - - - - - - - - - - - - - - - - - - - - - - - - - - ",
"- - 5 h Z N * @ + .   . + # # # # b W | R q - - - - - - - - - - - - - - - - - - - - - - - - - - - - - - - - - - - - - - - ",
"- - 5 g Z N v b * O X o @ @ $ b v m K I G q - - - - - - - - - - - - - - - - - - - - - - - - - - - - - - - - - - - - - - - ",
"- - 5 g Z Z Z N N & $ @ @ & $ N Z Z Z N h 5 - - - - - - - - - - - - - - - - - - - - - - - - - - - - - - - - - - - - - - - ",
"- - 5 g N Z Z N N * @ $ @ $ * N Z Z V Z h 5 - - - - - - - - - - - - - - - - - - - - - - - - - - - - - - - - - - - - - - - ",
"- - < e r f B Z m b b v b v v N Z B t r e < - - - - - - - - - - - - - - - - - - - - - - - - - - - - - - - - - - - - - - - ",
"- - - < - 5 h N Z Z Z Z Z Z Z Z Z h 5 - - - - - - - - - - - - - - - - - - - - - - - - - - - - - - - - - - - - - - - - - - ",
"- - - - - 5 h Z Z Z Z Z Z Z Z Z Z h 5 - - - - - - - - - - - - - - - - - - - - - - - - - - - - - - - - - - - - - - - - - - "
};
