<?xml version="1.0" standalone="no"?>
<!DOCTYPE svg PUBLIC "-//W3C//DTD SVG 20010904//EN"
 "http://www.w3.org/TR/2001/REC-SVG-20010904/DTD/svg10.dtd">
<svg version="1.0" xmlns="http://www.w3.org/2000/svg"
 width="700.000000pt" height="700.000000pt" viewBox="0 0 700.000000 700.000000"
 preserveAspectRatio="xMidYMid meet">
<metadata>
Created by potrace 1.14, written by Peter Selinger 2001-2017
</metadata>
<g transform="translate(0.000000,700.000000) scale(0.100000,-0.100000)"
fill="#000000" stroke="none">
<path d="M1475 6388 c-25 -6 -492 -465 -487 -480 1 -4 -2 -7 -6 -6 -11 4 -78
-63 -75 -74 2 -4 -1 -7 -5 -5 -11 3 -158 -144 -155 -155 2 -4 -1 -7 -5 -5 -5
1 -172 -161 -371 -360 -200 -200 -359 -363 -354 -364 4 0 329 0 721 -1 695 0
714 -1 709 -19 -3 -10 -2 -21 2 -23 4 -3 4 -30 1 -61 -3 -31 -4 -58 -1 -60 3
-1 4 -49 1 -105 -3 -58 -1 -105 5 -111 5 -6 4 -9 -3 -9 -10 0 -10 -5 -2 -20 6
-11 7 -20 3 -20 -10 0 -9 -123 1 -139 4 -6 4 -11 -1 -11 -9 0 -7 -255 2 -270
3 -5 3 -10 -2 -10 -10 0 -8 -93 1 -109 4 -6 4 -11 -1 -11 -8 0 -10 -137 -2
-144 2 -3 2 -50 -1 -106 -3 -58 -1 -105 5 -111 5 -6 4 -9 -3 -9 -10 0 -10 -5
-2 -20 6 -11 7 -20 3 -20 -10 0 -9 -123 1 -139 4 -6 4 -11 -1 -11 -9 0 -7
-265 2 -280 3 -5 1 -10 -5 -10 -8 0 -8 -6 0 -20 6 -11 7 -20 3 -20 -10 0 -9
-123 1 -139 4 -6 4 -11 -1 -11 -9 0 -8 -103 1 -119 4 -6 2 -11 -4 -11 -8 0 -8
-6 0 -20 6 -11 7 -20 3 -20 -10 0 -9 -123 1 -139 4 -6 4 -11 -1 -11 -9 0 -8
-103 1 -119 4 -6 2 -11 -4 -11 -8 0 -8 -6 0 -20 6 -11 7 -20 3 -20 -10 0 -9
-123 1 -139 4 -6 4 -11 -1 -11 -9 0 -8 -103 1 -119 4 -6 2 -11 -4 -11 -8 0 -8
-6 0 -20 6 -11 7 -20 3 -20 -10 0 -9 -123 1 -139 4 -6 4 -11 -1 -11 -10 0 -8
-93 1 -109 4 -6 4 -11 -1 -11 -10 0 -8 -93 1 -109 4 -6 4 -11 -1 -11 -8 0 -10
-137 -2 -144 2 -3 2 -50 -1 -106 -3 -58 -1 -105 4 -111 6 -6 5 -9 -2 -9 -10 0
-10 -5 -2 -20 6 -11 7 -20 3 -20 -10 0 -9 -123 1 -139 4 -6 4 -11 -1 -11 -9 0
-7 -255 2 -270 3 -5 3 -10 -2 -10 -10 0 -8 -93 1 -109 4 -6 4 -11 -1 -11 -9 0
-9 -138 1 -147 11 -11 1426 -9 1427 2 1 15 1 286 0 320 -1 17 -1 161 0 320 0
160 0 304 0 320 -1 17 0 153 1 303 2 151 -1 276 -5 279 -4 3 -4 10 0 16 5 7 7
55 6 107 -3 123 -3 94 0 480 1 184 -1 343 -6 353 -4 9 -4 17 0 17 10 0 9 212
-1 228 -4 7 -4 12 1 12 10 0 10 691 0 707 -4 7 -4 14 0 16 5 3 7 54 5 114 -3
134 -3 96 0 316 2 104 -1 191 -5 194 -4 3 -4 10 0 16 5 7 7 55 6 107 -3 123
-3 94 0 480 1 184 -1 343 -6 353 -4 9 -4 17 0 17 10 0 9 212 -1 228 -4 7 -4
12 1 12 13 0 8 439 -6 453 -12 12 -1350 18 -1396 5z"/>
<path d="M3635 6360 c-4 -6 -11 -8 -17 -4 -6 4 -9 -11 -7 -40 2 -25 0 -48 -3
-51 -3 -4 -3 -19 1 -33 5 -24 6 -118 1 -132 -1 -3 -1 -9 0 -15 2 -12 2 -366 0
-380 -2 -5 -1 -14 0 -20 1 -5 2 -109 2 -230 0 -185 2 -223 15 -237 9 -10 20
-15 25 -12 4 3 8 2 7 -3 -4 -21 3 -31 22 -36 11 -3 23 -15 26 -26 3 -11 9 -18
14 -15 5 3 9 -2 9 -11 0 -11 5 -15 16 -11 8 3 12 2 9 -4 -3 -6 -1 -10 4 -10 6
0 11 -7 11 -16 0 -10 5 -14 16 -10 8 3 12 2 9 -4 -3 -6 -2 -10 4 -10 5 0 13
-9 16 -20 3 -11 13 -20 21 -20 8 0 14 -7 14 -16 0 -8 5 -12 10 -9 6 3 10 -1
10 -10 0 -9 5 -13 10 -10 6 3 10 -1 10 -10 0 -11 5 -15 16 -11 8 3 13 2 10 -2
-8 -13 44 -63 56 -56 7 4 8 2 4 -4 -4 -7 -3 -12 3 -12 5 0 13 -9 16 -20 3 -11
13 -20 21 -20 8 0 14 -8 14 -17 0 -9 3 -14 6 -10 8 8 33 -16 27 -25 -2 -5 3
-8 11 -8 8 0 18 -9 21 -20 6 -18 17 -25 38 -21 5 1 6 -3 2 -9 -3 -5 -2 -10 4
-10 5 0 13 -9 16 -20 3 -11 13 -20 21 -20 8 0 14 -8 14 -17 0 -9 3 -14 6 -10
8 8 33 -16 27 -25 -2 -5 3 -8 11 -8 9 0 16 -7 16 -16 0 -10 5 -14 16 -10 8 3
13 2 10 -3 -3 -5 1 -11 9 -15 8 -3 15 -12 15 -21 0 -8 6 -15 14 -15 8 0 18 -9
21 -21 4 -12 12 -18 21 -15 7 3 13 2 11 -3 -1 -5 12 -24 30 -42 45 -48 60 -59
69 -51 4 4 4 1 0 -6 -7 -12 50 -69 66 -65 4 2 5 -4 2 -11 -3 -9 3 -17 15 -21
12 -3 21 -13 21 -21 0 -8 7 -14 15 -14 9 0 18 -7 21 -15 4 -8 10 -12 15 -9 5
3 6 -2 3 -10 -4 -11 0 -16 10 -16 9 0 16 -7 16 -16 0 -8 3 -13 8 -11 9 6 33
-19 25 -27 -4 -3 1 -6 10 -6 9 0 17 -6 17 -14 0 -8 6 -16 14 -19 21 -8 222
-11 234 -3 6 3 13 0 16 -6 4 -9 8 -10 11 -2 4 7 20 9 46 4 23 -4 42 -3 45 2 4
6 10 5 16 -3 6 -10 11 -10 14 -3 3 7 18 9 45 4 23 -4 42 -3 45 2 4 6 10 5 16
-3 6 -10 11 -10 14 -3 3 7 18 9 45 4 23 -4 42 -3 45 2 4 6 10 5 16 -3 6 -10
11 -10 14 -3 3 7 18 9 44 4 24 -4 43 -3 49 3 6 6 11 7 11 2 0 -6 33 -8 80 -5
44 3 80 3 80 0 0 -3 36 -3 80 0 48 3 82 1 85 -5 3 -6 7 -5 11 2 3 7 12 9 20 6
8 -3 21 -2 30 1 12 5 9 11 -17 33 -18 16 -37 27 -41 25 -4 -1 -7 1 -7 5 3 21
-2 33 -15 33 -8 0 -23 14 -33 30 -9 17 -20 30 -24 30 -11 0 -69 60 -69 71 0 5
-4 9 -9 9 -11 0 -71 58 -71 68 0 4 -14 16 -30 27 -16 11 -30 26 -30 33 0 6
-10 12 -22 13 -13 0 -17 3 -10 6 10 4 7 10 -10 21 -13 9 -27 16 -31 14 -5 -1
-6 2 -3 6 3 5 -17 30 -44 55 -27 25 -47 47 -45 49 2 2 -9 12 -26 23 -16 11
-29 25 -29 32 0 6 -9 15 -20 18 -11 4 -18 11 -15 16 4 5 0 9 -7 9 -7 0 -24 16
-38 34 -14 19 -27 33 -29 31 -4 -5 -71 68 -71 78 0 5 -3 6 -7 4 -10 -4 -82 70
-75 78 3 3 0 5 -6 5 -14 0 -72 59 -72 73 0 6 -3 8 -6 4 -7 -7 -54 42 -54 57 0
6 -5 4 -10 -4 -8 -12 -10 -10 -10 9 0 13 -3 22 -6 19 -3 -3 -21 11 -41 31 -19
20 -40 34 -47 33 -6 -2 -8 0 -4 3 4 4 3 15 -1 24 -8 15 35 16 537 15 301 -1
555 -2 565 -3 19 -1 24 -41 5 -41 -9 0 -9 -3 -3 -8 14 -10 17 -59 4 -67 -7 -5
-6 -12 2 -22 10 -11 10 -19 1 -33 -6 -10 -8 -21 -4 -25 12 -11 9 -195 -3 -195
-6 0 -7 -3 0 -8 15 -10 16 -75 2 -84 -9 -6 -9 -8 1 -8 6 0 12 -7 12 -15 0 -8
-6 -15 -12 -15 -9 0 -9 -3 -3 -8 14 -9 17 -59 5 -67 -6 -4 -5 -13 2 -25 9 -14
9 -22 0 -33 -7 -7 -8 -17 -4 -21 11 -12 9 -120 -3 -128 -6 -5 -6 -8 3 -8 6 0
12 -7 12 -15 0 -8 -6 -15 -12 -15 -9 0 -9 -3 -3 -8 14 -9 17 -59 5 -67 -6 -4
-5 -13 2 -25 9 -14 9 -22 -1 -33 -6 -9 -8 -18 -3 -21 5 -3 9 -34 9 -70 1 -48
-2 -64 -10 -59 -7 4 -7 0 1 -9 14 -18 13 -49 -3 -60 -7 -5 -7 -8 0 -8 6 0 11
-27 12 -60 1 -44 -2 -58 -10 -53 -9 5 -9 3 -1 -8 14 -19 16 -60 3 -75 -6 -8
-6 -14 0 -18 5 -3 9 -22 9 -41 0 -22 -4 -33 -11 -28 -6 4 -7 1 -1 -8 11 -18
13 -178 2 -185 -5 -3 -5 -11 -1 -17 4 -7 9 -34 10 -60 2 -35 -1 -46 -10 -40
-9 5 -9 3 -1 -8 14 -19 16 -60 3 -75 -6 -8 -6 -14 0 -18 5 -3 9 -22 9 -41 0
-22 -4 -33 -11 -28 -6 4 -7 1 -1 -8 14 -22 14 -150 1 -142 -9 5 -9 3 -1 -8 15
-20 15 -60 1 -78 -8 -10 -8 -12 -1 -8 7 4 12 -2 12 -17 0 -17 -7 -25 -22 -28
-11 -2 -517 -3 -1123 -3 -607 0 -1103 -1 -1103 -3 0 -1 248 -250 550 -552 303
-303 550 -554 550 -558 0 -4 24 -8 53 -8 30 0 59 -4 65 -8 7 -4 12 -3 12 2 0
10 62 8 79 -2 5 -4 13 -1 17 5 4 8 9 7 15 -2 5 -9 9 -10 9 -2 0 11 66 10 78
-1 3 -3 11 -1 19 5 10 9 13 8 13 -2 0 -12 2 -12 9 0 6 10 13 11 29 2 15 -8 23
-8 28 0 4 8 9 7 15 -2 5 -9 9 -10 9 -2 0 11 60 10 79 -1 5 -4 13 -1 17 5 4 8
9 7 15 -2 5 -9 9 -10 9 -2 0 11 60 10 79 -1 5 -4 13 -1 17 5 4 8 9 7 15 -2 5
-9 9 -10 9 -2 0 11 60 10 79 -1 5 -4 13 -1 17 5 4 8 9 7 15 -2 5 -9 9 -10 9
-2 0 11 60 10 79 -1 5 -4 13 -1 17 5 4 8 9 7 15 -2 5 -9 9 -10 9 -2 0 11 60
10 79 -1 5 -4 13 -1 17 5 4 8 9 7 15 -2 5 -9 9 -10 9 -2 0 11 60 10 79 -1 5
-4 13 -1 17 5 4 8 9 7 15 -2 5 -9 9 -10 9 -2 0 11 60 10 79 -1 5 -4 13 -1 17
5 4 8 9 7 15 -2 5 -9 9 -10 9 -2 0 11 60 10 79 -1 5 -4 13 -1 17 5 4 8 9 7 15
-2 5 -9 9 -10 9 -2 0 11 60 10 79 -1 5 -4 13 -1 17 5 4 8 9 7 15 -2 5 -9 9
-10 9 -2 0 11 60 10 79 -1 5 -4 13 -1 17 5 4 8 9 7 15 -2 5 -9 9 -10 9 -2 0
11 60 10 79 -1 5 -4 13 -1 17 5 4 8 9 7 15 -2 5 -9 9 -10 9 -2 0 11 60 10 79
-1 5 -4 13 -1 17 5 4 8 9 7 15 -2 5 -9 9 -10 9 -2 0 11 60 10 79 -1 5 -4 13
-1 17 5 4 8 9 7 15 -2 5 -9 9 -10 9 -2 0 11 60 10 79 -1 5 -4 13 -1 17 5 4 8
9 7 15 -2 5 -9 9 -10 9 -2 0 9 36 11 75 3 6 -1 15 -1 20 0 6 1 19 3 30 4 20 1
20 9 22 1676 2 921 0 1682 -4 1690 -3 8 -5 19 -4 25 2 5 0 7 -4 3 -4 -3 -31
18 -60 48 -30 30 -59 54 -65 54 -5 0 -10 6 -10 13 0 14 -41 53 -52 49 -8 -2
-12 15 -8 33 1 5 -1 7 -5 3 -4 -4 -22 9 -41 28 -19 19 -39 34 -44 34 -6 0 -10
5 -10 12 0 6 -20 30 -45 53 -24 23 -41 46 -37 50 4 3 3 6 -3 5 -19 -4 -35 0
-33 9 2 4 -45 56 -104 113 -59 58 -104 109 -100 113 4 4 0 5 -8 3 -9 -2 -14 3
-12 12 2 8 1 12 -3 8 -4 -3 -31 18 -60 48 -30 30 -59 54 -65 54 -5 0 -10 6
-10 13 0 14 -41 53 -52 49 -8 -2 -12 15 -8 33 1 6 -1 7 -5 3 -4 -4 -22 9 -41
28 -19 19 -39 34 -44 34 -6 0 -10 5 -10 12 0 6 -20 30 -45 53 -24 23 -41 46
-37 50 4 3 2 6 -3 5 -19 -4 -35 0 -33 9 4 13 -71 83 -82 76 -6 -3 -10 0 -10 7
0 10 -2 10 -9 0 -4 -8 -12 -14 -16 -14 -4 0 -12 6 -16 14 -5 7 -9 8 -9 2 0
-13 -31 -14 -47 -1 -9 6 -13 6 -13 -1 0 -12 -33 -10 -42 3 -5 6 -8 5 -8 -3 0
-9 -5 -10 -19 -3 -10 6 -21 8 -24 4 -11 -10 -67 -11 -67 -1 0 7 -5 6 -13 -1
-10 -8 -17 -7 -25 1 -7 7 -12 8 -12 2 0 -12 -29 -12 -48 0 -6 4 -12 3 -12 -2
0 -5 -7 -9 -15 -9 -8 0 -15 5 -15 10 0 5 -6 5 -13 -2 -10 -8 -17 -7 -25 1 -7
7 -12 8 -12 2 0 -5 -11 -10 -25 -10 -14 0 -25 4 -25 9 0 5 -6 5 -13 -2 -10 -8
-17 -7 -25 1 -7 7 -12 8 -12 2 0 -12 -29 -12 -48 0 -6 4 -12 3 -12 -2 0 -5 -7
-9 -15 -9 -8 0 -15 5 -15 10 0 5 -6 5 -13 -2 -10 -8 -17 -7 -25 1 -7 7 -12 8
-12 2 0 -6 -11 -10 -25 -10 -14 0 -25 4 -25 9 0 5 -6 5 -13 -2 -10 -8 -17 -7
-25 1 -7 7 -12 8 -12 2 0 -12 -29 -12 -48 0 -6 4 -12 3 -12 -2 0 -5 -7 -9 -15
-9 -8 0 -15 5 -15 11 0 6 -5 5 -12 -2 -8 -8 -15 -9 -25 -1 -7 7 -13 7 -13 2 0
-5 -11 -9 -25 -9 -14 0 -25 4 -25 9 0 5 -6 5 -13 -2 -10 -8 -17 -7 -25 1 -7 7
-12 8 -12 2 0 -12 -29 -12 -48 0 -6 4 -12 3 -12 -2 0 -5 -7 -9 -15 -9 -8 0
-15 5 -15 10 0 5 -6 5 -13 -2 -10 -8 -17 -7 -25 1 -7 7 -12 8 -12 2 0 -13 -43
-12 -52 1 -5 6 -8 5 -8 -3 0 -9 -5 -10 -18 -3 -10 5 -24 6 -32 1 -8 -5 -22 -4
-33 2 -15 7 -18 7 -12 -2 6 -9 2 -9 -14 -1 -11 7 -21 8 -21 3 0 -5 -7 -9 -15
-9 -8 0 -15 5 -15 11 0 6 -4 5 -9 -2 -4 -8 -12 -14 -16 -14 -4 0 -12 6 -16 14
-5 7 -9 8 -9 2 0 -14 -30 -14 -30 0 0 6 -4 5 -9 -2 -4 -8 -12 -14 -16 -14 -4
0 -12 6 -16 14 -5 7 -9 8 -9 2 0 -14 -30 -14 -30 0 0 6 -4 5 -9 -2 -4 -8 -12
-14 -16 -14 -4 0 -12 6 -16 14 -5 7 -9 8 -9 2 0 -14 -30 -14 -30 0 0 6 -4 5
-9 -2 -4 -8 -12 -14 -16 -14 -4 0 -12 6 -16 14 -5 7 -9 8 -9 2 0 -14 -30 -14
-30 0 0 6 -4 5 -9 -2 -4 -8 -12 -14 -16 -14 -4 0 -12 6 -16 14 -5 7 -9 8 -9 2
0 -14 -30 -14 -30 0 0 6 -4 5 -9 -2 -4 -8 -12 -14 -16 -14 -4 0 -12 6 -16 14
-5 7 -9 8 -9 2 0 -14 -30 -14 -30 0 0 7 -3 7 -8 1 -11 -15 -32 -17 -32 -2 0 9
-2 9 -9 -1 -4 -8 -12 -14 -16 -14 -4 0 -12 6 -16 14 -6 8 -9 9 -9 1 0 -11 -45
-11 -57 0 -3 4 -14 2 -24 -4 -14 -7 -19 -6 -19 2 0 8 -4 9 -13 0 -10 -8 -17
-7 -25 1 -8 8 -12 8 -12 1 0 -11 -50 -11 -68 1 -6 3 -13 2 -17 -4z"/>
</g>
</svg>
