/* XPM */
static char *result[] = {
/* columns rows colors chars-per-pixel */
"128 128 87 1 ",
"  c black",
". c gray11",
"X c #202020",
"o c #282828",
"O c #2C2C2C",
"+ c gray19",
"@ c #343434",
"# c gray22",
"$ c #400000",
"% c #4C0000",
"& c #580000",
"* c #640000",
"= c #700000",
"- c #7C0000",
"; c #403018",
": c #483818",
"> c #5C4020",
", c #6C4824",
"< c #744C28",
"1 c #00004C",
"2 c #004040",
"3 c #005858",
"4 c #007070",
"5 c gray25",
"6 c #484848",
"7 c #4C4C4C",
"8 c gray33",
"9 c gray36",
"0 c #646464",
"q c gray44",
"w c #7C7C7C",
"e c #880000",
"r c #980000",
"t c #A40000",
"y c #B00000",
"u c #BC0000",
"i c #C80000",
"p c #D40000",
"a c #E00000",
"s c #EC0000",
"d c #FC0000",
"f c #FC2020",
"g c #80502C",
"h c #885830",
"j c #905C34",
"k c #9C6038",
"l c #A0643C",
"z c #A86840",
"x c #B47044",
"c c #FC4040",
"v c #FC5C5C",
"b c #C87C4C",
"n c #FC7C7C",
"m c #B4AC00",
"M c #E4D800",
"N c #D08050",
"B c #E88C58",
"V c #F0945C",
"C c #FC9C60",
"Z c #FCA470",
"A c #000098",
"S c #980088",
"D c #008484",
"F c #00B4B4",
"G c #00CCCC",
"H c #00E4E4",
"J c #20FCFC",
"K c #7CFCF8",
"L c gray55",
"P c #989898",
"I c gray66",
"U c #B4B4B4",
"Y c #FC9C9C",
"T c #FCB080",
"R c #FCB890",
"E c #FCB8B8",
"W c #FCC4A4",
"Q c #FCD4BC",
"! c #FCFCB8",
"~ c #B8FCFC",
"^ c #C0C0C0",
"/ c #D0D0D0",
"( c gainsboro",
") c #FCFCD8",
"_ c #D8FCFC",
"` c #ECECEC",
"' c gray99",
/* pixels */
"SSSSSSSSSSSSSSSSSSSSSSSSSSSSSSSSSSSSSSSSSSSSSSSSSSSSSSSSSSSSSSSSSSSSSSSSSSSSSSSSSSSSSSSSSSSSSSSSSSSSSSSSSSSSSSSSSSSSSSSSSSSSSSSS",
"SSSSSSSSSSSSSSSSSSSSSSSSSSSSSSSSSSSSSSSSSSSSSSSSSSSSSSSSSSSSSSSSSSSSSSSSSSSSSSSSSSSSSSSSSSSSSSSSSSSSSSSSSSSSSSSSSSSSSSSSSSSSSSSS",
"SSSSSSSSSSSSSSSSSSSSSSSSSSSSSSSSSSSSSSSSSSSSSSSSSSSSSSSSOOOOOOOO##OO      SSSSSSSSSSSSSSSSSSSSSSSSSSSSSSSSSSSSSSSSSSSSSSSSSSSSSS",
"SSSSSSSSSSSSSSSSSSSSSSSSSSSSSSSSSSSSSSSSSSSSSSSSSSSSSSSSOOOOOOOO##OO      SSSSSSSSSSSSSSSSSSSSSSSSSSSSSSSSSSSSSSSSSSSSSSSSSSSSSS",
"SSSSSSSSSSSSSSSSSSSSSSSSSSSSSSSSSSSSSSSSSSSSSSSSSSSSXXOOOOOOOOOO66OO          SSSSSSSSSSSSSSSSSSSSSSSSSSSSSSSSSSSSSSSSSSSSSSSSSS",
"SSSSSSSSSSSSSSSSSSSSSSSSSSSSSSSSSSSSSSSSSSSSSSSSSSSSXXOOOOOOOOOO66OO          SSSSSSSSSSSSSSSSSSSSSSSSSSSSSSSSSSSSSSSSSSSSSSSSSS",
"SSSSSSSSSSSSSSSSSSSSSSSSSSSSSSSSSSSSSSSSSSSSSSSSSSXXOOOOOOOOOO##66OO            SSSSSSSSSSSSSSSSSSSSSSSSSSSSSSSSSSSSSSSSSSSSSSSS",
"SSSSSSSSSSSSSSSSSSSSSSSSSSSSSSSSSSSSSSSSSSSSSSSSSSXXOOOOOOOOOO##66OO            SSSSSSSSSSSSSSSSSSSSSSSSSSSSSSSSSSSSSSSSSSSSSSSS",
"SSSSSSSSSSSSSSSSSSSSSSSSSSSSSSSSSSSSSSSSSSSSSSSSXXXXOOOOOOOOOO##00OO              SSSSSSSSSSSSSSSSSSSSSSSSSSSSSSSSSSSSSSSSSSSSSS",
"SSSSSSSSSSSSSSSSSSSSSSSSSSSSSSSSSSSSSSSSSSSSSSSSXXXXOOOOOOOOOO##00OO              SSSSSSSSSSSSSSSSSSSSSSSSSSSSSSSSSSSSSSSSSSSSSS",
"SSSSSSSSSSSSSSSSSSSSSSSSSSSSSSSSFFDDDDDDDDSSSSXXXXOOLLOOUUOO//6600##  00  00  66    SSSSDDKKDDDDDDSSSSSSSSSSSSSSSSSSSSSSSSSSSSSS",
"SSSSSSSSSSSSSSSSSSSSSSSSSSSSSSSSFFDDDDDDDDSSSSXXXXOOLLOOUUOO//6600##  00  00  66    SSSSDDKKDDDDDDSSSSSSSSSSSSSSSSSSSSSSSSSSSSSS",
"SSSSSSSSSSSSSSSSSSSSSSSSSSSSSSKK22..66OO..33SSXXXXOOOOOOOO##6666ww66                SSDD22..66OO..33SSSSSSSSSSSSSSSSSSSSSSSSSSSS",
"SSSSSSSSSSSSSSSSSSSSSSSSSSSSSSKK22..66OO..33SSXXXXOOOOOOOO##6666ww66                SSDD22..66OO..33SSSSSSSSSSSSSSSSSSSSSSSSSSSS",
"SSSSSSSSSSSSSSSSSSSSSSSSSSSSFF22..66II00OOXX22##XX  hhDDhh>>66wwUU66  >>hhhhhh##    DD22..66II00OOXX22SSSSSSSSSSSSSSSSSSSSSSSSSS",
"SSSSSSSSSSSSSSSSSSSSSSSSSSSSFF22..66II00OOXX22##XX  hhDDhh>>66wwUU66  >>hhhhhh##    DD22..66II00OOXX22SSSSSSSSSSSSSSSSSSSSSSSSSS",
"SSSSSSSSSSSSSSSSSSSSSSSSSSSSDD22..660066OOXX2266##  xxJJggBBRRZZNNhh00LL00ZZll##  qqDD22..660066OOXX22SSSSSSSSSSSSSSSSSSSSSSSSSS",
"SSSSSSSSSSSSSSSSSSSSSSSSSSSSDD22..660066OOXX2266##  xxJJggBBRRZZNNhh00LL00ZZll##  qqDD22..660066OOXX22SSSSSSSSSSSSSSSSSSSSSSSSSS",
"SSSSSSSSSSSSSSSSSSSSSSSSSSeepp3322XXOOOOXX2200^^66  kkKKAA11--ll<<00``nn``00PP////''  3322XXOOOOXX22ppeeSSSSSSSSSSSSSSSSSSSSSSSS",
"SSSSSSSSSSSSSSSSSSSSSSSSSSeepp3322XXOOOOXX2200^^66  kkKKAA11--ll<<00``nn``00PP////''  3322XXOOOOXX22ppeeSSSSSSSSSSSSSSSSSSSSSSSS",
"SSSSSSSSSSSSSSSSSSSSSSSSrrppeepp2222222222vv00qq55  xx__CCBBBBTTCCLLnnEEnnLLPPUUPP``  DD2222222222ffeepp&&SSSSSSSSSSSSSSSSSSSSSS",
"SSSSSSSSSSSSSSSSSSSSSSSSrrppeepp2222222222vv00qq55  xx__CCBBBBTTCCLLnnEEnnLLPPUUPP``  DD2222222222ffeepp&&SSSSSSSSSSSSSSSSSSSSSS",
"SSSSSSSSSSSSSSSSSSSSSSSSyy**&&yy$$DDYY2222yy00++++  xxKKQQWWWWTTWW00``nn``00jj##  qq  eeffDDcc22ffff**tt&&SSSSSSSSSSSSSSSSSSSSSS",
"SSSSSSSSSSSSSSSSSSSSSSSSyy**&&yy$$DDYY2222yy00++++  xxKKQQWWWWTTWW00``nn``00jj##  qq  eeffDDcc22ffff**tt&&SSSSSSSSSSSSSSSSSSSSSS",
"SSSSSSSSSSSSSSSSSSSSSSSSee&&&&$$$$HHvv44442299++++  llKKTTTTNNllhhhh00LL00bbjj##  XX  ffffHHff44uuuu**&&&&SSSSSSSSSSSSSSSSSSSSSS",
"SSSSSSSSSSSSSSSSSSSSSSSSee&&&&$$$$HHvv44442299++++  llKKTTTTNNllhhhh00LL00bbjj##  XX  ffffHHff44uuuu**&&&&SSSSSSSSSSSSSSSSSSSSSS",
"SSSS66qqII88##SSSSSSSSSS&&$$$$$$DDHHvvDD442277++++  hhJJZZllVVZZVVZZVVxxllllzz##      eeDDHHffDD44****$$&&SSSSSSSSOOOOOOOOOOSSSS",
"SSSS66qqII88##SSSSSSSSSS&&$$$$$$DDHHvvDD442277++++  hhJJZZllVVZZVVZZVVxxllllzz##      eeDDHHffDD44****$$&&SSSSSSSSOOOOOOOOOOSSSS",
"SSSSSSXXOO000066OOOOSSSSSS$$$$$$DDHH44DD444466++++  ggJJZZllPP//((//PPxxZZNN,,##      XXDDHH44DD44$$$$$$006666OOOOOOOOOOXXSSSSSS",
"SSSSSSXXOO000066OOOOSSSSSS$$$$$$DDHH44DD444466++++  ggJJZZllPP//((//PPxxZZNN,,##      XXDDHH44DD44$$$$$$006666OOOOOOOOOOXXSSSSSS",
"SSSSSSSSXXXX########OOXXXXXX$$GG~~GGGGGG~~44XXXXXX  jjJJZZllqq******qqxxZZllzz##      GG~~GGGGGG~~44$$$$0066OOOOXXXXXXXXSSSSSSSS",
"SSSSSSSSXXXX########OOXXXXXX$$GG~~GGGGGG~~44XXXXXX  jjJJZZllqq******qqxxZZllzz##      GG~~GGGGGG~~44$$$$0066OOOOXXXXXXXXSSSSSSSS",
"SSSSSSSSXXXXXXXXXXXXXX##XXXXXXDD33333333333333      hhJJZZxx**rrrrrr**xxZZllhh##    @@3333333333332233PPOOXXXXXX        SSSSSSSS",
"SSSSSSSSXXXXXXXXXXXXXX##XXXXXXDD33333333333333      hhJJZZxx**rrrrrr**xxZZllhh##    @@3333333333332233PPOOXXXXXX        SSSSSSSS",
"SSSSSSXXXX66XXXXXX          ..++22222222222222XXXXXX##DDNNxx^^//((//^^xxkk####      ++22222222222222OOXXXX--XX  XX  XX    SSSSSS",
"SSSSSSXXXX66XXXXXX          ..++22222222222222XXXXXX##DDNNxx^^//((//^^xxkk####      ++22222222222222OOXXXX--XX  XX  XX    SSSSSS",
"SS88XX##00##XXXXXXXXXXXX  ..++++++22++22++++++..XXXXXXXX####66kkhhkk66####        ..++++++22++22++++XXXXXXrrXXXXXXXX  XX  XXXXSS",
"SS88XX##00##XXXXXXXXXXXX  ..++++++22++22++++++..XXXXXXXX####66kkhhkk66####        ..++++++22++22++++XXXXXXrrXXXXXXXX  XX  XXXXSS",
"SSXXII00##XXXXOOXXXXXXXX  ..OOOOOOOOOOOOOOOOOOOO..  XXXXXXXXXXXX                ..OOOOOOOOOOOOOOOOOOOO  XXrrXXXXXXXXXX  XXXXXXSS",
"SSXXII00##XXXXOOXXXXXXXX  ..OOOOOOOOOOOOOOOOOOOO..  XXXXXXXXXXXX                ..OOOOOOOOOOOOOOOOOOOO  XXrrXXXXXXXXXX  XXXXXXSS",
"SSSSXXqq66OO##XXXXXXXXXX  ..OO++++++++++OO**OOOOOOOO..                      ..++++++OOOOOOOOOOOOOOOOOO  --dd--XXXXXXXXXXXXXXSSSS",
"SSSSXXqq66OO##XXXXXXXXXX  ..OO++++++++++OO**OOOOOOOO..                      ..++++++OOOOOOOOOOOOOOOOOO  --dd--XXXXXXXXXXXXXXSSSS",
"SSSS  XX######888888888866##++00008866@@====@@@@@@@@++22++++++..II008866555555@@@@@@@@@@@@@@--++++++8888aaccaa66##XXOOXXXXrrSSSS",
"SSSS  XX######888888888866##++00008866@@====@@@@@@@@++22++++++..II008866555555@@@@@@@@@@@@@@--++++++8888aaccaa66##XXOOXXXXrrSSSS",
"SS==      0088##XXHH4433XXXX####....**rr......................  OOoo........................aa--0088##--aavvaa--XX####--rr  SSSS",
"SS==      0088##XXHH4433XXXX####....**rr......................  OOoo........................aa--0088##--aavvaa--XX####--rr  SSSS",
"SSSSeeeeww##XXXXFF22  2233XXXXXXXXrryy**....................    OOOO..........................aauuXXXXaavvnnvvaaXX--uuaarrOOSSSS",
"SSSSeeeeww##XXXXFF22  2233XXXXXXXXrryy**....................    OOOO..........................aauuXXXXaavvnnvvaaXX--uuaarrOOSSSS",
"SSSSeeyyppeeXXXX44      33XXXX**rrpprr......................    OOOO........................00uuaauu--aavvmmvvaauuaaaauurrOOSSSS",
"SSSSeeyyppeeXXXX44      33XXXX**rrpprr......................    OOOO........................00uuaauu--aavvmmvvaauuaaaauurrOOSSSS",
"SSSS88eeiicccceeee22  2222**iippccrr**......................    OOOOoo....................88aaHHaavvffffvvMMvvaaffvvuuuuXXXXSSSS",
"SSSS88eeiicccceeee22  2222**iippccrr**......................    OOOOoo....................88aaHHaavvffffvvMMvvaaffvvuuuuXXXXSSSS",
"SSSS88FFeeccnnccyyiiiiiiiiiiccnncceeXX......................    ooOOoo....................88FFuuaaffvvccnnMMnnffccaauurr33XXSSSS",
"SSSS88FFeeccnnccyyiiiiiiiiiiccnncceeXX......................    ooOOoo....................88FFuuaaffvvccnnMMnnffccaauurr33XXSSSS",
"SS88##44eeppccMMnnccppppccnnMMccrr33XX  ..................      ooOOoo..................88##44  aaaaccmmMM!!MMmmffaaaaii33XX  SS",
"SS88##44eeppccMMnnccppppccnnMMccrr33XX  ..................      ooOOoo..................88##44  aaaaccmmMM!!MMmmffaaaaii33XX  SS",
"SS88##3322yyccnnMMmmmmmmmmMMnniiee22XX  ..................    %%%%OOoo..................uuuuaaaaaaccnnMM!!))!!MMnnffaaaa--XX  SS",
"SS88##3322yyccnnMMmmmmmmmmMMnniiee22XX  ..................    %%%%OOoo..................uuuuaaaaaaccnnMM!!))!!MMnnffaaaa--XX  SS",
"SS88##XX33eerrnnmmMMMMMMMMmmnnrr22XXXX                        %%**oooo    %%**----yyiiiiddccvvnnmmMMMM!!))))))!!MMmmnnvvcctt--SS",
"SS88##XX33eerrnnmmMMMMMMMMmmnnrr22XXXX                        %%**oooo    %%**----yyiiiiddccvvnnmmMMMM!!))))))!!MMmmnnvvcctt--SS",
"SS88##XXeeeeccnnMMMM))))MMMMMMnnccccrree======&&$$$$        %%==****                    **eeaaaaffccnnMM!!))!!MMnnccffaaiiXX  SS",
"SS88##XXeeeeccnnMMMM))))MMMMMMnnccccrree======&&$$$$        %%==****                    **eeaaaaffccnnMM!!))!!MMnnccffaaiiXX  SS",
"SSeerrrrccccnnmmmmMM))))MMmmnneeeeeeXX  %%%%%%%%%%%%%%%%%%%%**eeeeeeee**%%%%%%%%$$$$$$$$88XX&&aaaaffvvmmMM!!MMmmccffaaiiXXXX  SS",
"SSeerrrrccccnnmmmmMM))))MMmmnneeeeeeXX  %%%%%%%%%%%%%%%%%%%%**eeeeeeee**%%%%%%%%$$$$$$$$88XX&&aaaaffvvmmMM!!MMmmccffaaiiXXXX  SS",
"SS88XXFFeeeessnnmmMMMMMMMMmmnnee2233XX  %%%%****rruuuudduurrrreeeeee--------**%%$$$$%%%%88XXFF&&aaaavvccnnMMnnccffvvaa**33XX  SS",
"SS88XXFFeeeessnnmmMMMMMMMMmmnnee2233XX  %%%%****rruuuudduurrrreeeeee--------**%%$$$$%%%%88XXFF&&aaaavvccnnMMnnccffvvaa**33XX  SS",
"SS88XX44  eeccnnMMnnnnvvnnMMnneeee33XX    %%%%**==rrdduurrddrreeeeeeee--ee--****$$**%%%%88XX44--uuvvaaffvvMMvvffaaaaaayy33XX  SS",
"SS88XX44  eeccnnMMnnnnvvnnMMnneeee33XX    %%%%**==rrdduurrddrreeeeeeee--ee--****$$**%%%%88XX44--uuvvaaffvvMMvvffaaaaaayy33XX  SS",
"SSSSXX33**ppccMMnnffffffffnnMMccee22  ##666666OO##88qq88##OOXXXXXXXXXXXXXX....XX....  6666XX33aaaauu&&aaaammaaaa33**yyaa**  SSSS",
"SSSSXX33**ppccMMnnffffffffnnMMccee22  ##666666OO##88qq88##OOXXXXXXXXXXXXXX....XX....  6666XX33aaaauu&&aaaammaaaa33**yyaa**  SSSS",
"SSSSXXXXrrccnnccrree  22eerrccnnccee  OOOOOO##66wwPPOOOOXXXXXXXXXXXXXXXXXXXXXXXXIIww66OOOOXX%%eeaa&&XX44aannaaiiXX3333**yy  SSSS",
"SSSSXXXXrrccnnccrree  22eerrccnnccee  OOOOOO##66wwPPOOOOXXXXXXXXXXXXXXXXXXXXXXXXIIww66OOOOXX%%eeaa&&XX44aannaaiiXX3333**yy  SSSS",
"SSSSSSrrrrccccee33      33XXeeccccrreeOOOOOOOO##00                            wwII00OOOOOOOOee%%XXXXXX33iivvii33XXXXXXXX  SSSSSS",
"SSSSSSrrrrccccee33      33XXeeccccrreeOOOOOOOO##00                            wwII00OOOOOOOOee%%XXXXXX33iivvii33XXXXXXXX  SSSSSS",
"SSSSSSiiiieerrXX3322  2222XXXXXXeeeerree  OO##66        XXXXXXXXXXXXXXXXXXXX8866##ww66##OO    XXXXXXXX33eeccee22XXXXXX  SSSSSSSS",
"SSSSSSiiiieerrXX3322  2222XXXXXXeeeerree  OO##66        XXXXXXXXXXXXXXXXXXXX8866##ww66##OO    XXXXXXXX33eeccee22XXXXXX  SSSSSSSS",
"SSSSSSiiiiXXXXXXXX333322XXXX    XXXXee--$$              XXXXXXXXXXXXXXXXXXXX66OOOO##      XXXXXXXXXXXXXX33iieeXXXX    SSSSSSSSSS",
"SSSSSSiiiiXXXXXXXX333322XXXX    XXXXee--$$              XXXXXXXXXXXXXXXXXXXX66OOOO##      XXXXXXXXXXXXXX33iieeXXXX    SSSSSSSSSS",
"SSSSiiSSSSSS<<::          ;;XXOOOOOO++**--XXXXXX          ................66OOOOOO  XXXXXXOOOOXXXXXX<<::  rr      ;;SSSSSSSSSSSS",
"SSSSiiSSSSSS<<::          ;;XXOOOOOO++**--XXXXXX          ................66OOOOOO  XXXXXXOOOOXXXXXX<<::  rr      ;;SSSSSSSSSSSS",
"SSSSSSSSSSSSBBBB,,,,,,::::;;OOOOOO++@@##66IIOOXX                          OOOOOOXX  XX88OO##OOXXXXXXBBBB,,rr,,::::;;SSSSSSSSSSSS",
"SSSSSSSSSSSSBBBB,,,,,,::::;;OOOOOO++@@##66IIOOXX                          OOOOOOXX  XX88OO##OOXXXXXXBBBB,,rr,,::::;;SSSSSSSSSSSS",
"SSSSSSSSSSSSXXDD2222222222XXOOOOOO++@@##6666XX                          OOXXXXXX  XXOOwwOO66##OOXXXXXXDD22ee222222SSSSSSSSSSSSSS",
"SSSSSSSSSSSSXXDD2222222222XXOOOOOO++@@##6666XX                          OOXXXXXX  XXOOwwOO66##OOXXXXXXDD22ee222222SSSSSSSSSSSSSS",
"SSSSSSSSSSSSSSSSSSSSXXXXOOXXOOOOOO++@@##66OOXX                          XXXXXX  XXXXOO008888##OOOOXXXXXXXX&&    SSSSSSSSSSSSSSSS",
"SSSSSSSSSSSSSSSSSSSSXXXXOOXXOOOOOO++@@##66OOXX                          XXXXXX  XXXXOO008888##OOOOXXXXXXXX&&    SSSSSSSSSSSSSSSS",
"SSSSSSSSSSSSSSSSSSSSXXXXOOXXOOOO++@@##66##XX                                  XXXXXXOO66##00####OOXXXXXXXX  XX  SSSSSSSSSSSSSSSS",
"SSSSSSSSSSSSSSSSSSSSXXXXOOXXOOOO++@@##66##XX                                  XXXXXXOO66##00####OOXXXXXXXX  XX  SSSSSSSSSSSSSSSS",
"SSSSSSSSSSSSSSSSSSXXXXOOXXOOOOOO++@@##66OOXX                  SSSSSSSS    XX  XXXXXXOO##OOww##66OOXXXXXXXXXXXX  XXSSSSSSSSSSSSSS",
"SSSSSSSSSSSSSSSSSSXXXXOOXXOOOOOO++@@##66OOXX                  SSSSSSSS    XX  XXXXXXOO##OOww##66OOXXXXXXXXXXXX  XXSSSSSSSSSSSSSS",
"SSSSSSSSSSSSSS######66000000006666######XX                  SSSSSSSSSS      XXXXXXOOXXOOOO008888OOXX6600000066######SSSSSSSSSSSS",
"SSSSSSSSSSSSSS######66000000006666######XX                  SSSSSSSSSS      XXXXXXOOXXOOOO008888OOXX6600000066######SSSSSSSSSSSS",
"SSSSSSSSSSSSXX##########66666600wwww////88OO            SSSSSSSSSSSSSSSS    XXXXXXXXXXOOOO////ww0000666666####XXXX    SSSSSSSSSS",
"SSSSSSSSSSSSXX##########66666600wwww////88OO            SSSSSSSSSSSSSSSS    XXXXXXXXXXOOOO////ww0000666666####XXXX    SSSSSSSSSS",
"SSSSSSSSSSSSXXXXXXXXXXXXXXXXXXXXXXXX##8888##OO        SSSSSSSSSSSSSSSSSSSSSSXXXXXXXXOO00wwww##XXXXXXXXXXXXXXXXXXXX    SSSSSSSSSS",
"SSSSSSSSSSSSXXXXXXXXXXXXXXXXXXXXXXXX##8888##OO        SSSSSSSSSSSSSSSSSSSSSSXXXXXXXXOO00wwww##XXXXXXXXXXXXXXXXXXXX    SSSSSSSSSS",
"SSSSSSSSSSSSSS                          XXOOOOOOXX    SSSSSSSSSSSSSSSSSSSSSSSSXXXX0000##                            SSSSSSSSSSSS",
"SSSSSSSSSSSSSS                          XXOOOOOOXX    SSSSSSSSSSSSSSSSSSSSSSSSXXXX0000##                            SSSSSSSSSSSS",
"SSSSSSSSSSSSSS                                XXXXXXSSSSSSSSSSSSSSSSSSSSSSSSSSXX00##                                SSSSSSSSSSSS",
"SSSSSSSSSSSSSS                                XXXXXXSSSSSSSSSSSSSSSSSSSSSSSSSSXX00##                                SSSSSSSSSSSS",
"SSSSSSSSSSSSXXOO####6666668888880000//##OOXX      SSSSSSSSSSSSSSSSSSSSSSSSSSSSSS      ##0000//0000888888666666####XXXXSSSSSSSSSS",
"SSSSSSSSSSSSXXOO####6666668888880000//##OOXX      SSSSSSSSSSSSSSSSSSSSSSSSSSSSSS      ##0000//0000888888666666####XXXXSSSSSSSSSS",
"SSSSSSSSSSSSXXXXXXXXXXOOOO############OOOOOOXX  SSSSSSSSSSSSSSSSSSSSSSSSSSSSSSSSSS  ##006666############XXXXXXXXXXXXXXSSSSSSSSSS",
"SSSSSSSSSSSSXXXXXXXXXXOOOO############OOOOOOXX  SSSSSSSSSSSSSSSSSSSSSSSSSSSSSSSSSS  ##006666############XXXXXXXXXXXXXXSSSSSSSSSS",
"SSSSSSSSSSSSSS                            XXOO  SSSSSSSSSSSSSSSSSSSSSSSSSSSSSSSSSS  ##                              SSSSSSSSSSSS",
"SSSSSSSSSSSSSS                            XXOO  SSSSSSSSSSSSSSSSSSSSSSSSSSSSSSSSSS  ##                              SSSSSSSSSSSS",
"SSSSSSSSSSSSSS  XX  XXXXXXOOOO6600XX        SSSSSSSSSSSSSSSSSSSSSSSSSSSSSSSSSSSSSSSSSS  XXXX88OO##88wwOO            SSSSSSSSSSSS",
"SSSSSSSSSSSSSS  XX  XXXXXXOOOO6600XX        SSSSSSSSSSSSSSSSSSSSSSSSSSSSSSSSSSSSSSSSSS  XXXX88OO##88wwOO            SSSSSSSSSSSS",
"SSSSSSSSSSSSSS  XX  XXXXXXXXOO##66XX        SSSSSSSSSSSSSSSSSSSSSSSSSSSSSSSSSSSSSSSSSS  XXXX66XXOO##88              SSSSSSSSSSSS",
"SSSSSSSSSSSSSS  XX  XXXXXXXXOO##66XX        SSSSSSSSSSSSSSSSSSSSSSSSSSSSSSSSSSSSSSSSSS  XXXX66XXOO##88              SSSSSSSSSSSS",
"SSSSSSSSSSSSSSSS  XX  XXXXXXOO##OO        SSSSSSSSSSSSSSSSSSSSSSSSSSSSSSSSSSSSSSSSSSSSSS  XX##66OO####            SSSSSSSSSSSSSS",
"SSSSSSSSSSSSSSSS  XX  XXXXXXOO##OO        SSSSSSSSSSSSSSSSSSSSSSSSSSSSSSSSSSSSSSSSSSSSSS  XX##66OO####            SSSSSSSSSSSSSS",
"SSSSSSSSSSSSSSSS  XX  XXXXXXXX##XX        SSSSSSSSSSSSSSSSSSSSSSSSSSSSSSSSSSSSSSSSSSSSSS  XXXX##XXOO##            SSSSSSSSSSSSSS",
"SSSSSSSSSSSSSSSS  XX  XXXXXXXX##XX        SSSSSSSSSSSSSSSSSSSSSSSSSSSSSSSSSSSSSSSSSSSSSS  XXXX##XXOO##            SSSSSSSSSSSSSS",
"SSSSSSSSSSSSSSSS        XXXXXXOO        SSSSSSSSSSSSSSSSSSSSSSSSSSSSSSSSSSSSSSSSSSSSSSSSSS  XXXX##OOOO            SSSSSSSSSSSSSS",
"SSSSSSSSSSSSSSSS        XXXXXXOO        SSSSSSSSSSSSSSSSSSSSSSSSSSSSSSSSSSSSSSSSSSSSSSSSSS  XXXX##OOOO            SSSSSSSSSSSSSS",
"SSSSSSSSSSSSSSSS    ####88ww88OOXX      SSSSSSSSSSSSSSSSSSSSSSSSSSSSSSSSSSSSSSSSSSSSSSSSSS    XXXXOO88ww88####XX  SSSSSSSSSSSSSS",
"SSSSSSSSSSSSSSSS    ####88ww88OOXX      SSSSSSSSSSSSSSSSSSSSSSSSSSSSSSSSSSSSSSSSSSSSSSSSSS    XXXXOO88ww88####XX  SSSSSSSSSSSSSS",
"SSSSSSSSSSSSSSOO####666666##########XX    SSSSSSSSSSSSSSSSSSSSSSSSSSSSSSSSSSSSSSSSSSSSSS    XX##666666############OOSSSSSSSSSSSS",
"SSSSSSSSSSSSSSOO####666666##########XX    SSSSSSSSSSSSSSSSSSSSSSSSSSSSSSSSSSSSSSSSSSSSSS    XX##666666############OOSSSSSSSSSSSS",
"SSSSSSSSSSSS####OOOOOOOOOOOOXXXXXXOOOOXX    ########555566666666666666666666665555####    OO######OOOOOOOOOOOOOOOOOOOOSSSSSSSSSS",
"SSSSSSSSSSSS####OOOOOOOOOOOOXXXXXXOOOOXX    ########555566666666666666666666665555####    OO######OOOOOOOOOOOOOOOOOOOOSSSSSSSSSS",
"SSSSSSSSSS##OOOOXXXXXXXXXXXXXXXXXXXXXXOO    XXXXXXXXooooooooOOOOOOOOOOooooooooXXXXXXXX    ##OOOOOOOOXXXXXXXXXXXXXXXXXXXXSSSSSSSS",
"SSSSSSSSSS##OOOOXXXXXXXXXXXXXXXXXXXXXXOO    XXXXXXXXooooooooOOOOOOOOOOooooooooXXXXXXXX    ##OOOOOOOOXXXXXXXXXXXXXXXXXXXXSSSSSSSS",
"SSSSSSSSSSOOXXXX              XXXX    XX  OOOOOOOOOOOOOOOOOOOOOOOOOOOOOOOOOOOOOOOOOOOOOO  XXXXXXXXXX                XXXXSSSSSSSS",
"SSSSSSSSSSOOXXXX              XXXX    XX  OOOOOOOOOOOOOOOOOOOOOOOOOOOOOOOOOOOOOOOOOOOOOO  XXXXXXXXXX                XXXXSSSSSSSS",
"SSSSSSSSSS                              ####555566666666666666666666666666666666665555####                              SSSSSSSS",
"SSSSSSSSSS                              ####555566666666666666666666666666666666665555####                              SSSSSSSS"
};
