/* XPM */
static char *result[] = {
/* columns rows colors chars-per-pixel */
"128 128 79 1 ",
"  c black",
". c gray11",
"X c #202020",
"o c #282828",
"O c #2C2C2C",
"+ c gray19",
"@ c #343434",
"# c gray22",
"$ c #400000",
"% c #4C0000",
"& c #580000",
"* c #640000",
"= c #700000",
"- c #7C0000",
"; c #403018",
": c #483818",
"> c #5C4020",
", c #6C4824",
"< c #744C28",
"1 c #00004C",
"2 c #004040",
"3 c #005858",
"4 c #007070",
"5 c gray25",
"6 c #484848",
"7 c #4C4C4C",
"8 c gray33",
"9 c gray36",
"0 c #646464",
"q c gray44",
"w c #7C7C7C",
"e c #880000",
"r c #980000",
"t c #A40000",
"y c #B00000",
"u c #BC0000",
"i c #D40000",
"p c #FC0000",
"a c #80502C",
"s c #885830",
"d c #905C34",
"f c #9C6038",
"g c #A0643C",
"h c #A86840",
"j c #B47044",
"k c #BC7848",
"l c #C87C4C",
"z c #FC7C7C",
"x c #D08050",
"c c #DC8854",
"v c #E88C58",
"b c #F0945C",
"n c #FC9C60",
"m c #FCA470",
"M c #000098",
"N c #980088",
"B c #008484",
"V c #00B4B4",
"C c #00CCCC",
"Z c #00E4E4",
"A c #20FCFC",
"S c #7CFCF8",
"D c gray55",
"F c #989898",
"G c gray66",
"H c #B4B4B4",
"J c #FCB080",
"K c #FCB890",
"L c #FCB8B8",
"P c #FCC4A4",
"I c #FCD4BC",
"U c #B8FCFC",
"Y c #C0C0C0",
"T c #D0D0D0",
"R c gainsboro",
"E c #D8FCFC",
"W c #ECECEC",
"Q c gray99",
"! c white",
/* pixels */
"NNNNNNNNNNNNNNNNNNNNNNNNNNNNNNNNNNNNNNNNNNNNNNNNNNNNNNNNOOOOOOOO##OO      NNNNNNNNNNNNNNNNNNNNNNNNNNNNNNNNNNNNNNNNNNNNNNNNNNNNNN",
"NNNNNNNNNNNNNNNNNNNNNNNNNNNNNNNNNNNNNNNNNNNNNNNNNNNNNNNNOOOOOOOO##OO      NNNNNNNNNNNNNNNNNNNNNNNNNNNNNNNNNNNNNNNNNNNNNNNNNNNNNN",
"NNNNNNNNNNNNNNNNNNNNNNNNNNNNNNNNNNNNNNNNNNNNNNNNNNNNXXOOOOOOOOOO66OO          NNNNNNNNNNNNNNNNNNNNNNNNNNNNNNNNNNNNNNNNNNNNNNNNNN",
"NNNNNNNNNNNNNNNNNNNNNNNNNNNNNNNNNNNNNNNNNNNNNNNNNNNNXXOOOOOOOOOO66OO          NNNNNNNNNNNNNNNNNNNNNNNNNNNNNNNNNNNNNNNNNNNNNNNNNN",
"NNNNNNNNNNNNNNNNNNNNNNNNNNNNNNNNNNNNNNNNNNNNNNNNNNXXOOOOOOOOOO##66OO            NNNNNNNNNNNNNNNNNNNNNNNNNNNNNNNNNNNNNNNNNNNNNNNN",
"NNNNNNNNNNNNNNNNNNNNNNNNNNNNNNNNNNNNNNNNNNNNNNNNNNXXOOOOOOOOOO##66OO            NNNNNNNNNNNNNNNNNNNNNNNNNNNNNNNNNNNNNNNNNNNNNNNN",
"NNNNNNNNNNNNNNNNNNNNNNNNNNNNNNNNNNNNNNNNNNNNNNNNXXXXOOOOOOOOOO##00OO              NNNNNNNNNNNNNNNNNNNNNNNNNNNNNNNNNNNNNNNNNNNNNN",
"NNNNNNNNNNNNNNNNNNNNNNNNNNNNNNNNNNNNNNNNNNNNNNNNXXXXOOOOOOOOOO##00OO              NNNNNNNNNNNNNNNNNNNNNNNNNNNNNNNNNNNNNNNNNNNNNN",
"NNNNNNNNNNNNNNNNNNNNNNNNNNNNNNNNVVBBBBBBBBNNNNXXXXOODDOOHHOOTT6600##  00  00  66    NNBBBBSSBBBBBBNNNNNNNNNNNNNNNNNNNNNNNNNNNNNN",
"NNNNNNNNNNNNNNNNNNNNNNNNNNNNNNNNVVBBBBBBBBNNNNXXXXOODDOOHHOOTT6600##  00  00  66    NNBBBBSSBBBBBBNNNNNNNNNNNNNNNNNNNNNNNNNNNNNN",
"NNNNNNNNNNNNNNNNNNNNNNNNNNNNNNSS22..66OO..33NNXXXXOOOOOOOO##6666ww66                BBBB22..66OO..33NNNNNNNNNNNNNNNNNNNNNNNNNNNN",
"NNNNNNNNNNNNNNNNNNNNNNNNNNNNNNSS22..66OO..33NNXXXXOOOOOOOO##6666ww66                BBBB22..66OO..33NNNNNNNNNNNNNNNNNNNNNNNNNNNN",
"NNNNNNNNNNNNNNNNNNNNNNNNNNNNVV22..66GG00OOXX22##XX  ssBBss>>66wwHH66  >>ssssss##    BB22..66GG00OOXX22NNNNNNNNNNNNNNNNNNNNNNNNNN",
"NNNNNNNNNNNNNNNNNNNNNNNNNNNNVV22..66GG00OOXX22##XX  ssBBss>>66wwHH66  >>ssssss##    BB22..66GG00OOXX22NNNNNNNNNNNNNNNNNNNNNNNNNN",
"NNNNNNNNNNNNNNNNNNNNNNNNNNNNBB22..660066OOXX2266##  jjAAmmkkkkffssss00DD00mmgg##  qqBB22..660066OOXX22NNNNNNNNNNNNNNNNNNNNNNNNNN",
"NNNNNNNNNNNNNNNNNNNNNNNNNNNNBB22..660066OOXX2266##  jjAAmmkkkkffssss00DD00mmgg##  qqBB22..660066OOXX22NNNNNNNNNNNNNNNNNNNNNNNNNN",
"NNNNNNNNNNNNNNNNNNNNNNNNNNeeii3322XXOOOOXX2200YY66  ffSSaavvKKmmxx00WWzzWW00FFTTTTQQ  3322XXOOOOXX22iieeNNNNNNNNNNNNNNNNNNNNNNNN",
"NNNNNNNNNNNNNNNNNNNNNNNNNNeeii3322XXOOOOXX2200YY66  ffSSaavvKKmmxx00WWzzWW00FFTTTTQQ  3322XXOOOOXX22iieeNNNNNNNNNNNNNNNNNNNNNNNN",
"NNNNNNNNNNNNNNNNNNNNNNNNrriieeii2222222222XX00qq55  jjEEMM11--gg<<DDzzLLzzDDFFHHFFWW  222222222222eeeeii&&NNNNNNNNNNNNNNNNNNNNNN",
"NNNNNNNNNNNNNNNNNNNNNNNNrriieeii2222222222XX00qq55  jjEEMM11--gg<<DDzzLLzzDDFFHHFFWW  222222222222eeeeii&&NNNNNNNNNNNNNNNNNNNNNN",
"NNNNNNNNNNNNNNNNNNNNNNNNyy**eeee22BB2222222200++++  jjSSnnvvvvJJnn00WWzzWW00dd##  qq  2222BB2222iittNNtt&&NNNNNNNNNNNNNNNNNNNNNN",
"NNNNNNNNNNNNNNNNNNNNNNNNyy**eeee22BB2222222200++++  jjSSnnvvvvJJnn00WWzzWW00dd##  qq  2222BB2222iittNNtt&&NNNNNNNNNNNNNNNNNNNNNN",
"NNNNNNNNNNNNNNNNNNNNNNNNee&&&&!!!!ZZBB4422!!99++++  ggSSIIPPPPJJPPxx00DD00lldd##  XX  XX22ZZOO44tttt**&&&&NNNNNNNNNNNNNNNNNNNNNN",
"NNNNNNNNNNNNNNNNNNNNNNNNee&&&&!!!!ZZBB4422!!99++++  ggSSIIPPPPJJPPxx00DD00lldd##  XX  XX22ZZOO44tttt**&&&&NNNNNNNNNNNNNNNNNNNNNN",
"NNNN66qqGG88##NNNNNNNNNN&&$$$$$$!!ZZZZBB33!!77++++  ssAAJJJJxxggssssxxccjjddhh##      XX33ZZ22BBtt****$$&&NNNNNNNNOOOOOOOOOONNNN",
"NNNN66qqGG88##NNNNNNNNNN&&$$$$$$!!ZZZZBB33!!77++++  ssAAJJJJxxggssssxxccjjddhh##      XX33ZZ22BBtt****$$&&NNNNNNNNOOOOOOOOOONNNN",
"NNNNNNXXOO000066OOOONNNNNN$$$$$$BBZZ44BB44!!66++++  aaAAmmjjbbmmbbmmbbjjmmxx,,##      XXBBZZ44BB44$$$$$$NN6666OOOOOOOOOOXXNNNNNN",
"NNNNNNXXOO000066OOOONNNNNN$$$$$$BBZZ44BB44!!66++++  aaAAmmjjbbmmbbmmbbjjmmxx,,##      XXBBZZ44BB44$$$$$$NN6666OOOOOOOOOOXXNNNNNN",
"NNNNNNNNXXXX########OOXXXX$$$$CCUUCCCCCCUU44XXXXXX  ddAAmmjjYYTTRRTTYYjjmmxxhh##      CCUUCCCCCCUU44$$$$0066OOOOXXXXXXXXNNNNNNNN",
"NNNNNNNNXXXX########OOXXXX$$$$CCUUCCCCCCUU44XXXXXX  ddAAmmjjYYTTRRTTYYjjmmxxhh##      CCUUCCCCCCUU44$$$$0066OOOOXXXXXXXXNNNNNNNN",
"NNNNNNNNXXXXXXXXXXXXXX##XXXXXXBB33333333333333      ssAAmmllYYTTRRTTYYllmmxxss##    @@3333333333332233FFOOXXXXXX        NNNNNNNN",
"NNNNNNNNXXXXXXXXXXXXXX##XXXXXXBB33333333333333      ssAAmmllYYTTRRTTYYllmmxxss##    @@3333333333332233FFOOXXXXXX        NNNNNNNN",
"NNNNNNXXXX66XXXXXX          ..++22222222222222XXXXXX##BBxxJJnnJJKKJJnnJJff####      ++22222222222222OOXXXXXXXX  XX  XX    NNNNNN",
"NNNNNNXXXX66XXXXXX          ..++22222222222222XXXXXX##BBxxJJnnJJKKJJnnJJff####      ++22222222222222OOXXXXXXXX  XX  XX    NNNNNN",
"NN88XX##00##XXXXXXXXXXXX  ..++++++22++22++++++..XXXXXXXX####66ffssff66####        ..++++++22++22++++XXXXXXOOXXXXXXXX  XX  XXXXNN",
"NN88XX##00##XXXXXXXXXXXX  ..++++++22++22++++++..XXXXXXXX####66ffssff66####        ..++++++22++22++++XXXXXXOOXXXXXXXX  XX  XXXXNN",
"NNXXGG00##XXXXOOXXXXXXXX  ..OOOOOOOOOOOOOOOOOOOO..  XXXXXXXXXXXX                ..OOOOOOOOOOOOOOOOOOOO  XX##XXXXXXXXXX  XXXXXXNN",
"NNXXGG00##XXXXOOXXXXXXXX  ..OOOOOOOOOOOOOOOOOOOO..  XXXXXXXXXXXX                ..OOOOOOOOOOOOOOOOOOOO  XX##XXXXXXXXXX  XXXXXXNN",
"NNNNXXqq66OO##XXXXXXXXXX  ..OO++++++++++OOOOOOOOOOOO..                      ..++++++OOOOOOOOOOOOOOOOOO  XX00XXXXXXXXXXXXXXXXNNNN",
"NNNNXXqq66OO##XXXXXXXXXX  ..OO++++++++++OOOOOOOOOOOO..                      ..++++++OOOOOOOOOOOOOOOOOO  XX00XXXXXXXXXXXXXXXXNNNN",
"NNNN  XX######888888888866##++00008866@@@@@@@@@@@@@@++22++++++..GG008866555555@@@@@@@@@@@@@@++++++++888888888866##XXOOXXXX  NNNN",
"NNNN  XX######888888888866##++00008866@@@@@@@@@@@@@@++22++++++..GG008866555555@@@@@@@@@@@@@@++++++++888888888866##XXOOXXXX  NNNN",
"NNNN      0088##XXSSVV33XXXX####..............................  OOoo............................0088##XXSSVV33XXXX####      NNNN",
"NNNN      0088##XXSSVV33XXXX####..............................  OOoo............................0088##XXSSVV33XXXX####      NNNN",
"NNNNOO  ww##XXXXVV22  2233XXXXXXXX..........................    OOOO..........................ww##XXXXVV22  2233XXXXXXXX  OONNNN",
"NNNNOO  ww##XXXXVV22  2233XXXXXXXX..........................    OOOO..........................ww##XXXXVV22  2233XXXXXXXX  OONNNN",
"NNNNOO00##XXXXXX44      33XXXXXXXXXX........................    OOOO........................00##XXXXXX44      33XXXXXXXXXXOONNNN",
"NNNNOO00##XXXXXX44      33XXXXXXXXXX........................    OOOO........................00##XXXXXX44      33XXXXXXXXXXOONNNN",
"NNNN88##SSVV33XX3322  2222XXBB3333XXXX......................    OOOOoo....................88##SSVV33XX3322  2222XXBB3333XXXXNNNN",
"NNNN88##SSVV33XX3322  2222XXBB3333XXXX......................    OOOOoo....................88##SSVV33XX3322  2222XXBB3333XXXXNNNN",
"NNNN88VV22  2233XX333322XXBB22  2233XX......................    ooOOoo....................88VV22  2233XX333322XXBB22  2233XXNNNN",
"NNNN88VV22  2233XX333322XXBB22  2233XX......................    ooOOoo....................88VV22  2233XX333322XXBB22  2233XXNNNN",
"NN88##44      33XXXXXXXXXX33      33XX  ..................      ooOOoo..................88##44      33XXXXXXXXXX33      33XX  NN",
"NN88##44      33XXXXXXXXXX33      33XX  ..................      ooOOoo..................88##44      33XXXXXXXXXX33      33XX  NN",
"NN88##3322  2222XXBB3333XX3322  2222XX  ..................    %%%%OOoo..................88##3322  2222XXBB3333XX3322  2222XX  NN",
"NN88##3322  2222XXBB3333XX3322  2222XX  ..................    %%%%OOoo..................88##3322  2222XXBB3333XX3322  2222XX  NN",
"NN88##XX333322XXBB22  2233XX333322XXXX                        %%**oooo                  88##XX333322XXBB22  2233XX333322XXXX  NN",
"NN88##XX333322XXBB22  2233XX333322XXXX                        %%**oooo                  88##XX333322XXBB22  2233XX333322XXXX  NN",
"NN88##XXXXXXXXXX33      33XXXXXXXXXXXX                      %%==****                    88##XXXXXXXXXX33      33XXXXXXXXXXXX  NN",
"NN88##XXXXXXXXXX33      33XXXXXXXXXXXX                      %%==****                    88##XXXXXXXXXX33      33XXXXXXXXXXXX  NN",
"NN88XXXXZZ4433XX3322  2222..443333XXXX  %%%%%%%%%%%%%%%%%%%%**eeeeeeee**%%%%%%%%$$$$$$$$88XXXXZZ4433XX3322  2222..443333XXXX  NN",
"NN88XXXXZZ4433XX3322  2222..443333XXXX  %%%%%%%%%%%%%%%%%%%%**eeeeeeee**%%%%%%%%$$$$$$$$88XXXXZZ4433XX3322  2222..443333XXXX  NN",
"NN88XXVV22  2233XX333322XX4422  2233XX  %%%%****rruuuuppuurrrreeeeee--------**%%$$$$%%%%88XXVV22  2233XX333322XX4422  2233XX  NN",
"NN88XXVV22  2233XX333322XX4422  2233XX  %%%%****rruuuuppuurrrreeeeee--------**%%$$$$%%%%88XXVV22  2233XX333322XX4422  2233XX  NN",
"NN88XX44      33XXXXXXXXXX33      33XX    %%%%**==rrppuurrpprreeeeeeee--ee--****$$**%%%%88XX44      33XXXXXXXXXX33      33XX  NN",
"NN88XX44      33XXXXXXXXXX33      33XX    %%%%**==rrppuurrpprreeeeeeee--ee--****$$**%%%%88XX44      33XXXXXXXXXX33      33XX  NN",
"NNNNXX3322  2222XX443333XX3322  2222  ##66GGwwXXXX##qq88##OOXXXXXXXXXXXXXX....XX..66GGRR66XX3322  2222XX443333XX3322  2222  NNNN",
"NNNNXX3322  2222XX443333XX3322  2222  ##66GGwwXXXX##qq88##OOXXXXXXXXXXXXXX....XX..66GGRR66XX3322  2222XX443333XX3322  2222  NNNN",
"NNNNXXXX333322XX4422  2233XX333322XX  ####88##8866OOOOOOXXXXXXXXXXXXXXXXXXXXXX##00wwww00OOXXXX333322XX4422  2233XX333322XX  NNNN",
"NNNNXXXX333322XX4422  2233XX333322XX  ####88##8866OOOOOOXXXXXXXXXXXXXXXXXXXXXX##00wwww00OOXXXX333322XX4422  2233XX333322XX  NNNN",
"NNNNNNXXXXXXXXXX33      33XXXXXXXX  ######88####OO66                      ##668866##OOOO66OOXXXXXXXXXX33      33XXXXXXXX  NNNNNN",
"NNNNNNXXXXXXXXXX33      33XXXXXXXX  ######88####OO66                      ##668866##OOOO66OOXXXXXXXXXX33      33XXXXXXXX  NNNNNN",
"NNNNNNNNXXXXXXXX3322  2222XXXXXX                ........XXXXXXXXXXXXXXXX##66##OOOOOOOOOO66    XXXXXXXX3322  2222XXXXXX  NNNNNNNN",
"NNNNNNNNXXXXXXXX3322  2222XXXXXX                ........XXXXXXXXXXXXXXXX##66##OOOOOOOOOO66    XXXXXXXX3322  2222XXXXXX  NNNNNNNN",
"NNNNNNNNNNXXXXXXXX333322XXXX    OOOO@@@@5577XXXX    ......  XXXXXXXXXX####OOOOOOOOXX      XXXXXXXXXXXXXX333322XXXX    NNNNNNNNNN",
"NNNNNNNNNNXXXXXXXX333322XXXX    OOOO@@@@5577XXXX    ......  XXXXXXXXXX####OOOOOOOOXX      XXXXXXXXXXXXXX333322XXXX    NNNNNNNNNN",
"NNNNNNNNNNNN<<::          ;;XXOOOOOO@@@@5577ooXX....    ....  ........XXOOOOXXXX    XXXX88OOOOXXXXXX<<::          ;;NNNNNNNNNNNN",
"NNNNNNNNNNNN<<::          ;;XXOOOOOO@@@@5577ooXX....    ....  ........XXOOOOXXXX    XXXX88OOOOXXXXXX<<::          ;;NNNNNNNNNNNN",
"NNNNNNNNNNNNvvvv,,,,,,::::;;XXOOOO@@@@557788ooXX........  ..          XXXXXX    XXXXXX##88##OOXXXXXXvvvv,,,,,,::::;;NNNNNNNNNNNN",
"NNNNNNNNNNNNvvvv,,,,,,::::;;XXOOOO@@@@557788ooXX........  ..          XXXXXX    XXXXXX##88##OOXXXXXXvvvv,,,,,,::::;;NNNNNNNNNNNN",
"NNNNNNNNNNNNXXBB2222222222OOXXOO@@@@55778855ooXX..........  ..          XX    XXXXXXOO##8866##OOXXXXXXBB2222222222NNNNNNNNNNNNNN",
"NNNNNNNNNNNNXXBB2222222222OOXXOO@@@@55778855ooXX..........  ..          XX    XXXXXXOO##8866##OOXXXXXXBB2222222222NNNNNNNNNNNNNN",
"NNNNNNNNNNNNNNNNNNNNXXXX  XXXXOO@@@@5577qqOOooXX..............                XXXXXXOO##8888##OOOOXXXX  XX    NNNNNNNNNNNNNNNNNN",
"NNNNNNNNNNNNNNNNNNNNXXXX  XXXXOO@@@@5577qqOOooXX..............                XXXXXXOO##8888##OOOOXXXX  XX    NNNNNNNNNNNNNNNNNN",
"NNNNNNNNNNNNNNNNNNXXOO##  XXXX@@@@557799qq##ooXX..........                XX  XXXXXXOO##6600####OOXXXX  XX    NNNNNNNNNNNNNNNNNN",
"NNNNNNNNNNNNNNNNNNXXOO##  XXXX@@@@557799qq##ooXX..........                XX  XXXXXXOO##6600####OOXXXX  XX    NNNNNNNNNNNNNNNNNN",
"NNNNNNNNNNNNNNNNNNXXOO##  XX@@@@557799qq77OOXX............    NNNNNNNN    XX  XXXXXXOO##OOww##66OOXXXX  XXXX  NNNNNNNNNNNNNNNNNN",
"NNNNNNNNNNNNNNNNNNXXOO##  XX@@@@557799qq77OOXX............    NNNNNNNN    XX  XXXXXXOO##OOww##66OOXXXX  XXXX  NNNNNNNNNNNNNNNNNN",
"NNNNNNNNNNNNNNNNNNXXXXOOOO  XX55779999TT55OOXX............  NNNNNNNNNNNN      XXOOXXOOOO8866666600000066######NNNNNNNNNNNNNNNNNN",
"NNNNNNNNNNNNNNNNNNXXXXOOOO  XX55779999TT55OOXX............  NNNNNNNNNNNN      XXOOXXOOOO8866666600000066######NNNNNNNNNNNNNNNNNN",
"NNNNNNNNNNNNNNNNNNXX  ####                          ......  NNNNNNNNNNNN      XXOOXX00ww008888666666####XXXX    NNNNNNNNNNNNNNNN",
"NNNNNNNNNNNNNNNNNNXX  ####                          ......  NNNNNNNNNNNN      XXOOXX00ww008888666666####XXXX    NNNNNNNNNNNNNNNN",
"NNNNNNNNNNNNNNNNNNXXXXOO##66                      OOOO##XXNNNNNNNNNNNNNNNN    OO66ww00##XXXXXXXXXXXXXXXXXXXX    NNNNNNNNNNNNNNNN",
"NNNNNNNNNNNNNNNNNNXXXXOO##66                      OOOO##XXNNNNNNNNNNNNNNNN    OO66ww00##XXXXXXXXXXXXXXXXXXXX    NNNNNNNNNNNNNNNN",
"NNNNNNNNNNNNNNNNNNXXOO  OO6666##              OOOO88##XXXXNNNNNNNNNNNNNNNN  XX66##XX                          NNNNNNNNNNNNNNNNNN",
"NNNNNNNNNNNNNNNNNNXXOO  OO6666##              OOOO88##XXXXNNNNNNNNNNNNNNNN  XX66##XX                          NNNNNNNNNNNNNNNNNN",
"NNNNNNNNNNNNNNNNNNNNXXXX  XX66888800qqFFFFTTFF0066OO      NNNNNNNNNNNNNNNNXXOOXX                              NNNNNNNNNNNNNNNNNN",
"NNNNNNNNNNNNNNNNNNNNXXXX  XX66888800qqFFFFTTFF0066OO      NNNNNNNNNNNNNNNNXXOOXX                              NNNNNNNNNNNNNNNNNN",
"NNNNNNNNNNNNNNNNNNNN  ##XX  XXXXXXXXXXXXXX####XX    XX    NNNNNNNNNNNNNNNNNNNN  ##0000FFww008866######OOOOOOXXXXNNNNNNNNNNNNNNNN",
"NNNNNNNNNNNNNNNNNNNN  ##XX  XXXXXXXXXXXXXX####XX    XX    NNNNNNNNNNNNNNNNNNNN  ##0000FFww008866######OOOOOOXXXXNNNNNNNNNNNNNNNN",
"NNNNNNNNNNNNNNNNNNNNNNOO##XX                      OOXXXX  NNNNNNNNNNNNNNNNNN  ##006666####OOOOOOOOXXXXXXXXXXXXXXNNNNNNNNNNNNNNNN",
"NNNNNNNNNNNNNNNNNNNNNNOO##XX                      OOXXXX  NNNNNNNNNNNNNNNNNN  ##006666####OOOOOOOOXXXXXXXXXXXXXXNNNNNNNNNNNNNNNN",
"NNNNNNNNNNNNNNNNNNNNNN  OO####OOXX          XXOOOOXXXX    NNNNNNNNNNNNNNNNNN  ##                              NNNNNNNNNNNNNNNNNN",
"NNNNNNNNNNNNNNNNNNNNNN  OO####OOXX          XXOOOOXXXX    NNNNNNNNNNNNNNNNNN  ##                              NNNNNNNNNNNNNNNNNN",
"NNNNNNNNNNNNNNNNNNNNNNNN  OO6666888888880066##OOXX        NNNNNNNNNNNNNNNNNN    XXXX##XXOO##88OO            NNNNNNNNNNNNNNNNNNNN",
"NNNNNNNNNNNNNNNNNNNNNNNN  OO6666888888880066##OOXX        NNNNNNNNNNNNNNNNNN    XXXX##XXOO##88OO            NNNNNNNNNNNNNNNNNNNN",
"NNNNNNNNNNNNNNNNNNNNNNNNNNXXXX                            NNNNNNNNNNNNNNNNNN    XXXX##XXOO####XX            NNNNNNNNNNNNNNNNNNNN",
"NNNNNNNNNNNNNNNNNNNNNNNNNNXXXX                            NNNNNNNNNNNNNNNNNN    XXXX##XXOO####XX            NNNNNNNNNNNNNNNNNNNN",
"NNNNNNNNNNNNNNNNNNNNNNNNNNNNOOOOOOOOXXXXXXXXXXXX  XX      NNNNNNNNNNNNNNNNNNNN  XXOO##XXOO##OO            NNNNNNNNNNNNNNNNNNNNNN",
"NNNNNNNNNNNNNNNNNNNNNNNNNNNNOOOOOOOOXXXXXXXXXXXX  XX      NNNNNNNNNNNNNNNNNNNN  XXOO##XXOO##OO            NNNNNNNNNNNNNNNNNNNNNN",
"NNNNNNNNNNNNNNNNNNNNNNNNNNNNOOXXXX                        NNNNNNNNNNNNNNNNNNNN  XXXXOOXXOO##XX            NNNNNNNNNNNNNNNNNNNNNN",
"NNNNNNNNNNNNNNNNNNNNNNNNNNNNOOXXXX                        NNNNNNNNNNNNNNNNNNNN  XXXXOOXXOO##XX            NNNNNNNNNNNNNNNNNNNNNN",
"NNNNNNNNNNNNNNNNNNNNNNNNNNNNNNXXXX                      NNNNNNNNNNNNNNNNNNNNNNNN  XXXXXXXXOO            NNNNNNNNNNNNNNNNNNNNNNNN",
"NNNNNNNNNNNNNNNNNNNNNNNNNNNNNNXXXX                      NNNNNNNNNNNNNNNNNNNNNNNN  XXXXXXXXOO            NNNNNNNNNNNNNNNNNNNNNNNN",
"NNNNNNNNNNNNNNNNNNNNNNNNNNNNNNOOOOOOOOXXXXXXXX  XX      NNNNNNNNNNNNNNNNNNNNNN      XXXXOO888888####XX  NNNNNNNNNNNNNNNNNNNNNNNN",
"NNNNNNNNNNNNNNNNNNNNNNNNNNNNNNOOOOOOOOXXXXXXXX  XX      NNNNNNNNNNNNNNNNNNNNNN      XXXXOO888888####XX  NNNNNNNNNNNNNNNNNNNNNNNN",
"NNNNNNNNNNNNNNNNNNNNNNNNNNNNNNNN                      NNNNNNNNNNNNNNNNNNNNNN      XX##666666############OONNNNNNNNNNNNNNNNNNNNNN",
"NNNNNNNNNNNNNNNNNNNNNNNNNNNNNNNN                      NNNNNNNNNNNNNNNNNNNNNN      XX##666666############OONNNNNNNNNNNNNNNNNNNNNN",
"NNNNNNNNNNNNNNNNNNNNNNNNNNNNNNNNNN                  OO##555566666666666655##    OO######OOOOOOOOOOOOOOOOOOOONNNNNNNNNNNNNNNNNNNN",
"NNNNNNNNNNNNNNNNNNNNNNNNNNNNNNNNNN                  OO##555566666666666655##    OO######OOOOOOOOOOOOOOOOOOOONNNNNNNNNNNNNNNNNNNN",
"NNNNNNNNNNNNNNNNNNNNNNNNNNNNNN008877555555@@@@@@++ooooooooooXXXXXXXXXXXXXXXX    ##OOOOOOOOXXXXXXXXXXXXXXXXXXXXNNNNNNNNNNNNNNNNNN",
"NNNNNNNNNNNNNNNNNNNNNNNNNNNNNN008877555555@@@@@@++ooooooooooXXXXXXXXXXXXXXXX    ##OOOOOOOOXXXXXXXXXXXXXXXXXXXXNNNNNNNNNNNNNNNNNN",
"NNNNNNNNNNNNNNNNNNNNNNNN0088775555########OOOOOOOOOOOOOOOOOOOOOOOOOOOOOOOOOOOO  XXXXXXXXXX                XXXX##668888NNNNNNNNNN",
"NNNNNNNNNNNNNNNNNNNNNNNN0088775555########OOOOOOOOOOOOOOOOOOOOOOOOOOOOOOOOOOOO  XXXXXXXXXX                XXXX##668888NNNNNNNNNN",
"NNNNNNNNNNNNNNNNNNNNNNNNNNNNNN0088775555555555555555555555555555555555555555####                              ####6666888888NNNN",
"NNNNNNNNNNNNNNNNNNNNNNNNNNNNNN0088775555555555555555555555555555555555555555####                              ####6666888888NNNN",
"NNNNNNNNNNNNNNNNNNNNNNNNNNNNNNNNNNNNNNNNNNNNNNNNNNNNNNNNNNNNNNNNNNNNNNNNNNNNNNNNNNNNNNNNNNNNNNNNNNNNNNNNNNNNNNNNNNNNNNNNNNNNNNNN",
"NNNNNNNNNNNNNNNNNNNNNNNNNNNNNNNNNNNNNNNNNNNNNNNNNNNNNNNNNNNNNNNNNNNNNNNNNNNNNNNNNNNNNNNNNNNNNNNNNNNNNNNNNNNNNNNNNNNNNNNNNNNNNNNN"
};
