/* XPM */
static char *result[] = {
/* columns rows colors chars-per-pixel */
"128 128 85 1 ",
"  c black",
". c gray11",
"X c #202020",
"o c #282828",
"O c #2C2C2C",
"+ c gray19",
"@ c #343434",
"# c gray22",
"$ c #400000",
"% c #4C0000",
"& c #580000",
"* c #640000",
"= c #700000",
"- c #7C0000",
"; c #403018",
": c #483818",
"> c #5C4020",
", c #6C4824",
"< c #744C28",
"1 c #004040",
"2 c #005858",
"3 c #007070",
"4 c gray25",
"5 c #484848",
"6 c #4C4C4C",
"7 c gray33",
"8 c #646464",
"9 c gray44",
"0 c #7C7C7C",
"q c #880000",
"w c #980000",
"e c #A40000",
"r c #B00000",
"t c #BC0000",
"y c #C80000",
"u c #D40000",
"i c #E00000",
"p c #EC0000",
"a c #FC0000",
"s c #FC2020",
"d c #80502C",
"f c #885830",
"g c #905C34",
"h c #9C6038",
"j c #A0643C",
"k c #A86840",
"l c #B47044",
"z c #FC4040",
"x c #FC5C5C",
"c c #C87C4C",
"v c #FC7C7C",
"b c #B4AC00",
"n c #CCC400",
"m c #E4D800",
"M c #FCF420",
"N c #D08050",
"B c #E88C58",
"V c #F0945C",
"C c #FC9C60",
"Z c #FCA470",
"A c #FCFC7C",
"S c #980088",
"D c #008484",
"F c #00CCCC",
"G c #00E4E4",
"H c #7CFCF8",
"J c gray55",
"K c #989898",
"L c gray66",
"P c #B4B4B4",
"I c #FC9C9C",
"U c #FCB080",
"Y c #FCB890",
"T c #FCB8B8",
"R c #FCC4A4",
"E c #FCD4BC",
"W c #FCFCB8",
"Q c #B8FCFC",
"! c #C0C0C0",
"~ c #D0D0D0",
"^ c gainsboro",
"/ c #FCD8D8",
"( c #FCFCD8",
") c #ECECEC",
"_ c gray99",
/* pixels */
"SSSSSSSSSSSSSSSSSSSSSSSSSSSSSSSSSSSSSSSSSSSSSSSSSSSSSSSSSSSSSSSSSSSSSSSSSSSSSSSSSSSSSSSSSSSSSSSSSSSSSSSSSSSSSSSSSSSSSSSSSSSSSSSS",
"SSSSSSSSSSSSSSSSSSSSSSSSSSSSSSSSSSSSSSSSSSSSSSSSSSSSSSSSSSSSSSSSSSSSSSSSSSSSSSSSSSSSSSSSSSSSSSSSSSSSSSSSSSSSSSSSSSSSSSSSSSSSSSSS",
"SSSSSSSSSSSSSSSSSSSSSSSSSSSSSSSSSSSSqqSSSSSSSSSSSSSSSSSSOOOOOOOO##OO      SSSSSSSSSSSSSSSSSSSSSSSSSSSSSSSSSSSSSSSSSSSSSSSSSSSSSS",
"SSSSSSSSSSSSSSSSSSSSSSSSSSSSSSSSSSSSqqSSSSSSSSSSSSSSSSSSOOOOOOOO##OO      SSSSSSSSSSSSSSSSSSSSSSSSSSSSSSSSSSSSSSSSSSSSSSSSSSSSSS",
"SSSSSSSSSSSSSSSSSSSSSSSSSSSSSSSSSSSSrrSSSSSSSSSSSSSSXXOOOOOOOOOO55OO          SSSSSSSSSSSSSSSSSSSSSSSSSSSSSSSSSSSSSSSSSSSSSSSSSS",
"SSSSSSSSSSSSSSSSSSSSSSSSSSSSSSSSSSSSrrSSSSSSSSSSSSSSXXOOOOOOOOOO55OO          SSSSSSSSSSSSSSSSSSSSSSSSSSSSSSSSSSSSSSSSSSSSSSSSSS",
"SSSSSSSSSSSSSSSSSSSSSSSSSSSSSSSSSSSSrrSSSSSSSSSSSSXXOO&&&&&&OO##55OO            SSSSSSSSSSSSSSSSSSSSSSSSSSSSSSSSSSSSSSSSSSSSSSSS",
"SSSSSSSSSSSSSSSSSSSSSSSSSSSSSSSSSSSSrrSSSSSSSSSSSSXXOO&&&&&&OO##55OO            SSSSSSSSSSSSSSSSSSSSSSSSSSSSSSSSSSSSSSSSSSSSSSSS",
"SSSSSSSSSSSSSSSSSSSSSSSSSSSSppqqSSrrxxrrSSSS****XXXX--wwwwww--##88OO              SSSSSSSSSSSSSSSSSSSSSSSSSSSSSSSSSSSSSSSSSSSSSS",
"SSSSSSSSSSSSSSSSSSSSSSSSSSSSppqqSSrrxxrrSSSS****XXXX--wwwwww--##88OO              SSSSSSSSSSSSSSSSSSSSSSSSSSSSSSSSSSSSSSSSSSSSSS",
"SSSSSSSSSSSSSSSSSSSSSSSSSSSSqqxxrrrrAAxxrr**pp**XXyyvvyyIIyyII5588##  88  88  55    SSSSDDHHDDDDDDSSSSSSSSSSSSSSSSSSSSSSSSSSSSSS",
"SSSSSSSSSSSSSSSSSSSSSSSSSSSSqqxxrrrrAAxxrr**pp**XXyyvvyyIIyyII5588##  88  88  55    SSSSDDHHDDDDDDSSSSSSSSSSSSSSSSSSSSSSSSSSSSSS",
"SSSSSSSSSSSSSSSSSSSSSSSSSSSSSSrrxxIIJJJJxxpp**XXXXOO&&&&&&&&55550055                SSDD11..55OO..22SSSSSSSSSSSSSSSSSSSSSSSSSSSS",
"SSSSSSSSSSSSSSSSSSSSSSSSSSSSSSrrxxIIJJJJxxpp**XXXXOO&&&&&&&&55550055                SSDD11..55OO..22SSSSSSSSSSSSSSSSSSSSSSSSSSSS",
"SSSSSSSSSSSSSSSSSSSSSSSSSSSS****xxJJ^^88JJxx****XX  ffzzff>>5500PP55  >>ffffff##    DD11..55LL88OOXX11SSSSSSSSSSSSSSSSSSSSSSSSSS",
"SSSSSSSSSSSSSSSSSSSSSSSSSSSS****xxJJ^^88JJxx****XX  ffzzff>>5500PP55  >>ffffff##    DD11..55LL88OOXX11SSSSSSSSSSSSSSSSSSSSSSSSSS",
"SSSSSSSSSSSSSSSSSSSSSSrrrrppsszzAAJJ8899JJAAxxzzrrrrvvTTvvzzYYZZNNff88JJ88ZZjj##  99DD11..558855OOXX11SSSSSSSSSSSSSSSSSSSSSSSSSS",
"SSSSSSSSSSSSSSSSSSSSSSrrrrppsszzAAJJ8899JJAAxxzzrrrrvvTTvvzzYYZZNNff88JJ88ZZjj##  99DD11..558855OOXX11SSSSSSSSSSSSSSSSSSSSSSSSSS",
"SSSSSSSSSSSSSSSSSSSSSSSSSSqq****rrxxJJJJxxss****55  hhvvpp&&ppjj<<88))vv))88KK~~~~__  2211XXOOOOXX11uuqqSSSSSSSSSSSSSSSSSSSSSSSS",
"SSSSSSSSSSSSSSSSSSSSSSSSSSqq****rrxxJJJJxxss****55  hhvvpp&&ppjj<<88))vv))88KK~~~~__  2211XXOOOOXX11uuqqSSSSSSSSSSSSSSSSSSSSSSSS",
"SSSSSSSSSSSSSSSSSSSSSSSSwwuuqquurrxxAAxxssxxrr9944  llxxCCBBBBUUCCJJvvTTvvJJKKPPKK))  DD1111111111qqqquu&&SSSSSSSSSSSSSSSSSSSSSS",
"SSSSSSSSSSSSSSSSSSSSSSSSwwuuqquurrxxAAxxssxxrr9944  llxxCCBBBBUUCCJJvvTTvvJJKKPPKK))  DD1111111111qqqquu&&SSSSSSSSSSSSSSSSSSSSSS",
"SSSSSSSSSSSSSSSSSSSSSSSSrr**&&rr$$ssIIss11rrrr**++  llxxEERRRRUURR88))vv))88gg##  99  DD33DD1111eeee**ee&&SSSSSSSSSSSSSSSSSSSSSS",
"SSSSSSSSSSSSSSSSSSSSSSSSrr**&&rr$$ssIIss11rrrr**++  llxxEERRRRUURR88))vv))88gg##  99  DD33DD1111eeee**ee&&SSSSSSSSSSSSSSSSSSSSSS",
"SSSSSSSSSSSSSSSSSSSSSSSSqq&&rr$$$$ssxxss3311**rr++  jjxxUUUUNNjjffff88JJ88ccgg##  XX  GG33GG2233ee****&&&&SSSSSSSSSSSSSSSSSSSSSS",
"SSSSSSSSSSSSSSSSSSSSSSSSqq&&rr$$$$ssxxss3311**rr++  jjxxUUUUNNjjffff88JJ88ccgg##  XX  GG33GG2233ee****&&&&SSSSSSSSSSSSSSSSSSSSSS",
"SSSS5599LL77##SSSSSSSSSS&&$$$$$$DD//xxss331166**++  ffzzZZjjVVZZVVZZVVlljjjjkk##      XXDDGG33DD33****$$&&SSSSSSSSOOOOOOOOOOSSSS",
"SSSS5599LL77##SSSSSSSSSS&&$$$$$$DD//xxss331166**++  ffzzZZjjVVZZVVZZVVlljjjjkk##      XXDDGG33DD33****$$&&SSSSSSSSOOOOOOOOOOSSSS",
"SSSSSSXXOO888855--yySSSSSS$$$$$$DD//rrDD333355++++  ddzzZZjjKK~~^^~~KKllZZNN,,##      XXDDGG33DD33$$$$$$88--55OOOOOOOOOOXXSSSSSS",
"SSSSSSXXOO888855--yySSSSSS$$$$$$DD//rrDD333355++++  ddzzZZjjKK~~^^~~KKllZZNN,,##      XXDDGG33DD33$$$$$$88--55OOOOOOOOOOXXSSSSSS",
"SSSSSSSSXXXX########--wwyyXX$$FF//vv//vv//33XXXXXX  ggzzZZjj99**&&**99llZZjjkk##      FFQQFFFFFFQQ33$$$$88--OOOOXXXXXXXXSSSSSSSS",
"SSSSSSSSXXXX########--wwyyXX$$FF//vv//vv//33XXXXXX  ggzzZZjj99**&&**99llZZjjkk##      FFQQFFFFFFQQ33$$$$88--OOOOXXXXXXXXSSSSSSSS",
"SSSSSSSSXXXXXXXXXXXXXX##XXXXXXDDzzzzzzzzzz2222      ffzzZZll**ww==ww**llZZjjff##    @@2222222222221122KK&&--&&XX        SSSSSSSS",
"SSSSSSSSXXXXXXXXXXXXXX##XXXXXXDDzzzzzzzzzz2222      ffzzZZll**ww==ww**llZZjjff##    @@2222222222221122KK&&--&&XX        SSSSSSSS",
"SSSSSSXXXX55XXXXXX          ..++qqqqqqqqqq1111XXXXXX##ppNNll!!~~^^~~!!llhh####      ++11111111111111OOXX&&yy&&  XX  XX    SSSSSS",
"SSSSSSXXXX55XXXXXX          ..++qqqqqqqqqq1111XXXXXX##ppNNll!!~~^^~~!!llhh####      ++11111111111111OOXX&&yy&&  XX  XX    SSSSSS",
"SS77XX##88##XXXXXXXXXXXX  ..++**==qq==qq==**++..XXXXXXXX####55hhffhh55####        ..++++++11++11++++XXXX--aa--XXXXXX  XX  XXXXSS",
"SS77XX##88##XXXXXXXXXXXX  ..++**==qq==qq==**++..XXXXXXXX####55hhffhh55####        ..++++++11++11++++XXXX--aa--XXXXXX  XX  XXXXSS",
"SSXXLL88##XXXXOOXXXXXXXX  ..OOOO**======**OOOOOO..  XXXXXXXXXXXX                ..OOOOOOOOOOOOOOOOOOOO  wwzzwwXXXXXXXX  XXXXXXSS",
"SSXXLL88##XXXXOOXXXXXXXX  ..OOOO**======**OOOOOO..  XXXXXXXXXXXX                ..OOOOOOOOOOOOOOOOOOOO  wwzzwwXXXXXXXX  XXXXXXSS",
"SSSSXX9955OO##XXXXXXXXXX  ..OO++++++++++OO**OOOOOOOO..                      ..++++++OOOOOOOOOOOOOOOOOO  rrzzyyXXXXXXXXXXXXXXSSSS",
"SSSSXX9955OO##XXXXXXXXXX  ..OO++++++++++OO**OOOOOOOO..                      ..++++++OOOOOOOOOOOOOOOOOO  rrzzyyXXXXXXXXXXXXXXSSSS",
"SSSS  XX######777777777755##++88887755@@====@@@@@@@@++11++++++..LL887755444444@@@@@@@@@@@@@@--++++++77qqiixxiiqq##XXOOXXXXwwSSSS",
"SSSS  XX######777777777755##++88887755@@====@@@@@@@@++11++++++..LL887755444444@@@@@@@@@@@@@@--++++++77qqiixxiiqq##XXOOXXXXwwSSSS",
"SS==      8877##XXaaaaaaXXXX####....**ww......................  OOoo........................ii--8877##rriixxiirrXX####--ww  SSSS",
"SS==      8877##XXaaaaaaXXXX####....**ww......................  OOoo........................ii--8877##rriixxiirrXX####--ww  SSSS",
"SSSSqqqq00##XXXXzz**  **zzXXXXXXXXwwrr**....................    OOOO..........................iittXXXXiixxvvxxiiXX--ttzzwwOOSSSS",
"SSSSqqqq00##XXXXzz**  **zzXXXXXXXXwwrr**....................    OOOO..........................iittXXXXiixxvvxxiiXX--ttzzwwOOSSSS",
"SSSSqqrruuqqXXXXvv      vvXXXX**wwuuww......................    OOOO........................88ttiittrriixxbbxxiittssxxttwwOOSSSS",
"SSSSqqrruuqqXXXXvv      vvXXXX**wwuuww......................    OOOO........................88ttiittrriixxbbxxiittssxxttwwOOSSSS",
"SSSS77qqyyzzzzqqqq**  **==**yyuuzzww**......................    OOOOoo....................77iivviixxssxxxxmmxxxxxxxxzzttXXXXSSSS",
"SSSS77qqyyzzzzqqqq**  **==**yyuuzzww**......................    OOOOoo....................77iivviixxssxxxxmmxxxxxxxxzzttXXXXSSSS",
"SSSS77IIqqzzvvzzrryyyyyyyyyyzzvvzzqqXX......................    ooOOoo....................77vvttiissxxvvvvmmvvvvxxxxttwwzzXXSSSS",
"SSSS77IIqqzzvvzzrryyyyyyyyyyzzvvzzqqXX......................    ooOOoo....................77vvttiissxxvvvvmmvvvvxxxxttwwzzXXSSSS",
"SS77##zzqquuzznnvvzzuuuuzzvvmmzzwwzzXX  ..................      ooOOoo..................77##vv  iiiivvbbmmWWmmbbvvzziiyyvvXX  SS",
"SS77##zzqquuzznnvvzzuuuuzzvvmmzzwwzzXX  ..................      ooOOoo..................77##vv  iiiivvbbmmWWmmbbvvzziiyyvvXX  SS",
"SS77##xx11rrzzvvMMnnbbbbnnmmvvyyqqxxXX  ..................    %%%%OOoo..................ttttiiiizzxxvvmmWW((WWmmvvxxzzii--XX  SS",
"SS77##xx11rrzzvvMMnnbbbbnnmmvvyyqqxxXX  ..................    %%%%OOoo..................ttttiiiizzxxvvmmWW((WWmmvvxxzzii--XX  SS",
"SS77##XXvvqqwwvvnnmmmmmmmmnnvvwwvvXXXX                        %%**oooo    %%**----rryyyyzzzzxxvvbbmmmmWW((((((WWmmbbvvxxzzee--SS",
"SS77##XXvvqqwwvvnnmmmmmmmmnnvvwwvvXXXX                        %%**oooo    %%**----rryyyyzzzzxxvvbbmmmmWW((((((WWmmbbvvxxzzee--SS",
"SS77##XXqqqqzzvvmmmm((((mmmmmmvvzzzzwwqq======&&$$$$        %%==****                    **qqiiiizzxxvvmmWW((WWmmvvzzzziiyyXX  SS",
"SS77##XXqqqqzzvvmmmm((((mmmmmmvvzzzzwwqq======&&$$$$        %%==****                    **qqiiiizzxxvvmmWW((WWmmvvzzzziiyyXX  SS",
"SSqqwwwwzzzzvvbbnnmm((((mmnnvvqqqqqqXX  %%%%%%%%%%%%%%%%%%%%**qqqqqqqq**%%%%%%%%$$$$$$$$77XX&&iiiissvvbbmmWWmmbbvvxxiiyyXXXX  SS",
"SSqqwwwwzzzzvvbbnnmm((((mmnnvvqqqqqqXX  %%%%%%%%%%%%%%%%%%%%**qqqqqqqq**%%%%%%%%$$$$$$$$77XX&&iiiissvvbbmmWWmmbbvvxxiiyyXXXX  SS",
"SS77XXvvqqqqppvvbbmmmmmmmmbbvvqqvvzzXX  %%%%****wwttttaattwwwwqqqqqq--------**%%$$$$%%%%77XXvv&&iizzxxvvvvmmvvvvxxxxzz**vvXX  SS",
"SS77XXvvqqqqppvvbbmmmmmmmmbbvvqqvvzzXX  %%%%****wwttttaattwwwwqqqqqq--------**%%$$$$%%%%77XXvv&&iizzxxvvvvmmvvvvxxxxzz**vvXX  SS",
"SS77XXzz  qqzzvvmmvvvvxxvvmmvvqqqqxxXX    %%%%**==wwaattwwaawwqqqqqqqq--qq--****$$**%%%%77XXvv--zzxxzzssxxmmxxsszzzzzzrrvvXX  SS",
"SS77XXzz  qqzzvvmmvvvvxxvvmmvvqqqqxxXX    %%%%**==wwaattwwaawwqqqqqqqq--qq--****$$**%%%%77XXvv--zzxxzzssxxmmxxsszzzzzzrrvvXX  SS",
"SSSSXXyy**uuzzmmvvssssssssvvnnzzqqzz  ##555555OO##779977##OOXXXXXXXXXXXXXX....XX....  5555XXzziizzzz&&iixxbbxxiivv**rrii**  SSSS",
"SSSSXXyy**uuzzmmvvssssssssvvnnzzqqzz  ##555555OO##779977##OOXXXXXXXXXXXXXX....XX....  5555XXzziizzzz&&iixxbbxxiivv**rrii**  SSSS",
"SSSSXXXXwwzzvvzzwwqq  ppqqwwzzvvzzqq  OOOOOO##5500KKOOOOXXXXXXXXXXXXXXXXXXXXXXXXLL0055OOOOXX%%qqii&&XXvvxxvvxxyyXXvvzz**rr  SSSS",
"SSSSXXXXwwzzvvzzwwqq  ppqqwwzzvvzzqq  OOOOOO##5500KKOOOOXXXXXXXXXXXXXXXXXXXXXXXXLL0055OOOOXX%%qqii&&XXvvxxvvxxyyXXvvzz**rr  SSSS",
"SSSSSSwwwwzzzzqqvv      vvXXqqzzzzwwqqOOOOOOOO##88                            00LL88OOOOOOOOqq%%XXXXXXvvzzvvzzvvXXXXXXXX  SSSSSS",
"SSSSSSwwwwzzzzqqvv      vvXXqqzzzzwwqqOOOOOOOO##88                            00LL88OOOOOOOOqq%%XXXXXXvvzzvvzzvvXXXXXXXX  SSSSSS",
"SSSSSSyyyyqqwwXXzz**  **zzXXXXXXqqqqwwqq  OO##55        XXXXXXXXXXXXXXXXXXXX7755##0055##OO    XXXXXXXXzzaavvaazzXXXXXX  SSSSSSSS",
"SSSSSSyyyyqqwwXXzz**  **zzXXXXXXqqqqwwqq  OO##55        XXXXXXXXXXXXXXXXXXXX7755##0055##OO    XXXXXXXXzzaavvaazzXXXXXX  SSSSSSSS",
"SSSSSSyyyyXXXXXXXXyyyy--XXXX    XXXXqq--$$              XXXXXXXXXXXXXXXXXXXX55OOOO##      XXXXXXXXXXXXXXaaxxaaXXXX    SSSSSSSSSS",
"SSSSSSyyyyXXXXXXXXyyyy--XXXX    XXXXqq--$$              XXXXXXXXXXXXXXXXXXXX55OOOO##      XXXXXXXXXXXXXXaaxxaaXXXX    SSSSSSSSSS",
"SSSSyySSSSSS<<::          ;;XXXXXXXXOO**--XXXXXX          ................55OOOOOO  XXXXXXOOOOXXXXXX<<::rrzzrr    ;;SSSSSSSSSSSS",
"SSSSyySSSSSS<<::          ;;XXXXXXXXOO**--XXXXXX          ................55OOOOOO  XXXXXXOOOOXXXXXX<<::rrzzrr    ;;SSSSSSSSSSSS",
"SSSSSSSSSSSSBBBB,,,,,,::::;;XXXXXXooOO##55XX                              OOOOOOXX  XX77OO##OOXXXXXXBBBBqqaaqq::::;;SSSSSSSSSSSS",
"SSSSSSSSSSSSBBBB,,,,,,::::;;XXXXXXooOO##55XX                              OOOOOOXX  XX77OO##OOXXXXXXBBBBqqaaqq::::;;SSSSSSSSSSSS",
"SSSSSSSSSSSSXXDD1111111111XXXXXXXXOO@@##XX                              OOXXXXXX  XXOO00OO55##OOXXXXXXDDwwuuww1111SSSSSSSSSSSSSS",
"SSSSSSSSSSSSXXDD1111111111XXXXXXXXOO@@##XX                              OOXXXXXX  XXOO00OO55##OOXXXXXXDDwwuuww1111SSSSSSSSSSSSSS",
"SSSSSSSSSSSSXXXX  XXOOXXXXXXXXXXooOO@@XX                                XXXXXX  XXXXOO887777##OOOOXXXXXXXXtt    SSSSSSSSSSSSSSSS",
"SSSSSSSSSSSSXXXX  XXOOXXXXXXXXXXooOO@@XX                                XXXXXX  XXXXOO887777##OOOOXXXXXXXXtt    SSSSSSSSSSSSSSSS",
"SSSSSSSSSSXXOO##  XXOOXXXXXXXXXXoo##ooXX                                      XXXXXXOO55##88####OOXXXXXXXXwwXX  SSSSSSSSSSSSSSSS",
"SSSSSSSSSSXXOO##  XXOOXXXXXXXXXXoo##ooXX                                      XXXXXXOO55##88####OOXXXXXXXXwwXX  SSSSSSSSSSSSSSSS",
"SSSSSSSSSSXXOO####XXXXXXXXXXXXXXOO@@XX                    SSSSSSSSSSSS    XX  XXXXXXOO##OO00##55OOXXXXXXXX&&XX  XXSSSSSSSSSSSSSS",
"SSSSSSSSSSXXOO####XXXXXXXXXXXXXXOO@@XX                    SSSSSSSSSSSS    XX  XXXXXXOO##OO00##55OOXXXXXXXX&&XX  XXSSSSSSSSSSSSSS",
"SSSSSSSSSSSSXXXX####XXXXXXXXXXooOOooXX              SSSSSSSSSSSSSSSSSS      XXXXXXOOXXOOOO887777OOXX--wwssww--######SSSSSSSSSSSS",
"SSSSSSSSSSSSXXXX####XXXXXXXXXXooOOooXX              SSSSSSSSSSSSSSSSSS      XXXXXXOOXXOOOO887777OOXX--wwssww--######SSSSSSSSSSSS",
"SSSSSSSSSSSS    OO##5555####OOOOXXXXXXOOOOOOOOXX    SSSSSSSSSSSSSSSSSSSS    XXXXXXXXXXOOOO~~TT0088zzvvxxIIxxuuww**    SSSSSSSSSS",
"SSSSSSSSSSSS    OO##5555####OOOOXXXXXXOOOOOOOOXX    SSSSSSSSSSSSSSSSSSSS    XXXXXXXXXXOOOO~~TT0088zzvvxxIIxxuuww**    SSSSSSSSSS",
"SSSSSSSSSSXX        OO557777888888880077OOOOXXXXXXSSSSSSSSSSSSSSSSSSSSSSSSSSXXXXXXXXOO880000##XXXXXXXXXXXXXXXXXXXX    SSSSSSSSSS",
"SSSSSSSSSSXX        OO557777888888880077OOOOXXXXXXSSSSSSSSSSSSSSSSSSSSSSSSSSXXXXXXXXOO880000##XXXXXXXXXXXXXXXXXXXX    SSSSSSSSSS",
"SSSSSSSSSSXXOO##    XXXXXXXXXXXXXX####XX        XXSSSSSSSSSSSSSSSSSSSSSSSSSSSSXXXX8888##                            SSSSSSSSSSSS",
"SSSSSSSSSSXXOO##    XXXXXXXXXXXXXX####XX        XXSSSSSSSSSSSSSSSSSSSSSSSSSSSSXXXX8888##                            SSSSSSSSSSSS",
"SSSSSSSSSSXXXXXX##OO                            SSSSSSSSSSSSSSSSSSSSSSSSSSSSSSXX88##                                SSSSSSSSSSSS",
"SSSSSSSSSSXXXXXX##OO                            SSSSSSSSSSSSSSSSSSSSSSSSSSSSSSXX88##                                SSSSSSSSSSSS",
"SSSSSSSSSSSS    XX######OO            OOOOOOXXXXSSSSSSSSSSSSSSSSSSSSSSSSSSSSSSSS      ##8888~~8888777777555555####XXXXSSSSSSSSSS",
"SSSSSSSSSSSS    XX######OO            OOOOOOXXXXSSSSSSSSSSSSSSSSSSSSSSSSSSSSSSSS      ##8888~~8888777777555555####XXXXSSSSSSSSSS",
"SSSSSSSSSSSSSS      ##55557777778855##OOXXXXXXSSSSSSSSSSSSSSSSSSSSSSSSSSSSSSSSSSSS  ##885555############XXXXXXXXXXXXXXSSSSSSSSSS",
"SSSSSSSSSSSSSS      ##55557777778855##OOXXXXXXSSSSSSSSSSSSSSSSSSSSSSSSSSSSSSSSSSSS  ##885555############XXXXXXXXXXXXXXSSSSSSSSSS",
"SSSSSSSSSSSSSSXX                            SSSSSSSSSSSSSSSSSSSSSSSSSSSSSSSSSSSSSS  ##                              SSSSSSSSSSSS",
"SSSSSSSSSSSSSSXX                            SSSSSSSSSSSSSSSSSSSSSSSSSSSSSSSSSSSSSS  ##                              SSSSSSSSSSSS",
"SSSSSSSSSSSSSSXXXX  XXXXXXXXOOOOXX          SSSSSSSSSSSSSSSSSSSSSSSSSSSSSSSSSSSSSSSSSS  XXXX77OO##7700OO            SSSSSSSSSSSS",
"SSSSSSSSSSSSSSXXXX  XXXXXXXXOOOOXX          SSSSSSSSSSSSSSSSSSSSSSSSSSSSSSSSSSSSSSSSSS  XXXX77OO##7700OO            SSSSSSSSSSSS",
"SSSSSSSSSSSSSSSSXXXX  XXXXXXXXOOXX        SSSSSSSSSSSSSSSSSSSSSSSSSSSSSSSSSSSSSSSSSSSS  XXXX55XXOO##77              SSSSSSSSSSSS",
"SSSSSSSSSSSSSSSSXXXX  XXXXXXXXOOXX        SSSSSSSSSSSSSSSSSSSSSSSSSSSSSSSSSSSSSSSSSSSS  XXXX55XXOO##77              SSSSSSSSSSSS",
"SSSSSSSSSSSSSSSS                            SSSSSSSSSSSSSSSSSSSSSSSSSSSSSSSSSSSSSSSSSSSS  XX##55OO####            SSSSSSSSSSSSSS",
"SSSSSSSSSSSSSSSS                            SSSSSSSSSSSSSSSSSSSSSSSSSSSSSSSSSSSSSSSSSSSS  XX##55OO####            SSSSSSSSSSSSSS",
"SSSSSSSSSSSSSSSSXXXXOOOOOOOOOOXXXXXXXX      SSSSSSSSSSSSSSSSSSSSSSSSSSSSSSSSSSSSSSSSSSSS  XXXX##XXOO##            SSSSSSSSSSSSSS",
"SSSSSSSSSSSSSSSSXXXXOOOOOOOOOOXXXXXXXX      SSSSSSSSSSSSSSSSSSSSSSSSSSSSSSSSSSSSSSSSSSSS  XXXX##XXOO##            SSSSSSSSSSSSSS",
"SSSSSSSSSSSSSS                              SSSSSSSSSSSSSSSSSSSSSSSSSSSSSSSSSSSSSSSSSSSSSS  XXXX##OOOO            SSSSSSSSSSSSSS",
"SSSSSSSSSSSSSS                              SSSSSSSSSSSSSSSSSSSSSSSSSSSSSSSSSSSSSSSSSSSSSS  XXXX##OOOO            SSSSSSSSSSSSSS",
"SSSSSSSSSSSS####OOOOOOOOOOOOXXXXXXOOOOXX    SSSSSSSSSSSSSSSSSSSSSSSSSSSSSSSSSSSSSSSSSSSSSS    XXXXOO770077####XX  SSSSSSSSSSSSSS",
"SSSSSSSSSSSS####OOOOOOOOOOOOXXXXXXOOOOXX    SSSSSSSSSSSSSSSSSSSSSSSSSSSSSSSSSSSSSSSSSSSSSS    XXXXOO770077####XX  SSSSSSSSSSSSSS",
"SSSSSSSSSSSSOOOOXXXXXXXXXXXXXXXXXXXXXXOO  OOOO####44445555SSSSSSSSSSSSSSSSSSSSSSSSSSSSSS    XX##555555############OOSSSSSSSSSSSS",
"SSSSSSSSSSSSOOOOXXXXXXXXXXXXXXXXXXXXXXOO  OOOO####44445555SSSSSSSSSSSSSSSSSSSSSSSSSSSSSS    XX##555555############OOSSSSSSSSSSSS",
"SSSSSSSSSSSSXXXX              XXXX    XX  XXXXXXXXoooooooo##4455555555555555554444####    OO######OOOOOOOOOOOOOOOOOOOOSSSSSSSSSS",
"SSSSSSSSSSSSXXXX              XXXX    XX  XXXXXXXXoooooooo##4455555555555555554444####    OO######OOOOOOOOOOOOOOOOOOOOSSSSSSSSSS",
"SSSSSSSSSSSS                            OOOOOOOOOOOOOOOOOOOOOOOOOOOOOOooooooooXXXXXXXX    ##OOOOOOOOXXXXXXXXXXXXXXXXXXXXSSSSSSSS",
"SSSSSSSSSSSS                            OOOOOOOOOOOOOOOOOOOOOOOOOOOOOOooooooooXXXXXXXX    ##OOOOOOOOXXXXXXXXXXXXXXXXXXXXSSSSSSSS",
"SSSSSSSSSSSSSSSSSSSSSSSS888888777755554444444444##########OOOOOOOOOOOOOOOOOOOOOOOOOOOOOO  XXXXXXXXXX                XXXXSSSSSSSS",
"SSSSSSSSSSSSSSSSSSSSSSSS888888777755554444444444##########OOOOOOOOOOOOOOOOOOOOOOOOOOOOOO  XXXXXXXXXX                XXXXSSSSSSSS",
"SSSSSSSSSSSSSSSSSSSSSSSSSSSSSSSSSSSSSSSSSSSSSSSS88887777777755555555555555555555554444####                              SSSSSSSS",
"SSSSSSSSSSSSSSSSSSSSSSSSSSSSSSSSSSSSSSSSSSSSSSSS88887777777755555555555555555555554444####                              SSSSSSSS"
};
