/* XPM */
static char *result[] = {
/* columns rows colors chars-per-pixel */
"128 128 59 1 ",
"  c black",
". c gray11",
"X c #28200C",
"o c #302410",
"O c #382C14",
"+ c #202020",
"@ c #282828",
"# c #2C2C2C",
"$ c gray19",
"% c gray22",
"& c #400000",
"* c #4C0000",
"= c #580000",
"- c #640000",
"; c #700000",
": c #7C0000",
"> c #403018",
", c #483818",
"< c #5C4020",
"1 c #6C4824",
"2 c #744C28",
"3 c #004040",
"4 c #005858",
"5 c #007070",
"6 c #484848",
"7 c gray33",
"8 c gray36",
"9 c #646464",
"0 c gray44",
"q c #7C7C7C",
"w c #880000",
"e c #980000",
"r c #A40000",
"t c #B00000",
"y c #C80000",
"u c #D40000",
"i c #FC0000",
"p c #FC2020",
"a c #80502C",
"s c #885830",
"d c #905C34",
"f c #A0643C",
"g c #B47044",
"h c #FC5C5C",
"j c #FC7C7C",
"k c #D08050",
"l c #DC8854",
"z c #980088",
"x c #008484",
"c c #009C9C",
"v c #00B4B4",
"b c #00CCCC",
"n c #00E4E4",
"m c #7CFCF8",
"M c gray55",
"N c #989898",
"B c gray66",
"V c #C0C0C0",
"C c #D0D0D0",
/* pixels */
"zzzzzzzzzzzzzzzzzzzzzzzzzzzzzzzzzzzzzzzzzzzzzzzzzzzzzzzzzzzzzzzzzzzzzzzzzzzzzzzzzzzzzzzzzzzzzzzzzzzzzzzzzzzzzzzzzzzzzzzzzzzzzzzz",
"zzzzzzzzzzzzzzzzzzzzzzzzzzzzzzzzzzzzzzzzzzzzzzzzzzzzzzzzzzzzzzzzzzzzzzzzzzzzzzzzzzzzzzzzzzzzzzzzzzzzzzzzzzzzzzzzzzzzzzzzzzzzzzzz",
"zzzzzzzzzzzzzzzzzzzzzzzzzzzzzzzzzzzzzzzzzzzzzzzzzzzzzzzzzzzzzzzzzzzzzzzzzzzzzzzzzzzzzzzzzzzzzzzzzzzzzzzzzzzzzzzzzzzzzzzzzzzzzzzz",
"zzzzzzzzzzzzzzzzzzzzzzzzzzzzzzzzzzzzzzzzzzzzzzzzzzzzzzzzzzzzzzzzzzzzzzzzzzzzzzzzzzzzzzzzzzzzzzzzzzzzzzzzzzzzzzzzzzzzzzzzzzzzzzzz",
"zzzzzzzzzzzzzzzzzzzzzzzzzzzzzzzzzzzzzzzzzzzzzzzzzzzzzzzzzzzzzzzzzzzzzzzzzzzzzzzzzzzzzzzzzzzzzzzzzzzzzzzzzzzzzzzzzzzzzzzzzzzzzzzz",
"zzzzzzzzzzzzzzzzzzzzzzzzzzzzzzzzzzzzzzzzzzzzzzzzzzzzzzzzzzzzzzzzzzzzzzzzzzzzzzzzzzzzzzzzzzzzzzzzzzzzzzzzzzzzzzzzzzzzzzzzzzzzzzzz",
"zzzzzzzzzzzzzzzzzzzzzzzzzzzzzzzzzzzzzzzzzzzzzzzzzzzzzzzzzzzzzzzzzzzzzzzzzzzzzzzzzzzzzzzzzzzzzzzzzzzzzzzzzzzzzzzzzzzzzzzzzzzzzzzz",
"zzzzzzzzzzzzzzzzzzzzzzzzzzzzzzzzzzzzzzzzzzzzzzzzzzzzzzzzzzzzzzzzzzzzzzzzzzzzzzzzzzzzzzzzzzzzzzzzzzzzzzzzzzzzzzzzzzzzzzzzzzzzzzzz",
"zzzzzzzzzzzzzzzzzzzzzzzzzzzzzzzzzzzzzzzzzzzzzzzzzzzzzzzzzzzzzzzzzzzzzzzzzzzzzzzzzzzzzzzzzzzzzzzzzzzzzzzzzzzzzzzzzzzzzzzzzzzzzzzz",
"zzzzzzzzzzzzzzzzzzzzzzzzzzzzzzzzzzzzzzzzzzzzzzzzzzzzzzzzzzzzzzzzzzzzzzzzzzzzzzzzzzzzzzzzzzzzzzzzzzzzzzzzzzzzzzzzzzzzzzzzzzzzzzzz",
"zzzzzzzzzzzzzzzzzzzzzzzzzzzzzzzzzzzzzzzzzzzzzzzzzzzzzzzzzzzzzzzzzzzzzzzzzzzzzzzzzzzzzzzzzzzzzzzzzzzzzzzzzzzzzzzzzzzzzzzzzzzzzzzz",
"zzzzzzzzzzzzzzzzzzzzzzzzzzzzzzzzzzzzzzzzzzzzzzzzzzzzzzzzzzzzzzzzzzzzzzzzzzzzzzzzzzzzzzzzzzzzzzzzzzzzzzzzzzzzzzzzzzzzzzzzzzzzzzzz",
"zzzzzzzzzzzzzzzzzzzzzzzzzzzzzzzzzzzzzzzzzzzzzzzzzzzzzzzzzzzzzzzzzzzzzzzzzzzzzzzzzzzzzzzzzzzzzzzzzzzzzzzzzzzzzzzzzzzzzzzzzzzzzzzz",
"zzzzzzzzzzzzzzzzzzzzzzzzzzzzzzzzzzzzzzzzzzzzzzzzzzzzzzzzzzzzzzzzzzzzzzzzzzzzzzzzzzzzzzzzzzzzzzzzzzzzzzzzzzzzzzzzzzzzzzzzzzzzzzzz",
"zzzzzzzzzzzzzzzzzzzzzzzzzzzzzzzzzzzzzzzzzzzzzzzzzzzzzzzzzzzzzzzzzzzzzzzzzzzzzzzzzzzzzzzzzzzzzzzzzzzzzzzzzzzzzzzzzzzzzzzzzzzzzzzz",
"zzzzzzzzzzzzzzzzzzzzzzzzzzzzzzzzzzzzzzzzzzzzzzzzzzzzzzzzzzzzzzzzzzzzzzzzzzzzzzzzzzzzzzzzzzzzzzzzzzzzzzzzzzzzzzzzzzzzzzzzzzzzzzzz",
"zzzzzzzzzzzzzzzzzzzzzzzzzzzzzzzzzzzzzzzzzzzzzzzzzzzzzzzzzzzzzzzzzzzzzzzzzzzzzzzzzzzzzzzzzzzzzzzzzzzzzzzzzzzzzzzzzzzzzzzzzzzzzzzz",
"zzzzzzzzzzzzzzzzzzzzzzzzzzzzzzzzzzzzzzzzzzzzzzzzzzzzzzzzzzzzzzzzzzzzzzzzzzzzzzzzzzzzzzzzzzzzzzzzzzzzzzzzzzzzzzzzzzzzzzzzzzzzzzzz",
"zzzzzzzzzzzzzzzzzzzzzzzzzzzzzzzzzzzzzzzzzzzzzzzzzzzzzzzzzzzzzzzzzzzzzzzzzzzzzzzzzzzzzzzzzzzzzzzzzzzzzzzzzzzzzzzzzzzzzzzzzzzzzzzz",
"zzzzzzzzzzzzzzzzzzzzzzzzzzzzzzzzzzzzzzzzzzzzzzzzzzzzzzzzzzzzzzzzzzzzzzzzzzzzzzzzzzzzzzzzzzzzzzzzzzzzzzzzzzzzzzzzzzzzzzzzzzzzzzzz",
"zzzzzzzzzzzzzzzzzzzzzzzzzzzzzzzzzzzzzzzzzzzzzzzzzzzzzzzzzzzzzzzzzzzzzzzzzzzzzzzzzzzzzzzzzzzzzzzzzzzzzzzzzzzzzzzzzzzzzzzzzzzzzzzz",
"zzzzzzzzzzzzzzzzzzzzzzzzzzzzzzzzzzzzzzzzzzzzzzzzzzzzzzzzzzzzzzzzzzzzzzzzzzzzzzzzzzzzzzzzzzzzzzzzzzzzzzzzzzzzzzzzzzzzzzzzzzzzzzzz",
"zzzzzzzzzzzzzzzzzzzzzzzzzzzzzzzzzzzzzzzzzzzzzzzzzzzzzzzzzzzzzzzzzzzzzzzzzzzzzzzzzzzzzzzzzzzzzzzzzzzzzzzzzzzzzzzzzzzzzzzzzzzzzzzz",
"zzzzzzzzzzzzzzzzzzzzzzzzzzzzzzzzzzzzzzzzzzzzzzzzzzzzzzzzzzzzzzzzzzzzzzzzzzzzzzzzzzzzzzzzzzzzzzzzzzzzzzzzzzzzzzzzzzzzzzzzzzzzzzzz",
"zzzzzzzzzzzzzzzzzzzzzzzzzzzzzzzzzzzzzzzzzzzzzzzzzzzzzzzzzzzzzzzzzzzzzzzzzzzzzzzzzzzzzzzzzzzzzzzzzzzzzzzzzzzzzzzzzzzzzzzzzzzzzzzz",
"zzzzzzzzzzzzzzzzzzzzzzzzzzzzzzzzzzzzzzzzzzzzzzzzzzzzzzzzzzzzzzzzzzzzzzzzzzzzzzzzzzzzzzzzzzzzzzzzzzzzzzzzzzzzzzzzzzzzzzzzzzzzzzzz",
"zzzzzzzzzzzzzzzzzzzzzzzzzzzzzzzzzzzzzzzzzzzzzzzzzzzzzzzzzzzzzzzzzzzzzzzzzzzzzzzzzzzzzzzzzzzzzzzzzzzzzzzzzzzzzzzzzzzzzzzzzzzzzzzz",
"zzzzzzzzzzzzzzzzzzzzzzzzzzzzzzzzzzzzzzzzzzzzzzzzzzzzzzzzzzzzzzzzzzzzzzzzzzzzzzzzzzzzzzzzzzzzzzzzzzzzzzzzzzzzzzzzzzzzzzzzzzzzzzzz",
"zzzzzzzzzzzzzzzzzzzzzzzzzzzzzzzzzzzzzzzzzzzzzzzzzzzzzzzzzzzzzzzzzzzzzzzzzzzzzzzzzzzzzzzzzzzzzzzzzzzzzzzzzzzzzzzzzzzzzzzzzzzzzzzz",
"zzzzzzzzzzzzzzzzzzzzzzzzzzzzzzzzzzzzzzzzzzzzzzzzzzzzzzzzzzzzzzzzzzzzzzzzzzzzzzzzzzzzzzzzzzzzzzzzzzzzzzzzzzzzzzzzzzzzzzzzzzzzzzzz",
"zzzzzzzzzzzzzzzzzzzzzzzzzzzzzzzzzzzzzzzzzzzzzzzzzzzzzzzzzzzzzzzzzzzzzzzzzzzzzzzzzzzzzzzzzzzzzzzzzzzzzzzzzzzzzzzzzzzzzzzzzzzzzzzz",
"zzzzzzzzzzzzzzzzzzzzzzzzzzzzzzzzzzzzzzzzzzzzzzzzzzzzzzzzzzzzzzzzzzzzzzzzzzzzzzzzzzzzzzzzzzzzzzzzzzzzzzzzzzzzzzzzzzzzzzzzzzzzzzzz",
"zzzzzzzzzzzzzzzzzzzzzzzzzzzzzzzzzzzzzzzzzzzzzzzzzzzzzzzz########66##      zzzzzzzzzzzzzzzzzzzzzzzzzzzzzzzzzzzzzzzzzzzzzzzzzzzzzz",
"zzzzzzzzzzzzzzzzzzzzzzzzzzzzzzzzzzzzzzzzzzzzzzzzzzzzzzzz########66##      zzzzzzzzzzzzzzzzzzzzzzzzzzzzzzzzzzzzzzzzzzzzzzzzzzzzzz",
"zzzzzzzzzzzzzzzzzzzzzzzzzzzzzzzzzzzzzzzzzzzzzzzzzzzz++######%%%%77##          zzzzzzzzzzzzzzzzzzzzzzzzzzzzzzzzzzzzzzzzzzzzzzzzzz",
"zzzzzzzzzzzzzzzzzzzzzzzzzzzzzzzzzzzzzzzzzzzzzzzzzzzz++######%%%%77##          zzzzzzzzzzzzzzzzzzzzzzzzzzzzzzzzzzzzzzzzzzzzzzzzzz",
"zzzzzzzzzzzzzzzzzzzzzzzzzzzzzzzzzzzzzzzzzzzzzzzzzz++++####%%%%66qq##            zzzzzzzzzzzzzzzzzzzzzzzzzzzzzzzzzzzzzzzzzzzzzzzz",
"zzzzzzzzzzzzzzzzzzzzzzzzzzzzzzzzzzzzzzzzzzzzzzzzzz++++####%%%%66qq##            zzzzzzzzzzzzzzzzzzzzzzzzzzzzzzzzzzzzzzzzzzzzzzzz",
"zzzzzzzzzzzzzzzzzzzzzzzzzzzzzzzzzzzzzzzzzzzzzzzz++++++######%%6677##              zzzzzzzzzzzzzzzzzzzzzzzzzzzzzzzzzzzzzzzzzzzzzz",
"zzzzzzzzzzzzzzzzzzzzzzzzzzzzzzzzzzzzzzzzzzzzzzzz++++++######%%6677##              zzzzzzzzzzzzzzzzzzzzzzzzzzzzzzzzzzzzzzzzzzzzzz",
"zzzzzzzzzzzzzzzzzzzzzzzzzzzzzzzzzzzzzzzzzzzzzz++++++##########%%%%##                zzzzzzzzzzzzzzzzzzzzzzzzzzzzzzzzzzzzzzzzzzzz",
"zzzzzzzzzzzzzzzzzzzzzzzzzzzzzzzzzzzzzzzzzzzzzz++++++##########%%%%##                zzzzzzzzzzzzzzzzzzzzzzzzzzzzzzzzzzzzzzzzzzzz",
"zzzzzzzzzzzzzzzzzzzzzzzzzzzzzzzzvvxxvvxxxxzzzz++++++##########%%%%##                zz44xxmmxxxxxxzzzzzzzzzzzzzzzzzzzzzzzzzzzzzz",
"zzzzzzzzzzzzzzzzzzzzzzzzzzzzzzzzvvxxvvxxxxzzzz++++++##########%%%%##                zz44xxmmxxxxxxzzzzzzzzzzzzzzzzzzzzzzzzzzzzzz",
"zzzzzzzzzzzzzzzzzzzzzzzzzzzzzzmmvvxxvvxxxx44zz++++++##########%%%%##                44xxxxmmxxxxxx44zzzzzzzzzzzzzzzzzzzzzzzzzzzz",
"zzzzzzzzzzzzzzzzzzzzzzzzzzzzzzmmvvxxvvxxxx44zz++++++##########%%%%##                44xxxxmmxxxxxx44zzzzzzzzzzzzzzzzzzzzzzzzzzzz",
"zzzzzzzzzzzzzzzzzzzzzzzzzzzzvvmmvvxxvvxxxx4433++++++CC############++          66    44xxxxvvxxxxxx4433zzzzzzzzzzzzzzzzzzzzzzzzzz",
"zzzzzzzzzzzzzzzzzzzzzzzzzzzzvvmmvvxxvvxxxx4433++++++CC############++          66    44xxxxvvxxxxxx4433zzzzzzzzzzzzzzzzzzzzzzzzzz",
"zzzzzzzzzzzzzzzzzzzzzzzzzzwwvvmmvvxxvvxxxx4433++++    ++99++++++++++      99        44xxxxvvxxxxxx4433wwzzzzzzzzzzzzzzzzzzzzzzzz",
"zzzzzzzzzzzzzzzzzzzzzzzzzzwwvvmmvvxxvvxxxx4433++++    ++99++++++++++      99        44xxxxvvxxxxxx4433wwzzzzzzzzzzzzzzzzzzzzzzzz",
"zzzzzzzzzzzzzzzzzzzzzzzzzzwwvvvv33..66##..4433%%++        ++99++++    66            44xx33..66##..4433wwzzzzzzzzzzzzzzzzzzzzzzzz",
"zzzzzzzzzzzzzzzzzzzzzzzzzzwwvvvv33..66##..4433%%++        ++99++++    66            44xx33..66##..4433wwzzzzzzzzzzzzzzzzzzzzzzzz",
"zzzzzzzzzzzzzzzzzzzzzzzzeeuuvv33..66BB99##++3366$$  <<33                  >><<++    4433..66BB99##++33uu==zzzzzzzzzzzzzzzzzzzzzz",
"zzzzzzzzzzzzzzzzzzzzzzzzeeuuvv33..66BB99##++3366$$  <<33                  >><<++    4433..66BB99##++33uu==zzzzzzzzzzzzzzzzzzzzzz",
"zzzzzzzzzzzzzzzzzzzzzzzztt--xx33..669966##++99$$$$  <<xx44<<          <<ssss<<++    4433..669966##++uurr==zzzzzzzzzzzzzzzzzzzzzz",
"zzzzzzzzzzzzzzzzzzzzzzzztt--xx33..669966##++99$$$$  <<xx44<<          <<ssss<<++    4433..669966##++uurr==zzzzzzzzzzzzzzzzzzzzzz",
"zzzzzzzzzzzzzzzzzzzzzzzzzz==uu4433++####++3399$$++  <<ccxx<<,,ff22ss990099ffaa++  00  4433++####++33ww==++zzzzzzzzzzzzzzzzzzzzzz",
"zzzzzzzzzzzzzzzzzzzzzzzzzz==uu4433++####++3399$$++  <<ccxx<<,,ff22ss990099ffaa++  00  4433++####++33ww==++zzzzzzzzzzzzzzzzzzzzzz",
"zzzz66VV7777%%zzzzzzzzzzzz%%ww++3333333333++99$$++  aabbxxggggffll99VVjjNN9900000066  ++3333333333++--&&++++zzzzzz##########zzzz",
"zzzz66VV7777%%zzzzzzzzzzzz%%ww++3333333333++99$$++  aabbxxggggffll99VVjjNN9900000066  ++3333333333++--&&++++zzzzzz##########zzzz",
"zzzz6600####%%66####++++%%++++++4433333333++88$$++  11bbxxkkffddddMM990099aa11++  ++  ++4433333333++++++++6666##############zzzz",
"zzzz6600####%%66####++++%%++++++4433333333++88$$++  11bbxxkkffddddMM990099aa11++  ++  ++4433333333++++++++6666##############zzzz",
"zzzz6600##############++++++++++553344334433++$$++  ,,bbxxdd::******::ddaa,,,,++      ++5533443344++++++####################zzzz",
"zzzz6600##############++++++++++553344334433++$$++  ,,bbxxdd::******::ddaa,,,,++      ++5533443344++++++####################zzzz",
"zzzz%%7777%%##########++++++++++553344334433++++    ,,xxxx1199wwwwtt9911aa,,++++      ++5533443344++++##################++zzzzzz",
"zzzz%%7777%%##########++++++++++553344334433++++    ,,xxxx1199wwwwtt9911aa,,++++      ++5533443344++++##################++zzzzzz",
"zzzzzz++%%777766######++yy  &&44cc444444cc44++++++  ++334411ddNNNNNNdd,,11++++        44cc444444cc44++++########++++++++  zzzzzz",
"zzzzzz++%%777766######++yy  &&44cc444444cc44++++++  ++334411ddNNNNNNdd,,11++++        44cc444444cc44++++########++++++++  zzzzzz",
"zz77++99++++%%%%%%%%##++  ..ww3333333333333333  ++++  ++++,,,,,,,,,,,,++++        ..++3333333333333344++00++++++  ##      ++++zz",
"zz77++99++++%%%%%%%%##++  ..ww3333333333333333  ++++  ++++,,,,,,,,,,,,++++        ..++3333333333333344++00++++++  ##      ++++zz",
"zzVV9966++      ++++++%%  ..ww################++..++++    ++++++++++++++        ..++++################++77BB7766##          ++zz",
"zzVV9966++      ++++++%%  ..ww################++..++++    ++++++++++++++        ..++++################++77BB7766##          ++zz",
"zz7766++                  ..$$$$VV99##++++++++++++++##..                  ..        ++++++++++++++++++++++##++              ++zz",
"zz7766++                  ..$$$$VV99##++++++++++++++##..                  ..        ++++++++++++++++++++++##++              ++zz",
"zz77++##                yy    ##99**eeppee**++++++++++++++++++++                ..++++++++++++++++++++++++##++            ++++zz",
"zz77++##                yy    ##99**eeppee**++++++++++++++++++++                ..++++++++++++++++++++++++##++            ++++zz",
"zz++66%%                      ..==..==00VV==++++++++++..##99..  ............        ................      %%++        ++++++zzzz",
"zz++66%%                      ..==..==00VV==++++++++++..##99..  ............        ................      %%++        ++++++zzzz",
"zzzz++66++                      ==  &&..66..##iiVV99  ##9966  ............    ******                      66++++++++##++++  zzzz",
"zzzz++66++                      ==  &&..66..##iiVV99  ##9966  ............    ******                      66++++++++##++++  zzzz",
"zzzz  ++%%++++        ++        ==  &&&&==  ####&&&&&&  ####            **  ****rr;;**                    6666%%####++      zzzz",
"zzzz  ++%%++++        ++        ==  &&&&==  ####&&&&&&  ####            **  ****rr;;**                    6666%%####++      zzzz",
"zzzz    ++######++++++++        &&  &&&&==    ::&&::ww  ##..        **      ;;rrrrrr::                                        zz",
"zzzz    ++######++++++++        &&  &&&&==    ::&&::ww  ##..        **      ;;rrrrrr::                                        zz",
"zzzz  ##                        &&  &&&&==  ####::yyii66####                ::uuuuuuhh      **            ####  ##            zz",
"zzzz  ##                        &&  &&&&==  ####::yyii66####                ::uuuuuuhh      **            ####  ##            zz",
"zz    ##    %%777777777766%%##  &&  &&&&==..####::tt::==####            **  ::uuttuupp..                  ####  ##            zz",
"zz    ##    %%777777777766%%##  &&  &&&&==..####::tt::==####            **  ::uuttuupp..                  ####  ##            zz",
"zz  ##77%%9977777777777766%%%%%%&&  &&&&&&&&&&&&::tt::==&&ooXXoo&&>>>>&&,,&&::uuttuu::**&&    **  %%777777777766%%##          zz",
"zz  ##77%%9977777777777766%%%%%%&&  &&&&&&&&&&&&::tt::==&&ooXXoo&&>>>>&&,,&&::uuttuu::**&&    **  %%777777777766%%##          zz",
"zz  ##%%qq9977%%++mmvv44++++%%%%++  &&&&&&****&&::tt::==&&ooOOXX==OOXX==oo&&::uuttuu;;**&&    %%9977777777777766%%%%%%        zz",
"zz  ##%%qq9977%%++mmvv44++++%%%%++  &&&&&&****&&::tt::==&&ooOOXX==OOXX==oo&&::uuttuu;;**&&    %%9977777777777766%%%%%%        zz",
"zz  %%99qq%%++++vv33333344++++++++++&&&&&&00&&&&::tt::==..&&ooOO==****==oo..::uueeuuee      %%qq9977%%++mmvv44++++%%%%++      zz",
"zz  %%99qq%%++++vv33333344++++++++++&&&&&&00&&&&::tt::==..&&ooOO==****==oo..::uueeuuee      %%qq9977%%++mmvv44++++%%%%++      zz",
"zz  7799%%++++++33++  ++33++++++++++++&&&&66&&&&::tt::==..&&**&&&&==**&&oo&&::uueeuuee    %%99qq%%++++vv33333344++++++++++    zz",
"zz  7799%%++++++33++  ++33++++++++++++&&&&66&&&&::tt::==..&&**&&&&==**&&oo&&::uueeuuee    %%99qq%%++++vv33333344++++++++++    zz",
"zz%%77%%mmvv44++33      33++xx4444++++66&&..&&&&::tt::==  &&**&&**==**&&    ::uuttuu--@@  7799%%++++++33++  ++33++++++++++++zzzz",
"zz%%77%%mmvv44++33      33++xx4444++++66&&..&&&&::tt::==  &&**&&**==**&&    ::uuttuu--@@  7799%%++++++33++  ++33++++++++++++zzzz",
"zz7777vv3333334433++  ++33xx33333344++  &&  &&&&::tt::==  &&**&&**==**&&    ::uuttuu**@@6677%%mmvv44++33      33++xx4444++++zzzz",
"zz7777vv3333334433++  ++33xx33333344++  &&  &&&&::tt::==  &&**&&**==**&&    ::uuttuu**@@6677%%mmvv44++33      33++xx4444++++zzzz",
"zz77%%33++  ++33++333333++33++  ++33++  &&  &&&&::tt::==  &&**&&**==**&&    ::uuttuu++@@7777vv3333334433++  ++33xx33333344++  zz",
"zz77%%33++  ++33++333333++33++  ++33++  &&  &&&&::tt::==  &&**&&**==**&&    ::uuttuu++@@7777vv3333334433++  ++33xx33333344++  zz",
"zz77%%33      33++xx4444++33      33++  &&  &&&&::tt::==  &&**&&**==**      **uutttt++@@77%%33++  ++33++333333++33++  ++33++  zz",
"zz77%%33      33++xx4444++33      33++  &&  &&&&::tt::==  &&**&&**==**      **uutttt++@@77%%33++  ++33++333333++33++  ++33++  zz",
"zz77%%33++  ++33xx3333334433++  ++33++  &&&&&&&&::tt::==zz&&**&&**==**        ttuuee++@@77%%33      33++xx4444++33      33++  zz",
"zz77%%33++  ++33xx3333334433++  ++33++  &&&&&&&&::tt::==zz&&**&&**==**        ttuuee++@@77%%33      33++xx4444++33      33++  zz",
"zz77%%++333333++33++  ++33++333333++++  &&  &&&&::tt::==zz&&**&&**==**&&      eeuuee++@@77%%33++  ++33xx3333334433++  ++33++  zz",
"zz77%%++333333++33++  ++33++333333++++  &&  &&&&::tt::==zz&&**&&**==**&&      eeuuee++@@77%%33++  ++33xx3333334433++  ++33++  zz",
"zz77++++nn5544++33      33..554444++++  &&  &&**::tt::==zz&&**zz**==**&&      eeuuee++@@77%%++33XX33++33++  ++33++333333++++  zz",
"zz77++++nn5544++33      33..554444++++  &&  &&**::tt::==zz&&**zz**==**&&      eeuuee++@@77%%++33XX33++33++  ++33++333333++++  zz",
"zz77++vv3333334433++  ++335533333344++  &&  &&..::tt::==zz&&**zz**==**    &&  ::uu::++++77++++nnXX44++33      33..554444++++  zz",
"zz77++vv3333334433++  ++335533333344++  &&  &&..::tt::==zz&&**zz**==**    &&  ::uu::++++77++++nnXX44++33      33..554444++++  zz",
"zz77++33++  ++3333333333++33++  ++33++  &&&&&&..::ttyy==&&&&**zz**==**        ::uu::++..77++vv3333334433++  ++335533333344++  zz",
"zz77++33++  ++3333333333++33++  ++33++  &&&&&&..::ttyy==&&&&**zz**==**        ::uu::++..77++vv3333334433++  ++335533333344++  zz",
"zzzz++33      33++554444++33      33  ######++++::tt::==zz&&**&&**==**&&      **uu**++uu77++33++  ++3333333333++33++  ++33++  zz",
"zzzz++33      33++554444++33      33  ######++++::tt::==zz&&**&&**==**&&      **uu**++uu77++33++  ++3333333333++33++  ++33++  zz",
"zzzz++33++  ++33553333334433++  ++33  %%$$yy++  ::::::==zz&&**&&**==    **  &&  uu++  ++--++33      33++554444++33      33  zzzz",
"zzzz++33++  ++33553333334433++  ++33  %%$$yy++  ::::::==zz&&**&&**==    **  &&  uu++  ++--++33      33++554444++33      33  zzzz",
"zzzzzz++333333++33++  ++33++333333  ++++++  &&&&::yy::==%%&&**66**==  &&        uu++++  --++33++  ++33553333334433++  ++33  zzzz",
"zzzzzz++333333++33++  ++33++333333  ++++++  &&&&::yy::==%%&&**66**==  &&        uu++++  --++33++  ++33553333334433++  ++33  zzzz",
"zzzzzz;;++++++++33      33++++++  &&&&&&&&&&++++::::::yy&&&&**&&**==**      uu  uu  uu##--  ++333333++33++  ++33++333333  zzzzzz",
"zzzzzz;;++++++++33      33++++++  &&&&&&&&&&++++::::::yy&&&&**&&**==**      uu  uu  uu##--  ++333333++33++  ++33++333333  zzzzzz",
"zzzzyyyy;;++++++33++  ++33++    &&&&&&##&&&&++yy::::::&&&&&&**&&&&&&&&&&&&&&&&uuuu&&    --##--++++++++33      33++++++  zzzzzzzz",
"zzzzyyyy;;++++++33++  ++33++    &&&&&&##&&&&++yy::::::&&&&&&**&&&&&&&&&&&&&&&&uuuu&&    --##--++++++++33      33++++++  zzzzzzzz",
"zzzzzzyyyyrr;;&&&&333333        &&&&&&  &&&&    yyyy&&yy&&&&&&&&&&&&&&&&&&&&==uuuu====uu--  --&&++++++33++  ++33++    zzzzzzzzzz",
"zzzzzzyyyyrr;;&&&&333333        &&&&&&  &&&&    yyyy&&yy&&&&&&&&&&&&&&&&&&&&==uuuu====uu--  --&&++++++33++  ++33++    zzzzzzzzzz",
"zzzzzzzzzzzzzzzz;;;;;;;;;;;;;;;;;;;;;;;;;;;;;;;;;;;;;;;;;;;;;;;;;;;;;;;;;;uu;;;;wwwwwweeeeeettttttyyyyyyrrrrrrrrww;;====&&&&zzzz",
"zzzzzzzzzzzzzzzz;;;;;;;;;;;;;;;;;;;;;;;;;;;;;;;;;;;;;;;;;;;;;;;;;;;;;;;;;;uu;;;;wwwwwweeeeeettttttyyyyyyrrrrrrrrww;;====&&&&zzzz"
};
