/* XPM */
static char *result[] = {
/* columns rows colors chars-per-pixel */
"128 128 84 1 ",
"  c black",
". c gray11",
"X c #202020",
"o c #282828",
"O c #2C2C2C",
"+ c gray19",
"@ c #343434",
"# c gray22",
"$ c #400000",
"% c #4C0000",
"& c #580000",
"* c #640000",
"= c #700000",
"- c #7C0000",
"; c #403018",
": c #483818",
"> c #5C4020",
", c #6C4824",
"< c #744C28",
"1 c #004040",
"2 c #005858",
"3 c #007070",
"4 c gray25",
"5 c #484848",
"6 c #4C4C4C",
"7 c gray33",
"8 c gray36",
"9 c #646464",
"0 c gray44",
"q c #7C7C7C",
"w c #880000",
"e c #980000",
"r c #A40000",
"t c #B00000",
"y c #BC0000",
"u c #C80000",
"i c #D40000",
"p c #E00000",
"a c #EC0000",
"s c #FC0000",
"d c #FC2020",
"f c #80502C",
"g c #885830",
"h c #905C34",
"j c #9C6038",
"k c #A0643C",
"l c #A86840",
"z c #B47044",
"x c #FC4040",
"c c #FC5C5C",
"v c #FC7C7C",
"b c #E4D800",
"n c #FCF420",
"m c #D08050",
"M c #E88C58",
"N c #F0945C",
"B c #FC9C60",
"V c #FCA470",
"C c #FCF440",
"Z c #FCFC7C",
"A c #980088",
"S c #008484",
"D c #00B4B4",
"F c #00CCCC",
"G c #00E4E4",
"H c #20FCFC",
"J c #7CFCF8",
"K c gray55",
"L c #989898",
"P c gray66",
"I c #B4B4B4",
"U c #FC9C9C",
"Y c #FCB080",
"T c #FCB8B8",
"R c #FCC4A4",
"E c #FCD4BC",
"W c #B8FCFC",
"Q c #C0C0C0",
"! c #D0D0D0",
"~ c gainsboro",
"^ c #FCFCD8",
"/ c #D8FCFC",
"( c #ECECEC",
") c gray99",
/* pixels */
"AAAAAAAAAAAAAAAAAAAAAAAAAAAAAAAAAAAAAAAAAAAAAAAAAAAAAAAAAAAAAAAAAAAAAAAAAAAAAAAAAAAAAAAAAAAAAAAAAAAAAAAAAAAAAAAAAAAAAAAAAAAAAAAA",
"AAAAAAAAAAAAAAAAAAAAAAAAAAAAAAAAAAAAAAAAAAAAAAAAAAAAAAAAAAAAAAAAAAAAAAAAAAAAAAAAAAAAAAAAAAAAAAAAAAAAAAAAAAAAAAAAAAAAAAAAAAAAAAAA",
"AAAAAAAAAAAAAAAAAAAAAAAAAAAAAAAAAAAAAAAAAAAAAAAAAAAAAAAAOOOOOOOO##OO      AAAAAAAAAAAAAAAAAAAAddAAAAAAAAAAAAAAAAAAAAAAAAAAAAAAAA",
"AAAAAAAAAAAAAAAAAAAAAAAAAAAAAAAAAAAAAAAAAAAAAAAAAAAAAAAAOOOOOOOO##OO      AAAAAAAAAAAAAAAAAAAAddAAAAAAAAAAAAAAAAAAAAAAAAAAAAAAAA",
"AAAAAAAAAAAAAAAAAAAAAAAAAAAAAAAAAAAAAAAAAAAAAAAAAAAAXXOOOOOOOOOO55OO  $$$$    AAAAAAAAAAAAAAAAxxAAAAAAAAAAAAAAAAAAAAAAAAAAAAAAAA",
"AAAAAAAAAAAAAAAAAAAAAAAAAAAAAAAAAAAAAAAAAAAAAAAAAAAAXXOOOOOOOOOO55OO  $$$$    AAAAAAAAAAAAAAAAxxAAAAAAAAAAAAAAAAAAAAAAAAAAAAAAAA",
"AAAAAAAAAAAAAAAAAAAAAAAAAAAAAAAAAAAAAAAAAAAAAAAAAAXXOOOOOOOOOO##55OO$$%%%%%%&&  AAAAwwAAAAAAAAccddAAAAAAAAAAAAAAAAAAAAAAAAAAAAAA",
"AAAAAAAAAAAAAAAAAAAAAAAAAAAAAAAAAAAAAAAAAAAAAAAAAAXXOOOOOOOOOO##55OO$$%%%%%%&&  AAAAwwAAAAAAAAccddAAAAAAAAAAAAAAAAAAAAAAAAAAAAAA",
"AAAAAAAAAAAAAAAAAAAAAAAAAAAAAAAAAAAAAAAAAAAAAAAAXXXXOOOOOOOOOO##99OO$$==eeeeww&&  AAAAddwwAAddvvddAAAAddAAAAAAAAAAAAAAAAAAAAAAAA",
"AAAAAAAAAAAAAAAAAAAAAAAAAAAAAAAAAAAAAAAAAAAAAAAAXXXXOOOOOOOOOO##99OO$$==eeeeww&&  AAAAddwwAAddvvddAAAAddAAAAAAAAAAAAAAAAAAAAAAAA",
"AAAAAAAAAAAAAAAAAAAAAAAAAAAAAAAADDSSSSSSSSAAAAXXXXOOKKOOIIOO!!5599##$$vvppvvppccrr%%AAAAddddccZZxxwwddAAAAAAAAAAAAAAAAAAAAAAAAAA",
"AAAAAAAAAAAAAAAAAAAAAAAAAAAAAAAADDSSSSSSSSAAAAXXXXOOKKOOIIOO!!5599##$$vvppvvppccrr%%AAAAddddccZZxxwwddAAAAAAAAAAAAAAAAAAAAAAAAAA",
"AAAAAAAAAAAAAAAAAAAAAAAAAAAAAAJJ11..55OO..22AAXXXXOOOOOOOO##5555qq55$$%%%%%%%%%%%%%%AAwwddvvKKKKvvddddAAAAAAAAAAAAAAAAAAAAAAAAAA",
"AAAAAAAAAAAAAAAAAAAAAAAAAAAAAAJJ11..55OO..22AAXXXXOOOOOOOO##5555qq55$$%%%%%%%%%%%%%%AAwwddvvKKKKvvddddAAAAAAAAAAAAAAAAAAAAAAAAAA",
"AAAAAAAAAAAAAAAAAAAAAAAAAAAADD11..55PP99OOXX11##XX  ggSSgg>>55qqII55  >>ggiigg##  wwwwddccKK((99KKvvddddwwAAAAAAAAAAAAAAAAAAAAAA",
"AAAAAAAAAAAAAAAAAAAAAAAAAAAADD11..55PP99OOXX11##XX  ggSSgg>>55qqII55  >>ggiigg##  wwwwddccKK((99KKvvddddwwAAAAAAAAAAAAAAAAAAAAAA",
"AAAAAAAAAAAAAAAAAAAAAAAAAAAASS11..559955OOXX1155##  zzHHaa**aakk<<gg99KK99vvkkddddxxccvvZZKK9900KKZZvvccddddddAAAAAAAAAAAAAAAAAA",
"AAAAAAAAAAAAAAAAAAAAAAAAAAAASS11..559955OOXX1155##  zzHHaa**aakk<<gg99KK99vvkkddddxxccvvZZKK9900KKZZvvccddddddAAAAAAAAAAAAAAAAAA",
"AAAAAAAAAAAAAAAAAAAAAAAAAAwwii2211XXOOOOXX1199QQ55  jjJJBBMMMMYYBB99((vv((99LLvvvvTT  ddddvvKKKKccxxiiwwwwAAAAAAAAAAAAAAAAAAAAAA",
"AAAAAAAAAAAAAAAAAAAAAAAAAAwwii2211XXOOOOXX1199QQ55  jjJJBBMMMMYYBB99((vv((99LLvvvvTT  ddddvvKKKKccxxiiwwwwAAAAAAAAAAAAAAAAAAAAAA",
"AAAAAAAAAAAAAAAAAAAAAAAAeeiiwwii1111111111cc990044  zz//EERRRRYYRRKKvvTTvvKKLLvvvvTT  SSddddvvZZxxddwwii&&AAAAAAAAAAAAAAAAAAAAAA",
"AAAAAAAAAAAAAAAAAAAAAAAAeeiiwwii1111111111cc990044  zz//EERRRRYYRRKKvvTTvvKKLLvvvvTT  SSddddvvZZxxddwwii&&AAAAAAAAAAAAAAAAAAAAAA",
"AAAAAAAAAAAAAAAAAAAAAAAAtt**&&tt$$SSUU1111tt99++++  zzJJYYYYmmkkgg99((vv((99hh##  00  wwddddxxUUdddd**rr&&AAAAAAAAAAAAAAAAAAAAAA",
"AAAAAAAAAAAAAAAAAAAAAAAAtt**&&tt$$SSUU1111tt99++++  zzJJYYYYmmkkgg99((vv((99hh##  00  wwddddxxUUdddd**rr&&AAAAAAAAAAAAAAAAAAAAAA",
"AAAAAAAAAAAAAAAAAAAAAAAAww&&&&$$$$GGcc33331188++++  kkJJVVkkNNVVNNgg99KK99xxhh##  XXwwddddTTddvvyyyydd&&&&AAAAAAAAAAAAAAAAAAAAAA",
"AAAAAAAAAAAAAAAAAAAAAAAAww&&&&$$$$GGcc33331188++++  kkJJVVkkNNVVNNgg99KK99xxhh##  XXwwddddTTddvvyyyydd&&&&AAAAAAAAAAAAAAAAAAAAAA",
"AAAA5500PP77##AAAAAAAAAA&&$$$$$$SSGGccSS331166++++  ggHHVVkkLL!!~~!!LLzzkkxxll##    wwwwSSTTddcc33****$$&&AAAAAAAAOOOOOOOOOOAAAA",
"AAAA5500PP77##AAAAAAAAAA&&$$$$$$SSGGccSS331166++++  ggHHVVkkLL!!~~!!LLzzkkxxll##    wwwwSSTTddcc33****$$&&AAAAAAAAOOOOOOOOOOAAAA",
"AAAAAAXXOO999955OOOOAAAAAA$$$$$$SSGG33SS333355++++  ffHHVVkk00******00zzVVxx,,##      XXSSTT33cc33$$$$$$99rrrr--OOOOOOOOXXAAAAAA",
"AAAAAAXXOO999955OOOOAAAAAA$$$$$$SSGG33SS333355++++  ffHHVVkk00******00zzVVxx,,##      XXSSTT33cc33$$$$$$99rrrr--OOOOOOOOXXAAAAAA",
"AAAAAAAAXXXX########OOXXXXXX$$FFWWFFFFFFWW33XXXXXX  hhHHVVzz**eewwee**zzVViill##      FFTTccccxxTT33$$$$rr--OOOOXXXXXXXXAAAAAAAA",
"AAAAAAAAXXXX########OOXXXXXX$$FFWWFFFFFFWW33XXXXXX  hhHHVVzz**eewwee**zzVViill##      FFTTccccxxTT33$$$$rr--OOOOXXXXXXXXAAAAAAAA",
"AAAAAAAAXXXXXXXXXXXX==##XXXXXXSS22222222222222      ggHHVVzz**uuuuss**zzVViigg##    @@22xxxxxxddxx1122ssOOXXXXXX        AAAAAAAA",
"AAAAAAAAXXXXXXXXXXXX==##XXXXXXSS22222222222222      ggHHVVzz**uuuuss**zzVViigg##    @@22xxxxxxddxx1122ssOOXXXXXX        AAAAAAAA",
"AAAAAAXXXX55XXXXXX  ee      ..++11111111111111XXXXXX##SSmmzzQQ!!~~!!QQzzjj####      ++11------dd--11OOXXXXXXXX  XX  XX    AAAAAA",
"AAAAAAXXXX55XXXXXX  ee      ..++11111111111111XXXXXX##SSmmzzQQ!!~~!!QQzzjj####      ++11------dd--11OOXXXXXXXX  XX  XX    AAAAAA",
"AA77XX##99##XXXXXXXXttXX  ..++++++11++11++++++..XXXXXXXX####55jjggjj55####        ..++++++--**yy++++XXXXXXOOXXXXXXXX  XX  XXXXAA",
"AA77XX##99##XXXXXXXXttXX  ..++++++11++11++++++..XXXXXXXX####55jjggjj55####        ..++++++--**yy++++XXXXXXOOXXXXXXXX  XX  XXXXAA",
"AAXXPP99##XXXXOOXXXXttXX  ..OOOOOOOOOOOOOOOOOOOO..  XXXXXXXXXXXX                ..OOOO**======ww======  XX##XXXXXXXXXX  XXXXXXAA",
"AAXXPP99##XXXXOOXXXXttXX  ..OOOOOOOOOOOOOOOOOOOO..  XXXXXXXXXXXX                ..OOOO**======ww======  XX##XXXXXXXXXX  XXXXXXAA",
"AAAAXX0055OO##XXXX==ss==  ..OO++++++++++OOOOOOOOOOOO..                      ..++++++OOOOOO**======%%OO  XX99XXXXXXXXXXXXXX****AA",
"AAAAXX0055OO##XXXX==ss==  ..OO++++++++++OOOOOOOOOOOO..                      ..++++++OOOOOO**======%%OO  XX99XXXXXXXXXXXXXX****AA",
"AAAA  XX######7777ttsstt55##++99997755@@@@@@@@@@@@@@++11++++++..PP997755444444@@@@@@@@@@&&&&++++++++777777777755##XXOOXXwwww**AA",
"AAAA  XX######7777ttsstt55##++99997755@@@@@@@@@@@@@@++11++++++..PP997755444444@@@@@@@@@@&&&&++++++++777777777755##XXOOXXwwww**AA",
"AAAA====  9977##XXssccssXXXX####..............................  OOoo....................&&====..9977##XXssssssXXXX####iiiiwwAAAA",
"AAAA====  9977##XXssccssXXXX####..............................  OOoo....................&&====..9977##XXssssssXXXX####iiiiwwAAAA",
"AAAA==uuuu==XXXXvvuuccuuvvXXXXXX==uu........................    OOOO......................==ssii==XXXXxx11  11xxXXXXiiaaeeOOAAAA",
"AAAA==uuuu==XXXXvvuuccuuvvXXXXXX==uu........................    OOOO......................==ssii==XXXXxx11  11xxXXXXiiaaeeOOAAAA",
"AAAAOOuuxxuuuu====ssccssvvXX==uudd==........................    OOOO........................iixxxxii==vv      vvwwiiccii==OOAAAA",
"AAAAOOuuxxuuuu====ssccssvvXX==uudd==........................    OOOO........................iixxxxii==vv      vvwwiiccii==OOAAAA",
"AAAA77==uuccxx==yyccvvccyy==uuxxuuXXXX......................    OOOOoo....................77==xxvvxxiippiiiiiiiiccUUxxeeXXXXAAAA",
"AAAA77==uuccxx==yyccvvccyy==uuxxuuXXXX......................    OOOOoo....................77==xxvvxxiippiiiiiiiiccUUxxeeXXXXAAAA",
"AAAA77==uuxxvvccccvvTTvvxxuuccdduuxxXX......................    ooOOoo....................77vviixxUUvvxxxxccxxvvbbccii==xxXXAAAA",
"AAAA77==uuxxvvccccvvTTvvxxuuccdduuxxXX......................    ooOOoo....................77vviixxUUvvxxxxccxxvvbbccii==xxXXAAAA",
"AA77##vv--yyccvvvvUUZZUUccvvxxdd==vvXX  ..................      ooOOoo..................77##vviiiivvbbUUccvvUUnnvvxxww==vvXX  AA",
"AA77##vv--yyccvvvvUUZZUUccvvxxdd==vvXX  ..................      ooOOoo..................77##vviiiivvbbUUccvvUUnnvvxxww==vvXX  AA",
"AA77##==yyssccvvUUnnbbbbUUccxxuuvv11XX  ..................    %%%%OOoo..................77##**==iixxUUnnbbbbnnUUvvww==vv11XX  AA",
"AA77##==yyssccvvUUnnbbbbUUccxxuuvv11XX  ..................    %%%%OOoo..................77##**==iixxUUnnbbbbnnUUvvww==vv11XX  AA",
"AA77==ttssccvvUUnnnn))nnnnUUvvccssyyyyww==                    %%**oooo                  %%****wwccUUUUbb^^^^bbvvUUUUuuwwXXXX  AA",
"AA77==ttssccvvUUnnnn))nnnnUUvvccssyyyyww==                    %%**oooo                  %%****wwccUUUUbb^^^^bbvvUUUUuuwwXXXX  AA",
"AAssssccccUUUUZZnn))))))nnZZUUUUvvccccssssyy==&&&&          %%==****              %%****wwwwiixxvvnnnnnn^^^^nnnnnnnnUUccaaii  AA",
"AAssssccccUUUUZZnn))))))nnZZUUUUvvccccssssyy==&&&&          %%==****              %%****wwwwiixxvvnnnnnn^^^^nnnnnnnnUUccaaii  AA",
"AA77==ttiiccvvUUnnnn))nnnnUUvvccssyyyyww==%%%%%%%%%%%%%%%%%%**wwwwwwww**%%%%%%%%$$$$$$%%****wwwwccvvUUnnbbbbnnUUUUUUrrwwXXXX  AA",
"AA77==ttiiccvvUUnnnn))nnnnUUvvccssyyyyww==%%%%%%%%%%%%%%%%%%**wwwwwwww**%%%%%%%%$$$$$$%%****wwwwccvvUUnnbbbbnnUUUUUUrrwwXXXX  AA",
"AA77XX==--iixxccvvnnCCnnvvccxxee--xxXX  %%%%****eeyyyyssyyeeeewwwwww--------**%%$$$$%%%%77XXwweeiivvbbUUvvvvUUbbvviiwwwwxxXX  AA",
"AA77XX==--iixxccvvnnCCnnvvccxxee--xxXX  %%%%****eeyyyyssyyeeeewwwwww--------**%%$$$$%%%%77XXwweeiivvbbUUvvvvUUbbvviiwwwwxxXX  AA",
"AA77XXvv--iiccvvccUUCCUUccvvccpp  vvXX    %%%%**==eessyyeesseewwwwwwww--ww--****$$**%%%%77XXvveexxvvvviiaaccuuvvvvxxee  vvXX  AA",
"AA77XXvv--iiccvvccUUCCUUccvvccpp  vvXX    %%%%**==eessyyeesseewwwwwwww--ww--****$$**%%%%77XXvveexxvvvviiaaccuuvvvvxxee  vvXX  AA",
"AAAAXXxx==xxccccssvvZZvvxxccccxxuuxx  ##555555OO##770077##OOXXXXXXXXXXXXXX....XX....  5555XX&&iixxxxwwwwaaiiaaiixxxxsswwvv  AAAA",
"AAAAXXxx==xxccccssvvZZvvxxccccxxuuxx  ##555555OO##770077##OOXXXXXXXXXXXXXX....XX....  5555XX&&iixxxxwwwwaaiiaaiixxxxsswwvv  AAAA",
"AAAAXXXX==ccxxwweessTTcceeppxxxxpp==  OOOOOO##55qqLLOOOOXXXXXXXXXXXXXXXXXXXXXXXXPPqq55OOOOXXeexxiivvXXwwyyiiyywweessssrrww  AAAA",
"AAAAXXXX==ccxxwweessTTcceeppxxxxpp==  OOOOOO##55qqLLOOOOXXXXXXXXXXXXXXXXXXXXXXXXPPqq55OOOOXXeexxiivvXXwwyyiiyywweessssrrww  AAAA",
"AAAAAA==xxtt======yyvvyy====uuppppwwOOOOOOOOOO##99                            qqPP99OOOOOO&&iieeXXXXXXccwwiiwwccXXwwrrrrwwAAAAAA",
"AAAAAA==xxtt======yyvvyy====uuppppwwOOOOOOOOOO##99                            qqPP99OOOOOO&&iieeXXXXXXccwwiiwwccXXwwrrrrwwAAAAAA",
"AAAA==dd====XXXXvvyyxxyyvvXXXX==wwww&&    OO##55        XXXXXXXXXXXXXXXXXXXX7755##9955##&&ee&&&&XXXXXXss==  ==ssXXXXXX  ==AAAAAA",
"AAAA==dd====XXXXvvyyxxyyvvXXXX==wwww&&    OO##55        XXXXXXXXXXXXXXXXXXXX7755##9955##&&ee&&&&XXXXXXss==  ==ssXXXXXX  ==AAAAAA",
"AAAA======XXXXXXXXwwssyyXXXX    XX&&&&XXXX              XXXXXXXXXXXXXXXXXXXX55OOOO##    &&&&&&XXXXXXXXXXssssssXXXX    AAAAAAAAAA",
"AAAA======XXXXXXXXwwssyyXXXX    XX&&&&XXXX              XXXXXXXXXXXXXXXXXXXX55OOOO##    &&&&&&XXXXXXXXXXssssssXXXX    AAAAAAAAAA",
"AAAAAAAAAAAA<<::  wwyyww  ;;XXOOOOOO++####XXXXXX          ................55OOOOOO  XX&&XXOOOOXXXXXX<<::          ;;AAAAAAAAAAAA",
"AAAAAAAAAAAA<<::  wwyyww  ;;XXOOOOOO++####XXXXXX          ................55OOOOOO  XX&&XXOOOOXXXXXX<<::          ;;AAAAAAAAAAAA",
"AAAAAAAAAAAAMMMM,,==yyww::;;XXXXXXooOO##55XX                              OOOOOOXX  XX77OO##OOXXXXXXMMMM,,,,,,::::;;AAAAAAAAAAAA",
"AAAAAAAAAAAAMMMM,,==yyww::;;XXXXXXooOO##55XX                              OOOOOOXX  XX77OO##OOXXXXXXMMMM,,,,,,::::;;AAAAAAAAAAAA",
"AAAAAAAAAAAAXXSS1111ee==11XXXXXXXXOO@@##XX                              OOXXXXXX  XXOOqqOO55##OOXXXXXXSS1111111111AAAAAAAAAAAAAA",
"AAAAAAAAAAAAXXSS1111ee==11XXXXXXXXOO@@##XX                              OOXXXXXX  XXOOqqOO55##OOXXXXXXSS1111111111AAAAAAAAAAAAAA",
"AAAAAAAAAAAAXXXX  XX==XXXXXXXXXXooOO@@XX                                XXXXXX  XXXXOO997777##OOOOXXXXXXXX      AAAAAAAAAAAAAAAA",
"AAAAAAAAAAAAXXXX  XX==XXXXXXXXXXooOO@@XX                                XXXXXX  XXXXOO997777##OOOOXXXXXXXX      AAAAAAAAAAAAAAAA",
"AAAAAAAAAAXXOO##  XX==XXXXXXXXXXoo##ooXX                                      XXXXXXOO55##99####OOXXXXXXXX  XX  AAAAAAAAAAAAAAAA",
"AAAAAAAAAAXXOO##  XX==XXXXXXXXXXoo##ooXX                                      XXXXXXOO55##99####OOXXXXXXXX  XX  AAAAAAAAAAAAAAAA",
"AAAAAAAAAAXXOO####XXXXXXXXXXXXXXOO@@XX                    AAAAAAAAAAAA    XX  XXXXXXOO##OOqq##55OOXXXXXXXXXXXX  XXAAAAAAAAAAAAAA",
"AAAAAAAAAAXXOO####XXXXXXXXXXXXXXOO@@XX                    AAAAAAAAAAAA    XX  XXXXXXOO##OOqq##55OOXXXXXXXXXXXX  XXAAAAAAAAAAAAAA",
"AAAAAAAAAAAAXXXX####XXXXXXXXXXooOOooXX              AAAAAAAAAAAAAAAAAA      XXXXXXOOXXOOOO997777OOXX&&==ee==&&######AAAAAAAAAAAA",
"AAAAAAAAAAAAXXXX####XXXXXXXXXXooOOooXX              AAAAAAAAAAAAAAAAAA      XXXXXXOOXXOOOO997777OOXX&&==ee==&&######AAAAAAAAAAAA",
"AAAAAAAAAAAA    OO##5555####OOOOXXXXXXOOOOOOOOXX    AAAAAAAAAAAAAAAAAAAA    XXXXXXXXXXOOOO!!TTqq99ddddxxccddttww&&    AAAAAAAAAA",
"AAAAAAAAAAAA    OO##5555####OOOOXXXXXXOOOOOOOOXX    AAAAAAAAAAAAAAAAAAAA    XXXXXXXXXXOOOO!!TTqq99ddddxxccddttww&&    AAAAAAAAAA",
"AAAAAAAAAAXX        OO55777799999999qq77OOOOXXXXXXAAAAAAAAAAAAAAAAAAAAAAAAAAXXXXXXXXOO99qqqq##XXXXXXXXXXXXXXXXXXXX    AAAAAAAAAA",
"AAAAAAAAAAXX        OO55777799999999qq77OOOOXXXXXXAAAAAAAAAAAAAAAAAAAAAAAAAAXXXXXXXXOO99qqqq##XXXXXXXXXXXXXXXXXXXX    AAAAAAAAAA",
"AAAAAAAAAAXXOO##    XXXXXXXXXXXXXX####XX        XXAAAAAAAAAAAAAAAAAAAAAAAAAAAAXXXX9999##                            AAAAAAAAAAAA",
"AAAAAAAAAAXXOO##    XXXXXXXXXXXXXX####XX        XXAAAAAAAAAAAAAAAAAAAAAAAAAAAAXXXX9999##                            AAAAAAAAAAAA",
"AAAAAAAAAAXXXXXX##OO                            AAAAAAAAAAAAAAAAAAAAAAAAAAAAAAXX99##                                AAAAAAAAAAAA",
"AAAAAAAAAAXXXXXX##OO                            AAAAAAAAAAAAAAAAAAAAAAAAAAAAAAXX99##                                AAAAAAAAAAAA",
"AAAAAAAAAAAA    XX######OO            OOOOOOXXXXAAAAAAAAAAAAAAAAAAAAAAAAAAAAAAAA      ##9999!!9999777777555555####XXXXAAAAAAAAAA",
"AAAAAAAAAAAA    XX######OO            OOOOOOXXXXAAAAAAAAAAAAAAAAAAAAAAAAAAAAAAAA      ##9999!!9999777777555555####XXXXAAAAAAAAAA",
"AAAAAAAAAAAAAA      ##55557777779955##OOXXXXXXAAAAAAAAAAAAAAAAAAAAAAAAAAAAAAAAAAAA  ##995555############XXXXXXXXXXXXXXAAAAAAAAAA",
"AAAAAAAAAAAAAA      ##55557777779955##OOXXXXXXAAAAAAAAAAAAAAAAAAAAAAAAAAAAAAAAAAAA  ##995555############XXXXXXXXXXXXXXAAAAAAAAAA",
"AAAAAAAAAAAAAAXX                            AAAAAAAAAAAAAAAAAAAAAAAAAAAAAAAAAAAAAA  ##                              AAAAAAAAAAAA",
"AAAAAAAAAAAAAAXX                            AAAAAAAAAAAAAAAAAAAAAAAAAAAAAAAAAAAAAA  ##                              AAAAAAAAAAAA",
"AAAAAAAAAAAAAAXXXX  XXXXXXXXOOOOXX          AAAAAAAAAAAAAAAAAAAAAAAAAAAAAAAAAAAAAAAAAA  XXXX77OO##77qqOO            AAAAAAAAAAAA",
"AAAAAAAAAAAAAAXXXX  XXXXXXXXOOOOXX          AAAAAAAAAAAAAAAAAAAAAAAAAAAAAAAAAAAAAAAAAA  XXXX77OO##77qqOO            AAAAAAAAAAAA",
"AAAAAAAAAAAAAAAAXXXX  XXXXXXXXOOXX        AAAAAAAAAAAAAAAAAAAAAAAAAAAAAAAAAAAAAAAAAAAA  XXXX55XXOO##77              AAAAAAAAAAAA",
"AAAAAAAAAAAAAAAAXXXX  XXXXXXXXOOXX        AAAAAAAAAAAAAAAAAAAAAAAAAAAAAAAAAAAAAAAAAAAA  XXXX55XXOO##77              AAAAAAAAAAAA",
"AAAAAAAAAAAAAAAA                            AAAAAAAAAAAAAAAAAAAAAAAAAAAAAAAAAAAAAAAAAAAA  XX##55OO####            AAAAAAAAAAAAAA",
"AAAAAAAAAAAAAAAA                            AAAAAAAAAAAAAAAAAAAAAAAAAAAAAAAAAAAAAAAAAAAA  XX##55OO####            AAAAAAAAAAAAAA",
"AAAAAAAAAAAAAAAAXXXXOOOOOOOOOOXXXXXXXX      AAAAAAAAAAAAAAAAAAAAAAAAAAAAAAAAAAAAAAAAAAAA  XXXX##XXOO##            AAAAAAAAAAAAAA",
"AAAAAAAAAAAAAAAAXXXXOOOOOOOOOOXXXXXXXX      AAAAAAAAAAAAAAAAAAAAAAAAAAAAAAAAAAAAAAAAAAAA  XXXX##XXOO##            AAAAAAAAAAAAAA",
"AAAAAAAAAAAAAA                              AAAAAAAAAAAAAAAAAAAAAAAAAAAAAAAAAAAAAAAAAAAAAA  XXXX##OOOO            AAAAAAAAAAAAAA",
"AAAAAAAAAAAAAA                              AAAAAAAAAAAAAAAAAAAAAAAAAAAAAAAAAAAAAAAAAAAAAA  XXXX##OOOO            AAAAAAAAAAAAAA",
"AAAAAAAAAAAA####OOOOOOOOOOOOXXXXXXOOOOXX    AAAAAAAAAAAAAAAAAAAAAAAAAAAAAAAAAAAAAAAAAAAAAA    XXXXOO77qq77####XX  AAAAAAAAAAAAAA",
"AAAAAAAAAAAA####OOOOOOOOOOOOXXXXXXOOOOXX    AAAAAAAAAAAAAAAAAAAAAAAAAAAAAAAAAAAAAAAAAAAAAA    XXXXOO77qq77####XX  AAAAAAAAAAAAAA",
"AAAAAAAAAAAAOOOOXXXXXXXXXXXXXXXXXXXXXXOO  OOOO####44445555AAAAAAAAAAAAAAAAAAAAAAAAAAAAAA    XX##555555############OOAAAAAAAAAAAA",
"AAAAAAAAAAAAOOOOXXXXXXXXXXXXXXXXXXXXXXOO  OOOO####44445555AAAAAAAAAAAAAAAAAAAAAAAAAAAAAA    XX##555555############OOAAAAAAAAAAAA",
"AAAAAAAAAAAAXXXX              XXXX    XX  XXXXXXXXoooooooo##5555555555555555554444####    OO######OOOOOOOOOOOOOOOOOOOOAAAAAAAAAA",
"AAAAAAAAAAAAXXXX              XXXX    XX  XXXXXXXXoooooooo##5555555555555555554444####    OO######OOOOOOOOOOOOOOOOOOOOAAAAAAAAAA",
"AAAAAAAAAAAA                            OOOOOOOOOOOOOOOOOOOOOOOOOOOOOOooooooooXXXXXXXX    ##OOOOOOOOXXXXXXXXXXXXXXXXXXXXAAAAAAAA",
"AAAAAAAAAAAA                            OOOOOOOOOOOOOOOOOOOOOOOOOOOOOOooooooooXXXXXXXX    ##OOOOOOOOXXXXXXXXXXXXXXXXXXXXAAAAAAAA",
"AAAAAAAAAAAAAAAAAAAAAAAA999999777755554444444444##########OOOOOOOOOOOOOOOOOOOOOOOOOOOOOO  XXXXXXXXXX                XXXXAAAAAAAA",
"AAAAAAAAAAAAAAAAAAAAAAAA999999777755554444444444##########OOOOOOOOOOOOOOOOOOOOOOOOOOOOOO  XXXXXXXXXX                XXXXAAAAAAAA",
"AAAAAAAAAAAAAAAAAAAAAAAAAAAAAAAAAAAAAAAAAAAAAAAA99997777777755555555555555555555554444####                              AAAAAAAA",
"AAAAAAAAAAAAAAAAAAAAAAAAAAAAAAAAAAAAAAAAAAAAAAAA99997777777755555555555555555555554444####                              AAAAAAAA"
};
